<?xml version="1.0" encoding="utf-8"?>
<!-- Generator: Adobe Illustrator 16.0.3, SVG Export Plug-In . SVG Version: 6.00 Build 0)  -->
<!DOCTYPE svg PUBLIC "-//W3C//DTD SVG 1.1//EN" "http://www.w3.org/Graphics/SVG/1.1/DTD/svg11.dtd">
<svg version="1.1" xmlns="http://www.w3.org/2000/svg" xmlns:xlink="http://www.w3.org/1999/xlink" x="0px" y="0px" width="60px"
	 height="380px" viewBox="0 0 60 380" enable-background="new 0 0 60 380" xml:space="preserve">
<g id="faceplate">
	<rect id="background" x="0.066" fill="#E6E6E5" width="59.934" height="380"/>
	<g>
		<path fill="#231F20" d="M36.721,66.709c-0.902,0-1.588-0.192-2.172-0.785l0.751-0.751c0.377,0.375,0.886,0.5,1.437,0.5
			c0.685,0,1.053-0.259,1.053-0.734c0-0.208-0.059-0.383-0.186-0.502c-0.115-0.108-0.248-0.167-0.523-0.208l-0.719-0.1
			c-0.51-0.076-0.885-0.235-1.153-0.494c-0.283-0.284-0.424-0.667-0.424-1.169c0-1.061,0.784-1.803,2.069-1.803
			c0.817,0,1.412,0.2,1.92,0.693l-0.734,0.726c-0.375-0.359-0.826-0.41-1.219-0.41c-0.619,0-0.92,0.343-0.92,0.753
			c0,0.149,0.053,0.308,0.177,0.424c0.116,0.11,0.312,0.202,0.552,0.234l0.7,0.1c0.543,0.075,0.886,0.226,1.137,0.459
			c0.317,0.302,0.459,0.736,0.459,1.262C38.924,66.056,37.964,66.709,36.721,66.709z"/>
		<path fill="#231F20" d="M40.021,66.658v-5.945h1.16v5.945H40.021z"/>
		<path fill="#231F20" d="M46.232,66.032c-0.459,0.467-1.01,0.677-1.678,0.677c-0.635,0-1.17-0.218-1.604-0.653
			c-0.26-0.257-0.417-0.559-0.483-0.894c-0.067-0.332-0.101-0.826-0.101-1.477c0-0.65,0.033-1.144,0.101-1.479
			c0.066-0.343,0.224-0.634,0.483-0.894c0.434-0.434,0.969-0.65,1.604-0.65c1.354,0,2.079,0.869,2.237,1.903h-1.169
			c-0.143-0.575-0.492-0.867-1.068-0.867c-0.309,0-0.56,0.108-0.742,0.316c-0.22,0.275-0.283,0.494-0.283,1.67
			c0,1.169,0.05,1.403,0.283,1.679c0.176,0.208,0.426,0.308,0.742,0.308c0.342,0,0.617-0.108,0.826-0.334
			c0.176-0.2,0.268-0.467,0.268-0.792V64.32h-1.094v-0.969H46.8v0.869C46.801,65.089,46.645,65.597,46.232,66.032z"/>
		<path fill="#231F20" d="M51.406,66.658l-2.356-3.649v3.649h-1.159v-5.945h1.035l2.354,3.641v-3.641h1.16v5.945H51.406z"/>
	</g>
	<g>
		<path fill="#231F20" d="M32.947,168.162v-5.945h1.16v4.909h2.697v1.036H32.947z"/>
		<path fill="#231F20" d="M41.134,167.561c-0.417,0.418-0.928,0.65-1.604,0.65c-0.676,0-1.193-0.232-1.611-0.65
			c-0.602-0.602-0.583-1.344-0.583-2.372c0-1.026-0.019-1.769,0.583-2.37c0.418-0.418,0.938-0.653,1.611-0.653
			c0.676,0,1.188,0.235,1.604,0.653c0.601,0.602,0.593,1.344,0.593,2.37C41.727,166.216,41.734,166.958,41.134,167.561z
			 M40.273,163.52c-0.168-0.194-0.426-0.318-0.744-0.318c-0.316,0-0.584,0.125-0.752,0.318c-0.226,0.249-0.282,0.526-0.282,1.668
			c0,1.144,0.058,1.419,0.282,1.67c0.168,0.191,0.436,0.318,0.752,0.318c0.318,0,0.576-0.126,0.744-0.318
			c0.225-0.251,0.291-0.526,0.291-1.67C40.564,164.046,40.498,163.769,40.273,163.52z"/>
		<path fill="#231F20" d="M46.58,167.536c-0.459,0.467-1.012,0.675-1.68,0.675c-0.633,0-1.168-0.216-1.603-0.65
			c-0.26-0.259-0.418-0.559-0.483-0.894c-0.066-0.334-0.102-0.826-0.102-1.479c0-0.651,0.034-1.142,0.102-1.477
			c0.065-0.343,0.225-0.635,0.483-0.894c0.435-0.435,0.97-0.653,1.603-0.653c1.354,0,2.08,0.869,2.238,1.905h-1.168
			c-0.145-0.577-0.494-0.869-1.07-0.869c-0.308,0-0.559,0.108-0.741,0.318c-0.22,0.275-0.284,0.492-0.284,1.668
			c0,1.17,0.05,1.403,0.284,1.678c0.176,0.21,0.425,0.31,0.741,0.31c0.344,0,0.619-0.11,0.826-0.334
			c0.176-0.2,0.269-0.467,0.269-0.793v-0.224H44.9v-0.969h2.246v0.867C47.146,166.592,46.988,167.102,46.58,167.536z"/>
		<path fill="#231F20" d="M48.236,168.162v-5.945h1.16v5.945H48.236z"/>
		<path fill="#231F20" d="M52.771,168.211c-0.635,0-1.17-0.216-1.604-0.65c-0.257-0.259-0.416-0.559-0.483-0.894
			c-0.065-0.334-0.1-0.826-0.1-1.479c0-0.651,0.033-1.142,0.1-1.477c0.067-0.343,0.228-0.635,0.483-0.894
			c0.435-0.435,0.97-0.653,1.604-0.653c1.145,0,1.987,0.669,2.188,1.881h-1.177c-0.126-0.51-0.443-0.845-1.003-0.845
			c-0.317,0-0.567,0.1-0.743,0.31c-0.241,0.257-0.292,0.524-0.292,1.677s0.051,1.419,0.292,1.678c0.176,0.21,0.426,0.31,0.743,0.31
			c0.56,0,0.877-0.334,1.003-0.844h1.177C54.759,167.544,53.906,168.211,52.771,168.211z"/>
	</g>
	<g>
		<path fill="#231F20" d="M37.751,269.65c-0.901,0-1.587-0.192-2.171-0.784l0.751-0.753c0.375,0.375,0.886,0.502,1.437,0.502
			c0.686,0,1.053-0.26,1.053-0.735c0-0.208-0.059-0.384-0.184-0.501c-0.119-0.107-0.252-0.167-0.527-0.209l-0.717-0.1
			c-0.511-0.075-0.886-0.234-1.152-0.493c-0.283-0.283-0.426-0.668-0.426-1.169c0-1.061,0.785-1.805,2.07-1.805
			c0.817,0,1.41,0.201,1.92,0.693l-0.734,0.727c-0.375-0.358-0.826-0.408-1.219-0.408c-0.619,0-0.918,0.343-0.918,0.752
			c0,0.148,0.049,0.309,0.176,0.425c0.115,0.108,0.308,0.201,0.551,0.233l0.701,0.102c0.543,0.075,0.886,0.225,1.136,0.459
			c0.315,0.301,0.459,0.734,0.459,1.262C39.955,268.998,38.995,269.65,37.751,269.65z"/>
		<path fill="#231F20" d="M44.791,269.6l-0.434-0.518c-0.275,0.217-0.685,0.568-1.537,0.568c-1.312,0-1.961-0.686-1.961-1.805
			c0-0.76,0.551-1.253,1.067-1.595c-0.241-0.274-0.594-0.692-0.594-1.262c0-0.81,0.594-1.386,1.587-1.386
			c0.938,0,1.52,0.594,1.52,1.402c0,0.459-0.24,0.768-0.607,1.035c0,0-0.275,0.209-0.426,0.309l1.002,1.188
			c0.191-0.26,0.283-0.618,0.3-1.044h1.026c-0.041,0.769-0.217,1.377-0.633,1.846l1.067,1.261H44.791L44.791,269.6z M42.514,266.92
			c-0.359,0.25-0.603,0.484-0.603,0.91c0,0.492,0.399,0.835,0.901,0.835c0.352,0,0.609-0.108,0.886-0.351L42.514,266.92z
			 M42.921,264.531c-0.325,0-0.491,0.209-0.491,0.484c0,0.217,0.184,0.426,0.393,0.668c0.084-0.051,0.251-0.168,0.251-0.168
			c0.19-0.134,0.343-0.291,0.343-0.5C43.415,264.74,43.23,264.531,42.921,264.531z"/>
		<path fill="#231F20" d="M50.247,269.6v-2.488h-2.013v2.488h-1.159v-5.945h1.159v2.432h2.013v-2.432h1.161v5.945H50.247z"/>
	</g>
	<g>
		<rect x="3.136" y="254.691" fill="#BBBDBF" width="51.922" height="2.088"/>
	</g>
	<g>
		<rect x="3.136" y="153.31" fill="#BBBDBF" width="51.922" height="2.089"/>
	</g>
	<g>
		<g>
			<g>
				<g>
					<path fill="#BBBDBF" d="M2.302,25.03c0.13,0.143,0.253,0.296,0.394,0.424c0.433,0.385,0.873,0.759,1.303,1.146
						c0.296,0.265,0.577,0.547,0.863,0.824c0.046,0.043,0.086,0.094,0.123,0.145c0.143,0.186,0.146,0.247-0.01,0.42
						c-0.2,0.22-0.42,0.424-0.63,0.636c-0.279,0.284-0.557,0.569-0.836,0.853c-0.381,0.392-0.765,0.783-1.15,1.171
						c-0.021,0.022-0.058,0.039-0.088,0.039C1.922,30.69,1.573,30.69,1.2,30.69c0.067-0.106,0.114-0.208,0.185-0.29
						c0.199-0.241,0.401-0.487,0.625-0.706c0.437-0.428,0.829-0.897,1.324-1.267c0.218-0.165,0.39-0.4,0.596-0.614
						c-0.145-0.137-0.275-0.267-0.411-0.39c-0.378-0.336-0.766-0.663-1.104-1.042c-0.254-0.28-0.546-0.522-0.818-0.786
						c-0.136-0.134-0.271-0.272-0.397-0.416c-0.035-0.039-0.049-0.1-0.067-0.151C1.521,25.03,1.91,25.03,2.302,25.03z"/>
				</g>
				<g>
					<path fill="#BBBDBF" d="M4.309,25.03c0.128,0.143,0.252,0.296,0.396,0.424c0.431,0.385,0.873,0.759,1.299,1.146
						c0.297,0.265,0.58,0.547,0.867,0.824c0.043,0.043,0.083,0.094,0.123,0.145c0.139,0.186,0.147,0.247-0.01,0.42
						c-0.202,0.22-0.421,0.424-0.634,0.636c-0.278,0.284-0.557,0.569-0.834,0.853c-0.384,0.392-0.767,0.783-1.152,1.171
						c-0.02,0.022-0.057,0.039-0.086,0.039C3.929,30.69,3.579,30.69,3.207,30.69c0.067-0.106,0.114-0.208,0.184-0.29
						c0.204-0.241,0.4-0.487,0.626-0.706c0.434-0.428,0.828-0.897,1.324-1.267c0.221-0.165,0.392-0.4,0.595-0.614
						c-0.145-0.137-0.273-0.267-0.41-0.39c-0.379-0.336-0.765-0.663-1.105-1.042c-0.253-0.28-0.547-0.522-0.817-0.786
						c-0.14-0.134-0.271-0.272-0.4-0.416c-0.032-0.039-0.044-0.1-0.066-0.151C3.527,25.03,3.915,25.03,4.309,25.03z"/>
				</g>
				<g>
					<path fill="#BBBDBF" d="M6.313,25.03c0.133,0.143,0.255,0.296,0.398,0.424c0.43,0.385,0.873,0.759,1.301,1.146
						c0.295,0.265,0.575,0.547,0.86,0.824c0.047,0.043,0.088,0.094,0.125,0.145c0.142,0.186,0.148,0.247-0.009,0.42
						c-0.204,0.22-0.422,0.424-0.635,0.636c-0.278,0.284-0.553,0.57-0.833,0.853c-0.384,0.392-0.768,0.783-1.151,1.171
						c-0.021,0.022-0.057,0.039-0.088,0.039C5.934,30.69,5.584,30.69,5.215,30.69c0.063-0.106,0.11-0.208,0.179-0.29
						c0.204-0.241,0.402-0.487,0.624-0.706c0.439-0.428,0.833-0.897,1.33-1.267c0.218-0.165,0.389-0.4,0.588-0.614
						c-0.14-0.137-0.27-0.267-0.407-0.39C7.15,27.087,6.766,26.76,6.42,26.381c-0.25-0.28-0.542-0.522-0.812-0.786
						c-0.137-0.134-0.269-0.272-0.398-0.416c-0.035-0.039-0.047-0.1-0.067-0.151C5.532,25.03,5.924,25.03,6.313,25.03z"/>
				</g>
				<g>
					<path fill="#BBBDBF" d="M41.262,30.712c0.106-0.196,0.247-0.361,0.41-0.518c0.145-0.141,0.249-0.328,0.396-0.471
						c0.438-0.429,0.83-0.902,1.33-1.275c0.222-0.165,0.389-0.398,0.595-0.612c-0.146-0.139-0.275-0.267-0.414-0.39
						c-0.376-0.336-0.761-0.665-1.103-1.042c-0.254-0.279-0.547-0.522-0.817-0.787c-0.136-0.132-0.271-0.271-0.397-0.414
						c-0.029-0.035-0.043-0.087-0.072-0.151c0.39,0,0.752,0,1.117,0.002c0.028,0.002,0.062,0.024,0.086,0.045
						c0.448,0.416,0.895,0.834,1.34,1.248c0.264,0.241,0.541,0.465,0.802,0.71c0.196,0.186,0.38,0.386,0.553,0.589
						c0.11,0.131,0.09,0.196-0.012,0.331c-0.228,0.3-0.522,0.524-0.788,0.783c-0.236,0.232-0.456,0.477-0.688,0.714
						c-0.359,0.369-0.728,0.736-1.091,1.105c-0.036,0.039-0.062,0.088-0.096,0.132C42.027,30.712,41.645,30.712,41.262,30.712z"/>
				</g>
				<g>
					<path fill="#BBBDBF" d="M43.268,30.712c0.107-0.196,0.25-0.361,0.412-0.518c0.145-0.141,0.246-0.328,0.394-0.471
						c0.44-0.429,0.836-0.902,1.331-1.275c0.224-0.165,0.393-0.398,0.597-0.612c-0.146-0.139-0.274-0.267-0.412-0.39
						c-0.377-0.336-0.763-0.665-1.104-1.042c-0.252-0.279-0.545-0.522-0.816-0.787c-0.139-0.132-0.27-0.271-0.398-0.414
						c-0.031-0.035-0.043-0.087-0.072-0.151c0.39,0,0.75,0,1.117,0.002c0.028,0.002,0.062,0.024,0.084,0.045
						c0.449,0.416,0.894,0.834,1.341,1.248c0.267,0.241,0.544,0.465,0.802,0.71c0.195,0.186,0.381,0.386,0.553,0.589
						c0.11,0.131,0.088,0.196-0.014,0.331c-0.223,0.3-0.523,0.524-0.786,0.783c-0.235,0.232-0.455,0.477-0.687,0.714
						c-0.36,0.369-0.729,0.736-1.092,1.105c-0.035,0.039-0.062,0.088-0.096,0.132C44.032,30.712,43.648,30.712,43.268,30.712z"/>
				</g>
				<g>
					<path fill="#BBBDBF" d="M12.177,25.03c0.131,0.143,0.253,0.296,0.396,0.424c0.429,0.385,0.873,0.759,1.301,1.146
						c0.295,0.265,0.577,0.547,0.862,0.824c0.045,0.043,0.084,0.094,0.125,0.145c0.142,0.186,0.147,0.247-0.01,0.42
						c-0.204,0.22-0.424,0.424-0.634,0.636c-0.279,0.284-0.557,0.569-0.834,0.853c-0.38,0.392-0.767,0.783-1.15,1.171
						c-0.022,0.022-0.058,0.039-0.088,0.039c-0.349,0.002-0.697,0.002-1.071,0.002c0.064-0.106,0.114-0.208,0.184-0.29
						c0.204-0.241,0.4-0.487,0.625-0.706c0.438-0.428,0.831-0.897,1.325-1.267c0.222-0.165,0.392-0.4,0.594-0.614
						c-0.144-0.137-0.272-0.267-0.407-0.39c-0.381-0.336-0.767-0.663-1.107-1.042c-0.253-0.28-0.547-0.522-0.818-0.786
						c-0.139-0.134-0.27-0.272-0.401-0.416c-0.032-0.039-0.042-0.1-0.064-0.151C11.396,25.03,11.786,25.03,12.177,25.03z"/>
				</g>
				<g>
					<path fill="#BBBDBF" d="M14.182,25.03c0.135,0.143,0.257,0.296,0.398,0.424c0.43,0.385,0.873,0.759,1.301,1.146
						c0.298,0.265,0.575,0.547,0.862,0.824c0.048,0.043,0.087,0.094,0.125,0.145c0.141,0.186,0.146,0.247-0.01,0.42
						c-0.203,0.22-0.422,0.424-0.634,0.636c-0.278,0.284-0.555,0.569-0.834,0.853c-0.383,0.392-0.767,0.783-1.152,1.171
						c-0.021,0.022-0.057,0.039-0.088,0.039c-0.348,0.002-0.697,0.002-1.068,0.002c0.067-0.106,0.112-0.208,0.183-0.29
						c0.203-0.241,0.397-0.487,0.623-0.706c0.44-0.428,0.833-0.897,1.328-1.267c0.22-0.165,0.39-0.4,0.593-0.614
						c-0.144-0.137-0.271-0.267-0.409-0.39c-0.38-0.336-0.764-0.663-1.104-1.042c-0.255-0.28-0.546-0.522-0.818-0.786
						c-0.137-0.134-0.269-0.272-0.397-0.416c-0.033-0.039-0.047-0.1-0.067-0.151C13.401,25.03,13.792,25.03,14.182,25.03z"/>
				</g>
				<g>
					<path fill="#BBBDBF" d="M45.275,30.712c0.105-0.196,0.246-0.361,0.406-0.518c0.148-0.141,0.252-0.328,0.398-0.471
						c0.441-0.429,0.835-0.902,1.332-1.275c0.221-0.165,0.39-0.398,0.594-0.612c-0.148-0.139-0.275-0.267-0.41-0.39
						c-0.381-0.336-0.765-0.665-1.104-1.042c-0.253-0.279-0.548-0.522-0.817-0.787c-0.139-0.132-0.27-0.271-0.398-0.414
						c-0.029-0.035-0.045-0.087-0.072-0.151c0.39,0,0.753,0,1.115,0.002c0.029,0.002,0.062,0.024,0.086,0.045
						c0.449,0.416,0.894,0.834,1.345,1.248c0.263,0.241,0.542,0.465,0.797,0.71c0.196,0.186,0.38,0.386,0.552,0.589
						c0.113,0.131,0.088,0.196-0.009,0.331c-0.228,0.3-0.522,0.524-0.791,0.783c-0.233,0.232-0.452,0.477-0.684,0.714
						c-0.364,0.369-0.73,0.736-1.091,1.105c-0.039,0.039-0.065,0.088-0.098,0.132C46.043,30.712,45.659,30.712,45.275,30.712z"/>
				</g>
				<g>
					<path fill="#BBBDBF" d="M51.139,30.712c0.105-0.196,0.248-0.361,0.409-0.518c0.144-0.141,0.246-0.328,0.397-0.471
						c0.438-0.429,0.832-0.902,1.328-1.275c0.222-0.165,0.392-0.398,0.592-0.612c-0.143-0.139-0.271-0.267-0.408-0.39
						c-0.378-0.336-0.764-0.665-1.104-1.042c-0.254-0.279-0.547-0.522-0.818-0.787c-0.137-0.132-0.27-0.271-0.396-0.414
						c-0.033-0.035-0.043-0.087-0.074-0.151c0.391,0,0.752,0,1.117,0.002c0.028,0.002,0.062,0.024,0.084,0.045
						c0.448,0.416,0.895,0.834,1.344,1.248c0.265,0.241,0.541,0.465,0.798,0.71c0.196,0.186,0.382,0.386,0.554,0.589
						c0.112,0.131,0.088,0.196-0.011,0.331c-0.224,0.3-0.524,0.524-0.786,0.783c-0.237,0.232-0.458,0.477-0.688,0.714
						c-0.363,0.369-0.729,0.736-1.092,1.105c-0.037,0.039-0.066,0.088-0.096,0.132C51.904,30.712,51.521,30.712,51.139,30.712z"/>
				</g>
				<g>
					<path fill="#BBBDBF" d="M29.177,25.03c-0.043,0.073-0.073,0.157-0.133,0.214c-0.317,0.318-0.648,0.624-0.971,0.942
						c-0.191,0.193-0.372,0.406-0.574,0.6c-0.216,0.21-0.453,0.406-0.675,0.61c-0.143,0.13-0.286,0.265-0.433,0.404
						c0.037,0.049,0.063,0.094,0.099,0.128c0.205,0.202,0.411,0.404,0.621,0.6c0.162,0.151,0.338,0.288,0.489,0.444
						c0.306,0.308,0.602,0.622,0.896,0.937c0.155,0.167,0.306,0.34,0.448,0.516c0.062,0.074,0.103,0.164,0.157,0.259
						c-0.04,0.002-0.066,0.006-0.095,0.006c-0.312,0-0.624,0.002-0.937-0.002c-0.04,0-0.093-0.012-0.117-0.039
						c-0.457-0.469-0.91-0.948-1.374-1.414c-0.317-0.32-0.65-0.62-0.97-0.936c-0.128-0.126-0.247-0.263-0.355-0.408
						c-0.03-0.047-0.028-0.151,0-0.206c0.051-0.102,0.126-0.198,0.208-0.277c0.377-0.351,0.754-0.698,1.132-1.042
						c0.275-0.253,0.553-0.5,0.826-0.752c0.173-0.159,0.338-0.327,0.51-0.49c0.028-0.028,0.051-0.063,0.073-0.094
						C28.396,25.03,28.784,25.03,29.177,25.03z"/>
				</g>
				<g>
					<path fill="#BBBDBF" d="M31.186,25.03c-0.043,0.073-0.074,0.157-0.137,0.214c-0.316,0.318-0.646,0.624-0.966,0.942
						c-0.196,0.193-0.375,0.406-0.575,0.6c-0.22,0.21-0.449,0.406-0.677,0.61c-0.145,0.13-0.288,0.265-0.435,0.404
						c0.039,0.049,0.065,0.094,0.102,0.128c0.206,0.202,0.41,0.404,0.618,0.6c0.163,0.151,0.338,0.288,0.494,0.444
						c0.304,0.308,0.6,0.622,0.893,0.937c0.157,0.167,0.304,0.34,0.449,0.516c0.062,0.074,0.103,0.164,0.157,0.259
						c-0.043,0.002-0.066,0.006-0.096,0.006c-0.312,0-0.626,0.002-0.935-0.002c-0.042,0-0.094-0.012-0.12-0.039
						c-0.459-0.469-0.912-0.948-1.373-1.414c-0.316-0.32-0.653-0.62-0.971-0.936c-0.129-0.126-0.249-0.263-0.353-0.408
						c-0.034-0.047-0.031-0.151-0.002-0.206c0.051-0.102,0.126-0.198,0.21-0.277c0.373-0.351,0.752-0.698,1.132-1.042
						c0.271-0.253,0.551-0.5,0.824-0.752c0.173-0.159,0.34-0.327,0.508-0.49c0.031-0.028,0.051-0.063,0.078-0.094
						C30.403,25.03,30.792,25.03,31.186,25.03z"/>
				</g>
				<g>
					<path fill="#BBBDBF" d="M53.145,30.712c0.106-0.196,0.25-0.361,0.41-0.518c0.146-0.141,0.25-0.328,0.396-0.471
						c0.438-0.429,0.834-0.902,1.332-1.275c0.218-0.165,0.39-0.398,0.594-0.612c-0.146-0.139-0.274-0.267-0.412-0.39
						c-0.38-0.336-0.763-0.665-1.104-1.042c-0.254-0.279-0.545-0.522-0.817-0.787c-0.14-0.132-0.269-0.271-0.397-0.414
						c-0.031-0.035-0.047-0.087-0.072-0.151c0.39,0,0.753,0,1.115,0.002c0.028,0.002,0.063,0.024,0.088,0.045
						c0.443,0.416,0.894,0.834,1.342,1.248c0.264,0.241,0.541,0.465,0.798,0.71c0.198,0.186,0.376,0.386,0.556,0.589
						c0.109,0.131,0.088,0.196-0.013,0.331c-0.226,0.3-0.522,0.524-0.79,0.783c-0.234,0.232-0.455,0.477-0.686,0.714
						c-0.361,0.369-0.729,0.736-1.094,1.105c-0.039,0.039-0.062,0.088-0.094,0.132C53.911,30.712,53.527,30.712,53.145,30.712z"/>
				</g>
				<g>
					<path fill="#BBBDBF" d="M37.046,25.03c-0.044,0.073-0.073,0.157-0.135,0.214c-0.315,0.318-0.646,0.624-0.968,0.942
						c-0.196,0.193-0.375,0.406-0.574,0.6c-0.219,0.21-0.45,0.406-0.676,0.61c-0.146,0.13-0.285,0.265-0.435,0.404
						c0.037,0.049,0.065,0.094,0.101,0.128c0.203,0.202,0.41,0.404,0.619,0.6c0.158,0.151,0.338,0.288,0.49,0.444
						c0.307,0.308,0.602,0.622,0.896,0.937c0.154,0.167,0.306,0.34,0.447,0.516c0.062,0.074,0.103,0.164,0.156,0.259
						c-0.037,0.002-0.066,0.006-0.096,0.006c-0.312,0-0.624,0.002-0.938-0.002c-0.039,0-0.09-0.012-0.119-0.039
						c-0.457-0.469-0.907-0.948-1.368-1.414c-0.319-0.32-0.652-0.62-0.974-0.936c-0.129-0.126-0.248-0.263-0.353-0.408
						c-0.032-0.047-0.03-0.151-0.003-0.206c0.052-0.102,0.127-0.198,0.209-0.277c0.375-0.351,0.755-0.698,1.134-1.042
						c0.271-0.253,0.552-0.5,0.824-0.752c0.173-0.159,0.34-0.327,0.51-0.49c0.028-0.028,0.052-0.063,0.077-0.094
						C36.266,25.03,36.652,25.03,37.046,25.03z"/>
				</g>
				<g>
					<path fill="#BBBDBF" d="M39.051,25.03c-0.041,0.073-0.068,0.157-0.13,0.214c-0.321,0.318-0.651,0.624-0.97,0.942
						c-0.195,0.193-0.375,0.406-0.572,0.6c-0.223,0.21-0.453,0.406-0.68,0.61c-0.143,0.13-0.283,0.265-0.436,0.404
						c0.037,0.049,0.065,0.094,0.104,0.128c0.204,0.202,0.405,0.404,0.616,0.6c0.164,0.151,0.34,0.288,0.492,0.444
						c0.303,0.308,0.599,0.622,0.895,0.937c0.156,0.167,0.304,0.34,0.449,0.516c0.059,0.074,0.102,0.164,0.158,0.259
						c-0.041,0.002-0.069,0.006-0.101,0.006c-0.312,0-0.624,0.002-0.933-0.002c-0.043,0-0.094-0.012-0.12-0.039
						c-0.457-0.469-0.911-0.948-1.37-1.414c-0.318-0.32-0.653-0.62-0.975-0.936c-0.127-0.126-0.246-0.263-0.353-0.408
						c-0.034-0.047-0.03-0.151-0.002-0.206c0.054-0.102,0.126-0.198,0.21-0.277c0.374-0.351,0.753-0.698,1.132-1.042
						c0.273-0.253,0.55-0.5,0.824-0.752c0.172-0.159,0.341-0.327,0.509-0.49c0.029-0.028,0.051-0.063,0.076-0.094
						C38.27,25.03,38.661,25.03,39.051,25.03z"/>
				</g>
				<g>
					<path fill="#BBBDBF" d="M55.084,30.712c0.062-0.106,0.109-0.222,0.188-0.314c0.201-0.243,0.4-0.487,0.623-0.708
						c0.438-0.424,0.83-0.896,1.323-1.265c0.222-0.165,0.39-0.4,0.589-0.606c-0.482-0.461-0.963-0.901-1.42-1.362
						c-0.455-0.459-0.977-0.856-1.367-1.375c0.006-0.01,0.014-0.021,0.021-0.031c0.304,0,0.608,0.012,0.912-0.004
						c0.178-0.01,0.301,0.055,0.428,0.179c0.351,0.341,0.707,0.667,1.071,0.996c0.406,0.375,0.816,0.747,1.224,1.125
						c0.099,0.092,0.181,0.202,0.259,0.31c0.065,0.094,0.053,0.182-0.021,0.277c-0.208,0.27-0.467,0.483-0.712,0.716
						c-0.263,0.253-0.507,0.522-0.761,0.781c-0.371,0.374-0.738,0.747-1.107,1.12c-0.045,0.047-0.078,0.106-0.118,0.159
						C55.837,30.712,55.46,30.712,55.084,30.712z"/>
				</g>
				<g>
					<path fill="#BBBDBF" d="M57.091,30.712c0.062-0.106,0.11-0.222,0.185-0.314c0.203-0.243,0.401-0.487,0.629-0.708
						c0.434-0.424,0.83-0.896,1.32-1.265c0.224-0.165,0.393-0.4,0.59-0.606c-0.482-0.461-0.965-0.901-1.422-1.362
						c-0.457-0.459-0.975-0.856-1.365-1.375c0.006-0.01,0.014-0.021,0.02-0.031c0.303,0,0.605,0.012,0.908-0.004
						c0.184-0.01,0.304,0.055,0.43,0.179c0.35,0.341,0.713,0.667,1.07,0.996c0.411,0.375,0.82,0.747,1.227,1.125
						c0.098,0.092,0.18,0.202,0.26,0.31c0.068,0.094,0.055,0.182-0.024,0.277c-0.208,0.27-0.465,0.483-0.709,0.716
						c-0.263,0.253-0.51,0.522-0.761,0.781c-0.366,0.374-0.74,0.747-1.108,1.12c-0.045,0.047-0.079,0.106-0.12,0.159
						C57.842,30.712,57.467,30.712,57.091,30.712z"/>
				</g>
				<g>
					<path fill="#BBBDBF" d="M8.275,25.03c0.126,0.137,0.247,0.282,0.384,0.408c0.367,0.336,0.744,0.663,1.116,0.997
						c0.314,0.284,0.626,0.569,0.934,0.861c0.104,0.1,0.198,0.216,0.283,0.333c0.077,0.11,0.063,0.177-0.018,0.285
						c-0.227,0.304-0.526,0.533-0.793,0.793c-0.247,0.241-0.479,0.498-0.72,0.745c-0.389,0.402-0.781,0.799-1.17,1.199
						c-0.019,0.017-0.045,0.037-0.065,0.037c-0.355,0.002-0.71,0.002-1.089,0.002c0.069-0.116,0.123-0.222,0.19-0.308
						c0.205-0.241,0.401-0.488,0.628-0.706c0.438-0.43,0.831-0.901,1.331-1.272c0.217-0.167,0.388-0.4,0.594-0.614
						c-0.145-0.139-0.272-0.268-0.411-0.39c-0.376-0.336-0.762-0.665-1.104-1.042c-0.257-0.281-0.553-0.528-0.824-0.793
						c-0.135-0.131-0.265-0.268-0.39-0.406c-0.033-0.035-0.05-0.085-0.069-0.128C7.48,25.03,7.878,25.03,8.275,25.03z"/>
				</g>
				<g>
					<path fill="#BBBDBF" d="M10.283,25.03c0.128,0.137,0.245,0.282,0.383,0.408c0.365,0.336,0.745,0.663,1.114,0.997
						c0.314,0.284,0.628,0.569,0.934,0.861c0.106,0.1,0.201,0.216,0.287,0.333c0.079,0.11,0.062,0.177-0.02,0.285
						c-0.227,0.304-0.526,0.533-0.798,0.793c-0.246,0.241-0.474,0.498-0.717,0.745c-0.387,0.402-0.781,0.799-1.17,1.199
						c-0.017,0.017-0.045,0.037-0.063,0.037c-0.354,0.002-0.71,0.002-1.089,0.002c0.072-0.116,0.12-0.222,0.194-0.308
						c0.202-0.241,0.4-0.488,0.624-0.706c0.438-0.43,0.834-0.901,1.331-1.272c0.222-0.167,0.391-0.4,0.595-0.614
						c-0.145-0.139-0.276-0.268-0.412-0.39c-0.375-0.336-0.763-0.665-1.104-1.042c-0.255-0.281-0.55-0.528-0.826-0.793
						c-0.135-0.131-0.261-0.268-0.39-0.406c-0.031-0.035-0.045-0.085-0.068-0.128C9.484,25.03,9.885,25.03,10.283,25.03z"/>
				</g>
				<g>
					<path fill="#BBBDBF" d="M16.145,25.03c0.126,0.137,0.247,0.282,0.385,0.408c0.365,0.336,0.743,0.663,1.114,0.997
						c0.314,0.284,0.626,0.569,0.934,0.861c0.106,0.1,0.198,0.216,0.284,0.333c0.079,0.11,0.063,0.177-0.017,0.285
						c-0.227,0.304-0.528,0.533-0.793,0.793c-0.251,0.241-0.479,0.498-0.722,0.745c-0.388,0.402-0.781,0.799-1.171,1.199
						c-0.019,0.017-0.045,0.037-0.065,0.037c-0.355,0.002-0.709,0.002-1.09,0.002c0.072-0.116,0.121-0.222,0.194-0.308
						c0.201-0.241,0.4-0.488,0.621-0.706c0.442-0.43,0.838-0.901,1.335-1.272c0.22-0.167,0.388-0.4,0.594-0.614
						c-0.145-0.139-0.275-0.268-0.413-0.39c-0.372-0.336-0.76-0.665-1.103-1.04c-0.257-0.284-0.553-0.53-0.824-0.795
						c-0.135-0.131-0.263-0.268-0.39-0.406c-0.033-0.035-0.047-0.085-0.069-0.128C15.35,25.03,15.747,25.03,16.145,25.03z"/>
				</g>
				<g>
					<path fill="#BBBDBF" d="M18.151,25.03c0.128,0.137,0.246,0.282,0.383,0.408c0.365,0.336,0.745,0.663,1.114,0.997
						c0.315,0.284,0.628,0.569,0.936,0.861c0.104,0.1,0.196,0.216,0.284,0.333c0.08,0.11,0.063,0.177-0.019,0.285
						c-0.226,0.304-0.526,0.533-0.795,0.793c-0.249,0.241-0.478,0.498-0.72,0.745c-0.388,0.402-0.777,0.799-1.171,1.199
						c-0.016,0.017-0.045,0.037-0.063,0.037c-0.354,0.002-0.715,0.002-1.089,0.002c0.071-0.116,0.12-0.222,0.194-0.308
						c0.199-0.241,0.399-0.488,0.625-0.706c0.438-0.43,0.833-0.901,1.329-1.272c0.223-0.167,0.392-0.4,0.596-0.614
						c-0.145-0.139-0.275-0.268-0.41-0.39c-0.377-0.336-0.765-0.665-1.105-1.04c-0.255-0.284-0.551-0.53-0.826-0.795
						c-0.135-0.131-0.261-0.268-0.393-0.406c-0.028-0.035-0.042-0.085-0.064-0.128C17.356,25.03,17.752,25.03,18.151,25.03z"/>
				</g>
				<g>
					<path fill="#BBBDBF" d="M25.233,25.03c-0.147,0.173-0.284,0.357-0.443,0.518c-0.208,0.21-0.438,0.398-0.649,0.606
						c-0.201,0.196-0.384,0.412-0.584,0.605c-0.22,0.212-0.453,0.408-0.677,0.612c-0.145,0.131-0.288,0.265-0.432,0.404
						c0.021,0.031,0.037,0.055,0.053,0.076c0.212,0.249,0.445,0.475,0.696,0.683c0.222,0.184,0.423,0.394,0.626,0.598
						c0.245,0.249,0.49,0.498,0.728,0.753c0.156,0.165,0.303,0.338,0.449,0.516c0.067,0.082,0.112,0.18,0.178,0.29
						c-0.27,0-0.513,0-0.762,0c-0.356,0-0.356,0.002-0.606-0.255c-0.5-0.526-0.999-1.056-1.506-1.579
						c-0.181-0.184-0.385-0.345-0.571-0.526c-0.15-0.143-0.284-0.298-0.419-0.453c-0.06-0.065-0.06-0.149-0.009-0.218
						c0.07-0.098,0.137-0.202,0.223-0.283c0.369-0.349,0.749-0.691,1.124-1.034c0.274-0.253,0.552-0.5,0.824-0.752
						c0.171-0.157,0.334-0.32,0.504-0.483c0.02-0.022,0.039-0.049,0.057-0.076C24.435,25.03,24.833,25.03,25.233,25.03z"/>
				</g>
				<g>
					<path fill="#BBBDBF" d="M27.236,25.03c-0.143,0.173-0.281,0.357-0.438,0.518c-0.208,0.21-0.437,0.398-0.651,0.606
						c-0.2,0.196-0.381,0.412-0.583,0.605c-0.218,0.212-0.453,0.408-0.679,0.612c-0.143,0.131-0.283,0.265-0.43,0.404
						c0.022,0.031,0.036,0.055,0.055,0.076c0.21,0.249,0.442,0.475,0.693,0.683c0.222,0.184,0.422,0.394,0.624,0.598
						c0.245,0.249,0.491,0.498,0.728,0.753c0.157,0.165,0.306,0.338,0.451,0.516c0.067,0.082,0.11,0.18,0.177,0.29
						c-0.267,0-0.514,0-0.764,0c-0.354,0-0.356,0.002-0.601-0.255c-0.502-0.526-1.004-1.056-1.509-1.579
						c-0.18-0.184-0.386-0.345-0.571-0.526c-0.147-0.143-0.284-0.298-0.42-0.453c-0.059-0.065-0.057-0.149-0.005-0.218
						c0.066-0.098,0.133-0.202,0.221-0.283c0.369-0.349,0.745-0.691,1.124-1.034c0.273-0.253,0.551-0.5,0.822-0.752
						c0.171-0.157,0.334-0.32,0.501-0.483c0.025-0.022,0.043-0.049,0.064-0.076C26.442,25.03,26.839,25.03,27.236,25.03z"/>
				</g>
				<g>
					<path fill="#BBBDBF" d="M33.104,25.03c-0.147,0.173-0.285,0.357-0.443,0.518c-0.206,0.21-0.438,0.398-0.654,0.606
						c-0.195,0.196-0.378,0.412-0.58,0.605c-0.22,0.212-0.453,0.408-0.677,0.612c-0.144,0.131-0.286,0.265-0.433,0.404
						c0.021,0.031,0.038,0.055,0.054,0.076c0.213,0.249,0.442,0.475,0.696,0.683c0.221,0.184,0.418,0.394,0.625,0.598
						c0.244,0.249,0.488,0.498,0.728,0.753c0.157,0.165,0.308,0.338,0.449,0.516c0.067,0.082,0.112,0.18,0.177,0.29
						c-0.268,0-0.518,0-0.763,0c-0.351,0-0.354,0.002-0.603-0.255c-0.504-0.526-1-1.056-1.509-1.579
						c-0.179-0.184-0.385-0.345-0.571-0.526c-0.147-0.143-0.283-0.298-0.42-0.453c-0.062-0.065-0.057-0.149-0.006-0.218
						c0.066-0.098,0.132-0.202,0.22-0.283c0.371-0.349,0.749-0.691,1.125-1.034c0.273-0.253,0.551-0.5,0.822-0.752
						c0.172-0.157,0.334-0.32,0.504-0.483c0.021-0.022,0.043-0.049,0.062-0.076C32.303,25.03,32.702,25.03,33.104,25.03z"/>
				</g>
				<g>
					<path fill="#BBBDBF" d="M35.105,25.03c-0.145,0.173-0.282,0.357-0.439,0.518c-0.208,0.21-0.438,0.398-0.648,0.606
						c-0.201,0.196-0.384,0.412-0.586,0.605c-0.218,0.212-0.451,0.408-0.676,0.612c-0.146,0.131-0.287,0.265-0.436,0.404
						c0.023,0.031,0.039,0.055,0.058,0.076c0.21,0.249,0.442,0.475,0.695,0.683c0.22,0.184,0.421,0.394,0.622,0.598
						c0.246,0.249,0.49,0.498,0.726,0.753c0.159,0.165,0.312,0.338,0.453,0.516c0.067,0.082,0.112,0.18,0.175,0.29
						c-0.265,0-0.511,0-0.758,0c-0.357,0-0.357,0.002-0.604-0.255c-0.504-0.526-1.004-1.056-1.511-1.579
						c-0.179-0.184-0.385-0.345-0.569-0.526c-0.146-0.143-0.283-0.298-0.42-0.453c-0.061-0.065-0.059-0.149-0.006-0.218
						c0.065-0.098,0.133-0.202,0.219-0.283c0.371-0.349,0.752-0.691,1.127-1.034c0.272-0.253,0.551-0.5,0.82-0.752
						c0.172-0.157,0.338-0.32,0.5-0.483c0.027-0.022,0.045-0.049,0.065-0.076C34.311,25.03,34.709,25.03,35.105,25.03z"/>
				</g>
				<g>
					<path fill="#BBBDBF" d="M47.216,30.712c0.062-0.106,0.109-0.222,0.188-0.314c0.195-0.243,0.398-0.487,0.621-0.708
						c0.438-0.424,0.832-0.896,1.324-1.265c0.223-0.165,0.389-0.4,0.59-0.606c-0.483-0.461-0.963-0.901-1.422-1.362
						c-0.455-0.459-0.976-0.856-1.369-1.375c0.01-0.01,0.015-0.021,0.022-0.031c0.302,0,0.606,0.012,0.909-0.004
						c0.18-0.01,0.3,0.055,0.432,0.179c0.348,0.341,0.709,0.667,1.067,0.996c0.407,0.375,0.819,0.747,1.223,1.125
						c0.103,0.092,0.185,0.202,0.263,0.31c0.065,0.094,0.053,0.182-0.021,0.277c-0.209,0.27-0.469,0.483-0.713,0.716
						c-0.261,0.253-0.506,0.522-0.763,0.781c-0.364,0.374-0.738,0.747-1.104,1.12c-0.046,0.047-0.083,0.106-0.118,0.159
						C47.964,30.712,47.592,30.712,47.216,30.712z"/>
				</g>
				<g>
					<path fill="#BBBDBF" d="M49.221,30.712c0.062-0.106,0.114-0.222,0.188-0.314c0.203-0.243,0.4-0.487,0.627-0.708
						c0.436-0.424,0.828-0.896,1.32-1.265c0.224-0.165,0.393-0.4,0.59-0.606c-0.482-0.461-0.965-0.901-1.422-1.362
						c-0.453-0.459-0.974-0.856-1.364-1.375c0.005-0.01,0.008-0.021,0.018-0.031c0.304,0,0.607,0.012,0.909-0.004
						c0.184-0.01,0.305,0.055,0.432,0.179c0.349,0.341,0.711,0.667,1.069,0.996c0.408,0.375,0.817,0.747,1.228,1.125
						c0.096,0.092,0.179,0.202,0.259,0.31c0.069,0.094,0.051,0.182-0.024,0.277c-0.208,0.27-0.468,0.483-0.711,0.716
						c-0.261,0.253-0.505,0.522-0.76,0.781c-0.367,0.374-0.738,0.747-1.107,1.12c-0.045,0.047-0.08,0.106-0.119,0.159
						C49.973,30.712,49.598,30.712,49.221,30.712z"/>
				</g>
				<g>
					<path fill="#BBBDBF" d="M0,25.097c0.109,0.067,0.231,0.118,0.321,0.202c0.353,0.325,0.695,0.661,1.044,0.989
						c0.179,0.167,0.369,0.329,0.548,0.498c0.18,0.173,0.353,0.354,0.532,0.532c0.092,0.096,0.192,0.189,0.287,0.286
						c0.109,0.114,0.12,0.224,0.033,0.357c-0.02,0.032-0.036,0.065-0.064,0.092c-0.255,0.243-0.513,0.483-0.767,0.724
						c-0.13,0.125-0.257,0.253-0.386,0.375c-0.24,0.224-0.488,0.445-0.726,0.669c-0.155,0.147-0.306,0.298-0.463,0.442
						c-0.085,0.08-0.173,0.153-0.265,0.225C0.072,30.506,0.035,30.502,0,30.508c0-0.42,0-0.84,0-1.263
						c0.099-0.092,0.187-0.192,0.291-0.279c0.405-0.357,0.82-0.712,1.23-1.069c0.043-0.037,0.078-0.083,0.128-0.135
						c-0.232-0.212-0.457-0.412-0.674-0.618C0.649,26.833,0.326,26.517,0,26.203C0,25.833,0,25.466,0,25.097z"/>
				</g>
				<g>
					<path fill="#BBBDBF" d="M23.293,25.03c-0.146,0.135-0.292,0.267-0.434,0.404c-0.221,0.212-0.438,0.428-0.661,0.639
						c-0.165,0.155-0.334,0.297-0.501,0.451c-0.163,0.149-0.324,0.3-0.481,0.453c-0.076,0.071-0.145,0.065-0.22,0.01
						c-0.047-0.035-0.094-0.067-0.131-0.106c-0.234-0.235-0.466-0.467-0.697-0.704c-0.353-0.363-0.702-0.729-1.053-1.093
						c-0.014-0.017-0.024-0.035-0.039-0.053c0.422,0,0.843,0,1.265,0c0.055,0.059,0.108,0.123,0.163,0.178
						c0.125,0.116,0.271,0.202,0.357,0.353c0.051,0.088,0.128,0.159,0.191,0.23c0.16-0.151,0.288-0.277,0.421-0.396
						c0.139-0.125,0.279-0.243,0.422-0.365C22.361,25.03,22.826,25.03,23.293,25.03z"/>
				</g>
				<g>
					<path fill="#BBBDBF" d="M42.915,27.83c-0.06,0.094-0.097,0.196-0.169,0.263c-0.331,0.314-0.67,0.612-0.999,0.926
						c-0.244,0.23-0.472,0.481-0.716,0.712c-0.268,0.255-0.553,0.496-0.821,0.747c-0.067,0.061-0.132,0.071-0.201,0.022
						c-0.071-0.051-0.153-0.102-0.211-0.165c-0.335-0.334-0.663-0.673-0.993-1.012c-0.24-0.249-0.476-0.502-0.719-0.745
						c-0.13-0.126-0.281-0.222-0.406-0.353c-0.146-0.149-0.277-0.314-0.4-0.483c-0.026-0.039-0.016-0.131,0.013-0.178
						c0.06-0.102,0.133-0.204,0.216-0.286c0.373-0.349,0.749-0.691,1.129-1.036c0.272-0.25,0.547-0.501,0.823-0.749
						c0.129-0.114,0.263-0.222,0.403-0.322c0.123-0.088,0.219-0.082,0.339,0.01c0.271,0.208,0.536,0.42,0.765,0.677
						c0.188,0.206,0.405,0.379,0.606,0.571c0.265,0.257,0.532,0.516,0.798,0.775c0.145,0.141,0.293,0.281,0.432,0.428
						C42.848,27.681,42.871,27.753,42.915,27.83z M38.427,27.688c0.236,0.275,0.478,0.518,0.742,0.74
						c0.248,0.206,0.511,0.404,0.7,0.675c0.035,0.051,0.085,0.098,0.139,0.13c0.021,0.019,0.085,0.014,0.11-0.006
						c0.373-0.331,0.741-0.665,1.112-0.998c0.158-0.143,0.318-0.284,0.488-0.433c-0.58-0.546-1.146-1.081-1.693-1.599
						C39.499,26.69,38.968,27.186,38.427,27.688z"/>
				</g>
				<g>
					<path fill="#BBBDBF" d="M23.279,30.689c-0.406,0-0.812,0-1.213-0.002c-0.036-0.002-0.076-0.03-0.104-0.057
						c-0.215-0.196-0.432-0.394-0.645-0.595c-0.088-0.088-0.171-0.186-0.265-0.29c-0.062,0.061-0.106,0.116-0.157,0.167
						c-0.257,0.249-0.515,0.498-0.769,0.742c-0.02,0.021-0.061,0.033-0.089,0.033c-0.418,0.002-0.84,0.002-1.263,0
						c0,0-0.012-0.006-0.041-0.018c0.147-0.135,0.28-0.265,0.42-0.392c0.451-0.406,0.903-0.812,1.358-1.214
						c0.12-0.108,0.247-0.208,0.377-0.302c0.143-0.104,0.23-0.098,0.367,0.008c0.271,0.21,0.536,0.43,0.765,0.689
						c0.169,0.191,0.371,0.351,0.559,0.524c0.239,0.225,0.479,0.449,0.718,0.673C23.291,30.667,23.285,30.68,23.279,30.689z"/>
				</g>
			</g>
		</g>
	</g>
	<g>
		<g>
			<g>
				<line fill="none" x1="0.066" y1="24.024" x2="59.131" y2="24.024"/>
			</g>
			<g>
				<rect x="0.066" y="23.502" fill="#BBBDBF" width="59.064" height="1.044"/>
			</g>
		</g>
		<g>
			<g>
				<line fill="none" x1="0.066" y1="31.736" x2="59.131" y2="31.736"/>
			</g>
			<g>
				<rect x="0.066" y="31.214" fill="#BBBDBF" width="59.064" height="1.044"/>
			</g>
		</g>
	</g>
	<g>
		<path fill="#231F20" d="M8.407,211.512v-5.945h1.162v5.945H8.407z"/>
		<path fill="#231F20" d="M14.471,211.512l-2.354-3.648v3.648h-1.161v-5.945h1.035l2.355,3.642v-3.642h1.16v5.945H14.471z"/>
		<path fill="#231F20" d="M22.215,211.512l-0.351-1.053h-2.113l-0.358,1.053h-1.21l2.162-5.945h0.911l2.171,5.945H22.215z
			 M20.83,207.32l-0.752,2.162h1.479L20.83,207.32z"/>
	</g>
	<g>
		<path fill="#231F20" d="M36.494,211.512v-5.945h1.16v5.945H36.494z"/>
		<path fill="#231F20" d="M42.559,211.512l-2.355-3.648v3.648h-1.16v-5.945h1.036l2.354,3.642v-3.642h1.159v5.945H42.559z"/>
		<path fill="#231F20" d="M49.409,211.512h-2.488v-5.945h2.386c1.164,0,1.838,0.652,1.838,1.67c0,0.662-0.435,1.086-0.733,1.229
			c0.358,0.167,0.817,0.542,0.817,1.335C51.229,210.91,50.471,211.512,49.409,211.512z M49.216,206.604h-1.135v1.367h1.135
			c0.493,0,0.769-0.275,0.769-0.684C49.984,206.878,49.709,206.604,49.216,206.604z M49.291,209.016h-1.21v1.463h1.21
			c0.525,0,0.775-0.336,0.775-0.736S49.816,209.016,49.291,209.016z"/>
	</g>
	<g>
		<path fill="#231F20" d="M41.049,248.811v-3.467l-1.135,2.256H39.13l-1.146-2.256v3.467h-1.159v-5.945h1.144l1.553,3.215
			l1.545-3.215h1.144v5.945H41.049z"/>
		<path fill="#231F20" d="M43.6,248.811v-5.945h1.16v5.945H43.6z"/>
		<path fill="#231F20" d="M49.662,248.811l-2.354-3.649v3.649h-1.162v-5.945h1.035l2.354,3.641v-3.641h1.161v5.945H49.662z"/>
	</g>
	<g>
		<path fill="#231F20" d="M11.94,248.811v-3.467l-1.136,2.256h-0.785l-1.145-2.256v3.467h-1.16v-5.945h1.144l1.553,3.215
			l1.545-3.215H13.1v5.945H11.94z"/>
		<path fill="#231F20" d="M17.871,248.811l-0.351-1.054h-2.113l-0.359,1.054h-1.209L16,242.864h0.91l2.171,5.944h-1.21V248.811z
			 M16.485,244.618l-0.751,2.161h1.477L16.485,244.618z"/>
		<path fill="#231F20" d="M22.792,248.811l-1.152-2.07l-1.145,2.07h-1.328l1.846-3.047l-1.729-2.898h1.32l1.036,1.921l1.043-1.921
			h1.311l-1.728,2.898l1.852,3.047H22.792z"/>
	</g>
	<g>
		<path fill="#231F20" d="M12.042,313.041v-5.945h1.161v5.945H12.042z"/>
		<path fill="#231F20" d="M18.105,313.041l-2.356-3.648v3.648h-1.16v-5.945h1.036l2.354,3.641v-3.641h1.162v5.945H18.105z"/>
	</g>
	<g>
		<path fill="#231F20" d="M37.675,308.132v4.909h-1.159v-4.909h-1.553v-1.036h4.268v1.036H37.675z"/>
		<path fill="#231F20" d="M43.331,313.041l-1.16-2.371h-0.837v2.371h-1.159v-5.945h2.33c1.21,0,1.929,0.827,1.929,1.82
			c0,0.835-0.51,1.354-1.086,1.562l1.327,2.562H43.331z M42.43,308.132h-1.096v1.569h1.096c0.508,0,0.842-0.325,0.842-0.785
			C43.271,308.457,42.938,308.132,42.43,308.132z"/>
		<path fill="#231F20" d="M45.639,313.041v-5.945h1.16v5.945H45.639z"/>
		<path fill="#231F20" d="M51.854,312.415c-0.461,0.467-1.013,0.676-1.68,0.676c-0.634,0-1.169-0.217-1.604-0.651
			c-0.26-0.258-0.418-0.559-0.485-0.894c-0.063-0.333-0.101-0.825-0.101-1.478c0-0.65,0.035-1.144,0.101-1.479
			c0.067-0.343,0.228-0.635,0.485-0.895c0.435-0.435,0.97-0.65,1.604-0.65c1.354,0,2.078,0.869,2.237,1.904h-1.169
			c-0.143-0.576-0.493-0.868-1.068-0.868c-0.311,0-0.561,0.108-0.744,0.317c-0.217,0.274-0.283,0.492-0.283,1.668
			c0,1.17,0.052,1.403,0.283,1.68c0.176,0.209,0.426,0.309,0.744,0.309c0.344,0,0.618-0.107,0.826-0.334
			c0.176-0.199,0.268-0.467,0.268-0.792v-0.226h-1.094v-0.969h2.246v0.867C52.42,311.473,52.262,311.98,51.854,312.415z"/>
	</g>
	<g>
		<path fill="#231F20" d="M40.189,349.736c-0.418,0.418-0.928,0.652-1.604,0.652c-0.677,0-1.193-0.234-1.611-0.652
			c-0.602-0.601-0.584-1.344-0.584-2.37s-0.018-1.771,0.584-2.371c0.418-0.417,0.936-0.651,1.611-0.651s1.186,0.234,1.604,0.651
			c0.603,0.603,0.593,1.345,0.593,2.371C40.782,348.395,40.792,349.137,40.189,349.736z M39.329,345.697
			c-0.166-0.193-0.425-0.317-0.742-0.317s-0.584,0.124-0.752,0.317c-0.226,0.25-0.284,0.525-0.284,1.669
			c0,1.145,0.061,1.42,0.284,1.671c0.168,0.191,0.435,0.316,0.752,0.316s0.576-0.125,0.742-0.316
			c0.228-0.251,0.293-0.526,0.293-1.671C39.622,346.225,39.557,345.947,39.329,345.697z"/>
		<path fill="#231F20" d="M44.066,350.389c-1.219,0-2.188-0.824-2.188-2.087v-3.907h1.16v3.865c0,0.686,0.402,1.096,1.027,1.096
			c0.627,0,1.035-0.41,1.035-1.096v-3.865h1.152v3.907C46.255,349.562,45.287,350.389,44.066,350.389z"/>
		<path fill="#231F20" d="M49.823,345.43v4.909h-1.161v-4.909h-1.555v-1.035h4.268v1.035H49.823z"/>
	</g>
	<g>
		<path fill="#231F20" d="M7.871,350.339l-2.354-3.647v3.647H4.355v-5.944H5.39l2.354,3.641v-3.641h1.162v5.944H7.871z"/>
		<path fill="#231F20" d="M13.894,349.736c-0.417,0.418-0.926,0.652-1.603,0.652c-0.676,0-1.193-0.234-1.611-0.652
			c-0.602-0.601-0.585-1.344-0.585-2.37s-0.016-1.771,0.585-2.371c0.418-0.417,0.935-0.651,1.611-0.651
			c0.677,0,1.186,0.234,1.603,0.651c0.602,0.603,0.594,1.345,0.594,2.371C14.487,348.395,14.495,349.137,13.894,349.736z
			 M13.033,345.697c-0.166-0.193-0.424-0.317-0.743-0.317c-0.316,0-0.583,0.124-0.75,0.317c-0.227,0.25-0.285,0.525-0.285,1.669
			c0,1.145,0.058,1.42,0.285,1.671c0.167,0.191,0.435,0.316,0.75,0.316c0.318,0,0.577-0.125,0.743-0.316
			c0.226-0.251,0.293-0.526,0.293-1.671C13.327,346.225,13.259,345.947,13.033,345.697z"/>
		<path fill="#231F20" d="M15.675,350.339v-5.944h1.161v5.944H15.675z"/>
		<path fill="#231F20" d="M19.859,350.389c-0.901,0-1.587-0.19-2.17-0.783l0.75-0.752c0.375,0.375,0.885,0.502,1.436,0.502
			c0.685,0,1.052-0.26,1.052-0.735c0-0.208-0.059-0.384-0.184-0.501c-0.116-0.107-0.251-0.167-0.526-0.209l-0.718-0.102
			c-0.509-0.074-0.885-0.232-1.152-0.492c-0.284-0.282-0.425-0.668-0.425-1.168c0-1.062,0.784-1.805,2.071-1.805
			c0.818,0,1.41,0.201,1.919,0.693l-0.734,0.727c-0.375-0.359-0.826-0.408-1.22-0.408c-0.618,0-0.918,0.342-0.918,0.752
			c0,0.148,0.051,0.309,0.175,0.425c0.117,0.108,0.31,0.2,0.551,0.233l0.702,0.102c0.542,0.074,0.885,0.225,1.136,0.458
			c0.316,0.302,0.459,0.735,0.459,1.262C22.064,349.736,21.104,350.389,19.859,350.389z"/>
		<path fill="#231F20" d="M23.161,350.339v-5.944h3.916v1.035h-2.755v1.396h2.346v1.034h-2.346v1.445h2.755v1.034H23.161z"/>
	</g>
	<g>
		<g>
			<path fill="#231F20" d="M7.308,110.097v-5.946h1.161v5.946H7.308z"/>
			<path fill="#231F20" d="M13.372,110.097l-2.356-3.649v3.649h-1.16v-5.946h1.036l2.354,3.641v-3.641h1.162v5.946H13.372z"/>
		</g>
		<g>
			<g>
				<path fill="#231F20" d="M22.197,109.452c-1.31,0-2.374-1.11-2.374-2.473c0-0.789-0.596-1.43-1.33-1.43
					c-0.732,0-1.33,0.641-1.33,1.43v1.951h-1.044v-1.951c0-1.365,1.065-2.474,2.375-2.474c1.309,0,2.374,1.109,2.374,2.474
					c0,0.788,0.598,1.429,1.33,1.429c0.732,0,1.328-0.641,1.328-1.429v-1.952h1.044v1.952
					C24.569,108.342,23.504,109.452,22.197,109.452z"/>
			</g>
		</g>
	</g>
	<g>
		<g>
			<path fill="#231F20" d="M41.911,109.451c1.31,0,2.374-1.11,2.374-2.472c0-0.79,0.595-1.43,1.328-1.43
				c0.732,0,1.33,0.64,1.33,1.43v1.95h1.045v-1.95c0-1.365-1.065-2.474-2.375-2.474c-1.309,0-2.372,1.109-2.372,2.474
				c0,0.787-0.599,1.428-1.33,1.428c-0.733,0-1.328-0.641-1.328-1.428v-1.952h-1.045v1.952
				C39.538,108.341,40.604,109.451,41.911,109.451z"/>
		</g>
	</g>
	<g>
		<path fill="#231F20" d="M19.819,147.472h-2.113c-1.453,0-2.635-1.154-2.635-2.571c0-0.395-0.155-0.769-0.442-1.055
			c-0.304-0.304-0.712-0.472-1.147-0.472c-0.878,0-1.592,0.685-1.592,1.527v2.049h-1.044v-2.05c0-1.418,1.183-2.572,2.636-2.572
			c0.715,0,1.384,0.276,1.886,0.779c0.484,0.484,0.749,1.121,0.749,1.793c0,0.84,0.714,1.526,1.591,1.526h2.113v1.046H19.819z"/>
	</g>
	<g>
		<g>
			<path fill="#231F20" d="M44.283,146.949h-1.045l0.003-2.05c0-0.841-0.714-1.526-1.591-1.526c-0.879,0-1.592,0.685-1.592,1.527
				v2.049h-1.045V144.9c0-1.418,1.184-2.572,2.637-2.572s2.635,1.153,2.635,2.572L44.283,146.949z"/>
		</g>
		<g>
			<path fill="#231F20" d="M48.512,146.95l-1.045-0.002l0.001-2.048c0-0.842-0.714-1.527-1.591-1.527
				c-0.878,0-1.592,0.685-1.592,1.527v2.049h-1.044V144.9c0-1.418,1.182-2.572,2.636-2.572s2.635,1.153,2.635,2.572V146.95z"/>
		</g>
	</g>
	<g>
		<path d="M17.5,44.333v-0.55c-0.173,0.2-0.378,0.352-0.615,0.455c-0.237,0.104-0.495,0.155-0.775,0.155
			c-0.54,0-0.963-0.153-1.27-0.46c-0.173-0.173-0.3-0.375-0.38-0.605s-0.12-0.488-0.12-0.775v-3.14h0.72v3.03
			c0,0.44,0.107,0.769,0.32,0.985c0.213,0.216,0.506,0.325,0.88,0.325c0.373,0,0.671-0.11,0.895-0.33
			c0.223-0.22,0.335-0.546,0.335-0.98v-3.03h0.72v4.92H17.5z"/>
		<path d="M21.391,44.333c-0.213,0-0.398-0.035-0.555-0.105c-0.157-0.07-0.287-0.165-0.39-0.285c-0.104-0.12-0.182-0.26-0.235-0.42
			c-0.054-0.16-0.08-0.33-0.08-0.51v-3.05h-0.62v-0.55h0.62v-1.51h0.72v1.51h1.05v0.55h-1.05v3.03c0,0.227,0.053,0.403,0.16,0.53
			c0.106,0.127,0.277,0.19,0.51,0.19h0.38v0.62H21.391z"/>
		<path d="M23.291,38.014v-0.81h0.81v0.81H23.291z M23.331,44.333v-4.92h0.72v4.92H23.331z"/>
		<path d="M27.081,44.333c-0.433,0-0.75-0.125-0.95-0.375c-0.2-0.25-0.3-0.562-0.3-0.935v-5.81h0.72v5.78
			c0,0.24,0.046,0.42,0.14,0.54c0.093,0.12,0.266,0.18,0.52,0.18h0.39v0.62H27.081z"/>
		<path d="M28.75,38.014v-0.81h0.81v0.81H28.75z M28.791,44.333v-4.92h0.72v4.92H28.791z"/>
		<path d="M32.689,44.333c-0.213,0-0.397-0.035-0.555-0.105c-0.156-0.07-0.285-0.165-0.39-0.285c-0.104-0.12-0.183-0.26-0.235-0.42
			s-0.08-0.33-0.08-0.51v-3.05h-0.619v-0.55h0.619v-1.51h0.721v1.51h1.051v0.55H32.15v3.03c0,0.227,0.054,0.403,0.16,0.53
			c0.105,0.127,0.276,0.19,0.51,0.19h0.381v0.62H32.689z"/>
		<path d="M34.59,38.014v-0.81H35.4v0.81H34.59z M34.631,44.333v-4.92h0.721v4.92H34.631z"/>
		<path d="M37.602,42.063c0,0.54,0.121,0.958,0.363,1.255c0.244,0.297,0.605,0.445,1.086,0.445c0.286,0,0.525-0.045,0.715-0.135
			c0.19-0.09,0.381-0.231,0.574-0.425l0.49,0.43c-0.127,0.127-0.252,0.237-0.375,0.33c-0.123,0.094-0.256,0.172-0.398,0.235
			c-0.145,0.062-0.3,0.111-0.467,0.145c-0.166,0.034-0.354,0.05-0.561,0.05c-0.326,0-0.622-0.05-0.889-0.15
			c-0.269-0.1-0.494-0.253-0.681-0.46c-0.188-0.207-0.33-0.468-0.431-0.785c-0.1-0.316-0.149-0.691-0.149-1.125
			c0-0.807,0.181-1.428,0.539-1.865c0.36-0.437,0.854-0.655,1.479-0.655c0.646,0,1.146,0.212,1.496,0.635
			c0.351,0.424,0.523,1.009,0.523,1.755v0.32H37.602z M40.211,41.523c-0.008-0.1-0.014-0.187-0.021-0.26
			c-0.006-0.073-0.015-0.14-0.023-0.2c-0.012-0.06-0.025-0.118-0.045-0.175c-0.021-0.057-0.044-0.119-0.07-0.185
			c-0.107-0.227-0.259-0.407-0.455-0.54c-0.197-0.133-0.429-0.2-0.695-0.2c-0.266,0-0.498,0.067-0.694,0.2s-0.349,0.313-0.455,0.54
			c-0.033,0.066-0.06,0.128-0.074,0.185c-0.018,0.057-0.03,0.115-0.04,0.175c-0.011,0.06-0.017,0.127-0.021,0.2
			c-0.005,0.073-0.009,0.16-0.015,0.26H40.211z"/>
		<path d="M46,42.894c0,0.473-0.184,0.842-0.55,1.105S44.6,44.394,44,44.394c-0.42,0-0.795-0.054-1.125-0.16s-0.628-0.29-0.895-0.55
			l0.479-0.48c0.192,0.2,0.42,0.345,0.681,0.435c0.26,0.09,0.543,0.135,0.85,0.135c0.414,0,0.734-0.071,0.965-0.215
			s0.346-0.362,0.346-0.655c0-0.22-0.064-0.388-0.189-0.505c-0.127-0.117-0.338-0.188-0.631-0.215l-0.811-0.07
			c-0.479-0.04-0.845-0.167-1.095-0.38c-0.25-0.213-0.375-0.526-0.375-0.94c0-0.227,0.045-0.428,0.136-0.605
			c0.09-0.177,0.215-0.327,0.375-0.45c0.159-0.123,0.35-0.218,0.568-0.285c0.221-0.067,0.465-0.1,0.729-0.1
			c0.36,0,0.689,0.043,0.985,0.13c0.297,0.087,0.559,0.22,0.785,0.4l-0.471,0.47c-0.174-0.133-0.371-0.231-0.596-0.295
			c-0.223-0.063-0.461-0.095-0.715-0.095c-0.359,0-0.633,0.072-0.82,0.215c-0.186,0.143-0.279,0.341-0.279,0.595
			c0,0.22,0.07,0.387,0.211,0.5c0.14,0.113,0.363,0.187,0.67,0.22l0.771,0.07c0.214,0.02,0.41,0.057,0.591,0.11
			c0.18,0.054,0.332,0.132,0.459,0.235s0.226,0.235,0.295,0.395C45.965,42.463,46,42.66,46,42.894z"/>
	</g>
</g>
<g id="decoupe" display="none">
	<path display="inline" fill="none" stroke="#BC5CA2" stroke-width="0.25" stroke-miterlimit="10" d="M17.417,371.104
		c0.069,2.582,2.186,4.701,4.801,4.701c2.614,0,4.731-2.119,4.731-4.731c0-2.614-2.117-4.731-4.731-4.731
		c-2.615,0-4.732,2.117-4.732,4.731"/>
	<path display="inline" fill="none" stroke="#BC5CA2" stroke-width="0.25" stroke-miterlimit="10" d="M17.417,8.896
		c0.069,2.567,2.186,4.686,4.801,4.686c2.614,0,4.731-2.118,4.731-4.731c0-2.613-2.117-4.731-4.731-4.731
		c-2.615,0-4.732,2.118-4.732,4.731"/>
	<path display="inline" fill="none" stroke="#BC5CA2" stroke-width="0.25" stroke-miterlimit="10" d="M34.334,328.506
		c0.01,5.131,4.18,9.302,9.324,9.302c5.146,0,9.317-4.171,9.317-9.314c0-5.145-4.172-9.315-9.317-9.315
		c-5.145,0-9.314,4.171-9.314,9.315"/>
	<path display="inline" fill="none" stroke="#BC5CA2" stroke-width="0.25" stroke-miterlimit="10" d="M6.143,328.506
		c0.104,5.131,4.277,9.302,9.419,9.302c5.146,0,9.319-4.171,9.319-9.314c0-5.145-4.173-9.315-9.319-9.315
		c-5.143,0-9.316,4.171-9.316,9.315"/>
	<path display="inline" fill="none" stroke="#BC5CA2" stroke-width="0.25" stroke-miterlimit="10" d="M34.334,291.045
		c0.01,5.039,4.18,9.21,9.324,9.21c5.146,0,9.317-4.171,9.317-9.314c0-5.145-4.172-9.315-9.317-9.315
		c-5.145,0-9.314,4.171-9.314,9.315"/>
	<path display="inline" fill="none" stroke="#BC5CA2" stroke-width="0.25" stroke-miterlimit="10" d="M6.143,291.045
		c0.104,5.039,4.277,9.21,9.419,9.21c5.146,0,9.319-4.171,9.319-9.314c0-5.145-4.173-9.315-9.319-9.315
		c-5.143,0-9.316,4.171-9.316,9.315"/>
	<path display="inline" fill="none" stroke="#BC5CA2" stroke-width="0.25" stroke-miterlimit="10" d="M10.903,266.613
		c0.077,2.449,2.129,4.502,4.659,4.502c2.534,0,4.586-2.053,4.586-4.585c0-2.531-2.052-4.583-4.586-4.583
		c-2.529,0-4.582,2.052-4.582,4.583"/>
	<path display="inline" fill="none" stroke="#BC5CA2" stroke-width="0.25" stroke-miterlimit="10" d="M34.334,227.149
		c0.01,5.094,4.18,9.265,9.324,9.265c5.146,0,9.317-4.171,9.317-9.313c0-5.145-4.172-9.313-9.317-9.313
		c-5.145,0-9.314,4.169-9.314,9.313"/>
	<path display="inline" fill="none" stroke="#BC5CA2" stroke-width="0.25" stroke-miterlimit="10" d="M6.143,227.149
		c0.104,5.094,4.277,9.265,9.419,9.265c5.146,0,9.319-4.171,9.319-9.313c0-5.145-4.173-9.313-9.319-9.313
		c-5.143,0-9.316,4.169-9.316,9.313"/>
	<path display="inline" fill="none" stroke="#BC5CA2" stroke-width="0.25" stroke-miterlimit="10" d="M34.334,189.561
		c0.01,5.13,4.18,9.301,9.324,9.301c5.146,0,9.317-4.171,9.317-9.314c0-5.144-4.172-9.315-9.317-9.315
		c-5.145,0-9.314,4.171-9.314,9.315"/>
	<path display="inline" fill="none" stroke="#BC5CA2" stroke-width="0.25" stroke-miterlimit="10" d="M6.143,189.561
		c0.104,5.13,4.277,9.301,9.419,9.301c5.146,0,9.319-4.171,9.319-9.314c0-5.144-4.173-9.315-9.319-9.315
		c-5.143,0-9.316,4.171-9.316,9.315"/>
	<path display="inline" fill="none" stroke="#BC5CA2" stroke-width="0.25" stroke-miterlimit="10" d="M10.903,165.257
		c0.077,2.413,2.129,4.464,4.659,4.464c2.534,0,4.586-2.052,4.586-4.583c0-2.533-2.052-4.584-4.586-4.584
		c-2.529,0-4.582,2.052-4.582,4.584"/>
	<path display="inline" fill="none" stroke="#BC5CA2" stroke-width="0.25" stroke-miterlimit="10" d="M34.334,125.79
		c0.01,5.062,4.18,9.231,9.324,9.231c5.146,0,9.317-4.17,9.317-9.314c0-5.145-4.172-9.314-9.317-9.314
		c-5.145,0-9.314,4.169-9.314,9.314"/>
	<path display="inline" fill="none" stroke="#BC5CA2" stroke-width="0.25" stroke-miterlimit="10" d="M6.143,125.79
		c0.104,5.062,4.277,9.231,9.419,9.231c5.146,0,9.319-4.17,9.319-9.314c0-5.145-4.173-9.314-9.319-9.314
		c-5.143,0-9.316,4.169-9.316,9.314"/>
	<path display="inline" fill="none" stroke="#BC5CA2" stroke-width="0.25" stroke-miterlimit="10" d="M34.334,88.203
		c0.01,5.095,4.18,9.267,9.324,9.267c5.146,0,9.317-4.172,9.317-9.316c0-5.144-4.172-9.314-9.317-9.314
		c-5.145,0-9.314,4.17-9.314,9.314"/>
	<path display="inline" fill="none" stroke="#BC5CA2" stroke-width="0.25" stroke-miterlimit="10" d="M6.143,88.203
		c0.104,5.095,4.277,9.267,9.419,9.267c5.146,0,9.319-4.172,9.319-9.316c0-5.144-4.173-9.314-9.319-9.314
		c-5.143,0-9.316,4.17-9.316,9.314"/>
	<path display="inline" fill="none" stroke="#BC5CA2" stroke-width="0.25" stroke-miterlimit="10" d="M10.903,63.773
		c0.077,2.503,2.129,4.556,4.659,4.556c2.534,0,4.586-2.053,4.586-4.583s-2.052-4.583-4.586-4.583c-2.529,0-4.582,2.053-4.582,4.583
		"/>
	<rect display="inline" fill="none" stroke="#BC5CA2" stroke-width="0.25" stroke-miterlimit="10" width="59.146" height="380"/>
</g>
<g id="widgets" display="none">
	
		<rect id="PJ301_2_" x="4.03" y="76.657" display="inline" fill="none" stroke="#000000" stroke-miterlimit="10" width="22.992" height="22.996"/>
	
		<rect id="PJ301_1_" x="32.268" y="76.657" display="inline" fill="none" stroke="#000000" stroke-miterlimit="10" width="22.992" height="22.996"/>
	
		<rect id="PJ301_4_" x="4.03" y="114.209" display="inline" fill="none" stroke="#000000" stroke-miterlimit="10" width="22.992" height="22.996"/>
	
		<rect id="PJ301_3_" x="32.268" y="114.209" display="inline" fill="none" stroke="#000000" stroke-miterlimit="10" width="22.992" height="22.996"/>
	
		<rect id="SmallLight_4_" x="12.026" y="60.245" display="inline" fill="none" stroke="#000000" stroke-miterlimit="10" width="6.999" height="7"/>
	
		<rect id="PJ301_8_" x="4.03" y="177.917" display="inline" fill="none" stroke="#000000" stroke-miterlimit="10" width="22.992" height="22.996"/>
	
		<rect id="PJ301_7_" x="32.268" y="177.917" display="inline" fill="none" stroke="#000000" stroke-miterlimit="10" width="22.992" height="22.996"/>
	
		<rect id="PJ301_6_" x="4.03" y="215.47" display="inline" fill="none" stroke="#000000" stroke-miterlimit="10" width="22.992" height="22.996"/>
	
		<rect id="PJ301_5_" x="32.268" y="215.47" display="inline" fill="none" stroke="#000000" stroke-miterlimit="10" width="22.992" height="22.996"/>
	
		<rect id="SmallLight_1_" x="12.026" y="161.505" display="inline" fill="none" stroke="#000000" stroke-miterlimit="10" width="6.999" height="7"/>
	
		<rect id="PJ301_12_" x="4.03" y="279.375" display="inline" fill="none" stroke="#000000" stroke-miterlimit="10" width="22.992" height="22.996"/>
	
		<rect id="PJ301_11_" x="32.268" y="279.375" display="inline" fill="none" stroke="#000000" stroke-miterlimit="10" width="22.992" height="22.996"/>
	
		<rect id="PJ301_10_" x="4.03" y="316.928" display="inline" fill="none" stroke="#000000" stroke-miterlimit="10" width="22.992" height="22.996"/>
	
		<rect id="PJ301_9_" x="32.268" y="316.928" display="inline" fill="none" stroke="#000000" stroke-miterlimit="10" width="22.992" height="22.996"/>
	
		<rect id="SmallLight_2_" x="12.026" y="262.963" display="inline" fill="none" stroke="#000000" stroke-miterlimit="10" width="6.999" height="7"/>
</g>
</svg>
