<?xml version="1.0" encoding="utf-8"?>
<!-- Generator: Adobe Illustrator 16.0.3, SVG Export Plug-In . SVG Version: 6.00 Build 0)  -->
<!DOCTYPE svg PUBLIC "-//W3C//DTD SVG 1.1//EN" "http://www.w3.org/Graphics/SVG/1.1/DTD/svg11.dtd">
<svg version="1.1" xmlns="http://www.w3.org/2000/svg" xmlns:xlink="http://www.w3.org/1999/xlink" x="0px" y="0px" width="60px"
	 height="380px" viewBox="0 0 60 380" enable-background="new 0 0 60 380" xml:space="preserve">
<g id="faceplate">
	<rect id="background" fill="#E6E6E6" width="60" height="380"/>
	<g>
		<path fill="#231F20" d="M12.942,110.54v-5.94h1.159v5.939L12.942,110.54L12.942,110.54z"/>
		<path fill="#231F20" d="M19,110.54l-2.354-3.645v3.645h-1.159v-5.94h1.035l2.352,3.637V104.6h1.159v5.939L19,110.54L19,110.54z"/>
	</g>
	<g>
		<path fill="#231F20" d="M39.241,109.938c-0.418,0.417-0.925,0.651-1.603,0.651c-0.68,0-1.191-0.233-1.609-0.651
			c-0.604-0.6-0.584-1.343-0.584-2.369c0-1.026-0.021-1.768,0.584-2.369c0.418-0.417,0.934-0.651,1.609-0.651
			c0.674,0,1.185,0.234,1.603,0.651c0.602,0.601,0.593,1.343,0.593,2.369C39.834,108.595,39.843,109.338,39.241,109.938z
			 M38.382,105.902c-0.165-0.192-0.424-0.317-0.741-0.317c-0.312,0-0.584,0.125-0.75,0.317c-0.227,0.25-0.285,0.526-0.285,1.668
			c0,1.143,0.062,1.418,0.285,1.669c0.166,0.191,0.438,0.316,0.75,0.316c0.317,0,0.576-0.125,0.741-0.316
			c0.226-0.251,0.293-0.526,0.293-1.669C38.675,106.428,38.607,106.152,38.382,105.902z"/>
		<path fill="#231F20" d="M43.113,110.589c-1.217,0-2.188-0.825-2.188-2.085V104.6h1.159v3.862c0,0.685,0.398,1.093,1.023,1.093
			s1.035-0.408,1.035-1.093V104.6h1.15v3.904C45.301,109.764,44.333,110.589,43.113,110.589z"/>
		<path fill="#231F20" d="M48.863,105.635v4.904h-1.158v-4.904h-1.553V104.6h4.263v1.035H48.863z"/>
	</g>
	<g>
		<path fill="#231F20" d="M39.241,147.495c-0.418,0.417-0.925,0.651-1.603,0.651c-0.68,0-1.191-0.233-1.609-0.651
			c-0.604-0.6-0.584-1.343-0.584-2.369s-0.021-1.768,0.584-2.369c0.418-0.417,0.934-0.651,1.609-0.651
			c0.674,0,1.185,0.234,1.603,0.651c0.602,0.601,0.593,1.343,0.593,2.369S39.843,146.895,39.241,147.495z M38.382,143.458
			c-0.165-0.192-0.424-0.317-0.741-0.317c-0.312,0-0.584,0.125-0.75,0.317c-0.227,0.25-0.285,0.526-0.285,1.668
			c0,1.143,0.062,1.418,0.285,1.669c0.166,0.191,0.438,0.316,0.75,0.316c0.317,0,0.576-0.125,0.741-0.316
			c0.226-0.251,0.293-0.526,0.293-1.669C38.675,143.984,38.607,143.708,38.382,143.458z"/>
		<path fill="#231F20" d="M43.113,148.146c-1.217,0-2.188-0.825-2.188-2.085v-3.904h1.159v3.862c0,0.685,0.398,1.093,1.023,1.093
			s1.035-0.408,1.035-1.093v-3.862h1.15v3.904C45.301,147.321,44.333,148.146,43.113,148.146z"/>
		<path fill="#231F20" d="M48.863,143.192v4.904h-1.158v-4.904h-1.553v-1.035h4.263v1.035H48.863z"/>
	</g>
	<g>
		<path fill="#231F20" d="M12.919,147.495c-0.418,0.417-0.927,0.651-1.602,0.651c-0.677,0-1.194-0.233-1.611-0.651
			c-0.6-0.6-0.584-1.343-0.584-2.369s-0.016-1.768,0.584-2.369c0.417-0.417,0.934-0.651,1.611-0.651
			c0.674,0,1.184,0.234,1.602,0.651c0.601,0.601,0.591,1.343,0.591,2.369S13.521,146.895,12.919,147.495z M12.06,143.458
			c-0.167-0.192-0.426-0.317-0.742-0.317c-0.318,0-0.585,0.125-0.752,0.317c-0.224,0.25-0.283,0.526-0.283,1.668
			c0,1.143,0.059,1.418,0.283,1.669c0.167,0.191,0.434,0.316,0.752,0.316c0.316,0,0.575-0.125,0.742-0.316
			c0.224-0.251,0.291-0.526,0.291-1.669C12.351,143.984,12.284,143.708,12.06,143.458z"/>
		<path fill="#231F20" d="M16.791,148.146c-1.216,0-2.184-0.825-2.184-2.085v-3.904h1.159v3.862c0,0.685,0.399,1.093,1.025,1.093
			s1.035-0.408,1.035-1.093v-3.862h1.151v3.904C18.977,147.321,18.009,148.146,16.791,148.146z"/>
		<path fill="#231F20" d="M22.541,143.192v4.904h-1.159v-4.904h-1.551v-1.035h4.263v1.035H22.541z"/>
	</g>
	<g>
		<path fill="#231F20" d="M12.942,211.008v-5.939h1.159v5.939H12.942z"/>
		<path fill="#231F20" d="M19,211.008l-2.354-3.646v3.646h-1.159v-5.939h1.035l2.352,3.641v-3.641h1.159v5.939H19z"/>
	</g>
	<g>
		<path fill="#231F20" d="M39.264,211.008v-5.939h1.159v5.939H39.264z"/>
		<path fill="#231F20" d="M45.32,211.008l-2.354-3.646v3.646h-1.157v-5.939h1.033l2.354,3.641v-3.641h1.16v5.939H45.32z"/>
	</g>
	<g>
		<path fill="#231F20" d="M39.241,247.963c-0.418,0.418-0.925,0.652-1.603,0.652c-0.68,0-1.191-0.234-1.609-0.652
			c-0.604-0.599-0.584-1.343-0.584-2.367c0-1.027-0.021-1.77,0.584-2.369c0.418-0.416,0.934-0.647,1.609-0.647
			c0.674,0,1.185,0.231,1.603,0.647c0.602,0.604,0.593,1.342,0.593,2.369C39.834,246.62,39.843,247.364,39.241,247.963z
			 M38.382,243.927c-0.165-0.19-0.424-0.315-0.741-0.315c-0.312,0-0.584,0.125-0.75,0.315c-0.227,0.25-0.285,0.525-0.285,1.669
			c0,1.146,0.062,1.418,0.285,1.668c0.166,0.191,0.438,0.316,0.75,0.316c0.317,0,0.576-0.125,0.741-0.316
			c0.226-0.25,0.293-0.521,0.293-1.668C38.675,244.452,38.607,244.177,38.382,243.927z"/>
		<path fill="#231F20" d="M43.113,248.615c-1.217,0-2.188-0.825-2.188-2.088v-3.903h1.159v3.862c0,0.686,0.398,1.094,1.023,1.094
			s1.035-0.408,1.035-1.094v-3.862h1.15v3.903C45.301,247.79,44.333,248.615,43.113,248.615z"/>
		<path fill="#231F20" d="M48.863,243.659v4.905h-1.158v-4.905h-1.553v-1.035h4.263v1.035H48.863z"/>
	</g>
	<g>
		<path fill="#231F20" d="M12.919,247.963c-0.418,0.418-0.927,0.652-1.602,0.652c-0.677,0-1.194-0.234-1.611-0.652
			c-0.6-0.599-0.584-1.343-0.584-2.367c0-1.027-0.016-1.77,0.584-2.369c0.417-0.416,0.934-0.647,1.611-0.647
			c0.674,0,1.184,0.231,1.602,0.647c0.601,0.604,0.591,1.342,0.591,2.369C13.51,246.62,13.521,247.364,12.919,247.963z
			 M12.06,243.927c-0.167-0.19-0.426-0.315-0.742-0.315c-0.318,0-0.585,0.125-0.752,0.315c-0.224,0.25-0.283,0.525-0.283,1.669
			c0,1.146,0.059,1.418,0.283,1.668c0.167,0.191,0.434,0.316,0.752,0.316c0.316,0,0.575-0.125,0.742-0.316
			c0.224-0.25,0.291-0.521,0.291-1.668C12.351,244.452,12.284,244.177,12.06,243.927z"/>
		<path fill="#231F20" d="M16.791,248.615c-1.216,0-2.184-0.825-2.184-2.088v-3.903h1.159v3.862c0,0.686,0.399,1.094,1.025,1.094
			s1.035-0.408,1.035-1.094v-3.862h1.151v3.903C18.977,247.79,18.009,248.615,16.791,248.615z"/>
		<path fill="#231F20" d="M22.541,243.659v4.905h-1.159v-4.905h-1.551v-1.035h4.263v1.035H22.541z"/>
	</g>
	<g>
		<path fill="#231F20" d="M12.942,313.029v-5.94h1.159v5.94H12.942z"/>
		<path fill="#231F20" d="M19,313.029l-2.354-3.646v3.646h-1.159v-5.94h1.035l2.352,3.638v-3.638h1.159v5.94H19z"/>
	</g>
	<g>
		<path fill="#231F20" d="M39.264,313.029v-5.94h1.159v5.94H39.264z"/>
		<path fill="#231F20" d="M45.32,313.029l-2.354-3.646v3.646h-1.157v-5.94h1.033l2.354,3.638v-3.638h1.16v5.94H45.32z"/>
	</g>
	<g>
		<path fill="#231F20" d="M39.241,349.984c-0.418,0.418-0.925,0.646-1.603,0.646c-0.68,0-1.191-0.229-1.609-0.646
			c-0.604-0.604-0.584-1.344-0.584-2.37c0-1.024-0.021-1.767,0.584-2.367c0.418-0.418,0.934-0.651,1.609-0.651
			c0.674,0,1.185,0.233,1.603,0.651c0.602,0.601,0.593,1.343,0.593,2.367C39.834,348.643,39.843,349.383,39.241,349.984z
			 M38.382,345.948c-0.165-0.194-0.424-0.318-0.741-0.318c-0.312,0-0.584,0.124-0.75,0.318c-0.227,0.247-0.285,0.524-0.285,1.665
			c0,1.145,0.062,1.42,0.285,1.67c0.166,0.191,0.438,0.318,0.75,0.318c0.317,0,0.576-0.127,0.741-0.318
			c0.226-0.25,0.293-0.525,0.293-1.67C38.675,346.475,38.607,346.195,38.382,345.948z"/>
		<path fill="#231F20" d="M43.113,350.635c-1.217,0-2.188-0.824-2.188-2.085v-3.903h1.159v3.86c0,0.685,0.398,1.095,1.023,1.095
			s1.035-0.41,1.035-1.095v-3.86h1.15v3.903C45.301,349.811,44.333,350.635,43.113,350.635z"/>
		<path fill="#231F20" d="M48.863,345.682v4.904h-1.158v-4.904h-1.553v-1.035h4.263v1.035H48.863z"/>
	</g>
	<g>
		<path fill="#231F20" d="M12.942,350.586v-5.939h1.159v5.939H12.942z"/>
		<path fill="#231F20" d="M19,350.586l-2.354-3.646v3.646h-1.159v-5.939h1.035l2.352,3.641v-3.641h1.159v5.939H19z"/>
	</g>
	<g>
		<rect x="3.144" y="254.439" fill="#BBBDBF" width="51.87" height="2.088"/>
	</g>
	<g>
		<rect x="3.144" y="153.159" fill="#BBBDBF" width="51.87" height="2.086"/>
	</g>
	<g>
		<g>
			<g>
				<path fill="#6D6E70" d="M16.452,66.033c-0.076,0-0.152-0.028-0.209-0.086l-6.147-6.146c-0.115-0.115-0.115-0.303,0-0.417
					c0.115-0.116,0.305-0.116,0.417,0l6.147,6.145c0.116,0.115,0.116,0.303,0,0.418C16.603,66.004,16.526,66.033,16.452,66.033z"/>
			</g>
			<g>
				<g>
					<polygon fill="#6D6E70" points="14.909,65.613 16.328,65.614 16.327,64.195 16.929,64.797 16.929,66.215 15.511,66.215 					
						"/>
				</g>
			</g>
		</g>
		<g>
			<g>
				<path fill="#6D6E70" d="M10.305,68.579c-0.163,0-0.295-0.132-0.295-0.295v-6.531c0-0.163,0.132-0.295,0.295-0.295
					c0.163,0,0.295,0.132,0.295,0.295v6.531C10.601,68.446,10.468,68.579,10.305,68.579z"/>
			</g>
			<g>
				<g>
					<polygon fill="#6D6E70" points="9.303,67.105 10.305,68.109 11.308,67.105 11.308,67.957 10.305,68.96 9.303,67.957 					"/>
				</g>
			</g>
		</g>
		<g>
			<g>
				<path fill="#6D6E70" d="M12.415,59.887c-0.164,0-0.295-0.132-0.295-0.295c0-0.163,0.131-0.295,0.295-0.295l6.583-0.001
					c0.163,0,0.295,0.132,0.295,0.295s-0.133,0.295-0.295,0.295L12.415,59.887z"/>
			</g>
			<g>
				<g>
					<polygon fill="#6D6E70" points="17.82,60.593 18.822,59.591 17.819,58.588 18.669,58.588 19.673,59.591 18.669,60.593 					"/>
				</g>
			</g>
		</g>
	</g>
	<g>
		<g>
			<g>
				<path fill="#6D6E70" d="M16.772,268.279c-0.066,0-0.132-0.022-0.188-0.067l-6.182-5.073c-0.126-0.102-0.145-0.289-0.041-0.416
					c0.104-0.125,0.291-0.145,0.416-0.039l6.182,5.072c0.126,0.102,0.145,0.289,0.041,0.416
					C16.942,268.243,16.858,268.279,16.772,268.279z"/>
			</g>
			<g>
				<g>
					<polygon fill="#6D6E70" points="15.226,268.011 16.638,267.872 16.497,266.462 17.155,267.002 17.294,268.412 15.884,268.553 
											"/>
				</g>
			</g>
		</g>
		<g>
			<g>
				<path fill="#6D6E70" d="M19.933,269.042c-0.163,0-0.295-0.133-0.295-0.296l-0.002-6.909c0-0.163,0.132-0.296,0.295-0.296
					c0.163,0,0.295,0.133,0.295,0.296l0.002,6.909C20.228,268.909,20.096,269.042,19.933,269.042z"/>
			</g>
			<g>
				<g>
					<polygon fill="#6D6E70" points="18.93,267.568 19.933,268.57 20.935,267.568 20.935,268.42 19.933,269.423 18.93,268.42 					
						"/>
				</g>
			</g>
		</g>
		<g>
			<g>
				<path fill="#6D6E70" d="M9.125,270.857c-0.163,0-0.295-0.133-0.295-0.297c0-0.162,0.132-0.295,0.295-0.295h8.643
					c0.163,0,0.295,0.133,0.295,0.295c0,0.164-0.132,0.297-0.295,0.297H9.125z"/>
			</g>
			<g>
				<g>
					<polygon fill="#6D6E70" points="16.591,271.564 17.595,270.562 16.591,269.561 17.443,269.561 18.445,270.562 17.443,271.564 
											"/>
				</g>
			</g>
		</g>
	</g>
	<g>
		<g>
			<g>
				<path fill="#6D6E70" d="M17.341,168.141c-0.082,0-0.16-0.031-0.218-0.096l-5.604-6.124c-0.11-0.12-0.103-0.308,0.017-0.417
					c0.124-0.11,0.31-0.102,0.42,0.019l5.604,6.124c0.11,0.121,0.102,0.308-0.019,0.418
					C17.483,168.115,17.412,168.141,17.341,168.141z"/>
			</g>
			<g>
				<g>
					<polygon fill="#6D6E70" points="15.807,167.654 17.223,167.717 17.286,166.3 17.86,166.929 17.797,168.345 16.381,168.281 
											"/>
				</g>
			</g>
		</g>
		<g>
			<g>
				<path fill="#6D6E70" d="M11.622,168.141c-0.072,0-0.143-0.025-0.2-0.077c-0.121-0.11-0.128-0.297-0.019-0.418l5.604-6.124
					c0.108-0.122,0.295-0.129,0.417-0.019c0.12,0.11,0.128,0.297,0.019,0.417l-5.604,6.124
					C11.782,168.109,11.702,168.141,11.622,168.141z"/>
			</g>
			<g>
				<g>
					<polygon fill="#6D6E70" points="11.676,166.299 11.74,167.716 13.156,167.653 12.581,168.28 11.165,168.344 11.102,166.926 
											"/>
				</g>
			</g>
		</g>
		<g>
			<g>
				<path fill="#6D6E70" d="M9.033,170.242c-0.162,0-0.295-0.132-0.295-0.295v-8.225c0-0.163,0.133-0.296,0.295-0.296
					c0.163,0,0.295,0.133,0.295,0.296v8.225C9.328,170.109,9.196,170.242,9.033,170.242z"/>
			</g>
			<g>
				<g>
					<polygon fill="#6D6E70" points="8.03,168.769 9.033,169.772 10.035,168.769 10.035,169.62 9.033,170.623 8.03,169.62 					"/>
				</g>
			</g>
		</g>
		<g>
			<g>
				<path fill="#6D6E70" d="M19.933,170.242c-0.163,0-0.295-0.132-0.295-0.295l-0.001-8.225c0-0.163,0.132-0.296,0.295-0.296
					c0.162,0,0.295,0.133,0.295,0.296l0.001,8.225C20.228,170.109,20.096,170.242,19.933,170.242z"/>
			</g>
			<g>
				<g>
					<polygon fill="#6D6E70" points="18.93,168.769 19.933,169.772 20.936,168.769 20.936,169.62 19.933,170.623 18.93,169.62 					
						"/>
				</g>
			</g>
		</g>
	</g>
	<g>
		<path fill="#6D6E70" d="M41.354,66.142v-4.244H40.79c-0.226,0-0.435-0.025-0.626-0.075c-0.191-0.05-0.371-0.137-0.538-0.258
			c-0.167-0.123-0.289-0.256-0.368-0.403c-0.08-0.147-0.119-0.3-0.119-0.459c0-0.142,0.039-0.283,0.119-0.421
			c0.079-0.139,0.195-0.267,0.352-0.384c0.152-0.117,0.33-0.206,0.531-0.265c0.107-0.024,0.211-0.046,0.312-0.062
			c0.104-0.017,0.214-0.025,0.339-0.025c0.149,0,0.259,0.004,0.326,0.012c0.065,0.008,0.183,0.038,0.35,0.089
			c0.169,0.05,0.326,0.127,0.479,0.232c0.146,0.105,0.267,0.228,0.351,0.371c0.081,0.142,0.124,0.292,0.124,0.452v5.441
			L41.354,66.142L41.354,66.142z M41.354,60.31l-0.051-0.039l-0.037-0.038l-0.238-0.039H40.83h-0.377l-0.139,0.039l-0.051,0.079
			v0.728l0.037,0.092l0.116,0.052H40.8h0.22h0.282l0.052-0.027v-0.064V60.31L41.354,60.31z"/>
		<path fill="#6D6E70" d="M45.02,62.826V61.65H46.2v1.176H45.02z M45.02,66.592v-1.176H46.2v1.176H45.02z"/>
		<path fill="#6D6E70" d="M51.695,64.215c-0.076,0.117-0.194,0.23-0.354,0.339c-0.041,0.024-0.104,0.058-0.182,0.1
			c-0.079,0.042-0.193,0.092-0.347,0.151c-0.191,0.05-0.399,0.074-0.627,0.074l1.082,1.224L50.5,66.601l-2.04-2.237l0.603-0.626
			l0.515,0.426h0.552h0.075h0.073h0.062h0.075h0.108l0.115-0.039l0.147-0.089c0.043-0.026,0.069-0.063,0.075-0.115v-1.088
			l-0.075-0.115c-0.032-0.052-0.101-0.095-0.199-0.128l-0.325-0.064l-0.312-0.025h-0.701V61.9h0.701h0.353
			c0.122-0.016,0.225-0.04,0.305-0.069c0.08-0.028,0.144-0.064,0.184-0.106c0.043-0.042,0.066-0.092,0.075-0.149v-1.127
			l-0.062-0.063l-0.162-0.062l-0.578-0.075c-0.156,0-0.271,0-0.336,0l-0.252,0.075c-0.076,0-0.135,0.017-0.178,0.05l-0.049,0.088
			v0.914h-0.938v-0.794c0-0.134,0.039-0.26,0.119-0.378c0.082-0.117,0.205-0.228,0.377-0.333c0.17-0.106,0.334-0.177,0.49-0.215
			c0.159-0.038,0.293-0.065,0.401-0.082c0.106-0.017,0.225-0.025,0.352-0.025c0.241,0,0.468,0.025,0.679,0.076
			c0.207,0.051,0.396,0.126,0.565,0.226c0.171,0.101,0.302,0.218,0.386,0.353c0.084,0.134,0.123,0.264,0.123,0.39v0.968
			c0,0.126-0.025,0.244-0.08,0.353c-0.058,0.109-0.146,0.214-0.271,0.314c0.113,0.075,0.197,0.166,0.251,0.27
			c0.051,0.105,0.084,0.223,0.103,0.357v0.965C51.807,63.94,51.771,64.074,51.695,64.215z"/>
	</g>
	<g>
		<path fill="#6D6E70" d="M43.363,165.688c-0.1,0.126-0.242,0.238-0.432,0.339c-0.188,0.101-0.399,0.18-0.642,0.238
			c-0.235,0.059-0.5,0.088-0.783,0.088l1.263,1.736l-0.781,0.521l-1.93-2.533l0.64-0.6l0.987,0.213h0.352
			c0.124-0.017,0.227-0.041,0.301-0.07c0.074-0.029,0.129-0.061,0.161-0.095l0.075-0.165v-2.521
			c-0.024-0.059-0.045-0.097-0.061-0.114c-0.043-0.042-0.104-0.08-0.18-0.114l-0.062-0.012l-0.062-0.025h-0.062l-0.062-0.025h-0.163
			h-0.161c-0.158,0-0.271,0-0.34,0c-0.092,0-0.174,0.015-0.242,0.044c-0.072,0.031-0.129,0.067-0.172,0.11l-0.049,0.154v1.182h-0.95
			v-1.171c0-0.134,0.042-0.26,0.132-0.378c0.088-0.117,0.215-0.229,0.383-0.333c0.166-0.104,0.326-0.176,0.479-0.214
			c0.154-0.038,0.285-0.065,0.396-0.082c0.104-0.017,0.225-0.025,0.351-0.025c0.241,0,0.467,0.025,0.677,0.076
			c0.208,0.05,0.397,0.125,0.568,0.226c0.172,0.1,0.298,0.213,0.381,0.338c0.043,0.059,0.076,0.123,0.104,0.188
			c0.023,0.067,0.037,0.139,0.037,0.213v2.347C43.514,165.383,43.463,165.538,43.363,165.688z"/>
		<path fill="#6D6E70" d="M45.203,165.116v-1.176h1.176v1.176H45.203z M45.203,168.882v-1.175h1.176v1.175H45.203z"/>
		<path fill="#6D6E70" d="M52.052,165.688c-0.101,0.126-0.243,0.238-0.433,0.339c-0.188,0.101-0.398,0.18-0.639,0.238
			c-0.237,0.059-0.498,0.088-0.781,0.088l1.26,1.736l-0.783,0.521l-1.93-2.533l0.641-0.6l0.988,0.213h0.35
			c0.125-0.017,0.229-0.041,0.303-0.07c0.072-0.029,0.132-0.061,0.16-0.095l0.076-0.165v-2.521
			c-0.025-0.059-0.046-0.097-0.062-0.114c-0.043-0.042-0.103-0.08-0.177-0.114l-0.062-0.012l-0.062-0.025h-0.062l-0.062-0.025
			h-0.164H50.45c-0.159,0-0.271,0-0.339,0c-0.092,0-0.174,0.015-0.244,0.044c-0.071,0.031-0.126,0.067-0.169,0.11l-0.05,0.154v1.182
			h-0.951v-1.171c0-0.134,0.043-0.26,0.131-0.378c0.088-0.117,0.216-0.229,0.383-0.333s0.326-0.176,0.48-0.214
			c0.154-0.038,0.285-0.065,0.396-0.082c0.108-0.017,0.226-0.025,0.351-0.025c0.24,0,0.467,0.025,0.681,0.076
			c0.208,0.05,0.396,0.125,0.565,0.226c0.17,0.1,0.297,0.213,0.381,0.338c0.043,0.059,0.074,0.123,0.104,0.188
			c0.022,0.067,0.036,0.139,0.036,0.213v2.347C52.202,165.383,52.15,165.538,52.052,165.688z"/>
	</g>
	<g>
		<path fill="#6D6E70" d="M42.707,267.619c-0.075,0.117-0.193,0.23-0.354,0.341c-0.041,0.024-0.104,0.058-0.185,0.101
			c-0.079,0.041-0.19,0.092-0.344,0.149c-0.193,0.049-0.401,0.073-0.628,0.073l1.08,1.225l-0.768,0.498l-2.039-2.236l0.604-0.627
			l0.511,0.426h0.557h0.071h0.075h0.062h0.075h0.11l0.111-0.039l0.147-0.088c0.043-0.023,0.067-0.062,0.075-0.113v-1.092
			l-0.075-0.11c-0.032-0.058-0.101-0.099-0.198-0.129l-0.326-0.063l-0.312-0.023h-0.698v-0.602h0.698h0.354
			c0.123-0.019,0.227-0.039,0.306-0.068c0.079-0.027,0.142-0.064,0.183-0.104c0.043-0.043,0.066-0.092,0.074-0.151v-1.127
			l-0.062-0.062l-0.162-0.062l-0.573-0.076c-0.159,0-0.271,0-0.338,0l-0.253,0.076c-0.073,0-0.135,0.017-0.176,0.049l-0.051,0.088
			v0.914h-0.938v-0.795c0-0.135,0.037-0.26,0.117-0.379c0.08-0.115,0.205-0.229,0.377-0.332c0.172-0.105,0.334-0.18,0.494-0.215
			c0.158-0.037,0.293-0.065,0.397-0.082c0.104-0.021,0.228-0.024,0.353-0.024c0.244,0,0.467,0.024,0.678,0.075
			c0.208,0.051,0.396,0.127,0.568,0.227s0.299,0.219,0.383,0.354c0.084,0.138,0.125,0.266,0.125,0.392v0.968
			c0,0.129-0.026,0.245-0.082,0.354c-0.055,0.108-0.146,0.215-0.271,0.312c0.116,0.075,0.199,0.168,0.251,0.271
			c0.054,0.104,0.083,0.224,0.103,0.355v0.967C42.818,267.346,42.782,267.479,42.707,267.619z"/>
		<path fill="#6D6E70" d="M45.385,266.229v-1.176h1.178v1.176H45.385z M45.385,269.997v-1.177h1.178v1.177H45.385z"/>
		<path fill="#6D6E70" d="M50.707,269.547v-4.244h-0.564c-0.225,0-0.435-0.025-0.625-0.074c-0.188-0.052-0.371-0.138-0.539-0.26
			c-0.166-0.121-0.289-0.255-0.367-0.402c-0.077-0.146-0.117-0.301-0.117-0.459c0-0.144,0.04-0.28,0.117-0.422
			c0.078-0.14,0.195-0.268,0.354-0.384c0.152-0.118,0.33-0.206,0.531-0.265c0.105-0.023,0.212-0.047,0.312-0.062
			c0.104-0.018,0.215-0.021,0.34-0.021c0.147,0,0.258,0.004,0.324,0.013c0.065,0.011,0.184,0.036,0.353,0.087
			c0.165,0.055,0.325,0.133,0.478,0.232c0.147,0.104,0.268,0.229,0.352,0.367c0.082,0.146,0.125,0.293,0.125,0.453v5.441H50.707
			L50.707,269.547z M50.707,263.716l-0.053-0.039l-0.035-0.038l-0.238-0.039h-0.199h-0.377l-0.137,0.039l-0.052,0.079v0.728
			l0.038,0.095l0.117,0.054h0.383h0.218h0.282l0.053-0.023v-0.07V263.716z"/>
	</g>
	<g>
		<g>
			<g>
				<path fill="#BBBDBF" d="M2.311,25.301c0.13,0.143,0.253,0.295,0.394,0.424c0.432,0.385,0.872,0.758,1.302,1.145
					c0.295,0.265,0.577,0.546,0.862,0.823c0.046,0.042,0.086,0.094,0.123,0.145c0.143,0.186,0.146,0.247-0.01,0.42
					c-0.2,0.22-0.42,0.424-0.63,0.636c-0.279,0.283-0.556,0.568-0.835,0.852c-0.381,0.391-0.764,0.782-1.149,1.169
					c-0.021,0.022-0.058,0.039-0.088,0.039c-0.348,0.002-0.697,0.002-1.069,0.002c0.067-0.106,0.114-0.208,0.184-0.29
					c0.199-0.24,0.4-0.487,0.625-0.705c0.436-0.428,0.829-0.896,1.323-1.265c0.218-0.165,0.389-0.399,0.595-0.613
					c-0.145-0.137-0.275-0.267-0.411-0.389c-0.378-0.336-0.765-0.663-1.103-1.042c-0.254-0.279-0.546-0.521-0.817-0.784
					c-0.136-0.135-0.271-0.273-0.397-0.416c-0.035-0.039-0.049-0.1-0.067-0.15C1.53,25.301,1.919,25.301,2.311,25.301z"/>
				<path fill="#BBBDBF" d="M4.315,25.301c0.128,0.143,0.252,0.295,0.396,0.424c0.43,0.385,0.872,0.758,1.298,1.145
					c0.296,0.265,0.579,0.546,0.866,0.823c0.042,0.042,0.083,0.094,0.122,0.145c0.139,0.186,0.146,0.247-0.01,0.42
					c-0.202,0.22-0.421,0.424-0.634,0.636c-0.278,0.283-0.556,0.568-0.833,0.852c-0.383,0.391-0.766,0.782-1.151,1.169
					c-0.02,0.022-0.057,0.039-0.085,0.039c-0.349,0.002-0.699,0.002-1.07,0.002c0.067-0.106,0.114-0.208,0.183-0.29
					c0.204-0.24,0.399-0.487,0.625-0.705c0.434-0.428,0.828-0.896,1.323-1.265c0.221-0.165,0.391-0.399,0.595-0.613
					c-0.145-0.137-0.273-0.267-0.41-0.389c-0.379-0.336-0.764-0.663-1.104-1.042c-0.253-0.279-0.546-0.521-0.816-0.784
					c-0.139-0.135-0.27-0.273-0.399-0.416c-0.032-0.039-0.044-0.1-0.066-0.15C3.535,25.301,3.922,25.301,4.315,25.301z"/>
				<path fill="#BBBDBF" d="M6.318,25.301c0.133,0.143,0.255,0.295,0.397,0.424c0.43,0.385,0.872,0.758,1.3,1.145
					c0.296,0.265,0.575,0.546,0.86,0.823C8.922,27.735,8.963,27.787,9,27.838c0.142,0.186,0.148,0.247-0.009,0.42
					c-0.204,0.22-0.421,0.424-0.635,0.636c-0.279,0.283-0.553,0.568-0.833,0.852c-0.384,0.391-0.767,0.782-1.15,1.169
					c-0.021,0.022-0.057,0.039-0.087,0.039c-0.347,0.002-0.697,0.002-1.066,0.002c0.063-0.106,0.11-0.208,0.179-0.29
					c0.204-0.24,0.401-0.487,0.624-0.705c0.438-0.428,0.832-0.896,1.329-1.265c0.218-0.165,0.388-0.399,0.588-0.613
					c-0.14-0.137-0.27-0.267-0.407-0.389c-0.379-0.336-0.762-0.663-1.107-1.042c-0.25-0.279-0.541-0.521-0.812-0.784
					c-0.137-0.135-0.269-0.273-0.397-0.416c-0.035-0.039-0.047-0.1-0.067-0.15C5.538,25.301,5.929,25.301,6.318,25.301z"/>
				<path fill="#BBBDBF" d="M41.23,30.977c0.104-0.195,0.248-0.36,0.41-0.517c0.146-0.141,0.248-0.328,0.396-0.471
					c0.438-0.428,0.829-0.901,1.327-1.274c0.221-0.165,0.389-0.397,0.594-0.611c-0.146-0.139-0.271-0.267-0.413-0.389
					c-0.375-0.336-0.761-0.665-1.103-1.042c-0.254-0.279-0.547-0.521-0.815-0.787c-0.136-0.132-0.271-0.271-0.396-0.414
					c-0.029-0.035-0.041-0.087-0.072-0.15c0.39,0,0.752,0,1.117,0.002c0.024,0.002,0.061,0.024,0.084,0.044
					c0.449,0.416,0.896,0.833,1.342,1.247c0.261,0.241,0.537,0.465,0.799,0.709c0.195,0.185,0.379,0.385,0.553,0.589
					c0.109,0.13,0.09,0.195-0.013,0.33c-0.226,0.299-0.521,0.523-0.786,0.782c-0.236,0.232-0.457,0.477-0.688,0.713
					c-0.359,0.369-0.729,0.736-1.09,1.104c-0.035,0.039-0.062,0.088-0.099,0.132C41.998,30.977,41.615,30.977,41.23,30.977z"/>
				<path fill="#BBBDBF" d="M43.236,30.977c0.104-0.195,0.248-0.36,0.41-0.517c0.145-0.141,0.246-0.328,0.394-0.471
					c0.438-0.428,0.835-0.901,1.33-1.274c0.223-0.165,0.392-0.397,0.595-0.611c-0.145-0.139-0.273-0.267-0.41-0.389
					c-0.378-0.336-0.763-0.665-1.104-1.042c-0.253-0.279-0.544-0.521-0.817-0.787c-0.138-0.132-0.269-0.271-0.396-0.414
					c-0.033-0.035-0.043-0.087-0.074-0.15c0.391,0,0.75,0,1.117,0.002c0.027,0.002,0.061,0.024,0.082,0.044
					c0.449,0.416,0.894,0.833,1.342,1.247c0.266,0.241,0.542,0.465,0.801,0.709c0.194,0.185,0.379,0.385,0.553,0.589
					c0.109,0.13,0.086,0.195-0.015,0.33c-0.222,0.299-0.522,0.523-0.786,0.782c-0.234,0.232-0.455,0.477-0.685,0.713
					c-0.361,0.369-0.728,0.736-1.091,1.104c-0.037,0.039-0.062,0.088-0.096,0.132C44.001,30.977,43.618,30.977,43.236,30.977z"/>
				<path fill="#BBBDBF" d="M12.177,25.301c0.13,0.143,0.252,0.295,0.395,0.424c0.429,0.385,0.872,0.758,1.3,1.145
					c0.295,0.265,0.576,0.546,0.862,0.823c0.045,0.042,0.083,0.094,0.124,0.145c0.142,0.186,0.147,0.247-0.01,0.42
					c-0.204,0.22-0.424,0.424-0.633,0.636c-0.279,0.283-0.557,0.568-0.833,0.852c-0.38,0.391-0.766,0.782-1.149,1.169
					c-0.022,0.022-0.058,0.039-0.087,0.039c-0.349,0.002-0.697,0.002-1.07,0.002c0.064-0.106,0.114-0.208,0.184-0.29
					c0.204-0.24,0.399-0.487,0.625-0.705c0.437-0.428,0.83-0.896,1.323-1.265c0.222-0.165,0.391-0.399,0.594-0.613
					c-0.144-0.137-0.272-0.267-0.406-0.389c-0.381-0.336-0.766-0.663-1.106-1.042c-0.252-0.279-0.546-0.521-0.817-0.784
					c-0.139-0.135-0.269-0.273-0.4-0.416c-0.032-0.039-0.042-0.1-0.064-0.15C11.396,25.301,11.785,25.301,12.177,25.301z"/>
				<path fill="#BBBDBF" d="M14.18,25.301c0.134,0.143,0.256,0.295,0.397,0.424c0.43,0.385,0.872,0.758,1.3,1.145
					c0.297,0.265,0.575,0.546,0.861,0.823c0.048,0.042,0.087,0.094,0.125,0.145c0.141,0.186,0.147,0.247-0.01,0.42
					c-0.203,0.22-0.422,0.424-0.634,0.636c-0.277,0.283-0.554,0.568-0.833,0.852c-0.383,0.391-0.766,0.782-1.151,1.169
					c-0.02,0.022-0.057,0.039-0.087,0.039c-0.348,0.002-0.697,0.002-1.068,0.002c0.067-0.106,0.112-0.208,0.183-0.29
					c0.203-0.24,0.397-0.487,0.623-0.705c0.44-0.428,0.832-0.896,1.326-1.265c0.22-0.165,0.389-0.399,0.593-0.613
					c-0.144-0.137-0.271-0.267-0.409-0.389c-0.38-0.336-0.763-0.663-1.104-1.042c-0.254-0.279-0.546-0.521-0.817-0.784
					c-0.137-0.135-0.269-0.273-0.397-0.416c-0.033-0.039-0.047-0.1-0.067-0.15C13.399,25.301,13.791,25.301,14.18,25.301z"/>
				<path fill="#BBBDBF" d="M45.242,30.977c0.105-0.195,0.246-0.36,0.406-0.517c0.146-0.141,0.252-0.328,0.396-0.471
					c0.438-0.428,0.833-0.901,1.33-1.274c0.224-0.165,0.392-0.397,0.593-0.611c-0.146-0.139-0.271-0.267-0.406-0.389
					c-0.381-0.336-0.767-0.665-1.104-1.042c-0.253-0.279-0.546-0.521-0.814-0.787c-0.141-0.132-0.271-0.271-0.396-0.414
					c-0.031-0.035-0.045-0.087-0.073-0.15c0.392,0,0.751,0,1.114,0.002c0.025,0.002,0.062,0.024,0.086,0.044
					c0.447,0.416,0.895,0.833,1.342,1.247c0.268,0.241,0.542,0.465,0.797,0.709c0.196,0.185,0.383,0.385,0.557,0.589
					c0.107,0.13,0.086,0.195-0.014,0.33c-0.227,0.299-0.521,0.523-0.789,0.782c-0.23,0.232-0.451,0.477-0.685,0.713
					c-0.363,0.369-0.729,0.736-1.093,1.104c-0.036,0.039-0.062,0.088-0.098,0.132C46.008,30.977,45.625,30.977,45.242,30.977z"/>
				<path fill="#BBBDBF" d="M51.098,30.977c0.106-0.195,0.25-0.36,0.41-0.517c0.145-0.141,0.246-0.328,0.396-0.471
					c0.438-0.428,0.832-0.901,1.326-1.274c0.223-0.165,0.392-0.397,0.594-0.611c-0.143-0.139-0.273-0.267-0.409-0.389
					c-0.377-0.336-0.763-0.665-1.103-1.042c-0.254-0.279-0.547-0.521-0.817-0.787c-0.138-0.132-0.269-0.271-0.397-0.414
					c-0.031-0.035-0.043-0.087-0.072-0.15c0.393,0,0.752,0,1.115,0.002c0.029,0.002,0.062,0.024,0.084,0.044
					c0.448,0.416,0.896,0.833,1.344,1.247c0.266,0.241,0.539,0.465,0.8,0.709c0.192,0.185,0.381,0.385,0.552,0.589
					c0.109,0.13,0.088,0.195-0.01,0.33c-0.229,0.299-0.521,0.523-0.784,0.782c-0.237,0.232-0.459,0.477-0.688,0.713
					c-0.36,0.369-0.729,0.736-1.09,1.104c-0.035,0.039-0.063,0.088-0.098,0.132C51.863,30.977,51.48,30.977,51.098,30.977z"/>
				<path fill="#BBBDBF" d="M29.16,25.301c-0.042,0.073-0.073,0.157-0.133,0.214c-0.317,0.318-0.647,0.624-0.97,0.941
					c-0.192,0.193-0.372,0.405-0.574,0.599c-0.216,0.209-0.453,0.405-0.674,0.609c-0.143,0.13-0.286,0.265-0.432,0.403
					c0.037,0.049,0.063,0.094,0.099,0.128c0.205,0.202,0.411,0.404,0.621,0.599c0.162,0.151,0.338,0.288,0.489,0.444
					c0.305,0.308,0.601,0.622,0.894,0.935c0.155,0.167,0.306,0.34,0.447,0.516c0.062,0.073,0.103,0.163,0.157,0.259
					c-0.04,0.002-0.066,0.006-0.095,0.006c-0.312,0-0.624,0.002-0.937-0.002c-0.04,0-0.093-0.012-0.117-0.039
					c-0.456-0.469-0.909-0.947-1.372-1.412c-0.317-0.32-0.649-0.619-0.969-0.935c-0.128-0.126-0.247-0.263-0.355-0.408
					c-0.03-0.047-0.028-0.151,0-0.206c0.051-0.102,0.126-0.198,0.208-0.277c0.377-0.35,0.754-0.697,1.131-1.041
					c0.275-0.253,0.552-0.499,0.825-0.752c0.173-0.159,0.338-0.326,0.509-0.489c0.029-0.029,0.051-0.063,0.074-0.094
					C28.379,25.301,28.767,25.301,29.16,25.301z"/>
				<path fill="#BBBDBF" d="M31.165,25.301c-0.043,0.073-0.073,0.157-0.136,0.214c-0.317,0.318-0.646,0.624-0.965,0.941
					c-0.196,0.193-0.374,0.405-0.575,0.599c-0.22,0.209-0.448,0.405-0.676,0.609c-0.145,0.13-0.288,0.265-0.434,0.403
					c0.039,0.049,0.065,0.094,0.102,0.128c0.206,0.202,0.409,0.404,0.617,0.599c0.163,0.151,0.338,0.288,0.493,0.444
					c0.304,0.308,0.599,0.622,0.893,0.935c0.157,0.167,0.302,0.34,0.448,0.516c0.062,0.073,0.104,0.163,0.157,0.259
					c-0.043,0.002-0.067,0.006-0.095,0.006c-0.312,0-0.626,0.002-0.934-0.002c-0.043,0-0.094-0.012-0.121-0.039
					c-0.458-0.469-0.911-0.947-1.371-1.412c-0.316-0.32-0.652-0.619-0.97-0.935c-0.128-0.126-0.249-0.263-0.353-0.408
					c-0.034-0.047-0.031-0.151-0.002-0.206c0.051-0.102,0.126-0.198,0.209-0.277c0.373-0.35,0.752-0.697,1.131-1.041
					c0.27-0.253,0.55-0.499,0.823-0.752c0.173-0.159,0.34-0.326,0.507-0.489c0.031-0.029,0.051-0.063,0.078-0.094
					C30.384,25.301,30.773,25.301,31.165,25.301z"/>
				<path fill="#BBBDBF" d="M53.104,30.977c0.105-0.195,0.248-0.36,0.41-0.517c0.146-0.141,0.248-0.328,0.396-0.471
					c0.438-0.428,0.834-0.901,1.328-1.274c0.221-0.165,0.392-0.397,0.596-0.611c-0.146-0.139-0.273-0.267-0.411-0.389
					c-0.379-0.336-0.763-0.665-1.104-1.042c-0.254-0.279-0.545-0.521-0.814-0.787c-0.143-0.132-0.271-0.271-0.396-0.414
					c-0.03-0.035-0.047-0.087-0.071-0.15c0.39,0,0.752,0,1.114,0.002c0.025,0.002,0.062,0.024,0.086,0.044
					c0.443,0.416,0.895,0.833,1.343,1.247c0.263,0.241,0.539,0.465,0.797,0.709c0.197,0.185,0.377,0.385,0.556,0.589
					c0.108,0.13,0.088,0.195-0.014,0.33c-0.227,0.299-0.521,0.523-0.789,0.782c-0.232,0.232-0.454,0.477-0.686,0.713
					c-0.359,0.369-0.729,0.736-1.092,1.104c-0.039,0.039-0.062,0.088-0.097,0.132C53.869,30.977,53.486,30.977,53.104,30.977z"/>
				<path fill="#BBBDBF" d="M37.021,25.301c-0.043,0.073-0.073,0.157-0.135,0.214c-0.316,0.318-0.646,0.624-0.97,0.941
					c-0.194,0.193-0.375,0.405-0.571,0.599c-0.222,0.209-0.449,0.405-0.678,0.609c-0.146,0.13-0.281,0.265-0.438,0.403
					c0.037,0.049,0.064,0.094,0.104,0.128c0.203,0.202,0.409,0.404,0.619,0.599c0.156,0.151,0.336,0.288,0.486,0.444
					c0.309,0.308,0.604,0.622,0.896,0.935c0.155,0.167,0.307,0.34,0.446,0.516c0.062,0.073,0.103,0.163,0.155,0.259
					c-0.035,0.002-0.065,0.006-0.098,0.006c-0.312,0-0.622,0.002-0.938-0.002c-0.039,0-0.09-0.012-0.117-0.039
					c-0.457-0.469-0.907-0.947-1.367-1.412c-0.318-0.32-0.65-0.619-0.973-0.935c-0.129-0.126-0.248-0.263-0.354-0.408
					c-0.032-0.047-0.03-0.151-0.002-0.206c0.052-0.102,0.127-0.198,0.206-0.277c0.375-0.35,0.755-0.697,1.135-1.041
					c0.271-0.253,0.551-0.499,0.822-0.752c0.175-0.159,0.341-0.326,0.512-0.489c0.025-0.029,0.051-0.063,0.075-0.094
					C36.24,25.301,36.629,25.301,37.021,25.301z"/>
				<path fill="#BBBDBF" d="M39.023,25.301c-0.041,0.073-0.069,0.157-0.131,0.214c-0.322,0.318-0.649,0.624-0.972,0.941
					c-0.192,0.193-0.375,0.405-0.569,0.599c-0.226,0.209-0.451,0.405-0.682,0.609c-0.146,0.13-0.279,0.265-0.438,0.403
					c0.037,0.049,0.064,0.094,0.104,0.128c0.204,0.202,0.407,0.404,0.615,0.599c0.165,0.151,0.341,0.288,0.493,0.444
					c0.302,0.308,0.597,0.622,0.893,0.935c0.157,0.167,0.305,0.34,0.45,0.516c0.058,0.073,0.101,0.163,0.157,0.259
					c-0.041,0.002-0.069,0.006-0.103,0.006c-0.312,0-0.622,0.002-0.933-0.002c-0.043,0-0.096-0.012-0.12-0.039
					c-0.457-0.469-0.909-0.947-1.369-1.412c-0.315-0.32-0.649-0.619-0.973-0.935c-0.128-0.126-0.246-0.263-0.354-0.408
					c-0.035-0.047-0.031-0.151-0.004-0.206c0.055-0.102,0.127-0.198,0.211-0.277c0.375-0.35,0.752-0.697,1.131-1.041
					c0.272-0.253,0.553-0.499,0.822-0.752c0.174-0.159,0.342-0.326,0.51-0.489c0.029-0.029,0.051-0.063,0.076-0.094
					C38.243,25.301,38.634,25.301,39.023,25.301z"/>
				<path fill="#BBBDBF" d="M55.041,30.977c0.061-0.106,0.109-0.222,0.188-0.313c0.199-0.243,0.398-0.487,0.621-0.707
					c0.438-0.424,0.83-0.895,1.322-1.263c0.223-0.165,0.391-0.399,0.59-0.605c-0.482-0.46-0.963-0.9-1.421-1.361
					c-0.454-0.458-0.975-0.856-1.364-1.374c0.006-0.01,0.017-0.021,0.021-0.03c0.304,0,0.605,0.012,0.91-0.004
					c0.178-0.01,0.302,0.055,0.428,0.179c0.352,0.34,0.707,0.667,1.068,0.995c0.406,0.375,0.818,0.746,1.225,1.125
					c0.1,0.092,0.18,0.202,0.26,0.31c0.064,0.094,0.051,0.181-0.021,0.277c-0.208,0.269-0.468,0.483-0.711,0.715
					c-0.265,0.252-0.507,0.521-0.763,0.78c-0.367,0.373-0.735,0.746-1.104,1.119c-0.045,0.047-0.077,0.106-0.118,0.159
					C55.792,30.977,55.415,30.977,55.041,30.977z"/>
				<path fill="#BBBDBF" d="M57.046,30.977c0.062-0.106,0.108-0.222,0.183-0.313c0.205-0.243,0.401-0.487,0.631-0.707
					c0.435-0.424,0.826-0.895,1.317-1.263c0.224-0.165,0.392-0.399,0.589-0.605c-0.479-0.46-0.964-0.9-1.42-1.361
					c-0.457-0.458-0.975-0.856-1.365-1.374c0.006-0.01,0.018-0.021,0.021-0.03c0.303,0,0.604,0.012,0.906-0.004
					c0.184-0.01,0.304,0.055,0.43,0.179c0.35,0.34,0.712,0.667,1.07,0.995c0.408,0.375,0.818,0.746,1.225,1.125
					c0.098,0.092,0.18,0.202,0.26,0.31c0.068,0.094,0.058,0.181-0.021,0.277c-0.208,0.269-0.469,0.483-0.709,0.715
					c-0.264,0.252-0.512,0.521-0.764,0.78c-0.361,0.373-0.734,0.746-1.104,1.119c-0.044,0.047-0.079,0.106-0.12,0.159
					C57.795,30.977,57.421,30.977,57.046,30.977z"/>
				<path fill="#BBBDBF" d="M8.279,25.301c0.126,0.136,0.247,0.281,0.383,0.407c0.367,0.336,0.744,0.662,1.115,0.997
					c0.314,0.283,0.625,0.568,0.933,0.86c0.104,0.1,0.198,0.216,0.283,0.332c0.077,0.11,0.063,0.177-0.018,0.285
					c-0.227,0.304-0.526,0.532-0.793,0.792c-0.247,0.241-0.479,0.498-0.719,0.744c-0.389,0.401-0.78,0.798-1.169,1.198
					c-0.019,0.017-0.045,0.037-0.065,0.037c-0.354,0.002-0.709,0.002-1.088,0.002c0.069-0.116,0.124-0.222,0.19-0.308
					c0.205-0.24,0.4-0.487,0.628-0.705c0.437-0.43,0.83-0.901,1.329-1.271c0.217-0.167,0.387-0.399,0.593-0.613
					c-0.145-0.139-0.272-0.267-0.411-0.389c-0.376-0.336-0.761-0.665-1.104-1.042c-0.257-0.281-0.552-0.528-0.823-0.792
					c-0.134-0.13-0.265-0.267-0.389-0.405c-0.032-0.035-0.05-0.086-0.069-0.128C7.484,25.301,7.881,25.301,8.279,25.301z"/>
				<path fill="#BBBDBF" d="M10.284,25.301c0.128,0.136,0.245,0.281,0.383,0.407c0.365,0.336,0.744,0.662,1.113,0.997
					c0.314,0.283,0.627,0.568,0.933,0.86c0.106,0.1,0.201,0.216,0.286,0.332c0.079,0.11,0.062,0.177-0.019,0.285
					c-0.226,0.304-0.526,0.532-0.798,0.792c-0.246,0.241-0.474,0.498-0.716,0.744c-0.387,0.401-0.78,0.798-1.169,1.198
					c-0.016,0.017-0.045,0.037-0.063,0.037c-0.354,0.002-0.71,0.002-1.088,0.002c0.072-0.116,0.12-0.222,0.194-0.308
					c0.202-0.24,0.4-0.487,0.624-0.705c0.438-0.43,0.833-0.901,1.329-1.271c0.221-0.167,0.391-0.399,0.594-0.613
					c-0.145-0.139-0.276-0.267-0.412-0.389c-0.375-0.336-0.762-0.665-1.103-1.042c-0.254-0.281-0.55-0.528-0.825-0.792
					c-0.134-0.13-0.261-0.267-0.389-0.405c-0.03-0.035-0.044-0.086-0.068-0.128C9.486,25.301,9.886,25.301,10.284,25.301z"/>
				<path fill="#BBBDBF" d="M16.14,25.301c0.126,0.136,0.247,0.281,0.385,0.407c0.365,0.336,0.742,0.662,1.112,0.997
					c0.314,0.283,0.625,0.568,0.933,0.86c0.106,0.1,0.198,0.216,0.283,0.332c0.08,0.11,0.063,0.177-0.016,0.285
					c-0.226,0.304-0.528,0.532-0.792,0.792c-0.251,0.241-0.479,0.498-0.721,0.744c-0.387,0.401-0.781,0.798-1.17,1.198
					c-0.018,0.017-0.045,0.037-0.065,0.037c-0.354,0.002-0.709,0.002-1.089,0.002c0.072-0.116,0.122-0.222,0.195-0.308
					c0.201-0.24,0.399-0.487,0.62-0.705c0.441-0.43,0.838-0.901,1.334-1.271c0.22-0.167,0.387-0.399,0.593-0.613
					c-0.145-0.139-0.275-0.267-0.413-0.389c-0.372-0.336-0.759-0.665-1.102-1.04c-0.256-0.283-0.552-0.53-0.823-0.794
					c-0.135-0.13-0.263-0.267-0.389-0.405c-0.033-0.035-0.047-0.086-0.069-0.128C15.346,25.301,15.742,25.301,16.14,25.301z"/>
				<path fill="#BBBDBF" d="M18.145,25.301c0.128,0.136,0.246,0.281,0.383,0.407c0.365,0.336,0.744,0.662,1.112,0.997
					c0.315,0.283,0.627,0.568,0.936,0.86c0.104,0.1,0.195,0.216,0.283,0.332c0.079,0.11,0.063,0.177-0.019,0.285
					c-0.226,0.304-0.526,0.532-0.794,0.792c-0.249,0.241-0.478,0.498-0.719,0.744c-0.387,0.401-0.776,0.798-1.17,1.198
					c-0.016,0.017-0.045,0.037-0.063,0.037c-0.354,0.002-0.714,0.002-1.088,0.002c0.071-0.116,0.12-0.222,0.193-0.308
					c0.199-0.24,0.399-0.487,0.625-0.705c0.437-0.43,0.833-0.901,1.328-1.271c0.222-0.167,0.391-0.399,0.595-0.613
					c-0.145-0.139-0.275-0.267-0.41-0.389c-0.377-0.336-0.764-0.665-1.104-1.04c-0.255-0.283-0.55-0.53-0.825-0.794
					c-0.135-0.13-0.261-0.267-0.393-0.405c-0.027-0.035-0.042-0.086-0.064-0.128C17.35,25.301,17.746,25.301,18.145,25.301z"/>
				<path fill="#BBBDBF" d="M25.219,25.301c-0.147,0.173-0.283,0.356-0.442,0.518c-0.208,0.209-0.438,0.397-0.649,0.605
					c-0.201,0.196-0.384,0.412-0.583,0.605c-0.22,0.212-0.453,0.408-0.677,0.611c-0.145,0.13-0.287,0.265-0.432,0.403
					c0.021,0.031,0.037,0.055,0.053,0.076c0.212,0.249,0.444,0.475,0.695,0.683c0.222,0.183,0.423,0.393,0.625,0.597
					c0.245,0.249,0.489,0.498,0.728,0.752c0.156,0.165,0.302,0.338,0.448,0.516c0.067,0.082,0.112,0.179,0.177,0.29
					c-0.269,0-0.513,0-0.761,0c-0.355,0-0.355,0.002-0.605-0.255c-0.5-0.526-0.998-1.056-1.505-1.577
					c-0.181-0.183-0.385-0.344-0.57-0.526c-0.15-0.143-0.283-0.297-0.419-0.452c-0.06-0.065-0.06-0.149-0.009-0.218
					c0.069-0.098,0.137-0.202,0.222-0.283c0.369-0.349,0.748-0.691,1.123-1.033c0.274-0.253,0.551-0.5,0.823-0.752
					c0.171-0.157,0.334-0.32,0.503-0.483c0.021-0.022,0.039-0.049,0.057-0.075C24.422,25.301,24.82,25.301,25.219,25.301z"/>
				<path fill="#BBBDBF" d="M27.22,25.301c-0.143,0.173-0.28,0.356-0.438,0.518c-0.208,0.209-0.436,0.397-0.65,0.605
					c-0.2,0.196-0.381,0.412-0.583,0.605c-0.218,0.212-0.453,0.408-0.679,0.611c-0.143,0.13-0.283,0.265-0.43,0.403
					c0.022,0.031,0.036,0.055,0.055,0.076c0.21,0.249,0.442,0.475,0.693,0.683c0.222,0.183,0.422,0.393,0.624,0.597
					c0.245,0.249,0.49,0.498,0.728,0.752c0.157,0.165,0.306,0.338,0.45,0.516c0.067,0.082,0.11,0.179,0.177,0.29
					c-0.267,0-0.513,0-0.763,0c-0.354,0-0.355,0.002-0.6-0.255c-0.501-0.526-1.002-1.056-1.508-1.577
					c-0.179-0.183-0.385-0.344-0.57-0.526c-0.146-0.143-0.283-0.297-0.42-0.452c-0.059-0.065-0.057-0.149-0.005-0.218
					c0.066-0.098,0.132-0.202,0.221-0.283c0.369-0.349,0.744-0.691,1.123-1.033c0.273-0.253,0.55-0.5,0.821-0.752
					c0.171-0.157,0.334-0.32,0.5-0.483c0.025-0.022,0.044-0.049,0.064-0.075C26.427,25.301,26.824,25.301,27.22,25.301z"/>
				<path fill="#BBBDBF" d="M33.082,25.301c-0.148,0.173-0.286,0.356-0.443,0.518c-0.207,0.209-0.438,0.397-0.652,0.605
					c-0.194,0.196-0.379,0.412-0.577,0.605c-0.224,0.212-0.453,0.408-0.681,0.611c-0.143,0.13-0.285,0.265-0.432,0.403
					c0.02,0.031,0.038,0.055,0.054,0.076c0.213,0.249,0.443,0.475,0.696,0.683c0.221,0.183,0.416,0.393,0.623,0.597
					c0.245,0.249,0.489,0.498,0.729,0.752c0.156,0.165,0.308,0.338,0.447,0.516c0.066,0.082,0.111,0.179,0.178,0.29
					c-0.268,0-0.517,0-0.762,0c-0.352,0-0.354,0.002-0.602-0.255c-0.504-0.526-1-1.056-1.508-1.577
					c-0.179-0.183-0.385-0.344-0.57-0.526c-0.146-0.143-0.282-0.297-0.42-0.452c-0.062-0.065-0.057-0.149-0.006-0.218
					c0.066-0.098,0.132-0.202,0.22-0.283c0.371-0.349,0.748-0.691,1.125-1.033c0.272-0.253,0.55-0.5,0.821-0.752
					c0.172-0.157,0.335-0.32,0.504-0.483c0.021-0.022,0.043-0.049,0.061-0.075C32.282,25.301,32.682,25.301,33.082,25.301z"/>
				<path fill="#BBBDBF" d="M35.082,25.301c-0.145,0.173-0.283,0.356-0.439,0.518c-0.207,0.209-0.438,0.397-0.646,0.605
					c-0.201,0.196-0.386,0.412-0.585,0.605c-0.221,0.212-0.452,0.408-0.676,0.611c-0.146,0.13-0.285,0.265-0.437,0.403
					c0.023,0.031,0.038,0.055,0.058,0.076c0.209,0.249,0.44,0.475,0.692,0.683c0.222,0.183,0.423,0.393,0.622,0.597
					c0.246,0.249,0.49,0.498,0.727,0.752c0.158,0.165,0.312,0.338,0.453,0.516c0.064,0.082,0.109,0.179,0.174,0.29
					c-0.264,0-0.51,0-0.758,0c-0.354,0-0.354,0.002-0.604-0.255c-0.503-0.526-1.002-1.056-1.509-1.577
					c-0.18-0.183-0.385-0.344-0.568-0.526c-0.146-0.143-0.281-0.297-0.42-0.452c-0.061-0.065-0.059-0.149-0.006-0.218
					c0.064-0.098,0.134-0.202,0.22-0.283c0.371-0.349,0.75-0.691,1.124-1.033c0.271-0.253,0.551-0.5,0.821-0.752
					c0.171-0.157,0.336-0.32,0.499-0.483c0.025-0.022,0.045-0.049,0.064-0.075C34.288,25.301,34.686,25.301,35.082,25.301z"/>
				<path fill="#BBBDBF" d="M47.18,30.977c0.062-0.106,0.11-0.222,0.188-0.313c0.196-0.243,0.399-0.487,0.62-0.707
					c0.438-0.424,0.832-0.895,1.322-1.263c0.224-0.165,0.391-0.399,0.59-0.605c-0.482-0.46-0.961-0.9-1.42-1.361
					c-0.455-0.458-0.978-0.856-1.367-1.374c0.01-0.01,0.015-0.021,0.021-0.03c0.304,0,0.607,0.012,0.909-0.004
					c0.18-0.01,0.299,0.055,0.432,0.179c0.351,0.34,0.709,0.667,1.065,0.995c0.407,0.375,0.817,0.746,1.224,1.125
					c0.1,0.092,0.187,0.202,0.262,0.31c0.063,0.094,0.055,0.181-0.021,0.277c-0.21,0.269-0.469,0.483-0.713,0.715
					c-0.263,0.252-0.505,0.521-0.763,0.78c-0.362,0.373-0.737,0.746-1.104,1.119c-0.047,0.047-0.084,0.106-0.116,0.159
					C47.928,30.977,47.557,30.977,47.18,30.977z"/>
				<path fill="#BBBDBF" d="M49.184,30.977c0.062-0.106,0.113-0.222,0.188-0.313c0.201-0.243,0.397-0.487,0.625-0.707
					c0.437-0.424,0.828-0.895,1.319-1.263c0.224-0.165,0.393-0.399,0.588-0.605c-0.48-0.46-0.963-0.9-1.42-1.361
					c-0.452-0.458-0.971-0.856-1.361-1.374c0.005-0.01,0.009-0.021,0.018-0.03c0.305,0,0.606,0.012,0.908-0.004
					c0.184-0.01,0.305,0.055,0.432,0.179c0.351,0.34,0.711,0.667,1.067,0.995c0.408,0.375,0.815,0.746,1.228,1.125
					c0.097,0.092,0.181,0.202,0.26,0.31c0.066,0.094,0.051,0.181-0.023,0.277c-0.209,0.269-0.468,0.483-0.71,0.715
					c-0.261,0.252-0.505,0.521-0.76,0.78c-0.367,0.373-0.735,0.746-1.104,1.119c-0.045,0.047-0.08,0.106-0.119,0.159
					C49.936,30.977,49.561,30.977,49.184,30.977z"/>
				<path fill="#BBBDBF" d="M0.011,25.368c0.109,0.067,0.231,0.118,0.321,0.202c0.353,0.324,0.695,0.66,1.043,0.988
					c0.179,0.167,0.369,0.328,0.548,0.498c0.18,0.173,0.353,0.354,0.532,0.532c0.092,0.096,0.192,0.189,0.287,0.285
					c0.109,0.114,0.119,0.224,0.033,0.356c-0.02,0.033-0.036,0.065-0.064,0.092c-0.255,0.243-0.512,0.483-0.766,0.723
					c-0.13,0.125-0.257,0.253-0.385,0.375c-0.24,0.224-0.488,0.444-0.725,0.668c-0.155,0.146-0.306,0.297-0.462,0.442
					c-0.086,0.08-0.173,0.153-0.265,0.224c-0.022,0.019-0.06,0.015-0.095,0.021c0-0.419,0-0.839,0-1.261
					c0.099-0.092,0.187-0.191,0.291-0.279c0.404-0.356,0.819-0.711,1.229-1.067c0.043-0.037,0.078-0.083,0.128-0.135
					c-0.232-0.212-0.457-0.412-0.673-0.617c-0.325-0.312-0.648-0.627-0.974-0.941C0.011,26.104,0.011,25.737,0.011,25.368z"/>
				<path fill="#BBBDBF" d="M23.281,25.301c-0.146,0.134-0.291,0.267-0.434,0.403c-0.22,0.212-0.438,0.428-0.66,0.638
					c-0.165,0.155-0.334,0.297-0.501,0.45c-0.163,0.149-0.324,0.3-0.481,0.453c-0.075,0.071-0.145,0.065-0.22,0.01
					c-0.047-0.034-0.094-0.067-0.13-0.106c-0.234-0.234-0.465-0.466-0.697-0.703c-0.353-0.363-0.701-0.728-1.051-1.092
					c-0.014-0.016-0.024-0.035-0.039-0.053c0.421,0,0.842,0,1.263,0c0.055,0.059,0.108,0.122,0.163,0.177
					c0.124,0.116,0.271,0.202,0.356,0.353c0.051,0.087,0.128,0.159,0.19,0.23c0.16-0.151,0.287-0.277,0.421-0.395
					c0.139-0.125,0.279-0.243,0.422-0.365C22.35,25.301,22.815,25.301,23.281,25.301z"/>
				<path fill="#BBBDBF" d="M42.885,28.098c-0.06,0.094-0.099,0.196-0.17,0.263c-0.33,0.314-0.67,0.611-0.998,0.925
					c-0.244,0.23-0.471,0.481-0.715,0.711c-0.268,0.255-0.553,0.495-0.82,0.746c-0.068,0.061-0.132,0.071-0.201,0.022
					c-0.069-0.051-0.148-0.102-0.211-0.165c-0.334-0.334-0.662-0.672-0.992-1.01c-0.237-0.249-0.476-0.501-0.717-0.744
					c-0.131-0.126-0.281-0.222-0.408-0.353c-0.146-0.149-0.273-0.314-0.396-0.483c-0.028-0.039-0.021-0.13,0.011-0.177
					c0.062-0.102,0.133-0.204,0.217-0.286c0.373-0.348,0.748-0.69,1.127-1.035c0.271-0.251,0.547-0.501,0.822-0.748
					c0.129-0.114,0.266-0.222,0.402-0.322c0.122-0.088,0.219-0.082,0.339,0.01c0.271,0.208,0.535,0.419,0.765,0.676
					c0.188,0.206,0.404,0.379,0.604,0.57c0.267,0.257,0.531,0.516,0.799,0.774c0.144,0.141,0.291,0.281,0.431,0.428
					C42.814,27.949,42.84,28.021,42.885,28.098z M38.398,27.956c0.233,0.275,0.479,0.518,0.742,0.74
					c0.248,0.206,0.51,0.403,0.695,0.674c0.037,0.051,0.086,0.098,0.143,0.13c0.021,0.019,0.086,0.014,0.106-0.006
					c0.373-0.33,0.741-0.665,1.112-0.997c0.154-0.143,0.314-0.283,0.486-0.432c-0.582-0.546-1.146-1.08-1.69-1.597
					C39.473,26.959,38.939,27.454,38.398,27.956z"/>
				<path fill="#BBBDBF" d="M23.267,30.955c-0.405,0-0.811,0-1.212-0.002c-0.036-0.002-0.075-0.03-0.104-0.057
					c-0.215-0.196-0.431-0.394-0.644-0.595c-0.088-0.087-0.171-0.186-0.265-0.29c-0.062,0.062-0.106,0.116-0.157,0.167
					c-0.257,0.249-0.515,0.497-0.768,0.742c-0.021,0.02-0.062,0.032-0.09,0.032c-0.417,0.002-0.839,0.002-1.261,0
					c0,0-0.012-0.006-0.041-0.018c0.146-0.135,0.279-0.265,0.419-0.391c0.45-0.406,0.903-0.811,1.357-1.212
					c0.121-0.108,0.247-0.208,0.377-0.302c0.143-0.104,0.23-0.098,0.367,0.008c0.271,0.21,0.535,0.43,0.764,0.688
					c0.169,0.192,0.371,0.351,0.559,0.524c0.238,0.224,0.479,0.448,0.717,0.672C23.279,30.933,23.273,30.945,23.267,30.955z"/>
			</g>
		</g>
	</g>
	<g>
		<g>
			<line fill="none" x1="0.078" y1="24.296" x2="59.984" y2="24.296"/>
			<rect x="0.078" y="23.774" fill="#BBBDBF" width="59.908" height="1.043"/>
		</g>
		<g>
			<line fill="none" x1="0.078" y1="32" x2="59.984" y2="32"/>
			<rect x="0.078" y="31.479" fill="#BBBDBF" width="59.908" height="1.043"/>
		</g>
	</g>
	<g>
		<path d="M16.301,44.699v-3.03c0-0.44-0.109-0.769-0.325-0.985c-0.217-0.216-0.512-0.325-0.885-0.325
			c-0.36,0-0.655,0.106-0.885,0.32c-0.23,0.214-0.345,0.517-0.345,0.91v3.11h-0.72v-3.03c0-0.44-0.108-0.769-0.325-0.985
			c-0.217-0.216-0.512-0.325-0.885-0.325c-0.374,0-0.672,0.11-0.895,0.33c-0.224,0.22-0.335,0.546-0.335,0.98v3.03H9.98v-4.92h0.72
			v0.54c0.173-0.2,0.378-0.35,0.615-0.45c0.237-0.1,0.495-0.15,0.775-0.15c0.34,0,0.639,0.068,0.895,0.205
			c0.257,0.137,0.462,0.342,0.615,0.615c0.387-0.546,0.927-0.82,1.62-0.82c0.267,0,0.506,0.04,0.72,0.12s0.396,0.193,0.55,0.34
			c0.353,0.34,0.53,0.797,0.53,1.37v3.15H16.301z"/>
		<path d="M21.88,44.699v-0.55c-0.173,0.2-0.378,0.352-0.615,0.455c-0.237,0.104-0.495,0.155-0.775,0.155
			c-0.54,0-0.963-0.153-1.27-0.46c-0.173-0.173-0.3-0.375-0.38-0.605s-0.12-0.488-0.12-0.775v-3.14h0.72v3.03
			c0,0.44,0.107,0.769,0.32,0.985c0.213,0.216,0.506,0.325,0.88,0.325c0.373,0,0.671-0.11,0.895-0.33
			c0.223-0.22,0.335-0.546,0.335-0.98v-3.03h0.72v4.92H21.88z"/>
		<path d="M25.621,44.699c-0.433,0-0.75-0.125-0.95-0.375c-0.2-0.25-0.3-0.562-0.3-0.935v-5.81h0.72v5.78
			c0,0.24,0.046,0.42,0.14,0.54c0.093,0.12,0.266,0.18,0.52,0.18h0.39v0.62H25.621z"/>
		<path d="M28.71,44.699c-0.213,0-0.398-0.035-0.555-0.105c-0.157-0.07-0.287-0.165-0.39-0.285c-0.104-0.12-0.182-0.26-0.235-0.42
			c-0.054-0.16-0.08-0.33-0.08-0.51v-3.05h-0.62v-0.55h0.62v-1.51h0.72v1.51h1.05v0.55h-1.05v3.03c0,0.227,0.053,0.403,0.16,0.53
			c0.106,0.127,0.277,0.19,0.51,0.19h0.38v0.62H28.71z"/>
		<path d="M30.609,38.379v-0.81h0.811v0.81H30.609z M30.65,44.699v-4.92h0.721v4.92H30.65z"/>
		<path d="M37.08,42.239c0,0.4-0.039,0.785-0.115,1.155s-0.238,0.682-0.484,0.935c-0.133,0.134-0.304,0.239-0.51,0.315
			c-0.207,0.077-0.438,0.115-0.691,0.115c-0.271,0-0.521-0.043-0.74-0.13c-0.227-0.087-0.438-0.257-0.646-0.51v2.78H33.17v-7.12
			h0.721v0.58c0.207-0.253,0.42-0.423,0.639-0.51c0.225-0.086,0.475-0.13,0.75-0.13c0.258,0,0.484,0.039,0.691,0.115
			c0.206,0.077,0.377,0.182,0.51,0.315c0.119,0.12,0.224,0.26,0.299,0.42c0.08,0.16,0.146,0.33,0.188,0.51
			c0.044,0.18,0.073,0.369,0.093,0.565C37.072,41.841,37.08,42.039,37.08,42.239z M36.359,42.239c0-0.24-0.014-0.473-0.039-0.7
			c-0.027-0.227-0.084-0.426-0.17-0.6c-0.088-0.173-0.213-0.313-0.375-0.42c-0.164-0.106-0.379-0.16-0.646-0.16
			c-0.273,0-0.488,0.053-0.648,0.16s-0.285,0.247-0.375,0.42s-0.146,0.373-0.176,0.6c-0.027,0.227-0.039,0.46-0.039,0.7
			c0,0.24,0.012,0.474,0.039,0.7c0.026,0.227,0.086,0.426,0.176,0.6s0.215,0.313,0.375,0.42s0.375,0.16,0.648,0.16
			c0.268,0,0.48-0.053,0.646-0.16c0.162-0.106,0.287-0.246,0.375-0.42c0.086-0.173,0.143-0.373,0.17-0.6
			C36.348,42.713,36.359,42.479,36.359,42.239z"/>
		<path d="M39.85,44.699c-0.433,0-0.75-0.125-0.949-0.375c-0.196-0.25-0.301-0.562-0.301-0.935v-5.81h0.721v5.78
			c0,0.24,0.051,0.42,0.145,0.54c0.096,0.12,0.27,0.18,0.521,0.18h0.391v0.62H39.85z"/>
		<path d="M42.01,42.429c0,0.54,0.122,0.958,0.365,1.255c0.244,0.297,0.605,0.445,1.085,0.445c0.286,0,0.524-0.045,0.716-0.135
			c0.189-0.09,0.381-0.231,0.574-0.425l0.49,0.43c-0.127,0.127-0.252,0.237-0.375,0.33c-0.123,0.094-0.258,0.172-0.4,0.235
			c-0.142,0.063-0.299,0.111-0.465,0.145s-0.354,0.05-0.561,0.05c-0.326,0-0.623-0.05-0.893-0.15s-0.49-0.253-0.681-0.46
			s-0.33-0.468-0.435-0.785c-0.1-0.316-0.146-0.691-0.146-1.125c0-0.807,0.185-1.428,0.54-1.865s0.854-0.655,1.479-0.655
			c0.646,0,1.146,0.212,1.493,0.635c0.353,0.424,0.525,1.009,0.525,1.755v0.32H42.01z M44.62,41.889
			c-0.007-0.1-0.013-0.187-0.021-0.26c-0.01-0.073-0.019-0.14-0.024-0.2c-0.011-0.06-0.024-0.118-0.046-0.175
			c-0.021-0.057-0.043-0.119-0.069-0.185c-0.106-0.227-0.259-0.407-0.454-0.54c-0.197-0.133-0.43-0.2-0.695-0.2
			c-0.268,0-0.498,0.067-0.691,0.2c-0.197,0.133-0.352,0.313-0.455,0.54c-0.033,0.066-0.062,0.128-0.075,0.185
			c-0.019,0.057-0.026,0.115-0.04,0.175c-0.01,0.06-0.02,0.127-0.021,0.2c-0.004,0.073-0.008,0.16-0.016,0.26H44.62z"/>
		<path d="M50.41,43.259c0,0.473-0.184,0.842-0.551,1.105c-0.366,0.263-0.854,0.395-1.449,0.395c-0.42,0-0.795-0.054-1.125-0.16
			s-0.629-0.29-0.895-0.55l0.479-0.48c0.193,0.2,0.42,0.345,0.68,0.435c0.262,0.09,0.544,0.135,0.852,0.135
			c0.412,0,0.733-0.071,0.968-0.215c0.229-0.144,0.345-0.362,0.345-0.655c0-0.22-0.062-0.388-0.188-0.505
			c-0.127-0.117-0.336-0.188-0.629-0.215l-0.812-0.07c-0.479-0.04-0.848-0.167-1.098-0.38c-0.25-0.213-0.375-0.526-0.375-0.94
			c0-0.227,0.045-0.428,0.138-0.605c0.09-0.177,0.215-0.327,0.375-0.45c0.157-0.123,0.353-0.218,0.567-0.285
			c0.223-0.067,0.463-0.1,0.729-0.1c0.357,0,0.688,0.043,0.982,0.13c0.299,0.087,0.561,0.22,0.785,0.4l-0.472,0.47
			c-0.173-0.133-0.37-0.229-0.595-0.295c-0.227-0.063-0.462-0.095-0.715-0.095c-0.36,0-0.637,0.072-0.82,0.215
			c-0.188,0.143-0.277,0.341-0.277,0.595c0,0.22,0.067,0.387,0.209,0.5c0.143,0.113,0.361,0.187,0.67,0.22l0.771,0.07
			c0.214,0.02,0.41,0.057,0.59,0.11c0.184,0.054,0.333,0.132,0.46,0.235c0.13,0.103,0.228,0.235,0.298,0.395
			C50.374,42.829,50.41,43.026,50.41,43.259z"/>
	</g>
</g>
<g id="decoupe" display="none">
	
		<path display="inline" fill="none" stroke="#ED312D" stroke-width="0.2835" stroke-linecap="round" stroke-linejoin="round" stroke-miterlimit="10" d="
		M17.525,371.131c0,2.613,2.116,4.73,4.732,4.73c2.612,0,4.731-2.117,4.731-4.73s-2.119-4.73-4.731-4.73
		C19.641,366.398,17.525,368.518,17.525,371.131"/>
	
		<path display="inline" fill="none" stroke="#ED312D" stroke-width="0.2835" stroke-linecap="round" stroke-linejoin="round" stroke-miterlimit="10" d="
		M17.525,8.873c0,2.613,2.116,4.731,4.732,4.731c2.612,0,4.731-2.118,4.731-4.731c0-2.614-2.119-4.732-4.731-4.732
		C19.641,4.14,17.525,6.258,17.525,8.873"/>
	
		<rect x="0.078" display="inline" fill="none" stroke="#ED312D" stroke-width="0.2835" stroke-linecap="round" stroke-linejoin="round" stroke-miterlimit="10" width="59.145" height="380.002"/>
	
		<path display="inline" fill="none" stroke="#ED312D" stroke-width="0.2835" stroke-linecap="round" stroke-linejoin="round" stroke-miterlimit="10" d="
		M33.499,328.547c0,5.146,4.171,9.316,9.313,9.316c5.146,0,9.312-4.172,9.312-9.316s-4.169-9.314-9.312-9.314
		C37.67,319.23,33.499,323.402,33.499,328.547"/>
	
		<path display="inline" fill="none" stroke="#ED312D" stroke-width="0.2835" stroke-linecap="round" stroke-linejoin="round" stroke-miterlimit="10" d="
		M7.175,328.547c0,5.146,4.17,9.316,9.315,9.316c5.145,0,9.314-4.172,9.314-9.316s-4.169-9.314-9.314-9.314
		C11.345,319.232,7.175,323.402,7.175,328.547"/>
	
		<path display="inline" fill="none" stroke="#ED312D" stroke-width="0.2835" stroke-linecap="round" stroke-linejoin="round" stroke-miterlimit="10" d="
		M33.499,290.99c0,5.146,4.171,9.316,9.313,9.316c5.146,0,9.312-4.175,9.312-9.316c0-5.145-4.169-9.315-9.312-9.315
		C37.67,281.675,33.499,285.846,33.499,290.99"/>
	
		<path display="inline" fill="none" stroke="#ED312D" stroke-width="0.2835" stroke-linecap="round" stroke-linejoin="round" stroke-miterlimit="10" d="
		M7.175,290.99c0,5.146,4.17,9.316,9.315,9.316c5.145,0,9.314-4.175,9.314-9.316c0-5.145-4.169-9.315-9.314-9.315
		C11.345,281.675,7.175,285.846,7.175,290.99"/>
	
		<path display="inline" fill="none" stroke="#ED312D" stroke-width="0.2835" stroke-linecap="round" stroke-linejoin="round" stroke-miterlimit="10" d="
		M24.918,266.578c0,2.613,2.117,4.73,4.731,4.73c2.613,0,4.732-2.117,4.732-4.73c0-2.614-2.119-4.73-4.732-4.73
		S24.918,263.964,24.918,266.578"/>
	
		<path display="inline" fill="none" stroke="#ED312D" stroke-width="0.2835" stroke-linecap="round" stroke-linejoin="round" stroke-miterlimit="10" d="
		M33.499,227.145c0,5.146,4.171,9.314,9.313,9.314c5.146,0,9.312-4.171,9.312-9.314c0-5.145-4.169-9.312-9.312-9.312
		C37.67,217.829,33.499,222,33.499,227.145"/>
	
		<path display="inline" fill="none" stroke="#ED312D" stroke-width="0.2835" stroke-linecap="round" stroke-linejoin="round" stroke-miterlimit="10" d="
		M7.175,227.145c0,5.146,4.17,9.314,9.315,9.314c5.145,0,9.314-4.171,9.314-9.314c0-5.145-4.169-9.312-9.314-9.312
		C11.345,217.83,7.175,222,7.175,227.145"/>
	
		<path display="inline" fill="none" stroke="#ED312D" stroke-width="0.2835" stroke-linecap="round" stroke-linejoin="round" stroke-miterlimit="10" d="
		M33.499,189.587c0,5.144,4.171,9.313,9.313,9.313c5.146,0,9.312-4.17,9.312-9.313c0-5.144-4.169-9.316-9.312-9.316
		C37.67,180.271,33.499,184.443,33.499,189.587"/>
	
		<path display="inline" fill="none" stroke="#ED312D" stroke-width="0.2835" stroke-linecap="round" stroke-linejoin="round" stroke-miterlimit="10" d="
		M7.175,189.587c0,5.144,4.17,9.313,9.315,9.313c5.145,0,9.314-4.17,9.314-9.313c0-5.144-4.169-9.316-9.314-9.316
		C11.345,180.271,7.175,184.443,7.175,189.587"/>
	
		<path display="inline" fill="none" stroke="#ED312D" stroke-width="0.2835" stroke-linecap="round" stroke-linejoin="round" stroke-miterlimit="10" d="
		M24.918,165.175c0,2.613,2.117,4.732,4.731,4.732c2.613,0,4.732-2.119,4.732-4.732c0-2.613-2.119-4.731-4.732-4.731
		S24.918,162.562,24.918,165.175"/>
	
		<path display="inline" fill="none" stroke="#ED312D" stroke-width="0.2835" stroke-linecap="round" stroke-linejoin="round" stroke-miterlimit="10" d="
		M33.499,125.741c0,5.145,4.171,9.316,9.313,9.316c5.146,0,9.312-4.171,9.312-9.316c0-5.144-4.169-9.314-9.312-9.314
		C37.67,116.426,33.499,120.597,33.499,125.741"/>
	
		<path display="inline" fill="none" stroke="#ED312D" stroke-width="0.2835" stroke-linecap="round" stroke-linejoin="round" stroke-miterlimit="10" d="
		M7.175,125.741c0,5.145,4.17,9.316,9.315,9.316c5.145,0,9.314-4.171,9.314-9.316c0-5.144-4.169-9.314-9.314-9.314
		C11.345,116.427,7.175,120.597,7.175,125.741"/>
	
		<path display="inline" fill="none" stroke="#ED312D" stroke-width="0.2835" stroke-linecap="round" stroke-linejoin="round" stroke-miterlimit="10" d="
		M33.499,88.184c0,5.145,4.171,9.315,9.313,9.315c5.146,0,9.312-4.17,9.312-9.315s-4.169-9.314-9.312-9.314
		C37.67,78.87,33.499,83.04,33.499,88.184"/>
	
		<path display="inline" fill="none" stroke="#ED312D" stroke-width="0.2835" stroke-linecap="round" stroke-linejoin="round" stroke-miterlimit="10" d="
		M7.175,88.184c0,5.145,4.17,9.315,9.315,9.315c5.145,0,9.314-4.17,9.314-9.315s-4.169-9.314-9.314-9.314
		C11.345,78.87,7.175,83.04,7.175,88.184"/>
	
		<path display="inline" fill="none" stroke="#ED312D" stroke-width="0.2835" stroke-linecap="round" stroke-linejoin="round" stroke-miterlimit="10" d="
		M24.918,63.773c0,2.613,2.117,4.731,4.731,4.731c2.613,0,4.732-2.118,4.732-4.731s-2.119-4.732-4.732-4.732
		S24.918,61.16,24.918,63.773"/>
</g>
<g id="widgets" display="none">
	
		<rect id="PJ301_11_" x="4.99" y="76.917" display="inline" fill="none" stroke="#000000" stroke-miterlimit="10" width="23" height="23"/>
	
		<rect id="PJ301_9_" x="31.314" y="76.917" display="inline" fill="none" stroke="#000000" stroke-miterlimit="10" width="23" height="23"/>
	
		<rect id="PJ301_10_" x="4.99" y="114.241" display="inline" fill="none" stroke="#000000" stroke-miterlimit="10" width="23" height="23"/>
	
		<rect id="PJ301_8_" x="31.314" y="114.241" display="inline" fill="none" stroke="#000000" stroke-miterlimit="10" width="23" height="23"/>
	
		<rect id="PJ301_4_" x="4.99" y="177.875" display="inline" fill="none" stroke="#000000" stroke-miterlimit="10" width="23" height="23"/>
	
		<rect id="PJ301_3_" x="31.314" y="177.875" display="inline" fill="none" stroke="#000000" stroke-miterlimit="10" width="23" height="23"/>
	
		<rect id="PJ301_2_" x="4.99" y="215.2" display="inline" fill="none" stroke="#000000" stroke-miterlimit="10" width="23" height="23"/>
	
		<rect id="PJ301_1_" x="31.314" y="215.2" display="inline" fill="none" stroke="#000000" stroke-miterlimit="10" width="23" height="23"/>
	
		<rect id="PJ301_12_" x="4.99" y="279.896" display="inline" fill="none" stroke="#000000" stroke-miterlimit="10" width="23" height="23"/>
	
		<rect id="PJ301_7_" x="31.314" y="279.896" display="inline" fill="none" stroke="#000000" stroke-miterlimit="10" width="23" height="23"/>
	
		<rect id="PJ301_6_" x="4.99" y="317.223" display="inline" fill="none" stroke="#000000" stroke-miterlimit="10" width="23" height="23"/>
	
		<rect id="PJ301_5_" x="31.314" y="317.223" display="inline" fill="none" stroke="#000000" stroke-miterlimit="10" width="23" height="23"/>
	
		<rect id="SmallLight" x="26.149" y="60.272" display="inline" fill="none" stroke="#000000" stroke-miterlimit="10" width="7" height="7"/>
	
		<rect id="SmallLight_1_" x="26.149" y="161.676" display="inline" fill="none" stroke="#000000" stroke-miterlimit="10" width="7" height="7"/>
	
		<rect id="SmallLight_2_" x="26.149" y="263.078" display="inline" fill="none" stroke="#000000" stroke-miterlimit="10" width="7" height="7"/>
</g>
</svg>
