<svg xmlns="http://www.w3.org/2000/svg" width="36" height="36.002" viewBox="0 0 9.525 9.525"><path d="M9.423 4.267c-.207-.333-.552-.66-.745-1.126-.193-.465-.18-.94-.269-1.32a4.703 4.703 0 0 0-.706-.705c-.38-.088-.854-.076-1.318-.268C5.918.654 5.59.308 5.258.103a4.705 4.705 0 0 0-.99 0c-.334.206-.661.55-1.128.745-.464.192-.939.18-1.318.268a4.701 4.701 0 0 0-.706.705c-.089.38-.077.855-.27 1.32-.191.466-.538.793-.744 1.126a4.705 4.705 0 0 0 0 .991c.206.333.552.66.744 1.126.193.465.181.94.27 1.319.21.26.446.497.706.706.38.089.854.076 1.318.269.467.193.794.54 1.127.745a4.78 4.78 0 0 0 .991 0c.333-.207.66-.551 1.126-.745.465-.193.94-.18 1.32-.269.26-.21.495-.445.705-.705.089-.38.076-.855.269-1.319.193-.466.539-.794.745-1.127a4.805 4.805 0 0 0 0-.99" fill-rule="evenodd" stroke="#787878" stroke-width=".153" stroke-linecap="round" stroke-linejoin="round"/><circle r="3.732" cy="4.762" cx="4.728" fill="#464646" stroke="#595959" stroke-width=".103"/></svg>