<?xml version="1.0" standalone="no"?><!-- Generator: Gravit.io --><svg xmlns="http://www.w3.org/2000/svg" xmlns:xlink="http://www.w3.org/1999/xlink" style="isolation:isolate" viewBox="0 0 90 380" width="90" height="380"><defs><clipPath id="_clipPath_ruWoGoqsITX2W1QXRtvG6loca5kVVBBo"><rect width="90" height="380"/></clipPath></defs><g clip-path="url(#_clipPath_ruWoGoqsITX2W1QXRtvG6loca5kVVBBo)"><path d=" M 0 0 L 90 0 L 90 380 L 0 380 L 0 0 Z " fill="rgb(230,230,230)"/><line x1="35.934" y1="185.097" x2="52.934" y2="185.097" vector-effect="non-scaling-stroke" stroke-width="2" stroke="rgb(0,0,0)" stroke-linejoin="miter" stroke-linecap="square" stroke-miterlimit="3"/><line x1="35.934" y1="234" x2="59.25" y2="234" vector-effect="non-scaling-stroke" stroke-width="2" stroke="rgb(0,0,0)" stroke-linejoin="miter" stroke-linecap="square" stroke-miterlimit="3"/><line x1="35.934" y1="128.063" x2="52.934" y2="128.063" vector-effect="non-scaling-stroke" stroke-width="2" stroke="rgb(0,0,0)" stroke-linejoin="miter" stroke-linecap="square" stroke-miterlimit="3"/><path d=" M 35.6 360.026 L 35.6 364.228 L 34.076 364.228 L 34.076 360.026 L 34.076 360.026 Q 34.076 359.728 33.918 359.572 L 33.918 359.572 L 33.918 359.572 Q 33.76 359.417 33.449 359.417 L 33.449 359.417 L 31.469 359.417 L 31.469 364.228 L 29.945 364.228 L 29.945 358.649 L 29.945 358.649 Q 29.945 358.491 30.004 358.354 L 30.004 358.354 L 30.004 358.354 Q 30.063 358.216 30.168 358.113 L 30.168 358.113 L 30.168 358.113 Q 30.273 358.011 30.414 357.952 L 30.414 357.952 L 30.414 357.952 Q 30.555 357.894 30.713 357.894 L 30.713 357.894 L 33.461 357.894 L 33.461 357.894 Q 33.777 357.894 34.141 358.005 L 34.141 358.005 L 34.141 358.005 Q 34.504 358.116 34.832 358.362 L 34.832 358.362 L 34.832 357.894 L 36.895 357.894 L 36.895 357.894 Q 37.111 357.894 37.352 357.943 L 37.352 357.943 L 37.352 357.943 Q 37.592 357.993 37.829 358.099 L 37.829 358.099 L 37.829 358.099 Q 38.066 358.204 38.283 358.371 L 38.283 358.371 L 38.283 358.371 Q 38.5 358.538 38.664 358.775 L 38.664 358.775 L 38.664 358.775 Q 38.828 359.013 38.928 359.323 L 38.928 359.323 L 38.928 359.323 Q 39.027 359.634 39.027 360.026 L 39.027 360.026 L 39.027 364.228 L 37.504 364.228 L 37.504 360.026 L 37.504 360.026 Q 37.504 359.728 37.354 359.572 L 37.354 359.572 L 37.354 359.572 Q 37.205 359.417 36.895 359.417 L 36.895 359.417 L 35.523 359.417 L 35.523 359.417 Q 35.6 359.698 35.6 360.026 L 35.6 360.026 Z  M 48.051 361.409 L 48.051 362.089 L 48.051 362.089 Q 48.051 362.306 48.001 362.546 L 48.001 362.546 L 48.001 362.546 Q 47.951 362.786 47.843 363.023 L 47.843 363.023 L 47.843 363.023 Q 47.734 363.261 47.564 363.478 L 47.564 363.478 L 47.564 363.478 Q 47.395 363.694 47.157 363.861 L 47.157 363.861 L 47.157 363.861 Q 46.92 364.028 46.609 364.128 L 46.609 364.128 L 46.609 364.128 Q 46.299 364.228 45.912 364.228 L 45.912 364.228 L 42.467 364.228 L 42.467 364.228 Q 42.15 364.228 41.775 364.116 L 41.775 364.116 L 41.775 364.116 Q 41.4 364.005 41.081 363.75 L 41.081 363.75 L 41.081 363.75 Q 40.762 363.495 40.548 363.088 L 40.548 363.088 L 40.548 363.088 Q 40.334 362.681 40.334 362.089 L 40.334 362.089 L 40.334 361.409 L 40.334 361.409 Q 40.334 361.187 40.384 360.94 L 40.384 360.94 L 40.384 360.94 Q 40.434 360.694 40.542 360.454 L 40.542 360.454 L 40.542 360.454 Q 40.65 360.214 40.82 359.997 L 40.82 359.997 L 40.82 359.997 Q 40.99 359.78 41.23 359.622 L 41.23 359.622 L 41.23 359.622 Q 41.125 359.376 41.072 359.124 L 41.072 359.124 L 41.072 359.124 Q 41.02 358.872 41.02 358.649 L 41.02 358.649 L 41.02 357.964 L 41.02 357.964 Q 41.02 357.378 41.233 356.968 L 41.233 356.968 L 41.233 356.968 Q 41.447 356.558 41.767 356.306 L 41.767 356.306 L 41.767 356.306 Q 42.086 356.054 42.461 355.939 L 42.461 355.939 L 42.461 355.939 Q 42.836 355.825 43.152 355.825 L 43.152 355.825 L 45.215 355.825 L 45.215 355.825 Q 45.607 355.825 45.921 355.925 L 45.921 355.925 L 45.921 355.925 Q 46.234 356.024 46.472 356.191 L 46.472 356.191 L 46.472 356.191 Q 46.709 356.358 46.876 356.575 L 46.876 356.575 L 46.876 356.575 Q 47.043 356.792 47.148 357.029 L 47.148 357.029 L 47.148 357.029 Q 47.254 357.267 47.304 357.51 L 47.304 357.51 L 47.304 357.51 Q 47.354 357.753 47.354 357.964 L 47.354 357.964 L 47.354 358.649 L 47.354 358.649 Q 47.354 359.224 47.148 359.646 L 47.148 359.646 L 47.148 359.646 Q 47.336 359.769 47.5 359.936 L 47.5 359.936 L 47.5 359.936 Q 47.664 360.103 47.787 360.319 L 47.787 360.319 L 47.787 360.319 Q 47.91 360.536 47.98 360.809 L 47.98 360.809 L 47.98 360.809 Q 48.051 361.081 48.051 361.409 L 48.051 361.409 Z  M 45.83 358.649 L 45.83 357.976 L 45.83 357.976 Q 45.83 357.665 45.672 357.507 L 45.672 357.507 L 45.672 357.507 Q 45.514 357.349 45.215 357.349 L 45.215 357.349 L 43.164 357.349 L 43.164 357.349 Q 42.854 357.349 42.704 357.507 L 42.704 357.507 L 42.704 357.507 Q 42.555 357.665 42.555 357.964 L 42.555 357.964 L 42.555 358.649 L 42.555 358.649 Q 42.555 358.954 42.71 359.106 L 42.71 359.106 L 42.71 359.106 Q 42.865 359.259 43.152 359.259 L 43.152 359.259 L 45.215 359.259 L 45.215 359.259 Q 45.525 359.259 45.678 359.104 L 45.678 359.104 L 45.678 359.104 Q 45.83 358.948 45.83 358.649 L 45.83 358.649 Z  M 46.51 362.089 L 46.51 361.409 L 46.51 361.409 Q 46.51 361.116 46.349 360.955 L 46.349 360.955 L 46.349 360.955 Q 46.188 360.794 45.912 360.794 L 45.912 360.794 L 42.467 360.794 L 42.467 360.794 Q 42.186 360.794 42.021 360.97 L 42.021 360.97 L 42.021 360.97 Q 41.857 361.146 41.857 361.409 L 41.857 361.409 L 41.857 362.089 L 41.857 362.089 Q 41.857 362.37 42.03 362.537 L 42.03 362.537 L 42.03 362.537 Q 42.203 362.704 42.467 362.704 L 42.467 362.704 L 45.912 362.704 L 45.912 362.704 Q 46.205 362.704 46.357 362.528 L 46.357 362.528 L 46.357 362.528 Q 46.51 362.353 46.51 362.089 L 46.51 362.089 Z  M 59.113 359.341 L 59.113 360.712 L 59.113 360.712 Q 59.113 361.228 58.981 361.688 L 58.981 361.688 L 58.981 361.688 Q 58.85 362.147 58.609 362.54 L 58.609 362.54 L 58.609 362.54 Q 58.369 362.933 58.041 363.243 L 58.041 363.243 L 58.041 363.243 Q 57.713 363.554 57.323 363.773 L 57.323 363.773 L 57.323 363.773 Q 56.934 363.993 56.494 364.11 L 56.494 364.11 L 56.494 364.11 Q 56.055 364.228 55.598 364.228 L 55.598 364.228 L 52.85 364.228 L 52.85 364.228 Q 52.387 364.228 51.947 364.11 L 51.947 364.11 L 51.947 364.11 Q 51.508 363.993 51.118 363.773 L 51.118 363.773 L 51.118 363.773 Q 50.729 363.554 50.4 363.243 L 50.4 363.243 L 50.4 363.243 Q 50.072 362.933 49.835 362.54 L 49.835 362.54 L 49.835 362.54 Q 49.598 362.147 49.466 361.688 L 49.466 361.688 L 49.466 361.688 Q 49.334 361.228 49.334 360.712 L 49.334 360.712 L 49.334 359.341 L 49.334 359.341 Q 49.334 358.567 49.624 357.923 L 49.624 357.923 L 49.624 357.923 Q 49.914 357.278 50.4 356.813 L 50.4 356.813 L 50.4 356.813 Q 50.887 356.347 51.522 356.086 L 51.522 356.086 L 51.522 356.086 Q 52.158 355.825 52.85 355.825 L 52.85 355.825 L 55.598 355.825 L 55.598 355.825 Q 56.055 355.825 56.494 355.942 L 56.494 355.942 L 56.494 355.942 Q 56.934 356.06 57.323 356.279 L 57.323 356.279 L 57.323 356.279 Q 57.713 356.499 58.041 356.81 L 58.041 356.81 L 58.041 356.81 Q 58.369 357.12 58.609 357.513 L 58.609 357.513 L 58.609 357.513 Q 58.85 357.905 58.981 358.365 L 58.981 358.365 L 58.981 358.365 Q 59.113 358.825 59.113 359.341 L 59.113 359.341 Z  M 57.578 360.712 L 57.578 359.341 L 57.578 359.341 Q 57.578 358.89 57.414 358.521 L 57.414 358.521 L 57.414 358.521 Q 57.25 358.151 56.978 357.888 L 56.978 357.888 L 56.978 357.888 Q 56.705 357.624 56.348 357.483 L 56.348 357.483 L 56.348 357.483 Q 55.99 357.343 55.598 357.349 L 55.598 357.349 L 52.85 357.349 L 52.85 357.349 Q 52.469 357.343 52.108 357.48 L 52.108 357.48 L 52.108 357.48 Q 51.748 357.618 51.47 357.879 L 51.47 357.879 L 51.47 357.879 Q 51.191 358.14 51.024 358.512 L 51.024 358.512 L 51.024 358.512 Q 50.857 358.884 50.857 359.341 L 50.857 359.341 L 50.857 360.712 L 50.857 360.712 Q 50.857 361.169 51.021 361.538 L 51.021 361.538 L 51.021 361.538 Q 51.186 361.907 51.461 362.168 L 51.461 362.168 L 51.461 362.168 Q 51.736 362.429 52.097 362.569 L 52.097 362.569 L 52.097 362.569 Q 52.457 362.71 52.85 362.704 L 52.85 362.704 L 55.598 362.704 L 55.598 362.704 Q 56.049 362.704 56.415 362.555 L 56.415 362.555 L 56.415 362.555 Q 56.781 362.405 57.039 362.142 L 57.039 362.142 L 57.039 362.142 Q 57.297 361.878 57.438 361.512 L 57.438 361.512 L 57.438 361.512 Q 57.578 361.146 57.578 360.712 L 57.578 360.712 Z  M 56.916 358.228 L 56.916 358.228 L 56.916 358.228 Q 57.004 358.356 57.033 358.506 L 57.033 358.506 L 57.033 358.506 Q 57.063 358.655 57.033 358.799 L 57.033 358.799 L 57.033 358.799 Q 57.004 358.942 56.919 359.068 L 56.919 359.068 L 56.919 359.068 Q 56.834 359.194 56.699 359.282 L 56.699 359.282 L 52.586 362.03 L 52.586 362.03 Q 52.486 362.106 52.381 362.136 L 52.381 362.136 L 52.381 362.136 Q 52.275 362.165 52.164 362.165 L 52.164 362.165 L 52.164 362.165 Q 51.977 362.165 51.807 362.077 L 51.807 362.077 L 51.807 362.077 Q 51.637 361.989 51.531 361.825 L 51.531 361.825 L 51.531 361.825 Q 51.443 361.696 51.414 361.547 L 51.414 361.547 L 51.414 361.547 Q 51.385 361.397 51.411 361.254 L 51.411 361.254 L 51.411 361.254 Q 51.438 361.11 51.52 360.984 L 51.52 360.984 L 51.52 360.984 Q 51.602 360.858 51.736 360.771 L 51.736 360.771 L 55.861 358.022 L 55.861 358.022 Q 55.99 357.935 56.14 357.905 L 56.14 357.905 L 56.14 357.905 Q 56.289 357.876 56.433 357.905 L 56.433 357.905 L 56.433 357.905 Q 56.576 357.935 56.702 358.017 L 56.702 358.017 L 56.702 358.017 Q 56.828 358.099 56.916 358.228 Z " fill-rule="evenodd" fill="rgb(0,0,0)"/><path d=" M 21.103 25.308 L 21.103 25.308 L 21.103 25.308 Q 21.103 26.08 21.086 26.835 L 21.086 26.835 L 21.086 26.835 Q 21.069 27.591 21.035 28.356 L 21.035 28.356 L 17.097 28.288 L 17.097 28.288 Q 17.302 27.078 17.453 25.872 L 17.453 25.872 L 17.453 25.872 Q 17.603 24.665 17.603 23.434 L 17.603 23.434 L 17.603 23.434 Q 17.603 23.346 17.596 23.147 L 17.596 23.147 L 17.596 23.147 Q 17.589 22.949 17.569 22.7 L 17.569 22.7 L 17.569 22.7 Q 17.548 22.45 17.511 22.187 L 17.511 22.187 L 17.511 22.187 Q 17.473 21.924 17.408 21.705 L 17.408 21.705 L 17.408 21.705 Q 17.343 21.486 17.251 21.346 L 17.251 21.346 L 17.251 21.346 Q 17.159 21.206 17.029 21.206 L 17.029 21.206 L 17.029 21.206 Q 16.796 21.206 16.636 21.343 L 16.636 21.343 L 16.636 21.343 Q 16.475 21.479 16.369 21.695 L 16.369 21.695 L 16.369 21.695 Q 16.263 21.91 16.202 22.177 L 16.202 22.177 L 16.202 22.177 Q 16.14 22.443 16.109 22.71 L 16.109 22.71 L 16.109 22.71 Q 16.079 22.976 16.068 23.212 L 16.068 23.212 L 16.068 23.212 Q 16.058 23.448 16.058 23.599 L 16.058 23.599 L 16.058 23.599 Q 16.024 24.809 16.003 26.001 L 16.003 26.001 L 16.003 26.001 Q 15.983 27.194 15.949 28.411 L 15.949 28.411 L 12.462 28.561 L 12.462 28.561 Q 12.599 26.148 12.726 23.763 L 12.726 23.763 L 12.726 23.763 Q 12.852 21.377 12.927 18.964 L 12.927 18.964 L 16.154 18.8 L 16.126 19.893 L 16.126 19.893 Q 16.318 19.661 16.54 19.456 L 16.54 19.456 L 16.54 19.456 Q 16.762 19.251 17.015 19.104 L 17.015 19.104 L 17.015 19.104 Q 17.268 18.957 17.552 18.872 L 17.552 18.872 L 17.552 18.872 Q 17.835 18.786 18.15 18.786 L 18.15 18.786 L 18.15 18.786 Q 18.731 18.786 19.168 18.977 L 19.168 18.977 L 19.168 18.977 Q 19.606 19.169 19.92 19.497 L 19.92 19.497 L 19.92 19.497 Q 20.235 19.825 20.447 20.273 L 20.447 20.273 L 20.447 20.273 Q 20.659 20.721 20.789 21.226 L 20.789 21.226 L 20.789 21.226 Q 20.918 21.732 20.987 22.283 L 20.987 22.283 L 20.987 22.283 Q 21.055 22.833 21.079 23.366 L 21.079 23.366 L 21.079 23.366 Q 21.103 23.899 21.103 24.398 L 21.103 24.398 L 21.103 24.398 Q 21.103 24.897 21.103 25.308 Z  M 30.195 23.94 L 30.195 23.94 L 30.195 23.94 Q 30.195 24.562 30.051 25.14 L 30.051 25.14 L 30.051 25.14 Q 29.908 25.718 29.638 26.224 L 29.638 26.224 L 29.638 26.224 Q 29.368 26.729 28.981 27.15 L 28.981 27.15 L 28.981 27.15 Q 28.595 27.57 28.113 27.871 L 28.113 27.871 L 28.113 27.871 Q 27.631 28.172 27.064 28.339 L 27.064 28.339 L 27.064 28.339 Q 26.497 28.507 25.861 28.507 L 25.861 28.507 L 25.861 28.507 Q 25.246 28.507 24.688 28.35 L 24.688 28.35 L 24.688 28.35 Q 24.131 28.192 23.646 27.909 L 23.646 27.909 L 23.646 27.909 Q 23.161 27.625 22.768 27.225 L 22.768 27.225 L 22.768 27.225 Q 22.375 26.825 22.098 26.336 L 22.098 26.336 L 22.098 26.336 Q 21.821 25.848 21.667 25.287 L 21.667 25.287 L 21.667 25.287 Q 21.513 24.726 21.513 24.118 L 21.513 24.118 L 21.513 24.118 Q 21.513 23.523 21.657 22.953 L 21.657 22.953 L 21.657 22.953 Q 21.8 22.382 22.07 21.876 L 22.07 21.876 L 22.07 21.876 Q 22.34 21.37 22.723 20.946 L 22.723 20.946 L 22.723 20.946 Q 23.106 20.522 23.581 20.215 L 23.581 20.215 L 23.581 20.215 Q 24.056 19.907 24.61 19.736 L 24.61 19.736 L 24.61 19.736 Q 25.164 19.565 25.779 19.565 L 25.779 19.565 L 25.779 19.565 Q 26.77 19.565 27.587 19.873 L 27.587 19.873 L 27.587 19.873 Q 28.404 20.181 28.981 20.751 L 28.981 20.751 L 28.981 20.751 Q 29.559 21.322 29.877 22.132 L 29.877 22.132 L 29.877 22.132 Q 30.195 22.942 30.195 23.94 Z  M 27.16 24.118 L 27.16 24.118 L 27.16 24.118 Q 27.16 23.824 27.074 23.547 L 27.074 23.547 L 27.074 23.547 Q 26.989 23.27 26.825 23.055 L 26.825 23.055 L 26.825 23.055 Q 26.661 22.84 26.418 22.706 L 26.418 22.706 L 26.418 22.706 Q 26.175 22.573 25.861 22.573 L 25.861 22.573 L 25.861 22.573 Q 25.54 22.573 25.287 22.689 L 25.287 22.689 L 25.287 22.689 Q 25.034 22.806 24.853 23.007 L 24.853 23.007 L 24.853 23.007 Q 24.671 23.209 24.576 23.479 L 24.576 23.479 L 24.576 23.479 Q 24.48 23.749 24.48 24.05 L 24.48 24.05 L 24.48 24.05 Q 24.48 24.337 24.562 24.624 L 24.562 24.624 L 24.562 24.624 Q 24.644 24.911 24.808 25.143 L 24.808 25.143 L 24.808 25.143 Q 24.972 25.376 25.215 25.519 L 25.215 25.519 L 25.215 25.519 Q 25.458 25.663 25.779 25.663 L 25.779 25.663 L 25.779 25.663 Q 26.1 25.663 26.356 25.537 L 26.356 25.537 L 26.356 25.537 Q 26.613 25.41 26.791 25.195 L 26.791 25.195 L 26.791 25.195 Q 26.968 24.979 27.064 24.699 L 27.064 24.699 L 27.064 24.699 Q 27.16 24.419 27.16 24.118 Z  M 37.673 25.13 L 37.673 25.13 L 37.673 25.13 Q 37.673 26.066 37.349 26.767 L 37.349 26.767 L 37.349 26.767 Q 37.024 27.468 36.46 27.933 L 36.46 27.933 L 36.46 27.933 Q 35.896 28.397 35.141 28.63 L 35.141 28.63 L 35.141 28.63 Q 34.385 28.862 33.517 28.862 L 33.517 28.862 L 33.517 28.862 Q 33.182 28.862 32.782 28.773 L 32.782 28.773 L 32.782 28.773 Q 32.382 28.684 31.972 28.551 L 31.972 28.551 L 31.972 28.551 Q 31.562 28.418 31.183 28.264 L 31.183 28.264 L 31.183 28.264 Q 30.803 28.11 30.509 27.974 L 30.509 27.974 L 30.81 25.157 L 30.81 25.157 Q 31.391 25.506 32.099 25.687 L 32.099 25.687 L 32.099 25.687 Q 32.806 25.868 33.49 25.868 L 33.49 25.868 L 33.49 25.868 Q 33.62 25.868 33.804 25.858 L 33.804 25.858 L 33.804 25.858 Q 33.989 25.848 34.156 25.796 L 34.156 25.796 L 34.156 25.796 Q 34.324 25.745 34.44 25.642 L 34.44 25.642 L 34.44 25.642 Q 34.556 25.54 34.556 25.349 L 34.556 25.349 L 34.556 25.349 Q 34.556 25.219 34.474 25.126 L 34.474 25.126 L 34.474 25.126 Q 34.392 25.034 34.262 24.976 L 34.262 24.976 L 34.262 24.976 Q 34.132 24.918 33.968 24.887 L 33.968 24.887 L 33.968 24.887 Q 33.804 24.856 33.647 24.843 L 33.647 24.843 L 33.647 24.843 Q 33.49 24.829 33.353 24.829 L 33.353 24.829 L 33.353 24.829 Q 33.216 24.829 33.134 24.829 L 33.134 24.829 L 33.134 24.829 Q 32.546 24.829 32.064 24.624 L 32.064 24.624 L 32.064 24.624 Q 31.583 24.419 31.237 24.053 L 31.237 24.053 L 31.237 24.053 Q 30.892 23.687 30.701 23.185 L 30.701 23.185 L 30.701 23.185 Q 30.509 22.683 30.509 22.095 L 30.509 22.095 L 30.509 22.095 Q 30.509 21.288 30.834 20.649 L 30.834 20.649 L 30.834 20.649 Q 31.159 20.01 31.702 19.562 L 31.702 19.562 L 31.702 19.562 Q 32.246 19.114 32.95 18.875 L 32.95 18.875 L 32.95 18.875 Q 33.654 18.636 34.406 18.636 L 34.406 18.636 L 34.406 18.636 Q 34.741 18.636 35.096 18.66 L 35.096 18.66 L 35.096 18.66 Q 35.452 18.684 35.804 18.745 L 35.804 18.745 L 35.804 18.745 Q 36.156 18.807 36.491 18.902 L 36.491 18.902 L 36.491 18.902 Q 36.826 18.998 37.126 19.142 L 37.126 19.142 L 36.867 21.917 L 36.867 21.917 Q 36.402 21.76 35.893 21.654 L 35.893 21.654 L 35.893 21.654 Q 35.383 21.548 34.898 21.548 L 34.898 21.548 L 34.898 21.548 Q 34.809 21.548 34.669 21.551 L 34.669 21.551 L 34.669 21.551 Q 34.529 21.555 34.375 21.572 L 34.375 21.572 L 34.375 21.572 Q 34.221 21.589 34.064 21.623 L 34.064 21.623 L 34.064 21.623 Q 33.907 21.657 33.784 21.715 L 33.784 21.715 L 33.784 21.715 Q 33.661 21.773 33.585 21.869 L 33.585 21.869 L 33.585 21.869 Q 33.51 21.965 33.517 22.095 L 33.517 22.095 L 33.517 22.095 Q 33.524 22.245 33.63 22.337 L 33.63 22.337 L 33.63 22.337 Q 33.736 22.43 33.903 22.481 L 33.903 22.481 L 33.903 22.481 Q 34.071 22.532 34.272 22.553 L 34.272 22.553 L 34.272 22.553 Q 34.474 22.573 34.672 22.577 L 34.672 22.577 L 34.672 22.577 Q 34.871 22.58 35.042 22.577 L 35.042 22.577 L 35.042 22.577 Q 35.212 22.573 35.322 22.587 L 35.322 22.587 L 35.322 22.587 Q 35.869 22.621 36.306 22.819 L 36.306 22.819 L 36.306 22.819 Q 36.744 23.017 37.048 23.346 L 37.048 23.346 L 37.048 23.346 Q 37.352 23.674 37.513 24.128 L 37.513 24.128 L 37.513 24.128 Q 37.673 24.583 37.673 25.13 Z  M 38.275 18.909 L 44.578 18.909 L 44.578 18.909 Q 44.537 19.552 44.502 20.181 L 44.502 20.181 L 44.502 20.181 Q 44.468 20.809 44.414 21.452 L 44.414 21.452 L 41.515 21.602 L 41.447 22.464 L 43.484 22.464 L 43.333 24.583 L 41.283 24.651 L 41.214 25.649 L 42.91 25.649 L 44.113 25.649 L 44.113 25.649 Q 44.072 26.401 44.027 27.143 L 44.027 27.143 L 44.027 27.143 Q 43.983 27.885 43.949 28.63 L 43.949 28.63 L 38.056 28.767 L 38.275 18.909 Z  M 52.822 22.177 L 52.822 22.177 L 52.822 22.177 Q 52.822 22.71 52.729 23.144 L 52.729 23.144 L 52.729 23.144 Q 52.637 23.578 52.439 23.94 L 52.439 23.94 L 52.439 23.94 Q 52.241 24.303 51.926 24.61 L 51.926 24.61 L 51.926 24.61 Q 51.612 24.918 51.167 25.198 L 51.167 25.198 L 52.794 28.097 L 49.718 28.698 L 48.666 25.786 L 47.818 25.813 L 47.695 28.657 L 44.755 28.657 L 44.755 28.657 Q 44.79 27.099 44.82 25.554 L 44.82 25.554 L 44.82 25.554 Q 44.851 24.009 44.892 22.45 L 44.892 22.45 L 44.892 22.45 Q 44.906 21.664 44.919 20.892 L 44.919 20.892 L 44.919 20.892 Q 44.933 20.119 44.974 19.333 L 44.974 19.333 L 44.974 19.333 Q 45.453 19.155 45.917 19.039 L 45.917 19.039 L 45.917 19.039 Q 46.382 18.923 46.851 18.858 L 46.851 18.858 L 46.851 18.858 Q 47.319 18.793 47.801 18.769 L 47.801 18.769 L 47.801 18.769 Q 48.283 18.745 48.789 18.745 L 48.789 18.745 L 48.789 18.745 Q 49.568 18.745 50.296 18.96 L 50.296 18.96 L 50.296 18.96 Q 51.024 19.176 51.584 19.606 L 51.584 19.606 L 51.584 19.606 Q 52.145 20.037 52.483 20.68 L 52.483 20.68 L 52.483 20.68 Q 52.822 21.322 52.822 22.177 Z  M 49.759 22.395 L 49.759 22.395 L 49.759 22.395 Q 49.759 22.108 49.681 21.869 L 49.681 21.869 L 49.681 21.869 Q 49.602 21.63 49.448 21.455 L 49.448 21.455 L 49.448 21.455 Q 49.294 21.281 49.065 21.182 L 49.065 21.182 L 49.065 21.182 Q 48.836 21.083 48.529 21.083 L 48.529 21.083 L 48.529 21.083 Q 48.392 21.083 48.262 21.1 L 48.262 21.1 L 48.262 21.1 Q 48.132 21.117 48.009 21.151 L 48.009 21.151 L 47.9 23.694 L 48.064 23.694 L 48.064 23.694 Q 48.358 23.694 48.662 23.619 L 48.662 23.619 L 48.662 23.619 Q 48.966 23.544 49.209 23.387 L 49.209 23.387 L 49.209 23.387 Q 49.452 23.229 49.605 22.983 L 49.605 22.983 L 49.605 22.983 Q 49.759 22.737 49.759 22.395 Z  M 53.348 19.333 L 56.985 19.142 L 56.233 28.452 L 53.348 28.602 L 53.348 19.333 Z  M 63.527 19.073 L 66.753 18.964 L 66.261 28.233 L 62.679 28.561 L 60.765 23.599 L 60.464 28.657 L 57.388 28.657 L 57.634 18.964 L 61.052 18.8 L 63.417 23.722 L 63.527 19.073 Z  M 75.476 22.778 L 75.558 27.372 L 75.558 27.372 Q 75.237 27.775 74.765 28.076 L 74.765 28.076 L 74.765 28.076 Q 74.293 28.377 73.753 28.575 L 73.753 28.575 L 73.753 28.575 Q 73.213 28.773 72.646 28.872 L 72.646 28.872 L 72.646 28.872 Q 72.079 28.972 71.566 28.972 L 71.566 28.972 L 71.566 28.972 Q 70.575 28.972 69.741 28.616 L 69.741 28.616 L 69.741 28.616 Q 68.907 28.261 68.302 27.635 L 68.302 27.635 L 68.302 27.635 Q 67.697 27.01 67.355 26.162 L 67.355 26.162 L 67.355 26.162 Q 67.013 25.314 67.013 24.337 L 67.013 24.337 L 67.013 24.337 Q 67.013 23.592 67.184 22.877 L 67.184 22.877 L 67.184 22.877 Q 67.355 22.163 67.673 21.531 L 67.673 21.531 L 67.673 21.531 Q 67.991 20.898 68.449 20.369 L 68.449 20.369 L 68.449 20.369 Q 68.907 19.839 69.488 19.456 L 69.488 19.456 L 69.488 19.456 Q 70.069 19.073 70.759 18.861 L 70.759 18.861 L 70.759 18.861 Q 71.45 18.649 72.236 18.649 L 72.236 18.649 L 72.236 18.649 Q 72.53 18.649 72.865 18.673 L 72.865 18.673 L 72.865 18.673 Q 73.2 18.697 73.531 18.755 L 73.531 18.755 L 73.531 18.755 Q 73.863 18.813 74.177 18.916 L 74.177 18.916 L 74.177 18.916 Q 74.492 19.018 74.751 19.169 L 74.751 19.169 L 74.56 21.78 L 74.56 21.78 Q 74.177 21.637 73.771 21.585 L 73.771 21.585 L 73.771 21.585 Q 73.364 21.534 72.974 21.534 L 72.974 21.534 L 72.974 21.534 Q 72.427 21.534 71.952 21.702 L 71.952 21.702 L 71.952 21.702 Q 71.477 21.869 71.125 22.184 L 71.125 22.184 L 71.125 22.184 Q 70.773 22.498 70.568 22.949 L 70.568 22.949 L 70.568 22.949 Q 70.363 23.4 70.363 23.968 L 70.363 23.968 L 70.363 23.968 Q 70.363 24.323 70.458 24.655 L 70.458 24.655 L 70.458 24.655 Q 70.554 24.986 70.749 25.243 L 70.749 25.243 L 70.749 25.243 Q 70.944 25.499 71.234 25.656 L 71.234 25.656 L 71.234 25.656 Q 71.525 25.813 71.908 25.813 L 71.908 25.813 L 71.908 25.813 Q 72.167 25.813 72.444 25.745 L 72.444 25.745 L 72.444 25.745 Q 72.721 25.677 72.919 25.513 L 72.919 25.513 L 72.947 24.979 L 71.306 24.952 L 71.388 22.901 L 71.388 22.901 Q 72.407 22.867 73.425 22.843 L 73.425 22.843 L 73.425 22.843 Q 74.444 22.819 75.476 22.778 L 75.476 22.778 Z " fill-rule="evenodd" fill="rgb(0,0,0)"/><path d=" M 55.337 46.213 L 55.337 39.735 L 56.391 39.735 L 56.391 46.213 L 55.337 46.213 Z  M 58.255 43.664 L 59.731 46.213 L 58.615 46.213 L 57.393 43.866 L 57.393 43.866 Q 57.367 43.866 57.336 43.871 L 57.336 43.871 L 57.336 43.871 Q 57.305 43.875 57.244 43.875 L 57.244 43.875 L 57.244 43.875 Q 57.182 43.875 57.064 43.875 L 57.064 43.875 L 57.064 43.875 Q 56.945 43.875 56.752 43.875 L 56.752 43.875 L 56.752 43.101 L 57.349 43.101 L 57.349 43.101 Q 57.543 43.101 57.736 43.036 L 57.736 43.036 L 57.736 43.036 Q 57.929 42.97 58.088 42.82 L 58.088 42.82 L 58.088 42.82 Q 58.246 42.671 58.342 42.403 L 58.342 42.403 L 58.342 42.403 Q 58.439 42.135 58.439 41.739 L 58.439 41.739 L 58.439 41.739 Q 58.439 41.581 58.395 41.374 L 58.395 41.374 L 58.395 41.374 Q 58.351 41.168 58.215 40.979 L 58.215 40.979 L 58.215 40.979 Q 58.079 40.79 57.833 40.663 L 57.833 40.663 L 57.833 40.663 Q 57.587 40.535 57.182 40.535 L 57.182 40.535 L 56.752 40.535 L 56.752 39.735 L 57.2 39.735 L 57.2 39.735 Q 57.613 39.735 58.017 39.867 L 58.017 39.867 L 58.017 39.867 Q 58.422 39.999 58.742 40.263 L 58.742 40.263 L 58.742 40.263 Q 59.063 40.526 59.261 40.9 L 59.261 40.9 L 59.261 40.9 Q 59.459 41.273 59.459 41.739 L 59.459 41.739 L 59.459 41.739 Q 59.459 42.442 59.133 42.934 L 59.133 42.934 L 59.133 42.934 Q 58.808 43.427 58.255 43.664 L 58.255 43.664 Z  M 64.214 39.744 L 66.464 46.213 L 65.374 46.213 L 63.695 41.361 L 61.999 46.213 L 60.9 46.213 L 63.168 39.744 L 64.214 39.744 Z  M 63.097 44.156 L 64.275 44.156 L 64.53 44.868 L 62.851 44.868 L 63.097 44.156 Z  M 67.465 39.735 L 72.396 39.735 L 72.396 40.456 L 70.463 40.456 L 70.463 46.213 L 69.399 46.213 L 69.399 40.456 L 67.465 40.456 L 67.465 39.735 Z  M 73.679 46.213 L 73.679 39.735 L 74.752 39.735 L 74.752 46.213 L 73.679 46.213 Z  M 77.459 42.574 L 77.459 43.295 L 75.112 43.295 L 75.112 42.574 L 77.459 42.574 Z  M 75.112 46.213 L 75.112 45.413 L 77.731 45.413 L 77.731 46.213 L 75.112 46.213 Z  M 75.112 39.735 L 77.731 39.735 L 77.731 40.535 L 75.112 40.535 L 75.112 39.735 Z " fill-rule="evenodd" fill="rgb(0,0,0)"/><path d=" M 53.184 97.41 L 52.455 98.061 L 52.455 98.061 Q 52.253 97.832 52.024 97.718 L 52.024 97.718 L 52.024 97.718 Q 51.796 97.604 51.532 97.586 L 51.532 97.586 L 51.532 96.716 L 51.532 96.716 Q 52.516 96.76 53.184 97.41 L 53.184 97.41 Z  M 51.532 103.334 L 51.532 102.464 L 51.532 102.464 Q 51.796 102.438 52.028 102.323 L 52.028 102.323 L 52.028 102.323 Q 52.261 102.209 52.455 101.989 L 52.455 101.989 L 53.184 102.631 L 53.184 102.631 Q 52.85 102.956 52.437 103.132 L 52.437 103.132 L 52.437 103.132 Q 52.024 103.308 51.532 103.334 L 51.532 103.334 Z  M 48.684 100.021 L 48.684 100.021 L 48.684 100.021 Q 48.684 99.238 48.873 98.641 L 48.873 98.641 L 48.873 98.641 Q 49.062 98.043 49.396 97.63 L 49.396 97.63 L 49.396 97.63 Q 49.73 97.217 50.183 96.988 L 50.183 96.988 L 50.183 96.988 Q 50.635 96.76 51.172 96.716 L 51.172 96.716 L 51.172 97.595 L 51.172 97.595 Q 50.882 97.639 50.627 97.792 L 50.627 97.792 L 50.627 97.792 Q 50.372 97.946 50.178 98.236 L 50.178 98.236 L 50.178 98.236 Q 49.985 98.526 49.875 98.97 L 49.875 98.97 L 49.875 98.97 Q 49.765 99.414 49.757 100.021 L 49.757 100.021 L 49.757 100.021 Q 49.765 100.636 49.875 101.075 L 49.875 101.075 L 49.875 101.075 Q 49.985 101.515 50.178 101.813 L 50.178 101.813 L 50.178 101.813 Q 50.372 102.112 50.631 102.271 L 50.631 102.271 L 50.631 102.271 Q 50.89 102.429 51.172 102.464 L 51.172 102.464 L 51.172 103.325 L 51.172 103.325 Q 50.635 103.29 50.183 103.062 L 50.183 103.062 L 50.183 103.062 Q 49.73 102.833 49.396 102.42 L 49.396 102.42 L 49.396 102.42 Q 49.062 102.007 48.873 101.405 L 48.873 101.405 L 48.873 101.405 Q 48.684 100.803 48.684 100.021 Z  M 58.59 96.813 L 59.644 96.813 L 59.644 103.29 L 58.59 103.29 L 58.59 100.372 L 56.146 100.372 L 56.146 99.651 L 58.59 99.651 L 58.59 96.813 Z  M 54.714 103.29 L 54.714 96.813 L 55.786 96.813 L 55.786 103.29 L 54.714 103.29 Z  M 64.338 96.821 L 66.588 103.29 L 65.498 103.29 L 63.819 98.438 L 62.123 103.29 L 61.024 103.29 L 63.292 96.821 L 64.338 96.821 Z  M 63.221 101.233 L 64.399 101.233 L 64.654 101.945 L 62.975 101.945 L 63.221 101.233 Z  M 71.562 101.277 L 71.562 96.813 L 72.634 96.813 L 72.634 103.29 L 71.562 103.29 L 69.382 99.458 L 69.382 97.437 L 71.562 101.277 Z  M 69.022 103.29 L 67.95 103.29 L 67.95 96.813 L 69.022 96.813 L 69.022 103.29 Z  M 78.629 97.41 L 77.899 98.061 L 77.899 98.061 Q 77.688 97.806 77.416 97.691 L 77.416 97.691 L 77.416 97.691 Q 77.143 97.577 76.853 97.577 L 76.853 97.577 L 76.818 97.577 L 76.818 96.707 L 76.827 96.707 L 76.827 96.707 Q 77.354 96.707 77.811 96.883 L 77.811 96.883 L 77.811 96.883 Q 78.268 97.059 78.629 97.41 L 78.629 97.41 Z  M 74.129 100.021 L 74.129 100.021 L 74.129 100.021 Q 74.129 99.265 74.304 98.68 L 74.304 98.68 L 74.304 98.68 Q 74.48 98.096 74.788 97.687 L 74.788 97.687 L 74.788 97.687 Q 75.095 97.278 75.526 97.041 L 75.526 97.041 L 75.526 97.041 Q 75.957 96.804 76.458 96.742 L 76.458 96.742 L 76.458 97.621 L 76.458 97.621 Q 76.194 97.691 75.97 97.858 L 75.97 97.858 L 75.97 97.858 Q 75.746 98.025 75.574 98.32 L 75.574 98.32 L 75.574 98.32 Q 75.403 98.614 75.306 99.032 L 75.306 99.032 L 75.306 99.032 Q 75.21 99.449 75.201 100.021 L 75.201 100.021 L 75.201 100.021 Q 75.21 100.592 75.306 101.022 L 75.306 101.022 L 75.306 101.022 Q 75.403 101.453 75.574 101.765 L 75.574 101.765 L 75.574 101.765 Q 75.746 102.077 75.97 102.262 L 75.97 102.262 L 75.97 102.262 Q 76.194 102.446 76.458 102.517 L 76.458 102.517 L 76.458 103.316 L 76.458 103.316 Q 75.957 103.255 75.526 103.013 L 75.526 103.013 L 75.526 103.013 Q 75.095 102.771 74.788 102.358 L 74.788 102.358 L 74.788 102.358 Q 74.48 101.945 74.304 101.361 L 74.304 101.361 L 74.304 101.361 Q 74.129 100.776 74.129 100.021 Z  M 76.818 99.95 L 78.963 99.95 L 78.963 102.455 L 78.963 102.455 Q 78.76 102.71 78.51 102.873 L 78.51 102.873 L 78.51 102.873 Q 78.259 103.035 77.983 103.141 L 77.983 103.141 L 77.983 103.141 Q 77.706 103.246 77.411 103.29 L 77.411 103.29 L 77.411 103.29 Q 77.117 103.334 76.827 103.334 L 76.827 103.334 L 76.818 103.334 L 76.818 102.561 L 76.818 102.561 Q 76.924 102.561 77.077 102.547 L 77.077 102.547 L 77.077 102.547 Q 77.231 102.534 77.394 102.503 L 77.394 102.503 L 77.394 102.503 Q 77.556 102.473 77.701 102.42 L 77.701 102.42 L 77.701 102.42 Q 77.846 102.367 77.917 102.271 L 77.917 102.271 L 77.917 100.671 L 76.818 100.671 L 76.818 99.95 Z  M 80.509 103.29 L 80.509 96.813 L 81.582 96.813 L 81.582 103.29 L 80.509 103.29 Z  M 84.289 99.651 L 84.289 100.372 L 81.942 100.372 L 81.942 99.651 L 84.289 99.651 Z  M 81.942 103.29 L 81.942 102.49 L 84.561 102.49 L 84.561 103.29 L 81.942 103.29 Z  M 81.942 96.813 L 84.561 96.813 L 84.561 97.612 L 81.942 97.612 L 81.942 96.813 Z " fill-rule="evenodd" fill="rgb(0,0,0)"/><path d=" M 53.263 154.41 L 52.533 155.061 L 52.533 155.061 Q 52.331 154.832 52.103 154.718 L 52.103 154.718 L 52.103 154.718 Q 51.874 154.604 51.61 154.586 L 51.61 154.586 L 51.61 153.716 L 51.61 153.716 Q 52.595 153.76 53.263 154.41 L 53.263 154.41 Z  M 51.61 160.334 L 51.61 159.464 L 51.61 159.464 Q 51.874 159.438 52.107 159.323 L 52.107 159.323 L 52.107 159.323 Q 52.34 159.209 52.533 158.989 L 52.533 158.989 L 53.263 159.631 L 53.263 159.631 Q 52.929 159.956 52.516 160.132 L 52.516 160.132 L 52.516 160.132 Q 52.103 160.308 51.61 160.334 L 51.61 160.334 Z  M 48.763 157.021 L 48.763 157.021 L 48.763 157.021 Q 48.763 156.238 48.952 155.641 L 48.952 155.641 L 48.952 155.641 Q 49.141 155.043 49.475 154.63 L 49.475 154.63 L 49.475 154.63 Q 49.809 154.217 50.261 153.988 L 50.261 153.988 L 50.261 153.988 Q 50.714 153.76 51.25 153.716 L 51.25 153.716 L 51.25 154.595 L 51.25 154.595 Q 50.96 154.639 50.705 154.792 L 50.705 154.792 L 50.705 154.792 Q 50.45 154.946 50.257 155.236 L 50.257 155.236 L 50.257 155.236 Q 50.064 155.526 49.954 155.97 L 49.954 155.97 L 49.954 155.97 Q 49.844 156.414 49.835 157.021 L 49.835 157.021 L 49.835 157.021 Q 49.844 157.636 49.954 158.075 L 49.954 158.075 L 49.954 158.075 Q 50.064 158.515 50.257 158.813 L 50.257 158.813 L 50.257 158.813 Q 50.45 159.112 50.71 159.271 L 50.71 159.271 L 50.71 159.271 Q 50.969 159.429 51.25 159.464 L 51.25 159.464 L 51.25 160.325 L 51.25 160.325 Q 50.714 160.29 50.261 160.062 L 50.261 160.062 L 50.261 160.062 Q 49.809 159.833 49.475 159.42 L 49.475 159.42 L 49.475 159.42 Q 49.141 159.007 48.952 158.405 L 48.952 158.405 L 48.952 158.405 Q 48.763 157.803 48.763 157.021 Z  M 58.668 153.813 L 59.723 153.813 L 59.723 160.29 L 58.668 160.29 L 58.668 157.372 L 56.225 157.372 L 56.225 156.651 L 58.668 156.651 L 58.668 153.813 Z  M 54.792 160.29 L 54.792 153.813 L 55.864 153.813 L 55.864 160.29 L 54.792 160.29 Z  M 64.416 153.821 L 66.666 160.29 L 65.576 160.29 L 63.898 155.438 L 62.201 160.29 L 61.103 160.29 L 63.37 153.821 L 64.416 153.821 Z  M 63.3 158.233 L 64.478 158.233 L 64.733 158.945 L 63.054 158.945 L 63.3 158.233 Z  M 71.641 158.277 L 71.641 153.813 L 72.713 153.813 L 72.713 160.29 L 71.641 160.29 L 69.461 156.458 L 69.461 154.437 L 71.641 158.277 Z  M 69.101 160.29 L 68.028 160.29 L 68.028 153.813 L 69.101 153.813 L 69.101 160.29 Z  M 78.707 154.41 L 77.978 155.061 L 77.978 155.061 Q 77.775 154.832 77.547 154.718 L 77.547 154.718 L 77.547 154.718 Q 77.318 154.604 77.055 154.586 L 77.055 154.586 L 77.055 153.716 L 77.055 153.716 Q 78.039 153.76 78.707 154.41 L 78.707 154.41 Z  M 77.055 160.334 L 77.055 159.464 L 77.055 159.464 Q 77.318 159.438 77.551 159.323 L 77.551 159.323 L 77.551 159.323 Q 77.784 159.209 77.978 158.989 L 77.978 158.989 L 78.707 159.631 L 78.707 159.631 Q 78.373 159.956 77.96 160.132 L 77.96 160.132 L 77.96 160.132 Q 77.547 160.308 77.055 160.334 L 77.055 160.334 Z  M 74.207 157.021 L 74.207 157.021 L 74.207 157.021 Q 74.207 156.238 74.396 155.641 L 74.396 155.641 L 74.396 155.641 Q 74.585 155.043 74.919 154.63 L 74.919 154.63 L 74.919 154.63 Q 75.253 154.217 75.706 153.988 L 75.706 153.988 L 75.706 153.988 Q 76.158 153.76 76.694 153.716 L 76.694 153.716 L 76.694 154.595 L 76.694 154.595 Q 76.404 154.639 76.149 154.792 L 76.149 154.792 L 76.149 154.792 Q 75.895 154.946 75.701 155.236 L 75.701 155.236 L 75.701 155.236 Q 75.508 155.526 75.398 155.97 L 75.398 155.97 L 75.398 155.97 Q 75.288 156.414 75.279 157.021 L 75.279 157.021 L 75.279 157.021 Q 75.288 157.636 75.398 158.075 L 75.398 158.075 L 75.398 158.075 Q 75.508 158.515 75.701 158.813 L 75.701 158.813 L 75.701 158.813 Q 75.895 159.112 76.154 159.271 L 76.154 159.271 L 76.154 159.271 Q 76.413 159.429 76.694 159.464 L 76.694 159.464 L 76.694 160.325 L 76.694 160.325 Q 76.158 160.29 75.706 160.062 L 75.706 160.062 L 75.706 160.062 Q 75.253 159.833 74.919 159.42 L 74.919 159.42 L 74.919 159.42 Q 74.585 159.007 74.396 158.405 L 74.396 158.405 L 74.396 158.405 Q 74.207 157.803 74.207 157.021 Z  M 80.245 160.29 L 80.245 153.813 L 81.317 153.813 L 81.317 160.29 L 80.245 160.29 Z  M 84.024 156.651 L 84.024 157.372 L 81.678 157.372 L 81.678 156.651 L 84.024 156.651 Z  M 81.678 160.29 L 81.678 159.49 L 84.297 159.49 L 84.297 160.29 L 81.678 160.29 Z  M 81.678 153.813 L 84.297 153.813 L 84.297 154.612 L 81.678 154.612 L 81.678 153.813 Z " fill-rule="evenodd" fill="rgb(0,0,0)"/><path d=" M 66.664 216.516 L 66.664 216.516 L 66.664 216.516 Q 66.664 215.733 66.853 215.131 L 66.853 215.131 L 66.853 215.131 Q 67.042 214.529 67.38 214.112 L 67.38 214.112 L 67.38 214.112 Q 67.719 213.694 68.18 213.47 L 68.18 213.47 L 68.18 213.47 Q 68.642 213.246 69.187 213.211 L 69.187 213.211 L 69.187 214.09 L 69.187 214.09 Q 68.888 214.125 68.624 214.274 L 68.624 214.274 L 68.624 214.274 Q 68.36 214.424 68.167 214.714 L 68.167 214.714 L 68.167 214.714 Q 67.974 215.004 67.859 215.452 L 67.859 215.452 L 67.859 215.452 Q 67.745 215.9 67.736 216.516 L 67.736 216.516 L 67.736 216.516 Q 67.745 217.14 67.859 217.583 L 67.859 217.583 L 67.859 217.583 Q 67.974 218.027 68.172 218.326 L 68.172 218.326 L 68.172 218.326 Q 68.369 218.625 68.633 218.779 L 68.633 218.779 L 68.633 218.779 Q 68.897 218.933 69.187 218.959 L 69.187 218.959 L 69.187 219.829 L 69.187 219.829 Q 68.651 219.794 68.185 219.57 L 68.185 219.57 L 68.185 219.57 Q 67.719 219.346 67.38 218.928 L 67.38 218.928 L 67.38 218.928 Q 67.042 218.511 66.853 217.904 L 66.853 217.904 L 66.853 217.904 Q 66.664 217.298 66.664 216.516 Z  M 69.538 214.081 L 69.538 213.211 L 69.538 213.211 Q 70.074 213.237 70.536 213.466 L 70.536 213.466 L 70.536 213.466 Q 70.997 213.694 71.336 214.112 L 71.336 214.112 L 71.336 214.112 Q 71.674 214.529 71.867 215.131 L 71.867 215.131 L 71.867 215.131 Q 72.061 215.733 72.061 216.516 L 72.061 216.516 L 72.061 216.516 Q 72.061 217.298 71.867 217.904 L 71.867 217.904 L 71.867 217.904 Q 71.674 218.511 71.336 218.928 L 71.336 218.928 L 71.336 218.928 Q 70.997 219.346 70.54 219.57 L 70.54 219.57 L 70.54 219.57 Q 70.083 219.794 69.538 219.829 L 69.538 219.829 L 69.538 218.959 L 69.538 218.959 Q 69.837 218.924 70.101 218.77 L 70.101 218.77 L 70.101 218.77 Q 70.364 218.616 70.558 218.322 L 70.558 218.322 L 70.558 218.322 Q 70.751 218.027 70.865 217.583 L 70.865 217.583 L 70.865 217.583 Q 70.98 217.14 70.988 216.516 L 70.988 216.516 L 70.988 216.516 Q 70.98 215.892 70.865 215.448 L 70.865 215.448 L 70.865 215.448 Q 70.751 215.004 70.553 214.709 L 70.553 214.709 L 70.553 214.709 Q 70.356 214.415 70.092 214.261 L 70.092 214.261 L 70.092 214.261 Q 69.828 214.107 69.538 214.081 L 69.538 214.081 Z  M 74.53 213.308 L 74.53 216.41 L 74.53 216.41 Q 74.53 217.087 74.618 217.557 L 74.618 217.557 L 74.618 217.557 Q 74.706 218.027 74.873 218.331 L 74.873 218.331 L 74.873 218.331 Q 75.04 218.634 75.273 218.783 L 75.273 218.783 L 75.273 218.783 Q 75.506 218.933 75.796 218.959 L 75.796 218.959 L 75.796 219.829 L 75.796 219.829 Q 75.26 219.794 74.825 219.57 L 74.825 219.57 L 74.825 219.57 Q 74.39 219.346 74.091 218.928 L 74.091 218.928 L 74.091 218.928 Q 73.792 218.511 73.625 217.904 L 73.625 217.904 L 73.625 217.904 Q 73.458 217.298 73.458 216.516 L 73.458 216.516 L 73.458 213.308 L 74.53 213.308 Z  M 77.431 213.308 L 78.494 213.308 L 78.494 216.516 L 78.494 216.516 Q 78.494 217.298 78.327 217.904 L 78.327 217.904 L 78.327 217.904 Q 78.16 218.511 77.857 218.928 L 77.857 218.928 L 77.857 218.928 Q 77.554 219.346 77.123 219.57 L 77.123 219.57 L 77.123 219.57 Q 76.693 219.794 76.156 219.829 L 76.156 219.829 L 76.156 218.959 L 76.156 218.959 Q 76.446 218.924 76.679 218.779 L 76.679 218.779 L 76.679 218.779 Q 76.912 218.634 77.079 218.335 L 77.079 218.335 L 77.079 218.335 Q 77.246 218.036 77.339 217.566 L 77.339 217.566 L 77.339 217.566 Q 77.431 217.096 77.431 216.41 L 77.431 216.41 L 77.431 213.308 Z  M 79.663 213.308 L 84.594 213.308 L 84.594 214.028 L 82.66 214.028 L 82.66 219.785 L 81.597 219.785 L 81.597 214.028 L 79.663 214.028 L 79.663 213.308 Z  M 49.947 213.308 L 49.947 219.785 L 48.875 219.785 L 48.875 213.308 L 49.947 213.308 Z  M 55.177 217.772 L 55.177 213.308 L 56.249 213.308 L 56.249 219.785 L 55.177 219.785 L 52.997 215.953 L 52.997 213.932 L 55.177 217.772 Z  M 52.637 219.785 L 51.565 219.785 L 51.565 213.308 L 52.637 213.308 L 52.637 219.785 Z  M 59.589 219.82 L 57.576 213.308 L 58.78 213.308 L 60.143 218.388 L 60.143 219.82 L 59.589 219.82 Z  M 60.503 218.106 L 61.874 213.308 L 63.069 213.308 L 60.96 219.82 L 60.503 219.82 L 60.503 218.106 Z " fill-rule="evenodd" fill="rgb(0,0,0)"/><path d=" M 58.195 268.525 L 58.195 268.525 L 58.195 268.525 Q 58.195 267.743 58.384 267.141 L 58.384 267.141 L 58.384 267.141 Q 58.573 266.539 58.911 266.122 L 58.911 266.122 L 58.911 266.122 Q 59.25 265.704 59.711 265.48 L 59.711 265.48 L 59.711 265.48 Q 60.172 265.256 60.717 265.221 L 60.717 265.221 L 60.717 266.1 L 60.717 266.1 Q 60.419 266.135 60.155 266.284 L 60.155 266.284 L 60.155 266.284 Q 59.891 266.434 59.698 266.724 L 59.698 266.724 L 59.698 266.724 Q 59.505 267.014 59.39 267.462 L 59.39 267.462 L 59.39 267.462 Q 59.276 267.91 59.267 268.525 L 59.267 268.525 L 59.267 268.525 Q 59.276 269.149 59.39 269.593 L 59.39 269.593 L 59.39 269.593 Q 59.505 270.037 59.702 270.336 L 59.702 270.336 L 59.702 270.336 Q 59.9 270.635 60.164 270.789 L 60.164 270.789 L 60.164 270.789 Q 60.427 270.942 60.717 270.969 L 60.717 270.969 L 60.717 271.839 L 60.717 271.839 Q 60.181 271.804 59.715 271.58 L 59.715 271.58 L 59.715 271.58 Q 59.25 271.355 58.911 270.938 L 58.911 270.938 L 58.911 270.938 Q 58.573 270.521 58.384 269.914 L 58.384 269.914 L 58.384 269.914 Q 58.195 269.308 58.195 268.525 Z  M 61.069 266.091 L 61.069 265.221 L 61.069 265.221 Q 61.605 265.247 62.067 265.476 L 62.067 265.476 L 62.067 265.476 Q 62.528 265.704 62.866 266.122 L 62.866 266.122 L 62.866 266.122 Q 63.205 266.539 63.398 267.141 L 63.398 267.141 L 63.398 267.141 Q 63.591 267.743 63.591 268.525 L 63.591 268.525 L 63.591 268.525 Q 63.591 269.308 63.398 269.914 L 63.398 269.914 L 63.398 269.914 Q 63.205 270.521 62.866 270.938 L 62.866 270.938 L 62.866 270.938 Q 62.528 271.355 62.071 271.58 L 62.071 271.58 L 62.071 271.58 Q 61.614 271.804 61.069 271.839 L 61.069 271.839 L 61.069 270.969 L 61.069 270.969 Q 61.368 270.934 61.631 270.78 L 61.631 270.78 L 61.631 270.78 Q 61.895 270.626 62.089 270.332 L 62.089 270.332 L 62.089 270.332 Q 62.282 270.037 62.396 269.593 L 62.396 269.593 L 62.396 269.593 Q 62.51 269.149 62.519 268.525 L 62.519 268.525 L 62.519 268.525 Q 62.51 267.901 62.396 267.458 L 62.396 267.458 L 62.396 267.458 Q 62.282 267.014 62.084 266.719 L 62.084 266.719 L 62.084 266.719 Q 61.886 266.425 61.623 266.271 L 61.623 266.271 L 61.623 266.271 Q 61.359 266.117 61.069 266.091 L 61.069 266.091 Z  M 66.061 265.317 L 66.061 268.42 L 66.061 268.42 Q 66.061 269.097 66.149 269.567 L 66.149 269.567 L 66.149 269.567 Q 66.237 270.037 66.404 270.34 L 66.404 270.34 L 66.404 270.34 Q 66.571 270.644 66.804 270.793 L 66.804 270.793 L 66.804 270.793 Q 67.037 270.942 67.327 270.969 L 67.327 270.969 L 67.327 271.839 L 67.327 271.839 Q 66.791 271.804 66.356 271.58 L 66.356 271.58 L 66.356 271.58 Q 65.921 271.355 65.622 270.938 L 65.622 270.938 L 65.622 270.938 Q 65.323 270.521 65.156 269.914 L 65.156 269.914 L 65.156 269.914 Q 64.989 269.308 64.989 268.525 L 64.989 268.525 L 64.989 265.317 L 66.061 265.317 Z  M 68.962 265.317 L 70.025 265.317 L 70.025 268.525 L 70.025 268.525 Q 70.025 269.308 69.858 269.914 L 69.858 269.914 L 69.858 269.914 Q 69.691 270.521 69.388 270.938 L 69.388 270.938 L 69.388 270.938 Q 69.085 271.355 68.654 271.58 L 68.654 271.58 L 68.654 271.58 Q 68.223 271.804 67.687 271.839 L 67.687 271.839 L 67.687 270.969 L 67.687 270.969 Q 67.977 270.934 68.21 270.789 L 68.21 270.789 L 68.21 270.789 Q 68.443 270.644 68.61 270.345 L 68.61 270.345 L 68.61 270.345 Q 68.777 270.046 68.869 269.576 L 68.869 269.576 L 68.869 269.576 Q 68.962 269.105 68.962 268.42 L 68.962 268.42 L 68.962 265.317 Z  M 71.194 265.317 L 76.125 265.317 L 76.125 266.038 L 74.191 266.038 L 74.191 271.795 L 73.128 271.795 L 73.128 266.038 L 71.194 266.038 L 71.194 265.317 Z  M 58.45 258.277 L 58.45 253.813 L 59.522 253.813 L 59.522 260.29 L 58.45 260.29 L 56.27 256.458 L 56.27 254.437 L 58.45 258.277 Z  M 55.91 260.29 L 54.838 260.29 L 54.838 253.813 L 55.91 253.813 L 55.91 260.29 Z  M 60.999 257.021 L 60.999 257.021 L 60.999 257.021 Q 60.999 256.238 61.188 255.636 L 61.188 255.636 L 61.188 255.636 Q 61.377 255.034 61.715 254.617 L 61.715 254.617 L 61.715 254.617 Q 62.053 254.199 62.515 253.975 L 62.515 253.975 L 62.515 253.975 Q 62.976 253.751 63.521 253.716 L 63.521 253.716 L 63.521 254.595 L 63.521 254.595 Q 63.222 254.63 62.959 254.779 L 62.959 254.779 L 62.959 254.779 Q 62.695 254.929 62.502 255.219 L 62.502 255.219 L 62.502 255.219 Q 62.308 255.509 62.194 255.957 L 62.194 255.957 L 62.194 255.957 Q 62.08 256.405 62.071 257.021 L 62.071 257.021 L 62.071 257.021 Q 62.08 257.645 62.194 258.088 L 62.194 258.088 L 62.194 258.088 Q 62.308 258.532 62.506 258.831 L 62.506 258.831 L 62.506 258.831 Q 62.704 259.13 62.967 259.284 L 62.967 259.284 L 62.967 259.284 Q 63.231 259.438 63.521 259.464 L 63.521 259.464 L 63.521 260.334 L 63.521 260.334 Q 62.985 260.299 62.519 260.075 L 62.519 260.075 L 62.519 260.075 Q 62.053 259.851 61.715 259.433 L 61.715 259.433 L 61.715 259.433 Q 61.377 259.016 61.188 258.409 L 61.188 258.409 L 61.188 258.409 Q 60.999 257.803 60.999 257.021 Z  M 63.873 254.586 L 63.873 253.716 L 63.873 253.716 Q 64.409 253.742 64.87 253.971 L 64.87 253.971 L 64.87 253.971 Q 65.332 254.199 65.67 254.617 L 65.67 254.617 L 65.67 254.617 Q 66.008 255.034 66.202 255.636 L 66.202 255.636 L 66.202 255.636 Q 66.395 256.238 66.395 257.021 L 66.395 257.021 L 66.395 257.021 Q 66.395 257.803 66.202 258.409 L 66.202 258.409 L 66.202 258.409 Q 66.008 259.016 65.67 259.433 L 65.67 259.433 L 65.67 259.433 Q 65.332 259.851 64.875 260.075 L 64.875 260.075 L 64.875 260.075 Q 64.418 260.299 63.873 260.334 L 63.873 260.334 L 63.873 259.464 L 63.873 259.464 Q 64.172 259.429 64.435 259.275 L 64.435 259.275 L 64.435 259.275 Q 64.699 259.121 64.892 258.827 L 64.892 258.827 L 64.892 258.827 Q 65.086 258.532 65.2 258.088 L 65.2 258.088 L 65.2 258.088 Q 65.314 257.645 65.323 257.021 L 65.323 257.021 L 65.323 257.021 Q 65.314 256.396 65.2 255.953 L 65.2 255.953 L 65.2 255.953 Q 65.086 255.509 64.888 255.214 L 64.888 255.214 L 64.888 255.214 Q 64.69 254.92 64.426 254.766 L 64.426 254.766 L 64.426 254.766 Q 64.163 254.612 63.873 254.586 L 63.873 254.586 Z  M 68.97 253.813 L 68.97 260.29 L 67.898 260.29 L 67.898 253.813 L 68.97 253.813 Z  M 73.567 254.814 L 73.567 254.814 L 73.567 254.814 Q 73.523 254.797 73.462 254.753 L 73.462 254.753 L 73.462 254.753 Q 73.4 254.709 73.286 254.669 L 73.286 254.669 L 73.286 254.669 Q 73.172 254.63 72.996 254.604 L 72.996 254.604 L 72.996 254.604 Q 72.82 254.577 72.547 254.595 L 72.547 254.595 L 72.547 253.707 L 72.547 253.707 Q 72.934 253.716 73.334 253.791 L 73.334 253.791 L 73.334 253.791 Q 73.734 253.865 73.98 254.023 L 73.98 254.023 L 73.98 254.023 Q 73.927 254.138 73.857 254.274 L 73.857 254.274 L 73.857 254.274 Q 73.787 254.41 73.725 254.529 L 73.725 254.529 L 73.725 254.529 Q 73.664 254.647 73.62 254.727 L 73.62 254.727 L 73.62 254.727 Q 73.576 254.806 73.567 254.814 Z  M 70.535 255.518 L 70.535 255.518 L 70.535 255.518 Q 70.535 255.131 70.667 254.823 L 70.667 254.823 L 70.667 254.823 Q 70.798 254.516 71.023 254.283 L 71.023 254.283 L 71.023 254.283 Q 71.247 254.05 71.55 253.914 L 71.55 253.914 L 71.55 253.914 Q 71.853 253.777 72.187 253.733 L 72.187 253.733 L 72.187 254.656 L 72.187 254.656 Q 71.906 254.753 71.721 254.995 L 71.721 254.995 L 71.721 254.995 Q 71.537 255.236 71.537 255.482 L 71.537 255.482 L 71.537 255.482 Q 71.537 255.825 71.721 256.036 L 71.721 256.036 L 71.721 256.036 Q 71.906 256.247 72.187 256.405 L 72.187 256.405 L 72.187 257.407 L 72.187 257.407 Q 71.897 257.267 71.607 257.104 L 71.607 257.104 L 71.607 257.104 Q 71.317 256.941 71.08 256.722 L 71.08 256.722 L 71.08 256.722 Q 70.842 256.502 70.689 256.212 L 70.689 256.212 L 70.689 256.212 Q 70.535 255.922 70.535 255.518 Z  M 70.491 259.859 L 70.675 259.104 L 70.675 259.104 Q 70.798 259.174 70.987 259.24 L 70.987 259.24 L 70.987 259.24 Q 71.176 259.306 71.379 259.363 L 71.379 259.363 L 71.379 259.363 Q 71.581 259.42 71.783 259.455 L 71.783 259.455 L 71.783 259.455 Q 71.985 259.49 72.161 259.49 L 72.161 259.49 L 72.187 259.49 L 72.187 260.325 L 72.17 260.325 L 72.17 260.325 Q 71.959 260.325 71.734 260.303 L 71.734 260.303 L 71.734 260.303 Q 71.51 260.281 71.282 260.229 L 71.282 260.229 L 71.282 260.229 Q 71.053 260.176 70.847 260.083 L 70.847 260.083 L 70.847 260.083 Q 70.64 259.991 70.491 259.859 L 70.491 259.859 Z  M 72.547 257.609 L 72.547 256.581 L 72.547 256.581 Q 72.838 256.713 73.141 256.862 L 73.141 256.862 L 73.141 256.862 Q 73.444 257.012 73.69 257.227 L 73.69 257.227 L 73.69 257.227 Q 73.936 257.442 74.094 257.75 L 74.094 257.75 L 74.094 257.75 Q 74.253 258.058 74.253 258.515 L 74.253 258.515 L 74.253 258.515 Q 74.253 258.831 74.134 259.13 L 74.134 259.13 L 74.134 259.13 Q 74.015 259.429 73.8 259.67 L 73.8 259.67 L 73.8 259.67 Q 73.585 259.912 73.268 260.079 L 73.268 260.079 L 73.268 260.079 Q 72.952 260.246 72.547 260.299 L 72.547 260.299 L 72.547 259.455 L 72.547 259.455 Q 73.268 259.279 73.268 258.497 L 73.268 258.497 L 73.268 258.497 Q 73.268 258.189 73.066 257.987 L 73.066 257.987 L 73.066 257.987 Q 72.864 257.785 72.547 257.609 L 72.547 257.609 Z  M 75.378 260.29 L 75.378 253.813 L 76.45 253.813 L 76.45 260.29 L 75.378 260.29 Z  M 79.157 256.651 L 79.157 257.372 L 76.81 257.372 L 76.81 256.651 L 79.157 256.651 Z  M 76.81 260.29 L 76.81 259.49 L 79.429 259.49 L 79.429 260.29 L 76.81 260.29 Z  M 76.81 253.813 L 79.429 253.813 L 79.429 254.612 L 76.81 254.612 L 76.81 253.813 Z " fill-rule="evenodd" fill="rgb(0,0,0)"/><path d=" M 8.764 265.905 L 8.034 266.556 L 8.034 266.556 Q 7.832 266.327 7.604 266.213 L 7.604 266.213 L 7.604 266.213 Q 7.375 266.099 7.111 266.081 L 7.111 266.081 L 7.111 265.211 L 7.111 265.211 Q 8.096 265.255 8.764 265.905 L 8.764 265.905 Z  M 7.111 271.829 L 7.111 270.959 L 7.111 270.959 Q 7.375 270.933 7.608 270.818 L 7.608 270.818 L 7.608 270.818 Q 7.841 270.704 8.034 270.484 L 8.034 270.484 L 8.764 271.126 L 8.764 271.126 Q 8.43 271.451 8.017 271.627 L 8.017 271.627 L 8.017 271.627 Q 7.604 271.803 7.111 271.829 L 7.111 271.829 Z  M 4.264 268.516 L 4.264 268.516 L 4.264 268.516 Q 4.264 267.733 4.453 267.136 L 4.453 267.136 L 4.453 267.136 Q 4.642 266.538 4.976 266.125 L 4.976 266.125 L 4.976 266.125 Q 5.31 265.712 5.762 265.483 L 5.762 265.483 L 5.762 265.483 Q 6.215 265.255 6.751 265.211 L 6.751 265.211 L 6.751 266.09 L 6.751 266.09 Q 6.461 266.134 6.206 266.288 L 6.206 266.288 L 6.206 266.288 Q 5.951 266.441 5.758 266.731 L 5.758 266.731 L 5.758 266.731 Q 5.564 267.021 5.455 267.465 L 5.455 267.465 L 5.455 267.465 Q 5.345 267.909 5.336 268.516 L 5.336 268.516 L 5.336 268.516 Q 5.345 269.131 5.455 269.57 L 5.455 269.57 L 5.455 269.57 Q 5.564 270.01 5.758 270.309 L 5.758 270.309 L 5.758 270.309 Q 5.951 270.607 6.21 270.766 L 6.21 270.766 L 6.21 270.766 Q 6.47 270.924 6.751 270.959 L 6.751 270.959 L 6.751 271.82 L 6.751 271.82 Q 6.215 271.785 5.762 271.557 L 5.762 271.557 L 5.762 271.557 Q 5.31 271.328 4.976 270.915 L 4.976 270.915 L 4.976 270.915 Q 4.642 270.502 4.453 269.9 L 4.453 269.9 L 4.453 269.9 Q 4.264 269.298 4.264 268.516 Z  M 14.169 265.308 L 15.224 265.308 L 15.224 271.785 L 14.169 271.785 L 14.169 268.867 L 11.726 268.867 L 11.726 268.146 L 14.169 268.146 L 14.169 265.308 Z  M 10.293 271.785 L 10.293 265.308 L 11.365 265.308 L 11.365 271.785 L 10.293 271.785 Z  M 19.917 265.316 L 22.167 271.785 L 21.077 271.785 L 19.398 266.934 L 17.702 271.785 L 16.604 271.785 L 18.871 265.316 L 19.917 265.316 Z  M 18.801 269.729 L 19.979 269.729 L 20.233 270.44 L 18.555 270.44 L 18.801 269.729 Z  M 27.142 269.772 L 27.142 265.308 L 28.214 265.308 L 28.214 271.785 L 27.142 271.785 L 24.962 267.953 L 24.962 265.932 L 27.142 269.772 Z  M 24.602 271.785 L 23.529 271.785 L 23.529 265.308 L 24.602 265.308 L 24.602 271.785 Z  M 34.208 265.905 L 33.479 266.556 L 33.479 266.556 Q 33.276 266.327 33.048 266.213 L 33.048 266.213 L 33.048 266.213 Q 32.819 266.099 32.556 266.081 L 32.556 266.081 L 32.556 265.211 L 32.556 265.211 Q 33.54 265.255 34.208 265.905 L 34.208 265.905 Z  M 32.556 271.829 L 32.556 270.959 L 32.556 270.959 Q 32.819 270.933 33.052 270.818 L 33.052 270.818 L 33.052 270.818 Q 33.285 270.704 33.479 270.484 L 33.479 270.484 L 34.208 271.126 L 34.208 271.126 Q 33.874 271.451 33.461 271.627 L 33.461 271.627 L 33.461 271.627 Q 33.048 271.803 32.556 271.829 L 32.556 271.829 Z  M 29.708 268.516 L 29.708 268.516 L 29.708 268.516 Q 29.708 267.733 29.897 267.136 L 29.897 267.136 L 29.897 267.136 Q 30.086 266.538 30.42 266.125 L 30.42 266.125 L 30.42 266.125 Q 30.754 265.712 31.207 265.483 L 31.207 265.483 L 31.207 265.483 Q 31.659 265.255 32.195 265.211 L 32.195 265.211 L 32.195 266.09 L 32.195 266.09 Q 31.905 266.134 31.65 266.288 L 31.65 266.288 L 31.65 266.288 Q 31.396 266.441 31.202 266.731 L 31.202 266.731 L 31.202 266.731 Q 31.009 267.021 30.899 267.465 L 30.899 267.465 L 30.899 267.465 Q 30.789 267.909 30.78 268.516 L 30.78 268.516 L 30.78 268.516 Q 30.789 269.131 30.899 269.57 L 30.899 269.57 L 30.899 269.57 Q 31.009 270.01 31.202 270.309 L 31.202 270.309 L 31.202 270.309 Q 31.396 270.607 31.655 270.766 L 31.655 270.766 L 31.655 270.766 Q 31.914 270.924 32.195 270.959 L 32.195 270.959 L 32.195 271.82 L 32.195 271.82 Q 31.659 271.785 31.207 271.557 L 31.207 271.557 L 31.207 271.557 Q 30.754 271.328 30.42 270.915 L 30.42 270.915 L 30.42 270.915 Q 30.086 270.502 29.897 269.9 L 29.897 269.9 L 29.897 269.9 Q 29.708 269.298 29.708 268.516 Z  M 35.746 271.785 L 35.746 265.308 L 36.818 265.308 L 36.818 271.785 L 35.746 271.785 Z  M 39.525 268.146 L 39.525 268.867 L 37.179 268.867 L 37.179 268.146 L 39.525 268.146 Z  M 37.179 271.785 L 37.179 270.985 L 39.798 270.985 L 39.798 271.785 L 37.179 271.785 Z  M 37.179 265.308 L 39.798 265.308 L 39.798 266.107 L 37.179 266.107 L 37.179 265.308 Z  M 14.077 260.28 L 14.077 253.803 L 15.149 253.803 L 15.149 260.28 L 14.077 260.28 Z  M 17.856 256.642 L 17.856 257.362 L 15.509 257.362 L 15.509 256.642 L 17.856 256.642 Z  M 15.509 260.28 L 15.509 259.48 L 18.128 259.48 L 18.128 260.28 L 15.509 260.28 Z  M 15.509 253.803 L 18.128 253.803 L 18.128 254.603 L 15.509 254.603 L 15.509 253.803 Z  M 21.161 257.134 L 19.412 253.803 L 20.616 253.803 L 21.67 256.229 L 21.67 258.241 L 20.739 260.28 L 19.517 260.28 L 21.161 257.134 Z  M 23.085 253.803 L 24.29 253.803 L 22.541 257.134 L 24.184 260.28 L 22.962 260.28 L 22.031 258.057 L 22.031 256.053 L 23.085 253.803 Z  M 25.379 253.803 L 30.31 253.803 L 30.31 254.523 L 28.376 254.523 L 28.376 260.28 L 27.313 260.28 L 27.313 254.523 L 25.379 254.523 L 25.379 253.803 Z " fill-rule="evenodd" fill="rgb(0,0,0)"/><path d=" M 12.42 50.085 L 11.69 50.736 L 11.69 50.736 Q 11.488 50.507 11.26 50.393 L 11.26 50.393 L 11.26 50.393 Q 11.031 50.279 10.768 50.261 L 10.768 50.261 L 10.768 49.391 L 10.768 49.391 Q 11.752 49.435 12.42 50.085 L 12.42 50.085 Z  M 10.768 56.009 L 10.768 55.139 L 10.768 55.139 Q 11.031 55.113 11.264 54.998 L 11.264 54.998 L 11.264 54.998 Q 11.497 54.884 11.69 54.664 L 11.69 54.664 L 12.42 55.306 L 12.42 55.306 Q 12.086 55.631 11.673 55.807 L 11.673 55.807 L 11.673 55.807 Q 11.26 55.983 10.768 56.009 L 10.768 56.009 Z  M 7.92 52.696 L 7.92 52.696 L 7.92 52.696 Q 7.92 51.913 8.109 51.316 L 8.109 51.316 L 8.109 51.316 Q 8.298 50.718 8.632 50.305 L 8.632 50.305 L 8.632 50.305 Q 8.966 49.892 9.418 49.663 L 9.418 49.663 L 9.418 49.663 Q 9.871 49.435 10.407 49.391 L 10.407 49.391 L 10.407 50.27 L 10.407 50.27 Q 10.117 50.314 9.862 50.468 L 9.862 50.468 L 9.862 50.468 Q 9.607 50.622 9.414 50.912 L 9.414 50.912 L 9.414 50.912 Q 9.221 51.202 9.111 51.645 L 9.111 51.645 L 9.111 51.645 Q 9.001 52.089 8.992 52.696 L 8.992 52.696 L 8.992 52.696 Q 9.001 53.311 9.111 53.75 L 9.111 53.75 L 9.111 53.75 Q 9.221 54.19 9.414 54.489 L 9.414 54.489 L 9.414 54.489 Q 9.607 54.788 9.867 54.946 L 9.867 54.946 L 9.867 54.946 Q 10.126 55.104 10.407 55.139 L 10.407 55.139 L 10.407 56 L 10.407 56 Q 9.871 55.965 9.418 55.737 L 9.418 55.737 L 9.418 55.737 Q 8.966 55.508 8.632 55.095 L 8.632 55.095 L 8.632 55.095 Q 8.298 54.682 8.109 54.08 L 8.109 54.08 L 8.109 54.08 Q 7.92 53.478 7.92 52.696 Z  M 13.94 49.488 L 15.013 49.488 L 15.013 55.165 L 17.992 55.165 L 17.992 55.965 L 13.94 55.965 L 13.94 49.488 Z  M 18.933 52.696 L 18.933 52.696 L 18.933 52.696 Q 18.933 51.913 19.122 51.311 L 19.122 51.311 L 19.122 51.311 Q 19.311 50.709 19.649 50.292 L 19.649 50.292 L 19.649 50.292 Q 19.987 49.874 20.449 49.65 L 20.449 49.65 L 20.449 49.65 Q 20.91 49.426 21.455 49.391 L 21.455 49.391 L 21.455 50.27 L 21.455 50.27 Q 21.156 50.305 20.893 50.455 L 20.893 50.455 L 20.893 50.455 Q 20.629 50.604 20.436 50.894 L 20.436 50.894 L 20.436 50.894 Q 20.242 51.184 20.128 51.632 L 20.128 51.632 L 20.128 51.632 Q 20.014 52.08 20.005 52.696 L 20.005 52.696 L 20.005 52.696 Q 20.014 53.32 20.128 53.764 L 20.128 53.764 L 20.128 53.764 Q 20.242 54.207 20.44 54.506 L 20.44 54.506 L 20.44 54.506 Q 20.638 54.805 20.901 54.959 L 20.901 54.959 L 20.901 54.959 Q 21.165 55.113 21.455 55.139 L 21.455 55.139 L 21.455 56.009 L 21.455 56.009 Q 20.919 55.974 20.453 55.75 L 20.453 55.75 L 20.453 55.75 Q 19.987 55.526 19.649 55.108 L 19.649 55.108 L 19.649 55.108 Q 19.311 54.691 19.122 54.084 L 19.122 54.084 L 19.122 54.084 Q 18.933 53.478 18.933 52.696 Z  M 21.807 50.261 L 21.807 49.391 L 21.807 49.391 Q 22.343 49.417 22.804 49.646 L 22.804 49.646 L 22.804 49.646 Q 23.266 49.874 23.604 50.292 L 23.604 50.292 L 23.604 50.292 Q 23.942 50.709 24.136 51.311 L 24.136 51.311 L 24.136 51.311 Q 24.329 51.913 24.329 52.696 L 24.329 52.696 L 24.329 52.696 Q 24.329 53.478 24.136 54.084 L 24.136 54.084 L 24.136 54.084 Q 23.942 54.691 23.604 55.108 L 23.604 55.108 L 23.604 55.108 Q 23.266 55.526 22.809 55.75 L 22.809 55.75 L 22.809 55.75 Q 22.352 55.974 21.807 56.009 L 21.807 56.009 L 21.807 55.139 L 21.807 55.139 Q 22.105 55.104 22.369 54.95 L 22.369 54.95 L 22.369 54.95 Q 22.633 54.796 22.826 54.502 L 22.826 54.502 L 22.826 54.502 Q 23.02 54.207 23.134 53.764 L 23.134 53.764 L 23.134 53.764 Q 23.248 53.32 23.257 52.696 L 23.257 52.696 L 23.257 52.696 Q 23.248 52.072 23.134 51.628 L 23.134 51.628 L 23.134 51.628 Q 23.02 51.184 22.822 50.89 L 22.822 50.89 L 22.822 50.89 Q 22.624 50.595 22.36 50.441 L 22.36 50.441 L 22.36 50.441 Q 22.097 50.288 21.807 50.261 L 21.807 50.261 Z  M 30.2 50.085 L 29.471 50.736 L 29.471 50.736 Q 29.269 50.507 29.04 50.393 L 29.04 50.393 L 29.04 50.393 Q 28.812 50.279 28.548 50.261 L 28.548 50.261 L 28.548 49.391 L 28.548 49.391 Q 29.532 49.435 30.2 50.085 L 30.2 50.085 Z  M 28.548 56.009 L 28.548 55.139 L 28.548 55.139 Q 28.812 55.113 29.044 54.998 L 29.044 54.998 L 29.044 54.998 Q 29.277 54.884 29.471 54.664 L 29.471 54.664 L 30.2 55.306 L 30.2 55.306 Q 29.866 55.631 29.453 55.807 L 29.453 55.807 L 29.453 55.807 Q 29.04 55.983 28.548 56.009 L 28.548 56.009 Z  M 25.7 52.696 L 25.7 52.696 L 25.7 52.696 Q 25.7 51.913 25.889 51.316 L 25.889 51.316 L 25.889 51.316 Q 26.078 50.718 26.412 50.305 L 26.412 50.305 L 26.412 50.305 Q 26.746 49.892 27.199 49.663 L 27.199 49.663 L 27.199 49.663 Q 27.651 49.435 28.188 49.391 L 28.188 49.391 L 28.188 50.27 L 28.188 50.27 Q 27.897 50.314 27.643 50.468 L 27.643 50.468 L 27.643 50.468 Q 27.388 50.622 27.194 50.912 L 27.194 50.912 L 27.194 50.912 Q 27.001 51.202 26.891 51.645 L 26.891 51.645 L 26.891 51.645 Q 26.781 52.089 26.772 52.696 L 26.772 52.696 L 26.772 52.696 Q 26.781 53.311 26.891 53.75 L 26.891 53.75 L 26.891 53.75 Q 27.001 54.19 27.194 54.489 L 27.194 54.489 L 27.194 54.489 Q 27.388 54.788 27.647 54.946 L 27.647 54.946 L 27.647 54.946 Q 27.906 55.104 28.188 55.139 L 28.188 55.139 L 28.188 56 L 28.188 56 Q 27.651 55.965 27.199 55.737 L 27.199 55.737 L 27.199 55.737 Q 26.746 55.508 26.412 55.095 L 26.412 55.095 L 26.412 55.095 Q 26.078 54.682 25.889 54.08 L 25.889 54.08 L 25.889 54.08 Q 25.7 53.478 25.7 52.696 Z  M 32.793 55.965 L 31.721 55.965 L 31.721 49.488 L 32.793 49.488 L 32.793 55.965 Z  M 35.931 49.488 L 33.856 52.819 L 36.106 55.965 L 34.885 55.965 L 33.153 53.416 L 33.153 52.133 L 34.727 49.488 L 35.931 49.488 Z  M 14.077 44.46 L 14.077 37.983 L 15.149 37.983 L 15.149 44.46 L 14.077 44.46 Z  M 17.856 40.822 L 17.856 41.542 L 15.509 41.542 L 15.509 40.822 L 17.856 40.822 Z  M 15.509 44.46 L 15.509 43.661 L 18.128 43.661 L 18.128 44.46 L 15.509 44.46 Z  M 15.509 37.983 L 18.128 37.983 L 18.128 38.783 L 15.509 38.783 L 15.509 37.983 Z  M 21.161 41.314 L 19.412 37.983 L 20.616 37.983 L 21.67 40.409 L 21.67 42.421 L 20.739 44.46 L 19.517 44.46 L 21.161 41.314 Z  M 23.085 37.983 L 24.29 37.983 L 22.541 41.314 L 24.184 44.46 L 22.962 44.46 L 22.031 42.237 L 22.031 40.233 L 23.085 37.983 Z  M 25.379 37.983 L 30.31 37.983 L 30.31 38.704 L 28.376 38.704 L 28.376 44.46 L 27.313 44.46 L 27.313 38.704 L 25.379 38.704 L 25.379 37.983 Z " fill-rule="evenodd" fill="rgb(0,0,0)"/><path d=" M 15.256 308.828 L 16.205 308.828 L 16.319 309.329 L 16.319 313.785 L 15.256 313.785 L 15.256 308.828 Z  M 18.947 309.373 L 18.947 309.373 L 18.947 309.373 Q 19.097 309.522 19.18 309.72 L 19.18 309.72 L 19.18 309.72 Q 19.264 309.918 19.303 310.133 L 19.303 310.133 L 19.303 310.133 Q 19.343 310.349 19.352 310.568 L 19.352 310.568 L 19.352 310.568 Q 19.36 310.788 19.36 310.999 L 19.36 310.999 L 19.36 313.609 L 19.36 313.785 L 18.288 313.785 L 18.288 311.087 L 18.288 311.087 Q 18.288 310.788 18.262 310.516 L 18.262 310.516 L 18.262 310.516 Q 18.235 310.243 18.139 310.032 L 18.139 310.032 L 18.139 310.032 Q 18.042 309.821 17.875 309.703 L 17.875 309.703 L 17.875 309.703 Q 17.708 309.584 17.409 309.584 L 17.409 309.584 L 17.409 309.584 Q 17.286 309.584 17.08 309.624 L 17.08 309.624 L 17.08 309.624 Q 16.873 309.663 16.68 309.751 L 16.68 309.751 L 16.68 309.074 L 16.68 309.074 Q 16.917 308.951 17.194 308.863 L 17.194 308.863 L 17.194 308.863 Q 17.471 308.775 17.734 308.775 L 17.734 308.775 L 17.734 308.775 Q 18.13 308.775 18.402 308.938 L 18.402 308.938 L 18.402 308.938 Q 18.675 309.101 18.947 309.373 Z  M 25.398 310.858 L 25.398 311.755 L 23.368 311.755 L 23.368 313.785 L 22.472 313.785 L 22.472 311.755 L 20.441 311.755 L 20.441 310.858 L 22.472 310.858 L 22.472 308.828 L 23.368 308.828 L 23.368 310.858 L 25.398 310.858 Z  M 28.738 307.308 L 28.738 313.785 L 27.666 313.785 L 27.666 308.819 L 26.778 309.707 L 26.022 308.951 L 27.666 307.308 L 28.738 307.308 Z " fill-rule="evenodd" fill="rgb(0,0,0)"/><path d=" M 66.832 309.232 L 66.832 309.232 L 66.832 309.232 Q 66.832 309.575 66.682 309.94 L 66.682 309.94 L 66.682 309.94 Q 66.533 310.305 66.287 310.661 L 66.287 310.661 L 66.287 310.661 Q 66.041 311.017 65.746 311.351 L 65.746 311.351 L 65.746 311.351 Q 65.452 311.685 65.157 311.983 L 65.157 311.983 L 65.157 311.983 Q 64.863 312.282 64.604 312.524 L 64.604 312.524 L 64.604 312.524 Q 64.344 312.766 64.177 312.933 L 64.177 312.933 L 66.928 312.933 L 66.928 313.785 L 62.903 313.785 L 62.903 312.801 L 62.903 312.801 Q 63.061 312.66 63.342 312.418 L 63.342 312.418 L 63.342 312.418 Q 63.624 312.177 63.949 311.878 L 63.949 311.878 L 63.949 311.878 Q 64.274 311.579 64.599 311.241 L 64.599 311.241 L 64.599 311.241 Q 64.925 310.902 65.193 310.555 L 65.193 310.555 L 65.193 310.555 Q 65.461 310.208 65.632 309.874 L 65.632 309.874 L 65.632 309.874 Q 65.803 309.54 65.803 309.241 L 65.803 309.241 L 65.803 309.241 Q 65.803 308.934 65.694 308.727 L 65.694 308.727 L 65.694 308.727 Q 65.584 308.521 65.417 308.389 L 65.417 308.389 L 65.417 308.389 Q 65.25 308.257 65.052 308.204 L 65.052 308.204 L 65.052 308.204 Q 64.854 308.151 64.678 308.151 L 64.678 308.151 L 64.678 308.151 Q 64.336 308.151 64.112 308.173 L 64.112 308.173 L 64.112 308.173 Q 63.887 308.195 63.72 308.235 L 63.72 308.235 L 63.72 308.235 Q 63.553 308.274 63.422 308.345 L 63.422 308.345 L 63.422 308.345 Q 63.29 308.415 63.14 308.503 L 63.14 308.503 L 62.833 307.853 L 62.833 307.853 Q 62.991 307.712 63.224 307.598 L 63.224 307.598 L 63.224 307.598 Q 63.457 307.483 63.707 307.413 L 63.707 307.413 L 63.707 307.413 Q 63.958 307.343 64.204 307.303 L 64.204 307.303 L 64.204 307.303 Q 64.45 307.264 64.661 307.264 L 64.661 307.264 L 64.661 307.264 Q 65.232 307.264 65.641 307.448 L 65.641 307.448 L 65.641 307.448 Q 66.05 307.633 66.313 307.918 L 66.313 307.918 L 66.313 307.918 Q 66.577 308.204 66.704 308.556 L 66.704 308.556 L 66.704 308.556 Q 66.832 308.907 66.832 309.232 Z " fill="rgb(0,0,0)"/><path d=" M 68.633 304.37 L 69.372 304.37 L 69.461 304.76 L 69.461 308.226 L 68.633 308.226 L 68.633 304.37 Z  M 71.505 304.794 L 71.505 304.794 L 71.505 304.794 Q 71.621 304.91 71.686 305.064 L 71.686 305.064 L 71.686 305.064 Q 71.751 305.218 71.781 305.385 L 71.781 305.385 L 71.781 305.385 Q 71.812 305.553 71.819 305.724 L 71.819 305.724 L 71.819 305.724 Q 71.826 305.895 71.826 306.059 L 71.826 306.059 L 71.826 308.089 L 71.826 308.226 L 70.992 308.226 L 70.992 306.127 L 70.992 306.127 Q 70.992 305.895 70.971 305.683 L 70.971 305.683 L 70.971 305.683 Q 70.951 305.471 70.876 305.307 L 70.876 305.307 L 70.876 305.307 Q 70.8 305.143 70.671 305.05 L 70.671 305.05 L 70.671 305.05 Q 70.541 304.958 70.308 304.958 L 70.308 304.958 L 70.308 304.958 Q 70.213 304.958 70.052 304.989 L 70.052 304.989 L 70.052 304.989 Q 69.891 305.02 69.741 305.088 L 69.741 305.088 L 69.741 304.562 L 69.741 304.562 Q 69.925 304.466 70.141 304.397 L 70.141 304.397 L 70.141 304.397 Q 70.356 304.329 70.561 304.329 L 70.561 304.329 L 70.561 304.329 Q 70.869 304.329 71.081 304.456 L 71.081 304.456 L 71.081 304.456 Q 71.293 304.582 71.505 304.794 Z " fill-rule="evenodd" fill="rgb(0,0,0)"/></g></svg>