<svg id="Layer_1" data-name="Layer 1" xmlns="http://www.w3.org/2000/svg" width="23" height="23" viewBox="0 0 23 23">
  <title>jack</title>
  <path d="M11.5.57A10.93,10.93,0,1,0,22.43,11.5,10.94,10.94,0,0,0,11.5.57Z" style="fill: #e5e5e5"/>
  <path d="M11.5,2.27a9.23,9.23,0,1,0,9.23,9.23v0A9.24,9.24,0,0,0,11.5,2.27Zm0,16.8a7.57,7.57,0,1,1,7.57-7.57,7.57,7.57,0,0,1-7.57,7.57Z" style="fill: #969696"/>
  <path d="M11.5,6.31a5.19,5.19,0,1,0,5.19,5.19A5.19,5.19,0,0,0,11.5,6.31Z" style="fill: #0e0e0e"/>
  <path d="M11.5,17.26a5.76,5.76,0,1,1,5.76-5.76h0A5.76,5.76,0,0,1,11.5,17.26Zm0-10.78082A5.02083,5.02083,0,1,0,16.52083,11.5,5.02083,5.02083,0,0,0,11.5,6.47917Z" style="fill: #2b2b2b"/>
  <path d="M11.5.57A10.93,10.93,0,1,1,.57,11.5h0A10.94,10.94,0,0,1,11.5.57m0-.57A11.5,11.5,0,1,0,23,11.5,11.5,11.5,0,0,0,11.5,0Z" style="fill: #878787"/>
</svg>
