<?xml version="1.0" encoding="UTF-8" standalone="no"?>
<svg
   xmlns:dc="http://purl.org/dc/elements/1.1/"
   xmlns:cc="http://creativecommons.org/ns#"
   xmlns:rdf="http://www.w3.org/1999/02/22-rdf-syntax-ns#"
   xmlns:svg="http://www.w3.org/2000/svg"
   xmlns="http://www.w3.org/2000/svg"
   id="svg4541"
   version="1.1"
   viewBox="0 0 23.812502 100.39611"
   height="379.44983"
   width="90.000008">
  <defs
     id="defs4535" />
  <metadata
     id="metadata4538">
    <rdf:RDF>
      <cc:Work
         rdf:about="">
        <dc:format>image/svg+xml</dc:format>
        <dc:type
           rdf:resource="http://purl.org/dc/dcmitype/StillImage" />
        <dc:title></dc:title>
      </cc:Work>
    </rdf:RDF>
  </metadata>
  <path
     style="fill:#2e2f31;fill-opacity:1;fill-rule:nonzero;stroke:none;stroke-width:0.21998174"
     d="M -1.0418518e-6,-2.9078125e-7 H 23.812502 V 100.39611 H -1.0418518e-6 Z m 0,0"
     id="path25057" />
  <g
     transform="matrix(0.27602379,0,0,0.27602379,258.28496,-0.07331911)"
     aria-label="MADE IN ITALY"
     style="font-style:normal;font-variant:normal;font-weight:500;font-stretch:normal;font-size:7.66842127px;line-height:125%;font-family:'Futura PT';-inkscape-font-specification:'Futura PT Medium';letter-spacing:0px;word-spacing:0px;opacity:0.7;fill:#ffffff;fill-opacity:1;stroke:none;stroke-width:0.95855266px;stroke-linecap:butt;stroke-linejoin:miter;stroke-opacity:1"
     id="text864">
    <path
       d="m -913.35319,359.03888 h 0.84353 l 0.43454,-2.62643 1.09275,2.62643 h 0.28118 l 1.14387,-2.62643 0.38342,2.62643 h 0.84353 l -0.71572,-4.26236 h -0.60069 l -1.18222,2.7095 -1.13109,-2.7095 h -0.60069 z"
       style="font-style:normal;font-variant:normal;font-weight:500;font-stretch:normal;font-size:6.3903513px;font-family:'Futura PT';-inkscape-font-specification:'Futura PT Medium';fill:#ffffff;stroke-width:0.95855266px"
       id="path5435" />
    <path
       d="m -904.68058,359.03888 h 0.89465 l -1.78291,-4.26236 h -0.65182 l -1.83403,4.26236 h 0.90104 l 0.37703,-0.89465 h 1.71901 z m -1.83403,-1.57203 0.60708,-1.53368 0.60708,1.53368 z"
       style="font-style:normal;font-variant:normal;font-weight:500;font-stretch:normal;font-size:6.3903513px;font-family:'Futura PT';-inkscape-font-specification:'Futura PT Medium';fill:#ffffff;stroke-width:0.95855266px"
       id="path5437" />
    <path
       d="m -903.28828,354.77652 v 4.26236 h 1.09914 c 0.5943,0 1.06079,-0.0575 1.55924,-0.40898 0.56235,-0.3962 0.85631,-1.00968 0.85631,-1.71901 0,-0.70933 -0.30035,-1.32919 -0.81797,-1.719 -0.47288,-0.35147 -0.9905,-0.41537 -1.5848,-0.41537 z m 0.83074,0.71571 h 0.25562 c 0.28117,0 0.70293,0.0256 1.04801,0.28118 0.33869,0.25561 0.52401,0.69016 0.52401,1.13748 0,0.45372 -0.19171,0.88826 -0.5304,1.13109 -0.37064,0.2684 -0.83074,0.28118 -1.04162,0.28118 h -0.25562 z"
       style="font-style:normal;font-variant:normal;font-weight:500;font-stretch:normal;font-size:6.3903513px;font-family:'Futura PT';-inkscape-font-specification:'Futura PT Medium';fill:#ffffff;stroke-width:0.95855266px"
       id="path5439" />
    <path
       d="m -896.64282,354.77652 h -2.36443 v 4.26236 h 2.36443 v -0.71572 h -1.53368 v -1.16304 h 1.46978 v -0.71572 h -1.46978 v -0.95217 h 1.53368 z"
       style="font-style:normal;font-variant:normal;font-weight:500;font-stretch:normal;font-size:6.3903513px;font-family:'Futura PT';-inkscape-font-specification:'Futura PT Medium';fill:#ffffff;stroke-width:0.95855266px"
       id="path5441" />
    <path
       d="m -894.35178,354.77652 v 4.26236 h 0.83075 v -4.26236 z"
       style="font-style:normal;font-variant:normal;font-weight:500;font-stretch:normal;font-size:6.3903513px;font-family:'Futura PT';-inkscape-font-specification:'Futura PT Medium';fill:#ffffff;stroke-width:0.95855266px"
       id="path5443" />
    <path
       d="m -891.72374,359.03888 v -2.8501 l 2.59448,2.8501 h 0.57513 v -4.26236 h -0.83075 v 2.8437 l -2.59448,-2.8437 h -0.57513 v 4.26236 z"
       style="font-style:normal;font-variant:normal;font-weight:500;font-stretch:normal;font-size:6.3903513px;font-family:'Futura PT';-inkscape-font-specification:'Futura PT Medium';fill:#ffffff;stroke-width:0.95855266px"
       id="path5445" />
    <path
       d="m -886.10173,354.77652 v 4.26236 h 0.83074 v -4.26236 z"
       style="font-style:normal;font-variant:normal;font-weight:500;font-stretch:normal;font-size:6.3903513px;font-family:'Futura PT';-inkscape-font-specification:'Futura PT Medium';fill:#ffffff;stroke-width:0.95855266px"
       id="path5447" />
    <path
       d="m -882.00392,355.49223 v -0.71571 h -2.74785 v 0.71571 h 0.95855 v 3.54665 h 0.83075 v -3.54665 z"
       style="font-style:normal;font-variant:normal;font-weight:500;font-stretch:normal;font-size:6.3903513px;font-family:'Futura PT';-inkscape-font-specification:'Futura PT Medium';fill:#ffffff;stroke-width:0.95855266px"
       id="path5449" />
    <path
       d="m -878.83211,359.03888 h 0.89465 l -1.78291,-4.26236 h -0.65182 l -1.83403,4.26236 h 0.90104 l 0.37703,-0.89465 h 1.71901 z m -1.83403,-1.57203 0.60708,-1.53368 0.60708,1.53368 z"
       style="font-style:normal;font-variant:normal;font-weight:500;font-stretch:normal;font-size:6.3903513px;font-family:'Futura PT';-inkscape-font-specification:'Futura PT Medium';fill:#ffffff;stroke-width:0.95855266px"
       id="path5451" />
    <path
       d="m -877.43981,354.77652 v 4.26236 h 2.14715 v -0.71572 h -1.31641 v -3.54664 z"
       style="font-style:normal;font-variant:normal;font-weight:500;font-stretch:normal;font-size:6.3903513px;font-family:'Futura PT';-inkscape-font-specification:'Futura PT Medium';fill:#ffffff;stroke-width:0.95855266px"
       id="path5453" />
    <path
       d="m -874.17834,359.03888 h 0.83075 v -1.94906 l 1.50173,-2.3133 h -0.98411 l -0.91382,1.48256 -0.91382,-1.48256 h -0.98412 l 1.46339,2.3133 z"
       style="font-style:normal;font-variant:normal;font-weight:500;font-stretch:normal;font-size:6.3903513px;font-family:'Futura PT';-inkscape-font-specification:'Futura PT Medium';fill:#ffffff;stroke-width:0.95855266px"
       id="path5455" />
  </g>
  <g
     style="opacity:0.7;fill:#ffffff;stroke-width:0.91882312"
     transform="matrix(0.27602379,0,0,0.27602379,257.54108,2.5725145)"
     id="g1736">
    <g
       aria-label="sonus dept."
       style="font-style:normal;font-variant:normal;font-weight:normal;font-stretch:normal;font-size:12.78070068px;line-height:125%;font-family:'Squared Display';-inkscape-font-specification:'Squared Display';letter-spacing:0px;word-spacing:0px;fill:#ffffff;fill-opacity:1;stroke:none;stroke-width:0.9585526px;stroke-linecap:butt;stroke-linejoin:miter;stroke-opacity:1"
       id="text4639-3">
      <path
         d="m -916.33104,336.95691 c -0.70294,-0.53679 -1.35475,-0.58791 -1.76374,-0.58791 -0.44732,0 -1.00967,0.0511 -1.44422,0.3962 -0.31951,0.26839 -0.57513,0.71572 -0.57513,1.25251 0,0.44732 0.16615,0.7924 0.42177,1.0608 0.33229,0.34507 0.7924,0.524 1.1886,0.66459 l 0.35786,0.12781 c 0.20449,0.0767 0.48567,0.21727 0.48567,0.56235 0,0.38342 -0.3323,0.60069 -0.76684,0.60069 -0.46011,0 -0.92022,-0.28117 -1.22695,-0.63903 l -0.81797,0.94577 c 0.34508,0.37064 0.9969,0.92021 2.14716,0.92021 0.67738,0 1.21417,-0.17893 1.66149,-0.58791 0.44733,-0.40898 0.61348,-0.90743 0.61348,-1.40588 0,-0.35786 -0.11503,-0.69016 -0.28118,-0.92021 -0.31952,-0.43454 -0.97133,-0.65182 -1.40588,-0.7924 l -0.37064,-0.11503 c -0.43454,-0.14059 -0.49844,-0.35786 -0.49844,-0.49845 0,-0.26839 0.23005,-0.44732 0.60069,-0.44732 0.16615,0 0.53679,0.0256 0.90743,0.37064 z"
         style="font-style:normal;font-variant:normal;font-weight:500;font-stretch:normal;font-size:12.78070068px;font-family:'Futura PT';-inkscape-font-specification:'Futura PT Medium';fill:#ffffff;stroke-width:0.9585526px"
         id="path5414" />
      <path
         d="m -912.05849,336.369 c -1.04802,0 -1.76374,0.34508 -2.23662,0.77962 -0.54957,0.49845 -0.933,1.26529 -0.933,2.17272 0,0.89465 0.38343,1.66149 0.933,2.15994 0.47288,0.43454 1.1886,0.77962 2.23662,0.77962 1.04802,0 1.76374,-0.34508 2.23662,-0.77962 0.54957,-0.49845 0.93299,-1.26529 0.93299,-2.15994 0,-0.90743 -0.38342,-1.67427 -0.93299,-2.17272 -0.47288,-0.43454 -1.1886,-0.77962 -2.23662,-0.77962 z m 0,4.51158 c -0.90743,0 -1.55925,-0.71571 -1.55925,-1.55924 0,-0.86909 0.6646,-1.57203 1.55925,-1.57203 0.89465,0 1.55924,0.70294 1.55924,1.57203 0,0.84353 -0.65181,1.55924 -1.55924,1.55924 z"
         style="font-style:normal;font-variant:normal;font-weight:500;font-stretch:normal;font-size:12.78070068px;font-family:'Futura PT';-inkscape-font-specification:'Futura PT Medium';fill:#ffffff;stroke-width:0.9585526px"
         id="path5416" />
      <path
         d="m -907.6829,342.08197 h 1.55925 v -2.82453 c 0,-0.31952 0.0128,-0.71572 0.24283,-1.07358 0.23005,-0.34508 0.54957,-0.48567 0.95855,-0.48567 0.15337,0 0.48567,0.0256 0.7285,0.28118 0.28118,0.29395 0.29396,0.77962 0.29396,1.08635 v 3.01625 h 1.55924 v -3.47635 c 0,-0.53679 -0.0511,-1.08636 -0.43454,-1.55925 -0.43454,-0.53679 -1.15026,-0.67737 -1.63593,-0.67737 -0.89465,0 -1.41866,0.48566 -1.71261,0.89465 v -0.71572 h -1.55925 z"
         style="font-style:normal;font-variant:normal;font-weight:500;font-stretch:normal;font-size:12.78070068px;font-family:'Futura PT';-inkscape-font-specification:'Futura PT Medium';fill:#ffffff;stroke-width:0.9585526px"
         id="path5418" />
      <path
         d="m -900.86819,336.54793 v 3.38688 c 0,0.49845 0.0639,1.16305 0.67738,1.69984 0.51123,0.44732 1.32919,0.62625 2.00657,0.62625 0.67737,0 1.49534,-0.17893 2.00657,-0.62625 0.61347,-0.53679 0.67737,-1.20139 0.67737,-1.69984 v -3.38688 h -1.55924 v 3.13127 c 0,0.29395 -0.0256,0.69016 -0.3323,0.97133 -0.19171,0.16615 -0.49845,0.28118 -0.7924,0.28118 -0.29396,0 -0.6007,-0.11503 -0.79241,-0.28118 -0.30673,-0.28117 -0.33229,-0.67738 -0.33229,-0.97133 v -3.13127 z"
         style="font-style:normal;font-variant:normal;font-weight:500;font-stretch:normal;font-size:12.78070068px;font-family:'Futura PT';-inkscape-font-specification:'Futura PT Medium';fill:#ffffff;stroke-width:0.9585526px"
         id="path5420" />
      <path
         d="m -890.24543,336.95691 c -0.70294,-0.53679 -1.35475,-0.58791 -1.76374,-0.58791 -0.44732,0 -1.00967,0.0511 -1.44422,0.3962 -0.31951,0.26839 -0.57513,0.71572 -0.57513,1.25251 0,0.44732 0.16615,0.7924 0.42177,1.0608 0.33229,0.34507 0.7924,0.524 1.1886,0.66459 l 0.35786,0.12781 c 0.20449,0.0767 0.48567,0.21727 0.48567,0.56235 0,0.38342 -0.3323,0.60069 -0.76685,0.60069 -0.4601,0 -0.92021,-0.28117 -1.22694,-0.63903 l -0.81797,0.94577 c 0.34508,0.37064 0.9969,0.92021 2.14716,0.92021 0.67738,0 1.21417,-0.17893 1.66149,-0.58791 0.44733,-0.40898 0.61348,-0.90743 0.61348,-1.40588 0,-0.35786 -0.11503,-0.69016 -0.28118,-0.92021 -0.31952,-0.43454 -0.97133,-0.65182 -1.40588,-0.7924 l -0.37064,-0.11503 c -0.43454,-0.14059 -0.49844,-0.35786 -0.49844,-0.49845 0,-0.26839 0.23005,-0.44732 0.60069,-0.44732 0.16615,0 0.53679,0.0256 0.90743,0.37064 z"
         style="font-style:normal;font-variant:normal;font-weight:500;font-stretch:normal;font-size:12.78070068px;font-family:'Futura PT';-inkscape-font-specification:'Futura PT Medium';fill:#ffffff;stroke-width:0.9585526px"
         id="path5422" />
      <path
         d="m -881.64761,337.26365 c -0.52401,-0.81797 -1.35476,-0.89465 -1.77652,-0.89465 -1.63593,0 -2.74785,1.30363 -2.74785,2.93956 0,1.62315 1.1247,2.95234 2.82453,2.95234 0.3962,0 1.13748,-0.0895 1.69984,-0.89465 v 0.71572 h 1.55924 v -9.31713 h -1.55924 z m -1.38032,0.48566 c 0.89465,0 1.53368,0.67738 1.53368,1.55925 0,0.88187 -0.63903,1.57202 -1.53368,1.57202 -0.89465,0 -1.53368,-0.69015 -1.53368,-1.57202 0,-0.88187 0.63903,-1.55925 1.53368,-1.55925 z"
         style="font-style:normal;font-variant:normal;font-weight:500;font-stretch:normal;font-size:12.78070068px;font-family:'Futura PT';-inkscape-font-specification:'Futura PT Medium';fill:#ffffff;stroke-width:0.9585526px"
         id="path5424" />
      <path
         d="m -874.60145,340.30545 c -0.25562,0.44733 -0.70294,0.7285 -1.29085,0.7285 -0.6007,0 -0.94578,-0.29395 -1.11193,-0.52401 -0.17893,-0.24283 -0.26839,-0.60069 -0.26839,-0.93299 h 4.14095 v -0.1278 c 0,-0.6007 -0.0767,-1.46978 -0.6646,-2.17272 -0.38342,-0.46011 -1.03524,-0.90743 -2.15994,-0.90743 -0.66459,0 -1.43144,0.14058 -2.08325,0.77962 -0.3962,0.3962 -0.84353,1.07358 -0.84353,2.17272 0,0.86909 0.25562,1.58481 0.86909,2.15994 0.54957,0.52401 1.22695,0.77962 2.1216,0.77962 1.92988,0 2.55614,-1.31641 2.72228,-1.72539 z m -2.62005,-1.72539 c 0.12781,-0.74128 0.7285,-1.11192 1.30363,-1.11192 0.57514,0 1.18861,0.35786 1.31642,1.11192 z"
         style="font-style:normal;font-variant:normal;font-weight:500;font-stretch:normal;font-size:12.78070068px;font-family:'Futura PT';-inkscape-font-specification:'Futura PT Medium';fill:#ffffff;stroke-width:0.9585526px"
         id="path5426" />
      <path
         d="m -870.37763,341.36625 c 0.61347,0.83075 1.39309,0.89465 1.77652,0.89465 0.81796,0 1.457,-0.31952 1.87876,-0.71572 0.31952,-0.30674 0.86909,-0.98411 0.86909,-2.23662 0,-1.09914 -0.42177,-1.7893 -0.83075,-2.19828 -0.62625,-0.62626 -1.40588,-0.74128 -1.89154,-0.74128 -1.02246,0 -1.55925,0.54957 -1.80208,0.89465 v -0.71572 h -1.55925 v 8.46082 h 1.55925 z m 1.38031,-3.61694 c 0.37064,0 0.77963,0.14059 1.0608,0.3962 0.30674,0.29396 0.47289,0.75407 0.47289,1.16305 0,0.40898 -0.15337,0.86909 -0.48567,1.17582 -0.20449,0.19171 -0.53679,0.3962 -1.04802,0.3962 -0.48566,0 -0.81796,-0.19171 -1.02245,-0.37064 -0.30674,-0.26839 -0.51123,-0.69015 -0.51123,-1.20138 0,-0.51123 0.17893,-0.89465 0.52401,-1.18861 0.28117,-0.25561 0.60069,-0.37064 1.00967,-0.37064 z"
         style="font-style:normal;font-variant:normal;font-weight:500;font-stretch:normal;font-size:12.78070068px;font-family:'Futura PT';-inkscape-font-specification:'Futura PT Medium';fill:#ffffff;stroke-width:0.9585526px"
         id="path5428" />
      <path
         d="m -862.01506,337.87712 v -1.32919 h -1.07358 v -1.89155 h -1.55924 v 1.89155 h -0.61348 v 1.32919 h 0.61348 v 4.20485 h 1.55924 v -4.20485 z"
         style="font-style:normal;font-variant:normal;font-weight:500;font-stretch:normal;font-size:12.78070068px;font-family:'Futura PT';-inkscape-font-specification:'Futura PT Medium';fill:#ffffff;stroke-width:0.9585526px"
         id="path5430" />
      <path
         d="m -861.33089,341.25122 c 0,0.56236 0.43454,0.9969 0.99689,0.9969 0.56235,0 0.9969,-0.43454 0.9969,-0.9969 0,-0.56235 -0.43455,-0.99689 -0.9969,-0.99689 -0.56235,0 -0.99689,0.43454 -0.99689,0.99689 z"
         style="font-style:normal;font-variant:normal;font-weight:500;font-stretch:normal;font-size:12.78070068px;font-family:'Futura PT';-inkscape-font-specification:'Futura PT Medium';fill:#ffffff;stroke-width:0.9585526px"
         id="path5432" />
    </g>
  </g>
  <path
     style="opacity:0.9;fill:#ff2a2a;fill-opacity:1;fill-rule:nonzero;stroke:none;stroke-width:0.27081186"
     d="m 21.298961,16.502764 c 0,-0.425592 -0.406368,-0.773324 -0.902206,-0.773324 H 13.46991 c -0.495838,0 -0.9022,0.347732 -0.9022,0.773324 v 9.035617 c 0,0.425596 0.406362,0.77439 0.9022,0.77439 h 6.926845 c 0.495838,0 0.902206,-0.348794 0.902206,-0.77439 z m 0,0"
     id="path25247" />
  <path
     style="opacity:0.9;fill:#212121;fill-opacity:1;fill-rule:nonzero;stroke:none;stroke-width:0.27081186"
     d="m 11.244794,16.502762 c 0,-0.425594 -0.406365,-0.773323 -0.902203,-0.773323 H 3.4145043 c -0.4958381,0 -0.9009609,0.347729 -0.9009609,0.773323 v 9.035619 c 0,0.425596 0.4051228,0.774391 0.9009609,0.774391 h 6.9280867 c 0.495838,0 0.902203,-0.348795 0.902203,-0.774391 z m 0,0"
     id="path25259" />
  <path
     style="opacity:0.9;fill:#decd87;fill-opacity:1;fill-rule:nonzero;stroke:none;stroke-width:0.27081186"
     d="m 11.244794,33.70067 c 0,-0.425595 -0.406368,-0.773325 -0.902206,-0.773325 H 3.4157437 c -0.4958381,0 -0.9022003,0.34773 -0.9022003,0.773325 v 9.035617 c 0,0.425598 0.4063622,0.774393 0.9022003,0.774393 h 6.9268443 c 0.495838,0 0.902206,-0.348795 0.902206,-0.774393 z m 0,0"
     id="path25247-6" />
  <path
     style="opacity:0.9;fill:#afafe9;fill-opacity:1;fill-rule:nonzero;stroke:none;stroke-width:0.27081186"
     d="m 21.298961,33.70067 c 0,-0.425595 -0.406365,-0.773325 -0.902203,-0.773325 h -6.928087 c -0.495838,0 -0.900961,0.34773 -0.900961,0.773325 v 9.035617 c 0,0.425598 0.405123,0.774393 0.900961,0.774393 h 6.928087 c 0.495838,0 0.902203,-0.348795 0.902203,-0.774393 z m 0,0"
     id="path25259-7" />
  <g
     id="text1669"
     style="font-style:normal;font-variant:normal;font-weight:normal;font-stretch:normal;font-size:3.52777791px;line-height:125%;font-family:Akashi;-inkscape-font-specification:Akashi;letter-spacing:0px;word-spacing:0px;fill:#ffffff;fill-opacity:1;stroke:none;stroke-width:0.26458335px;stroke-linecap:butt;stroke-linejoin:miter;stroke-opacity:1"
     aria-label="BYMIDSIDE">
    <path
       id="path1714"
       style="fill:#ffffff;stroke-width:0.26458335px"
       d="m 3.8998497,4.137377 h -0.864719 v 0.5150418 h 0.864719 z M 4.0686594,5.1726283 H 3.0351307 V 5.6876701 H 4.0686594 Z M 4.416614,4.9435294 q 0.1688097,0.072347 0.1688097,0.3135037 v 0.6028917 q 0,0.3445096 -0.3445096,0.3445096 H 2.5183663 V 3.6206127 h 1.5537382 q 0.3445095,0 0.3445095,0.3445095 z" />
    <path
       id="path1716"
       style="fill:#ffffff;stroke-width:0.26458335px"
       d="m 6.9969907,5.8582023 q 0,0.3445095 -0.3445096,0.3445095 H 5.2744429 L 5.4466977,5.6859475 H 6.4802263 V 5.5136927 H 5.2744429 q -0.3445096,0 -0.3445096,-0.3445095 V 3.6188901 H 5.4466977 V 4.9969284 H 6.4802263 V 3.6188901 h 0.5184869 z" />
    <path
       id="path1718"
       style="fill:#ffffff;stroke-width:0.26458335px"
       d="M 9.0657706,4.137377 V 6.2044344 H 8.5490063 V 4.137377 H 7.8582646 V 6.2044344 H 7.3415003 V 3.9651222 q 0,-0.3445095 0.3445095,-0.3445095 H 9.925322 q 0.34451,0 0.34451,0.3445095 V 6.2044344 H 9.7530672 L 9.7513447,4.137377 Z" />
    <path
       id="path1720"
       style="fill:#ffffff;stroke-width:0.26458335px"
       d="M 11.131106,3.6206127 V 6.2044344 H 10.614341 V 3.6206127 Z" />
    <path
       id="path1722"
       style="fill:#ffffff;stroke-width:0.26458335px"
       d="M 11.475615,6.2044344 V 3.6206127 h 1.72427 q 0.34451,0 0.34451,0.3445095 l -0.0017,1.8948026 q 0,0.3445096 -0.344509,0.3445096 z m 1.550293,-2.0653348 h -1.033529 v 1.5485705 h 1.033529 z" />
    <path
       id="path1724"
       style="fill:#ffffff;stroke-width:0.26458335px"
       d="m 15.783707,4.1356545 h -1.379761 v 0.5184869 h 1.205784 q 0.344509,0 0.344509,0.342787 v 0.8612739 q 0,0.3445095 -0.344509,0.3445095 H 13.887182 V 5.6876701 l 1.550293,-0.00172 V 5.1691832 h -1.205784 q -0.344509,0 -0.344509,-0.3427871 V 3.9651222 q 0,-0.3462321 0.344509,-0.3462321 h 1.722548 z" />
    <path
       id="path1726"
       style="fill:#ffffff;stroke-width:0.26458335px"
       d="M 16.815513,3.6206127 V 6.2044344 H 16.298748 V 3.6206127 Z" />
    <path
       id="path1728"
       style="fill:#ffffff;stroke-width:0.26458335px"
       d="M 17.160023,6.2044344 V 3.6206127 h 1.724271 q 0.344509,0 0.344509,0.3445095 l -0.0017,1.8948026 q 0,0.3445096 -0.34451,0.3445096 z m 1.550293,-2.0653348 h -1.033528 v 1.5485705 h 1.033528 z" />
    <path
       id="path1730"
       style="fill:#ffffff;stroke-width:0.26458335px"
       d="m 20.088353,5.1709057 v 0.5167644 h 1.205784 v 0.5167643 h -1.378038 q -0.34451,0 -0.34451,-0.3445096 V 3.9651222 q 0,-0.3445095 0.34451,-0.3445095 h 1.378038 V 4.137377 h -1.205784 v 0.5167644 h 0.689019 l -0.172254,0.5167643 z" />
  </g>
  <g
     id="text1673"
     style="font-style:normal;font-variant:normal;font-weight:normal;font-stretch:normal;font-size:2.46944451px;line-height:125%;font-family:Akashi;-inkscape-font-specification:Akashi;letter-spacing:0px;word-spacing:0px;fill:#ffffff;fill-opacity:1;stroke:none;stroke-width:0.26458335px;stroke-linecap:butt;stroke-linejoin:miter;stroke-opacity:1"
     aria-label="LEFT">
    <path
       id="path1733"
       style="fill:#ffffff;stroke-width:0.26458335px"
       d="M 5.1190682,29.535915 H 4.1544415 q -0.2411567,0 -0.2411567,-0.241156 V 27.72724 h 0.361735 v 1.44694 h 0.8440484 z" />
    <path
       id="path1735"
       style="fill:#ffffff;stroke-width:0.26458335px"
       d="m 5.72196,28.812445 v 0.361735 h 0.8440484 v 0.361735 H 5.6013817 q -0.2411567,0 -0.2411567,-0.241156 v -1.326362 q 0,-0.241157 0.2411567,-0.241157 h 0.9646267 v 0.361735 H 5.72196 V 28.45071 H 6.2042734 L 6.083695,28.812445 Z" />
    <path
       id="path1737"
       style="fill:#ffffff;stroke-width:0.26458335px"
       d="m 7.1689002,28.812445 v 0.72347 H 6.8071651 v -1.567518 q 0,-0.241157 0.2411567,-0.241157 h 0.9646268 v 0.361735 H 7.1689002 v 0.361735 h 0.4823134 l -0.1205784,0.361735 z" />
    <path
       id="path1739"
       style="fill:#ffffff;stroke-width:0.26458335px"
       d="m 9.5804669,27.72724 v 0.361735 H 9.0981535 v 1.44694 h -0.361735 v -1.44694 H 8.2541051 V 27.72724 Z" />
  </g>
  <g
     id="text1677"
     style="font-style:normal;font-variant:normal;font-weight:normal;font-stretch:normal;font-size:2.46944451px;line-height:125%;font-family:Akashi;-inkscape-font-specification:Akashi;letter-spacing:0px;word-spacing:0px;fill:#ffffff;fill-opacity:1;stroke:none;stroke-width:0.26458335px;stroke-linecap:butt;stroke-linejoin:miter;stroke-opacity:1"
     aria-label="SIDE">
    <path
       id="path1742"
       style="fill:#ffffff;stroke-width:0.26458335px"
       d="m 15.536169,45.226151 h -0.965833 v 0.362941 h 0.844048 q 0.241157,0 0.241157,0.239951 v 0.602892 q 0,0.241157 -0.241157,0.241157 h -1.205783 v -0.36053 l 1.085205,-0.0012 v -0.361736 h -0.844048 q -0.241157,0 -0.241157,-0.23995 v -0.602892 q 0,-0.242363 0.241157,-0.242363 h 1.205783 z" />
    <path
       id="path1744"
       style="fill:#ffffff;stroke-width:0.26458335px"
       d="m 16.258433,44.865622 v 1.808675 h -0.361735 v -1.808675 z" />
    <path
       id="path1746"
       style="fill:#ffffff;stroke-width:0.26458335px"
       d="m 16.49959,46.674297 v -1.808675 h 1.206989 q 0.241157,0 0.241157,0.241157 l -0.0012,1.326362 q 0,0.241156 -0.241157,0.241156 z m 1.085205,-1.445734 h -0.72347 v 1.083999 h 0.72347 z" />
    <path
       id="path1748"
       style="fill:#ffffff;stroke-width:0.26458335px"
       d="m 18.549421,45.950827 v 0.361735 h 0.844049 v 0.361735 h -0.964627 q -0.241157,0 -0.241157,-0.241156 v -1.326362 q 0,-0.241157 0.241157,-0.241157 h 0.964627 v 0.361735 h -0.844049 v 0.361735 h 0.482314 l -0.120578,0.361735 z" />
  </g>
  <g
     id="text1681"
     style="font-style:normal;font-variant:normal;font-weight:normal;font-stretch:normal;font-size:2.46944451px;line-height:125%;font-family:Akashi;-inkscape-font-specification:Akashi;letter-spacing:0px;word-spacing:0px;fill:#ffffff;fill-opacity:1;stroke:none;stroke-width:0.26458335px;stroke-linecap:butt;stroke-linejoin:miter;stroke-opacity:1"
     aria-label="MID">
    <path
       id="path1751"
       style="fill:#ffffff;stroke-width:0.26458335px"
       d="m 5.7828483,45.212472 v 1.44694 h -0.361735 v -1.44694 H 4.9375941 v 1.44694 h -0.361735 v -1.567518 q 0,-0.241157 0.2411567,-0.241157 h 1.5675185 q 0.2411566,0 0.2411566,0.241157 v 1.567518 h -0.361735 l -0.00121,-1.44694 z" />
    <path
       id="path1753"
       style="fill:#ffffff;stroke-width:0.26458335px"
       d="m 7.2285826,44.850737 v 1.808675 H 6.8668475 v -1.808675 z" />
    <path
       id="path1755"
       style="fill:#ffffff;stroke-width:0.26458335px"
       d="m 7.4697392,46.659412 v -1.808675 h 1.2069892 q 0.2411567,0 0.2411567,0.241157 l -0.00121,1.326362 q 0,0.241156 -0.2411566,0.241156 z M 8.5549443,45.213678 H 7.8314742 v 1.083999 h 0.7234701 z" />
  </g>
  <g
     id="text1685"
     style="font-style:normal;font-variant:normal;font-weight:normal;font-stretch:normal;font-size:2.46944451px;line-height:125%;font-family:Akashi;-inkscape-font-specification:Akashi;letter-spacing:0px;word-spacing:0px;fill:#ffffff;fill-opacity:1;stroke:none;stroke-width:0.26458335px;stroke-linecap:butt;stroke-linejoin:miter;stroke-opacity:1"
     aria-label="RIGHT">
    <path
       id="path1758"
       style="fill:#ffffff;stroke-width:0.26458335px"
       d="m 14.46423,28.826733 0.289388,0.72347 h -0.361735 l -0.302652,-0.72347 h -0.42323 v 0.72347 h -0.361735 v -1.567518 q 0,-0.241157 0.241157,-0.241157 h 0.964626 q 0.241157,0 0.241157,0.241157 v 0.602892 q 0,0.241156 -0.241157,0.241156 z M 14.38947,28.464998 V 28.103263 H 13.666 v 0.361735 z" />
    <path
       id="path1760"
       style="fill:#ffffff;stroke-width:0.26458335px"
       d="m 15.354098,27.741528 v 1.808675 h -0.361735 v -1.808675 z" />
    <path
       id="path1762"
       style="fill:#ffffff;stroke-width:0.26458335px"
       d="m 16.801038,28.464998 q 0.241157,0 0.241157,0.241157 v 0.602892 q 0,0.241156 -0.241157,0.241156 h -0.964627 q -0.241156,0 -0.241156,-0.241156 v -1.326362 q 0,-0.241157 0.241156,-0.241157 h 1.205784 v 0.361735 H 15.95699 v 1.085205 h 0.72347 v -0.361735 h -0.481108 l 0.120579,-0.361735 z" />
    <path
       id="path1764"
       style="fill:#ffffff;stroke-width:0.26458335px"
       d="m 17.645086,27.741528 v 0.72347 h 0.723471 v -0.72347 h 0.361735 v 1.808675 h -0.361735 v -0.72347 h -0.723471 v 0.72347 h -0.361735 v -1.808675 z" />
    <path
       id="path1766"
       style="fill:#ffffff;stroke-width:0.26458335px"
       d="m 20.29781,27.741528 v 0.361735 h -0.482313 v 1.44694 h -0.361735 v -1.44694 h -0.482314 v -0.361735 z" />
  </g>
  <g
     id="text1689"
     style="font-style:normal;font-variant:normal;font-weight:normal;font-stretch:normal;font-size:2.46944451px;line-height:125%;font-family:Akashi;-inkscape-font-specification:Akashi;letter-spacing:0px;word-spacing:0px;fill:#ffffff;fill-opacity:1;stroke:none;stroke-width:0.26458335px;stroke-linecap:butt;stroke-linejoin:miter;stroke-opacity:1"
     aria-label="MID GAIN">
    <path
       id="path1769"
       style="fill:#ffffff;stroke-width:0.26458335px"
       d="m 7.6866059,68.320531 v 1.44694 H 7.3248708 v -1.44694 H 6.8413517 v 1.44694 H 6.4796166 v -1.567518 q 0,-0.241157 0.2411567,-0.241157 h 1.5675185 q 0.2411567,0 0.2411567,0.241157 v 1.567518 h -0.361735 l -0.00121,-1.44694 z" />
    <path
       id="path1771"
       style="fill:#ffffff;stroke-width:0.26458335px"
       d="m 9.1323401,67.958796 v 1.808675 h -0.361735 v -1.808675 z" />
    <path
       id="path1773"
       style="fill:#ffffff;stroke-width:0.26458335px"
       d="m 9.3734968,69.767471 v -1.808675 h 1.2069892 q 0.241157,0 0.241157,0.241157 l -0.0012,1.326362 q 0,0.241156 -0.241157,0.241156 z M 10.458702,68.321737 H 9.7352318 v 1.083999 h 0.7234702 z" />
    <path
       id="path1775"
       style="fill:#ffffff;stroke-width:0.26458335px"
       d="m 13.111425,68.682266 q 0.241157,0 0.241157,0.241157 v 0.602892 q 0,0.241156 -0.241157,0.241156 h -0.964626 q -0.241157,0 -0.241157,-0.241156 v -1.326362 q 0,-0.241157 0.241157,-0.241157 h 1.205783 v 0.361735 h -1.085205 v 1.085205 h 0.72347 V 69.044001 H 12.50974 l 0.120578,-0.361735 z" />
    <path
       id="path1777"
       style="fill:#ffffff;stroke-width:0.26458335px"
       d="m 13.593739,69.767471 v -1.568724 q 0,-0.241157 0.241157,-0.241157 h 0.964626 q 0.241157,0 0.241157,0.241157 v 1.568724 h -0.361735 v -0.483519 h -0.72347 v 0.483519 z m 1.085205,-1.448146 h -0.72347 v 0.602892 h 0.72347 z" />
    <path
       id="path1779"
       style="fill:#ffffff;stroke-width:0.26458335px"
       d="m 15.643571,67.958796 v 1.808675 h -0.361735 v -1.808675 z" />
    <path
       id="path1781"
       style="fill:#ffffff;stroke-width:0.26458335px"
       d="m 15.884728,69.767471 v -1.568724 q 0,-0.241157 0.241157,-0.241157 h 0.965832 q 0.241157,0 0.241157,0.241157 v 1.568724 h -0.361735 l -0.0012,-1.448146 h -0.72347 v 1.448146 z" />
  </g>
  <g
     id="text1693"
     style="font-style:normal;font-variant:normal;font-weight:normal;font-stretch:normal;font-size:2.46944451px;line-height:125%;font-family:Akashi;-inkscape-font-specification:Akashi;letter-spacing:0px;word-spacing:0px;fill:#ffffff;fill-opacity:1;stroke:none;stroke-width:0.26458335px;stroke-linecap:butt;stroke-linejoin:miter;stroke-opacity:1"
     aria-label="SIDE GAIN">
    <path
       id="path1784"
       style="fill:#ffffff;stroke-width:0.26458335px"
       d="M 7.385169,88.95683 H 6.4193365 v 0.362941 h 0.8440484 q 0.2411567,0 0.2411567,0.239951 v 0.602891 q 0,0.241157 -0.2411567,0.241157 H 6.0576015 v -0.360529 l 1.0852051,-0.0012 V 89.6803 H 6.2987581 q -0.2411566,0 -0.2411566,-0.239951 v -0.602892 q 0,-0.242362 0.2411566,-0.242362 h 1.2057835 z" />
    <path
       id="path1786"
       style="fill:#ffffff;stroke-width:0.26458335px"
       d="m 8.1074334,88.596301 v 1.808675 H 7.7456983 v -1.808675 z" />
    <path
       id="path1788"
       style="fill:#ffffff;stroke-width:0.26458335px"
       d="m 8.3485901,90.404976 v -1.808675 h 1.2069893 q 0.2411567,0 0.2411567,0.241156 l -0.00121,1.326362 q 0,0.241157 -0.2411567,0.241157 z m 1.0852051,-1.445734 h -0.72347 v 1.083999 h 0.72347 z" />
    <path
       id="path1790"
       style="fill:#ffffff;stroke-width:0.26458335px"
       d="m 10.398422,89.681506 v 0.361735 h 0.844048 v 0.361735 h -0.964626 q -0.241157,0 -0.241157,-0.241157 v -1.326362 q 0,-0.241156 0.241157,-0.241156 h 0.964626 v 0.361735 h -0.844048 v 0.361735 h 0.482313 l -0.120578,0.361735 z" />
    <path
       id="path1792"
       style="fill:#ffffff;stroke-width:0.26458335px"
       d="m 13.533459,89.319771 q 0.241156,0 0.241156,0.241156 v 0.602892 q 0,0.241157 -0.241156,0.241157 h -0.964627 q -0.241157,0 -0.241157,-0.241157 v -1.326362 q 0,-0.241156 0.241157,-0.241156 h 1.205783 v 0.361735 H 12.68941 v 1.085205 h 0.72347 v -0.361735 h -0.481107 l 0.120578,-0.361735 z" />
    <path
       id="path1794"
       style="fill:#ffffff;stroke-width:0.26458335px"
       d="m 14.015772,90.404976 v -1.568724 q 0,-0.241157 0.241157,-0.241157 h 0.964627 q 0.241156,0 0.241156,0.241157 v 1.568724 h -0.361735 v -0.483519 h -0.72347 v 0.483519 z m 1.085205,-1.448146 h -0.72347 v 0.602892 h 0.72347 z" />
    <path
       id="path1796"
       style="fill:#ffffff;stroke-width:0.26458335px"
       d="m 16.065604,88.596301 v 1.808675 h -0.361735 v -1.808675 z" />
    <path
       id="path1798"
       style="fill:#ffffff;stroke-width:0.26458335px"
       d="m 16.306761,90.404976 v -1.568724 q 0,-0.241157 0.241157,-0.241157 h 0.965833 q 0.241156,0 0.241156,0.241157 v 1.568724 h -0.361735 l -0.0012,-1.448146 h -0.72347 v 1.448146 z" />
  </g>
</svg>
