<?xml version="1.0" encoding="UTF-8" standalone="no"?>
<svg
   xmlns:dc="http://purl.org/dc/elements/1.1/"
   xmlns:cc="http://creativecommons.org/ns#"
   xmlns:rdf="http://www.w3.org/1999/02/22-rdf-syntax-ns#"
   xmlns:svg="http://www.w3.org/2000/svg"
   xmlns="http://www.w3.org/2000/svg"
   id="svg4541"
   version="1.1"
   viewBox="0 0 47.625 100.39612"
   height="379.44983"
   width="180">
  <defs
     id="defs4535" />
  <metadata
     id="metadata4538">
    <rdf:RDF>
      <cc:Work
         rdf:about="">
        <dc:format>image/svg+xml</dc:format>
        <dc:type
           rdf:resource="http://purl.org/dc/dcmitype/StillImage" />
        <dc:title></dc:title>
      </cc:Work>
    </rdf:RDF>
  </metadata>
  <path
     style="fill:#2e2f31;fill-opacity:1;fill-rule:nonzero;stroke:none;stroke-width:0.21998174"
     d="M 2.9874774e-7,0 H 47.625004 V 100.39611 H 2.9874774e-7 Z m 0,0"
     id="path25057" />
  <g
     transform="matrix(0.27602381,0,0,0.27602381,270.19122,-0.07321088)"
     aria-label="MADE IN ITALY"
     style="font-style:normal;font-variant:normal;font-weight:500;font-stretch:normal;font-size:7.66842127px;line-height:125%;font-family:'Futura PT';-inkscape-font-specification:'Futura PT Medium';letter-spacing:0px;word-spacing:0px;opacity:0.7;fill:#ffffff;fill-opacity:1;stroke:none;stroke-width:0.95855266px;stroke-linecap:butt;stroke-linejoin:miter;stroke-opacity:1"
     id="text864">
    <path
       d="m -913.35319,359.03888 h 0.84353 l 0.43454,-2.62643 1.09275,2.62643 h 0.28118 l 1.14387,-2.62643 0.38342,2.62643 h 0.84353 l -0.71572,-4.26236 h -0.60069 l -1.18222,2.7095 -1.13109,-2.7095 h -0.60069 z"
       style="font-style:normal;font-variant:normal;font-weight:500;font-stretch:normal;font-size:6.3903513px;font-family:'Futura PT';-inkscape-font-specification:'Futura PT Medium';fill:#ffffff;stroke-width:0.95855266px"
       id="path5435" />
    <path
       d="m -904.68058,359.03888 h 0.89465 l -1.78291,-4.26236 h -0.65182 l -1.83403,4.26236 h 0.90104 l 0.37703,-0.89465 h 1.71901 z m -1.83403,-1.57203 0.60708,-1.53368 0.60708,1.53368 z"
       style="font-style:normal;font-variant:normal;font-weight:500;font-stretch:normal;font-size:6.3903513px;font-family:'Futura PT';-inkscape-font-specification:'Futura PT Medium';fill:#ffffff;stroke-width:0.95855266px"
       id="path5437" />
    <path
       d="m -903.28828,354.77652 v 4.26236 h 1.09914 c 0.5943,0 1.06079,-0.0575 1.55924,-0.40898 0.56235,-0.3962 0.85631,-1.00968 0.85631,-1.71901 0,-0.70933 -0.30035,-1.32919 -0.81797,-1.719 -0.47288,-0.35147 -0.9905,-0.41537 -1.5848,-0.41537 z m 0.83074,0.71571 h 0.25562 c 0.28117,0 0.70293,0.0256 1.04801,0.28118 0.33869,0.25561 0.52401,0.69016 0.52401,1.13748 0,0.45372 -0.19171,0.88826 -0.5304,1.13109 -0.37064,0.2684 -0.83074,0.28118 -1.04162,0.28118 h -0.25562 z"
       style="font-style:normal;font-variant:normal;font-weight:500;font-stretch:normal;font-size:6.3903513px;font-family:'Futura PT';-inkscape-font-specification:'Futura PT Medium';fill:#ffffff;stroke-width:0.95855266px"
       id="path5439" />
    <path
       d="m -896.64282,354.77652 h -2.36443 v 4.26236 h 2.36443 v -0.71572 h -1.53368 v -1.16304 h 1.46978 v -0.71572 h -1.46978 v -0.95217 h 1.53368 z"
       style="font-style:normal;font-variant:normal;font-weight:500;font-stretch:normal;font-size:6.3903513px;font-family:'Futura PT';-inkscape-font-specification:'Futura PT Medium';fill:#ffffff;stroke-width:0.95855266px"
       id="path5441" />
    <path
       d="m -894.35178,354.77652 v 4.26236 h 0.83075 v -4.26236 z"
       style="font-style:normal;font-variant:normal;font-weight:500;font-stretch:normal;font-size:6.3903513px;font-family:'Futura PT';-inkscape-font-specification:'Futura PT Medium';fill:#ffffff;stroke-width:0.95855266px"
       id="path5443" />
    <path
       d="m -891.72374,359.03888 v -2.8501 l 2.59448,2.8501 h 0.57513 v -4.26236 h -0.83075 v 2.8437 l -2.59448,-2.8437 h -0.57513 v 4.26236 z"
       style="font-style:normal;font-variant:normal;font-weight:500;font-stretch:normal;font-size:6.3903513px;font-family:'Futura PT';-inkscape-font-specification:'Futura PT Medium';fill:#ffffff;stroke-width:0.95855266px"
       id="path5445" />
    <path
       d="m -886.10173,354.77652 v 4.26236 h 0.83074 v -4.26236 z"
       style="font-style:normal;font-variant:normal;font-weight:500;font-stretch:normal;font-size:6.3903513px;font-family:'Futura PT';-inkscape-font-specification:'Futura PT Medium';fill:#ffffff;stroke-width:0.95855266px"
       id="path5447" />
    <path
       d="m -882.00392,355.49223 v -0.71571 h -2.74785 v 0.71571 h 0.95855 v 3.54665 h 0.83075 v -3.54665 z"
       style="font-style:normal;font-variant:normal;font-weight:500;font-stretch:normal;font-size:6.3903513px;font-family:'Futura PT';-inkscape-font-specification:'Futura PT Medium';fill:#ffffff;stroke-width:0.95855266px"
       id="path5449" />
    <path
       d="m -878.83211,359.03888 h 0.89465 l -1.78291,-4.26236 h -0.65182 l -1.83403,4.26236 h 0.90104 l 0.37703,-0.89465 h 1.71901 z m -1.83403,-1.57203 0.60708,-1.53368 0.60708,1.53368 z"
       style="font-style:normal;font-variant:normal;font-weight:500;font-stretch:normal;font-size:6.3903513px;font-family:'Futura PT';-inkscape-font-specification:'Futura PT Medium';fill:#ffffff;stroke-width:0.95855266px"
       id="path5451" />
    <path
       d="m -877.43981,354.77652 v 4.26236 h 2.14715 v -0.71572 h -1.31641 v -3.54664 z"
       style="font-style:normal;font-variant:normal;font-weight:500;font-stretch:normal;font-size:6.3903513px;font-family:'Futura PT';-inkscape-font-specification:'Futura PT Medium';fill:#ffffff;stroke-width:0.95855266px"
       id="path5453" />
    <path
       d="m -874.17834,359.03888 h 0.83075 v -1.94906 l 1.50173,-2.3133 h -0.98411 l -0.91382,1.48256 -0.91382,-1.48256 h -0.98412 l 1.46339,2.3133 z"
       style="font-style:normal;font-variant:normal;font-weight:500;font-stretch:normal;font-size:6.3903513px;font-family:'Futura PT';-inkscape-font-specification:'Futura PT Medium';fill:#ffffff;stroke-width:0.95855266px"
       id="path5455" />
  </g>
  <g
     transform="matrix(0.27602381,0,0,0.27602381,269.44735,2.5726231)"
     id="g1736"
     style="opacity:0.7;fill:#ffffff;stroke-width:0.91882312">
    <g
       aria-label="sonus dept."
       style="font-style:normal;font-variant:normal;font-weight:normal;font-stretch:normal;font-size:12.78070068px;line-height:125%;font-family:'Squared Display';-inkscape-font-specification:'Squared Display';letter-spacing:0px;word-spacing:0px;fill:#ffffff;fill-opacity:1;stroke:none;stroke-width:0.9585526px;stroke-linecap:butt;stroke-linejoin:miter;stroke-opacity:1"
       id="text4639-3">
      <path
         d="m -916.33104,336.95691 c -0.70294,-0.53679 -1.35475,-0.58791 -1.76374,-0.58791 -0.44732,0 -1.00967,0.0511 -1.44422,0.3962 -0.31951,0.26839 -0.57513,0.71572 -0.57513,1.25251 0,0.44732 0.16615,0.7924 0.42177,1.0608 0.33229,0.34507 0.7924,0.524 1.1886,0.66459 l 0.35786,0.12781 c 0.20449,0.0767 0.48567,0.21727 0.48567,0.56235 0,0.38342 -0.3323,0.60069 -0.76684,0.60069 -0.46011,0 -0.92022,-0.28117 -1.22695,-0.63903 l -0.81797,0.94577 c 0.34508,0.37064 0.9969,0.92021 2.14716,0.92021 0.67738,0 1.21417,-0.17893 1.66149,-0.58791 0.44733,-0.40898 0.61348,-0.90743 0.61348,-1.40588 0,-0.35786 -0.11503,-0.69016 -0.28118,-0.92021 -0.31952,-0.43454 -0.97133,-0.65182 -1.40588,-0.7924 l -0.37064,-0.11503 c -0.43454,-0.14059 -0.49844,-0.35786 -0.49844,-0.49845 0,-0.26839 0.23005,-0.44732 0.60069,-0.44732 0.16615,0 0.53679,0.0256 0.90743,0.37064 z"
         style="font-style:normal;font-variant:normal;font-weight:500;font-stretch:normal;font-size:12.78070068px;font-family:'Futura PT';-inkscape-font-specification:'Futura PT Medium';fill:#ffffff;stroke-width:0.9585526px"
         id="path5414" />
      <path
         d="m -912.05849,336.369 c -1.04802,0 -1.76374,0.34508 -2.23662,0.77962 -0.54957,0.49845 -0.933,1.26529 -0.933,2.17272 0,0.89465 0.38343,1.66149 0.933,2.15994 0.47288,0.43454 1.1886,0.77962 2.23662,0.77962 1.04802,0 1.76374,-0.34508 2.23662,-0.77962 0.54957,-0.49845 0.93299,-1.26529 0.93299,-2.15994 0,-0.90743 -0.38342,-1.67427 -0.93299,-2.17272 -0.47288,-0.43454 -1.1886,-0.77962 -2.23662,-0.77962 z m 0,4.51158 c -0.90743,0 -1.55925,-0.71571 -1.55925,-1.55924 0,-0.86909 0.6646,-1.57203 1.55925,-1.57203 0.89465,0 1.55924,0.70294 1.55924,1.57203 0,0.84353 -0.65181,1.55924 -1.55924,1.55924 z"
         style="font-style:normal;font-variant:normal;font-weight:500;font-stretch:normal;font-size:12.78070068px;font-family:'Futura PT';-inkscape-font-specification:'Futura PT Medium';fill:#ffffff;stroke-width:0.9585526px"
         id="path5416" />
      <path
         d="m -907.6829,342.08197 h 1.55925 v -2.82453 c 0,-0.31952 0.0128,-0.71572 0.24283,-1.07358 0.23005,-0.34508 0.54957,-0.48567 0.95855,-0.48567 0.15337,0 0.48567,0.0256 0.7285,0.28118 0.28118,0.29395 0.29396,0.77962 0.29396,1.08635 v 3.01625 h 1.55924 v -3.47635 c 0,-0.53679 -0.0511,-1.08636 -0.43454,-1.55925 -0.43454,-0.53679 -1.15026,-0.67737 -1.63593,-0.67737 -0.89465,0 -1.41866,0.48566 -1.71261,0.89465 v -0.71572 h -1.55925 z"
         style="font-style:normal;font-variant:normal;font-weight:500;font-stretch:normal;font-size:12.78070068px;font-family:'Futura PT';-inkscape-font-specification:'Futura PT Medium';fill:#ffffff;stroke-width:0.9585526px"
         id="path5418" />
      <path
         d="m -900.86819,336.54793 v 3.38688 c 0,0.49845 0.0639,1.16305 0.67738,1.69984 0.51123,0.44732 1.32919,0.62625 2.00657,0.62625 0.67737,0 1.49534,-0.17893 2.00657,-0.62625 0.61347,-0.53679 0.67737,-1.20139 0.67737,-1.69984 v -3.38688 h -1.55924 v 3.13127 c 0,0.29395 -0.0256,0.69016 -0.3323,0.97133 -0.19171,0.16615 -0.49845,0.28118 -0.7924,0.28118 -0.29396,0 -0.6007,-0.11503 -0.79241,-0.28118 -0.30673,-0.28117 -0.33229,-0.67738 -0.33229,-0.97133 v -3.13127 z"
         style="font-style:normal;font-variant:normal;font-weight:500;font-stretch:normal;font-size:12.78070068px;font-family:'Futura PT';-inkscape-font-specification:'Futura PT Medium';fill:#ffffff;stroke-width:0.9585526px"
         id="path5420" />
      <path
         d="m -890.24543,336.95691 c -0.70294,-0.53679 -1.35475,-0.58791 -1.76374,-0.58791 -0.44732,0 -1.00967,0.0511 -1.44422,0.3962 -0.31951,0.26839 -0.57513,0.71572 -0.57513,1.25251 0,0.44732 0.16615,0.7924 0.42177,1.0608 0.33229,0.34507 0.7924,0.524 1.1886,0.66459 l 0.35786,0.12781 c 0.20449,0.0767 0.48567,0.21727 0.48567,0.56235 0,0.38342 -0.3323,0.60069 -0.76685,0.60069 -0.4601,0 -0.92021,-0.28117 -1.22694,-0.63903 l -0.81797,0.94577 c 0.34508,0.37064 0.9969,0.92021 2.14716,0.92021 0.67738,0 1.21417,-0.17893 1.66149,-0.58791 0.44733,-0.40898 0.61348,-0.90743 0.61348,-1.40588 0,-0.35786 -0.11503,-0.69016 -0.28118,-0.92021 -0.31952,-0.43454 -0.97133,-0.65182 -1.40588,-0.7924 l -0.37064,-0.11503 c -0.43454,-0.14059 -0.49844,-0.35786 -0.49844,-0.49845 0,-0.26839 0.23005,-0.44732 0.60069,-0.44732 0.16615,0 0.53679,0.0256 0.90743,0.37064 z"
         style="font-style:normal;font-variant:normal;font-weight:500;font-stretch:normal;font-size:12.78070068px;font-family:'Futura PT';-inkscape-font-specification:'Futura PT Medium';fill:#ffffff;stroke-width:0.9585526px"
         id="path5422" />
      <path
         d="m -881.64761,337.26365 c -0.52401,-0.81797 -1.35476,-0.89465 -1.77652,-0.89465 -1.63593,0 -2.74785,1.30363 -2.74785,2.93956 0,1.62315 1.1247,2.95234 2.82453,2.95234 0.3962,0 1.13748,-0.0895 1.69984,-0.89465 v 0.71572 h 1.55924 v -9.31713 h -1.55924 z m -1.38032,0.48566 c 0.89465,0 1.53368,0.67738 1.53368,1.55925 0,0.88187 -0.63903,1.57202 -1.53368,1.57202 -0.89465,0 -1.53368,-0.69015 -1.53368,-1.57202 0,-0.88187 0.63903,-1.55925 1.53368,-1.55925 z"
         style="font-style:normal;font-variant:normal;font-weight:500;font-stretch:normal;font-size:12.78070068px;font-family:'Futura PT';-inkscape-font-specification:'Futura PT Medium';fill:#ffffff;stroke-width:0.9585526px"
         id="path5424" />
      <path
         d="m -874.60145,340.30545 c -0.25562,0.44733 -0.70294,0.7285 -1.29085,0.7285 -0.6007,0 -0.94578,-0.29395 -1.11193,-0.52401 -0.17893,-0.24283 -0.26839,-0.60069 -0.26839,-0.93299 h 4.14095 v -0.1278 c 0,-0.6007 -0.0767,-1.46978 -0.6646,-2.17272 -0.38342,-0.46011 -1.03524,-0.90743 -2.15994,-0.90743 -0.66459,0 -1.43144,0.14058 -2.08325,0.77962 -0.3962,0.3962 -0.84353,1.07358 -0.84353,2.17272 0,0.86909 0.25562,1.58481 0.86909,2.15994 0.54957,0.52401 1.22695,0.77962 2.1216,0.77962 1.92988,0 2.55614,-1.31641 2.72228,-1.72539 z m -2.62005,-1.72539 c 0.12781,-0.74128 0.7285,-1.11192 1.30363,-1.11192 0.57514,0 1.18861,0.35786 1.31642,1.11192 z"
         style="font-style:normal;font-variant:normal;font-weight:500;font-stretch:normal;font-size:12.78070068px;font-family:'Futura PT';-inkscape-font-specification:'Futura PT Medium';fill:#ffffff;stroke-width:0.9585526px"
         id="path5426" />
      <path
         d="m -870.37763,341.36625 c 0.61347,0.83075 1.39309,0.89465 1.77652,0.89465 0.81796,0 1.457,-0.31952 1.87876,-0.71572 0.31952,-0.30674 0.86909,-0.98411 0.86909,-2.23662 0,-1.09914 -0.42177,-1.7893 -0.83075,-2.19828 -0.62625,-0.62626 -1.40588,-0.74128 -1.89154,-0.74128 -1.02246,0 -1.55925,0.54957 -1.80208,0.89465 v -0.71572 h -1.55925 v 8.46082 h 1.55925 z m 1.38031,-3.61694 c 0.37064,0 0.77963,0.14059 1.0608,0.3962 0.30674,0.29396 0.47289,0.75407 0.47289,1.16305 0,0.40898 -0.15337,0.86909 -0.48567,1.17582 -0.20449,0.19171 -0.53679,0.3962 -1.04802,0.3962 -0.48566,0 -0.81796,-0.19171 -1.02245,-0.37064 -0.30674,-0.26839 -0.51123,-0.69015 -0.51123,-1.20138 0,-0.51123 0.17893,-0.89465 0.52401,-1.18861 0.28117,-0.25561 0.60069,-0.37064 1.00967,-0.37064 z"
         style="font-style:normal;font-variant:normal;font-weight:500;font-stretch:normal;font-size:12.78070068px;font-family:'Futura PT';-inkscape-font-specification:'Futura PT Medium';fill:#ffffff;stroke-width:0.9585526px"
         id="path5428" />
      <path
         d="m -862.01506,337.87712 v -1.32919 h -1.07358 v -1.89155 h -1.55924 v 1.89155 h -0.61348 v 1.32919 h 0.61348 v 4.20485 h 1.55924 v -4.20485 z"
         style="font-style:normal;font-variant:normal;font-weight:500;font-stretch:normal;font-size:12.78070068px;font-family:'Futura PT';-inkscape-font-specification:'Futura PT Medium';fill:#ffffff;stroke-width:0.9585526px"
         id="path5430" />
      <path
         d="m -861.33089,341.25122 c 0,0.56236 0.43454,0.9969 0.99689,0.9969 0.56235,0 0.9969,-0.43454 0.9969,-0.9969 0,-0.56235 -0.43455,-0.99689 -0.9969,-0.99689 -0.56235,0 -0.99689,0.43454 -0.99689,0.99689 z"
         style="font-style:normal;font-variant:normal;font-weight:500;font-stretch:normal;font-size:12.78070068px;font-family:'Futura PT';-inkscape-font-specification:'Futura PT Medium';fill:#ffffff;stroke-width:0.9585526px"
         id="path5432" />
    </g>
  </g>
  <path
     style="opacity:0.9;fill:#212121;fill-opacity:1;fill-rule:nonzero;stroke:none;stroke-width:0.27081189"
     d="m 21.298962,16.502873 c 0,-0.425592 -0.406368,-0.773324 -0.902207,-0.773324 H 13.46991 c -0.495838,0 -0.9022,0.347732 -0.9022,0.773324 v 9.035618 c 0,0.425596 0.406362,0.77439 0.9022,0.77439 h 6.926845 c 0.495839,0 0.902207,-0.348794 0.902207,-0.77439 z m 0,0"
     id="path25247" />
  <path
     style="opacity:0.9;fill:#e3dbdb;fill-opacity:1;fill-rule:nonzero;stroke:none;stroke-width:0.27081189"
     d="m 11.244794,16.502871 c 0,-0.425594 -0.406365,-0.773323 -0.902203,-0.773323 H 3.414504 c -0.495839,0 -0.900961,0.347729 -0.900961,0.773323 v 9.03562 c 0,0.425596 0.405122,0.774391 0.900961,0.774391 h 6.928087 c 0.495838,0 0.902203,-0.348795 0.902203,-0.774391 z m 0,0"
     id="path25259" />
  <g
     style="font-style:normal;font-variant:normal;font-weight:normal;font-stretch:normal;font-size:2.82222247px;line-height:125%;font-family:'Futura PT';-inkscape-font-specification:'Futura PT';letter-spacing:0px;word-spacing:0px;fill:#000000;fill-opacity:1;stroke:none;stroke-width:0.26458335px;stroke-linecap:butt;stroke-linejoin:miter;stroke-opacity:1"
     id="text1113" />
  <g
     id="text11719"
     style="font-style:normal;font-variant:normal;font-weight:normal;font-stretch:normal;font-size:3.52777815px;line-height:125%;font-family:Akashi;-inkscape-font-specification:Akashi;letter-spacing:0px;word-spacing:0px;fill:#ffffff;fill-opacity:1;stroke:none;stroke-width:0.26458335px;stroke-linecap:butt;stroke-linejoin:miter;stroke-opacity:1"
     aria-label="CAMPIONE">
    <path
       id="path11884"
       style="fill:#ffffff;stroke-width:0.26458335px"
       d="M 16.577801,4.1373769 H 15.544272 V 5.68767 h 1.205784 v 0.5167644 h -1.378039 q -0.344509,0 -0.344509,-0.3445096 V 3.9651221 q 0,-0.3445096 0.344509,-0.3445096 h 1.378039 z" />
    <path
       id="path11886"
       style="fill:#ffffff;stroke-width:0.26458335px"
       d="M 17.094565,6.2044344 V 3.9633995 q 0,-0.3445095 0.34451,-0.3445095 h 1.378038 q 0.34451,0 0.34451,0.3445095 V 6.2044344 H 18.644859 V 5.5136927 H 17.61133 V 6.2044344 Z M 18.644859,4.1356543 H 17.61133 v 0.861274 h 1.033529 z" />
    <path
       id="path11888"
       style="fill:#ffffff;stroke-width:0.26458335px"
       d="M 21.230403,4.1373769 V 6.2044344 H 20.713639 V 4.1373769 H 20.022897 V 6.2044344 H 19.506133 V 3.9651221 q 0,-0.3445096 0.344509,-0.3445096 h 2.239312 q 0.34451,0 0.34451,0.3445096 V 6.2044344 H 21.9177 L 21.916,4.1373769 Z" />
    <path
       id="path11890"
       style="fill:#ffffff;stroke-width:0.26458335px"
       d="m 22.778974,3.9651221 q 0,-0.3445096 0.344509,-0.3445096 h 1.378039 q 0.344509,0 0.344509,0.3445096 v 1.2057835 q 0,0.3445096 -0.344509,0.3445096 h -1.033529 l 0.172255,-0.5167644 h 0.689019 V 4.1373769 h -1.033529 v 2.0670575 h -0.516764 z" />
    <path
       id="path11892"
       style="fill:#ffffff;stroke-width:0.26458335px"
       d="M 25.707305,3.6206125 V 6.2044344 H 25.19054 V 3.6206125 Z" />
    <path
       id="path11894"
       style="fill:#ffffff;stroke-width:0.26458335px"
       d="m 28.118873,5.8599248 q 0,0.3445096 -0.34451,0.3445096 h -1.378038 q -0.34451,0 -0.34451,-0.3445096 V 3.9651221 q 0,-0.3445096 0.34451,-0.3445096 h 1.378038 q 0.34451,0 0.34451,0.3445096 z M 26.568579,4.1373769 V 5.68767 h 1.033529 V 4.1373769 Z" />
    <path
       id="path11896"
       style="fill:#ffffff;stroke-width:0.26458335px"
       d="M 28.463382,6.2044344 V 3.9633995 q 0,-0.3445095 0.344509,-0.3445095 h 1.379761 q 0.34451,0 0.34451,0.3445095 v 2.2410349 h -0.516765 l -0.0017,-2.0687801 h -1.033529 v 2.0687801 z" />
    <path
       id="path11898"
       style="fill:#ffffff;stroke-width:0.26458335px"
       d="M 31.391714,5.1709056 V 5.68767 h 1.205783 v 0.5167644 h -1.378038 q -0.34451,0 -0.34451,-0.3445096 V 3.9651221 q 0,-0.3445096 0.34451,-0.3445096 h 1.378038 v 0.5167644 h -1.205783 v 0.5167644 h 0.689019 l -0.172255,0.5167643 z" />
  </g>
  <g
     id="text11723"
     style="font-style:normal;font-variant:normal;font-weight:normal;font-stretch:normal;font-size:3.52777815px;line-height:125%;font-family:Akashi;-inkscape-font-specification:Akashi;letter-spacing:0px;word-spacing:0px;fill:#ffffff;fill-opacity:1;stroke:none;stroke-width:0.26458335px;stroke-linecap:butt;stroke-linejoin:miter;stroke-opacity:1"
     aria-label="RECORD">
    <path
       id="path11871"
       style="font-size:2.46944475px;fill:#ffffff;stroke-width:0.26458335px"
       d="m 8.3630568,51.978304 0.2893881,0.723471 H 8.2907098 L 7.9880582,51.978304 H 7.5648281 v 0.723471 h -0.361735 v -1.567519 q 0,-0.241157 0.2411567,-0.241157 h 0.9646268 q 0.2411567,0 0.2411567,0.241157 v 0.602892 q 0,0.241156 -0.2411567,0.241156 z M 8.2882983,51.616569 V 51.254834 H 7.5648281 v 0.361735 z" />
    <path
       id="path11873"
       style="font-size:2.46944475px;fill:#ffffff;stroke-width:0.26458335px"
       d="m 9.2529251,51.978304 v 0.361736 h 0.8440489 v 0.361735 H 9.1323468 q -0.2411567,0 -0.2411567,-0.241157 v -1.326362 q 0,-0.241157 0.2411567,-0.241157 h 0.9646272 v 0.361735 H 9.2529251 v 0.361735 h 0.4823135 l -0.1205784,0.361735 z" />
    <path
       id="path11875"
       style="font-size:2.46944475px;fill:#ffffff;stroke-width:0.26458335px"
       d="m 11.423336,51.254834 h -0.72347 v 1.085206 h 0.844048 v 0.361735 h -0.964627 q -0.241157,0 -0.241157,-0.241157 v -1.326362 q 0,-0.241157 0.241157,-0.241157 h 0.964627 z" />
    <path
       id="path11877"
       style="font-size:2.46944475px;fill:#ffffff;stroke-width:0.26458335px"
       d="m 13.232011,52.460618 q 0,0.241157 -0.241157,0.241157 h -0.964626 q -0.241157,0 -0.241157,-0.241157 v -1.326362 q 0,-0.241157 0.241157,-0.241157 h 0.964626 q 0.241157,0 0.241157,0.241157 z m -1.085205,-1.205784 v 1.085206 h 0.72347 v -1.085206 z" />
    <path
       id="path11879"
       style="font-size:2.46944475px;fill:#ffffff;stroke-width:0.26458335px"
       d="m 14.633132,51.978304 0.289388,0.723471 h -0.361735 l -0.302652,-0.723471 h -0.42323 v 0.723471 h -0.361735 v -1.567519 q 0,-0.241157 0.241157,-0.241157 h 0.964626 q 0.241157,0 0.241157,0.241157 v 0.602892 q 0,0.241156 -0.241157,0.241156 z m -0.07476,-0.361735 v -0.361735 h -0.72347 v 0.361735 z" />
    <path
       id="path11881"
       style="font-size:2.46944475px;fill:#ffffff;stroke-width:0.26458335px"
       d="m 15.161265,52.701775 v -1.808676 h 1.206989 q 0.241157,0 0.241157,0.241157 l -0.0012,1.326362 q 0,0.241157 -0.241157,0.241157 z M 16.24647,51.25604 H 15.523 v 1.084 h 0.72347 z" />
  </g>
  <g
     id="text11727"
     style="font-style:normal;font-variant:normal;font-weight:normal;font-stretch:normal;font-size:3.52777815px;line-height:125%;font-family:Akashi;-inkscape-font-specification:Akashi;letter-spacing:0px;word-spacing:0px;fill:#ffffff;fill-opacity:1;stroke:none;stroke-width:0.26458335px;stroke-linecap:butt;stroke-linejoin:miter;stroke-opacity:1"
     aria-label="DIRECTION">
    <path
       id="path11852"
       style="font-size:2.46944475px;fill:#ffffff;stroke-width:0.26458335px"
       d="m 29.628944,52.652992 v -1.808675 h 1.20699 q 0.241156,0 0.241156,0.241157 l -0.0012,1.326362 q 0,0.241156 -0.241157,0.241156 z m 1.085206,-1.445734 h -0.723471 v 1.083999 h 0.723471 z" />
    <path
       id="path11854"
       style="font-size:2.46944475px;fill:#ffffff;stroke-width:0.26458335px"
       d="m 31.678776,50.844317 v 1.808675 h -0.361735 v -1.808675 z" />
    <path
       id="path11856"
       style="font-size:2.46944475px;fill:#ffffff;stroke-width:0.26458335px"
       d="m 33.079897,51.929522 0.289388,0.72347 H 33.00755 l -0.302652,-0.72347 h -0.42323 v 0.72347 h -0.361735 v -1.567518 q 0,-0.241157 0.241157,-0.241157 h 0.964627 q 0.241157,0 0.241157,0.241157 v 0.602891 q 0,0.241157 -0.241157,0.241157 z m -0.07476,-0.361735 v -0.361735 h -0.723471 v 0.361735 z" />
    <path
       id="path11858"
       style="font-size:2.46944475px;fill:#ffffff;stroke-width:0.26458335px"
       d="m 33.969765,51.929522 v 0.361735 h 0.844049 v 0.361735 h -0.964627 q -0.241157,0 -0.241157,-0.241156 v -1.326362 q 0,-0.241157 0.241157,-0.241157 h 0.964627 v 0.361735 h -0.844049 v 0.361735 h 0.482314 L 34.3315,51.929522 Z" />
    <path
       id="path11860"
       style="font-size:2.46944475px;fill:#ffffff;stroke-width:0.26458335px"
       d="m 36.140176,51.206052 h -0.72347 v 1.085205 h 0.844048 v 0.361735 h -0.964627 q -0.241156,0 -0.241156,-0.241156 v -1.326362 q 0,-0.241157 0.241156,-0.241157 h 0.964627 z" />
    <path
       id="path11862"
       style="font-size:2.46944475px;fill:#ffffff;stroke-width:0.26458335px"
       d="m 37.828273,50.844317 v 0.361735 h -0.482314 v 1.44694 h -0.361735 v -1.44694 h -0.482313 v -0.361735 z" />
    <path
       id="path11864"
       style="font-size:2.46944475px;fill:#ffffff;stroke-width:0.26458335px"
       d="m 38.431164,50.844317 v 1.808675 h -0.361735 v -1.808675 z" />
    <path
       id="path11866"
       style="font-size:2.46944475px;fill:#ffffff;stroke-width:0.26458335px"
       d="m 40.119262,52.411836 q 0,0.241156 -0.241157,0.241156 h -0.964627 q -0.241157,0 -0.241157,-0.241156 v -1.326362 q 0,-0.241157 0.241157,-0.241157 h 0.964627 q 0.241157,0 0.241157,0.241157 z m -1.085206,-1.205784 v 1.085205 h 0.723471 v -1.085205 z" />
    <path
       id="path11868"
       style="font-size:2.46944475px;fill:#ffffff;stroke-width:0.26458335px"
       d="m 40.360418,52.652992 v -1.568724 q 0,-0.241157 0.241157,-0.241157 h 0.965833 q 0.241156,0 0.241156,0.241157 v 1.568724 h -0.361735 l -0.0012,-1.448146 h -0.723471 v 1.448146 z" />
  </g>
  <g
     id="text11731"
     style="font-style:normal;font-variant:normal;font-weight:normal;font-stretch:normal;font-size:2.46944451px;line-height:125%;font-family:Akashi;-inkscape-font-specification:Akashi;letter-spacing:0px;word-spacing:0px;fill:#ffffff;fill-opacity:1;stroke:none;stroke-width:0.26458335px;stroke-linecap:butt;stroke-linejoin:miter;stroke-opacity:1"
     aria-label="PLAY">
    <path
       id="path11843"
       style="fill:#ffffff;stroke-width:0.26458335px"
       d="m 8.7706108,66.997164 q 0,-0.241157 0.2411567,-0.241157 h 0.9646268 q 0.2411567,0 0.2411567,0.241157 v 0.844048 q 0,0.241157 -0.2411567,0.241157 H 9.2529242 L 9.3735025,67.720634 H 9.8558159 V 67.117742 H 9.1323458 v 1.44694 h -0.361735 z" />
    <path
       id="path11845"
       style="fill:#ffffff;stroke-width:0.26458335px"
       d="m 11.664491,68.564682 h -0.964627 q -0.241156,0 -0.241156,-0.241157 v -1.567518 h 0.361735 v 1.44694 h 0.844048 z" />
    <path
       id="path11847"
       style="fill:#ffffff;stroke-width:0.26458335px"
       d="m 11.905648,68.564682 v -1.568724 q 0,-0.241157 0.241156,-0.241157 h 0.964627 q 0.241157,0 0.241157,0.241157 v 1.568724 h -0.361735 v -0.483519 h -0.72347 v 0.483519 z m 1.085205,-1.448146 h -0.72347 v 0.602892 h 0.72347 z" />
    <path
       id="path11849"
       style="fill:#ffffff;stroke-width:0.26458335px"
       d="m 15.040685,68.32232 q 0,0.241156 -0.241157,0.241156 h -0.964627 l 0.120579,-0.361735 h 0.72347 v -0.120578 h -0.844049 q -0.241156,0 -0.241156,-0.241157 v -1.085205 h 0.361735 v 0.964627 h 0.72347 v -0.964627 h 0.362941 z" />
  </g>
  <g
     id="text11735"
     style="font-style:normal;font-variant:normal;font-weight:normal;font-stretch:normal;font-size:2.46944451px;line-height:125%;font-family:Akashi;-inkscape-font-specification:Akashi;letter-spacing:0px;word-spacing:0px;fill:#ffffff;fill-opacity:1;stroke:none;stroke-width:0.26458335px;stroke-linecap:butt;stroke-linejoin:miter;stroke-opacity:1"
     aria-label="SPEED">
    <path
       id="path11832"
       style="fill:#ffffff;stroke-width:0.26458335px"
       d="m 33.18721,67.129239 h -0.965833 v 0.362941 h 0.844048 q 0.241157,0 0.241157,0.239951 v 0.602891 q 0,0.241157 -0.241157,0.241157 H 31.859642 V 68.21565 l 1.085205,-0.0012 v -0.361735 h -0.844048 q -0.241157,0 -0.241157,-0.239951 v -0.602892 q 0,-0.242362 0.241157,-0.242362 h 1.205783 z" />
    <path
       id="path11834"
       style="fill:#ffffff;stroke-width:0.26458335px"
       d="m 33.547739,67.009866 q 0,-0.241156 0.241157,-0.241156 h 0.964626 q 0.241157,0 0.241157,0.241156 v 0.844049 q 0,0.241157 -0.241157,0.241157 h -0.72347 l 0.120579,-0.361735 h 0.482313 v -0.602892 h -0.72347 v 1.44694 h -0.361735 z" />
    <path
       id="path11836"
       style="fill:#ffffff;stroke-width:0.26458335px"
       d="m 35.597571,67.853915 v 0.361735 h 0.844048 v 0.361735 h -0.964627 q -0.241156,0 -0.241156,-0.241157 v -1.326362 q 0,-0.241156 0.241156,-0.241156 h 0.964627 v 0.361735 h -0.844048 v 0.361735 h 0.482313 l -0.120578,0.361735 z" />
    <path
       id="path11838"
       style="fill:#ffffff;stroke-width:0.26458335px"
       d="m 37.044511,67.853915 v 0.361735 h 0.844048 v 0.361735 h -0.964626 q -0.241157,0 -0.241157,-0.241157 v -1.326362 q 0,-0.241156 0.241157,-0.241156 h 0.964626 v 0.361735 h -0.844048 v 0.361735 h 0.482313 l -0.120578,0.361735 z" />
    <path
       id="path11840"
       style="fill:#ffffff;stroke-width:0.26458335px"
       d="M 38.129716,68.577385 V 66.76871 h 1.206989 q 0.241157,0 0.241157,0.241156 l -0.0012,1.326362 q 0,0.241157 -0.241157,0.241157 z m 1.085205,-1.445734 h -0.72347 v 1.083999 h 0.72347 z" />
  </g>
  <g
     id="text11739"
     style="font-style:normal;font-variant:normal;font-weight:normal;font-stretch:normal;font-size:2.46944451px;line-height:125%;font-family:Akashi;-inkscape-font-specification:Akashi;letter-spacing:0px;word-spacing:0px;fill:#ffffff;fill-opacity:1;stroke:none;stroke-width:0.26458335px;stroke-linecap:butt;stroke-linejoin:miter;stroke-opacity:1"
     aria-label="CLEAR">
    <path
       id="path11821"
       style="fill:#ffffff;stroke-width:0.26458335px"
       d="M 9.2523203,82.975812 H 8.5288502 v 1.085205 h 0.8440485 v 0.361735 H 8.4082719 q -0.2411567,0 -0.2411567,-0.241156 v -1.326362 q 0,-0.241157 0.2411567,-0.241157 h 0.9646268 z" />
    <path
       id="path11823"
       style="fill:#ffffff;stroke-width:0.26458335px"
       d="M 10.819839,84.422752 H 9.8552121 q -0.2411567,0 -0.2411567,-0.241156 v -1.567519 h 0.361735 v 1.44694 h 0.8440486 z" />
    <path
       id="path11825"
       style="fill:#ffffff;stroke-width:0.26458335px"
       d="m 11.422731,83.699282 v 0.361735 h 0.844048 v 0.361735 h -0.964627 q -0.241156,0 -0.241156,-0.241156 v -1.326362 q 0,-0.241157 0.241156,-0.241157 h 0.964627 v 0.361735 h -0.844048 v 0.361735 h 0.482313 l -0.120578,0.361735 z" />
    <path
       id="path11827"
       style="fill:#ffffff;stroke-width:0.26458335px"
       d="m 12.507936,84.422752 v -1.568724 q 0,-0.241157 0.241156,-0.241157 h 0.964627 q 0.241157,0 0.241157,0.241157 v 1.568724 h -0.361735 v -0.483519 h -0.72347 v 0.483519 z m 1.085205,-1.448146 h -0.72347 v 0.602892 h 0.72347 z" />
    <path
       id="path11829"
       style="fill:#ffffff;stroke-width:0.26458335px"
       d="m 15.355996,83.699282 0.289388,0.72347 h -0.361735 l -0.302651,-0.72347 h -0.42323 v 0.72347 h -0.361735 v -1.567518 q 0,-0.241157 0.241156,-0.241157 h 0.964627 q 0.241157,0 0.241157,0.241157 v 0.602892 q 0,0.241156 -0.241157,0.241156 z m -0.07476,-0.361735 v -0.361735 h -0.72347 v 0.361735 z" />
  </g>
  <g
     id="text11743"
     style="font-style:normal;font-variant:normal;font-weight:normal;font-stretch:normal;font-size:2.46944451px;line-height:125%;font-family:Akashi;-inkscape-font-specification:Akashi;letter-spacing:0px;word-spacing:0px;fill:#ffffff;fill-opacity:1;stroke:none;stroke-width:0.26458335px;stroke-linecap:butt;stroke-linejoin:miter;stroke-opacity:1"
     aria-label="START">
    <path
       id="path11810"
       style="fill:#ffffff;stroke-width:0.26458335px"
       d="m 27.096357,82.954839 h -0.965833 v 0.362941 h 0.844049 q 0.241156,0 0.241156,0.23995 v 0.602892 q 0,0.241157 -0.241156,0.241157 H 25.768789 V 84.04125 l 1.085205,-0.0012 v -0.361735 h -0.844048 q -0.241157,0 -0.241157,-0.239951 v -0.602892 q 0,-0.242362 0.241157,-0.242362 h 1.205783 z" />
    <path
       id="path11812"
       style="fill:#ffffff;stroke-width:0.26458335px"
       d="m 28.783248,82.594309 v 0.361735 h -0.482313 v 1.446941 H 27.9392 v -1.446941 h -0.482314 v -0.361735 z" />
    <path
       id="path11814"
       style="fill:#ffffff;stroke-width:0.26458335px"
       d="M 29.024405,84.402985 V 82.83426 q 0,-0.241156 0.241156,-0.241156 h 0.964627 q 0.241157,0 0.241157,0.241156 v 1.568725 H 30.10961 v -0.48352 h -0.72347 v 0.48352 z m 1.085205,-1.448146 h -0.72347 v 0.602891 h 0.72347 z" />
    <path
       id="path11816"
       style="fill:#ffffff;stroke-width:0.26458335px"
       d="m 31.872465,83.679515 0.289388,0.72347 h -0.361735 l -0.302651,-0.72347 h -0.42323 v 0.72347 h -0.361735 v -1.567519 q 0,-0.241157 0.241156,-0.241157 h 0.964627 q 0.241157,0 0.241157,0.241157 v 0.602892 q 0,0.241157 -0.241157,0.241157 z m -0.07476,-0.361735 v -0.361736 h -0.72347 v 0.361736 z" />
    <path
       id="path11818"
       style="fill:#ffffff;stroke-width:0.26458335px"
       d="m 33.72696,82.594309 v 0.361735 h -0.482313 v 1.446941 h -0.361735 v -1.446941 h -0.482313 v -0.361735 z" />
  </g>
  <g
     id="text11747"
     style="font-style:normal;font-variant:normal;font-weight:normal;font-stretch:normal;font-size:2.46944451px;line-height:125%;font-family:Akashi;-inkscape-font-specification:Akashi;letter-spacing:0px;word-spacing:0px;fill:#ffffff;fill-opacity:1;stroke:none;stroke-width:0.26458335px;stroke-linecap:butt;stroke-linejoin:miter;stroke-opacity:1"
     aria-label="END">
    <path
       id="path11803"
       style="fill:#ffffff;stroke-width:0.26458335px"
       d="m 40.072291,83.679522 v 0.361735 h 0.844048 v 0.361735 h -0.964626 q -0.241157,0 -0.241157,-0.241156 v -1.326362 q 0,-0.241157 0.241157,-0.241157 h 0.964626 v 0.361735 h -0.844048 v 0.361735 h 0.482313 l -0.120578,0.361735 z" />
    <path
       id="path11805"
       style="fill:#ffffff;stroke-width:0.26458335px"
       d="m 41.157496,84.402992 v -1.568724 q 0,-0.241157 0.241157,-0.241157 h 0.965832 q 0.241157,0 0.241157,0.241157 v 1.568724 h -0.361735 l -0.0012,-1.448146 h -0.72347 v 1.448146 z" />
    <path
       id="path11807"
       style="fill:#ffffff;stroke-width:0.26458335px"
       d="m 42.845593,84.402992 v -1.808675 h 1.206989 q 0.241157,0 0.241157,0.241157 l -0.0012,1.326362 q 0,0.241156 -0.241157,0.241156 z m 1.085205,-1.445734 h -0.72347 v 1.083999 h 0.72347 z" />
  </g>
  <g
     id="text11751"
     style="font-style:normal;font-variant:normal;font-weight:normal;font-stretch:normal;font-size:2.46944451px;line-height:125%;font-family:Akashi;-inkscape-font-specification:Akashi;letter-spacing:0px;word-spacing:0px;fill:#ffffff;fill-opacity:1;stroke:none;stroke-width:0.26458335px;stroke-linecap:butt;stroke-linejoin:miter;stroke-opacity:1"
     aria-label="ONE-SHOT">
    <path
       id="path11786"
       style="fill:#ffffff;stroke-width:0.26458335px"
       d="m 26.281956,17.416388 q 0,0.241157 -0.241156,0.241157 h -0.964627 q -0.241157,0 -0.241157,-0.241157 v -1.326361 q 0,-0.241157 0.241157,-0.241157 H 26.0408 q 0.241156,0 0.241156,0.241157 z m -1.085205,-1.205783 v 1.085205 h 0.72347 v -1.085205 z" />
    <path
       id="path11788"
       style="fill:#ffffff;stroke-width:0.26458335px"
       d="m 26.523113,17.657545 v -1.568724 q 0,-0.241157 0.241157,-0.241157 h 0.965832 q 0.241157,0 0.241157,0.241157 v 1.568724 h -0.361735 l -0.0012,-1.448146 h -0.72347 v 1.448146 z" />
    <path
       id="path11790"
       style="fill:#ffffff;stroke-width:0.26458335px"
       d="m 28.572945,16.934075 v 0.361735 h 0.844048 v 0.361735 h -0.964626 q -0.241157,0 -0.241157,-0.241157 v -1.326361 q 0,-0.241157 0.241157,-0.241157 h 0.964626 v 0.361735 h -0.844048 v 0.361735 h 0.482313 l -0.120578,0.361735 z" />
    <path
       id="path11792"
       style="fill:#ffffff;stroke-width:0.26458335px"
       d="m 29.778729,16.815908 1.085205,-0.0024 v 0.361735 l -1.205784,0.0024 z" />
    <path
       id="path11794"
       style="fill:#ffffff;stroke-width:0.26458335px"
       d="m 32.432658,16.209399 h -0.965833 v 0.362941 h 0.844049 q 0.241156,0 0.241156,0.239951 v 0.602892 q 0,0.241156 -0.241156,0.241156 H 31.10509 V 17.29581 l 1.085205,-0.0012 v -0.361735 h -0.844048 q -0.241157,0 -0.241157,-0.239951 v -0.602891 q 0,-0.242363 0.241157,-0.242363 h 1.205783 z" />
    <path
       id="path11796"
       style="fill:#ffffff;stroke-width:0.26458335px"
       d="m 33.154922,15.84887 v 0.72347 h 0.72347 v -0.72347 h 0.361735 v 1.808675 h -0.361735 v -0.72347 h -0.72347 v 0.72347 H 32.793187 V 15.84887 Z" />
    <path
       id="path11798"
       style="fill:#ffffff;stroke-width:0.26458335px"
       d="m 35.928224,17.416388 q 0,0.241157 -0.241156,0.241157 h -0.964627 q -0.241157,0 -0.241157,-0.241157 v -1.326361 q 0,-0.241157 0.241157,-0.241157 h 0.964627 q 0.241156,0 0.241156,0.241157 z m -1.085205,-1.205783 v 1.085205 h 0.72347 v -1.085205 z" />
    <path
       id="path11800"
       style="fill:#ffffff;stroke-width:0.26458335px"
       d="m 37.495743,15.84887 v 0.361735 H 37.01343 v 1.44694 h -0.361735 v -1.44694 H 36.169381 V 15.84887 Z" />
  </g>
  <g
     id="text11755"
     style="font-style:normal;font-variant:normal;font-weight:normal;font-stretch:normal;font-size:2.46944451px;line-height:125%;font-family:Akashi;-inkscape-font-specification:Akashi;letter-spacing:0px;word-spacing:0px;fill:#ffffff;fill-opacity:1;stroke:none;stroke-width:0.26458335px;stroke-linecap:butt;stroke-linejoin:miter;stroke-opacity:1"
     aria-label="LOOP">
    <path
       id="path11777"
       style="fill:#ffffff;stroke-width:0.26458335px"
       d="m 32.431451,26.243551 h -0.964626 q -0.241157,0 -0.241157,-0.241156 v -1.567519 h 0.361735 v 1.44694 h 0.844048 z" />
    <path
       id="path11779"
       style="fill:#ffffff;stroke-width:0.26458335px"
       d="m 34.119548,26.002395 q 0,0.241156 -0.241156,0.241156 h -0.964627 q -0.241157,0 -0.241157,-0.241156 v -1.326362 q 0,-0.241157 0.241157,-0.241157 h 0.964627 q 0.241156,0 0.241156,0.241157 z m -1.085205,-1.205784 v 1.085205 h 0.72347 v -1.085205 z" />
    <path
       id="path11781"
       style="fill:#ffffff;stroke-width:0.26458335px"
       d="m 35.807645,26.002395 q 0,0.241156 -0.241157,0.241156 h -0.964626 q -0.241157,0 -0.241157,-0.241156 v -1.326362 q 0,-0.241157 0.241157,-0.241157 h 0.964626 q 0.241157,0 0.241157,0.241157 z M 34.72244,24.796611 v 1.085205 h 0.72347 v -1.085205 z" />
    <path
       id="path11783"
       style="fill:#ffffff;stroke-width:0.26458335px"
       d="m 36.048802,24.676033 q 0,-0.241157 0.241157,-0.241157 h 0.964626 q 0.241157,0 0.241157,0.241157 v 0.844048 q 0,0.241157 -0.241157,0.241157 h -0.72347 l 0.120579,-0.361735 h 0.482313 v -0.602892 h -0.72347 v 1.44694 h -0.361735 z" />
  </g>
  <g
     id="text11759"
     style="font-style:normal;font-variant:normal;font-weight:normal;font-stretch:normal;font-size:2.46944451px;line-height:125%;font-family:Akashi;-inkscape-font-specification:Akashi;letter-spacing:0px;word-spacing:0px;fill:#ffffff;fill-opacity:1;stroke:none;stroke-width:0.26458335px;stroke-linecap:butt;stroke-linejoin:miter;stroke-opacity:1"
     aria-label="IN">
    <path
       id="path11772"
       style="fill:#ffffff;stroke-width:0.26458335px"
       d="m 6.2153794,27.928872 v 1.808675 h -0.361735 v -1.808675 z" />
    <path
       id="path11774"
       style="fill:#ffffff;stroke-width:0.26458335px"
       d="m 6.4565361,29.737547 v -1.568724 q 0,-0.241157 0.2411567,-0.241157 h 0.9658326 q 0.2411566,0 0.2411566,0.241157 v 1.568724 H 7.542947 l -0.00121,-1.448146 h -0.72347 v 1.448146 z" />
  </g>
  <g
     id="text11763"
     style="font-style:normal;font-variant:normal;font-weight:normal;font-stretch:normal;font-size:2.46944451px;line-height:125%;font-family:Akashi;-inkscape-font-specification:Akashi;letter-spacing:0px;word-spacing:0px;fill:#ffffff;fill-opacity:1;stroke:none;stroke-width:0.26458335px;stroke-linecap:butt;stroke-linejoin:miter;stroke-opacity:1"
     aria-label="OUT">
    <path
       id="path11765"
       style="fill:#ffffff;stroke-width:0.26458335px"
       d="m 16.028981,29.495788 q 0,0.241156 -0.241157,0.241156 h -0.964627 q -0.241156,0 -0.241156,-0.241156 v -1.326362 q 0,-0.241157 0.241156,-0.241157 h 0.964627 q 0.241157,0 0.241157,0.241157 z m -1.085205,-1.205784 v 1.085205 h 0.72347 v -1.085205 z" />
    <path
       id="path11767"
       style="fill:#ffffff;stroke-width:0.26458335px"
       d="m 16.631873,27.928269 v 1.44694 h 0.72347 l 0.0012,-1.44694 h 0.361735 v 1.567519 q 0,0.241156 -0.241157,0.241156 h -0.965833 q -0.241156,0 -0.241156,-0.241156 v -1.567519 z" />
    <path
       id="path11769"
       style="fill:#ffffff;stroke-width:0.26458335px"
       d="m 19.284596,27.928269 v 0.361735 h -0.482313 v 1.44694 h -0.361735 v -1.44694 h -0.482313 v -0.361735 z" />
  </g>
</svg>
