<?xml version="1.0" encoding="UTF-8" standalone="no"?>
<svg
   xmlns:osb="http://www.openswatchbook.org/uri/2009/osb"
   xmlns:dc="http://purl.org/dc/elements/1.1/"
   xmlns:cc="http://creativecommons.org/ns#"
   xmlns:rdf="http://www.w3.org/1999/02/22-rdf-syntax-ns#"
   xmlns:svg="http://www.w3.org/2000/svg"
   xmlns="http://www.w3.org/2000/svg"
   id="svg4541"
   version="1.1"
   viewBox="0 0 23.812502 100.39611"
   height="379.44983"
   width="90.000008">
  <defs
     id="defs4535">
    <linearGradient
       id="linearGradient3762"
       osb:paint="solid">
      <stop
         style="stop-color:#000000;stop-opacity:1;"
         offset="0"
         id="stop3760" />
    </linearGradient>
    <linearGradient
       id="linearGradient3756"
       osb:paint="solid">
      <stop
         style="stop-color:#b3b3b3;stop-opacity:1;"
         offset="0"
         id="stop3754" />
    </linearGradient>
    <filter
       style="color-interpolation-filters:sRGB"
       id="filter1212">
      <feColorMatrix
         values="1 0 0 0 0 0 1 0 0 0 0 0 1 0 0 0 0 0 1 1 "
         id="feColorMatrix1186" />
      <feColorMatrix
         type="saturate"
         values="0"
         result="result1"
         id="feColorMatrix1188" />
      <feFlood
         flood-color="rgb(9,111,151)"
         result="result2"
         id="feFlood1190" />
      <feColorMatrix
         type="hueRotate"
         values="0"
         result="result3"
         id="feColorMatrix1192" />
      <feBlend
         in2="result1"
         mode="screen"
         result="result2"
         id="feBlend1194" />
      <feBlend
         in2="result2"
         result="result4"
         mode="multiply"
         id="feBlend1196" />
      <feTurbulence
         numOctaves="5"
         baseFrequency="0.035"
         type="fractalNoise"
         result="result7"
         id="feTurbulence1198" />
      <feColorMatrix
         result="result0"
         values="1 0 0 0 0 0 1 0 0 0 0 0 1 0 0 0 0 0 3 -1 "
         id="feColorMatrix1200" />
      <feFlood
         flood-opacity="1"
         flood-color="rgb(200,57,93)"
         result="result1"
         id="feFlood1202" />
      <feBlend
         in2="result4"
         mode="lighten"
         in="result1"
         result="result5"
         id="feBlend1204" />
      <feComposite
         in2="result0"
         operator="out"
         result="result6"
         id="feComposite1206" />
      <feComposite
         in2="result4"
         operator="atop"
         result="result8"
         id="feComposite1208" />
      <feComposite
         in2="SourceGraphic"
         operator="in"
         id="feComposite1210" />
    </filter>
  </defs>
  <metadata
     id="metadata4538">
    <rdf:RDF>
      <cc:Work
         rdf:about="">
        <dc:format>image/svg+xml</dc:format>
        <dc:type
           rdf:resource="http://purl.org/dc/dcmitype/StillImage" />
        <dc:title></dc:title>
      </cc:Work>
    </rdf:RDF>
  </metadata>
  <path
     style="opacity:1;fill:#2e2f31;fill-opacity:1;stroke:none;stroke-width:0.26458335;stroke-opacity:1"
     d="M 0,-0.1455642 H 23.812502 V 100.39611 H 0 Z"
     id="rect1242" />
  <g
     transform="matrix(0.27602379,0,0,0.27602379,258.28496,-0.07331911)"
     aria-label="MADE IN ITALY"
     style="font-style:normal;font-variant:normal;font-weight:500;font-stretch:normal;font-size:7.66842127px;line-height:125%;font-family:'Futura PT';-inkscape-font-specification:'Futura PT Medium';letter-spacing:0px;word-spacing:0px;opacity:0.7;fill:#ffffff;fill-opacity:1;stroke:none;stroke-width:0.95855266px;stroke-linecap:butt;stroke-linejoin:miter;stroke-opacity:1"
     id="text864">
    <path
       d="m -913.35319,359.03888 h 0.84353 l 0.43454,-2.62643 1.09275,2.62643 h 0.28118 l 1.14387,-2.62643 0.38342,2.62643 h 0.84353 l -0.71572,-4.26236 h -0.60069 l -1.18222,2.7095 -1.13109,-2.7095 h -0.60069 z"
       style="font-style:normal;font-variant:normal;font-weight:500;font-stretch:normal;font-size:6.3903513px;font-family:'Futura PT';-inkscape-font-specification:'Futura PT Medium';fill:#ffffff;stroke-width:0.95855266px"
       id="path5435" />
    <path
       d="m -904.68058,359.03888 h 0.89465 l -1.78291,-4.26236 h -0.65182 l -1.83403,4.26236 h 0.90104 l 0.37703,-0.89465 h 1.71901 z m -1.83403,-1.57203 0.60708,-1.53368 0.60708,1.53368 z"
       style="font-style:normal;font-variant:normal;font-weight:500;font-stretch:normal;font-size:6.3903513px;font-family:'Futura PT';-inkscape-font-specification:'Futura PT Medium';fill:#ffffff;stroke-width:0.95855266px"
       id="path5437" />
    <path
       d="m -903.28828,354.77652 v 4.26236 h 1.09914 c 0.5943,0 1.06079,-0.0575 1.55924,-0.40898 0.56235,-0.3962 0.85631,-1.00968 0.85631,-1.71901 0,-0.70933 -0.30035,-1.32919 -0.81797,-1.719 -0.47288,-0.35147 -0.9905,-0.41537 -1.5848,-0.41537 z m 0.83074,0.71571 h 0.25562 c 0.28117,0 0.70293,0.0256 1.04801,0.28118 0.33869,0.25561 0.52401,0.69016 0.52401,1.13748 0,0.45372 -0.19171,0.88826 -0.5304,1.13109 -0.37064,0.2684 -0.83074,0.28118 -1.04162,0.28118 h -0.25562 z"
       style="font-style:normal;font-variant:normal;font-weight:500;font-stretch:normal;font-size:6.3903513px;font-family:'Futura PT';-inkscape-font-specification:'Futura PT Medium';fill:#ffffff;stroke-width:0.95855266px"
       id="path5439" />
    <path
       d="m -896.64282,354.77652 h -2.36443 v 4.26236 h 2.36443 v -0.71572 h -1.53368 v -1.16304 h 1.46978 v -0.71572 h -1.46978 v -0.95217 h 1.53368 z"
       style="font-style:normal;font-variant:normal;font-weight:500;font-stretch:normal;font-size:6.3903513px;font-family:'Futura PT';-inkscape-font-specification:'Futura PT Medium';fill:#ffffff;stroke-width:0.95855266px"
       id="path5441" />
    <path
       d="m -894.35178,354.77652 v 4.26236 h 0.83075 v -4.26236 z"
       style="font-style:normal;font-variant:normal;font-weight:500;font-stretch:normal;font-size:6.3903513px;font-family:'Futura PT';-inkscape-font-specification:'Futura PT Medium';fill:#ffffff;stroke-width:0.95855266px"
       id="path5443" />
    <path
       d="m -891.72374,359.03888 v -2.8501 l 2.59448,2.8501 h 0.57513 v -4.26236 h -0.83075 v 2.8437 l -2.59448,-2.8437 h -0.57513 v 4.26236 z"
       style="font-style:normal;font-variant:normal;font-weight:500;font-stretch:normal;font-size:6.3903513px;font-family:'Futura PT';-inkscape-font-specification:'Futura PT Medium';fill:#ffffff;stroke-width:0.95855266px"
       id="path5445" />
    <path
       d="m -886.10173,354.77652 v 4.26236 h 0.83074 v -4.26236 z"
       style="font-style:normal;font-variant:normal;font-weight:500;font-stretch:normal;font-size:6.3903513px;font-family:'Futura PT';-inkscape-font-specification:'Futura PT Medium';fill:#ffffff;stroke-width:0.95855266px"
       id="path5447" />
    <path
       d="m -882.00392,355.49223 v -0.71571 h -2.74785 v 0.71571 h 0.95855 v 3.54665 h 0.83075 v -3.54665 z"
       style="font-style:normal;font-variant:normal;font-weight:500;font-stretch:normal;font-size:6.3903513px;font-family:'Futura PT';-inkscape-font-specification:'Futura PT Medium';fill:#ffffff;stroke-width:0.95855266px"
       id="path5449" />
    <path
       d="m -878.83211,359.03888 h 0.89465 l -1.78291,-4.26236 h -0.65182 l -1.83403,4.26236 h 0.90104 l 0.37703,-0.89465 h 1.71901 z m -1.83403,-1.57203 0.60708,-1.53368 0.60708,1.53368 z"
       style="font-style:normal;font-variant:normal;font-weight:500;font-stretch:normal;font-size:6.3903513px;font-family:'Futura PT';-inkscape-font-specification:'Futura PT Medium';fill:#ffffff;stroke-width:0.95855266px"
       id="path5451" />
    <path
       d="m -877.43981,354.77652 v 4.26236 h 2.14715 v -0.71572 h -1.31641 v -3.54664 z"
       style="font-style:normal;font-variant:normal;font-weight:500;font-stretch:normal;font-size:6.3903513px;font-family:'Futura PT';-inkscape-font-specification:'Futura PT Medium';fill:#ffffff;stroke-width:0.95855266px"
       id="path5453" />
    <path
       d="m -874.17834,359.03888 h 0.83075 v -1.94906 l 1.50173,-2.3133 h -0.98411 l -0.91382,1.48256 -0.91382,-1.48256 h -0.98412 l 1.46339,2.3133 z"
       style="font-style:normal;font-variant:normal;font-weight:500;font-stretch:normal;font-size:6.3903513px;font-family:'Futura PT';-inkscape-font-specification:'Futura PT Medium';fill:#ffffff;stroke-width:0.95855266px"
       id="path5455" />
  </g>
  <g
     transform="matrix(0.27602379,0,0,0.27602379,257.54107,2.5725144)"
     id="g1736"
     style="opacity:0.7;fill:#ffffff;stroke-width:0.91882312">
    <g
       aria-label="sonus dept."
       style="font-style:normal;font-variant:normal;font-weight:normal;font-stretch:normal;font-size:12.78070068px;line-height:125%;font-family:'Squared Display';-inkscape-font-specification:'Squared Display';letter-spacing:0px;word-spacing:0px;fill:#ffffff;fill-opacity:1;stroke:none;stroke-width:0.9585526px;stroke-linecap:butt;stroke-linejoin:miter;stroke-opacity:1"
       id="text4639-3">
      <path
         d="m -916.33104,336.95691 c -0.70294,-0.53679 -1.35475,-0.58791 -1.76374,-0.58791 -0.44732,0 -1.00967,0.0511 -1.44422,0.3962 -0.31951,0.26839 -0.57513,0.71572 -0.57513,1.25251 0,0.44732 0.16615,0.7924 0.42177,1.0608 0.33229,0.34507 0.7924,0.524 1.1886,0.66459 l 0.35786,0.12781 c 0.20449,0.0767 0.48567,0.21727 0.48567,0.56235 0,0.38342 -0.3323,0.60069 -0.76684,0.60069 -0.46011,0 -0.92022,-0.28117 -1.22695,-0.63903 l -0.81797,0.94577 c 0.34508,0.37064 0.9969,0.92021 2.14716,0.92021 0.67738,0 1.21417,-0.17893 1.66149,-0.58791 0.44733,-0.40898 0.61348,-0.90743 0.61348,-1.40588 0,-0.35786 -0.11503,-0.69016 -0.28118,-0.92021 -0.31952,-0.43454 -0.97133,-0.65182 -1.40588,-0.7924 l -0.37064,-0.11503 c -0.43454,-0.14059 -0.49844,-0.35786 -0.49844,-0.49845 0,-0.26839 0.23005,-0.44732 0.60069,-0.44732 0.16615,0 0.53679,0.0256 0.90743,0.37064 z"
         style="font-style:normal;font-variant:normal;font-weight:500;font-stretch:normal;font-size:12.78070068px;font-family:'Futura PT';-inkscape-font-specification:'Futura PT Medium';fill:#ffffff;stroke-width:0.9585526px"
         id="path5414" />
      <path
         d="m -912.05849,336.369 c -1.04802,0 -1.76374,0.34508 -2.23662,0.77962 -0.54957,0.49845 -0.933,1.26529 -0.933,2.17272 0,0.89465 0.38343,1.66149 0.933,2.15994 0.47288,0.43454 1.1886,0.77962 2.23662,0.77962 1.04802,0 1.76374,-0.34508 2.23662,-0.77962 0.54957,-0.49845 0.93299,-1.26529 0.93299,-2.15994 0,-0.90743 -0.38342,-1.67427 -0.93299,-2.17272 -0.47288,-0.43454 -1.1886,-0.77962 -2.23662,-0.77962 z m 0,4.51158 c -0.90743,0 -1.55925,-0.71571 -1.55925,-1.55924 0,-0.86909 0.6646,-1.57203 1.55925,-1.57203 0.89465,0 1.55924,0.70294 1.55924,1.57203 0,0.84353 -0.65181,1.55924 -1.55924,1.55924 z"
         style="font-style:normal;font-variant:normal;font-weight:500;font-stretch:normal;font-size:12.78070068px;font-family:'Futura PT';-inkscape-font-specification:'Futura PT Medium';fill:#ffffff;stroke-width:0.9585526px"
         id="path5416" />
      <path
         d="m -907.6829,342.08197 h 1.55925 v -2.82453 c 0,-0.31952 0.0128,-0.71572 0.24283,-1.07358 0.23005,-0.34508 0.54957,-0.48567 0.95855,-0.48567 0.15337,0 0.48567,0.0256 0.7285,0.28118 0.28118,0.29395 0.29396,0.77962 0.29396,1.08635 v 3.01625 h 1.55924 v -3.47635 c 0,-0.53679 -0.0511,-1.08636 -0.43454,-1.55925 -0.43454,-0.53679 -1.15026,-0.67737 -1.63593,-0.67737 -0.89465,0 -1.41866,0.48566 -1.71261,0.89465 v -0.71572 h -1.55925 z"
         style="font-style:normal;font-variant:normal;font-weight:500;font-stretch:normal;font-size:12.78070068px;font-family:'Futura PT';-inkscape-font-specification:'Futura PT Medium';fill:#ffffff;stroke-width:0.9585526px"
         id="path5418" />
      <path
         d="m -900.86819,336.54793 v 3.38688 c 0,0.49845 0.0639,1.16305 0.67738,1.69984 0.51123,0.44732 1.32919,0.62625 2.00657,0.62625 0.67737,0 1.49534,-0.17893 2.00657,-0.62625 0.61347,-0.53679 0.67737,-1.20139 0.67737,-1.69984 v -3.38688 h -1.55924 v 3.13127 c 0,0.29395 -0.0256,0.69016 -0.3323,0.97133 -0.19171,0.16615 -0.49845,0.28118 -0.7924,0.28118 -0.29396,0 -0.6007,-0.11503 -0.79241,-0.28118 -0.30673,-0.28117 -0.33229,-0.67738 -0.33229,-0.97133 v -3.13127 z"
         style="font-style:normal;font-variant:normal;font-weight:500;font-stretch:normal;font-size:12.78070068px;font-family:'Futura PT';-inkscape-font-specification:'Futura PT Medium';fill:#ffffff;stroke-width:0.9585526px"
         id="path5420" />
      <path
         d="m -890.24543,336.95691 c -0.70294,-0.53679 -1.35475,-0.58791 -1.76374,-0.58791 -0.44732,0 -1.00967,0.0511 -1.44422,0.3962 -0.31951,0.26839 -0.57513,0.71572 -0.57513,1.25251 0,0.44732 0.16615,0.7924 0.42177,1.0608 0.33229,0.34507 0.7924,0.524 1.1886,0.66459 l 0.35786,0.12781 c 0.20449,0.0767 0.48567,0.21727 0.48567,0.56235 0,0.38342 -0.3323,0.60069 -0.76685,0.60069 -0.4601,0 -0.92021,-0.28117 -1.22694,-0.63903 l -0.81797,0.94577 c 0.34508,0.37064 0.9969,0.92021 2.14716,0.92021 0.67738,0 1.21417,-0.17893 1.66149,-0.58791 0.44733,-0.40898 0.61348,-0.90743 0.61348,-1.40588 0,-0.35786 -0.11503,-0.69016 -0.28118,-0.92021 -0.31952,-0.43454 -0.97133,-0.65182 -1.40588,-0.7924 l -0.37064,-0.11503 c -0.43454,-0.14059 -0.49844,-0.35786 -0.49844,-0.49845 0,-0.26839 0.23005,-0.44732 0.60069,-0.44732 0.16615,0 0.53679,0.0256 0.90743,0.37064 z"
         style="font-style:normal;font-variant:normal;font-weight:500;font-stretch:normal;font-size:12.78070068px;font-family:'Futura PT';-inkscape-font-specification:'Futura PT Medium';fill:#ffffff;stroke-width:0.9585526px"
         id="path5422" />
      <path
         d="m -881.64761,337.26365 c -0.52401,-0.81797 -1.35476,-0.89465 -1.77652,-0.89465 -1.63593,0 -2.74785,1.30363 -2.74785,2.93956 0,1.62315 1.1247,2.95234 2.82453,2.95234 0.3962,0 1.13748,-0.0895 1.69984,-0.89465 v 0.71572 h 1.55924 v -9.31713 h -1.55924 z m -1.38032,0.48566 c 0.89465,0 1.53368,0.67738 1.53368,1.55925 0,0.88187 -0.63903,1.57202 -1.53368,1.57202 -0.89465,0 -1.53368,-0.69015 -1.53368,-1.57202 0,-0.88187 0.63903,-1.55925 1.53368,-1.55925 z"
         style="font-style:normal;font-variant:normal;font-weight:500;font-stretch:normal;font-size:12.78070068px;font-family:'Futura PT';-inkscape-font-specification:'Futura PT Medium';fill:#ffffff;stroke-width:0.9585526px"
         id="path5424" />
      <path
         d="m -874.60145,340.30545 c -0.25562,0.44733 -0.70294,0.7285 -1.29085,0.7285 -0.6007,0 -0.94578,-0.29395 -1.11193,-0.52401 -0.17893,-0.24283 -0.26839,-0.60069 -0.26839,-0.93299 h 4.14095 v -0.1278 c 0,-0.6007 -0.0767,-1.46978 -0.6646,-2.17272 -0.38342,-0.46011 -1.03524,-0.90743 -2.15994,-0.90743 -0.66459,0 -1.43144,0.14058 -2.08325,0.77962 -0.3962,0.3962 -0.84353,1.07358 -0.84353,2.17272 0,0.86909 0.25562,1.58481 0.86909,2.15994 0.54957,0.52401 1.22695,0.77962 2.1216,0.77962 1.92988,0 2.55614,-1.31641 2.72228,-1.72539 z m -2.62005,-1.72539 c 0.12781,-0.74128 0.7285,-1.11192 1.30363,-1.11192 0.57514,0 1.18861,0.35786 1.31642,1.11192 z"
         style="font-style:normal;font-variant:normal;font-weight:500;font-stretch:normal;font-size:12.78070068px;font-family:'Futura PT';-inkscape-font-specification:'Futura PT Medium';fill:#ffffff;stroke-width:0.9585526px"
         id="path5426" />
      <path
         d="m -870.37763,341.36625 c 0.61347,0.83075 1.39309,0.89465 1.77652,0.89465 0.81796,0 1.457,-0.31952 1.87876,-0.71572 0.31952,-0.30674 0.86909,-0.98411 0.86909,-2.23662 0,-1.09914 -0.42177,-1.7893 -0.83075,-2.19828 -0.62625,-0.62626 -1.40588,-0.74128 -1.89154,-0.74128 -1.02246,0 -1.55925,0.54957 -1.80208,0.89465 v -0.71572 h -1.55925 v 8.46082 h 1.55925 z m 1.38031,-3.61694 c 0.37064,0 0.77963,0.14059 1.0608,0.3962 0.30674,0.29396 0.47289,0.75407 0.47289,1.16305 0,0.40898 -0.15337,0.86909 -0.48567,1.17582 -0.20449,0.19171 -0.53679,0.3962 -1.04802,0.3962 -0.48566,0 -0.81796,-0.19171 -1.02245,-0.37064 -0.30674,-0.26839 -0.51123,-0.69015 -0.51123,-1.20138 0,-0.51123 0.17893,-0.89465 0.52401,-1.18861 0.28117,-0.25561 0.60069,-0.37064 1.00967,-0.37064 z"
         style="font-style:normal;font-variant:normal;font-weight:500;font-stretch:normal;font-size:12.78070068px;font-family:'Futura PT';-inkscape-font-specification:'Futura PT Medium';fill:#ffffff;stroke-width:0.9585526px"
         id="path5428" />
      <path
         d="m -862.01506,337.87712 v -1.32919 h -1.07358 v -1.89155 h -1.55924 v 1.89155 h -0.61348 v 1.32919 h 0.61348 v 4.20485 h 1.55924 v -4.20485 z"
         style="font-style:normal;font-variant:normal;font-weight:500;font-stretch:normal;font-size:12.78070068px;font-family:'Futura PT';-inkscape-font-specification:'Futura PT Medium';fill:#ffffff;stroke-width:0.9585526px"
         id="path5430" />
      <path
         d="m -861.33089,341.25122 c 0,0.56236 0.43454,0.9969 0.99689,0.9969 0.56235,0 0.9969,-0.43454 0.9969,-0.9969 0,-0.56235 -0.43455,-0.99689 -0.9969,-0.99689 -0.56235,0 -0.99689,0.43454 -0.99689,0.99689 z"
         style="font-style:normal;font-variant:normal;font-weight:500;font-stretch:normal;font-size:12.78070068px;font-family:'Futura PT';-inkscape-font-specification:'Futura PT Medium';fill:#ffffff;stroke-width:0.9585526px"
         id="path5432" />
    </g>
  </g>
  <path
     style="opacity:0.9;fill:#e3dbdb;fill-opacity:1;fill-rule:nonzero;stroke:none;stroke-width:0.27081186"
     d="m 16.271864,16.502762 c 0,-0.425594 -0.406362,-0.773323 -0.902184,-0.773323 H 8.4415937 c -0.4958491,0 -0.9009693,0.347729 -0.9009693,0.773323 v 9.035619 c 0,0.425596 0.4051202,0.774391 0.9009693,0.774391 H 15.36968 c 0.495822,0 0.902184,-0.348795 0.902184,-0.774391 z m 0,0"
     id="path25259" />
  <path
     style="opacity:0.9;fill:#212121;fill-opacity:1;fill-rule:nonzero;stroke:none;stroke-width:0.27081186"
     d="m 11.244781,33.70067 c 0,-0.425596 -0.406362,-0.773325 -0.902184,-0.773325 H 3.4157525 c -0.4958491,0 -0.9022113,0.347729 -0.9022113,0.773325 v 9.035617 c 0,0.425598 0.4063622,0.774393 0.9022113,0.774393 h 6.9268445 c 0.495822,0 0.902184,-0.348795 0.902184,-0.774393 z m 0,0"
     id="path25247-6" />
  <path
     style="opacity:0.9;fill:#212121;fill-opacity:1;fill-rule:nonzero;stroke:none;stroke-width:0.27081186"
     d="m 21.298947,33.70067 c 0,-0.425596 -0.406362,-0.773325 -0.902183,-0.773325 h -6.928087 c -0.495849,0 -0.900969,0.347729 -0.900969,0.773325 v 9.035617 c 0,0.425598 0.40512,0.774393 0.900969,0.774393 h 6.928087 c 0.495821,0 0.902183,-0.348795 0.902183,-0.774393 z m 0,0"
     id="path25259-7" />
  <path
     style="opacity:0.9;fill:#212121;fill-opacity:1;fill-rule:nonzero;stroke:none;stroke-width:0.27081186"
     d="m 11.244781,50.898594 c 0,-0.425595 -0.406362,-0.773327 -0.902184,-0.773327 H 3.4157525 c -0.4958491,0 -0.9022113,0.347732 -0.9022113,0.773327 v 9.035617 c 0,0.425598 0.4063622,0.774393 0.9022113,0.774393 h 6.9268445 c 0.495822,0 0.902184,-0.348795 0.902184,-0.774393 z m 0,0"
     id="path25247-6-1" />
  <path
     style="opacity:0.9;fill:#212121;fill-opacity:1;fill-rule:nonzero;stroke:none;stroke-width:0.27081186"
     d="m 21.298947,50.898594 c 0,-0.425595 -0.406362,-0.773327 -0.902183,-0.773327 h -6.928087 c -0.495849,0 -0.900969,0.347732 -0.900969,0.773327 v 9.035617 c 0,0.425598 0.40512,0.774393 0.900969,0.774393 h 6.928087 c 0.495821,0 0.902183,-0.348795 0.902183,-0.774393 z m 0,0"
     id="path25259-7-8" />
  <g
     id="text5856"
     style="font-style:normal;font-variant:normal;font-weight:500;font-stretch:normal;font-size:11.50263214px;line-height:125%;font-family:'Futura PT';-inkscape-font-specification:'Futura PT Medium';letter-spacing:0px;word-spacing:0px;fill:#000000;fill-opacity:1;stroke:none;stroke-width:0.95855272px;stroke-linecap:butt;stroke-linejoin:miter;stroke-opacity:1"
     transform="matrix(0.27602379,0,0,0.27602379,304.40203,5.601059)" />
  <g
     id="text911"
     style="font-style:normal;font-variant:normal;font-weight:normal;font-stretch:normal;font-size:3.52777791px;line-height:125%;font-family:Akashi;-inkscape-font-specification:Akashi;letter-spacing:0px;word-spacing:0px;fill:#ffffff;fill-opacity:1;stroke:none;stroke-width:0.26458335px;stroke-linecap:butt;stroke-linejoin:miter;stroke-opacity:1"
     aria-label="OSCULUM">
    <path
       id="path1015"
       style="fill:#ffffff;stroke-width:0.26458335px"
       d="m 5.6189523,5.8599248 q 0,0.3445096 -0.3445096,0.3445096 H 3.8964045 q -0.3445096,0 -0.3445096,-0.3445096 V 3.9651222 q 0,-0.3445095 0.3445096,-0.3445095 h 1.3780382 q 0.3445096,0 0.3445096,0.3445095 z M 4.0686592,4.137377 V 5.6876701 H 5.1021879 V 4.137377 Z" />
    <path
       id="path1017"
       style="fill:#ffffff;stroke-width:0.26458335px"
       d="M 7.859987,4.1356545 H 6.4802262 v 0.5184869 h 1.2057835 q 0.3445095,0 0.3445095,0.342787 v 0.8612739 q 0,0.3445095 -0.3445095,0.3445095 H 5.9634619 V 5.6876701 l 1.550293,-0.00172 V 5.1691832 H 6.3079714 q -0.3445095,0 -0.3445095,-0.3427871 V 3.9651222 q 0,-0.3462321 0.3445095,-0.3462321 h 1.7225478 z" />
    <path
       id="path1019"
       style="fill:#ffffff;stroke-width:0.26458335px"
       d="M 9.9253219,4.137377 H 8.8917932 V 5.6876701 H 10.097577 V 6.2044344 H 8.7195384 q -0.3445096,0 -0.3445096,-0.3445096 V 3.9651222 q 0,-0.3445095 0.3445096,-0.3445095 h 1.3780386 z" />
    <path
       id="path1021"
       style="fill:#ffffff;stroke-width:0.26458335px"
       d="m 10.95885,3.6206127 v 2.0670574 h 1.033529 l 0.0017,-2.0670574 h 0.516764 v 2.2393121 q 0,0.3445096 -0.34451,0.3445096 h -1.37976 q -0.34451,0 -0.34451,-0.3445096 V 3.6206127 Z" />
    <path
       id="path1023"
       style="fill:#ffffff;stroke-width:0.26458335px"
       d="m 14.576201,6.2044344 h -1.378039 q -0.344509,0 -0.344509,-0.3445096 V 3.6206127 h 0.516764 v 2.0670574 h 1.205784 z" />
    <path
       id="path1025"
       style="fill:#ffffff;stroke-width:0.26458335px"
       d="m 15.437475,3.6206127 v 2.0670574 h 1.033528 l 0.0017,-2.0670574 h 0.516764 v 2.2393121 q 0,0.3445096 -0.344509,0.3445096 H 15.26522 q -0.34451,0 -0.34451,-0.3445096 V 3.6206127 Z" />
    <path
       id="path1027"
       style="fill:#ffffff;stroke-width:0.26458335px"
       d="M 19.056547,4.137377 V 6.2044344 H 18.539783 V 4.137377 H 17.849041 V 6.2044344 H 17.332277 V 3.9651222 q 0,-0.3445095 0.34451,-0.3445095 h 2.239312 q 0.344509,0 0.344509,0.3445095 v 2.2393122 h -0.516764 l -0.0017,-2.0670574 z" />
  </g>
  <text
     id="text915"
     y="72.763687"
     x="48.112926"
     style="font-style:normal;font-variant:normal;font-weight:normal;font-stretch:normal;font-size:2.46944451px;line-height:125%;font-family:Akashi;-inkscape-font-specification:Akashi;letter-spacing:0px;word-spacing:0px;fill:#000000;fill-opacity:1;stroke:none;stroke-width:0.26458335px;stroke-linecap:butt;stroke-linejoin:miter;stroke-opacity:1"
     xml:space="preserve"><tspan
       style="stroke-width:0.26458335px"
       y="74.988052"
       x="48.112926"
       id="tspan913"></tspan><tspan
       id="tspan917"
       style="stroke-width:0.26458335px"
       y="78.07486"
       x="48.112926" /><tspan
       id="tspan919"
       style="stroke-width:0.26458335px"
       y="81.161659"
       x="48.112926" /></text>
  <g
     id="text923"
     style="font-style:normal;font-variant:normal;font-weight:normal;font-stretch:normal;font-size:2.46944451px;line-height:125%;font-family:Akashi;-inkscape-font-specification:Akashi;letter-spacing:0px;word-spacing:0px;fill:#ffffff;fill-opacity:1;stroke:none;stroke-width:0.26458335px;stroke-linecap:butt;stroke-linejoin:miter;stroke-opacity:1"
     aria-label="1V/OCT">
    <path
       id="path1002"
       style="fill:#ffffff;stroke-width:0.26458335px"
       d="m 7.863862,27.309723 h 0.2435683 q 0.2411567,0 0.2411567,0.241157 v 1.567519 H 7.9868519 v -1.44694 H 7.7456953 Z" />
    <path
       id="path1004"
       style="fill:#ffffff;stroke-width:0.26458335px"
       d="M 9.3747087,28.745812 9.7955271,27.309723 H 10.157262 L 9.6267175,29.118399 H 9.1214942 L 8.5909495,27.309723 h 0.361735 z" />
    <path
       id="path1006"
       style="fill:#ffffff;stroke-width:0.26458335px"
       d="m 10.279046,29.238977 0.771702,-2.049832 h 0.361735 l -0.771702,2.049832 z" />
    <path
       id="path1008"
       style="fill:#ffffff;stroke-width:0.26458335px"
       d="m 13.052348,28.877242 q 0,0.241157 -0.241156,0.241157 h -0.964627 q -0.241157,0 -0.241157,-0.241157 V 27.55088 q 0,-0.241157 0.241157,-0.241157 h 0.964627 q 0.241156,0 0.241156,0.241157 z m -1.085205,-1.205783 v 1.085205 h 0.72347 v -1.085205 z" />
    <path
       id="path1010"
       style="fill:#ffffff;stroke-width:0.26458335px"
       d="m 14.37871,27.671459 h -0.72347 v 1.085205 h 0.844049 v 0.361735 h -0.964627 q -0.241157,0 -0.241157,-0.241157 V 27.55088 q 0,-0.241157 0.241157,-0.241157 h 0.964627 z" />
    <path
       id="path1012"
       style="fill:#ffffff;stroke-width:0.26458335px"
       d="m 16.066807,27.309723 v 0.361736 h -0.482313 v 1.44694 h -0.361735 v -1.44694 h -0.482314 v -0.361736 z" />
  </g>
  <g
     id="text927"
     style="font-style:normal;font-variant:normal;font-weight:normal;font-stretch:normal;font-size:2.46944451px;line-height:125%;font-family:Akashi;-inkscape-font-specification:Akashi;letter-spacing:0px;word-spacing:0px;fill:#ffffff;fill-opacity:1;stroke:none;stroke-width:0.26458335px;stroke-linecap:butt;stroke-linejoin:miter;stroke-opacity:1"
     aria-label="WAVE 1">
    <path
       id="path991"
       style="fill:#ffffff;stroke-width:0.26458335px"
       d="M 3.8062221,45.857816 H 4.286124 l 0.00121,-1.44694 h 0.3617351 v 1.567518 q 0,0.241157 -0.2411567,0.241157 H 2.8403896 q -0.2411567,0 -0.2411567,-0.241157 v -1.567518 h 0.361735 v 1.44694 h 0.4835192 v -1.44694 h 0.361735 z" />
    <path
       id="path993"
       style="fill:#ffffff;stroke-width:0.26458335px"
       d="m 4.8902214,46.219551 v -1.568724 q 0,-0.241157 0.2411566,-0.241157 h 0.9646268 q 0.2411567,0 0.2411567,0.241157 v 1.568724 H 5.9754265 V 45.736032 H 5.2519564 v 0.483519 z M 5.9754265,44.771405 H 5.2519564 v 0.602892 h 0.7234701 z" />
    <path
       id="path995"
       style="fill:#ffffff;stroke-width:0.26458335px"
       d="M 7.3620776,45.846964 7.782896,44.410876 H 8.1446311 L 7.6140863,46.219551 H 7.1088631 L 6.5783184,44.410876 h 0.361735 z" />
    <path
       id="path997"
       style="fill:#ffffff;stroke-width:0.26458335px"
       d="m 8.6281499,45.496081 v 0.361735 h 0.8440484 v 0.361735 H 8.5075716 q -0.2411567,0 -0.2411567,-0.241157 v -1.326361 q 0,-0.241157 0.2411567,-0.241157 h 0.9646267 v 0.361735 H 8.6281499 v 0.361735 H 9.1104633 L 8.989885,45.496081 Z" />
    <path
       id="path999"
       style="fill:#ffffff;stroke-width:0.26458335px"
       d="m 10.674365,44.410876 h 0.243568 q 0.241157,0 0.241157,0.241157 v 1.567518 h -0.361735 v -1.44694 h -0.241157 z" />
  </g>
  <g
     id="text931"
     style="font-style:normal;font-variant:normal;font-weight:normal;font-stretch:normal;font-size:2.46944451px;line-height:125%;font-family:Akashi;-inkscape-font-specification:Akashi;letter-spacing:0px;word-spacing:0px;fill:#ffffff;fill-opacity:1;stroke:none;stroke-width:0.26458335px;stroke-linecap:butt;stroke-linejoin:miter;stroke-opacity:1"
     aria-label="WAVE 2">
    <path
       id="path980"
       style="fill:#ffffff;stroke-width:0.26458335px"
       d="m 13.437761,45.857816 h 0.479902 l 0.0012,-1.44694 h 0.361735 v 1.567518 q 0,0.241157 -0.241157,0.241157 h -1.567518 q -0.241157,0 -0.241157,-0.241157 v -1.567518 h 0.361735 v 1.44694 h 0.483519 v -1.44694 h 0.361735 z" />
    <path
       id="path982"
       style="fill:#ffffff;stroke-width:0.26458335px"
       d="m 14.52176,46.219551 v -1.568724 q 0,-0.241157 0.241157,-0.241157 h 0.964627 q 0.241157,0 0.241157,0.241157 v 1.568724 h -0.361735 v -0.483519 h -0.723471 v 0.483519 z m 1.085206,-1.448146 h -0.723471 v 0.602892 h 0.723471 z" />
    <path
       id="path984"
       style="fill:#ffffff;stroke-width:0.26458335px"
       d="m 16.993617,45.846964 0.420818,-1.436088 h 0.361735 l -0.530545,1.808675 h -0.505223 l -0.530545,-1.808675 h 0.361735 z" />
    <path
       id="path986"
       style="fill:#ffffff;stroke-width:0.26458335px"
       d="m 18.259689,45.496081 v 0.361735 h 0.844048 v 0.361735 h -0.964626 q -0.241157,0 -0.241157,-0.241157 v -1.326361 q 0,-0.241157 0.241157,-0.241157 h 0.964626 v 0.361735 h -0.844048 v 0.361735 h 0.482313 l -0.120578,0.361735 z" />
    <path
       id="path988"
       style="fill:#ffffff;stroke-width:0.26458335px"
       d="m 21.635883,46.218345 h -1.44694 v -0.845254 q 0,-0.239951 0.241157,-0.239951 h 0.844048 v -0.361735 l -0.964627,0.0012 -0.120578,-0.362941 h 1.205783 q 0.241157,0 0.241157,0.241157 v 0.602892 q 0,0.23995 -0.241157,0.23995 h -0.844048 v 0.362941 l 1.085205,-0.0012 z" />
  </g>
  <g
     id="text935"
     style="font-style:normal;font-variant:normal;font-weight:normal;font-stretch:normal;font-size:2.46944451px;line-height:125%;font-family:Akashi;-inkscape-font-specification:Akashi;letter-spacing:0px;word-spacing:0px;fill:#ffffff;fill-opacity:1;stroke:none;stroke-width:0.26458335px;stroke-linecap:butt;stroke-linejoin:miter;stroke-opacity:1"
     aria-label="WAVE 3">
    <path
       id="path969"
       style="fill:#ffffff;stroke-width:0.26458335px"
       d="m 3.6876158,63.055742 h 0.4799018 l 0.00121,-1.446941 h 0.3617351 v 1.567519 q 0,0.241157 -0.2411567,0.241157 H 2.7217833 q -0.2411567,0 -0.2411567,-0.241157 v -1.567519 h 0.361735 v 1.446941 h 0.4835192 v -1.446941 h 0.361735 z" />
    <path
       id="path971"
       style="fill:#ffffff;stroke-width:0.26458335px"
       d="m 4.771615,63.417477 v -1.568725 q 0,-0.241156 0.2411567,-0.241156 h 0.9646268 q 0.2411567,0 0.2411567,0.241156 v 1.568725 H 5.8568201 v -0.48352 h -0.72347 v 0.48352 z m 1.0852051,-1.448146 h -0.72347 v 0.602891 h 0.72347 z" />
    <path
       id="path973"
       style="fill:#ffffff;stroke-width:0.26458335px"
       d="m 7.2434713,63.04489 0.4208184,-1.436089 h 0.361735 L 7.49548,63.417477 H 6.9902567 L 6.459712,61.608801 h 0.3617351 z" />
    <path
       id="path975"
       style="fill:#ffffff;stroke-width:0.26458335px"
       d="m 8.5095436,62.694007 v 0.361735 H 9.353592 v 0.361735 H 8.3889652 q -0.2411566,0 -0.2411566,-0.241157 v -1.326362 q 0,-0.241157 0.2411566,-0.241157 H 9.353592 v 0.361736 H 8.5095436 v 0.361735 H 8.991857 l -0.1205784,0.361735 z" />
    <path
       id="path977"
       style="fill:#ffffff;stroke-width:0.26458335px"
       d="m 11.282846,62.332272 v -0.361735 h -0.844049 v -0.361736 h 0.964627 q 0.241157,0 0.241157,0.241157 v 1.326362 q 0,0.241157 -0.241157,0.241157 h -0.964627 v -0.361735 h 0.844049 v -0.361735 h -0.602892 l 0.120579,-0.361735 z" />
  </g>
  <g
     id="text939"
     style="font-style:normal;font-variant:normal;font-weight:normal;font-stretch:normal;font-size:2.46944451px;line-height:125%;font-family:Akashi;-inkscape-font-specification:Akashi;letter-spacing:0px;word-spacing:0px;fill:#ffffff;fill-opacity:1;stroke:none;stroke-width:0.26458335px;stroke-linecap:butt;stroke-linejoin:miter;stroke-opacity:1"
     aria-label="WAVE 4">
    <path
       id="path958"
       style="fill:#ffffff;stroke-width:0.26458335px"
       d="m 13.488562,63.051511 h 0.479901 l 0.0012,-1.44694 h 0.361735 v 1.567518 q 0,0.241157 -0.241156,0.241157 h -1.567519 q -0.241157,0 -0.241157,-0.241157 v -1.567518 h 0.361735 v 1.44694 h 0.48352 v -1.44694 h 0.361735 z" />
    <path
       id="path960"
       style="fill:#ffffff;stroke-width:0.26458335px"
       d="m 14.572561,63.413246 v -1.568724 q 0,-0.241157 0.241156,-0.241157 h 0.964627 q 0.241157,0 0.241157,0.241157 v 1.568724 h -0.361735 v -0.483519 h -0.72347 v 0.483519 z M 15.657766,61.9651 h -0.72347 v 0.602892 h 0.72347 z" />
    <path
       id="path962"
       style="fill:#ffffff;stroke-width:0.26458335px"
       d="m 17.044417,63.040659 0.420818,-1.436088 h 0.361735 l -0.530544,1.808675 h -0.505223 l -0.530545,-1.808675 h 0.361735 z" />
    <path
       id="path964"
       style="fill:#ffffff;stroke-width:0.26458335px"
       d="m 18.310489,62.689776 v 0.361735 h 0.844049 v 0.361735 h -0.964627 q -0.241157,0 -0.241157,-0.241157 v -1.326361 q 0,-0.241157 0.241157,-0.241157 h 0.964627 v 0.361735 h -0.844049 v 0.361735 h 0.482314 l -0.120579,0.361735 z" />
    <path
       id="path966"
       style="fill:#ffffff;stroke-width:0.26458335px"
       d="m 21.686683,61.604571 v 1.808675 H 21.324948 V 62.930933 H 20.4809 q -0.241157,0 -0.241157,-0.241157 v -1.085205 h 0.361735 v 0.964627 h 0.72347 v -0.964627 z" />
  </g>
  <g
     id="text943"
     style="font-style:normal;font-variant:normal;font-weight:normal;font-stretch:normal;font-size:2.46944451px;line-height:125%;font-family:Akashi;-inkscape-font-specification:Akashi;letter-spacing:0px;word-spacing:0px;fill:#ffffff;fill-opacity:1;stroke:none;stroke-width:0.26458335px;stroke-linecap:butt;stroke-linejoin:miter;stroke-opacity:1"
     aria-label="OCTAVE">
    <path
       id="path945"
       style="fill:#ffffff;stroke-width:0.26458335px"
       d="m 8.7109177,90.163819 q 0,0.241157 -0.2411567,0.241157 H 7.5051342 q -0.2411567,0 -0.2411567,-0.241157 v -1.326362 q 0,-0.241156 0.2411567,-0.241156 H 8.469761 q 0.2411567,0 0.2411567,0.241156 z M 7.6257126,88.958036 v 1.085205 h 0.72347 v -1.085205 z" />
    <path
       id="path947"
       style="fill:#ffffff;stroke-width:0.26458335px"
       d="M 10.03728,88.958036 H 9.3138094 v 1.085205 h 0.8440486 v 0.361735 H 9.1932311 q -0.2411567,0 -0.2411567,-0.241157 v -1.326362 q 0,-0.241156 0.2411567,-0.241156 h 0.9646269 z" />
    <path
       id="path949"
       style="fill:#ffffff;stroke-width:0.26458335px"
       d="m 11.725376,88.596301 v 0.361735 h -0.482313 v 1.44694 h -0.361735 v -1.44694 h -0.482314 v -0.361735 z" />
    <path
       id="path951"
       style="fill:#ffffff;stroke-width:0.26458335px"
       d="m 11.966533,90.404976 v -1.568724 q 0,-0.241157 0.241157,-0.241157 h 0.964627 q 0.241156,0 0.241156,0.241157 v 1.568724 h -0.361735 v -0.483519 h -0.72347 v 0.483519 z m 1.085205,-1.448146 h -0.72347 v 0.602892 h 0.72347 z" />
    <path
       id="path953"
       style="fill:#ffffff;stroke-width:0.26458335px"
       d="m 14.438389,90.032389 0.420819,-1.436088 h 0.361735 l -0.530545,1.808675 H 14.185175 L 13.65463,88.596301 h 0.361735 z" />
    <path
       id="path955"
       style="fill:#ffffff;stroke-width:0.26458335px"
       d="m 15.704462,89.681506 v 0.361735 h 0.844049 v 0.361735 h -0.964627 q -0.241157,0 -0.241157,-0.241157 v -1.326362 q 0,-0.241156 0.241157,-0.241156 h 0.964627 v 0.361735 h -0.844049 v 0.361735 h 0.482314 l -0.120579,0.361735 z" />
  </g>
</svg>
