<svg id="9582b29b-550e-4f47-95e2-5e36c47d02f9" data-name="svg8" xmlns="http://www.w3.org/2000/svg" xmlns:xlink="http://www.w3.org/1999/xlink" viewBox="0 0 90 380"><defs><linearGradient id="5efdebbb-f5bd-4c66-9a6f-517f079fa4bb" x1="1.46" y1="8.02" x2="14.75" y2="8.02" gradientUnits="userSpaceOnUse"><stop offset="0" stop-color="#b5b5b5"/><stop offset="1"/></linearGradient><linearGradient id="a31f8758-2f90-4141-98b9-810bbc817b51" x1="13.63" y1="8.02" x2="2.59" y2="8.02" gradientUnits="userSpaceOnUse"><stop offset="0" stop-color="#bfbfbf"/><stop offset="1" stop-color="#2b2b2b"/></linearGradient><linearGradient id="d849a464-8b4b-4f76-a72b-3096a77e3ac9" x1="12.58" y1="8.02" x2="3.64" y2="8.02" gradientUnits="userSpaceOnUse"><stop offset="0" stop-color="#363636"/><stop offset="1"/></linearGradient><linearGradient id="626adce7-fb29-4dea-8b8b-72ec25fae70d" x1="4.18" y1="8.02" x2="12.03" y2="8.02" gradientUnits="userSpaceOnUse"><stop offset="0" stop-color="#212121"/><stop offset="1"/></linearGradient><linearGradient id="3c119666-8769-4774-a506-1be97a88aed7" x1="1.46" y1="370.86" x2="14.75" y2="370.86" xlink:href="#5efdebbb-f5bd-4c66-9a6f-517f079fa4bb"/><linearGradient id="5b49dd76-6052-4e88-9da6-a4868c78f3e3" x1="13.63" y1="370.86" x2="2.59" y2="370.86" xlink:href="#a31f8758-2f90-4141-98b9-810bbc817b51"/><linearGradient id="88c3ce67-5c90-49bd-813c-91b6c7d89079" x1="12.58" y1="370.86" x2="3.64" y2="370.86" xlink:href="#d849a464-8b4b-4f76-a72b-3096a77e3ac9"/><linearGradient id="6a52357d-7cd5-4d26-9795-e140e820e932" x1="4.18" y1="370.86" x2="12.03" y2="370.86" xlink:href="#626adce7-fb29-4dea-8b8b-72ec25fae70d"/><linearGradient id="430744e1-66cd-4856-8a53-2c32489bfdf2" x1="75.92" y1="8.02" x2="89.22" y2="8.02" xlink:href="#5efdebbb-f5bd-4c66-9a6f-517f079fa4bb"/><linearGradient id="3868a1b7-5b06-4978-8b06-225fa0c84dd5" x1="88.09" y1="8.02" x2="77.05" y2="8.02" xlink:href="#a31f8758-2f90-4141-98b9-810bbc817b51"/><linearGradient id="ee49117e-e7ab-471e-a643-56b1cbbd57ea" x1="87.04" y1="8.02" x2="78.1" y2="8.02" xlink:href="#d849a464-8b4b-4f76-a72b-3096a77e3ac9"/><linearGradient id="5cdc887e-58cc-45b6-8f1e-35907c706267" x1="78.65" y1="8.02" x2="86.49" y2="8.02" xlink:href="#626adce7-fb29-4dea-8b8b-72ec25fae70d"/><linearGradient id="3b9249ec-632a-4d7e-bae6-c46f0c8c7c7b" x1="75.92" y1="370.86" x2="89.22" y2="370.86" xlink:href="#5efdebbb-f5bd-4c66-9a6f-517f079fa4bb"/><linearGradient id="b8031dd9-e71d-4882-8d27-72c65b99d8e5" x1="88.09" y1="370.86" x2="77.05" y2="370.86" xlink:href="#a31f8758-2f90-4141-98b9-810bbc817b51"/><linearGradient id="05748fe3-188f-47cc-a1a7-9f3a7e903a92" x1="87.04" y1="370.86" x2="78.1" y2="370.86" xlink:href="#d849a464-8b4b-4f76-a72b-3096a77e3ac9"/><linearGradient id="feb71494-272a-4e89-bd0c-88c9dcb02340" x1="78.65" y1="370.86" x2="86.49" y2="370.86" xlink:href="#626adce7-fb29-4dea-8b8b-72ec25fae70d"/></defs><title>Nullovnik 6-Light</title><path id="f9a244b7-4f97-4e8b-a9b3-b71ba167e713" data-name="rect817" d="M0,0H90V380H0Z" transform="translate(0 0)" style="fill:#929596"/><circle cx="8.1" cy="9.1" r="6.6" style="fill:#303030"/><circle cx="8.1" cy="8" r="6.6" style="fill:url(#5efdebbb-f5bd-4c66-9a6f-517f079fa4bb)"/><circle cx="8.1" cy="8" r="5.5" style="fill:url(#a31f8758-2f90-4141-98b9-810bbc817b51)"/><polygon points="10.3 4.2 5.9 4.2 3.6 8 5.9 11.9 10.3 11.9 12.6 8 10.3 4.2" style="fill:url(#d849a464-8b4b-4f76-a72b-3096a77e3ac9)"/><polygon points="10.1 4.6 6.1 4.6 4.2 8 6.1 11.4 10.1 11.4 12 8 10.1 4.6" style="fill:url(#626adce7-fb29-4dea-8b8b-72ec25fae70d)"/><circle cx="8.1" cy="372" r="6.6" style="fill:#303030"/><circle cx="8.1" cy="370.9" r="6.6" style="fill:url(#3c119666-8769-4774-a506-1be97a88aed7)"/><circle cx="8.1" cy="370.9" r="5.5" style="fill:url(#5b49dd76-6052-4e88-9da6-a4868c78f3e3)"/><polygon points="10.3 367 5.9 367 3.6 370.9 5.9 374.7 10.3 374.7 12.6 370.9 10.3 367" style="fill:url(#88c3ce67-5c90-49bd-813c-91b6c7d89079)"/><polygon points="10.1 367.5 6.1 367.5 4.2 370.9 6.1 374.3 10.1 374.3 12 370.9 10.1 367.5" style="fill:url(#6a52357d-7cd5-4d26-9795-e140e820e932)"/><circle cx="82.6" cy="9.1" r="6.6" style="fill:#303030"/><circle cx="82.6" cy="8" r="6.6" style="fill:url(#430744e1-66cd-4856-8a53-2c32489bfdf2)"/><circle cx="82.6" cy="8" r="5.5" style="fill:url(#3868a1b7-5b06-4978-8b06-225fa0c84dd5)"/><polygon points="84.8 4.2 80.3 4.2 78.1 8 80.3 11.9 84.8 11.9 87 8 84.8 4.2" style="fill:url(#ee49117e-e7ab-471e-a643-56b1cbbd57ea)"/><polygon points="84.5 4.6 80.6 4.6 78.6 8 80.6 11.4 84.5 11.4 86.5 8 84.5 4.6" style="fill:url(#5cdc887e-58cc-45b6-8f1e-35907c706267)"/><circle cx="82.6" cy="372" r="6.6" style="fill:#303030"/><circle cx="82.6" cy="370.9" r="6.6" style="fill:url(#3b9249ec-632a-4d7e-bae6-c46f0c8c7c7b)"/><circle cx="82.6" cy="370.9" r="5.5" style="fill:url(#b8031dd9-e71d-4882-8d27-72c65b99d8e5)"/><polygon points="84.8 367 80.3 367 78.1 370.9 80.3 374.7 84.8 374.7 87 370.9 84.8 367" style="fill:url(#05748fe3-188f-47cc-a1a7-9f3a7e903a92)"/><polygon points="84.5 367.5 80.6 367.5 78.6 370.9 80.6 374.3 84.5 374.3 86.5 370.9 84.5 367.5" style="fill:url(#feb71494-272a-4e89-bd0c-88c9dcb02340)"/><path d="M36.7,370.5a3,3,0,0,0,1.1-2.4H36.5a1.8,1.8,0,0,1-1.7,1.8h0v-1.8H33.3v6.4h1.5v-3.2h0a1.8,1.8,0,0,1,1.8,1.8v1.4H38v-1.4A3.3,3.3,0,0,0,36.7,370.5Z" transform="translate(0 0)" style="fill:#d9d9d9"/><polygon points="51 369.9 49.7 368.6 48.1 370.3 46.4 368.6 46.4 368.6 46.4 368.6 46.4 368.6 45.6 367.8 44.6 368.1 44.3 369.1 46.8 371.6 43.9 374.5 46.4 374.5 48.1 372.9 49.7 374.5 52.3 374.5 49.3 371.6 51 369.9" style="fill:#575757"/><path d="M42.6,366.3a3.2,3.2,0,0,0-3.2,3.2v5h1.8V372h1.4v-1.8H41.2v-.7a1.4,1.4,0,0,1,1.4-1.4,1.5,1.5,0,0,1,1.1.4l.2-1,1-.3h0A3,3,0,0,0,42.6,366.3Z" transform="translate(0 0)" style="fill:#575757"/><path d="M41.7,31.8H38.4a3.7,3.7,0,0,1-3.7-3.7V21.9a3.7,3.7,0,0,1,3.7-3.7h2.1v.9H38.4a2.7,2.7,0,0,0-2.7,2.7V28a2.7,2.7,0,0,0,2.7,2.7h3.3Z" transform="translate(0 0)" style="fill:#282c30"/><rect x="46.4" y="30.6" width="1.6" height="1.3" style="fill:#282c30"/><path d="M46.1,32.4H41.9c-.1,0-.2-.1-.2-.3V30.5c0-.1.1-.2.2-.3h4.2a.3.3,0,0,1,.3.3v1.8C46.4,32.3,46.3,32.4,46.1,32.4Z" transform="translate(0 0)" style="fill:#282c30"/><rect x="48.2" y="30.6" width="0.4" height="1.3" style="fill:#282c30"/><polygon points="50.5 30.4 50.1 30.4 48.9 30.6 48.9 32 50.1 32.2 50.5 32.2 50.9 32 50.9 30.6 50.5 30.4" style="fill:#282c30"/><rect x="50.5" y="14" width="6.1" height="6.37" rx="1.3" ry="1.3" style="fill:#282c30"/><path d="M53.5,19.9a1.8,1.8,0,0,1-1.8-2,4.4,4.4,0,0,1,1.6-3.4h1.2a5,5,0,0,0-1.7,2.1,1,1,0,0,1,.8-.3,1.6,1.6,0,0,1,1.6,1.8A1.6,1.6,0,0,1,53.5,19.9Zm-.1-2.7c-.4,0-.7.5-.7.9a.8.8,0,0,0,.8.9.9.9,0,0,0,.8-.9A.9.9,0,0,0,53.4,17.2Z" transform="translate(0 0)" style="fill:#929596"/><path d="M49.1,28.4H47.6L43.5,22v6.4H41.7V18.2h1.5l4.1,6.4V18.2h1.8Z" transform="translate(0 0)" style="fill:#282c30"/></svg>