<?xml version="1.0" encoding="UTF-8" standalone="no"?>
<!-- Created with Inkscape (http://www.inkscape.org/) -->

<svg
   xmlns:dc="http://purl.org/dc/elements/1.1/"
   xmlns:cc="http://creativecommons.org/ns#"
   xmlns:rdf="http://www.w3.org/1999/02/22-rdf-syntax-ns#"
   xmlns:svg="http://www.w3.org/2000/svg"
   xmlns="http://www.w3.org/2000/svg"
   xmlns:sodipodi="http://sodipodi.sourceforge.net/DTD/sodipodi-0.dtd"
   xmlns:inkscape="http://www.inkscape.org/namespaces/inkscape"
   width="90.134254"
   height="380"
   viewBox="0 0 23.848022 100.54167"
   version="1.1"
   id="svg11003"
   inkscape:version="0.92.2 5c3e80d, 2017-08-06"
   sodipodi:docname="VCO-2.svg">
  <defs
     id="defs10997" />
  <sodipodi:namedview
     id="base"
     pagecolor="#ffffff"
     bordercolor="#666666"
     borderopacity="1.0"
     inkscape:pageopacity="0.0"
     inkscape:pageshadow="2"
     inkscape:zoom="1.979899"
     inkscape:cx="-129.74352"
     inkscape:cy="235.95524"
     inkscape:document-units="mm"
     inkscape:current-layer="layer1"
     showgrid="false"
     fit-margin-top="0"
     fit-margin-left="0"
     fit-margin-right="0"
     fit-margin-bottom="0"
     inkscape:window-width="2560"
     inkscape:window-height="1422"
     inkscape:window-x="0"
     inkscape:window-y="18"
     inkscape:window-maximized="0"
     units="px" />
  <metadata
     id="metadata11000">
    <rdf:RDF>
      <cc:Work
         rdf:about="">
        <dc:format>image/svg+xml</dc:format>
        <dc:type
           rdf:resource="http://purl.org/dc/dcmitype/StillImage" />
        <dc:title></dc:title>
      </cc:Work>
    </rdf:RDF>
  </metadata>
  <g
     inkscape:label="Layer 1"
     inkscape:groupmode="layer"
     id="layer1"
     transform="translate(-61.822472,-54.305105)">
    <path
       inkscape:connector-curvature="0"
       id="path33509"
       d="M 61.895791,54.378424 H 85.597176 V 154.77453 H 61.895791 Z m 0,0"
       style="fill:#e6e6e6;fill-opacity:1;fill-rule:nonzero;stroke:none;stroke-width:0.27602378" />
    <path
       style="fill:#000000;fill-opacity:1;stroke:none;stroke-width:0.27602378"
       d="m 69.454238,61.823653 h 0.0345 c 0.138012,0 0.232897,-0.07332 0.284652,-0.198392 l 0.759063,-1.815719 c 0.01294,-0.03019 0.02588,-0.07332 0.02588,-0.112135 0,-0.142325 -0.112136,-0.245834 -0.250148,-0.245834 -0.120761,0 -0.21133,0.07763 -0.245832,0.159577 l -0.586552,1.518131 -0.577924,-1.50088 c -0.03882,-0.103509 -0.125074,-0.176828 -0.258773,-0.176828 -0.142325,0 -0.254458,0.107822 -0.254458,0.250147 0,0.04313 0.01294,0.08194 0.03019,0.125073 l 0.75044,1.798468 c 0.05175,0.125073 0.15095,0.198392 0.288962,0.198392 z m 0,0"
       id="path6079"
       inkscape:connector-curvature="0" />
    <path
       style="fill:#000000;fill-opacity:1;stroke:none;stroke-width:0.27602378"
       d="m 71.949338,61.827966 c 0.370906,0 0.616739,-0.107822 0.828069,-0.288963 0.04313,-0.04313 0.08626,-0.103509 0.08626,-0.185453 0,-0.129386 -0.112136,-0.232895 -0.241522,-0.232895 -0.06038,0 -0.112134,0.02156 -0.150951,0.05607 -0.146637,0.116448 -0.288962,0.181141 -0.504605,0.181141 -0.396785,0 -0.672809,-0.332091 -0.672809,-0.728876 v -0.0043 c 0,-0.396784 0.284649,-0.724563 0.672809,-0.724563 0.181139,0 0.332092,0.06038 0.474416,0.168202 0.03881,0.02156 0.08195,0.04744 0.150951,0.04744 0.142324,0 0.254457,-0.107822 0.254457,-0.245834 0,-0.09057 -0.04744,-0.163889 -0.0992,-0.202705 -0.194079,-0.142324 -0.426974,-0.237208 -0.776316,-0.237208 -0.711624,0 -1.207604,0.539109 -1.207604,1.198979 v 0.0086 c 0,0.664182 0.504606,1.190353 1.18604,1.190353 z m 0,0"
       id="path6075"
       inkscape:connector-curvature="0" />
    <path
       style="fill:#000000;fill-opacity:1;stroke:none;stroke-width:0.27602378"
       d="m 74.395864,61.827966 c 0.715936,0 1.233482,-0.539109 1.233482,-1.198979 v -0.0043 c 0,-0.65987 -0.513234,-1.194666 -1.22917,-1.194666 -0.715936,0 -1.233479,0.539109 -1.233479,1.198979 v 0.0086 c 0,0.65987 0.513231,1.190353 1.229167,1.190353 z m 0.0043,-0.470103 c -0.409723,0 -0.702998,-0.332091 -0.702998,-0.728876 v -0.0043 c 0,-0.396784 0.28465,-0.724563 0.698686,-0.724563 0.409723,0 0.698685,0.332091 0.698685,0.728876 v 0.0086 c 0,0.396784 -0.28465,0.72025 -0.694373,0.72025 z m 0,0"
       id="path6071"
       inkscape:connector-curvature="0" />
    <path
       style="fill:#000000;fill-opacity:1;stroke:none;stroke-width:0.27602378"
       d="m 76.315024,61.004207 h 0.573611 c 0.1337,0 0.245833,-0.107822 0.245833,-0.241521 0,-0.133699 -0.112133,-0.24152 -0.245833,-0.24152 h -0.573611 c -0.133699,0 -0.241522,0.107821 -0.241522,0.24152 0,0.133699 0.107823,0.241521 0.241522,0.241521 z m 0,0"
       id="path6067"
       inkscape:connector-curvature="0" />
    <path
       style="fill:#000000;fill-opacity:1;stroke:none;stroke-width:0.27602378"
       d="m 77.304674,61.547629 c 0,0.150951 0.116449,0.241521 0.276024,0.241521 h 1.259359 c 0.120761,0 0.219956,-0.09488 0.219956,-0.219956 0,-0.120761 -0.0992,-0.219957 -0.219956,-0.219957 h -0.810821 l 0.379534,-0.293275 c 0.409723,-0.31484 0.608116,-0.508919 0.608116,-0.897077 v -0.0043 c 0,-0.4356 -0.319154,-0.715937 -0.797883,-0.715937 -0.349343,0 -0.569299,0.125074 -0.754753,0.340717 -0.03881,0.04313 -0.06038,0.103509 -0.06038,0.159576 0,0.129386 0.10351,0.228582 0.232897,0.228582 0.07763,0 0.138012,-0.0345 0.172514,-0.06901 0.129386,-0.142324 0.232896,-0.202704 0.375221,-0.202704 0.185452,0 0.314838,0.103508 0.314838,0.3019 0,0.189767 -0.116448,0.319153 -0.401097,0.556361 l -0.659869,0.539109 c -0.08626,0.06901 -0.133699,0.155263 -0.133699,0.254459 z m 0,0"
       id="path6063"
       inkscape:connector-curvature="0" />
    <path
       style="fill:#000000;fill-opacity:1;stroke:none;stroke-width:0.27602378"
       d="m 66.828913,125.79607 c 0,0.0604 0.05175,0.10782 0.112135,0.10782 0.06038,0 0.112133,-0.0475 0.112133,-0.10782 v -0.41404 h 0.53911 c 0.05607,0 0.10351,-0.0431 0.10351,-0.0992 0,-0.0561 -0.04744,-0.0992 -0.10351,-0.0992 h -0.53911 v -0.34503 h 0.621054 c 0.05607,0 0.0992,-0.0431 0.0992,-0.0992 0,-0.0561 -0.04313,-0.0992 -0.0992,-0.0992 h -0.733187 c -0.06038,0 -0.112135,0.0474 -0.112135,0.11213 z m 0,0"
       id="path6059"
       inkscape:connector-curvature="0" />
    <path
       style="fill:#000000;fill-opacity:1;stroke:none;stroke-width:0.27602378"
       d="m 68.043548,125.79607 c 0,0.0604 0.04744,0.10782 0.107823,0.10782 0.06469,0 0.112134,-0.0475 0.112134,-0.10782 v -0.75044 l 0.301902,0.45716 c 0.02588,0.0345 0.05607,0.0561 0.09488,0.0561 0.03882,0 0.06901,-0.0216 0.09057,-0.0561 l 0.306216,-0.46148 v 0.75476 c 0,0.0561 0.05175,0.10782 0.112133,0.10782 0.06038,0 0.112135,-0.0475 0.112135,-0.10782 v -1.05234 c 0,-0.0604 -0.05175,-0.11214 -0.112135,-0.11214 h -0.02588 c -0.04313,0 -0.07332,0.0216 -0.09919,0.0561 l -0.379534,0.59949 -0.383844,-0.59518 c -0.02156,-0.0345 -0.05175,-0.0604 -0.0992,-0.0604 h -0.02588 c -0.06038,0 -0.112136,0.0518 -0.112136,0.11214 z m 0,0"
       id="path6055"
       inkscape:connector-curvature="0" />
    <path
       style="fill:#000000;fill-opacity:1;stroke:none;stroke-width:0.27602378"
       d="m 77.391439,125.91251 c 0.267396,0 0.448538,-0.13801 0.448538,-0.37522 v -0.004 c 0,-0.20702 -0.1337,-0.3019 -0.401098,-0.36659 -0.24152,-0.0561 -0.297588,-0.0992 -0.297588,-0.1984 0,-0.0863 0.07332,-0.15095 0.202706,-0.15095 0.09919,0 0.194079,0.0302 0.288962,0.0949 0.01725,0.0129 0.0345,0.0172 0.05607,0.0172 0.06038,0 0.107821,-0.0474 0.107821,-0.10351 0,-0.0431 -0.02588,-0.0733 -0.05175,-0.0863 -0.112135,-0.0776 -0.237209,-0.11644 -0.396785,-0.11644 -0.250147,0 -0.426974,0.14663 -0.426974,0.36228 v 0.004 c 0,0.23289 0.146638,0.31052 0.414036,0.37522 0.237207,0.0517 0.28465,0.10351 0.28465,0.18976 v 0.004 c 0,0.0949 -0.08626,0.15957 -0.219957,0.15957 -0.138012,0 -0.250147,-0.0474 -0.353655,-0.12938 -0.01294,-0.0129 -0.0345,-0.0216 -0.06469,-0.0216 -0.05607,0 -0.10351,0.0474 -0.10351,0.10351 0,0.0345 0.01725,0.0647 0.04313,0.0863 0.138012,0.10351 0.3019,0.15527 0.470104,0.15527 z m 0,0"
       id="path6051"
       inkscape:connector-curvature="0" />
    <path
       style="fill:#000000;fill-opacity:1;stroke:none;stroke-width:0.27602378"
       d="m 78.502599,125.79607 c 0,0.0604 0.05175,0.10782 0.112136,0.10782 0.06038,0 0.112135,-0.0475 0.112135,-0.10782 v -0.39248 l 0.426974,-0.58655 c 0.01725,-0.0216 0.03019,-0.0517 0.03019,-0.0819 0,-0.0561 -0.04313,-0.10782 -0.10782,-0.10782 -0.04744,0 -0.07763,0.0302 -0.10351,0.069 l -0.357968,0.50461 -0.349343,-0.50461 c -0.02588,-0.0388 -0.06038,-0.0647 -0.107823,-0.0647 -0.06038,0 -0.112133,0.0474 -0.112133,0.10351 0,0.0302 0.01294,0.0561 0.02588,0.0776 l 0.431287,0.59518 z m 0,0"
       id="path6047"
       inkscape:connector-curvature="0" />
    <path
       style="fill:#000000;fill-opacity:1;stroke:none;stroke-width:0.27602378"
       d="m 79.444331,125.79607 c 0,0.0604 0.05175,0.10782 0.112135,0.10782 0.06038,0 0.107821,-0.0475 0.107821,-0.10782 v -0.79789 l 0.646932,0.8367 c 0.03019,0.0388 0.06038,0.069 0.112133,0.069 h 0.0086 c 0.06038,0 0.107823,-0.0518 0.107823,-0.11214 v -1.05234 c 0,-0.0604 -0.04744,-0.10782 -0.107823,-0.10782 -0.06038,0 -0.107821,0.0474 -0.107821,0.10782 v 0.77201 l -0.629679,-0.81514 c -0.03019,-0.0388 -0.06038,-0.0647 -0.112136,-0.0647 h -0.02588 c -0.06038,0 -0.112135,0.0518 -0.112135,0.11214 z m 0,0"
       id="path6043"
       inkscape:connector-curvature="0" />
    <path
       style="fill:#000000;fill-opacity:1;stroke:none;stroke-width:0.27602378"
       d="m 81.503704,125.91683 c 0.202706,0 0.336402,-0.0647 0.452851,-0.16821 0.02156,-0.0173 0.03882,-0.0474 0.03882,-0.0776 0,-0.0561 -0.05176,-0.10351 -0.107823,-0.10351 -0.02588,0 -0.04744,0.009 -0.06469,0.0259 -0.09057,0.0776 -0.181139,0.12076 -0.314838,0.12076 -0.23721,0 -0.414036,-0.20271 -0.414036,-0.44854 0,-0.24584 0.176826,-0.44423 0.414036,-0.44423 0.120759,0 0.215643,0.0431 0.3019,0.11214 0.01294,0.0129 0.0345,0.0216 0.06469,0.0216 0.06038,0 0.112136,-0.0474 0.112136,-0.10782 0,-0.0388 -0.02156,-0.069 -0.04313,-0.0863 -0.112135,-0.0863 -0.237206,-0.14232 -0.431286,-0.14232 -0.379534,0 -0.64693,0.29327 -0.64693,0.64693 v 0.004 c 0,0.36228 0.271708,0.64693 0.638304,0.64693 z m 0,0"
       id="path6039"
       inkscape:connector-curvature="0" />
    <path
       inkscape:connector-curvature="0"
       id="path37525"
       d="M 63.809628,122.02151 H 83.683339"
       style="fill:none;stroke:#000000;stroke-width:0.18383184;stroke-linecap:round;stroke-linejoin:round;stroke-miterlimit:10;stroke-opacity:1" />
    <path
       style="fill:#000000;fill-opacity:1;stroke:none;stroke-width:0.27602378"
       d="m 66.783071,89.5403 c 0.02588,0.069 0.07332,0.11213 0.142324,0.11213 h 0.02588 c 0.06469,0 0.116448,-0.0431 0.142324,-0.11213 l 0.34503,-1.00922 0.340717,1.00922 c 0.02588,0.069 0.07332,0.11213 0.142325,0.11213 h 0.02588 c 0.06469,0 0.116446,-0.0431 0.142325,-0.11213 l 0.457163,-1.28093 c 0.0043,-0.0173 0.01294,-0.0388 0.01294,-0.0561 0,-0.0733 -0.06469,-0.12939 -0.138012,-0.12939 -0.06469,0 -0.112133,0.0431 -0.129384,0.0992 l -0.357968,1.06096 -0.349342,-1.05665 c -0.01725,-0.0647 -0.06469,-0.10782 -0.1337,-0.10782 h -0.02156 c -0.06901,0 -0.116446,0.0431 -0.138012,0.10782 l -0.349343,1.05665 -0.353655,-1.06096 c -0.01725,-0.0561 -0.06901,-0.0992 -0.133699,-0.0992 -0.07763,0 -0.138012,0.0561 -0.138012,0.1337 0,0.0173 0.0043,0.0345 0.0086,0.0517 z m 0,0"
       id="path6035"
       inkscape:connector-curvature="0" />
    <path
       style="fill:#000000;fill-opacity:1;stroke:none;stroke-width:0.27602378"
       d="m 68.674299,89.51442 c 0,0.0733 0.05175,0.12938 0.125074,0.12938 0.05607,0 0.10351,-0.0345 0.125074,-0.0862 l 0.129386,-0.3019 h 0.750441 l 0.125071,0.29327 c 0.02588,0.0561 0.06901,0.0949 0.133699,0.0949 0.07332,0 0.129387,-0.0604 0.129387,-0.13369 0,-0.0173 -0.0043,-0.0345 -0.01725,-0.0561 L 69.60157,88.17316 c -0.03019,-0.069 -0.08195,-0.11214 -0.159579,-0.11214 h -0.01294 c -0.07763,0 -0.133699,0.0431 -0.163888,0.11214 l -0.573611,1.28092 c -0.01294,0.0216 -0.01725,0.0431 -0.01725,0.0604 z m 0.483042,-0.49598 0.271711,-0.62537 0.271712,0.62537 z m 0,0"
       id="path6031"
       inkscape:connector-curvature="0" />
    <path
       style="fill:#000000;fill-opacity:1;stroke:none;stroke-width:0.27602378"
       d="m 70.995793,89.65243 h 0.01294 c 0.07763,0 0.129387,-0.0431 0.159576,-0.10782 l 0.543422,-1.28092 c 0.0043,-0.0173 0.01294,-0.0388 0.01294,-0.0604 0,-0.0733 -0.06038,-0.12939 -0.133699,-0.12939 -0.06469,0 -0.116448,0.0431 -0.133699,0.0906 l -0.45285,1.12135 -0.444228,-1.11272 c -0.02156,-0.0604 -0.06901,-0.0992 -0.138012,-0.0992 -0.07763,0 -0.138012,0.0604 -0.138012,0.1337 0,0.0216 0.0086,0.0431 0.01725,0.0647 l 0.539107,1.2723 c 0.03019,0.0647 0.07763,0.10782 0.155263,0.10782 z m 0,0"
       id="path6027"
       inkscape:connector-curvature="0" />
    <path
       style="fill:#000000;fill-opacity:1;stroke:none;stroke-width:0.27602378"
       d="m 72.178425,89.63087 h 0.910016 c 0.06469,0 0.120761,-0.0518 0.120761,-0.12076 0,-0.069 -0.05607,-0.12076 -0.120761,-0.12076 H 72.312124 V 88.971 h 0.664181 c 0.06901,0 0.120761,-0.0518 0.120761,-0.11645 0,-0.069 -0.05175,-0.12507 -0.120761,-0.12507 h -0.664181 v -0.4011 h 0.763379 c 0.06901,0 0.120758,-0.0517 0.120758,-0.12076 0,-0.069 -0.05175,-0.12076 -0.120758,-0.12076 h -0.897078 c -0.07763,0 -0.138012,0.0561 -0.138012,0.1337 v 1.27229 c 0,0.0776 0.06038,0.13802 0.138012,0.13802 z m 0,0"
       id="path6023"
       inkscape:connector-curvature="0" />
    <path
       style="fill:#000000;fill-opacity:1;stroke:none;stroke-width:0.27602378"
       d="m 66.288297,106.72747 c 0,0.0776 0.06038,0.13801 0.138012,0.13801 0.07332,0 0.1337,-0.0604 0.1337,-0.13801 v -0.50461 h 0.668493 c 0.06901,0 0.120761,-0.0561 0.120761,-0.12507 0,-0.0647 -0.05175,-0.12076 -0.120761,-0.12076 h -0.668493 v -0.42266 H 67.3277 c 0.06901,0 0.120758,-0.0561 0.120758,-0.12507 0,-0.069 -0.05175,-0.12076 -0.120758,-0.12076 h -0.901391 c -0.07763,0 -0.138012,0.0561 -0.138012,0.13369 z m 0,0"
       id="path6019"
       inkscape:connector-curvature="0" />
    <path
       style="fill:#000000;fill-opacity:1;stroke:none;stroke-width:0.27602378"
       d="m 67.766458,106.73178 c 0,0.0733 0.05607,0.1337 0.1337,0.1337 0.07332,0 0.133699,-0.0604 0.133699,-0.1337 v -0.92726 l 0.375219,0.56498 c 0.03019,0.0431 0.06469,0.069 0.112135,0.069 0.05175,0 0.08626,-0.0259 0.116446,-0.069 l 0.375222,-0.5693 v 0.92727 c 0,0.0733 0.06469,0.13801 0.138012,0.13801 0.07763,0 0.133699,-0.0604 0.133699,-0.13801 v -1.29386 c 0,-0.0733 -0.05607,-0.1337 -0.133699,-0.1337 h -0.03019 c -0.05607,0 -0.09488,0.0216 -0.125074,0.069 l -0.470101,0.73318 -0.465791,-0.73318 c -0.02588,-0.0388 -0.06901,-0.069 -0.129387,-0.069 h -0.02588 c -0.07763,0 -0.138012,0.0604 -0.138012,0.1337 z m 0,0"
       id="path6015"
       inkscape:connector-curvature="0" />
    <path
       style="fill:#000000;fill-opacity:1;stroke:none;stroke-width:0.27602378"
       d="m 71.061558,106.87842 c 0.250148,0 0.418349,-0.0776 0.564986,-0.20702 0.02156,-0.0216 0.04313,-0.0561 0.04313,-0.0992 0,-0.0647 -0.06038,-0.12508 -0.129387,-0.12508 -0.0345,0 -0.06038,0.0129 -0.08194,0.0302 -0.112136,0.0949 -0.224269,0.15095 -0.383847,0.15095 -0.297587,0 -0.513231,-0.24583 -0.513231,-0.54773 v -0.004 c 0,-0.3019 0.215644,-0.54774 0.513231,-0.54774 0.146637,0 0.258773,0.0561 0.366596,0.14233 0.01725,0.0129 0.04313,0.0259 0.08194,0.0259 0.07332,0 0.1337,-0.0604 0.1337,-0.13369 0,-0.0474 -0.02156,-0.0863 -0.05176,-0.10783 -0.133699,-0.10351 -0.293274,-0.17683 -0.530484,-0.17683 -0.470101,0 -0.79788,0.36229 -0.79788,0.8022 v 0.004 c 0,0.44423 0.336404,0.79357 0.784942,0.79357 z m 0,0"
       id="path6007"
       inkscape:connector-curvature="0" />
    <path
       style="fill:#000000;fill-opacity:1;stroke:none;stroke-width:0.27602378"
       d="m 72.637363,106.87411 h 0.01294 c 0.07763,0 0.129387,-0.0431 0.159576,-0.10782 l 0.543422,-1.28093 c 0.0043,-0.0172 0.01294,-0.0388 0.01294,-0.0604 0,-0.0733 -0.06038,-0.12938 -0.1337,-0.12938 -0.06469,0 -0.116448,0.0431 -0.133699,0.0906 l -0.45285,1.12134 -0.444228,-1.11272 c -0.02156,-0.0604 -0.06901,-0.0992 -0.138012,-0.0992 -0.07763,0 -0.138012,0.0604 -0.138012,0.1337 0,0.0216 0.0086,0.0431 0.01725,0.0647 l 0.539107,1.2723 c 0.03019,0.0647 0.07763,0.10782 0.155263,0.10782 z m 0,0"
       id="path6003"
       inkscape:connector-curvature="0" />
    <path
       inkscape:connector-curvature="0"
       id="path37557"
       d="m 71.592204,151.60565 c -0.09165,0 -0.17467,-0.0518 -0.215644,-0.1337 l -0.783865,-1.56881 c -0.06038,-0.1186 -0.01188,-0.26416 0.10782,-0.32346 0.118605,-0.0593 0.264168,-0.0108 0.323469,0.10782 l 0.56822,1.13752 0.568221,-1.13752 c 0.06038,-0.1186 0.204859,-0.16712 0.324544,-0.10782 0.118604,0.0593 0.167124,0.20486 0.10782,0.32346 l -0.784942,1.56881 c -0.03989,0.0819 -0.123997,0.1337 -0.215643,0.1337"
       style="fill:#000000;fill-opacity:1;fill-rule:nonzero;stroke:none;stroke-width:0.27602378" />
    <path
       inkscape:connector-curvature="0"
       id="path37559"
       d="m 75.900763,151.60565 c -0.09165,0 -0.175749,-0.0518 -0.216723,-0.1337 l -0.783862,-1.56881 c -0.0593,-0.1186 -0.0108,-0.26416 0.10782,-0.32346 0.118605,-0.0593 0.264163,-0.0108 0.323467,0.10782 l 0.569298,1.13752 0.568219,-1.13752 c 0.0593,-0.1186 0.203785,-0.16712 0.323467,-0.10782 0.119681,0.0593 0.167124,0.20486 0.10782,0.32346 l -0.783862,1.56881 c -0.04097,0.0819 -0.125074,0.1337 -0.215644,0.1337"
       style="fill:#000000;fill-opacity:1;fill-rule:nonzero;stroke:none;stroke-width:0.27602378" />
    <path
       inkscape:connector-curvature="0"
       id="path37561"
       d="m 73.862932,151.60565 c -0.564989,0 -1.025388,-0.4604 -1.025388,-1.02539 0,-0.56606 0.460399,-1.02646 1.025388,-1.02646 0.224269,0 0.437756,0.0712 0.615661,0.20594 0.106744,0.0798 0.128308,0.23074 0.04852,0.33748 -0.07979,0.10675 -0.23182,0.12831 -0.337484,0.0485 -0.09488,-0.0712 -0.207017,-0.1089 -0.326699,-0.1089 -0.29867,0 -0.542346,0.24368 -0.542346,0.54342 0,0.29867 0.243676,0.54235 0.542346,0.54235 0.119682,0 0.231817,-0.0377 0.326699,-0.10782 0.105664,-0.0809 0.257694,-0.0593 0.337484,0.0474 0.07979,0.10674 0.05822,0.25769 -0.04852,0.33856 -0.177905,0.1337 -0.391392,0.20486 -0.615661,0.20486"
       style="fill:#000000;fill-opacity:1;fill-rule:nonzero;stroke:none;stroke-width:0.27602378" />
    <path
       inkscape:connector-curvature="0"
       id="path37563"
       d="m 74.192867,150.56732 c 0,0.1736 -0.140168,0.31377 -0.313764,0.31377 -0.173593,0 -0.313761,-0.14017 -0.313761,-0.31377 0,-0.17251 0.140168,-0.31375 0.313761,-0.31375 0.173596,0 0.313764,0.14124 0.313764,0.31375"
       style="fill:#000000;fill-opacity:1;fill-rule:nonzero;stroke:none;stroke-width:0.27602378" />
    <path
       style="fill:#000000;fill-opacity:1;stroke:none;stroke-width:0.27602378"
       d="m 65.605389,137.56507 c 0.02156,0.0561 0.06038,0.0906 0.112133,0.0906 h 0.02156 c 0.05607,0 0.09488,-0.0345 0.116448,-0.0906 l 0.280337,-0.81945 0.280337,0.81945 c 0.01725,0.0561 0.05607,0.0906 0.112135,0.0906 h 0.02156 c 0.05175,0 0.09488,-0.0345 0.116448,-0.0906 l 0.370906,-1.03941 c 0.0043,-0.0129 0.0086,-0.0302 0.0086,-0.0474 0,-0.0561 -0.05175,-0.10351 -0.107821,-0.10351 -0.05607,0 -0.09057,0.0345 -0.107823,0.0776 l -0.288962,0.86688 -0.284649,-0.86257 c -0.01725,-0.0518 -0.05607,-0.0863 -0.112136,-0.0863 h -0.01294 c -0.05607,0 -0.09488,0.0345 -0.112136,0.0863 l -0.284649,0.86257 -0.288962,-0.86688 c -0.01294,-0.0431 -0.05607,-0.0776 -0.10782,-0.0776 -0.06038,0 -0.116449,0.0475 -0.116449,0.10782 0,0.0129 0.0043,0.0302 0.01294,0.0431 z m 0,0"
       id="path5903"
       inkscape:connector-curvature="0" />
    <path
       style="fill:#000000;fill-opacity:1;stroke:none;stroke-width:0.27602378"
       d="m 67.15295,137.5435 c 0,0.0604 0.04744,0.10351 0.103511,0.10351 0.04744,0 0.08626,-0.0259 0.103507,-0.069 l 0.103508,-0.24151 h 0.612428 l 0.103511,0.23289 c 0.01725,0.0474 0.05175,0.0776 0.10782,0.0776 0.05607,0 0.10351,-0.0474 0.10351,-0.10351 0,-0.0172 -0.0043,-0.0345 -0.01294,-0.0474 l -0.465791,-1.04371 c -0.02588,-0.0518 -0.06901,-0.0863 -0.133699,-0.0863 h -0.0086 c -0.06469,0 -0.107823,0.0345 -0.133699,0.0863 l -0.465791,1.04371 c -0.0086,0.0173 -0.01725,0.0345 -0.01725,0.0474 z m 0.396785,-0.40541 0.219956,-0.5046 0.219957,0.5046 z m 0,0"
       id="path5899"
       inkscape:connector-curvature="0" />
    <path
       style="fill:#000000;fill-opacity:1;stroke:none;stroke-width:0.27602378"
       d="m 69.058548,137.65564 h 0.01294 c 0.06038,0 0.103508,-0.0345 0.125072,-0.0906 l 0.444227,-1.03941 c 0.0043,-0.0129 0.0086,-0.0302 0.0086,-0.0474 0,-0.0561 -0.04744,-0.10351 -0.107823,-0.10351 -0.05176,0 -0.09057,0.0345 -0.107821,0.069 l -0.366596,0.91433 -0.362281,-0.9057 c -0.01725,-0.0474 -0.05607,-0.0776 -0.112133,-0.0776 -0.06469,0 -0.112135,0.0475 -0.112135,0.10782 0,0.0173 0.0043,0.0345 0.01294,0.0518 l 0.439915,1.03078 c 0.02156,0.0561 0.06469,0.0906 0.125071,0.0906 z m 0,0"
       id="path5895"
       inkscape:connector-curvature="0" />
    <path
       style="fill:#000000;fill-opacity:1;stroke:none;stroke-width:0.27602378"
       d="m 70.032165,137.63839 h 0.741815 c 0.05175,0 0.09919,-0.0431 0.09919,-0.0992 0,-0.0518 -0.04744,-0.0992 -0.09919,-0.0992 h -0.629682 v -0.3364 h 0.53911 c 0.05175,0 0.0992,-0.0431 0.0992,-0.0949 0,-0.0561 -0.04744,-0.10351 -0.0992,-0.10351 h -0.53911 v -0.32347 h 0.621054 c 0.05175,0 0.09488,-0.0431 0.09488,-0.0992 0,-0.0561 -0.04313,-0.0992 -0.09488,-0.0992 h -0.733187 c -0.06038,0 -0.112136,0.0474 -0.112136,0.11214 v 1.03077 c 0,0.0647 0.05175,0.11214 0.112136,0.11214 z m 0,0"
       id="path5891"
       inkscape:connector-curvature="0" />
    <path
       inkscape:connector-curvature="0"
       id="path37671"
       d="m 83.225097,136.00599 c 0,-0.43021 -0.352576,-0.78278 -0.782786,-0.78278 h -6.009987 c -0.430207,0 -0.782785,0.35257 -0.782785,0.78278 v 9.5239 c 0,0.43021 0.352578,0.78279 0.782785,0.78279 h 6.009987 c 0.43021,0 0.782786,-0.35258 0.782786,-0.78279 z m 0,0"
       style="fill:#000000;fill-opacity:1;fill-rule:nonzero;stroke:none;stroke-width:0.27602378" />
    <path
       style="fill:#ffffff;fill-opacity:1;stroke:none;stroke-width:0.27602378"
       d="m 78.119186,137.6605 c 0.388157,0 0.672806,-0.29327 0.672806,-0.65124 0,-0.35797 -0.280336,-0.64693 -0.668493,-0.64693 -0.38816,0 -0.668496,0.29328 -0.668496,0.64693 v 0.004 c 0,0.35797 0.280336,0.64693 0.664183,0.64693 z m 0.0043,-0.25445 c -0.219956,0 -0.379534,-0.18114 -0.379534,-0.39679 0,-0.21564 0.155265,-0.39247 0.375221,-0.39247 0.224269,0 0.383844,0.17683 0.383844,0.39247 v 0.004 c 0,0.21565 -0.155262,0.39248 -0.379531,0.39248 z m 0,0"
       id="path5887"
       inkscape:connector-curvature="0" />
    <path
       style="fill:#ffffff;fill-opacity:1;stroke:none;stroke-width:0.27602378"
       d="m 79.618786,137.6605 c 0.340717,0 0.552048,-0.18976 0.552048,-0.56929 v -0.58224 c 0,-0.0776 -0.06038,-0.13801 -0.138012,-0.13801 -0.07763,0 -0.138012,0.0604 -0.138012,0.13801 v 0.59517 c 0,0.1984 -0.10351,0.30191 -0.271711,0.30191 -0.168204,0 -0.271711,-0.10783 -0.271711,-0.31053 v -0.58655 c 0,-0.0776 -0.06038,-0.13801 -0.138012,-0.13801 -0.07332,0 -0.138012,0.0604 -0.138012,0.13801 v 0.59086 c 0,0.37091 0.207018,0.56067 0.543422,0.56067 z m 0,0"
       id="path5883"
       inkscape:connector-curvature="0" />
    <path
       style="fill:#ffffff;fill-opacity:1;stroke:none;stroke-width:0.27602378"
       d="m 80.796812,137.50955 c 0,0.0776 0.06038,0.13802 0.138012,0.13802 0.07763,0 0.138012,-0.0604 0.138012,-0.13802 v -0.87119 h 0.263085 c 0.07332,0 0.129387,-0.0561 0.129387,-0.12939 0,-0.069 -0.05607,-0.12507 -0.129387,-0.12507 h -0.806505 c -0.06901,0 -0.125074,0.0561 -0.125074,0.12507 0,0.0733 0.05607,0.12939 0.125074,0.12939 h 0.267396 z m 0,0"
       id="path5879"
       inkscape:connector-curvature="0" />
    <path
       style="fill:#000000;fill-opacity:1;stroke:none;stroke-width:0.27602378"
       d="m 69.973798,67.206917 c 0,0.09488 0.07332,0.168202 0.168201,0.168202 0.09488,0 0.1682,-0.07332 0.1682,-0.168202 v -0.629679 h 0.836698 c 0.08195,0 0.150952,-0.06901 0.150952,-0.155264 0,-0.08626 -0.06901,-0.155263 -0.150952,-0.155263 h -0.836698 v -0.52617 h 0.957459 c 0.08626,0 0.155263,-0.06901 0.155263,-0.155264 0,-0.08626 -0.06901,-0.155263 -0.155263,-0.155263 h -1.125659 c -0.09488,0 -0.168201,0.07332 -0.168201,0.172515 z m 0,0"
       id="path5875"
       inkscape:connector-curvature="0" />
    <path
       style="fill:#000000;fill-opacity:1;stroke:none;stroke-width:0.27602378"
       d="m 71.793618,67.206917 c 0,0.09488 0.07332,0.168202 0.168201,0.168202 0.09488,0 0.168201,-0.07332 0.168201,-0.168202 v -0.517545 h 0.431289 l 0.465788,0.59949 c 0.03882,0.05175 0.09057,0.08626 0.168204,0.08626 0.08194,0 0.159575,-0.06469 0.159575,-0.155263 0,-0.05175 -0.02156,-0.09057 -0.05175,-0.129387 L 72.93222,66.620369 c 0.258773,-0.07763 0.439912,-0.267398 0.439912,-0.573611 v -0.0086 c 0,-0.168202 -0.06038,-0.310527 -0.159575,-0.414036 -0.125074,-0.12076 -0.314841,-0.194079 -0.560674,-0.194079 h -0.690059 c -0.09488,0 -0.168201,0.07332 -0.168201,0.172515 z m 0.336402,-0.819446 v -0.64693 H 72.626 c 0.250147,0 0.401097,0.112134 0.401097,0.319152 v 0.0043 c 0,0.198392 -0.155263,0.323465 -0.396782,0.323465 z m 0,0"
       id="path5871"
       inkscape:connector-curvature="0" />
    <path
       style="fill:#000000;fill-opacity:1;stroke:none;stroke-width:0.27602378"
       d="m 74.007434,67.36218 h 1.138597 c 0.08195,0 0.15095,-0.06469 0.15095,-0.15095 0,-0.08194 -0.06901,-0.150951 -0.15095,-0.150951 h -0.970396 v -0.521857 h 0.832384 c 0.08195,0 0.150951,-0.06469 0.150951,-0.146638 0,-0.08626 -0.06901,-0.155263 -0.150951,-0.155263 h -0.832384 v -0.504606 h 0.957458 c 0.08194,0 0.15095,-0.06469 0.15095,-0.150951 0,-0.08194 -0.06901,-0.15095 -0.15095,-0.15095 h -1.125659 c -0.09488,0 -0.168201,0.07332 -0.168201,0.172515 v 1.587136 c 0,0.0992 0.07332,0.172515 0.168201,0.172515 z m 0,0"
       id="path5867"
       inkscape:connector-curvature="0" />
    <path
       style="fill:#000000;fill-opacity:1;stroke:none;stroke-width:0.27602378"
       d="m 76.59067,67.396683 c 0.224268,0 0.426974,-0.06901 0.590862,-0.185453 l 0.138012,0.125073 c 0.03019,0.03019 0.06901,0.05175 0.116448,0.05175 0.09057,0 0.159576,-0.07763 0.159576,-0.16389 0,-0.05607 -0.02156,-0.0992 -0.06038,-0.133699 l -0.125074,-0.0992 c 0.125074,-0.168202 0.19408,-0.37522 0.19408,-0.595176 v -0.0043 c 0,-0.543421 -0.414036,-0.996273 -1.004898,-0.996273 -0.595178,0 -1.013526,0.457165 -1.013526,1.000586 v 0.0043 c 0,0.543422 0.414036,0.996274 1.004901,0.996273 z m 0.09919,-0.608115 0.241522,0.202705 c -0.09489,0.05607 -0.207018,0.09057 -0.332092,0.09057 -0.383847,0 -0.659871,-0.310527 -0.659871,-0.685747 v -0.0043 c 0,-0.375219 0.267399,-0.681433 0.651246,-0.681433 0.383844,0 0.659868,0.310526 0.659868,0.685746 v 0.0043 c 0,0.138012 -0.0345,0.263085 -0.09488,0.366594 l -0.250145,-0.224268 c -0.03881,-0.0345 -0.06901,-0.05175 -0.116446,-0.05175 -0.09057,0 -0.159578,0.07763 -0.159578,0.16389 0,0.06038 0.02156,0.0992 0.06038,0.133698 z m 0,0"
       id="path5863"
       inkscape:connector-curvature="0" />
    <path
       style="fill:#000000;fill-opacity:1;stroke:none;stroke-width:0.27602378"
       d="m 77.569792,92.32874 c 0,0.0604 0.04744,0.10351 0.10351,0.10351 0.04744,0 0.08626,-0.0259 0.103508,-0.069 l 0.103508,-0.24152 h 0.612428 l 0.10351,0.23289 c 0.01725,0.0474 0.05175,0.0776 0.107821,0.0776 0.05607,0 0.10351,-0.0475 0.10351,-0.10351 0,-0.0173 -0.0043,-0.0345 -0.01294,-0.0474 l -0.465791,-1.04372 c -0.02588,-0.0517 -0.06901,-0.0863 -0.133699,-0.0863 h -0.0086 c -0.06469,0 -0.107823,0.0345 -0.133699,0.0863 l -0.465791,1.04372 c -0.0086,0.0173 -0.01725,0.0345 -0.01725,0.0474 z m 0.396785,-0.40541 0.219956,-0.50461 0.219956,0.50461 z m 0,0"
       id="path5767"
       inkscape:connector-curvature="0" />
    <path
       style="fill:#000000;fill-opacity:1;stroke:none;stroke-width:0.27602378"
       d="m 79.079531,92.32443 c 0,0.0604 0.05175,0.10782 0.112136,0.10782 0.06038,0 0.10782,-0.0475 0.10782,-0.10782 v -0.79789 l 0.646933,0.8367 c 0.03019,0.0388 0.06038,0.069 0.112133,0.069 h 0.0086 c 0.06038,0 0.107823,-0.0518 0.107823,-0.11214 v -1.05234 c 0,-0.0604 -0.04744,-0.10782 -0.107823,-0.10782 -0.06038,0 -0.10782,0.0474 -0.10782,0.10782 v 0.77201 l -0.629679,-0.81514 c -0.03019,-0.0388 -0.06038,-0.0647 -0.112136,-0.0647 h -0.02588 c -0.06038,0 -0.112136,0.0517 -0.112136,0.11214 z m 0,0"
       id="path5763"
       inkscape:connector-curvature="0" />
    <path
       style="fill:#000000;fill-opacity:1;stroke:none;stroke-width:0.27602378"
       d="m 80.562401,92.31148 c 0,0.0647 0.05176,0.11214 0.112136,0.11214 h 0.677122 c 0.05607,0 0.103508,-0.0431 0.103508,-0.0992 0,-0.0561 -0.04744,-0.10351 -0.103508,-0.10351 H 80.78667 v -0.95315 c 0,-0.0604 -0.05175,-0.10782 -0.112133,-0.10782 -0.06038,0 -0.112136,0.0474 -0.112136,0.10782 z m 0,0"
       id="path5759"
       inkscape:connector-curvature="0" />
    <path
       style="fill:#000000;fill-opacity:1;stroke:none;stroke-width:0.27602378"
       d="m 82.264403,92.44518 c 0.185454,0 0.336404,-0.0647 0.444224,-0.13801 0.05176,-0.0302 0.07763,-0.0776 0.07763,-0.13801 v -0.3364 c 0,-0.0604 -0.04744,-0.11214 -0.112133,-0.11214 h -0.349343 c -0.05175,0 -0.0992,0.0431 -0.0992,0.0992 0,0.0517 0.04744,0.0949 0.0992,0.0949 h 0.250145 v 0.2329 c -0.07763,0.0604 -0.185452,0.0949 -0.306213,0.0949 -0.25446,0 -0.426974,-0.18977 -0.426974,-0.44854 0,-0.24152 0.176827,-0.44422 0.409723,-0.44422 0.1337,0 0.224269,0.0388 0.301901,0.0992 0.02156,0.0129 0.04313,0.0259 0.06901,0.0259 0.06038,0 0.112135,-0.0517 0.112135,-0.11214 0,-0.0431 -0.02588,-0.0733 -0.04744,-0.0906 -0.112136,-0.082 -0.241522,-0.12508 -0.426974,-0.12508 -0.379534,0 -0.64693,0.29759 -0.64693,0.64693 v 0.004 c 0,0.3666 0.254458,0.64693 0.651243,0.64693 z m 0,0"
       id="path5755"
       inkscape:connector-curvature="0" />
    <path
       style="fill:#000000;fill-opacity:1;stroke:none;stroke-width:0.27602378"
       d="m 78.312716,102.20445 c 0,0.0647 0.05175,0.11214 0.112135,0.11214 h 0.357968 c 0.396785,0 0.668497,-0.27602 0.668497,-0.62968 0,-0.35365 -0.271712,-0.62537 -0.668497,-0.62537 h -0.357968 c -0.06038,0 -0.112135,0.0474 -0.112135,0.11214 z m 0.224268,-0.0906 v -0.85394 h 0.245835 c 0.263086,0 0.4356,0.18114 0.4356,0.42697 v 0.004 c 0,0.24584 -0.172514,0.42266 -0.4356,0.42266 z m 0,0"
       id="path5751"
       inkscape:connector-curvature="0" />
    <path
       style="fill:#000000;fill-opacity:1;stroke:none;stroke-width:0.27602378"
       d="m 79.775327,102.21739 c 0,0.0604 0.05175,0.10783 0.112136,0.10783 0.06038,0 0.112135,-0.0474 0.112135,-0.10783 v -1.05665 c 0,-0.0604 -0.05175,-0.10782 -0.112135,-0.10782 -0.06038,0 -0.112136,0.0474 -0.112136,0.10782 z m 0,0"
       id="path5747"
       inkscape:connector-curvature="0" />
    <path
       style="fill:#000000;fill-opacity:1;stroke:none;stroke-width:0.27602378"
       d="m 80.977271,102.33815 c 0.185454,0 0.336404,-0.0647 0.444225,-0.13801 0.05175,-0.0302 0.07763,-0.0776 0.07763,-0.13801 v -0.3364 c 0,-0.0604 -0.04744,-0.11214 -0.112133,-0.11214 H 81.03765 c -0.05175,0 -0.0992,0.0431 -0.0992,0.0992 0,0.0518 0.04744,0.0949 0.0992,0.0949 h 0.250145 v 0.2329 c -0.07763,0.0604 -0.185451,0.0949 -0.306212,0.0949 -0.254461,0 -0.426974,-0.18977 -0.426974,-0.44854 0,-0.24152 0.176826,-0.44422 0.409723,-0.44422 0.133699,0 0.224268,0.0388 0.3019,0.0992 0.02156,0.0129 0.04313,0.0259 0.06901,0.0259 0.06038,0 0.112136,-0.0518 0.112136,-0.11214 0,-0.0431 -0.02588,-0.0733 -0.04744,-0.0906 -0.112136,-0.0819 -0.241522,-0.12507 -0.426974,-0.12507 -0.379534,0 -0.64693,0.29759 -0.64693,0.64693 v 0.004 c 0,0.3666 0.254458,0.64693 0.651243,0.64693 z m 0,0"
       id="path5743"
       inkscape:connector-curvature="0" />
    <path
       style="fill:#000000;fill-opacity:1;stroke:none;stroke-width:0.27602378"
       d="m 81.856362,102.21739 c 0,0.0604 0.05175,0.10783 0.112136,0.10783 0.06038,0 0.112136,-0.0474 0.112136,-0.10783 v -1.05665 c 0,-0.0604 -0.05176,-0.10782 -0.112136,-0.10782 -0.06038,0 -0.112136,0.0474 -0.112136,0.10782 z m 0,0"
       id="path5739"
       inkscape:connector-curvature="0" />
    <path
       style="fill:#000000;fill-opacity:1;stroke:none;stroke-width:0.27602378"
       d="m 77.569932,109.54651 c 0,0.0604 0.05175,0.10782 0.112136,0.10782 0.06038,0 0.112133,-0.0474 0.112133,-0.10782 v -0.43129 h 0.59949 v 0.43129 c 0,0.0604 0.04744,0.10782 0.107823,0.10782 0.06038,0 0.112133,-0.0474 0.112133,-0.10782 v -1.05665 c 0,-0.0604 -0.05175,-0.10782 -0.112133,-0.10782 -0.06038,0 -0.107823,0.0474 -0.107823,0.10782 v 0.42266 h -0.59949 v -0.42266 c 0,-0.0604 -0.05175,-0.10782 -0.112133,-0.10782 -0.06038,0 -0.112136,0.0474 -0.112136,0.10782 z m 0,0"
       id="path5735"
       inkscape:connector-curvature="0" />
    <path
       style="fill:#000000;fill-opacity:1;stroke:none;stroke-width:0.27602378"
       d="m 78.88312,109.55082 c 0,0.0604 0.04744,0.10351 0.10351,0.10351 0.04744,0 0.08626,-0.0259 0.103508,-0.069 l 0.103508,-0.24152 h 0.612428 l 0.10351,0.23289 c 0.01725,0.0474 0.05175,0.0776 0.107821,0.0776 0.05607,0 0.10351,-0.0474 0.10351,-0.10351 0,-0.0173 -0.0043,-0.0345 -0.01294,-0.0474 l -0.465791,-1.04371 c -0.02588,-0.0518 -0.06901,-0.0863 -0.133699,-0.0863 h -0.0086 c -0.06469,0 -0.107823,0.0345 -0.133699,0.0863 l -0.465791,1.04371 c -0.0086,0.0173 -0.01725,0.0345 -0.01725,0.0474 z m 0.396785,-0.40541 0.219956,-0.5046 0.219956,0.5046 z m 0,0"
       id="path5731"
       inkscape:connector-curvature="0" />
    <path
       style="fill:#000000;fill-opacity:1;stroke:none;stroke-width:0.27602378"
       d="m 80.392134,109.54651 c 0,0.0604 0.05175,0.10782 0.112136,0.10782 0.06038,0 0.112133,-0.0474 0.112133,-0.10782 v -0.34072 h 0.276024 l 0.306215,0.39247 c 0.02588,0.0345 0.05607,0.0561 0.107821,0.0561 0.05175,0 0.10351,-0.0388 0.10351,-0.10351 0,-0.0345 -0.01294,-0.0561 -0.0345,-0.0819 l -0.24152,-0.3019 c 0.168201,-0.0561 0.284649,-0.17683 0.284649,-0.37522 v -0.004 c 0,-0.11214 -0.0345,-0.20271 -0.10351,-0.27172 -0.07763,-0.0776 -0.202702,-0.12507 -0.362281,-0.12507 h -0.448537 c -0.06038,0 -0.112136,0.0474 -0.112136,0.11214 z m 0.224269,-0.5348 v -0.42266 h 0.319154 c 0.163888,0 0.258773,0.0733 0.258773,0.21133 0,0.12939 -0.0992,0.21133 -0.258773,0.21133 z m 0,0"
       id="path5727"
       inkscape:connector-curvature="0" />
    <path
       style="fill:#000000;fill-opacity:1;stroke:none;stroke-width:0.27602378"
       d="m 81.752643,109.53357 c 0,0.0647 0.05175,0.11214 0.112136,0.11214 h 0.357968 c 0.396785,0 0.668496,-0.27603 0.668496,-0.62968 0,-0.35366 -0.271711,-0.62537 -0.668496,-0.62537 h -0.357968 c -0.06038,0 -0.112136,0.0474 -0.112136,0.11214 z m 0.224269,-0.0906 v -0.85395 h 0.245835 c 0.263085,0 0.435599,0.18114 0.435599,0.42698 v 0.004 c 0,0.24584 -0.172514,0.42266 -0.435599,0.42266 z m 0,0"
       id="path5723"
       inkscape:connector-curvature="0" />
    <path
       style="fill:#000000;fill-opacity:1;stroke:none;stroke-width:0.27602378"
       d="m 78.207205,119.55413 c 0.267396,0 0.448538,-0.13801 0.448538,-0.37522 v -0.004 c 0,-0.20702 -0.1337,-0.3019 -0.401098,-0.36659 -0.24152,-0.0561 -0.297588,-0.0992 -0.297588,-0.19839 0,-0.0863 0.07332,-0.15095 0.202706,-0.15095 0.09919,0 0.194079,0.0302 0.288962,0.0949 0.01725,0.0129 0.0345,0.0172 0.05607,0.0172 0.06038,0 0.107821,-0.0474 0.107821,-0.10351 0,-0.0431 -0.02588,-0.0733 -0.05175,-0.0863 -0.112135,-0.0776 -0.237209,-0.11644 -0.396785,-0.11644 -0.250147,0 -0.426974,0.14663 -0.426974,0.36228 v 0.004 c 0,0.23289 0.146638,0.31052 0.414036,0.37522 0.237207,0.0517 0.284649,0.10351 0.284649,0.18977 v 0.004 c 0,0.0949 -0.08626,0.15957 -0.219956,0.15957 -0.138012,0 -0.250147,-0.0474 -0.353655,-0.12938 -0.01294,-0.0129 -0.0345,-0.0216 -0.06469,-0.0216 -0.05607,0 -0.10351,0.0474 -0.10351,0.10351 0,0.0345 0.01725,0.0647 0.04313,0.0863 0.138012,0.10351 0.3019,0.15527 0.470104,0.15527 z m 0,0"
       id="path5719"
       inkscape:connector-curvature="0" />
    <path
       style="fill:#000000;fill-opacity:1;stroke:none;stroke-width:0.27602378"
       d="m 79.556307,119.55845 c 0.388157,0 0.659869,-0.29759 0.659869,-0.65125 0,-0.35365 -0.267399,-0.64693 -0.655556,-0.64693 -0.383847,0 -0.655555,0.29328 -0.655555,0.64693 v 0.004 c 0,0.35365 0.267396,0.64693 0.651242,0.64693 z m 0.0043,-0.20271 c -0.250147,0 -0.426974,-0.2027 -0.426974,-0.44854 0,-0.24583 0.176827,-0.44422 0.422661,-0.44422 0.250146,0 0.426974,0.2027 0.426974,0.44422 v 0.004 c 0,0.24583 -0.172513,0.44422 -0.422661,0.44422 z m 0,0"
       id="path5715"
       inkscape:connector-curvature="0" />
    <path
       style="fill:#000000;fill-opacity:1;stroke:none;stroke-width:0.27602378"
       d="m 80.538359,119.43769 c 0,0.0604 0.05175,0.10782 0.112136,0.10782 0.06038,0 0.112133,-0.0474 0.112133,-0.10782 v -0.41404 h 0.539109 c 0.05607,0 0.103511,-0.0431 0.103511,-0.0992 0,-0.0561 -0.04744,-0.0992 -0.103511,-0.0992 h -0.539109 v -0.34503 h 0.621053 c 0.05607,0 0.0992,-0.0431 0.0992,-0.0992 0,-0.0561 -0.04313,-0.0992 -0.0992,-0.0992 h -0.733186 c -0.06038,0 -0.112136,0.0474 -0.112136,0.11213 z m 0,0"
       id="path5711"
       inkscape:connector-curvature="0" />
    <path
       style="fill:#000000;fill-opacity:1;stroke:none;stroke-width:0.27602378"
       d="m 82.108743,119.43769 c 0,0.0604 0.05175,0.10782 0.112133,0.10782 0.06038,0 0.112136,-0.0474 0.112136,-0.10782 v -0.95315 h 0.306213 c 0.05607,0 0.0992,-0.0474 0.0992,-0.0992 0,-0.0561 -0.04313,-0.10351 -0.0992,-0.10351 h -0.836698 c -0.05607,0 -0.0992,0.0474 -0.0992,0.10351 0,0.0517 0.04313,0.0992 0.0992,0.0992 h 0.306216 z m 0,0"
       id="path5707"
       inkscape:connector-curvature="0" />
  </g>
</svg>
