<?xml version="1.0" encoding="UTF-8"?>
<svg width="32px" height="32px" viewBox="0 0 32 32" version="1.1" xmlns="http://www.w3.org/2000/svg" xmlns:xlink="http://www.w3.org/1999/xlink">
  
    <g id="Page-1" stroke="none" stroke-width="1" fill="none" fill-rule="evenodd">
        <g id="moDllzKnobM">
            
            <path d="M16,26.6666667 C21.8910373,26.6666667 26.6666667,21.8910373 26.6666667,16 C26.6666667,13.9369215 25.8259263,11.8328954 24.6153846,9.84615385 C22.6078211,6.55133973 19.5341564,3.5341564 17.2307692,1.23076923 C16.9231514,0.923151362 16.4102564,0.615384615 16,0.615384615 C15.5897436,0.615384615 15.070135,0.929865015 14.7692308,1.23076923 C12.4659179,3.53408212 9.3921847,6.55191711 7.38461538,9.84615385 C6.17396643,11.8327175 5.33333333,13.9333906 5.33333333,16 C5.33333333,21.8910373 10.1089627,26.6666667 16,26.6666667 Z" id="Tear" fill="#363636"></path>
            <path d="M16,25.6 C21.498226,25.6 24.8,22.4 25.6,17.6519368 C25.6626558,17.2800696 25.6,16 24.8,15.6 C24.0002839,15.2001419 23.2,15.2 16,15.2 C8.8,15.2 8,15.2 7.2,15.6 C6.45431367,15.9728432 6.43945612,17.1226095 6.50338107,17.6519368 C7.07678756,22.4 10.6806208,25.6 16,25.6 Z" id="Paint" fill="#454E4E"></path>
            <rect id="mark" fill="#DDDDDD" x="15.1794872" y="1.23076923" width="1.64102564" height="7.38461538" rx="0.820512821"></rect>
        </g>
    </g>
</svg>