<?xml version="1.0" encoding="UTF-8" standalone="no"?>
<!-- Generated by IcoMoon.io -->

<svg
   xmlns:dc="http://purl.org/dc/elements/1.1/"
   xmlns:cc="http://creativecommons.org/ns#"
   xmlns:rdf="http://www.w3.org/1999/02/22-rdf-syntax-ns#"
   xmlns:svg="http://www.w3.org/2000/svg"
   xmlns="http://www.w3.org/2000/svg"
   xmlns:sodipodi="http://sodipodi.sourceforge.net/DTD/sodipodi-0.dtd"
   xmlns:inkscape="http://www.inkscape.org/namespaces/inkscape"
   version="1.1"
   width="16"
   height="16"
   viewBox="0 0 16 16"
   id="svg846"
   sodipodi:docname="030-feed.svg"
   inkscape:version="0.92.2 2405546, 2018-03-11">
  <metadata
     id="metadata852">
    <rdf:RDF>
      <cc:Work
         rdf:about="">
        <dc:format>image/svg+xml</dc:format>
        <dc:type
           rdf:resource="http://purl.org/dc/dcmitype/StillImage" />
        <dc:title></dc:title>
      </cc:Work>
    </rdf:RDF>
  </metadata>
  <defs
     id="defs850" />
  <sodipodi:namedview
     pagecolor="#ffffff"
     bordercolor="#666666"
     borderopacity="1"
     objecttolerance="10"
     gridtolerance="10"
     guidetolerance="10"
     inkscape:pageopacity="0"
     inkscape:pageshadow="2"
     inkscape:window-width="1600"
     inkscape:window-height="900"
     id="namedview848"
     showgrid="false"
     inkscape:zoom="43.5"
     inkscape:cx="8.7586207"
     inkscape:cy="8.045977"
     inkscape:window-x="0"
     inkscape:window-y="0"
     inkscape:window-maximized="0"
     inkscape:current-layer="svg846" />
  <path
     d="M 6.5,8 C 6.5,7.17125 7.17125,6.5 8,6.5 8.82875,6.5 9.5,7.17125 9.5,8 9.5,8.82875 8.82875,9.5 8,9.5 7.17125,9.5 6.5,8.82875 6.5,8 Z M 9.785,4.7015 C 10.955,5.336 11.75,6.575 11.75,8 c 0,1.425 -0.79425,2.664 -1.965,3.2985 0.51675,-0.822 0.84,-1.995 0.84,-3.2985 0,-1.3035 -0.32325,-2.4765 -0.84,-3.2985 z M 5.375,8 c 0,1.3035 0.32325,2.4765 0.84,3.2985 C 5.045,10.664 4.25,9.425 4.25,8 4.25,6.575 5.04425,5.336 6.215,4.7015 5.69825,5.5235 5.375,6.6965 5.375,8 Z m -2.25,0 c 0,2.0145 0.6375,3.82275 1.6485,5.0595 C 3.10625,11.99375 2,10.12625 2,8 2,5.87375 3.1055,4.00625 4.7735,2.9405 3.7625,4.17725 3.125,5.9855 3.125,8 Z M 11.2265,2.9405 C 12.89375,4.00625 14,5.87375 14,8 c 0,2.12625 -1.1055,3.99375 -2.7735,5.0595 1.011,-1.23675 1.6485,-3.045 1.6485,-5.0595 0,-2.0145 -0.6375,-3.82275 -1.6485,-5.0595 z"
     id="path844"
     style="fill:#b4b4b4;fill-opacity:1;stroke-width:0.75"
     inkscape:connector-curvature="0" />
</svg>
