<?xml version="1.0" encoding="UTF-8" standalone="no"?>
<!-- Generated by IcoMoon.io -->

<svg
   xmlns:dc="http://purl.org/dc/elements/1.1/"
   xmlns:cc="http://creativecommons.org/ns#"
   xmlns:rdf="http://www.w3.org/1999/02/22-rdf-syntax-ns#"
   xmlns:svg="http://www.w3.org/2000/svg"
   xmlns="http://www.w3.org/2000/svg"
   xmlns:sodipodi="http://sodipodi.sourceforge.net/DTD/sodipodi-0.dtd"
   xmlns:inkscape="http://www.inkscape.org/namespaces/inkscape"
   version="1.1"
   width="16"
   height="16"
   viewBox="0 0 16 16"
   id="svg4"
   sodipodi:docname="037-file-empty.svg"
   inkscape:version="0.92.2 2405546, 2018-03-11">
  <metadata
     id="metadata10">
    <rdf:RDF>
      <cc:Work
         rdf:about="">
        <dc:format>image/svg+xml</dc:format>
        <dc:type
           rdf:resource="http://purl.org/dc/dcmitype/StillImage" />
        <dc:title></dc:title>
      </cc:Work>
    </rdf:RDF>
  </metadata>
  <defs
     id="defs8" />
  <sodipodi:namedview
     pagecolor="#ffffff"
     bordercolor="#666666"
     borderopacity="1"
     objecttolerance="10"
     gridtolerance="10"
     guidetolerance="10"
     inkscape:pageopacity="0"
     inkscape:pageshadow="2"
     inkscape:window-width="1600"
     inkscape:window-height="900"
     id="namedview6"
     showgrid="false"
     inkscape:zoom="14.75"
     inkscape:cx="4.5423729"
     inkscape:cy="8.4745763"
     inkscape:window-x="0"
     inkscape:window-y="0"
     inkscape:window-maximized="0"
     inkscape:current-layer="svg4" />
  <path
     d="M 12.75575,4.68425 C 12.4955,4.3295 12.1325,3.914 11.73425,3.51575 11.336,3.1175 10.9205,2.7545 10.56575,2.49425 9.96125,2.051 9.668,2 9.5,2 H 3.6875 C 3.17075,2 2.75,2.42075 2.75,2.9375 v 10.125 C 2.75,13.57925 3.17075,14 3.6875,14 h 8.625 C 12.82925,14 13.25,13.57925 13.25,13.0625 V 5.75 c 0,-0.168 -0.051,-0.46125 -0.49425,-1.06575 z m -1.5525,-0.6375 c 0.36,0.36 0.642,0.684 0.8505,0.95325 h -1.8045 V 3.19625 c 0.26925,0.2085 0.594,0.4905 0.95325,0.8505 z M 12.5,13.0625 c 0,0.102 -0.0855,0.1875 -0.1875,0.1875 H 3.6875 C 3.58625,13.25 3.5,13.1645 3.5,13.0625 V 2.9375 C 3.5,2.83625 3.58625,2.75 3.6875,2.75 c 0,0 5.81175,0 5.8125,0 V 5.375 C 9.5,5.582 9.668,5.75 9.875,5.75 H 12.5 Z"
     id="path2"
     style="fill:#b4b4b4;fill-opacity:1;stroke-width:0.75"
     inkscape:connector-curvature="0" />
</svg>
