<?xml version="1.0" encoding="UTF-8" standalone="no"?>
<svg
   xmlns:dc="http://purl.org/dc/elements/1.1/"
   xmlns:cc="http://creativecommons.org/ns#"
   xmlns:rdf="http://www.w3.org/1999/02/22-rdf-syntax-ns#"
   xmlns:svg="http://www.w3.org/2000/svg"
   xmlns="http://www.w3.org/2000/svg"
   xmlns:sodipodi="http://sodipodi.sourceforge.net/DTD/sodipodi-0.dtd"
   xmlns:inkscape="http://www.inkscape.org/namespaces/inkscape"
   xml:space="preserve"
   version="1.1"
   style="clip-rule:evenodd;fill-rule:evenodd;image-rendering:optimizeQuality;shape-rendering:geometricPrecision;text-rendering:geometricPrecision"
   viewBox="0 0 16 16"
   x="0px"
   y="0px"
   id="svg3034"
   sodipodi:docname="noun_1745061_cc.svg"
   width="16"
   height="16"
   inkscape:version="0.92.2 2405546, 2018-03-11"><metadata
     id="metadata3038"><rdf:RDF><cc:Work
         rdf:about=""><dc:format>image/svg+xml</dc:format><dc:type
           rdf:resource="http://purl.org/dc/dcmitype/StillImage" /><dc:title></dc:title></cc:Work></rdf:RDF></metadata><sodipodi:namedview
     pagecolor="#ffffff"
     bordercolor="#666666"
     borderopacity="1"
     objecttolerance="10"
     gridtolerance="10"
     guidetolerance="10"
     inkscape:pageopacity="0"
     inkscape:pageshadow="2"
     inkscape:window-width="1600"
     inkscape:window-height="900"
     id="namedview3036"
     showgrid="false"
     inkscape:zoom="2.9385214"
     inkscape:cx="24.568026"
     inkscape:cy="49.947022"
     inkscape:window-x="0"
     inkscape:window-y="0"
     inkscape:window-maximized="0"
     inkscape:current-layer="svg3034" /><defs
     id="defs3024"><style
       type="text/css"
       id="style3022">
   
    .fil0 {fill:black}
   
  </style></defs><g
     id="g3028"
     transform="matrix(0.04669261,0,0,0.04669261,2.6002034,1.9999996)"
     style="fill:#b4b4b4;fill-opacity:1"><path
       class="fil0"
       d="M 57,228 C -2,177 107,127 84,71 71,41 32,31 8,52 -7,64 2,79 17,69 34,55 56,62 64,81 c 12,29 -36,75 -43,102 -8,27 12,74 49,74 h 74 c 0,-9 -4,-13 -12,-14 20,-18 23,-40 1,-67 24,20 25,51 10,66 7,4 8,10 9,15 h 29 c -3,-4 -6,-8 -11,-10 -3,-50 25,-65 34,-94 6,-23 -3,-47 -10,-67 11,-8 25,6 37,-16 -10,-16 -5,-38 -26,-44 -4,-10 1,-17 6,-26 -52,18 -60,31 -65,73 -8,56 -22,34 -61,63 -37,27 -29,57 -28,92 z"
       id="path3026"
       inkscape:connector-curvature="0"
       style="fill:#b4b4b4;fill-opacity:1" /></g></svg>