<?xml version="1.0" encoding="UTF-8" standalone="no"?>
<svg
   xmlns:dc="http://purl.org/dc/elements/1.1/"
   xmlns:cc="http://creativecommons.org/ns#"
   xmlns:rdf="http://www.w3.org/1999/02/22-rdf-syntax-ns#"
   xmlns:svg="http://www.w3.org/2000/svg"
   xmlns="http://www.w3.org/2000/svg"
   xmlns:sodipodi="http://sodipodi.sourceforge.net/DTD/sodipodi-0.dtd"
   xmlns:inkscape="http://www.inkscape.org/namespaces/inkscape"
   version="1.1"
   x="0px"
   y="0px"
   viewBox="-7074.5 3413.5 16 16"
   enable-background="new -7074.5 3413.5 24 24"
   xml:space="preserve"
   id="svg12"
   sodipodi:docname="settings_icon_cc.svg"
   width="16"
   height="16"
   inkscape:version="0.92.3 (2405546, 2018-03-11)"><metadata
     id="metadata18"><rdf:RDF><cc:Work
         rdf:about=""><dc:format>image/svg+xml</dc:format><dc:type
           rdf:resource="http://purl.org/dc/dcmitype/StillImage" /><dc:title /></cc:Work></rdf:RDF></metadata><defs
     id="defs16">
	
	
	
	
	
	
	
	
	
	
	
	
	
	
	
	
	
	
	
	
	
</defs><sodipodi:namedview
     pagecolor="#ffffff"
     bordercolor="#666666"
     borderopacity="1"
     objecttolerance="10"
     gridtolerance="10"
     guidetolerance="10"
     inkscape:pageopacity="0"
     inkscape:pageshadow="2"
     inkscape:window-width="1920"
     inkscape:window-height="1137"
     id="namedview14"
     showgrid="false"
     inkscape:zoom="22.250293"
     inkscape:cx="1.4996926"
     inkscape:cy="9.1190487"
     inkscape:window-x="-8"
     inkscape:window-y="-8"
     inkscape:window-maximized="1"
     inkscape:current-layer="svg12" /><g
     style="font-style:normal;font-weight:normal;font-size:40px;line-height:1.25;font-family:sans-serif;letter-spacing:0px;word-spacing:0px;fill:#000000;fill-opacity:1;stroke:none"
     id="text1044" /><g
     style="font-style:normal;font-weight:normal;font-size:40px;line-height:1.25;font-family:sans-serif;letter-spacing:0px;word-spacing:0px;fill:#000000;fill-opacity:1;stroke:none"
     id="text1056" /><g
     transform="matrix(0.04483133,0,0,0.04483133,-7072.6113,3415.4306)"
     id="Settings"
     style="fill:#b4b4b4;fill-opacity:1"><g
       id="g4"
       style="fill:#b4b4b4;fill-opacity:1"><path
         style="clip-rule:evenodd;fill:#b4b4b4;fill-opacity:1;fill-rule:evenodd"
         d="M 267.92,119.461 C 259.7639,108.37353 237.60907,113.69022 232.38746,96.479699 224.2718,82.390868 233.00438,67.286235 241.3705,56.29375 237.43425,44.426372 225.91606,35.523227 215.98352,28.244359 203.37196,32.005085 190.10946,46.088799 174.769,37.92 157.82363,32.983341 158.89813,13.404545 152.74813,1.7591562 140.59107,-0.17972483 126.1677,-2.1756684 114.95288,3.357125 112.96944,17.007361 108.38383,33.860528 92.63896,37.926967 77.775408,44.414555 65.997604,30.615672 53.839531,27.462953 43.772588,34.725084 31.977464,43.546698 27.964375,55.510625 c 8.49164,11.040709 17.354156,26.326968 8.991024,40.499701 -5.867916,15.344484 -24.485634,13.358994 -35.2431959,20.053284 -1.60577119,12.17834 -4.4742822,27.30556 2.2519219,37.97214 12.880627,2.23194 28.500004,5.84589 33.341875,20.29625 8.393178,15.26924 -5.888965,28.31876 -9.629844,40.84962 7.224375,9.96863 15.9554,21.67539 27.825594,25.64263 11.099937,-8.35246 26.446117,-17.06929 40.584732,-8.98545 15.634258,5.69547 13.544408,24.27779 19.933428,35.16712 12.15272,1.92903 26.57763,3.94093 37.78909,-1.60092 1.97214,-13.65237 6.56399,-30.5044 22.31039,-34.56583 14.86512,-6.50972 26.63511,7.31696 38.79786,10.45844 10.07865,-7.24787 21.85234,-16.08992 25.88513,-28.04249 -8.48485,-11.03294 -17.36567,-26.29404 -9.02937,-40.47181 5.58844,-11.68796 18.70272,-16.89286 31.01071,-16.51756 9.97767,-7.68663 4.90088,-25.51607 5.13628,-36.80475 z m -133.325,60.03 c -26.4812,0.83488 -49.170092,-25.58413 -44.306628,-51.64133 3.22607,-26.2257 32.618568,-44.652523 57.621488,-35.988163 25.41298,7.086788 39.29929,38.784143 27.08161,62.222153 -7.20502,15.27134 -23.48006,25.59801 -40.39647,25.40734 z"
         id="path2"
         inkscape:connector-curvature="0" /></g></g></svg>