<?xml version="1.0" encoding="UTF-8" standalone="no"?>
<!-- Created with Inkscape (http://www.inkscape.org/) -->

<svg
   xmlns:dc="http://purl.org/dc/elements/1.1/"
   xmlns:cc="http://creativecommons.org/ns#"
   xmlns:rdf="http://www.w3.org/1999/02/22-rdf-syntax-ns#"
   xmlns:svg="http://www.w3.org/2000/svg"
   xmlns="http://www.w3.org/2000/svg"
   xmlns:sodipodi="http://sodipodi.sourceforge.net/DTD/sodipodi-0.dtd"
   xmlns:inkscape="http://www.inkscape.org/namespaces/inkscape"
   width="21.491127"
   height="21.491154"
   viewBox="0 0 5.686194 5.686201"
   version="1.1"
   id="svg15246"
   sodipodi:docname="PJ301MDarkSmall.svg"
   inkscape:version="0.92.2 5c3e80d, 2017-08-06">
  <defs
     id="defs15240">
    <clipPath
       id="clip89">
      <rect
         y="0"
         x="0"
         width="18"
         height="19"
         id="rect4864" />
    </clipPath>
    <clipPath
       id="clip90">
      <path
         inkscape:connector-curvature="0"
         d="m 0.898438,0.128906 h 16.25 v 17.882813 h -16.25 z m 0,0"
         id="path4861" />
    </clipPath>
    <mask
       id="mask44">
      <g
         style="filter:url(#alpha)"
         id="g4858"
         transform="matrix(0.26458333,0,0,0.26458333,89.358789,128.57765)">
        <rect
           x="0"
           y="0"
           width="3052.8701"
           height="3351.5"
           style="fill:#000000;fill-opacity:0.14999402;stroke:none"
           id="rect4856" />
      </g>
    </mask>
    <filter
       id="alpha"
       filterUnits="objectBoundingBox"
       x="0"
       y="0"
       width="1"
       height="1">
      <feColorMatrix
         type="matrix"
         in="SourceGraphic"
         values="0 0 0 0 1 0 0 0 0 1 0 0 0 0 1 0 0 0 1 0"
         id="feColorMatrix4149" />
    </filter>
    <clipPath
       id="clipPath17821">
      <rect
         y="0"
         x="0"
         width="18"
         height="19"
         id="rect17819" />
    </clipPath>
    <clipPath
       id="clipPath17825">
      <path
         inkscape:connector-curvature="0"
         d="m 0.898438,0.128906 h 16.25 v 17.882813 h -16.25 z m 0,0"
         id="path17823" />
    </clipPath>
    <clipPath
       id="clip87">
      <rect
         y="0"
         x="0"
         width="24"
         height="26"
         id="rect4848" />
    </clipPath>
    <clipPath
       id="clip88">
      <path
         inkscape:connector-curvature="0"
         d="m 0.683594,0.921875 h 22.679687 v 24.9375 H 0.683594 Z m 0,0"
         id="path4845" />
    </clipPath>
    <mask
       id="mask43">
      <g
         style="filter:url(#alpha)"
         id="g4842"
         transform="matrix(0.26458333,0,0,0.26458333,89.358789,128.57765)">
        <rect
           x="0"
           y="0"
           width="3052.8701"
           height="3351.5"
           style="fill:#000000;fill-opacity:0.14999402;stroke:none"
           id="rect4840" />
      </g>
    </mask>
    <filter
       id="filter17836"
       filterUnits="objectBoundingBox"
       x="0"
       y="0"
       width="1"
       height="1">
      <feColorMatrix
         type="matrix"
         in="SourceGraphic"
         values="0 0 0 0 1 0 0 0 0 1 0 0 0 0 1 0 0 0 1 0"
         id="feColorMatrix17834" />
    </filter>
    <clipPath
       id="clipPath17840">
      <rect
         y="0"
         x="0"
         width="24"
         height="26"
         id="rect17838" />
    </clipPath>
    <clipPath
       id="clipPath17844">
      <path
         inkscape:connector-curvature="0"
         d="m 0.683594,0.921875 h 22.679687 v 24.9375 H 0.683594 Z m 0,0"
         id="path17842" />
    </clipPath>
  </defs>
  <sodipodi:namedview
     id="base"
     pagecolor="#ffffff"
     bordercolor="#666666"
     borderopacity="1.0"
     inkscape:pageopacity="0.0"
     inkscape:pageshadow="2"
     inkscape:zoom="44.8"
     inkscape:cx="4.2999886"
     inkscape:cy="9.4864176"
     inkscape:document-units="mm"
     inkscape:current-layer="layer1"
     showgrid="false"
     inkscape:window-width="1920"
     inkscape:window-height="1151"
     inkscape:window-x="0"
     inkscape:window-y="1"
     inkscape:window-maximized="1"
     units="px"
     fit-margin-top="0"
     fit-margin-left="0"
     fit-margin-right="0"
     fit-margin-bottom="0"
     inkscape:snap-global="false" />
  <metadata
     id="metadata15243">
    <rdf:RDF>
      <cc:Work
         rdf:about="">
        <dc:format>image/svg+xml</dc:format>
        <dc:type
           rdf:resource="http://purl.org/dc/dcmitype/StillImage" />
        <dc:title />
      </cc:Work>
    </rdf:RDF>
  </metadata>
  <g
     inkscape:label="Layer 1"
     inkscape:groupmode="layer"
     id="layer1"
     transform="translate(-89.945866,-120.5333)">
    <path
       inkscape:connector-curvature="0"
       id="path7255"
       d="m 92.788964,126.09449 c -1.499059,0 -2.718082,-1.21902 -2.718082,-2.71809 0,-1.49904 1.219023,-2.71808 2.718082,-2.71808 1.499056,0 2.718081,1.21904 2.718081,2.71808 0,1.49907 -1.219025,2.71809 -2.718081,2.71809"
       style="fill:#636466;fill-opacity:1;fill-rule:nonzero;stroke:#000000;stroke-width:0.25003126;stroke-miterlimit:4;stroke-dasharray:none;stroke-opacity:1" />
    <path
       inkscape:connector-curvature="0"
       id="path7261"
       d="m 92.788964,125.49191 c -1.166614,0 -2.115487,-0.94889 -2.115487,-2.1155 0,-1.16661 0.948873,-2.11548 2.115487,-2.11548 1.166614,0 2.115484,0.94887 2.115484,2.11548 0,1.16661 -0.94887,2.1155 -2.115484,2.1155"
       style="fill:#d4d7d9;fill-opacity:1;fill-rule:nonzero;stroke:#343b3f;stroke-width:0.13229167;stroke-miterlimit:4;stroke-dasharray:none;stroke-opacity:1" />
    <path
       style="fill:#929a9e;fill-opacity:1;fill-rule:nonzero;stroke:none;stroke-width:0.13229167;stroke-miterlimit:4;stroke-dasharray:none;stroke-opacity:1"
       d="m 92.788963,125.44957 c -1.13002,0 -2.049129,-0.86102 -2.049129,-1.9196 0,-1.05858 0.919109,-1.91959 2.049129,-1.91959 1.130022,0 2.049128,0.86101 2.049128,1.91959 0,1.05858 -0.919106,1.9196 -2.049128,1.9196"
       id="path1187"
       inkscape:connector-curvature="0" />
    <path
       style="fill:#dee4e5;fill-opacity:1;fill-rule:nonzero;stroke:none;stroke-width:0.35277775"
       d="m 94.14281,123.64102 c 0,0.75322 -0.606435,1.3644 -1.353853,1.3644 -0.747421,0 -1.353856,-0.61118 -1.353856,-1.3644 0,-0.75321 0.606435,-1.36436 1.353856,-1.36436 0.747418,0 1.353853,0.61115 1.353853,1.36436"
       id="path861"
       inkscape:connector-curvature="0" />
    <path
       inkscape:connector-curvature="0"
       id="path7265"
       d="m 94.139833,123.37641 c 0,0.74577 -0.605099,1.35088 -1.350869,1.35088 -0.745773,0 -1.350872,-0.60511 -1.350872,-1.35088 0,-0.74577 0.605099,-1.35085 1.350872,-1.35085 0.74577,0 1.350869,0.60508 1.350869,1.35085"
       style="fill:#000000;fill-opacity:1;fill-rule:nonzero;stroke:none;stroke-width:0.35277775" />
  </g>
</svg>
