<?xml version="1.0" encoding="UTF-8" standalone="no"?>
<!-- Created with Inkscape (http://www.inkscape.org/) -->

<svg
   xmlns:dc="http://purl.org/dc/elements/1.1/"
   xmlns:cc="http://creativecommons.org/ns#"
   xmlns:rdf="http://www.w3.org/1999/02/22-rdf-syntax-ns#"
   xmlns:svg="http://www.w3.org/2000/svg"
   xmlns="http://www.w3.org/2000/svg"
   xmlns:sodipodi="http://sodipodi.sourceforge.net/DTD/sodipodi-0.dtd"
   xmlns:inkscape="http://www.inkscape.org/namespaces/inkscape"
   width="90"
   height="380"
   viewBox="0 0 23.812501 100.54167"
   version="1.1"
   id="svg8"
   inkscape:version="0.91 r13725"
   sodipodi:docname="Perlin.svg">
  <defs
     id="defs2" />
  <sodipodi:namedview
     id="base"
     pagecolor="#ffffff"
     bordercolor="#666666"
     borderopacity="1.0"
     inkscape:pageopacity="0.0"
     inkscape:pageshadow="2"
     inkscape:zoom="1.7210526"
     inkscape:cx="-82.812672"
     inkscape:cy="195.9874"
     inkscape:document-units="mm"
     inkscape:current-layer="layer1"
     showgrid="false"
     units="px"
     inkscape:snap-bbox="true"
     inkscape:snap-page="true"
     inkscape:bbox-nodes="true"
     inkscape:snap-bbox-edge-midpoints="true"
     inkscape:window-width="1440"
     inkscape:window-height="856"
     inkscape:window-x="39"
     inkscape:window-y="0"
     inkscape:window-maximized="0"
     showguides="true"
     inkscape:guide-bbox="true">
    <sodipodi:guide
       position="18.198128,92.507965"
       orientation="0,1"
       id="guide4168" />
    <sodipodi:guide
       position="43.045364,88.85793"
       orientation="0,1"
       id="guide4170" />
    <sodipodi:guide
       position="11.376275,65.029246"
       orientation="1,0"
       id="guide4172" />
    <sodipodi:guide
       position="21.562501,79.94139"
       orientation="1,0"
       id="guide4173"
       inkscape:label=""
       inkscape:color="rgb(0,0,255)" />
  </sodipodi:namedview>
  <metadata
     id="metadata5">
    <rdf:RDF>
      <cc:Work
         rdf:about="">
        <dc:format>image/svg+xml</dc:format>
        <dc:type
           rdf:resource="http://purl.org/dc/dcmitype/StillImage" />
        <dc:title />
      </cc:Work>
    </rdf:RDF>
  </metadata>
  <g
     inkscape:label="Layer 1"
     inkscape:groupmode="layer"
     id="layer1"
     transform="translate(0,-196.45832)">
    <path
       style="opacity:1;fill:#313131;fill-opacity:1;fill-rule:evenodd;stroke:none;stroke-width:0.48607069;stroke-linecap:butt;stroke-linejoin:round;stroke-miterlimit:4;stroke-dasharray:none;stroke-dashoffset:0;stroke-opacity:1;paint-order:normal"
       d="m 0,196.45832 23.8125,0 L 23.8125,297 0,297 Z"
       id="rect817"
       inkscape:connector-curvature="0" />
    <g
       transform="scale(0.69757272,1.4335423)"
       style="font-style:normal;font-weight:normal;font-size:3.32560539px;line-height:125%;font-family:Sans;letter-spacing:0px;word-spacing:0px;fill:#ffffff;fill-opacity:1;stroke:none;stroke-width:1px;stroke-linecap:butt;stroke-linejoin:miter;stroke-opacity:1"
       id="text5632">
      <path
         d="m 7.626915,202.70985 0,1.09771 -0.2987849,0 0,-1.08797 q 0,-0.25819 -0.1006775,-0.38647 -0.1006775,-0.12828 -0.3020325,-0.12828 -0.2419508,0 -0.3816002,0.15426 -0.1396495,0.15426 -0.1396495,0.42057 l 0,1.02789 -0.3004087,0 0,-1.81869 0.3004087,0 0,0.28254 q 0.1071728,-0.164 0.2516938,-0.2452 0.1461447,-0.0812 0.3361329,-0.0812 0.3133994,0 0.4741586,0.19486 0.1607593,0.19324 0.1607593,0.56997 z"
         style=""
         id="path4177" />
      <path
         d="m 9.0526384,202.89334 q -0.3621142,0 -0.5017637,0.0828 -0.1396494,0.0828 -0.1396494,0.28255 0,0.15914 0.1039251,0.25332 0.105549,0.0926 0.2857943,0.0926 0.2484461,0 0.3978385,-0.17538 0.1510163,-0.17699 0.1510163,-0.46928 l 0,-0.0666 -0.2971611,0 z m 0.5959459,-0.12341 0,1.03763 -0.2987848,0 0,-0.27606 q -0.1023014,0.16564 -0.2549415,0.2452 -0.1526401,0.0779 -0.373481,0.0779 -0.2792989,0 -0.4449297,-0.15589 -0.1640069,-0.15751 -0.1640069,-0.42057 0,-0.30691 0.2046027,-0.46279 0.2062265,-0.15589 0.613808,-0.15589 l 0.4189484,0 0,-0.0292 q 0,-0.20623 -0.1364018,-0.31827 -0.134778,-0.11367 -0.3799764,-0.11367 -0.1558878,0 -0.3036564,0.0374 -0.1477686,0.0374 -0.2841704,0.11204 l 0,-0.27605 q 0.1640069,-0.0633 0.3182709,-0.0942 0.1542639,-0.0325 0.3004087,-0.0325 0.3945908,0 0.5894505,0.2046 0.1948597,0.20461 0.1948597,0.62031 z"
         style=""
         id="path4179" />
      <path
         d="m 10.241282,203.08982 0,-1.10095 0.298785,0 0,1.08959 q 0,0.25819 0.100678,0.38809 0.100677,0.12828 0.302032,0.12828 0.241951,0 0.381601,-0.15426 0.141273,-0.15426 0.141273,-0.42057 l 0,-1.03113 0.298785,0 0,1.81869 -0.298785,0 0,-0.2793 q -0.108797,0.16563 -0.253318,0.24682 -0.142897,0.0796 -0.332885,0.0796 -0.313399,0 -0.475782,-0.19486 -0.162384,-0.19486 -0.162384,-0.56997 z"
         style=""
         id="path4181" />
      <path
         d="m 12.425335,203.3951 0.342628,0 0,0.41246 -0.342628,0 0,-0.41246 z"
         style=""
         id="path4183" />
      <path
         d="m 14.857833,202.33799 q 0.112045,-0.20136 0.267933,-0.29716 0.155887,-0.0958 0.366985,-0.0958 0.284171,0 0.438435,0.19973 0.154264,0.19811 0.154264,0.5651 l 0,1.09771 -0.300409,0 0,-1.08797 q 0,-0.26144 -0.09256,-0.3881 -0.09256,-0.12665 -0.282546,-0.12665 -0.232208,0 -0.366986,0.15426 -0.134778,0.15426 -0.134778,0.42057 l 0,1.02789 -0.300408,0 0,-1.08797 q 0,-0.26306 -0.09256,-0.3881 -0.09256,-0.12665 -0.285794,-0.12665 -0.22896,0 -0.363738,0.15588 -0.134778,0.15427 -0.134778,0.41895 l 0,1.02789 -0.300409,0 0,-1.81869 0.300409,0 0,0.28254 q 0.102301,-0.16725 0.245198,-0.24682 0.142897,-0.0796 0.339381,-0.0796 0.198107,0 0.336133,0.10068 0.139649,0.10068 0.206226,0.29229 z"
         style=""
         id="path4185" />
      <path
         d="m 17.381267,202.19834 q -0.240327,0 -0.379977,0.18836 -0.139649,0.18674 -0.139649,0.51313 0,0.32639 0.138026,0.51476 0.139649,0.18674 0.3816,0.18674 0.238703,0 0.378352,-0.18836 0.13965,-0.18837 0.13965,-0.51314 0,-0.32314 -0.13965,-0.5115 -0.139649,-0.18999 -0.378352,-0.18999 z m 0,-0.25332 q 0.389719,0 0.612184,0.25332 0.222465,0.25332 0.222465,0.70149 0,0.44656 -0.222465,0.7015 -0.222465,0.25332 -0.612184,0.25332 -0.391343,0 -0.613808,-0.25332 -0.220841,-0.25494 -0.220841,-0.7015 0,-0.44817 0.220841,-0.70149 0.222465,-0.25332 0.613808,-0.25332 z"
         style=""
         id="path4187" />
      <path
         d="m 19.906323,202.26492 0,-0.98404 0.298785,0 0,2.52668 -0.298785,0 0,-0.27281 q -0.09418,0.16239 -0.238703,0.24195 -0.142897,0.0779 -0.344253,0.0779 -0.329637,0 -0.537487,-0.26306 -0.206227,-0.26306 -0.206227,-0.69176 0,-0.42869 0.206227,-0.69175 0.20785,-0.26306 0.537487,-0.26306 0.201356,0 0.344253,0.0796 0.144521,0.0779 0.238703,0.24033 z m -1.018142,0.63491 q 0,0.32964 0.134778,0.51801 0.136402,0.18674 0.373481,0.18674 0.237079,0 0.373481,-0.18674 0.136402,-0.18837 0.136402,-0.51801 0,-0.32963 -0.136402,-0.51637 -0.136402,-0.18837 -0.373481,-0.18837 -0.237079,0 -0.373481,0.18837 -0.134778,0.18674 -0.134778,0.51637 z"
         style=""
         id="path4189" />
      <path
         d="m 20.789687,203.08982 0,-1.10095 0.298785,0 0,1.08959 q 0,0.25819 0.100677,0.38809 0.100678,0.12828 0.302033,0.12828 0.24195,0 0.3816,-0.15426 0.141273,-0.15426 0.141273,-0.42057 l 0,-1.03113 0.298785,0 0,1.81869 -0.298785,0 0,-0.2793 q -0.108797,0.16563 -0.253317,0.24682 -0.142898,0.0796 -0.332886,0.0796 -0.313399,0 -0.475782,-0.19486 -0.162383,-0.19486 -0.162383,-0.56997 z"
         style=""
         id="path4191" />
      <path
         d="m 22.93152,201.28088 0.298784,0 0,2.52668 -0.298784,0 0,-2.52668 z"
         style=""
         id="path4193" />
      <path
         d="m 24.680386,202.89334 q -0.362114,0 -0.501764,0.0828 -0.139649,0.0828 -0.139649,0.28255 0,0.15914 0.103925,0.25332 0.105549,0.0926 0.285794,0.0926 0.248446,0 0.397839,-0.17538 0.151016,-0.17699 0.151016,-0.46928 l 0,-0.0666 -0.297161,0 z m 0.595946,-0.12341 0,1.03763 -0.298785,0 0,-0.27606 q -0.102301,0.16564 -0.254941,0.2452 -0.152641,0.0779 -0.373482,0.0779 -0.279298,0 -0.444929,-0.15589 -0.164007,-0.15751 -0.164007,-0.42057 0,-0.30691 0.204603,-0.46279 0.206226,-0.15589 0.613808,-0.15589 l 0.418948,0 0,-0.0292 q 0,-0.20623 -0.136402,-0.31827 -0.134778,-0.11367 -0.379976,-0.11367 -0.155888,0 -0.303657,0.0374 -0.147768,0.0374 -0.28417,0.11204 l 0,-0.27605 q 0.164007,-0.0633 0.318271,-0.0942 0.154264,-0.0325 0.300409,-0.0325 0.39459,0 0.58945,0.2046 0.19486,0.20461 0.19486,0.62031 z"
         style=""
         id="path4195" />
      <path
         d="m 26.953748,202.26816 q -0.05034,-0.0292 -0.11042,-0.0422 -0.05846,-0.0146 -0.129906,-0.0146 -0.253318,0 -0.38972,0.16563 -0.134778,0.16401 -0.134778,0.47254 l 0,0.95806 -0.300408,0 0,-1.81869 0.300408,0 0,0.28254 q 0.09418,-0.16563 0.245199,-0.2452 0.151016,-0.0812 0.366985,-0.0812 0.03085,0 0.0682,0.005 0.03735,0.003 0.08282,0.0114 l 0.0016,0.3069 z"
         style=""
         id="path4197" />
    </g>
    <rect
       style="fill:none;fill-opacity:1;stroke:#ffffff;stroke-width:0.49367839;stroke-linecap:round;stroke-linejoin:round;stroke-miterlimit:4;stroke-dasharray:none;stroke-opacity:1"
       id="rect5644"
       width="15.562134"
       height="19.866673"
       x="4.0564089"
       y="268.00369" />
    <g
       transform="scale(1.1938196,0.83764751)"
       style="font-style:normal;font-weight:normal;font-size:6.31729889px;line-height:125%;font-family:Sans;letter-spacing:0px;word-spacing:0px;fill:#ffffff;fill-opacity:1;stroke:none;stroke-width:1px;stroke-linecap:butt;stroke-linejoin:miter;stroke-opacity:1"
       id="text4164">
      <path
         d="m 2.0196562,248.40802 0,1.83227 -0.5706544,0 0,-4.76882 0.5706544,0 0,0.52438 q 0.1789079,-0.30846 0.4503544,-0.45652 0.274531,-0.15115 0.6539391,-0.15115 0.6292622,0 1.0210088,0.49971 0.3948311,0.49971 0.3948311,1.31405 0,0.81434 -0.3948311,1.31404 -0.3917466,0.49971 -1.0210088,0.49971 -0.3794081,0 -0.6539391,-0.14806 -0.2714465,-0.15115 -0.4503544,-0.45961 z m 1.9309713,-1.20608 q 0,-0.62618 -0.259108,-0.98091 -0.2560233,-0.35782 -0.7063776,-0.35782 -0.4503544,0 -0.7094623,0.35782 -0.2560234,0.35473 -0.2560234,0.98091 0,0.62617 0.2560234,0.98399 0.2591079,0.35473 0.7094623,0.35473 0.4503543,0 0.7063776,-0.35473 0.259108,-0.35782 0.259108,-0.98399 z"
         style=""
         id="path4178" />
      <path
         d="m 8.4356628,247.05696 0,0.27762 -2.6095873,0 q 0.037015,0.58607 0.3516465,0.89454 0.3177157,0.30537 0.8822009,0.30537 0.3269696,0 0.6323468,-0.0802 0.3084619,-0.0802 0.6107545,-0.2406 l 0,0.53673 q -0.3053773,0.12955 -0.6261776,0.19741 -0.3208003,0.0679 -0.6508545,0.0679 -0.8266778,0 -1.3109629,-0.4812 -0.4812005,-0.4812 -0.4812005,-1.30171 0,-0.84827 0.4565235,-1.34489 0.4596082,-0.49971 1.2369321,-0.49971 0.6971238,0 1.1012088,0.45036 0.4071697,0.44727 0.4071697,1.21842 z M 7.868093,246.89039 q -0.00617,-0.46578 -0.2621926,-0.74339 -0.2529387,-0.27762 -0.6724469,-0.27762 -0.4750312,0 -0.7619008,0.26836 -0.2837849,0.26837 -0.3269695,0.75574 l 2.0235098,-0.003 z"
         style=""
         id="path4180" />
      <path
         d="m 11.356797,246.00202 q -0.09562,-0.0555 -0.209754,-0.0802 -0.111047,-0.0278 -0.24677,-0.0278 -0.4812,0 -0.740308,0.31463 -0.2560238,0.31155 -0.2560238,0.89762 l 0,1.81993 -0.5706544,0 0,-3.45477 0.5706544,0 0,0.53672 q 0.1789078,-0.31463 0.4657778,-0.46578 0.286869,-0.15423 0.697123,-0.15423 0.05861,0 0.129554,0.009 0.07095,0.006 0.157316,0.0216 l 0.0031,0.58299 z"
         style=""
         id="path4182" />
      <path
         d="m 11.958297,244.12657 0.56757,0 0,4.79967 -0.56757,0 0,-4.79967 z"
         style=""
         id="path4184" />
      <path
         d="m 13.71036,245.47147 0.56757,0 0,3.45477 -0.56757,0 0,-3.45477 z m 0,-1.3449 0.56757,0 0,0.71872 -0.56757,0 0,-0.71872 z"
         style=""
         id="path4186" />
      <path
         d="m 18.334204,246.84104 0,2.0852 -0.56757,0 0,-2.0667 q 0,-0.49045 -0.191246,-0.73413 -0.191247,-0.24369 -0.573739,-0.24369 -0.459608,0 -0.724886,0.29304 -0.265277,0.29304 -0.265277,0.79892 l 0,1.95256 -0.570654,0 0,-3.45477 0.570654,0 0,0.53672 q 0.203585,-0.31155 0.478116,-0.46578 0.277616,-0.15423 0.638516,-0.15423 0.595331,0 0.900709,0.37016 0.305377,0.36707 0.305377,1.0827 z"
         style=""
         id="path4188" />
    </g>
    <path
       style="fill:none;fill-rule:evenodd;stroke:#ffffff;stroke-width:0.65625012;stroke-linecap:butt;stroke-linejoin:miter;stroke-miterlimit:4;stroke-dasharray:none;stroke-opacity:1"
       d="m 11.376276,211.83166 c 7.082503,3.72657 -0.597134,4.62508 6.55465,8.33656 1.373446,0.71276 -3.899756,4.28174 -1.47817,6.63412 1.213383,1.17871 -3.454849,3.01301 -4.501295,7.09274 -0.509602,1.98676 4.964962,2.64716 3.385643,6.98395 -0.50456,1.38552 2.175464,4.16146 1.71328,5.67886 -0.85487,2.80664 -4.315827,2.60389 -5.337546,5.32893 -0.543502,1.44958 5.512731,2.35039 1.603004,4.62831 -1.228708,0.71588 3.007523,3.68034 2.535746,4.99087 -1.181987,3.28338 -6.0913375,5.21754 -4.475312,6.59211"
       id="path4174"
       inkscape:connector-curvature="0"
       sodipodi:nodetypes="cssssssssc" />
    <g
       style="font-style:normal;font-weight:normal;font-size:2.62160015px;line-height:125%;font-family:Sans;letter-spacing:0px;word-spacing:0px;fill:#ffffff;fill-opacity:1;stroke:none;stroke-width:1px;stroke-linecap:butt;stroke-linejoin:miter;stroke-opacity:1"
       id="text4158">
      <path
         d="m 4.2131387,213.89957 0,0.22273 q -0.099846,-0.0512 -0.2073726,-0.0768 -0.1075266,-0.0256 -0.2227336,-0.0256 -0.1753708,0 -0.2636961,0.0538 -0.087045,0.0538 -0.087045,0.16129 0,0.0819 0.062724,0.12929 0.062724,0.0461 0.2521754,0.0883 l 0.080645,0.0179 q 0.2508953,0.0538 0.3558617,0.15232 0.1062465,0.0973 0.1062465,0.27266 0,0.19969 -0.1587297,0.31618 -0.1574496,0.11649 -0.4339465,0.11649 -0.115207,0 -0.2406547,-0.023 -0.1241676,-0.0218 -0.262416,-0.0666 l 0,-0.24321 q 0.130568,0.0678 0.2572957,0.1024 0.1267278,0.0333 0.2508953,0.0333 0.1664102,0 0.2560157,-0.0563 0.089605,-0.0576 0.089605,-0.16129 0,-0.096 -0.065284,-0.14721 -0.064004,-0.0512 -0.2828973,-0.0986 l -0.081925,-0.0192 q -0.2188934,-0.0461 -0.3161793,-0.14081 -0.097286,-0.096 -0.097286,-0.26242 0,-0.20225 0.1433688,-0.31234 0.1433687,-0.11008 0.4070648,-0.11008 0.130568,0 0.2457751,0.0192 0.115207,0.0192 0.2124929,0.0576 z"
         style=""
         id="path4163" />
      <path
         d="m 4.8941403,215.07596 0,0.76037 -0.2368145,0 0,-1.979 0.2368145,0 0,0.21761 q 0.074244,-0.12801 0.1868914,-0.18945 0.113927,-0.0627 0.2713766,-0.0627 0.261136,0 0.4237059,0.20737 0.16385,0.20737 0.16385,0.54531 0,0.33794 -0.16385,0.54532 -0.1625699,0.20737 -0.4237059,0.20737 -0.1574496,0 -0.2713766,-0.0614 -0.1126469,-0.0627 -0.1868914,-0.19073 z m 0.801329,-0.50051 q 0,-0.25985 -0.1075266,-0.40706 -0.1062465,-0.14849 -0.2931379,-0.14849 -0.1868914,0 -0.294418,0.14849 -0.1062465,0.14721 -0.1062465,0.40706 0,0.25986 0.1062465,0.40835 0.1075266,0.14721 0.294418,0.14721 0.1868914,0 0.2931379,-0.14721 0.1075266,-0.14849 0.1075266,-0.40835 z"
         style=""
         id="path4165" />
      <path
         d="m 7.556703,214.51529 0,0.11521 -1.0829461,0 q 0.015361,0.24321 0.1459289,0.37122 0.131848,0.12673 0.3661023,0.12673 0.1356883,0 0.2624161,-0.0333 0.1280078,-0.0333 0.2534555,-0.0998 l 0,0.22273 q -0.1267278,0.0538 -0.2598559,0.0819 -0.1331281,0.0282 -0.2700965,0.0282 -0.343061,0 -0.5440332,-0.19969 -0.1996922,-0.1997 -0.1996922,-0.5402 0,-0.35202 0.1894515,-0.55811 0.1907317,-0.20737 0.5133114,-0.20737 0.2892977,0 0.4569879,0.18689 0.1689703,0.18561 0.1689703,0.50563 z m -0.2355344,-0.0691 q -0.00256,-0.19329 -0.1088066,-0.30849 -0.1049664,-0.11521 -0.2790571,-0.11521 -0.197132,0 -0.3161793,0.11136 -0.1177672,0.11137 -0.1356883,0.31362 l 0.8397313,-0.001 z"
         style=""
         id="path4167" />
      <path
         d="m 9.1644811,214.51529 0,0.11521 -1.0829462,0 q 0.015361,0.24321 0.145929,0.37122 0.131848,0.12673 0.3661023,0.12673 0.1356883,0 0.262416,-0.0333 0.1280079,-0.0333 0.2534555,-0.0998 l 0,0.22273 q -0.1267277,0.0538 -0.2598558,0.0819 -0.1331282,0.0282 -0.2700965,0.0282 -0.343061,0 -0.5440333,-0.19969 -0.1996922,-0.1997 -0.1996922,-0.5402 0,-0.35202 0.1894516,-0.55811 0.1907316,-0.20737 0.5133114,-0.20737 0.2892976,0 0.4569879,0.18689 0.1689703,0.18561 0.1689703,0.50563 z m -0.2355344,-0.0691 q -0.00256,-0.19329 -0.1088066,-0.30849 -0.1049665,-0.11521 -0.2790571,-0.11521 -0.197132,0 -0.3161793,0.11136 -0.1177672,0.11137 -0.1356883,0.31362 l 0.8397313,-0.001 z"
         style=""
         id="path4169" />
      <path
         d="m 10.489362,214.07494 0,-0.77573 0.235534,0 0,1.99181 -0.235534,0 0,-0.21506 q -0.07424,0.12801 -0.188172,0.19073 -0.112646,0.0614 -0.271376,0.0614 -0.2598561,0 -0.4237061,-0.20737 -0.1625699,-0.20738 -0.1625699,-0.54532 0,-0.33794 0.1625699,-0.54531 0.16385,-0.20737 0.4237061,-0.20737 0.15873,0 0.271376,0.0627 0.113927,0.0614 0.188172,0.18945 z m -0.8026091,0.50051 q 0,0.25986 0.1062464,0.40835 0.1075266,0.14721 0.2944177,0.14721 0.186892,0 0.294418,-0.14721 0.107527,-0.14849 0.107527,-0.40835 0,-0.25985 -0.107527,-0.40706 -0.107526,-0.14849 -0.294418,-0.14849 -0.1868911,0 -0.2944177,0.14849 -0.1062464,0.14721 -0.1062464,0.40706 z"
         style=""
         id="path4171" />
    </g>
    <g
       style="font-style:normal;font-weight:normal;font-size:2.97738886px;line-height:125%;font-family:Sans;letter-spacing:0px;word-spacing:0px;fill:#ffffff;fill-opacity:1;stroke:none;stroke-width:1px;stroke-linecap:butt;stroke-linejoin:miter;stroke-opacity:1"
       id="text4162"
       transform="translate(0,2.6458339)">
      <path
         d="m 3.6033764,229.65967 q -0.3241981,0 -0.4492252,0.0742 -0.125027,0.0741 -0.125027,0.25296 0,0.14247 0.093043,0.22679 0.094497,0.0829 0.2558693,0.0829 0.2224319,0 0.3561818,-0.15701 0.1352037,-0.15847 0.1352037,-0.42015 l 0,-0.0596 -0.266046,0 z m 0.5335458,-0.11049 0,0.92898 -0.2674998,0 0,-0.24714 q -0.09159,0.14829 -0.2282471,0.21952 -0.1366575,0.0698 -0.3343747,0.0698 -0.2500542,0 -0.3983421,-0.13956 -0.1468341,-0.14102 -0.1468341,-0.37654 0,-0.27476 0.1831792,-0.41433 0.184633,-0.13956 0.5495376,-0.13956 l 0.3750812,0 0,-0.0262 q 0,-0.18464 -0.1221195,-0.28495 -0.1206656,-0.10176 -0.3401899,-0.10176 -0.1395651,0 -0.2718612,0.0334 -0.1322961,0.0334 -0.2544156,0.10032 l 0,-0.24715 q 0.1468342,-0.0567 0.2849455,-0.0843 0.1381113,-0.0291 0.2689535,-0.0291 0.3532742,0 0.5277306,0.18318 0.1744564,0.18318 0.1744564,0.55535 z"
         id="path4175"
         inkscape:connector-curvature="0" />
      <path
         d="m 5.9628989,229.16247 q 0.1003125,-0.18027 0.2398776,-0.26604 0.1395651,-0.0858 0.3285595,-0.0858 0.2544155,0 0.3925268,0.17882 0.1381113,0.17736 0.1381113,0.50592 l 0,0.98277 -0.2689536,0 0,-0.97404 q 0,-0.23407 -0.082867,-0.34746 -0.082867,-0.1134 -0.2529618,-0.1134 -0.2078938,0 -0.3285595,0.13811 -0.1206657,0.13811 -0.1206657,0.37654 l 0,0.92025 -0.2689535,0 0,-0.97404 q 0,-0.23552 -0.082867,-0.34746 -0.082867,-0.1134 -0.2558694,-0.1134 -0.2049862,0 -0.3256519,0.13957 -0.1206656,0.13811 -0.1206656,0.37508 l 0,0.92025 -0.2689536,0 0,-1.62825 0.2689536,0 0,0.25296 q 0.09159,-0.14974 0.2195242,-0.22098 0.1279347,-0.0712 0.3038449,-0.0712 0.177364,0 0.3009372,0.0901 0.1250271,0.0901 0.184633,0.26168 z"
         id="path4190"
         inkscape:connector-curvature="0" />
      <path
         d="m 7.8499355,230.23393 0,0.86355 -0.2689536,0 0,-2.24757 0.2689536,0 0,0.24714 q 0.084321,-0.14538 0.2122553,-0.21516 0.1293884,-0.0712 0.3082062,-0.0712 0.2965759,0 0.4812089,0.23552 0.1860868,0.23551 0.1860868,0.61932 0,0.3838 -0.1860868,0.61932 -0.184633,0.23551 -0.4812089,0.23551 -0.1788178,0 -0.3082062,-0.0698 -0.1279347,-0.0712 -0.2122553,-0.21661 z m 0.9100808,-0.56844 q 0,-0.29512 -0.1221195,-0.46231 -0.1206657,-0.16864 -0.3329209,-0.16864 -0.2122553,0 -0.3343747,0.16864 -0.1206657,0.16719 -0.1206657,0.46231 0,0.29512 0.1206657,0.46376 0.1221194,0.16719 0.3343747,0.16719 0.2122552,0 0.3329209,-0.16719 0.1221195,-0.16864 0.1221195,-0.46376 z"
         id="path4192"
         inkscape:connector-curvature="0" />
    </g>
    <rect
       style="fill:#ffffff;fill-opacity:0.11764706;stroke:none;stroke-width:0.9640975;stroke-linecap:round;stroke-linejoin:round;stroke-miterlimit:4;stroke-dasharray:none;stroke-opacity:0.43137255"
       id="rect4168"
       width="18.824427"
       height="13.835631"
       x="2.2560265"
       y="215.9827" />
    <rect
       y="234.23843"
       x="2.0195189"
       height="14.424438"
       width="19.047871"
       id="rect4170"
       style="fill:#ffffff;fill-opacity:0.11764706;stroke:none;stroke-width:0.99022365;stroke-linecap:round;stroke-linejoin:round;stroke-miterlimit:4;stroke-dasharray:none;stroke-opacity:0.43137255" />
  </g>
</svg>
