#define prcFunny_width 100
#define prcFunny_height 65
static char prcFunny_bits[] = {
 0x00,0x00,0x00,0x00,0x00,0x00,0x00,0x00,0x00,0x00,0x00,0x00,0xf0,0x00,0x00,
 0x00,0x00,0x00,0x00,0x00,0x00,0x00,0x00,0x00,0x00,0xf0,0x00,0x00,0x00,0x00,
 0x00,0x00,0x00,0x00,0x00,0x00,0x00,0x00,0xf0,0x00,0x00,0x00,0x00,0x00,0x00,
 0x00,0x00,0x00,0x00,0x00,0x00,0xf0,0x00,0x00,0x00,0x00,0x00,0x00,0x00,0x00,
 0x00,0x00,0x00,0x00,0xf0,0x00,0xfc,0xff,0xff,0xff,0xff,0xff,0xff,0xff,0xff,
 0xff,0x07,0xf0,0x00,0xa8,0xea,0x7d,0xef,0x7f,0xfb,0xdb,0xb5,0x5e,0x55,0x05,
 0xf0,0x00,0xfc,0xff,0xf7,0xff,0xff,0xbf,0xff,0xff,0xff,0xff,0x07,0xf0,0x00,
 0x58,0xd5,0x5f,0x5f,0xf7,0xff,0xdb,0xbb,0x7f,0x55,0x05,0xf0,0x00,0xf4,0x7f,
 0x01,0x39,0x76,0xbc,0x91,0x13,0xe3,0xff,0x07,0xf0,0x00,0xbc,0xed,0x01,0x39,
 0x76,0xb2,0x11,0x12,0xe3,0x6d,0x05,0xf0,0x00,0xd8,0xfb,0x00,0x00,0xf6,0xb3,
 0x0d,0x62,0x83,0xdf,0x07,0xf0,0x00,0xec,0xfe,0x00,0x00,0x80,0x0f,0x0c,0x00,
 0x83,0x77,0x05,0xf0,0x00,0x7c,0x1f,0x00,0x00,0x80,0x0f,0xe0,0x0f,0x00,0xdf,
 0x07,0xf0,0x00,0xd4,0x03,0x00,0xff,0x07,0x02,0x1e,0xf0,0x00,0x7f,0x05,0xf0,
 0x00,0x7c,0x03,0xf8,0x00,0x78,0xc0,0x01,0x00,0x03,0xec,0x07,0xf0,0x00,0xd4,
 0x03,0x1f,0x00,0x80,0x73,0x00,0x00,0x04,0x7c,0x05,0xf0,0x00,0xfc,0x03,0x00,
 0x00,0x00,0x3e,0x00,0x00,0x18,0xd8,0x07,0xf0,0x00,0xa8,0x00,0xc0,0xff,0x3f,
 0x8e,0xff,0x7f,0x60,0x78,0x05,0xf0,0x00,0xfc,0x00,0x20,0x00,0x70,0x40,0x00,
 0x80,0x00,0xe0,0x07,0xf0,0x00,0xd8,0x00,0x1e,0x00,0xc0,0x31,0x00,0x00,0x07,
 0x40,0x05,0xf0,0x00,0xec,0x00,0x07,0x00,0x00,0x0e,0x00,0x08,0x1c,0xe0,0x07,
 0xf0,0x00,0xfc,0x00,0x01,0x00,0x00,0x02,0x00,0x00,0x78,0x60,0x05,0xf0,0x00,
 0xe4,0xc0,0x00,0x00,0x00,0x00,0x00,0x00,0x00,0xfc,0x07,0xf0,0x00,0x64,0xe4,
 0x80,0x02,0x08,0x10,0x00,0x00,0x80,0x23,0x04,0xf0,0x00,0x64,0x24,0x00,0x00,
 0x00,0x00,0x00,0x00,0x80,0x20,0x04,0xf0,0x00,0x60,0x38,0x00,0x00,0x00,0x10,
 0x04,0x00,0x80,0x20,0x04,0xf0,0x00,0x60,0x38,0x00,0x00,0x00,0x02,0x00,0x00,
 0x80,0x20,0x04,0xf0,0x00,0x60,0x18,0x08,0x00,0x00,0x00,0x04,0x00,0x81,0x00,
 0x04,0xf0,0x00,0x60,0x18,0x00,0x00,0x3f,0x04,0x00,0x20,0x00,0xc0,0x04,0xf0,
 0x00,0x64,0x18,0x00,0x00,0x3f,0x00,0x00,0x00,0x00,0xc3,0x04,0xf0,0x00,0x64,
 0x18,0x00,0x00,0x3f,0x00,0x00,0x00,0x00,0xc3,0x04,0xf0,0x00,0xe4,0x18,0x00,
 0x00,0x0e,0x80,0x03,0x00,0x00,0xc3,0x07,0xf0,0x00,0xfc,0x38,0x00,0x00,0x00,
 0xc0,0x0f,0x00,0x80,0xc3,0x07,0xf0,0x00,0xfc,0x23,0x00,0x00,0x00,0xc0,0x0f,
 0x00,0x80,0x00,0x05,0xf0,0x00,0xa8,0xe3,0x80,0x00,0x00,0x80,0x03,0x00,0x80,
 0x00,0x07,0xf0,0x00,0xfc,0xc3,0x00,0x00,0x00,0x00,0x00,0x00,0x00,0x00,0x05,
 0xf0,0x00,0xac,0x03,0x40,0x00,0x00,0x00,0x00,0x00,0x60,0x00,0x06,0xf0,0x00,
 0xf8,0x03,0x01,0x00,0x02,0x02,0x00,0x00,0x78,0xc0,0x07,0xf0,0x00,0xac,0x03,
 0x07,0x00,0x00,0x0e,0x80,0x00,0x1c,0x60,0x03,0xf0,0x00,0xfc,0x03,0x20,0x00,
 0x72,0x40,0x00,0x80,0x00,0xc0,0x06,0xf0,0x00,0xa8,0x03,0xc0,0xff,0x3f,0x80,
 0x7f,0x7f,0x00,0xc0,0x07,0xf0,0x00,0xfc,0x03,0x00,0x00,0x80,0x31,0x00,0x00,
 0x00,0x40,0x05,0xf0,0x00,0x58,0x03,0x00,0x00,0x80,0x31,0x00,0x00,0x00,0xc0,
 0x07,0xf0,0x00,0xf4,0x03,0x00,0x00,0x00,0x30,0x00,0x00,0x00,0x40,0x05,0xf0,
 0x00,0xbc,0x1e,0x00,0x00,0x00,0x00,0x00,0x00,0x00,0xc0,0x07,0xf0,0x00,0xd8,
 0x1f,0x00,0x00,0x00,0x00,0x00,0x00,0x00,0x40,0x05,0xf0,0x00,0x74,0x1d,0x00,
 0x00,0x00,0x00,0x00,0x00,0x00,0xc0,0x07,0xf0,0x00,0xdc,0x37,0x00,0x00,0x00,
 0x00,0x00,0x00,0x00,0x60,0x05,0xf0,0x00,0x78,0xfd,0x00,0x00,0x00,0x00,0x00,
 0x00,0x00,0xe0,0x07,0xf0,0x00,0xdc,0xd7,0x00,0x07,0x81,0x03,0x10,0x00,0x00,
 0x40,0x05,0xf0,0x00,0xf4,0xfd,0xc0,0xf8,0xff,0x3f,0xfe,0x0f,0x00,0xfc,0x07,
 0xf0,0x00,0x5c,0xaf,0x00,0x00,0x70,0xc0,0xed,0x0f,0x00,0x6c,0x05,0xf0,0x00,
 0xf4,0xf5,0x1f,0x00,0x00,0x00,0x00,0x00,0x00,0xdc,0x07,0xf0,0x00,0x5c,0xbf,
 0x1e,0x00,0x00,0x00,0x00,0x00,0x80,0x77,0x05,0xf0,0x00,0xf4,0xd6,0x3b,0x00,
 0x00,0x00,0x00,0x00,0x80,0xdd,0x07,0xf0,0x00,0xdc,0xfd,0xfe,0x01,0x00,0x00,
 0x00,0x80,0xff,0x77,0x05,0xf0,0x00,0xb8,0xb7,0xd7,0x0f,0x00,0x00,0x00,0xf0,
 0xaf,0xde,0x07,0xf0,0x00,0xec,0xee,0x7a,0xff,0xff,0xff,0x9f,0xff,0xfb,0x7b,
 0x05,0xf0,0x00,0x00,0x00,0x00,0x00,0x00,0x00,0x00,0x00,0x00,0x00,0x00,0xf0,
 0x00,0x00,0x00,0x00,0x00,0x00,0x00,0x00,0x00,0x00,0x00,0x00,0xf0,0x00,0x00,
 0x00,0x00,0x00,0x00,0x00,0x00,0x00,0x00,0x00,0x00,0xf0,0x00,0x00,0x00,0x00,
 0x00,0x00,0x00,0x00,0x00,0x00,0x00,0x00,0xf0,0x00,0x00,0x00,0x00,0x00,0x00,
 0x00,0x00,0x00,0x00,0x00,0x00,0xf0,0x00,0x00,0x00,0x00,0x00,0x00,0x00,0x00,
 0x00,0x00,0x00,0x00,0xf0};
