#define ragamat2_width 145
#define ragamat2_height 155
static char ragamat2_bits[] = {
 0x00,0x00,0x00,0x00,0x00,0x00,0x00,0x00,0x00,0x00,0x00,0x00,0x07,0x00,0x00,
 0x00,0x00,0x00,0xfe,0x00,0x00,0x00,0x00,0x00,0x00,0x00,0x00,0x00,0x00,0x00,
 0x80,0x0f,0x00,0x00,0x00,0x00,0x00,0xfe,0x00,0x00,0x00,0x00,0x00,0x00,0x00,
 0x00,0x00,0x00,0x00,0x00,0x07,0x00,0x00,0x00,0x00,0x00,0xfe,0x00,0x00,0x00,
 0x00,0x00,0x00,0x00,0x00,0x00,0x00,0x00,0x00,0x02,0x00,0x00,0x00,0x00,0x00,
 0xfe,0x00,0x00,0x00,0x00,0x00,0x00,0x00,0x00,0x00,0x00,0x00,0x00,0x02,0x00,
 0x00,0x00,0x00,0x00,0xfe,0x00,0x00,0x00,0x00,0x70,0x01,0x10,0x00,0x00,0x00,
 0x00,0x80,0x0f,0x00,0x00,0x00,0x00,0x00,0xfe,0x00,0x00,0x00,0x00,0x03,0x00,
 0x04,0x00,0x00,0x00,0x00,0xb8,0x6b,0x00,0x00,0x00,0x00,0x00,0xfe,0x00,0x00,
 0x00,0x20,0xc0,0x54,0x08,0x10,0x00,0x00,0x00,0xc8,0x5f,0x00,0x00,0x00,0x00,
 0x00,0xfe,0x00,0x00,0x00,0x0c,0x08,0x00,0x91,0xc1,0x00,0x00,0x18,0xf0,0x3b,
 0x00,0x00,0x00,0x00,0x00,0xfe,0x00,0x00,0x00,0x81,0xa2,0x5a,0x04,0x08,0x01,
 0x00,0xb8,0xea,0x3e,0x00,0x00,0x00,0x00,0x00,0xfe,0x00,0x00,0x00,0x01,0x10,
 0x00,0x20,0x10,0x04,0x00,0xfc,0xb7,0x7f,0x00,0x00,0x00,0x00,0x00,0xfe,0x00,
 0x00,0x40,0xa0,0x4a,0xa5,0x8a,0x02,0x05,0x00,0x38,0xf8,0x35,0x00,0x00,0x00,
 0x00,0x00,0xfe,0x00,0x00,0x10,0x12,0x00,0x00,0x00,0x48,0x18,0x00,0x78,0xd1,
 0x3f,0x00,0x00,0x00,0x00,0x00,0xfe,0x00,0x00,0x50,0x40,0xaa,0x2a,0x55,0x20,
 0x00,0x00,0xec,0x0f,0x00,0x00,0x00,0x00,0x00,0x00,0xfe,0x00,0x00,0x20,0x92,
 0x85,0x77,0x01,0x01,0x02,0x00,0x38,0x10,0x00,0x00,0x00,0x00,0x00,0x00,0xfe,
 0x00,0x00,0x8c,0x00,0xe8,0x5a,0x2b,0x88,0x10,0x00,0x28,0x00,0x00,0x00,0x00,
 0x00,0x00,0x00,0xfe,0x00,0x00,0x2c,0xa4,0x6a,0xb7,0x07,0x01,0x42,0x00,0xfc,
 0x02,0x80,0x00,0x00,0x00,0x00,0x00,0xfe,0x00,0x00,0xbe,0x40,0xb0,0xdd,0x46,
 0xd4,0x90,0x00,0x78,0xe0,0x1f,0x00,0x00,0x00,0x00,0x00,0xfe,0x00,0x00,0x58,
 0x12,0xea,0xbf,0x13,0x00,0x40,0x00,0x18,0xf8,0xff,0x00,0x00,0x00,0x00,0x00,
 0xfe,0x00,0x00,0x69,0x88,0x50,0x7b,0x89,0x20,0xc8,0x01,0x00,0xe0,0x5f,0x00,
 0x00,0x00,0x00,0x00,0xfe,0x00,0x00,0xab,0x11,0x44,0x08,0x20,0x44,0x52,0x02,
 0x18,0xb8,0xfa,0x00,0x00,0x00,0x00,0x00,0xfe,0x00,0x80,0x70,0x8a,0x00,0xa5,
 0x8a,0x10,0x31,0x01,0x38,0xe0,0x5f,0x00,0x00,0x00,0x00,0x00,0xfe,0x00,0x80,
 0xeb,0x53,0x25,0x08,0x20,0x44,0x8a,0x01,0xf8,0xff,0xf7,0x00,0x00,0x00,0x00,
 0x00,0xfe,0x00,0xc0,0xf7,0x4c,0x80,0x42,0x09,0x15,0x28,0x02,0xf8,0xd3,0x5f,
 0x00,0x00,0x00,0x00,0x00,0xfe,0x00,0xc0,0x7e,0xff,0x2a,0x10,0x84,0xd4,0x88,
 0x01,0x38,0x70,0xfd,0x00,0x00,0x00,0x00,0x00,0xfe,0x00,0xc0,0xff,0xee,0x1d,
 0x4a,0x50,0xc2,0x88,0x09,0x38,0xd0,0xef,0x00,0x00,0x00,0x00,0x00,0xfe,0x00,
 0x40,0xdb,0xbe,0x78,0xe5,0x2b,0x40,0x74,0x03,0xf4,0xff,0x67,0x01,0x00,0x00,
 0x00,0x00,0xfe,0x00,0xc0,0x7a,0xf7,0xae,0xa2,0x4c,0x00,0x11,0x00,0xf8,0xaf,
 0xff,0x01,0x00,0x00,0x00,0x00,0xfe,0x00,0xc0,0xfe,0x9f,0xb4,0x83,0x62,0x00,
 0x11,0x01,0x38,0xf0,0xb2,0x00,0x00,0x00,0x00,0x00,0xfe,0x00,0xc0,0x7a,0xeb,
 0x46,0x25,0x44,0x00,0xa9,0x00,0xf8,0xb7,0xf7,0x01,0x00,0x00,0x00,0x00,0xfe,
 0x00,0x00,0x6b,0x9f,0x5c,0xe7,0x61,0x00,0x12,0x01,0x20,0xf0,0xb2,0x00,0x00,
 0x00,0x00,0x00,0xfe,0x00,0x00,0x7d,0xeb,0xac,0x47,0x54,0x00,0x42,0x00,0xf0,
 0xdf,0xf3,0x01,0x00,0x00,0x00,0x00,0xfe,0x00,0x00,0xbf,0xbd,0xd2,0x67,0x63,
 0x84,0x68,0x02,0x70,0x71,0xfd,0x00,0x00,0x00,0x00,0x00,0xfe,0x00,0x80,0x35,
 0x6b,0x29,0xa7,0x20,0x90,0x10,0x00,0xf0,0xd7,0xd9,0x00,0x00,0x00,0x00,0x00,
 0xfe,0x00,0x80,0xdf,0x77,0x55,0xcb,0x9a,0x80,0x44,0x00,0xb0,0xf3,0xb9,0x01,
 0x00,0x00,0x00,0x00,0xfe,0x00,0x80,0xbf,0xad,0xd6,0xa8,0xa2,0x00,0x50,0x02,
 0xe0,0xdb,0xff,0x01,0x00,0x00,0x00,0x00,0xfe,0x00,0x80,0xbc,0x37,0xab,0xca,
 0x82,0x10,0x80,0x03,0xf0,0xf7,0xd8,0x02,0x00,0x00,0x00,0x00,0xfe,0x00,0x80,
 0x5d,0xad,0xdb,0x08,0xa9,0x00,0x40,0x00,0x00,0xd0,0xff,0x03,0x00,0x00,0x00,
 0x00,0xfe,0x00,0x00,0xad,0xb7,0xd6,0x02,0x00,0x84,0x28,0x00,0x00,0xd8,0xac,
 0x00,0x00,0x00,0x00,0x00,0xfe,0x00,0x00,0xee,0x2d,0xb9,0x4b,0x15,0x10,0x60,
 0x01,0xf8,0xf7,0xdd,0x03,0x00,0x00,0x00,0x00,0xfe,0x00,0x00,0x9d,0x56,0xcb,
 0x8b,0x12,0x40,0x80,0x00,0xf8,0x5b,0xfe,0x00,0x00,0x00,0x00,0x00,0xfe,0x00,
 0x00,0xae,0x5b,0x75,0xcf,0x0b,0x81,0x44,0x00,0x00,0xf0,0xba,0x05,0x00,0x00,
 0x00,0x00,0xfe,0x00,0x00,0xef,0x96,0x8d,0x53,0x2b,0x29,0x88,0x00,0x38,0x6c,
 0xee,0x01,0x00,0x00,0x00,0x00,0xfe,0x00,0x00,0xdc,0x5b,0xf4,0xc3,0x15,0xc1,
 0x45,0x01,0xfc,0xf1,0x76,0x05,0x00,0x00,0x00,0x00,0xfe,0x00,0x00,0x6e,0x17,
 0xb5,0x46,0x2b,0x29,0x81,0x00,0x38,0x28,0xba,0x03,0x00,0x00,0x00,0x00,0xfe,
 0x00,0x00,0x3c,0x5b,0xd5,0x93,0x15,0x21,0x8d,0x00,0xf0,0xb3,0xef,0x07,0x00,
 0x00,0x00,0x00,0xfe,0x00,0x00,0xc8,0x5d,0xfd,0x93,0x2b,0xa8,0x41,0x01,0xf8,
 0x33,0x6b,0x02,0x00,0x00,0x00,0x00,0xfe,0x00,0x00,0xec,0x2e,0x5d,0x5b,0x35,
 0x48,0x05,0x00,0xec,0xef,0xdf,0x03,0x00,0x00,0x00,0x00,0xfe,0x00,0x00,0x58,
 0x95,0xad,0x52,0x2b,0xd1,0x80,0x00,0x38,0x58,0xfb,0x02,0x00,0x00,0x00,0x00,
 0xfe,0x00,0x00,0xd8,0x1b,0xf5,0x52,0x35,0xa1,0x08,0x00,0xf8,0xd7,0xbf,0x07,
 0x00,0x00,0x00,0x00,0xfe,0x00,0x00,0x70,0xee,0xbc,0x95,0x4a,0xd0,0x64,0x00,
 0xf8,0xbb,0xd6,0x01,0x00,0x00,0x00,0x00,0xfe,0x00,0x00,0xa0,0x2b,0xab,0x9a,
 0x06,0xa9,0x01,0x00,0xdc,0x27,0xff,0x06,0x00,0x00,0x00,0x00,0xfe,0x00,0x00,
 0x40,0x55,0xaa,0x55,0x51,0xc2,0x0c,0x00,0xfc,0xcb,0x55,0x03,0x00,0x00,0x00,
 0x00,0xfe,0x00,0x00,0x80,0xb7,0xda,0x12,0x0d,0x60,0x02,0x00,0x18,0x68,0xff,
 0x0e,0x00,0x00,0x00,0x00,0xfe,0x00,0x00,0x00,0x4a,0xaa,0x5a,0x15,0x68,0x00,
 0x00,0x18,0xf0,0xe7,0x02,0x00,0x00,0x00,0x00,0xfe,0x00,0x00,0xc0,0x96,0xaa,
 0x12,0x95,0x71,0x03,0x00,0xfc,0x8f,0xba,0x03,0x00,0x00,0x00,0x00,0xfe,0x00,
 0x00,0xe0,0xaf,0x5d,0xa5,0x55,0x35,0x00,0x00,0xfc,0xe3,0x7f,0x0f,0x00,0x00,
 0x00,0x00,0xfe,0x00,0x00,0xa0,0xb6,0xaa,0x15,0x8a,0x49,0x00,0x00,0x00,0x68,
 0xb5,0x05,0x00,0x00,0x00,0x00,0xfe,0x00,0x00,0xd0,0x7f,0xb6,0x16,0x45,0x2a,
 0x00,0x00,0x00,0xe4,0xff,0x0f,0x00,0x00,0x00,0x00,0xfe,0x00,0x00,0xf0,0x7a,
 0xaa,0x59,0xbe,0x44,0x00,0x00,0x00,0x40,0x55,0x05,0x00,0x00,0x00,0x00,0xfe,
 0x00,0x00,0x50,0xff,0xaa,0x16,0x4b,0x36,0x00,0x00,0x00,0xe0,0xf7,0x07,0x00,
 0x00,0x00,0x00,0xfe,0x00,0x00,0x60,0xeb,0xcb,0x2b,0x56,0x1f,0x00,0x00,0x00,
 0x74,0x90,0x05,0x00,0x00,0x00,0x00,0xfe,0x00,0x00,0xb0,0xf5,0x6f,0xbb,0xda,
 0x4a,0x00,0x00,0x00,0x10,0x01,0x06,0x00,0x00,0x00,0x00,0xfe,0x00,0x00,0x50,
 0xad,0x7f,0xa7,0xe9,0x0b,0x02,0x00,0x00,0x20,0x89,0x00,0x00,0x00,0x00,0x00,
 0xfe,0x00,0x00,0xa0,0xaa,0xfa,0x6f,0xbf,0x00,0x00,0x00,0x00,0x88,0x40,0x00,
 0x00,0x00,0x00,0x00,0xfe,0x00,0x00,0x80,0x54,0x4b,0xb5,0x25,0x04,0x00,0x00,
 0x00,0x20,0x12,0x00,0x00,0x00,0x00,0x00,0xfe,0x00,0x00,0x80,0x12,0x24,0x49,
 0x88,0x00,0x00,0x00,0x00,0x0a,0x80,0x00,0x00,0x00,0x00,0x00,0xfe,0x00,0x00,
 0xc0,0x54,0x11,0x01,0x01,0x00,0x00,0x00,0x00,0x80,0x0a,0x02,0x00,0x00,0x00,
 0x00,0xfe,0x00,0x00,0x00,0x15,0x04,0x10,0x00,0x00,0x00,0x00,0x00,0x58,0x00,
 0x00,0x00,0x00,0x00,0x00,0xfe,0x00,0x00,0x00,0x49,0x91,0x40,0x80,0x00,0x00,
 0x00,0x00,0xc3,0x4d,0x08,0x00,0x00,0x00,0x00,0xfe,0x00,0x00,0x00,0x26,0x02,
 0x01,0x00,0x10,0x00,0x00,0x80,0x1b,0x09,0x3e,0x00,0x00,0x00,0x00,0xfe,0x00,
 0x00,0x00,0x90,0x24,0x08,0x01,0x00,0x00,0x00,0xe0,0xef,0x02,0x6e,0x00,0x00,
 0x00,0x00,0xfe,0x00,0x00,0x00,0x40,0x82,0x22,0x00,0x00,0x00,0x00,0xbc,0x5b,
 0x83,0x5f,0x00,0x00,0x00,0x00,0xfe,0x00,0x00,0x00,0x00,0x21,0x00,0x92,0x10,
 0x00,0x00,0xdb,0xf5,0xfe,0xfb,0x03,0x00,0x00,0x00,0xfe,0x00,0x00,0x00,0x00,
 0x14,0x41,0x20,0x02,0x00,0xc0,0xff,0x5e,0xff,0xfe,0x0a,0x00,0x00,0x00,0xfe,
 0x00,0x00,0x00,0x00,0x20,0x04,0x44,0x00,0x00,0xf0,0xea,0xb6,0xb5,0xdf,0x0f,
 0x00,0x00,0x00,0xfe,0x00,0x00,0x00,0x00,0x00,0xfc,0x00,0x00,0x00,0xae,0xde,
 0xdd,0xfe,0xf5,0x3d,0x00,0x00,0x00,0xfe,0x00,0x00,0x00,0x00,0x00,0x00,0x00,
 0x00,0x80,0x6b,0xe8,0x6e,0xed,0x7f,0xff,0x00,0x00,0x00,0xfe,0x00,0x00,0x00,
 0x00,0x00,0x00,0x00,0x00,0xe8,0x36,0x4d,0x00,0x40,0x1b,0x7c,0x03,0x00,0x00,
 0xfe,0x00,0x00,0x00,0x00,0x00,0x00,0x00,0x00,0xb8,0xcb,0x7e,0x00,0x10,0x1c,
 0xea,0x0d,0x00,0x00,0xfe,0x00,0x00,0x00,0x07,0x00,0x00,0x00,0x00,0xba,0xfe,
 0x3b,0x80,0x80,0x74,0xbf,0x27,0x00,0x00,0xfe,0x00,0x00,0xa2,0x14,0x00,0x00,
 0x00,0xc0,0x4d,0x4b,0x3f,0x00,0xc0,0xff,0xdf,0x5f,0x00,0x00,0xfe,0x00,0xc0,
 0x04,0x44,0x01,0x00,0x00,0x40,0xb6,0xfd,0xaf,0x8a,0x14,0xfc,0xee,0x6a,0x01,
 0x00,0xfe,0x00,0x70,0xc9,0x1d,0x0c,0x00,0x00,0x50,0xdb,0x5a,0x3d,0x00,0x42,
 0xdc,0xaf,0xef,0x02,0x00,0xfe,0x00,0x08,0x6a,0xf5,0xa1,0x00,0x00,0xac,0xbd,
 0xf6,0xf6,0xfe,0xff,0xf5,0xf3,0xdb,0x04,0x00,0xfe,0x00,0x5c,0xbc,0xaa,0x82,
 0x01,0x00,0xaa,0x57,0xdd,0xdf,0xfd,0xff,0x5f,0xdb,0xee,0x15,0x00,0xfe,0x00,
 0x24,0xd4,0x5e,0x33,0x00,0x00,0xb4,0xda,0xbe,0xff,0xff,0xff,0xff,0x7f,0xab,
 0x2a,0x00,0xfe,0x00,0xad,0x6d,0xeb,0x48,0x02,0x00,0x55,0x75,0xfd,0xbe,0xfd,
 0xfb,0xef,0xfb,0x57,0xa9,0x00,0xfe,0x00,0x57,0xd2,0x3b,0x84,0x01,0x00,0xb7,
 0xd5,0xb6,0xff,0xfe,0xff,0x7f,0xef,0xbb,0x56,0x00,0xfe,0x00,0x4d,0x88,0x8f,
 0x29,0x01,0x00,0x54,0xad,0xd5,0xed,0xfd,0xfb,0xdb,0xbf,0xaa,0xaa,0x00,0xfe,
 0x80,0x7a,0x45,0x30,0xca,0x03,0x40,0xb0,0xd5,0x6d,0x7f,0xfd,0xef,0xfe,0xfd,
 0xb7,0xaa,0x00,0xfe,0x80,0x2a,0xb5,0xad,0xea,0x08,0xa0,0xd8,0x6a,0xdd,0xef,
 0x5d,0xbd,0x77,0xef,0x56,0x55,0x05,0xfe,0xc0,0xdd,0xaa,0xaa,0x98,0x12,0xc0,
 0x52,0xb7,0xf5,0xbf,0xf7,0xfe,0xdd,0xbb,0xab,0x2a,0x00,0xfe,0x40,0x3c,0x2f,
 0xe8,0xbe,0x05,0x00,0xbd,0xaa,0xb6,0xfd,0xdd,0xef,0x7f,0xff,0xaa,0x15,0x01,
 0xfe,0xa0,0xda,0xeb,0xb1,0xac,0x34,0xc0,0x4d,0xed,0xea,0xef,0xbd,0x7f,0xff,
 0xed,0xad,0x2a,0x04,0xfe,0xe0,0x9e,0x4f,0xef,0x24,0x0a,0xa0,0xb6,0x35,0x77,
 0xff,0xdd,0xef,0xed,0xff,0x55,0xad,0x00,0xfe,0xf0,0xdd,0xce,0xf5,0x69,0x6b,
 0xa0,0xda,0x56,0xdf,0xbb,0xf7,0xbe,0x7f,0xb7,0xaf,0xaa,0x05,0xfe,0xe0,0x9e,
 0x5f,0xd1,0x79,0xc7,0x00,0xab,0xda,0xfa,0xff,0xbf,0xfe,0xdf,0xfd,0xdb,0x2a,
 0x02,0xfe,0xf0,0xdf,0xe7,0xcb,0x58,0x56,0x40,0xdb,0x5a,0xef,0xdb,0xf6,0x6d,
 0xf7,0x6f,0xaf,0xaa,0x02,0xfe,0xe8,0xea,0xce,0xf3,0x5a,0x8e,0x20,0x54,0xb5,
 0xfa,0xff,0xbe,0xfd,0xbd,0xfe,0x5d,0x55,0x01,0xfe,0x28,0xcf,0xd7,0xf1,0x52,
 0x2e,0xe0,0xb5,0xd6,0xbe,0xdf,0xb7,0xed,0xf7,0xef,0xaf,0xaa,0x04,0xfe,0xb0,
 0xf7,0xcb,0xf2,0x53,0xbe,0x50,0xe0,0xaa,0xf5,0xfe,0x5e,0x78,0xbf,0x7b,0xdb,
 0x56,0x01,0xfe,0x28,0xe5,0xc7,0xfb,0x33,0x9a,0xf0,0x97,0xb5,0xfa,0xff,0xb7,
 0xd0,0xff,0xee,0xaf,0x5a,0x08,0xfe,0xb0,0xfd,0xcf,0xb4,0xb5,0x16,0xf0,0x55,
 0xde,0xfe,0xdb,0x5e,0xe2,0xfd,0xbf,0xad,0x0a,0x04,0xfe,0x58,0xe2,0xcf,0xea,
 0xb5,0xcc,0xb0,0x1f,0xd9,0xbb,0xff,0x56,0xfe,0xef,0xff,0x5f,0xfd,0x1f,0xfe,
 0xb8,0x5b,0xcf,0xf2,0x21,0xb4,0xf0,0xff,0x12,0xfe,0xfe,0x26,0x89,0xff,0xdb,
 0x6a,0xc1,0x14,0xfe,0x90,0x95,0xc7,0xda,0x2a,0xd5,0xd0,0xff,0x75,0xa9,0xff,
 0xb6,0x02,0x7b,0xff,0xbf,0x92,0x0b,0xfe,0xa0,0xda,0xe8,0xf5,0x6b,0x2c,0xf0,
 0xff,0xeb,0xdd,0x08,0xc8,0x3a,0xff,0xed,0x13,0xc9,0x14,0xfe,0x70,0xa1,0x83,
 0xe8,0x41,0x9c,0xd0,0xff,0xff,0x77,0xce,0xa8,0x03,0xfe,0x41,0x64,0x3b,0x0b,
 0xfe,0x20,0xb9,0xeb,0xe5,0x03,0x30,0xf0,0xff,0xff,0xff,0xaf,0x54,0xae,0x02,
 0x30,0xa1,0xbe,0x15,0xfe,0xb0,0x95,0x86,0xd2,0x07,0x52,0xf0,0xff,0xff,0xff,
 0xff,0x2a,0xcd,0x67,0x04,0xf5,0x7f,0x0d,0xfe,0x10,0xf5,0xc5,0xc0,0x96,0x62,
 0xb0,0xfb,0xff,0xff,0xff,0x57,0x74,0xfd,0xb7,0x7e,0x6f,0x15,0xfe,0x90,0x75,
 0xa3,0xd8,0x97,0x2a,0xf0,0xff,0xff,0xff,0xff,0xfd,0xde,0xff,0xff,0xff,0xff,
 0x0a,0xfe,0xa0,0xfd,0xca,0xf6,0x97,0x6a,0xd0,0xff,0xff,0xff,0xff,0xdf,0xff,
 0xff,0xff,0xff,0x7f,0x15,0xfe,0x60,0x71,0xc2,0xb2,0xd7,0x7a,0x60,0xff,0xff,
 0xff,0xff,0xfd,0xff,0xff,0xff,0xff,0xff,0x0b,0xfe,0xe0,0xf1,0xc5,0xee,0x56,
 0x12,0xe0,0xff,0xff,0xff,0xff,0xff,0xff,0xff,0xff,0xff,0xbf,0x15,0xfe,0x60,
 0xf6,0xd3,0xf3,0x43,0x1a,0xe0,0xff,0xff,0xff,0xff,0xff,0xfd,0xff,0xff,0xff,
 0xff,0x16,0xfe,0x00,0xf3,0x92,0xf2,0x43,0x3a,0xa0,0xfb,0xff,0xff,0xff,0xff,
 0x7b,0xff,0xff,0xff,0xff,0x0a,0xfe,0x40,0xf7,0xdb,0xf2,0x43,0x3a,0xe0,0xef,
 0xff,0xff,0xfd,0xfb,0xfd,0xff,0xff,0xef,0xff,0x0a,0xfe,0x80,0xb2,0xd7,0xb0,
 0xc3,0x18,0xa0,0xff,0xff,0xff,0xff,0xff,0xff,0xff,0xff,0x7f,0xff,0x05,0xfe,
 0xc0,0xee,0x95,0xf9,0x43,0x09,0xc0,0xff,0xff,0xff,0xff,0xbf,0xff,0xff,0xff,
 0xff,0xfb,0x0a,0xfe,0x40,0x6a,0x97,0xa2,0x4b,0x19,0x40,0xff,0xff,0xff,0xff,
 0xdf,0xff,0xbf,0xff,0xff,0xff,0x0d,0xfe,0x40,0xfa,0x93,0xe9,0x09,0x0d,0x40,
 0xff,0xfe,0xff,0xff,0xff,0xff,0xfd,0xde,0xff,0xff,0x05,0xfe,0x80,0xe6,0x93,
 0xe4,0x49,0x1d,0x40,0xff,0xff,0xfb,0xf7,0xff,0xf7,0xff,0xff,0xff,0x7f,0x02,
 0xfe,0x80,0xf6,0x96,0xa5,0x29,0x1d,0xc0,0xff,0xff,0xff,0xff,0xff,0xff,0xff,
 0xff,0xff,0xff,0x05,0xfe,0x80,0xee,0x93,0xed,0x89,0x1d,0x00,0xff,0xf7,0xff,
 0xff,0xff,0xff,0xff,0xff,0xff,0x3f,0x03,0xfe,0x80,0x45,0x93,0xe4,0xa9,0x15,
 0x80,0xfd,0xdf,0xdf,0xff,0xff,0xff,0xff,0xff,0xff,0xff,0x01,0xfe,0x80,0xde,
 0x9b,0x76,0xad,0x07,0x00,0xf7,0xff,0xff,0xff,0xff,0xff,0xff,0xff,0xff,0xff,
 0x02,0xfe,0x00,0x74,0xbb,0xa4,0xe9,0x5d,0x00,0xfe,0xff,0xff,0x7e,0xff,0xff,
 0xff,0xff,0xff,0xff,0x02,0xfe,0x00,0xdd,0x3b,0x85,0xa1,0x54,0x00,0xfc,0xff,
 0xff,0xff,0xff,0xff,0xff,0xf7,0xbf,0x7f,0x01,0xfe,0x80,0xd5,0x3b,0x60,0xa5,
 0x55,0x00,0xfe,0xff,0xff,0xff,0xff,0xdf,0xff,0xbf,0xff,0xfd,0x01,0xfe,0xc0,
 0x3a,0x3f,0xb3,0x05,0xa9,0x00,0xb4,0xff,0xff,0xff,0xff,0xff,0xfd,0xff,0xff,
 0x3f,0x00,0xfe,0x80,0xd2,0xbb,0xa2,0xa6,0xae,0x00,0xf4,0xff,0xff,0xff,0xff,
 0xff,0xff,0xff,0xff,0xbf,0x00,0xfe,0x60,0xa5,0x3b,0xe5,0xd0,0xab,0x00,0xd8,
 0xff,0xff,0xff,0xff,0xff,0xff,0xff,0xff,0x4f,0x00,0xfe,0xb0,0x5a,0x2a,0x83,
 0xb6,0x4a,0x01,0xf0,0xff,0xff,0xff,0xf7,0xff,0xef,0xff,0xff,0x3f,0x00,0xfe,
 0xb0,0xbd,0xbf,0xe5,0xee,0xe2,0x00,0xe0,0xff,0xff,0xff,0xdf,0xff,0xff,0xff,
 0xfe,0x25,0x00,0xfe,0x90,0xd6,0x53,0x75,0xbb,0x52,0x00,0xc0,0xee,0xfe,0xff,
 0xff,0xff,0xff,0xff,0xff,0x17,0x00,0xfe,0xc0,0x5a,0x37,0x67,0xaf,0xaa,0x00,
 0x00,0xff,0xff,0xff,0xff,0xff,0xff,0xff,0xff,0x0a,0x00,0xfe,0x60,0xaa,0xfe,
 0xfb,0x5b,0x85,0x00,0x80,0xfe,0xf7,0xfe,0xff,0xff,0x7f,0xff,0xff,0x07,0x00,
 0xfe,0x80,0xd5,0xed,0xbe,0xaa,0x40,0x00,0x00,0xfe,0xff,0xfb,0xff,0xff,0xff,
 0xfb,0xef,0x01,0x00,0xfe,0x80,0x56,0x55,0x54,0x15,0x30,0x00,0x00,0xfc,0xff,
 0xff,0xff,0xff,0xff,0xef,0x33,0x00,0x00,0xfe,0x40,0x55,0x4a,0x55,0x0a,0x28,
 0x00,0x00,0xe0,0xff,0xff,0xff,0xff,0xff,0xff,0xcf,0x00,0x00,0xfe,0x00,0x55,
 0x19,0x10,0x80,0x14,0x00,0x00,0x60,0xff,0xff,0xff,0xfd,0xff,0xff,0x35,0x00,
 0x00,0xfe,0x00,0x95,0x12,0x0c,0x04,0x08,0x00,0x00,0x80,0xff,0xff,0xff,0xff,
 0xfe,0xdf,0x0f,0x00,0x00,0xfe,0x00,0xca,0x14,0x42,0x20,0x02,0x00,0x00,0x00,
 0xfe,0xff,0xff,0xff,0xff,0xff,0x04,0x00,0x00,0xfe,0x00,0x90,0x44,0x08,0x04,
 0x00,0x00,0x00,0x00,0xe8,0xff,0xef,0xff,0xff,0x5f,0x01,0x00,0x00,0xfe,0x00,
 0x50,0x92,0x05,0x48,0x00,0x00,0x00,0x00,0x80,0xde,0xff,0xff,0xf7,0x2b,0x00,
 0x00,0x00,0xfe,0x00,0x80,0x15,0x20,0x09,0x00,0x00,0x00,0x00,0x00,0xf0,0xff,
 0xfb,0xbf,0x0d,0x00,0x00,0x00,0xfe,0x00,0x00,0x7c,0xaa,0x00,0x00,0x00,0x00,
 0x00,0x00,0x00,0x80,0xff,0xef,0x00,0x00,0x00,0x00,0xfe,0x00,0x00,0x00,0x00,
 0x00,0x00,0x00,0x00,0x00,0x00,0x00,0x00,0x00,0x00,0x00,0x00,0x00,0x00,0xfe,
 0x00,0x00,0x00,0x00,0x00,0x00,0x00,0x00,0x00,0x00,0x00,0x00,0x00,0x00,0x00,
 0x00,0x00,0x00,0xfe,0x00,0x00,0x00,0x00,0x00,0x00,0x00,0x00,0x00,0x00,0x00,
 0x00,0x00,0x00,0x00,0x00,0x00,0x00,0xfe,0x00,0x00,0x00,0x00,0x00,0x00,0x00,
 0x00,0x00,0x00,0x00,0x00,0x00,0x00,0x00,0x00,0x00,0x00,0xfe,0x00,0x00,0x00,
 0x00,0x00,0x00,0x00,0x00,0x00,0x00,0x00,0x00,0x00,0x00,0x00,0x00,0x00,0x00,
 0xfe,0x00,0x00,0x00,0x00,0x00,0x00,0x00,0x00,0x00,0x00,0x00,0x00,0x00,0x00,
 0x00,0x00,0x00,0x00,0xfe};
