<?xml version="1.0" encoding="UTF-8" standalone="no"?>
<svg
   xmlns:dc="http://purl.org/dc/elements/1.1/"
   xmlns:cc="http://creativecommons.org/ns#"
   xmlns:rdf="http://www.w3.org/1999/02/22-rdf-syntax-ns#"
   xmlns:svg="http://www.w3.org/2000/svg"
   xmlns="http://www.w3.org/2000/svg"
   xmlns:sodipodi="http://sodipodi.sourceforge.net/DTD/sodipodi-0.dtd"
   xmlns:inkscape="http://www.inkscape.org/namespaces/inkscape"
   version="1.1"
   width="18"
   height="18"
   viewBox="0 0 18 18"
   id="svg28"
   sodipodi:docname="svg_render_tmp.svg"
   inkscape:version="0.92.2 5c3e80d, 2017-08-06">
  <metadata
     id="metadata34">
    <rdf:RDF>
      <cc:Work
         rdf:about="">
        <dc:format>image/svg+xml</dc:format>
        <dc:type
           rdf:resource="http://purl.org/dc/dcmitype/StillImage" />
      </cc:Work>
    </rdf:RDF>
  </metadata>
  <defs
     id="defs32" />
  <sodipodi:namedview
     pagecolor="#ffffff"
     bordercolor="#666666"
     borderopacity="1"
     objecttolerance="10"
     gridtolerance="10"
     guidetolerance="10"
     inkscape:pageopacity="0"
     inkscape:pageshadow="2"
     inkscape:window-width="468"
     inkscape:window-height="449"
     id="namedview30"
     showgrid="false"
     inkscape:zoom="13.111111"
     inkscape:cx="9"
     inkscape:cy="9"
     inkscape:window-x="0"
     inkscape:window-y="0"
     inkscape:window-maximized="0"
     inkscape:current-layer="svg28" />
  <path
     style="fill:#888888"
     d="M 17.9,9 A 8.8999996,8.8999996 0 0 1 9,17.9 8.8999996,8.8999996 0 0 1 0.10000038,9 8.8999996,8.8999996 0 0 1 9,0.10000038 8.8999996,8.8999996 0 0 1 17.9,9 Z"
     id="circle2" />
  <path
     style="fill:#333333"
     d="M 17.4,9 A 8.3999996,8.3999996 0 0 1 9,17.4 8.3999996,8.3999996 0 0 1 0.60000038,9 8.3999996,8.3999996 0 0 1 9,0.60000038 8.3999996,8.3999996 0 0 1 17.4,9 Z"
     id="circle4" />
  <path
     style="fill:#55ff55"
     d="M 17.1,9 A 8.1000004,8.1000004 0 0 1 9,17.1 8.1000004,8.1000004 0 0 1 0.89999962,9 8.1000004,8.1000004 0 0 1 9,0.89999962 8.1000004,8.1000004 0 0 1 17.1,9 Z"
     id="circle6" />
  <path
     style="fill:#666666;fill-opacity:0.5"
     d="M 17.1,9 A 8.1000004,8.1000004 0 0 1 9,17.1 8.1000004,8.1000004 0 0 1 0.89999962,9 8.1000004,8.1000004 0 0 1 9,0.89999962 8.1000004,8.1000004 0 0 1 17.1,9 Z"
     id="circle8" />
  <path
     style="fill:#55ff55"
     d="M 16.8,9 A 7.8000002,7.8000002 0 0 1 9,16.8 7.8000002,7.8000002 0 0 1 1.1999998,9 7.8000002,7.8000002 0 0 1 9,1.1999998 7.8000002,7.8000002 0 0 1 16.8,9 Z"
     id="circle10" />
  <path
     style="fill:#777777;fill-opacity:0.5"
     d="M 16.8,9 A 7.8000002,7.8000002 0 0 1 9,16.8 7.8000002,7.8000002 0 0 1 1.1999998,9 7.8000002,7.8000002 0 0 1 9,1.1999998 7.8000002,7.8000002 0 0 1 16.8,9 Z"
     id="circle12" />
  <path
     style="fill:#55ff55"
     d="M 16.5,9 A 7.5,7.5 0 0 1 9,16.5 7.5,7.5 0 0 1 1.5,9 7.5,7.5 0 0 1 9,1.5 7.5,7.5 0 0 1 16.5,9 Z"
     id="circle14" />
  <path
     style="fill:#888888;fill-opacity:0.5"
     d="M 16.5,9 A 7.5,7.5 0 0 1 9,16.5 7.5,7.5 0 0 1 1.5,9 7.5,7.5 0 0 1 9,1.5 7.5,7.5 0 0 1 16.5,9 Z"
     id="circle16" />
  <path
     style="fill:#55ff55"
     d="M 16.2,9 A 7.1999998,7.1999998 0 0 1 9,16.2 7.1999998,7.1999998 0 0 1 1.8000002,9 7.1999998,7.1999998 0 0 1 9,1.8000002 7.1999998,7.1999998 0 0 1 16.2,9 Z"
     id="circle18" />
  <path
     style="fill:#999999;fill-opacity:0.5"
     d="M 16.2,9 A 7.1999998,7.1999998 0 0 1 9,16.2 7.1999998,7.1999998 0 0 1 1.8000002,9 7.1999998,7.1999998 0 0 1 9,1.8000002 7.1999998,7.1999998 0 0 1 16.2,9 Z"
     id="circle20" />
  <path
     style="fill:#55ff55"
     d="M 15.9,9 A 6.9000001,6.9000001 0 0 1 9,15.9 6.9000001,6.9000001 0 0 1 2.0999999,9 6.9000001,6.9000001 0 0 1 9,2.0999999 6.9000001,6.9000001 0 0 1 15.9,9 Z"
     id="circle22" />
  <path
     style="fill:#aaaaaa;fill-opacity:0.5"
     d="M 15.9,9 A 6.9000001,6.9000001 0 0 1 9,15.9 6.9000001,6.9000001 0 0 1 2.0999999,9 6.9000001,6.9000001 0 0 1 9,2.0999999 6.9000001,6.9000001 0 0 1 15.9,9 Z"
     id="circle24" />
</svg>
