<?xml version="1.0" encoding="UTF-8" standalone="no"?>
<svg
   xmlns:dc="http://purl.org/dc/elements/1.1/"
   xmlns:cc="http://creativecommons.org/ns#"
   xmlns:rdf="http://www.w3.org/1999/02/22-rdf-syntax-ns#"
   xmlns:svg="http://www.w3.org/2000/svg"
   xmlns="http://www.w3.org/2000/svg"
   xmlns:sodipodi="http://sodipodi.sourceforge.net/DTD/sodipodi-0.dtd"
   xmlns:inkscape="http://www.inkscape.org/namespaces/inkscape"
   version="1.1"
   width="45"
   height="380"
   viewBox="0 0 45 380"
   id="svg135"
   sodipodi:docname="svg_render_tmp.svg"
   inkscape:version="0.92.2 5c3e80d, 2017-08-06">
  <metadata
     id="metadata139">
    <rdf:RDF>
      <cc:Work
         rdf:about="">
        <dc:format>image/svg+xml</dc:format>
        <dc:type
           rdf:resource="http://purl.org/dc/dcmitype/StillImage" />
      </cc:Work>
    </rdf:RDF>
  </metadata>
  <sodipodi:namedview
     pagecolor="#ffffff"
     bordercolor="#666666"
     borderopacity="1"
     objecttolerance="10"
     gridtolerance="10"
     guidetolerance="10"
     inkscape:pageopacity="0"
     inkscape:pageshadow="2"
     inkscape:window-width="468"
     inkscape:window-height="449"
     id="namedview137"
     showgrid="false"
     inkscape:zoom="0.62105263"
     inkscape:cx="22.5"
     inkscape:cy="190"
     inkscape:window-x="0"
     inkscape:window-y="0"
     inkscape:window-maximized="0"
     inkscape:current-layer="svg135" />
  <style
     id="style2">
    text {
      fill: #333;
      font-family: 'Roboto', sans-serif;
      font-weight: bold;
    }
    text.title {
      font-family: 'Comfortaa', sans-serif;
      font-weight: normal;
    }
    text.brand {
      font-family: 'Audiowide', sans-serif;
      font-weight: bold;
    }
  </style>
  <defs
     id="defs89">
    <symbol
       id="slider"
       viewBox="0 0 18px 151x">
      <rect
         width="18"
         height="151"
         fill="none"
         id="rect4" />
      <rect
         width="6"
         height="145"
         x="6"
         y="3"
         rx="2"
         stroke-width="1"
         stroke="#888"
         fill="#222"
         id="rect6" />
      <g
         transform="translate(0 40)"
         id="g16">
        <rect
           width="18"
           height="13"
           rx="1.5"
           fill="#777"
           id="rect8" />
        <rect
           width="18"
           height="9"
           x="0"
           y="2"
           fill="#444"
           id="rect10" />
        <polyline
           points="0,6.5 18,6.5"
           stroke="#fafafa"
           stroke-width="1"
           fill="none"
           id="polyline12" />
        <rect
           width="14"
           height="5"
           x="2"
           y="4"
           rx="1.0"
           fill="#ddd"
           transform="translate(0 0)"
           id="rect14" />
      </g>
    </symbol>
    <symbol
       id="sliderguide-db"
       viewBox="0 0 20px 151px">
      <g
         transform="translate(0 6.5)"
         id="g23">
        <polyline
           points="0,0 6.5,0"
           stroke="#333"
           fill="none"
           transform="translate(10.5 0)"
           id="polyline19" />
        <polyline
           points="0,0 6.5,0"
           stroke="#333"
           fill="none"
           transform="translate(28 0)"
           id="polyline21" />
      </g>
      <g
         transform="translate(0 19.05)"
         id="g31">
        <polyline
           points="0,0 6.5,0"
           stroke="#333"
           fill="none"
           transform="translate(10.5 0)"
           id="polyline25" />
        <polyline
           points="0,0 6.5,0"
           stroke="#333"
           fill="none"
           transform="translate(28 0)"
           id="polyline27" />
        <text
           font-size="6.0pt"
           transform="translate(7 0) rotate(0) translate(-2.5 2.6)"
           id="text29">0</text>
      </g>
      <g
         transform="translate(0 32.86)"
         id="g39">
        <polyline
           points="0,0 6.5,0"
           stroke="#333"
           fill="none"
           transform="translate(10.5 0)"
           id="polyline33" />
        <polyline
           points="0,0 6.5,0"
           stroke="#333"
           fill="none"
           transform="translate(28 0)"
           id="polyline35" />
        <text
           font-size="6.0pt"
           transform="translate(7 0) rotate(-90) translate(-4 2.2)"
           id="text37">-6</text>
      </g>
      <g
         transform="translate(0 46.05)"
         id="g47">
        <polyline
           points="0,0 6.5,0"
           stroke="#333"
           fill="none"
           transform="translate(10.5 0)"
           id="polyline41" />
        <polyline
           points="0,0 6.5,0"
           stroke="#333"
           fill="none"
           transform="translate(28 0)"
           id="polyline43" />
        <text
           font-size="6.0pt"
           transform="translate(7 0) rotate(-90) translate(-7 2.2)"
           id="text45">-12</text>
      </g>
      <g
         transform="translate(0 72.41)"
         id="g55">
        <polyline
           points="0,0 6.5,0"
           stroke="#333"
           fill="none"
           transform="translate(10.5 0)"
           id="polyline49" />
        <polyline
           points="0,0 6.5,0"
           stroke="#333"
           fill="none"
           transform="translate(28 0)"
           id="polyline51" />
        <text
           font-size="6.0pt"
           transform="translate(7 0) rotate(-90) translate(-7 2.2)"
           id="text53">-24</text>
      </g>
      <g
         transform="translate(0 125.14)"
         id="g63">
        <polyline
           points="0,0 6.5,0"
           stroke="#333"
           fill="none"
           transform="translate(10.5 0)"
           id="polyline57" />
        <polyline
           points="0,0 6.5,0"
           stroke="#333"
           fill="none"
           transform="translate(28 0)"
           id="polyline59" />
        <text
           font-size="6.0pt"
           transform="translate(7 0) rotate(-90) translate(-7 2.2)"
           id="text61">-48</text>
      </g>
      <g
         transform="translate(0 151.5)"
         id="g67">
        <!-- <polyline points="0,0 6.5,0" stroke="#333" fill="none" transform="translate(10.5 0)" /> -->
        <text
           font-size="6.0pt"
           transform="translate(7 -10) rotate(-90) translate(-9 4)"
           id="text65">dB</text>
      </g>
    </symbol>
    <symbol
       id="button"
       viewBox="0 0 20px 20px">
      <g
         transform="translate(10 10)"
         id="g72">
        <circle
           cx="0"
           cy="0"
           r="8.8"
           stroke-width="1"
           stroke="#00f"
           fill="#f00"
           id="circle70" />
      </g>
    </symbol>
    <symbol
       id="input"
       viewBox="0 0 24px 24px">
      <g
         transform="translate(12 12)"
         id="g79">
        <circle
           cx="0"
           cy="0"
           r="5"
           stroke-width="1"
           stroke="#0f0"
           fill="#0f0"
           id="circle75" />
        <circle
           cx="0"
           cy="0"
           r="10.5"
           stroke-width="3"
           stroke="#0f0"
           fill="none"
           id="circle77" />
      </g>
    </symbol>
    <symbol
       id="output"
       viewBox="0 0 24px 24px">
      <g
         transform="translate(12 12)"
         id="g86">
        <circle
           cx="0"
           cy="0"
           r="5"
           stroke-width="1"
           stroke="#f00"
           fill="#f00"
           id="circle82" />
        <circle
           cx="0"
           cy="0"
           r="10.5"
           stroke-width="3"
           stroke="#f00"
           fill="none"
           id="circle84" />
      </g>
    </symbol>
  </defs>
  <path
     style="fill:#dddddd"
     d="M 0,0 H 45 V 380 H 0 Z"
     id="rect91" />
  <path
     style="fill:none;stroke:#e4e4e4;stroke-width:0.5"
     d="M 1,1 H 44 V 379 H 1 V 1"
     id="polyline93" />
  <path
     style="fill:none;stroke:#ebebeb;stroke-width:0.80000001"
     d="m 0.5,0.5 h 44 v 379 H 0.5 V 0.5"
     id="polyline95" />
  <path
     style="fill:none;stroke:#f2f2f2;stroke-width:1"
     d="M 0,0 H 45 V 380 H 0 V 0"
     id="polyline97" />
  <!-- <polyline points="22.5,0 22.5,380" stroke-width="0.5" stroke="#0f0" /> -->
  <!-- <rect width="45" height="10" fill="#0f0" transform="translate(0 68)" /> -->
  <!-- <rect width="45" height="10" fill="#0f0" transform="translate(0 127)" /> -->
  <!-- <rect width="45" height="10" fill="#0f0" transform="translate(0 177)" /> -->
  <g
     aria-label="MIX1"
     transform="rotate(-90)"
     style="font-weight:normal;font-size:9.33333302px;font-family:Comfortaa, sans-serif;letter-spacing:2.5px;fill:#333333"
     id="text99">
    <path
       d="m -368.132,5.7106669 q 0.14933,0 0.252,0.1026667 0.10267,0.1026666 0.10267,0.2613333 V 12.636 q 0,0.149333 -0.10267,0.261333 Q -367.98267,13 -368.132,13 q -0.15867,0 -0.27067,-0.102667 -0.10266,-0.112 -0.10266,-0.261333 V 7.3533335 L -371.1,12.654667 q -0.112,0.177333 -0.31733,0.177333 -0.23334,0 -0.336,-0.224 l -2.58534,-5.1706665 V 12.636 q 0,0.149333 -0.10266,0.261333 Q -374.544,13 -374.70267,13 q -0.14933,0 -0.26133,-0.102667 -0.10267,-0.112 -0.10267,-0.261333 V 6.0746669 q 0,-0.1586667 0.10267,-0.2613333 0.112,-0.1026667 0.26133,-0.1026667 0.21467,0 0.32667,0.1866667 l 2.98667,5.9359994 2.93066,-5.9359994 q 0.112,-0.1866667 0.32667,-0.1866667 z"
       style="font-weight:normal;font-size:9.33333302px;font-family:Comfortaa, sans-serif;letter-spacing:2.5px;fill:#333333"
       id="path208" />
    <path
       d="m -363.05163,13 q -0.14933,0 -0.26133,-0.102667 -0.10267,-0.112 -0.10267,-0.261333 V 6.0746669 q 0,-0.1586667 0.10267,-0.2613333 0.112,-0.1026667 0.26133,-0.1026667 0.15867,0 0.26134,0.1026667 0.10266,0.1026666 0.10266,0.2613333 V 12.636 q 0,0.149333 -0.10266,0.261333 Q -362.89296,13 -363.05163,13 Z"
       style="font-weight:normal;font-size:9.33333302px;font-family:Comfortaa, sans-serif;letter-spacing:2.5px;fill:#333333"
       id="path210" />
    <path
       d="m -353.16575,12.412 q 0.084,0.112 0.084,0.233333 0,0.149334 -0.0933,0.252 Q -353.26842,13 -353.42708,13 q -0.18667,0 -0.28,-0.130667 l -2.23067,-3.0893329 -2.27733,3.1079999 q -0.0933,0.112 -0.26134,0.112 -0.15866,0 -0.252,-0.09333 -0.0933,-0.102667 -0.0933,-0.242667 0,-0.14 0.084,-0.252 l 2.30533,-3.1359999 -2.156,-2.9959999 q -0.0747,-0.1213333 -0.0747,-0.224 0,-0.14 0.0933,-0.2426666 0.0933,-0.1026667 0.24267,-0.1026667 0.18666,0 0.28,0.1306667 l 2.11866,2.9306665 2.14667,-2.9306665 q 0.10267,-0.1306667 0.28,-0.1306667 0.14933,0 0.24267,0.112 0.0933,0.1026667 0.0933,0.2426667 0,0.1213333 -0.0653,0.2146666 l -2.20267,2.9866666 z"
       style="font-weight:normal;font-size:9.33333302px;font-family:Comfortaa, sans-serif;letter-spacing:2.5px;fill:#333333"
       id="path212" />
    <path
       d="m -347.93079,13 q -0.14934,0 -0.26134,-0.102667 -0.10266,-0.112 -0.10266,-0.261333 V 6.5693336 l -0.93334,0.3266666 q -0.0933,0.046667 -0.18666,0.046667 -0.15867,0 -0.26134,-0.093333 -0.10266,-0.1026666 -0.10266,-0.2613333 0,-0.2706666 0.23333,-0.3453333 l 1.43733,-0.4946667 q 0.14,-0.046667 0.18667,-0.046667 0.14933,0 0.252,0.1026666 0.10267,0.1026667 0.10267,0.2613334 V 12.636 q 0,0.149333 -0.10267,0.261333 Q -347.77213,13 -347.93079,13 Z"
       style="font-weight:normal;font-size:9.33333302px;font-family:Comfortaa, sans-serif;letter-spacing:2.5px;fill:#333333"
       id="path214" />
  </g>
  <g
     id="g105"
     transform="rotate(-90,200.5,175.5)">
    <g
       aria-label="BGA"
       style="font-weight:bold;font-size:9.33333302px;font-family:Audiowide, sans-serif;letter-spacing:2px;fill:#333333"
       id="text101">
      <path
         d="m 7.2096352,-1.4355468 q 0,0.21875 -0.077474,0.469401 -0.072917,0.25065103 -0.2460937,0.46484373 -0.1686198,0.2141927 -0.4420573,0.36002603 Q 6.1705727,0 5.7740883,0 H 1.2760416 Q 1.1484375,0 1.0390625,-0.04557292 0.92968747,-0.09114583 0.84765622,-0.16861979 q -0.077474,-0.0820312 -0.12304687,-0.19140624 -0.0455729,-0.109375 -0.0455729,-0.23697916 V -5.9381508 q 0,-0.1230469 0.0455729,-0.2324219 0.0455729,-0.109375 0.12304687,-0.1914062 0.0820313,-0.082031 0.19140628,-0.1276042 0.109375,-0.045573 0.2369791,-0.045573 h 3.9648436 q 0.21875,0 0.4694011,0.077474 0.250651,0.077474 0.4648437,0.2506511 0.21875,0.1686197 0.360026,0.4420572 0.1458334,0.2734375 0.1458334,0.6699219 v 0.2233073 q 0,0.3144531 -0.1048177,0.6790364 -0.1048178,0.360026 -0.3372396,0.6835937 0.2005208,0.1230469 0.3736979,0.296224 0.1777344,0.1731771 0.3098958,0.4010416 0.1321615,0.2278646 0.2096354,0.514974 0.077474,0.2871093 0.077474,0.6334635 z M 6.0247394,-1.6634114 q 0,-0.2324219 -0.072917,-0.4147135 Q 5.878906,-2.2649739 5.7467446,-2.3971353 5.6145831,-2.5292968 5.4277342,-2.5976562 5.2408852,-2.6705728 5.0084634,-2.6705728 H 2.3378905 v -1.1940104 h 2.1373698 q 0.2324218,0 0.4192708,-0.068359 0.1868489,-0.072917 0.3190104,-0.2050781 0.1321614,-0.1321614 0.2005208,-0.3144531 0.072917,-0.186849 0.072917,-0.4192708 v -0.2233073 q 0,-0.2552083 -0.2460938,-0.2552083 h -3.376953 v 4.1653644 h 3.9101561 q 0.031901,0 0.077474,-0.00456 0.045573,-0.00456 0.082031,-0.027344 0.036458,-0.022787 0.063802,-0.077474 0.027344,-0.054687 0.027344,-0.1503906 z"
         style="font-weight:bold;font-size:9.33333302px;font-family:Audiowide, sans-serif;letter-spacing:2px;fill:#333333"
         id="path217" />
      <path
         d="m 16.683594,-0.59700519 q 0,0.12760416 -0.04557,0.23697916 -0.04557,0.109375 -0.127605,0.19140624 -0.07747,0.07747396 -0.186849,0.12304687 Q 16.214192,0 16.086588,0 h -4.274739 q -0.164063,0 -0.355469,-0.03645833 -0.186849,-0.04101563 -0.373698,-0.12304687 -0.182291,-0.0820313 -0.350911,-0.20963541 -0.16862,-0.13216146 -0.300781,-0.31445312 -0.127605,-0.18684895 -0.205079,-0.42838537 -0.07747,-0.2460938 -0.07747,-0.5514323 v -3.2083332 q 0,-0.1640625 0.03646,-0.3509115 0.04101,-0.1914062 0.123047,-0.3736979 0.08203,-0.1868489 0.214192,-0.3554687 0.132162,-0.1686198 0.314453,-0.296224 0.186849,-0.1321614 0.428386,-0.2096354 0.241536,-0.077474 0.546875,-0.077474 h 4.817057 v 1.1848958 h -4.817057 q -0.232422,0 -0.355469,0.1230468 -0.123047,0.1230469 -0.123047,0.3645834 v 3.1992186 q 0,0.2278646 0.123047,0.3554687 0.127604,0.1230469 0.355469,0.1230469 h 3.686849 v -1.485677 h -3.153646 v -1.1940104 h 3.741536 q 0.127604,0 0.236979,0.05013 0.109375,0.045573 0.186849,0.1276042 0.08203,0.082031 0.127605,0.1914062 0.04557,0.1048177 0.04557,0.2278646 z"
         style="font-weight:bold;font-size:9.33333302px;font-family:Audiowide, sans-serif;letter-spacing:2px;fill:#333333"
         id="path219" />
      <path
         d="M 26.339842,0 H 25.154946 V -1.6041666 H 20.989582 V 0 h -1.184896 v -3.267578 q 0,-0.7154948 0.246094,-1.3170573 0.246094,-0.6015624 0.683594,-1.0345051 0.4375,-0.4329427 1.034505,-0.6744792 0.597005,-0.2415364 1.303385,-0.2415364 h 2.670573 q 0.123047,0 0.232422,0.045573 0.109375,0.045573 0.191406,0.1276042 0.08203,0.082031 0.127604,0.1914062 0.04557,0.109375 0.04557,0.2324219 z m -5.35026,-2.7890624 h 4.165364 v -2.5611978 h -2.082682 q -0.05469,0 -0.232422,0.018229 -0.173177,0.013672 -0.405599,0.077474 -0.227864,0.063802 -0.483072,0.1959635 -0.255209,0.1321615 -0.469402,0.3645833 -0.214192,0.2324219 -0.355468,0.5833334 -0.136719,0.3463541 -0.136719,0.8430989 z"
         style="font-weight:bold;font-size:9.33333302px;font-family:Audiowide, sans-serif;letter-spacing:2px;fill:#333333"
         id="path221" />
    </g>
    <path
       transform="translate(11.5,-5)"
       style="fill:#dddddd"
       d="M 0,0 H 3 V 3 H 0 Z"
       id="rect103" />
  </g>
  <g
     id="use109"
     transform="translate(0,18)">
    <g
       id="g160"
       transform="translate(0,6.5)">
      <path
         transform="translate(10.5)"
         style="fill:none;stroke:#333333"
         d="M 0,0 H 6.5"
         id="polyline156" />
      <path
         transform="translate(28)"
         style="fill:none;stroke:#333333"
         d="M 0,0 H 6.5"
         id="polyline158" />
    </g>
    <g
       id="g168"
       transform="translate(0,19.05)">
      <path
         transform="translate(10.5)"
         style="fill:none;stroke:#333333"
         d="M 0,0 H 6.5"
         id="polyline162" />
      <path
         transform="translate(28)"
         style="fill:none;stroke:#333333"
         d="M 0,0 H 6.5"
         id="polyline164" />
      <g
         aria-label="0"
         transform="translate(4.5,2.6)"
         style="font-weight:bold;font-size:8px;font-family:Roboto, sans-serif;fill:#333333"
         id="text166">
        <path
           d="m 4.2148437,-2.3515625 q 0,1.1796875 -0.4882812,1.8046875 -0.4882812,0.625 -1.4296875,0.625 -0.9296875,0 -1.421875,-0.61328125 Q 0.3828125,-1.1484375 0.37109375,-2.2929688 v -1.046875 q 0,-1.1914062 0.4921875,-1.8085937 Q 1.359375,-5.765625 2.2890625,-5.765625 q 0.9296875,0 1.421875,0.6132813 0.4921875,0.609375 0.5039062,1.7539062 z M 3.0859375,-3.5 q 0,-0.7070312 -0.1953125,-1.0273437 -0.1914062,-0.3242188 -0.6015625,-0.3242188 -0.3984375,0 -0.5898438,0.3085938 Q 1.5117187,-4.2382812 1.5,-3.5859375 v 1.3828125 q 0,0.6953125 0.1875,1.0351563 0.1914062,0.33593745 0.609375,0.33593745 0.4140625,0 0.5976563,-0.32421875 0.1835937,-0.3242187 0.1914062,-0.9921875 z"
           style="font-weight:bold;font-size:8px;font-family:Roboto, sans-serif;fill:#333333"
           id="path229" />
      </g>
    </g>
    <g
       id="g176"
       transform="translate(0,32.86)">
      <path
         transform="translate(10.5)"
         style="fill:none;stroke:#333333"
         d="M 0,0 H 6.5"
         id="polyline170" />
      <path
         transform="translate(28)"
         style="fill:none;stroke:#333333"
         d="M 0,0 H 6.5"
         id="polyline172" />
      <g
         aria-label="-6"
         transform="rotate(-90,6.6,-2.6)"
         style="font-weight:bold;font-size:8px;font-family:Roboto, sans-serif;fill:#333333"
         id="text174">
        <path
           d="M 2.6289063,-1.9804687 H 0.4296875 V -2.890625 h 2.1992188 z"
           style="font-weight:bold;font-size:8px;font-family:Roboto, sans-serif;fill:#333333"
           id="path234" />
        <path
           d="m 6.5585937,-5.7460937 v 0.9296875 h -0.109375 q -0.765625,0.011719 -1.234375,0.3984375 Q 4.75,-4.03125 4.65625,-3.34375 q 0.453125,-0.4609375 1.1445312,-0.4609375 0.7421875,0 1.1796875,0.53125 0.4375,0.53125 0.4375,1.3984375 0,0.5546875 -0.2421875,1.00390625 Q 6.9375,-0.421875 6.4960937,-0.171875 q -0.4375,0.25 -0.9921875,0.25 -0.8984375,0 -1.453125,-0.625 Q 3.5,-1.171875 3.5,-2.2148438 v -0.40625 q 0,-0.9257812 0.3476563,-1.6328124 0.3515624,-0.7109375 1.0039062,-1.0976563 0.65625,-0.390625 1.5195312,-0.3945312 z m -1.1015625,2.8476562 q -0.2734375,0 -0.4960937,0.1445312 -0.2226563,0.140625 -0.328125,0.375 v 0.34375 q 0,0.5664063 0.2226562,0.8867188 0.2226563,0.31640625 0.625,0.31640625 0.3632813,0 0.5859375,-0.28515625 0.2265625,-0.2890625 0.2265625,-0.7460937 0,-0.4648438 -0.2265625,-0.7500001 -0.2265625,-0.2851562 -0.609375,-0.2851562 z"
           style="font-weight:bold;font-size:8px;font-family:Roboto, sans-serif;fill:#333333"
           id="path236" />
      </g>
    </g>
    <g
       id="g184"
       transform="translate(0,46.05)">
      <path
         transform="translate(10.5)"
         style="fill:none;stroke:#333333"
         d="M 0,0 H 6.5"
         id="polyline178" />
      <path
         transform="translate(28)"
         style="fill:none;stroke:#333333"
         d="M 0,0 H 6.5"
         id="polyline180" />
      <g
         aria-label="-12"
         transform="rotate(-90,8.1,-1.1)"
         style="font-weight:bold;font-size:8px;font-family:Roboto, sans-serif;fill:#333333"
         id="text182">
        <path
           d="M 2.6289063,-1.9804687 H 0.4296875 V -2.890625 h 2.1992188 z"
           style="font-weight:bold;font-size:8px;font-family:Roboto, sans-serif;fill:#333333"
           id="path241" />
        <path
           d="M 6.2382812,0 H 5.109375 v -4.3515625 l -1.3476562,0.4179687 v -0.9179687 l 2.3554687,-0.84375 h 0.1210937 z"
           style="font-weight:bold;font-size:8px;font-family:Roboto, sans-serif;fill:#333333"
           id="path243" />
        <path
           d="M 11.988281,0 H 8.0898438 V -0.7734375 L 9.9296875,-2.734375 q 0.3789065,-0.4140625 0.5585935,-0.7226563 0.183594,-0.3085937 0.183594,-0.5859374 0,-0.3789063 -0.191406,-0.59375 -0.191406,-0.21875 -0.5468752,-0.21875 -0.3828125,0 -0.6054688,0.265625 -0.21875,0.2617187 -0.21875,0.6914062 H 7.9765625 q 0,-0.5195312 0.2460938,-0.9492187 0.25,-0.4296875 0.703125,-0.671875 0.453125,-0.2460938 1.0273437,-0.2460938 0.878906,0 1.363281,0.421875 0.488282,0.421875 0.488282,1.1914063 0,0.4218749 -0.21875,0.8593749 -0.21875,0.4375 -0.75,1.0195313 l -1.2929692,1.36328125 h 2.4453122 z"
           style="font-weight:bold;font-size:8px;font-family:Roboto, sans-serif;fill:#333333"
           id="path245" />
      </g>
    </g>
    <g
       id="g192"
       transform="translate(0,72.41)">
      <path
         transform="translate(10.5)"
         style="fill:none;stroke:#333333"
         d="M 0,0 H 6.5"
         id="polyline186" />
      <path
         transform="translate(28)"
         style="fill:none;stroke:#333333"
         d="M 0,0 H 6.5"
         id="polyline188" />
      <g
         aria-label="-24"
         transform="rotate(-90,8.1,-1.1)"
         style="font-weight:bold;font-size:8px;font-family:Roboto, sans-serif;fill:#333333"
         id="text190">
        <path
           d="M 2.6289063,-1.9804687 H 0.4296875 V -2.890625 h 2.1992188 z"
           style="font-weight:bold;font-size:8px;font-family:Roboto, sans-serif;fill:#333333"
           id="path250" />
        <path
           d="M 7.3945312,0 H 3.4960938 V -0.7734375 L 5.3359375,-2.734375 Q 5.7148437,-3.1484375 5.8945312,-3.4570313 6.078125,-3.765625 6.078125,-4.0429687 q 0,-0.3789063 -0.1914063,-0.59375 -0.1914062,-0.21875 -0.546875,-0.21875 -0.3828125,0 -0.6054687,0.265625 -0.21875,0.2617187 -0.21875,0.6914062 H 3.3828125 q 0,-0.5195312 0.2460938,-0.9492187 0.25,-0.4296875 0.7031249,-0.671875 0.453125,-0.2460938 1.0273438,-0.2460938 0.8789062,0 1.3632812,0.421875 0.4882813,0.421875 0.4882813,1.1914063 0,0.4218749 -0.21875,0.8593749 -0.21875,0.4375 -0.75,1.0195313 l -1.2929688,1.36328125 h 2.4453125 z"
           style="font-weight:bold;font-size:8px;font-family:Roboto, sans-serif;fill:#333333"
           id="path252" />
        <path
           d="m 11.429688,-2.140625 h 0.644531 v 0.9101563 H 11.429688 V 0 H 10.300781 V -1.2304687 H 7.96875 L 7.9179687,-1.9414062 10.289063,-5.6875 h 1.140625 z m -2.3867192,0 h 1.2578122 v -2.0078125 l -0.07422,0.1289063 z"
           style="font-weight:bold;font-size:8px;font-family:Roboto, sans-serif;fill:#333333"
           id="path254" />
      </g>
    </g>
    <g
       id="g200"
       transform="translate(0,125.14)">
      <path
         transform="translate(10.5)"
         style="fill:none;stroke:#333333"
         d="M 0,0 H 6.5"
         id="polyline194" />
      <path
         transform="translate(28)"
         style="fill:none;stroke:#333333"
         d="M 0,0 H 6.5"
         id="polyline196" />
      <g
         aria-label="-48"
         transform="rotate(-90,8.1,-1.1)"
         style="font-weight:bold;font-size:8px;font-family:Roboto, sans-serif;fill:#333333"
         id="text198">
        <path
           d="M 2.6289063,-1.9804687 H 0.4296875 V -2.890625 h 2.1992188 z"
           style="font-weight:bold;font-size:8px;font-family:Roboto, sans-serif;fill:#333333"
           id="path259" />
        <path
           d="m 6.8359375,-2.140625 h 0.6445312 v 0.9101563 H 6.8359375 V 0 H 5.7070312 V -1.2304687 H 3.375 L 3.3242188,-1.9414062 5.6953125,-5.6875 h 1.140625 z m -2.3867188,0 h 1.2578125 v -2.0078125 l -0.074219,0.1289063 z"
           style="font-weight:bold;font-size:8px;font-family:Roboto, sans-serif;fill:#333333"
           id="path261" />
        <path
           d="m 11.796875,-4.1757812 q 0,0.4140624 -0.207031,0.7343749 -0.207031,0.3203125 -0.570313,0.5117188 0.414063,0.1992187 0.65625,0.5507812 0.242188,0.3476563 0.242188,0.8203126 0,0.75781245 -0.515625,1.1992187 -0.515625,0.4375 -1.402344,0.4375 -0.8867187,0 -1.40625,-0.44140625 -0.5195312,-0.44140625 -0.5195312,-1.19531245 0,-0.4726563 0.2421875,-0.8242188 0.2421875,-0.3515625 0.6523437,-0.546875 -0.3632812,-0.1914063 -0.5703125,-0.5117188 -0.203125,-0.3203125 -0.203125,-0.7343749 0,-0.7265625 0.484375,-1.15625 0.484375,-0.4335938 1.3164063,-0.4335938 0.8281252,0 1.3125002,0.4296875 0.488281,0.4257813 0.488281,1.1601563 z m -1.011719,2.5351562 q 0,-0.3710938 -0.214843,-0.59375 -0.214844,-0.2226563 -0.5781255,-0.2226563 -0.359375,0 -0.5742187,0.2226563 -0.2148438,0.21875 -0.2148438,0.59375 0,0.3632813 0.2109375,0.5859375 Q 9.625,-0.83203125 10,-0.83203125 q 0.367188,0 0.574219,-0.21484375 0.210937,-0.2148437 0.210937,-0.59375 z m -0.117187,-2.4804687 q 0,-0.3320313 -0.175781,-0.53125 -0.175782,-0.203125 -0.4960942,-0.203125 -0.3164063,0 -0.4921875,0.1953125 -0.1757813,0.1953125 -0.1757813,0.5390625 0,0.3398437 0.1757813,0.5468749 Q 9.6796875,-3.3671875 10,-3.3671875 q 0.320313,0 0.492188,-0.2070313 0.175781,-0.2070312 0.175781,-0.5468749 z"
           style="font-weight:bold;font-size:8px;font-family:Roboto, sans-serif;fill:#333333"
           id="path263" />
      </g>
    </g>
    <g
       id="g204"
       transform="translate(0,151.5)">
      <!-- <polyline points="0,0 6.5,0" stroke="#333" fill="none" transform="translate(10.5 0)" /> -->
      <g
         aria-label="dB"
         transform="rotate(-90,5,-6)"
         style="font-weight:bold;font-size:8px;font-family:Roboto, sans-serif;fill:#333333"
         id="text202">
        <path
           d="m 0.2578125,-2.1445313 q 0,-0.9882812 0.44140625,-1.5742187 0.44531245,-0.5859375 1.21484375,-0.5859375 0.6171875,0 1.0195313,0.4609375 V -6 H 4.0664062 V 0 H 3.046875 L 2.9921875,-0.44921875 Q 2.5703125,0.078125 1.90625,0.078125 q -0.7460938,0 -1.19921875,-0.5859375 Q 0.2578125,-1.0976562 0.2578125,-2.1445313 Z M 1.3867187,-2.0625 q 0,0.59375 0.2070313,0.9101563 0.2070312,0.3164062 0.6015625,0.3164062 0.5234375,0 0.7382813,-0.4414062 V -2.9453125 Q 2.7226563,-3.3867188 2.203125,-3.3867188 q -0.8164063,0 -0.8164063,1.3242188 z"
           style="font-weight:bold;font-size:8px;font-family:Roboto, sans-serif;fill:#333333"
           id="path266" />
        <path
           d="M 5.0234375,0 V -5.6875 H 7.015625 q 1.0351563,0 1.5703125,0.3984375 0.5351563,0.3945313 0.5351563,1.1601563 0,0.4179687 -0.2148438,0.7382812 -0.2148437,0.3164062 -0.5976562,0.4648437 0.4375,0.109375 0.6875,0.4414063 Q 9.25,-2.1523438 9.25,-1.671875 9.25,-0.8515625 8.7265625,-0.4296875 8.203125,-0.0078125 7.234375,0 Z m 1.171875,-2.4765625 v 1.53515625 h 1.0039062 q 0.4140625,0 0.6445313,-0.19531245 0.234375,-0.1992188 0.234375,-0.546875 0,-0.7812501 -0.8085938,-0.7929688 z m 0,-0.828125 H 7.0625 q 0.8867187,-0.015625 0.8867187,-0.7070312 0,-0.3867188 -0.2265625,-0.5546875 Q 7.5,-4.7382812 7.015625,-4.7382812 H 6.1953125 Z"
           style="font-weight:bold;font-size:8px;font-family:Roboto, sans-serif;fill:#333333"
           id="path268" />
      </g>
    </g>
  </g>
  <g
     id="g123"
     transform="translate(5.5,173)">
    <path
       transform="translate(0,120)"
       style="fill:#fafafa"
       d="M 0,0 H 34 V 10 H 0 Z"
       id="rect113" />
    <path
       style="fill:#fafafa"
       d="m 5,0 h 24 c 2.77,0 5,2.23 5,5 v 117 c 0,2.77 -2.23,5 -5,5 H 5 c -2.77,0 -5,-2.23 -5,-5 V 5 C 0,2.23 2.23,0 5,0 Z"
       id="rect115" />
    <g
       aria-label="MUTE"
       transform="translate(5,57)"
       style="font-weight:bold;font-size:6.66666651px;font-family:Roboto, sans-serif;letter-spacing:2px;fill:#333333"
       id="text117">
      <path
         d="m 1.6992187,-4.7395832 1.2174479,3.4374999 1.2109375,-3.4374999 h 1.282552 V 0 H 4.4303384 V -1.2955729 L 4.5279947,-3.531901 3.2486978,0 H 2.5781249 l -1.2760416,-3.5286457 0.097656,2.2330728 V 0 H 0.42317707 v -4.7395832 z"
         style="font-weight:bold;font-size:6.66666651px;font-family:Roboto, sans-serif;letter-spacing:2px;fill:#333333"
         id="path273" />
      <path
         d="m 11.856771,-4.7395832 v 3.1217447 q 0,0.77799477 -0.488282,1.23046872 -0.485026,0.45247395 -1.328125,0.45247395 -0.8300777,0 -1.318359,-0.43945312 Q 8.2337238,-0.81380206 8.2239582,-1.5820312 v -3.157552 h 0.9765624 v 3.1282551 q 0,0.4654948 0.2213542,0.68033854 0.2246094,0.21158854 0.6184892,0.21158854 0.823568,0 0.836589,-0.86588538 v -3.1542968 z"
         style="font-weight:bold;font-size:6.66666651px;font-family:Roboto, sans-serif;letter-spacing:2px;fill:#333333"
         id="path275" />
      <path
         d="M 18.22526,-3.9485676 H 16.773437 V 0 h -0.976562 v -3.9485676 h -1.432292 v -0.7910156 h 3.860677 z"
         style="font-weight:bold;font-size:6.66666651px;font-family:Roboto, sans-serif;letter-spacing:2px;fill:#333333"
         id="path277" />
      <path
         d="m 23.636718,-2.0540364 h -1.875 v 1.26953121 h 2.200521 V 0 h -3.177083 v -4.7395832 h 3.170572 v 0.7910156 h -2.19401 v 1.1295573 h 1.875 z"
         style="font-weight:bold;font-size:6.66666651px;font-family:Roboto, sans-serif;letter-spacing:2px;fill:#333333"
         id="path279" />
    </g>
    <g
       aria-label="LEVEL"
       transform="translate(3.5,92)"
       style="font-weight:bold;font-size:6.66666651px;font-family:Roboto, sans-serif;letter-spacing:2px;fill:#333333"
       id="text119">
      <path
         d="M 1.3997395,-0.78450519 H 3.4733072 V 0 H 0.42317707 V -4.7395832 H 1.3997395 Z"
         style="font-weight:bold;font-size:6.66666651px;font-family:Roboto, sans-serif;letter-spacing:2px;fill:#333333"
         id="path282" />
      <path
         d="M 8.88151,-2.0540364 H 7.0065101 v 1.26953121 H 9.2070308 V 0 H 6.0299476 v -4.7395832 h 3.1705728 v 0.7910156 H 7.0065101 v 1.1295573 H 8.88151 Z"
         style="font-weight:bold;font-size:6.66666651px;font-family:Roboto, sans-serif;letter-spacing:2px;fill:#333333"
         id="path284" />
      <path
         d="m 13.53125,-1.1751302 1.074218,-3.564453 h 1.08724 L 14.042317,0 h -1.01888 l -1.64388,-4.7395832 h 1.083984 z"
         style="font-weight:bold;font-size:6.66666651px;font-family:Roboto, sans-serif;letter-spacing:2px;fill:#333333"
         id="path286" />
      <path
         d="m 20.99349,-2.0540364 h -1.875 v 1.26953121 h 2.20052 V 0 H 18.141927 V -4.7395832 H 21.3125 v 0.7910156 h -2.19401 v 1.1295573 h 1.875 z"
         style="font-weight:bold;font-size:6.66666651px;font-family:Roboto, sans-serif;letter-spacing:2px;fill:#333333"
         id="path288" />
      <path
         d="m 24.86849,-0.78450519 h 2.073567 V 0 h -3.05013 v -4.7395832 h 0.976563 z"
         style="font-weight:bold;font-size:6.66666651px;font-family:Roboto, sans-serif;letter-spacing:2px;fill:#333333"
         id="path290" />
    </g>
    <g
       aria-label="IN"
       transform="translate(12.5,127)"
       style="font-weight:bold;font-size:6.66666651px;font-family:Roboto, sans-serif;letter-spacing:2px;fill:#333333"
       id="text121">
      <path
         d="M 1.4615885,0 H 0.48502603 V -4.7395832 H 1.4615885 Z"
         style="font-weight:bold;font-size:6.66666651px;font-family:Roboto, sans-serif;letter-spacing:2px;fill:#333333"
         id="path293" />
      <path
         d="M 8.2174477,0 H 7.2408852 L 5.3398436,-3.1184895 V 0 H 4.3632811 v -4.7395832 h 0.9765625 l 1.9042968,3.1249999 v -3.1249999 h 0.9733073 z"
         style="font-weight:bold;font-size:6.66666651px;font-family:Roboto, sans-serif;letter-spacing:2px;fill:#333333"
         id="path295" />
    </g>
  </g>
  <g
     id="g131"
     transform="translate(5.5,306)">
    <path
       transform="translate(0,-3)"
       style="fill:#bbbbbb"
       d="M 0,0 H 34 V 10 H 0 Z"
       id="rect125" />
    <path
       style="fill:#bbbbbb"
       d="m 5,0 h 24 c 2.77,0 5,2.23 5,5 v 25 c 0,2.77 -2.23,5 -5,5 H 5 C 2.23,35 0,32.77 0,30 V 5 C 0,2.23 2.23,0 5,0 Z"
       id="rect127" />
    <g
       aria-label="OUT"
       transform="translate(8.3,32)"
       style="font-weight:bold;font-size:6.66666651px;font-family:Roboto, sans-serif;letter-spacing:2px;fill:#333333"
       id="text129">
      <path
         d="m 4.3164061,-2.2623697 q 0,0.6998697 -0.2473958,1.2272135 -0.2473958,0.52734371 -0.7096354,0.81380204 -0.4589843,0.28645833 -1.0546875,0.28645833 -0.5891926,0 -1.0514322,-0.28320312 Q 0.79101561,-0.50130207 0.53710936,-1.0253906 0.28320312,-1.5527343 0.27994791,-2.2363281 v -0.234375 q 0,-0.6998697 0.25065104,-1.2304687 0.25390624,-0.5338541 0.71289065,-0.8170573 0.4622395,-0.2864583 1.0546874,-0.2864583 0.5924479,0 1.0514323,0.2864583 0.4622396,0.2832032 0.7128906,0.8170573 0.2539062,0.530599 0.2539062,1.2272135 z M 3.3268228,-2.4772135 q 0,-0.7454427 -0.266927,-1.1328125 -0.2669271,-0.3873697 -0.7617188,-0.3873697 -0.4915364,0 -0.7584635,0.3841145 -0.2669271,0.3808594 -0.2701823,1.1197917 v 0.2311198 q 0,0.7259114 0.2669271,1.126302 0.2669271,0.40039063 0.7682291,0.40039063 0.4915365,0 0.7552084,-0.38411453 0.2636718,-0.3873698 0.266927,-1.1263021 z"
         style="font-weight:bold;font-size:6.66666651px;font-family:Roboto, sans-serif;letter-spacing:2px;fill:#333333"
         id="path300" />
      <path
         d="m 10.619792,-4.7395832 v 3.1217447 q 0,0.77799477 -0.488282,1.23046872 -0.4850257,0.45247395 -1.3281246,0.45247395 -0.8300781,0 -1.3183594,-0.43945312 Q 6.9967448,-0.81380206 6.9869792,-1.5820312 v -3.157552 h 0.9765624 v 3.1282551 q 0,0.4654948 0.2213542,0.68033854 0.2246094,0.21158854 0.6184896,0.21158854 0.8235677,0 0.8365885,-0.86588538 v -3.1542968 z"
         style="font-weight:bold;font-size:6.66666651px;font-family:Roboto, sans-serif;letter-spacing:2px;fill:#333333"
         id="path302" />
      <path
         d="M 16.988281,-3.9485676 H 15.536458 V 0 h -0.976563 v -3.9485676 h -1.432291 v -0.7910156 h 3.860677 z"
         style="font-weight:bold;font-size:6.66666651px;font-family:Roboto, sans-serif;letter-spacing:2px;fill:#333333"
         id="path304" />
    </g>
  </g>
</svg>
