<?xml version="1.0" encoding="UTF-8" standalone="no"?>
<svg
   xmlns:dc="http://purl.org/dc/elements/1.1/"
   xmlns:cc="http://creativecommons.org/ns#"
   xmlns:rdf="http://www.w3.org/1999/02/22-rdf-syntax-ns#"
   xmlns:svg="http://www.w3.org/2000/svg"
   xmlns="http://www.w3.org/2000/svg"
   xmlns:sodipodi="http://sodipodi.sourceforge.net/DTD/sodipodi-0.dtd"
   xmlns:inkscape="http://www.inkscape.org/namespaces/inkscape"
   version="1.1"
   width="45"
   height="380"
   viewBox="0 0 45 380"
   id="svg95"
   sodipodi:docname="svg_render_tmp.svg"
   inkscape:version="0.92.2 5c3e80d, 2017-08-06">
  <metadata
     id="metadata99">
    <rdf:RDF>
      <cc:Work
         rdf:about="">
        <dc:format>image/svg+xml</dc:format>
        <dc:type
           rdf:resource="http://purl.org/dc/dcmitype/StillImage" />
      </cc:Work>
    </rdf:RDF>
  </metadata>
  <sodipodi:namedview
     pagecolor="#ffffff"
     bordercolor="#666666"
     borderopacity="1"
     objecttolerance="10"
     gridtolerance="10"
     guidetolerance="10"
     inkscape:pageopacity="0"
     inkscape:pageshadow="2"
     inkscape:window-width="468"
     inkscape:window-height="449"
     id="namedview97"
     showgrid="false"
     inkscape:zoom="0.62105263"
     inkscape:cx="22.5"
     inkscape:cy="190"
     inkscape:window-x="0"
     inkscape:window-y="0"
     inkscape:window-maximized="0"
     inkscape:current-layer="svg95" />
  <style
     id="style2">
    text {
      fill: #333;
      font-family: 'Roboto', sans-serif;
      font-weight: bold;
    }
    text.title {
      font-family: 'Comfortaa', sans-serif;
      font-weight: normal;
    }
    text.brand {
      font-family: 'Audiowide', sans-serif;
      font-weight: bold;
    }
  </style>
  <defs
     id="defs47">
    <symbol
       id="knob-small"
       viewBox="0 0 45px 45px">
      <g
         transform="translate(22.5 22.5)"
         id="g10">
        <polyline
           points="-3,0 3,0"
           stroke-width="1"
           stroke="#00f"
           id="polyline4" />
        <polyline
           points="0,-3 0,3"
           stroke-width="1"
           stroke="#00f"
           id="polyline6" />
        <circle
           cx="0"
           cy="0"
           r="7.5"
           stroke-width="1"
           stroke="#00f"
           fill="none"
           id="circle8" />
      </g>
    </symbol>
    <symbol
       id="knobguide-maxtick"
       viewBox="0 0 40px 40px">
      <g
         transform="translate(20 20)"
         id="g25">
        <g
           transform="rotate(60) translate(10 0)"
           id="g15">
          <polyline
             points="0,0 4,0"
             stroke-width="1"
             stroke="#333"
             id="polyline13" />
        </g>
        <path
           d="M 0 -12.5 A 12.5 12.5 0 0 1 12.5 0"
           stroke="#333"
           stroke-width="0.5"
           stroke-linecap="round"
           fill="none"
           transform="rotate(0)"
           id="path17" />
        <path
           d="M 0 -12.5 A 12.5 12.5 0 0 1 12.5 0"
           stroke="#333"
           stroke-width="0.5"
           stroke-linecap="round"
           fill="none"
           transform="rotate(43)"
           id="path19" />
        <path
           d="M 0 -12.5 A 12.5 12.5 0 0 0 -12.5 0"
           stroke="#333"
           stroke-width="0.5"
           stroke-linecap="round"
           fill="none"
           transform="rotate(0)"
           id="path21" />
        <path
           d="M 0 -12.5 A 12.5 12.5 0 0 0 -12.5 0"
           stroke="#333"
           stroke-width="0.5"
           stroke-linecap="round"
           fill="none"
           transform="rotate(-43)"
           id="path23" />
      </g>
    </symbol>
    <symbol
       id="switch"
       viewBox="0 0 14px 24px">
      <rect
         width="14px"
         height="24px"
         stroke-width="1"
         stroke="#000"
         fill="#ddd"
         id="rect28" />
      <rect
         width="14px"
         height="12px"
         stroke-width="0"
         fill="#000"
         id="rect30" />
    </symbol>
    <symbol
       id="input"
       viewBox="0 0 24px 24px">
      <g
         transform="translate(12 12)"
         id="g37">
        <circle
           cx="0"
           cy="0"
           r="5"
           stroke-width="1"
           stroke="#0f0"
           fill="#0f0"
           id="circle33" />
        <circle
           cx="0"
           cy="0"
           r="10.5"
           stroke-width="3"
           stroke="#0f0"
           fill="none"
           id="circle35" />
      </g>
    </symbol>
    <symbol
       id="output"
       viewBox="0 0 24px 24px">
      <g
         transform="translate(12 12)"
         id="g44">
        <circle
           cx="0"
           cy="0"
           r="5"
           stroke-width="1"
           stroke="#f00"
           fill="#f00"
           id="circle40" />
        <circle
           cx="0"
           cy="0"
           r="10.5"
           stroke-width="3"
           stroke="#f00"
           fill="none"
           id="circle42" />
      </g>
    </symbol>
  </defs>
  <path
     style="fill:#dddddd"
     d="M 0,0 H 45 V 380 H 0 Z"
     id="rect49" />
  <path
     style="fill:none;stroke:#e4e4e4;stroke-width:0.5"
     d="M 1,1 H 44 V 379 H 1 V 1"
     id="polyline51" />
  <path
     style="fill:none;stroke:#ebebeb;stroke-width:0.80000001"
     d="m 0.5,0.5 h 44 v 379 H 0.5 V 0.5"
     id="polyline53" />
  <path
     style="fill:none;stroke:#f2f2f2;stroke-width:1"
     d="M 0,0 H 45 V 380 H 0 V 0"
     id="polyline55" />
  <g
     aria-label="UMIX"
     transform="rotate(-90)"
     style="font-weight:normal;font-size:9.33333302px;font-family:Comfortaa, sans-serif;letter-spacing:2.5px;fill:#333333"
     id="text57">
    <path
       d="m -372.164,13.149333 q -0.84,0 -1.50267,-0.326666 -0.66266,-0.326667 -1.036,-0.905334 -0.364,-0.588 -0.364,-1.325333 V 6.0746669 q 0,-0.1586667 0.10267,-0.2613333 0.10267,-0.1026667 0.26133,-0.1026667 0.15867,0 0.26134,0.1026667 0.10266,0.1026666 0.10266,0.2613333 V 10.592 q 0,0.541333 0.27067,0.970667 0.28,0.42 0.77467,0.662666 0.49466,0.233334 1.12933,0.233334 0.62533,0 1.11067,-0.233334 0.48533,-0.242666 0.756,-0.662666 0.28,-0.429334 0.28,-0.970667 V 6.0746669 q 0,-0.1586667 0.10266,-0.2613333 0.10267,-0.1026667 0.26134,-0.1026667 0.15866,0 0.26133,0.1026667 0.10267,0.1026666 0.10267,0.2613333 V 10.592 q 0,0.737333 -0.37334,1.325333 -0.364,0.578667 -1.01733,0.905334 -0.65333,0.326666 -1.484,0.326666 z"
       style="font-weight:normal;font-size:9.33333302px;font-family:Comfortaa, sans-serif;letter-spacing:2.5px;fill:#333333"
       id="path173" />
    <path
       d="m -357.99398,5.7106669 q 0.14933,0 0.252,0.1026667 0.10267,0.1026666 0.10267,0.2613333 V 12.636 q 0,0.149333 -0.10267,0.261333 Q -357.84465,13 -357.99398,13 q -0.15867,0 -0.27067,-0.102667 -0.10266,-0.112 -0.10266,-0.261333 V 7.3533335 l -2.59467,5.3013335 q -0.112,0.177333 -0.31733,0.177333 -0.23334,0 -0.336,-0.224 l -2.58534,-5.1706665 V 12.636 q 0,0.149333 -0.10266,0.261333 Q -364.40598,13 -364.56465,13 q -0.14933,0 -0.26133,-0.102667 -0.10267,-0.112 -0.10267,-0.261333 V 6.0746669 q 0,-0.1586667 0.10267,-0.2613333 0.112,-0.1026667 0.26133,-0.1026667 0.21467,0 0.32667,0.1866667 l 2.98667,5.9359994 2.93066,-5.9359994 q 0.112,-0.1866667 0.32667,-0.1866667 z"
       style="font-weight:normal;font-size:9.33333302px;font-family:Comfortaa, sans-serif;letter-spacing:2.5px;fill:#333333"
       id="path175" />
    <path
       d="m -352.9136,13 q -0.14934,0 -0.26134,-0.102667 -0.10266,-0.112 -0.10266,-0.261333 V 6.0746669 q 0,-0.1586667 0.10266,-0.2613333 0.112,-0.1026667 0.26134,-0.1026667 0.15866,0 0.26133,0.1026667 0.10267,0.1026666 0.10267,0.2613333 V 12.636 q 0,0.149333 -0.10267,0.261333 Q -352.75494,13 -352.9136,13 Z"
       style="font-weight:normal;font-size:9.33333302px;font-family:Comfortaa, sans-serif;letter-spacing:2.5px;fill:#333333"
       id="path177" />
    <path
       d="m -343.02773,12.412 q 0.084,0.112 0.084,0.233333 0,0.149334 -0.0933,0.252 Q -343.1304,13 -343.28906,13 q -0.18667,0 -0.28,-0.130667 L -345.79973,9.7800001 -348.07706,12.888 Q -348.1704,13 -348.3384,13 q -0.15866,0 -0.252,-0.09333 -0.0933,-0.102667 -0.0933,-0.242667 0,-0.14 0.084,-0.252 l 2.30533,-3.1359999 -2.156,-2.9959999 q -0.0747,-0.1213333 -0.0747,-0.224 0,-0.14 0.0933,-0.2426666 0.0933,-0.1026667 0.24267,-0.1026667 0.18666,0 0.28,0.1306667 l 2.11866,2.9306665 2.14667,-2.9306665 q 0.10267,-0.1306667 0.28,-0.1306667 0.14933,0 0.24267,0.112 0.0933,0.1026667 0.0933,0.2426667 0,0.1213333 -0.0653,0.2146666 l -2.20267,2.9866666 z"
       style="font-weight:normal;font-size:9.33333302px;font-family:Comfortaa, sans-serif;letter-spacing:2.5px;fill:#333333"
       id="path179" />
  </g>
  <g
     id="g63"
     transform="rotate(-90,200.5,175.5)">
    <g
       aria-label="BGA"
       style="font-weight:bold;font-size:9.33333302px;font-family:Audiowide, sans-serif;letter-spacing:2px;fill:#333333"
       id="text59">
      <path
         d="m 7.2096352,-1.4355468 q 0,0.21875 -0.077474,0.469401 -0.072917,0.25065103 -0.2460937,0.46484373 -0.1686198,0.2141927 -0.4420573,0.36002603 Q 6.1705727,0 5.7740883,0 H 1.2760416 Q 1.1484375,0 1.0390625,-0.04557292 0.92968747,-0.09114583 0.84765622,-0.16861979 q -0.077474,-0.0820312 -0.12304687,-0.19140624 -0.0455729,-0.109375 -0.0455729,-0.23697916 V -5.9381508 q 0,-0.1230469 0.0455729,-0.2324219 0.0455729,-0.109375 0.12304687,-0.1914062 0.0820313,-0.082031 0.19140628,-0.1276042 0.109375,-0.045573 0.2369791,-0.045573 h 3.9648436 q 0.21875,0 0.4694011,0.077474 0.250651,0.077474 0.4648437,0.2506511 0.21875,0.1686197 0.360026,0.4420572 0.1458334,0.2734375 0.1458334,0.6699219 v 0.2233073 q 0,0.3144531 -0.1048177,0.6790364 -0.1048178,0.360026 -0.3372396,0.6835937 0.2005208,0.1230469 0.3736979,0.296224 0.1777344,0.1731771 0.3098958,0.4010416 0.1321615,0.2278646 0.2096354,0.514974 0.077474,0.2871093 0.077474,0.6334635 z M 6.0247394,-1.6634114 q 0,-0.2324219 -0.072917,-0.4147135 Q 5.878906,-2.2649739 5.7467446,-2.3971353 5.6145831,-2.5292968 5.4277342,-2.5976562 5.2408852,-2.6705728 5.0084634,-2.6705728 H 2.3378905 v -1.1940104 h 2.1373698 q 0.2324218,0 0.4192708,-0.068359 0.1868489,-0.072917 0.3190104,-0.2050781 0.1321614,-0.1321614 0.2005208,-0.3144531 0.072917,-0.186849 0.072917,-0.4192708 v -0.2233073 q 0,-0.2552083 -0.2460938,-0.2552083 h -3.376953 v 4.1653644 h 3.9101561 q 0.031901,0 0.077474,-0.00456 0.045573,-0.00456 0.082031,-0.027344 0.036458,-0.022787 0.063802,-0.077474 0.027344,-0.054687 0.027344,-0.1503906 z"
         style="font-weight:bold;font-size:9.33333302px;font-family:Audiowide, sans-serif;letter-spacing:2px;fill:#333333"
         id="path182" />
      <path
         d="m 16.683594,-0.59700519 q 0,0.12760416 -0.04557,0.23697916 -0.04557,0.109375 -0.127605,0.19140624 -0.07747,0.07747396 -0.186849,0.12304687 Q 16.214192,0 16.086588,0 h -4.274739 q -0.164063,0 -0.355469,-0.03645833 -0.186849,-0.04101563 -0.373698,-0.12304687 -0.182291,-0.0820313 -0.350911,-0.20963541 -0.16862,-0.13216146 -0.300781,-0.31445312 -0.127605,-0.18684895 -0.205079,-0.42838537 -0.07747,-0.2460938 -0.07747,-0.5514323 v -3.2083332 q 0,-0.1640625 0.03646,-0.3509115 0.04101,-0.1914062 0.123047,-0.3736979 0.08203,-0.1868489 0.214192,-0.3554687 0.132162,-0.1686198 0.314453,-0.296224 0.186849,-0.1321614 0.428386,-0.2096354 0.241536,-0.077474 0.546875,-0.077474 h 4.817057 v 1.1848958 h -4.817057 q -0.232422,0 -0.355469,0.1230468 -0.123047,0.1230469 -0.123047,0.3645834 v 3.1992186 q 0,0.2278646 0.123047,0.3554687 0.127604,0.1230469 0.355469,0.1230469 h 3.686849 v -1.485677 h -3.153646 v -1.1940104 h 3.741536 q 0.127604,0 0.236979,0.05013 0.109375,0.045573 0.186849,0.1276042 0.08203,0.082031 0.127605,0.1914062 0.04557,0.1048177 0.04557,0.2278646 z"
         style="font-weight:bold;font-size:9.33333302px;font-family:Audiowide, sans-serif;letter-spacing:2px;fill:#333333"
         id="path184" />
      <path
         d="M 26.339842,0 H 25.154946 V -1.6041666 H 20.989582 V 0 h -1.184896 v -3.267578 q 0,-0.7154948 0.246094,-1.3170573 0.246094,-0.6015624 0.683594,-1.0345051 0.4375,-0.4329427 1.034505,-0.6744792 0.597005,-0.2415364 1.303385,-0.2415364 h 2.670573 q 0.123047,0 0.232422,0.045573 0.109375,0.045573 0.191406,0.1276042 0.08203,0.082031 0.127604,0.1914062 0.04557,0.109375 0.04557,0.2324219 z m -5.35026,-2.7890624 h 4.165364 v -2.5611978 h -2.082682 q -0.05469,0 -0.232422,0.018229 -0.173177,0.013672 -0.405599,0.077474 -0.227864,0.063802 -0.483072,0.1959635 -0.255209,0.1321615 -0.469402,0.3645833 -0.214192,0.2324219 -0.355468,0.5833334 -0.136719,0.3463541 -0.136719,0.8430989 z"
         style="font-weight:bold;font-size:9.33333302px;font-family:Audiowide, sans-serif;letter-spacing:2px;fill:#333333"
         id="path186" />
    </g>
    <path
       transform="translate(11.5,-5)"
       style="fill:#dddddd"
       d="M 0,0 H 3 V 3 H 0 Z"
       id="rect61" />
  </g>
  <!-- <polyline points="22.5,0 22.5,380" stroke-width="0.5" stroke="#0f0" /> -->
  <g
     id="g71"
     transform="translate(5.5,18)">
    <path
       transform="translate(0,172)"
       style="fill:#fafafa"
       d="M 0,0 H 34 V 10 H 0 Z"
       id="rect67" />
    <path
       style="fill:#fafafa"
       d="m 5,0 h 24 c 2.77,0 5,2.23 5,5 v 172 c 0,2.77 -2.23,5 -5,5 H 5 c -2.77,0 -5,-2.23 -5,-5 V 5 C 0,2.23 2.23,0 5,0 Z"
       id="rect69" />
  </g>
  <g
     id="g79"
     transform="translate(5.5,203)">
    <path
       transform="translate(0,-3)"
       style="fill:#bbbbbb"
       d="M 0,0 H 34 V 10 H 0 Z"
       id="rect73" />
    <path
       style="fill:#bbbbbb"
       d="m 5,0 h 24 c 2.77,0 5,2.23 5,5 v 26 c 0,2.77 -2.23,5 -5,5 H 5 C 2.23,36 0,33.77 0,31 V 5 C 0,2.23 2.23,0 5,0 Z"
       id="rect75" />
    <g
       aria-label="OUT"
       transform="translate(8.5,32)"
       style="font-weight:bold;font-size:6.66666651px;font-family:Roboto, sans-serif;letter-spacing:2px;fill:#333333"
       id="text77">
      <path
         d="m 4.3164061,-2.2623697 q 0,0.6998697 -0.2473958,1.2272135 -0.2473958,0.52734371 -0.7096354,0.81380204 -0.4589843,0.28645833 -1.0546875,0.28645833 -0.5891926,0 -1.0514322,-0.28320312 Q 0.79101561,-0.50130207 0.53710936,-1.0253906 0.28320312,-1.5527343 0.27994791,-2.2363281 v -0.234375 q 0,-0.6998697 0.25065104,-1.2304687 0.25390624,-0.5338541 0.71289065,-0.8170573 0.4622395,-0.2864583 1.0546874,-0.2864583 0.5924479,0 1.0514323,0.2864583 0.4622396,0.2832032 0.7128906,0.8170573 0.2539062,0.530599 0.2539062,1.2272135 z M 3.3268228,-2.4772135 q 0,-0.7454427 -0.266927,-1.1328125 -0.2669271,-0.3873697 -0.7617188,-0.3873697 -0.4915364,0 -0.7584635,0.3841145 -0.2669271,0.3808594 -0.2701823,1.1197917 v 0.2311198 q 0,0.7259114 0.2669271,1.126302 0.2669271,0.40039063 0.7682291,0.40039063 0.4915365,0 0.7552084,-0.38411453 0.2636718,-0.3873698 0.266927,-1.1263021 z"
         style="font-weight:bold;font-size:6.66666651px;font-family:Roboto, sans-serif;letter-spacing:2px;fill:#333333"
         id="path136" />
      <path
         d="m 10.619792,-4.7395832 v 3.1217447 q 0,0.77799477 -0.488282,1.23046872 -0.4850257,0.45247395 -1.3281246,0.45247395 -0.8300781,0 -1.3183594,-0.43945312 Q 6.9967448,-0.81380206 6.9869792,-1.5820312 v -3.157552 h 0.9765624 v 3.1282551 q 0,0.4654948 0.2213542,0.68033854 0.2246094,0.21158854 0.6184896,0.21158854 0.8235677,0 0.8365885,-0.86588538 v -3.1542968 z"
         style="font-weight:bold;font-size:6.66666651px;font-family:Roboto, sans-serif;letter-spacing:2px;fill:#333333"
         id="path138" />
      <path
         d="M 16.988281,-3.9485676 H 15.536458 V 0 h -0.976563 v -3.9485676 h -1.432291 v -0.7910156 h 3.860677 z"
         style="font-weight:bold;font-size:6.66666651px;font-family:Roboto, sans-serif;letter-spacing:2px;fill:#333333"
         id="path140" />
    </g>
  </g>
  <g
     aria-label="SUM"
     style="font-weight:bold;font-size:6.66666651px;font-family:Roboto, sans-serif;letter-spacing:2px;fill:#333333"
     id="text83">
    <path
       d="m 16.380859,251.75651 q 0,-0.27669 -0.195312,-0.42318 -0.195313,-0.14974 -0.703125,-0.3125 -0.507813,-0.16601 -0.804037,-0.32552 -0.807291,-0.4362 -0.807291,-1.17513 0,-0.38411 0.214843,-0.68359 0.218099,-0.30274 0.621745,-0.47201 0.406901,-0.16927 0.911459,-0.16927 0.507812,0 0.904947,0.18555 0.397136,0.18229 0.615235,0.51758 0.221354,0.33528 0.221354,0.76172 h -0.976562 q 0,-0.32552 -0.205079,-0.50456 -0.205078,-0.18229 -0.576171,-0.18229 -0.358073,0 -0.556641,0.15299 -0.198568,0.14974 -0.198568,0.39714 0,0.23112 0.23112,0.38737 0.234375,0.15625 0.686849,0.29297 0.833333,0.25065 1.214193,0.62174 0.380859,0.37109 0.380859,0.92448 0,0.61523 -0.465495,0.9668 -0.465495,0.3483 -1.253255,0.3483 -0.546875,0 -0.996094,-0.19856 -0.449218,-0.20183 -0.686849,-0.55013 -0.234375,-0.34831 -0.234375,-0.8073 h 0.979818 q 0,0.78451 0.9375,0.78451 0.348307,0 0.54362,-0.13997 0.195312,-0.14323 0.195312,-0.39714 z"
       style="font-weight:bold;font-size:6.66666651px;font-family:Roboto, sans-serif;letter-spacing:2px;fill:#333333"
       id="path143" />
    <path
       d="m 23.611979,248.26042 v 3.12174 q 0,0.778 -0.488281,1.23047 -0.485026,0.45247 -1.328125,0.45247 -0.830078,0 -1.318359,-0.43945 -0.488282,-0.43945 -0.498047,-1.20768 v -3.15755 h 0.976562 v 3.12825 q 0,0.4655 0.221354,0.68034 0.22461,0.21159 0.61849,0.21159 0.823568,0 0.836588,-0.86589 v -3.15429 z"
       style="font-weight:bold;font-size:6.66666651px;font-family:Roboto, sans-serif;letter-spacing:2px;fill:#333333"
       id="path145" />
    <path
       d="m 27.688802,248.26042 1.217448,3.4375 1.210937,-3.4375 h 1.282552 V 253 h -0.979818 v -1.29557 L 30.517578,249.4681 29.238281,253 h -0.670573 l -1.276042,-3.52865 0.09766,2.23308 V 253 H 26.41276 v -4.73958 z"
       style="font-weight:bold;font-size:6.66666651px;font-family:Roboto, sans-serif;letter-spacing:2px;fill:#333333"
       id="path147" />
  </g>
  <g
     aria-label="AVG"
     style="font-weight:bold;font-size:6.66666651px;font-family:Roboto, sans-serif;letter-spacing:2px;fill:#333333"
     id="text85">
    <path
       d="M 17.598958,287.02344 H 15.886719 L 15.561198,288 h -1.038412 l 1.764323,-4.73958 h 0.904948 L 18.966146,288 h -1.038412 z m -1.448567,-0.79102 h 1.184895 l -0.595703,-1.77409 z"
       style="font-weight:bold;font-size:6.66666651px;font-family:Roboto, sans-serif;letter-spacing:2px;fill:#333333"
       id="path150" />
    <path
       d="m 22.919271,286.82487 1.074218,-3.56445 h 1.08724 L 23.430338,288 h -1.01888 l -1.64388,-4.73958 h 1.083984 z"
       style="font-weight:bold;font-size:6.66666651px;font-family:Roboto, sans-serif;letter-spacing:2px;fill:#333333"
       id="path152" />
    <path
       d="m 31.240885,287.40104 q -0.263672,0.31576 -0.745443,0.49154 -0.481771,0.17252 -1.067708,0.17252 -0.615234,0 -1.080729,-0.26692 -0.46224,-0.27019 -0.716146,-0.78125 -0.250651,-0.51107 -0.257161,-1.20117 v -0.32227 q 0,-0.70964 0.23763,-1.22721 0.240885,-0.52084 0.690104,-0.79427 0.452474,-0.2767 1.057943,-0.2767 0.843099,0 1.318359,0.40365 0.47526,0.40039 0.563151,1.16862 h -0.950521 q -0.0651,-0.4069 -0.289713,-0.5957 -0.221355,-0.18881 -0.611979,-0.18881 -0.498047,0 -0.758464,0.37435 -0.260417,0.37435 -0.263672,1.11328 v 0.30274 q 0,0.74544 0.283203,1.1263 0.283203,0.38086 0.830078,0.38086 0.550131,0 0.784506,-0.23438 v -0.81705 h -0.888672 v -0.7194 h 1.865234 z"
       style="font-weight:bold;font-size:6.66666651px;font-family:Roboto, sans-serif;letter-spacing:2px;fill:#333333"
       id="path154" />
  </g>
  <g
     aria-label="LEVEL"
     style="font-weight:bold;font-size:8px;font-family:Roboto, sans-serif;letter-spacing:2px;fill:#333333"
     id="text89">
    <path
       d="M 8.6796875,304.05859 H 11.167969 V 305 H 7.5078125 v -5.6875 h 1.171875 z"
       style="font-weight:bold;font-size:8px;font-family:Roboto, sans-serif;letter-spacing:2px;fill:#333333"
       id="path157" />
    <path
       d="m 17.257812,302.53516 h -2.249999 v 1.52343 h 2.640624 V 305 h -3.812499 v -5.6875 h 3.804687 v 0.94922 h -2.632812 v 1.35547 h 2.249999 z"
       style="font-weight:bold;font-size:8px;font-family:Roboto, sans-serif;letter-spacing:2px;fill:#333333"
       id="path159" />
    <path
       d="m 22.4375,303.58984 1.289062,-4.27734 H 25.03125 L 23.050781,305 h -1.222656 l -1.972656,-5.6875 h 1.300781 z"
       style="font-weight:bold;font-size:8px;font-family:Roboto, sans-serif;letter-spacing:2px;fill:#333333"
       id="path161" />
    <path
       d="m 30.992187,302.53516 h -2.25 v 1.52343 h 2.640625 V 305 h -3.8125 v -5.6875 H 31.375 v 0.94922 h -2.632813 v 1.35547 h 2.25 z"
       style="font-weight:bold;font-size:8px;font-family:Roboto, sans-serif;letter-spacing:2px;fill:#333333"
       id="path163" />
    <path
       d="m 35.242187,304.05859 h 2.488282 V 305 h -3.660157 v -5.6875 h 1.171875 z"
       style="font-weight:bold;font-size:8px;font-family:Roboto, sans-serif;letter-spacing:2px;fill:#333333"
       id="path165" />
  </g>
  <g
     id="use91"
     transform="translate(2.2,302.5)">
    <g
       id="g128"
       transform="translate(20,20)">
      <g
         id="g118"
         transform="rotate(60,-5,8.660254)">
        <path
           style="stroke:#333333;stroke-width:1"
           d="M 0,0 H 4"
           id="polyline116" />
      </g>
      <path
         id="path120"
         d="M 0,-12.5 A 12.5,12.5 0 0 1 12.5,0"
         inkscape:connector-curvature="0"
         style="fill:none;stroke:#333333;stroke-width:0.5;stroke-linecap:round" />
      <path
         id="path122"
         transform="rotate(43)"
         d="M 0,-12.5 A 12.5,12.5 0 0 1 12.5,0"
         inkscape:connector-curvature="0"
         style="fill:none;stroke:#333333;stroke-width:0.5;stroke-linecap:round" />
      <path
         id="path124"
         d="M 0,-12.5 A 12.5,12.5 0 0 0 -12.5,0"
         inkscape:connector-curvature="0"
         style="fill:none;stroke:#333333;stroke-width:0.5;stroke-linecap:round" />
      <path
         id="path126"
         transform="rotate(-43)"
         d="M 0,-12.5 A 12.5,12.5 0 0 0 -12.5,0"
         inkscape:connector-curvature="0"
         style="fill:none;stroke:#333333;stroke-width:0.5;stroke-linecap:round" />
    </g>
  </g>
</svg>
