<?xml version="1.0" encoding="UTF-8" standalone="no"?>
<svg
   xmlns:dc="http://purl.org/dc/elements/1.1/"
   xmlns:cc="http://creativecommons.org/ns#"
   xmlns:rdf="http://www.w3.org/1999/02/22-rdf-syntax-ns#"
   xmlns:svg="http://www.w3.org/2000/svg"
   xmlns="http://www.w3.org/2000/svg"
   id="svg2"
   version="1.1"
   height="380px"
   width="300px">
  <metadata
     id="metadata96">
    <rdf:RDF>
      <cc:Work
         rdf:about="">
        <dc:format>image/svg+xml</dc:format>
        <dc:type
           rdf:resource="http://purl.org/dc/dcmitype/StillImage" />
      </cc:Work>
    </rdf:RDF>
  </metadata>
  <defs
     id="defs94" />
  <g
     id="background">
    <path
       id="rect4255"
       d="m 0,0 300,0 0,380 -300,0 z"
       style="fill:#294f77;stroke:none" />
    <path
       id="path4230"
       d="M 0,380 0,0 300,0 299,1 1,1 1,379 Z"
       style="fill:#3a6ea5;fill-rule:nonzero;stroke:none" />
    <path
       id="path4232"
       d="m 0,380 300,0 0,-380 -1,1 0,378 -298,0 z"
       style="fill:#182d44;fill-rule:nonzero;stroke:none" />
  </g>
  <g
     style="font-size:12px;font-family:'DejaVu Sans';fill:#719fcf"
     font-size="12"
     id="logo">
    <path
       id="path4136"
       d="m 289.35391,366 a 1.9846094,2.2519786 0 0 0 -1.98465,2.25192 1.9846094,2.2519786 0 0 0 0.0588,0.53167 A 8.1692063,5.1693144 0 0 0 281,373.83071 8.1692063,5.1693144 0 0 0 289.16915,379 8.1692063,5.1693144 0 0 0 296.48278,376.11985 3.0461447,4.2480502 0 0 0 299,377.97641 l 0,-2.35772 a 1.3384576,1.9448905 0 0 1 -1.2923,-1.94151 1.3384576,1.9448905 0 0 1 1.2923,-1.94263 l 0,-2.25416 a 3.0461447,4.2480502 0 0 0 -2.57413,1.97944 8.1692063,5.1693144 0 0 0 -7.25672,-2.79842 8.1692063,5.1693144 0 0 0 -0.37318,0.0119 1.7538409,2.0472531 0 0 1 0.69638,-1.00162 l 0,-1.66609 A 1.9846094,2.2519786 0 0 0 289.35391,366 Z m -3.27707,5.83461 a 1.6615335,1.8425278 0 0 1 1.66156,1.84257 1.6615335,1.8425278 0 0 1 -1.66156,1.84257 1.6615335,1.8425278 0 0 1 -1.66145,-1.84257 1.6615335,1.8425278 0 0 1 1.66145,-1.84257 z m 3.78465,0.40949 a 1.2923038,1.4330772 0 0 1 1.29231,1.43308 1.2923038,1.4330772 0 0 1 -1.29231,1.43308 1.2923038,1.4330772 0 0 1 -1.2923,-1.43308 1.2923038,1.4330772 0 0 1 1.2923,-1.43308 z m 3.00928,0.38892 a 0.92307415,1.0236265 0 0 1 0.92304,1.02373 0.92307415,1.0236265 0 0 1 -0.92304,1.02359 0.92307415,1.0236265 0 0 1 -0.92317,-1.02359 0.92307415,1.0236265 0 0 1 0.92317,-1.02373 z" />
    <g
       id="text4236"
       style="">
      <path
         id="path100"
         style=""
         d="m 8.3144531,370.63086 0,1.01953 q -0.4570312,-0.23437 -0.9492187,-0.35156 -0.4921875,-0.11719 -1.0195313,-0.11719 -0.8027344,0 -1.2070312,0.24609 -0.3984375,0.2461 -0.3984375,0.73829 0,0.375 0.2871093,0.59179 0.2871094,0.21094 1.1542969,0.4043 l 0.3691406,0.082 q 1.1484375,0.24609 1.6289063,0.69727 0.4863281,0.44531 0.4863281,1.24804 0,0.91407 -0.7265625,1.44727 -0.7207031,0.5332 -1.9863281,0.5332 -0.5273438,0 -1.1015625,-0.10547 -0.5683594,-0.0996 -1.2011719,-0.30468 l 0,-1.11329 q 0.5976563,0.31055 1.1777344,0.46875 0.5800781,0.15235 1.1484375,0.15235 0.7617187,0 1.171875,-0.25781 0.4101562,-0.26368 0.4101562,-0.73829 0,-0.43945 -0.2988281,-0.67382 -0.2929687,-0.23438 -1.2949219,-0.45118 l -0.375,-0.0879 q -1.0019531,-0.21093 -1.4472656,-0.64453 -0.4453125,-0.43945 -0.4453125,-1.20117 0,-0.92578 0.65625,-1.42969 0.65625,-0.5039 1.8632813,-0.5039 0.5976562,0 1.125,0.0879 0.5273437,0.0879 0.9726562,0.26367 z" />
      <path
         id="path102"
         style=""
         d="m 10.277344,374.41016 0,-3.97266 1.078125,0 0,3.93164 q 0,0.93164 0.363281,1.40039 0.363281,0.46289 1.089844,0.46289 0.873047,0 1.376953,-0.55664 0.509766,-0.55664 0.509766,-1.51758 l 0,-3.7207 1.078125,0 0,6.5625 -1.078125,0 0,-1.00781 q -0.392579,0.59765 -0.914063,0.89062 -0.515625,0.28711 -1.201172,0.28711 -1.130859,0 -1.716797,-0.70312 -0.585937,-0.70313 -0.585937,-2.05664 z m 2.71289,-4.13086 0,0 z" />
      <path
         id="path104"
         style=""
         d="m 22.716797,373.72461 q 0,-1.18945 -0.492188,-1.86328 -0.486328,-0.67969 -1.341797,-0.67969 -0.855468,0 -1.347656,0.67969 -0.486328,0.67383 -0.486328,1.86328 0,1.18945 0.486328,1.86914 0.492188,0.67383 1.347656,0.67383 0.855469,0 1.341797,-0.67383 0.492188,-0.67969 0.492188,-1.86914 z m -3.667969,-2.29102 q 0.339844,-0.58593 0.855469,-0.86718 0.521484,-0.28711 1.242187,-0.28711 1.195313,0 1.939453,0.94922 0.75,0.94921 0.75,2.49609 0,1.54687 -0.75,2.49609 -0.74414,0.94922 -1.939453,0.94922 -0.720703,0 -1.242187,-0.28125 -0.515625,-0.28711 -0.855469,-0.87305 l 0,0.98438 -1.083984,0 0,-9.11719 1.083984,0 0,3.55078 z" />
      <path
         id="path106"
         style=""
         d="m 30.732422,371.69727 q 0.404297,-0.72657 0.966797,-1.07227 0.5625,-0.3457 1.324218,-0.3457 1.025391,0 1.582032,0.7207 0.55664,0.71484 0.55664,2.03906 l 0,3.96094 -1.083984,0 0,-3.92578 q 0,-0.94336 -0.333984,-1.40039 -0.333985,-0.45703 -1.019532,-0.45703 -0.83789,0 -1.324218,0.55664 -0.486329,0.55664 -0.486329,1.51758 l 0,3.70898 -1.083984,0 0,-3.92578 q 0,-0.94922 -0.333984,-1.40039 -0.333985,-0.45703 -1.03125,-0.45703 -0.826172,0 -1.3125,0.5625 -0.486328,0.55664 -0.486328,1.51172 l 0,3.70898 -1.083985,0 0,-6.5625 1.083985,0 0,1.01953 q 0.36914,-0.60351 0.884765,-0.89062 0.515625,-0.28711 1.22461,-0.28711 0.714843,0 1.21289,0.36328 0.503906,0.36328 0.744141,1.05469 z" />
      <path
         id="path108"
         style=""
         d="m 40.300781,373.70117 q -1.30664,0 -1.810547,0.29883 -0.503906,0.29883 -0.503906,1.01953 0,0.57422 0.375,0.91406 0.380859,0.33399 1.03125,0.33399 0.896484,0 1.435547,-0.63281 0.544922,-0.63868 0.544922,-1.69336 l 0,-0.24024 -1.072266,0 z m 2.150391,-0.44531 0,3.74414 -1.078125,0 0,-0.99609 q -0.369141,0.59765 -0.919922,0.88476 -0.550781,0.28125 -1.347656,0.28125 -1.007813,0 -1.605469,-0.5625 -0.591797,-0.56836 -0.591797,-1.51758 0,-1.10742 0.738281,-1.66992 0.744141,-0.5625 2.214844,-0.5625 l 1.511719,0 0,-0.10547 q 0,-0.74414 -0.492188,-1.14843 -0.486328,-0.41016 -1.371093,-0.41016 -0.5625,0 -1.095704,0.13476 -0.533203,0.13477 -1.02539,0.4043 l 0,-0.99609 q 0.591797,-0.22852 1.148437,-0.33985 0.556641,-0.11718 1.083985,-0.11718 1.423828,0 2.126953,0.73828 0.703125,0.73828 0.703125,2.23828 z" />
      <path
         id="path110"
         style=""
         d="m 48.480469,371.44531 q -0.181641,-0.10547 -0.398438,-0.15234 -0.210937,-0.0527 -0.46875,-0.0527 -0.914062,0 -1.40625,0.59766 -0.486328,0.5918 -0.486328,1.70508 l 0,3.45703 -1.083984,0 0,-6.5625 1.083984,0 0,1.01953 q 0.339844,-0.59766 0.884766,-0.88476 0.544922,-0.29297 1.324218,-0.29297 0.111329,0 0.246094,0.0176 0.134766,0.0117 0.298828,0.041 l 0.0059,1.10742 z" />
      <path
         id="path112"
         style=""
         d="m 49.623047,370.4375 1.078125,0 0,6.5625 -1.078125,0 0,-6.5625 z m 0,-2.55469 1.078125,0 0,1.36524 -1.078125,0 0,-1.36524 z" />
      <path
         id="path114"
         style=""
         d="m 58.40625,373.03906 0,3.96094 -1.078125,0 0,-3.92578 q 0,-0.93164 -0.363281,-1.39453 -0.363282,-0.46289 -1.089844,-0.46289 -0.873047,0 -1.376953,0.55664 -0.503906,0.55664 -0.503906,1.51758 l 0,3.70898 -1.083985,0 0,-6.5625 1.083985,0 0,1.01953 q 0.386718,-0.5918 0.908203,-0.88476 0.527343,-0.29297 1.21289,-0.29297 1.13086,0 1.710938,0.70312 0.580078,0.69727 0.580078,2.05664 z" />
      <path
         id="path116"
         style=""
         d="m 66.181641,373.44922 0,0.52734 -4.957032,0 q 0.07031,1.11328 0.667969,1.69922 0.603516,0.58008 1.675781,0.58008 0.621094,0 1.201172,-0.15234 0.585938,-0.15235 1.160156,-0.45704 l 0,1.01954 q -0.580078,0.24609 -1.189453,0.375 -0.609375,0.1289 -1.236328,0.1289 -1.570312,0 -2.490234,-0.91406 -0.914063,-0.91406 -0.914063,-2.47266 0,-1.61133 0.867188,-2.55468 0.873047,-0.94922 2.349609,-0.94922 1.324219,0 2.091797,0.85547 0.773438,0.8496 0.773438,2.31445 z m -1.078125,-0.31641 q -0.01172,-0.88476 -0.498047,-1.41211 -0.480469,-0.52734 -1.277344,-0.52734 -0.902344,0 -1.447266,0.50976 -0.539062,0.50977 -0.621093,1.43555 l 3.84375,-0.006 z" />
    </g>
    <g
       id="text4241"
       style="text-anchor:middle">
      <path
         id="path119"
         style="text-anchor:middle"
         d="m 130.0957,3.2519531 1.1836,0 0,7.7519529 4.25976,0 0,0.996094 -5.44336,0 0,-8.7480469 z" />
      <path
         id="path121"
         style="text-anchor:middle"
         d="m 139.98047,4.4179687 -1.60547,4.3535157 3.2168,0 -1.61133,-4.3535157 z m -0.66797,-1.1660156 1.3418,0 L 143.98828,12 l -1.23047,0 -0.79687,-2.2441406 -3.94336,0 L 137.2207,12 l -1.24804,0 3.33984,-8.7480469 z" />
      <path
         id="path123"
         style="text-anchor:middle"
         d="m 144.41016,8.2324219 3.1582,0 0,0.9609375 -3.1582,0 0,-0.9609375 z" />
      <path
         id="path125"
         style="text-anchor:middle"
         d="m 149.64844,11.003906 1.93359,0 0,-6.6738279 -2.10351,0.421875 0,-1.078125 2.09179,-0.421875 1.1836,0 0,7.7519529 1.93359,0 0,0.996094 -5.03906,0 0,-0.996094 z" />
      <path
         id="path127"
         style="text-anchor:middle"
         d="m 159.61523,4.03125 q -0.91406,0 -1.37695,0.9023437 -0.45703,0.8964844 -0.45703,2.7011719 0,1.7988282 0.45703,2.7011724 0.46289,0.896484 1.37695,0.896484 0.91993,0 1.37696,-0.896484 0.46289,-0.9023442 0.46289,-2.7011724 0,-1.8046875 -0.46289,-2.7011719 Q 160.53516,4.03125 159.61523,4.03125 Z m 0,-0.9375 q 1.47071,0 2.24414,1.1660156 0.7793,1.1601563 0.7793,3.375 0,2.2089844 -0.7793,3.3750004 -0.77343,1.160156 -2.24414,1.160156 -1.4707,0 -2.25,-1.160156 -0.77343,-1.166016 -0.77343,-3.3750004 0,-2.2148437 0.77343,-3.375 0.7793,-1.1660156 2.25,-1.1660156 z" />
      <path
         id="path129"
         style="text-anchor:middle"
         d="m 167.25586,7.8457031 q -0.84375,0 -1.33008,0.4511719 -0.48047,0.4511719 -0.48047,1.2421875 0,0.7910155 0.48047,1.2421875 0.48633,0.451172 1.33008,0.451172 0.84375,0 1.33008,-0.451172 0.48633,-0.457031 0.48633,-1.2421875 0,-0.7910156 -0.48633,-1.2421875 -0.48047,-0.4511719 -1.33008,-0.4511719 z m -1.18359,-0.5039062 q -0.76172,-0.1875 -1.18946,-0.7089844 -0.42187,-0.5214844 -0.42187,-1.2714844 0,-1.0488281 0.74414,-1.6582031 0.75,-0.609375 2.05078,-0.609375 1.30664,0 2.05078,0.609375 0.74414,0.609375 0.74414,1.6582031 0,0.75 -0.42773,1.2714844 -0.42188,0.5214844 -1.17774,0.7089844 0.85547,0.1992187 1.33008,0.7792969 0.48047,0.5800781 0.48047,1.4179687 0,1.2714845 -0.7793,1.9511715 -0.77344,0.679688 -2.2207,0.679688 -1.44727,0 -2.22656,-0.679688 -0.77344,-0.679687 -0.77344,-1.9511715 0,-0.8378906 0.48047,-1.4179687 0.48047,-0.5800782 1.33594,-0.7792969 z m -0.4336,-1.8691407 q 0,0.6796875 0.42188,1.0605469 0.42773,0.3808594 1.19531,0.3808594 0.76172,0 1.18945,-0.3808594 0.4336,-0.3808594 0.4336,-1.0605469 0,-0.6796875 -0.4336,-1.0605468 -0.42773,-0.3808594 -1.18945,-0.3808594 -0.76758,0 -1.19531,0.3808594 -0.42188,0.3808593 -0.42188,1.0605468 z" />
    </g>
  </g>
  <g
     style="fill:#000000;stroke:none"
     id="scope">
    <path
       id="rect4244"
       d="m 44,15 252,0 c 1.108,0 2,0.892 2,2 l 0,276 c 0,1.108 -0.892,2 -2,2 l -252,0 c -1.108,0 -2,-0.892 -2,-2 L 42,17 c 0,-1.108 0.892,-2 2,-2 z"
       style="" />
    <path
       id="rect14"
       d="m 215,297 50,0 c 1.108,0 2,0.892 2,2 l 0,12 c 0,1.108 -0.892,2 -2,2 l -50,0 c -1.108,0 -2,-0.892 -2,-2 l 0,-12 c 0,-1.108 0.892,-2 2,-2 z"
       style="" />
  </g>
  <g
     style="fill:none;stroke:#333333"
     id="grid">
    <path
       id="line17"
       d="m 42,18.5 256,0"
       style="" />
    <path
       id="line19"
       d="m 42,47.5 256,0"
       style="" />
    <path
       id="line21"
       d="m 42,53.5 256,0"
       style="" />
    <path
       id="line23"
       d="m 42,82.5 256,0"
       style="" />
    <path
       id="line25"
       d="m 42,88.5 256,0"
       style="" />
    <path
       id="line27"
       d="m 42,117.5 256,0"
       style="" />
    <path
       id="line29"
       d="m 42,123.5 256,0"
       style="" />
    <path
       id="line31"
       d="m 42,152.5 256,0"
       style="" />
    <path
       id="line33"
       d="m 42,158.5 256,0"
       style="" />
    <path
       id="line35"
       d="m 42,187.5 256,0"
       style="" />
    <path
       id="line37"
       d="m 42,193.5 256,0"
       style="" />
    <path
       id="line39"
       d="m 42,222.5 256,0"
       style="" />
    <path
       id="line41"
       d="m 42,228.5 256,0"
       style="" />
    <path
       id="line43"
       d="m 42,257.5 256,0"
       style="" />
    <path
       id="line45"
       d="m 42,263.5 256,0"
       style="" />
    <path
       id="line47"
       d="m 42,292.5 256,0"
       style="" />
  </g>
  <g
     style="font-size:8px;font-family:'DejaVu Sans';fill:none;stroke:#ffffff"
     font-size="8"
     id="screen">
    <path
       id="line50"
       d="m 16.5,32.5 25.5,0"
       style="" />
    <path
       id="line52"
       d="m 16.5,67.5 25.5,0"
       style="" />
    <path
       id="line54"
       d="m 16.5,102.5 25.5,0"
       style="" />
    <path
       id="line56"
       d="m 16.5,137.5 25.5,0"
       style="" />
    <path
       id="line58"
       d="m 16.5,172.5 25.5,0"
       style="" />
    <path
       id="line60"
       d="m 16.5,207.5 25.5,0"
       style="" />
    <path
       id="line62"
       d="m 16.5,242.5 25.5,0"
       style="" />
    <path
       id="line64"
       d="m 16.5,277.5 25.5,0"
       style="" />
    <path
       id="path66"
       d="m 98.5,316.5 3,0 0,-6 3,0" />
    <path
       id="path68"
       d="m 98.5,323.5 3,0 0,6 3,0" />
    <g
       style="fill:#ffffff;stroke:none"
       id="g70">
      <g
         id="text72"
         style="text-anchor:middle">
        <path
           id="path158"
           style="text-anchor:middle"
           d="m 3.6132813,344.16797 3.6874999,0 0,0.66406 -2.8984375,0 0,1.72656 2.7773438,0 0,0.66407 -2.7773438,0 0,2.11328 2.96875,0 0,0.66406 -3.7578124,0 0,-5.83203 z" />
        <path
           id="path160"
           style="text-anchor:middle"
           d="m 8.3945313,344.16797 0.8476562,0 1.4492185,2.16797 1.457032,-2.16797 0.847656,0 -1.875,2.80078 2,3.03125 -0.847656,0 -1.640625,-2.48047 L 8.9804688,350 l -0.8515625,0 2.0820317,-3.11328 -1.8164067,-2.71875 z" />
        <path
           id="path162"
           style="text-anchor:middle"
           d="m 13.210938,344.16797 4.933593,0 0,0.66406 -2.070312,0 0,5.16797 -0.792969,0 0,-5.16797 -2.070312,0 0,-0.66406 z" />
        <path
           id="path164"
           style="text-anchor:middle"
           d="m 18.027344,349.00781 0.824218,0 0,0.99219 -0.824218,0 0,-0.99219 z" />
        <path
           id="path166"
           style="text-anchor:middle"
           d="m 19.695312,344.16797 4.933594,0 0,0.66406 -2.070312,0 0,5.16797 -0.792969,0 0,-5.16797 -2.070313,0 0,-0.66406 z" />
        <path
           id="path168"
           style="text-anchor:middle"
           d="m 28.160156,347.26562 q 0.253906,0.0859 0.492188,0.36719 0.242187,0.28125 0.484375,0.77344 L 29.9375,350 l -0.847656,0 -0.746094,-1.49609 q -0.289063,-0.58594 -0.5625,-0.77735 -0.269531,-0.1914 -0.738281,-0.1914 l -0.859375,0 0,2.46484 -0.789063,0 0,-5.83203 1.78125,0 q 1,0 1.492188,0.41797 0.492187,0.41797 0.492187,1.26172 0,0.55078 -0.257812,0.91406 -0.253907,0.36328 -0.742188,0.5039 z m -1.976562,-2.44921 0,2.07031 0.992187,0 q 0.570313,0 0.859375,-0.26172 0.292969,-0.26563 0.292969,-0.77734 0,-0.51172 -0.292969,-0.76954 -0.289062,-0.26171 -0.859375,-0.26171 l -0.992187,0 z" />
      </g>
      <g
         id="text74"
         style="text-anchor:middle">
        <path
           id="path171"
           style="text-anchor:middle"
           d="m 40.054687,344.16797 4.933594,0 0,0.66406 -2.070312,0 0,5.16797 -0.792969,0 0,-5.16797 -2.070313,0 0,-0.66406 z" />
        <path
           id="path173"
           style="text-anchor:middle"
           d="m 48.519531,347.26562 q 0.253906,0.0859 0.492188,0.36719 0.242187,0.28125 0.484375,0.77344 L 50.296875,350 l -0.847656,0 -0.746094,-1.49609 q -0.289063,-0.58594 -0.5625,-0.77735 -0.269531,-0.1914 -0.738281,-0.1914 l -0.859375,0 0,2.46484 -0.789063,0 0,-5.83203 1.78125,0 q 1,0 1.492188,0.41797 0.492187,0.41797 0.492187,1.26172 0,0.55078 -0.257812,0.91406 -0.253907,0.36328 -0.742188,0.5039 z m -1.976562,-2.44921 0,2.07031 0.992187,0 q 0.570313,0 0.859375,-0.26172 0.292969,-0.26563 0.292969,-0.77734 0,-0.51172 -0.292969,-0.76954 -0.289062,-0.26171 -0.859375,-0.26171 l -0.992187,0 z" />
        <path
           id="path175"
           style="text-anchor:middle"
           d="m 51.316406,344.16797 0.789063,0 0,5.83203 -0.789063,0 0,-5.83203 z" />
        <path
           id="path177"
           style="text-anchor:middle"
           d="m 57.652344,349.16797 0,-1.56641 -1.289063,0 0,-0.64844 2.070313,0 0,2.50391 q -0.457032,0.32422 -1.007813,0.49219 -0.550781,0.16406 -1.175781,0.16406 -1.367188,0 -2.140625,-0.79687 -0.769531,-0.80079 -0.769531,-2.22657 0,-1.42968 0.769531,-2.22656 0.773437,-0.80078 2.140625,-0.80078 0.570312,0 1.082031,0.14062 0.515625,0.14063 0.949219,0.41407 l 0,0.83984 q -0.4375,-0.37109 -0.929688,-0.55859 -0.492187,-0.1875 -1.035156,-0.1875 -1.070312,0 -1.609375,0.59765 -0.535156,0.59766 -0.535156,1.78125 0,1.17969 0.535156,1.77735 0.539063,0.59765 1.609375,0.59765 0.417969,0 0.746094,-0.0703 0.328125,-0.0742 0.589844,-0.22656 z" />
        <path
           id="path179"
           style="text-anchor:middle"
           d="m 63.855469,349.16797 0,-1.56641 -1.289063,0 0,-0.64844 2.070313,0 0,2.50391 q -0.457032,0.32422 -1.007813,0.49219 -0.550781,0.16406 -1.175781,0.16406 -1.367188,0 -2.140625,-0.79687 -0.769531,-0.80079 -0.769531,-2.22657 0,-1.42968 0.769531,-2.22656 0.773437,-0.80078 2.140625,-0.80078 0.570312,0 1.082031,0.14062 0.515625,0.14063 0.949219,0.41407 l 0,0.83984 q -0.4375,-0.37109 -0.929688,-0.55859 -0.492187,-0.1875 -1.035156,-0.1875 -1.070312,0 -1.609375,0.59765 -0.535156,0.59766 -0.535156,1.78125 0,1.17969 0.535156,1.77735 0.539063,0.59765 1.609375,0.59765 0.417969,0 0.746094,-0.0703 0.328125,-0.0742 0.589844,-0.22656 z" />
        <path
           id="path181"
           style="text-anchor:middle"
           d="m 66.082031,344.16797 3.6875,0 0,0.66406 -2.898437,0 0,1.72656 2.777343,0 0,0.66407 -2.777343,0 0,2.11328 2.96875,0 0,0.66406 -3.757813,0 0,-5.83203 z" />
        <path
           id="path183"
           style="text-anchor:middle"
           d="m 73.910156,347.26562 q 0.253906,0.0859 0.492188,0.36719 0.242187,0.28125 0.484375,0.77344 L 75.6875,350 l -0.847656,0 -0.746094,-1.49609 q -0.289063,-0.58594 -0.5625,-0.77735 -0.269531,-0.1914 -0.738281,-0.1914 l -0.859375,0 0,2.46484 -0.789063,0 0,-5.83203 1.78125,0 q 1,0 1.492188,0.41797 0.492187,0.41797 0.492187,1.26172 0,0.55078 -0.257812,0.91406 -0.253907,0.36328 -0.742188,0.5039 z m -1.976562,-2.44921 0,2.07031 0.992187,0 q 0.570313,0 0.859375,-0.26172 0.292969,-0.26563 0.292969,-0.77734 0,-0.51172 -0.292969,-0.76954 -0.289062,-0.26171 -0.859375,-0.26171 l -0.992187,0 z" />
      </g>
      <g
         id="text76"
         style="text-anchor:middle">
        <path
           id="path186"
           style="text-anchor:middle"
           d="m 82.542969,344.16797 3.6875,0 0,0.66406 -2.898438,0 0,1.72656 2.777344,0 0,0.66407 -2.777344,0 0,2.11328 2.96875,0 0,0.66406 -3.757812,0 0,-5.83203 z" />
        <path
           id="path188"
           style="text-anchor:middle"
           d="m 88.394531,344.81641 0,4.53515 0.953125,0 q 1.207031,0 1.765625,-0.54687 0.5625,-0.54688 0.5625,-1.72657 0,-1.17187 -0.5625,-1.71484 -0.558594,-0.54687 -1.765625,-0.54687 l -0.953125,0 z m -0.789062,-0.64844 1.621093,0 q 1.695313,0 2.488282,0.70703 0.792968,0.70312 0.792968,2.20312 0,1.50782 -0.796875,2.21485 Q 90.914062,350 89.226562,350 l -1.621093,0 0,-5.83203 z" />
        <path
           id="path190"
           style="text-anchor:middle"
           d="m 97.738281,349.16797 0,-1.56641 -1.289062,0 0,-0.64844 2.070312,0 0,2.50391 q -0.457031,0.32422 -1.007812,0.49219 -0.550782,0.16406 -1.175782,0.16406 -1.367187,0 -2.140625,-0.79687 -0.769531,-0.80079 -0.769531,-2.22657 0,-1.42968 0.769531,-2.22656 0.773438,-0.80078 2.140625,-0.80078 0.570313,0 1.082032,0.14062 0.515625,0.14063 0.949218,0.41407 l 0,0.83984 q -0.4375,-0.37109 -0.929687,-0.55859 -0.492188,-0.1875 -1.035156,-0.1875 -1.070313,0 -1.609375,0.59765 -0.535157,0.59766 -0.535157,1.78125 0,1.17969 0.535157,1.77735 0.539062,0.59765 1.609375,0.59765 0.417968,0 0.746093,-0.0703 0.328125,-0.0742 0.589844,-0.22656 z" />
        <path
           id="path192"
           style="text-anchor:middle"
           d="m 99.964844,344.16797 3.687496,0 0,0.66406 -2.89843,0 0,1.72656 2.77734,0 0,0.66407 -2.77734,0 0,2.11328 2.96875,0 0,0.66406 -3.757816,0 0,-5.83203 z" />
      </g>
      <g
         id="text78"
         style="text-anchor:middle">
        <path
           id="path195"
           style="text-anchor:middle"
           d="m 116.57422,344.16797 1.17578,0 1.48828,3.96875 1.4961,-3.96875 1.17578,0 0,5.83203 -0.76953,0 0,-5.12109 -1.50391,4 -0.79297,0 -1.50391,-4 0,5.12109 -0.76562,0 0,-5.83203 z" />
        <path
           id="path197"
           style="text-anchor:middle"
           d="m 125.84766,344.70312 q -0.85938,0 -1.36719,0.64063 -0.50391,0.64062 -0.50391,1.74609 0,1.10157 0.50391,1.74219 0.50781,0.64063 1.36719,0.64063 0.85937,0 1.35937,-0.64063 0.50391,-0.64062 0.50391,-1.74219 0,-1.10547 -0.50391,-1.74609 -0.5,-0.64063 -1.35937,-0.64063 z m 0,-0.64062 q 1.22656,0 1.96093,0.82422 0.73438,0.82031 0.73438,2.20312 0,1.37891 -0.73438,2.20313 -0.73437,0.82031 -1.96093,0.82031 -1.23047,0 -1.96875,-0.82031 -0.73438,-0.82031 -0.73438,-2.20313 0,-1.38281 0.73438,-2.20312 0.73828,-0.82422 1.96875,-0.82422 z" />
        <path
           id="path199"
           style="text-anchor:middle"
           d="m 130.56641,344.81641 0,4.53515 0.95312,0 q 1.20703,0 1.76563,-0.54687 0.5625,-0.54688 0.5625,-1.72657 0,-1.17187 -0.5625,-1.71484 -0.5586,-0.54687 -1.76563,-0.54687 l -0.95312,0 z m -0.78907,-0.64844 1.6211,0 q 1.69531,0 2.48828,0.70703 0.79297,0.70312 0.79297,2.20312 0,1.50782 -0.79688,2.21485 Q 133.08594,350 131.39844,350 l -1.6211,0 0,-5.83203 z" />
        <path
           id="path201"
           style="text-anchor:middle"
           d="m 135.93359,344.16797 3.6875,0 0,0.66406 -2.89843,0 0,1.72656 2.77734,0 0,0.66407 -2.77734,0 0,2.11328 2.96875,0 0,0.66406 -3.75782,0 0,-5.83203 z" />
      </g>
      <g
         id="text80"
         style="">
        <path
           id="path204"
           style=""
           d="m 130.15234,312.61719 0,0.83203 q -0.39843,-0.3711 -0.85156,-0.55469 -0.44922,-0.18359 -0.95703,-0.18359 -1,0 -1.53125,0.61328 -0.53125,0.60937 -0.53125,1.76562 0,1.15235 0.53125,1.76563 0.53125,0.60937 1.53125,0.60937 0.50781,0 0.95703,-0.18359 0.45313,-0.18359 0.85156,-0.55469 l 0,0.82422 q -0.41406,0.28125 -0.8789,0.42188 -0.46094,0.14062 -0.97657,0.14062 -1.32421,0 -2.08593,-0.80859 -0.76172,-0.8125 -0.76172,-2.21485 0,-1.40625 0.76172,-2.21484 0.76172,-0.8125 2.08593,-0.8125 0.52344,0 0.98438,0.14062 0.46484,0.13672 0.87109,0.41407 z" />
        <path
           id="path206"
           style=""
           d="m 133.74609,312.70312 q -0.85937,0 -1.36718,0.64063 -0.50391,0.64062 -0.50391,1.74609 0,1.10157 0.50391,1.74219 0.50781,0.64063 1.36718,0.64063 0.85938,0 1.35938,-0.64063 0.5039,-0.64062 0.5039,-1.74219 0,-1.10547 -0.5039,-1.74609 -0.5,-0.64063 -1.35938,-0.64063 z m 0,-0.64062 q 1.22657,0 1.96094,0.82422 0.73438,0.82031 0.73438,2.20312 0,1.37891 -0.73438,2.20313 -0.73437,0.82031 -1.96094,0.82031 -1.23047,0 -1.96875,-0.82031 -0.73437,-0.82031 -0.73437,-2.20313 0,-1.38281 0.73437,-2.20312 0.73828,-0.82422 1.96875,-0.82422 z" />
        <path
           id="path208"
           style=""
           d="m 137.67578,312.16797 1.0625,0 2.58594,4.8789 0,-4.8789 0.76562,0 0,5.83203 -1.0625,0 -2.58593,-4.87891 0,4.87891 -0.76563,0 0,-5.83203 z" />
        <path
           id="path210"
           style=""
           d="m 142.85156,312.16797 4.9336,0 0,0.66406 -2.07032,0 0,5.16797 -0.79297,0 0,-5.16797 -2.07031,0 0,-0.66406 z" />
      </g>
      <g
         id="text82"
         style="">
        <path
           id="path213"
           style=""
           d="m 128.15234,324.70312 q -0.85937,0 -1.36718,0.64063 -0.50391,0.64062 -0.50391,1.74609 0,1.10157 0.50391,1.74219 0.50781,0.64063 1.36718,0.64063 0.85938,0 1.35938,-0.64063 0.5039,-0.64062 0.5039,-1.74219 0,-1.10547 -0.5039,-1.74609 -0.5,-0.64063 -1.35938,-0.64063 z m 0,-0.64062 q 1.22657,0 1.96094,0.82422 0.73438,0.82031 0.73438,2.20312 0,1.37891 -0.73438,2.20313 -0.73437,0.82031 -1.96094,0.82031 -1.23046,0 -1.96875,-0.82031 -0.73437,-0.82031 -0.73437,-2.20313 0,-1.38281 0.73437,-2.20312 0.73829,-0.82422 1.96875,-0.82422 z" />
        <path
           id="path215"
           style=""
           d="m 132.08203,324.16797 1.0625,0 2.58594,4.8789 0,-4.8789 0.76562,0 0,5.83203 -1.0625,0 -2.58593,-4.87891 0,4.87891 -0.76563,0 0,-5.83203 z" />
        <path
           id="path217"
           style=""
           d="m 142.43359,324.61719 0,0.83203 q -0.39843,-0.3711 -0.85156,-0.55469 -0.44922,-0.18359 -0.95703,-0.18359 -1,0 -1.53125,0.61328 -0.53125,0.60937 -0.53125,1.76562 0,1.15235 0.53125,1.76563 0.53125,0.60937 1.53125,0.60937 0.50781,0 0.95703,-0.18359 0.45313,-0.18359 0.85156,-0.55469 l 0,0.82422 q -0.41406,0.28125 -0.8789,0.42188 -0.46094,0.14062 -0.97657,0.14062 -1.32421,0 -2.08593,-0.80859 -0.76172,-0.8125 -0.76172,-2.21485 0,-1.40625 0.76172,-2.21484 0.76172,-0.8125 2.08593,-0.8125 0.52344,0 0.98438,0.14062 0.46484,0.13672 0.87109,0.41407 z" />
        <path
           id="path219"
           style=""
           d="m 143.66016,324.16797 3.6875,0 0,0.66406 -2.89844,0 0,1.72656 2.77734,0 0,0.66407 -2.77734,0 0,2.11328 2.96875,0 0,0.66406 -3.75781,0 0,-5.83203 z" />
      </g>
      <g
         id="text84"
         style="text-anchor:middle">
        <path
           id="path222"
           style="text-anchor:middle"
           d="m 148.72266,347.26562 q 0.2539,0.0859 0.49218,0.36719 0.24219,0.28125 0.48438,0.77344 L 150.5,350 l -0.84766,0 -0.74609,-1.49609 q -0.28906,-0.58594 -0.5625,-0.77735 -0.26953,-0.1914 -0.73828,-0.1914 l -0.85938,0 0,2.46484 -0.78906,0 0,-5.83203 1.78125,0 q 1,0 1.49219,0.41797 0.49219,0.41797 0.49219,1.26172 0,0.55078 -0.25782,0.91406 -0.2539,0.36328 -0.74218,0.5039 z m -1.97657,-2.44921 0,2.07031 0.99219,0 q 0.57031,0 0.85938,-0.26172 0.29296,-0.26563 0.29296,-0.77734 0,-0.51172 -0.29296,-0.76954 -0.28907,-0.26171 -0.85938,-0.26171 l -0.99219,0 z" />
        <path
           id="path224"
           style="text-anchor:middle"
           d="m 151.51953,344.16797 3.6875,0 0,0.66406 -2.89844,0 0,1.72656 2.77735,0 0,0.66407 -2.77735,0 0,2.11328 2.96875,0 0,0.66406 -3.75781,0 0,-5.83203 z" />
        <path
           id="path226"
           style="text-anchor:middle"
           d="m 160.07812,344.35937 0,0.76954 q -0.44921,-0.21485 -0.84765,-0.32032 -0.39844,-0.10547 -0.76953,-0.10547 -0.64453,0 -0.9961,0.25 -0.34765,0.25 -0.34765,0.71094 0,0.38672 0.23047,0.58594 0.23437,0.19531 0.88281,0.31641 l 0.47656,0.0976 q 0.88281,0.16797 1.30078,0.59375 0.42188,0.42188 0.42188,1.13281 0,0.84766 -0.57032,1.28516 -0.5664,0.4375 -1.66406,0.4375 -0.41406,0 -0.88281,-0.0937 -0.46484,-0.0937 -0.96484,-0.27734 l 0,-0.8125 q 0.48046,0.26953 0.9414,0.40625 0.46094,0.13672 0.90625,0.13672 0.67578,0 1.04297,-0.26563 0.36719,-0.26562 0.36719,-0.75781 0,-0.42969 -0.26563,-0.67188 -0.26172,-0.24218 -0.86328,-0.36328 l -0.48047,-0.0937 q -0.88281,-0.17578 -1.27734,-0.55078 -0.39453,-0.375 -0.39453,-1.04297 0,-0.77344 0.54297,-1.21875 0.54687,-0.44531 1.5039,-0.44531 0.41016,0 0.83594,0.0742 0.42578,0.0742 0.87109,0.22265 z" />
        <path
           id="path228"
           style="text-anchor:middle"
           d="m 161.66016,344.16797 3.6875,0 0,0.66406 -2.89844,0 0,1.72656 2.77734,0 0,0.66407 -2.77734,0 0,2.11328 2.96875,0 0,0.66406 -3.75781,0 0,-5.83203 z" />
        <path
           id="path230"
           style="text-anchor:middle"
           d="m 165.91406,344.16797 4.9336,0 0,0.66406 -2.07032,0 0,5.16797 -0.79297,0 0,-5.16797 -2.07031,0 0,-0.66406 z" />
      </g>
      <g
         id="text86"
         style="text-anchor:middle">
        <path
           id="path233"
           style="text-anchor:middle"
           d="m 180.36719,344.16797 4.93359,0 0,0.66406 -2.07031,0 0,5.16797 -0.79297,0 0,-5.16797 -2.07031,0 0,-0.66406 z" />
        <path
           id="path235"
           style="text-anchor:middle"
           d="m 186.06641,344.16797 0.78906,0 0,5.83203 -0.78906,0 0,-5.83203 z" />
        <path
           id="path237"
           style="text-anchor:middle"
           d="m 188.42578,344.16797 1.17578,0 1.48828,3.96875 1.4961,-3.96875 1.17578,0 0,5.83203 -0.76953,0 0,-5.12109 -1.50391,4 -0.79297,0 -1.5039,-4 0,5.12109 -0.76563,0 0,-5.83203 z" />
        <path
           id="path239"
           style="text-anchor:middle"
           d="m 195.33203,344.16797 3.6875,0 0,0.66406 -2.89844,0 0,1.72656 2.77735,0 0,0.66407 -2.77735,0 0,2.11328 2.96875,0 0,0.66406 -3.75781,0 0,-5.83203 z" />
      </g>
      <g
         id="text88"
         style="text-anchor:middle">
        <path
           id="path242"
           style="text-anchor:middle"
           d="m 220.70703,344.16797 0.78906,0 0,5.16797 2.83985,0 0,0.66406 -3.62891,0 0,-5.83203 z" />
        <path
           id="path244"
           style="text-anchor:middle"
           d="m 227.70703,344.16797 0.78906,0 0,5.83203 -0.78906,0 0,-5.83203 z" />
        <path
           id="path246"
           style="text-anchor:middle"
           d="m 230.06641,344.16797 1.0625,0 2.58593,4.8789 0,-4.8789 0.76563,0 0,5.83203 -1.0625,0 -2.58594,-4.87891 0,4.87891 -0.76562,0 0,-5.83203 z" />
        <path
           id="path248"
           style="text-anchor:middle"
           d="m 236.83984,344.81641 0,4.53515 0.95313,0 q 1.20703,0 1.76562,-0.54687 0.5625,-0.54688 0.5625,-1.72657 0,-1.17187 -0.5625,-1.71484 -0.55859,-0.54687 -1.76562,-0.54687 l -0.95313,0 z m -0.78906,-0.64844 1.62109,0 q 1.69532,0 2.48829,0.70703 0.79296,0.70312 0.79296,2.20312 0,1.50782 -0.79687,2.21485 Q 239.35937,350 237.67187,350 l -1.62109,0 0,-5.83203 z" />
        <path
           id="path250"
           style="text-anchor:middle"
           d="m 242.20703,344.16797 3.6875,0 0,0.66406 -2.89844,0 0,1.72656 2.77735,0 0,0.66407 -2.77735,0 0,2.11328 2.96875,0 0,0.66406 -3.75781,0 0,-5.83203 z" />
        <path
           id="path252"
           style="text-anchor:middle"
           d="m 246.98828,344.16797 0.84766,0 1.44922,2.16797 1.45703,-2.16797 0.84765,0 -1.875,2.80078 2,3.03125 -0.84765,0 -1.64063,-2.48047 -1.65234,2.48047 -0.85156,0 2.08203,-3.11328 -1.81641,-2.71875 z" />
        <path
           id="path254"
           style="text-anchor:middle"
           d="m 258.06641,347.26562 q 0.2539,0.0859 0.49218,0.36719 0.24219,0.28125 0.48438,0.77344 l 0.80078,1.59375 -0.84766,0 -0.74609,-1.49609 q -0.28906,-0.58594 -0.5625,-0.77735 -0.26953,-0.1914 -0.73828,-0.1914 l -0.85938,0 0,2.46484 -0.78906,0 0,-5.83203 1.78125,0 q 1,0 1.49219,0.41797 0.49219,0.41797 0.49219,1.26172 0,0.55078 -0.25782,0.91406 -0.2539,0.36328 -0.74218,0.5039 z m -1.97657,-2.44921 0,2.07031 0.99219,0 q 0.57031,0 0.85938,-0.26172 0.29296,-0.26563 0.29296,-0.77734 0,-0.51172 -0.29296,-0.76954 -0.28907,-0.26171 -0.85938,-0.26171 l -0.99219,0 z" />
      </g>
      <g
         id="text90"
         style="text-anchor:middle">
        <path
           id="path257"
           style="text-anchor:middle"
           d="m 275.57422,344.81641 0,2.1914 0.99219,0 q 0.55078,0 0.85156,-0.28515 0.30078,-0.28516 0.30078,-0.8125 0,-0.52344 -0.30078,-0.8086 -0.30078,-0.28515 -0.85156,-0.28515 l -0.99219,0 z m -0.78906,-0.64844 1.78125,0 q 0.98046,0 1.48046,0.44531 0.50391,0.44141 0.50391,1.29688 0,0.86328 -0.50391,1.30468 -0.5,0.44141 -1.48046,0.44141 l -0.99219,0 0,2.34375 -0.78906,0 0,-5.83203 z" />
        <path
           id="path259"
           style="text-anchor:middle"
           d="m 282.37891,347.26562 q 0.2539,0.0859 0.49218,0.36719 0.24219,0.28125 0.48438,0.77344 l 0.80078,1.59375 -0.84766,0 -0.74609,-1.49609 q -0.28906,-0.58594 -0.5625,-0.77735 -0.26953,-0.1914 -0.73828,-0.1914 l -0.85938,0 0,2.46484 -0.78906,0 0,-5.83203 1.78125,0 q 1,0 1.49219,0.41797 0.49219,0.41797 0.49219,1.26172 0,0.55078 -0.25782,0.91406 -0.2539,0.36328 -0.74218,0.5039 z m -1.97657,-2.44921 0,2.07031 0.99219,0 q 0.57031,0 0.85938,-0.26172 0.29296,-0.26563 0.29296,-0.77734 0,-0.51172 -0.29296,-0.76954 -0.28907,-0.26171 -0.85938,-0.26171 l -0.99219,0 z" />
        <path
           id="path261"
           style="text-anchor:middle"
           d="m 285.17578,344.16797 3.6875,0 0,0.66406 -2.89844,0 0,1.72656 2.77735,0 0,0.66407 -2.77735,0 0,2.11328 2.96875,0 0,0.66406 -3.75781,0 0,-5.83203 z" />
        <path
           id="path263"
           style="text-anchor:middle"
           d="m 290.30859,349.00781 0.82422,0 0,0.99219 -0.82422,0 0,-0.99219 z" />
      </g>
    </g>
  </g>
</svg>
