<?xml version="1.0" encoding="UTF-8" standalone="no"?>
<svg
   xmlns:dc="http://purl.org/dc/elements/1.1/"
   xmlns:cc="http://creativecommons.org/ns#"
   xmlns:rdf="http://www.w3.org/1999/02/22-rdf-syntax-ns#"
   xmlns:svg="http://www.w3.org/2000/svg"
   xmlns="http://www.w3.org/2000/svg"
   version="1.1"
   id="svg2"
   height="380px"
   width="90px">
  <metadata
     id="metadata102">
    <rdf:RDF>
      <cc:Work
         rdf:about="">
        <dc:format>image/svg+xml</dc:format>
        <dc:type
           rdf:resource="http://purl.org/dc/dcmitype/StillImage" />
      </cc:Work>
    </rdf:RDF>
  </metadata>
  <defs
     id="defs100" />
  <g
     id="background">
    <path
       id="rect4255"
       d="m 0,0 90,0 0,380 -90,0 z"
       style="fill:#294f77;stroke:none" />
    <path
       id="path4656"
       d="M 0,380 0,0 90,0 89,1 1,1 1,379 Z"
       style="fill:#3a6ea5;fill-rule:nonzero;stroke:none" />
    <path
       id="path4658"
       d="m 0,380 90,0 0,-380 -1,1 0,378 -88,0 z"
       style="fill:#182d44;fill-rule:nonzero;stroke:none" />
  </g>
  <g
     style="font-size:12px;font-family:'DejaVu Sans';fill:#719fcf"
     font-size="12"
     id="logo">
    <path
       id="path4136"
       d="m 79.35391,366 a 1.9846094,2.2519786 0 0 0 -1.98465,2.25192 1.9846094,2.2519786 0 0 0 0.0588,0.53167 A 8.1692063,5.1693144 0 0 0 71,373.83071 8.1692063,5.1693144 0 0 0 79.16915,379 8.1692063,5.1693144 0 0 0 86.48278,376.11985 3.0461447,4.2480502 0 0 0 89,377.97641 l 0,-2.35772 A 1.3384576,1.9448905 0 0 1 87.7077,373.67718 1.3384576,1.9448905 0 0 1 89,371.73455 l 0,-2.25416 a 3.0461447,4.2480502 0 0 0 -2.57413,1.97944 8.1692063,5.1693144 0 0 0 -7.25672,-2.79842 8.1692063,5.1693144 0 0 0 -0.37318,0.0119 1.7538409,2.0472531 0 0 1 0.69638,-1.00162 l 0,-1.66609 A 1.9846094,2.2519786 0 0 0 79.35391,366 Z m -3.27707,5.83461 a 1.6615335,1.8425278 0 0 1 1.66156,1.84257 1.6615335,1.8425278 0 0 1 -1.66156,1.84257 1.6615335,1.8425278 0 0 1 -1.66145,-1.84257 1.6615335,1.8425278 0 0 1 1.66145,-1.84257 z m 3.78465,0.40949 a 1.2923038,1.4330772 0 0 1 1.29231,1.43308 1.2923038,1.4330772 0 0 1 -1.29231,1.43308 1.2923038,1.4330772 0 0 1 -1.2923,-1.43308 1.2923038,1.4330772 0 0 1 1.2923,-1.43308 z m 3.00928,0.38892 a 0.92307415,1.0236265 0 0 1 0.92304,1.02373 0.92307415,1.0236265 0 0 1 -0.92304,1.02359 0.92307415,1.0236265 0 0 1 -0.92317,-1.02359 0.92307415,1.0236265 0 0 1 0.92317,-1.02373 z" />
    <g
       id="text4662"
       style="">
      <path
         id="path106"
         style=""
         d="m 8.3144531,370.63086 0,1.01953 q -0.4570312,-0.23437 -0.9492187,-0.35156 -0.4921875,-0.11719 -1.0195313,-0.11719 -0.8027344,0 -1.2070312,0.24609 -0.3984375,0.2461 -0.3984375,0.73829 0,0.375 0.2871093,0.59179 0.2871094,0.21094 1.1542969,0.4043 l 0.3691406,0.082 q 1.1484375,0.24609 1.6289063,0.69727 0.4863281,0.44531 0.4863281,1.24804 0,0.91407 -0.7265625,1.44727 -0.7207031,0.5332 -1.9863281,0.5332 -0.5273438,0 -1.1015625,-0.10547 -0.5683594,-0.0996 -1.2011719,-0.30468 l 0,-1.11329 q 0.5976563,0.31055 1.1777344,0.46875 0.5800781,0.15235 1.1484375,0.15235 0.7617187,0 1.171875,-0.25781 0.4101562,-0.26368 0.4101562,-0.73829 0,-0.43945 -0.2988281,-0.67382 -0.2929687,-0.23438 -1.2949219,-0.45118 l -0.375,-0.0879 q -1.0019531,-0.21093 -1.4472656,-0.64453 -0.4453125,-0.43945 -0.4453125,-1.20117 0,-0.92578 0.65625,-1.42969 0.65625,-0.5039 1.8632813,-0.5039 0.5976562,0 1.125,0.0879 0.5273437,0.0879 0.9726562,0.26367 z" />
      <path
         id="path108"
         style=""
         d="m 10.277344,374.41016 0,-3.97266 1.078125,0 0,3.93164 q 0,0.93164 0.363281,1.40039 0.363281,0.46289 1.089844,0.46289 0.873047,0 1.376953,-0.55664 0.509766,-0.55664 0.509766,-1.51758 l 0,-3.7207 1.078125,0 0,6.5625 -1.078125,0 0,-1.00781 q -0.392579,0.59765 -0.914063,0.89062 -0.515625,0.28711 -1.201172,0.28711 -1.130859,0 -1.716797,-0.70312 -0.585937,-0.70313 -0.585937,-2.05664 z m 2.71289,-4.13086 0,0 z" />
      <path
         id="path110"
         style=""
         d="m 22.716797,373.72461 q 0,-1.18945 -0.492188,-1.86328 -0.486328,-0.67969 -1.341797,-0.67969 -0.855468,0 -1.347656,0.67969 -0.486328,0.67383 -0.486328,1.86328 0,1.18945 0.486328,1.86914 0.492188,0.67383 1.347656,0.67383 0.855469,0 1.341797,-0.67383 0.492188,-0.67969 0.492188,-1.86914 z m -3.667969,-2.29102 q 0.339844,-0.58593 0.855469,-0.86718 0.521484,-0.28711 1.242187,-0.28711 1.195313,0 1.939453,0.94922 0.75,0.94921 0.75,2.49609 0,1.54687 -0.75,2.49609 -0.74414,0.94922 -1.939453,0.94922 -0.720703,0 -1.242187,-0.28125 -0.515625,-0.28711 -0.855469,-0.87305 l 0,0.98438 -1.083984,0 0,-9.11719 1.083984,0 0,3.55078 z" />
      <path
         id="path112"
         style=""
         d="m 30.732422,371.69727 q 0.404297,-0.72657 0.966797,-1.07227 0.5625,-0.3457 1.324218,-0.3457 1.025391,0 1.582032,0.7207 0.55664,0.71484 0.55664,2.03906 l 0,3.96094 -1.083984,0 0,-3.92578 q 0,-0.94336 -0.333984,-1.40039 -0.333985,-0.45703 -1.019532,-0.45703 -0.83789,0 -1.324218,0.55664 -0.486329,0.55664 -0.486329,1.51758 l 0,3.70898 -1.083984,0 0,-3.92578 q 0,-0.94922 -0.333984,-1.40039 -0.333985,-0.45703 -1.03125,-0.45703 -0.826172,0 -1.3125,0.5625 -0.486328,0.55664 -0.486328,1.51172 l 0,3.70898 -1.083985,0 0,-6.5625 1.083985,0 0,1.01953 q 0.36914,-0.60351 0.884765,-0.89062 0.515625,-0.28711 1.22461,-0.28711 0.714843,0 1.21289,0.36328 0.503906,0.36328 0.744141,1.05469 z" />
      <path
         id="path114"
         style=""
         d="m 40.300781,373.70117 q -1.30664,0 -1.810547,0.29883 -0.503906,0.29883 -0.503906,1.01953 0,0.57422 0.375,0.91406 0.380859,0.33399 1.03125,0.33399 0.896484,0 1.435547,-0.63281 0.544922,-0.63868 0.544922,-1.69336 l 0,-0.24024 -1.072266,0 z m 2.150391,-0.44531 0,3.74414 -1.078125,0 0,-0.99609 q -0.369141,0.59765 -0.919922,0.88476 -0.550781,0.28125 -1.347656,0.28125 -1.007813,0 -1.605469,-0.5625 -0.591797,-0.56836 -0.591797,-1.51758 0,-1.10742 0.738281,-1.66992 0.744141,-0.5625 2.214844,-0.5625 l 1.511719,0 0,-0.10547 q 0,-0.74414 -0.492188,-1.14843 -0.486328,-0.41016 -1.371093,-0.41016 -0.5625,0 -1.095704,0.13476 -0.533203,0.13477 -1.02539,0.4043 l 0,-0.99609 q 0.591797,-0.22852 1.148437,-0.33985 0.556641,-0.11718 1.083985,-0.11718 1.423828,0 2.126953,0.73828 0.703125,0.73828 0.703125,2.23828 z" />
      <path
         id="path116"
         style=""
         d="m 48.480469,371.44531 q -0.181641,-0.10547 -0.398438,-0.15234 -0.210937,-0.0527 -0.46875,-0.0527 -0.914062,0 -1.40625,0.59766 -0.486328,0.5918 -0.486328,1.70508 l 0,3.45703 -1.083984,0 0,-6.5625 1.083984,0 0,1.01953 q 0.339844,-0.59766 0.884766,-0.88476 0.544922,-0.29297 1.324218,-0.29297 0.111329,0 0.246094,0.0176 0.134766,0.0117 0.298828,0.041 l 0.0059,1.10742 z" />
      <path
         id="path118"
         style=""
         d="m 49.623047,370.4375 1.078125,0 0,6.5625 -1.078125,0 0,-6.5625 z m 0,-2.55469 1.078125,0 0,1.36524 -1.078125,0 0,-1.36524 z" />
      <path
         id="path120"
         style=""
         d="m 58.40625,373.03906 0,3.96094 -1.078125,0 0,-3.92578 q 0,-0.93164 -0.363281,-1.39453 -0.363282,-0.46289 -1.089844,-0.46289 -0.873047,0 -1.376953,0.55664 -0.503906,0.55664 -0.503906,1.51758 l 0,3.70898 -1.083985,0 0,-6.5625 1.083985,0 0,1.01953 q 0.386718,-0.5918 0.908203,-0.88476 0.527343,-0.29297 1.21289,-0.29297 1.13086,0 1.710938,0.70312 0.580078,0.69727 0.580078,2.05664 z" />
      <path
         id="path122"
         style=""
         d="m 66.181641,373.44922 0,0.52734 -4.957032,0 q 0.07031,1.11328 0.667969,1.69922 0.603516,0.58008 1.675781,0.58008 0.621094,0 1.201172,-0.15234 0.585938,-0.15235 1.160156,-0.45704 l 0,1.01954 q -0.580078,0.24609 -1.189453,0.375 -0.609375,0.1289 -1.236328,0.1289 -1.570312,0 -2.490234,-0.91406 -0.914063,-0.91406 -0.914063,-2.47266 0,-1.61133 0.867188,-2.55468 0.873047,-0.94922 2.349609,-0.94922 1.324219,0 2.091797,0.85547 0.773438,0.8496 0.773438,2.31445 z m -1.078125,-0.31641 q -0.01172,-0.88476 -0.498047,-1.41211 -0.480469,-0.52734 -1.277344,-0.52734 -0.902344,0 -1.447266,0.50976 -0.539062,0.50977 -0.621093,1.43555 l 3.84375,-0.006 z" />
    </g>
    <g
       id="text11"
       style="text-anchor:middle">
      <path
         id="path125"
         style="text-anchor:middle"
         d="m 24.591797,3.2519531 1.183594,0 0,7.7519529 4.259765,0 0,0.996094 -5.443359,0 0,-8.7480469 z" />
      <path
         id="path127"
         style="text-anchor:middle"
         d="m 32.455078,4.2246094 0,6.8027346 1.429688,0 q 1.810546,0 2.648437,-0.820313 0.84375,-0.8203122 0.84375,-2.5898435 0,-1.7578125 -0.84375,-2.5722656 -0.837891,-0.8203125 -2.648437,-0.8203125 l -1.429688,0 z m -1.183594,-0.9726563 2.431641,0 q 2.542969,0 3.732422,1.0605469 1.189453,1.0546875 1.189453,3.3046875 0,2.2617188 -1.195313,3.3222655 Q 36.234375,12 33.703125,12 l -2.431641,0 0,-8.7480469 z" />
      <path
         id="path129"
         style="text-anchor:middle"
         d="m 39.914062,8.2324219 3.158204,0 0,0.9609375 -3.158204,0 0,-0.9609375 z" />
      <path
         id="path131"
         style="text-anchor:middle"
         d="m 45.152344,11.003906 1.933593,0 0,-6.6738279 -2.103515,0.421875 0,-1.078125 2.091797,-0.421875 1.183593,0 0,7.7519529 1.933594,0 0,0.996094 -5.039062,0 0,-0.996094 z" />
      <path
         id="path133"
         style="text-anchor:middle"
         d="m 55.119141,4.03125 q -0.914063,0 -1.376954,0.9023437 -0.457031,0.8964844 -0.457031,2.7011719 0,1.7988282 0.457031,2.7011724 0.462891,0.896484 1.376954,0.896484 0.919921,0 1.376953,-0.896484 0.46289,-0.9023442 0.46289,-2.7011724 0,-1.8046875 -0.46289,-2.7011719 Q 56.039062,4.03125 55.119141,4.03125 Z m 0,-0.9375 q 1.470703,0 2.24414,1.1660156 0.779297,1.1601563 0.779297,3.375 0,2.2089844 -0.779297,3.3750004 -0.773437,1.160156 -2.24414,1.160156 -1.470704,0 -2.25,-1.160156 -0.773438,-1.166016 -0.773438,-3.3750004 0,-2.2148437 0.773438,-3.375 0.779296,-1.1660156 2.25,-1.1660156 z" />
      <path
         id="path135"
         style="text-anchor:middle"
         d="m 62.90625,7.1542969 q -0.796875,0 -1.265625,0.5449218 -0.462891,0.5449219 -0.462891,1.4941407 0,0.9433596 0.462891,1.4941406 0.46875,0.544922 1.265625,0.544922 0.796875,0 1.259766,-0.544922 0.46875,-0.550781 0.46875,-1.4941406 0,-0.9492188 -0.46875,-1.4941407 Q 63.703125,7.1542969 62.90625,7.1542969 Z m 2.349609,-3.7089844 0,1.078125 Q 64.810547,4.3125 64.353516,4.2011719 63.902344,4.0898437 63.457031,4.0898437 q -1.171875,0 -1.792969,0.7910157 -0.615234,0.7910156 -0.703125,2.390625 0.345704,-0.5097657 0.867188,-0.7792969 0.521484,-0.2753906 1.148437,-0.2753906 1.31836,0 2.080079,0.8027343 0.767578,0.796875 0.767578,2.1738282 0,1.3476566 -0.796875,2.1621096 -0.796875,0.814453 -2.121094,0.814453 -1.517578,0 -2.320313,-1.160156 -0.802734,-1.166016 -0.802734,-3.3750004 0,-2.0742187 0.984375,-3.3046875 0.984375,-1.2363281 2.642578,-1.2363281 0.445313,0 0.896485,0.087891 0.457031,0.087891 0.949218,0.2636719 z" />
    </g>
  </g>
  <g
     style="font-size:6px;font-family:'DejaVu Sans';fill:none;stroke:#ffffff;stroke-width:1;stroke-linecap:round;stroke-linejoin:round"
     font-size="6"
     id="group1">
    <path
       id="line14"
       d="m 3,73.5 84,0"
       style="stroke:#719fcf" />
    <path
       id="line16"
       d="m 3,131.5 84,0"
       style="stroke:#719fcf" />
    <path
       id="line18"
       d="m 3,189.5 84,0"
       style="stroke:#719fcf" />
    <path
       id="line20"
       d="m 3,247.5 84,0"
       style="stroke:#719fcf" />
    <path
       id="line22"
       d="m 3,305.5 84,0"
       style="stroke:#719fcf" />
    <path
       id="path24"
       d="m 39.5,20 16,11.5 -16,11.5 z" />
    <path
       id="line26"
       d="m 16,31.5 23,0"
       style="" />
    <path
       id="line28"
       d="m 55,31.5 19,0"
       style="" />
    <path
       id="path30"
       d="m 41.5,34.5 5,0 0,-5 m 2,0 -5,0 0,5" />
    <path
       id="path32"
       d="m 39.5,78 16,11.5 -16,11.5 z" />
    <path
       id="line34"
       d="m 16,89.5 23,0"
       style="" />
    <path
       id="line36"
       d="m 55,89.5 19,0"
       style="" />
    <path
       id="path38"
       d="m 41.5,92.5 5,0 0,-5 m 2,0 -5,0 0,5" />
    <path
       id="path40"
       d="m 39.5,136 16,11.5 -16,11.5 z" />
    <path
       id="line42"
       d="m 16,147.5 23,0"
       style="" />
    <path
       id="line44"
       d="m 55,147.5 19,0"
       style="" />
    <path
       id="path46"
       d="m 41.5,150.5 5,0 0,-5 m 2,0 -5,0 0,5" />
    <path
       id="path48"
       d="m 39.5,194 16,11.5 -16,11.5 z" />
    <path
       id="line50"
       d="m 16,205.5 23,0"
       style="" />
    <path
       id="line52"
       d="m 55,205.5 19,0"
       style="" />
    <path
       id="path54"
       d="m 41.5,208.5 5,0 0,-5 m 2,0 -5,0 0,5" />
    <path
       id="path56"
       d="m 39.5,252 16,11.5 -16,11.5 z" />
    <path
       id="line58"
       d="m 16,263.5 23,0"
       style="" />
    <path
       id="line60"
       d="m 55,263.5 19,0"
       style="" />
    <path
       id="path62"
       d="m 41.5,266.5 5,0 0,-5 m 2,0 -5,0 0,5" />
    <path
       id="path64"
       d="m 39.5,310 16,11.5 -16,11.5 z" />
    <path
       id="line66"
       d="m 16,321.5 23,0"
       style="" />
    <path
       id="line68"
       d="m 55,321.5 19,0"
       style="" />
    <path
       id="path70"
       d="m 41.5,324.5 5,0 0,-5 m 2,0 -5,0 0,5" />
    <g
       style="fill:#ffffff;stroke:none"
       id="g72">
      <g
         id="text74"
         style="">
        <path
           id="path155"
           style=""
           d="m 31.864258,53.962891 0,0.624023 q -0.298828,-0.27832 -0.638672,-0.416016 -0.336914,-0.137695 -0.717774,-0.137695 -0.75,0 -1.148437,0.459961 -0.398438,0.457031 -0.398438,1.324219 0,0.864258 0.398438,1.324219 0.398437,0.457031 1.148437,0.457031 0.38086,0 0.717774,-0.137696 0.339844,-0.137695 0.638672,-0.416015 l 0,0.618164 q -0.310547,0.210937 -0.65918,0.316406 -0.345703,0.105469 -0.732422,0.105469 -0.993164,0 -1.564453,-0.606445 -0.571289,-0.609375 -0.571289,-1.661133 0,-1.054688 0.571289,-1.661133 0.571289,-0.609375 1.564453,-0.609375 0.392578,0 0.738281,0.105469 0.348633,0.102539 0.653321,0.310547 z" />
        <path
           id="path157"
           style=""
           d="m 32.716797,53.625977 0.594726,0 0,2.657226 q 0,0.703125 0.254883,1.013672 0.254883,0.307617 0.826172,0.307617 0.568359,0 0.823242,-0.307617 0.254883,-0.310547 0.254883,-1.013672 l 0,-2.657226 0.594727,0 0,2.730468 q 0,0.855469 -0.424805,1.291992 -0.421875,0.436524 -1.248047,0.436524 -0.829101,0 -1.253906,-0.436524 -0.421875,-0.436523 -0.421875,-1.291992 l 0,-2.730468 z" />
        <path
           id="path159"
           style=""
           d="m 36.572266,53.625977 3.700195,0 0,0.498046 -1.552734,0 0,3.875977 -0.594727,0 0,-3.875977 -1.552734,0 0,-0.498046 z" />
        <path
           id="path161"
           style=""
           d="m 42.62207,54.027344 q -0.644531,0 -1.02539,0.480468 -0.37793,0.480469 -0.37793,1.309571 0,0.826172 0.37793,1.30664 0.380859,0.480469 1.02539,0.480469 0.644532,0 1.019532,-0.480469 0.377929,-0.480468 0.377929,-1.30664 0,-0.829102 -0.377929,-1.309571 -0.375,-0.480468 -1.019532,-0.480468 z m 0,-0.480469 q 0.919922,0 1.470703,0.618164 0.550782,0.615234 0.550782,1.652344 0,1.034179 -0.550782,1.652344 -0.550781,0.615234 -1.470703,0.615234 -0.922851,0 -1.476562,-0.615234 -0.550781,-0.615235 -0.550781,-1.652344 0,-1.03711 0.550781,-1.652344 0.553711,-0.618164 1.476562,-0.618164 z" />
        <path
           id="path163"
           style=""
           d="m 45.569336,53.625977 2.513672,0 0,0.498046 -1.921875,0 0,1.289063 1.734375,0 0,0.498047 -1.734375,0 0,2.088867 -0.591797,0 0,-4.374023 z" />
        <path
           id="path165"
           style=""
           d="m 49.026367,53.625977 2.513672,0 0,0.498046 -1.921875,0 0,1.289063 1.734375,0 0,0.498047 -1.734375,0 0,2.088867 -0.591797,0 0,-4.374023 z" />
      </g>
      <g
         id="text76"
         style="text-anchor:end">
        <path
           id="path168"
           style="text-anchor:end"
           d="m 41.703125,60.625977 0.597656,0 0.919922,3.697265 0.916992,-3.697265 0.665039,0 0.919922,3.697265 0.916992,-3.697265 0.600586,0 L 46.141602,65 45.397461,65 44.474609,61.203125 43.542969,65 42.798828,65 41.703125,60.625977 Z" />
        <path
           id="path170"
           style="text-anchor:end"
           d="m 48.022461,60.625977 0.591797,0 0,4.374023 -0.591797,0 0,-4.374023 z" />
        <path
           id="path172"
           style="text-anchor:end"
           d="m 50.383789,61.112305 0,3.401367 0.714844,0 q 0.905273,0 1.324219,-0.410156 0.421875,-0.410157 0.421875,-1.294922 0,-0.878907 -0.421875,-1.286133 -0.418946,-0.410156 -1.324219,-0.410156 l -0.714844,0 z m -0.591797,-0.486328 1.21582,0 q 1.271485,0 1.866211,0.530273 0.594727,0.527344 0.594727,1.652344 0,1.130859 -0.597656,1.661133 Q 52.273437,65 51.007812,65 l -1.21582,0 0,-4.374023 z" />
        <path
           id="path174"
           style="text-anchor:end"
           d="m 53.802734,60.625977 3.700196,0 0,0.498046 -1.552735,0 0,3.875977 -0.594726,0 0,-3.875977 -1.552735,0 0,-0.498046 z" />
        <path
           id="path176"
           style="text-anchor:end"
           d="m 58.077148,60.625977 0.591797,0 0,1.792968 2.150391,0 0,-1.792968 0.591797,0 0,4.374023 -0.591797,0 0,-2.083008 -2.150391,0 0,2.083008 -0.591797,0 0,-4.374023 z" />
      </g>
      <g
         id="text78"
         style="">
        <path
           id="path179"
           style=""
           d="m 31.864258,111.96289 0,0.62402 q -0.298828,-0.27832 -0.638672,-0.41601 -0.336914,-0.1377 -0.717774,-0.1377 -0.75,0 -1.148437,0.45996 -0.398438,0.45704 -0.398438,1.32422 0,0.86426 0.398438,1.32422 0.398437,0.45703 1.148437,0.45703 0.38086,0 0.717774,-0.13769 0.339844,-0.1377 0.638672,-0.41602 l 0,0.61817 q -0.310547,0.21093 -0.65918,0.3164 -0.345703,0.10547 -0.732422,0.10547 -0.993164,0 -1.564453,-0.60644 -0.571289,-0.60938 -0.571289,-1.66114 0,-1.05468 0.571289,-1.66113 0.571289,-0.60937 1.564453,-0.60937 0.392578,0 0.738281,0.10546 0.348633,0.10254 0.653321,0.31055 z" />
        <path
           id="path181"
           style=""
           d="m 32.716797,111.62598 0.594726,0 0,2.65722 q 0,0.70313 0.254883,1.01368 0.254883,0.30761 0.826172,0.30761 0.568359,0 0.823242,-0.30761 0.254883,-0.31055 0.254883,-1.01368 l 0,-2.65722 0.594727,0 0,2.73047 q 0,0.85546 -0.424805,1.29199 -0.421875,0.43652 -1.248047,0.43652 -0.829101,0 -1.253906,-0.43652 -0.421875,-0.43653 -0.421875,-1.29199 l 0,-2.73047 z" />
        <path
           id="path183"
           style=""
           d="m 36.572266,111.62598 3.700195,0 0,0.49804 -1.552734,0 0,3.87598 -0.594727,0 0,-3.87598 -1.552734,0 0,-0.49804 z" />
        <path
           id="path185"
           style=""
           d="m 42.62207,112.02734 q -0.644531,0 -1.02539,0.48047 -0.37793,0.48047 -0.37793,1.30957 0,0.82617 0.37793,1.30664 0.380859,0.48047 1.02539,0.48047 0.644532,0 1.019532,-0.48047 0.377929,-0.48047 0.377929,-1.30664 0,-0.8291 -0.377929,-1.30957 -0.375,-0.48047 -1.019532,-0.48047 z m 0,-0.48046 q 0.919922,0 1.470703,0.61816 0.550782,0.61523 0.550782,1.65234 0,1.03418 -0.550782,1.65235 -0.550781,0.61523 -1.470703,0.61523 -0.922851,0 -1.476562,-0.61523 -0.550781,-0.61524 -0.550781,-1.65235 0,-1.03711 0.550781,-1.65234 0.553711,-0.61816 1.476562,-0.61816 z" />
        <path
           id="path187"
           style=""
           d="m 45.569336,111.62598 2.513672,0 0,0.49804 -1.921875,0 0,1.28907 1.734375,0 0,0.49804 -1.734375,0 0,2.08887 -0.591797,0 0,-4.37402 z" />
        <path
           id="path189"
           style=""
           d="m 49.026367,111.62598 2.513672,0 0,0.49804 -1.921875,0 0,1.28907 1.734375,0 0,0.49804 -1.734375,0 0,2.08887 -0.591797,0 0,-4.37402 z" />
      </g>
      <g
         id="text80"
         style="text-anchor:end">
        <path
           id="path192"
           style="text-anchor:end"
           d="m 41.703125,118.62598 0.597656,0 0.919922,3.69726 0.916992,-3.69726 0.665039,0 0.919922,3.69726 0.916992,-3.69726 0.600586,0 -1.098632,4.37402 -0.744141,0 -0.922852,-3.79687 -0.93164,3.79687 -0.744141,0 -1.095703,-4.37402 z" />
        <path
           id="path194"
           style="text-anchor:end"
           d="m 48.022461,118.62598 0.591797,0 0,4.37402 -0.591797,0 0,-4.37402 z" />
        <path
           id="path196"
           style="text-anchor:end"
           d="m 50.383789,119.1123 0,3.40137 0.714844,0 q 0.905273,0 1.324219,-0.41015 0.421875,-0.41016 0.421875,-1.29493 0,-0.8789 -0.421875,-1.28613 -0.418946,-0.41016 -1.324219,-0.41016 l -0.714844,0 z m -0.591797,-0.48632 1.21582,0 q 1.271485,0 1.866211,0.53027 0.594727,0.52734 0.594727,1.65234 0,1.13086 -0.597656,1.66114 Q 52.273437,123 51.007812,123 l -1.21582,0 0,-4.37402 z" />
        <path
           id="path198"
           style="text-anchor:end"
           d="m 53.802734,118.62598 3.700196,0 0,0.49804 -1.552735,0 0,3.87598 -0.594726,0 0,-3.87598 -1.552735,0 0,-0.49804 z" />
        <path
           id="path200"
           style="text-anchor:end"
           d="m 58.077148,118.62598 0.591797,0 0,1.79297 2.150391,0 0,-1.79297 0.591797,0 0,4.37402 -0.591797,0 0,-2.08301 -2.150391,0 0,2.08301 -0.591797,0 0,-4.37402 z" />
      </g>
      <g
         id="text82"
         style="">
        <path
           id="path203"
           style=""
           d="m 31.864258,169.96289 0,0.62402 q -0.298828,-0.27832 -0.638672,-0.41601 -0.336914,-0.1377 -0.717774,-0.1377 -0.75,0 -1.148437,0.45996 -0.398438,0.45704 -0.398438,1.32422 0,0.86426 0.398438,1.32422 0.398437,0.45703 1.148437,0.45703 0.38086,0 0.717774,-0.13769 0.339844,-0.1377 0.638672,-0.41602 l 0,0.61817 q -0.310547,0.21093 -0.65918,0.3164 -0.345703,0.10547 -0.732422,0.10547 -0.993164,0 -1.564453,-0.60644 -0.571289,-0.60938 -0.571289,-1.66114 0,-1.05468 0.571289,-1.66113 0.571289,-0.60938 1.564453,-0.60938 0.392578,0 0.738281,0.10547 0.348633,0.10254 0.653321,0.31055 z" />
        <path
           id="path205"
           style=""
           d="m 32.716797,169.62598 0.594726,0 0,2.65722 q 0,0.70313 0.254883,1.01367 0.254883,0.30762 0.826172,0.30762 0.568359,0 0.823242,-0.30762 0.254883,-0.31054 0.254883,-1.01367 l 0,-2.65722 0.594727,0 0,2.73047 q 0,0.85546 -0.424805,1.29199 -0.421875,0.43652 -1.248047,0.43652 -0.829101,0 -1.253906,-0.43652 -0.421875,-0.43653 -0.421875,-1.29199 l 0,-2.73047 z" />
        <path
           id="path207"
           style=""
           d="m 36.572266,169.62598 3.700195,0 0,0.49804 -1.552734,0 0,3.87598 -0.594727,0 0,-3.87598 -1.552734,0 0,-0.49804 z" />
        <path
           id="path209"
           style=""
           d="m 42.62207,170.02734 q -0.644531,0 -1.02539,0.48047 -0.37793,0.48047 -0.37793,1.30957 0,0.82617 0.37793,1.30664 0.380859,0.48047 1.02539,0.48047 0.644532,0 1.019532,-0.48047 0.377929,-0.48047 0.377929,-1.30664 0,-0.8291 -0.377929,-1.30957 -0.375,-0.48047 -1.019532,-0.48047 z m 0,-0.48047 q 0.919922,0 1.470703,0.61817 0.550782,0.61523 0.550782,1.65234 0,1.03418 -0.550782,1.65235 -0.550781,0.61523 -1.470703,0.61523 -0.922851,0 -1.476562,-0.61523 -0.550781,-0.61524 -0.550781,-1.65235 0,-1.03711 0.550781,-1.65234 0.553711,-0.61817 1.476562,-0.61817 z" />
        <path
           id="path211"
           style=""
           d="m 45.569336,169.62598 2.513672,0 0,0.49804 -1.921875,0 0,1.28907 1.734375,0 0,0.49804 -1.734375,0 0,2.08887 -0.591797,0 0,-4.37402 z" />
        <path
           id="path213"
           style=""
           d="m 49.026367,169.62598 2.513672,0 0,0.49804 -1.921875,0 0,1.28907 1.734375,0 0,0.49804 -1.734375,0 0,2.08887 -0.591797,0 0,-4.37402 z" />
      </g>
      <g
         id="text84"
         style="text-anchor:end">
        <path
           id="path216"
           style="text-anchor:end"
           d="m 41.703125,176.62598 0.597656,0 0.919922,3.69726 0.916992,-3.69726 0.665039,0 0.919922,3.69726 0.916992,-3.69726 0.600586,0 -1.098632,4.37402 -0.744141,0 -0.922852,-3.79688 -0.93164,3.79688 -0.744141,0 -1.095703,-4.37402 z" />
        <path
           id="path218"
           style="text-anchor:end"
           d="m 48.022461,176.62598 0.591797,0 0,4.37402 -0.591797,0 0,-4.37402 z" />
        <path
           id="path220"
           style="text-anchor:end"
           d="m 50.383789,177.1123 0,3.40137 0.714844,0 q 0.905273,0 1.324219,-0.41015 0.421875,-0.41016 0.421875,-1.29493 0,-0.8789 -0.421875,-1.28613 -0.418946,-0.41016 -1.324219,-0.41016 l -0.714844,0 z m -0.591797,-0.48632 1.21582,0 q 1.271485,0 1.866211,0.53027 0.594727,0.52734 0.594727,1.65234 0,1.13086 -0.597656,1.66114 Q 52.273437,181 51.007812,181 l -1.21582,0 0,-4.37402 z" />
        <path
           id="path222"
           style="text-anchor:end"
           d="m 53.802734,176.62598 3.700196,0 0,0.49804 -1.552735,0 0,3.87598 -0.594726,0 0,-3.87598 -1.552735,0 0,-0.49804 z" />
        <path
           id="path224"
           style="text-anchor:end"
           d="m 58.077148,176.62598 0.591797,0 0,1.79297 2.150391,0 0,-1.79297 0.591797,0 0,4.37402 -0.591797,0 0,-2.08301 -2.150391,0 0,2.08301 -0.591797,0 0,-4.37402 z" />
      </g>
      <g
         id="text86"
         style="">
        <path
           id="path227"
           style=""
           d="m 31.864258,227.96289 0,0.62402 q -0.298828,-0.27832 -0.638672,-0.41601 -0.336914,-0.1377 -0.717774,-0.1377 -0.75,0 -1.148437,0.45996 -0.398438,0.45704 -0.398438,1.32422 0,0.86426 0.398438,1.32422 0.398437,0.45703 1.148437,0.45703 0.38086,0 0.717774,-0.13769 0.339844,-0.1377 0.638672,-0.41602 l 0,0.61817 q -0.310547,0.21093 -0.65918,0.3164 -0.345703,0.10547 -0.732422,0.10547 -0.993164,0 -1.564453,-0.60644 -0.571289,-0.60938 -0.571289,-1.66114 0,-1.05468 0.571289,-1.66113 0.571289,-0.60938 1.564453,-0.60938 0.392578,0 0.738281,0.10547 0.348633,0.10254 0.653321,0.31055 z" />
        <path
           id="path229"
           style=""
           d="m 32.716797,227.62598 0.594726,0 0,2.65722 q 0,0.70313 0.254883,1.01367 0.254883,0.30762 0.826172,0.30762 0.568359,0 0.823242,-0.30762 0.254883,-0.31054 0.254883,-1.01367 l 0,-2.65722 0.594727,0 0,2.73047 q 0,0.85546 -0.424805,1.29199 -0.421875,0.43652 -1.248047,0.43652 -0.829101,0 -1.253906,-0.43652 -0.421875,-0.43653 -0.421875,-1.29199 l 0,-2.73047 z" />
        <path
           id="path231"
           style=""
           d="m 36.572266,227.62598 3.700195,0 0,0.49804 -1.552734,0 0,3.87598 -0.594727,0 0,-3.87598 -1.552734,0 0,-0.49804 z" />
        <path
           id="path233"
           style=""
           d="m 42.62207,228.02734 q -0.644531,0 -1.02539,0.48047 -0.37793,0.48047 -0.37793,1.30957 0,0.82617 0.37793,1.30664 0.380859,0.48047 1.02539,0.48047 0.644532,0 1.019532,-0.48047 0.377929,-0.48047 0.377929,-1.30664 0,-0.8291 -0.377929,-1.30957 -0.375,-0.48047 -1.019532,-0.48047 z m 0,-0.48047 q 0.919922,0 1.470703,0.61817 0.550782,0.61523 0.550782,1.65234 0,1.03418 -0.550782,1.65235 -0.550781,0.61523 -1.470703,0.61523 -0.922851,0 -1.476562,-0.61523 -0.550781,-0.61524 -0.550781,-1.65235 0,-1.03711 0.550781,-1.65234 0.553711,-0.61817 1.476562,-0.61817 z" />
        <path
           id="path235"
           style=""
           d="m 45.569336,227.62598 2.513672,0 0,0.49804 -1.921875,0 0,1.28907 1.734375,0 0,0.49804 -1.734375,0 0,2.08887 -0.591797,0 0,-4.37402 z" />
        <path
           id="path237"
           style=""
           d="m 49.026367,227.62598 2.513672,0 0,0.49804 -1.921875,0 0,1.28907 1.734375,0 0,0.49804 -1.734375,0 0,2.08887 -0.591797,0 0,-4.37402 z" />
      </g>
      <g
         id="text88"
         style="text-anchor:end">
        <path
           id="path240"
           style="text-anchor:end"
           d="m 41.703125,234.62598 0.597656,0 0.919922,3.69726 0.916992,-3.69726 0.665039,0 0.919922,3.69726 0.916992,-3.69726 0.600586,0 -1.098632,4.37402 -0.744141,0 -0.922852,-3.79688 -0.93164,3.79688 -0.744141,0 -1.095703,-4.37402 z" />
        <path
           id="path242"
           style="text-anchor:end"
           d="m 48.022461,234.62598 0.591797,0 0,4.37402 -0.591797,0 0,-4.37402 z" />
        <path
           id="path244"
           style="text-anchor:end"
           d="m 50.383789,235.1123 0,3.40137 0.714844,0 q 0.905273,0 1.324219,-0.41015 0.421875,-0.41016 0.421875,-1.29493 0,-0.8789 -0.421875,-1.28613 -0.418946,-0.41016 -1.324219,-0.41016 l -0.714844,0 z m -0.591797,-0.48632 1.21582,0 q 1.271485,0 1.866211,0.53027 0.594727,0.52734 0.594727,1.65234 0,1.13086 -0.597656,1.66114 Q 52.273437,239 51.007812,239 l -1.21582,0 0,-4.37402 z" />
        <path
           id="path246"
           style="text-anchor:end"
           d="m 53.802734,234.62598 3.700196,0 0,0.49804 -1.552735,0 0,3.87598 -0.594726,0 0,-3.87598 -1.552735,0 0,-0.49804 z" />
        <path
           id="path248"
           style="text-anchor:end"
           d="m 58.077148,234.62598 0.591797,0 0,1.79297 2.150391,0 0,-1.79297 0.591797,0 0,4.37402 -0.591797,0 0,-2.08301 -2.150391,0 0,2.08301 -0.591797,0 0,-4.37402 z" />
      </g>
      <g
         id="text90"
         style="">
        <path
           id="path251"
           style=""
           d="m 31.864258,285.96289 0,0.62402 q -0.298828,-0.27832 -0.638672,-0.41601 -0.336914,-0.1377 -0.717774,-0.1377 -0.75,0 -1.148437,0.45996 -0.398438,0.45704 -0.398438,1.32422 0,0.86426 0.398438,1.32422 0.398437,0.45703 1.148437,0.45703 0.38086,0 0.717774,-0.13769 0.339844,-0.1377 0.638672,-0.41602 l 0,0.61817 q -0.310547,0.21093 -0.65918,0.3164 -0.345703,0.10547 -0.732422,0.10547 -0.993164,0 -1.564453,-0.60644 -0.571289,-0.60938 -0.571289,-1.66114 0,-1.05468 0.571289,-1.66113 0.571289,-0.60938 1.564453,-0.60938 0.392578,0 0.738281,0.10547 0.348633,0.10254 0.653321,0.31055 z" />
        <path
           id="path253"
           style=""
           d="m 32.716797,285.62598 0.594726,0 0,2.65722 q 0,0.70313 0.254883,1.01367 0.254883,0.30762 0.826172,0.30762 0.568359,0 0.823242,-0.30762 0.254883,-0.31054 0.254883,-1.01367 l 0,-2.65722 0.594727,0 0,2.73047 q 0,0.85546 -0.424805,1.29199 -0.421875,0.43652 -1.248047,0.43652 -0.829101,0 -1.253906,-0.43652 -0.421875,-0.43653 -0.421875,-1.29199 l 0,-2.73047 z" />
        <path
           id="path255"
           style=""
           d="m 36.572266,285.62598 3.700195,0 0,0.49804 -1.552734,0 0,3.87598 -0.594727,0 0,-3.87598 -1.552734,0 0,-0.49804 z" />
        <path
           id="path257"
           style=""
           d="m 42.62207,286.02734 q -0.644531,0 -1.02539,0.48047 -0.37793,0.48047 -0.37793,1.30957 0,0.82617 0.37793,1.30664 0.380859,0.48047 1.02539,0.48047 0.644532,0 1.019532,-0.48047 0.377929,-0.48047 0.377929,-1.30664 0,-0.8291 -0.377929,-1.30957 -0.375,-0.48047 -1.019532,-0.48047 z m 0,-0.48047 q 0.919922,0 1.470703,0.61817 0.550782,0.61523 0.550782,1.65234 0,1.03418 -0.550782,1.65235 -0.550781,0.61523 -1.470703,0.61523 -0.922851,0 -1.476562,-0.61523 -0.550781,-0.61524 -0.550781,-1.65235 0,-1.03711 0.550781,-1.65234 0.553711,-0.61817 1.476562,-0.61817 z" />
        <path
           id="path259"
           style=""
           d="m 45.569336,285.62598 2.513672,0 0,0.49804 -1.921875,0 0,1.28907 1.734375,0 0,0.49804 -1.734375,0 0,2.08887 -0.591797,0 0,-4.37402 z" />
        <path
           id="path261"
           style=""
           d="m 49.026367,285.62598 2.513672,0 0,0.49804 -1.921875,0 0,1.28907 1.734375,0 0,0.49804 -1.734375,0 0,2.08887 -0.591797,0 0,-4.37402 z" />
      </g>
      <g
         id="text92"
         style="text-anchor:end">
        <path
           id="path264"
           style="text-anchor:end"
           d="m 41.703125,292.62598 0.597656,0 0.919922,3.69726 0.916992,-3.69726 0.665039,0 0.919922,3.69726 0.916992,-3.69726 0.600586,0 -1.098632,4.37402 -0.744141,0 -0.922852,-3.79688 -0.93164,3.79688 -0.744141,0 -1.095703,-4.37402 z" />
        <path
           id="path266"
           style="text-anchor:end"
           d="m 48.022461,292.62598 0.591797,0 0,4.37402 -0.591797,0 0,-4.37402 z" />
        <path
           id="path268"
           style="text-anchor:end"
           d="m 50.383789,293.1123 0,3.40137 0.714844,0 q 0.905273,0 1.324219,-0.41015 0.421875,-0.41016 0.421875,-1.29493 0,-0.8789 -0.421875,-1.28613 -0.418946,-0.41016 -1.324219,-0.41016 l -0.714844,0 z m -0.591797,-0.48632 1.21582,0 q 1.271485,0 1.866211,0.53027 0.594727,0.52734 0.594727,1.65234 0,1.13086 -0.597656,1.66114 Q 52.273437,297 51.007812,297 l -1.21582,0 0,-4.37402 z" />
        <path
           id="path270"
           style="text-anchor:end"
           d="m 53.802734,292.62598 3.700196,0 0,0.49804 -1.552735,0 0,3.87598 -0.594726,0 0,-3.87598 -1.552735,0 0,-0.49804 z" />
        <path
           id="path272"
           style="text-anchor:end"
           d="m 58.077148,292.62598 0.591797,0 0,1.79297 2.150391,0 0,-1.79297 0.591797,0 0,4.37402 -0.591797,0 0,-2.08301 -2.150391,0 0,2.08301 -0.591797,0 0,-4.37402 z" />
      </g>
      <g
         id="text94"
         style="">
        <path
           id="path275"
           style=""
           d="m 31.864258,343.96289 0,0.62402 q -0.298828,-0.27832 -0.638672,-0.41601 -0.336914,-0.1377 -0.717774,-0.1377 -0.75,0 -1.148437,0.45996 -0.398438,0.45704 -0.398438,1.32422 0,0.86426 0.398438,1.32422 0.398437,0.45703 1.148437,0.45703 0.38086,0 0.717774,-0.13769 0.339844,-0.1377 0.638672,-0.41602 l 0,0.61817 q -0.310547,0.21093 -0.65918,0.3164 -0.345703,0.10547 -0.732422,0.10547 -0.993164,0 -1.564453,-0.60644 -0.571289,-0.60938 -0.571289,-1.66114 0,-1.05468 0.571289,-1.66113 0.571289,-0.60938 1.564453,-0.60938 0.392578,0 0.738281,0.10547 0.348633,0.10254 0.653321,0.31055 z" />
        <path
           id="path277"
           style=""
           d="m 32.716797,343.62598 0.594726,0 0,2.65722 q 0,0.70313 0.254883,1.01367 0.254883,0.30762 0.826172,0.30762 0.568359,0 0.823242,-0.30762 0.254883,-0.31054 0.254883,-1.01367 l 0,-2.65722 0.594727,0 0,2.73047 q 0,0.85546 -0.424805,1.29199 -0.421875,0.43652 -1.248047,0.43652 -0.829101,0 -1.253906,-0.43652 -0.421875,-0.43653 -0.421875,-1.29199 l 0,-2.73047 z" />
        <path
           id="path279"
           style=""
           d="m 36.572266,343.62598 3.700195,0 0,0.49804 -1.552734,0 0,3.87598 -0.594727,0 0,-3.87598 -1.552734,0 0,-0.49804 z" />
        <path
           id="path281"
           style=""
           d="m 42.62207,344.02734 q -0.644531,0 -1.02539,0.48047 -0.37793,0.48047 -0.37793,1.30957 0,0.82617 0.37793,1.30664 0.380859,0.48047 1.02539,0.48047 0.644532,0 1.019532,-0.48047 0.377929,-0.48047 0.377929,-1.30664 0,-0.8291 -0.377929,-1.30957 -0.375,-0.48047 -1.019532,-0.48047 z m 0,-0.48047 q 0.919922,0 1.470703,0.61817 0.550782,0.61523 0.550782,1.65234 0,1.03418 -0.550782,1.65235 -0.550781,0.61523 -1.470703,0.61523 -0.922851,0 -1.476562,-0.61523 -0.550781,-0.61524 -0.550781,-1.65235 0,-1.03711 0.550781,-1.65234 0.553711,-0.61817 1.476562,-0.61817 z" />
        <path
           id="path283"
           style=""
           d="m 45.569336,343.62598 2.513672,0 0,0.49804 -1.921875,0 0,1.28907 1.734375,0 0,0.49804 -1.734375,0 0,2.08887 -0.591797,0 0,-4.37402 z" />
        <path
           id="path285"
           style=""
           d="m 49.026367,343.62598 2.513672,0 0,0.49804 -1.921875,0 0,1.28907 1.734375,0 0,0.49804 -1.734375,0 0,2.08887 -0.591797,0 0,-4.37402 z" />
      </g>
      <g
         id="text96"
         style="text-anchor:end">
        <path
           id="path288"
           style="text-anchor:end"
           d="m 41.703125,350.62598 0.597656,0 0.919922,3.69726 0.916992,-3.69726 0.665039,0 0.919922,3.69726 0.916992,-3.69726 0.600586,0 -1.098632,4.37402 -0.744141,0 -0.922852,-3.79688 -0.93164,3.79688 -0.744141,0 -1.095703,-4.37402 z" />
        <path
           id="path290"
           style="text-anchor:end"
           d="m 48.022461,350.62598 0.591797,0 0,4.37402 -0.591797,0 0,-4.37402 z" />
        <path
           id="path292"
           style="text-anchor:end"
           d="m 50.383789,351.1123 0,3.40137 0.714844,0 q 0.905273,0 1.324219,-0.41015 0.421875,-0.41016 0.421875,-1.29493 0,-0.8789 -0.421875,-1.28613 -0.418946,-0.41016 -1.324219,-0.41016 l -0.714844,0 z m -0.591797,-0.48632 1.21582,0 q 1.271485,0 1.866211,0.53027 0.594727,0.52734 0.594727,1.65234 0,1.13086 -0.597656,1.66114 Q 52.273437,355 51.007812,355 l -1.21582,0 0,-4.37402 z" />
        <path
           id="path294"
           style="text-anchor:end"
           d="m 53.802734,350.62598 3.700196,0 0,0.49804 -1.552735,0 0,3.87598 -0.594726,0 0,-3.87598 -1.552735,0 0,-0.49804 z" />
        <path
           id="path296"
           style="text-anchor:end"
           d="m 58.077148,350.62598 0.591797,0 0,1.79297 2.150391,0 0,-1.79297 0.591797,0 0,4.37402 -0.591797,0 0,-2.08301 -2.150391,0 0,2.08301 -0.591797,0 0,-4.37402 z" />
      </g>
    </g>
  </g>
</svg>
