<?xml version="1.0" encoding="UTF-8" standalone="no"?>
<svg
   xmlns:dc="http://purl.org/dc/elements/1.1/"
   xmlns:cc="http://creativecommons.org/ns#"
   xmlns:rdf="http://www.w3.org/1999/02/22-rdf-syntax-ns#"
   xmlns:svg="http://www.w3.org/2000/svg"
   xmlns="http://www.w3.org/2000/svg"
   version="1.1"
   id="svg2"
   height="380px"
   width="90px">
  <metadata
     id="metadata46">
    <rdf:RDF>
      <cc:Work
         rdf:about="">
        <dc:format>image/svg+xml</dc:format>
        <dc:type
           rdf:resource="http://purl.org/dc/dcmitype/StillImage" />
      </cc:Work>
    </rdf:RDF>
  </metadata>
  <defs
     id="defs44" />
  <g
     id="background">
    <path
       id="rect4255"
       d="m 0,0 90,0 0,380 -90,0 z"
       style="fill:#294f77;stroke:none" />
    <path
       id="path4656"
       d="M 0,380 0,0 90,0 89,1 1,1 1,379 Z"
       style="fill:#3a6ea5;fill-rule:nonzero;stroke:none" />
    <path
       id="path4658"
       d="m 0,380 90,0 0,-380 -1,1 0,378 -88,0 z"
       style="fill:#182d44;fill-rule:nonzero;stroke:none" />
  </g>
  <g
     style="font-size:12px;font-family:'DejaVu Sans';fill:#719fcf"
     font-size="12"
     id="logo">
    <path
       id="path4136"
       d="m 79.35391,366 a 1.9846094,2.2519786 0 0 0 -1.98465,2.25192 1.9846094,2.2519786 0 0 0 0.0588,0.53167 A 8.1692063,5.1693144 0 0 0 71,373.83071 8.1692063,5.1693144 0 0 0 79.16915,379 8.1692063,5.1693144 0 0 0 86.48278,376.11985 3.0461447,4.2480502 0 0 0 89,377.97641 l 0,-2.35772 A 1.3384576,1.9448905 0 0 1 87.7077,373.67718 1.3384576,1.9448905 0 0 1 89,371.73455 l 0,-2.25416 a 3.0461447,4.2480502 0 0 0 -2.57413,1.97944 8.1692063,5.1693144 0 0 0 -7.25672,-2.79842 8.1692063,5.1693144 0 0 0 -0.37318,0.0119 1.7538409,2.0472531 0 0 1 0.69638,-1.00162 l 0,-1.66609 A 1.9846094,2.2519786 0 0 0 79.35391,366 Z m -3.27707,5.83461 a 1.6615335,1.8425278 0 0 1 1.66156,1.84257 1.6615335,1.8425278 0 0 1 -1.66156,1.84257 1.6615335,1.8425278 0 0 1 -1.66145,-1.84257 1.6615335,1.8425278 0 0 1 1.66145,-1.84257 z m 3.78465,0.40949 a 1.2923038,1.4330772 0 0 1 1.29231,1.43308 1.2923038,1.4330772 0 0 1 -1.29231,1.43308 1.2923038,1.4330772 0 0 1 -1.2923,-1.43308 1.2923038,1.4330772 0 0 1 1.2923,-1.43308 z m 3.00928,0.38892 a 0.92307415,1.0236265 0 0 1 0.92304,1.02373 0.92307415,1.0236265 0 0 1 -0.92304,1.02359 0.92307415,1.0236265 0 0 1 -0.92317,-1.02359 0.92307415,1.0236265 0 0 1 0.92317,-1.02373 z" />
    <g
       id="text4662"
       style="">
      <path
         id="path50"
         style=""
         d="m 8.3144531,370.63086 0,1.01953 q -0.4570312,-0.23437 -0.9492187,-0.35156 -0.4921875,-0.11719 -1.0195313,-0.11719 -0.8027344,0 -1.2070312,0.24609 -0.3984375,0.2461 -0.3984375,0.73829 0,0.375 0.2871093,0.59179 0.2871094,0.21094 1.1542969,0.4043 l 0.3691406,0.082 q 1.1484375,0.24609 1.6289063,0.69727 0.4863281,0.44531 0.4863281,1.24804 0,0.91407 -0.7265625,1.44727 -0.7207031,0.5332 -1.9863281,0.5332 -0.5273438,0 -1.1015625,-0.10547 -0.5683594,-0.0996 -1.2011719,-0.30468 l 0,-1.11329 q 0.5976563,0.31055 1.1777344,0.46875 0.5800781,0.15235 1.1484375,0.15235 0.7617187,0 1.171875,-0.25781 0.4101562,-0.26368 0.4101562,-0.73829 0,-0.43945 -0.2988281,-0.67382 -0.2929687,-0.23438 -1.2949219,-0.45118 l -0.375,-0.0879 q -1.0019531,-0.21093 -1.4472656,-0.64453 -0.4453125,-0.43945 -0.4453125,-1.20117 0,-0.92578 0.65625,-1.42969 0.65625,-0.5039 1.8632813,-0.5039 0.5976562,0 1.125,0.0879 0.5273437,0.0879 0.9726562,0.26367 z" />
      <path
         id="path52"
         style=""
         d="m 10.277344,374.41016 0,-3.97266 1.078125,0 0,3.93164 q 0,0.93164 0.363281,1.40039 0.363281,0.46289 1.089844,0.46289 0.873047,0 1.376953,-0.55664 0.509766,-0.55664 0.509766,-1.51758 l 0,-3.7207 1.078125,0 0,6.5625 -1.078125,0 0,-1.00781 q -0.392579,0.59765 -0.914063,0.89062 -0.515625,0.28711 -1.201172,0.28711 -1.130859,0 -1.716797,-0.70312 -0.585937,-0.70313 -0.585937,-2.05664 z m 2.71289,-4.13086 0,0 z" />
      <path
         id="path54"
         style=""
         d="m 22.716797,373.72461 q 0,-1.18945 -0.492188,-1.86328 -0.486328,-0.67969 -1.341797,-0.67969 -0.855468,0 -1.347656,0.67969 -0.486328,0.67383 -0.486328,1.86328 0,1.18945 0.486328,1.86914 0.492188,0.67383 1.347656,0.67383 0.855469,0 1.341797,-0.67383 0.492188,-0.67969 0.492188,-1.86914 z m -3.667969,-2.29102 q 0.339844,-0.58593 0.855469,-0.86718 0.521484,-0.28711 1.242187,-0.28711 1.195313,0 1.939453,0.94922 0.75,0.94921 0.75,2.49609 0,1.54687 -0.75,2.49609 -0.74414,0.94922 -1.939453,0.94922 -0.720703,0 -1.242187,-0.28125 -0.515625,-0.28711 -0.855469,-0.87305 l 0,0.98438 -1.083984,0 0,-9.11719 1.083984,0 0,3.55078 z" />
      <path
         id="path56"
         style=""
         d="m 30.732422,371.69727 q 0.404297,-0.72657 0.966797,-1.07227 0.5625,-0.3457 1.324218,-0.3457 1.025391,0 1.582032,0.7207 0.55664,0.71484 0.55664,2.03906 l 0,3.96094 -1.083984,0 0,-3.92578 q 0,-0.94336 -0.333984,-1.40039 -0.333985,-0.45703 -1.019532,-0.45703 -0.83789,0 -1.324218,0.55664 -0.486329,0.55664 -0.486329,1.51758 l 0,3.70898 -1.083984,0 0,-3.92578 q 0,-0.94922 -0.333984,-1.40039 -0.333985,-0.45703 -1.03125,-0.45703 -0.826172,0 -1.3125,0.5625 -0.486328,0.55664 -0.486328,1.51172 l 0,3.70898 -1.083985,0 0,-6.5625 1.083985,0 0,1.01953 q 0.36914,-0.60351 0.884765,-0.89062 0.515625,-0.28711 1.22461,-0.28711 0.714843,0 1.21289,0.36328 0.503906,0.36328 0.744141,1.05469 z" />
      <path
         id="path58"
         style=""
         d="m 40.300781,373.70117 q -1.30664,0 -1.810547,0.29883 -0.503906,0.29883 -0.503906,1.01953 0,0.57422 0.375,0.91406 0.380859,0.33399 1.03125,0.33399 0.896484,0 1.435547,-0.63281 0.544922,-0.63868 0.544922,-1.69336 l 0,-0.24024 -1.072266,0 z m 2.150391,-0.44531 0,3.74414 -1.078125,0 0,-0.99609 q -0.369141,0.59765 -0.919922,0.88476 -0.550781,0.28125 -1.347656,0.28125 -1.007813,0 -1.605469,-0.5625 -0.591797,-0.56836 -0.591797,-1.51758 0,-1.10742 0.738281,-1.66992 0.744141,-0.5625 2.214844,-0.5625 l 1.511719,0 0,-0.10547 q 0,-0.74414 -0.492188,-1.14843 -0.486328,-0.41016 -1.371093,-0.41016 -0.5625,0 -1.095704,0.13476 -0.533203,0.13477 -1.02539,0.4043 l 0,-0.99609 q 0.591797,-0.22852 1.148437,-0.33985 0.556641,-0.11718 1.083985,-0.11718 1.423828,0 2.126953,0.73828 0.703125,0.73828 0.703125,2.23828 z" />
      <path
         id="path60"
         style=""
         d="m 48.480469,371.44531 q -0.181641,-0.10547 -0.398438,-0.15234 -0.210937,-0.0527 -0.46875,-0.0527 -0.914062,0 -1.40625,0.59766 -0.486328,0.5918 -0.486328,1.70508 l 0,3.45703 -1.083984,0 0,-6.5625 1.083984,0 0,1.01953 q 0.339844,-0.59766 0.884766,-0.88476 0.544922,-0.29297 1.324218,-0.29297 0.111329,0 0.246094,0.0176 0.134766,0.0117 0.298828,0.041 l 0.0059,1.10742 z" />
      <path
         id="path62"
         style=""
         d="m 49.623047,370.4375 1.078125,0 0,6.5625 -1.078125,0 0,-6.5625 z m 0,-2.55469 1.078125,0 0,1.36524 -1.078125,0 0,-1.36524 z" />
      <path
         id="path64"
         style=""
         d="m 58.40625,373.03906 0,3.96094 -1.078125,0 0,-3.92578 q 0,-0.93164 -0.363281,-1.39453 -0.363282,-0.46289 -1.089844,-0.46289 -0.873047,0 -1.376953,0.55664 -0.503906,0.55664 -0.503906,1.51758 l 0,3.70898 -1.083985,0 0,-6.5625 1.083985,0 0,1.01953 q 0.386718,-0.5918 0.908203,-0.88476 0.527343,-0.29297 1.21289,-0.29297 1.13086,0 1.710938,0.70312 0.580078,0.69727 0.580078,2.05664 z" />
      <path
         id="path66"
         style=""
         d="m 66.181641,373.44922 0,0.52734 -4.957032,0 q 0.07031,1.11328 0.667969,1.69922 0.603516,0.58008 1.675781,0.58008 0.621094,0 1.201172,-0.15234 0.585938,-0.15235 1.160156,-0.45704 l 0,1.01954 q -0.580078,0.24609 -1.189453,0.375 -0.609375,0.1289 -1.236328,0.1289 -1.570312,0 -2.490234,-0.91406 -0.914063,-0.91406 -0.914063,-2.47266 0,-1.61133 0.867188,-2.55468 0.873047,-0.94922 2.349609,-0.94922 1.324219,0 2.091797,0.85547 0.773438,0.8496 0.773438,2.31445 z m -1.078125,-0.31641 q -0.01172,-0.88476 -0.498047,-1.41211 -0.480469,-0.52734 -1.277344,-0.52734 -0.902344,0 -1.447266,0.50976 -0.539062,0.50977 -0.621093,1.43555 l 3.84375,-0.006 z" />
    </g>
    <g
       id="text11"
       style="text-anchor:middle">
      <path
         id="path69"
         style="text-anchor:middle"
         d="m 24.210937,3.2519531 7.400391,0 0,0.9960938 -3.105469,0 0,7.7519531 -1.189453,0 0,-7.7519531 -3.105469,0 0,-0.9960938 z" />
      <path
         id="path71"
         style="text-anchor:middle"
         d="m 32.759766,3.2519531 5.027343,0 0,0.9960938 -3.84375,0 0,2.578125 3.46875,0 0,0.9960937 -3.46875,0 0,4.1777344 -1.183593,0 0,-8.7480469 z" />
      <path
         id="path73"
         style="text-anchor:middle"
         d="m 39.082031,8.2324219 3.158203,0 0,0.9609375 -3.158203,0 0,-0.9609375 z" />
      <path
         id="path75"
         style="text-anchor:middle"
         d="m 44.320312,11.003906 1.933594,0 0,-6.6738279 -2.103515,0.421875 0,-1.078125 2.091796,-0.421875 1.183594,0 0,7.7519529 1.933594,0 0,0.996094 -5.039063,0 0,-0.996094 z" />
      <path
         id="path77"
         style="text-anchor:middle"
         d="m 54.287109,4.03125 q -0.914062,0 -1.376953,0.9023437 -0.457031,0.8964844 -0.457031,2.7011719 0,1.7988282 0.457031,2.7011724 0.462891,0.896484 1.376953,0.896484 0.919922,0 1.376953,-0.896484 0.462891,-0.9023442 0.462891,-2.7011724 0,-1.8046875 -0.462891,-2.7011719 Q 55.207031,4.03125 54.287109,4.03125 Z m 0,-0.9375 q 1.470703,0 2.244141,1.1660156 0.779297,1.1601563 0.779297,3.375 0,2.2089844 -0.779297,3.3750004 -0.773438,1.160156 -2.244141,1.160156 -1.470703,0 -2.25,-1.160156 -0.773437,-1.166016 -0.773437,-3.3750004 0,-2.2148437 0.773437,-3.375 0.779297,-1.1660156 2.25,-1.1660156 z" />
      <path
         id="path79"
         style="text-anchor:middle"
         d="m 59.601562,11.003906 1.933594,0 0,-6.6738279 -2.103515,0.421875 0,-1.078125 2.091796,-0.421875 1.183594,0 0,7.7519529 1.933594,0 0,0.996094 -5.039063,0 0,-0.996094 z" />
    </g>
  </g>
  <g
     style="font-size:8px;font-family:'DejaVu Sans';fill:none;stroke:#ffffff;stroke-width:1;stroke-linecap:round;stroke-linejoin:round"
     font-size="8"
     id="group1">
    <path
       id="line14"
       d="m 4,47.5 82,0"
       style="" />
    <path
       id="line16"
       d="m 4,181.5 82,0"
       style="" />
    <path
       id="line18"
       d="m 4,315.5 82,0"
       style="" />
    <g
       style="fill:#ffffff;stroke:none"
       id="g20">
      <g
         id="text22"
         style="text-anchor:end">
        <path
           id="path85"
           style="text-anchor:end"
           d="m 45.105469,29.703125 q -0.859375,0 -1.367188,0.640625 -0.503906,0.640625 -0.503906,1.746094 0,1.101562 0.503906,1.742187 0.507813,0.640625 1.367188,0.640625 0.859375,0 1.359375,-0.640625 0.503906,-0.640625 0.503906,-1.742187 0,-1.105469 -0.503906,-1.746094 -0.5,-0.640625 -1.359375,-0.640625 z m 0,-0.640625 q 1.226562,0 1.960937,0.824219 0.734375,0.820312 0.734375,2.203125 0,1.378906 -0.734375,2.203125 -0.734375,0.820312 -1.960937,0.820312 -1.230469,0 -1.96875,-0.820312 -0.734375,-0.820313 -0.734375,-2.203125 0,-1.382813 0.734375,-2.203125 Q 43.875,29.0625 45.105469,29.0625 Z" />
        <path
           id="path87"
           style="text-anchor:end"
           d="m 48.945312,29.167969 0.792969,0 0,3.542968 q 0,0.9375 0.339844,1.351563 0.339844,0.410156 1.101562,0.410156 0.757813,0 1.097657,-0.410156 0.339843,-0.414063 0.339843,-1.351563 l 0,-3.542968 0.792969,0 0,3.640625 q 0,1.140625 -0.566406,1.722656 -0.5625,0.582031 -1.664063,0.582031 -1.105468,0 -1.671875,-0.582031 -0.5625,-0.582031 -0.5625,-1.722656 l 0,-3.640625 z" />
        <path
           id="path89"
           style="text-anchor:end"
           d="m 54.085937,29.167969 4.933594,0 0,0.664062 -2.070312,0 0,5.167969 -0.792969,0 0,-5.167969 -2.070313,0 0,-0.664062 z" />
      </g>
      <g
         id="text24"
         style="text-anchor:middle">
        <path
           id="path92"
           style="text-anchor:middle"
           d="m 26.988281,51.167969 3.351563,0 0,0.664062 -2.5625,0 0,1.71875 2.3125,0 0,0.664063 -2.3125,0 0,2.785156 -0.789063,0 0,-5.832031 z" />
        <path
           id="path94"
           style="text-anchor:middle"
           d="m 33.964844,51.703125 q -0.859375,0 -1.367188,0.640625 -0.503906,0.640625 -0.503906,1.746094 0,1.101562 0.503906,1.742187 0.507813,0.640625 1.367188,0.640625 0.859375,0 1.359375,-0.640625 0.503906,-0.640625 0.503906,-1.742187 0,-1.105469 -0.503906,-1.746094 -0.5,-0.640625 -1.359375,-0.640625 z m 0,-0.640625 q 1.226562,0 1.960937,0.824219 0.734375,0.820312 0.734375,2.203125 0,1.378906 -0.734375,2.203125 -0.734375,0.820312 -1.960937,0.820312 -1.230469,0 -1.96875,-0.820312 -0.734375,-0.820313 -0.734375,-2.203125 0,-1.382813 0.734375,-2.203125 0.738281,-0.824219 1.96875,-0.824219 z" />
        <path
           id="path96"
           style="text-anchor:middle"
           d="m 40.660156,54.265625 q 0.253906,0.08594 0.492188,0.367187 0.242187,0.28125 0.484375,0.773438 L 42.4375,57 41.589844,57 40.84375,55.503906 q -0.289063,-0.585937 -0.5625,-0.777344 -0.269531,-0.191406 -0.738281,-0.191406 l -0.859375,0 0,2.464844 -0.789063,0 0,-5.832031 1.78125,0 q 1,0 1.492188,0.417968 0.492187,0.417969 0.492187,1.261719 0,0.550781 -0.257812,0.914063 -0.253907,0.363281 -0.742188,0.503906 z m -1.976562,-2.449219 0,2.070313 0.992187,0 q 0.570313,0 0.859375,-0.261719 0.292969,-0.265625 0.292969,-0.777344 0,-0.511719 -0.292969,-0.769531 -0.289062,-0.261719 -0.859375,-0.261719 l -0.992187,0 z" />
        <path
           id="path98"
           style="text-anchor:middle"
           d="m 43.457031,51.167969 3.6875,0 0,0.664062 -2.898437,0 0,1.726563 2.777343,0 0,0.664062 -2.777343,0 0,2.113281 2.96875,0 0,0.664063 -3.757813,0 0,-5.832031 z" />
        <path
           id="path100"
           style="text-anchor:middle"
           d="m 52.496094,56.167969 0,-1.566407 -1.289063,0 0,-0.648437 2.070313,0 0,2.503906 q -0.457032,0.324219 -1.007813,0.492188 -0.550781,0.164062 -1.175781,0.164062 -1.367188,0 -2.140625,-0.796875 -0.769531,-0.800781 -0.769531,-2.226562 0,-1.429688 0.769531,-2.226563 0.773437,-0.800781 2.140625,-0.800781 0.570312,0 1.082031,0.140625 0.515625,0.140625 0.949219,0.414062 l 0,0.839844 q -0.4375,-0.371094 -0.929688,-0.558594 -0.492187,-0.1875 -1.035156,-0.1875 -1.070312,0 -1.609375,0.597657 -0.535156,0.597656 -0.535156,1.78125 0,1.179687 0.535156,1.777343 0.539063,0.597657 1.609375,0.597657 0.417969,0 0.746094,-0.07031 0.328125,-0.07422 0.589844,-0.226562 z" />
        <path
           id="path102"
           style="text-anchor:middle"
           d="m 57.488281,54.265625 q 0.253906,0.08594 0.492188,0.367187 0.242187,0.28125 0.484375,0.773438 L 59.265625,57 58.417969,57 57.671875,55.503906 q -0.289063,-0.585937 -0.5625,-0.777344 -0.269531,-0.191406 -0.738281,-0.191406 l -0.859375,0 0,2.464844 -0.789063,0 0,-5.832031 1.78125,0 q 1,0 1.492188,0.417968 0.492187,0.417969 0.492187,1.261719 0,0.550781 -0.257812,0.914063 -0.253907,0.363281 -0.742188,0.503906 z m -1.976562,-2.449219 0,2.070313 0.992187,0 q 0.570313,0 0.859375,-0.261719 0.292969,-0.265625 0.292969,-0.777344 0,-0.511719 -0.292969,-0.769531 -0.289062,-0.261719 -0.859375,-0.261719 l -0.992187,0 z" />
        <path
           id="path104"
           style="text-anchor:middle"
           d="m 62.652344,51.703125 q -0.859375,0 -1.367188,0.640625 -0.503906,0.640625 -0.503906,1.746094 0,1.101562 0.503906,1.742187 0.507813,0.640625 1.367188,0.640625 0.859375,0 1.359375,-0.640625 0.503906,-0.640625 0.503906,-1.742187 0,-1.105469 -0.503906,-1.746094 -0.5,-0.640625 -1.359375,-0.640625 z m 0,-0.640625 q 1.226562,0 1.960937,0.824219 0.734375,0.820312 0.734375,2.203125 0,1.378906 -0.734375,2.203125 -0.734375,0.820312 -1.960937,0.820312 -1.230469,0 -1.96875,-0.820312 -0.734375,-0.820313 -0.734375,-2.203125 0,-1.382813 0.734375,-2.203125 0.738281,-0.824219 1.96875,-0.824219 z" />
        <path
           id="path106"
           style="text-anchor:middle"
           d="m 66.492187,51.167969 0.792969,0 0,3.542968 q 0,0.9375 0.339844,1.351563 0.339844,0.410156 1.101562,0.410156 0.757813,0 1.097657,-0.410156 0.339843,-0.414063 0.339843,-1.351563 l 0,-3.542968 0.792969,0 0,3.640625 q 0,1.140625 -0.566406,1.722656 -0.5625,0.582031 -1.664063,0.582031 -1.105468,0 -1.671875,-0.582031 -0.5625,-0.582031 -0.5625,-1.722656 l 0,-3.640625 z" />
        <path
           id="path108"
           style="text-anchor:middle"
           d="m 72.441406,51.167969 1.0625,0 2.585938,4.878906 0,-4.878906 0.765625,0 0,5.832031 -1.0625,0 -2.585938,-4.878906 0,4.878906 -0.765625,0 0,-5.832031 z" />
        <path
           id="path110"
           style="text-anchor:middle"
           d="m 79.214844,51.816406 0,4.535156 0.953125,0 q 1.207031,0 1.765625,-0.546875 0.5625,-0.546875 0.5625,-1.726562 0,-1.171875 -0.5625,-1.714844 Q 81.375,51.816406 80.167969,51.816406 l -0.953125,0 z m -0.789063,-0.648437 1.621094,0 q 1.695312,0 2.488281,0.707031 0.792969,0.703125 0.792969,2.203125 0,1.507812 -0.796875,2.214844 Q 81.734375,57 80.046875,57 l -1.621094,0 0,-5.832031 z" />
      </g>
      <g
         id="text26"
         style="text-anchor:middle">
        <path
           id="path113"
           style="text-anchor:middle"
           d="m 27.714844,188.21484 0,2.13672 1.265625,0 q 0.636718,0 0.941406,-0.26172 0.308594,-0.26562 0.308594,-0.80859 0,-0.54688 -0.308594,-0.80469 -0.304688,-0.26172 -0.941406,-0.26172 l -1.265625,0 z m 0,-2.39843 0,1.75781 1.167968,0 q 0.578125,0 0.859375,-0.21485 0.285157,-0.21875 0.285157,-0.66406 0,-0.4414 -0.285157,-0.66015 -0.28125,-0.21875 -0.859375,-0.21875 l -1.167968,0 z m -0.789063,-0.64844 2.015625,0 q 0.902344,0 1.390625,0.375 0.488281,0.375 0.488281,1.0664 0,0.53516 -0.25,0.85157 -0.25,0.3164 -0.734375,0.39453 0.582032,0.125 0.902344,0.52344 0.324219,0.39453 0.324219,0.98828 0,0.78125 -0.53125,1.20703 Q 30,191 29.019531,191 l -2.09375,0 0,-5.83203 z" />
        <path
           id="path115"
           style="text-anchor:middle"
           d="m 34.359375,185.94531 -1.070313,2.90235 2.144532,0 -1.074219,-2.90235 z m -0.445313,-0.77734 0.894532,0 2.222656,5.83203 -0.820313,0 -0.53125,-1.49609 -2.628906,0 -0.53125,1.49609 -0.832031,0 2.226562,-5.83203 z" />
        <path
           id="path117"
           style="text-anchor:middle"
           d="m 42.105469,185.61719 0,0.83203 q -0.398438,-0.3711 -0.851563,-0.55469 -0.449219,-0.18359 -0.957031,-0.18359 -1,0 -1.53125,0.61328 -0.53125,0.60937 -0.53125,1.76562 0,1.15235 0.53125,1.76563 0.53125,0.60937 1.53125,0.60937 0.507812,0 0.957031,-0.18359 0.453125,-0.18359 0.851563,-0.55469 l 0,0.82422 q -0.414063,0.28125 -0.878907,0.42188 -0.460937,0.14062 -0.976562,0.14062 -1.324219,0 -2.085938,-0.80859 -0.761718,-0.8125 -0.761718,-2.21485 0,-1.40625 0.761718,-2.21484 0.761719,-0.8125 2.085938,-0.8125 0.523437,0 0.984375,0.14062 0.464844,0.13672 0.871094,0.41407 z" />
        <path
           id="path119"
           style="text-anchor:middle"
           d="m 43.332031,185.16797 0.789063,0 0,2.46484 2.617187,-2.46484 1.015625,0 -2.894531,2.71875 3.101562,3.11328 -1.039062,0 -2.800781,-2.80859 0,2.80859 -0.789063,0 0,-5.83203 z" />
        <path
           id="path121"
           style="text-anchor:middle"
           d="m 52.558594,190.16797 0,-1.56641 -1.289063,0 0,-0.64844 2.070313,0 0,2.50391 q -0.457032,0.32422 -1.007813,0.49219 -0.550781,0.16406 -1.175781,0.16406 -1.367188,0 -2.140625,-0.79687 -0.769531,-0.80079 -0.769531,-2.22657 0,-1.42968 0.769531,-2.22656 0.773437,-0.80078 2.140625,-0.80078 0.570312,0 1.082031,0.14062 0.515625,0.14063 0.949219,0.41407 l 0,0.83984 q -0.4375,-0.37109 -0.929688,-0.55859 -0.492187,-0.1875 -1.035156,-0.1875 -1.070312,0 -1.609375,0.59765 -0.535156,0.59766 -0.535156,1.78125 0,1.17969 0.535156,1.77735 0.539063,0.59765 1.609375,0.59765 0.417969,0 0.746094,-0.0703 0.328125,-0.0742 0.589844,-0.22656 z" />
        <path
           id="path123"
           style="text-anchor:middle"
           d="m 57.550781,188.26562 q 0.253906,0.0859 0.492188,0.36719 0.242187,0.28125 0.484375,0.77344 L 59.328125,191 l -0.847656,0 -0.746094,-1.49609 q -0.289063,-0.58594 -0.5625,-0.77735 -0.269531,-0.1914 -0.738281,-0.1914 l -0.859375,0 0,2.46484 -0.789063,0 0,-5.83203 1.78125,0 q 1,0 1.492188,0.41797 0.492187,0.41797 0.492187,1.26172 0,0.55078 -0.257812,0.91406 -0.253907,0.36328 -0.742188,0.5039 z m -1.976562,-2.44921 0,2.07031 0.992187,0 q 0.570313,0 0.859375,-0.26172 0.292969,-0.26563 0.292969,-0.77734 0,-0.51172 -0.292969,-0.76954 -0.289062,-0.26171 -0.859375,-0.26171 l -0.992187,0 z" />
        <path
           id="path125"
           style="text-anchor:middle"
           d="m 62.714844,185.70312 q -0.859375,0 -1.367188,0.64063 -0.503906,0.64062 -0.503906,1.74609 0,1.10157 0.503906,1.74219 0.507813,0.64063 1.367188,0.64063 0.859375,0 1.359375,-0.64063 0.503906,-0.64062 0.503906,-1.74219 0,-1.10547 -0.503906,-1.74609 -0.5,-0.64063 -1.359375,-0.64063 z m 0,-0.64062 q 1.226562,0 1.960937,0.82422 0.734375,0.82031 0.734375,2.20312 0,1.37891 -0.734375,2.20313 -0.734375,0.82031 -1.960937,0.82031 -1.230469,0 -1.96875,-0.82031 -0.734375,-0.82031 -0.734375,-2.20313 0,-1.38281 0.734375,-2.20312 0.738281,-0.82422 1.96875,-0.82422 z" />
        <path
           id="path127"
           style="text-anchor:middle"
           d="m 66.554687,185.16797 0.792969,0 0,3.54297 q 0,0.9375 0.339844,1.35156 0.339844,0.41016 1.101562,0.41016 0.757813,0 1.097657,-0.41016 0.339843,-0.41406 0.339843,-1.35156 l 0,-3.54297 0.792969,0 0,3.64062 q 0,1.14063 -0.566406,1.72266 -0.5625,0.58203 -1.664063,0.58203 -1.105468,0 -1.671875,-0.58203 -0.5625,-0.58203 -0.5625,-1.72266 l 0,-3.64062 z" />
        <path
           id="path129"
           style="text-anchor:middle"
           d="m 72.503906,185.16797 1.0625,0 2.585938,4.8789 0,-4.8789 0.765625,0 0,5.83203 -1.0625,0 -2.585938,-4.87891 0,4.87891 -0.765625,0 0,-5.83203 z" />
        <path
           id="path131"
           style="text-anchor:middle"
           d="m 79.277344,185.81641 0,4.53515 0.953125,0 q 1.207031,0 1.765625,-0.54687 0.5625,-0.54688 0.5625,-1.72657 0,-1.17187 -0.5625,-1.71484 -0.558594,-0.54687 -1.765625,-0.54687 l -0.953125,0 z m -0.789063,-0.64844 1.621094,0 q 1.695312,0 2.488281,0.70703 0.792969,0.70312 0.792969,2.20312 0,1.50782 -0.796875,2.21485 Q 81.796875,191 80.109375,191 l -1.621094,0 0,-5.83203 z" />
      </g>
      <g
         id="text28"
         style="text-anchor:middle">
        <path
           id="path134"
           style="text-anchor:middle"
           d="m 34.8125,319.16797 4.933594,0 0,0.66406 -2.070313,0 0,5.16797 -0.792969,0 0,-5.16797 -2.070312,0 0,-0.66406 z" />
        <path
           id="path136"
           style="text-anchor:middle"
           d="m 40.511719,319.16797 3.6875,0 0,0.66406 -2.898438,0 0,1.72656 2.777344,0 0,0.66407 -2.777344,0 0,2.11328 2.96875,0 0,0.66406 -3.757812,0 0,-5.83203 z" />
        <path
           id="path138"
           style="text-anchor:middle"
           d="m 45.292969,319.16797 0.847656,0 1.449219,2.16797 1.457031,-2.16797 0.847656,0 -1.875,2.80078 2,3.03125 -0.847656,0 -1.640625,-2.48047 -1.652344,2.48047 -0.851562,0 2.082031,-3.11328 -1.816406,-2.71875 z" />
        <path
           id="path140"
           style="text-anchor:middle"
           d="m 50.109375,319.16797 4.933594,0 0,0.66406 -2.070313,0 0,5.16797 -0.792969,0 0,-5.16797 -2.070312,0 0,-0.66406 z" />
        <path
           id="path142"
           style="text-anchor:middle"
           d="m 54.679687,322.48828 2.105469,0 0,0.64063 -2.105469,0 0,-0.64063 z" />
        <path
           id="path144"
           style="text-anchor:middle"
           d="m 61.460937,319.35937 0,0.76954 q -0.449218,-0.21485 -0.847656,-0.32032 -0.398437,-0.10547 -0.769531,-0.10547 -0.644531,0 -0.996094,0.25 -0.347656,0.25 -0.347656,0.71094 0,0.38672 0.230469,0.58594 0.234375,0.19531 0.882812,0.31641 l 0.476563,0.0976 q 0.882812,0.16797 1.300781,0.59375 0.421875,0.42188 0.421875,1.13281 0,0.84766 -0.570313,1.28516 -0.566406,0.4375 -1.664062,0.4375 -0.414063,0 -0.882813,-0.0937 -0.464843,-0.0937 -0.964843,-0.27734 l 0,-0.8125 q 0.480468,0.26953 0.941406,0.40625 0.460937,0.13672 0.90625,0.13672 0.675781,0 1.042969,-0.26563 0.367187,-0.26562 0.367187,-0.75781 0,-0.42969 -0.265625,-0.67188 -0.261719,-0.24218 -0.863281,-0.36328 l -0.480469,-0.0937 q -0.882812,-0.17578 -1.277344,-0.55078 -0.394531,-0.375 -0.394531,-1.04297 0,-0.77344 0.542969,-1.21875 0.546875,-0.44531 1.503906,-0.44531 0.410156,0 0.835938,0.0742 0.425781,0.0742 0.871093,0.22265 z" />
        <path
           id="path146"
           style="text-anchor:middle"
           d="m 63.042969,319.16797 0.789062,0 0,5.83203 -0.789062,0 0,-5.83203 z" />
        <path
           id="path148"
           style="text-anchor:middle"
           d="m 65.066406,319.16797 4.582031,0 0,0.60156 -3.6875,4.56641 3.777344,0 0,0.66406 -4.761719,0 0,-0.60156 3.6875,-4.56641 -3.597656,0 0,-0.66406 z" />
        <path
           id="path150"
           style="text-anchor:middle"
           d="m 70.886719,319.16797 3.6875,0 0,0.66406 -2.898438,0 0,1.72656 2.777344,0 0,0.66407 -2.777344,0 0,2.11328 2.96875,0 0,0.66406 -3.757812,0 0,-5.83203 z" />
      </g>
      <g
         id="text30"
         style="text-anchor:middle">
        <path
           id="path153"
           style="text-anchor:middle"
           d="m 38.769531,79.265625 q 0.253906,0.08594 0.492188,0.367187 0.242187,0.28125 0.484375,0.773438 L 40.546875,82 39.699219,82 38.953125,80.503906 q -0.289063,-0.585937 -0.5625,-0.777344 -0.269531,-0.191406 -0.738281,-0.191406 l -0.859375,0 0,2.464844 -0.789063,0 0,-5.832031 1.78125,0 q 1,0 1.492188,0.417968 0.492187,0.417969 0.492187,1.261719 0,0.550781 -0.257812,0.914063 -0.253907,0.363281 -0.742188,0.503906 z m -1.976562,-2.449219 0,2.070313 0.992187,0 q 0.570313,0 0.859375,-0.261719 0.292969,-0.265625 0.292969,-0.777344 0,-0.511719 -0.292969,-0.769531 -0.289062,-0.261719 -0.859375,-0.261719 l -0.992187,0 z" />
      </g>
      <g
         id="text32"
         style="text-anchor:middle">
        <path
           id="path156"
           style="text-anchor:middle"
           d="m 39.660156,121.16797 0,-1.56641 -1.289062,0 0,-0.64843 2.070312,0 0,2.5039 q -0.457031,0.32422 -1.007812,0.49219 -0.550782,0.16406 -1.175782,0.16406 -1.367187,0 -2.140625,-0.79687 -0.769531,-0.80078 -0.769531,-2.22657 0,-1.42968 0.769531,-2.22656 0.773438,-0.80078 2.140625,-0.80078 0.570313,0 1.082032,0.14063 0.515625,0.14062 0.949218,0.41406 l 0,0.83984 q -0.4375,-0.37109 -0.929687,-0.55859 -0.492188,-0.1875 -1.035156,-0.1875 -1.070313,0 -1.609375,0.59765 -0.535157,0.59766 -0.535157,1.78125 0,1.17969 0.535157,1.77735 0.539062,0.59765 1.609375,0.59765 0.417968,0 0.746093,-0.0703 0.328125,-0.0742 0.589844,-0.22656 z" />
      </g>
      <g
         id="text34"
         style="text-anchor:middle">
        <path
           id="path159"
           style="text-anchor:middle"
           d="m 36.832031,159.21484 0,2.13672 1.265625,0 q 0.636719,0 0.941406,-0.26172 0.308594,-0.26562 0.308594,-0.80859 0,-0.54688 -0.308594,-0.80469 -0.304687,-0.26172 -0.941406,-0.26172 l -1.265625,0 z m 0,-2.39843 0,1.75781 1.167969,0 q 0.578125,0 0.859375,-0.21485 0.285156,-0.21875 0.285156,-0.66406 0,-0.4414 -0.285156,-0.66015 Q 38.578125,156.81641 38,156.81641 l -1.167969,0 z m -0.789062,-0.64844 2.015625,0 q 0.902343,0 1.390625,0.375 0.488281,0.375 0.488281,1.0664 0,0.53516 -0.25,0.85157 -0.25,0.3164 -0.734375,0.39453 0.582031,0.125 0.902344,0.52344 0.324218,0.39453 0.324218,0.98828 0,0.78125 -0.53125,1.20703 Q 39.117187,162 38.136719,162 l -2.09375,0 0,-5.83203 z" />
      </g>
      <g
         id="text36"
         style="text-anchor:middle">
        <path
           id="path162"
           style="text-anchor:middle"
           d="m 38.769531,213.26562 q 0.253906,0.0859 0.492188,0.36719 0.242187,0.28125 0.484375,0.77344 L 40.546875,216 l -0.847656,0 -0.746094,-1.49609 q -0.289063,-0.58594 -0.5625,-0.77735 -0.269531,-0.1914 -0.738281,-0.1914 l -0.859375,0 0,2.46484 -0.789063,0 0,-5.83203 1.78125,0 q 1,0 1.492188,0.41797 0.492187,0.41797 0.492187,1.26172 0,0.55078 -0.257812,0.91406 -0.253907,0.36328 -0.742188,0.5039 z m -1.976562,-2.44921 0,2.07031 0.992187,0 q 0.570313,0 0.859375,-0.26172 0.292969,-0.26563 0.292969,-0.77734 0,-0.51172 -0.292969,-0.76954 -0.289062,-0.26171 -0.859375,-0.26171 l -0.992187,0 z" />
      </g>
      <g
         id="text38"
         style="text-anchor:middle">
        <path
           id="path165"
           style="text-anchor:middle"
           d="m 39.660156,255.16797 0,-1.56641 -1.289062,0 0,-0.64844 2.070312,0 0,2.50391 q -0.457031,0.32422 -1.007812,0.49219 -0.550782,0.16406 -1.175782,0.16406 -1.367187,0 -2.140625,-0.79687 -0.769531,-0.80079 -0.769531,-2.22657 0,-1.42968 0.769531,-2.22656 0.773438,-0.80078 2.140625,-0.80078 0.570313,0 1.082032,0.14062 0.515625,0.14063 0.949218,0.41407 l 0,0.83984 q -0.4375,-0.37109 -0.929687,-0.55859 -0.492188,-0.1875 -1.035156,-0.1875 -1.070313,0 -1.609375,0.59765 -0.535157,0.59766 -0.535157,1.78125 0,1.17969 0.535157,1.77735 0.539062,0.59765 1.609375,0.59765 0.417968,0 0.746093,-0.0703 0.328125,-0.0742 0.589844,-0.22656 z" />
      </g>
      <g
         id="text40"
         style="text-anchor:middle">
        <path
           id="path168"
           style="text-anchor:middle"
           d="m 36.832031,293.21484 0,2.13672 1.265625,0 q 0.636719,0 0.941406,-0.26172 0.308594,-0.26562 0.308594,-0.80859 0,-0.54688 -0.308594,-0.80469 -0.304687,-0.26172 -0.941406,-0.26172 l -1.265625,0 z m 0,-2.39843 0,1.75781 1.167969,0 q 0.578125,0 0.859375,-0.21485 0.285156,-0.21875 0.285156,-0.66406 0,-0.4414 -0.285156,-0.66015 Q 38.578125,290.81641 38,290.81641 l -1.167969,0 z m -0.789062,-0.64844 2.015625,0 q 0.902343,0 1.390625,0.375 0.488281,0.375 0.488281,1.0664 0,0.53516 -0.25,0.85157 -0.25,0.3164 -0.734375,0.39453 0.582031,0.125 0.902344,0.52344 0.324218,0.39453 0.324218,0.98828 0,0.78125 -0.53125,1.20703 Q 39.117187,296 38.136719,296 l -2.09375,0 0,-5.83203 z" />
      </g>
    </g>
  </g>
</svg>
