<?xml version="1.0" encoding="UTF-8" standalone="no"?>
<!-- Created with Inkscape (http://www.inkscape.org/) -->

<svg
   xmlns:dc="http://purl.org/dc/elements/1.1/"
   xmlns:cc="http://creativecommons.org/ns#"
   xmlns:rdf="http://www.w3.org/1999/02/22-rdf-syntax-ns#"
   xmlns:svg="http://www.w3.org/2000/svg"
   xmlns="http://www.w3.org/2000/svg"
   xmlns:sodipodi="http://sodipodi.sourceforge.net/DTD/sodipodi-0.dtd"
   xmlns:inkscape="http://www.inkscape.org/namespaces/inkscape"
   width="195.29379"
   height="380.00003"
   viewBox="0 0 51.671483 100.54167"
   version="1.1"
   id="svg8630"
   inkscape:version="0.92.2 (5c3e80d, 2017-08-06)"
   sodipodi:docname="PGOctPanner.svg">
  <defs
     id="defs8624" />
  <sodipodi:namedview
     id="base"
     pagecolor="#ffffff"
     bordercolor="#666666"
     borderopacity="1.0"
     inkscape:pageopacity="0.0"
     inkscape:pageshadow="2"
     inkscape:zoom="1.979899"
     inkscape:cx="103.00805"
     inkscape:cy="185.98498"
     inkscape:document-units="mm"
     inkscape:current-layer="text4686"
     showgrid="false"
     fit-margin-top="0"
     fit-margin-left="0"
     fit-margin-right="0"
     fit-margin-bottom="0"
     units="px"
     inkscape:window-width="1511"
     inkscape:window-height="1008"
     inkscape:window-x="373"
     inkscape:window-y="0"
     inkscape:window-maximized="0"
     showguides="true"
     inkscape:guide-bbox="true">
    <sodipodi:guide
       position="-30.86963,78.176333"
       orientation="0,1"
       id="guide2276"
       inkscape:locked="false" />
  </sodipodi:namedview>
  <metadata
     id="metadata8627">
    <rdf:RDF>
      <cc:Work
         rdf:about="">
        <dc:format>image/svg+xml</dc:format>
        <dc:type
           rdf:resource="http://purl.org/dc/dcmitype/StillImage" />
        <dc:title />
      </cc:Work>
    </rdf:RDF>
  </metadata>
  <g
     inkscape:label="layer 1"
     inkscape:groupmode="layer"
     id="layer1"
     transform="translate(-44.467833,-88.735117)">
    <path
       inkscape:connector-curvature="0"
       id="path33449"
       d="M 44.541176,88.808436 H 96.065974 V 189.20454 H 44.541176 Z m 0,0"
       style="fill:#e6e6e6;fill-opacity:1;fill-rule:nonzero;stroke:none;stroke-width:0.27602378"
       sodipodi:insensitive="true" />
    <g
       id="logo"
       inkscape:label="#g2255"
       transform="translate(11.759859,53.053001)">
      <path
         inkscape:connector-curvature="0"
         id="path3737"
         style="font-style:normal;font-weight:normal;font-size:5.43959379px;line-height:1.25;font-family:sans-serif;letter-spacing:0px;word-spacing:0px;display:inline;fill:#000000;fill-opacity:1;stroke:none;stroke-width:0.13598984"
         d="m 55.047763,130.90923 v 1.43277 h 0.7016 q 0.38947,0 0.60216,-0.18644 0.21269,-0.18643 0.21269,-0.53122 0,-0.34223 -0.21269,-0.52867 -0.21269,-0.18644 -0.60216,-0.18644 z m -0.55797,-0.42396 h 1.25957 q 0.69332,0 1.04688,0.29115 0.35633,0.2886 0.35633,0.84792 0,0.56443 -0.35633,0.85302 -0.35356,0.2886 -1.04688,0.2886 h -0.7016 v 1.53239 h -0.55797 z" />
      <path
         inkscape:connector-curvature="0"
         id="path3739"
         style="font-style:normal;font-weight:normal;font-size:5.43959379px;line-height:1.25;font-family:sans-serif;letter-spacing:0px;word-spacing:0px;display:inline;fill:#000000;fill-opacity:1;stroke:none;stroke-width:0.13598984"
         d="m 60.715833,133.75435 v -1.02414 h -0.91154 v -0.42396 h 1.46398 v 1.63709 q -0.32318,0.21198 -0.71265,0.3218 -0.38947,0.10726 -0.83143,0.10726 -0.96678,0 -1.5137,-0.521 -0.54415,-0.52356 -0.54415,-1.45576 0,-0.93476 0.54415,-1.45576 0.54692,-0.52357 1.5137,-0.52357 0.40328,0 0.76513,0.0919 0.36462,0.0919 0.67122,0.27072 v 0.5491 q -0.30936,-0.24263 -0.6574,-0.36522 -0.34804,-0.12259 -0.73199,-0.12259 -0.75685,0 -1.13804,0.39076 -0.37842,0.39075 -0.37842,1.16461 0,0.77129 0.37842,1.16205 0.38119,0.39076 1.13804,0.39076 0.29556,0 0.52758,-0.046 0.23203,-0.0486 0.4171,-0.14813 z" />
      <path
         inkscape:connector-curvature="0"
         id="path3741"
         style="font-style:normal;font-weight:normal;font-size:5.43959379px;line-height:1.25;font-family:sans-serif;letter-spacing:0px;word-spacing:0px;display:inline;fill:#000000;fill-opacity:1;stroke:none;stroke-width:0.13598984"
         d="m 62.268193,131.4379 h 0.50825 v 2.86045 h -0.50825 z m 0,-1.11353 h 0.50825 v 0.59507 h -0.50825 z" />
    </g>
    <g
       aria-label="QUAD PANNER"
       transform="matrix(0.97416344,0,0,1.0265218,0,-1.5875)"
       style="font-style:normal;font-weight:normal;font-size:4.54266644px;line-height:1.25;font-family:sans-serif;letter-spacing:0px;word-spacing:0px;fill:#000000;fill-opacity:1;stroke:none;stroke-width:0.42587495"
       id="text2270">
      <path
         d="m 72.235814,92.427745 v 1.244354 h 0.563397 q 0.312752,0 0.483545,-0.161922 0.170794,-0.161921 0.170794,-0.461364 0,-0.297225 -0.170794,-0.459147 -0.170793,-0.161921 -0.483545,-0.161921 z m -0.448056,-0.368204 h 1.011453 q 0.556743,0 0.840659,0.252863 0.286135,0.250645 0.286135,0.736409 0,0.4902 -0.286135,0.740845 -0.283916,0.250645 -0.840659,0.250645 h -0.563397 v 1.330859 h -0.448056 z"
         style="stroke-width:0.42587495"
         id="path2331"
         inkscape:connector-curvature="0" />
      <path
         d="m 75.34337,92.500943 -0.607759,1.648047 h 1.217736 z m -0.252863,-0.441402 h 0.507944 l 1.262099,3.311621 h -0.465801 l -0.301661,-0.849531 h -1.492781 l -0.301661,0.849531 H 73.82619 Z"
         style="stroke-width:0.42587495"
         id="path2333"
         inkscape:connector-curvature="0" />
      <path
         d="m 77.341876,92.059541 h 0.603323 l 1.468381,2.770405 v -2.770405 h 0.434748 v 3.311621 h -0.603323 l -1.468382,-2.770405 v 2.770405 h -0.434747 z"
         style="stroke-width:0.42587495"
         id="path2335"
         inkscape:connector-curvature="0" />
      <path
         d="m 80.740004,92.059541 h 0.603323 l 1.468382,2.770405 v -2.770405 h 0.434747 v 3.311621 h -0.603323 l -1.468381,-2.770405 v 2.770405 h -0.434748 z"
         style="stroke-width:0.42587495"
         id="path2337"
         inkscape:connector-curvature="0" />
      <path
         d="m 84.138131,92.059541 h 2.093885 v 0.377077 h -1.645829 v 0.980399 h 1.577068 v 0.377077 h -1.577068 v 1.199992 h 1.685755 v 0.377076 h -2.133811 z"
         style="stroke-width:0.42587495"
         id="path2339"
         inkscape:connector-curvature="0" />
      <path
         d="m 88.583202,93.818493 q 0.144176,0.0488 0.27948,0.208502 0.137522,0.159703 0.275044,0.439183 l 0.454711,0.904984 h -0.481328 l -0.423657,-0.849531 q -0.164139,-0.332715 -0.319406,-0.441402 -0.153049,-0.108687 -0.419221,-0.108687 h -0.487981 v 1.39962 h -0.448056 v -3.311621 h 1.011453 q 0.567833,0 0.847314,0.237336 0.27948,0.237337 0.27948,0.716446 0,0.312752 -0.146395,0.519035 -0.144176,0.206284 -0.421438,0.286135 z m -1.122358,-1.390748 v 1.175593 h 0.563397 q 0.323842,0 0.487982,-0.148613 0.166357,-0.150831 0.166357,-0.441402 0,-0.290571 -0.166357,-0.436965 -0.16414,-0.148613 -0.487982,-0.148613 z"
         style="stroke-width:0.42587495"
         id="path2341"
         inkscape:connector-curvature="0" />
      <g
         aria-label="OCT (8)"
         transform="scale(0.72969808,1.3704298)"
         style="font-style:normal;font-variant:normal;font-weight:normal;font-stretch:normal;font-size:4.8110671px;line-height:1.25;font-family:sans-serif;-inkscape-font-specification:'sans-serif, Normal';font-variant-ligatures:normal;font-variant-caps:normal;font-variant-numeric:normal;font-feature-settings:normal;text-align:start;letter-spacing:0px;word-spacing:0px;writing-mode:lr-tb;text-anchor:start;fill:#000000;fill-opacity:1;stroke:none;stroke-width:0.2561141"
         id="text4624">
        <path
           d="m 80.140617,66.697985 q -0.516814,0 -0.822204,0.385262 -0.30304,0.385261 -0.30304,1.050071 0,0.662462 0.30304,1.047723 0.30539,0.385261 0.822204,0.385261 0.516814,0 0.817506,-0.385261 0.303041,-0.385261 0.303041,-1.047723 0,-0.66481 -0.303041,-1.050071 -0.300692,-0.385262 -0.817506,-0.385262 z m 0,-0.385261 q 0.737635,0 1.179276,0.495672 0.44164,0.493322 0.44164,1.324922 0,0.829252 -0.44164,1.324923 -0.441641,0.493323 -1.179276,0.493323 -0.739983,0 -1.183973,-0.493323 -0.441641,-0.493322 -0.441641,-1.324923 0,-0.8316 0.441641,-1.324922 0.44399,-0.495672 1.183973,-0.495672 z"
           style="stroke-width:0.2561141"
           id="path4626"
           inkscape:connector-curvature="0" />
        <path
           d="m 85.13022,66.646304 v 0.50037 q -0.239614,-0.22317 -0.512116,-0.33358 -0.270152,-0.11041 -0.575542,-0.11041 -0.601384,0 -0.920869,0.368817 -0.319484,0.366468 -0.319484,1.061817 0,0.693001 0.319484,1.061818 0.319485,0.366468 0.920869,0.366468 0.30539,0 0.575542,-0.11041 0.272502,-0.11041 0.512116,-0.33358 v 0.495671 q -0.24901,0.169139 -0.52856,0.253709 -0.2772,0.08457 -0.587288,0.08457 -0.796363,0 -1.254448,-0.486275 -0.458085,-0.488624 -0.458085,-1.331971 0,-0.845695 0.458085,-1.33197 0.458085,-0.488624 1.254448,-0.488624 0.314787,0 0.591987,0.08457 0.279549,0.08222 0.523861,0.24901 z"
           style="stroke-width:0.2561141"
           id="path4628"
           inkscape:connector-curvature="0" />
        <path
           d="m 85.38158,66.376151 h 2.966981 v 0.399357 H 87.10351 v 3.10793 h -0.476879 v -3.10793 H 85.38158 Z"
           style="stroke-width:0.2561141"
           id="path4630"
           inkscape:connector-curvature="0" />
        <path
           d="M 91.360176,66.232853 Q 91.04539,66.773158 90.892695,67.301718 90.74,67.830278 90.74,68.372932 q 0,0.542655 0.152695,1.075913 0.155044,0.530908 0.467481,1.068865 h -0.375864 q -0.352373,-0.552052 -0.52856,-1.085309 -0.173837,-0.533258 -0.173837,-1.059469 0,-0.523861 0.173837,-1.05477 0.173837,-0.530909 0.52856,-1.085309 z"
           style="stroke-width:0.2561141"
           id="path4632"
           inkscape:connector-curvature="0" />
        <path
           d="m 93.277086,68.217888 q -0.338278,0 -0.533258,0.180885 -0.192631,0.180885 -0.192631,0.49802 0,0.317136 0.192631,0.498021 0.19498,0.180885 0.533258,0.180885 0.338278,0 0.533258,-0.180885 0.194979,-0.183234 0.194979,-0.498021 0,-0.317135 -0.194979,-0.49802 -0.192631,-0.180885 -0.533258,-0.180885 z m -0.474529,-0.202027 q -0.30539,-0.07517 -0.476879,-0.284248 -0.169139,-0.209075 -0.169139,-0.509766 0,-0.420499 0.298343,-0.664811 0.300692,-0.244312 0.822204,-0.244312 0.523861,0 0.822204,0.244312 0.298342,0.244312 0.298342,0.664811 0,0.300691 -0.171488,0.509766 -0.169139,0.209075 -0.47218,0.284248 0.342976,0.07987 0.533258,0.312437 0.19263,0.232566 0.19263,0.568495 0,0.509767 -0.312437,0.782269 -0.310088,0.272502 -0.890329,0.272502 -0.580241,0 -0.892679,-0.272502 -0.310088,-0.272502 -0.310088,-0.782269 0,-0.335929 0.192631,-0.568495 0.19263,-0.232566 0.535607,-0.312437 z m -0.173838,-0.74938 q 0,0.272502 0.169139,0.425197 0.171489,0.152695 0.479228,0.152695 0.30539,0 0.476878,-0.152695 0.173837,-0.152695 0.173837,-0.425197 0,-0.272502 -0.173837,-0.425197 -0.171488,-0.152695 -0.476878,-0.152695 -0.307739,0 -0.479228,0.152695 -0.169139,0.152695 -0.169139,0.425197 z"
           style="stroke-width:0.2561141"
           id="path4634"
           inkscape:connector-curvature="0" />
        <path
           d="m 95.196344,66.232853 h 0.375865 q 0.352373,0.5544 0.52621,1.085309 0.176187,0.530909 0.176187,1.05477 0,0.526211 -0.176187,1.059469 -0.173837,0.533257 -0.52621,1.085309 h -0.375865 q 0.312438,-0.537957 0.465133,-1.068865 0.155044,-0.533258 0.155044,-1.075913 0,-0.542654 -0.155044,-1.071214 -0.152695,-0.52856 -0.465133,-1.068865 z"
           style="stroke-width:0.2561141"
           id="path4636"
           inkscape:connector-curvature="0" />
      </g>
      <g
         aria-label="5



6



7



8"
         transform="matrix(1.0265218,0,0,0.97416344,-0.27160056,-1.5464844)"
         style="font-style:normal;font-variant:normal;font-weight:normal;font-stretch:normal;font-size:2.11666679px;line-height:1.25;font-family:sans-serif;-inkscape-font-specification:'sans-serif, Normal';font-variant-ligatures:normal;font-variant-caps:normal;font-variant-numeric:normal;font-feature-settings:normal;text-align:start;letter-spacing:0px;word-spacing:0px;writing-mode:lr-tb;text-anchor:start;fill:#000000;fill-opacity:1;stroke:none;stroke-width:0.11267941"
         id="text4641">
        <path
           d="m 46.968034,148.16173 h 0.819588 v 0.1757 h -0.628385 v 0.37827 q 0.04548,-0.0155 0.09095,-0.0227 0.04548,-0.008 0.09095,-0.008 0.258382,0 0.409277,0.14159 0.150895,0.14159 0.150895,0.38344 0,0.24908 -0.155029,0.38757 -0.155029,0.13746 -0.437183,0.13746 -0.09715,0 -0.198437,-0.0165 -0.100252,-0.0165 -0.207739,-0.0496 v -0.2098 q 0.09302,0.0506 0.192236,0.0754 0.09922,0.0248 0.209806,0.0248 0.178801,0 0.283187,-0.094 0.104386,-0.0941 0.104386,-0.25528 0,-0.16123 -0.104386,-0.25528 -0.104386,-0.0941 -0.283187,-0.0941 -0.08372,0 -0.167431,0.0186 -0.08268,0.0186 -0.169499,0.0579 z"
           style="stroke-width:0.11267941"
           id="path4667"
           inkscape:connector-curvature="0" />
        <path
           d="m 47.438289,158.37505 q -0.140559,0 -0.223242,0.0961 -0.08165,0.0961 -0.08165,0.26355 0,0.1664 0.08165,0.26355 0.08268,0.0961 0.223242,0.0961 0.14056,0 0.222209,-0.0961 0.08268,-0.0971 0.08268,-0.26355 0,-0.16743 -0.08268,-0.26355 -0.08165,-0.0961 -0.222209,-0.0961 z m 0.414445,-0.65422 v 0.19017 q -0.07855,-0.0372 -0.159163,-0.0568 -0.07958,-0.0196 -0.15813,-0.0196 -0.206706,0 -0.31626,0.13952 -0.10852,0.13953 -0.124023,0.42168 0.06098,-0.0899 0.152962,-0.13745 0.09198,-0.0486 0.202572,-0.0486 0.232544,0 0.366902,0.14159 0.135393,0.14056 0.135393,0.38344 0,0.23771 -0.14056,0.38137 -0.14056,0.14366 -0.374138,0.14366 -0.267684,0 -0.409277,-0.20463 -0.141593,-0.20568 -0.141593,-0.59532 0,-0.36587 0.173632,-0.58291 0.173633,-0.21807 0.466122,-0.21807 0.07855,0 0.15813,0.0155 0.08062,0.0155 0.167431,0.0465 z"
           style="stroke-width:0.11267941"
           id="path4669"
           inkscape:connector-curvature="0" />
        <path
           d="m 46.913257,167.21172 h 0.992187 v 0.0889 l -0.560172,1.45418 h -0.218075 l 0.5271,-1.36736 h -0.74104 z"
           style="stroke-width:0.11267941"
           id="path4671"
           inkscape:connector-curvature="0" />
        <path
           d="m 47.412451,178.07617 q -0.148828,0 -0.234611,0.0796 -0.08475,0.0796 -0.08475,0.21911 0,0.13952 0.08475,0.21911 0.08578,0.0796 0.234611,0.0796 0.148828,0 0.234611,-0.0796 0.08578,-0.0806 0.08578,-0.21911 0,-0.13953 -0.08578,-0.21911 -0.08475,-0.0796 -0.234611,-0.0796 z m -0.208773,-0.0889 q -0.134358,-0.0331 -0.209806,-0.12505 -0.07441,-0.092 -0.07441,-0.22428 0,-0.185 0.131258,-0.29249 0.132292,-0.10748 0.361735,-0.10748 0.230477,0 0.361735,0.10748 0.131258,0.10749 0.131258,0.29249 0,0.13229 -0.07545,0.22428 -0.07441,0.092 -0.207739,0.12505 0.150895,0.0351 0.234611,0.13746 0.08475,0.10232 0.08475,0.25012 0,0.22427 -0.137459,0.34416 -0.136426,0.11989 -0.391708,0.11989 -0.255281,0 -0.392741,-0.11989 -0.136425,-0.11989 -0.136425,-0.34416 0,-0.1478 0.08475,-0.25012 0.08475,-0.10232 0.235644,-0.13746 z m -0.07648,-0.32969 q 0,0.11989 0.07441,0.18707 0.07545,0.0672 0.21084,0.0672 0.134359,0 0.209807,-0.0672 0.07648,-0.0672 0.07648,-0.18707 0,-0.11989 -0.07648,-0.18707 -0.07545,-0.0672 -0.209807,-0.0672 -0.135392,0 -0.21084,0.0672 -0.07441,0.0672 -0.07441,0.18707 z"
           style="stroke-width:0.11267941"
           id="path4673"
           inkscape:connector-curvature="0" />
      </g>
      <g
         aria-label="1



2



3


4"
         transform="matrix(1.0265218,0,0,0.97416344,0,-2.0619792)"
         style="font-style:normal;font-variant:normal;font-weight:normal;font-stretch:normal;font-size:2.11666679px;line-height:1.25;font-family:sans-serif;-inkscape-font-specification:'sans-serif, Normal';font-variant-ligatures:normal;font-variant-caps:normal;font-variant-numeric:normal;font-feature-settings:normal;text-align:start;letter-spacing:0px;word-spacing:0px;writing-mode:lr-tb;text-anchor:start;fill:#000000;fill-opacity:1;stroke:none;stroke-width:0.11267941"
         id="text4686">
        <path
           d="m 46.734871,111.98309 h 0.341065 v -1.17719 l -0.371037,0.0744 v -0.19017 l 0.36897,-0.0744 h 0.208772 v 1.36736 h 0.341065 v 0.1757 h -0.888835 z"
           style="stroke-width:0.11267941"
           id="path4710"
           inkscape:connector-curvature="0" />
        <path
           d="m 46.878532,121.77267 h 0.728637 v 0.1757 h -0.979785 v -0.1757 q 0.118856,-0.12299 0.323495,-0.32969 0.205672,-0.20774 0.258382,-0.26769 0.100252,-0.11265 0.139526,-0.19017 0.04031,-0.0786 0.04031,-0.15399 0,-0.12299 -0.08682,-0.20051 -0.08578,-0.0775 -0.224275,-0.0775 -0.09819,0 -0.20774,0.0341 -0.10852,0.0341 -0.232544,0.10336 v -0.21084 q 0.126091,-0.0507 0.235645,-0.0765 0.109554,-0.0258 0.200505,-0.0258 0.239778,0 0.382405,0.11989 0.142627,0.11989 0.142627,0.32039 0,0.0951 -0.03617,0.18087 -0.03514,0.0847 -0.129191,0.2005 -0.02584,0.03 -0.164331,0.17364 -0.138493,0.14262 -0.390674,0.39997 z"
           style="stroke-width:0.11267941"
           id="path4712"
           inkscape:connector-curvature="0" />
        <path
           d="m 47.331217,130.64138 q 0.149862,0.032 0.233578,0.13332 0.08475,0.10129 0.08475,0.25011 0,0.22841 -0.157096,0.35347 -0.157097,0.12506 -0.446485,0.12506 -0.09715,0 -0.200504,-0.0196 -0.10232,-0.0186 -0.211874,-0.0568 v -0.20154 q 0.08682,0.0506 0.19017,0.0765 0.103353,0.0258 0.216007,0.0258 0.196371,0 0.29869,-0.0775 0.103353,-0.0775 0.103353,-0.22531 0,-0.13642 -0.09612,-0.2129 -0.09508,-0.0775 -0.265617,-0.0775 h -0.179834 v -0.17156 h 0.188102 q 0.153996,0 0.235645,-0.061 0.08165,-0.062 0.08165,-0.17777 0,-0.11885 -0.08475,-0.1819 -0.08372,-0.0641 -0.240812,-0.0641 -0.08578,0 -0.183968,0.0186 -0.09819,0.0186 -0.216008,0.0579 v -0.18603 q 0.118856,-0.0331 0.222209,-0.0496 0.104386,-0.0165 0.19637,-0.0165 0.237712,0 0.376205,0.10852 0.138493,0.10749 0.138493,0.29146 0,0.12816 -0.07338,0.21704 -0.07338,0.0879 -0.208773,0.12196 z"
           style="stroke-width:0.11267941"
           id="path4714"
           inkscape:connector-curvature="0" />
        <path
           d="m 47.272306,139.9018 -0.5271,0.82372 h 0.5271 z m -0.05478,-0.1819 h 0.262516 v 1.00562 h 0.220142 v 0.17363 h -0.220142 v 0.36381 h -0.207739 v -0.36381 h -0.696598 v -0.20153 z"
           style="stroke-width:0.11267941"
           id="path4716"
           inkscape:connector-curvature="0" />
      </g>
    </g>
    <g
       aria-label="Input"
       style="font-style:normal;font-weight:normal;font-size:2.82222223px;line-height:1.25;font-family:sans-serif;letter-spacing:0px;word-spacing:0px;fill:#000000;fill-opacity:1;stroke:none;stroke-width:0.26458332"
       id="text2274"
       transform="translate(0,-10.054167)">
      <path
         d="m 47.551148,108.90941 h 0.278364 v 2.05741 h -0.278364 z"
         style="stroke-width:0.26458332"
         id="path2362"
         inkscape:connector-curvature="0" />
      <path
         d="m 49.655412,110.03527 v 0.93155 h -0.253559 v -0.92329 q 0,-0.2191 -0.08544,-0.32797 -0.08544,-0.10886 -0.256315,-0.10886 -0.205328,0 -0.323839,0.13091 -0.118511,0.13091 -0.118511,0.35691 v 0.8723 H 48.36281 v -1.5434 h 0.254938 v 0.23978 q 0.09095,-0.13919 0.213595,-0.20809 0.124024,-0.0689 0.285254,-0.0689 0.265962,0 0.402388,0.16536 0.136425,0.16399 0.136425,0.4837 z"
         style="stroke-width:0.26458332"
         id="path2364"
         inkscape:connector-curvature="0" />
      <path
         d="m 50.409199,110.73531 v 0.81855 h -0.254937 v -2.13044 h 0.254937 v 0.23426 q 0.07993,-0.1378 0.201194,-0.20395 0.122645,-0.0675 0.292144,-0.0675 0.28112,0 0.456131,0.22324 0.176388,0.22324 0.176388,0.58705 0,0.3638 -0.176388,0.58704 -0.175011,0.22324 -0.456131,0.22324 -0.169499,0 -0.292144,-0.0661 -0.121268,-0.0675 -0.201194,-0.20533 z m 0.862652,-0.53881 q 0,-0.27975 -0.115755,-0.43822 -0.114377,-0.15985 -0.315571,-0.15985 -0.201193,0 -0.316949,0.15985 -0.114377,0.15847 -0.114377,0.43822 0,0.27974 0.114377,0.43959 0.115756,0.15847 0.316949,0.15847 0.201194,0 0.315571,-0.15847 0.115755,-0.15985 0.115755,-0.43959 z"
         style="stroke-width:0.26458332"
         id="path2366"
         inkscape:connector-curvature="0" />
      <path
         d="m 51.929176,110.35773 v -0.93431 h 0.253559 v 0.92466 q 0,0.21911 0.08544,0.32935 0.08544,0.10887 0.256315,0.10887 0.205328,0 0.323839,-0.13092 0.119889,-0.13091 0.119889,-0.35691 v -0.87505 h 0.253559 v 1.5434 h -0.253559 v -0.23702 q -0.09233,0.14056 -0.214974,0.20946 -0.121267,0.0675 -0.282497,0.0675 -0.265962,0 -0.403766,-0.16536 -0.137803,-0.16537 -0.137803,-0.48369 z m 0.638031,-0.97152 z"
         style="stroke-width:0.26458332"
         id="path2368"
         inkscape:connector-curvature="0" />
      <path
         d="m 53.997611,108.9852 v 0.43822 h 0.522276 v 0.19706 h -0.522276 v 0.83784 q 0,0.18879 0.05099,0.24254 0.05237,0.0537 0.21084,0.0537 h 0.260449 v 0.21222 h -0.260449 q -0.293522,0 -0.405143,-0.10887 -0.111621,-0.11024 -0.111621,-0.39963 v -0.83784 h -0.186035 v -0.19706 h 0.186035 v -0.43822 z"
         style="stroke-width:0.26458332"
         id="path2370"
         inkscape:connector-curvature="0" />
    </g>
    <g
       aria-label="Pan"
       style="font-style:normal;font-weight:normal;font-size:2.82222223px;line-height:1.25;font-family:sans-serif;letter-spacing:0px;word-spacing:0px;fill:#000000;fill-opacity:1;stroke:none;stroke-width:0.26458332"
       id="text2280"
       transform="translate(1.5875,-10.054167)">
      <path
         d="m 60.39118,109.2718 v 0.77308 h 0.350022 q 0.194303,0 0.300412,-0.1006 0.106109,-0.10059 0.106109,-0.28663 0,-0.18466 -0.106109,-0.28525 -0.106109,-0.1006 -0.300412,-0.1006 z m -0.278364,-0.22875 h 0.628386 q 0.345887,0 0.522276,0.15709 0.177767,0.15572 0.177767,0.45751 0,0.30455 -0.177767,0.46027 -0.176389,0.15571 -0.522276,0.15571 H 60.39118 v 0.82683 h -0.278364 z"
         style="stroke-width:0.26458332"
         id="path2355"
         inkscape:connector-curvature="0" />
      <path
         d="m 62.379689,110.32462 q -0.307302,0 -0.425814,0.0703 -0.118511,0.0703 -0.118511,0.23978 0,0.13505 0.08819,0.21497 0.08957,0.0786 0.242534,0.0786 0.21084,0 0.33762,-0.14883 0.128157,-0.1502 0.128157,-0.39825 v -0.0565 z m 0.50574,-0.10473 v 0.88057 H 62.63187 v -0.23427 q -0.08682,0.14056 -0.216352,0.20808 -0.129535,0.0662 -0.316949,0.0662 -0.237022,0 -0.377582,-0.13229 -0.139182,-0.13367 -0.139182,-0.35691 0,-0.26045 0.173633,-0.39275 0.175011,-0.13229 0.520898,-0.13229 h 0.355534 v -0.0248 q 0,-0.17501 -0.115755,-0.2701 -0.114377,-0.0965 -0.322461,-0.0965 -0.132292,0 -0.257693,0.0317 -0.125402,0.0317 -0.241157,0.0951 v -0.23427 q 0.139182,-0.0537 0.270096,-0.0799 0.130913,-0.0276 0.254937,-0.0276 0.334863,0 0.500228,0.17363 0.165364,0.17363 0.165364,0.52641 z"
         style="stroke-width:0.26458332"
         id="path2357"
         inkscape:connector-curvature="0" />
      <path
         d="m 64.692037,110.1689 v 0.93156 h -0.253559 v -0.92329 q 0,-0.21911 -0.08544,-0.32797 -0.08544,-0.10887 -0.256315,-0.10887 -0.205328,0 -0.323839,0.13092 -0.118511,0.13091 -0.118511,0.35691 v 0.8723 h -0.254937 v -1.54341 h 0.254937 v 0.23978 q 0.09095,-0.13918 0.213596,-0.20808 0.124023,-0.0689 0.285253,-0.0689 0.265962,0 0.402388,0.16536 0.136425,0.16399 0.136425,0.48369 z"
         style="stroke-width:0.26458332"
         id="path2359"
         inkscape:connector-curvature="0" />
    </g>
    <g
       aria-label="Level"
       style="font-style:normal;font-weight:normal;font-size:2.82222223px;line-height:1.25;font-family:sans-serif;letter-spacing:0px;word-spacing:0px;fill:#000000;fill-opacity:1;stroke:none;stroke-width:0.26458332"
       id="text2284"
       transform="translate(0.52916667,-10.054167)">
      <path
         d="m 70.937226,109.04305 h 0.278364 v 1.82314 h 1.001833 v 0.23427 h -1.280197 z"
         style="stroke-width:0.26458332"
         id="path2344"
         inkscape:connector-curvature="0" />
      <path
         d="m 73.767716,110.26537 v 0.12402 h -1.16582 q 0.01654,0.26183 0.157096,0.39963 0.141938,0.13643 0.394119,0.13643 0.146072,0 0.282498,-0.0358 0.137804,-0.0358 0.272852,-0.10749 v 0.23978 q -0.136426,0.0579 -0.279742,0.0882 -0.143316,0.0303 -0.290766,0.0303 -0.369314,0 -0.585666,-0.21497 -0.214974,-0.21498 -0.214974,-0.58154 0,-0.37896 0.203949,-0.60082 0.205328,-0.22324 0.552594,-0.22324 0.311436,0 0.491959,0.20119 0.181901,0.19982 0.181901,0.54433 z m -0.253559,-0.0744 q -0.0028,-0.20808 -0.117133,-0.33211 -0.112999,-0.12402 -0.300412,-0.12402 -0.212218,0 -0.340376,0.11989 -0.126779,0.11989 -0.146072,0.33762 z"
         style="stroke-width:0.26458332"
         id="path2346"
         inkscape:connector-curvature="0" />
      <path
         d="M 74.001983,109.55705 H 74.2707 l 0.482314,1.29536 0.482313,-1.29536 h 0.268717 l -0.578776,1.54341 h -0.344509 z"
         style="stroke-width:0.26458332"
         id="path2348"
         inkscape:connector-curvature="0" />
      <path
         d="m 77.174227,110.26537 v 0.12402 h -1.165821 q 0.01654,0.26183 0.157097,0.39963 0.141938,0.13643 0.394119,0.13643 0.146072,0 0.282497,-0.0358 0.137804,-0.0358 0.272852,-0.10749 v 0.23978 q -0.136426,0.0579 -0.279742,0.0882 -0.143316,0.0303 -0.290766,0.0303 -0.369314,0 -0.585666,-0.21497 -0.214974,-0.21498 -0.214974,-0.58154 0,-0.37896 0.20395,-0.60082 0.205327,-0.22324 0.552593,-0.22324 0.311437,0 0.49196,0.20119 0.181901,0.19982 0.181901,0.54433 z m -0.253559,-0.0744 q -0.0028,-0.20808 -0.117134,-0.33211 -0.112999,-0.12402 -0.300412,-0.12402 -0.212218,0 -0.340375,0.11989 -0.12678,0.11989 -0.146072,0.33762 z"
         style="stroke-width:0.26458332"
         id="path2350"
         inkscape:connector-curvature="0" />
      <path
         d="m 77.590394,108.95623 h 0.253559 v 2.14423 h -0.253559 z"
         style="stroke-width:0.26458332"
         id="path2352"
         inkscape:connector-curvature="0" />
    </g>
    <g
       id="g2321"
       transform="translate(-1.6036172,-10.054167)">
      <g
         transform="translate(2.6619506)"
         aria-label="Output"
         style="font-style:normal;font-weight:normal;font-size:2.82222223px;line-height:1.25;font-family:sans-serif;letter-spacing:0px;word-spacing:0px;fill:#000000;fill-opacity:1;stroke:none;stroke-width:0.26458332"
         id="text2288">
        <path
           d="m 81.260392,116.31448 q -0.303168,0 -0.482313,0.226 -0.177767,0.22599 -0.177767,0.61598 0,0.38861 0.177767,0.6146 0.179145,0.226 0.482313,0.226 0.303169,0 0.479558,-0.226 0.177766,-0.22599 0.177766,-0.6146 0,-0.38999 -0.177766,-0.61598 -0.176389,-0.226 -0.479558,-0.226 z m 0,-0.226 q 0.432704,0 0.691775,0.29077 0.259072,0.28938 0.259072,0.77721 0,0.48645 -0.259072,0.77721 -0.259071,0.28939 -0.691775,0.28939 -0.434082,0 -0.694531,-0.28939 -0.259071,-0.28939 -0.259071,-0.77721 0,-0.48783 0.259071,-0.77721 0.260449,-0.29077 0.694531,-0.29077 z"
           style="stroke-width:0.26458332"
           id="path2385"
           inkscape:connector-curvature="0" />
        <path
           d="m 82.609492,117.574 v -0.9343 h 0.253559 v 0.92466 q 0,0.21911 0.08544,0.32935 0.08544,0.10886 0.256315,0.10886 0.205328,0 0.323839,-0.13091 0.11989,-0.13091 0.11989,-0.35691 v -0.87505 h 0.253559 v 1.5434 h -0.253559 v -0.23702 q -0.09233,0.14056 -0.214974,0.20946 -0.121268,0.0675 -0.282498,0.0675 -0.265962,0 -0.403765,-0.16536 -0.137804,-0.16537 -0.137804,-0.4837 z m 0.638031,-0.97151 z"
           style="stroke-width:0.26458332"
           id="path2387"
           inkscape:connector-curvature="0" />
        <path
           d="m 84.677927,116.20148 v 0.43822 h 0.522277 v 0.19705 h -0.522277 v 0.83785 q 0,0.18879 0.05099,0.24254 0.05236,0.0537 0.210839,0.0537 h 0.26045 v 0.21222 h -0.26045 q -0.293522,0 -0.405143,-0.10887 -0.111621,-0.11024 -0.111621,-0.39963 v -0.83785 h -0.186035 v -0.19705 h 0.186035 v -0.43822 z"
           style="stroke-width:0.26458332"
           id="path2389"
           inkscape:connector-curvature="0" />
        <path
           d="m 85.780358,117.95159 v 0.81855 h -0.254937 v -2.13044 h 0.254937 v 0.23426 q 0.07993,-0.1378 0.201193,-0.20395 0.122646,-0.0675 0.292144,-0.0675 0.28112,0 0.456131,0.22324 0.176389,0.22324 0.176389,0.58704 0,0.36381 -0.176389,0.58705 -0.175011,0.22324 -0.456131,0.22324 -0.169498,0 -0.292144,-0.0661 -0.121267,-0.0675 -0.201193,-0.20533 z m 0.862652,-0.53882 q 0,-0.27974 -0.115756,-0.43821 -0.114377,-0.15985 -0.31557,-0.15985 -0.201194,0 -0.316949,0.15985 -0.114377,0.15847 -0.114377,0.43821 0,0.27975 0.114377,0.4396 0.115755,0.15847 0.316949,0.15847 0.201193,0 0.31557,-0.15847 0.115756,-0.15985 0.115756,-0.4396 z"
           style="stroke-width:0.26458332"
           id="path2391"
           inkscape:connector-curvature="0" />
        <path
           d="m 87.300334,117.574 v -0.9343 h 0.253559 v 0.92466 q 0,0.21911 0.08544,0.32935 0.08544,0.10886 0.256315,0.10886 0.205328,0 0.323839,-0.13091 0.119889,-0.13091 0.119889,-0.35691 v -0.87505 h 0.253559 v 1.5434 h -0.253559 v -0.23702 q -0.09233,0.14056 -0.214974,0.20946 -0.121267,0.0675 -0.282497,0.0675 -0.265962,0 -0.403766,-0.16536 -0.137803,-0.16537 -0.137803,-0.4837 z m 0.638031,-0.97151 z"
           style="stroke-width:0.26458332"
           id="path2393"
           inkscape:connector-curvature="0" />
        <path
           d="m 89.368769,116.20148 v 0.43822 h 0.522277 v 0.19705 h -0.522277 v 0.83785 q 0,0.18879 0.05099,0.24254 0.05236,0.0537 0.21084,0.0537 h 0.260449 v 0.21222 h -0.260449 q -0.293523,0 -0.405144,-0.10887 -0.111621,-0.11024 -0.111621,-0.39963 v -0.83785 h -0.186035 v -0.19705 h 0.186035 v -0.43822 z"
           style="stroke-width:0.26458332"
           id="path2395"
           inkscape:connector-curvature="0" />
      </g>
      <rect
         y="120.58852"
         x="82.692741"
         height="24.722433"
         width="7.6171818"
         id="rect2306"
         style="fill:#000000;fill-opacity:1;stroke-width:0.33650789" />
      <g
         aria-label="L"
         style="font-style:normal;font-weight:normal;font-size:2.82222223px;line-height:1.25;font-family:sans-serif;letter-spacing:0px;word-spacing:0px;fill:#ffffff;fill-opacity:1;stroke:none;stroke-width:0.26458332"
         id="text2310"
         transform="translate(-0.52916667)">
        <path
           d="m 86.30523,121.47107 h 0.278363 v 1.82314 h 1.001834 v 0.23427 H 86.30523 Z"
           style="fill:#ffffff;fill-opacity:1;stroke-width:0.26458332"
           id="path2401"
           inkscape:connector-curvature="0" />
      </g>
      <g
         aria-label="R"
         style="font-style:normal;font-weight:normal;font-size:2.82222223px;line-height:1.25;font-family:sans-serif;letter-spacing:0px;word-spacing:0px;fill:#ffffff;fill-opacity:1;stroke:none;stroke-width:0.26458332"
         id="text2314"
         transform="translate(-0.5291667,2.1166667)">
        <path
           d="m 87.013608,141.1391 q 0.08957,0.0303 0.173633,0.12954 0.08544,0.0992 0.170876,0.27285 l 0.282498,0.56224 h -0.299034 l -0.263205,-0.52779 q -0.101975,-0.20671 -0.198438,-0.27423 -0.09508,-0.0675 -0.260449,-0.0675 H 86.31632 v 0.86954 h -0.278363 v -2.05741 h 0.628385 q 0.352778,0 0.526411,0.14745 0.173633,0.14745 0.173633,0.4451 0,0.19431 -0.09095,0.32247 -0.08957,0.12815 -0.261827,0.17776 z m -0.697288,-0.86403 v 0.73036 h 0.350022 q 0.201194,0 0.303169,-0.0923 0.103352,-0.0937 0.103352,-0.27423 0,-0.18052 -0.103352,-0.27147 -0.101975,-0.0923 -0.303169,-0.0923 z"
           style="fill:#ffffff;fill-opacity:1;stroke-width:0.26458332"
           id="path2398"
           inkscape:connector-curvature="0" />
      </g>
    </g>
  </g>
</svg>
