<?xml version="1.0" encoding="UTF-8" standalone="no"?>
<svg
   xmlns:dc="http://purl.org/dc/elements/1.1/"
   xmlns:cc="http://creativecommons.org/ns#"
   xmlns:rdf="http://www.w3.org/1999/02/22-rdf-syntax-ns#"
   xmlns:svg="http://www.w3.org/2000/svg"
   xmlns="http://www.w3.org/2000/svg"
   id="svg4541"
   version="1.1"
   viewBox="0 0 23.812502 100.39611"
   height="379.44983"
   width="90.000008">
  <defs
     id="defs4535" />
  <metadata
     id="metadata4538">
    <rdf:RDF>
      <cc:Work
         rdf:about="">
        <dc:format>image/svg+xml</dc:format>
        <dc:type
           rdf:resource="http://purl.org/dc/dcmitype/StillImage" />
        <dc:title></dc:title>
      </cc:Work>
    </rdf:RDF>
  </metadata>
  <path
     style="fill:#2e2f31;fill-opacity:1;fill-rule:nonzero;stroke:none;stroke-width:0.21998174"
     d="M -1.0418518e-6,-2.9078125e-7 H 23.812502 V 100.39611 H -1.0418518e-6 Z m 0,0"
     id="path25057" />
  <g
     transform="matrix(0.27602379,0,0,0.27602379,258.28496,-0.07331911)"
     aria-label="MADE IN ITALY"
     style="font-style:normal;font-variant:normal;font-weight:500;font-stretch:normal;font-size:7.66842127px;line-height:125%;font-family:'Futura PT';-inkscape-font-specification:'Futura PT Medium';letter-spacing:0px;word-spacing:0px;opacity:0.7;fill:#ffffff;fill-opacity:1;stroke:none;stroke-width:0.95855266px;stroke-linecap:butt;stroke-linejoin:miter;stroke-opacity:1"
     id="text864">
    <path
       d="m -913.35319,359.03888 h 0.84353 l 0.43454,-2.62643 1.09275,2.62643 h 0.28118 l 1.14387,-2.62643 0.38342,2.62643 h 0.84353 l -0.71572,-4.26236 h -0.60069 l -1.18222,2.7095 -1.13109,-2.7095 h -0.60069 z"
       style="font-style:normal;font-variant:normal;font-weight:500;font-stretch:normal;font-size:6.3903513px;font-family:'Futura PT';-inkscape-font-specification:'Futura PT Medium';fill:#ffffff;stroke-width:0.95855266px"
       id="path5435" />
    <path
       d="m -904.68058,359.03888 h 0.89465 l -1.78291,-4.26236 h -0.65182 l -1.83403,4.26236 h 0.90104 l 0.37703,-0.89465 h 1.71901 z m -1.83403,-1.57203 0.60708,-1.53368 0.60708,1.53368 z"
       style="font-style:normal;font-variant:normal;font-weight:500;font-stretch:normal;font-size:6.3903513px;font-family:'Futura PT';-inkscape-font-specification:'Futura PT Medium';fill:#ffffff;stroke-width:0.95855266px"
       id="path5437" />
    <path
       d="m -903.28828,354.77652 v 4.26236 h 1.09914 c 0.5943,0 1.06079,-0.0575 1.55924,-0.40898 0.56235,-0.3962 0.85631,-1.00968 0.85631,-1.71901 0,-0.70933 -0.30035,-1.32919 -0.81797,-1.719 -0.47288,-0.35147 -0.9905,-0.41537 -1.5848,-0.41537 z m 0.83074,0.71571 h 0.25562 c 0.28117,0 0.70293,0.0256 1.04801,0.28118 0.33869,0.25561 0.52401,0.69016 0.52401,1.13748 0,0.45372 -0.19171,0.88826 -0.5304,1.13109 -0.37064,0.2684 -0.83074,0.28118 -1.04162,0.28118 h -0.25562 z"
       style="font-style:normal;font-variant:normal;font-weight:500;font-stretch:normal;font-size:6.3903513px;font-family:'Futura PT';-inkscape-font-specification:'Futura PT Medium';fill:#ffffff;stroke-width:0.95855266px"
       id="path5439" />
    <path
       d="m -896.64282,354.77652 h -2.36443 v 4.26236 h 2.36443 v -0.71572 h -1.53368 v -1.16304 h 1.46978 v -0.71572 h -1.46978 v -0.95217 h 1.53368 z"
       style="font-style:normal;font-variant:normal;font-weight:500;font-stretch:normal;font-size:6.3903513px;font-family:'Futura PT';-inkscape-font-specification:'Futura PT Medium';fill:#ffffff;stroke-width:0.95855266px"
       id="path5441" />
    <path
       d="m -894.35178,354.77652 v 4.26236 h 0.83075 v -4.26236 z"
       style="font-style:normal;font-variant:normal;font-weight:500;font-stretch:normal;font-size:6.3903513px;font-family:'Futura PT';-inkscape-font-specification:'Futura PT Medium';fill:#ffffff;stroke-width:0.95855266px"
       id="path5443" />
    <path
       d="m -891.72374,359.03888 v -2.8501 l 2.59448,2.8501 h 0.57513 v -4.26236 h -0.83075 v 2.8437 l -2.59448,-2.8437 h -0.57513 v 4.26236 z"
       style="font-style:normal;font-variant:normal;font-weight:500;font-stretch:normal;font-size:6.3903513px;font-family:'Futura PT';-inkscape-font-specification:'Futura PT Medium';fill:#ffffff;stroke-width:0.95855266px"
       id="path5445" />
    <path
       d="m -886.10173,354.77652 v 4.26236 h 0.83074 v -4.26236 z"
       style="font-style:normal;font-variant:normal;font-weight:500;font-stretch:normal;font-size:6.3903513px;font-family:'Futura PT';-inkscape-font-specification:'Futura PT Medium';fill:#ffffff;stroke-width:0.95855266px"
       id="path5447" />
    <path
       d="m -882.00392,355.49223 v -0.71571 h -2.74785 v 0.71571 h 0.95855 v 3.54665 h 0.83075 v -3.54665 z"
       style="font-style:normal;font-variant:normal;font-weight:500;font-stretch:normal;font-size:6.3903513px;font-family:'Futura PT';-inkscape-font-specification:'Futura PT Medium';fill:#ffffff;stroke-width:0.95855266px"
       id="path5449" />
    <path
       d="m -878.83211,359.03888 h 0.89465 l -1.78291,-4.26236 h -0.65182 l -1.83403,4.26236 h 0.90104 l 0.37703,-0.89465 h 1.71901 z m -1.83403,-1.57203 0.60708,-1.53368 0.60708,1.53368 z"
       style="font-style:normal;font-variant:normal;font-weight:500;font-stretch:normal;font-size:6.3903513px;font-family:'Futura PT';-inkscape-font-specification:'Futura PT Medium';fill:#ffffff;stroke-width:0.95855266px"
       id="path5451" />
    <path
       d="m -877.43981,354.77652 v 4.26236 h 2.14715 v -0.71572 h -1.31641 v -3.54664 z"
       style="font-style:normal;font-variant:normal;font-weight:500;font-stretch:normal;font-size:6.3903513px;font-family:'Futura PT';-inkscape-font-specification:'Futura PT Medium';fill:#ffffff;stroke-width:0.95855266px"
       id="path5453" />
    <path
       d="m -874.17834,359.03888 h 0.83075 v -1.94906 l 1.50173,-2.3133 h -0.98411 l -0.91382,1.48256 -0.91382,-1.48256 h -0.98412 l 1.46339,2.3133 z"
       style="font-style:normal;font-variant:normal;font-weight:500;font-stretch:normal;font-size:6.3903513px;font-family:'Futura PT';-inkscape-font-specification:'Futura PT Medium';fill:#ffffff;stroke-width:0.95855266px"
       id="path5455" />
  </g>
  <g
     transform="matrix(0.27602379,0,0,0.27602379,257.54108,2.5725145)"
     id="g1736"
     style="opacity:0.7;fill:#ffffff;stroke-width:0.91882312">
    <g
       aria-label="sonus dept."
       style="font-style:normal;font-variant:normal;font-weight:normal;font-stretch:normal;font-size:12.78070068px;line-height:125%;font-family:'Squared Display';-inkscape-font-specification:'Squared Display';letter-spacing:0px;word-spacing:0px;fill:#ffffff;fill-opacity:1;stroke:none;stroke-width:0.9585526px;stroke-linecap:butt;stroke-linejoin:miter;stroke-opacity:1"
       id="text4639-3">
      <path
         d="m -916.33104,336.95691 c -0.70294,-0.53679 -1.35475,-0.58791 -1.76374,-0.58791 -0.44732,0 -1.00967,0.0511 -1.44422,0.3962 -0.31951,0.26839 -0.57513,0.71572 -0.57513,1.25251 0,0.44732 0.16615,0.7924 0.42177,1.0608 0.33229,0.34507 0.7924,0.524 1.1886,0.66459 l 0.35786,0.12781 c 0.20449,0.0767 0.48567,0.21727 0.48567,0.56235 0,0.38342 -0.3323,0.60069 -0.76684,0.60069 -0.46011,0 -0.92022,-0.28117 -1.22695,-0.63903 l -0.81797,0.94577 c 0.34508,0.37064 0.9969,0.92021 2.14716,0.92021 0.67738,0 1.21417,-0.17893 1.66149,-0.58791 0.44733,-0.40898 0.61348,-0.90743 0.61348,-1.40588 0,-0.35786 -0.11503,-0.69016 -0.28118,-0.92021 -0.31952,-0.43454 -0.97133,-0.65182 -1.40588,-0.7924 l -0.37064,-0.11503 c -0.43454,-0.14059 -0.49844,-0.35786 -0.49844,-0.49845 0,-0.26839 0.23005,-0.44732 0.60069,-0.44732 0.16615,0 0.53679,0.0256 0.90743,0.37064 z"
         style="font-style:normal;font-variant:normal;font-weight:500;font-stretch:normal;font-size:12.78070068px;font-family:'Futura PT';-inkscape-font-specification:'Futura PT Medium';fill:#ffffff;stroke-width:0.9585526px"
         id="path5414" />
      <path
         d="m -912.05849,336.369 c -1.04802,0 -1.76374,0.34508 -2.23662,0.77962 -0.54957,0.49845 -0.933,1.26529 -0.933,2.17272 0,0.89465 0.38343,1.66149 0.933,2.15994 0.47288,0.43454 1.1886,0.77962 2.23662,0.77962 1.04802,0 1.76374,-0.34508 2.23662,-0.77962 0.54957,-0.49845 0.93299,-1.26529 0.93299,-2.15994 0,-0.90743 -0.38342,-1.67427 -0.93299,-2.17272 -0.47288,-0.43454 -1.1886,-0.77962 -2.23662,-0.77962 z m 0,4.51158 c -0.90743,0 -1.55925,-0.71571 -1.55925,-1.55924 0,-0.86909 0.6646,-1.57203 1.55925,-1.57203 0.89465,0 1.55924,0.70294 1.55924,1.57203 0,0.84353 -0.65181,1.55924 -1.55924,1.55924 z"
         style="font-style:normal;font-variant:normal;font-weight:500;font-stretch:normal;font-size:12.78070068px;font-family:'Futura PT';-inkscape-font-specification:'Futura PT Medium';fill:#ffffff;stroke-width:0.9585526px"
         id="path5416" />
      <path
         d="m -907.6829,342.08197 h 1.55925 v -2.82453 c 0,-0.31952 0.0128,-0.71572 0.24283,-1.07358 0.23005,-0.34508 0.54957,-0.48567 0.95855,-0.48567 0.15337,0 0.48567,0.0256 0.7285,0.28118 0.28118,0.29395 0.29396,0.77962 0.29396,1.08635 v 3.01625 h 1.55924 v -3.47635 c 0,-0.53679 -0.0511,-1.08636 -0.43454,-1.55925 -0.43454,-0.53679 -1.15026,-0.67737 -1.63593,-0.67737 -0.89465,0 -1.41866,0.48566 -1.71261,0.89465 v -0.71572 h -1.55925 z"
         style="font-style:normal;font-variant:normal;font-weight:500;font-stretch:normal;font-size:12.78070068px;font-family:'Futura PT';-inkscape-font-specification:'Futura PT Medium';fill:#ffffff;stroke-width:0.9585526px"
         id="path5418" />
      <path
         d="m -900.86819,336.54793 v 3.38688 c 0,0.49845 0.0639,1.16305 0.67738,1.69984 0.51123,0.44732 1.32919,0.62625 2.00657,0.62625 0.67737,0 1.49534,-0.17893 2.00657,-0.62625 0.61347,-0.53679 0.67737,-1.20139 0.67737,-1.69984 v -3.38688 h -1.55924 v 3.13127 c 0,0.29395 -0.0256,0.69016 -0.3323,0.97133 -0.19171,0.16615 -0.49845,0.28118 -0.7924,0.28118 -0.29396,0 -0.6007,-0.11503 -0.79241,-0.28118 -0.30673,-0.28117 -0.33229,-0.67738 -0.33229,-0.97133 v -3.13127 z"
         style="font-style:normal;font-variant:normal;font-weight:500;font-stretch:normal;font-size:12.78070068px;font-family:'Futura PT';-inkscape-font-specification:'Futura PT Medium';fill:#ffffff;stroke-width:0.9585526px"
         id="path5420" />
      <path
         d="m -890.24543,336.95691 c -0.70294,-0.53679 -1.35475,-0.58791 -1.76374,-0.58791 -0.44732,0 -1.00967,0.0511 -1.44422,0.3962 -0.31951,0.26839 -0.57513,0.71572 -0.57513,1.25251 0,0.44732 0.16615,0.7924 0.42177,1.0608 0.33229,0.34507 0.7924,0.524 1.1886,0.66459 l 0.35786,0.12781 c 0.20449,0.0767 0.48567,0.21727 0.48567,0.56235 0,0.38342 -0.3323,0.60069 -0.76685,0.60069 -0.4601,0 -0.92021,-0.28117 -1.22694,-0.63903 l -0.81797,0.94577 c 0.34508,0.37064 0.9969,0.92021 2.14716,0.92021 0.67738,0 1.21417,-0.17893 1.66149,-0.58791 0.44733,-0.40898 0.61348,-0.90743 0.61348,-1.40588 0,-0.35786 -0.11503,-0.69016 -0.28118,-0.92021 -0.31952,-0.43454 -0.97133,-0.65182 -1.40588,-0.7924 l -0.37064,-0.11503 c -0.43454,-0.14059 -0.49844,-0.35786 -0.49844,-0.49845 0,-0.26839 0.23005,-0.44732 0.60069,-0.44732 0.16615,0 0.53679,0.0256 0.90743,0.37064 z"
         style="font-style:normal;font-variant:normal;font-weight:500;font-stretch:normal;font-size:12.78070068px;font-family:'Futura PT';-inkscape-font-specification:'Futura PT Medium';fill:#ffffff;stroke-width:0.9585526px"
         id="path5422" />
      <path
         d="m -881.64761,337.26365 c -0.52401,-0.81797 -1.35476,-0.89465 -1.77652,-0.89465 -1.63593,0 -2.74785,1.30363 -2.74785,2.93956 0,1.62315 1.1247,2.95234 2.82453,2.95234 0.3962,0 1.13748,-0.0895 1.69984,-0.89465 v 0.71572 h 1.55924 v -9.31713 h -1.55924 z m -1.38032,0.48566 c 0.89465,0 1.53368,0.67738 1.53368,1.55925 0,0.88187 -0.63903,1.57202 -1.53368,1.57202 -0.89465,0 -1.53368,-0.69015 -1.53368,-1.57202 0,-0.88187 0.63903,-1.55925 1.53368,-1.55925 z"
         style="font-style:normal;font-variant:normal;font-weight:500;font-stretch:normal;font-size:12.78070068px;font-family:'Futura PT';-inkscape-font-specification:'Futura PT Medium';fill:#ffffff;stroke-width:0.9585526px"
         id="path5424" />
      <path
         d="m -874.60145,340.30545 c -0.25562,0.44733 -0.70294,0.7285 -1.29085,0.7285 -0.6007,0 -0.94578,-0.29395 -1.11193,-0.52401 -0.17893,-0.24283 -0.26839,-0.60069 -0.26839,-0.93299 h 4.14095 v -0.1278 c 0,-0.6007 -0.0767,-1.46978 -0.6646,-2.17272 -0.38342,-0.46011 -1.03524,-0.90743 -2.15994,-0.90743 -0.66459,0 -1.43144,0.14058 -2.08325,0.77962 -0.3962,0.3962 -0.84353,1.07358 -0.84353,2.17272 0,0.86909 0.25562,1.58481 0.86909,2.15994 0.54957,0.52401 1.22695,0.77962 2.1216,0.77962 1.92988,0 2.55614,-1.31641 2.72228,-1.72539 z m -2.62005,-1.72539 c 0.12781,-0.74128 0.7285,-1.11192 1.30363,-1.11192 0.57514,0 1.18861,0.35786 1.31642,1.11192 z"
         style="font-style:normal;font-variant:normal;font-weight:500;font-stretch:normal;font-size:12.78070068px;font-family:'Futura PT';-inkscape-font-specification:'Futura PT Medium';fill:#ffffff;stroke-width:0.9585526px"
         id="path5426" />
      <path
         d="m -870.37763,341.36625 c 0.61347,0.83075 1.39309,0.89465 1.77652,0.89465 0.81796,0 1.457,-0.31952 1.87876,-0.71572 0.31952,-0.30674 0.86909,-0.98411 0.86909,-2.23662 0,-1.09914 -0.42177,-1.7893 -0.83075,-2.19828 -0.62625,-0.62626 -1.40588,-0.74128 -1.89154,-0.74128 -1.02246,0 -1.55925,0.54957 -1.80208,0.89465 v -0.71572 h -1.55925 v 8.46082 h 1.55925 z m 1.38031,-3.61694 c 0.37064,0 0.77963,0.14059 1.0608,0.3962 0.30674,0.29396 0.47289,0.75407 0.47289,1.16305 0,0.40898 -0.15337,0.86909 -0.48567,1.17582 -0.20449,0.19171 -0.53679,0.3962 -1.04802,0.3962 -0.48566,0 -0.81796,-0.19171 -1.02245,-0.37064 -0.30674,-0.26839 -0.51123,-0.69015 -0.51123,-1.20138 0,-0.51123 0.17893,-0.89465 0.52401,-1.18861 0.28117,-0.25561 0.60069,-0.37064 1.00967,-0.37064 z"
         style="font-style:normal;font-variant:normal;font-weight:500;font-stretch:normal;font-size:12.78070068px;font-family:'Futura PT';-inkscape-font-specification:'Futura PT Medium';fill:#ffffff;stroke-width:0.9585526px"
         id="path5428" />
      <path
         d="m -862.01506,337.87712 v -1.32919 h -1.07358 v -1.89155 h -1.55924 v 1.89155 h -0.61348 v 1.32919 h 0.61348 v 4.20485 h 1.55924 v -4.20485 z"
         style="font-style:normal;font-variant:normal;font-weight:500;font-stretch:normal;font-size:12.78070068px;font-family:'Futura PT';-inkscape-font-specification:'Futura PT Medium';fill:#ffffff;stroke-width:0.9585526px"
         id="path5430" />
      <path
         d="m -861.33089,341.25122 c 0,0.56236 0.43454,0.9969 0.99689,0.9969 0.56235,0 0.9969,-0.43454 0.9969,-0.9969 0,-0.56235 -0.43455,-0.99689 -0.9969,-0.99689 -0.56235,0 -0.99689,0.43454 -0.99689,0.99689 z"
         style="font-style:normal;font-variant:normal;font-weight:500;font-stretch:normal;font-size:12.78070068px;font-family:'Futura PT';-inkscape-font-specification:'Futura PT Medium';fill:#ffffff;stroke-width:0.9585526px"
         id="path5432" />
    </g>
  </g>
  <path
     style="opacity:0.9;fill:#212121;fill-opacity:1;fill-rule:nonzero;stroke:none;stroke-width:0.27081186"
     d="m 21.298961,16.502764 c 0,-0.425592 -0.406368,-0.773324 -0.902206,-0.773324 H 13.46991 c -0.495838,0 -0.9022,0.347732 -0.9022,0.773324 v 9.035617 c 0,0.425596 0.406362,0.77439 0.9022,0.77439 h 6.926845 c 0.495838,0 0.902206,-0.348794 0.902206,-0.77439 z m 0,0"
     id="path25247" />
  <path
     style="opacity:0.9;fill:#e3dbdb;fill-opacity:1;fill-rule:nonzero;stroke:none;stroke-width:0.27081186"
     d="m 11.244794,16.502762 c 0,-0.425594 -0.406365,-0.773323 -0.902203,-0.773323 H 3.4145043 c -0.4958381,0 -0.9009609,0.347729 -0.9009609,0.773323 v 9.035619 c 0,0.425596 0.4051228,0.774391 0.9009609,0.774391 h 6.9280867 c 0.495838,0 0.902203,-0.348795 0.902203,-0.774391 z m 0,0"
     id="path25259" />
  <g
     id="text8234"
     style="font-style:normal;font-variant:normal;font-weight:normal;font-stretch:normal;font-size:2.82222247px;line-height:125%;font-family:'Futura PT';-inkscape-font-specification:'Futura PT';letter-spacing:0px;word-spacing:0px;opacity:0.9;fill:#ffffff;fill-opacity:1;stroke:none;stroke-width:0.26458335px;stroke-linecap:butt;stroke-linejoin:miter;stroke-opacity:1"
     aria-label="DRIVE 1">
    <path
       id="path8266"
       style="fill:#ffffff;stroke-width:0.26458335px"
       d="m 7.8050776,52.597008 h 0.3810001 c 0.3358444,0 0.5164667,-0.07056 0.6886222,-0.217311 C 9.0101666,52.263985 9.2049,52.052319 9.2049,51.657208 9.2049,51.318541 9.0553222,51.078652 8.8831666,50.934719 8.6460999,50.734341 8.3779888,50.714585 8.1888999,50.714585 H 7.8050776 Z m 0.2088445,-1.684867 h 0.1834444 c 0.4769556,0 0.7930446,0.293511 0.7930446,0.745067 0,0.268111 -0.1128889,0.454377 -0.2540001,0.572911 -0.1834444,0.1524 -0.3894667,0.169333 -0.5390445,0.169333 H 8.0139221 Z" />
    <path
       id="path8268"
       style="fill:#ffffff;stroke-width:0.26458335px"
       d="m 9.5910153,50.714585 v 1.882423 h 0.2088444 v -0.824089 h 0.053622 l 0.5729113,0.824089 h 0.254 l -0.598311,-0.841023 c 0.285044,-0.01976 0.474133,-0.231422 0.474133,-0.519288 0,-0.200378 -0.09596,-0.344312 -0.206022,-0.417689 -0.141111,-0.09596 -0.3302,-0.104423 -0.4572002,-0.104423 z m 0.2088444,0.197556 h 0.1270001 c 0.090311,0 0.1862662,0.0056 0.2709332,0.05362 0.118533,0.06773 0.149578,0.172156 0.149578,0.276578 0,0.220133 -0.155222,0.344311 -0.4148668,0.344311 H 9.7998597 Z" />
    <path
       id="path8270"
       style="fill:#ffffff;stroke-width:0.26458335px"
       d="m 11.007639,50.714585 v 1.882423 h 0.208844 v -1.882423 z" />
    <path
       id="path8272"
       style="fill:#ffffff;stroke-width:0.26458335px"
       d="m 11.482037,50.714585 0.762,1.995312 0.762,-1.995312 h -0.231423 l -0.530577,1.436512 -0.530578,-1.436512 z" />
    <path
       id="path8274"
       style="fill:#ffffff;stroke-width:0.26458335px"
       d="m 14.249622,50.714585 h -0.976489 v 1.882423 h 0.976489 v -0.197556 h -0.767644 v -0.730955 h 0.745067 v -0.197556 h -0.745067 v -0.5588 h 0.767644 z" />
    <path
       id="path8276"
       style="fill:#ffffff;stroke-width:0.26458335px"
       d="m 15.798582,52.597008 h 0.208844 V 50.714585 H 15.59256 l -0.110067,0.197556 h 0.316089 z" />
  </g>
  <g
     aria-label="DEATHCRUSH"
     style="font-style:normal;font-variant:normal;font-weight:normal;font-stretch:normal;font-size:3.52777791px;line-height:125%;font-family:Akashi;-inkscape-font-specification:Akashi;letter-spacing:0px;word-spacing:0px;fill:#ffffff;fill-opacity:1;stroke:none;stroke-width:0.26458335px;stroke-linecap:butt;stroke-linejoin:miter;stroke-opacity:1"
     id="text2465">
    <path
       d="M 0.45130849,6.2044344 V 3.6206127 H 2.1755788 q 0.3445096,0 0.3445096,0.3445095 l -0.00172,1.8948026 q 0,0.3445096 -0.3445096,0.3445096 z M 2.0016015,4.1390996 H 0.96807283 V 5.6876701 H 2.0016015 Z"
       style="fill:#ffffff;stroke-width:0.26458335px"
       id="path2534" />
    <path
       d="M 3.3796398,5.1709057 V 5.6876701 H 4.5854233 V 6.2044344 H 3.207385 q -0.3445095,0 -0.3445095,-0.3445096 V 3.9651222 q 0,-0.3445095 0.3445095,-0.3445095 H 4.5854233 V 4.137377 H 3.3796398 V 4.6541414 H 4.0686589 L 3.8964041,5.1709057 Z"
       style="fill:#ffffff;stroke-width:0.26458335px"
       id="path2536" />
    <path
       d="M 4.9299328,6.2044344 V 3.9633997 q 0,-0.3445096 0.3445096,-0.3445096 h 1.3780382 q 0.3445096,0 0.3445096,0.3445096 V 6.2044344 H 6.4802259 V 5.5136927 H 5.4466972 V 6.2044344 Z M 6.4802259,4.1356545 H 5.4466972 v 0.8612739 h 1.0335287 z"
       style="fill:#ffffff;stroke-width:0.26458335px"
       id="path2538" />
    <path
       d="M 9.2363022,3.6206127 V 4.137377 H 8.547283 V 6.2044344 H 8.0305187 V 4.137377 H 7.3414996 V 3.6206127 Z"
       style="fill:#ffffff;stroke-width:0.26458335px"
       id="path2540" />
    <path
       d="m 10.097576,3.6206127 v 1.0335287 h 1.033529 V 3.6206127 h 0.516764 V 6.2044344 H 11.131105 V 5.1709057 H 10.097576 V 6.2044344 H 9.5808117 V 3.6206127 Z"
       style="fill:#ffffff;stroke-width:0.26458335px"
       id="path2542" />
    <path
       d="m 13.542672,4.137377 h -1.033528 v 1.5502931 h 1.205783 v 0.5167643 h -1.378038 q -0.34451,0 -0.34451,-0.3445096 V 3.9651222 q 0,-0.3445095 0.34451,-0.3445095 h 1.378038 z"
       style="fill:#ffffff;stroke-width:0.26458335px"
       id="path2544" />
    <path
       d="m 15.716527,5.1709057 0.413412,1.0335287 H 15.613174 L 15.180815,5.1709057 H 14.5762 V 6.2044344 H 14.059436 V 3.9651222 q 0,-0.3445095 0.34451,-0.3445095 h 1.378038 q 0.344509,0 0.344509,0.3445095 v 0.8612739 q 0,0.3445096 -0.344509,0.3445096 z M 15.609729,4.6541414 V 4.137377 H 14.5762 v 0.5167644 z"
       style="fill:#ffffff;stroke-width:0.26458335px"
       id="path2546" />
    <path
       d="m 16.987768,3.6206127 v 2.0670574 h 1.033529 l 0.0017,-2.0670574 h 0.516765 v 2.2393121 q 0,0.3445096 -0.34451,0.3445096 h -1.379761 q -0.344509,0 -0.344509,-0.3445096 V 3.6206127 Z"
       style="fill:#ffffff;stroke-width:0.26458335px"
       id="path2548" />
    <path
       d="m 20.779095,4.1356545 h -1.379761 v 0.5184869 h 1.205783 q 0.34451,0 0.34451,0.342787 v 0.8612739 q 0,0.3445095 -0.34451,0.3445095 H 18.88257 V 5.6876701 l 1.550293,-0.00172 V 5.1691832 h -1.205784 q -0.344509,0 -0.344509,-0.3427871 V 3.9651222 q 0,-0.3462321 0.344509,-0.3462321 h 1.722548 z"
       style="fill:#ffffff;stroke-width:0.26458335px"
       id="path2550" />
    <path
       d="M 21.810902,3.6206127 V 4.6541414 H 22.84443 V 3.6206127 h 0.516765 V 6.2044344 H 22.84443 V 5.1709057 H 21.810902 V 6.2044344 H 21.294137 V 3.6206127 Z"
       style="fill:#ffffff;stroke-width:0.26458335px"
       id="path2552" />
  </g>
  <g
     aria-label="IN"
     style="font-style:normal;font-variant:normal;font-weight:normal;font-stretch:normal;font-size:2.46944451px;line-height:125%;font-family:Akashi;-inkscape-font-specification:Akashi;letter-spacing:0px;word-spacing:0px;fill:#ffffff;fill-opacity:1;stroke:none;stroke-width:0.26458335px;stroke-linecap:butt;stroke-linejoin:miter;stroke-opacity:1"
     id="text2469">
    <path
       d="m 6.2153875,27.928761 v 1.808675 h -0.361735 v -1.808675 z"
       style="fill:#ffffff;stroke-width:0.26458335px"
       id="path2529" />
    <path
       d="m 6.4565442,29.737436 v -1.568724 q 0,-0.241157 0.2411567,-0.241157 h 0.9658326 q 0.2411566,0 0.2411566,0.241157 v 1.568724 h -0.361735 l -0.00121,-1.448146 h -0.72347 v 1.448146 z"
       style="fill:#ffffff;stroke-width:0.26458335px"
       id="path2531" />
  </g>
  <g
     aria-label="OUT"
     style="font-style:normal;font-variant:normal;font-weight:normal;font-stretch:normal;font-size:2.46944451px;line-height:125%;font-family:Akashi;-inkscape-font-specification:Akashi;letter-spacing:0px;word-spacing:0px;fill:#ffffff;fill-opacity:1;stroke:none;stroke-width:0.26458335px;stroke-linecap:butt;stroke-linejoin:miter;stroke-opacity:1"
     id="text2473">
    <path
       d="m 16.02899,29.495679 q 0,0.241156 -0.241157,0.241156 h -0.964627 q -0.241157,0 -0.241157,-0.241156 v -1.326362 q 0,-0.241157 0.241157,-0.241157 h 0.964627 q 0.241157,0 0.241157,0.241157 z M 14.943784,28.289895 V 29.3751 h 0.72347 v -1.085205 z"
       style="fill:#ffffff;stroke-width:0.26458335px"
       id="path2522" />
    <path
       d="m 16.631881,27.92816 v 1.44694 h 0.72347 l 0.0012,-1.44694 h 0.361735 v 1.567519 q 0,0.241156 -0.241157,0.241156 h -0.965832 q -0.241157,0 -0.241157,-0.241156 V 27.92816 Z"
       style="fill:#ffffff;stroke-width:0.26458335px"
       id="path2524" />
    <path
       d="m 19.284605,27.92816 v 0.361735 h -0.482313 v 1.44694 h -0.361735 v -1.44694 H 17.958243 V 27.92816 Z"
       style="fill:#ffffff;stroke-width:0.26458335px"
       id="path2526" />
  </g>
  <g
     aria-label="DRIVE 1"
     style="font-style:normal;font-variant:normal;font-weight:normal;font-stretch:normal;font-size:2.46944451px;line-height:125%;font-family:Akashi;-inkscape-font-specification:Akashi;letter-spacing:0px;word-spacing:0px;fill:#ffffff;fill-opacity:1;stroke:none;stroke-width:0.26458335px;stroke-linecap:butt;stroke-linejoin:miter;stroke-opacity:1"
     id="text2477">
    <path
       d="m 7.6263232,52.616577 v -1.808675 h 1.2069893 q 0.2411567,0 0.2411567,0.241157 l -0.00121,1.326361 q 0,0.241157 -0.2411567,0.241157 z m 1.0852051,-1.445734 h -0.72347 v 1.083999 h 0.72347 z"
       style="fill:#ffffff;stroke-width:0.26458335px"
       id="path2509" />
    <path
       d="m 10.474384,51.893107 0.289388,0.72347 h -0.361735 l -0.302652,-0.72347 H 9.6761551 v 0.72347 h -0.361735 v -1.567518 q 0,-0.241157 0.2411567,-0.241157 h 0.9646272 q 0.241156,0 0.241156,0.241157 v 0.602891 q 0,0.241157 -0.241156,0.241157 z m -0.07476,-0.361735 V 51.169637 H 9.6761551 v 0.361735 z"
       style="fill:#ffffff;stroke-width:0.26458335px"
       id="path2511" />
    <path
       d="m 11.364252,50.807902 v 1.808675 h -0.361735 v -1.808675 z"
       style="fill:#ffffff;stroke-width:0.26458335px"
       id="path2513" />
    <path
       d="m 12.389168,52.24399 0.420818,-1.436088 h 0.361735 l -0.530544,1.808675 h -0.505224 l -0.530544,-1.808675 h 0.361735 z"
       style="fill:#ffffff;stroke-width:0.26458335px"
       id="path2515" />
    <path
       d="m 13.655241,51.893107 v 0.361735 h 0.844048 v 0.361735 h -0.964627 q -0.241156,0 -0.241156,-0.241157 v -1.326361 q 0,-0.241157 0.241156,-0.241157 h 0.964627 v 0.361735 h -0.844048 v 0.361735 h 0.482313 l -0.120578,0.361735 z"
       style="fill:#ffffff;stroke-width:0.26458335px"
       id="path2517" />
    <path
       d="m 15.701455,50.807902 h 0.243568 q 0.241157,0 0.241157,0.241157 v 1.567518 h -0.361735 v -1.44694 h -0.241157 z"
       style="fill:#ffffff;stroke-width:0.26458335px"
       id="path2519" />
  </g>
  <g
     aria-label="DRIVE 2"
     style="font-style:normal;font-variant:normal;font-weight:normal;font-stretch:normal;font-size:2.46944451px;line-height:125%;font-family:Akashi;-inkscape-font-specification:Akashi;letter-spacing:0px;word-spacing:0px;fill:#ffffff;fill-opacity:1;stroke:none;stroke-width:0.26458335px;stroke-linecap:butt;stroke-linejoin:miter;stroke-opacity:1"
     id="text2481">
    <path
       d="m 7.2036963,68.468376 v -1.808675 h 1.2069892 q 0.2411567,0 0.2411567,0.241157 l -0.00121,1.326361 q 0,0.241157 -0.2411567,0.241157 z M 8.2889014,67.022642 H 7.5654313 v 1.083999 h 0.7234701 z"
       style="fill:#ffffff;stroke-width:0.26458335px"
       id="path2496" />
    <path
       d="m 10.051757,67.744906 0.289388,0.72347 H 9.9794098 l -0.3026516,-0.72347 h -0.42323 v 0.72347 H 8.8917931 v -1.567518 q 0,-0.241157 0.2411567,-0.241157 h 0.9646272 q 0.241156,0 0.241156,0.241157 v 0.602891 q 0,0.241157 -0.241156,0.241157 z M 9.976998,67.383171 v -0.361735 h -0.72347 v 0.361735 z"
       style="fill:#ffffff;stroke-width:0.26458335px"
       id="path2498" />
    <path
       d="m 10.941625,66.659701 v 1.808675 H 10.57989 v -1.808675 z"
       style="fill:#ffffff;stroke-width:0.26458335px"
       id="path2500" />
    <path
       d="m 11.966541,68.095789 0.420818,-1.436088 h 0.361735 l -0.530544,1.808675 h -0.505224 l -0.530544,-1.808675 h 0.361735 z"
       style="fill:#ffffff;stroke-width:0.26458335px"
       id="path2502" />
    <path
       d="m 13.232614,67.744906 v 0.361735 h 0.844048 v 0.361735 h -0.964627 q -0.241156,0 -0.241156,-0.241157 v -1.326361 q 0,-0.241157 0.241156,-0.241157 h 0.964627 v 0.361735 h -0.844048 v 0.361735 h 0.482313 l -0.120578,0.361735 z"
       style="fill:#ffffff;stroke-width:0.26458335px"
       id="path2504" />
    <path
       d="m 16.608807,68.46717 h -1.44694 v -0.845254 q 0,-0.239951 0.241157,-0.239951 h 0.844048 V 67.02023 l -0.964627,0.0012 -0.120578,-0.362941 h 1.205784 q 0.241156,0 0.241156,0.241157 v 0.602892 q 0,0.239951 -0.241156,0.239951 h -0.844049 v 0.36294 l 1.085205,-0.0012 z"
       style="fill:#ffffff;stroke-width:0.26458335px"
       id="path2506" />
  </g>
  <g
     aria-label="BITS"
     style="font-style:normal;font-variant:normal;font-weight:normal;font-stretch:normal;font-size:2.46944451px;line-height:125%;font-family:Akashi;-inkscape-font-specification:Akashi;letter-spacing:0px;word-spacing:0px;fill:#ffffff;fill-opacity:1;stroke:none;stroke-width:0.26458335px;stroke-linecap:butt;stroke-linejoin:miter;stroke-opacity:1"
     id="text2485">
    <path
       d="M 10.220556,88.958028 H 9.6152531 v 0.360529 h 0.6053029 z m 0.118167,0.724676 H 9.6152531 v 0.360529 h 0.7234699 z m 0.243568,-0.160369 q 0.118167,0.05064 0.118167,0.219452 v 0.422025 q 0,0.241156 -0.241156,0.241156 H 9.2535181 v -1.808675 h 1.0876169 q 0.241156,0 0.241156,0.241157 z"
       style="fill:#ffffff;stroke-width:0.26458335px"
       id="path2487" />
    <path
       d="m 11.30335,88.596293 v 1.808675 h -0.361735 v -1.808675 z"
       style="fill:#ffffff;stroke-width:0.26458335px"
       id="path2489" />
    <path
       d="m 12.870869,88.596293 v 0.361735 h -0.482314 v 1.44694 H 12.02682 v -1.44694 h -0.482313 v -0.361735 z"
       style="fill:#ffffff;stroke-width:0.26458335px"
       id="path2491" />
    <path
       d="M 14.439593,88.956822 H 13.47376 v 0.362941 h 0.844049 q 0.241156,0 0.241156,0.239951 v 0.602892 q 0,0.241156 -0.241156,0.241156 h -1.205784 v -0.360529 l 1.085205,-0.0012 v -0.361735 h -0.844048 q -0.241157,0 -0.241157,-0.239951 V 88.83745 q 0,-0.242363 0.241157,-0.242363 h 1.205783 z"
       style="fill:#ffffff;stroke-width:0.26458335px"
       id="path2493" />
  </g>
</svg>
