<?xml version="1.0" encoding="UTF-8" standalone="no"?>
<svg
   xmlns:dc="http://purl.org/dc/elements/1.1/"
   xmlns:cc="http://creativecommons.org/ns#"
   xmlns:rdf="http://www.w3.org/1999/02/22-rdf-syntax-ns#"
   xmlns:svg="http://www.w3.org/2000/svg"
   xmlns="http://www.w3.org/2000/svg"
   width="90"
   height="379.44983"
   viewBox="0 0 23.8125 100.39612"
   version="1.1"
   id="svg4541">
  <defs
     id="defs4535" />
  <metadata
     id="metadata4538">
    <rdf:RDF>
      <cc:Work
         rdf:about="">
        <dc:format>image/svg+xml</dc:format>
        <dc:type
           rdf:resource="http://purl.org/dc/dcmitype/StillImage" />
        <dc:title></dc:title>
      </cc:Work>
    </rdf:RDF>
  </metadata>
  <path
     id="path25057"
     d="M 0,0 H 23.812502 V 100.39611 H 0 Z m 0,0"
     style="fill:#2e2f31;fill-opacity:1;fill-rule:nonzero;stroke:none;stroke-width:0.21998174" />
  <g
     id="text864"
     style="font-style:normal;font-variant:normal;font-weight:500;font-stretch:normal;font-size:7.66842127px;line-height:125%;font-family:'Futura PT';-inkscape-font-specification:'Futura PT Medium';letter-spacing:0px;word-spacing:0px;opacity:0.7;fill:#ffffff;fill-opacity:1;stroke:none;stroke-width:0.95855266px;stroke-linecap:butt;stroke-linejoin:miter;stroke-opacity:1"
     aria-label="MADE IN ITALY"
     transform="matrix(0.27602381,0,0,0.27602381,258.28497,-0.07321088)">
    <path
       id="path5435"
       style="font-style:normal;font-variant:normal;font-weight:500;font-stretch:normal;font-size:6.3903513px;font-family:'Futura PT';-inkscape-font-specification:'Futura PT Medium';fill:#ffffff;stroke-width:0.95855266px"
       d="m -913.35319,359.03888 h 0.84353 l 0.43454,-2.62643 1.09275,2.62643 h 0.28118 l 1.14387,-2.62643 0.38342,2.62643 h 0.84353 l -0.71572,-4.26236 h -0.60069 l -1.18222,2.7095 -1.13109,-2.7095 h -0.60069 z" />
    <path
       id="path5437"
       style="font-style:normal;font-variant:normal;font-weight:500;font-stretch:normal;font-size:6.3903513px;font-family:'Futura PT';-inkscape-font-specification:'Futura PT Medium';fill:#ffffff;stroke-width:0.95855266px"
       d="m -904.68058,359.03888 h 0.89465 l -1.78291,-4.26236 h -0.65182 l -1.83403,4.26236 h 0.90104 l 0.37703,-0.89465 h 1.71901 z m -1.83403,-1.57203 0.60708,-1.53368 0.60708,1.53368 z" />
    <path
       id="path5439"
       style="font-style:normal;font-variant:normal;font-weight:500;font-stretch:normal;font-size:6.3903513px;font-family:'Futura PT';-inkscape-font-specification:'Futura PT Medium';fill:#ffffff;stroke-width:0.95855266px"
       d="m -903.28828,354.77652 v 4.26236 h 1.09914 c 0.5943,0 1.06079,-0.0575 1.55924,-0.40898 0.56235,-0.3962 0.85631,-1.00968 0.85631,-1.71901 0,-0.70933 -0.30035,-1.32919 -0.81797,-1.719 -0.47288,-0.35147 -0.9905,-0.41537 -1.5848,-0.41537 z m 0.83074,0.71571 h 0.25562 c 0.28117,0 0.70293,0.0256 1.04801,0.28118 0.33869,0.25561 0.52401,0.69016 0.52401,1.13748 0,0.45372 -0.19171,0.88826 -0.5304,1.13109 -0.37064,0.2684 -0.83074,0.28118 -1.04162,0.28118 h -0.25562 z" />
    <path
       id="path5441"
       style="font-style:normal;font-variant:normal;font-weight:500;font-stretch:normal;font-size:6.3903513px;font-family:'Futura PT';-inkscape-font-specification:'Futura PT Medium';fill:#ffffff;stroke-width:0.95855266px"
       d="m -896.64282,354.77652 h -2.36443 v 4.26236 h 2.36443 v -0.71572 h -1.53368 v -1.16304 h 1.46978 v -0.71572 h -1.46978 v -0.95217 h 1.53368 z" />
    <path
       id="path5443"
       style="font-style:normal;font-variant:normal;font-weight:500;font-stretch:normal;font-size:6.3903513px;font-family:'Futura PT';-inkscape-font-specification:'Futura PT Medium';fill:#ffffff;stroke-width:0.95855266px"
       d="m -894.35178,354.77652 v 4.26236 h 0.83075 v -4.26236 z" />
    <path
       id="path5445"
       style="font-style:normal;font-variant:normal;font-weight:500;font-stretch:normal;font-size:6.3903513px;font-family:'Futura PT';-inkscape-font-specification:'Futura PT Medium';fill:#ffffff;stroke-width:0.95855266px"
       d="m -891.72374,359.03888 v -2.8501 l 2.59448,2.8501 h 0.57513 v -4.26236 h -0.83075 v 2.8437 l -2.59448,-2.8437 h -0.57513 v 4.26236 z" />
    <path
       id="path5447"
       style="font-style:normal;font-variant:normal;font-weight:500;font-stretch:normal;font-size:6.3903513px;font-family:'Futura PT';-inkscape-font-specification:'Futura PT Medium';fill:#ffffff;stroke-width:0.95855266px"
       d="m -886.10173,354.77652 v 4.26236 h 0.83074 v -4.26236 z" />
    <path
       id="path5449"
       style="font-style:normal;font-variant:normal;font-weight:500;font-stretch:normal;font-size:6.3903513px;font-family:'Futura PT';-inkscape-font-specification:'Futura PT Medium';fill:#ffffff;stroke-width:0.95855266px"
       d="m -882.00392,355.49223 v -0.71571 h -2.74785 v 0.71571 h 0.95855 v 3.54665 h 0.83075 v -3.54665 z" />
    <path
       id="path5451"
       style="font-style:normal;font-variant:normal;font-weight:500;font-stretch:normal;font-size:6.3903513px;font-family:'Futura PT';-inkscape-font-specification:'Futura PT Medium';fill:#ffffff;stroke-width:0.95855266px"
       d="m -878.83211,359.03888 h 0.89465 l -1.78291,-4.26236 h -0.65182 l -1.83403,4.26236 h 0.90104 l 0.37703,-0.89465 h 1.71901 z m -1.83403,-1.57203 0.60708,-1.53368 0.60708,1.53368 z" />
    <path
       id="path5453"
       style="font-style:normal;font-variant:normal;font-weight:500;font-stretch:normal;font-size:6.3903513px;font-family:'Futura PT';-inkscape-font-specification:'Futura PT Medium';fill:#ffffff;stroke-width:0.95855266px"
       d="m -877.43981,354.77652 v 4.26236 h 2.14715 v -0.71572 h -1.31641 v -3.54664 z" />
    <path
       id="path5455"
       style="font-style:normal;font-variant:normal;font-weight:500;font-stretch:normal;font-size:6.3903513px;font-family:'Futura PT';-inkscape-font-specification:'Futura PT Medium';fill:#ffffff;stroke-width:0.95855266px"
       d="m -874.17834,359.03888 h 0.83075 v -1.94906 l 1.50173,-2.3133 h -0.98411 l -0.91382,1.48256 -0.91382,-1.48256 h -0.98412 l 1.46339,2.3133 z" />
  </g>
  <g
     style="opacity:0.7;fill:#ffffff;stroke-width:0.91882312"
     id="g1736"
     transform="matrix(0.27602381,0,0,0.27602381,257.54109,2.5726231)">
    <g
       id="text4639-3"
       style="font-style:normal;font-variant:normal;font-weight:normal;font-stretch:normal;font-size:12.78070068px;line-height:125%;font-family:'Squared Display';-inkscape-font-specification:'Squared Display';letter-spacing:0px;word-spacing:0px;fill:#ffffff;fill-opacity:1;stroke:none;stroke-width:0.9585526px;stroke-linecap:butt;stroke-linejoin:miter;stroke-opacity:1"
       aria-label="sonus dept.">
      <path
         id="path5414"
         style="font-style:normal;font-variant:normal;font-weight:500;font-stretch:normal;font-size:12.78070068px;font-family:'Futura PT';-inkscape-font-specification:'Futura PT Medium';fill:#ffffff;stroke-width:0.9585526px"
         d="m -916.33104,336.95691 c -0.70294,-0.53679 -1.35475,-0.58791 -1.76374,-0.58791 -0.44732,0 -1.00967,0.0511 -1.44422,0.3962 -0.31951,0.26839 -0.57513,0.71572 -0.57513,1.25251 0,0.44732 0.16615,0.7924 0.42177,1.0608 0.33229,0.34507 0.7924,0.524 1.1886,0.66459 l 0.35786,0.12781 c 0.20449,0.0767 0.48567,0.21727 0.48567,0.56235 0,0.38342 -0.3323,0.60069 -0.76684,0.60069 -0.46011,0 -0.92022,-0.28117 -1.22695,-0.63903 l -0.81797,0.94577 c 0.34508,0.37064 0.9969,0.92021 2.14716,0.92021 0.67738,0 1.21417,-0.17893 1.66149,-0.58791 0.44733,-0.40898 0.61348,-0.90743 0.61348,-1.40588 0,-0.35786 -0.11503,-0.69016 -0.28118,-0.92021 -0.31952,-0.43454 -0.97133,-0.65182 -1.40588,-0.7924 l -0.37064,-0.11503 c -0.43454,-0.14059 -0.49844,-0.35786 -0.49844,-0.49845 0,-0.26839 0.23005,-0.44732 0.60069,-0.44732 0.16615,0 0.53679,0.0256 0.90743,0.37064 z" />
      <path
         id="path5416"
         style="font-style:normal;font-variant:normal;font-weight:500;font-stretch:normal;font-size:12.78070068px;font-family:'Futura PT';-inkscape-font-specification:'Futura PT Medium';fill:#ffffff;stroke-width:0.9585526px"
         d="m -912.05849,336.369 c -1.04802,0 -1.76374,0.34508 -2.23662,0.77962 -0.54957,0.49845 -0.933,1.26529 -0.933,2.17272 0,0.89465 0.38343,1.66149 0.933,2.15994 0.47288,0.43454 1.1886,0.77962 2.23662,0.77962 1.04802,0 1.76374,-0.34508 2.23662,-0.77962 0.54957,-0.49845 0.93299,-1.26529 0.93299,-2.15994 0,-0.90743 -0.38342,-1.67427 -0.93299,-2.17272 -0.47288,-0.43454 -1.1886,-0.77962 -2.23662,-0.77962 z m 0,4.51158 c -0.90743,0 -1.55925,-0.71571 -1.55925,-1.55924 0,-0.86909 0.6646,-1.57203 1.55925,-1.57203 0.89465,0 1.55924,0.70294 1.55924,1.57203 0,0.84353 -0.65181,1.55924 -1.55924,1.55924 z" />
      <path
         id="path5418"
         style="font-style:normal;font-variant:normal;font-weight:500;font-stretch:normal;font-size:12.78070068px;font-family:'Futura PT';-inkscape-font-specification:'Futura PT Medium';fill:#ffffff;stroke-width:0.9585526px"
         d="m -907.6829,342.08197 h 1.55925 v -2.82453 c 0,-0.31952 0.0128,-0.71572 0.24283,-1.07358 0.23005,-0.34508 0.54957,-0.48567 0.95855,-0.48567 0.15337,0 0.48567,0.0256 0.7285,0.28118 0.28118,0.29395 0.29396,0.77962 0.29396,1.08635 v 3.01625 h 1.55924 v -3.47635 c 0,-0.53679 -0.0511,-1.08636 -0.43454,-1.55925 -0.43454,-0.53679 -1.15026,-0.67737 -1.63593,-0.67737 -0.89465,0 -1.41866,0.48566 -1.71261,0.89465 v -0.71572 h -1.55925 z" />
      <path
         id="path5420"
         style="font-style:normal;font-variant:normal;font-weight:500;font-stretch:normal;font-size:12.78070068px;font-family:'Futura PT';-inkscape-font-specification:'Futura PT Medium';fill:#ffffff;stroke-width:0.9585526px"
         d="m -900.86819,336.54793 v 3.38688 c 0,0.49845 0.0639,1.16305 0.67738,1.69984 0.51123,0.44732 1.32919,0.62625 2.00657,0.62625 0.67737,0 1.49534,-0.17893 2.00657,-0.62625 0.61347,-0.53679 0.67737,-1.20139 0.67737,-1.69984 v -3.38688 h -1.55924 v 3.13127 c 0,0.29395 -0.0256,0.69016 -0.3323,0.97133 -0.19171,0.16615 -0.49845,0.28118 -0.7924,0.28118 -0.29396,0 -0.6007,-0.11503 -0.79241,-0.28118 -0.30673,-0.28117 -0.33229,-0.67738 -0.33229,-0.97133 v -3.13127 z" />
      <path
         id="path5422"
         style="font-style:normal;font-variant:normal;font-weight:500;font-stretch:normal;font-size:12.78070068px;font-family:'Futura PT';-inkscape-font-specification:'Futura PT Medium';fill:#ffffff;stroke-width:0.9585526px"
         d="m -890.24543,336.95691 c -0.70294,-0.53679 -1.35475,-0.58791 -1.76374,-0.58791 -0.44732,0 -1.00967,0.0511 -1.44422,0.3962 -0.31951,0.26839 -0.57513,0.71572 -0.57513,1.25251 0,0.44732 0.16615,0.7924 0.42177,1.0608 0.33229,0.34507 0.7924,0.524 1.1886,0.66459 l 0.35786,0.12781 c 0.20449,0.0767 0.48567,0.21727 0.48567,0.56235 0,0.38342 -0.3323,0.60069 -0.76685,0.60069 -0.4601,0 -0.92021,-0.28117 -1.22694,-0.63903 l -0.81797,0.94577 c 0.34508,0.37064 0.9969,0.92021 2.14716,0.92021 0.67738,0 1.21417,-0.17893 1.66149,-0.58791 0.44733,-0.40898 0.61348,-0.90743 0.61348,-1.40588 0,-0.35786 -0.11503,-0.69016 -0.28118,-0.92021 -0.31952,-0.43454 -0.97133,-0.65182 -1.40588,-0.7924 l -0.37064,-0.11503 c -0.43454,-0.14059 -0.49844,-0.35786 -0.49844,-0.49845 0,-0.26839 0.23005,-0.44732 0.60069,-0.44732 0.16615,0 0.53679,0.0256 0.90743,0.37064 z" />
      <path
         id="path5424"
         style="font-style:normal;font-variant:normal;font-weight:500;font-stretch:normal;font-size:12.78070068px;font-family:'Futura PT';-inkscape-font-specification:'Futura PT Medium';fill:#ffffff;stroke-width:0.9585526px"
         d="m -881.64761,337.26365 c -0.52401,-0.81797 -1.35476,-0.89465 -1.77652,-0.89465 -1.63593,0 -2.74785,1.30363 -2.74785,2.93956 0,1.62315 1.1247,2.95234 2.82453,2.95234 0.3962,0 1.13748,-0.0895 1.69984,-0.89465 v 0.71572 h 1.55924 v -9.31713 h -1.55924 z m -1.38032,0.48566 c 0.89465,0 1.53368,0.67738 1.53368,1.55925 0,0.88187 -0.63903,1.57202 -1.53368,1.57202 -0.89465,0 -1.53368,-0.69015 -1.53368,-1.57202 0,-0.88187 0.63903,-1.55925 1.53368,-1.55925 z" />
      <path
         id="path5426"
         style="font-style:normal;font-variant:normal;font-weight:500;font-stretch:normal;font-size:12.78070068px;font-family:'Futura PT';-inkscape-font-specification:'Futura PT Medium';fill:#ffffff;stroke-width:0.9585526px"
         d="m -874.60145,340.30545 c -0.25562,0.44733 -0.70294,0.7285 -1.29085,0.7285 -0.6007,0 -0.94578,-0.29395 -1.11193,-0.52401 -0.17893,-0.24283 -0.26839,-0.60069 -0.26839,-0.93299 h 4.14095 v -0.1278 c 0,-0.6007 -0.0767,-1.46978 -0.6646,-2.17272 -0.38342,-0.46011 -1.03524,-0.90743 -2.15994,-0.90743 -0.66459,0 -1.43144,0.14058 -2.08325,0.77962 -0.3962,0.3962 -0.84353,1.07358 -0.84353,2.17272 0,0.86909 0.25562,1.58481 0.86909,2.15994 0.54957,0.52401 1.22695,0.77962 2.1216,0.77962 1.92988,0 2.55614,-1.31641 2.72228,-1.72539 z m -2.62005,-1.72539 c 0.12781,-0.74128 0.7285,-1.11192 1.30363,-1.11192 0.57514,0 1.18861,0.35786 1.31642,1.11192 z" />
      <path
         id="path5428"
         style="font-style:normal;font-variant:normal;font-weight:500;font-stretch:normal;font-size:12.78070068px;font-family:'Futura PT';-inkscape-font-specification:'Futura PT Medium';fill:#ffffff;stroke-width:0.9585526px"
         d="m -870.37763,341.36625 c 0.61347,0.83075 1.39309,0.89465 1.77652,0.89465 0.81796,0 1.457,-0.31952 1.87876,-0.71572 0.31952,-0.30674 0.86909,-0.98411 0.86909,-2.23662 0,-1.09914 -0.42177,-1.7893 -0.83075,-2.19828 -0.62625,-0.62626 -1.40588,-0.74128 -1.89154,-0.74128 -1.02246,0 -1.55925,0.54957 -1.80208,0.89465 v -0.71572 h -1.55925 v 8.46082 h 1.55925 z m 1.38031,-3.61694 c 0.37064,0 0.77963,0.14059 1.0608,0.3962 0.30674,0.29396 0.47289,0.75407 0.47289,1.16305 0,0.40898 -0.15337,0.86909 -0.48567,1.17582 -0.20449,0.19171 -0.53679,0.3962 -1.04802,0.3962 -0.48566,0 -0.81796,-0.19171 -1.02245,-0.37064 -0.30674,-0.26839 -0.51123,-0.69015 -0.51123,-1.20138 0,-0.51123 0.17893,-0.89465 0.52401,-1.18861 0.28117,-0.25561 0.60069,-0.37064 1.00967,-0.37064 z" />
      <path
         id="path5430"
         style="font-style:normal;font-variant:normal;font-weight:500;font-stretch:normal;font-size:12.78070068px;font-family:'Futura PT';-inkscape-font-specification:'Futura PT Medium';fill:#ffffff;stroke-width:0.9585526px"
         d="m -862.01506,337.87712 v -1.32919 h -1.07358 v -1.89155 h -1.55924 v 1.89155 h -0.61348 v 1.32919 h 0.61348 v 4.20485 h 1.55924 v -4.20485 z" />
      <path
         id="path5432"
         style="font-style:normal;font-variant:normal;font-weight:500;font-stretch:normal;font-size:12.78070068px;font-family:'Futura PT';-inkscape-font-specification:'Futura PT Medium';fill:#ffffff;stroke-width:0.9585526px"
         d="m -861.33089,341.25122 c 0,0.56236 0.43454,0.9969 0.99689,0.9969 0.56235,0 0.9969,-0.43454 0.9969,-0.9969 0,-0.56235 -0.43455,-0.99689 -0.9969,-0.99689 -0.56235,0 -0.99689,0.43454 -0.99689,0.99689 z" />
    </g>
  </g>
  <path
     id="path25247"
     d="m 21.298962,16.502873 c 0,-0.425592 -0.406368,-0.773324 -0.902207,-0.773324 H 13.46991 c -0.495838,0 -0.9022,0.347732 -0.9022,0.773324 v 9.035618 c 0,0.425596 0.406362,0.77439 0.9022,0.77439 h 6.926845 c 0.495839,0 0.902207,-0.348794 0.902207,-0.77439 z m 0,0"
     style="opacity:0.9;fill:#212121;fill-opacity:1;fill-rule:nonzero;stroke:none;stroke-width:0.27081189" />
  <path
     id="path25259"
     d="m 11.244794,16.502871 c 0,-0.425594 -0.406365,-0.773323 -0.902203,-0.773323 H 3.414504 c -0.495839,0 -0.900961,0.347729 -0.900961,0.773323 v 9.03562 c 0,0.425596 0.405122,0.774391 0.900961,0.774391 h 6.928087 c 0.495838,0 0.902203,-0.348795 0.902203,-0.774391 z m 0,0"
     style="opacity:0.9;fill:#e3dbdb;fill-opacity:1;fill-rule:nonzero;stroke:none;stroke-width:0.27081189" />
  <g
     id="text880"
     style="font-style:normal;font-variant:normal;font-weight:normal;font-stretch:normal;font-size:3.52777815px;line-height:125%;font-family:Akashi;-inkscape-font-specification:Akashi;letter-spacing:0px;word-spacing:0px;fill:#ffffff;fill-opacity:1;stroke:none;stroke-width:0.26458335px;stroke-linecap:butt;stroke-linejoin:miter;stroke-opacity:1"
     aria-label="LUPPOLO">
    <path
       id="path902"
       style="fill:#ffffff;stroke-width:0.26458335px"
       d="M 5.7050783,6.2044344 H 4.3270399 q -0.3445095,0 -0.3445095,-0.3445096 V 3.6206125 H 4.4992947 V 5.68767 h 1.2057836 z" />
    <path
       id="path904"
       style="fill:#ffffff;stroke-width:0.26458335px"
       d="M 6.5663523,3.6206125 V 5.68767 h 1.0335288 l 0.00172,-2.0670575 H 8.118368 v 2.2393123 q 0,0.3445096 -0.3445096,0.3445096 H 6.3940975 q -0.3445095,0 -0.3445095,-0.3445096 V 3.6206125 Z" />
    <path
       id="path906"
       style="fill:#ffffff;stroke-width:0.26458335px"
       d="m 8.4611552,3.9651221 q 0,-0.3445096 0.3445096,-0.3445096 h 1.3780382 q 0.34451,0 0.34451,0.3445096 v 1.2057835 q 0,0.3445096 -0.34451,0.3445096 H 9.1501743 L 9.3224291,4.9986508 H 10.011448 V 4.1373769 H 8.9779196 V 6.2044344 H 8.4611552 Z" />
    <path
       id="path908"
       style="fill:#ffffff;stroke-width:0.26458335px"
       d="m 10.872722,3.9651221 q 0,-0.3445096 0.34451,-0.3445096 h 1.378038 q 0.34451,0 0.34451,0.3445096 v 1.2057835 q 0,0.3445096 -0.34451,0.3445096 h -1.033528 l 0.172254,-0.5167644 h 0.68902 V 4.1373769 h -1.033529 v 2.0670575 h -0.516765 z" />
    <path
       id="path910"
       style="fill:#ffffff;stroke-width:0.26458335px"
       d="m 15.351348,5.8599248 q 0,0.3445096 -0.34451,0.3445096 H 13.6288 q -0.34451,0 -0.34451,-0.3445096 V 3.9651221 q 0,-0.3445096 0.34451,-0.3445096 h 1.378038 q 0.34451,0 0.34451,0.3445096 z M 13.801054,4.1373769 V 5.68767 h 1.033529 V 4.1373769 Z" />
    <path
       id="path912"
       style="fill:#ffffff;stroke-width:0.26458335px"
       d="m 17.418405,6.2044344 h -1.378039 q -0.344509,0 -0.344509,-0.3445096 V 3.6206125 h 0.516764 V 5.68767 h 1.205784 z" />
    <path
       id="path914"
       style="fill:#ffffff;stroke-width:0.26458335px"
       d="m 19.829972,5.8599248 q 0,0.3445096 -0.34451,0.3445096 h -1.378038 q -0.34451,0 -0.34451,-0.3445096 V 3.9651221 q 0,-0.3445096 0.34451,-0.3445096 h 1.378038 q 0.34451,0 0.34451,0.3445096 z M 18.279679,4.1373769 V 5.68767 h 1.033529 V 4.1373769 Z" />
  </g>
  <g
     id="text884"
     style="font-style:normal;font-variant:normal;font-weight:normal;font-stretch:normal;font-size:2.46944451px;line-height:125%;font-family:Akashi;-inkscape-font-specification:Akashi;letter-spacing:0px;word-spacing:0px;fill:#ffffff;fill-opacity:1;stroke:none;stroke-width:0.26458335px;stroke-linecap:butt;stroke-linejoin:miter;stroke-opacity:1"
     aria-label="IN">
    <path
       id="path917"
       style="fill:#ffffff;stroke-width:0.26458335px"
       d="m 6.2153794,27.928872 v 1.808675 h -0.361735 v -1.808675 z" />
    <path
       id="path919"
       style="fill:#ffffff;stroke-width:0.26458335px"
       d="m 6.4565361,29.737547 v -1.568724 q 0,-0.241157 0.2411567,-0.241157 h 0.9658326 q 0.2411566,0 0.2411566,0.241157 v 1.568724 H 7.542947 l -0.00121,-1.448146 h -0.72347 v 1.448146 z" />
  </g>
  <g
     id="text888"
     style="font-style:normal;font-variant:normal;font-weight:normal;font-stretch:normal;font-size:2.46944451px;line-height:125%;font-family:Akashi;-inkscape-font-specification:Akashi;letter-spacing:0px;word-spacing:0px;fill:#ffffff;fill-opacity:1;stroke:none;stroke-width:0.26458335px;stroke-linecap:butt;stroke-linejoin:miter;stroke-opacity:1"
     aria-label="OUT">
    <path
       id="path922"
       style="fill:#ffffff;stroke-width:0.26458335px"
       d="m 16.028981,29.495788 q 0,0.241156 -0.241157,0.241156 h -0.964627 q -0.241156,0 -0.241156,-0.241156 v -1.326362 q 0,-0.241157 0.241156,-0.241157 h 0.964627 q 0.241157,0 0.241157,0.241157 z m -1.085205,-1.205784 v 1.085205 h 0.72347 v -1.085205 z" />
    <path
       id="path924"
       style="fill:#ffffff;stroke-width:0.26458335px"
       d="m 16.631873,27.928269 v 1.44694 h 0.72347 l 0.0012,-1.44694 h 0.361735 v 1.567519 q 0,0.241156 -0.241157,0.241156 h -0.965833 q -0.241156,0 -0.241156,-0.241156 v -1.567519 z" />
    <path
       id="path926"
       style="fill:#ffffff;stroke-width:0.26458335px"
       d="m 19.284596,27.928269 v 0.361735 h -0.482313 v 1.44694 h -0.361735 v -1.44694 h -0.482313 v -0.361735 z" />
  </g>
  <g
     id="text892"
     style="font-style:normal;font-variant:normal;font-weight:normal;font-stretch:normal;font-size:2.46944451px;line-height:125%;font-family:Akashi;-inkscape-font-specification:Akashi;letter-spacing:0px;word-spacing:0px;fill:#ffffff;fill-opacity:1;stroke:none;stroke-width:0.26458335px;stroke-linecap:butt;stroke-linejoin:miter;stroke-opacity:1"
     aria-label="REC/PLAY">
    <path
       id="path929"
       style="fill:#ffffff;stroke-width:0.26458335px"
       d="m 6.9764062,51.413687 0.289388,0.72347 h -0.361735 l -0.3026517,-0.72347 h -0.42323 v 0.72347 h -0.361735 v -1.567518 q 0,-0.241157 0.2411567,-0.241157 h 0.9646267 q 0.2411567,0 0.2411567,0.241157 v 0.602892 q 0,0.241156 -0.2411567,0.241156 z M 6.9016476,51.051952 V 50.690217 H 6.1781775 v 0.361735 z" />
    <path
       id="path931"
       style="fill:#ffffff;stroke-width:0.26458335px"
       d="m 7.8662744,51.413687 v 0.361735 h 0.8440484 v 0.361735 H 7.7456961 q -0.2411567,0 -0.2411567,-0.241156 v -1.326362 q 0,-0.241157 0.2411567,-0.241157 h 0.9646267 v 0.361735 H 7.8662744 v 0.361735 h 0.4823134 l -0.1205784,0.361735 z" />
    <path
       id="path933"
       style="fill:#ffffff;stroke-width:0.26458335px"
       d="M 10.036685,50.690217 H 9.3132145 v 1.085205 h 0.8440485 v 0.361735 H 9.1926361 q -0.2411567,0 -0.2411567,-0.241156 v -1.326362 q 0,-0.241157 0.2411567,-0.241157 h 0.9646269 z" />
    <path
       id="path935"
       style="fill:#ffffff;stroke-width:0.26458335px"
       d="m 10.39842,52.257736 0.771701,-2.049832 h 0.361735 l -0.771701,2.049832 z" />
    <path
       id="path937"
       style="fill:#ffffff;stroke-width:0.26458335px"
       d="m 11.724782,50.569639 q 0,-0.241157 0.241156,-0.241157 h 0.964627 q 0.241157,0 0.241157,0.241157 v 0.844048 q 0,0.241157 -0.241157,0.241157 h -0.72347 l 0.120578,-0.361735 h 0.482314 v -0.602892 h -0.72347 v 1.44694 h -0.361735 z" />
    <path
       id="path939"
       style="fill:#ffffff;stroke-width:0.26458335px"
       d="m 14.618662,52.137157 h -0.964627 q -0.241156,0 -0.241156,-0.241156 v -1.567519 h 0.361735 v 1.44694 h 0.844048 z" />
    <path
       id="path941"
       style="fill:#ffffff;stroke-width:0.26458335px"
       d="m 14.859818,52.137157 v -1.568724 q 0,-0.241157 0.241157,-0.241157 h 0.964627 q 0.241157,0 0.241157,0.241157 v 1.568724 h -0.361735 v -0.483519 h -0.723471 v 0.483519 z m 1.085206,-1.448145 h -0.723471 v 0.602891 h 0.723471 z" />
    <path
       id="path943"
       style="fill:#ffffff;stroke-width:0.26458335px"
       d="m 17.994856,51.894795 q 0,0.241157 -0.241157,0.241157 h -0.964627 l 0.120578,-0.361735 h 0.723471 v -0.120579 h -0.844049 q -0.241157,0 -0.241157,-0.241156 v -1.085206 h 0.361735 v 0.964627 h 0.723471 v -0.964627 h 0.36294 z" />
  </g>
  <g
     id="text896"
     style="font-style:normal;font-variant:normal;font-weight:normal;font-stretch:normal;font-size:2.46944451px;line-height:125%;font-family:Akashi;-inkscape-font-specification:Akashi;letter-spacing:0px;word-spacing:0px;fill:#ffffff;fill-opacity:1;stroke:none;stroke-width:0.26458335px;stroke-linecap:butt;stroke-linejoin:miter;stroke-opacity:1"
     aria-label="OVERDUB">
    <path
       id="path946"
       style="fill:#ffffff;stroke-width:0.26458335px"
       d="m 7.6860087,68.202805 q 0,0.241157 -0.2411567,0.241157 H 6.4802252 q -0.2411567,0 -0.2411567,-0.241157 v -1.326361 q 0,-0.241157 0.2411567,-0.241157 H 7.444852 q 0.2411567,0 0.2411567,0.241157 z M 6.6008035,66.997022 v 1.085205 h 0.7234701 v -1.085205 z" />
    <path
       id="path948"
       style="fill:#ffffff;stroke-width:0.26458335px"
       d="m 8.7109246,68.071375 0.4208185,-1.436088 h 0.361735 L 8.9629334,68.443962 H 8.4577101 L 7.9271654,66.635287 h 0.361735 z" />
    <path
       id="path950"
       style="fill:#ffffff;stroke-width:0.26458335px"
       d="m 9.9769973,67.720492 v 0.361735 h 0.8440487 v 0.361735 H 9.856419 q -0.2411567,0 -0.2411567,-0.241157 v -1.326361 q 0,-0.241157 0.2411567,-0.241157 h 0.964627 v 0.361735 H 9.9769973 v 0.361735 h 0.4823137 l -0.120579,0.361735 z" />
    <path
       id="path952"
       style="fill:#ffffff;stroke-width:0.26458335px"
       d="m 12.222166,67.720492 0.289388,0.72347 h -0.361735 l -0.302652,-0.72347 h -0.42323 v 0.72347 h -0.361735 v -1.567518 q 0,-0.241157 0.241157,-0.241157 h 0.964627 q 0.241157,0 0.241157,0.241157 v 0.602891 q 0,0.241157 -0.241157,0.241157 z m -0.07476,-0.361735 v -0.361735 h -0.723471 v 0.361735 z" />
    <path
       id="path954"
       style="fill:#ffffff;stroke-width:0.26458335px"
       d="m 12.750299,68.443962 v -1.808675 h 1.20699 q 0.241156,0 0.241156,0.241157 l -0.0012,1.326361 q 0,0.241157 -0.241157,0.241157 z m 1.085206,-1.445734 h -0.723471 v 1.083999 h 0.723471 z" />
    <path
       id="path956"
       style="fill:#ffffff;stroke-width:0.26458335px"
       d="m 14.800131,66.635287 v 1.44694 h 0.72347 l 0.0012,-1.44694 h 0.361735 v 1.567518 q 0,0.241157 -0.241157,0.241157 h -0.965832 q -0.241157,0 -0.241157,-0.241157 v -1.567518 z" />
    <path
       id="path958"
       style="fill:#ffffff;stroke-width:0.26458335px"
       d="m 17.093531,66.997022 h -0.605303 v 0.360529 h 0.605303 z m 0.118167,0.724676 h -0.72347 v 0.360529 h 0.72347 z m 0.243568,-0.160369 q 0.118167,0.05064 0.118167,0.219452 v 0.422024 q 0,0.241157 -0.241157,0.241157 h -1.205783 v -1.808675 h 1.087617 q 0.241156,0 0.241156,0.241157 z" />
  </g>
  <g
     id="text900"
     style="font-style:normal;font-variant:normal;font-weight:normal;font-stretch:normal;font-size:2.46944451px;line-height:125%;font-family:Akashi;-inkscape-font-specification:Akashi;letter-spacing:0px;word-spacing:0px;fill:#ffffff;fill-opacity:1;stroke:none;stroke-width:0.26458335px;stroke-linecap:butt;stroke-linejoin:miter;stroke-opacity:1"
     aria-label="CLEAR">
    <path
       id="path961"
       style="fill:#ffffff;stroke-width:0.26458335px"
       d="M 9.2523203,82.872625 H 8.5288502 v 1.085205 h 0.8440485 v 0.361735 H 8.4082719 q -0.2411567,0 -0.2411567,-0.241157 v -1.326362 q 0,-0.241156 0.2411567,-0.241156 h 0.9646268 z" />
    <path
       id="path963"
       style="fill:#ffffff;stroke-width:0.26458335px"
       d="M 10.819839,84.319565 H 9.8552121 q -0.2411567,0 -0.2411567,-0.241157 V 82.51089 h 0.361735 v 1.44694 h 0.8440486 z" />
    <path
       id="path965"
       style="fill:#ffffff;stroke-width:0.26458335px"
       d="m 11.422731,83.596095 v 0.361735 h 0.844048 v 0.361735 h -0.964627 q -0.241156,0 -0.241156,-0.241157 v -1.326362 q 0,-0.241156 0.241156,-0.241156 h 0.964627 v 0.361735 h -0.844048 v 0.361735 h 0.482313 l -0.120578,0.361735 z" />
    <path
       id="path967"
       style="fill:#ffffff;stroke-width:0.26458335px"
       d="m 12.507936,84.319565 v -1.568724 q 0,-0.241157 0.241156,-0.241157 h 0.964627 q 0.241157,0 0.241157,0.241157 v 1.568724 h -0.361735 v -0.483519 h -0.72347 v 0.483519 z m 1.085205,-1.448146 h -0.72347 v 0.602892 h 0.72347 z" />
    <path
       id="path969"
       style="fill:#ffffff;stroke-width:0.26458335px"
       d="m 15.355996,83.596095 0.289388,0.72347 h -0.361735 l -0.302651,-0.72347 h -0.42323 v 0.72347 h -0.361735 v -1.567519 q 0,-0.241156 0.241156,-0.241156 h 0.964627 q 0.241157,0 0.241157,0.241156 v 0.602892 q 0,0.241157 -0.241157,0.241157 z m -0.07476,-0.361735 v -0.361735 h -0.72347 v 0.361735 z" />
  </g>
</svg>
