<?xml version="1.0" encoding="UTF-8" standalone="no"?>
<svg
   xmlns:dc="http://purl.org/dc/elements/1.1/"
   xmlns:cc="http://creativecommons.org/ns#"
   xmlns:rdf="http://www.w3.org/1999/02/22-rdf-syntax-ns#"
   xmlns:svg="http://www.w3.org/2000/svg"
   xmlns="http://www.w3.org/2000/svg"
   width="59.999996"
   height="379.44983"
   viewBox="0 0 15.874999 100.39612"
   version="1.1"
   id="svg4541">
  <defs
     id="defs4535" />
  <metadata
     id="metadata4538">
    <rdf:RDF>
      <cc:Work
         rdf:about="">
        <dc:format>image/svg+xml</dc:format>
        <dc:type
           rdf:resource="http://purl.org/dc/dcmitype/StillImage" />
        <dc:title></dc:title>
      </cc:Work>
    </rdf:RDF>
  </metadata>
  <path
     id="path25057"
     d="M -1.0418518e-6,-2.9078125e-7 H 15.874999 V 100.39611 H -1.0418518e-6 Z m 0,0"
     style="fill:#2e2f31;fill-opacity:1;fill-rule:nonzero;stroke:none;stroke-width:0.17961434" />
  <path
     id="path25247"
     d="m 12.170835,28.409015 c 0,-0.425592 -0.394055,-0.773324 -0.874866,-0.773324 H 4.5790266 c -0.4808113,0 -0.8748601,0.347732 -0.8748601,0.773324 v 9.035617 c 0,0.425596 0.3940488,0.77439 0.8748601,0.77439 h 6.7169424 c 0.480811,0 0.874866,-0.348794 0.874866,-0.77439 z m 0,0"
     style="opacity:0.9;fill:#212121;fill-opacity:1;fill-rule:nonzero;stroke:none;stroke-width:0.26667708" />
  <path
     id="path25259"
     d="m 12.170835,16.502762 c 0,-0.425594 -0.394052,-0.773323 -0.874863,-0.773323 H 4.5778259 c -0.4808141,0 -0.8736594,0.347729 -0.8736594,0.773323 v 9.035619 c 0,0.425596 0.3928453,0.774391 0.8736594,0.774391 h 6.7181461 c 0.480811,0 0.874863,-0.348795 0.874863,-0.774391 z m 0,0"
     style="opacity:0.9;fill:#212121;fill-opacity:1;fill-rule:nonzero;stroke:none;stroke-width:0.26667708" />
  <path
     id="path25247-6"
     d="m 12.170835,40.315266 c 0,-0.425596 -0.394055,-0.773325 -0.874866,-0.773325 H 4.5790266 c -0.4808113,0 -0.8748601,0.347729 -0.8748601,0.773325 v 9.035616 c 0,0.425599 0.3940488,0.774393 0.8748601,0.774393 h 6.7169424 c 0.480811,0 0.874866,-0.348794 0.874866,-0.774393 z m 0,0"
     style="opacity:0.9;fill:#212121;fill-opacity:1;fill-rule:nonzero;stroke:none;stroke-width:0.26667708" />
  <path
     id="path25259-7"
     d="m 12.170835,52.221516 c 0,-0.425596 -0.394052,-0.773325 -0.874863,-0.773325 H 4.5778259 c -0.4808141,0 -0.8736594,0.347729 -0.8736594,0.773325 v 9.035617 c 0,0.425598 0.3928453,0.774393 0.8736594,0.774393 h 6.7181461 c 0.480811,0 0.874863,-0.348795 0.874863,-0.774393 z m 0,0"
     style="opacity:0.9;fill:#212121;fill-opacity:1;fill-rule:nonzero;stroke:none;stroke-width:0.26667708" />
  <g
     id="text864"
     style="font-style:normal;font-variant:normal;font-weight:500;font-stretch:normal;font-size:7.66842127px;line-height:125%;font-family:'Futura PT';-inkscape-font-specification:'Futura PT Medium';letter-spacing:0px;word-spacing:0px;opacity:0.7;fill:#ffffff;fill-opacity:1;stroke:none;stroke-width:0.95855266px;stroke-linecap:butt;stroke-linejoin:miter;stroke-opacity:1"
     aria-label="MADE IN ITALY"
     transform="matrix(0.27602379,0,0,0.27602379,258.28496,-0.07331911)">
    <g
       id="g1751"
       transform="translate(12.398456,-5.7513165)"
       style="fill:#ffffff">
      <path
         d="m -927.73148,359.03888 h 0.84352 l 0.43455,-2.62643 1.09275,2.62643 h 0.28117 l 1.14388,-2.62643 0.38342,2.62643 h 0.84352 l -0.71572,-4.26236 h -0.60069 l -1.18221,2.7095 -1.1311,-2.7095 h -0.60069 z"
         style="font-style:normal;font-variant:normal;font-weight:500;font-stretch:normal;font-size:6.3903513px;font-family:'Futura PT';-inkscape-font-specification:'Futura PT Medium';fill:#ffffff;stroke-width:0.95855266px"
         id="path4555" />
      <path
         d="m -919.05888,359.03888 h 0.89465 l -1.78291,-4.26236 h -0.65181 l -1.83403,4.26236 h 0.90104 l 0.37703,-0.89465 h 1.719 z m -1.83403,-1.57203 0.60708,-1.53368 0.60709,1.53368 z"
         style="font-style:normal;font-variant:normal;font-weight:500;font-stretch:normal;font-size:6.3903513px;font-family:'Futura PT';-inkscape-font-specification:'Futura PT Medium';fill:#ffffff;stroke-width:0.95855266px"
         id="path4557" />
      <path
         d="m -917.66658,354.77652 v 4.26236 h 1.09914 c 0.5943,0 1.0608,-0.0575 1.55925,-0.40898 0.56235,-0.3962 0.8563,-1.00968 0.8563,-1.71901 0,-0.70933 -0.30034,-1.32919 -0.81796,-1.719 -0.47289,-0.35147 -0.99051,-0.41537 -1.58481,-0.41537 z m 0.83075,0.71571 h 0.25561 c 0.28118,0 0.70294,0.0256 1.04802,0.28118 0.33869,0.25561 0.52401,0.69016 0.52401,1.13748 0,0.45372 -0.19171,0.88826 -0.5304,1.13109 -0.37064,0.2684 -0.83075,0.28118 -1.04163,0.28118 h -0.25561 z"
         style="font-style:normal;font-variant:normal;font-weight:500;font-stretch:normal;font-size:6.3903513px;font-family:'Futura PT';-inkscape-font-specification:'Futura PT Medium';fill:#ffffff;stroke-width:0.95855266px"
         id="path4559" />
      <path
         d="m -911.02111,354.77652 h -2.36443 v 4.26236 h 2.36443 v -0.71572 h -1.53369 v -1.16304 h 1.46978 v -0.71572 h -1.46978 v -0.95217 h 1.53369 z"
         style="font-style:normal;font-variant:normal;font-weight:500;font-stretch:normal;font-size:6.3903513px;font-family:'Futura PT';-inkscape-font-specification:'Futura PT Medium';fill:#ffffff;stroke-width:0.95855266px"
         id="path4561" />
    </g>
    <g
       id="g1745"
       transform="translate(-9.5007238)"
       style="fill:#ffffff">
      <path
         d="m -908.73007,354.77652 v 4.26236 h 0.83074 v -4.26236 z"
         style="font-style:normal;font-variant:normal;font-weight:500;font-stretch:normal;font-size:6.3903513px;font-family:'Futura PT';-inkscape-font-specification:'Futura PT Medium';fill:#ffffff;stroke-width:0.95855266px"
         id="path4563" />
      <path
         d="m -906.10204,359.03888 v -2.8501 l 2.59448,2.8501 h 0.57513 v -4.26236 h -0.83074 v 2.8437 l -2.59448,-2.8437 h -0.57514 v 4.26236 z"
         style="font-style:normal;font-variant:normal;font-weight:500;font-stretch:normal;font-size:6.3903513px;font-family:'Futura PT';-inkscape-font-specification:'Futura PT Medium';fill:#ffffff;stroke-width:0.95855266px"
         id="path4565" />
      <path
         d="m -900.48003,354.77652 v 4.26236 h 0.83075 v -4.26236 z"
         style="font-style:normal;font-variant:normal;font-weight:500;font-stretch:normal;font-size:6.3903513px;font-family:'Futura PT';-inkscape-font-specification:'Futura PT Medium';fill:#ffffff;stroke-width:0.95855266px"
         id="path4567" />
      <path
         d="m -896.38222,355.49223 v -0.71571 h -2.74785 v 0.71571 h 0.95855 v 3.54665 h 0.83075 v -3.54665 z"
         style="font-style:normal;font-variant:normal;font-weight:500;font-stretch:normal;font-size:6.3903513px;font-family:'Futura PT';-inkscape-font-specification:'Futura PT Medium';fill:#ffffff;stroke-width:0.95855266px"
         id="path4569" />
      <path
         d="m -893.21041,359.03888 h 0.89465 l -1.78291,-4.26236 h -0.65181 l -1.83403,4.26236 h 0.90104 l 0.37703,-0.89465 h 1.719 z m -1.83403,-1.57203 0.60708,-1.53368 0.60709,1.53368 z"
         style="font-style:normal;font-variant:normal;font-weight:500;font-stretch:normal;font-size:6.3903513px;font-family:'Futura PT';-inkscape-font-specification:'Futura PT Medium';fill:#ffffff;stroke-width:0.95855266px"
         id="path4571" />
      <path
         d="m -891.81811,354.77652 v 4.26236 h 2.14716 v -0.71572 h -1.31641 v -3.54664 z"
         style="font-style:normal;font-variant:normal;font-weight:500;font-stretch:normal;font-size:6.3903513px;font-family:'Futura PT';-inkscape-font-specification:'Futura PT Medium';fill:#ffffff;stroke-width:0.95855266px"
         id="path4573" />
      <path
         d="m -888.55663,359.03888 h 0.83074 v -1.94906 l 1.50173,-2.3133 h -0.98411 l -0.91382,1.48256 -0.91382,-1.48256 h -0.98411 l 1.46339,2.3133 z"
         style="font-style:normal;font-variant:normal;font-weight:500;font-stretch:normal;font-size:6.3903513px;font-family:'Futura PT';-inkscape-font-specification:'Futura PT Medium';fill:#ffffff;stroke-width:0.95855266px"
         id="path4575" />
    </g>
  </g>
  <g
     id="g1736"
     transform="matrix(0.27602379,0,0,0.27602379,258.28496,0.98501434)"
     style="opacity:0.7;fill:#ffffff;stroke-width:0.91882312">
    <g
       id="text4639"
       style="font-style:normal;font-variant:normal;font-weight:normal;font-stretch:normal;font-size:12.78070164px;line-height:125%;font-family:'Squared Display';-inkscape-font-specification:'Squared Display';letter-spacing:0px;word-spacing:0px;fill:#ffffff;fill-opacity:1;stroke:none;stroke-width:0.95855266px;stroke-linecap:butt;stroke-linejoin:miter;stroke-opacity:1"
       aria-label="sonus">
      <path
         id="path4533"
         style="font-style:normal;font-variant:normal;font-weight:500;font-stretch:normal;font-size:12.78070164px;font-family:'Futura PT';-inkscape-font-specification:'Futura PT Medium';fill:#ffffff;stroke-width:0.95855266px"
         d="m -918.09074,327.58075 c -0.70294,-0.53679 -1.35476,-0.58791 -1.76374,-0.58791 -0.44733,0 -1.00968,0.0511 -1.44422,0.3962 -0.31952,0.26839 -0.57513,0.71572 -0.57513,1.25251 0,0.44732 0.16615,0.7924 0.42176,1.0608 0.3323,0.34507 0.79241,0.524 1.18861,0.66459 l 0.35786,0.12781 c 0.20449,0.0767 0.48566,0.21727 0.48566,0.56235 0,0.38342 -0.3323,0.60069 -0.76684,0.60069 -0.4601,0 -0.92021,-0.28117 -1.22695,-0.63903 l -0.81796,0.94577 c 0.34508,0.37064 0.99689,0.92021 2.14716,0.92021 0.67737,0 1.21416,-0.17893 1.66149,-0.58791 0.44732,-0.40898 0.61347,-0.90743 0.61347,-1.40588 0,-0.35786 -0.11502,-0.69016 -0.28117,-0.92021 -0.31952,-0.43454 -0.97134,-0.65182 -1.40588,-0.7924 l -0.37064,-0.11503 c -0.43455,-0.14059 -0.49845,-0.35786 -0.49845,-0.49845 0,-0.26839 0.23005,-0.44732 0.60069,-0.44732 0.16615,0 0.53679,0.0256 0.90743,0.37064 z" />
      <path
         id="path4535"
         style="font-style:normal;font-variant:normal;font-weight:500;font-stretch:normal;font-size:12.78070164px;font-family:'Futura PT';-inkscape-font-specification:'Futura PT Medium';fill:#ffffff;stroke-width:0.95855266px"
         d="m -913.8182,326.99284 c -1.04801,0 -1.76373,0.34508 -2.23662,0.77962 -0.54957,0.49845 -0.93299,1.26529 -0.93299,2.17272 0,0.89465 0.38342,1.66149 0.93299,2.15994 0.47289,0.43454 1.18861,0.77962 2.23662,0.77962 1.04802,0 1.76374,-0.34508 2.23663,-0.77962 0.54957,-0.49845 0.93299,-1.26529 0.93299,-2.15994 0,-0.90743 -0.38342,-1.67427 -0.93299,-2.17272 -0.47289,-0.43454 -1.18861,-0.77962 -2.23663,-0.77962 z m 0,4.51158 c -0.90743,0 -1.55924,-0.71571 -1.55924,-1.55924 0,-0.86909 0.6646,-1.57203 1.55924,-1.57203 0.89465,0 1.55925,0.70294 1.55925,1.57203 0,0.84353 -0.65182,1.55924 -1.55925,1.55924 z" />
      <path
         id="path4537"
         style="font-style:normal;font-variant:normal;font-weight:500;font-stretch:normal;font-size:12.78070164px;font-family:'Futura PT';-inkscape-font-specification:'Futura PT Medium';fill:#ffffff;stroke-width:0.95855266px"
         d="m -909.4426,332.70581 h 1.55924 v -2.82453 c 0,-0.31952 0.0128,-0.71572 0.24284,-1.07358 0.23005,-0.34508 0.54957,-0.48567 0.95855,-0.48567 0.15337,0 0.48567,0.0256 0.7285,0.28118 0.28117,0.29395 0.29395,0.77962 0.29395,1.08635 v 3.01625 h 1.55925 v -3.47635 c 0,-0.53679 -0.0511,-1.08636 -0.43454,-1.55925 -0.43455,-0.53679 -1.15027,-0.67737 -1.63593,-0.67737 -0.89465,0 -1.41866,0.48566 -1.71262,0.89465 v -0.71572 h -1.55924 z" />
      <path
         id="path4539"
         style="font-style:normal;font-variant:normal;font-weight:500;font-stretch:normal;font-size:12.78070164px;font-family:'Futura PT';-inkscape-font-specification:'Futura PT Medium';fill:#ffffff;stroke-width:0.95855266px"
         d="m -902.62789,327.17177 v 3.38688 c 0,0.49845 0.0639,1.16305 0.67737,1.69984 0.51123,0.44732 1.3292,0.62625 2.00657,0.62625 0.67738,0 1.49535,-0.17893 2.00658,-0.62625 0.61347,-0.53679 0.67737,-1.20139 0.67737,-1.69984 v -3.38688 h -1.55924 v 3.13127 c 0,0.29395 -0.0256,0.69016 -0.3323,0.97133 -0.19171,0.16615 -0.49845,0.28118 -0.79241,0.28118 -0.29395,0 -0.60069,-0.11503 -0.7924,-0.28118 -0.30674,-0.28117 -0.3323,-0.67738 -0.3323,-0.97133 v -3.13127 z" />
      <path
         id="path4541"
         style="font-style:normal;font-variant:normal;font-weight:500;font-stretch:normal;font-size:12.78070164px;font-family:'Futura PT';-inkscape-font-specification:'Futura PT Medium';fill:#ffffff;stroke-width:0.95855266px"
         d="m -892.00513,327.58075 c -0.70294,-0.53679 -1.35476,-0.58791 -1.76374,-0.58791 -0.44732,0 -1.00967,0.0511 -1.44422,0.3962 -0.31952,0.26839 -0.57513,0.71572 -0.57513,1.25251 0,0.44732 0.16615,0.7924 0.42176,1.0608 0.3323,0.34507 0.79241,0.524 1.18861,0.66459 l 0.35786,0.12781 c 0.20449,0.0767 0.48566,0.21727 0.48566,0.56235 0,0.38342 -0.33229,0.60069 -0.76684,0.60069 -0.4601,0 -0.92021,-0.28117 -1.22695,-0.63903 l -0.81796,0.94577 c 0.34508,0.37064 0.99689,0.92021 2.14716,0.92021 0.67738,0 1.21416,-0.17893 1.66149,-0.58791 0.44732,-0.40898 0.61347,-0.90743 0.61347,-1.40588 0,-0.35786 -0.11502,-0.69016 -0.28117,-0.92021 -0.31952,-0.43454 -0.97134,-0.65182 -1.40588,-0.7924 l -0.37064,-0.11503 c -0.43454,-0.14059 -0.49845,-0.35786 -0.49845,-0.49845 0,-0.26839 0.23006,-0.44732 0.6007,-0.44732 0.16614,0 0.53678,0.0256 0.90743,0.37064 z" />
    </g>
    <g
       id="text4639-3"
       style="font-style:normal;font-variant:normal;font-weight:normal;font-stretch:normal;font-size:12.78070068px;line-height:125%;font-family:'Squared Display';-inkscape-font-specification:'Squared Display';letter-spacing:0px;word-spacing:0px;fill:#ffffff;fill-opacity:1;stroke:none;stroke-width:0.9585526px;stroke-linecap:butt;stroke-linejoin:miter;stroke-opacity:1"
       aria-label="dept.">
      <path
         id="path4544"
         style="font-style:normal;font-variant:normal;font-weight:500;font-stretch:normal;font-size:12.78070068px;font-family:'Futura PT';-inkscape-font-specification:'Futura PT Medium';fill:#ffffff;stroke-width:0.9585526px"
         d="m -915.87093,337.26365 c -0.52401,-0.81797 -1.35476,-0.89465 -1.77652,-0.89465 -1.63593,0 -2.74785,1.30363 -2.74785,2.93956 0,1.62315 1.1247,2.95234 2.82453,2.95234 0.3962,0 1.13748,-0.0895 1.69984,-0.89465 v 0.71572 h 1.55924 v -9.31713 h -1.55924 z m -1.38032,0.48566 c 0.89465,0 1.53368,0.67738 1.53368,1.55925 0,0.88187 -0.63903,1.57202 -1.53368,1.57202 -0.89465,0 -1.53368,-0.69015 -1.53368,-1.57202 0,-0.88187 0.63903,-1.55925 1.53368,-1.55925 z" />
      <path
         id="path4546"
         style="font-style:normal;font-variant:normal;font-weight:500;font-stretch:normal;font-size:12.78070068px;font-family:'Futura PT';-inkscape-font-specification:'Futura PT Medium';fill:#ffffff;stroke-width:0.9585526px"
         d="m -908.82477,340.30545 c -0.25562,0.44733 -0.70294,0.7285 -1.29086,0.7285 -0.60069,0 -0.94577,-0.29395 -1.11192,-0.52401 -0.17893,-0.24283 -0.26839,-0.60069 -0.26839,-0.93299 h 4.14095 v -0.1278 c 0,-0.6007 -0.0767,-1.46978 -0.6646,-2.17272 -0.38342,-0.46011 -1.03524,-0.90743 -2.15994,-0.90743 -0.6646,0 -1.43144,0.14058 -2.08325,0.77962 -0.3962,0.3962 -0.84353,1.07358 -0.84353,2.17272 0,0.86909 0.25561,1.58481 0.86909,2.15994 0.54957,0.52401 1.22695,0.77962 2.12159,0.77962 1.92989,0 2.55614,-1.31641 2.72229,-1.72539 z m -2.62005,-1.72539 c 0.12781,-0.74128 0.7285,-1.11192 1.30363,-1.11192 0.57513,0 1.18861,0.35786 1.31642,1.11192 z" />
      <path
         id="path4548"
         style="font-style:normal;font-variant:normal;font-weight:500;font-stretch:normal;font-size:12.78070068px;font-family:'Futura PT';-inkscape-font-specification:'Futura PT Medium';fill:#ffffff;stroke-width:0.9585526px"
         d="m -904.60095,341.36625 c 0.61347,0.83075 1.39309,0.89465 1.77651,0.89465 0.81797,0 1.457,-0.31952 1.87877,-0.71572 0.31952,-0.30674 0.86909,-0.98411 0.86909,-2.23662 0,-1.09914 -0.42177,-1.7893 -0.83075,-2.19828 -0.62625,-0.62626 -1.40588,-0.74128 -1.89154,-0.74128 -1.02246,0 -1.55925,0.54957 -1.80208,0.89465 v -0.71572 h -1.55925 v 8.46082 h 1.55925 z m 1.38031,-3.61694 c 0.37064,0 0.77963,0.14059 1.0608,0.3962 0.30674,0.29396 0.47289,0.75407 0.47289,1.16305 0,0.40898 -0.15337,0.86909 -0.48567,1.17582 -0.20449,0.19171 -0.53679,0.3962 -1.04802,0.3962 -0.48566,0 -0.81796,-0.19171 -1.02245,-0.37064 -0.30674,-0.26839 -0.51123,-0.69015 -0.51123,-1.20138 0,-0.51123 0.17893,-0.89465 0.52401,-1.18861 0.28117,-0.25561 0.60069,-0.37064 1.00967,-0.37064 z" />
      <path
         id="path4550"
         style="font-style:normal;font-variant:normal;font-weight:500;font-stretch:normal;font-size:12.78070068px;font-family:'Futura PT';-inkscape-font-specification:'Futura PT Medium';fill:#ffffff;stroke-width:0.9585526px"
         d="m -896.23838,337.87712 v -1.32919 h -1.07358 v -1.89155 h -1.55925 v 1.89155 h -0.61347 v 1.32919 h 0.61347 v 4.20485 h 1.55925 v -4.20485 z" />
      <path
         id="path4552"
         style="font-style:normal;font-variant:normal;font-weight:500;font-stretch:normal;font-size:12.78070068px;font-family:'Futura PT';-inkscape-font-specification:'Futura PT Medium';fill:#ffffff;stroke-width:0.9585526px"
         d="m -895.55421,341.25122 c 0,0.56236 0.43454,0.9969 0.99689,0.9969 0.56235,0 0.9969,-0.43454 0.9969,-0.9969 0,-0.56235 -0.43455,-0.99689 -0.9969,-0.99689 -0.56235,0 -0.99689,0.43454 -0.99689,0.99689 z" />
    </g>
  </g>
  <path
     id="path25247-6-7"
     d="m 12.170835,64.127766 c 0,-0.425595 -0.394055,-0.773324 -0.874866,-0.773324 H 4.5790266 c -0.4808113,0 -0.8748601,0.347729 -0.8748601,0.773324 v 9.035617 c 0,0.425598 0.3940488,0.774393 0.8748601,0.774393 h 6.7169424 c 0.480811,0 0.874866,-0.348795 0.874866,-0.774393 z m 0,0"
     style="opacity:0.9;fill:#212121;fill-opacity:1;fill-rule:nonzero;stroke:none;stroke-width:0.26667711" />
  <path
     id="path25259-7-5"
     d="m 12.170835,76.034019 c 0,-0.425595 -0.394052,-0.773324 -0.874863,-0.773324 H 4.5778259 c -0.4808141,0 -0.8736594,0.347729 -0.8736594,0.773324 v 9.035617 c 0,0.425598 0.3928453,0.774393 0.8736594,0.774393 h 6.7181461 c 0.480811,0 0.874863,-0.348795 0.874863,-0.774393 z m 0,0"
     style="opacity:0.9;fill:#212121;fill-opacity:1;fill-rule:nonzero;stroke:none;stroke-width:0.26667711" />
  <g
     aria-label="PNOISE"
     style="font-style:normal;font-variant:normal;font-weight:normal;font-stretch:normal;font-size:3.52777815px;line-height:125%;font-family:Akashi;-inkscape-font-specification:Akashi;letter-spacing:0px;word-spacing:0px;fill:#ffffff;fill-opacity:1;stroke:none;stroke-width:0.26458335px;stroke-linecap:butt;stroke-linejoin:miter;stroke-opacity:1"
     id="text4181">
    <g
       aria-label="pNOISE"
       style="font-style:normal;font-variant:normal;font-weight:normal;font-stretch:normal;font-size:3.52777815px;line-height:125%;font-family:Akashi;-inkscape-font-specification:Akashi;letter-spacing:0px;word-spacing:0px;fill:#ffffff;fill-opacity:1;stroke:none;stroke-width:0.26458335px;stroke-linecap:butt;stroke-linejoin:miter;stroke-opacity:1"
       id="text4217"
       transform="translate(0,0.68901916)">
      <path
         d="m 1.822455,3.9651221 q 0,-0.3445096 0.3445096,-0.3445096 H 3.545003 q 0.3445096,0 0.3445096,0.3445096 v 1.2057835 q 0,0.3445096 -0.3445096,0.3445096 H 2.5114742 L 2.683729,4.9986508 H 3.3727482 V 4.1373769 H 2.3392194 V 6.2044344 H 1.822455 Z"
         style="fill:#ffffff;stroke-width:0.26458335px"
         id="path4219" />
      <path
         d="M 4.2340223,5.5154152 V 3.2743803 q 0,-0.3445095 0.3445095,-0.3445095 h 1.3797609 q 0.3445096,0 0.3445096,0.3445095 V 5.5154152 H 5.7860379 L 5.7843154,3.4466351 H 4.7507866 v 2.0687801 z"
         style="fill:#ffffff;stroke-width:0.26458335px"
         id="path4221" />
      <path
         d="m 8.712647,5.1709056 q 0,0.3445096 -0.3445096,0.3445096 H 6.9900991 q -0.3445096,0 -0.3445096,-0.3445096 V 3.2761029 q 0,-0.3445096 0.3445096,-0.3445096 h 1.3780383 q 0.3445096,0 0.3445096,0.3445096 z M 7.1623538,3.4483577 V 4.9986508 H 8.1958826 V 3.4483577 Z"
         style="fill:#ffffff;stroke-width:0.26458335px"
         id="path4223" />
      <path
         d="M 9.5739211,2.9315933 V 5.5154152 H 9.0571567 V 2.9315933 Z"
         style="fill:#ffffff;stroke-width:0.26458335px"
         id="path4225" />
      <path
         d="m 11.814956,3.4466351 h -1.379761 v 0.518487 h 1.205784 q 0.344509,0 0.344509,0.342787 v 0.861274 q 0,0.3445095 -0.344509,0.3445095 H 9.9184309 V 4.9986508 l 1.5502931,-0.00172 V 4.4801639 h -1.205783 q -0.3445101,0 -0.3445101,-0.342787 v -0.861274 q 0,-0.3462321 0.3445101,-0.3462321 h 1.722547 z"
         style="fill:#ffffff;stroke-width:0.26458335px"
         id="path4227" />
      <path
         d="m 12.846762,4.4818864 v 0.5167644 h 1.205784 v 0.5167644 h -1.378039 q -0.344509,0 -0.344509,-0.3445096 V 3.2761029 q 0,-0.3445096 0.344509,-0.3445096 h 1.378039 v 0.5167644 h -1.205784 v 0.5167644 h 0.689019 l -0.172255,0.5167643 z"
         style="fill:#ffffff;stroke-width:0.26458335px"
         id="path4229" />
    </g>
  </g>
</svg>
