<?xml version="1.0" encoding="UTF-8" standalone="no"?>
<!-- Created with Inkscape (http://www.inkscape.org/) -->

<svg
   xmlns:dc="http://purl.org/dc/elements/1.1/"
   xmlns:cc="http://creativecommons.org/ns#"
   xmlns:rdf="http://www.w3.org/1999/02/22-rdf-syntax-ns#"
   xmlns:svg="http://www.w3.org/2000/svg"
   xmlns="http://www.w3.org/2000/svg"
   xmlns:sodipodi="http://sodipodi.sourceforge.net/DTD/sodipodi-0.dtd"
   xmlns:inkscape="http://www.inkscape.org/namespaces/inkscape"
   width="50"
   height="50"
   viewBox="0 0 13.229167 13.229166"
   version="1.1"
   id="svg12553"
   inkscape:version="0.92.2 5c3e80d, 2017-08-06"
   sodipodi:docname="Hairball.svg">
  <defs
     id="defs12547">
    <clipPath
       id="clip82">
      <path
         inkscape:connector-curvature="0"
         id="path22604"
         d="m 979.55859,272.09375 h 26.63281 v 27.13281 h -26.63281 z m 0,0" />
    </clipPath>
    <clipPath
       id="clip83">
      <path
         inkscape:connector-curvature="0"
         id="path22607"
         d="m 992,272.09375 h 2 V 287 h -2 z m 0,0" />
    </clipPath>
  </defs>
  <sodipodi:namedview
     id="base"
     pagecolor="#ffffff"
     bordercolor="#666666"
     borderopacity="1.0"
     inkscape:pageopacity="0.0"
     inkscape:pageshadow="2"
     inkscape:zoom="3.73"
     inkscape:cx="-24.329759"
     inkscape:cy="25"
     inkscape:document-units="px"
     inkscape:current-layer="layer1"
     showgrid="true"
     fit-margin-top="0"
     fit-margin-left="0"
     fit-margin-right="0"
     fit-margin-bottom="0"
     units="px"
     inkscape:window-width="1316"
     inkscape:window-height="959"
     inkscape:window-x="0"
     inkscape:window-y="0"
     inkscape:window-maximized="0"
     inkscape:snap-global="false"
     inkscape:pagecheckerboard="true"
     showguides="false"
     inkscape:snap-grids="true">
    <inkscape:grid
       type="xygrid"
       id="grid12870"
       originx="-20.372917"
       originy="84.666661"
       visible="false" />
  </sodipodi:namedview>
  <metadata
     id="metadata12550">
    <rdf:RDF>
      <cc:Work
         rdf:about="">
        <dc:format>image/svg+xml</dc:format>
        <dc:type
           rdf:resource="http://purl.org/dc/dcmitype/StillImage" />
        <dc:title />
      </cc:Work>
    </rdf:RDF>
  </metadata>
  <g
     inkscape:label="Layer 1"
     inkscape:groupmode="layer"
     id="layer1"
     transform="translate(-26.543497,-248.61904)"
     style="display:inline">
    <path
       sodipodi:type="spiral"
       style="fill:none;fill-rule:evenodd;stroke:#000000;stroke-width:2.48498106;stroke-miterlimit:4;stroke-dasharray:none"
       id="path890"
       sodipodi:cx="32.298183"
       sodipodi:cy="254.24144"
       sodipodi:expansion="1"
       sodipodi:revolution="3"
       sodipodi:radius="11.213816"
       sodipodi:argument="-18.143488"
       sodipodi:t0="0"
       d="m 32.298183,254.24144 c 0.427822,0.36481 -0.280684,0.75668 -0.606337,0.71107 -0.882501,-0.12361 -1.11021,-1.22329 -0.815797,-1.92375 0.526637,-1.25294 2.13143,-1.52239 3.241147,-0.92052 1.628553,0.88327 1.94561,3.05146 1.025256,4.55855 -1.226687,2.00872 -3.97565,2.37345 -5.875956,1.12999 -2.39134,-1.56477 -2.803659,-4.90182 -1.234715,-7.19336 1.900201,-2.77538 5.829082,-3.23525 8.510764,-1.33945 3.16027,2.23414 3.667697,6.75704 1.444176,9.82817 -2.567144,3.54574 -7.685462,4.10072 -11.145574,1.5489 -3.9316,-2.89953 -4.53415,-8.6142 -1.653635,-12.46297 3.231502,-4.31775 9.543185,-4.96787 13.780383,-1.75837 4.704093,3.56316 5.401808,10.47234 1.863094,15.09779"
       transform="matrix(-0.20578633,0,0,-0.22035467,40.066758,310.5912)" />
  </g>
  <g
     inkscape:groupmode="layer"
     id="layer2"
     inkscape:label="invis"
     style="display:none"
     transform="translate(0,-87.312497)">
    <g
       style="display:inline"
       transform="translate(-30.721508,-88.352582)"
       id="layer1-2"
       inkscape:label="Layer 1">
      <path
         style="clip-rule:nonzero;fill:#ffffff;fill-opacity:1;fill-rule:nonzero;stroke:#1996fc;stroke-width:0.22979134;stroke-opacity:1"
         d="m 42.964642,111.86853 c -0.377046,1.64612 -2.018011,2.67649 -3.665272,2.29953 -1.647259,-0.37694 -2.67691,-2.01771 -2.299879,-3.66472 0.377029,-1.64702 2.018005,-2.67649 3.665265,-2.29955 1.647252,0.37697 2.676013,2.01772 2.299886,3.66474"
         id="path28547"
         inkscape:connector-curvature="0" />
      <path
         style="clip-rule:nonzero;fill:#ffffff;fill-opacity:1;fill-rule:nonzero;stroke:#1996fc;stroke-width:0.22979134;stroke-opacity:1"
         d="m 42.964644,111.86796 c -0.377046,1.64611 -2.018012,2.67651 -3.665273,2.29955 -1.647257,-0.37698 -2.67691,-2.01772 -2.299878,-3.66473 0.377029,-1.64702 2.018005,-2.67651 3.665264,-2.29953 1.647253,0.37696 2.676015,2.01769 2.299887,3.66471"
         id="path28549"
         inkscape:connector-curvature="0" />
      <g
         style="clip-rule:nonzero;stroke:#1996fc;stroke-opacity:1"
         id="g28555"
         clip-path="url(#clip83)"
         transform="matrix(0.22980834,0,0,0.22977429,-188.18936,45.490677)">
        <path
           inkscape:connector-curvature="0"
           id="path28553"
           transform="translate(992.87612,272.59527)"
           d="M -0.0011146,-0.0015175 V 13.314889"
           style="fill:none;stroke:#1996fc;stroke-width:1;stroke-linecap:round;stroke-linejoin:round;stroke-miterlimit:10;stroke-opacity:1" />
      </g>
    </g>
    <g
       style="display:inline"
       inkscape:label="Layer 1"
       id="g2008"
       transform="translate(-30.721508,-76.525903)">
      <path
         inkscape:connector-curvature="0"
         id="path2000"
         d="m 42.964642,111.86853 c -0.377046,1.64612 -2.018011,2.67649 -3.665272,2.29953 -1.647259,-0.37694 -2.67691,-2.01771 -2.299879,-3.66472 0.377029,-1.64702 2.018005,-2.67649 3.665265,-2.29955 1.647252,0.37697 2.676013,2.01772 2.299886,3.66474"
         style="clip-rule:nonzero;fill:#ffffff;fill-opacity:1;fill-rule:nonzero;stroke:#1996fc;stroke-width:0.22979134;stroke-opacity:1" />
      <path
         inkscape:connector-curvature="0"
         id="path2002"
         d="m 42.964644,111.86796 c -0.377046,1.64611 -2.018012,2.67651 -3.665273,2.29955 -1.647257,-0.37698 -2.67691,-2.01772 -2.299878,-3.66473 0.377029,-1.64702 2.018005,-2.67651 3.665264,-2.29953 1.647253,0.37696 2.676015,2.01769 2.299887,3.66471"
         style="clip-rule:nonzero;fill:#ffffff;fill-opacity:1;fill-rule:nonzero;stroke:#1996fc;stroke-width:0.22979134;stroke-opacity:1" />
      <g
         transform="matrix(0.22980834,0,0,0.22977429,-188.18936,45.490677)"
         clip-path="url(#clip83)"
         id="g2006"
         style="clip-rule:nonzero;stroke:#1996fc;stroke-opacity:1">
        <path
           style="fill:none;stroke:#1996fc;stroke-width:1;stroke-linecap:round;stroke-linejoin:round;stroke-miterlimit:10;stroke-opacity:1"
           d="M -0.0011146,-0.0015175 V 13.314889"
           transform="translate(992.87612,272.59527)"
           id="path2004"
           inkscape:connector-curvature="0" />
      </g>
    </g>
    <g
       style="display:inline"
       transform="translate(-30.721508,-64.699227)"
       id="g2026"
       inkscape:label="Layer 1">
      <path
         style="clip-rule:nonzero;fill:#ffffff;fill-opacity:1;fill-rule:nonzero;stroke:#1996fc;stroke-width:0.22979134;stroke-opacity:1"
         d="m 42.964642,111.86853 c -0.377046,1.64612 -2.018011,2.67649 -3.665272,2.29953 -1.647259,-0.37694 -2.67691,-2.01771 -2.299879,-3.66472 0.377029,-1.64702 2.018005,-2.67649 3.665265,-2.29955 1.647252,0.37697 2.676013,2.01772 2.299886,3.66474"
         id="path2018"
         inkscape:connector-curvature="0" />
      <path
         style="clip-rule:nonzero;fill:#ffffff;fill-opacity:1;fill-rule:nonzero;stroke:#1996fc;stroke-width:0.22979134;stroke-opacity:1"
         d="m 42.964644,111.86796 c -0.377046,1.64611 -2.018012,2.67651 -3.665273,2.29955 -1.647257,-0.37698 -2.67691,-2.01772 -2.299878,-3.66473 0.377029,-1.64702 2.018005,-2.67651 3.665264,-2.29953 1.647253,0.37696 2.676015,2.01769 2.299887,3.66471"
         id="path2020"
         inkscape:connector-curvature="0" />
      <g
         style="clip-rule:nonzero;stroke:#1996fc;stroke-opacity:1"
         id="g2024"
         clip-path="url(#clip83)"
         transform="matrix(0.22980834,0,0,0.22977429,-188.18936,45.490677)">
        <path
           inkscape:connector-curvature="0"
           id="path2022"
           transform="translate(992.87612,272.59527)"
           d="M -0.0011146,-0.0015175 V 13.314889"
           style="fill:none;stroke:#1996fc;stroke-width:1;stroke-linecap:round;stroke-linejoin:round;stroke-miterlimit:10;stroke-opacity:1" />
      </g>
    </g>
    <g
       style="display:inline"
       inkscape:label="Layer 1"
       id="g2044"
       transform="translate(-30.721508,-52.872551)">
      <path
         inkscape:connector-curvature="0"
         id="path2036"
         d="m 42.964642,111.86853 c -0.377046,1.64612 -2.018011,2.67649 -3.665272,2.29953 -1.647259,-0.37694 -2.67691,-2.01771 -2.299879,-3.66472 0.377029,-1.64702 2.018005,-2.67649 3.665265,-2.29955 1.647252,0.37697 2.676013,2.01772 2.299886,3.66474"
         style="clip-rule:nonzero;fill:#ffffff;fill-opacity:1;fill-rule:nonzero;stroke:#1996fc;stroke-width:0.22979134;stroke-opacity:1" />
      <path
         inkscape:connector-curvature="0"
         id="path2038"
         d="m 42.964644,111.86796 c -0.377046,1.64611 -2.018012,2.67651 -3.665273,2.29955 -1.647257,-0.37698 -2.67691,-2.01772 -2.299878,-3.66473 0.377029,-1.64702 2.018005,-2.67651 3.665264,-2.29953 1.647253,0.37696 2.676015,2.01769 2.299887,3.66471"
         style="clip-rule:nonzero;fill:#ffffff;fill-opacity:1;fill-rule:nonzero;stroke:#1996fc;stroke-width:0.22979134;stroke-opacity:1" />
      <g
         transform="matrix(0.22980834,0,0,0.22977429,-188.18936,45.490677)"
         clip-path="url(#clip83)"
         id="g2042"
         style="clip-rule:nonzero;stroke:#1996fc;stroke-opacity:1">
        <path
           style="fill:none;stroke:#1996fc;stroke-width:1;stroke-linecap:round;stroke-linejoin:round;stroke-miterlimit:10;stroke-opacity:1"
           d="M -0.0011146,-0.0015175 V 13.314889"
           transform="translate(992.87612,272.59527)"
           id="path2040"
           inkscape:connector-curvature="0" />
      </g>
    </g>
    <g
       style="display:inline"
       transform="translate(-112.31064,2.35821)"
       id="layer1-1"
       inkscape:label="Layer 1">
      <g
         id="g3088"
         transform="matrix(0.27191367,0,0,-0.27191367,41.843143,587.85632)">
        <path
           inkscape:connector-curvature="0"
           id="path4639"
           style="opacity:1;vector-effect:none;fill:#e7e7e7;fill-opacity:1;fill-rule:nonzero;stroke:#909290;stroke-width:0.97304165;stroke-linecap:butt;stroke-linejoin:miter;stroke-miterlimit:4;stroke-dasharray:none;stroke-dashoffset:0;stroke-opacity:1"
           d="m 288.34518,1844.2559 c -3.75572,0 -6.81129,3.0554 -6.81129,6.811 0,3.7555 3.05557,6.8116 6.81129,6.8116 3.75573,0 6.81129,-3.0561 6.81129,-6.8116 0,-3.7556 -3.05556,-6.811 -6.81129,-6.811" />
        <path
           inkscape:connector-curvature="0"
           id="path4647"
           style="fill:#e7e7e7;fill-opacity:1;fill-rule:nonzero;stroke:#909290;stroke-width:0.97304165;stroke-miterlimit:4;stroke-dasharray:none;stroke-opacity:1"
           d="m 288.34518,1846.1618 c -2.70459,0 -4.90526,2.2006 -4.90526,4.9051 0,2.7051 2.20067,4.9056 4.90526,4.9056 2.7046,0 4.90526,-2.2005 4.90526,-4.9056 0,-2.7045 -2.20066,-4.9051 -4.90526,-4.9051" />
        <path
           inkscape:connector-curvature="0"
           id="path4655"
           style="opacity:1;vector-effect:none;fill:#000000;fill-opacity:1;fill-rule:nonzero;stroke:#909290;stroke-width:0.97304165;stroke-linecap:butt;stroke-linejoin:miter;stroke-miterlimit:4;stroke-dasharray:none;stroke-dashoffset:0;stroke-opacity:1"
           d="m 291.37021,1851.0672 c 0,-1.67 -1.35466,-3.0252 -3.02532,-3.0252 -1.67007,0 -3.02474,1.3552 -3.02474,3.0252 0,1.6699 1.35467,3.0252 3.02474,3.0252 1.67066,0 3.02532,-1.3553 3.02532,-3.0252" />
      </g>
    </g>
    <g
       style="display:inline"
       inkscape:label="Layer 1"
       id="g1825"
       transform="translate(-112.31064,-4.991697)">
      <g
         transform="matrix(0.27191367,0,0,-0.27191367,41.843143,587.85632)"
         id="g1823">
        <path
           d="m 288.34518,1844.2559 c -3.75572,0 -6.81129,3.0554 -6.81129,6.811 0,3.7555 3.05557,6.8116 6.81129,6.8116 3.75573,0 6.81129,-3.0561 6.81129,-6.8116 0,-3.7556 -3.05556,-6.811 -6.81129,-6.811"
           style="opacity:1;vector-effect:none;fill:#e7e7e7;fill-opacity:1;fill-rule:nonzero;stroke:#909290;stroke-width:0.97304165;stroke-linecap:butt;stroke-linejoin:miter;stroke-miterlimit:4;stroke-dasharray:none;stroke-dashoffset:0;stroke-opacity:1"
           id="path1817"
           inkscape:connector-curvature="0" />
        <path
           d="m 288.34518,1846.1618 c -2.70459,0 -4.90526,2.2006 -4.90526,4.9051 0,2.7051 2.20067,4.9056 4.90526,4.9056 2.7046,0 4.90526,-2.2005 4.90526,-4.9056 0,-2.7045 -2.20066,-4.9051 -4.90526,-4.9051"
           style="fill:#e7e7e7;fill-opacity:1;fill-rule:nonzero;stroke:#909290;stroke-width:0.97304165;stroke-miterlimit:4;stroke-dasharray:none;stroke-opacity:1"
           id="path1819"
           inkscape:connector-curvature="0" />
        <path
           d="m 291.37021,1851.0672 c 0,-1.67 -1.35466,-3.0252 -3.02532,-3.0252 -1.67007,0 -3.02474,1.3552 -3.02474,3.0252 0,1.6699 1.35467,3.0252 3.02474,3.0252 1.67066,0 3.02532,-1.3553 3.02532,-3.0252"
           style="opacity:1;vector-effect:none;fill:#000000;fill-opacity:1;fill-rule:nonzero;stroke:#909290;stroke-width:0.97304165;stroke-linecap:butt;stroke-linejoin:miter;stroke-miterlimit:4;stroke-dasharray:none;stroke-dashoffset:0;stroke-opacity:1"
           id="path1821"
           inkscape:connector-curvature="0" />
      </g>
    </g>
    <g
       transform="matrix(0.26458332,0,0,0.26458332,-2.7750628,51.660689)"
       id="layer1-0"
       inkscape:label="Layer 1">
      <g
         transform="matrix(0,0.94848839,0.97871979,0,48.810481,67.742514)"
         id="g5827"
         style="fill:#d8d8d8;fill-opacity:1;stroke:#ffffff;stroke-width:1.2817142;stroke-opacity:1">
        <path
           inkscape:connector-curvature="0"
           id="path5829"
           style="fill:#d8d8d8;fill-opacity:1;fill-rule:nonzero;stroke:#ffffff;stroke-width:1.2817142;stroke-opacity:1"
           d="M 0,0 C 0,0.779 0.639,1.418 1.418,1.418 H 12.04 c 0.779,0 1.418,-0.639 1.418,-1.418 v -17.007 c 0,-0.779 -0.639,-1.417 -1.418,-1.417 H 1.418 C 0.639,-18.424 0,-17.786 0,-17.007 Z" />
      </g>
      <g
         transform="matrix(0,0.94848839,0.97871979,0,-1093.7129,-655.48728)"
         style="fill:#a0a0a0;fill-opacity:1;stroke-width:1.2817142"
         id="g5839">
        <g
           style="fill:#a0a0a0;fill-opacity:1;stroke-width:1.2817142"
           id="g5841">
          <path
             inkscape:connector-curvature="0"
             id="path5849"
             style="fill:#a0a0a0;fill-opacity:1;stroke:none;stroke-width:1.2817142"
             d="m 764.617,1167.502 c -0.468,0 -0.852,-0.382 -0.852,-0.85 v 0 -15.724 c 0,-0.468 0.384,-0.851 0.852,-0.851 v 0 h 9.239 c 0.467,0 0.85,0.383 0.85,0.851 v 0 15.724 c 0,0.468 -0.383,0.85 -0.85,0.85 v 0 z" />
        </g>
      </g>
      <path
         inkscape:connector-curvature="0"
         id="path5859"
         style="fill:#013662;fill-opacity:1;fill-rule:nonzero;stroke:none;stroke-width:1.23491299"
         d="m 48.945349,68.936851 v 10.37646 h -8.323035 v -10.37646 z" />
      <path
         inkscape:connector-curvature="0"
         id="path5861"
         style="fill:#1996fc;fill-opacity:1;fill-rule:nonzero;stroke:none;stroke-width:1.23491299"
         d="m 45.241871,68.936851 v 10.37646 h -0.916082 v -10.37646 z" />
      <path
         inkscape:connector-curvature="0"
         id="path5863"
         style="fill:#1996fc;fill-opacity:1;fill-rule:nonzero;stroke:none;stroke-width:1.23491299"
         d="m 41.538397,68.936851 v 10.37646 h -0.916083 v -10.37646 z" />
      <path
         inkscape:connector-curvature="0"
         id="path5865"
         style="fill:#1996fc;fill-opacity:1;fill-rule:nonzero;stroke:none;stroke-width:1.23491299"
         d="m 43.389156,68.936851 v 10.37646 h -0.916082 v -10.37646 z" />
      <path
         inkscape:connector-curvature="0"
         id="path5867"
         style="fill:#1996fc;fill-opacity:1;fill-rule:nonzero;stroke:none;stroke-width:1.23491299"
         d="m 47.093608,68.936851 v 10.37646 h -0.916079 v -10.37646 z" />
      <path
         inkscape:connector-curvature="0"
         id="path5869"
         style="fill:#1996fc;fill-opacity:1;fill-rule:nonzero;stroke:none;stroke-width:1.23491299"
         d="m 48.945349,68.936851 v 10.37646 h -0.916083 v -10.37646 z" />
    </g>
  </g>
</svg>
