<?xml version="1.0" encoding="UTF-8" standalone="no"?>
<!-- Created with Inkscape (http://www.inkscape.org/) -->

<svg
   xmlns:dc="http://purl.org/dc/elements/1.1/"
   xmlns:cc="http://creativecommons.org/ns#"
   xmlns:rdf="http://www.w3.org/1999/02/22-rdf-syntax-ns#"
   xmlns:svg="http://www.w3.org/2000/svg"
   xmlns="http://www.w3.org/2000/svg"
   xmlns:sodipodi="http://sodipodi.sourceforge.net/DTD/sodipodi-0.dtd"
   xmlns:inkscape="http://www.inkscape.org/namespaces/inkscape"
   width="39.747425mm"
   height="100.54166mm"
   viewBox="0 0 39.747425 100.54166"
   version="1.1"
   id="svg11003"
   inkscape:version="0.92.2 5c3e80d, 2017-08-06"
   sodipodi:docname="VCO-1.svg">
  <defs
     id="defs10997" />
  <sodipodi:namedview
     id="base"
     pagecolor="#ffffff"
     bordercolor="#666666"
     borderopacity="1.0"
     inkscape:pageopacity="0.0"
     inkscape:pageshadow="2"
     inkscape:zoom="1.979899"
     inkscape:cx="-145.76505"
     inkscape:cy="140.47911"
     inkscape:document-units="mm"
     inkscape:current-layer="layer1"
     showgrid="false"
     fit-margin-top="0"
     fit-margin-left="0"
     fit-margin-right="0"
     fit-margin-bottom="0"
     inkscape:window-width="2560"
     inkscape:window-height="1422"
     inkscape:window-x="0"
     inkscape:window-y="18"
     inkscape:window-maximized="0" />
  <metadata
     id="metadata11000">
    <rdf:RDF>
      <cc:Work
         rdf:about="">
        <dc:format>image/svg+xml</dc:format>
        <dc:type
           rdf:resource="http://purl.org/dc/dcmitype/StillImage" />
        <dc:title></dc:title>
      </cc:Work>
    </rdf:RDF>
  </metadata>
  <g
     inkscape:label="Layer 1"
     inkscape:groupmode="layer"
     id="layer1"
     transform="translate(-64.792954,-75.127975)">
    <path
       inkscape:connector-curvature="0"
       id="path33429"
       d="M 64.866273,75.201293 H 104.46706 V 175.59739 H 64.866273 Z m 0,0"
       style="fill:#e6e6e6;fill-opacity:1;fill-rule:nonzero;stroke:none;stroke-width:0.27602378" />
    <path
       style="fill:#000000;fill-opacity:1;stroke:none;stroke-width:0.27602378"
       d="m 80.893703,88.029787 c 0,0.09488 0.07332,0.168202 0.168202,0.168202 0.09488,0 0.168202,-0.07332 0.168202,-0.168202 v -0.629679 h 0.836697 c 0.08195,0 0.150951,-0.06901 0.150951,-0.155264 0,-0.08626 -0.06901,-0.155263 -0.150951,-0.155263 H 81.230107 V 86.56341 h 0.957458 c 0.08626,0 0.155263,-0.06901 0.155263,-0.155263 0,-0.08626 -0.06901,-0.155264 -0.155263,-0.155264 h -1.12566 c -0.09488,0 -0.168202,0.07332 -0.168202,0.172515 z m 0,0"
       id="path4739"
       inkscape:connector-curvature="0" />
    <path
       style="fill:#000000;fill-opacity:1;stroke:none;stroke-width:0.27602378"
       d="m 82.713525,88.029787 c 0,0.09488 0.07332,0.168202 0.168202,0.168202 0.09488,0 0.168202,-0.07332 0.168202,-0.168202 v -0.517545 h 0.431287 l 0.46579,0.599489 c 0.03882,0.05175 0.09057,0.08626 0.168202,0.08626 0.08194,0 0.159576,-0.06469 0.159576,-0.155264 0,-0.05175 -0.02156,-0.09057 -0.05175,-0.129386 l -0.370907,-0.470103 c 0.258772,-0.07763 0.439913,-0.267398 0.439913,-0.573612 v -0.0086 c 0,-0.168202 -0.06038,-0.310527 -0.159577,-0.414036 -0.125073,-0.12076 -0.314839,-0.194079 -0.560673,-0.194079 h -0.690059 c -0.09488,0 -0.168202,0.07332 -0.168202,0.172515 z m 0.336404,-0.819446 V 86.56341 h 0.49598 c 0.250147,0 0.401097,0.112135 0.401097,0.319153 v 0.0043 c 0,0.198392 -0.155263,0.323465 -0.396784,0.323465 z m 0,0"
       id="path4735"
       inkscape:connector-curvature="0" />
    <path
       style="fill:#000000;fill-opacity:1;stroke:none;stroke-width:0.27602378"
       d="m 84.927342,88.18505 h 1.138598 c 0.08195,0 0.15095,-0.06469 0.15095,-0.150951 0,-0.08194 -0.06901,-0.15095 -0.15095,-0.15095 h -0.970396 v -0.521857 h 0.832384 c 0.08195,0 0.150951,-0.06469 0.150951,-0.146638 0,-0.08626 -0.06901,-0.155263 -0.150951,-0.155263 h -0.832384 v -0.504606 h 0.957457 c 0.08195,0 0.150951,-0.06469 0.150951,-0.150951 0,-0.08195 -0.06901,-0.150951 -0.150951,-0.150951 h -1.125659 c -0.09488,0 -0.168202,0.07332 -0.168202,0.172515 v 1.587137 c 0,0.0992 0.07332,0.172515 0.168202,0.172515 z m 0,0"
       id="path4731"
       inkscape:connector-curvature="0" />
    <path
       style="fill:#000000;fill-opacity:1;stroke:none;stroke-width:0.27602378"
       d="m 87.510579,88.219553 c 0.22427,0 0.426975,-0.06901 0.590864,-0.185454 l 0.138012,0.125074 c 0.03019,0.03019 0.06901,0.05175 0.116447,0.05175 0.09057,0 0.159576,-0.07763 0.159576,-0.163889 0,-0.05607 -0.02156,-0.0992 -0.06038,-0.133699 l -0.125073,-0.0992 c 0.125073,-0.168202 0.194079,-0.37522 0.194079,-0.595176 v -0.0043 c 0,-0.543422 -0.414035,-0.996273 -1.004899,-0.996273 -0.595176,0 -1.013525,0.457164 -1.013525,1.000586 v 0.0043 c 0,0.543422 0.414036,0.996273 1.004899,0.996273 z m 0.0992,-0.608115 0.241521,0.202705 c -0.09488,0.05607 -0.207018,0.09057 -0.332091,0.09057 -0.383845,0 -0.659869,-0.310526 -0.659869,-0.685746 v -0.0043 c 0,-0.37522 0.267398,-0.681433 0.651243,-0.681433 0.383846,0 0.65987,0.310526 0.65987,0.685746 v 0.0043 c 0,0.138012 -0.0345,0.263085 -0.09488,0.366594 l -0.250154,-0.224269 c -0.03882,-0.0345 -0.06901,-0.05175 -0.116447,-0.05175 -0.09057,0 -0.159577,0.07763 -0.159577,0.163889 0,0.06038 0.02156,0.0992 0.06038,0.133699 z m 0,0"
       id="path4727"
       inkscape:connector-curvature="0" />
    <path
       inkscape:connector-curvature="0"
       id="path33533"
       d="m 82.512388,172.42852 c -0.09165,0 -0.174673,-0.0517 -0.215646,-0.1337 l -0.783863,-1.56881 c -0.06038,-0.1186 -0.01188,-0.26416 0.107821,-0.32346 0.118605,-0.0593 0.264165,-0.0108 0.323466,0.10782 l 0.568222,1.13752 0.568222,-1.13752 c 0.06038,-0.11861 0.204859,-0.16712 0.324543,-0.10782 0.118605,0.0593 0.167124,0.20486 0.10782,0.32346 l -0.784942,1.56881 c -0.03989,0.0819 -0.123997,0.1337 -0.215643,0.1337"
       style="fill:#000000;fill-opacity:1;fill-rule:nonzero;stroke:none;stroke-width:0.27602378" />
    <path
       inkscape:connector-curvature="0"
       id="path33535"
       d="m 86.820948,172.42852 c -0.09165,0 -0.17575,-0.0517 -0.216723,-0.1337 l -0.783865,-1.56881 c -0.0593,-0.1186 -0.01079,-0.26416 0.10782,-0.32346 0.118605,-0.0593 0.264165,-0.0108 0.323469,0.10782 l 0.569299,1.13752 0.568219,-1.13752 c 0.0593,-0.11861 0.203782,-0.16712 0.323466,-0.10782 0.119682,0.0593 0.167124,0.20486 0.107821,0.32346 l -0.783863,1.56881 c -0.04097,0.0819 -0.125074,0.1337 -0.215643,0.1337"
       style="fill:#000000;fill-opacity:1;fill-rule:nonzero;stroke:none;stroke-width:0.27602378" />
    <path
       inkscape:connector-curvature="0"
       id="path33537"
       d="m 84.783116,172.42852 c -0.564988,0 -1.025387,-0.4604 -1.025387,-1.02539 0,-0.56606 0.460399,-1.02646 1.025387,-1.02646 0.224269,0 0.437753,0.0712 0.615659,0.20594 0.106744,0.0798 0.12831,0.23074 0.04852,0.33748 -0.07979,0.10675 -0.231817,0.12831 -0.337481,0.0485 -0.09489,-0.0712 -0.207018,-0.1089 -0.3267,-0.1089 -0.298669,0 -0.542345,0.24368 -0.542345,0.54343 0,0.29866 0.243676,0.54234 0.542345,0.54234 0.119682,0 0.231815,-0.0377 0.3267,-0.10782 0.105664,-0.0809 0.257691,-0.0593 0.337481,0.0474 0.07979,0.10674 0.05822,0.25769 -0.04852,0.33856 -0.177906,0.1337 -0.39139,0.20486 -0.615659,0.20486"
       style="fill:#000000;fill-opacity:1;fill-rule:nonzero;stroke:none;stroke-width:0.27602378" />
    <path
       inkscape:connector-curvature="0"
       id="path33539"
       d="m 85.113049,171.39019 c 0,0.1736 -0.140166,0.31377 -0.313761,0.31377 -0.173594,0 -0.313762,-0.14017 -0.313762,-0.31377 0,-0.17251 0.140168,-0.31376 0.313762,-0.31376 0.173595,0 0.313761,0.14125 0.313761,0.31376"
       style="fill:#000000;fill-opacity:1;fill-rule:nonzero;stroke:none;stroke-width:0.27602378" />
    <path
       style="fill:#000000;fill-opacity:1;stroke:none;stroke-width:0.27602378"
       d="m 68.573442,146.73566 h 0.01294 c 0.06038,0 0.103509,-0.0345 0.125074,-0.0906 l 0.444225,-1.0394 c 0.0043,-0.0129 0.0086,-0.0302 0.0086,-0.0474 0,-0.0561 -0.04744,-0.10351 -0.107821,-0.10351 -0.05175,0 -0.09057,0.0345 -0.107822,0.069 l -0.366599,0.91432 -0.362281,-0.9057 c -0.01725,-0.0474 -0.05607,-0.0776 -0.112134,-0.0776 -0.06469,0 -0.112135,0.0474 -0.112135,0.10782 0,0.0173 0.0043,0.0345 0.01294,0.0517 l 0.439912,1.03078 c 0.02156,0.0561 0.06469,0.0906 0.125074,0.0906 z m 0,0"
       id="path4723"
       inkscape:connector-curvature="0" />
    <path
       style="fill:#000000;fill-opacity:1;stroke:none;stroke-width:0.27602378"
       d="m 69.152989,146.87367 c 0,0.0474 0.03882,0.0819 0.08626,0.0819 0.0345,0 0.06038,-0.0173 0.07763,-0.0474 l 0.733188,-1.50519 c 0.0043,-0.009 0.0086,-0.0259 0.0086,-0.0431 0,-0.0431 -0.0345,-0.082 -0.08195,-0.082 -0.0345,0 -0.06469,0.0173 -0.07763,0.0517 l -0.737505,1.50089 c -0.0043,0.0129 -0.0086,0.0259 -0.0086,0.0431 z m 0,0"
       id="path4719"
       inkscape:connector-curvature="0" />
    <path
       style="fill:#000000;fill-opacity:1;stroke:none;stroke-width:0.27602378"
       d="m 70.815053,146.73997 c 0.388159,0 0.65987,-0.29758 0.65987,-0.65124 0,-0.35366 -0.267398,-0.64693 -0.655557,-0.64693 -0.383846,0 -0.655556,0.29327 -0.655556,0.64693 v 0.004 c 0,0.35365 0.267398,0.64693 0.651243,0.64693 z m 0.0043,-0.2027 c -0.250146,0 -0.426974,-0.20271 -0.426974,-0.44854 0,-0.24584 0.176828,-0.44423 0.422662,-0.44423 0.250146,0 0.426974,0.20271 0.426974,0.44423 v 0.004 c 0,0.24583 -0.172515,0.44422 -0.422662,0.44422 z m 0,0"
       id="path4715"
       inkscape:connector-curvature="0" />
    <path
       style="fill:#000000;fill-opacity:1;stroke:none;stroke-width:0.27602378"
       d="m 72.376125,146.73997 c 0.202705,0 0.336404,-0.0647 0.452852,-0.1682 0.02156,-0.0172 0.03882,-0.0474 0.03882,-0.0776 0,-0.0561 -0.05175,-0.10351 -0.107822,-0.10351 -0.02588,0 -0.04744,0.009 -0.06469,0.0259 -0.09057,0.0776 -0.18114,0.12076 -0.314839,0.12076 -0.237208,0 -0.414036,-0.2027 -0.414036,-0.44854 0,-0.24583 0.176828,-0.44422 0.414036,-0.44422 0.12076,0 0.215643,0.0431 0.301901,0.11213 0.01294,0.0129 0.0345,0.0216 0.06469,0.0216 0.06038,0 0.112135,-0.0474 0.112135,-0.10782 0,-0.0388 -0.02156,-0.069 -0.04313,-0.0863 -0.112135,-0.0863 -0.237209,-0.14233 -0.431288,-0.14233 -0.379532,0 -0.646931,0.29328 -0.646931,0.64693 v 0.004 c 0,0.36228 0.271711,0.64693 0.638305,0.64693 z m 0,0"
       id="path4711"
       inkscape:connector-curvature="0" />
    <path
       style="fill:#000000;fill-opacity:1;stroke:none;stroke-width:0.27602378"
       d="m 73.490213,146.61921 c 0,0.0604 0.05175,0.10782 0.112135,0.10782 0.06038,0 0.112134,-0.0474 0.112134,-0.10782 v -0.95314 h 0.306214 c 0.05607,0 0.0992,-0.0474 0.0992,-0.0992 0,-0.0561 -0.04313,-0.10351 -0.0992,-0.10351 h -0.836697 c -0.05607,0 -0.0992,0.0474 -0.0992,0.10351 0,0.0517 0.04313,0.0992 0.0992,0.0992 h 0.306214 z m 0,0"
       id="path4707"
       inkscape:connector-curvature="0" />
    <path
       style="fill:#000000;fill-opacity:1;stroke:none;stroke-width:0.27602378"
       d="m 78.900527,146.61921 c 0,0.0604 0.05175,0.10782 0.112135,0.10782 0.06038,0 0.112134,-0.0474 0.112134,-0.10782 v -0.41403 h 0.539109 c 0.05607,0 0.103509,-0.0431 0.103509,-0.0992 0,-0.0561 -0.04744,-0.0992 -0.103509,-0.0992 h -0.539109 v -0.34503 h 0.621054 c 0.05607,0 0.0992,-0.0431 0.0992,-0.0992 0,-0.0561 -0.04313,-0.0992 -0.0992,-0.0992 h -0.733188 c -0.06038,0 -0.112135,0.0474 -0.112135,0.11213 z m 0,0"
       id="path4703"
       inkscape:connector-curvature="0" />
    <path
       style="fill:#000000;fill-opacity:1;stroke:none;stroke-width:0.27602378"
       d="m 80.115169,146.61921 c 0,0.0604 0.04744,0.10782 0.107822,0.10782 0.06469,0 0.112134,-0.0474 0.112134,-0.10782 v -0.75044 l 0.301902,0.45717 c 0.02588,0.0345 0.05607,0.0561 0.09488,0.0561 0.03882,0 0.06901,-0.0216 0.09057,-0.0561 l 0.306214,-0.46148 v 0.75475 c 0,0.0561 0.05175,0.10782 0.112135,0.10782 0.06038,0 0.112134,-0.0474 0.112134,-0.10782 v -1.05234 c 0,-0.0604 -0.05175,-0.11213 -0.112134,-0.11213 h -0.02588 c -0.04313,0 -0.07332,0.0216 -0.0992,0.0561 l -0.379532,0.59949 -0.383846,-0.59518 c -0.02156,-0.0345 -0.05175,-0.0604 -0.0992,-0.0604 h -0.02588 c -0.06038,0 -0.112135,0.0518 -0.112135,0.11214 z m 0,0"
       id="path4699"
       inkscape:connector-curvature="0" />
    <path
       style="fill:#000000;fill-opacity:1;stroke:none;stroke-width:0.27602378"
       d="m 87.159367,146.73566 c 0.267398,0 0.448538,-0.13801 0.448538,-0.37522 v -0.004 c 0,-0.20702 -0.133699,-0.3019 -0.401097,-0.36659 -0.241521,-0.0561 -0.297588,-0.0992 -0.297588,-0.1984 0,-0.0863 0.07332,-0.15095 0.202705,-0.15095 0.0992,0 0.194079,0.0302 0.288962,0.0949 0.01725,0.0129 0.0345,0.0172 0.05607,0.0172 0.06038,0 0.107822,-0.0474 0.107822,-0.1035 0,-0.0431 -0.02588,-0.0733 -0.05175,-0.0863 -0.112135,-0.0776 -0.237208,-0.11645 -0.396784,-0.11645 -0.250147,0 -0.426974,0.14664 -0.426974,0.36228 v 0.004 c 0,0.2329 0.146637,0.31053 0.414035,0.37522 0.237208,0.0517 0.28465,0.10351 0.28465,0.18977 v 0.004 c 0,0.0949 -0.08626,0.15957 -0.219957,0.15957 -0.138012,0 -0.250146,-0.0474 -0.353655,-0.12938 -0.01294,-0.0129 -0.0345,-0.0216 -0.06469,-0.0216 -0.05607,0 -0.103509,0.0474 -0.103509,0.10351 0,0.0345 0.01725,0.0647 0.04313,0.0863 0.138011,0.10351 0.301901,0.15526 0.470103,0.15526 z m 0,0"
       id="path4695"
       inkscape:connector-curvature="0" />
    <path
       style="fill:#000000;fill-opacity:1;stroke:none;stroke-width:0.27602378"
       d="m 88.270529,146.61921 c 0,0.0604 0.05175,0.10782 0.112135,0.10782 0.06038,0 0.112135,-0.0474 0.112135,-0.10782 v -0.39247 l 0.426974,-0.58655 c 0.01725,-0.0216 0.03019,-0.0517 0.03019,-0.0819 0,-0.0561 -0.04313,-0.10782 -0.107822,-0.10782 -0.04744,0 -0.07763,0.0302 -0.103509,0.069 l -0.357968,0.50461 -0.349343,-0.50461 c -0.02588,-0.0388 -0.06038,-0.0647 -0.107822,-0.0647 -0.06038,0 -0.112134,0.0474 -0.112134,0.10351 0,0.0302 0.01294,0.0561 0.02588,0.0776 l 0.431287,0.59518 z m 0,0"
       id="path4691"
       inkscape:connector-curvature="0" />
    <path
       style="fill:#000000;fill-opacity:1;stroke:none;stroke-width:0.27602378"
       d="m 89.212252,146.61921 c 0,0.0604 0.05175,0.10782 0.112134,0.10782 0.06038,0 0.107822,-0.0474 0.107822,-0.10782 v -0.79788 l 0.646931,0.8367 c 0.03019,0.0388 0.06038,0.069 0.112134,0.069 h 0.0086 c 0.06038,0 0.107822,-0.0517 0.107822,-0.11213 v -1.05235 c 0,-0.0604 -0.04744,-0.10782 -0.107822,-0.10782 -0.06038,0 -0.107822,0.0474 -0.107822,0.10782 v 0.77201 l -0.629679,-0.81513 c -0.03019,-0.0388 -0.06038,-0.0647 -0.112135,-0.0647 h -0.02588 c -0.06038,0 -0.112135,0.0517 -0.112135,0.11213 z m 0,0"
       id="path4687"
       inkscape:connector-curvature="0" />
    <path
       style="fill:#000000;fill-opacity:1;stroke:none;stroke-width:0.27602378"
       d="m 91.271623,146.73997 c 0.202705,0 0.336402,-0.0647 0.45285,-0.1682 0.02156,-0.0172 0.03882,-0.0474 0.03882,-0.0776 0,-0.0561 -0.05175,-0.10351 -0.107823,-0.10351 -0.02588,0 -0.04744,0.009 -0.06469,0.0259 -0.09057,0.0776 -0.181139,0.12076 -0.314838,0.12076 -0.237209,0 -0.414036,-0.2027 -0.414036,-0.44854 0,-0.24583 0.176827,-0.44422 0.414036,-0.44422 0.120758,0 0.215643,0.0431 0.3019,0.11213 0.01294,0.0129 0.0345,0.0216 0.06469,0.0216 0.06038,0 0.112136,-0.0474 0.112136,-0.10782 0,-0.0388 -0.02156,-0.069 -0.04313,-0.0863 -0.112135,-0.0863 -0.237207,-0.14233 -0.431286,-0.14233 -0.379534,0 -0.646932,0.29328 -0.646932,0.64693 v 0.004 c 0,0.36228 0.271711,0.64693 0.638306,0.64693 z m 0,0"
       id="path4683"
       inkscape:connector-curvature="0" />
    <path
       style="fill:#000000;fill-opacity:1;stroke:none;stroke-width:0.27602378"
       d="m 96.031115,146.61921 c 0,0.0604 0.05175,0.10782 0.112136,0.10782 0.06038,0 0.112133,-0.0474 0.112133,-0.10782 V 146.313 h 0.245835 c 0.276024,0 0.504605,-0.14664 0.504605,-0.42698 v -0.004 c 0,-0.25446 -0.185452,-0.41834 -0.478729,-0.41834 h -0.383844 c -0.06038,0 -0.112136,0.0474 -0.112136,0.11213 z m 0.224269,-0.5046 v -0.45285 h 0.25446 c 0.163888,0 0.271711,0.0776 0.271711,0.22426 v 0.004 c 0,0.1337 -0.103507,0.22427 -0.271711,0.22427 z m 0,0"
       id="path4679"
       inkscape:connector-curvature="0" />
    <path
       style="fill:#000000;fill-opacity:1;stroke:none;stroke-width:0.27602378"
       d="m 97.577615,146.64509 c 0.02156,0.0561 0.06038,0.0906 0.112133,0.0906 h 0.02156 c 0.05607,0 0.09489,-0.0345 0.116448,-0.0906 l 0.280337,-0.81945 0.280336,0.81945 c 0.01725,0.0561 0.05607,0.0906 0.112136,0.0906 h 0.02156 c 0.05175,0 0.09488,-0.0345 0.116448,-0.0906 l 0.370906,-1.0394 c 0.0043,-0.0129 0.0086,-0.0302 0.0086,-0.0474 0,-0.0561 -0.05176,-0.10351 -0.107821,-0.10351 -0.05607,0 -0.09057,0.0345 -0.107823,0.0776 l -0.288962,0.86689 -0.284649,-0.86258 c -0.01725,-0.0517 -0.05607,-0.0863 -0.112136,-0.0863 h -0.01294 c -0.05607,0 -0.09488,0.0345 -0.112136,0.0863 l -0.284649,0.86258 -0.288962,-0.86689 c -0.01294,-0.0431 -0.05607,-0.0776 -0.10782,-0.0776 -0.06038,0 -0.116449,0.0474 -0.116449,0.10782 0,0.0129 0.0043,0.0302 0.01294,0.0431 z m 0,0"
       id="path4675"
       inkscape:connector-curvature="0" />
    <path
       style="fill:#000000;fill-opacity:1;stroke:none;stroke-width:0.27602378"
       d="m 99.291271,146.61921 c 0,0.0604 0.04744,0.10782 0.107823,0.10782 0.06469,0 0.112133,-0.0474 0.112133,-0.10782 v -0.75044 l 0.301903,0.45717 c 0.02588,0.0345 0.05607,0.0561 0.09488,0.0561 0.03882,0 0.06901,-0.0216 0.09057,-0.0561 l 0.30622,-0.46148 v 0.75475 c 0,0.0561 0.0517,0.10782 0.11213,0.10782 0.0604,0 0.11213,-0.0474 0.11213,-0.10782 v -1.05234 c 0,-0.0604 -0.0517,-0.11213 -0.11213,-0.11213 h -0.0259 c -0.0431,0 -0.0733,0.0216 -0.0992,0.0561 l -0.37953,0.59949 -0.383844,-0.59518 c -0.02156,-0.0345 -0.05176,-0.0604 -0.0992,-0.0604 h -0.02588 c -0.06038,0 -0.112136,0.0518 -0.112136,0.11214 z m 0,0"
       id="path4671"
       inkscape:connector-curvature="0" />
    <path
       inkscape:connector-curvature="0"
       id="path33631"
       d="m 66.78011,142.84438 h 35.77311"
       style="fill:none;stroke:#000000;stroke-width:0.18383184;stroke-linecap:round;stroke-linejoin:round;stroke-miterlimit:10;stroke-opacity:1" />
    <path
       style="fill:#000000;fill-opacity:1;stroke:none;stroke-width:0.27602378"
       d="m 80.710678,82.646522 h 0.0345 c 0.138012,0 0.232895,-0.07332 0.284649,-0.198392 l 0.759066,-1.815719 c 0.01294,-0.03019 0.02588,-0.07332 0.02588,-0.112134 0,-0.142325 -0.112134,-0.245834 -0.250146,-0.245834 -0.120761,0 -0.211331,0.07763 -0.245834,0.159576 l -0.586552,1.518131 -0.577924,-1.500879 c -0.03882,-0.103509 -0.125074,-0.176828 -0.258773,-0.176828 -0.142324,0 -0.254459,0.107822 -0.254459,0.250146 0,0.04313 0.01294,0.08194 0.03019,0.125074 l 0.750439,1.798467 c 0.05175,0.125073 0.150951,0.198392 0.288964,0.198392 z m 0,0"
       id="path4667"
       inkscape:connector-curvature="0" />
    <path
       style="fill:#000000;fill-opacity:1;stroke:none;stroke-width:0.27602378"
       d="m 83.205773,82.650835 c 0.370907,0 0.616741,-0.107822 0.828072,-0.288962 0.04313,-0.04313 0.08626,-0.103509 0.08626,-0.185454 0,-0.129386 -0.112135,-0.232895 -0.241521,-0.232895 -0.06038,0 -0.112134,0.02156 -0.15095,0.05607 -0.146638,0.116448 -0.288963,0.181141 -0.504606,0.181141 -0.396784,0 -0.672808,-0.332091 -0.672808,-0.728876 v -0.0043 c 0,-0.396784 0.284649,-0.724562 0.672808,-0.724562 0.18114,0 0.332091,0.06038 0.474416,0.168202 0.03882,0.02156 0.08194,0.04744 0.15095,0.04744 0.142325,0 0.25446,-0.107822 0.25446,-0.245834 0,-0.09057 -0.04744,-0.163889 -0.0992,-0.202705 -0.19408,-0.142324 -0.426975,-0.237208 -0.776317,-0.237208 -0.711624,0 -1.207604,0.53911 -1.207604,1.198979 v 0.0086 c 0,0.664182 0.504606,1.190352 1.186039,1.190352 z m 0,0"
       id="path4663"
       inkscape:connector-curvature="0" />
    <path
       style="fill:#000000;fill-opacity:1;stroke:none;stroke-width:0.27602378"
       d="m 85.652296,82.650835 c 0.715937,0 1.233481,-0.539109 1.233481,-1.198978 v -0.0043 c 0,-0.65987 -0.513231,-1.194666 -1.229168,-1.194666 -0.715937,0 -1.233481,0.539109 -1.233481,1.198979 v 0.0086 c 0,0.659869 0.513231,1.190352 1.229168,1.190352 z m 0.0043,-0.470103 c -0.409723,0 -0.702998,-0.332091 -0.702998,-0.728875 v -0.0043 c 0,-0.396784 0.284649,-0.724563 0.698685,-0.724563 0.409723,0 0.698685,0.332091 0.698685,0.728876 v 0.0086 c 0,0.396784 -0.28465,0.720249 -0.694372,0.720249 z m 0,0"
       id="path4659"
       inkscape:connector-curvature="0" />
    <path
       style="fill:#000000;fill-opacity:1;stroke:none;stroke-width:0.27602378"
       d="m 87.571461,81.827077 h 0.573612 c 0.133699,0 0.245833,-0.107822 0.245833,-0.241521 0,-0.133699 -0.112134,-0.241521 -0.245833,-0.241521 h -0.573612 c -0.1337,0 -0.241521,0.107822 -0.241521,0.241521 0,0.133699 0.107821,0.241521 0.241521,0.241521 z m 0,0"
       id="path4655"
       inkscape:connector-curvature="0" />
    <path
       style="fill:#000000;fill-opacity:1;stroke:none;stroke-width:0.27602378"
       d="m 89.029523,82.379124 c 0,0.138012 0.112135,0.25446 0.250146,0.25446 0.138012,0 0.250147,-0.116448 0.250147,-0.25446 v -1.867473 c 0,-0.138012 -0.112135,-0.250147 -0.250147,-0.250147 h -0.0043 c -0.07332,0 -0.142325,0.01725 -0.241521,0.04313 l -0.327778,0.09488 c -0.103509,0.03019 -0.168202,0.116448 -0.168202,0.219957 0,0.116447 0.103509,0.215643 0.219956,0.215643 0.03019,0 0.06469,-0.0043 0.09057,-0.01294 l 0.18114,-0.04313 z m 0,0"
       id="path4651"
       inkscape:connector-curvature="0" />
    <path
       style="fill:#000000;fill-opacity:1;stroke:none;stroke-width:0.27602378"
       d="m 73.031882,110.32866 c 0,0.0776 0.06038,0.13801 0.138012,0.13801 0.07332,0 0.133699,-0.0604 0.133699,-0.13801 v -0.5046 h 0.668495 c 0.06901,0 0.12076,-0.0561 0.12076,-0.12508 0,-0.0647 -0.05175,-0.12076 -0.12076,-0.12076 h -0.668495 v -0.42266 h 0.767691 c 0.06901,0 0.12076,-0.0561 0.12076,-0.12507 0,-0.069 -0.05175,-0.12076 -0.12076,-0.12076 h -0.90139 c -0.07763,0 -0.138012,0.0561 -0.138012,0.1337 z m 0,0"
       id="path4647"
       inkscape:connector-curvature="0" />
    <path
       style="fill:#000000;fill-opacity:1;stroke:none;stroke-width:0.27602378"
       d="m 74.519789,110.32866 c 0,0.0776 0.05607,0.13801 0.133699,0.13801 0.07763,0 0.138012,-0.0604 0.138012,-0.13801 v -1.29817 c 0,-0.0733 -0.06038,-0.1337 -0.138012,-0.1337 -0.07763,0 -0.133699,0.0604 -0.133699,0.1337 z m 0,0"
       id="path4643"
       inkscape:connector-curvature="0" />
    <path
       style="fill:#000000;fill-opacity:1;stroke:none;stroke-width:0.27602378"
       d="m 75.256633,110.33298 c 0,0.0733 0.06038,0.13369 0.133699,0.13369 0.07332,0 0.133699,-0.0604 0.133699,-0.13369 v -0.97903 l 0.793568,1.02647 c 0.03882,0.0474 0.07763,0.0819 0.142325,0.0819 h 0.01294 c 0.07332,0 0.129386,-0.0604 0.129386,-0.1337 v -1.29817 c 0,-0.0733 -0.05607,-0.1337 -0.133698,-0.1337 -0.07332,0 -0.133699,0.0604 -0.133699,0.1337 v 0.94883 l -0.772007,-1.00059 c -0.0345,-0.0474 -0.07332,-0.0776 -0.142324,-0.0776 h -0.02588 c -0.07763,0 -0.138012,0.0604 -0.138012,0.1337 z m 0,0"
       id="path4639"
       inkscape:connector-curvature="0" />
    <path
       style="fill:#000000;fill-opacity:1;stroke:none;stroke-width:0.27602378"
       d="m 77.203595,110.45374 h 0.910016 c 0.06469,0 0.120761,-0.0517 0.120761,-0.12076 0,-0.069 -0.05607,-0.12076 -0.120761,-0.12076 h -0.776317 v -0.41835 h 0.664183 c 0.06901,0 0.12076,-0.0518 0.12076,-0.11645 0,-0.069 -0.05175,-0.12507 -0.12076,-0.12507 h -0.664183 v -0.4011 h 0.763379 c 0.06901,0 0.12076,-0.0517 0.12076,-0.12076 0,-0.069 -0.05175,-0.12076 -0.12076,-0.12076 h -0.897078 c -0.07763,0 -0.138012,0.0561 -0.138012,0.1337 v 1.27229 c 0,0.0776 0.06038,0.13802 0.138012,0.13802 z m 0,0"
       id="path4635"
       inkscape:connector-curvature="0" />
    <path
       style="fill:#000000;fill-opacity:1;stroke:none;stroke-width:0.27602378"
       d="m 72.106651,127.55034 c 0,0.0776 0.06038,0.13801 0.138012,0.13801 0.07332,0 0.133699,-0.0604 0.133699,-0.13801 v -0.50461 h 0.668495 c 0.06901,0 0.12076,-0.0561 0.12076,-0.12507 0,-0.0647 -0.05175,-0.12076 -0.12076,-0.12076 h -0.668495 v -0.42266 h 0.767691 c 0.06901,0 0.12076,-0.0561 0.12076,-0.12507 0,-0.069 -0.05175,-0.12077 -0.12076,-0.12077 h -0.90139 c -0.07763,0 -0.138012,0.0561 -0.138012,0.1337 z m 0,0"
       id="path4631"
       inkscape:connector-curvature="0" />
    <path
       style="fill:#000000;fill-opacity:1;stroke:none;stroke-width:0.27602378"
       d="m 73.584814,127.55465 c 0,0.0733 0.05607,0.1337 0.133699,0.1337 0.07332,0 0.133699,-0.0604 0.133699,-0.1337 v -0.92727 l 0.37522,0.56499 c 0.03019,0.0431 0.06469,0.069 0.112134,0.069 0.05175,0 0.08626,-0.0259 0.116448,-0.069 l 0.37522,-0.5693 v 0.92727 c 0,0.0733 0.06469,0.13801 0.138012,0.13801 0.07763,0 0.133699,-0.0604 0.133699,-0.13801 v -1.29386 c 0,-0.0733 -0.05607,-0.1337 -0.133699,-0.1337 h -0.03019 c -0.05607,0 -0.09488,0.0216 -0.125073,0.069 l -0.470104,0.73318 -0.46579,-0.73318 c -0.02588,-0.0388 -0.06901,-0.069 -0.129386,-0.069 h -0.02588 c -0.07763,0 -0.138012,0.0604 -0.138012,0.13369 z m 0,0"
       id="path4627"
       inkscape:connector-curvature="0" />
    <path
       style="fill:#000000;fill-opacity:1;stroke:none;stroke-width:0.27602378"
       d="m 76.879915,127.70129 c 0.250147,0 0.418349,-0.0776 0.564986,-0.20702 0.02156,-0.0216 0.04313,-0.0561 0.04313,-0.0992 0,-0.0647 -0.06038,-0.12507 -0.129386,-0.12507 -0.0345,0 -0.06038,0.0129 -0.08194,0.0302 -0.112134,0.0949 -0.224269,0.15095 -0.383845,0.15095 -0.297588,0 -0.513232,-0.24584 -0.513232,-0.54774 v -0.004 c 0,-0.3019 0.215644,-0.54773 0.513232,-0.54773 0.146638,0 0.258772,0.0561 0.366594,0.14232 0.01725,0.0129 0.04313,0.0259 0.08194,0.0259 0.07332,0 0.133699,-0.0604 0.133699,-0.13369 0,-0.0474 -0.02156,-0.0863 -0.05175,-0.10783 -0.133699,-0.1035 -0.293275,-0.17683 -0.530483,-0.17683 -0.470103,0 -0.797881,0.36229 -0.797881,0.8022 v 0.004 c 0,0.44422 0.336404,0.79357 0.784942,0.79357 z m 0,0"
       id="path4623"
       inkscape:connector-curvature="0" />
    <path
       style="fill:#000000;fill-opacity:1;stroke:none;stroke-width:0.27602378"
       d="m 78.455722,127.69698 h 0.01294 c 0.07763,0 0.129386,-0.0431 0.159576,-0.10782 l 0.543422,-1.28093 c 0.0043,-0.0172 0.01294,-0.0388 0.01294,-0.0604 0,-0.0733 -0.06038,-0.12939 -0.133699,-0.12939 -0.06469,0 -0.116447,0.0431 -0.133699,0.0906 l -0.452851,1.12135 -0.444226,-1.11272 c -0.02156,-0.0604 -0.06901,-0.0992 -0.138012,-0.0992 -0.07763,0 -0.138012,0.0604 -0.138012,0.1337 0,0.0216 0.0086,0.0431 0.01725,0.0647 l 0.539109,1.27229 c 0.03019,0.0647 0.07763,0.10783 0.155264,0.10783 z m 0,0"
       id="path4619"
       inkscape:connector-curvature="0" />
    <path
       style="fill:#000000;fill-opacity:1;stroke:none;stroke-width:0.27602378"
       d="m 89.00814,127.55034 c 0,0.0776 0.06038,0.13801 0.138011,0.13801 0.07332,0 0.133699,-0.0604 0.133699,-0.13801 v -0.37091 h 0.306214 c 0.340717,0 0.621054,-0.18114 0.621054,-0.53048 v -0.004 c 0,-0.31053 -0.228582,-0.51323 -0.590864,-0.51323 h -0.470103 c -0.07763,0 -0.138011,0.0561 -0.138011,0.1337 z m 0.27171,-0.61674 v -0.55636 h 0.31484 c 0.202705,0 0.336404,0.0949 0.336404,0.27602 v 0.004 c 0,0.15958 -0.129386,0.27602 -0.336404,0.27602 z m 0,0"
       id="path4615"
       inkscape:connector-curvature="0" />
    <path
       style="fill:#000000;fill-opacity:1;stroke:none;stroke-width:0.27602378"
       d="m 90.890097,127.58484 c 0.02588,0.069 0.07332,0.11214 0.142325,0.11214 h 0.02588 c 0.06469,0 0.116447,-0.0431 0.142325,-0.11214 l 0.345031,-1.00921 0.340717,1.00921 c 0.02588,0.069 0.07332,0.11214 0.142325,0.11214 h 0.02588 c 0.06469,0 0.116448,-0.0431 0.142325,-0.11214 l 0.457165,-1.28092 c 0.0043,-0.0173 0.01294,-0.0388 0.01294,-0.0561 0,-0.0733 -0.06469,-0.12939 -0.138012,-0.12939 -0.06469,0 -0.112135,0.0431 -0.129386,0.0992 l -0.357977,1.06098 -0.349343,-1.05666 c -0.01725,-0.0647 -0.06469,-0.10782 -0.133699,-0.10782 h -0.02156 c -0.06901,0 -0.116448,0.0431 -0.138012,0.10782 l -0.349344,1.05666 -0.353656,-1.06097 c -0.01725,-0.0561 -0.06901,-0.0992 -0.133699,-0.0992 -0.07763,0 -0.138011,0.0561 -0.138011,0.1337 0,0.0172 0.0043,0.0345 0.0086,0.0517 z m 0,0"
       id="path4611"
       inkscape:connector-curvature="0" />
    <path
       style="fill:#000000;fill-opacity:1;stroke:none;stroke-width:0.27602378"
       d="m 92.986195,127.55465 c 0,0.0733 0.05607,0.1337 0.133699,0.1337 0.07332,0 0.133699,-0.0604 0.133699,-0.1337 v -0.92727 l 0.375219,0.56499 c 0.03019,0.0431 0.06469,0.069 0.112136,0.069 0.05175,0 0.08626,-0.0259 0.116445,-0.069 l 0.375222,-0.5693 v 0.92727 c 0,0.0733 0.06469,0.13801 0.138012,0.13801 0.07763,0 0.133699,-0.0604 0.133699,-0.13801 v -1.29386 c 0,-0.0733 -0.05607,-0.1337 -0.133699,-0.1337 h -0.03019 c -0.05607,0 -0.09488,0.0216 -0.125074,0.069 l -0.470101,0.73319 -0.465791,-0.73319 c -0.02588,-0.0388 -0.06901,-0.069 -0.129386,-0.069 h -0.02588 c -0.07763,0 -0.138012,0.0604 -0.138012,0.1337 z m 0,0"
       id="path4607"
       inkscape:connector-curvature="0" />
    <path
       style="fill:#000000;fill-opacity:1;stroke:none;stroke-width:0.27602378"
       d="m 96.281297,127.70129 c 0.250148,0 0.418349,-0.0776 0.564986,-0.20702 0.02156,-0.0216 0.04313,-0.0561 0.04313,-0.0992 0,-0.0647 -0.06038,-0.12507 -0.129387,-0.12507 -0.0345,0 -0.06038,0.0129 -0.08194,0.0302 -0.112136,0.0949 -0.224269,0.15095 -0.383847,0.15095 -0.297587,0 -0.513231,-0.24584 -0.513231,-0.54774 v -0.004 c 0,-0.3019 0.215644,-0.54773 0.513231,-0.54773 0.146637,0 0.258773,0.0561 0.366596,0.14232 0.01725,0.0129 0.04313,0.0259 0.08194,0.0259 0.07332,0 0.1337,-0.0604 0.1337,-0.13369 0,-0.0474 -0.02156,-0.0863 -0.05176,-0.10783 -0.133699,-0.1035 -0.293274,-0.17683 -0.530484,-0.17683 -0.470101,0 -0.79788,0.36229 -0.79788,0.8022 v 0.004 c 0,0.44422 0.336404,0.79357 0.784942,0.79357 z m 0,0"
       id="path4603"
       inkscape:connector-curvature="0" />
    <path
       style="fill:#000000;fill-opacity:1;stroke:none;stroke-width:0.27602378"
       d="m 97.857322,127.69698 h 0.01294 c 0.07763,0 0.129387,-0.0431 0.159576,-0.10782 l 0.543422,-1.28093 c 0.0043,-0.0172 0.01294,-0.0388 0.01294,-0.0604 0,-0.0733 -0.06038,-0.12939 -0.133699,-0.12939 -0.06469,0 -0.116449,0.0431 -0.133699,0.0906 l -0.452851,1.12135 -0.444227,-1.11272 c -0.02156,-0.0604 -0.06901,-0.0992 -0.138012,-0.0992 -0.07763,0 -0.138012,0.0604 -0.138012,0.1337 0,0.0216 0.0086,0.0431 0.01725,0.0647 l 0.539107,1.27229 c 0.03019,0.0647 0.07763,0.10783 0.155263,0.10783 z m 0,0"
       id="path4599"
       inkscape:connector-curvature="0" />
    <path
       style="fill:#000000;fill-opacity:1;stroke:none;stroke-width:0.27602378"
       d="m 88.623915,110.32866 c 0,0.0776 0.06038,0.13801 0.138012,0.13801 0.07332,0 0.133699,-0.0604 0.133699,-0.13801 v -0.3709 h 0.306214 c 0.340717,0 0.621053,-0.18115 0.621053,-0.53049 v -0.004 c 0,-0.31052 -0.228582,-0.51323 -0.590863,-0.51323 h -0.470103 c -0.07763,0 -0.138012,0.0561 -0.138012,0.1337 z m 0.271711,-0.61674 v -0.55636 h 0.31484 c 0.202705,0 0.336404,0.0949 0.336404,0.27602 v 0.004 c 0,0.15958 -0.129386,0.27603 -0.336404,0.27603 z m 0,0"
       id="path4595"
       inkscape:connector-curvature="0" />
    <path
       style="fill:#000000;fill-opacity:1;stroke:none;stroke-width:0.27602378"
       d="m 89.910427,110.28985 v 0.0216 c 0,0.0863 0.06469,0.15526 0.155263,0.15526 0.09057,0 0.155264,-0.069 0.155264,-0.15526 v -0.0216 c 0,-0.0863 -0.06469,-0.15095 -0.155264,-0.15095 -0.09057,0 -0.155263,0.0647 -0.155263,0.15095 z m 0,0"
       id="path4591"
       inkscape:connector-curvature="0" />
    <path
       style="fill:#000000;fill-opacity:1;stroke:none;stroke-width:0.27602378"
       d="m 91.585236,110.36317 c 0.02588,0.069 0.07332,0.11213 0.142325,0.11213 h 0.02588 c 0.06469,0 0.116449,-0.0431 0.142325,-0.11213 l 0.34503,-1.00922 0.340717,1.00922 c 0.02588,0.069 0.07332,0.11213 0.142325,0.11213 h 0.02588 c 0.06469,0 0.116446,-0.0431 0.142325,-0.11213 l 0.457163,-1.28093 c 0.0043,-0.0173 0.01294,-0.0388 0.01294,-0.0561 0,-0.0733 -0.06469,-0.12938 -0.138012,-0.12938 -0.06469,0 -0.112133,0.0431 -0.129384,0.0992 l -0.357971,1.06096 -0.349342,-1.05665 c -0.01725,-0.0647 -0.06469,-0.10782 -0.1337,-0.10782 h -0.02156 c -0.06901,0 -0.116446,0.0431 -0.138012,0.10782 l -0.349356,1.05665 -0.353655,-1.06096 c -0.01725,-0.0561 -0.06901,-0.0992 -0.133699,-0.0992 -0.07763,0 -0.138011,0.0561 -0.138011,0.13369 0,0.0173 0.0043,0.0345 0.0086,0.0517 z m 0,0"
       id="path4587"
       inkscape:connector-curvature="0" />
    <path
       style="fill:#000000;fill-opacity:1;stroke:none;stroke-width:0.27602378"
       d="m 93.691296,110.32866 c 0,0.0776 0.05607,0.13801 0.133699,0.13801 0.07763,0 0.138012,-0.0604 0.138012,-0.13801 v -1.29817 c 0,-0.0733 -0.06038,-0.1337 -0.138012,-0.1337 -0.07763,0 -0.133699,0.0604 -0.133699,0.1337 z m 0,0"
       id="path4583"
       inkscape:connector-curvature="0" />
    <path
       style="fill:#000000;fill-opacity:1;stroke:none;stroke-width:0.27602378"
       d="m 94.428145,110.31572 c 0,0.0776 0.06038,0.13802 0.138012,0.13802 h 0.439912 c 0.483042,0 0.819446,-0.33641 0.819446,-0.77201 v -0.004 c 0,-0.4356 -0.336404,-0.76769 -0.819446,-0.76769 h -0.439912 c -0.07763,0 -0.138012,0.0561 -0.138012,0.1337 z m 0.271711,-0.10782 v -1.05234 h 0.306213 c 0.323466,0 0.534797,0.22427 0.534797,0.52617 v 0.004 c 0,0.3019 -0.211331,0.52186 -0.534797,0.52186 z m 0,0"
       id="path4579"
       inkscape:connector-curvature="0" />
    <path
       style="fill:#000000;fill-opacity:1;stroke:none;stroke-width:0.27602378"
       d="m 96.493847,110.32866 c 0,0.0776 0.06038,0.13801 0.138012,0.13801 0.07332,0 0.138012,-0.0604 0.138012,-0.13801 v -1.16879 h 0.375222 c 0.06901,0 0.125071,-0.0561 0.125071,-0.12507 0,-0.069 -0.05606,-0.12507 -0.125071,-0.12507 h -1.026465 c -0.06901,0 -0.125073,0.0561 -0.125073,0.12507 0,0.069 0.05607,0.12507 0.125073,0.12507 h 0.375219 z m 0,0"
       id="path4575"
       inkscape:connector-curvature="0" />
    <path
       style="fill:#000000;fill-opacity:1;stroke:none;stroke-width:0.27602378"
       d="m 97.579668,110.32866 c 0,0.0776 0.06038,0.13801 0.138012,0.13801 0.07332,0 0.133699,-0.0604 0.133699,-0.13801 v -0.52617 h 0.7375 v 0.52617 c 0,0.0776 0.06038,0.13801 0.133699,0.13801 0.07763,0 0.138012,-0.0604 0.138012,-0.13801 v -1.29817 c 0,-0.0733 -0.06038,-0.1337 -0.138012,-0.1337 -0.07332,0 -0.133699,0.0604 -0.133699,0.1337 v 0.52186 h -0.7375 v -0.52186 c 0,-0.0733 -0.06038,-0.1337 -0.133699,-0.1337 -0.07763,0 -0.138012,0.0604 -0.138012,0.1337 z m 0,0"
       id="path4571"
       inkscape:connector-curvature="0" />
    <path
       inkscape:connector-curvature="0"
       id="path36593"
       d="m 102.06803,156.82886 c 0,-0.43021 -0.3515,-0.78279 -0.78171,-0.78279 h -6.011067 c -0.43021,0 -0.782785,0.35258 -0.782785,0.78279 v 9.5239 c 0,0.43021 0.352575,0.78279 0.782785,0.78279 h 6.011067 c 0.43021,0 0.78171,-0.35258 0.78171,-0.78279 z m 0,0"
       style="fill:#000000;fill-opacity:1;fill-rule:nonzero;stroke:none;stroke-width:0.27602378" />
    <path
       style="fill:#e6e6e6;fill-opacity:1;stroke:none;stroke-width:0.27602378"
       d="m 96.836512,158.47906 c 0.267396,0 0.457163,-0.13801 0.457163,-0.38816 v -0.004 c 0,-0.21995 -0.142325,-0.31052 -0.396785,-0.37522 -0.215644,-0.0561 -0.271709,-0.0819 -0.271709,-0.1682 0,-0.0647 0.05607,-0.11213 0.163888,-0.11213 0.08626,0 0.172514,0.0302 0.263086,0.0863 0.02156,0.0129 0.04313,0.0172 0.06901,0.0172 0.07332,0 0.129387,-0.0561 0.129387,-0.12508 0,-0.0561 -0.03019,-0.0906 -0.06038,-0.11213 -0.112136,-0.069 -0.245835,-0.10782 -0.396785,-0.10782 -0.258773,0 -0.439912,0.15095 -0.439912,0.37522 v 0.004 c 0,0.25014 0.159575,0.31915 0.414036,0.38384 0.211331,0.0561 0.254458,0.0906 0.254458,0.15958 v 0.004 c 0,0.0733 -0.06901,0.12076 -0.181139,0.12076 -0.125074,0 -0.228585,-0.0431 -0.323467,-0.11645 -0.01725,-0.0129 -0.04313,-0.0216 -0.07763,-0.0216 -0.07332,0 -0.129387,0.0517 -0.129387,0.12507 0,0.0431 0.02156,0.0819 0.05175,0.10351 0.142325,0.10351 0.306213,0.15095 0.474417,0.15095 z m 0,0"
       id="path4567"
       inkscape:connector-curvature="0" />
    <path
       style="fill:#e6e6e6;fill-opacity:1;stroke:none;stroke-width:0.27602378"
       d="m 98.187406,158.48337 c 0.142324,0 0.267398,-0.0388 0.375218,-0.10782 l 0.06901,0.0604 c 0.02156,0.0216 0.05176,0.0388 0.09057,0.0388 0.07332,0 0.129383,-0.0604 0.129383,-0.12938 0,-0.0474 -0.02156,-0.0819 -0.05175,-0.10782 l -0.05175,-0.0431 c 0.06901,-0.10351 0.112133,-0.22859 0.112133,-0.36228 0,-0.35797 -0.280337,-0.64693 -0.668494,-0.64693 -0.388159,0 -0.668496,0.29327 -0.668496,0.64693 v 0.004 c 0,0.35796 0.280337,0.64693 0.664184,0.64693 z m 0.03881,-0.40109 0.129386,0.11213 c -0.04744,0.0216 -0.103507,0.0345 -0.163888,0.0345 -0.219956,0 -0.379534,-0.18114 -0.379534,-0.39678 0,-0.21565 0.155265,-0.39248 0.375222,-0.39248 0.224268,0 0.383844,0.17683 0.383844,0.39248 v 0.004 c 0,0.0647 -0.01294,0.12507 -0.0345,0.17251 l -0.138012,-0.12507 c -0.03019,-0.0216 -0.05607,-0.0345 -0.09488,-0.0345 -0.06901,0 -0.129387,0.0561 -0.129387,0.12939 0,0.0431 0.02156,0.0776 0.05175,0.10351 z m 0,0"
       id="path4563"
       inkscape:connector-curvature="0" />
    <path
       style="fill:#e6e6e6;fill-opacity:1;stroke:none;stroke-width:0.27602378"
       d="m 99.178241,158.33242 c 0,0.0776 0.06038,0.13802 0.138012,0.13802 0.07763,0 0.138012,-0.0604 0.138012,-0.13802 v -0.27171 h 0.219956 l 0.271711,0.34072 c 0.03019,0.0388 0.07332,0.069 0.133698,0.069 0.069,0 0.1337,-0.0474 0.1337,-0.12507 0,-0.0431 -0.0216,-0.0733 -0.0474,-0.10782 l -0.189766,-0.23291 c 0.150946,-0.0604 0.250146,-0.18545 0.250146,-0.37953 v -0.004 c 0,-0.12076 -0.0388,-0.21564 -0.10782,-0.28896 -0.0819,-0.0819 -0.207019,-0.12507 -0.366598,-0.12507 h -0.435599 c -0.07763,0 -0.138012,0.0604 -0.138012,0.13801 z m 0.276024,-0.51754 v -0.35797 h 0.276024 c 0.133699,0 0.215643,0.0604 0.215643,0.17683 v 0.004 c 0,0.10782 -0.07763,0.17683 -0.21133,0.17683 z m 0,0"
       id="path4559"
       inkscape:connector-curvature="0" />
    <path
       inkscape:connector-curvature="0"
       id="path36605"
       d="m 92.992666,156.82886 c 0,-0.43021 -0.352578,-0.78279 -0.782785,-0.78279 h -6.011067 c -0.430207,0 -0.781708,0.35258 -0.781708,0.78279 v 9.5239 c 0,0.43021 0.351501,0.78279 0.781708,0.78279 h 6.011067 c 0.430207,0 0.782785,-0.35258 0.782785,-0.78279 z m 0,0"
       style="fill:#000000;fill-opacity:1;fill-rule:nonzero;stroke:none;stroke-width:0.27602378" />
    <path
       style="fill:#e6e6e6;fill-opacity:1;stroke:none;stroke-width:0.27602378"
       d="m 87.549277,158.47906 c 0.267398,0 0.457165,-0.13801 0.457165,-0.38816 v -0.004 c 0,-0.21995 -0.142325,-0.31052 -0.396785,-0.37522 -0.215643,-0.0561 -0.27171,-0.0819 -0.27171,-0.1682 0,-0.0647 0.05607,-0.11213 0.163889,-0.11213 0.08626,0 0.172515,0.0302 0.263085,0.0863 0.02156,0.0129 0.04313,0.0172 0.06901,0.0172 0.07332,0 0.129386,-0.0561 0.129386,-0.12508 0,-0.0561 -0.03019,-0.0906 -0.06038,-0.11213 -0.112135,-0.069 -0.245834,-0.10782 -0.396784,-0.10782 -0.258773,0 -0.439913,0.15095 -0.439913,0.37522 v 0.004 c 0,0.25014 0.159576,0.31915 0.414035,0.38384 0.211331,0.0561 0.25446,0.0906 0.25446,0.15958 v 0.004 c 0,0.0733 -0.06901,0.12076 -0.181141,0.12076 -0.125073,0 -0.228582,-0.0431 -0.323465,-0.11645 -0.01725,-0.0129 -0.04313,-0.0216 -0.07763,-0.0216 -0.07332,0 -0.129386,0.0517 -0.129386,0.12507 0,0.0431 0.02156,0.0819 0.05175,0.10351 0.142325,0.10351 0.306214,0.15095 0.474416,0.15095 z m 0,0"
       id="path4555"
       inkscape:connector-curvature="0" />
    <path
       style="fill:#e6e6e6;fill-opacity:1;stroke:none;stroke-width:0.27602378"
       d="m 88.203827,158.34536 c 0,0.069 0.05607,0.12508 0.129386,0.12508 0.05607,0 0.103509,-0.0302 0.125074,-0.0819 l 0.08626,-0.20702 h 0.556361 l 0.08194,0.19408 c 0.02588,0.0604 0.06901,0.0949 0.133699,0.0949 0.07332,0 0.129386,-0.0561 0.129386,-0.12939 0,-0.0172 -0.0043,-0.0388 -0.01294,-0.0561 l -0.43991,-0.98765 c -0.03019,-0.069 -0.08194,-0.11213 -0.159576,-0.11213 h -0.01294 c -0.07763,0 -0.1337,0.0431 -0.16389,0.11213 l -0.435599,0.98765 c -0.0086,0.0173 -0.01725,0.0388 -0.01725,0.0604 z m 0.444226,-0.40972 0.172515,-0.41403 0.176828,0.41403 z m 0,0"
       id="path4551"
       inkscape:connector-curvature="0" />
    <path
       style="fill:#e6e6e6;fill-opacity:1;stroke:none;stroke-width:0.27602378"
       d="m 89.912794,158.36693 c 0.02588,0.0733 0.07763,0.11644 0.142325,0.11644 h 0.03019 c 0.06901,0 0.116447,-0.0431 0.142325,-0.11644 l 0.245833,-0.71594 0.250147,0.71594 c 0.02588,0.0733 0.07332,0.11644 0.142325,0.11644 h 0.02588 c 0.06901,0 0.12076,-0.0431 0.146638,-0.11644 l 0.349343,-0.98334 c 0.0043,-0.0172 0.01294,-0.0388 0.01294,-0.0561 0,-0.0733 -0.06469,-0.1337 -0.138012,-0.1337 -0.06901,0 -0.116449,0.0474 -0.1337,0.0992 l -0.250147,0.77201 -0.250146,-0.76338 c -0.02156,-0.069 -0.06901,-0.11213 -0.138012,-0.11213 h -0.02157 c -0.07332,0 -0.12076,0.0474 -0.142325,0.11213 l -0.250146,0.76338 -0.250147,-0.77201 c -0.01725,-0.0561 -0.06901,-0.0992 -0.133699,-0.0992 -0.07763,0 -0.142324,0.0604 -0.142324,0.13802 0,0.0129 0.0043,0.0345 0.01294,0.0517 z m 0,0"
       id="path4547"
       inkscape:connector-curvature="0" />
    <path
       inkscape:connector-curvature="0"
       id="path36617"
       d="m 83.916227,156.82886 c 0,-0.43021 -0.352575,-0.78279 -0.782788,-0.78279 h -6.009984 c -0.43021,0 -0.782785,0.35258 -0.782785,0.78279 v 9.5239 c 0,0.43021 0.352575,0.78279 0.782785,0.78279 h 6.009984 c 0.430213,0 0.782788,-0.35258 0.782788,-0.78279 z m 0,0"
       style="fill:#000000;fill-opacity:1;fill-rule:nonzero;stroke:none;stroke-width:0.27602378" />
    <path
       style="fill:#e6e6e6;fill-opacity:1;stroke:none;stroke-width:0.27602378"
       d="m 78.98931,158.33242 c 0,0.0776 0.06038,0.13802 0.138011,0.13802 0.07763,0 0.138012,-0.0604 0.138012,-0.13802 v -0.87119 h 0.263085 c 0.07332,0 0.129386,-0.0561 0.129386,-0.12939 0,-0.069 -0.05607,-0.12508 -0.129386,-0.12508 h -0.806507 c -0.06901,0 -0.125073,0.0561 -0.125073,0.12508 0,0.0733 0.05607,0.12939 0.125073,0.12939 h 0.267399 z m 0,0"
       id="path4543"
       inkscape:connector-curvature="0" />
    <path
       style="fill:#e6e6e6;fill-opacity:1;stroke:none;stroke-width:0.27602378"
       d="m 79.899913,158.33242 c 0,0.0776 0.06038,0.13802 0.138012,0.13802 0.07763,0 0.138012,-0.0604 0.138012,-0.13802 v -0.27171 h 0.219956 l 0.271711,0.34072 c 0.03019,0.0388 0.07332,0.069 0.133699,0.069 0.06901,0 0.133699,-0.0474 0.133699,-0.12507 0,-0.0431 -0.02156,-0.0733 -0.04744,-0.10782 l -0.189768,-0.23291 c 0.150951,-0.0604 0.250147,-0.18545 0.250147,-0.37953 v -0.004 c 0,-0.12076 -0.03882,-0.21564 -0.107822,-0.28896 -0.08194,-0.0819 -0.207018,-0.12507 -0.366594,-0.12507 h -0.4356 c -0.07763,0 -0.138012,0.0604 -0.138012,0.13801 z m 0.276024,-0.51754 v -0.35797 h 0.276024 c 0.133699,0 0.215643,0.0604 0.215643,0.17683 v 0.004 c 0,0.10782 -0.07763,0.17683 -0.211331,0.17683 z m 0,0"
       id="path4539"
       inkscape:connector-curvature="0" />
    <path
       style="fill:#e6e6e6;fill-opacity:1;stroke:none;stroke-width:0.27602378"
       d="m 81.273358,158.33242 c 0,0.0776 0.06038,0.13802 0.138012,0.13802 0.07763,0 0.138012,-0.0604 0.138012,-0.13802 v -1.00058 c 0,-0.0776 -0.06038,-0.13801 -0.138012,-0.13801 -0.07763,0 -0.138012,0.0604 -0.138012,0.13801 z m 0,0"
       id="path4535"
       inkscape:connector-curvature="0" />
    <path
       inkscape:connector-curvature="0"
       id="path36629"
       d="m 74.839789,156.82886 c 0,-0.43021 -0.351499,-0.78279 -0.782786,-0.78279 h -6.009987 c -0.430209,0 -0.782786,0.35258 -0.782786,0.78279 v 9.5239 c 0,0.43021 0.352577,0.78279 0.782786,0.78279 h 6.009987 c 0.431287,0 0.782786,-0.35258 0.782786,-0.78279 z m 0,0"
       style="fill:#000000;fill-opacity:1;fill-rule:nonzero;stroke:none;stroke-width:0.27602378" />
    <path
       style="fill:#e6e6e6;fill-opacity:1;stroke:none;stroke-width:0.27602378"
       d="m 70.008298,158.47906 c 0.267398,0 0.457164,-0.13801 0.457164,-0.38816 v -0.004 c 0,-0.21995 -0.142325,-0.31052 -0.396784,-0.37522 -0.215644,-0.0561 -0.271711,-0.0819 -0.271711,-0.1682 0,-0.0647 0.05607,-0.11213 0.163889,-0.11213 0.08626,0 0.172515,0.0302 0.263085,0.0863 0.02156,0.0129 0.04313,0.0172 0.06901,0.0172 0.07332,0 0.129386,-0.0561 0.129386,-0.12508 0,-0.0561 -0.03019,-0.0906 -0.06038,-0.11213 -0.112134,-0.069 -0.245833,-0.10782 -0.396783,-0.10782 -0.258773,0 -0.439913,0.15095 -0.439913,0.37522 v 0.004 c 0,0.25014 0.159576,0.31915 0.414035,0.38384 0.211331,0.0561 0.25446,0.0906 0.25446,0.15958 v 0.004 c 0,0.0733 -0.06901,0.12076 -0.181141,0.12076 -0.125073,0 -0.228582,-0.0431 -0.323465,-0.11645 -0.01725,-0.0129 -0.04313,-0.0216 -0.07763,-0.0216 -0.07332,0 -0.129387,0.0517 -0.129387,0.12507 0,0.0431 0.02156,0.0819 0.05175,0.10351 0.142325,0.10351 0.306214,0.15095 0.474416,0.15095 z m 0,0"
       id="path4531"
       inkscape:connector-curvature="0" />
    <path
       style="fill:#e6e6e6;fill-opacity:1;stroke:none;stroke-width:0.27602378"
       d="m 70.779266,158.33242 c 0,0.0776 0.06038,0.13802 0.138012,0.13802 0.07763,0 0.138011,-0.0604 0.138011,-0.13802 v -1.00058 c 0,-0.0776 -0.06038,-0.13801 -0.138011,-0.13801 -0.07763,0 -0.138012,0.0604 -0.138012,0.13801 z m 0,0"
       id="path4527"
       inkscape:connector-curvature="0" />
    <path
       style="fill:#e6e6e6;fill-opacity:1;stroke:none;stroke-width:0.27602378"
       d="m 71.42837,158.33674 c 0,0.0733 0.06038,0.1337 0.138011,0.1337 0.07332,0 0.133699,-0.0604 0.133699,-0.1337 v -0.67281 l 0.552048,0.72456 c 0.03882,0.0474 0.07763,0.0819 0.146638,0.0819 h 0.0086 c 0.07763,0 0.138011,-0.0604 0.138011,-0.13801 v -1.00059 c 0,-0.0776 -0.06038,-0.13801 -0.138011,-0.13801 -0.07332,0 -0.138012,0.0604 -0.138012,0.13801 v 0.64693 l -0.530488,-0.69868 c -0.03882,-0.0474 -0.07763,-0.0819 -0.142325,-0.0819 h -0.03019 c -0.07763,0 -0.138012,0.0604 -0.138012,0.13801 z m 0,0"
       id="path4523"
       inkscape:connector-curvature="0" />
    <path
       style="fill:#000000;fill-opacity:1;stroke:none;stroke-width:0.27602378"
       d="m 95.695499,93.778432 c 0,0.06038 0.05175,0.107822 0.112136,0.107822 0.06038,0 0.112133,-0.04744 0.112133,-0.107822 v -0.431287 h 0.59949 v 0.431287 c 0,0.06038 0.04744,0.107822 0.107823,0.107822 0.06038,0 0.112133,-0.04744 0.112133,-0.107822 v -1.056654 c 0,-0.06038 -0.05175,-0.107821 -0.112133,-0.107821 -0.06038,0 -0.107823,0.04744 -0.107823,0.107821 v 0.422662 h -0.59949 v -0.422662 c 0,-0.06038 -0.05175,-0.107821 -0.112133,-0.107821 -0.06038,0 -0.112136,0.04744 -0.112136,0.107821 z m 0,0"
       id="path4519"
       inkscape:connector-curvature="0" />
    <path
       style="fill:#000000;fill-opacity:1;stroke:none;stroke-width:0.27602378"
       d="m 97.008682,93.782745 c 0,0.06038 0.04744,0.103509 0.10351,0.103509 0.04744,0 0.08626,-0.02588 0.103507,-0.06901 l 0.103508,-0.241521 h 0.612428 l 0.103511,0.232895 c 0.01725,0.04744 0.05175,0.07763 0.10782,0.07763 0.05607,0 0.10351,-0.04744 0.10351,-0.103509 0,-0.01725 -0.0043,-0.0345 -0.01294,-0.04744 l -0.465791,-1.043715 c -0.02588,-0.05175 -0.06901,-0.08626 -0.133699,-0.08626 h -0.0086 c -0.06469,0 -0.107823,0.0345 -0.1337,0.08626 l -0.465791,1.043715 c -0.0086,0.01725 -0.01725,0.0345 -0.01725,0.04744 z m 0.396785,-0.40541 0.219956,-0.504606 0.219956,0.504606 z m 0,0"
       id="path4515"
       inkscape:connector-curvature="0" />
    <path
       style="fill:#000000;fill-opacity:1;stroke:none;stroke-width:0.27602378"
       d="m 98.517701,93.778432 c 0,0.06038 0.05175,0.107822 0.112136,0.107822 0.06038,0 0.112133,-0.04744 0.112133,-0.107822 v -0.340717 h 0.276023 l 0.306216,0.392471 c 0.02588,0.0345 0.05607,0.05607 0.10782,0.05607 0.05176,0 0.103511,-0.03882 0.103511,-0.103509 0,-0.0345 -0.01294,-0.05607 -0.03451,-0.08194 l -0.241519,-0.301901 c 0.168201,-0.05607 0.284649,-0.176828 0.284649,-0.37522 v -0.0043 c 0,-0.112135 -0.0345,-0.202705 -0.10351,-0.271711 -0.07763,-0.07763 -0.202703,-0.125074 -0.362281,-0.125074 h -0.448537 c -0.06038,0 -0.112136,0.04744 -0.112136,0.112135 z m 0.224269,-0.534796 v -0.422662 h 0.319153 c 0.163888,0 0.258773,0.07332 0.258773,0.211331 0,0.129386 -0.0992,0.211331 -0.258773,0.211331 z m 0,0"
       id="path4511"
       inkscape:connector-curvature="0" />
    <path
       style="fill:#000000;fill-opacity:1;stroke:none;stroke-width:0.27602378"
       d="m 99.878209,93.765493 c 0,0.06469 0.05176,0.112135 0.112136,0.112135 h 0.357965 c 0.39679,0 0.6685,-0.276024 0.6685,-0.629679 0,-0.353656 -0.27171,-0.625367 -0.6685,-0.625367 h -0.357965 c -0.06038,0 -0.112136,0.04744 -0.112136,0.112135 z m 0.224271,-0.09057 v -0.853949 h 0.24583 c 0.26309,0 0.4356,0.181141 0.4356,0.426975 v 0.0043 c 0,0.245834 -0.17251,0.422662 -0.4356,0.422662 z m 0,0"
       id="path4507"
       inkscape:connector-curvature="0" />
    <path
       style="fill:#000000;fill-opacity:1;stroke:none;stroke-width:0.27602378"
       d="m 96.332769,103.78784 c 0.267396,0 0.448538,-0.13801 0.448538,-0.37522 v -0.004 c 0,-0.20701 -0.1337,-0.3019 -0.401098,-0.36659 -0.24152,-0.0561 -0.297588,-0.0992 -0.297588,-0.19839 0,-0.0863 0.07332,-0.15095 0.202706,-0.15095 0.09919,0 0.194079,0.0302 0.288962,0.0949 0.01725,0.0129 0.0345,0.0172 0.05607,0.0172 0.06038,0 0.107821,-0.0474 0.107821,-0.10351 0,-0.0431 -0.02588,-0.0733 -0.05175,-0.0863 -0.112135,-0.0776 -0.237209,-0.11645 -0.396785,-0.11645 -0.250147,0 -0.426974,0.14664 -0.426974,0.36229 v 0.004 c 0,0.23289 0.146638,0.31052 0.414036,0.37521 0.237207,0.0517 0.284649,0.10351 0.284649,0.18977 v 0.004 c 0,0.0949 -0.08626,0.15958 -0.219956,0.15958 -0.138012,0 -0.250147,-0.0474 -0.353655,-0.12939 -0.01294,-0.0129 -0.0345,-0.0216 -0.06469,-0.0216 -0.05607,0 -0.10351,0.0474 -0.10351,0.10351 0,0.0345 0.01725,0.0647 0.04313,0.0863 0.138012,0.10351 0.3019,0.15527 0.470104,0.15527 z m 0,0"
       id="path4503"
       inkscape:connector-curvature="0" />
    <path
       style="fill:#000000;fill-opacity:1;stroke:none;stroke-width:0.27602378"
       d="m 97.681869,103.79215 c 0.388157,0 0.659868,-0.29758 0.659868,-0.65124 0,-0.35365 -0.267398,-0.64693 -0.655555,-0.64693 -0.383847,0 -0.655556,0.29328 -0.655556,0.64693 v 0.004 c 0,0.35366 0.267396,0.64693 0.651243,0.64693 z m 0.0043,-0.2027 c -0.250148,0 -0.426974,-0.2027 -0.426974,-0.44854 0,-0.24583 0.176826,-0.44422 0.422661,-0.44422 0.250145,0 0.426974,0.2027 0.426974,0.44422 v 0.004 c 0,0.24584 -0.172514,0.44423 -0.422661,0.44423 z m 0,0"
       id="path4499"
       inkscape:connector-curvature="0" />
    <path
       style="fill:#000000;fill-opacity:1;stroke:none;stroke-width:0.27602378"
       d="m 98.663925,103.6714 c 0,0.0604 0.05176,0.10782 0.112136,0.10782 0.06038,0 0.112133,-0.0474 0.112133,-0.10782 v -0.41404 h 0.53911 c 0.05607,0 0.10351,-0.0431 0.10351,-0.0992 0,-0.0561 -0.04744,-0.0992 -0.10351,-0.0992 h -0.53911 v -0.34503 h 0.621054 c 0.05607,0 0.0992,-0.0431 0.0992,-0.0992 0,-0.0561 -0.04313,-0.0992 -0.0992,-0.0992 h -0.733187 c -0.06038,0 -0.112136,0.0474 -0.112136,0.11214 z m 0,0"
       id="path4495"
       inkscape:connector-curvature="0" />
    <path
       style="fill:#000000;fill-opacity:1;stroke:none;stroke-width:0.27602378"
       d="m 100.23431,103.6714 c 0,0.0604 0.0518,0.10782 0.11213,0.10782 0.0604,0 0.11214,-0.0474 0.11214,-0.10782 v -0.95315 h 0.30621 c 0.0561,0 0.0992,-0.0474 0.0992,-0.0992 0,-0.0561 -0.0431,-0.10351 -0.0992,-0.10351 h -0.836696 c -0.05606,0 -0.0992,0.0474 -0.0992,0.10351 0,0.0517 0.04313,0.0992 0.0992,0.0992 h 0.306216 z m 0,0"
       id="path4491"
       inkscape:connector-curvature="0" />
    <path
       style="fill:#000000;fill-opacity:1;stroke:none;stroke-width:0.27602378"
       d="m 67.987595,93.7836 c 0,0.06038 0.04744,0.103508 0.103509,0.103508 0.04744,0 0.08626,-0.02588 0.103509,-0.069 l 0.103509,-0.241521 h 0.612428 l 0.103509,0.232895 c 0.01725,0.04744 0.05175,0.07763 0.107822,0.07763 0.05607,0 0.103509,-0.04744 0.103509,-0.103508 0,-0.01725 -0.0043,-0.0345 -0.01294,-0.04744 l -0.465791,-1.043721 c -0.02588,-0.05175 -0.06901,-0.08626 -0.133699,-0.08626 h -0.0086 c -0.06469,0 -0.107822,0.0345 -0.133699,0.08626 l -0.46579,1.043715 c -0.0086,0.01725 -0.01725,0.0345 -0.01725,0.04744 z m 0.396784,-0.40541 0.219957,-0.504606 0.219956,0.504606 z m 0,0"
       id="path4487"
       inkscape:connector-curvature="0" />
    <path
       style="fill:#000000;fill-opacity:1;stroke:none;stroke-width:0.27602378"
       d="m 69.497336,93.779287 c 0,0.06038 0.05175,0.107821 0.112135,0.107821 0.06038,0 0.107822,-0.04744 0.107822,-0.107821 v -0.797881 l 0.64693,0.836697 c 0.03019,0.03881 0.06038,0.069 0.112135,0.069 h 0.0086 c 0.06038,0 0.107822,-0.05175 0.107822,-0.112134 v -1.052341 c 0,-0.06038 -0.04744,-0.107822 -0.107822,-0.107822 -0.06038,0 -0.107822,0.04744 -0.107822,0.107822 v 0.772004 l -0.629683,-0.815128 c -0.03019,-0.03881 -0.06038,-0.06469 -0.112135,-0.06469 h -0.02588 c -0.06038,0 -0.112135,0.05175 -0.112135,0.112135 z m 0,0"
       id="path4483"
       inkscape:connector-curvature="0" />
    <path
       style="fill:#000000;fill-opacity:1;stroke:none;stroke-width:0.27602378"
       d="m 70.980204,93.766348 c 0,0.06469 0.05175,0.112135 0.112135,0.112135 h 0.67712 c 0.05607,0 0.103509,-0.04313 0.103509,-0.0992 0,-0.05607 -0.04744,-0.103509 -0.103509,-0.103509 h -0.564986 v -0.953145 c 0,-0.06038 -0.05175,-0.107822 -0.112134,-0.107822 -0.06038,0 -0.112135,0.04744 -0.112135,0.107822 z m 0,0"
       id="path4479"
       inkscape:connector-curvature="0" />
    <path
       style="fill:#000000;fill-opacity:1;stroke:none;stroke-width:0.27602378"
       d="m 72.682202,93.900047 c 0.185454,0 0.336404,-0.06469 0.444226,-0.138012 0.05175,-0.03019 0.07763,-0.07763 0.07763,-0.138012 v -0.336404 c 0,-0.06038 -0.04744,-0.112134 -0.112135,-0.112134 H 72.74258 c -0.05175,0 -0.0992,0.04313 -0.0992,0.0992 0,0.05175 0.04744,0.09488 0.0992,0.09488 h 0.250147 v 0.232895 c -0.07763,0.06038 -0.185453,0.09488 -0.306214,0.09488 -0.254459,0 -0.426974,-0.189766 -0.426974,-0.448538 0,-0.241521 0.176827,-0.444226 0.409723,-0.444226 0.133699,0 0.224269,0.03882 0.301901,0.0992 0.02156,0.01294 0.04313,0.02588 0.06901,0.02588 0.06038,0 0.112134,-0.05175 0.112134,-0.112134 0,-0.04313 -0.02588,-0.07332 -0.04744,-0.09057 -0.112134,-0.08194 -0.24152,-0.125073 -0.426974,-0.125073 -0.379533,0 -0.646931,0.297588 -0.646931,0.646931 v 0.0043 c 0,0.366594 0.25446,0.646931 0.651244,0.646931 z m 0,0"
       id="path4475"
       inkscape:connector-curvature="0" />
    <path
       style="fill:#000000;fill-opacity:1;stroke:none;stroke-width:0.27602378"
       d="m 68.730515,103.65932 c 0,0.0647 0.05175,0.11213 0.112134,0.11213 h 0.357969 c 0.396784,0 0.668495,-0.27602 0.668495,-0.62968 0,-0.35365 -0.271711,-0.62536 -0.668495,-0.62536 h -0.357969 c -0.06038,0 -0.112134,0.0474 -0.112134,0.11213 z m 0.224269,-0.0906 v -0.85395 h 0.245834 c 0.263085,0 0.4356,0.18114 0.4356,0.42697 v 0.004 c 0,0.24584 -0.172515,0.42266 -0.4356,0.42266 z m 0,0"
       id="path4471"
       inkscape:connector-curvature="0" />
    <path
       style="fill:#000000;fill-opacity:1;stroke:none;stroke-width:0.27602378"
       d="m 70.19313,103.67226 c 0,0.0604 0.05175,0.10782 0.112135,0.10782 0.06038,0 0.112134,-0.0474 0.112134,-0.10782 v -1.05666 c 0,-0.0604 -0.05175,-0.10782 -0.112134,-0.10782 -0.06038,0 -0.112135,0.0474 -0.112135,0.10782 z m 0,0"
       id="path4467"
       inkscape:connector-curvature="0" />
    <path
       style="fill:#000000;fill-opacity:1;stroke:none;stroke-width:0.27602378"
       d="m 71.395076,103.79301 c 0.185453,0 0.336404,-0.0647 0.444225,-0.13801 0.05175,-0.0302 0.07763,-0.0776 0.07763,-0.13801 v -0.3364 c 0,-0.0604 -0.04744,-0.11214 -0.112134,-0.11214 h -0.349343 c -0.05175,0 -0.0992,0.0431 -0.0992,0.0992 0,0.0517 0.04744,0.0949 0.0992,0.0949 H 71.7056 v 0.2329 c -0.07763,0.0604 -0.185453,0.0949 -0.306214,0.0949 -0.254459,0 -0.426974,-0.18977 -0.426974,-0.44854 0,-0.24152 0.176828,-0.44422 0.409723,-0.44422 0.133699,0 0.224269,0.0388 0.301901,0.0992 0.02156,0.0129 0.04313,0.0259 0.06901,0.0259 0.06038,0 0.112135,-0.0517 0.112135,-0.11214 0,-0.0431 -0.02588,-0.0733 -0.04744,-0.0906 -0.112135,-0.0819 -0.241521,-0.12507 -0.426975,-0.12507 -0.379532,0 -0.64693,0.29759 -0.64693,0.64693 v 0.004 c 0,0.36659 0.254459,0.64693 0.651243,0.64693 z m 0,0"
       id="path4463"
       inkscape:connector-curvature="0" />
    <path
       style="fill:#000000;fill-opacity:1;stroke:none;stroke-width:0.27602378"
       d="m 72.274169,103.67226 c 0,0.0604 0.05175,0.10782 0.112134,0.10782 0.06038,0 0.112135,-0.0474 0.112135,-0.10782 v -1.05666 c 0,-0.0604 -0.05175,-0.10782 -0.112135,-0.10782 -0.06038,0 -0.112134,0.0474 -0.112134,0.10782 z m 0,0"
       id="path4459"
       inkscape:connector-curvature="0" />
  </g>
</svg>
