<?xml version="1.0" encoding="UTF-8" standalone="no"?>
<!DOCTYPE svg PUBLIC "-//W3C//DTD SVG 1.1//EN" "http://www.w3.org/Graphics/SVG/1.1/DTD/svg11.dtd">
<svg width="24px" height="18px" version="1.1" xmlns="http://www.w3.org/2000/svg" xmlns:xlink="http://www.w3.org/1999/xlink" xml:space="preserve" xmlns:serif="http://www.serif.com/" style="fill-rule:evenodd;clip-rule:evenodd;stroke-linejoin:round;stroke-miterlimit:1.41421;">
    <g transform="matrix(-0.0842525,1.76353e-17,-5.24381e-18,-0.0898693,106.084,62.5997)">
        <g id="g56702">
            <g id="Toggle--on-" serif:id="Toggle (on)">
                <g transform="matrix(2.56,2.0844e-16,1.64135e-16,2.4,-2741.76,-4734.58)">
                    <path d="M1555.21,2220.19c0,-17.11 -13.891,-31 -31,-31l-40,0c-17.11,0 -31,13.89 -31,31c0,17.109 13.89,31 31,31l40,0c17.109,0 31,-13.891 31,-31Z" style="fill-opacity:0.811765;"/>
                </g>
                <g transform="matrix(2.56,2.0844e-16,1.64135e-16,2.4,-2734.08,-4729)">
                    <path d="M1555.21,2220.19c0,-17.11 -13.891,-31 -31,-31l-40,0c-17.11,0 -31,13.89 -31,31c0,17.109 13.89,31 31,31l40,0c17.109,0 31,-13.891 31,-31Z" style="fill:#4c4c4c;stroke:#343434;stroke-width:1.85px;"/>
                </g>
                <g transform="matrix(2.56,2.0844e-16,1.64135e-16,2.4,513.74,515.454)">
                    <circle cx="211.4" cy="33.2" r="28" style="stroke:#000;stroke-opacity:0.556863;stroke-width:2.09px;stroke-linejoin:miter;stroke-miterlimit:10;"/>
                </g>
                <g transform="matrix(2.56,2.0844e-16,1.64135e-16,2.4,519.88,519.774)">
                    <circle cx="211.4" cy="33.2" r="28" style="fill:#fff;stroke:#aeaeae;stroke-width:2.09px;stroke-linejoin:miter;stroke-miterlimit:10;"/>
                </g>
            </g>
        </g>
    </g>
</svg>
