<?xml version="1.0" encoding="utf-8"?>
<!-- Generator: Adobe Illustrator 16.0.0, SVG Export Plug-In . SVG Version: 6.00 Build 0)  -->
<!DOCTYPE svg PUBLIC "-//W3C//DTD SVG 1.1//EN" "http://www.w3.org/Graphics/SVG/1.1/DTD/svg11.dtd">
<svg version="1.1"
	 id="svg12553" xmlns:osb="http://www.openswatchbook.org/uri/2009/osb" xmlns:dc="http://purl.org/dc/elements/1.1/" xmlns:cc="http://creativecommons.org/ns#" xmlns:rdf="http://www.w3.org/1999/02/22-rdf-syntax-ns#" xmlns:svg="http://www.w3.org/2000/svg"
	 xmlns="http://www.w3.org/2000/svg" xmlns:xlink="http://www.w3.org/1999/xlink" x="0px" y="0px" width="28px" height="380px"
	 viewBox="0 0 28 380" enable-background="new 0 0 28 380" xml:space="preserve">
<rect fill="#E6E6E6" width="30.001" height="380"/>
<g id="g13122" transform="matrix(0.27602379,0,0,0.27602379,354.09618,57.736346)">
	<g id="g13178" transform="translate(-167.07644,-20.557569)">
		<g id="g13224" transform="translate(-99.2314,6.0949065)">
			<g id="path30351">
			</g>
		</g>
	</g>
</g>
<g id="text4860">
</g>
<g id="flowRoot1009">
</g>
<circle fill="#FFFFFF" stroke="#000000" stroke-width="10" stroke-miterlimit="10" cx="15.458" cy="333.601" r="9.396"/>
<g>
	<path stroke="#000000" stroke-width="0.25" stroke-miterlimit="10" d="M15.522,367.67c-0.379,0.168-1.083,0.309-1.896,0.309
		c-2.213,0-3.628-1.346-3.628-3.502c0-2.004,1.373-3.643,3.922-3.643c0.561,0,1.18,0.1,1.625,0.268l-0.336,1.582
		c-0.252-0.104-0.641-0.211-1.19-0.211c-1.121,0-1.849,0.799-1.835,1.92c0,1.26,0.84,1.92,1.877,1.92c0.5,0,0.896-0.086,1.212-0.211
		L15.522,367.67z"/>
	<path stroke="#000000" stroke-width="0.25" stroke-miterlimit="10" d="M17.438,362.066h1.273l0.042-0.448
		c0.11-0.938,0.63-3.039,3.039-3.039c0.478,0,0.911,0.098,1.163,0.224l-0.336,1.514c-0.169-0.062-0.395-0.127-0.659-0.127
		c-0.7,0-1.036,0.506-1.12,1.271l-0.084,0.605h1.43v1.479h-1.604l-0.312,2.493c-0.211,1.709-0.785,3.062-2.771,3.062
		c-0.575-0.015-1.063-0.125-1.274-0.229l0.295-1.479c0.209,0.084,0.438,0.104,0.657,0.104c0.7-0.021,0.938-0.396,1.14-1.98
		l0.229-1.97h-1.104v-1.479H17.438L17.438,362.066L17.438,362.066z"/>
</g>
<g>
	<path stroke="#000000" stroke-miterlimit="10" d="M14.654,64.375l-0.699,2.119h-0.899l2.29-6.736h1.051l2.297,6.736h-0.93
		l-0.721-2.119H14.654z M16.863,63.695l-0.658-1.939c-0.15-0.44-0.25-0.84-0.352-1.229h-0.021c-0.102,0.4-0.21,0.81-0.34,1.219
		l-0.659,1.949H16.863z"/>
</g>
<g>
	<path stroke="#000000" stroke-miterlimit="10" d="M13.75,122.597c0.38-0.08,0.98-0.14,1.59-0.14c0.87,0,1.43,0.15,1.85,0.49
		c0.354,0.26,0.562,0.66,0.562,1.189c0,0.65-0.434,1.22-1.143,1.479v0.02c0.643,0.16,1.393,0.689,1.393,1.689
		c0,0.58-0.229,1.02-0.568,1.349c-0.471,0.43-1.229,0.63-2.328,0.63c-0.604,0-1.062-0.04-1.353-0.08L13.75,122.597L13.75,122.597z
		 M14.619,125.354h0.79c0.92,0,1.459-0.48,1.459-1.129c0-0.79-0.601-1.1-1.479-1.1c-0.396,0-0.631,0.03-0.771,0.06L14.619,125.354
		L14.619,125.354z M14.619,128.583c0.17,0.03,0.421,0.04,0.729,0.04c0.9,0,1.73-0.33,1.73-1.309c0-0.92-0.791-1.299-1.74-1.299
		h-0.721L14.619,128.583L14.619,128.583z"/>
</g>
<g>
	<path stroke="#000000" d="M6.677,24.095L6.101,26.17H4.207l2.47-8.083h2.399l2.506,8.083H9.615l-0.624-2.075H6.677z M8.728,22.728
		l-0.504-1.715c-0.144-0.479-0.288-1.079-0.408-1.559H7.793c-0.12,0.48-0.24,1.091-0.372,1.559l-0.479,1.715H8.728z"/>
	<path stroke="#000000" d="M12.666,18.086h1.835v6.548h3.215v1.535h-5.05V18.086z"/>
	<path stroke="#000000" d="M25.095,25.798c-0.564,0.192-1.632,0.456-2.699,0.456c-1.475,0-2.542-0.372-3.286-1.091
		c-0.743-0.696-1.151-1.751-1.139-2.938c0.012-2.687,1.967-4.222,4.617-4.222c1.043,0,1.847,0.204,2.242,0.396l-0.384,1.463
		c-0.443-0.192-0.995-0.348-1.883-0.348c-1.522,0-2.674,0.863-2.674,2.614c0,1.667,1.043,2.651,2.542,2.651
		c0.42,0,0.756-0.048,0.899-0.12v-1.691h-1.247v-1.427h3.011V25.798z"/>
</g>
</svg>
