<?xml version="1.0" encoding="UTF-8" standalone="no"?>
<!-- Created with Inkscape (http://www.inkscape.org/) -->

<svg
   xmlns:dc="http://purl.org/dc/elements/1.1/"
   xmlns:cc="http://creativecommons.org/ns#"
   xmlns:rdf="http://www.w3.org/1999/02/22-rdf-syntax-ns#"
   xmlns:svg="http://www.w3.org/2000/svg"
   xmlns="http://www.w3.org/2000/svg"
   xmlns:sodipodi="http://sodipodi.sourceforge.net/DTD/sodipodi-0.dtd"
   xmlns:inkscape="http://www.inkscape.org/namespaces/inkscape"
   width="90"
   height="380"
   viewBox="0 0 23.812501 100.54167"
   version="1.1"
   id="svg8"
   inkscape:version="0.91 r13725"
   sodipodi:docname="Osc.svg">
  <defs
     id="defs2" />
  <sodipodi:namedview
     id="base"
     pagecolor="#ffffff"
     bordercolor="#666666"
     borderopacity="1.0"
     inkscape:pageopacity="0.0"
     inkscape:pageshadow="2"
     inkscape:zoom="1.7210526"
     inkscape:cx="-74.204898"
     inkscape:cy="201.8055"
     inkscape:document-units="mm"
     inkscape:current-layer="layer1"
     showgrid="false"
     units="px"
     inkscape:snap-bbox="true"
     inkscape:snap-page="true"
     inkscape:bbox-nodes="true"
     inkscape:snap-bbox-edge-midpoints="true"
     inkscape:window-width="1440"
     inkscape:window-height="856"
     inkscape:window-x="0"
     inkscape:window-y="0"
     inkscape:window-maximized="0"
     showguides="true"
     inkscape:guide-bbox="true">
    <sodipodi:guide
       position="20.305733,92.507965"
       orientation="0,1"
       id="guide4164" />
    <sodipodi:guide
       position="48.118568,85.783261"
       orientation="0,1"
       id="guide4166" />
    <sodipodi:guide
       position="11.71875,61.032177"
       orientation="1,0"
       id="guide4200"
       inkscape:label=""
       inkscape:color="rgb(0,0,255)" />
    <sodipodi:guide
       position="23.812501,55.497773"
       orientation="0,1"
       id="guide4170" />
  </sodipodi:namedview>
  <metadata
     id="metadata5">
    <rdf:RDF>
      <cc:Work
         rdf:about="">
        <dc:format>image/svg+xml</dc:format>
        <dc:type
           rdf:resource="http://purl.org/dc/dcmitype/StillImage" />
        <dc:title />
      </cc:Work>
    </rdf:RDF>
  </metadata>
  <g
     inkscape:label="Layer 1"
     inkscape:groupmode="layer"
     id="layer1"
     transform="translate(0,-196.45832)">
    <path
       style="opacity:1;vector-effect:none;fill:#313131;fill-opacity:1;fill-rule:evenodd;stroke:none;stroke-width:0.48607069;stroke-linecap:butt;stroke-linejoin:round;stroke-miterlimit:4;stroke-dasharray:none;stroke-dashoffset:0;stroke-opacity:1;paint-order:normal"
       d="M 0,196.45831 H 23.8125 V 296.99999 H 0 Z"
       id="rect817"
       inkscape:connector-curvature="0" />
    <g
       transform="scale(0.69757272,1.4335423)"
       style="font-style:normal;font-weight:normal;font-size:3.32560539px;line-height:125%;font-family:Sans;letter-spacing:0px;word-spacing:0px;fill:#ffffff;fill-opacity:1;stroke:none;stroke-width:1px;stroke-linecap:butt;stroke-linejoin:miter;stroke-opacity:1"
       id="text5632">
      <path
         d="m 7.626915,202.70985 0,1.09771 -0.2987849,0 0,-1.08797 q 0,-0.25819 -0.1006775,-0.38647 -0.1006775,-0.12828 -0.3020325,-0.12828 -0.2419508,0 -0.3816002,0.15426 -0.1396495,0.15426 -0.1396495,0.42057 l 0,1.02789 -0.3004087,0 0,-1.81869 0.3004087,0 0,0.28254 q 0.1071728,-0.164 0.2516938,-0.2452 0.1461447,-0.0812 0.3361329,-0.0812 0.3133994,0 0.4741586,0.19486 0.1607593,0.19324 0.1607593,0.56997 z"
         style=""
         id="path4177" />
      <path
         d="m 9.0526384,202.89334 q -0.3621142,0 -0.5017637,0.0828 -0.1396494,0.0828 -0.1396494,0.28255 0,0.15914 0.1039251,0.25332 0.105549,0.0926 0.2857943,0.0926 0.2484461,0 0.3978385,-0.17538 0.1510163,-0.17699 0.1510163,-0.46928 l 0,-0.0666 -0.2971611,0 z m 0.5959459,-0.12341 0,1.03763 -0.2987848,0 0,-0.27606 q -0.1023014,0.16564 -0.2549415,0.2452 -0.1526401,0.0779 -0.373481,0.0779 -0.2792989,0 -0.4449297,-0.15589 -0.1640069,-0.15751 -0.1640069,-0.42057 0,-0.30691 0.2046027,-0.46279 0.2062265,-0.15589 0.613808,-0.15589 l 0.4189484,0 0,-0.0292 q 0,-0.20623 -0.1364018,-0.31827 -0.134778,-0.11367 -0.3799764,-0.11367 -0.1558878,0 -0.3036564,0.0374 -0.1477686,0.0374 -0.2841704,0.11204 l 0,-0.27605 q 0.1640069,-0.0633 0.3182709,-0.0942 0.1542639,-0.0325 0.3004087,-0.0325 0.3945908,0 0.5894505,0.2046 0.1948597,0.20461 0.1948597,0.62031 z"
         style=""
         id="path4179" />
      <path
         d="m 10.241282,203.08982 0,-1.10095 0.298785,0 0,1.08959 q 0,0.25819 0.100678,0.38809 0.100677,0.12828 0.302032,0.12828 0.241951,0 0.381601,-0.15426 0.141273,-0.15426 0.141273,-0.42057 l 0,-1.03113 0.298785,0 0,1.81869 -0.298785,0 0,-0.2793 q -0.108797,0.16563 -0.253318,0.24682 -0.142897,0.0796 -0.332885,0.0796 -0.313399,0 -0.475782,-0.19486 -0.162384,-0.19486 -0.162384,-0.56997 z"
         style=""
         id="path4181" />
      <path
         d="m 12.425335,203.3951 0.342628,0 0,0.41246 -0.342628,0 0,-0.41246 z"
         style=""
         id="path4183" />
      <path
         d="m 14.857833,202.33799 q 0.112045,-0.20136 0.267933,-0.29716 0.155887,-0.0958 0.366985,-0.0958 0.284171,0 0.438435,0.19973 0.154264,0.19811 0.154264,0.5651 l 0,1.09771 -0.300409,0 0,-1.08797 q 0,-0.26144 -0.09256,-0.3881 -0.09256,-0.12665 -0.282546,-0.12665 -0.232208,0 -0.366986,0.15426 -0.134778,0.15426 -0.134778,0.42057 l 0,1.02789 -0.300408,0 0,-1.08797 q 0,-0.26306 -0.09256,-0.3881 -0.09256,-0.12665 -0.285794,-0.12665 -0.22896,0 -0.363738,0.15588 -0.134778,0.15427 -0.134778,0.41895 l 0,1.02789 -0.300409,0 0,-1.81869 0.300409,0 0,0.28254 q 0.102301,-0.16725 0.245198,-0.24682 0.142897,-0.0796 0.339381,-0.0796 0.198107,0 0.336133,0.10068 0.139649,0.10068 0.206226,0.29229 z"
         style=""
         id="path4185" />
      <path
         d="m 17.381267,202.19834 q -0.240327,0 -0.379977,0.18836 -0.139649,0.18674 -0.139649,0.51313 0,0.32639 0.138026,0.51476 0.139649,0.18674 0.3816,0.18674 0.238703,0 0.378352,-0.18836 0.13965,-0.18837 0.13965,-0.51314 0,-0.32314 -0.13965,-0.5115 -0.139649,-0.18999 -0.378352,-0.18999 z m 0,-0.25332 q 0.389719,0 0.612184,0.25332 0.222465,0.25332 0.222465,0.70149 0,0.44656 -0.222465,0.7015 -0.222465,0.25332 -0.612184,0.25332 -0.391343,0 -0.613808,-0.25332 -0.220841,-0.25494 -0.220841,-0.7015 0,-0.44817 0.220841,-0.70149 0.222465,-0.25332 0.613808,-0.25332 z"
         style=""
         id="path4187" />
      <path
         d="m 19.906323,202.26492 0,-0.98404 0.298785,0 0,2.52668 -0.298785,0 0,-0.27281 q -0.09418,0.16239 -0.238703,0.24195 -0.142897,0.0779 -0.344253,0.0779 -0.329637,0 -0.537487,-0.26306 -0.206227,-0.26306 -0.206227,-0.69176 0,-0.42869 0.206227,-0.69175 0.20785,-0.26306 0.537487,-0.26306 0.201356,0 0.344253,0.0796 0.144521,0.0779 0.238703,0.24033 z m -1.018142,0.63491 q 0,0.32964 0.134778,0.51801 0.136402,0.18674 0.373481,0.18674 0.237079,0 0.373481,-0.18674 0.136402,-0.18837 0.136402,-0.51801 0,-0.32963 -0.136402,-0.51637 -0.136402,-0.18837 -0.373481,-0.18837 -0.237079,0 -0.373481,0.18837 -0.134778,0.18674 -0.134778,0.51637 z"
         style=""
         id="path4189" />
      <path
         d="m 20.789687,203.08982 0,-1.10095 0.298785,0 0,1.08959 q 0,0.25819 0.100677,0.38809 0.100678,0.12828 0.302033,0.12828 0.24195,0 0.3816,-0.15426 0.141273,-0.15426 0.141273,-0.42057 l 0,-1.03113 0.298785,0 0,1.81869 -0.298785,0 0,-0.2793 q -0.108797,0.16563 -0.253317,0.24682 -0.142898,0.0796 -0.332886,0.0796 -0.313399,0 -0.475782,-0.19486 -0.162383,-0.19486 -0.162383,-0.56997 z"
         style=""
         id="path4191" />
      <path
         d="m 22.93152,201.28088 0.298784,0 0,2.52668 -0.298784,0 0,-2.52668 z"
         style=""
         id="path4193" />
      <path
         d="m 24.680386,202.89334 q -0.362114,0 -0.501764,0.0828 -0.139649,0.0828 -0.139649,0.28255 0,0.15914 0.103925,0.25332 0.105549,0.0926 0.285794,0.0926 0.248446,0 0.397839,-0.17538 0.151016,-0.17699 0.151016,-0.46928 l 0,-0.0666 -0.297161,0 z m 0.595946,-0.12341 0,1.03763 -0.298785,0 0,-0.27606 q -0.102301,0.16564 -0.254941,0.2452 -0.152641,0.0779 -0.373482,0.0779 -0.279298,0 -0.444929,-0.15589 -0.164007,-0.15751 -0.164007,-0.42057 0,-0.30691 0.204603,-0.46279 0.206226,-0.15589 0.613808,-0.15589 l 0.418948,0 0,-0.0292 q 0,-0.20623 -0.136402,-0.31827 -0.134778,-0.11367 -0.379976,-0.11367 -0.155888,0 -0.303657,0.0374 -0.147768,0.0374 -0.28417,0.11204 l 0,-0.27605 q 0.164007,-0.0633 0.318271,-0.0942 0.154264,-0.0325 0.300409,-0.0325 0.39459,0 0.58945,0.2046 0.19486,0.20461 0.19486,0.62031 z"
         style=""
         id="path4195" />
      <path
         d="m 26.953748,202.26816 q -0.05034,-0.0292 -0.11042,-0.0422 -0.05846,-0.0146 -0.129906,-0.0146 -0.253318,0 -0.38972,0.16563 -0.134778,0.16401 -0.134778,0.47254 l 0,0.95806 -0.300408,0 0,-1.81869 0.300408,0 0,0.28254 q 0.09418,-0.16563 0.245199,-0.2452 0.151016,-0.0812 0.366985,-0.0812 0.03085,0 0.0682,0.005 0.03735,0.003 0.08282,0.0114 l 0.0016,0.3069 z"
         style=""
         id="path4197" />
    </g>
    <rect
       style="fill:none;fill-opacity:1;stroke:#ffffff;stroke-width:0.8378073;stroke-linecap:round;stroke-linejoin:round;stroke-miterlimit:4;stroke-dasharray:none;stroke-opacity:1"
       id="rect5644"
       width="20.394993"
       height="43.658695"
       x="1.940272"
       y="235.43054" />
    <g
       id="g4180">
      <g
         style="font-style:normal;font-weight:normal;font-size:10.58333492px;line-height:125%;font-family:Sans;letter-spacing:0px;word-spacing:0px;fill:#ffffff;fill-opacity:1;stroke:none;stroke-width:1px;stroke-linecap:butt;stroke-linejoin:miter;stroke-opacity:1"
         id="text4168">
        <path
           d="m 7.5770145,205.43456 q -0.7648114,0 -1.2092287,0.59945 -0.4444174,0.59428 -0.4444174,1.63297 0,1.0387 0.4392497,1.63814 0.4444174,0.59428 1.2143964,0.59428 0.7596436,0 1.204061,-0.59944 0.4444174,-0.59945 0.4444174,-1.63298 0,-1.02836 -0.4444174,-1.62781 -0.4444174,-0.60461 -1.204061,-0.60461 z m 0,-0.80615 q 1.2402345,0 1.9482017,0.80615 0.7079668,0.80615 0.7079668,2.23242 0,1.4211 -0.7079668,2.23242 -0.7079672,0.80616 -1.9482017,0.80616 -1.2454022,0 -1.9533695,-0.80616 -0.7027996,-0.81132 -0.7027996,-2.23242 0,-1.42627 0.7027996,-2.23242 0.7079673,-0.80615 1.9533695,-0.80615 z"
           style=""
           id="path4190" />
      </g>
      <g
         style="font-style:normal;font-weight:normal;font-size:10.58333492px;line-height:125%;font-family:Sans;letter-spacing:0px;word-spacing:0px;fill:#ffffff;fill-opacity:1;stroke:none;stroke-width:1px;stroke-linecap:butt;stroke-linejoin:miter;stroke-opacity:1"
         id="text4172">
        <path
           d="m 13.817462,201.89989 0,0.89917 q -0.403076,-0.2067 -0.837158,-0.31006 -0.434082,-0.10335 -0.89917,-0.10335 -0.707967,0 -1.064535,0.21704 -0.351399,0.21704 -0.351399,0.65112 0,0.33073 0.253214,0.52194 0.253215,0.18603 1.018026,0.35656 l 0.325562,0.0724 q 1.012858,0.21704 1.436605,0.61495 0.428914,0.39274 0.428914,1.10071 0,0.80615 -0.640788,1.27641 -0.63562,0.47025 -1.751831,0.47025 -0.465088,0 -0.971517,-0.093 -0.501262,-0.0879 -1.0593673,-0.26871 l 0,-0.98186 q 0.5270993,0.27389 1.0386963,0.41342 0.511597,0.13435 1.012858,0.13435 0.671794,0 1.033529,-0.22737 0.361735,-0.23255 0.361735,-0.65112 0,-0.38758 -0.26355,-0.59428 -0.258382,-0.20671 -1.142049,-0.39791 l -0.330729,-0.0775 q -0.883667,-0.18603 -1.276408,-0.56844 -0.3927411,-0.38757 -0.3927411,-1.05936 0,-0.81649 0.5787761,-1.26091 0.578776,-0.44442 1.643311,-0.44442 0.527099,0 0.992187,0.0775 0.465088,0.0775 0.857829,0.23254 z"
           style=""
           id="path4194" />
      </g>
      <g
         style="font-style:normal;font-weight:normal;font-size:10.58333492px;line-height:125%;font-family:Sans;letter-spacing:0px;word-spacing:0px;fill:#ffffff;fill-opacity:1;stroke:none;stroke-width:1px;stroke-linecap:butt;stroke-linejoin:miter;stroke-opacity:1"
         id="text4176">
        <path
           d="m 18.176887,204.99014 0,0.88884 q -0.403076,-0.22221 -0.81132,-0.33073 -0.403076,-0.11369 -0.816488,-0.11369 -0.925008,0 -1.436605,0.58911 -0.511596,0.58394 -0.511596,1.64331 0,1.05937 0.511596,1.64848 0.511597,0.58394 1.436605,0.58394 0.413412,0 0.816488,-0.10852 0.408244,-0.11368 0.81132,-0.33589 l 0,0.8785 q -0.397908,0.18603 -0.826823,0.27905 -0.423747,0.093 -0.904337,0.093 -1.307414,0 -2.077393,-0.82166 -0.769979,-0.82165 -0.769979,-2.21692 0,-1.41593 0.775146,-2.22725 0.780315,-0.81132 2.134237,-0.81132 0.43925,0 0.857829,0.093 0.418579,0.0879 0.81132,0.26872 z"
           style=""
           id="path4198" />
      </g>
    </g>
    <g
       style="font-style:normal;font-weight:normal;font-size:4.00424576px;line-height:125%;font-family:Sans;letter-spacing:0px;word-spacing:0px;fill:#ffffff;fill-opacity:1;stroke:none;stroke-width:1px;stroke-linecap:butt;stroke-linejoin:miter;stroke-opacity:1"
       id="text4202">
      <path
         d="m 3.5296638,212.90798 q 0,-0.39104 -0.1622814,-0.60611 -0.1603263,-0.21508 -0.4516508,-0.21508 -0.2893693,0 -0.4516507,0.21508 -0.1603263,0.21507 -0.1603263,0.60611 0,0.38908 0.1603263,0.60415 0.1622814,0.21507 0.4516507,0.21507 0.2913245,0 0.4516508,-0.21507 0.1622814,-0.21507 0.1622814,-0.60415 z m 0.3597565,0.84855 q 0,0.55919 -0.2483102,0.83096 -0.2483101,0.27373 -0.760572,0.27373 -0.1896543,0 -0.3578013,-0.0293 -0.168147,-0.0274 -0.3265181,-0.086 l 0,-0.34998 q 0.1583711,0.086 0.3128317,0.12709 0.1544607,0.0411 0.3147869,0.0411 0.3538909,0 0.5298587,-0.18574 0.1759678,-0.18379 0.1759678,-0.55724 l 0,-0.17792 q -0.1114463,0.19357 -0.2854589,0.28937 -0.1740126,0.0958 -0.4164572,0.0958 -0.4027708,0 -0.6491258,-0.30697 -0.2463549,-0.30697 -0.2463549,-0.81336 0,-0.50835 0.2463549,-0.81532 0.246355,-0.30697 0.6491258,-0.30697 0.2424446,0 0.4164572,0.0958 0.1740126,0.0958 0.2854589,0.28937 l 0,-0.33239 0.3597565,0 0,1.91805 z"
         id="path4226"
         style="" />
      <path
         d="m 5.6256362,212.92753 q -0.4360091,0 -0.6041562,0.0997 -0.168147,0.0997 -0.168147,0.34021 0,0.19161 0.1251327,0.30501 0.1270878,0.11145 0.3441148,0.11145 0.2991453,0 0.4790236,-0.21117 0.1818334,-0.21311 0.1818334,-0.56505 l 0,-0.0802 -0.3578013,0 z m 0.7175578,-0.1486 0,1.24938 -0.3597565,0 0,-0.33239 q -0.1231775,0.19943 -0.3069661,0.29524 -0.1837886,0.0939 -0.4496956,0.0939 -0.336294,0 -0.5357243,-0.1877 -0.197475,-0.18966 -0.197475,-0.5064 0,-0.36953 0.246355,-0.55723 0.2483102,-0.1877 0.7390649,-0.1877 l 0.5044411,0 0,-0.0352 q 0,-0.24831 -0.1642366,-0.38322 -0.1622815,-0.13687 -0.4575164,-0.13687 -0.187699,0 -0.365622,0.045 -0.1779231,0.045 -0.3421597,0.13491 l 0,-0.33238 q 0.197475,-0.0762 0.3832188,-0.1134 0.1857438,-0.0391 0.3617117,-0.0391 0.4751131,0 0.7097369,0.24636 0.2346238,0.24635 0.2346238,0.74688 z"
         id="path4228"
         style="" />
      <path
         d="m 7.4498361,211.21673 0,0.62175 0.7410201,0 0,0.2796 -0.7410201,0 0,1.18876 q 0,0.26786 0.072342,0.34411 0.074298,0.0763 0.2991453,0.0763 l 0.3695325,0 0,0.30111 -0.3695325,0 q -0.4164572,0 -0.5748282,-0.15447 -0.1583711,-0.15641 -0.1583711,-0.567 l 0,-1.18876 -0.2639517,0 0,-0.2796 0.2639517,0 0,-0.62175 0.3617117,0 z"
         id="path4230"
         style="" />
      <path
         d="m 10.539049,212.84345 0,0.17597 -1.6540973,0 q 0.023462,0.37149 0.2228926,0.56701 0.2013854,0.19356 0.5591867,0.19356 0.207251,0 0.400816,-0.0508 0.195519,-0.0508 0.387129,-0.15251 l 0,0.34021 q -0.193565,0.0821 -0.396905,0.12513 -0.203341,0.043 -0.4125472,0.043 -0.5239931,0 -0.8309592,-0.30502 -0.3050109,-0.30501 -0.3050109,-0.82509 0,-0.53768 0.2893693,-0.85247 0.2913245,-0.31674 0.7840345,-0.31674 0.4418745,0 0.6980055,0.28546 0.258086,0.28351 0.258086,0.7723 z m -0.359756,-0.10558 q -0.0039,-0.29523 -0.166192,-0.4712 -0.1603262,-0.17597 -0.4262331,-0.17597 -0.3011006,0 -0.482934,0.17011 -0.1798782,0.1701 -0.207251,0.47902 l 1.2826101,-0.002 z"
         id="path4232"
         style="" />
    </g>
    <g
       style="font-style:normal;font-weight:normal;font-size:2.81675911px;line-height:125%;font-family:Sans;letter-spacing:0px;word-spacing:0px;fill:#ffffff;fill-opacity:1;stroke:none;stroke-width:1px;stroke-linecap:butt;stroke-linejoin:miter;stroke-opacity:1"
       id="text4206">
      <path
         d="m 13.509307,211.92615 0,0.43737 0.521265,0 0,0.19667 -0.521265,0 0,0.83623 q 0,0.18842 0.05089,0.24206 0.05226,0.0536 0.210432,0.0536 l 0.259945,0 0,0.21181 -0.259945,0 q -0.292954,0 -0.404359,-0.10865 -0.111405,-0.11003 -0.111405,-0.39886 l 0,-0.83623 -0.185675,0 0,-0.19667 0.185675,0 0,-0.43737 0.254444,0 z"
         style=""
         id="path4211" />
      <path
         d="m 15.257403,212.60008 q -0.04264,-0.0248 -0.09352,-0.0358 -0.04951,-0.0124 -0.11003,-0.0124 -0.214558,0 -0.330089,0.14029 -0.114156,0.13891 -0.114156,0.40023 l 0,0.81147 -0.254443,0 0,-1.54041 0.254443,0 0,0.23931 q 0.07977,-0.14029 0.207681,-0.20768 0.12791,-0.0688 0.310834,-0.0688 0.02613,0 0.05776,0.004 0.03163,0.003 0.07014,0.01 l 0.0014,0.25995 z"
         style=""
         id="path4213" />
      <path
         d="m 15.5256,212.36352 0.253068,0 0,1.54041 -0.253068,0 0,-1.54041 z m 0,-0.59967 0.253068,0 0,0.32047 -0.253068,0 0,-0.32047 z"
         style=""
         id="path4215" />
      <path
         d="m 17.320459,213.11584 q 0,-0.27507 -0.114156,-0.42636 -0.11278,-0.15129 -0.31771,-0.15129 -0.203555,0 -0.317711,0.15129 -0.11278,0.15129 -0.11278,0.42636 0,0.2737 0.11278,0.42499 0.114156,0.15129 0.317711,0.15129 0.20493,0 0.31771,-0.15129 0.114156,-0.15129 0.114156,-0.42499 z m 0.253068,0.59691 q 0,0.39336 -0.174672,0.58454 -0.174672,0.19255 -0.535019,0.19255 -0.133411,0 -0.251693,-0.0206 -0.118282,-0.0193 -0.229687,-0.0605 l 0,-0.24619 q 0.111405,0.0605 0.220059,0.0894 0.108655,0.0289 0.221435,0.0289 0.248942,0 0.372726,-0.13066 0.123783,-0.12928 0.123783,-0.39198 l 0,-0.12516 q -0.0784,0.13616 -0.200804,0.20356 -0.122408,0.0674 -0.292954,0.0674 -0.283327,0 -0.456623,-0.21593 -0.173297,-0.21594 -0.173297,-0.57216 0,-0.35759 0.173297,-0.57353 0.173296,-0.21593 0.456623,-0.21593 0.170546,0 0.292954,0.0674 0.122408,0.0674 0.200804,0.20356 l 0,-0.23381 0.253068,0 0,1.34923 z"
         style=""
         id="path4217" />
      <path
         d="m 19.10844,213.11584 q 0,-0.27507 -0.114155,-0.42636 -0.112781,-0.15129 -0.317711,-0.15129 -0.203555,0 -0.317711,0.15129 -0.11278,0.15129 -0.11278,0.42636 0,0.2737 0.11278,0.42499 0.114156,0.15129 0.317711,0.15129 0.20493,0 0.317711,-0.15129 0.114155,-0.15129 0.114155,-0.42499 z m 0.253069,0.59691 q 0,0.39336 -0.174672,0.58454 -0.174673,0.19255 -0.53502,0.19255 -0.133411,0 -0.251692,-0.0206 -0.118282,-0.0193 -0.229687,-0.0605 l 0,-0.24619 q 0.111405,0.0605 0.220059,0.0894 0.108654,0.0289 0.221435,0.0289 0.248942,0 0.372725,-0.13066 0.123783,-0.12928 0.123783,-0.39198 l 0,-0.12516 q -0.0784,0.13616 -0.200804,0.20356 -0.122408,0.0674 -0.292954,0.0674 -0.283326,0 -0.456623,-0.21593 -0.173296,-0.21594 -0.173296,-0.57216 0,-0.35759 0.173296,-0.57353 0.173297,-0.21593 0.456623,-0.21593 0.170546,0 0.292954,0.0674 0.122408,0.0674 0.200804,0.20356 l 0,-0.23381 0.253069,0 0,1.34923 z"
         style=""
         id="path4219" />
      <path
         d="m 21.200379,213.07046 0,0.12378 -1.163563,0 q 0.0165,0.26132 0.156792,0.39886 0.141663,0.13616 0.393356,0.13616 0.145789,0 0.281951,-0.0358 0.137537,-0.0358 0.272323,-0.10728 l 0,0.23931 q -0.136161,0.0578 -0.2792,0.088 -0.143038,0.0303 -0.290203,0.0303 -0.368599,0 -0.584533,-0.21456 -0.214557,-0.21456 -0.214557,-0.58041 0,-0.37822 0.203554,-0.59966 0.204931,-0.22281 0.551524,-0.22281 0.310834,0 0.491007,0.2008 0.181549,0.19943 0.181549,0.54328 z m -0.253068,-0.0743 q -0.0028,-0.20768 -0.116906,-0.33147 -0.112781,-0.12378 -0.299831,-0.12378 -0.211807,0 -0.339717,0.11966 -0.126534,0.11965 -0.145789,0.33696 l 0.902243,-0.001 z"
         style=""
         id="path4221" />
      <path
         d="m 22.502855,212.60008 q -0.04264,-0.0248 -0.09352,-0.0358 -0.04951,-0.0124 -0.110029,-0.0124 -0.214558,0 -0.330089,0.14029 -0.114156,0.13891 -0.114156,0.40023 l 0,0.81147 -0.254444,0 0,-1.54041 0.254444,0 0,0.23931 q 0.07977,-0.14029 0.207681,-0.20768 0.127909,-0.0688 0.310834,-0.0688 0.02613,0 0.05777,0.004 0.03163,0.003 0.07014,0.01 l 0.0014,0.25995 z"
         style=""
         id="path4223" />
    </g>
    <g
       style="font-style:normal;font-weight:normal;font-size:3.07594681px;line-height:125%;font-family:Sans;letter-spacing:0px;word-spacing:0px;fill:#ffffff;fill-opacity:1;stroke:none;stroke-width:1px;stroke-linecap:butt;stroke-linejoin:miter;stroke-opacity:1"
       id="text4220">
      <path
         d="m 4.6452416,276.68288 q 0,-0.30038 -0.12466,-0.46559 -0.123158,-0.16522 -0.3469451,-0.16522 -0.2222853,0 -0.3469452,0.16522 -0.123158,0.16521 -0.123158,0.46559 0,0.29889 0.123158,0.4641 0.1246599,0.16521 0.3469452,0.16521 0.2237871,0 0.3469451,-0.16521 0.12466,-0.16521 0.12466,-0.4641 z m 0.2763546,0.65184 q 0,0.42955 -0.1907448,0.63832 -0.1907447,0.21027 -0.5842496,0.21027 -0.145687,0 -0.2748527,-0.0225 -0.1291657,-0.021 -0.2508218,-0.0661 l 0,-0.26884 q 0.1216561,0.0661 0.2403083,0.0976 0.1186522,0.0315 0.2418103,0.0315 0.2718488,0 0.4070222,-0.14269 0.1351735,-0.14118 0.1351735,-0.42805 l 0,-0.13667 q -0.08561,0.14869 -0.2192814,0.22228 -0.1336715,0.0736 -0.3199105,0.0736 -0.309397,0 -0.4986398,-0.23581 -0.1892428,-0.2358 -0.1892428,-0.6248 0,-0.3905 0.1892428,-0.6263 0.1892428,-0.2358 0.4986398,-0.2358 0.186239,0 0.3199105,0.0736 0.1336715,0.0736 0.2192814,0.22229 l 0,-0.25533 0.2763546,0 0,1.47339 z"
         style=""
         id="path4248" />
      <path
         d="m 6.2553075,276.6979 q -0.3349297,0 -0.4640955,0.0766 -0.1291657,0.0766 -0.1291657,0.26134 0,0.14719 0.096123,0.2343 0.097625,0.0856 0.2643392,0.0856 0.2297949,0 0.3679722,-0.16221 0.1396792,-0.16371 0.1396792,-0.43406 l 0,-0.0616 -0.2748527,0 z m 0.5512073,-0.11414 0,0.95973 -0.2763546,0 0,-0.25533 q -0.094621,0.1532 -0.2358026,0.22679 -0.1411811,0.0721 -0.3454432,0.0721 -0.2583315,0 -0.411528,-0.14418 -0.1516947,-0.14569 -0.1516947,-0.389 0,-0.28386 0.1892428,-0.42805 0.1907448,-0.14418 0.5677285,-0.14418 l 0.3874972,0 0,-0.027 q 0,-0.19074 -0.1261619,-0.29438 -0.1246599,-0.10513 -0.3514509,-0.10513 -0.144185,0 -0.2808604,0.0345 -0.1366754,0.0345 -0.2628373,0.10364 l 0,-0.25533 q 0.1516947,-0.0586 0.2943778,-0.0871 0.142683,-0.03 0.2778565,-0.03 0.3649683,0 0.5451995,0.18924 0.1802313,0.18924 0.1802313,0.57374 z"
         style=""
         id="path4250" />
      <path
         d="m 7.6566055,275.38372 0,0.47761 0.5692304,0 0,0.21477 -0.5692304,0 0,0.91318 q 0,0.20576 0.055571,0.26434 0.057073,0.0586 0.2297949,0.0586 l 0.2838642,0 0,0.2313 -0.2838642,0 q -0.3199105,0 -0.4415666,-0.11865 -0.1216561,-0.12016 -0.1216561,-0.43556 l 0,-0.91318 -0.2027602,0 0,-0.21477 0.2027602,0 0,-0.47761 0.2778565,0 z"
         style=""
         id="path4252" />
      <path
         d="m 10.029651,276.63332 0,0.13517 -1.2706308,0 q 0.018023,0.28537 0.1712197,0.43556 0.1546985,0.14869 0.4295511,0.14869 0.1592043,0 0.3078951,-0.039 0.1501927,-0.0391 0.2973816,-0.11715 l 0,0.26134 q -0.1486908,0.0631 -0.3048912,0.0961 -0.1562004,0.033 -0.3169066,0.033 -0.4025165,0 -0.6383191,-0.2343 -0.2343006,-0.2343 -0.2343006,-0.63381 0,-0.41303 0.2222852,-0.65484 0.2237871,-0.24331 0.6022728,-0.24331 0.3394355,0 0.536188,0.21928 0.1982548,0.21778 0.1982548,0.59326 z m -0.276355,-0.0811 q -0.003,-0.2268 -0.1276638,-0.36197 -0.1231581,-0.13517 -0.3274202,-0.13517 -0.2312967,0 -0.370976,0.13067 -0.1381773,0.13066 -0.1592042,0.36797 l 0.9852642,-0.002 z"
         style=""
         id="path4254" />
    </g>
    <g
       style="font-style:normal;font-weight:normal;font-size:3.00935173px;line-height:125%;font-family:Sans;letter-spacing:0px;word-spacing:0px;fill:#ffffff;fill-opacity:1;stroke:none;stroke-width:1px;stroke-linecap:butt;stroke-linejoin:miter;stroke-opacity:1"
       id="text4224">
      <path
         d="m 12.087362,275.71081 0,0.46727 0.556906,0 0,0.21013 -0.556906,0 0,0.8934 q 0,0.20131 0.05437,0.25862 0.05584,0.0573 0.22482,0.0573 l 0.277718,0 0,0.22629 -0.277718,0 q -0.312985,0 -0.432007,-0.11608 -0.119022,-0.11755 -0.119022,-0.42613 l 0,-0.8934 -0.19837,0 0,-0.21013 0.19837,0 0,-0.46727 0.271841,0 z"
         style=""
         id="path4233" />
      <path
         d="m 13.954982,276.43082 q -0.04555,-0.0265 -0.09992,-0.0382 -0.0529,-0.0132 -0.117553,-0.0132 -0.229228,0 -0.352658,0.14988 -0.121961,0.14841 -0.121961,0.4276 l 0,0.86695 -0.271841,0 0,-1.64574 0.271841,0 0,0.25568 q 0.08523,-0.14988 0.221881,-0.22188 0.136655,-0.0735 0.332086,-0.0735 0.02792,0 0.06172,0.004 0.0338,0.003 0.07494,0.0103 l 0.0015,0.27772 z"
         style=""
         id="path4235" />
      <path
         d="m 14.241517,276.17808 0.270371,0 0,1.64574 -0.270371,0 0,-1.64574 z m 0,-0.64066 0.270371,0 0,0.34237 -0.270371,0 0,-0.34237 z"
         style=""
         id="path4237" />
      <path
         d="m 16.159097,276.98185 q 0,-0.29388 -0.121961,-0.45552 -0.120492,-0.16163 -0.339434,-0.16163 -0.217472,0 -0.339433,0.16163 -0.120492,0.16164 -0.120492,0.45552 0,0.29241 0.120492,0.45405 0.121961,0.16163 0.339433,0.16163 0.218942,0 0.339434,-0.16163 0.121961,-0.16164 0.121961,-0.45405 z m 0.270372,0.63772 q 0,0.42026 -0.186616,0.6245 -0.186615,0.20572 -0.5716,0.20572 -0.142533,0 -0.268902,-0.022 -0.126369,-0.0206 -0.245392,-0.0647 l 0,-0.26303 q 0.119023,0.0647 0.235106,0.0955 0.116083,0.0309 0.236575,0.0309 0.265963,0 0.39821,-0.13959 0.132247,-0.13813 0.132247,-0.41879 l 0,-0.13371 q -0.08376,0.14547 -0.214534,0.21747 -0.130777,0.072 -0.312984,0.072 -0.302699,0 -0.487844,-0.2307 -0.185146,-0.23069 -0.185146,-0.61127 0,-0.38205 0.185146,-0.61274 0.185145,-0.2307 0.487844,-0.2307 0.182207,0 0.312984,0.072 0.130778,0.072 0.214534,0.21747 l 0,-0.2498 0.270372,0 0,1.44149 z"
         style=""
         id="path4239" />
      <path
         d="m 18.06933,276.98185 q 0,-0.29388 -0.121961,-0.45552 -0.120492,-0.16163 -0.339434,-0.16163 -0.217472,0 -0.339433,0.16163 -0.120492,0.16164 -0.120492,0.45552 0,0.29241 0.120492,0.45405 0.121961,0.16163 0.339433,0.16163 0.218942,0 0.339434,-0.16163 0.121961,-0.16164 0.121961,-0.45405 z m 0.270372,0.63772 q 0,0.42026 -0.186615,0.6245 -0.186616,0.20572 -0.571601,0.20572 -0.142533,0 -0.268902,-0.022 -0.126369,-0.0206 -0.245391,-0.0647 l 0,-0.26303 q 0.119022,0.0647 0.235105,0.0955 0.116083,0.0309 0.236575,0.0309 0.265963,0 0.39821,-0.13959 0.132247,-0.13813 0.132247,-0.41879 l 0,-0.13371 q -0.08376,0.14547 -0.214534,0.21747 -0.130777,0.072 -0.312984,0.072 -0.302699,0 -0.487844,-0.2307 -0.185146,-0.23069 -0.185146,-0.61127 0,-0.38205 0.185146,-0.61274 0.185145,-0.2307 0.487844,-0.2307 0.182207,0 0.312984,0.072 0.130778,0.072 0.214534,0.21747 l 0,-0.2498 0.270372,0 0,1.44149 z"
         style=""
         id="path4241" />
      <path
         d="m 20.304303,276.93336 0,0.13225 -1.243121,0 q 0.01763,0.27918 0.167513,0.42613 0.151349,0.14547 0.420251,0.14547 0.155757,0 0.301229,-0.0382 0.146941,-0.0382 0.290943,-0.11461 l 0,0.25568 q -0.145471,0.0617 -0.29829,0.094 -0.152819,0.0323 -0.310046,0.0323 -0.393801,0 -0.624499,-0.22922 -0.229228,-0.22923 -0.229228,-0.62009 0,-0.40409 0.217473,-0.64067 0.218942,-0.23804 0.589233,-0.23804 0.332087,0 0.52458,0.21453 0.193962,0.21307 0.193962,0.58042 z m -0.270372,-0.0793 q -0.0029,-0.22188 -0.1249,-0.35413 -0.120491,-0.13224 -0.320331,-0.13224 -0.226289,0 -0.362944,0.12784 -0.135186,0.12783 -0.155758,0.36 l 0.963933,-0.001 z"
         style=""
         id="path4243" />
      <path
         d="m 21.695834,276.43082 q -0.04555,-0.0265 -0.09992,-0.0382 -0.0529,-0.0132 -0.117553,-0.0132 -0.229228,0 -0.352658,0.14988 -0.121961,0.14841 -0.121961,0.4276 l 0,0.86695 -0.271841,0 0,-1.64574 0.271841,0 0,0.25568 q 0.08523,-0.14988 0.221881,-0.22188 0.136655,-0.0735 0.332086,-0.0735 0.02792,0 0.06171,0.004 0.0338,0.003 0.07494,0.0103 l 0.0015,0.27772 z"
         style=""
         id="path4245" />
    </g>
    <g
       style="font-style:normal;font-weight:normal;font-size:5.29166746px;line-height:125%;font-family:Sans;letter-spacing:0px;word-spacing:0px;fill:#ffffff;fill-opacity:1;stroke:none;stroke-width:1px;stroke-linecap:butt;stroke-linejoin:miter;stroke-opacity:1"
       id="text4228">
      <path
         d="m 11.596795,237.207 0,0.44442 q -0.201539,-0.11111 -0.405661,-0.16537 -0.201538,-0.0568 -0.408243,-0.0568 -0.462505,0 -0.718303,0.29455 -0.2557983,0.29198 -0.2557983,0.82166 0,0.52968 0.2557983,0.82424 0.255798,0.29197 0.718303,0.29197 0.206705,0 0.408243,-0.0543 0.204122,-0.0568 0.405661,-0.16795 l 0,0.43925 q -0.198955,0.093 -0.413412,0.13953 -0.211873,0.0465 -0.452169,0.0465 -0.653707,0 -1.0386963,-0.41083 -0.3849895,-0.41083 -0.3849895,-1.10846 0,-0.70797 0.3875733,-1.11363 0.3901575,-0.40566 1.0671185,-0.40566 0.219625,0 0.428914,0.0465 0.20929,0.0439 0.405661,0.13436 z"
         style=""
         id="path4257" />
      <path
         d="m 12.077385,237.0959 0.503846,0 0.904337,2.42879 0.904338,-2.42879 0.503845,0 -1.085205,2.89388 -0.645955,0 -1.085206,-2.89388 z"
         style=""
         id="path4259" />
    </g>
  </g>
</svg>
