<?xml version="1.0" encoding="UTF-8" standalone="no"?>
<svg
   xmlns:dc="http://purl.org/dc/elements/1.1/"
   xmlns:cc="http://creativecommons.org/ns#"
   xmlns:rdf="http://www.w3.org/1999/02/22-rdf-syntax-ns#"
   xmlns:svg="http://www.w3.org/2000/svg"
   xmlns="http://www.w3.org/2000/svg"
   xmlns:sodipodi="http://sodipodi.sourceforge.net/DTD/sodipodi-0.dtd"
   xmlns:inkscape="http://www.inkscape.org/namespaces/inkscape"
   id="Layer_1"
   data-name="Layer 1"
   width="60"
   height="380"
   viewBox="0 0 60 380"
   version="1.1"
   sodipodi:docname="ReScale.svg"
   inkscape:version="0.92.2 5c3e80d, 2017-08-06">
  <metadata
     id="metadata212">
    <rdf:RDF>
      <cc:Work
         rdf:about="">
        <dc:format>image/svg+xml</dc:format>
        <dc:type
           rdf:resource="http://purl.org/dc/dcmitype/StillImage" />
        <dc:title>SnH</dc:title>
      </cc:Work>
    </rdf:RDF>
  </metadata>
  <sodipodi:namedview
     pagecolor="#ffffff"
     bordercolor="#666666"
     borderopacity="1"
     objecttolerance="10"
     gridtolerance="10"
     guidetolerance="10"
     inkscape:pageopacity="0"
     inkscape:pageshadow="2"
     inkscape:window-width="1720"
     inkscape:window-height="1365"
     id="namedview210"
     showgrid="false"
     showguides="true"
     inkscape:guide-bbox="true"
     inkscape:zoom="2.2106391"
     inkscape:cx="-30.640553"
     inkscape:cy="180.32462"
     inkscape:window-x="544"
     inkscape:window-y="0"
     inkscape:window-maximized="0"
     inkscape:current-layer="Layer_1">
    <sodipodi:guide
       position="14.919028,68.088604"
       orientation="1,0"
       id="guide1276"
       inkscape:locked="false" />
    <sodipodi:guide
       position="44.822807,70.848952"
       orientation="1,0"
       id="guide1278"
       inkscape:locked="false" />
  </sodipodi:namedview>
  <defs
     id="defs29">
    <symbol
       id="BossKnob"
       data-name="BossKnob"
       viewBox="0 0 35.91 35.91">
      <g
         id="g9">
        <path
           id="path6445-4"
           d="M 35.9,18 A 18,18 0 1 1 18,0 18,18 0 0 1 36,18"
           inkscape:connector-curvature="0" />
        <g
           id="g879">
          <path
             id="path851"
             d="M 33.87,16.26 A 24.62,24.62 0 0 1 31.33,12.41 24.38,24.38 0 0 1 30.41,7.9 16.06,16.06 0 0 0 28,5.5 24.32,24.32 0 0 1 23.49,4.58 24.58,24.58 0 0 1 19.64,2 15.53,15.53 0 0 0 16.26,2 24.69,24.69 0 0 1 12.41,4.54 24.27,24.27 0 0 1 7.9,5.46 16.06,16.06 0 0 0 5.5,7.91 24.3,24.3 0 0 1 4.58,12.42 24.69,24.69 0 0 1 2,16.26 16.06,16.06 0 0 0 1.95,18 16.3,16.3 0 0 0 2,19.65 24.58,24.58 0 0 1 4.54,23.5 24.32,24.32 0 0 1 5.5,28 a 16,16 0 0 0 2.41,2.41 24.42,24.42 0 0 1 4.51,0.92 24.81,24.81 0 0 1 3.85,2.54 15.7,15.7 0 0 0 3.38,0 A 24.71,24.71 0 0 1 23.5,31.33 24.46,24.46 0 0 1 28,30.41 16,16 0 0 0 30.41,28 24.41,24.41 0 0 1 31.33,23.49 24.52,24.52 0 0 1 33.87,19.64 16.41,16.41 0 0 0 34,18 16.67,16.67 0 0 0 33.91,16.31"
             style="fill:#232323"
             inkscape:connector-curvature="0" />
          <g
             id="g854">
            <path
               id="path6449"
               d="m 34.86,16.16 c -0.75,-1.21 -2,-2.4 -2.7,-4.09 -0.7,-1.69 -0.65,-3.41 -1,-4.79 A 17.07,17.07 0 0 0 28.6,4.72 C 27.22,4.4 25.5,4.44 23.81,3.72 22.12,3 21,1.79 19.75,1 a 16.51,16.51 0 0 0 -3.6,0 c -1.21,0.75 -2.4,2 -4.09,2.7 -1.69,0.7 -3.41,0.65 -4.79,1 A 17.06,17.06 0 0 0 4.72,7.28 c -0.32,1.38 -0.28,3.1 -1,4.79 -0.72,1.69 -2,2.88 -2.7,4.09 A 17.07,17.07 0 0 0 0.94,18 a 17.27,17.27 0 0 0 0.1,1.8 c 0.75,1.21 2,2.4 2.7,4.09 0.7,1.69 0.65,3.41 1,4.79 a 17,17 0 0 0 2.56,2.56 c 1.38,0.32 3.1,0.28 4.79,1 1.69,0.72 2.88,2 4.09,2.7 a 16.68,16.68 0 0 0 3.6,0 c 1.21,-0.75 2.4,-2 4.09,-2.7 1.69,-0.7 3.41,-0.65 4.79,-1 a 17,17 0 0 0 2.56,-2.56 c 0.32,-1.38 0.28,-3.1 1,-4.79 0.72,-1.69 2,-2.88 2.7,-4.09 A 17.5,17.5 0 0 0 35,18 17.12,17.12 0 0 0 34.9,16.2"
               style="fill:#191818;fill-opacity:0.97254902"
               inkscape:connector-curvature="0" />
            <g
               id="g840">
              <path
                 id="path861"
                 d="M 32.25,16.43 A 22.13,22.13 0 0 1 30,13 21.9,21.9 0 0 1 29.17,9 14.43,14.43 0 0 0 27,6.76 21.85,21.85 0 0 1 23,5.93 22.09,22.09 0 0 1 19.54,3.64 a 14,14 0 0 0 -3,0 22.19,22.19 0 0 1 -3.54,2.3 21.81,21.81 0 0 1 -4,0.83 14.43,14.43 0 0 0 -2.24,2.16 21.85,21.85 0 0 1 -0.83,4 22.18,22.18 0 0 1 -2.28,3.46 14.5,14.5 0 0 0 -0.08,1.61 14.75,14.75 0 0 0 0.08,1.52 22.09,22.09 0 0 1 2.28,3.46 21.86,21.86 0 0 1 0.83,4 14.36,14.36 0 0 0 2.16,2.16 21.94,21.94 0 0 1 4.08,0.86 22.3,22.3 0 0 1 3.46,2.29 14.1,14.1 0 0 0 3,0 22.2,22.2 0 0 1 3.47,-2.29 22,22 0 0 1 4,-0.82 14.37,14.37 0 0 0 2.21,-2.18 21.91,21.91 0 0 1 0.83,-4 22,22 0 0 1 2.29,-3.46 14.26,14.26 0 0 0 0,-3"
                 style="fill:#323232;stroke:#282827;stroke-width:0.28385511px;stroke-linecap:round"
                 inkscape:connector-curvature="0" />
            </g>
          </g>
        </g>
      </g>
      <rect
         x="17.129999"
         y="3.4400001"
         width="1.88"
         height="6.4000001"
         style="fill:#cfd1d2"
         id="rect11" />
      <g
         id="g17">
        <path
           d="M 18,27.2 A 9.25,9.25 0 1 1 27.2,18 9.26,9.26 0 0 1 18,27.2 Z"
           style="fill:#151515"
           id="path13"
           inkscape:connector-curvature="0" />
        <path
           d="M 18,9 A 9,9 0 1 1 9,18 9,9 0 0 1 18,9 M 18,8.5 A 9.5,9.5 0 1 0 27.5,18 9.5,9.5 0 0 0 18,8.45 Z"
           style="fill:#2d2d2d"
           id="path15"
           inkscape:connector-curvature="0" />
      </g>
    </symbol>
    <symbol
       id="GoldPort"
       data-name="GoldPort"
       viewBox="0 0 23.63 23.63">
      <g
         id="layer1">
        <circle
           id="circle868-5"
           cx="11.81"
           cy="11.79"
           r="11.79"
           style="fill:#333232" />
        <path
           id="path870-5"
           d="m 2.6,18.79 a 11.81,11.81 0 0 0 18.43,0 15.56,15.56 0 0 1 -18.43,0 z"
           style="fill:#222628"
           inkscape:connector-curvature="0" />
        <path
           id="path872-5"
           d="m 11.81,1.93 c 5.67,0 10.29,3.4 10.83,7.73 a 6.75,6.75 0 0 0 0,-0.77 C 22.64,4.19 17.8,0.38 11.81,0.38 5.82,0.38 1,4.16 1,8.89 A 6.75,6.75 0 0 0 1,9.66 C 1.53,5.33 6.14,1.93 11.81,1.93 Z"
           style="fill:#3f4243"
           inkscape:connector-curvature="0" />
        <path
           id="path876-5"
           d="m 11.81,19.13 a 7.35,7.35 0 1 1 7.35,-7.35 v 0 a 7.36,7.36 0 0 1 -7.35,7.35 m 0,1 A 8.37,8.37 0 1 0 3.44,11.76 v 0 a 8.37,8.37 0 0 0 8.34,8.4 v 0 z"
           style="fill:#282827"
           inkscape:connector-curvature="0" />
        <path
           id="path874-5"
           d="m 11.81,4.38 a 7.39,7.39 0 1 1 -7.39,7.4 7.39,7.39 0 0 1 7.39,-7.4 z"
           style="fill:#020202"
           inkscape:connector-curvature="0" />
        <path
           id="path880-5"
           d="m 11.81,6.35 a 5.42,5.42 0 1 1 -5.42,5.42 v 0 a 5.43,5.43 0 0 1 5.42,-5.42 z"
           style="fill:#020202;stroke:#3f4d52;stroke-width:0.72347003px"
           inkscape:connector-curvature="0" />
        <path
           id="path884-5"
           d="M 11.81,22.64 A 10.83,10.83 0 1 1 22.64,11.81 v 0 A 10.83,10.83 0 0 1 11.81,22.64 v 0 m 0,1 A 11.81,11.81 0 1 0 0,11.81 v 0 a 11.81,11.81 0 0 0 11.81,11.78 z"
           style="fill:#020202"
           inkscape:connector-curvature="0" />
      </g>
    </symbol>
  </defs>
  <title
     id="title31">SnH</title>
  <path
     id="rect817-8"
     d="M 0,0 H 60 V 380 H 0 Z"
     style="fill:#44423e;stroke-width:0.96076894;fill-opacity:1"
     inkscape:connector-curvature="0" />
  <g
     id="g1661"
     transform="translate(-60.020011)"
     style="fill:#3c3835;fill-opacity:1">
    <g
       id="g1659"
       style="fill:#3c3835;fill-opacity:1">
      <path
         id="path1657"
         d="m 122.39,161.76 a 7.22,7.22 0 0 0 -3.25,-4.2 6.11,6.11 0 0 0 -5.08,-0.79 7.22,7.22 0 0 0 -4.2,3.25 A 348.44,348.44 0 0 1 83.46,200.3 170.49,170.49 0 0 1 67,149.15 v -3.09 l 15.86,-22.28 c 1.9,-2.7 10,-12.37 -6.19,-19.43 a 25,25 0 0 0 -18.71,0.56 c -18.4,7.93 -15.23,33.78 -14.67,38 a 17.56,17.56 0 0 0 0.71,4.92 l -30,49.3 c 0,0 3.89,-25.85 4.6,-30.53 a 10.78,10.78 0 0 0 -8.46,-12.69 l -0.42,-0.08 c -7.93,-1.9 -12.77,0.48 -18,21 -4.44,17.37 -20.14,60.58 -30.61,60.27 -6.19,0 -1.9,-27 5.39,-46.55 8.88,-23.39 30,-55.51 53.76,-70 5.47,-3.41 12.69,-11.89 5.23,-20.3 C 16.05,87.62 6,96 1.7,99.27 A 116.41,116.41 0 0 0 -26,133.77 181,181 0 0 0 -48.26,184 c -7.93,25.77 -16.41,67.72 0.79,69.31 23.79,2.14 42.74,-44.09 42.74,-44.09 0,0 -1,24.19 11.1,24.82 12.1,0.63 35.76,-46.79 42.5,-62.81 a 177.31,177.31 0 0 0 19.82,44 22.76,22.76 0 0 1 1.11,3.09 C 67.12,222 39.92,256.84 32,277.78 a 6.5,6.5 0 0 0 0,5.71 6.26,6.26 0 0 0 4,3.33 8.88,8.88 0 0 0 5.87,-1 43.85,43.85 0 0 0 5.23,-2.78 c 38.3,-22 43.77,-47.58 41,-67.25 a 16.5,16.5 0 0 1 2.06,-3.17 334.65,334.65 0 0 0 30.84,-45.7 6,6 0 0 0 1.43,-5.15 z"
         transform="translate(57.5)"
         style="fill:#3c3835;fill-opacity:1"
         inkscape:connector-curvature="0" />
    </g>
  </g>
  <rect
     id="rect1759"
     x="0"
     y="365"
     width="60"
     height="15"
     style="fill:#3c3835;stroke-width:0.96076894;fill-opacity:1" />
  <rect
     id="rect1806"
     x="0"
     width="60"
     height="15"
     style="fill:#3c3835;stroke-width:0.96076894;fill-opacity:1"
     y="0" />
  <circle
     style="fill:#3c3835;fill-opacity:1"
     r="15.12"
     cy="359.79001"
     cx="30"
     id="path1686" />
  <g
     data-name="Layer 2-2"
     id="Layer_2-2"
     transform="translate(-60)"
     style="fill:#e7e0c0;fill-opacity:1">
    <g
       data-name="Layer 1-2-6"
       id="Layer_1-2-6"
       style="fill:#e7e0c0;fill-opacity:1">
      <path
         inkscape:connector-curvature="0"
         style="fill:#e7e0c0;fill-opacity:1"
         transform="translate(57.5)"
         d="m 40,356.68 a 0.61,0.61 0 0 0 -0.27,-0.35 0.51,0.51 0 0 0 -0.43,-0.07 0.61,0.61 0 0 0 -0.35,0.27 29.27,29.27 0 0 1 -2.22,3.38 14.32,14.32 0 0 1 -1.39,-4.3 v -0.26 l 1.33,-1.87 c 0.16,-0.23 0.84,-1 -0.52,-1.63 a 2.1,2.1 0 0 0 -1.57,0 c -1.55,0.67 -1.28,2.84 -1.23,3.19 a 1.47,1.47 0 0 0 0.06,0.41 l -2.52,4.14 0.39,-2.56 a 0.91,0.91 0 0 0 -0.71,-1.07 v 0 c -0.67,-0.16 -1.07,0 -1.51,1.76 -0.37,1.46 -1.69,5.09 -2.57,5.06 -0.52,0 -0.16,-2.27 0.45,-3.91 A 12.93,12.93 0 0 1 31.47,353 c 0.46,-0.29 1.07,-1 0.44,-1.71 -0.79,-0.89 -1.64,-0.19 -2,0.09 a 9.78,9.78 0 0 0 -2.32,2.9 15.2,15.2 0 0 0 -1.87,4.22 c -0.67,2.16 -1.38,5.69 0.07,5.82 2,0.18 3.59,-3.7 3.59,-3.7 0,0 -0.09,2 0.93,2.08 1.02,0.08 3,-3.93 3.57,-5.27 a 14.89,14.89 0 0 0 1.67,3.7 1.91,1.91 0 0 1 0.09,0.26 28,28 0 0 0 -3.18,5 0.55,0.55 0 0 0 0,0.48 0.53,0.53 0 0 0 0.33,0.28 0.75,0.75 0 0 0 0.49,-0.08 3.68,3.68 0 0 0 0.44,-0.23 c 3.22,-1.85 3.68,-4 3.44,-5.65 a 1.39,1.39 0 0 1 0.17,-0.27 28.11,28.11 0 0 0 2.59,-3.84 0.51,0.51 0 0 0 0.12,-0.43 z"
         id="path8-4-6" />
    </g>
  </g>
  <g
     transform="scale(3.7795272)"
     id="g1486"
     style="fill:#251e1e;fill-opacity:1">
    <path
       style="fill:#251e1e;fill-opacity:1;stroke-width:0.26458335"
       d="M 1.5406693,0.7410401 V 3.2385622 H 2.7333615 C 3.4623855,3.2776139 4.0851679,2.7185244 4.1250078,1.9895428 4.085169,1.2605618 3.4623855,0.70198842 2.7333615,0.7410401 Z"
       id="rect861-6"
       inkscape:connector-curvature="0" />
    <path
       id="path912"
       d="m 1.540669,97.440866 v 2.497523 h 1.192693 c 0.729024,0.03905 1.351806,-0.520038 1.391646,-1.24902 -0.03984,-0.728981 -0.662622,-1.287554 -1.391646,-1.248503 z"
       style="fill:#251e1e;fill-opacity:1;stroke-width:0.26458335"
       inkscape:connector-curvature="0" />
  </g>
  <g
     transform="scale(3.7795272)"
     id="g1490"
     style="fill:#251e1e;fill-opacity:1">
    <path
       inkscape:connector-curvature="0"
       id="path918"
       d="M 14.331839,0.74104081 V 3.2385629 H 13.139146 C 12.410122,3.2776147 11.78734,2.7185251 11.7475,1.9895435 11.78734,1.2605625 12.410122,0.70198913 13.139146,0.74104081 Z"
       style="fill:#251e1e;fill-opacity:1;stroke-width:0.26458335" />
    <path
       inkscape:connector-curvature="0"
       style="fill:#251e1e;fill-opacity:1;stroke-width:0.26458335"
       d="m 14.331839,97.440867 v 2.497523 h -1.192693 c -0.729024,0.03905 -1.351806,-0.520038 -1.391646,-1.24902 0.03984,-0.728981 0.662622,-1.287554 1.391646,-1.248503 z"
       id="path920" />
  </g>
  <g
     transform="translate(-59.890204,4.2050477e-6)"
     id="Layer_3"
     data-name="Layer 3">
    <g
       id="g62"
       transform="translate(-0.53242652,8)"
       style="fill:#fff7d4;fill-opacity:1">
      <path
         inkscape:connector-curvature="0"
         d="m 15.77,268.64 a 2,2 0 0 1 -0.81,-0.86 3.11,3.11 0 0 1 0,-2.6 2,2 0 0 1 0.81,-0.85 2.73,2.73 0 0 1 2.48,0 2,2 0 0 1 0.81,0.85 3.11,3.11 0 0 1 0,2.6 2,2 0 0 1 -0.81,0.86 2.7,2.7 0 0 1 -2.48,0 z m 2.18,-0.94 a 2.33,2.33 0 0 0 0,-2.43 1.27,1.27 0 0 0 -1.89,0 2.35,2.35 0 0 0 0,2.43 1.26,1.26 0 0 0 1.88,0 z"
         transform="translate(60.01)"
         style="fill:#fff7d4;fill-opacity:1"
         id="path50" />
      <path
         inkscape:connector-curvature="0"
         d="m 21.34,268.42 a 2,2 0 0 1 -0.53,-1.52 v -2.33 a 0.49,0.49 0 0 1 0.52,-0.52 0.5,0.5 0 0 1 0.38,0.14 0.52,0.52 0 0 1 0.14,0.38 v 2.37 a 1.28,1.28 0 0 0 0.26,0.87 1.11,1.11 0 0 0 1.52,0 1.28,1.28 0 0 0 0.27,-0.87 v -2.37 a 0.52,0.52 0 0 1 0.14,-0.38 0.5,0.5 0 0 1 0.38,-0.14 0.49,0.49 0 0 1 0.52,0.52 v 2.33 a 2,2 0 0 1 -0.53,1.52 2.1,2.1 0 0 1 -1.54,0.52 2.1,2.1 0 0 1 -1.53,-0.52 z"
         transform="translate(60.01)"
         style="fill:#fff7d4;fill-opacity:1"
         id="path52" />
      <path
         inkscape:connector-curvature="0"
         d="m 27.8,268.77 a 0.51,0.51 0 0 1 -0.15,-0.38 v -3.44 h -1.1 q -0.5,0 -0.5,-0.44 0,-0.44 0.5,-0.43 h 3.26 q 0.5,0 0.5,0.43 0,0.43 -0.5,0.44 h -1.1 v 3.44 a 0.52,0.52 0 0 1 -0.14,0.38 0.59,0.59 0 0 1 -0.77,0 z"
         transform="translate(60.01)"
         style="fill:#fff7d4;fill-opacity:1"
         id="path54" />
      <path
         inkscape:connector-curvature="0"
         d="m 31.6,268.78 a 0.53,0.53 0 0 1 -0.14,-0.39 v -3.81 a 0.45,0.45 0 0 1 0.5,-0.5 h 1.71 a 1.75,1.75 0 0 1 1.22,0.39 1.61,1.61 0 0 1 0,2.2 1.75,1.75 0 0 1 -1.22,0.39 h -1.15 v 1.31 a 0.55,0.55 0 0 1 -0.92,0.39 z m 1.92,-2.5 q 0.8,0 0.8,-0.69 0,-0.69 -0.8,-0.69 h -1 v 1.38 z"
         transform="translate(60.01)"
         style="fill:#fff7d4;fill-opacity:1"
         id="path56" />
      <path
         inkscape:connector-curvature="0"
         d="m 37.18,268.42 a 2,2 0 0 1 -0.53,-1.52 v -2.33 a 0.49,0.49 0 0 1 0.52,-0.52 0.5,0.5 0 0 1 0.38,0.14 0.52,0.52 0 0 1 0.14,0.38 v 2.37 a 1.28,1.28 0 0 0 0.26,0.87 1.11,1.11 0 0 0 1.52,0 1.28,1.28 0 0 0 0.27,-0.87 v -2.37 a 0.52,0.52 0 0 1 0.14,-0.38 0.5,0.5 0 0 1 0.38,-0.14 0.49,0.49 0 0 1 0.52,0.52 v 2.33 a 2,2 0 0 1 -0.53,1.52 2.52,2.52 0 0 1 -3.07,0 z"
         transform="translate(60.01)"
         style="fill:#fff7d4;fill-opacity:1"
         id="path58" />
      <path
         inkscape:connector-curvature="0"
         d="m 43.64,268.77 a 0.51,0.51 0 0 1 -0.15,-0.38 v -3.44 h -1.1 q -0.5,0 -0.5,-0.44 0,-0.44 0.5,-0.43 h 3.26 q 0.5,0 0.5,0.43 0,0.43 -0.5,0.44 h -1.1 v 3.44 a 0.51,0.51 0 0 1 -0.14,0.38 0.59,0.59 0 0 1 -0.77,0 z"
         transform="translate(60.01)"
         style="fill:#fff7d4;fill-opacity:1"
         id="path60" />
    </g>
    <g
       id="g72"
       transform="translate(0,6)"
       style="fill:#fff7d4;fill-opacity:1">
      <path
         inkscape:connector-curvature="0"
         d="m 53.31,226.07 c 0,0.27 -0.17,0.41 -0.5,0.41 h -0.25 v 0.39 a 0.52,0.52 0 1 1 -1,0 v -0.39 h -1.69 a 0.44,0.44 0 0 1 -0.33,-0.12 0.44,0.44 0 0 1 -0.12,-0.32 0.68,0.68 0 0 1 0.13,-0.38 l 2,-2.9 a 0.53,0.53 0 0 1 0.2,-0.17 0.61,0.61 0 0 1 0.26,-0.06 0.54,0.54 0 0 1 0.37,0.14 0.49,0.49 0 0 1 0.16,0.38 v 2.62 h 0.25 c 0.35,0 0.52,0.13 0.52,0.4 z m -2.82,-0.4 h 1 v -1.5 z"
         transform="translate(60.01)"
         style="fill:#fff7d4;fill-opacity:1"
         id="path64" />
      <path
         inkscape:connector-curvature="0"
         d="m 38.55,216.78 a 1.19,1.19 0 0 1 0.23,0.74 1.22,1.22 0 0 1 -0.21,0.72 1.36,1.36 0 0 1 -0.62,0.47 2.41,2.41 0 0 1 -0.93,0.17 2.77,2.77 0 0 1 -0.85,-0.13 2.2,2.2 0 0 1 -0.7,-0.36 0.46,0.46 0 0 1 -0.15,-0.16 0.45,0.45 0 0 1 0,-0.2 0.46,0.46 0 0 1 0.1,-0.3 0.3,0.3 0 0 1 0.24,-0.13 h 0.15 l 0.17,0.08 a 4.53,4.53 0 0 0 0.52,0.26 1.35,1.35 0 0 0 0.5,0.06 1,1 0 0 0 0.61,-0.15 0.58,0.58 0 0 0 0.19,-0.48 0.54,0.54 0 0 0 -0.2,-0.46 1.1,1.1 0 0 0 -0.63,-0.14 h -0.4 a 0.34,0.34 0 0 1 -0.28,-0.12 0.44,0.44 0 0 1 -0.1,-0.29 0.43,0.43 0 0 1 0.1,-0.29 0.34,0.34 0 0 1 0.28,-0.12 h 0.29 a 1.06,1.06 0 0 0 0.62,-0.14 0.5,0.5 0 0 0 0.2,-0.44 0.58,0.58 0 0 0 -0.17,-0.45 0.67,0.67 0 0 0 -0.48,-0.16 1.23,1.23 0 0 0 -0.47,0.09 3.82,3.82 0 0 0 -0.5,0.26 l -0.17,0.08 h -0.15 a 0.31,0.31 0 0 1 -0.25,-0.13 0.46,0.46 0 0 1 -0.1,-0.3 0.44,0.44 0 0 1 0,-0.21 0.47,0.47 0 0 1 0.15,-0.16 2.1,2.1 0 0 1 0.68,-0.36 2.62,2.62 0 0 1 0.78,-0.03 2.12,2.12 0 0 1 0.85,0.16 1.28,1.28 0 0 1 0.56,0.45 1.19,1.19 0 0 1 0.2,0.68 1.15,1.15 0 0 1 -0.2,0.68 1.13,1.13 0 0 1 -0.55,0.42 1.2,1.2 0 0 1 0.69,0.39 z"
         transform="translate(60.01)"
         style="fill:#fff7d4;fill-opacity:1"
         id="path66" />
      <path
         inkscape:connector-curvature="0"
         d="m 24.7,218.17 q 0,0.43 -0.5,0.43 h -2.53 a 0.45,0.45 0 0 1 -0.34,-0.13 0.43,0.43 0 0 1 -0.13,-0.32 0.63,0.63 0 0 1 0.2,-0.45 l 1.5,-1.58 a 1.5,1.5 0 0 0 0.5,-1 0.55,0.55 0 0 0 -0.16,-0.42 0.64,0.64 0 0 0 -0.46,-0.15 1.24,1.24 0 0 0 -0.48,0.09 3.79,3.79 0 0 0 -0.5,0.26 l -0.18,0.1 a 0.36,0.36 0 0 1 -0.14,0 0.3,0.3 0 0 1 -0.24,-0.13 0.49,0.49 0 0 1 -0.1,-0.31 0.46,0.46 0 0 1 0,-0.21 0.43,0.43 0 0 1 0.15,-0.15 2.56,2.56 0 0 1 0.7,-0.36 2.53,2.53 0 0 1 0.8,-0.13 2,2 0 0 1 0.85,0.16 1.26,1.26 0 0 1 0.56,0.47 1.25,1.25 0 0 1 0.2,0.7 1.72,1.72 0 0 1 -0.17,0.77 3.39,3.39 0 0 1 -0.58,0.79 l -1.07,1.12 h 1.62 q 0.5,0.03 0.5,0.45 z"
         transform="translate(60.01)"
         style="fill:#fff7d4;fill-opacity:1"
         id="path68" />
      <path
         inkscape:connector-curvature="0"
         d="m 10.58,226.93 q 0,0.43 -0.5,0.43 H 7.76 q -0.5,0 -0.5,-0.43 0,-0.43 0.5,-0.42 h 0.63 v -2.78 l -0.6,0.36 A 0.39,0.39 0 0 1 7.59,224.15 0.36,0.36 0 0 1 7.3,224 0.49,0.49 0 0 1 7.18,223.68 0.39,0.39 0 0 1 7.39,223.32 l 1.07,-0.65 a 0.92,0.92 0 0 1 0.48,-0.14 0.49,0.49 0 0 1 0.51,0.52 v 3.45 h 0.63 q 0.5,0.01 0.5,0.43 z"
         transform="translate(60.01)"
         style="fill:#fff7d4;fill-opacity:1"
         id="path70" />
    </g>
    <g
       id="g140"
       transform="translate(-2.751883e-8,4)"
       style="fill:#fff7d4;fill-opacity:1">
      <path
         inkscape:connector-curvature="0"
         d="m 8.18,310.47 q 0,0.43 -0.5,0.43 H 5.36 q -0.5,0 -0.5,-0.43 0,-0.43 0.5,-0.42 H 6 v -2.78 l -0.6,0.36 A 0.39,0.39 0 0 1 5.2,307.69 0.36,0.36 0 0 1 4.91,307.55 0.49,0.49 0 0 1 4.79,307.23 0.39,0.39 0 0 1 5,306.87 l 1.07,-0.65 a 0.92,0.92 0 0 1 0.48,-0.14 0.49,0.49 0 0 1 0.51,0.52 v 3.4 h 0.63 q 0.49,0 0.49,0.47 z"
         transform="translate(60.01)"
         style="fill:#fff7d4;fill-opacity:1"
         id="path74" />
      <path
         inkscape:connector-curvature="0"
         d="m 9.47,308.49 a 0.62,0.62 0 0 1 0,-0.84 0.6,0.6 0 0 1 0.83,0 0.62,0.62 0 0 1 0,0.84 0.6,0.6 0 0 1 -0.83,0 z m 0,2.28 a 0.62,0.62 0 0 1 0,-0.84 0.6,0.6 0 0 1 0.83,0 0.62,0.62 0 0 1 0,0.84 0.6,0.6 0 0 1 -0.83,0 z"
         transform="translate(60.01)"
         style="fill:#fff7d4;fill-opacity:1"
         id="path76" />
      <path
         inkscape:connector-curvature="0"
         d="m 14.37,309.07 q 0,-0.4 0.48,-0.4 h 1.33 q 0.48,0 0.48,0.4 c 0,0.27 -0.16,0.4 -0.48,0.4 h -1.32 c -0.33,0 -0.49,-0.13 -0.49,-0.4 z"
         transform="translate(60.01)"
         style="fill:#fff7d4;fill-opacity:1"
         id="path78" />
      <path
         inkscape:connector-curvature="0"
         d="m 20.82,308 a 1.35,1.35 0 0 1 0.54,0.54 1.64,1.64 0 0 1 0.19,0.8 1.59,1.59 0 0 1 -0.22,0.84 1.53,1.53 0 0 1 -0.63,0.57 2.05,2.05 0 0 1 -0.94,0.2 2.67,2.67 0 0 1 -0.82,-0.13 2.18,2.18 0 0 1 -0.69,-0.36 0.43,0.43 0 0 1 -0.14,-0.16 0.52,0.52 0 0 1 0.06,-0.51 0.3,0.3 0 0 1 0.24,-0.13 h 0.15 l 0.18,0.08 a 3.77,3.77 0 0 0 0.5,0.25 1.27,1.27 0 0 0 0.49,0.09 0.92,0.92 0 0 0 0.63,-0.19 0.83,0.83 0 0 0 0,-1.12 0.84,0.84 0 0 0 -0.59,-0.2 1.46,1.46 0 0 0 -0.42,0.06 1.87,1.87 0 0 0 -0.41,0.19 0.58,0.58 0 0 1 -0.29,0.08 0.4,0.4 0 0 1 -0.28,-0.1 0.33,0.33 0 0 1 -0.11,-0.26 v -2 a 0.45,0.45 0 0 1 0.5,-0.5 h 2.19 q 0.5,0 0.5,0.4 0,0.4 -0.5,0.41 H 19.26 V 308 a 1.54,1.54 0 0 1 0.77,-0.18 1.59,1.59 0 0 1 0.79,0.18 z"
         transform="translate(60.01)"
         style="fill:#fff7d4;fill-opacity:1"
         id="path80" />
      <path
         inkscape:connector-curvature="0"
         d="m 26.58,306.13 a 0.48,0.48 0 0 1 0.26,-0.07 0.56,0.56 0 0 1 0.37,0.14 0.42,0.42 0 0 1 0.16,0.33 0.48,0.48 0 0 1 0,0.2 l -1.84,3.88 a 0.54,0.54 0 0 1 -0.22,0.24 0.66,0.66 0 0 1 -0.65,0 0.53,0.53 0 0 1 -0.22,-0.24 l -1.84,-3.88 a 0.43,0.43 0 0 1 0,-0.2 0.42,0.42 0 0 1 0.17,-0.34 0.59,0.59 0 0 1 0.38,-0.14 0.5,0.5 0 0 1 0.26,0.07 0.45,0.45 0 0 1 0.18,0.21 l 1.46,3.18 1.46,-3.18 a 0.45,0.45 0 0 1 0.07,-0.2 z"
         transform="translate(60.01)"
         style="fill:#fff7d4;fill-opacity:1"
         id="path82" />
      <path
         inkscape:connector-curvature="0"
         d="m 31.24,311.33 a 0.41,0.41 0 0 1 -0.24,0.07 0.42,0.42 0 0 1 -0.28,-0.11 0.34,0.34 0 0 1 -0.12,-0.27 0.56,0.56 0 0 1 0,-0.14 l 1.56,-4.9 a 0.4,0.4 0 0 1 0.15,-0.21 0.39,0.39 0 0 1 0.23,-0.07 0.42,0.42 0 0 1 0.29,0.11 0.34,0.34 0 0 1 0.12,0.27 0.54,0.54 0 0 1 0,0.14 l -1.56,4.9 a 0.37,0.37 0 0 1 -0.15,0.21 z"
         transform="translate(60.01)"
         style="fill:#fff7d4;fill-opacity:1"
         id="path84" />
      <path
         inkscape:connector-curvature="0"
         d="m 39.29,308 a 1.35,1.35 0 0 1 0.54,0.54 1.64,1.64 0 0 1 0.19,0.8 1.59,1.59 0 0 1 -0.22,0.84 1.53,1.53 0 0 1 -0.63,0.57 2.05,2.05 0 0 1 -0.93,0.2 2.68,2.68 0 0 1 -0.82,-0.13 2.17,2.17 0 0 1 -0.69,-0.36 0.42,0.42 0 0 1 -0.14,-0.16 0.52,0.52 0 0 1 0.06,-0.51 0.3,0.3 0 0 1 0.24,-0.13 h 0.15 l 0.18,0.08 a 3.78,3.78 0 0 0 0.5,0.25 1.27,1.27 0 0 0 0.49,0.09 0.92,0.92 0 0 0 0.63,-0.19 0.83,0.83 0 0 0 0,-1.12 0.84,0.84 0 0 0 -0.59,-0.2 1.46,1.46 0 0 0 -0.42,0.06 1.87,1.87 0 0 0 -0.42,0.19 0.58,0.58 0 0 1 -0.29,0.08 0.4,0.4 0 0 1 -0.28,-0.1 0.33,0.33 0 0 1 -0.11,-0.26 v -2 a 0.45,0.45 0 0 1 0.5,-0.5 h 2.19 q 0.5,0 0.5,0.4 0,0.4 -0.5,0.41 H 37.74 V 308 a 1.54,1.54 0 0 1 0.77,-0.18 1.59,1.59 0 0 1 0.78,0.18 z"
         transform="translate(60.01)"
         style="fill:#fff7d4;fill-opacity:1"
         id="path86" />
      <path
         inkscape:connector-curvature="0"
         d="m 45.05,306.13 a 0.48,0.48 0 0 1 0.26,-0.07 0.56,0.56 0 0 1 0.37,0.14 0.42,0.42 0 0 1 0.16,0.33 0.47,0.47 0 0 1 0,0.2 L 44,310.61 a 0.54,0.54 0 0 1 -0.22,0.24 0.66,0.66 0 0 1 -0.65,0 0.54,0.54 0 0 1 -0.22,-0.24 L 41,306.73 a 0.44,0.44 0 0 1 0,-0.2 0.42,0.42 0 0 1 0.17,-0.34 0.59,0.59 0 0 1 0.38,-0.14 0.5,0.5 0 0 1 0.26,0.07 0.45,0.45 0 0 1 0.18,0.21 l 1.46,3.18 1.46,-3.18 a 0.45,0.45 0 0 1 0.14,-0.2 z"
         transform="translate(60.01)"
         style="fill:#fff7d4;fill-opacity:1"
         id="path88" />
      <path
         inkscape:connector-curvature="0"
         d="m 8.09,318.63 q 0,0.43 -0.5,0.43 H 5.06 a 0.45,0.45 0 0 1 -0.34,-0.13 0.43,0.43 0 0 1 -0.13,-0.32 0.63,0.63 0 0 1 0.2,-0.45 l 1.5,-1.58 a 1.5,1.5 0 0 0 0.5,-1 0.55,0.55 0 0 0 -0.16,-0.42 0.64,0.64 0 0 0 -0.46,-0.15 1.24,1.24 0 0 0 -0.48,0.09 3.79,3.79 0 0 0 -0.5,0.26 l -0.18,0.1 a 0.36,0.36 0 0 1 -0.14,0 0.3,0.3 0 0 1 -0.24,-0.13 0.49,0.49 0 0 1 -0.1,-0.31 0.46,0.46 0 0 1 0,-0.21 0.43,0.43 0 0 1 0.15,-0.15 2.56,2.56 0 0 1 0.7,-0.36 2.53,2.53 0 0 1 0.8,-0.13 2,2 0 0 1 0.85,0.16 1.26,1.26 0 0 1 0.56,0.47 1.25,1.25 0 0 1 0.2,0.7 1.72,1.72 0 0 1 -0.17,0.77 3.39,3.39 0 0 1 -0.58,0.79 L 6,318.21 h 1.59 q 0.5,0 0.5,0.42 z"
         transform="translate(60.01)"
         style="fill:#fff7d4;fill-opacity:1"
         id="path90" />
      <path
         inkscape:connector-curvature="0"
         d="m 9.48,316.65 a 0.62,0.62 0 0 1 0,-0.84 0.6,0.6 0 0 1 0.83,0 0.62,0.62 0 0 1 0,0.84 0.6,0.6 0 0 1 -0.83,0 z m 0,2.28 a 0.62,0.62 0 0 1 0,-0.84 0.6,0.6 0 0 1 0.83,0 0.62,0.62 0 0 1 0,0.84 0.6,0.6 0 0 1 -0.83,0 z"
         transform="translate(60.01)"
         style="fill:#fff7d4;fill-opacity:1"
         id="path92" />
      <path
         inkscape:connector-curvature="0"
         d="m 14.74,318.48 a 3.86,3.86 0 0 1 0,-3.65 1.54,1.54 0 0 1 1.33,-0.63 1.54,1.54 0 0 1 1.33,0.63 3.86,3.86 0 0 1 0,3.65 1.54,1.54 0 0 1 -1.33,0.63 1.54,1.54 0 0 1 -1.33,-0.63 z m 1.9,-0.57 a 4.48,4.48 0 0 0 0,-2.52 0.62,0.62 0 0 0 -1.15,0 4.47,4.47 0 0 0 0,2.51 0.62,0.62 0 0 0 1.15,0 z"
         transform="translate(60.01)"
         style="fill:#fff7d4;fill-opacity:1"
         id="path94" />
      <path
         inkscape:connector-curvature="0"
         d="m 22.91,314.29 a 0.48,0.48 0 0 1 0.26,-0.07 0.56,0.56 0 0 1 0.37,0.14 0.42,0.42 0 0 1 0.16,0.33 0.48,0.48 0 0 1 0,0.2 l -1.84,3.88 a 0.54,0.54 0 0 1 -0.22,0.24 0.67,0.67 0 0 1 -0.65,0 0.53,0.53 0 0 1 -0.22,-0.24 l -1.84,-3.88 a 0.44,0.44 0 0 1 0,-0.2 0.42,0.42 0 0 1 0.17,-0.34 0.59,0.59 0 0 1 0.38,-0.14 0.5,0.5 0 0 1 0.26,0.07 0.44,0.44 0 0 1 0.18,0.21 l 1.46,3.18 1.46,-3.18 a 0.45,0.45 0 0 1 0.07,-0.2 z"
         transform="translate(60.01)"
         style="fill:#fff7d4;fill-opacity:1"
         id="path96" />
      <path
         inkscape:connector-curvature="0"
         d="m 27.58,319.49 a 0.41,0.41 0 0 1 -0.23,0.07 0.42,0.42 0 0 1 -0.28,-0.1 0.34,0.34 0 0 1 -0.12,-0.27 0.56,0.56 0 0 1 0,-0.14 l 1.56,-4.9 a 0.39,0.39 0 0 1 0.38,-0.29 0.42,0.42 0 0 1 0.29,0.11 0.34,0.34 0 0 1 0.12,0.27 0.54,0.54 0 0 1 0,0.14 l -1.56,4.9 a 0.37,0.37 0 0 1 -0.16,0.21 z"
         transform="translate(60.01)"
         style="fill:#fff7d4;fill-opacity:1"
         id="path98" />
      <path
         inkscape:connector-curvature="0"
         d="m 33.05,316.15 a 1.36,1.36 0 0 1 0.54,0.54 1.64,1.64 0 0 1 0.19,0.8 1.59,1.59 0 0 1 -0.22,0.84 1.52,1.52 0 0 1 -0.63,0.57 2.05,2.05 0 0 1 -0.93,0.2 2.68,2.68 0 0 1 -0.82,-0.13 2.2,2.2 0 0 1 -0.69,-0.36 0.44,0.44 0 0 1 -0.14,-0.16 0.52,0.52 0 0 1 0.06,-0.51 0.3,0.3 0 0 1 0.24,-0.13 h 0.15 l 0.18,0.08 a 3.55,3.55 0 0 0 0.5,0.25 1.27,1.27 0 0 0 0.49,0.09 0.92,0.92 0 0 0 0.63,-0.19 0.83,0.83 0 0 0 0,-1.12 0.84,0.84 0 0 0 -0.59,-0.2 1.43,1.43 0 0 0 -0.42,0.06 1.82,1.82 0 0 0 -0.42,0.19 0.57,0.57 0 0 1 -0.29,0.08 0.4,0.4 0 0 1 -0.28,-0.1 0.33,0.33 0 0 1 -0.11,-0.26 v -2 a 0.45,0.45 0 0 1 0.5,-0.5 h 2.19 q 0.5,0 0.5,0.4 0,0.4 -0.5,0.41 H 31.5 v 1.07 a 1.55,1.55 0 0 1 0.77,-0.18 1.59,1.59 0 0 1 0.78,0.26 z"
         transform="translate(60.01)"
         style="fill:#fff7d4;fill-opacity:1"
         id="path100" />
      <path
         inkscape:connector-curvature="0"
         d="m 38.81,314.29 a 0.48,0.48 0 0 1 0.26,-0.07 0.56,0.56 0 0 1 0.37,0.14 0.42,0.42 0 0 1 0.16,0.33 0.49,0.49 0 0 1 0,0.2 l -1.84,3.88 a 0.54,0.54 0 0 1 -0.22,0.24 0.67,0.67 0 0 1 -0.65,0 0.53,0.53 0 0 1 -0.22,-0.24 l -1.84,-3.88 a 0.43,0.43 0 0 1 0,-0.2 0.42,0.42 0 0 1 0.17,-0.34 0.59,0.59 0 0 1 0.38,-0.14 0.5,0.5 0 0 1 0.26,0.07 0.44,0.44 0 0 1 0.18,0.21 l 1.46,3.18 1.46,-3.18 a 0.45,0.45 0 0 1 0.07,-0.2 z"
         transform="translate(60.01)"
         style="fill:#fff7d4;fill-opacity:1"
         id="path102" />
      <path
         inkscape:connector-curvature="0"
         d="m 7.73,325.17 a 1.19,1.19 0 0 1 0.23,0.74 1.22,1.22 0 0 1 -0.21,0.72 1.36,1.36 0 0 1 -0.62,0.47 2.41,2.41 0 0 1 -0.93,0.17 2.77,2.77 0 0 1 -0.85,-0.13 2.19,2.19 0 0 1 -0.7,-0.36 0.46,0.46 0 0 1 -0.15,-0.16 0.45,0.45 0 0 1 0,-0.2 0.46,0.46 0 0 1 0.1,-0.3 0.31,0.31 0 0 1 0.24,-0.13 L 5,326 l 0.17,0.08 a 4.53,4.53 0 0 0 0.52,0.26 1.36,1.36 0 0 0 0.51,0.09 1,1 0 0 0 0.61,-0.15 A 0.58,0.58 0 0 0 7,325.8 0.53,0.53 0 0 0 6.8,325.34 1.1,1.1 0 0 0 6.17,325.2 h -0.4 a 0.34,0.34 0 0 1 -0.28,-0.12 0.45,0.45 0 0 1 -0.1,-0.29 0.43,0.43 0 0 1 0.1,-0.29 0.34,0.34 0 0 1 0.28,-0.12 H 6 a 1.06,1.06 0 0 0 0.62,-0.14 0.5,0.5 0 0 0 0.2,-0.44 0.58,0.58 0 0 0 -0.17,-0.45 0.67,0.67 0 0 0 -0.48,-0.16 1.22,1.22 0 0 0 -0.47,0.09 3.79,3.79 0 0 0 -0.5,0.26 l -0.17,0.08 H 4.88 a 0.31,0.31 0 0 1 -0.24,-0.13 0.46,0.46 0 0 1 -0.1,-0.3 0.44,0.44 0 0 1 0,-0.21 0.48,0.48 0 0 1 0.15,-0.16 2.1,2.1 0 0 1 0.68,-0.36 2.62,2.62 0 0 1 0.81,-0.13 2.11,2.11 0 0 1 0.85,0.16 1.27,1.27 0 0 1 0.56,0.45 1.19,1.19 0 0 1 0.2,0.68 1.15,1.15 0 0 1 -0.2,0.68 1.13,1.13 0 0 1 -0.55,0.42 1.2,1.2 0 0 1 0.69,0.45 z"
         transform="translate(60.01)"
         style="fill:#fff7d4;fill-opacity:1"
         id="path104" />
      <path
         inkscape:connector-curvature="0"
         d="m 9.47,324.81 a 0.62,0.62 0 0 1 0,-0.84 0.6,0.6 0 0 1 0.83,0 0.62,0.62 0 0 1 0,0.84 0.6,0.6 0 0 1 -0.83,0 z m 0,2.28 a 0.62,0.62 0 0 1 0,-0.84 0.6,0.6 0 0 1 0.83,0 0.62,0.62 0 0 1 0,0.84 0.6,0.6 0 0 1 -0.83,0 z"
         transform="translate(60.01)"
         style="fill:#fff7d4;fill-opacity:1"
         id="path106" />
      <path
         inkscape:connector-curvature="0"
         d="m 14.37,325.39 q 0,-0.4 0.48,-0.4 h 1.33 q 0.48,0 0.48,0.4 0,0.4 -0.48,0.4 h -1.32 q -0.49,0 -0.49,-0.4 z"
         transform="translate(60.01)"
         style="fill:#fff7d4;fill-opacity:1"
         id="path108" />
      <path
         inkscape:connector-curvature="0"
         d="m 21.64,326.79 q 0,0.43 -0.5,0.43 h -2.33 q -0.5,0 -0.5,-0.43 0,-0.43 0.5,-0.42 h 0.63 v -2.78 l -0.6,0.36 a 0.39,0.39 0 0 1 -0.2,0.06 0.36,0.36 0 0 1 -0.29,-0.14 0.48,0.48 0 0 1 -0.12,-0.32 0.39,0.39 0 0 1 0.21,-0.36 l 1.07,-0.65 a 0.92,0.92 0 0 1 0.48,-0.14 0.49,0.49 0 0 1 0.51,0.52 v 3.45 h 0.63 q 0.51,0 0.51,0.42 z"
         transform="translate(60.01)"
         style="fill:#fff7d4;fill-opacity:1"
         id="path110" />
      <path
         inkscape:connector-curvature="0"
         d="m 23.17,326.64 a 3.86,3.86 0 0 1 0,-3.65 1.71,1.71 0 0 1 2.66,0 3.86,3.86 0 0 1 0,3.65 1.71,1.71 0 0 1 -2.66,0 z m 1.9,-0.57 a 4.48,4.48 0 0 0 0,-2.52 0.62,0.62 0 0 0 -1.15,0 4.47,4.47 0 0 0 0,2.51 0.62,0.62 0 0 0 1.15,0 z"
         transform="translate(60.01)"
         style="fill:#fff7d4;fill-opacity:1"
         id="path112" />
      <path
         inkscape:connector-curvature="0"
         d="m 31.34,322.45 a 0.48,0.48 0 0 1 0.26,-0.07 0.56,0.56 0 0 1 0.37,0.14 0.42,0.42 0 0 1 0.16,0.33 0.47,0.47 0 0 1 0,0.2 l -1.84,3.88 a 0.54,0.54 0 0 1 -0.22,0.24 0.67,0.67 0 0 1 -0.65,0 0.53,0.53 0 0 1 -0.22,-0.24 l -1.84,-3.88 a 0.44,0.44 0 0 1 0,-0.2 0.42,0.42 0 0 1 0.17,-0.34 0.59,0.59 0 0 1 0.38,-0.14 0.5,0.5 0 0 1 0.26,0.07 0.44,0.44 0 0 1 0.18,0.21 l 1.46,3.18 1.46,-3.18 a 0.45,0.45 0 0 1 0.07,-0.2 z"
         transform="translate(60.01)"
         style="fill:#fff7d4;fill-opacity:1"
         id="path114" />
      <path
         inkscape:connector-curvature="0"
         d="m 36,327.65 a 0.41,0.41 0 0 1 -0.23,0.07 0.42,0.42 0 0 1 -0.28,-0.1 0.34,0.34 0 0 1 -0.12,-0.27 0.54,0.54 0 0 1 0,-0.14 l 1.56,-4.9 a 0.4,0.4 0 0 1 0.15,-0.21 0.4,0.4 0 0 1 0.23,-0.07 0.43,0.43 0 0 1 0.29,0.11 0.34,0.34 0 0 1 0.12,0.27 0.54,0.54 0 0 1 0,0.14 l -1.56,4.9 a 0.37,0.37 0 0 1 -0.16,0.2 z"
         transform="translate(60.01)"
         style="fill:#fff7d4;fill-opacity:1"
         id="path116" />
      <path
         inkscape:connector-curvature="0"
         d="m 44.87,326.79 q 0,0.43 -0.5,0.43 H 42 q -0.5,0 -0.5,-0.43 0,-0.43 0.5,-0.42 h 0.63 v -2.78 l -0.6,0.36 a 0.4,0.4 0 0 1 -0.2,0.06 0.36,0.36 0 0 1 -0.29,-0.14 0.48,0.48 0 0 1 -0.12,-0.32 0.39,0.39 0 0 1 0.21,-0.36 l 1.07,-0.65 a 0.91,0.91 0 0 1 0.48,-0.14 0.49,0.49 0 0 1 0.51,0.52 v 3.45 h 0.63 q 0.55,0 0.55,0.42 z"
         transform="translate(60.01)"
         style="fill:#fff7d4;fill-opacity:1"
         id="path118" />
      <path
         inkscape:connector-curvature="0"
         d="m 46.4,326.64 a 3.86,3.86 0 0 1 0,-3.65 1.71,1.71 0 0 1 2.66,0 3.86,3.86 0 0 1 0,3.65 1.71,1.71 0 0 1 -2.66,0 z m 1.9,-0.57 a 4.49,4.49 0 0 0 0,-2.52 0.62,0.62 0 0 0 -1.15,0 4.46,4.46 0 0 0 0,2.51 0.62,0.62 0 0 0 1.15,0 z"
         transform="translate(60.01)"
         style="fill:#fff7d4;fill-opacity:1"
         id="path120" />
      <path
         inkscape:connector-curvature="0"
         d="m 54.57,322.45 a 0.48,0.48 0 0 1 0.26,-0.07 0.56,0.56 0 0 1 0.37,0.14 0.42,0.42 0 0 1 0.16,0.33 0.47,0.47 0 0 1 0,0.2 l -1.84,3.88 a 0.54,0.54 0 0 1 -0.22,0.24 0.67,0.67 0 0 1 -0.65,0 0.54,0.54 0 0 1 -0.22,-0.24 l -1.84,-3.88 a 0.44,0.44 0 0 1 0,-0.2 0.42,0.42 0 0 1 0.17,-0.34 0.59,0.59 0 0 1 0.38,-0.14 0.5,0.5 0 0 1 0.26,0.07 0.44,0.44 0 0 1 0.18,0.21 l 1.46,3.18 1.46,-3.18 a 0.45,0.45 0 0 1 0.07,-0.2 z"
         transform="translate(60.01)"
         style="fill:#fff7d4;fill-opacity:1"
         id="path122" />
      <path
         inkscape:connector-curvature="0"
         d="m 8.27,334.09 q 0,0.41 -0.5,0.41 H 7.53 v 0.39 a 0.52,0.52 0 1 1 -1,0 V 334.5 H 4.84 a 0.44,0.44 0 0 1 -0.33,-0.13 0.44,0.44 0 0 1 -0.12,-0.32 0.68,0.68 0 0 1 0.13,-0.38 l 2,-2.9 a 0.51,0.51 0 0 1 0.2,-0.17 0.59,0.59 0 0 1 0.26,-0.06 0.54,0.54 0 0 1 0.37,0.14 0.49,0.49 0 0 1 0.16,0.38 v 2.62 h 0.25 q 0.51,0.01 0.51,0.41 z m -2.82,-0.4 h 1 v -1.5 z"
         transform="translate(60.01)"
         style="fill:#fff7d4;fill-opacity:1"
         id="path124" />
      <path
         inkscape:connector-curvature="0"
         d="m 9.47,333 a 0.62,0.62 0 0 1 0,-0.84 0.6,0.6 0 0 1 0.83,0 0.62,0.62 0 0 1 0,0.84 0.6,0.6 0 0 1 -0.83,0 z m 0,2.28 a 0.62,0.62 0 0 1 0,-0.84 0.6,0.6 0 0 1 0.83,0 0.62,0.62 0 0 1 0,0.84 0.6,0.6 0 0 1 -0.83,0 z"
         transform="translate(60.01)"
         style="fill:#fff7d4;fill-opacity:1"
         id="path126" />
      <path
         inkscape:connector-curvature="0"
         d="m 14.74,334.8 a 3.86,3.86 0 0 1 0,-3.65 1.54,1.54 0 0 1 1.33,-0.63 1.54,1.54 0 0 1 1.33,0.63 3.86,3.86 0 0 1 0,3.65 1.54,1.54 0 0 1 -1.33,0.63 1.54,1.54 0 0 1 -1.33,-0.63 z m 1.9,-0.57 a 4.48,4.48 0 0 0 0,-2.52 0.62,0.62 0 0 0 -1.15,0 4.47,4.47 0 0 0 0,2.51 0.62,0.62 0 0 0 1.15,0 z"
         transform="translate(60.01)"
         style="fill:#fff7d4;fill-opacity:1"
         id="path128" />
      <path
         inkscape:connector-curvature="0"
         d="m 22.91,330.61 a 0.48,0.48 0 0 1 0.26,-0.07 0.56,0.56 0 0 1 0.37,0.14 0.42,0.42 0 0 1 0.16,0.33 0.48,0.48 0 0 1 0,0.2 l -1.84,3.88 a 0.54,0.54 0 0 1 -0.22,0.24 0.67,0.67 0 0 1 -0.65,0 0.53,0.53 0 0 1 -0.22,-0.24 l -1.84,-3.88 a 0.44,0.44 0 0 1 0,-0.2 0.42,0.42 0 0 1 0.17,-0.34 0.59,0.59 0 0 1 0.38,-0.14 0.5,0.5 0 0 1 0.26,0.07 0.44,0.44 0 0 1 0.18,0.21 l 1.36,3.19 1.46,-3.18 a 0.45,0.45 0 0 1 0.17,-0.21 z"
         transform="translate(60.01)"
         style="fill:#fff7d4;fill-opacity:1"
         id="path130" />
      <path
         inkscape:connector-curvature="0"
         d="m 27.57,335.81 a 0.41,0.41 0 0 1 -0.23,0.07 0.42,0.42 0 0 1 -0.28,-0.1 0.34,0.34 0 0 1 -0.12,-0.27 0.56,0.56 0 0 1 0,-0.14 l 1.56,-4.9 a 0.39,0.39 0 0 1 0.38,-0.29 0.42,0.42 0 0 1 0.29,0.11 0.34,0.34 0 0 1 0.12,0.27 0.54,0.54 0 0 1 0,0.14 l -1.56,4.9 a 0.37,0.37 0 0 1 -0.16,0.21 z"
         transform="translate(60.01)"
         style="fill:#fff7d4;fill-opacity:1"
         id="path132" />
      <path
         inkscape:connector-curvature="0"
         d="m 36.44,334.95 q 0,0.43 -0.5,0.43 h -2.32 q -0.5,0 -0.5,-0.43 0,-0.43 0.5,-0.42 h 0.63 v -2.78 l -0.6,0.36 a 0.4,0.4 0 0 1 -0.2,0.06 0.36,0.36 0 0 1 -0.29,-0.14 0.48,0.48 0 0 1 -0.12,-0.32 0.39,0.39 0 0 1 0.21,-0.36 l 1.07,-0.65 a 0.91,0.91 0 0 1 0.48,-0.14 0.49,0.49 0 0 1 0.51,0.52 v 3.45 h 0.63 q 0.5,0 0.5,0.42 z"
         transform="translate(60.01)"
         style="fill:#fff7d4;fill-opacity:1"
         id="path134" />
      <path
         inkscape:connector-curvature="0"
         d="m 38,334.8 a 3.86,3.86 0 0 1 0,-3.65 1.71,1.71 0 0 1 2.66,0 3.86,3.86 0 0 1 0,3.65 1.71,1.71 0 0 1 -2.66,0 z m 1.9,-0.57 a 4.49,4.49 0 0 0 0,-2.52 0.62,0.62 0 0 0 -1.15,0 4.46,4.46 0 0 0 0,2.51 0.62,0.62 0 0 0 1.15,0 z"
         transform="translate(60.01)"
         style="fill:#fff7d4;fill-opacity:1"
         id="path136" />
      <path
         inkscape:connector-curvature="0"
         d="m 46.14,330.61 a 0.48,0.48 0 0 1 0.26,-0.07 0.56,0.56 0 0 1 0.37,0.14 0.42,0.42 0 0 1 0.16,0.33 0.49,0.49 0 0 1 0,0.2 L 45,335.09 a 0.54,0.54 0 0 1 -0.22,0.24 0.67,0.67 0 0 1 -0.65,0 0.53,0.53 0 0 1 -0.22,-0.24 l -1.84,-3.88 a 0.43,0.43 0 0 1 0,-0.2 0.42,0.42 0 0 1 0.17,-0.34 0.59,0.59 0 0 1 0.38,-0.14 0.5,0.5 0 0 1 0.26,0.07 0.44,0.44 0 0 1 0.18,0.21 L 44.51,334 46,330.83 a 0.45,0.45 0 0 1 0.14,-0.22 z"
         transform="translate(60.01)"
         style="fill:#fff7d4;fill-opacity:1"
         id="path138" />
    </g>
    <g
       id="g160"
       transform="translate(-0.22832412,3.0733032)"
       style="fill:#fff7d4;fill-opacity:1">
      <path
         inkscape:connector-curvature="0"
         d="m 16,97.06 a 3.9,3.9 0 0 1 0,-3.76 1.64,1.64 0 0 1 1.4,-0.65 1.64,1.64 0 0 1 1.4,0.65 3.89,3.89 0 0 1 0,3.76 1.64,1.64 0 0 1 -1.4,0.65 1.64,1.64 0 0 1 -1.4,-0.65 z m 1.88,-0.69 a 4.92,4.92 0 0 0 0,-2.39 0.5,0.5 0 0 0 -1,0 4.93,4.93 0 0 0 0,2.39 0.5,0.5 0 0 0 1,0 z"
         transform="translate(60.01)"
         style="fill:#fff7d4;fill-opacity:1"
         id="path150" />
      <path
         inkscape:connector-curvature="0"
         d="m 24.38,92.76 a 0.59,0.59 0 0 1 0.31,-0.08 0.71,0.71 0 0 1 0.46,0.16 0.5,0.5 0 0 1 0.2,0.41 0.55,0.55 0 0 1 -0.06,0.24 l -1.85,3.81 a 0.64,0.64 0 0 1 -0.27,0.29 0.81,0.81 0 0 1 -0.78,0 0.64,0.64 0 0 1 -0.27,-0.29 l -1.85,-3.82 a 0.53,0.53 0 0 1 -0.06,-0.24 0.5,0.5 0 0 1 0.21,-0.4 0.74,0.74 0 0 1 0.47,-0.16 0.61,0.61 0 0 1 0.31,0.08 0.54,0.54 0 0 1 0.22,0.25 l 1.38,3 1.37,-3 a 0.55,0.55 0 0 1 0.21,-0.25 z"
         transform="translate(60.01)"
         style="fill:#fff7d4;fill-opacity:1"
         id="path152" />
      <path
         inkscape:connector-curvature="0"
         d="m 29.48,98.12 a 0.48,0.48 0 0 1 -0.28,0.08 0.51,0.51 0 0 1 -0.34,-0.13 0.4,0.4 0 0 1 -0.15,-0.32 0.47,0.47 0 0 1 0,-0.16 l 1.59,-5 a 0.48,0.48 0 0 1 0.18,-0.25 0.46,0.46 0 0 1 0.27,-0.08 0.53,0.53 0 0 1 0.35,0.13 0.41,0.41 0 0 1 0.15,0.33 0.79,0.79 0 0 1 0,0.15 l -1.59,5 a 0.48,0.48 0 0 1 -0.18,0.25 z"
         transform="translate(60.01)"
         style="fill:#fff7d4;fill-opacity:1"
         id="path154" />
      <path
         inkscape:connector-curvature="0"
         d="m 37.88,94.62 a 1.42,1.42 0 0 1 0.55,0.56 1.69,1.69 0 0 1 0.2,0.83 1.65,1.65 0 0 1 -0.24,0.89 1.57,1.57 0 0 1 -0.67,0.6 2.28,2.28 0 0 1 -1,0.21 A 2.92,2.92 0 0 1 35.87,97.58 2.32,2.32 0 0 1 35.15,97.23 0.63,0.63 0 0 1 35,97 a 0.52,0.52 0 0 1 -0.05,-0.24 0.58,0.58 0 0 1 0.12,-0.37 0.36,0.36 0 0 1 0.29,-0.15 0.48,0.48 0 0 1 0.17,0 l 0.21,0.11 0.14,0.07 0.4,0.17 a 1.16,1.16 0 0 0 0.39,0.06 0.89,0.89 0 0 0 0.58,-0.16 0.61,0.61 0 0 0 0.19,-0.49 0.62,0.62 0 0 0 -0.2,-0.49 0.79,0.79 0 0 0 -0.55,-0.17 2,2 0 0 0 -0.38,0 2.47,2.47 0 0 0 -0.4,0.13 0.67,0.67 0 0 1 -0.31,0.08 0.49,0.49 0 0 1 -0.33,-0.12 0.38,0.38 0 0 1 -0.13,-0.3 v -1.9 a 0.61,0.61 0 0 1 0.15,-0.45 0.6,0.6 0 0 1 0.44,-0.15 h 2.17 q 0.61,0 0.61,0.48 0,0.48 -0.61,0.49 h -1.53 v 0.86 a 1.75,1.75 0 0 1 0.69,-0.13 1.61,1.61 0 0 1 0.82,0.29 z"
         transform="translate(60.01)"
         style="fill:#fff7d4;fill-opacity:1"
         id="path156" />
      <path
         inkscape:connector-curvature="0"
         d="m 43.73,92.76 a 0.59,0.59 0 0 1 0.31,-0.08 0.71,0.71 0 0 1 0.46,0.16 0.5,0.5 0 0 1 0.2,0.41 0.54,0.54 0 0 1 -0.06,0.24 l -1.85,3.81 a 0.65,0.65 0 0 1 -0.27,0.29 0.81,0.81 0 0 1 -0.78,0 0.64,0.64 0 0 1 -0.27,-0.29 l -1.85,-3.82 a 0.54,0.54 0 0 1 -0.06,-0.24 0.5,0.5 0 0 1 0.21,-0.4 0.74,0.74 0 0 1 0.47,-0.16 0.61,0.61 0 0 1 0.31,0.08 0.55,0.55 0 0 1 0.22,0.25 l 1.38,3 1.37,-3 a 0.56,0.56 0 0 1 0.21,-0.25 z"
         transform="translate(60.01)"
         style="fill:#fff7d4;fill-opacity:1"
         id="path158" />
    </g>
    <g
       id="g174"
       transform="translate(-0.21832412,5.426533)"
       style="fill:#fff7d4;fill-opacity:1">
      <path
         inkscape:connector-curvature="0"
         d="m 13.53,134.61 a 3.9,3.9 0 0 1 0,-3.76 1.64,1.64 0 0 1 1.4,-0.65 1.64,1.64 0 0 1 1.4,0.65 3.89,3.89 0 0 1 0,3.76 1.64,1.64 0 0 1 -1.4,0.65 1.64,1.64 0 0 1 -1.4,-0.65 z m 1.88,-0.69 a 4.92,4.92 0 0 0 0,-2.39 0.5,0.5 0 0 0 -1,0 4.93,4.93 0 0 0 0,2.39 0.5,0.5 0 0 0 1,0 z"
         transform="translate(60.01)"
         style="fill:#fff7d4;fill-opacity:1"
         id="path162" />
      <path
         inkscape:connector-curvature="0"
         d="m 21.93,130.31 a 0.59,0.59 0 0 1 0.31,-0.08 0.71,0.71 0 0 1 0.46,0.16 0.5,0.5 0 0 1 0.2,0.41 0.55,0.55 0 0 1 -0.06,0.24 L 21,134.85 a 0.64,0.64 0 0 1 -0.27,0.29 0.81,0.81 0 0 1 -0.78,0 0.64,0.64 0 0 1 -0.27,-0.29 L 17.81,131 a 0.53,0.53 0 0 1 -0.06,-0.24 0.5,0.5 0 0 1 0.21,-0.4 0.74,0.74 0 0 1 0.47,-0.16 0.61,0.61 0 0 1 0.31,0.08 0.54,0.54 0 0 1 0.22,0.25 l 1.38,3 1.37,-3 a 0.55,0.55 0 0 1 0.22,-0.22 z"
         transform="translate(60.01)"
         style="fill:#fff7d4;fill-opacity:1"
         id="path164" />
      <path
         inkscape:connector-curvature="0"
         d="m 27,135.67 a 0.48,0.48 0 0 1 -0.28,0.08 0.51,0.51 0 0 1 -0.34,-0.13 0.4,0.4 0 0 1 -0.15,-0.32 0.47,0.47 0 0 1 0,-0.16 l 1.59,-5 a 0.48,0.48 0 0 1 0.18,-0.25 0.46,0.46 0 0 1 0.27,-0.08 0.52,0.52 0 0 1 0.35,0.13 0.41,0.41 0 0 1 0.15,0.33 0.78,0.78 0 0 1 0,0.15 l -1.59,5 A 0.48,0.48 0 0 1 27,135.67 Z"
         transform="translate(60.01)"
         style="fill:#fff7d4;fill-opacity:1"
         id="path166" />
      <path
         inkscape:connector-curvature="0"
         d="m 36.22,134.3 a 0.47,0.47 0 0 1 0.15,0.38 q 0,0.52 -0.61,0.52 h -2.43 q -0.61,0 -0.61,-0.52 a 0.47,0.47 0 0 1 0.15,-0.38 0.7,0.7 0 0 1 0.46,-0.13 h 0.57 v -2.53 l -0.56,0.33 a 0.48,0.48 0 0 1 -0.25,0.07 0.42,0.42 0 0 1 -0.34,-0.17 0.59,0.59 0 0 1 -0.14,-0.38 0.47,0.47 0 0 1 0.25,-0.43 l 1.12,-0.65 a 1.18,1.18 0 0 1 0.58,-0.17 0.62,0.62 0 0 1 0.45,0.17 0.61,0.61 0 0 1 0.17,0.46 v 3.32 h 0.57 a 0.7,0.7 0 0 1 0.47,0.11 z"
         transform="translate(60.01)"
         style="fill:#fff7d4;fill-opacity:1"
         id="path168" />
      <path
         inkscape:connector-curvature="0"
         d="m 37.77,134.61 a 3.9,3.9 0 0 1 0,-3.76 1.83,1.83 0 0 1 2.8,0 3.1,3.1 0 0 1 0.49,1.88 3.13,3.13 0 0 1 -0.48,1.88 1.83,1.83 0 0 1 -2.8,0 z m 1.88,-0.69 a 4.94,4.94 0 0 0 0,-2.39 0.5,0.5 0 0 0 -1,0 4.92,4.92 0 0 0 0,2.39 0.5,0.5 0 0 0 1,0 z"
         transform="translate(60.01)"
         style="fill:#fff7d4;fill-opacity:1"
         id="path170" />
      <path
         inkscape:connector-curvature="0"
         d="m 46.18,130.31 a 0.59,0.59 0 0 1 0.31,-0.08 0.71,0.71 0 0 1 0.46,0.16 0.5,0.5 0 0 1 0.2,0.41 0.55,0.55 0 0 1 -0.06,0.24 l -1.85,3.82 a 0.64,0.64 0 0 1 -0.27,0.29 0.81,0.81 0 0 1 -0.78,0 0.64,0.64 0 0 1 -0.27,-0.29 L 42.06,131 a 0.53,0.53 0 0 1 -0.06,-0.24 0.5,0.5 0 0 1 0.21,-0.4 0.75,0.75 0 0 1 0.47,-0.16 0.61,0.61 0 0 1 0.31,0.08 0.54,0.54 0 0 1 0.22,0.25 l 1.38,3 1.37,-3 a 0.55,0.55 0 0 1 0.22,-0.22 z"
         transform="translate(60.01)"
         style="fill:#fff7d4;fill-opacity:1"
         id="path172" />
    </g>
    <g
       id="g188"
       transform="translate(-0.26984527)"
       style="fill:#fff7d4;fill-opacity:1">
      <path
         inkscape:connector-curvature="0"
         d="m 13.69,58.93 q 0,-0.48 0.58,-0.48 h 1.32 a 0.65,0.65 0 0 1 0.44,0.13 0.45,0.45 0 0 1 0.14,0.36 0.46,0.46 0 0 1 -0.14,0.36 0.64,0.64 0 0 1 -0.44,0.13 h -1.32 q -0.58,-0.01 -0.58,-0.5 z"
         transform="translate(60.01)"
         style="fill:#fff7d4;fill-opacity:1"
         id="path176" />
      <path
         inkscape:connector-curvature="0"
         d="m 20.44,57.79 a 1.42,1.42 0 0 1 0.55,0.56 1.69,1.69 0 0 1 0.2,0.83 1.65,1.65 0 0 1 -0.24,0.89 1.58,1.58 0 0 1 -0.67,0.6 2.28,2.28 0 0 1 -1,0.21 A 2.92,2.92 0 0 1 18.43,60.75 2.31,2.31 0 0 1 17.71,60.4 0.62,0.62 0 0 1 17.55,60.21 0.53,0.53 0 0 1 17.5,60 a 0.58,0.58 0 0 1 0.12,-0.37 0.36,0.36 0 0 1 0.29,-0.15 0.48,0.48 0 0 1 0.17,0 l 0.21,0.11 0.14,0.07 0.4,0.17 a 1.16,1.16 0 0 0 0.39,0.06 0.89,0.89 0 0 0 0.58,-0.16 0.61,0.61 0 0 0 0.19,-0.49 0.62,0.62 0 0 0 -0.2,-0.49 0.79,0.79 0 0 0 -0.55,-0.17 2,2 0 0 0 -0.38,0 2.47,2.47 0 0 0 -0.4,0.13 0.67,0.67 0 0 1 -0.31,0.08 0.49,0.49 0 0 1 -0.33,-0.12 0.39,0.39 0 0 1 -0.13,-0.3 v -1.9 a 0.61,0.61 0 0 1 0.15,-0.45 0.59,0.59 0 0 1 0.44,-0.15 h 2.17 q 0.61,0 0.61,0.48 0,0.48 -0.61,0.49 h -1.51 v 0.86 a 1.75,1.75 0 0 1 0.69,-0.13 1.61,1.61 0 0 1 0.81,0.22 z"
         transform="translate(60.01)"
         style="fill:#fff7d4;fill-opacity:1"
         id="path178" />
      <path
         inkscape:connector-curvature="0"
         d="m 26.29,55.93 a 0.59,0.59 0 0 1 0.31,-0.08 0.71,0.71 0 0 1 0.46,0.16 0.5,0.5 0 0 1 0.2,0.41 0.55,0.55 0 0 1 -0.06,0.24 l -1.85,3.82 a 0.64,0.64 0 0 1 -0.27,0.29 0.81,0.81 0 0 1 -0.78,0 0.64,0.64 0 0 1 -0.27,-0.29 l -1.85,-3.82 a 0.53,0.53 0 0 1 -0.06,-0.24 0.5,0.5 0 0 1 0.21,-0.4 0.74,0.74 0 0 1 0.47,-0.16 0.61,0.61 0 0 1 0.31,0.08 0.54,0.54 0 0 1 0.22,0.25 l 1.38,3 1.37,-3 a 0.55,0.55 0 0 1 0.21,-0.26 z"
         transform="translate(60.01)"
         style="fill:#fff7d4;fill-opacity:1"
         id="path180" />
      <path
         inkscape:connector-curvature="0"
         d="m 31.39,61.29 a 0.48,0.48 0 0 1 -0.28,0.08 0.51,0.51 0 0 1 -0.34,-0.13 0.4,0.4 0 0 1 -0.15,-0.32 0.47,0.47 0 0 1 0,-0.16 l 1.59,-5 a 0.48,0.48 0 0 1 0.18,-0.25 0.47,0.47 0 0 1 0.27,-0.08 0.52,0.52 0 0 1 0.35,0.13 0.41,0.41 0 0 1 0.15,0.33 0.76,0.76 0 0 1 0,0.15 l -1.59,5 a 0.48,0.48 0 0 1 -0.18,0.25 z"
         transform="translate(60.01)"
         style="fill:#fff7d4;fill-opacity:1"
         id="path182" />
      <path
         inkscape:connector-curvature="0"
         d="m 39.79,57.79 a 1.42,1.42 0 0 1 0.55,0.56 1.69,1.69 0 0 1 0.2,0.83 1.65,1.65 0 0 1 -0.24,0.89 1.57,1.57 0 0 1 -0.67,0.6 2.28,2.28 0 0 1 -1,0.21 2.92,2.92 0 0 1 -0.85,-0.13 2.32,2.32 0 0 1 -0.72,-0.35 0.63,0.63 0 0 1 -0.16,-0.19 0.52,0.52 0 0 1 -0.05,-0.24 0.58,0.58 0 0 1 0.12,-0.37 0.36,0.36 0 0 1 0.29,-0.15 0.48,0.48 0 0 1 0.17,0 l 0.21,0.11 0.14,0.07 0.4,0.17 a 1.16,1.16 0 0 0 0.39,0.06 0.89,0.89 0 0 0 0.58,-0.16 0.61,0.61 0 0 0 0.19,-0.49 0.62,0.62 0 0 0 -0.2,-0.49 0.79,0.79 0 0 0 -0.55,-0.17 2,2 0 0 0 -0.38,0 2.47,2.47 0 0 0 -0.4,0.13 0.67,0.67 0 0 1 -0.31,0.08 0.49,0.49 0 0 1 -0.33,-0.12 0.38,0.38 0 0 1 -0.13,-0.3 v -1.9 a 0.61,0.61 0 0 1 0.15,-0.45 0.6,0.6 0 0 1 0.44,-0.15 h 2.17 q 0.61,0 0.61,0.48 0,0.48 -0.61,0.49 h -1.51 v 0.86 a 1.75,1.75 0 0 1 0.69,-0.13 1.61,1.61 0 0 1 0.81,0.25 z"
         transform="translate(60.01)"
         style="fill:#fff7d4;fill-opacity:1"
         id="path184" />
      <path
         inkscape:connector-curvature="0"
         d="m 45.64,55.93 a 0.59,0.59 0 0 1 0.31,-0.08 0.71,0.71 0 0 1 0.46,0.16 0.5,0.5 0 0 1 0.2,0.41 0.55,0.55 0 0 1 -0.06,0.24 l -1.85,3.81 a 0.64,0.64 0 0 1 -0.27,0.29 0.81,0.81 0 0 1 -0.78,0 0.64,0.64 0 0 1 -0.27,-0.29 l -1.85,-3.82 a 0.53,0.53 0 0 1 -0.06,-0.24 0.5,0.5 0 0 1 0.21,-0.4 0.75,0.75 0 0 1 0.47,-0.16 0.61,0.61 0 0 1 0.31,0.08 0.54,0.54 0 0 1 0.22,0.25 l 1.38,3 1.37,-3 a 0.55,0.55 0 0 1 0.21,-0.25 z"
         transform="translate(60.01)"
         style="fill:#fff7d4;fill-opacity:1"
         id="path186" />
    </g>
    <g
       id="g204"
       transform="translate(-0.35060987,8.4997813)"
       style="fill:#fff7d4;fill-opacity:1">
      <path
         inkscape:connector-curvature="0"
         d="m 19.14,171.13 a 0.47,0.47 0 0 1 0.15,0.38 q 0,0.52 -0.61,0.52 h -2.43 q -0.61,0 -0.61,-0.52 a 0.47,0.47 0 0 1 0.15,-0.38 0.7,0.7 0 0 1 0.46,-0.13 h 0.57 v -2.53 l -0.56,0.33 a 0.48,0.48 0 0 1 -0.25,0.07 0.42,0.42 0 0 1 -0.34,-0.17 0.59,0.59 0 0 1 -0.14,-0.38 0.48,0.48 0 0 1 0.25,-0.43 l 1.12,-0.65 a 1.18,1.18 0 0 1 0.58,-0.17 0.62,0.62 0 0 1 0.45,0.17 0.61,0.61 0 0 1 0.17,0.46 v 3.3 h 0.57 a 0.7,0.7 0 0 1 0.47,0.13 z"
         transform="translate(60.01)"
         style="fill:#fff7d4;fill-opacity:1"
         id="path192" />
      <path
         inkscape:connector-curvature="0"
         d="m 24.2,167.14 a 0.59,0.59 0 0 1 0.31,-0.08 0.71,0.71 0 0 1 0.46,0.16 0.5,0.5 0 0 1 0.2,0.41 0.55,0.55 0 0 1 -0.06,0.24 l -1.85,3.82 A 0.64,0.64 0 0 1 23,172 a 0.81,0.81 0 0 1 -0.78,0 0.64,0.64 0 0 1 -0.27,-0.29 l -1.85,-3.82 a 0.53,0.53 0 0 1 -0.06,-0.24 0.5,0.5 0 0 1 0.21,-0.4 0.74,0.74 0 0 1 0.47,-0.16 0.61,0.61 0 0 1 0.31,0.08 0.54,0.54 0 0 1 0.22,0.25 l 1.38,3 1.37,-3 a 0.55,0.55 0 0 1 0.2,-0.28 z"
         transform="translate(60.01)"
         style="fill:#fff7d4;fill-opacity:1"
         id="path194" />
      <path
         inkscape:connector-curvature="0"
         d="m 26.46,172.5 a 0.48,0.48 0 0 1 -0.28,0.08 0.51,0.51 0 0 1 -0.34,-0.13 0.4,0.4 0 0 1 -0.15,-0.32 0.47,0.47 0 0 1 0,-0.16 l 1.59,-5 a 0.48,0.48 0 0 1 0.18,-0.25 0.46,0.46 0 0 1 0.27,-0.08 0.52,0.52 0 0 1 0.35,0.13 0.41,0.41 0 0 1 0.15,0.33 0.78,0.78 0 0 1 0,0.15 l -1.59,5 a 0.48,0.48 0 0 1 -0.18,0.25 z"
         transform="translate(60.01)"
         style="fill:#fff7d4;fill-opacity:1"
         id="path196" />
      <path
         inkscape:connector-curvature="0"
         d="m 30.31,171.78 a 2.12,2.12 0 0 1 -0.86,-0.88 3.13,3.13 0 0 1 0,-2.68 2.1,2.1 0 0 1 0.86,-0.88 2.95,2.95 0 0 1 2.63,0 2.08,2.08 0 0 1 0.85,0.88 2.86,2.86 0 0 1 0.3,1.34 2.83,2.83 0 0 1 -0.3,1.34 2.12,2.12 0 0 1 -0.86,0.88 2.91,2.91 0 0 1 -2.62,0 z m 2.19,-1.07 a 1.82,1.82 0 0 0 0.32,-1.15 1.79,1.79 0 0 0 -0.32,-1.15 1.17,1.17 0 0 0 -1.75,0 2.27,2.27 0 0 0 0,2.31 1.17,1.17 0 0 0 1.75,0 z"
         transform="translate(60.01)"
         style="fill:#fff7d4;fill-opacity:1"
         id="path198" />
      <path
         inkscape:connector-curvature="0"
         d="m 36.59,171.78 a 2.12,2.12 0 0 1 -0.86,-0.88 3.1,3.1 0 0 1 0,-2.68 2.13,2.13 0 0 1 0.86,-0.88 2.86,2.86 0 0 1 2.86,0.16 0.55,0.55 0 0 1 0.17,0.18 0.53,0.53 0 0 1 0.05,0.25 0.57,0.57 0 0 1 -0.12,0.37 0.37,0.37 0 0 1 -0.3,0.15 0.54,0.54 0 0 1 -0.19,0 l -0.2,-0.1 A 2,2 0 0 0 38.4,168.14 1.61,1.61 0 0 0 38,168 a 1.13,1.13 0 0 0 -0.93,0.37 2.29,2.29 0 0 0 0,2.28 1.12,1.12 0 0 0 0.93,0.37 1.26,1.26 0 0 0 0.41,-0.07 l 0.5,-0.21 0.22,-0.1 a 0.45,0.45 0 0 1 0.17,0 0.37,0.37 0 0 1 0.3,0.15 0.57,0.57 0 0 1 0.12,0.37 0.48,0.48 0 0 1 -0.22,0.43 2.86,2.86 0 0 1 -2.86,0.16 z"
         transform="translate(60.01)"
         style="fill:#fff7d4;fill-opacity:1"
         id="path200" />
      <path
         inkscape:connector-curvature="0"
         d="m 42.22,171.89 a 0.61,0.61 0 0 1 -0.18,-0.46 v -3.3 h -1 a 0.69,0.69 0 0 1 -0.46,-0.13 0.49,0.49 0 0 1 -0.15,-0.4 0.48,0.48 0 0 1 0.15,-0.39 0.7,0.7 0 0 1 0.46,-0.13 h 3.28 a 0.71,0.71 0 0 1 0.46,0.13 0.49,0.49 0 0 1 0.15,0.39 0.5,0.5 0 0 1 -0.15,0.4 0.69,0.69 0 0 1 -0.46,0.13 h -1 v 3.3 a 0.61,0.61 0 0 1 -0.18,0.46 0.74,0.74 0 0 1 -0.95,0 z"
         transform="translate(60.01)"
         style="fill:#fff7d4;fill-opacity:1"
         id="path202" />
    </g>
    <g
       id="g236"
       style="fill:#fff7d4;fill-opacity:1">
      <path
         inkscape:connector-curvature="0"
         d="m 14.89,34.22 a 0.68,0.68 0 0 1 -0.27,0.55 1,1 0 0 1 -1.07,0.11 0.9,0.9 0 0 1 -0.36,-0.34 L 11.6,32.19 A 1.42,1.42 0 0 0 11.17,31.74 1.1,1.1 0 0 0 10.59,31.6 h -1 V 34 A 0.94,0.94 0 0 1 9.34,34.68 0.89,0.89 0 0 1 8.67,34.93 0.87,0.87 0 0 1 7.77,34 v -6.69 a 0.79,0.79 0 0 1 0.88,-0.88 h 3 a 3.37,3.37 0 0 1 2.25,0.65 2.36,2.36 0 0 1 0.77,1.92 2.45,2.45 0 0 1 -0.54,1.62 2.59,2.59 0 0 1 -1.52,0.85 1.58,1.58 0 0 1 0.64,0.28 2.42,2.42 0 0 1 0.55,0.61 l 0.91,1.37 a 0.92,0.92 0 0 1 0.18,0.49 z m -2.34,-4.31 a 1.27,1.27 0 0 0 0,-1.77 1.93,1.93 0 0 0 -1.16,-0.28 h -1.8 v 2.33 h 1.79 a 1.9,1.9 0 0 0 1.17,-0.28 z"
         transform="translate(60.01)"
         style="fill:#fff7d4;fill-opacity:1"
         id="path222" />
      <path
         inkscape:connector-curvature="0"
         d="m 21.4,33.33 a 0.77,0.77 0 0 1 0.15,0.49 0.65,0.65 0 0 1 -0.12,0.38 1,1 0 0 1 -0.34,0.29 4.29,4.29 0 0 1 -0.95,0.35 4.05,4.05 0 0 1 -1,0.14 3.57,3.57 0 0 1 -1.67,-0.37 2.6,2.6 0 0 1 -1.1,-1.06 3.29,3.29 0 0 1 -0.37,-1.62 3.33,3.33 0 0 1 0.37,-1.6 2.73,2.73 0 0 1 1,-1.09 2.89,2.89 0 0 1 1.5,-0.39 2.75,2.75 0 0 1 1.41,0.35 2.42,2.42 0 0 1 0.94,1 3.31,3.31 0 0 1 0.34,1.53 0.58,0.58 0 0 1 -0.13,0.4 0.45,0.45 0 0 1 -0.35,0.14 h -3.34 a 1.6,1.6 0 0 0 0.43,1 1.42,1.42 0 0 0 1,0.32 2.14,2.14 0 0 0 0.62,-0.08 6,6 0 0 0 0.61,-0.23 l 0.32,-0.13 A 0.87,0.87 0 0 1 21,33.1 a 0.47,0.47 0 0 1 0.4,0.23 z m -3.28,-2.9 a 1.56,1.56 0 0 0 -0.37,1 h 2.32 a 1.57,1.57 0 0 0 -0.32,-1 1,1 0 0 0 -0.8,-0.32 1.09,1.09 0 0 0 -0.83,0.33 z"
         transform="translate(60.01)"
         style="fill:#fff7d4;fill-opacity:1"
         id="path224" />
      <path
         inkscape:connector-curvature="0"
         d="M 24.34,34.78 A 3.68,3.68 0 0 1 23,34.15 a 0.84,0.84 0 0 1 -0.26,-0.28 0.88,0.88 0 0 1 0.11,-0.91 0.54,0.54 0 0 1 0.43,-0.23 0.82,0.82 0 0 1 0.26,0 1.62,1.62 0 0 1 0.31,0.15 4,4 0 0 0 1,0.47 4.25,4.25 0 0 0 1.16,0.15 2.29,2.29 0 0 0 1.21,-0.26 0.84,0.84 0 0 0 0.42,-0.76 0.68,0.68 0 0 0 -0.39,-0.6 5,5 0 0 0 -1.39,-0.43 7.66,7.66 0 0 1 -1.78,-0.55 2.31,2.31 0 0 1 -1,-0.8 2.12,2.12 0 0 1 -0.23,-1.1 2.26,2.26 0 0 1 0.44,-1.36 2.9,2.9 0 0 1 1.21,-0.95 4.27,4.27 0 0 1 1.75,-0.34 4.46,4.46 0 0 1 2.81,0.85 1,1 0 0 1 0.26,0.29 0.79,0.79 0 0 1 0.08,0.37 0.81,0.81 0 0 1 -0.19,0.53 0.54,0.54 0 0 1 -0.43,0.23 0.82,0.82 0 0 1 -0.25,0 1.69,1.69 0 0 1 -0.32,-0.16 5.08,5.08 0 0 0 -0.91,-0.47 3,3 0 0 0 -1.05,-0.16 2,2 0 0 0 -1.15,0.28 0.88,0.88 0 0 0 -0.42,0.77 0.7,0.7 0 0 0 0.16,0.47 1.35,1.35 0 0 0 0.54,0.33 8.31,8.31 0 0 0 1.07,0.3 6,6 0 0 1 2.35,0.92 1.87,1.87 0 0 1 0.71,1.55 2.25,2.25 0 0 1 -0.43,1.36 2.75,2.75 0 0 1 -1.2,0.91 4.62,4.62 0 0 1 -1.79,0.32 6.7,6.7 0 0 1 -1.75,-0.26 z"
         transform="translate(60.01)"
         style="fill:#fff7d4;fill-opacity:1"
         id="path226" />
      <path
         inkscape:connector-curvature="0"
         d="M 32.1,34.62 A 2.55,2.55 0 0 1 31,33.56 3.36,3.36 0 0 1 30.68,32 a 3.29,3.29 0 0 1 0.39,-1.63 2.7,2.7 0 0 1 1.1,-1.09 3.37,3.37 0 0 1 1.63,-0.38 3.68,3.68 0 0 1 1,0.13 3.24,3.24 0 0 1 0.87,0.37 0.74,0.74 0 0 1 0.33,0.6 0.85,0.85 0 0 1 -0.14,0.51 0.45,0.45 0 0 1 -0.38,0.2 0.79,0.79 0 0 1 -0.29,-0.05 L 34.82,30.5 a 3.75,3.75 0 0 0 -0.45,-0.2 1.3,1.3 0 0 0 -0.45,-0.07 1.26,1.26 0 0 0 -1,0.43 1.9,1.9 0 0 0 -0.35,1.24 1.92,1.92 0 0 0 0.35,1.25 1.25,1.25 0 0 0 1,0.43 1.37,1.37 0 0 0 0.44,-0.07 3.55,3.55 0 0 0 0.47,-0.21 l 0.36,-0.16 a 0.75,0.75 0 0 1 0.29,-0.05 0.45,0.45 0 0 1 0.38,0.2 0.85,0.85 0 0 1 0.15,0.52 0.71,0.71 0 0 1 -0.37,0.66 3.18,3.18 0 0 1 -0.89,0.37 4.15,4.15 0 0 1 -1.06,0.13 3.28,3.28 0 0 1 -1.59,-0.35 z"
         transform="translate(60.01)"
         style="fill:#fff7d4;fill-opacity:1"
         id="path228" />
      <path
         inkscape:connector-curvature="0"
         d="m 41.71,29.49 a 2.64,2.64 0 0 1 0.62,1.93 v 2.71 a 0.82,0.82 0 0 1 -0.23,0.62 0.87,0.87 0 0 1 -0.64,0.22 0.84,0.84 0 0 1 -0.62,-0.23 0.82,0.82 0 0 1 -0.23,-0.61 V 34 a 1.41,1.41 0 0 1 -0.6,0.7 1.88,1.88 0 0 1 -1.01,0.3 2.42,2.42 0 0 1 -1.09,-0.24 1.9,1.9 0 0 1 -0.77,-0.67 1.72,1.72 0 0 1 -0.28,-1 1.48,1.48 0 0 1 0.33,-1 2,2 0 0 1 1.06,-0.54 9.38,9.38 0 0 1 2,-0.17 h 0.31 v -0.22 a 1,1 0 0 0 -0.22,-0.73 1,1 0 0 0 -0.74,-0.23 4.72,4.72 0 0 0 -1.49,0.36 1.13,1.13 0 0 1 -0.47,0.13 0.52,0.52 0 0 1 -0.42,-0.19 0.73,0.73 0 0 1 -0.16,-0.49 0.68,0.68 0 0 1 0.11,-0.4 1,1 0 0 1 0.35,-0.29 3.89,3.89 0 0 1 1,-0.36 5.61,5.61 0 0 1 1.19,-0.13 2.6,2.6 0 0 1 2,0.66 z m -1.43,3.9 a 1.3,1.3 0 0 0 0.32,-0.92 v -0.2 h -0.2 a 4.11,4.11 0 0 0 -1.36,0.16 0.56,0.56 0 0 0 -0.39,0.56 0.72,0.72 0 0 0 0.22,0.55 0.78,0.78 0 0 0 0.56,0.21 1.1,1.1 0 0 0 0.85,-0.36 z"
         transform="translate(60.01)"
         style="fill:#fff7d4;fill-opacity:1"
         id="path230" />
      <path
         inkscape:connector-curvature="0"
         d="m 44.18,34.75 a 0.78,0.78 0 0 1 -0.26,-0.64 v -6.88 a 0.78,0.78 0 0 1 0.26,-0.64 1,1 0 0 1 0.65,-0.22 1,1 0 0 1 0.64,0.22 0.78,0.78 0 0 1 0.26,0.64 v 6.89 a 0.78,0.78 0 0 1 -0.26,0.64 1,1 0 0 1 -0.64,0.22 1,1 0 0 1 -0.65,-0.23 z"
         transform="translate(60.01)"
         style="fill:#fff7d4;fill-opacity:1"
         id="path232" />
      <path
         inkscape:connector-curvature="0"
         d="m 52.49,33.33 a 0.77,0.77 0 0 1 0.15,0.49 0.65,0.65 0 0 1 -0.12,0.38 1,1 0 0 1 -0.34,0.29 4.29,4.29 0 0 1 -0.95,0.35 4,4 0 0 1 -1,0.14 3.57,3.57 0 0 1 -1.67,-0.37 2.61,2.61 0 0 1 -1.1,-1.06 3.28,3.28 0 0 1 -0.38,-1.63 3.33,3.33 0 0 1 0.37,-1.6 2.73,2.73 0 0 1 1,-1.09 2.9,2.9 0 0 1 1.5,-0.39 2.75,2.75 0 0 1 1.41,0.35 2.42,2.42 0 0 1 0.94,1 3.31,3.31 0 0 1 0.34,1.53 0.58,0.58 0 0 1 -0.13,0.4 0.45,0.45 0 0 1 -0.35,0.14 h -3.33 a 1.59,1.59 0 0 0 0.43,1 1.42,1.42 0 0 0 1,0.32 2.14,2.14 0 0 0 0.62,-0.08 6.1,6.1 0 0 0 0.61,-0.23 l 0.32,-0.13 a 0.87,0.87 0 0 1 0.28,-0.05 0.47,0.47 0 0 1 0.4,0.24 z m -3.28,-2.9 a 1.56,1.56 0 0 0 -0.37,1 h 2.32 a 1.57,1.57 0 0 0 -0.32,-1 1,1 0 0 0 -0.8,-0.32 1.08,1.08 0 0 0 -0.83,0.33 z"
         transform="translate(60.01)"
         style="fill:#fff7d4;fill-opacity:1"
         id="path234" />
    </g>
    <g
       transform="matrix(1.1945268,0,0,1.1945268,-306.63126,-394.90319)"
       id="g482"
       style="display:inline;fill:#fff7d4;fill-opacity:1">
      <g
         id="g1851"
         transform="translate(-4.3125543)"
         style="fill:#fff7d4;fill-opacity:1">
        <path
           inkscape:connector-curvature="0"
           d="m 77.968397,49.584823 a 0.73476157,0.73476157 0 0 1 -0.198269,-0.548156 v -4.361918 a 0.72309868,0.72309868 0 0 1 0.198269,-0.536492 0.73476157,0.73476157 0 0 1 0.548156,-0.198269 0.75808733,0.75808733 0 0 1 0.559818,0.198269 0.7114358,0.7114358 0 0 1 0.198269,0.536492 v 4.361918 a 0.72309868,0.72309868 0 0 1 -0.198269,0.548156 0.75808733,0.75808733 0 0 1 -0.559818,0.198269 0.73476157,0.73476157 0 0 1 -0.548156,-0.198269 z"
           style="fill:#fff7d4;stroke-width:1.16628826;fill-opacity:1"
           id="path210"
           transform="matrix(0.83715158,0,0,0.83715158,256.69684,330.59383)" />
        <path
           inkscape:connector-curvature="0"
           d="m 86.062437,44.196571 a 0.72309868,0.72309868 0 0 1 0.198269,0.536493 v 4.361918 a 0.74642445,0.74642445 0 0 1 -0.198269,0.536492 0.67644716,0.67644716 0 0 1 -0.501504,0.198269 0.65312139,0.65312139 0 0 1 -0.559818,-0.24492 l -2.472531,-3.137316 v 2.600823 a 0.76975021,0.76975021 0 0 1 -0.186606,0.536493 0.65312139,0.65312139 0 0 1 -0.501504,0.198269 0.66478427,0.66478427 0 0 1 -0.501504,-0.198269 0.74642445,0.74642445 0 0 1 -0.198269,-0.536493 v -4.373581 a 0.73476157,0.73476157 0 0 1 0.198269,-0.536492 0.66478427,0.66478427 0 0 1 0.501504,-0.209932 0.66478427,0.66478427 0 0 1 0.548155,0.24492 l 2.484194,3.090664 v -2.58916 a 0.73476157,0.73476157 0 0 1 0.186606,-0.536492 0.66478427,0.66478427 0 0 1 0.501504,-0.198269 0.68811004,0.68811004 0 0 1 0.501504,0.256583 z"
           style="fill:#fff7d4;stroke-width:1.16628826;fill-opacity:1"
           id="path212"
           transform="matrix(0.83715158,0,0,0.83715158,256.69684,330.59383)" />
        <path
           inkscape:connector-curvature="0"
           d="m 88.325036,49.584823 a 0.73476157,0.73476157 0 0 1 -0.198269,-0.548156 v -4.361918 a 0.62979563,0.62979563 0 0 1 0.68811,-0.699773 h 2.087656 a 2.1226445,2.1226445 0 0 1 1.481186,0.489841 1.9710271,1.9710271 0 0 1 0,2.694126 2.1109816,2.1109816 0 0 1 -1.481186,0.489841 h -1.282917 v 1.387883 a 0.72309868,0.72309868 0 0 1 -0.198269,0.548156 0.75808733,0.75808733 0 0 1 -0.559818,0.198269 0.73476157,0.73476157 0 0 1 -0.536493,-0.198269 z m 2.332577,-3.055675 a 0.93303056,0.93303056 0 0 0 0.618133,-0.174944 0.66478427,0.66478427 0 0 0 0.198269,-0.536492 q 0,-0.711436 -0.816402,-0.711436 h -1.072985 v 1.422872 z"
           style="fill:#fff7d4;stroke-width:1.16628826;fill-opacity:1"
           id="path214"
           transform="matrix(0.83715158,0,0,0.83715158,256.69684,330.59383)" />
        <path
           inkscape:connector-curvature="0"
           d="m 95.124497,49.176622 a 2.4958567,2.4958567 0 0 1 -0.653122,-1.866061 v -2.635812 a 0.73476157,0.73476157 0 1 1 1.469523,0 v 2.694126 a 1.4578603,1.4578603 0 0 0 0.27991,0.956356 1.1662882,1.1662882 0 0 0 1.597814,0 1.4578603,1.4578603 0 0 0 0.27991,-0.956356 v -2.694126 a 0.68811004,0.68811004 0 0 1 0.734761,-0.734761 0.73476157,0.73476157 0 0 1 0.536493,0.198269 0.7114358,0.7114358 0 0 1 0.198269,0.536492 v 2.635812 a 2.472531,2.472531 0 0 1 -0.653122,1.854398 3.1373153,3.1373153 0 0 1 -3.790436,0 z"
           style="fill:#fff7d4;stroke-width:1.16628826;fill-opacity:1"
           id="path216"
           transform="matrix(0.83715158,0,0,0.83715158,256.69684,330.59383)" />
        <path
           inkscape:connector-curvature="0"
           d="m 102.88031,49.57316 a 0.7114358,0.7114358 0 0 1 -0.20993,-0.536493 v -3.848751 h -1.16629 a 0.80473886,0.80473886 0 0 1 -0.53649,-0.151617 0.57148122,0.57148122 0 0 1 -0.17494,-0.466516 0.55981834,0.55981834 0 0 1 0.17494,-0.454852 0.81640174,0.81640174 0 0 1 0.53649,-0.151617 h 3.82543 a 0.82806462,0.82806462 0 0 1 0.53649,0.151617 0.57148122,0.57148122 0 0 1 0.17494,0.454852 0.5831441,0.5831441 0 0 1 -0.17494,0.466516 0.80473886,0.80473886 0 0 1 -0.53649,0.151617 h -1.16629 v 3.848751 a 0.7114358,0.7114358 0 0 1 -0.20993,0.536493 0.86305327,0.86305327 0 0 1 -1.10798,0 z"
           style="fill:#fff7d4;stroke-width:1.16628826;fill-opacity:1"
           id="path218"
           transform="matrix(0.83715158,0,0,0.83715158,256.69684,330.59383)" />
        <path
           id="path472"
           style="fill:#fff7d4;fill-opacity:1"
           transform="translate(319.8,124.29)"
           d="m 28,247.9 a 2.09,2.09 0 0 1 -0.75,-0.36 0.48,0.48 0 0 1 -0.15,-0.16 0.5,0.5 0 0 1 0.06,-0.51 0.31,0.31 0 0 1 0.24,-0.13 h 0.15 l 0.17,0.08 a 2.28,2.28 0 0 0 0.59,0.27 2.41,2.41 0 0 0 0.66,0.08 1.3,1.3 0 0 0 0.69,-0.15 0.48,0.48 0 0 0 0.24,-0.43 0.39,0.39 0 0 0 -0.22,-0.34 2.85,2.85 0 0 0 -0.79,-0.24 4.34,4.34 0 0 1 -1,-0.31 1.3,1.3 0 0 1 -0.55,-0.46 1.2,1.2 0 0 1 -0.17,-0.66 1.28,1.28 0 0 1 0.25,-0.77 1.65,1.65 0 0 1 0.69,-0.54 2.43,2.43 0 0 1 1,-0.19 2.53,2.53 0 0 1 1.59,0.48 0.54,0.54 0 0 1 0.15,0.17 0.44,0.44 0 0 1 0,0.21 0.46,0.46 0 0 1 -0.11,0.3 0.31,0.31 0 0 1 -0.24,0.13 h -0.14 l -0.18,-0.09 a 2.83,2.83 0 0 0 -0.51,-0.27 1.71,1.71 0 0 0 -0.6,-0.09 1.16,1.16 0 0 0 -0.65,0.16 0.5,0.5 0 0 0 -0.24,0.44 0.39,0.39 0 0 0 0.09,0.27 0.76,0.76 0 0 0 0.31,0.19 4.55,4.55 0 0 0 0.61,0.17 3.38,3.38 0 0 1 1.33,0.52 1.06,1.06 0 0 1 0.4,0.88 1.28,1.28 0 0 1 -0.24,0.77 1.56,1.56 0 0 1 -0.68,0.52 2.61,2.61 0 0 1 -1,0.18 3.81,3.81 0 0 1 -1,-0.12 z"
           inkscape:connector-curvature="0" />
      </g>
    </g>
    <g
       aria-label="*"
       style="font-style:normal;font-variant:normal;font-weight:bold;font-stretch:normal;font-size:10.66666698px;line-height:1.25;font-family:'DIN Alternate';-inkscape-font-specification:'DIN Alternate, Bold';font-variant-ligatures:normal;font-variant-caps:normal;font-variant-numeric:normal;font-feature-settings:normal;text-align:start;letter-spacing:0px;word-spacing:0px;writing-mode:lr-tb;text-anchor:start;fill:#ff4400;fill-opacity:1;stroke:none"
       id="text947"
       transform="translate(0.38559535,-0.28919651)">
      <path
         d="m 107.71894,177.48681 v 1.03646 h 0.64063 v -1.03646 0 l 0.85417,0.49479 v 0 l 0.3177,-0.49479 -0.88541,-0.54167 0.88541,-0.54166 -0.3177,-0.49479 v 0 l -0.85417,0.49479 v 0 -1.03646 h -0.64063 v 1.03646 0 l -0.85416,-0.49479 v 0 l -0.31771,0.49479 0.88541,0.54166 -0.88541,0.54167 0.31771,0.49479 v 0 z"
         style="fill:#ff4400;fill-opacity:1"
         id="path955"
         inkscape:connector-curvature="0" />
    </g>
    <g
       transform="translate(7.685134,50.910726)"
       id="g960"
       style="font-style:normal;font-variant:normal;font-weight:bold;font-stretch:normal;font-size:10.66666698px;line-height:1.25;font-family:'DIN Alternate';-inkscape-font-specification:'DIN Alternate, Bold';font-variant-ligatures:normal;font-variant-caps:normal;font-variant-numeric:normal;font-feature-settings:normal;text-align:start;letter-spacing:0px;word-spacing:0px;writing-mode:lr-tb;text-anchor:start;fill:#ff4400;fill-opacity:1;stroke:none"
       aria-label="*">
      <path
         inkscape:connector-curvature="0"
         id="path958"
         style="fill:#ff4400;fill-opacity:1"
         d="m 107.71894,177.48681 v 1.03646 h 0.64063 v -1.03646 0 l 0.85417,0.49479 v 0 l 0.3177,-0.49479 -0.88541,-0.54167 0.88541,-0.54166 -0.3177,-0.49479 v 0 l -0.85417,0.49479 v 0 -1.03646 h -0.64063 v 1.03646 0 l -0.85416,-0.49479 v 0 l -0.31771,0.49479 0.88541,0.54166 -0.88541,0.54167 0.31771,0.49479 v 0 z" />
    </g>
  </g>
</svg>
