<?xml version="1.0" encoding="UTF-8" standalone="no"?>
<svg
   xmlns:dc="http://purl.org/dc/elements/1.1/"
   xmlns:cc="http://creativecommons.org/ns#"
   xmlns:rdf="http://www.w3.org/1999/02/22-rdf-syntax-ns#"
   xmlns:svg="http://www.w3.org/2000/svg"
   xmlns="http://www.w3.org/2000/svg"
   xmlns:sodipodi="http://sodipodi.sourceforge.net/DTD/sodipodi-0.dtd"
   xmlns:inkscape="http://www.inkscape.org/namespaces/inkscape"
   id="svg8"
   viewBox="0 0 90 380"
   version="1.1"
   sodipodi:docname="Steps.svg"
   inkscape:version="0.92.2 5c3e80d, 2017-08-06"
   width="90"
   height="380"
   inkscape:label="BG">
  <metadata
     id="metadata39">
    <rdf:RDF>
      <cc:Work
         rdf:about="">
        <dc:format>image/svg+xml</dc:format>
        <dc:type
           rdf:resource="http://purl.org/dc/dcmitype/StillImage" />
        <dc:title>BlankPanel8</dc:title>
      </cc:Work>
    </rdf:RDF>
  </metadata>
  <sodipodi:namedview
     pagecolor="#ffffff"
     bordercolor="#666666"
     borderopacity="1"
     objecttolerance="10"
     gridtolerance="10"
     guidetolerance="10"
     inkscape:pageopacity="0"
     inkscape:pageshadow="2"
     inkscape:window-width="2320"
     inkscape:window-height="1386"
     id="namedview37"
     showgrid="false"
     inkscape:zoom="3.181579"
     inkscape:cx="70.144737"
     inkscape:cy="190"
     inkscape:window-x="9"
     inkscape:window-y="0"
     inkscape:window-maximized="0"
     inkscape:current-layer="layer2" />
  <defs
     id="defs4">
    <style
       id="style2">.cls-1{fill:#ab2d2d;}.cls-2{fill:#952d2d;}.cls-3{fill:#251e1e;}.cls-4{fill:#fff7d4;}.cls-5{fill:#202020;}</style>
  </defs>
  <title
     id="title6">BlankPanel8</title>
  <g
     inkscape:groupmode="layer"
     id="layer1"
     inkscape:label="bg">
    <g
       id="g166"
       transform="matrix(1.011236,0,0,0.99999999,-119.83145,0)"
       style="display:inline;fill:#44423e;fill-opacity:1">
      <polygon
         points="118.5,29.98 118.5,287.57 207.5,287.57 207.5,272.35 207.5,29.98 "
         style="fill:#44423e;fill-opacity:1"
         id="polygon156" />
      <polygon
         points="207.5,380 207.5,291.45 118.5,291.45 118.5,297.78 118.5,380 "
         style="fill:#44423e;fill-opacity:1"
         id="polygon158" />
      <polygon
         points="207.5,291.45 207.5,287.57 118.5,287.57 118.5,291.45 "
         style="fill:#44423e;fill-opacity:1"
         id="polygon160"
         transform="matrix(1,0,0,1.7442041,0,-215.34345)" />
      <polygon
         points="118.5,0 118.5,26.09 207.5,26.1 207.5,16.51 207.5,0 "
         style="fill:#44423e;fill-opacity:1"
         id="polygon162" />
      <polygon
         points="207.5,29.98 207.5,29.81 207.5,26.1 118.5,26.09 118.5,29.98 "
         style="fill:#44423e;fill-opacity:1"
         id="polygon164"
         transform="matrix(1,0,0,1.8212547,0,-22.815527)" />
    </g>
    <g
       transform="matrix(7.9299111,0,0,7.9299111,-430.58997,-2669.2158)"
       data-name="Layer 2"
       id="g1661"
       style="display:inline;fill:#3c3835;fill-opacity:1">
      <g
         data-name="Layer 1-2"
         id="g1659"
         style="fill:#3c3835;fill-opacity:1">
        <path
           style="fill:#3c3835;fill-opacity:1"
           inkscape:connector-curvature="0"
           d="m 71.31,357 a 0.91,0.91 0 0 0 -0.41,-0.53 0.77,0.77 0 0 0 -0.64,-0.1 0.91,0.91 0 0 0 -0.53,0.41 43.94,43.94 0 0 1 -3.33,5.08 21.5,21.5 0 0 1 -2.08,-6.45 v -0.39 l 2,-2.81 c 0.24,-0.34 1.26,-1.56 -0.78,-2.45 a 3.15,3.15 0 0 0 -2.36,0.07 c -2.32,1 -1.92,4.26 -1.85,4.79 q 0,0.31 0.09,0.62 l -3.78,6.22 c 0,0 0.49,-3.26 0.58,-3.85 A 1.36,1.36 0 0 0 57.1,356 c -1,-0.24 -1.61,0.06 -2.27,2.65 -0.56,2.19 -2.54,7.64 -3.86,7.6 -0.78,0 -0.24,-3.41 0.68,-5.87 1.12,-2.95 3.78,-7 6.78,-8.83 0.69,-0.43 1.6,-1.5 0.66,-2.56 -1.19,-1.34 -2.46,-0.28 -3,0.13 a 14.68,14.68 0 0 0 -3.49,4.35 22.82,22.82 0 0 0 -2.81,6.33 c -1,3.25 -2.07,8.54 0.1,8.74 3,0.27 5.39,-5.56 5.39,-5.56 0,0 -0.13,3.05 1.4,3.13 1.53,0.08 4.51,-5.9 5.36,-7.92 a 22.36,22.36 0 0 0 2.5,5.55 2.87,2.87 0 0 1 0.14,0.39 c -0.34,0.47 -3.77,4.86 -4.77,7.5 a 0.82,0.82 0 0 0 0,0.72 0.79,0.79 0 0 0 0.5,0.42 1.12,1.12 0 0 0 0.74,-0.12 5.53,5.53 0 0 0 0.66,-0.35 c 4.83,-2.78 5.52,-6 5.17,-8.48 a 2.08,2.08 0 0 1 0.26,-0.4 42.2,42.2 0 0 0 3.89,-5.77 0.76,0.76 0 0 0 0.18,-0.65 z"
           class="cls-4"
           id="path1657" />
      </g>
    </g>
    <rect
       style="display:inline;opacity:1;vector-effect:none;fill:#3c3835;fill-opacity:1;stroke:none;stroke-width:0.84323591;stroke-linecap:butt;stroke-linejoin:miter;stroke-miterlimit:4;stroke-dasharray:none;stroke-dashoffset:0;stroke-opacity:1"
       id="rect1759"
       width="90"
       height="15"
       x="8.9652303e-06"
       y="364.99997" />
    <rect
       y="0"
       x="8.9652303e-06"
       height="15"
       width="90"
       id="rect1806"
       style="display:inline;opacity:1;vector-effect:none;fill:#3c3835;fill-opacity:1;stroke:none;stroke-width:0.84323591;stroke-linecap:butt;stroke-linejoin:miter;stroke-miterlimit:4;stroke-dasharray:none;stroke-dashoffset:0;stroke-opacity:1" />
    <g
       style="display:inline"
       transform="translate(8.0770465e-6,-1.3859664e-5)"
       id="g1614">
      <circle
         r="15.118111"
         cy="359.88181"
         cx="44.999989"
         id="path1686"
         style="opacity:1;vector-effect:none;fill:#3c3835;fill-opacity:1;stroke:none;stroke-width:0.74390346;stroke-linecap:butt;stroke-linejoin:miter;stroke-miterlimit:4;stroke-dasharray:none;stroke-dashoffset:0;stroke-opacity:1" />
      <g
         transform="matrix(0.66602928,0,0,0.66602928,5.0554261,118.9929)"
         data-name="Layer 2"
         id="Layer_2-2"
         style="fill:#fff7d4;fill-opacity:1">
        <g
           data-name="Layer 1-2"
           id="Layer_1-2-6"
           style="fill:#fff7d4;fill-opacity:1">
          <path
             style="fill:#fff7d4;fill-opacity:1"
             inkscape:connector-curvature="0"
             d="m 71.31,357 a 0.91,0.91 0 0 0 -0.41,-0.53 0.77,0.77 0 0 0 -0.64,-0.1 0.91,0.91 0 0 0 -0.53,0.41 43.94,43.94 0 0 1 -3.33,5.08 21.5,21.5 0 0 1 -2.08,-6.45 v -0.39 l 2,-2.81 c 0.24,-0.34 1.26,-1.56 -0.78,-2.45 a 3.15,3.15 0 0 0 -2.36,0.07 c -2.32,1 -1.92,4.26 -1.85,4.79 q 0,0.31 0.09,0.62 l -3.78,6.22 c 0,0 0.49,-3.26 0.58,-3.85 A 1.36,1.36 0 0 0 57.1,356 c -1,-0.24 -1.61,0.06 -2.27,2.65 -0.56,2.19 -2.54,7.64 -3.86,7.6 -0.78,0 -0.24,-3.41 0.68,-5.87 1.12,-2.95 3.78,-7 6.78,-8.83 0.69,-0.43 1.6,-1.5 0.66,-2.56 -1.19,-1.34 -2.46,-0.28 -3,0.13 a 14.68,14.68 0 0 0 -3.49,4.35 22.82,22.82 0 0 0 -2.81,6.33 c -1,3.25 -2.07,8.54 0.1,8.74 3,0.27 5.39,-5.56 5.39,-5.56 0,0 -0.13,3.05 1.4,3.13 1.53,0.08 4.51,-5.9 5.36,-7.92 a 22.36,22.36 0 0 0 2.5,5.55 2.87,2.87 0 0 1 0.14,0.39 c -0.34,0.47 -3.77,4.86 -4.77,7.5 a 0.82,0.82 0 0 0 0,0.72 0.79,0.79 0 0 0 0.5,0.42 1.12,1.12 0 0 0 0.74,-0.12 5.53,5.53 0 0 0 0.66,-0.35 c 4.83,-2.78 5.52,-6 5.17,-8.48 a 2.08,2.08 0 0 1 0.26,-0.4 42.2,42.2 0 0 0 3.89,-5.77 0.76,0.76 0 0 0 0.18,-0.65 z"
             class="cls-4"
             id="path8-4-6" />
        </g>
      </g>
    </g>
    <g
       style="display:inline"
       id="g1660"
       transform="matrix(3.7795276,0,0,3.7795276,-0.06999192,0)">
      <rect
         ry="1.3924577"
         y="0.74168032"
         x="3.5040054"
         height="2.5"
         width="5"
         id="rect861"
         style="opacity:1;vector-effect:none;fill:#251e1e;fill-opacity:1;stroke:none;stroke-width:0.15187515;stroke-linecap:butt;stroke-linejoin:miter;stroke-miterlimit:4;stroke-dasharray:none;stroke-dashoffset:0;stroke-opacity:1" />
      <rect
         style="opacity:1;vector-effect:none;fill:#251e1e;fill-opacity:1;stroke:none;stroke-width:0.15187515;stroke-linecap:butt;stroke-linejoin:miter;stroke-miterlimit:4;stroke-dasharray:none;stroke-dashoffset:0;stroke-opacity:1"
         id="rect863"
         width="5"
         height="2.5"
         x="3.5040054"
         y="97.441681"
         ry="1.3924577" />
      <path
         inkscape:connector-curvature="0"
         id="path1191"
         d="m 16.737997,0.74152337 c -0.771421,0 -1.392163,0.55756003 -1.392163,1.25006003 0,0.6925 0.620742,1.2500501 1.392163,1.2500501 h 2.21537 c 0.771422,0 1.392161,-0.5575501 1.392161,-1.2500501 0,-0.6925 -0.620739,-1.25006003 -1.392161,-1.25006003 z"
         style="opacity:1;vector-effect:none;fill:#251e1e;fill-opacity:1;stroke:none;stroke-width:0.15187515;stroke-linecap:butt;stroke-linejoin:miter;stroke-miterlimit:4;stroke-dasharray:none;stroke-dashoffset:0;stroke-opacity:1" />
      <path
         inkscape:connector-curvature="0"
         id="rect865"
         d="m 16.737997,97.441605 c -0.771421,0 -1.392163,0.557548 -1.392163,1.25005 0,0.692499 0.620742,1.25005 1.392163,1.25005 h 2.21537 c 0.771422,0 1.392161,-0.557551 1.392161,-1.25005 0,-0.692502 -0.620739,-1.25005 -1.392161,-1.25005 z"
         style="opacity:1;vector-effect:none;fill:#251e1e;fill-opacity:1;stroke:none;stroke-width:0.15187515;stroke-linecap:butt;stroke-linejoin:miter;stroke-miterlimit:4;stroke-dasharray:none;stroke-dashoffset:0;stroke-opacity:1" />
    </g>
  </g>
  <g
     inkscape:groupmode="layer"
     id="layer2"
     inkscape:label="text">
    <g
       transform="translate(-314.18111,-492.15095)"
       id="g1835">
      <path
         inkscape:connector-curvature="0"
         d="m 25,402.55 a 3.68,3.68 0 0 1 -1.33,-0.63 0.84,0.84 0 0 1 -0.26,-0.28 0.88,0.88 0 0 1 0.11,-0.91 0.54,0.54 0 0 1 0.43,-0.23 0.82,0.82 0 0 1 0.26,0 1.62,1.62 0 0 1 0.31,0.15 4,4 0 0 0 1,0.47 4.25,4.25 0 0 0 1.16,0.15 2.29,2.29 0 0 0 1.21,-0.26 0.84,0.84 0 0 0 0.42,-0.76 0.68,0.68 0 0 0 -0.39,-0.6 5,5 0 0 0 -1.39,-0.43 7.66,7.66 0 0 1 -1.78,-0.55 2.31,2.31 0 0 1 -1,-0.8 2.12,2.12 0 0 1 -0.31,-1.16 2.26,2.26 0 0 1 0.44,-1.36 2.9,2.9 0 0 1 1.21,-0.95 4.27,4.27 0 0 1 1.75,-0.34 4.46,4.46 0 0 1 2.81,0.85 1,1 0 0 1 0.26,0.29 0.79,0.79 0 0 1 0.08,0.37 0.81,0.81 0 0 1 -0.19,0.53 0.54,0.54 0 0 1 -0.43,0.23 0.82,0.82 0 0 1 -0.25,0 1.69,1.69 0 0 1 -0.32,-0.16 5.08,5.08 0 0 0 -0.91,-0.47 3,3 0 0 0 -1.05,-0.16 2,2 0 0 0 -1.15,0.28 0.88,0.88 0 0 0 -0.42,0.77 0.7,0.7 0 0 0 0.16,0.47 1.35,1.35 0 0 0 0.54,0.33 8.31,8.31 0 0 0 1.07,0.3 6,6 0 0 1 2.35,0.92 1.87,1.87 0 0 1 0.71,1.55 2.25,2.25 0 0 1 -0.43,1.36 2.75,2.75 0 0 1 -1.2,0.91 4.62,4.62 0 0 1 -1.79,0.32 6.7,6.7 0 0 1 -1.68,-0.2 z"
         transform="translate(319.8,124.29)"
         style="fill:#fff7d4"
         id="path1825" />
      <path
         inkscape:connector-curvature="0"
         d="m 35.31,401.59 a 0.67,0.67 0 0 1 -0.11,1 1.28,1.28 0 0 1 -0.79,0.14 h -0.34 a 2,2 0 0 1 -2.1,-2.2 v -2.38 H 31.5 a 0.9,0.9 0 0 1 -0.6,-0.17 0.62,0.62 0 0 1 -0.2,-0.5 0.63,0.63 0 0 1 0.2,-0.51 0.9,0.9 0 0 1 0.6,-0.17 H 32 v -0.94 a 0.81,0.81 0 0 1 0.25,-0.62 0.94,0.94 0 0 1 0.67,-0.23 0.92,0.92 0 0 1 0.66,0.23 0.82,0.82 0 0 1 0.24,0.62 v 0.94 h 0.84 q 0.82,0 0.82,0.68 a 0.62,0.62 0 0 1 -0.2,0.5 0.92,0.92 0 0 1 -0.61,0.17 h -0.84 v 2.51 a 0.79,0.79 0 0 0 0.17,0.55 0.7,0.7 0 0 0 0.49,0.21 h 0.34 a 0.85,0.85 0 0 1 0.48,0.17 z"
         transform="translate(319.8,124.29)"
         style="fill:#fff7d4"
         id="path1827" />
      <path
         inkscape:connector-curvature="0"
         d="m 41.51,401.1 a 0.77,0.77 0 0 1 0.15,0.49 0.65,0.65 0 0 1 -0.12,0.38 1,1 0 0 1 -0.34,0.29 4.29,4.29 0 0 1 -0.95,0.35 4.05,4.05 0 0 1 -1,0.14 3.57,3.57 0 0 1 -1.67,-0.37 2.6,2.6 0 0 1 -1.1,-1.06 3.29,3.29 0 0 1 -0.38,-1.63 3.33,3.33 0 0 1 0.37,-1.6 2.73,2.73 0 0 1 1,-1.09 2.89,2.89 0 0 1 1.5,-0.39 2.75,2.75 0 0 1 1.41,0.35 2.42,2.42 0 0 1 0.94,1 3.31,3.31 0 0 1 0.34,1.53 0.58,0.58 0 0 1 -0.13,0.4 0.45,0.45 0 0 1 -0.35,0.14 h -3.32 a 1.6,1.6 0 0 0 0.43,1 1.42,1.42 0 0 0 1,0.32 2.14,2.14 0 0 0 0.62,-0.08 6,6 0 0 0 0.61,-0.23 l 0.32,-0.13 a 0.87,0.87 0 0 1 0.28,-0.05 0.47,0.47 0 0 1 0.39,0.24 z m -3.28,-2.9 a 1.56,1.56 0 0 0 -0.37,1 h 2.32 a 1.57,1.57 0 0 0 -0.32,-1 1,1 0 0 0 -0.8,-0.32 1.09,1.09 0 0 0 -0.83,0.32 z"
         transform="translate(319.8,124.29)"
         style="fill:#fff7d4"
         id="path1829" />
      <path
         inkscape:connector-curvature="0"
         d="m 48,397 a 2.6,2.6 0 0 1 0.92,1.09 3.76,3.76 0 0 1 0.33,1.61 3.68,3.68 0 0 1 -0.33,1.6 2.42,2.42 0 0 1 -2.27,1.43 2.38,2.38 0 0 1 -1.09,-0.25 1.8,1.8 0 0 1 -0.75,-0.69 v 2.27 a 0.74,0.74 0 0 1 -0.24,0.58 0.92,0.92 0 0 1 -0.64,0.22 1,1 0 0 1 -0.68,-0.23 0.76,0.76 0 0 1 -0.26,-0.6 v -6.53 a 0.81,0.81 0 0 1 0.25,-0.62 0.91,0.91 0 0 1 0.65,-0.23 0.89,0.89 0 0 1 0.65,0.23 0.82,0.82 0 0 1 0.24,0.62 v 0.1 a 1.83,1.83 0 0 1 0.76,-0.71 2.34,2.34 0 0 1 1.1,-0.26 A 2.41,2.41 0 0 1 48,397 Z m -0.87,4 a 1.9,1.9 0 0 0 0.35,-1.23 2,2 0 0 0 -0.35,-1.27 1.17,1.17 0 0 0 -1,-0.45 1.18,1.18 0 0 0 -1,0.44 2,2 0 0 0 -0.35,1.25 2,2 0 0 0 0.35,1.24 1.18,1.18 0 0 0 1,0.44 1.2,1.2 0 0 0 1,-0.42 z"
         transform="translate(319.8,124.29)"
         style="fill:#fff7d4"
         id="path1831" />
      <path
         inkscape:connector-curvature="0"
         d="m 51.59,402.64 a 2.87,2.87 0 0 1 -0.95,-0.38 0.74,0.74 0 0 1 -0.28,-0.29 0.86,0.86 0 0 1 -0.1,-0.41 0.69,0.69 0 0 1 0.16,-0.46 0.48,0.48 0 0 1 0.38,-0.19 1,1 0 0 1 0.31,0.05 l 0.32,0.13 a 4.34,4.34 0 0 0 0.66,0.25 3,3 0 0 0 0.8,0.09 1.34,1.34 0 0 0 0.65,-0.13 0.4,0.4 0 0 0 0.23,-0.36 0.36,0.36 0 0 0 -0.1,-0.27 0.93,0.93 0 0 0 -0.38,-0.19 q -0.28,-0.08 -0.88,-0.2 a 3.31,3.31 0 0 1 -1.54,-0.61 1.43,1.43 0 0 1 -0.47,-1.14 1.56,1.56 0 0 1 0.33,-1 2.2,2.2 0 0 1 0.91,-0.68 3.27,3.27 0 0 1 1.3,-0.25 3.88,3.88 0 0 1 1,0.13 3.22,3.22 0 0 1 0.88,0.37 0.8,0.8 0 0 1 0.22,1.15 0.48,0.48 0 0 1 -0.38,0.19 1.41,1.41 0 0 1 -0.66,-0.22 3.52,3.52 0 0 0 -0.55,-0.23 1.94,1.94 0 0 0 -0.58,-0.08 1.08,1.08 0 0 0 -0.59,0.14 0.43,0.43 0 0 0 -0.22,0.38 0.42,0.42 0 0 0 0.25,0.38 4,4 0 0 0 1,0.26 5.24,5.24 0 0 1 1.26,0.38 1.52,1.52 0 0 1 0.66,0.56 1.62,1.62 0 0 1 0.2,0.85 1.58,1.58 0 0 1 -0.7,1.36 3.15,3.15 0 0 1 -1.88,0.5 5.94,5.94 0 0 1 -1.26,-0.08 z"
         transform="translate(319.8,124.29)"
         style="fill:#fff7d4"
         id="path1833" />
    </g>
    <g
       id="g3743"
       transform="translate(-126.15609,71.000498)">
      <g
         id="g2081"
         transform="translate(-181.01864,-499.27746)">
        <path
           id="path2075"
           style="fill:#fff7d4"
           transform="translate(319.8,124.29)"
           d="m 53.95,420.88 a 2,2 0 0 1 -0.81,-0.86 3.11,3.11 0 0 1 0,-2.6 2,2 0 0 1 0.81,-0.85 2.73,2.73 0 0 1 2.48,0 2,2 0 0 1 0.81,0.85 3.12,3.12 0 0 1 0,2.6 2,2 0 0 1 -0.81,0.86 2.7,2.7 0 0 1 -2.48,0 z m 2.18,-0.94 a 2.33,2.33 0 0 0 0,-2.43 1.27,1.27 0 0 0 -1.89,0 2.35,2.35 0 0 0 0,2.43 1.26,1.26 0 0 0 1.88,0 z"
           inkscape:connector-curvature="0" />
        <path
           id="path2077"
           style="fill:#fff7d4"
           transform="translate(319.8,124.29)"
           d="m 59.52,420.66 a 2,2 0 0 1 -0.53,-1.52 v -2.33 a 0.49,0.49 0 0 1 0.52,-0.52 0.51,0.51 0 0 1 0.38,0.14 0.52,0.52 0 0 1 0.14,0.38 v 2.37 a 1.28,1.28 0 0 0 0.26,0.87 1.11,1.11 0 0 0 1.52,0 1.27,1.27 0 0 0 0.27,-0.87 v -2.37 a 0.52,0.52 0 0 1 0.14,-0.38 0.51,0.51 0 0 1 0.38,-0.14 0.49,0.49 0 0 1 0.52,0.52 v 2.33 a 2,2 0 0 1 -0.53,1.52 2.52,2.52 0 0 1 -3.07,0 z"
           inkscape:connector-curvature="0" />
        <path
           id="path2079"
           style="fill:#fff7d4"
           transform="translate(319.8,124.29)"
           d="m 66,421 a 0.51,0.51 0 0 1 -0.15,-0.38 v -3.44 h -1.1 c -0.33,0 -0.5,-0.14 -0.5,-0.44 0,-0.3 0.17,-0.43 0.5,-0.43 H 68 q 0.5,0 0.5,0.43 c 0,0.29 -0.17,0.44 -0.5,0.44 h -1.1 v 3.44 a 0.51,0.51 0 0 1 -0.14,0.38 0.59,0.59 0 0 1 -0.77,0 z"
           inkscape:connector-curvature="0" />
      </g>
      <g
         id="g2093"
         transform="translate(-181.01864,-499.27746)">
        <path
           id="path2083"
           style="fill:#fff7d4"
           transform="translate(319.8,124.29)"
           d="M 20.82,420.9 A 2,2 0 0 1 20,420 a 3.12,3.12 0 0 1 0,-2.61 2,2 0 0 1 0.82,-0.85 2.68,2.68 0 0 1 2.77,0.19 0.52,0.52 0 0 1 0.14,0.16 0.46,0.46 0 0 1 0,0.2 0.47,0.47 0 0 1 -0.1,0.3 0.3,0.3 0 0 1 -0.24,0.13 h -0.17 l -0.16,-0.08 a 2.26,2.26 0 0 0 -0.5,-0.25 1.53,1.53 0 0 0 -0.5,-0.08 1.19,1.19 0 0 0 -1,0.41 1.88,1.88 0 0 0 -0.33,1.21 q 0,1.62 1.31,1.62 a 1.44,1.44 0 0 0 0.48,-0.08 3,3 0 0 0 0.52,-0.25 l 0.17,-0.08 h 0.16 a 0.3,0.3 0 0 1 0.24,0.13 0.47,0.47 0 0 1 0.1,0.3 0.44,0.44 0 0 1 0,0.21 0.5,0.5 0 0 1 -0.14,0.16 2.68,2.68 0 0 1 -2.77,0.19 z"
           inkscape:connector-curvature="0" />
        <path
           id="path2085"
           style="fill:#fff7d4"
           transform="translate(319.8,124.29)"
           d="m 25.28,421 a 0.5,0.5 0 0 1 -0.13,-0.37 v -3.81 a 0.52,0.52 0 0 1 0.14,-0.38 0.6,0.6 0 0 1 0.78,0 0.52,0.52 0 0 1 0.14,0.38 v 3.44 h 1.74 q 0.5,0 0.5,0.44 0,0.44 -0.5,0.43 H 25.64 A 0.49,0.49 0 0 1 25.28,421 Z"
           inkscape:connector-curvature="0" />
        <path
           id="path2087"
           style="fill:#fff7d4"
           transform="translate(319.8,124.29)"
           d="m 33.69,420.68 a 0.45,0.45 0 0 1 -0.15,0.33 0.47,0.47 0 0 1 -0.34,0.14 0.53,0.53 0 0 1 -0.39,-0.18 l -2.11,-2.06 v 1.73 a 0.53,0.53 0 1 1 -1.06,0 v -3.81 a 0.52,0.52 0 0 1 0.14,-0.38 0.6,0.6 0 0 1 0.78,0 0.52,0.52 0 0 1 0.14,0.38 v 1.63 l 2.05,-2 a 0.47,0.47 0 0 1 0.34,-0.15 0.46,0.46 0 0 1 0.33,0.14 0.44,0.44 0 0 1 0.14,0.33 0.48,0.48 0 0 1 -0.16,0.35 l -1.62,1.52 1.73,1.69 a 0.48,0.48 0 0 1 0.18,0.34 z"
           inkscape:connector-curvature="0" />
        <path
           id="path2089"
           style="fill:#fff7d4"
           transform="translate(319.8,124.29)"
           d="m 37.67,421 a 0.52,0.52 0 0 1 -0.14,-0.39 v -3.81 a 0.52,0.52 0 0 1 0.14,-0.38 0.6,0.6 0 0 1 0.78,0 0.52,0.52 0 0 1 0.14,0.38 v 3.81 A 0.55,0.55 0 0 1 37.67,421 Z"
           inkscape:connector-curvature="0" />
        <path
           id="path2091"
           style="fill:#fff7d4"
           transform="translate(319.8,124.29)"
           d="m 44.24,416.45 a 0.52,0.52 0 0 1 0.14,0.38 v 3.81 a 0.54,0.54 0 0 1 -0.14,0.38 0.48,0.48 0 0 1 -0.36,0.15 0.49,0.49 0 0 1 -0.39,-0.18 l -2.28,-2.92 v 2.56 a 0.55,0.55 0 0 1 -0.13,0.38 0.46,0.46 0 0 1 -0.36,0.15 0.47,0.47 0 0 1 -0.36,-0.15 0.54,0.54 0 0 1 -0.14,-0.38 v -3.81 a 0.52,0.52 0 0 1 0.14,-0.38 0.48,0.48 0 0 1 0.36,-0.15 0.46,0.46 0 0 1 0.39,0.18 l 2.28,2.9 v -2.55 a 0.53,0.53 0 0 1 0.14,-0.38 0.46,0.46 0 0 1 0.35,-0.15 0.48,0.48 0 0 1 0.36,0.16 z"
           inkscape:connector-curvature="0" />
      </g>
      <g
         id="g920"
         transform="translate(-181.01864,-499.27746)">
        <path
           style="fill:#fff8d5"
           transform="translate(319.8,124.29)"
           d="m 0.19,420.78 a 0.32,0.32 0 0 1 -0.12,0.26 0.45,0.45 0 0 1 -0.29,0.1 0.45,0.45 0 0 1 -0.2,0 0.44,0.44 0 0 1 -0.16,-0.15 l -0.91,-1.36 a 0.88,0.88 0 0 0 -0.28,-0.3 0.81,0.81 0 0 0 -0.4,-0.09 h -0.66 v 1.51 A 0.44,0.44 0 0 1 -3,421 0.41,0.41 0 0 1 -3.31,421.12 0.42,0.42 0 0 1 -3.63,421 0.43,0.43 0 0 1 -3.75,420.68 v -3.95 a 0.41,0.41 0 0 1 0.11,-0.3 0.42,0.42 0 0 1 0.31,-0.11 h 1.68 a 1.84,1.84 0 0 1 1.23,0.36 1.29,1.29 0 0 1 0.42,1 1.32,1.32 0 0 1 -0.32,0.91 1.49,1.49 0 0 1 -0.89,0.45 0.81,0.81 0 0 1 0.34,0.17 1.49,1.49 0 0 1 0.29,0.34 l 0.62,0.93 a 0.43,0.43 0 0 1 0.15,0.3 z M -1,418.34 a 0.69,0.69 0 0 0 0.23,-0.57 0.68,0.68 0 0 0 -0.23,-0.57 1.18,1.18 0 0 0 -0.72,-0.18 h -1.16 v 1.5 h 1.13 a 1.14,1.14 0 0 0 0.76,-0.2 z"
           id="path910"
           inkscape:connector-curvature="0" />
        <path
           style="fill:#fff8d5"
           transform="translate(319.8,124.29)"
           d="m 2.13,421 a 2.15,2.15 0 0 1 -0.75,-0.37 0.37,0.37 0 0 1 -0.15,-0.32 0.38,0.38 0 0 1 0.08,-0.24 0.25,0.25 0 0 1 0.2,-0.11 0.55,0.55 0 0 1 0.28,0.1 2,2 0 0 0 0.61,0.3 2.44,2.44 0 0 0 0.7,0.1 1.38,1.38 0 0 0 0.76,-0.17 0.56,0.56 0 0 0 0.26,-0.5 0.43,0.43 0 0 0 -0.24,-0.4 3.25,3.25 0 0 0 -0.81,-0.27 4.87,4.87 0 0 1 -0.93,-0.28 1.36,1.36 0 0 1 -0.56,-0.43 1.11,1.11 0 0 1 -0.19,-0.67 1.25,1.25 0 0 1 0.24,-0.75 1.55,1.55 0 0 1 0.66,-0.51 2.33,2.33 0 0 1 1,-0.19 2.36,2.36 0 0 1 1.57,0.51 0.51,0.51 0 0 1 0.12,0.15 0.68,0.68 0 0 1 -0.08,0.42 0.25,0.25 0 0 1 -0.2,0.11 H 4.51 l -0.15,-0.07 a 2.28,2.28 0 0 0 -0.54,-0.3 1.83,1.83 0 0 0 -0.64,-0.1 1.25,1.25 0 0 0 -0.72,0.19 0.59,0.59 0 0 0 -0.27,0.52 0.47,0.47 0 0 0 0.24,0.42 2.76,2.76 0 0 0 0.81,0.28 5.39,5.39 0 0 1 1,0.3 1.45,1.45 0 0 1 0.58,0.42 1,1 0 0 1 0.19,0.64 1.22,1.22 0 0 1 -0.24,0.74 1.52,1.52 0 0 1 -0.65,0.5 2.44,2.44 0 0 1 -1,0.18 3.41,3.41 0 0 1 -0.99,-0.2 z"
           id="path914"
           inkscape:connector-curvature="0" />
        <path
           style="fill:#fff8d5"
           transform="translate(319.8,124.29)"
           d="M 8.2,421 A 0.42,0.42 0 0 1 8.09,420.68 V 417 h -1.2 q -0.41,0 -0.41,-0.36 0,-0.36 0.41,-0.36 h 3.25 q 0.41,0 0.41,0.36 0,0.36 -0.41,0.36 H 8.95 v 3.64 A 0.42,0.42 0 0 1 8.51,421.08 0.43,0.43 0 0 1 8.2,421 Z"
           id="path918"
           inkscape:connector-curvature="0" />
      </g>
    </g>
    <g
       transform="translate(-126.15609,171.0005)"
       id="g927">
      <g
         transform="translate(-181.01864,-499.27746)"
         id="g905">
        <path
           inkscape:connector-curvature="0"
           d="m 53.95,420.88 a 2,2 0 0 1 -0.81,-0.86 3.11,3.11 0 0 1 0,-2.6 2,2 0 0 1 0.81,-0.85 2.73,2.73 0 0 1 2.48,0 2,2 0 0 1 0.81,0.85 3.12,3.12 0 0 1 0,2.6 2,2 0 0 1 -0.81,0.86 2.7,2.7 0 0 1 -2.48,0 z m 2.18,-0.94 a 2.33,2.33 0 0 0 0,-2.43 1.27,1.27 0 0 0 -1.89,0 2.35,2.35 0 0 0 0,2.43 1.26,1.26 0 0 0 1.88,0 z"
           transform="translate(319.8,124.29)"
           style="fill:#fff7d4"
           id="path899" />
        <path
           inkscape:connector-curvature="0"
           d="m 59.52,420.66 a 2,2 0 0 1 -0.53,-1.52 v -2.33 a 0.49,0.49 0 0 1 0.52,-0.52 0.51,0.51 0 0 1 0.38,0.14 0.52,0.52 0 0 1 0.14,0.38 v 2.37 a 1.28,1.28 0 0 0 0.26,0.87 1.11,1.11 0 0 0 1.52,0 1.27,1.27 0 0 0 0.27,-0.87 v -2.37 a 0.52,0.52 0 0 1 0.14,-0.38 0.51,0.51 0 0 1 0.38,-0.14 0.49,0.49 0 0 1 0.52,0.52 v 2.33 a 2,2 0 0 1 -0.53,1.52 2.52,2.52 0 0 1 -3.07,0 z"
           transform="translate(319.8,124.29)"
           style="fill:#fff7d4"
           id="path901" />
        <path
           inkscape:connector-curvature="0"
           d="m 66,421 a 0.51,0.51 0 0 1 -0.15,-0.38 v -3.44 h -1.1 c -0.33,0 -0.5,-0.14 -0.5,-0.44 0,-0.3 0.17,-0.43 0.5,-0.43 H 68 q 0.5,0 0.5,0.43 c 0,0.29 -0.17,0.44 -0.5,0.44 h -1.1 v 3.44 a 0.51,0.51 0 0 1 -0.14,0.38 0.59,0.59 0 0 1 -0.77,0 z"
           transform="translate(319.8,124.29)"
           style="fill:#fff7d4"
           id="path903" />
      </g>
      <g
         transform="translate(-181.01864,-499.27746)"
         id="g917">
        <path
           inkscape:connector-curvature="0"
           d="M 20.82,420.9 A 2,2 0 0 1 20,420 a 3.12,3.12 0 0 1 0,-2.61 2,2 0 0 1 0.82,-0.85 2.68,2.68 0 0 1 2.77,0.19 0.52,0.52 0 0 1 0.14,0.16 0.46,0.46 0 0 1 0,0.2 0.47,0.47 0 0 1 -0.1,0.3 0.3,0.3 0 0 1 -0.24,0.13 h -0.17 l -0.16,-0.08 a 2.26,2.26 0 0 0 -0.5,-0.25 1.53,1.53 0 0 0 -0.5,-0.08 1.19,1.19 0 0 0 -1,0.41 1.88,1.88 0 0 0 -0.33,1.21 q 0,1.62 1.31,1.62 a 1.44,1.44 0 0 0 0.48,-0.08 3,3 0 0 0 0.52,-0.25 l 0.17,-0.08 h 0.16 a 0.3,0.3 0 0 1 0.24,0.13 0.47,0.47 0 0 1 0.1,0.3 0.44,0.44 0 0 1 0,0.21 0.5,0.5 0 0 1 -0.14,0.16 2.68,2.68 0 0 1 -2.77,0.19 z"
           transform="translate(319.8,124.29)"
           style="fill:#fff7d4"
           id="path907" />
        <path
           inkscape:connector-curvature="0"
           d="m 25.28,421 a 0.5,0.5 0 0 1 -0.13,-0.37 v -3.81 a 0.52,0.52 0 0 1 0.14,-0.38 0.6,0.6 0 0 1 0.78,0 0.52,0.52 0 0 1 0.14,0.38 v 3.44 h 1.74 q 0.5,0 0.5,0.44 0,0.44 -0.5,0.43 H 25.64 A 0.49,0.49 0 0 1 25.28,421 Z"
           transform="translate(319.8,124.29)"
           style="fill:#fff7d4"
           id="path909" />
        <path
           inkscape:connector-curvature="0"
           d="m 33.69,420.68 a 0.45,0.45 0 0 1 -0.15,0.33 0.47,0.47 0 0 1 -0.34,0.14 0.53,0.53 0 0 1 -0.39,-0.18 l -2.11,-2.06 v 1.73 a 0.53,0.53 0 1 1 -1.06,0 v -3.81 a 0.52,0.52 0 0 1 0.14,-0.38 0.6,0.6 0 0 1 0.78,0 0.52,0.52 0 0 1 0.14,0.38 v 1.63 l 2.05,-2 a 0.47,0.47 0 0 1 0.34,-0.15 0.46,0.46 0 0 1 0.33,0.14 0.44,0.44 0 0 1 0.14,0.33 0.48,0.48 0 0 1 -0.16,0.35 l -1.62,1.52 1.73,1.69 a 0.48,0.48 0 0 1 0.18,0.34 z"
           transform="translate(319.8,124.29)"
           style="fill:#fff7d4"
           id="path911" />
        <path
           inkscape:connector-curvature="0"
           d="m 37.67,421 a 0.52,0.52 0 0 1 -0.14,-0.39 v -3.81 a 0.52,0.52 0 0 1 0.14,-0.38 0.6,0.6 0 0 1 0.78,0 0.52,0.52 0 0 1 0.14,0.38 v 3.81 A 0.55,0.55 0 0 1 37.67,421 Z"
           transform="translate(319.8,124.29)"
           style="fill:#fff7d4"
           id="path913" />
        <path
           inkscape:connector-curvature="0"
           d="m 44.24,416.45 a 0.52,0.52 0 0 1 0.14,0.38 v 3.81 a 0.54,0.54 0 0 1 -0.14,0.38 0.48,0.48 0 0 1 -0.36,0.15 0.49,0.49 0 0 1 -0.39,-0.18 l -2.28,-2.92 v 2.56 a 0.55,0.55 0 0 1 -0.13,0.38 0.46,0.46 0 0 1 -0.36,0.15 0.47,0.47 0 0 1 -0.36,-0.15 0.54,0.54 0 0 1 -0.14,-0.38 v -3.81 a 0.52,0.52 0 0 1 0.14,-0.38 0.48,0.48 0 0 1 0.36,-0.15 0.46,0.46 0 0 1 0.39,0.18 l 2.28,2.9 v -2.55 a 0.53,0.53 0 0 1 0.14,-0.38 0.46,0.46 0 0 1 0.35,-0.15 0.48,0.48 0 0 1 0.36,0.16 z"
           transform="translate(319.8,124.29)"
           style="fill:#fff7d4"
           id="path915" />
      </g>
      <g
         transform="translate(-181.01864,-499.27746)"
         id="g925">
        <path
           inkscape:connector-curvature="0"
           id="path919"
           d="m 0.19,420.78 a 0.32,0.32 0 0 1 -0.12,0.26 0.45,0.45 0 0 1 -0.29,0.1 0.45,0.45 0 0 1 -0.2,0 0.44,0.44 0 0 1 -0.16,-0.15 l -0.91,-1.36 a 0.88,0.88 0 0 0 -0.28,-0.3 0.81,0.81 0 0 0 -0.4,-0.09 h -0.66 v 1.51 A 0.44,0.44 0 0 1 -3,421 0.41,0.41 0 0 1 -3.31,421.12 0.42,0.42 0 0 1 -3.63,421 0.43,0.43 0 0 1 -3.75,420.68 v -3.95 a 0.41,0.41 0 0 1 0.11,-0.3 0.42,0.42 0 0 1 0.31,-0.11 h 1.68 a 1.84,1.84 0 0 1 1.23,0.36 1.29,1.29 0 0 1 0.42,1 1.32,1.32 0 0 1 -0.32,0.91 1.49,1.49 0 0 1 -0.89,0.45 0.81,0.81 0 0 1 0.34,0.17 1.49,1.49 0 0 1 0.29,0.34 l 0.62,0.93 a 0.43,0.43 0 0 1 0.15,0.3 z M -1,418.34 a 0.69,0.69 0 0 0 0.23,-0.57 0.68,0.68 0 0 0 -0.23,-0.57 1.18,1.18 0 0 0 -0.72,-0.18 h -1.16 v 1.5 h 1.13 a 1.14,1.14 0 0 0 0.76,-0.2 z"
           transform="translate(319.8,124.29)"
           style="fill:#fff8d5" />
        <path
           inkscape:connector-curvature="0"
           id="path921"
           d="m 2.13,421 a 2.15,2.15 0 0 1 -0.75,-0.37 0.37,0.37 0 0 1 -0.15,-0.32 0.38,0.38 0 0 1 0.08,-0.24 0.25,0.25 0 0 1 0.2,-0.11 0.55,0.55 0 0 1 0.28,0.1 2,2 0 0 0 0.61,0.3 2.44,2.44 0 0 0 0.7,0.1 1.38,1.38 0 0 0 0.76,-0.17 0.56,0.56 0 0 0 0.26,-0.5 0.43,0.43 0 0 0 -0.24,-0.4 3.25,3.25 0 0 0 -0.81,-0.27 4.87,4.87 0 0 1 -0.93,-0.28 1.36,1.36 0 0 1 -0.56,-0.43 1.11,1.11 0 0 1 -0.19,-0.67 1.25,1.25 0 0 1 0.24,-0.75 1.55,1.55 0 0 1 0.66,-0.51 2.33,2.33 0 0 1 1,-0.19 2.36,2.36 0 0 1 1.57,0.51 0.51,0.51 0 0 1 0.12,0.15 0.68,0.68 0 0 1 -0.08,0.42 0.25,0.25 0 0 1 -0.2,0.11 H 4.51 l -0.15,-0.07 a 2.28,2.28 0 0 0 -0.54,-0.3 1.83,1.83 0 0 0 -0.64,-0.1 1.25,1.25 0 0 0 -0.72,0.19 0.59,0.59 0 0 0 -0.27,0.52 0.47,0.47 0 0 0 0.24,0.42 2.76,2.76 0 0 0 0.81,0.28 5.39,5.39 0 0 1 1,0.3 1.45,1.45 0 0 1 0.58,0.42 1,1 0 0 1 0.19,0.64 1.22,1.22 0 0 1 -0.24,0.74 1.52,1.52 0 0 1 -0.65,0.5 2.44,2.44 0 0 1 -1,0.18 3.41,3.41 0 0 1 -0.99,-0.2 z"
           transform="translate(319.8,124.29)"
           style="fill:#fff8d5" />
        <path
           inkscape:connector-curvature="0"
           id="path923"
           d="M 8.2,421 A 0.42,0.42 0 0 1 8.09,420.68 V 417 h -1.2 q -0.41,0 -0.41,-0.36 0,-0.36 0.41,-0.36 h 3.25 q 0.41,0 0.41,0.36 0,0.36 -0.41,0.36 H 8.95 v 3.64 A 0.42,0.42 0 0 1 8.51,421.08 0.43,0.43 0 0 1 8.2,421 Z"
           transform="translate(319.8,124.29)"
           style="fill:#fff8d5" />
      </g>
    </g>
    <g
       id="g957"
       transform="translate(-126.15609,270.8005)">
      <g
         id="g935"
         transform="translate(-181.01864,-499.27746)">
        <path
           id="path929"
           style="fill:#fff7d4"
           transform="translate(319.8,124.29)"
           d="m 53.95,420.88 a 2,2 0 0 1 -0.81,-0.86 3.11,3.11 0 0 1 0,-2.6 2,2 0 0 1 0.81,-0.85 2.73,2.73 0 0 1 2.48,0 2,2 0 0 1 0.81,0.85 3.12,3.12 0 0 1 0,2.6 2,2 0 0 1 -0.81,0.86 2.7,2.7 0 0 1 -2.48,0 z m 2.18,-0.94 a 2.33,2.33 0 0 0 0,-2.43 1.27,1.27 0 0 0 -1.89,0 2.35,2.35 0 0 0 0,2.43 1.26,1.26 0 0 0 1.88,0 z"
           inkscape:connector-curvature="0" />
        <path
           id="path931"
           style="fill:#fff7d4"
           transform="translate(319.8,124.29)"
           d="m 59.52,420.66 a 2,2 0 0 1 -0.53,-1.52 v -2.33 a 0.49,0.49 0 0 1 0.52,-0.52 0.51,0.51 0 0 1 0.38,0.14 0.52,0.52 0 0 1 0.14,0.38 v 2.37 a 1.28,1.28 0 0 0 0.26,0.87 1.11,1.11 0 0 0 1.52,0 1.27,1.27 0 0 0 0.27,-0.87 v -2.37 a 0.52,0.52 0 0 1 0.14,-0.38 0.51,0.51 0 0 1 0.38,-0.14 0.49,0.49 0 0 1 0.52,0.52 v 2.33 a 2,2 0 0 1 -0.53,1.52 2.52,2.52 0 0 1 -3.07,0 z"
           inkscape:connector-curvature="0" />
        <path
           id="path933"
           style="fill:#fff7d4"
           transform="translate(319.8,124.29)"
           d="m 66,421 a 0.51,0.51 0 0 1 -0.15,-0.38 v -3.44 h -1.1 c -0.33,0 -0.5,-0.14 -0.5,-0.44 0,-0.3 0.17,-0.43 0.5,-0.43 H 68 q 0.5,0 0.5,0.43 c 0,0.29 -0.17,0.44 -0.5,0.44 h -1.1 v 3.44 a 0.51,0.51 0 0 1 -0.14,0.38 0.59,0.59 0 0 1 -0.77,0 z"
           inkscape:connector-curvature="0" />
      </g>
      <g
         id="g947"
         transform="translate(-181.01864,-499.27746)">
        <path
           id="path937"
           style="fill:#fff7d4"
           transform="translate(319.8,124.29)"
           d="M 20.82,420.9 A 2,2 0 0 1 20,420 a 3.12,3.12 0 0 1 0,-2.61 2,2 0 0 1 0.82,-0.85 2.68,2.68 0 0 1 2.77,0.19 0.52,0.52 0 0 1 0.14,0.16 0.46,0.46 0 0 1 0,0.2 0.47,0.47 0 0 1 -0.1,0.3 0.3,0.3 0 0 1 -0.24,0.13 h -0.17 l -0.16,-0.08 a 2.26,2.26 0 0 0 -0.5,-0.25 1.53,1.53 0 0 0 -0.5,-0.08 1.19,1.19 0 0 0 -1,0.41 1.88,1.88 0 0 0 -0.33,1.21 q 0,1.62 1.31,1.62 a 1.44,1.44 0 0 0 0.48,-0.08 3,3 0 0 0 0.52,-0.25 l 0.17,-0.08 h 0.16 a 0.3,0.3 0 0 1 0.24,0.13 0.47,0.47 0 0 1 0.1,0.3 0.44,0.44 0 0 1 0,0.21 0.5,0.5 0 0 1 -0.14,0.16 2.68,2.68 0 0 1 -2.77,0.19 z"
           inkscape:connector-curvature="0" />
        <path
           id="path939"
           style="fill:#fff7d4"
           transform="translate(319.8,124.29)"
           d="m 25.28,421 a 0.5,0.5 0 0 1 -0.13,-0.37 v -3.81 a 0.52,0.52 0 0 1 0.14,-0.38 0.6,0.6 0 0 1 0.78,0 0.52,0.52 0 0 1 0.14,0.38 v 3.44 h 1.74 q 0.5,0 0.5,0.44 0,0.44 -0.5,0.43 H 25.64 A 0.49,0.49 0 0 1 25.28,421 Z"
           inkscape:connector-curvature="0" />
        <path
           id="path941"
           style="fill:#fff7d4"
           transform="translate(319.8,124.29)"
           d="m 33.69,420.68 a 0.45,0.45 0 0 1 -0.15,0.33 0.47,0.47 0 0 1 -0.34,0.14 0.53,0.53 0 0 1 -0.39,-0.18 l -2.11,-2.06 v 1.73 a 0.53,0.53 0 1 1 -1.06,0 v -3.81 a 0.52,0.52 0 0 1 0.14,-0.38 0.6,0.6 0 0 1 0.78,0 0.52,0.52 0 0 1 0.14,0.38 v 1.63 l 2.05,-2 a 0.47,0.47 0 0 1 0.34,-0.15 0.46,0.46 0 0 1 0.33,0.14 0.44,0.44 0 0 1 0.14,0.33 0.48,0.48 0 0 1 -0.16,0.35 l -1.62,1.52 1.73,1.69 a 0.48,0.48 0 0 1 0.18,0.34 z"
           inkscape:connector-curvature="0" />
        <path
           id="path943"
           style="fill:#fff7d4"
           transform="translate(319.8,124.29)"
           d="m 37.67,421 a 0.52,0.52 0 0 1 -0.14,-0.39 v -3.81 a 0.52,0.52 0 0 1 0.14,-0.38 0.6,0.6 0 0 1 0.78,0 0.52,0.52 0 0 1 0.14,0.38 v 3.81 A 0.55,0.55 0 0 1 37.67,421 Z"
           inkscape:connector-curvature="0" />
        <path
           id="path945"
           style="fill:#fff7d4"
           transform="translate(319.8,124.29)"
           d="m 44.24,416.45 a 0.52,0.52 0 0 1 0.14,0.38 v 3.81 a 0.54,0.54 0 0 1 -0.14,0.38 0.48,0.48 0 0 1 -0.36,0.15 0.49,0.49 0 0 1 -0.39,-0.18 l -2.28,-2.92 v 2.56 a 0.55,0.55 0 0 1 -0.13,0.38 0.46,0.46 0 0 1 -0.36,0.15 0.47,0.47 0 0 1 -0.36,-0.15 0.54,0.54 0 0 1 -0.14,-0.38 v -3.81 a 0.52,0.52 0 0 1 0.14,-0.38 0.48,0.48 0 0 1 0.36,-0.15 0.46,0.46 0 0 1 0.39,0.18 l 2.28,2.9 v -2.55 a 0.53,0.53 0 0 1 0.14,-0.38 0.46,0.46 0 0 1 0.35,-0.15 0.48,0.48 0 0 1 0.36,0.16 z"
           inkscape:connector-curvature="0" />
      </g>
      <g
         id="g955"
         transform="translate(-181.01864,-499.27746)">
        <path
           style="fill:#fff8d5"
           transform="translate(319.8,124.29)"
           d="m 0.19,420.78 a 0.32,0.32 0 0 1 -0.12,0.26 0.45,0.45 0 0 1 -0.29,0.1 0.45,0.45 0 0 1 -0.2,0 0.44,0.44 0 0 1 -0.16,-0.15 l -0.91,-1.36 a 0.88,0.88 0 0 0 -0.28,-0.3 0.81,0.81 0 0 0 -0.4,-0.09 h -0.66 v 1.51 A 0.44,0.44 0 0 1 -3,421 0.41,0.41 0 0 1 -3.31,421.12 0.42,0.42 0 0 1 -3.63,421 0.43,0.43 0 0 1 -3.75,420.68 v -3.95 a 0.41,0.41 0 0 1 0.11,-0.3 0.42,0.42 0 0 1 0.31,-0.11 h 1.68 a 1.84,1.84 0 0 1 1.23,0.36 1.29,1.29 0 0 1 0.42,1 1.32,1.32 0 0 1 -0.32,0.91 1.49,1.49 0 0 1 -0.89,0.45 0.81,0.81 0 0 1 0.34,0.17 1.49,1.49 0 0 1 0.29,0.34 l 0.62,0.93 a 0.43,0.43 0 0 1 0.15,0.3 z M -1,418.34 a 0.69,0.69 0 0 0 0.23,-0.57 0.68,0.68 0 0 0 -0.23,-0.57 1.18,1.18 0 0 0 -0.72,-0.18 h -1.16 v 1.5 h 1.13 a 1.14,1.14 0 0 0 0.76,-0.2 z"
           id="path949"
           inkscape:connector-curvature="0" />
        <path
           style="fill:#fff8d5"
           transform="translate(319.8,124.29)"
           d="m 2.13,421 a 2.15,2.15 0 0 1 -0.75,-0.37 0.37,0.37 0 0 1 -0.15,-0.32 0.38,0.38 0 0 1 0.08,-0.24 0.25,0.25 0 0 1 0.2,-0.11 0.55,0.55 0 0 1 0.28,0.1 2,2 0 0 0 0.61,0.3 2.44,2.44 0 0 0 0.7,0.1 1.38,1.38 0 0 0 0.76,-0.17 0.56,0.56 0 0 0 0.26,-0.5 0.43,0.43 0 0 0 -0.24,-0.4 3.25,3.25 0 0 0 -0.81,-0.27 4.87,4.87 0 0 1 -0.93,-0.28 1.36,1.36 0 0 1 -0.56,-0.43 1.11,1.11 0 0 1 -0.19,-0.67 1.25,1.25 0 0 1 0.24,-0.75 1.55,1.55 0 0 1 0.66,-0.51 2.33,2.33 0 0 1 1,-0.19 2.36,2.36 0 0 1 1.57,0.51 0.51,0.51 0 0 1 0.12,0.15 0.68,0.68 0 0 1 -0.08,0.42 0.25,0.25 0 0 1 -0.2,0.11 H 4.51 l -0.15,-0.07 a 2.28,2.28 0 0 0 -0.54,-0.3 1.83,1.83 0 0 0 -0.64,-0.1 1.25,1.25 0 0 0 -0.72,0.19 0.59,0.59 0 0 0 -0.27,0.52 0.47,0.47 0 0 0 0.24,0.42 2.76,2.76 0 0 0 0.81,0.28 5.39,5.39 0 0 1 1,0.3 1.45,1.45 0 0 1 0.58,0.42 1,1 0 0 1 0.19,0.64 1.22,1.22 0 0 1 -0.24,0.74 1.52,1.52 0 0 1 -0.65,0.5 2.44,2.44 0 0 1 -1,0.18 3.41,3.41 0 0 1 -0.99,-0.2 z"
           id="path951"
           inkscape:connector-curvature="0" />
        <path
           style="fill:#fff8d5"
           transform="translate(319.8,124.29)"
           d="M 8.2,421 A 0.42,0.42 0 0 1 8.09,420.68 V 417 h -1.2 q -0.41,0 -0.41,-0.36 0,-0.36 0.41,-0.36 h 3.25 q 0.41,0 0.41,0.36 0,0.36 -0.41,0.36 H 8.95 v 3.64 A 0.42,0.42 0 0 1 8.51,421.08 0.43,0.43 0 0 1 8.2,421 Z"
           id="path953"
           inkscape:connector-curvature="0" />
      </g>
    </g>
  </g>
</svg>
