<?xml version="1.0" encoding="UTF-8" standalone="no"?>
<!-- Created with Inkscape (http://www.inkscape.org/) -->

<svg
   xmlns:dc="http://purl.org/dc/elements/1.1/"
   xmlns:cc="http://creativecommons.org/ns#"
   xmlns:rdf="http://www.w3.org/1999/02/22-rdf-syntax-ns#"
   xmlns:svg="http://www.w3.org/2000/svg"
   xmlns="http://www.w3.org/2000/svg"
   xmlns:xlink="http://www.w3.org/1999/xlink"
   xmlns:sodipodi="http://sodipodi.sourceforge.net/DTD/sodipodi-0.dtd"
   xmlns:inkscape="http://www.inkscape.org/namespaces/inkscape"
   width="390"
   height="380"
   viewBox="0 0 103.1875 100.54167"
   version="1.1"
   id="svg11003"
   inkscape:version="0.92.2 (5c3e80d, 2017-08-06)"
   sodipodi:docname="QuadGolombRulerRhythmMaster.svg">
  <defs
     id="defs10997">
    <linearGradient
       inkscape:collect="always"
       id="linearGradient4047">
      <stop
         style="stop-color:#cce6f1;stop-opacity:1;"
         offset="0"
         id="stop4043" />
      <stop
         style="stop-color:#ffffff;stop-opacity:1;"
         offset="1"
         id="stop4045" />
    </linearGradient>
    <linearGradient
       inkscape:collect="always"
       xlink:href="#linearGradient4047"
       id="linearGradient4049"
       x1="35.418064"
       y1="158.3329"
       x2="35.219627"
       y2="50.462322"
       gradientUnits="userSpaceOnUse"
       gradientTransform="matrix(1.0811213,0,0,1,-2.8570633,0)" />
  </defs>
  <sodipodi:namedview
     id="base"
     pagecolor="#ffffff"
     bordercolor="#666666"
     borderopacity="1.0"
     inkscape:pageopacity="0.0"
     inkscape:pageshadow="2"
     inkscape:zoom="4"
     inkscape:cx="149.94797"
     inkscape:cy="172.95692"
     inkscape:document-units="mm"
     inkscape:current-layer="layer1"
     showgrid="false"
     fit-margin-top="0"
     fit-margin-left="0"
     fit-margin-right="0"
     fit-margin-bottom="0"
     inkscape:window-width="3840"
     inkscape:window-height="2115"
     inkscape:window-x="-13"
     inkscape:window-y="-13"
     inkscape:window-maximized="1"
     units="px"
     showguides="false" />
  <metadata
     id="metadata11000">
    <rdf:RDF>
      <cc:Work
         rdf:about="">
        <dc:format>image/svg+xml</dc:format>
        <dc:type
           rdf:resource="http://purl.org/dc/dcmitype/StillImage" />
        <dc:title></dc:title>
      </cc:Work>
    </rdf:RDF>
  </metadata>
  <g
     inkscape:label="Layer 1"
     inkscape:groupmode="layer"
     id="layer1"
     transform="translate(-35.146312,-50.389004)">
    <path
       inkscape:connector-curvature="0"
       id="path33493"
       d="M 35.219628,50.462323 H 138.35976 V 150.85843 H 35.219628 Z m 0,0"
       style="fill:url(#linearGradient4049);fill-opacity:1;fill-rule:nonzero;stroke:none;stroke-width:0.44545355"
       inkscape:export-filename="/home/vortico/pics/tmp/LFOs.png"
       inkscape:export-xdpi="150.22649"
       inkscape:export-ydpi="150.22649" />
    <g
       aria-label="Frozen Wasteland"
       style="font-style:normal;font-weight:normal;font-size:3.52777767px;line-height:1.25;font-family:sans-serif;letter-spacing:0px;word-spacing:0px;fill:#000000;fill-opacity:1;stroke:none;stroke-width:0.26458332"
       id="text271"
       transform="translate(30.162513,3.7041668)">
      <path
         d="m 41.358287,143.6804 -0.03175,0.55386 -0.03528,0.0353 h -0.726723 q -0.0035,0.004 -0.03881,0.12348 -0.01764,0.06 -0.03881,0.0776 -0.05292,-0.0635 -0.127,-0.17992 -0.01411,0.0635 -0.01411,0.14817 0,0.0353 0.0071,0.0988 0.0071,0.0635 0.0071,0.0952 0.01764,-0.0353 0.07761,-0.0353 0.105834,0 0.155223,0.0317 0.04586,0.0423 0.09525,0.0847 0.01411,0.004 0.03881,-0.0176 0,0 0.0247,-0.0247 0.0071,0 0.03528,0.0106 0.02822,0.0106 0.04233,0.0106 0.01411,0.0388 0.02117,0.21519 l 0.01411,0.34925 h -0.490361 l -0.02117,0.0459 v 0.97367 H 39.64026 v -2.43064 q -0.04586,-0.0247 -0.04586,-0.11289 0,-0.0741 0.09525,-0.16933 0.03881,-0.0388 0.123473,-0.0988 0.112889,0.0212 0.225777,0.0423 0.165806,0.0353 0.204612,0.0741 0.04939,0 0.275166,-0.10584 0.112889,-0.0529 0.155222,-0.0529 l 0.165806,0.0459 q 0.04233,0.0141 0.07056,0.0141 0.01764,0 0.02822,-0.004 0.02117,0.10231 0.08467,0.10231 0.02822,0 0.105834,-0.0212 0.102305,-0.0247 0.112889,-0.0282 0.05292,0 0.09172,0.0494 0.0388,0.0459 0.02469,0.0988 z m -0.07408,0.007 q -0.01058,-0.0776 -0.09172,-0.0776 -0.03175,0 -0.105834,0.0247 -0.07055,0.0247 -0.09878,0.0247 -0.01058,-0.0353 -0.0247,-0.0529 -0.08819,-0.11641 -0.303389,-0.11641 -0.08114,0 -0.254,0.11994 -0.08114,0.0564 -0.141111,0.0564 -0.03528,0 -0.07055,-0.0247 -0.0882,-0.06 -0.09878,-0.06 -0.01411,0 -0.04233,0.007 -0.02822,0.007 -0.03528,0.007 -0.03881,0 -0.109361,-0.0176 -0.06703,-0.0176 -0.0882,-0.0176 -0.04939,0 -0.102305,0.0564 -0.04939,0.0564 -0.04939,0.10583 0,0.0564 0.134055,0.15169 0.137584,0.0953 0.194028,0.0953 0.03881,0 0.112889,-0.0176 0.07408,-0.0176 0.109361,-0.0176 0.05997,0 0.155222,0.1905 0.03175,0.0635 0.08467,0.19402 0.01764,-0.15169 0.03175,-0.21872 0.04586,-0.22225 0.102306,-0.2293 0.01764,-0.004 0.04233,0.0494 0.02469,0.0494 0.04586,0.0494 0.119944,0 0.328083,-0.10936 0.05645,0.007 0.112889,0.06 l 0.09878,0.127 q 0,-0.0212 0.04586,-0.2293 0.02117,-0.0988 0.01764,-0.13053 z m -0.469194,1.16417 q 0,-0.0741 -0.05645,-0.067 -0.04939,0.007 -0.07055,0.007 -0.02117,0 -0.04939,-0.0106 -0.04939,-0.0317 -0.105834,-0.06 -0.06703,-0.0353 -0.102305,-0.0353 -0.02822,0 -0.04939,0.0882 -0.02117,0.0741 -0.02117,0.11641 0,0.0317 0.07761,0.0423 0.0247,0 0.07761,0.004 0.07761,0.11642 0.09525,0.13053 0.04586,0.0388 0.09878,0.0282 0.03528,-0.007 0.07056,-0.1023 0.03528,-0.0952 0.03528,-0.14111 z"
         style="font-style:normal;font-variant:normal;font-weight:normal;font-stretch:normal;font-family:'Snowtop Caps';-inkscape-font-specification:'Snowtop Caps';stroke-width:0.26458332"
         id="path4881"
         inkscape:connector-curvature="0" />
      <path
         d="m 43.247026,144.40006 q 0,-0.20461 -0.0635,-0.381 -0.01764,-0.0847 -0.02117,-0.11641 -0.01411,-0.067 -0.03528,-0.12348 -0.01764,-0.0564 -0.04233,-0.10583 -0.08114,0 -0.15875,-0.127 -0.07761,-0.13053 -0.141111,-0.12347 -0.05997,0 -0.112889,0.0811 -0.105834,0.16227 -0.127,0.16227 -0.02822,0 -0.07056,-0.067 -0.08467,-0.13759 -0.130528,-0.127 -0.109361,0.0388 -0.194027,0.0776 -0.08114,0.0353 -0.141112,0.067 -0.02822,-0.007 -0.08819,-0.0917 -0.05644,-0.0882 -0.15875,-0.0882 -0.07408,0 -0.151694,0.10583 -0.07761,0.0988 -0.07761,0.17992 v 2.55411 h 0.680862 v -1.04069 l 0.02117,-0.0353 q 0.09172,0.007 0.162278,0.0106 0.07056,0 0.116417,0.004 l -0.0035,1.02305 q 0.02117,0.0353 0.06703,0.0353 l 0.395111,0.004 q 0.09525,0 0.15875,-0.0423 0.06703,-0.0423 0.06703,-0.13053 l -0.0071,-0.46567 q -0.0035,-0.25753 -0.03175,-0.38453 -0.04586,-0.21519 -0.201083,-0.29986 0.194027,-0.11289 0.250472,-0.22225 0.0388,-0.0776 0.0388,-0.23636 z m -0.07761,-0.2928 q -0.0071,0.0529 -0.01058,0.0917 -0.0035,0.0353 -0.0071,0.0564 -0.01411,0.11289 -0.02117,0.1517 l -0.105834,-0.3175 q -0.05997,-0.12347 -0.130527,-0.11289 -0.03881,0.007 -0.07408,0.0741 -0.03528,0.067 -0.04939,0.0706 -0.03528,-0.0706 -0.05644,-0.10936 -0.01764,-0.0423 -0.02469,-0.0494 -0.04939,-0.0741 -0.08819,-0.0847 -0.04939,-0.0106 -0.119944,0.1905 -0.02822,0.0741 -0.05292,0.17992 -0.07056,-0.0988 -0.116417,-0.15875 -0.04233,-0.06 -0.05997,-0.0847 -0.09525,-0.127 -0.151694,-0.127 -0.0635,0 -0.3175,0.34925 H 41.7618 q 0.0071,-0.0106 0.0071,-0.0212 0.0035,-0.0141 0.0035,-0.0494 0,-0.19403 -0.197555,-0.39159 0.07055,-0.18344 0.07055,-0.18344 0.03528,-0.0635 0.116417,-0.0635 0.04939,0 0.141111,0.0882 0.09172,0.0882 0.105833,0.0882 0.03175,0 0.144639,-0.0811 0.116417,-0.0847 0.183445,-0.0741 0.03528,0.007 0.09172,0.11642 0.0635,0.10936 0.09172,0.10936 0.05292,0 0.127,-0.13053 0.07408,-0.13052 0.137584,-0.13052 0.04939,0 0.130527,0.127 0.08114,0.127 0.141111,0.11289 0.03528,0.0388 0.0635,0.1905 0.02469,0.14463 0.04939,0.17286 z M 42.6085,144.4424 v 0.0529 q 0,0.0988 -0.05645,0.10936 -0.02469,0.004 -0.215194,-0.0564 -0.07408,0.0106 -0.102306,0.0705 v -0.39158 q 0.0635,-0.007 0.134056,0.0635 0.07761,0.0706 0.08819,0.0706 0.04233,0 0.07761,-0.0564 0.01058,-0.0176 0.01764,-0.0318 0.0071,-0.0141 0.01411,-0.0247 0.05292,0.067 0.04233,0.19403 z m -0.130528,0.25047 q -0.01764,0.0459 -0.02469,0.0847 -0.0071,0.0388 -0.01058,0.0706 -0.01058,-0.0247 -0.01764,-0.0318 -0.02117,-0.0247 -0.04233,-0.0317 -0.03175,-0.004 -0.06703,0.0353 -0.03175,0.0423 -0.03528,0.0423 v -0.0353 q 0,-0.19402 0.0635,-0.19402 0.01058,0 0.09172,0.0423 0.03528,0.0176 0.04233,0.0176 z m -0.546806,-0.89959 q 0.0035,-0.0106 -0.02469,-0.0247 -0.01058,-0.004 -0.03175,-0.0106 v 0.06 q 0.01764,-0.007 0.03175,-0.0106 0.01411,-0.007 0.02469,-0.0141 z"
         style="font-style:normal;font-variant:normal;font-weight:normal;font-stretch:normal;font-family:'Snowtop Caps';-inkscape-font-specification:'Snowtop Caps';stroke-width:0.26458332"
         id="path4883"
         inkscape:connector-curvature="0" />
      <path
         d="m 45.154782,144.38595 q 0.03881,0.36336 0.03881,0.68792 0,0.75494 -0.268111,1.016 -0.1905,0.18697 -0.642056,0.18697 -0.867833,0 -0.867833,-1.0795 0,-0.36689 0.01411,-0.46214 0,-0.36336 0.09172,-0.55739 0,-0.0317 -0.03175,-0.13758 -0.03175,-0.10583 -0.03175,-0.14817 0,-0.0811 0.08819,-0.17286 0.08819,-0.0952 0.169333,-0.0952 0.03528,0.0141 0.05644,0.0141 0.07761,-0.0776 0.179917,-0.0776 0.05644,0 0.08467,0.0423 0.02822,0.0423 0.03175,0.0423 0.03528,0.004 0.116416,-0.067 0.08114,-0.0706 0.09878,-0.067 0.01764,0.004 0.05645,0.0247 0.0388,0.0176 0.04233,0.0176 0.03175,0 0.127,-0.0635 0.09878,-0.0635 0.123472,-0.067 0.08819,0 0.186972,0.0564 0.09878,0.0565 0.119945,0.13759 0.0071,0.004 0.116417,0.40922 0.07761,0.29633 0.09878,0.35983 z m -0.105833,-0.17992 q -0.0071,-0.0317 -0.04586,-0.15522 -0.02117,-0.067 -0.01411,-0.0882 -0.05292,-0.0282 -0.07761,-0.16581 -0.02822,-0.17286 -0.03175,-0.18344 -0.01764,-0.0388 -0.127,-0.0882 -0.109361,-0.0529 -0.155223,-0.0529 -0.04586,0.0529 -0.09172,0.10583 -0.07055,0.0811 -0.09525,0.0811 -0.0035,0 -0.03528,-0.0423 -0.03175,-0.0423 -0.07761,-0.0423 -0.02469,0 -0.112889,0.0811 -0.08467,0.0776 -0.116416,0.0811 -0.04586,-0.0847 -0.119945,-0.0847 -0.02469,0 -0.112889,0.0317 -0.08467,0.0317 -0.119944,0.0317 l -0.04233,-0.0141 q -0.03528,0.0106 -0.102306,0.0776 -0.0635,0.067 -0.0635,0.0988 -0.01058,0.0494 0.03175,0.1517 0.04233,0.1023 0.09172,0.11288 0.01411,0.004 0.08114,-0.0423 0.06703,-0.0494 0.0882,-0.0529 0.04586,0 0.07408,0.0388 0.03881,-0.0106 0.102306,-0.10231 0.06703,-0.0917 0.105833,-0.0917 0.04233,0 0.127,0.0635 0.08467,0.0635 0.116417,0.0635 0.0388,0 0.05644,-0.0882 0.01764,-0.0917 0.05644,-0.0917 0.102306,0 0.194028,0.15522 0.03528,0.06 0.105834,0.18344 0.03528,-0.15875 0.09525,-0.15875 0.04586,0 0.197555,0.67381 l -0.01411,-0.40922 q 0.03175,-0.0282 0.03175,-0.0776 z m -0.585611,1.52753 v -1.52753 q 0,-0.0847 -0.04586,-0.0847 -0.0071,0 -0.03881,0.0459 -0.03175,0.0459 -0.05644,0.0459 -0.01764,0.004 -0.02822,-0.0494 -0.01058,-0.0564 -0.0247,-0.0635 -0.03175,-0.0106 -0.05997,0.0317 -0.0247,0.0388 -0.0247,0.0741 v 1.38289 q 0.02117,-0.0212 0.0635,-0.0282 0.0247,0 0.215195,0.17286 z m -0.03881,0.16581 q 0.0071,-0.14464 -0.176389,-0.24695 -0.02469,0.007 -0.04586,0.10231 -0.01764,0.0776 -0.01764,0.11994 0,0.0494 0.01411,0.0811 0.01058,-0.004 0.02469,-0.004 0.05292,0 0.105833,0.0776 0.02117,0.0317 0.05292,0.1023 0.01764,-0.0776 0.04233,-0.23283 z m 0.257528,-2.17664 -0.01058,0.0459 q -0.02117,0.0423 -0.05997,0.0423 l -0.01411,-0.007 q -0.01764,-0.004 -0.0388,-0.0247 l -0.03175,-0.0776 h 0.01411 q 0.01411,0.0247 0.0635,0.0565 z m -0.860778,0.18344 q -0.01058,0.007 -0.02469,0.007 -0.01764,0 -0.03528,-0.0176 l -0.03881,-0.0317 0.0071,-0.0247 q 0.0247,0 0.05645,0.0247 0.03528,0.0212 0.03528,0.0423 z"
         style="font-style:normal;font-variant:normal;font-weight:normal;font-stretch:normal;font-family:'Snowtop Caps';-inkscape-font-specification:'Snowtop Caps';stroke-width:0.26458332"
         id="path4885"
         inkscape:connector-curvature="0" />
      <path
         d="m 47.203815,146.25567 -0.03528,0.0212 H 45.32351 v -0.55739 l 0.917222,-1.31939 q 0.04939,-0.0494 0.07761,-0.13758 l -0.384528,-0.0282 q -0.03528,0.0847 -0.03528,0.0882 -0.02822,0.0494 -0.07761,0.0494 0,-0.10936 -0.109361,-0.13406 -0.02469,-0.007 -0.1905,-0.0141 -0.05997,0 -0.09172,-0.0106 -0.0247,-0.0952 -0.0247,-0.21519 0,-0.13406 0.03881,-0.32103 0.05292,-0.254 0.137583,-0.254 0.03881,0 0.09878,0.0564 0.0635,0.0529 0.105833,0.0529 0.02822,0 0.102306,-0.0494 0.03528,-0.0247 0.06703,-0.0247 0.179916,0 0.179916,0.0847 0,0.0459 0.01411,0.0459 0.02822,0 0.134055,-0.0776 0.109361,-0.0811 0.215195,-0.0811 0.105833,0 0.151694,0.0741 0.04939,0.0705 0.0635,0.0705 0.05644,-0.0353 0.155222,-0.0776 0.02822,-0.004 0.0635,-0.004 0.169334,0 0.225778,0.13759 0.03881,0.0917 0.03881,0.30339 v 0.14816 q 0,0.0776 0.0071,0.13053 -0.05644,0.0494 -0.09172,0.33514 -0.01764,0.13758 -0.04939,0.17992 l -0.05997,-0.13759 q -0.112889,0.0952 -0.328084,0.40922 l -0.232833,0.33162 q 0.130528,0.22225 0.22225,0.22225 0.01411,0 0.08819,-0.0247 l 0.08114,-0.0282 q 0.03528,0 0.109362,0.0529 0.123472,0.0882 0.179916,0.0882 0.01058,0 0.01764,-0.004 0.0247,0.0423 0.04586,0.33514 0.0071,0.10231 0.01764,0.28222 z m -0.08467,-2.49766 q 0,-0.0811 -0.05644,-0.14111 -0.05292,-0.0635 -0.130528,-0.0635 -0.04939,0 -0.119944,0.0529 -0.07056,0.0529 -0.105834,0.0529 -0.01058,0 -0.134055,-0.0988 -0.0635,-0.0494 -0.123472,-0.0494 -0.208139,0.15522 -0.303389,0.15522 -0.06703,0 -0.109361,-0.0811 -0.04233,-0.0811 -0.04586,-0.0811 -0.05292,0 -0.119945,0.0811 -0.06703,0.0811 -0.116417,0.0811 -0.01411,-0.0141 -0.08819,-0.0917 -0.04233,-0.0459 -0.07761,-0.0353 -0.06703,0.0212 -0.06703,0.16934 v 0.0388 q 0,0.007 0.0035,0.0176 0.105833,0.007 0.176389,0.15522 0.04939,0.10937 0.148166,0.32809 0.03528,0.004 0.05645,-0.0353 -0.02117,-0.0564 -0.02822,-0.10583 0,-0.0811 0.03881,-0.17639 0.04939,-0.11995 0.116417,-0.11995 0.03881,0 0.134055,0.10936 0.04586,0.0529 0.08114,0.0494 0.01058,-0.004 0.03528,-0.0388 0.0247,-0.0388 0.08114,-0.0388 0.01411,0 0.102306,0.0423 0.08819,0.0423 0.130527,0.0423 0.03528,0 0.09878,-0.0811 0.03528,-0.0459 0.07408,-0.0564 0.03175,-0.007 0.119945,0.18697 0.05644,0.14111 0.112889,0.27869 -0.0035,0.0353 -0.0035,0.0529 0,0.10936 0.0635,0.127 0.01411,-0.12347 0.02822,-0.26811 0.02822,-0.3175 0.02822,-0.45861 z m -0.02117,1.95439 q -0.03528,-0.0106 -0.155222,-0.0706 -0.116417,-0.06 -0.130528,-0.06 -0.04233,0 -0.105834,0.0353 -0.05997,0.0353 -0.0635,0.0353 -0.102305,0 -0.204611,-0.15875 -0.05292,-0.0811 -0.105833,-0.0847 -0.04233,0 -0.102306,0.14464 -0.05997,0.14111 -0.0388,0.19402 0.01411,0.0423 0.05644,0.0882 0.04939,0.0564 0.08467,0.0564 0.02822,0 0.04939,-0.0529 0.02469,-0.0565 0.04586,-0.0635 0.05292,-0.0176 0.112889,0.0952 0.05997,0.10936 0.07055,0.10583 0.03528,-0.007 0.09172,-0.10936 0.05997,-0.10584 0.137583,-0.10584 0.02469,0.0106 0.144639,0.0882 0.06703,0.0423 0.09878,0.0423 0.01411,0 0.02822,-0.0564 0.01058,-0.0459 0.01058,-0.067 0,-0.0529 -0.02469,-0.0564 z"
         style="font-style:normal;font-variant:normal;font-weight:normal;font-stretch:normal;font-family:'Snowtop Caps';-inkscape-font-specification:'Snowtop Caps';stroke-width:0.26458332"
         id="path4887"
         inkscape:connector-curvature="0" />
      <path
         d="m 49.152416,146.23451 -0.04939,0.0423 h -1.68275 l -0.03528,-0.0353 v -1.54164 q 0,-0.58914 -0.105833,-1.06891 0.03528,-0.0318 0.109361,-0.0988 0.07761,-0.067 0.148167,-0.067 0.02822,0 0.144639,0.0564 0.116416,0.0529 0.15875,0.0529 0.03528,0 0.176389,-0.1023 0.0635,-0.0459 0.08819,-0.0423 0.1905,0.0353 0.264583,0.13759 0.218723,0 0.338667,-0.0388 0.08114,-0.0317 0.250472,-0.0917 0.04233,0 0.137584,0.06 0,0.59972 -0.04939,0.70908 l -0.627945,0.0141 q -0.07761,0.0776 -0.112889,0.0776 0,0 -0.0388,-0.0318 -0.03528,-0.0317 -0.08467,-0.0317 -0.109361,0 -0.109361,0.16933 0,0.0635 0.0247,0.24342 0.04586,-0.0847 0.169333,-0.0847 0.102305,0 0.134055,0.0353 0.01764,0.0212 0.03175,0.0212 0.09172,-0.0776 0.127,-0.0776 0.01058,0 0.03175,0.007 0.01058,0 0.02117,0.007 0.01411,0.17639 0.01411,0.41628 v 0.0988 q -0.0071,0.0353 -0.0071,0.0459 -0.01764,0.0212 -0.112889,0.0318 -0.01411,0 -0.04586,0.004 -0.0071,0.007 -0.03528,0.11642 -0.0247,0.10936 -0.05644,0.127 l -0.05292,-0.1517 q -0.0247,-0.0635 -0.04233,-0.0917 l -0.109361,0.007 q -0.05644,0.004 -0.08114,0.0282 l 0.02117,0.27869 q 0.03528,0 0.0635,-0.004 l 0.137583,-0.0176 q 0.141111,0 0.197556,0.0917 0.05292,-0.0212 0.116417,-0.0212 0.01764,0 0.232833,0.0459 0.09878,0.0212 0.134055,0.0212 0.0071,0.004 0.04233,0.0741 0.03528,0.067 0.07408,0.067 0.01764,0 0.02822,-0.004 0.0071,0.22578 0.02117,0.51506 z m -0.105833,-2.68111 q 0,-0.0106 -0.04233,-0.0318 -0.04233,-0.0212 -0.05292,-0.0176 -0.289278,0.14111 -0.532695,0.14111 -0.08819,0 -0.169333,-0.0529 -0.08114,-0.0529 -0.09172,-0.0529 -0.0882,0 -0.172861,0.0635 -0.08467,0.0635 -0.123473,0.0635 -0.05292,0 -0.141111,-0.0529 -0.08819,-0.0529 -0.155222,-0.0529 -0.134055,0 -0.172861,0.0494 -0.02117,0.0282 -0.02117,0.11994 0,0.11642 0.07761,0.37042 0.08114,0.254 0.08114,0.35631 -0.0035,-0.0247 -0.0071,-0.067 -0.01058,-0.10231 -0.01058,-0.1517 0,-0.21166 0.08819,-0.21166 0.0071,0 0.04586,0.0141 0.03881,0.0141 0.05997,0.0141 0.03881,0.004 0.07761,-0.10936 0.04233,-0.11289 0.09525,-0.11289 0.09172,0 0.119945,0.11994 0.01411,0.14112 0.02117,0.17639 0.05645,-0.23636 0.105834,-0.23636 0.05292,0 0.112889,0.11995 0.0388,0.0882 0.07408,0.17286 0.08114,-0.27164 0.162278,-0.27164 0.03528,0 0.08819,0.0353 0.05645,0.0353 0.05645,0.0353 0.01764,-0.0459 0.03528,-0.1023 0.03175,-0.10231 0.05645,-0.10231 0.116416,0 0.179916,0.067 0.09878,-0.10583 0.112889,-0.127 0.04233,-0.067 0.04233,-0.1658 z m -0.500945,1.08655 q -0.03175,0.06 -0.105833,0.06 -0.01764,0 -0.08114,-0.0317 -0.0635,-0.0353 -0.09878,-0.0282 -0.05644,0.0106 -0.09525,0.067 -0.03528,0.0529 -0.02469,0.10583 0.02117,0.0952 0.112889,0.11289 0.05644,0.15875 0.116416,0.3175 0.179917,-0.30339 0.179917,-0.55739 0,-0.0212 -0.0035,-0.0459 z m 0.508,1.17122 q 0,-0.06 -0.183444,-0.14816 -0.148167,-0.0706 -0.215195,-0.0811 l -0.01764,0.0176 q -0.03175,0.0247 -0.134055,0.0247 -0.02117,0 -0.112889,-0.0529 -0.08819,-0.0564 -0.15875,-0.0564 -0.0388,0 -0.07408,0.0706 -0.03175,0.067 -0.03175,0.11288 0,0.24342 0.08819,0.24342 0.08114,0 0.144639,-0.067 0.0635,-0.0705 0.05997,-0.0705 0.0035,0 0.102306,0.11994 0.102305,0.11642 0.134055,0.11642 0.05292,0 0.141111,-0.18345 0.07056,-0.0106 0.127,0.0882 0.03175,0.0705 0.0635,0.13758 -0.01058,-0.0282 -0.01058,-0.0564 0,-0.0494 0.0247,-0.10231 z"
         style="font-style:normal;font-variant:normal;font-weight:normal;font-stretch:normal;font-family:'Snowtop Caps';-inkscape-font-specification:'Snowtop Caps';stroke-width:0.26458332"
         id="path4889"
         inkscape:connector-curvature="0" />
      <path
         d="m 51.032115,146.26978 h -0.687916 l -0.405695,-1.03363 v 1.04069 h -0.638527 l 0.0035,-2.36361 q 0,-0.47625 0.15875,-0.47625 0.03528,0 0.08114,0.0494 0.04939,0.0459 0.07761,0.0459 -0.0035,0 0.05997,-0.0529 0.0635,-0.0529 0.134055,-0.0564 0.05644,0 0.105833,0.0564 0.0071,0.0317 0.09172,0.10936 0.08819,0.0741 0.09525,0.0952 0.0071,0.0741 0.02469,0.22225 0.02822,0.19756 0.09525,0.29281 0.04586,-0.0565 0.119945,-0.0565 0.04939,0 0.06703,0.0282 l 0.02822,-0.0353 q 0,-0.0353 0,-0.10231 -0.0035,-0.067 -0.0035,-0.1023 0,-0.46567 0.225778,-0.46567 0.08114,0 0.123472,0.0529 0.04233,0.0529 0.08114,0.10583 l 0.09172,-0.0212 q 0.07055,0 0.07055,0.0212 z m -0.07761,-2.59644 q -0.01764,0.0106 -0.02469,0.0141 -0.02822,0.0141 -0.04586,0.0141 -0.03881,0 -0.112889,-0.0917 -0.07408,-0.0917 -0.127,-0.0776 -0.04939,0.007 -0.09172,0.0917 -0.0247,0.067 -0.05292,0.13406 0.09525,0.11994 0.194028,0.23989 0.09172,0.13405 0.148166,0.28575 0,-0.10584 0.0635,-0.28928 0.0635,-0.18697 0.0635,-0.25047 0,-0.0423 -0.01411,-0.0706 z m -0.860777,0.254 q 0,-0.10936 -0.05997,-0.254 -0.04233,0 -0.123472,-0.0952 -0.07761,-0.0988 -0.102305,-0.0988 -0.0247,0 -0.102306,0.067 -0.07761,0.0635 -0.08114,0.0635 -0.01411,0 -0.08467,-0.0529 -0.07056,-0.0529 -0.09525,-0.0529 -0.04233,0 -0.06703,0.0882 -0.01764,0.067 -0.01764,0.12347 0,0.11289 0.08467,0.43392 0.0388,-0.0353 0.116416,-0.20108 0.02822,0.007 0.155222,0.18697 0.01411,-0.0141 0.03528,-0.0988 0.04233,-0.16933 0.09172,-0.19755 0.176389,0.10936 0.176389,0.26105 l 0.03175,-0.007 q 0.04233,-0.0811 0.04233,-0.16581 z m 0.405694,0.75847 v -0.0529 q 0,0.0141 0.0035,-0.0741 0.0035,-0.13053 -0.06703,-0.25753 -0.05644,-0.0917 -0.123472,-0.1023 -0.0247,0.0247 -0.02822,0.0353 -0.0071,0.0141 0.01058,0.0388 0.01764,0.0247 0.01764,0.0318 -0.05292,0.127 -0.04939,0.17286 l 0.01411,0.29986 h 0.02117 q -0.01411,-0.0953 0.144639,-0.0953 h 0.03881 q 0.0071,0 0.01764,0.004 z m -0.811389,-0.99836 q -0.01411,0.0247 -0.02469,0.0317 -0.0247,0.0212 -0.04586,0.0212 -0.01058,0 -0.02117,-0.004 -0.0035,-0.0635 0.09172,-0.0635 z"
         style="font-style:normal;font-variant:normal;font-weight:normal;font-stretch:normal;font-family:'Snowtop Caps';-inkscape-font-specification:'Snowtop Caps';stroke-width:0.26458332"
         id="path4891"
         inkscape:connector-curvature="0" />
      <path
         d="m 55.182215,143.72978 q 0,0.0741 -0.05997,0.2787 -0.05997,0.20108 -0.05997,0.28928 l -0.41275,1.95086 -0.03881,0.0212 h -0.670278 l -0.02822,-0.0494 Q 53.827547,145.73005 53.6688,145.088 l -0.243417,1.16769 -0.518583,0.0212 q -0.239889,0.0106 -0.239889,-0.25047 v -0.0353 q 0,-0.004 0.0035,-0.0141 -0.08114,-0.30339 -0.239889,-1.08303 -0.0635,-0.31044 -0.102305,-0.45155 -0.04233,0 -0.05292,0.0212 -0.0247,-0.0247 -0.03881,-0.10936 v -0.0423 q 0,-0.0423 0.0071,-0.11642 l 0.0035,-0.0741 q 0,-0.22578 -0.105834,-0.34925 0.0035,0 0.05292,-0.14111 0.04233,-0.127 0.112889,-0.127 0.0388,0 0.130528,0.0635 0.0388,0.0282 0.04939,0.0282 0.03528,-0.007 0.07408,-0.0635 0.03881,-0.0565 0.05292,-0.06 0.04586,0 0.218722,0.27164 0.04233,0.1023 0.127,0.44097 0.01764,0.06 0.07408,0.29986 0.0247,0.004 0.03881,0.004 l 0.119944,0.0176 q 0.02117,0 0.04586,-0.0564 0.0035,-0.0106 0.01058,-0.0282 l 0.155222,-0.69145 q -0.03528,-0.0106 -0.04939,-0.0847 -0.0071,-0.0317 0.02822,-0.0847 0.07056,-0.10936 0.123472,-0.10936 0.02822,0 0.151695,0.0811 0,0 0.0635,-0.0494 0.06703,-0.0529 0.15875,-0.0529 0.109361,0 0.130528,0.0952 l 0.201083,0.92428 q 0.01764,-0.0141 0.04939,-0.0318 0.05644,-0.0317 0.102305,-0.0317 0.04233,0 0.04939,0.007 0.09878,-0.25753 0.127,-0.41981 0.01411,-0.0847 0.01411,-0.30692 0,-0.0459 0.04939,-0.12347 0.05292,-0.0776 0.09525,-0.0776 0.08467,0 0.102306,0.0776 0.02469,0.0882 0.04586,0.0952 0.01764,0.007 0.09878,-0.0529 0.08114,-0.06 0.116416,-0.067 0.08467,0 0.109361,0.067 0.01058,0.0353 0.01058,0.14463 z m -0.0635,-0.0212 q 0,-0.10584 -0.04939,-0.10584 -0.05292,0.0459 -0.08114,0.0635 -0.09525,0.06 -0.155222,0.0423 -0.04233,-0.0141 -0.08114,-0.0952 -0.03881,-0.0811 -0.05292,-0.0811 -0.03881,0 -0.0635,0.067 -0.01764,0.0529 -0.01764,0.1023 0,0.0529 0.02117,0.1517 0.02117,0.0988 0.03881,0.0952 0.02117,-0.004 0.04233,-0.0529 0.01058,-0.0247 0.02117,-0.0247 0.06703,0 0.102305,0.21872 0.02117,0.14464 0.04233,0.28928 0.06703,-0.16934 0.130528,-0.3422 0.09172,-0.23989 0.102306,-0.32808 z m -1.135945,0 q 0,-0.0564 -0.02822,-0.13053 -0.03528,-0.0882 -0.08467,-0.0882 -0.07055,0 -0.123472,0.0705 -0.05292,0.0706 -0.08467,0.0706 -0.02822,0 -0.07761,-0.0529 -0.04586,-0.0529 -0.07761,-0.0388 -0.03528,0.0106 -0.04586,0.0212 -0.02117,0.0176 -0.02117,0.0423 0,0.1905 0.137583,0.30339 0.01764,0.0776 0.0635,0.16228 0.0035,0 0.0388,-0.0741 0.03528,-0.0776 0.05645,-0.0811 0.02469,-0.004 0.08819,0.22578 0.0635,0.22577 0.0882,0.23283 0.01764,-0.0882 0.0388,-0.17639 0.03175,-0.28928 0.03175,-0.48683 z m 0.41275,1.03364 q -0.0071,-0.0459 -0.02822,-0.17286 -0.01058,-0.0529 -0.02469,-0.11995 -0.08819,0.0459 -0.08819,0.15522 0,0.0282 0.04939,0.22578 0.0247,0.0952 0.05292,0.1905 0.04233,-0.0811 0.04233,-0.19755 0,-0.0529 -0.0035,-0.0811 z m -1.598083,-0.74436 q 0,-0.0776 -0.06703,-0.25048 -0.07055,-0.1905 -0.130528,-0.1905 -0.02822,0 -0.05644,0.0529 -0.03528,0.0706 -0.07056,0.0706 -0.03881,0 -0.08467,-0.0635 -0.04586,-0.067 -0.08114,-0.0564 -0.08114,0.0212 -0.08114,0.17639 0.02822,0.10583 0.05292,0.21167 0.0388,0.15169 0.0388,0.20461 0.0035,0.0176 0.0035,0.0282 v 0.0247 q 0,0.0635 -0.01411,0.0741 v -0.004 q 0.04586,-0.007 0.07055,-0.21167 0.0247,-0.20461 0.06703,-0.20461 0.0247,0 0.06703,0.0247 0.01764,0.0106 0.02117,0.0318 0.0388,0.31044 0.0635,0.45861 0.02822,0.0882 0.05997,0.17286 0.0071,-0.004 0.02117,-0.0741 0.01764,-0.0882 0.03528,-0.17639 0.01764,-0.0917 0.05292,-0.17286 0.03175,-0.0706 0.03175,-0.127 z m 0.465667,0.83608 q 0,-0.16228 -0.08819,-0.23283 -0.02469,-0.0212 -0.09172,-0.0388 0,0.34572 0.102306,0.53269 0.07761,-0.067 0.07761,-0.26105 z"
         style="font-style:normal;font-variant:normal;font-weight:normal;font-stretch:normal;font-family:'Snowtop Caps';-inkscape-font-specification:'Snowtop Caps';stroke-width:0.26458332"
         id="path4893"
         inkscape:connector-curvature="0" />
      <path
         d="m 56.672646,146.27684 h -0.620889 l -0.119945,-0.43744 h -0.395111 l -0.127,0.43744 h -0.560916 q 0,-0.0529 0.130527,-0.63853 0.0635,-0.28928 0.254,-1.10066 l 0.155223,-0.66675 q -0.05644,-0.0494 -0.05644,-0.127 0,-0.21167 0.162278,-0.21167 0.05997,0 0.07761,0.007 0.02469,0.0176 0.05292,0.0282 0.01764,0.007 0.03881,-0.0317 0.02469,-0.0423 0.05997,-0.0423 0.03881,0 0.05645,-0.0353 0.01764,-0.0353 0.02117,-0.0353 0.03175,0.007 0.155222,0.0106 0.09878,0.004 0.137583,0.0318 0.04233,0.0247 0.04233,0.0811 l -0.0071,0.0494 q 0,0.0388 0.06703,0.13405 0.03528,0.0529 0.03528,0.0882 -0.0071,0.23283 -0.02117,0.40922 0.02822,0.11995 0.116416,0.49742 0.105834,0.4445 0.218723,0.95603 0.119944,0.54327 0.127,0.59619 z m -0.483306,-2.33539 q 0,-0.16228 -0.05292,-0.21519 -0.02822,-0.0282 -0.02822,-0.0388 l 0.0071,-0.0494 q 0,-0.0494 -0.03881,-0.1023 -0.03528,-0.0565 -0.08114,-0.0565 -0.02822,0.0212 -0.04939,0.0247 -0.0071,0 -0.05292,-0.0247 -0.04586,-0.0247 -0.0635,-0.0212 -0.02117,0.004 -0.03881,0.06 -0.01764,0.0564 -0.03175,0.0564 l -0.03528,-0.007 q -0.01411,0 -0.02822,0.0176 -0.03175,0.0459 -0.04939,0.0459 -0.02822,0 -0.102305,-0.0353 -0.04233,-0.0212 -0.05644,-0.0212 -0.09172,0 -0.09172,0.0988 0,0.0388 0.01764,0.0776 0.06703,0.14464 0.06703,0.2787 0,0.0212 0,0.067 -0.0035,0.0423 -0.0035,0.0635 0,0.0529 0.01764,0.0529 0.04233,0 0.04233,-0.14111 0,-0.10583 0,-0.10936 0.01058,-0.0706 0.05997,-0.0706 0.02117,0 0.06703,0.13759 0.04586,0.13405 0.05997,0.14111 0,-0.24342 0.03528,-0.24342 0.01058,0 0.04586,0.17992 0.03881,0.17639 0.09172,0.17639 0.01411,-0.0141 0.03528,-0.0882 0.0071,-0.0247 0.02822,-0.0882 0,-0.0176 -0.01764,-0.0494 -0.01764,-0.0318 -0.01764,-0.0459 0,-0.0529 0.02117,-0.0494 0.0035,0 0.0247,0.0388 0.02117,0.0388 0.02469,0.0459 0.02117,0.0247 0.07056,0.23284 0.04939,0.20461 0.05644,0.20461 0.02117,-0.13406 0.03175,-0.20814 0.03528,-0.24694 0.03528,-0.33514 z m -0.338667,1.36878 -0.08467,-0.64911 q -0.02822,0.0388 -0.105834,0.36336 -0.03881,0.16228 -0.04233,0.19755 0.1905,0.11642 0.232833,0.0882 z m -0.0071,0.18344 q 0,-0.0212 0.0035,-0.0459 -0.0071,-0.0494 -0.0247,-0.0741 l -0.03528,0.007 q -0.02117,0 -0.07408,-0.0388 -0.05292,-0.0388 -0.07408,-0.0388 -0.0071,0 -0.01764,0.004 -0.0071,0.004 -0.01764,0.0106 0,0.0247 0.01764,0.15875 0.02117,0.13406 0.02469,0.13406 0.0071,0 0.0635,-0.06 0.05997,-0.0635 0.08467,-0.0706 0.01058,0 0.03175,0.007 0.0071,0 0.01764,0.007 z m 0.130528,-1.91205 q 0,0.0212 -0.05644,0.0212 -0.03881,0.0141 -0.07408,0.0282 -0.0071,-0.007 -0.0071,-0.0176 0,-0.0459 0.06703,-0.0459 0.07056,0 0.07056,0.0141 z"
         style="font-style:normal;font-variant:normal;font-weight:normal;font-stretch:normal;font-family:'Snowtop Caps';-inkscape-font-specification:'Snowtop Caps';stroke-width:0.26458332"
         id="path4895"
         inkscape:connector-curvature="0" />
      <path
         d="m 58.885278,145.30317 q 0,0.46567 -0.254,0.71967 -0.254,0.254 -0.719666,0.254 -0.694973,0 -1.17475,-0.45156 v -0.0494 l 0.328083,-0.43039 q 0.03881,0.0141 0.07761,0.0141 0.07056,0 0.112889,-0.0706 0.134056,0.0212 0.1905,0.0423 0.109361,0.0388 0.130528,0.11994 0.03528,0 0.130527,-0.0529 0.09525,-0.0529 0.119945,-0.0529 0.05292,0 0.165805,0.0988 0.05644,0.0494 0.09172,0.0494 0.04939,0 0.04939,-0.0353 0,-0.0776 -0.345723,-0.1517 -0.451555,-0.0952 -0.642055,-0.20108 -0.345722,-0.1905 -0.345722,-0.55739 0,-0.10936 0.04233,-0.28575 -0.0635,-0.11995 -0.0635,-0.22931 0,-0.15875 0.07408,-0.27869 0.08467,-0.13758 0.232834,-0.13758 0.04586,0 0.144639,-0.10231 0.09878,-0.10231 0.172861,-0.0917 0.09878,0.0141 0.127,0.0564 0.01411,0.0212 0.02469,0.0176 0.03881,-0.0247 0.119944,-0.0529 0.04586,-0.004 0.119945,0.0388 0.07408,0.0423 0.09525,0.0423 0.194028,-0.067 0.321028,-0.067 0.08114,0 0.261055,0.25047 0.137584,0.19403 0.246945,0.24694 -0.01411,0.11995 -0.141111,0.30339 -0.04586,0.0635 -0.134056,0.1905 -0.204611,-0.0212 -0.204611,-0.10936 -0.179917,-0.067 -0.250472,-0.0882 -0.148167,-0.0459 -0.236361,-0.0459 -0.239889,0 -0.239889,0.13406 0,0.14464 0.352777,0.22931 0.536223,0.127 0.663223,0.1905 0.356305,0.17638 0.356305,0.54327 z m -0.331611,-1.38994 q 0,-0.0423 -0.155222,-0.20461 -0.151695,-0.16581 -0.201083,-0.17639 -0.02822,-0.007 -0.127,0.0317 -0.109362,0.0423 -0.137584,0.0459 -0.05644,0 -0.264583,-0.0988 -0.01764,0 -0.05292,0.0318 -0.03528,0.0317 -0.05997,0.0388 -0.02822,0.004 -0.07055,-0.0459 -0.03881,-0.0529 -0.04586,-0.0565 -0.04233,0.0106 -0.06703,0.0176 -0.07056,0.0212 -0.116417,0.0494 -0.01411,0.007 -0.04233,0.0847 -0.01764,0.0529 -0.134056,0.0705 -0.254,0.0353 -0.254,0.29281 0,0.0988 0.0247,0.14111 0.01058,-0.0212 0.04586,-0.0212 l 0.134055,0.0212 q 0.07056,-0.0952 0.127,-0.10231 0.02822,0 0.116417,0.18345 0.08819,0.18344 0.137583,0.19755 0.02822,-0.0529 0.0635,-0.32808 0.03175,-0.23283 0.08114,-0.23283 0.04586,0.0459 0.08467,0.0776 0.09878,0.0811 0.144639,0.0811 0.01058,0 0.04586,-0.11642 0.03881,-0.11642 0.09525,-0.11642 0.144639,0 0.254,0.2152 0.06703,0.17286 0.137583,0.34572 0,-0.0706 -0.05292,-0.43039 0,-0.0635 0.03881,-0.0635 0.0635,0 0.130528,0.0494 0.05644,0.0494 0.112889,0.0952 0.01411,0 0.01058,-0.0317 -0.0035,-0.0282 -0.0035,-0.0459 z m -0.384528,1.72508 q 0,-0.0459 -0.06703,-0.0635 -0.102306,-0.0212 -0.112889,-0.0282 -0.01058,-0.007 -0.05997,-0.0776 -0.03175,-0.0459 -0.09525,-0.0459 -0.01411,0 -0.236361,0.10583 -0.05292,0 -0.09525,-0.0635 -0.03881,-0.067 -0.09172,-0.0741 l -0.155222,-0.0247 q -0.05644,0.0847 -0.05644,0.11289 l 0.239888,0.39159 q 0.02822,-0.0565 0.04586,-0.0811 0.05997,-0.0847 0.112888,-0.0847 0.07408,0 0.09878,0.0635 0,0.004 0.04233,0.13053 0.02469,0 0.05644,-0.0741 0.03175,-0.0776 0.05997,-0.0776 0.05644,0 0.134056,0.0847 0.07055,0.0988 0.144639,0.19403 -0.02117,-0.0635 -0.02117,-0.11642 0,-0.0635 0.01764,-0.13053 z m -0.836083,-1.76036 q -0.01058,0.0247 -0.05644,0.0282 -0.02822,0 -0.03528,-0.0353 -0.01058,-0.0212 0.0388,-0.0212 0.05997,0 0.05292,0.0282 z"
         style="font-style:normal;font-variant:normal;font-weight:normal;font-stretch:normal;font-family:'Snowtop Caps';-inkscape-font-specification:'Snowtop Caps';stroke-width:0.26458332"
         id="path4897"
         inkscape:connector-curvature="0" />
      <path
         d="m 60.98315,144.24837 v -0.2787 q 0,-0.40216 -0.313972,-0.40216 -0.01764,0 -0.04233,0.0106 -0.02469,0.0106 -0.04939,0.0212 -0.02469,0.0106 -0.04233,0.0212 -0.01764,0.0106 -0.01764,0.0106 -0.02117,-0.007 -0.09172,-0.0917 -0.06703,-0.0882 -0.105833,-0.0882 -0.02469,0 -0.05292,0.0141 -0.03175,0 -0.07408,-0.0141 -0.03528,0 -0.134056,0.0847 -0.09172,0.0811 -0.119944,0.0882 -0.02822,0.007 -0.05644,-0.0635 -0.02469,-0.0141 -0.05644,-0.0353 -0.02822,-0.0247 -0.06703,-0.0529 -0.05292,-0.0423 -0.08467,-0.0423 -0.05644,0 -0.144639,0.0741 -0.08819,0.0705 -0.151694,0.0705 -0.09878,0 -0.123472,-0.0529 -0.0071,-0.0176 -0.01411,-0.0282 -0.0071,-0.0141 -0.01058,-0.0212 -0.105833,0 -0.183444,0.0529 -0.08819,0.0564 -0.08819,0.16228 0.0071,0.0635 0.04233,0.0776 v 0.50447 H 59.6814 v 2.00731 h 0.638528 v -2.02847 h 0.391583 q 0.04586,0.0282 0.08467,0.11641 0.0071,0.0141 0.01764,0.0459 0.01411,0.0317 0.03175,0.0811 0.04586,-0.007 0.08114,-0.11994 0.03881,-0.11642 0.05645,-0.12347 z m -0.850195,-0.43745 v -0.0212 q -0.01764,-0.0282 -0.03528,0 -0.0071,0.0106 0.01411,0.0212 0.0035,0.004 0.01058,0.004 0.0071,0 0.01058,-0.004 z m 0.765528,0.0212 -0.04586,0.17639 q -0.02117,0.0847 -0.02117,0.11994 0.01058,0.06 0.04586,0.11995 l -0.03175,0.0776 q -0.02469,-0.0388 -0.04939,-0.0847 -0.02117,-0.0459 -0.04233,-0.0952 -0.0071,-0.0141 -0.02469,-0.06 -0.01764,-0.0494 -0.04586,-0.13053 -0.03175,-0.0847 -0.123473,-0.0847 -0.116416,0.0141 -0.176388,0.26458 -0.0247,0 -0.05292,-0.0353 -0.0247,-0.0388 -0.04586,-0.0388 -0.134056,0 -0.172861,0.2293 l -0.04233,0.2787 q -0.07055,-0.20462 -0.105833,-0.30692 -0.105833,-0.29986 -0.282222,-0.29986 -0.03528,0.004 -0.07761,0.0353 -0.03881,0.0282 -0.04939,0.0282 -0.183445,-0.19403 -0.254,-0.19403 -0.01411,0 -0.04233,0.0176 -0.04586,0.0353 -0.07055,0.0353 -0.02822,0 -0.09525,-0.0882 -0.0635,-0.0882 -0.0635,-0.12347 0,-0.11289 0.08819,-0.11289 0.03881,0 0.116417,0.0388 0.07761,0.0388 0.116417,0.0388 0.0071,0 0.02469,-0.007 0.02117,-0.0106 0.03881,-0.007 0.0635,0 0.134055,-0.06 0.07056,-0.06 0.119945,-0.06 0.02469,0 0.09878,0.0741 0.144639,0.14464 0.151695,0.14464 0.03881,0 0.148167,-0.0988 0.112888,-0.1023 0.186972,-0.0988 0.05997,0.007 0.155222,0.13053 0.03528,0.0529 0.08819,0.0459 0.0247,0 0.130528,-0.0353 0.04233,-0.0141 0.08467,-0.0141 0.186972,0 0.186972,0.17992 z m -0.557389,-0.0882 q 0.0035,-0.0247 -0.03528,-0.0564 -0.03881,-0.0353 -0.06703,-0.0353 l -0.01411,0.0141 q -0.0071,0.0106 0.0071,0.0212 0.01764,0.0106 0.03175,0.0212 0.04939,0.06 0.0635,0.0494 z m -0.264583,0.1023 -0.04233,0.007 q -0.02469,0.0141 -0.04939,0.0141 -0.01058,0 -0.01764,-0.007 -0.04586,-0.0564 -0.0635,-0.0564 l -0.02117,0.007 q 0.02117,0.10936 0.08467,0.10936 0.02822,0 0.06703,-0.0247 0.03881,-0.0247 0.04233,-0.0494 z"
         style="font-style:normal;font-variant:normal;font-weight:normal;font-stretch:normal;font-family:'Snowtop Caps';-inkscape-font-specification:'Snowtop Caps';stroke-width:0.26458332"
         id="path4899"
         inkscape:connector-curvature="0" />
      <path
         d="m 62.919018,146.23451 -0.04939,0.0423 h -1.68275 l -0.03528,-0.0353 v -1.54164 q 0,-0.58914 -0.105833,-1.06891 0.03528,-0.0318 0.109361,-0.0988 0.07761,-0.067 0.148166,-0.067 0.02822,0 0.144639,0.0564 0.116417,0.0529 0.15875,0.0529 0.03528,0 0.176389,-0.1023 0.0635,-0.0459 0.08819,-0.0423 0.1905,0.0353 0.264583,0.13759 0.218722,0 0.338667,-0.0388 0.08114,-0.0317 0.250472,-0.0917 0.04233,0 0.137583,0.06 0,0.59972 -0.04939,0.70908 l -0.627944,0.0141 q -0.07761,0.0776 -0.112889,0.0776 0,0 -0.03881,-0.0318 -0.03528,-0.0317 -0.08467,-0.0317 -0.109361,0 -0.109361,0.16933 0,0.0635 0.02469,0.24342 0.04586,-0.0847 0.169333,-0.0847 0.102306,0 0.134056,0.0353 0.01764,0.0212 0.03175,0.0212 0.09172,-0.0776 0.127,-0.0776 0.01058,0 0.03175,0.007 0.01058,0 0.02117,0.007 0.01411,0.17639 0.01411,0.41628 v 0.0988 q -0.0071,0.0353 -0.0071,0.0459 -0.01764,0.0212 -0.112889,0.0318 -0.01411,0 -0.04586,0.004 -0.0071,0.007 -0.03528,0.11642 -0.02469,0.10936 -0.05644,0.127 l -0.05292,-0.1517 q -0.02469,-0.0635 -0.04233,-0.0917 l -0.109361,0.007 q -0.05645,0.004 -0.08114,0.0282 l 0.02117,0.27869 q 0.03528,0 0.0635,-0.004 l 0.137583,-0.0176 q 0.141111,0 0.197555,0.0917 0.05292,-0.0212 0.116417,-0.0212 0.01764,0 0.232833,0.0459 0.09878,0.0212 0.134056,0.0212 0.0071,0.004 0.04233,0.0741 0.03528,0.067 0.07408,0.067 0.01764,0 0.02822,-0.004 0.0071,0.22578 0.02117,0.51506 z m -0.105834,-2.68111 q 0,-0.0106 -0.04233,-0.0318 -0.04233,-0.0212 -0.05292,-0.0176 -0.289278,0.14111 -0.532694,0.14111 -0.08819,0 -0.169333,-0.0529 -0.08114,-0.0529 -0.09172,-0.0529 -0.08819,0 -0.172861,0.0635 -0.08467,0.0635 -0.123472,0.0635 -0.05292,0 -0.141111,-0.0529 -0.08819,-0.0529 -0.155222,-0.0529 -0.134056,0 -0.172861,0.0494 -0.02117,0.0282 -0.02117,0.11994 0,0.11642 0.07761,0.37042 0.08114,0.254 0.08114,0.35631 -0.0035,-0.0247 -0.0071,-0.067 -0.01058,-0.10231 -0.01058,-0.1517 0,-0.21166 0.08819,-0.21166 0.0071,0 0.04586,0.0141 0.0388,0.0141 0.05997,0.0141 0.03881,0.004 0.07761,-0.10936 0.04233,-0.11289 0.09525,-0.11289 0.09172,0 0.119944,0.11994 0.01411,0.14112 0.02117,0.17639 0.05644,-0.23636 0.105833,-0.23636 0.05292,0 0.112889,0.11995 0.03881,0.0882 0.07408,0.17286 0.08114,-0.27164 0.162277,-0.27164 0.03528,0 0.08819,0.0353 0.05644,0.0353 0.05644,0.0353 0.01764,-0.0459 0.03528,-0.1023 0.03175,-0.10231 0.05644,-0.10231 0.116417,0 0.179917,0.067 0.09878,-0.10583 0.112889,-0.127 0.04233,-0.067 0.04233,-0.1658 z m -0.500944,1.08655 q -0.03175,0.06 -0.105833,0.06 -0.01764,0 -0.08114,-0.0317 -0.0635,-0.0353 -0.09878,-0.0282 -0.05645,0.0106 -0.09525,0.067 -0.03528,0.0529 -0.0247,0.10583 0.02117,0.0952 0.112889,0.11289 0.05645,0.15875 0.116417,0.3175 0.179917,-0.30339 0.179917,-0.55739 0,-0.0212 -0.0035,-0.0459 z m 0.508,1.17122 q 0,-0.06 -0.183445,-0.14816 -0.148166,-0.0706 -0.215194,-0.0811 l -0.01764,0.0176 q -0.03175,0.0247 -0.134056,0.0247 -0.02117,0 -0.112888,-0.0529 -0.08819,-0.0564 -0.15875,-0.0564 -0.03881,0 -0.07408,0.0706 -0.03175,0.067 -0.03175,0.11288 0,0.24342 0.08819,0.24342 0.08114,0 0.144639,-0.067 0.0635,-0.0705 0.05997,-0.0705 0.0035,0 0.102305,0.11994 0.102306,0.11642 0.134056,0.11642 0.05292,0 0.141111,-0.18345 0.07056,-0.0106 0.127,0.0882 0.03175,0.0705 0.0635,0.13758 -0.01058,-0.0282 -0.01058,-0.0564 0,-0.0494 0.02469,-0.10231 z"
         style="font-style:normal;font-variant:normal;font-weight:normal;font-stretch:normal;font-family:'Snowtop Caps';-inkscape-font-specification:'Snowtop Caps';stroke-width:0.26458332"
         id="path4901"
         inkscape:connector-curvature="0" />
      <path
         d="m 64.830467,146.27331 q -0.05644,0.0212 -0.289278,0.0212 h -0.215194 q -0.116417,0 -0.141111,0.007 -0.02117,0.0494 -0.102306,0.0494 -0.01411,0 -0.05997,-0.0317 -0.01058,-0.007 -0.04586,-0.0318 h -0.885472 l 0.0035,-2.59997 q 0.127,-0.16933 0.264584,-0.18344 0.07055,0 0.151694,0.0705 0.07056,0.0635 0.116417,0.0529 0.02117,-0.007 0.02822,-0.007 0.02822,0.007 0.07761,0.0706 0.03175,0.0459 0.0635,0.0917 v 1.70039 q 0.04939,-0.0388 0.102306,-0.0388 0.03528,0 0.07408,0.004 l 0.07761,0.007 q 0.03175,0 0.03881,-0.007 0.07408,0.0564 0.123472,0.0564 0.05292,0 0.246944,-0.11289 0.09878,-0.0564 0.179917,-0.0564 0.03528,0 0.07408,0.007 0.01058,0 0.02117,0.007 0.112889,0.24342 0.112889,0.64206 0,0.20108 -0.01764,0.28222 z m -1.104194,-2.4765 q -0.01058,-0.10583 -0.165806,-0.10583 -0.03528,0 -0.134055,-0.10583 -0.04233,-0.0459 -0.08819,-0.0388 -0.109361,0.0141 -0.176389,0.13406 -0.01411,0.0282 -0.01058,0.06 0.109361,0.2293 0.144639,0.35983 0.01411,0 0.0635,-0.0317 0.04939,-0.0318 0.07055,-0.0388 0.04939,-0.0141 0.04939,0.0282 0,0.14816 0.01058,0.20461 0.02117,0.11642 0.102305,0.1658 0.04233,-0.30691 0.134056,-0.63147 z m 0.963083,1.60867 q -0.08467,0 -0.257528,0.0882 -0.172861,0.0882 -0.211667,0.0882 -0.04233,0 -0.07408,-0.0247 l -0.05644,-0.0388 q -0.02117,0.0141 -0.03528,0.0141 -0.02117,0 -0.06703,-0.0212 -0.04586,-0.0212 -0.06703,-0.0212 -0.102305,0 -0.116416,0.127 l 0.01411,0.18344 q 0.09525,0.067 0.179916,0.27517 0.03175,0.0776 0.09172,0.23283 l 0.05292,-0.0564 q -0.01764,-0.0706 0.09525,-0.1905 0.112889,-0.12348 0.1905,-0.12348 0.04939,0 0.144639,0.10936 0.04586,0.0529 0.09525,0.0529 0.04586,0 0.07408,-0.17639 0.01764,-0.11641 0.01764,-0.21166 0,-0.21873 -0.07055,-0.30692 z m -1.280583,-1.80622 q -0.0035,0.0141 -0.08114,0.0318 -0.03881,0.004 -0.07408,0.004 0.0071,-0.0564 0.09172,-0.0564 h 0.04233 q 0.02822,0.004 0.02117,0.0212 z m 1.259416,2.18722 q 0,-0.0176 -0.07055,-0.067 -0.06703,-0.0529 -0.07056,-0.0635 0,-0.0212 0.02117,-0.0423 0.02117,-0.0247 0.04233,-0.0247 0.04586,0 0.0635,0.0811 0.0071,0.0564 0.01411,0.11642 z m -0.483305,0.17992 q -0.04939,0 -0.186973,-0.1517 l 0.01411,-0.0353 q 0.09172,0.0776 0.09878,0.0847 0.07056,0.067 0.07408,0.10231 z"
         style="font-style:normal;font-variant:normal;font-weight:normal;font-stretch:normal;font-family:'Snowtop Caps';-inkscape-font-specification:'Snowtop Caps';stroke-width:0.26458332"
         id="path4903"
         inkscape:connector-curvature="0" />
      <path
         d="m 66.766775,146.27684 h -0.620889 l -0.119944,-0.43744 h -0.395111 l -0.127,0.43744 h -0.560917 q 0,-0.0529 0.130528,-0.63853 0.0635,-0.28928 0.254,-1.10066 l 0.155222,-0.66675 q -0.05644,-0.0494 -0.05644,-0.127 0,-0.21167 0.162277,-0.21167 0.05997,0 0.07761,0.007 0.02469,0.0176 0.05292,0.0282 0.01764,0.007 0.03881,-0.0317 0.02469,-0.0423 0.05997,-0.0423 0.03881,0 0.05644,-0.0353 0.01764,-0.0353 0.02117,-0.0353 0.03175,0.007 0.155222,0.0106 0.09878,0.004 0.137584,0.0318 0.04233,0.0247 0.04233,0.0811 l -0.0071,0.0494 q 0,0.0388 0.06703,0.13405 0.03528,0.0529 0.03528,0.0882 -0.0071,0.23283 -0.02117,0.40922 0.02822,0.11995 0.116417,0.49742 0.105833,0.4445 0.218722,0.95603 0.119945,0.54327 0.127,0.59619 z m -0.483305,-2.33539 q 0,-0.16228 -0.05292,-0.21519 -0.02822,-0.0282 -0.02822,-0.0388 l 0.0071,-0.0494 q 0,-0.0494 -0.0388,-0.1023 -0.03528,-0.0565 -0.08114,-0.0565 -0.02822,0.0212 -0.04939,0.0247 -0.0071,0 -0.05292,-0.0247 -0.04586,-0.0247 -0.0635,-0.0212 -0.02117,0.004 -0.0388,0.06 -0.01764,0.0564 -0.03175,0.0564 l -0.03528,-0.007 q -0.01411,0 -0.02822,0.0176 -0.03175,0.0459 -0.04939,0.0459 -0.02822,0 -0.102306,-0.0353 -0.04233,-0.0212 -0.05644,-0.0212 -0.09172,0 -0.09172,0.0988 0,0.0388 0.01764,0.0776 0.06703,0.14464 0.06703,0.2787 0,0.0212 0,0.067 -0.0035,0.0423 -0.0035,0.0635 0,0.0529 0.01764,0.0529 0.04233,0 0.04233,-0.14111 0,-0.10583 0,-0.10936 0.01058,-0.0706 0.05997,-0.0706 0.02117,0 0.06703,0.13759 0.04586,0.13405 0.05997,0.14111 0,-0.24342 0.03528,-0.24342 0.01058,0 0.04586,0.17992 0.0388,0.17639 0.09172,0.17639 0.01411,-0.0141 0.03528,-0.0882 0.0071,-0.0247 0.02822,-0.0882 0,-0.0176 -0.01764,-0.0494 -0.01764,-0.0318 -0.01764,-0.0459 0,-0.0529 0.02117,-0.0494 0.0035,0 0.02469,0.0388 0.02117,0.0388 0.0247,0.0459 0.02117,0.0247 0.07055,0.23284 0.04939,0.20461 0.05644,0.20461 0.02117,-0.13406 0.03175,-0.20814 0.03528,-0.24694 0.03528,-0.33514 z m -0.338667,1.36878 -0.08467,-0.64911 q -0.02822,0.0388 -0.105833,0.36336 -0.03881,0.16228 -0.04233,0.19755 0.1905,0.11642 0.232833,0.0882 z m -0.0071,0.18344 q 0,-0.0212 0.0035,-0.0459 -0.0071,-0.0494 -0.02469,-0.0741 l -0.03528,0.007 q -0.02117,0 -0.07408,-0.0388 -0.05292,-0.0388 -0.07408,-0.0388 -0.0071,0 -0.01764,0.004 -0.0071,0.004 -0.01764,0.0106 0,0.0247 0.01764,0.15875 0.02117,0.13406 0.02469,0.13406 0.0071,0 0.0635,-0.06 0.05997,-0.0635 0.08467,-0.0706 0.01058,0 0.03175,0.007 0.0071,0 0.01764,0.007 z m 0.130528,-1.91205 q 0,0.0212 -0.05644,0.0212 -0.03881,0.0141 -0.07408,0.0282 -0.0071,-0.007 -0.0071,-0.0176 0,-0.0459 0.06703,-0.0459 0.07055,0 0.07055,0.0141 z"
         style="font-style:normal;font-variant:normal;font-weight:normal;font-stretch:normal;font-family:'Snowtop Caps';-inkscape-font-specification:'Snowtop Caps';stroke-width:0.26458332"
         id="path4905"
         inkscape:connector-curvature="0" />
      <path
         d="m 68.608991,146.26978 h -0.687916 l -0.405695,-1.03363 v 1.04069 h -0.638528 l 0.0035,-2.36361 q 0,-0.47625 0.15875,-0.47625 0.03528,0 0.08114,0.0494 0.04939,0.0459 0.07761,0.0459 -0.0035,0 0.05997,-0.0529 0.0635,-0.0529 0.134056,-0.0564 0.05644,0 0.105833,0.0564 0.0071,0.0317 0.09172,0.10936 0.08819,0.0741 0.09525,0.0952 0.0071,0.0741 0.02469,0.22225 0.02822,0.19756 0.09525,0.29281 0.04586,-0.0565 0.119944,-0.0565 0.04939,0 0.06703,0.0282 l 0.02822,-0.0353 q 0,-0.0353 0,-0.10231 -0.0035,-0.067 -0.0035,-0.1023 0,-0.46567 0.225778,-0.46567 0.08114,0 0.123472,0.0529 0.04233,0.0529 0.08114,0.10583 l 0.09172,-0.0212 q 0.07055,0 0.07055,0.0212 z m -0.07761,-2.59644 q -0.01764,0.0106 -0.02469,0.0141 -0.02822,0.0141 -0.04586,0.0141 -0.0388,0 -0.112888,-0.0917 -0.07408,-0.0917 -0.127,-0.0776 -0.04939,0.007 -0.09172,0.0917 -0.02469,0.067 -0.05292,0.13406 0.09525,0.11994 0.194027,0.23989 0.09172,0.13405 0.148167,0.28575 0,-0.10584 0.0635,-0.28928 0.0635,-0.18697 0.0635,-0.25047 0,-0.0423 -0.01411,-0.0706 z m -0.860778,0.254 q 0,-0.10936 -0.05997,-0.254 -0.04233,0 -0.123472,-0.0952 -0.07761,-0.0988 -0.102306,-0.0988 -0.02469,0 -0.102305,0.067 -0.07761,0.0635 -0.08114,0.0635 -0.01411,0 -0.08467,-0.0529 -0.07055,-0.0529 -0.09525,-0.0529 -0.04233,0 -0.06703,0.0882 -0.01764,0.067 -0.01764,0.12347 0,0.11289 0.08467,0.43392 0.03881,-0.0353 0.116417,-0.20108 0.02822,0.007 0.155222,0.18697 0.01411,-0.0141 0.03528,-0.0988 0.04233,-0.16933 0.09172,-0.19755 0.176389,0.10936 0.176389,0.26105 l 0.03175,-0.007 q 0.04233,-0.0811 0.04233,-0.16581 z m 0.405695,0.75847 v -0.0529 q 0,0.0141 0.0035,-0.0741 0.0035,-0.13053 -0.06703,-0.25753 -0.05645,-0.0917 -0.123472,-0.1023 -0.02469,0.0247 -0.02822,0.0353 -0.0071,0.0141 0.01058,0.0388 0.01764,0.0247 0.01764,0.0318 -0.05292,0.127 -0.04939,0.17286 l 0.01411,0.29986 h 0.02117 q -0.01411,-0.0953 0.144639,-0.0953 h 0.03881 q 0.0071,0 0.01764,0.004 z m -0.811389,-0.99836 q -0.01411,0.0247 -0.0247,0.0317 -0.02469,0.0212 -0.04586,0.0212 -0.01058,0 -0.02117,-0.004 -0.0035,-0.0635 0.09172,-0.0635 z"
         style="font-style:normal;font-variant:normal;font-weight:normal;font-stretch:normal;font-family:'Snowtop Caps';-inkscape-font-specification:'Snowtop Caps';stroke-width:0.26458332"
         id="path4907"
         inkscape:connector-curvature="0" />
      <path
         d="m 70.426018,146.17453 q -0.127,0.10231 -0.363361,0.10231 h -1.248834 v -2.13431 q 0,-0.007 -0.01411,-0.0141 -0.01411,-0.0106 -0.01411,-0.0282 0,-0.0847 -0.0388,-0.23636 -0.03881,-0.15522 -0.03881,-0.21872 0,-0.0882 0.0635,-0.1517 0.0635,-0.0635 0.151695,-0.0635 0.04233,0 0.155222,0.0847 0.116416,0.0811 0.134055,0.0811 0.05644,0 0.08467,-0.0706 0.03175,-0.007 0.141111,0.0141 0.123472,0.0282 0.151695,0.0282 0.05644,0 0.119944,-0.0706 0.06703,-0.0741 0.123472,-0.0741 0.08467,0 0.151695,0.0635 0.06703,0.0811 0.134055,0.15875 0.01058,0.004 0.05997,-0.007 0.04939,-0.0141 0.05997,-0.0141 0.07761,0 0.179916,0.1905 0.08467,0.15875 0.09172,0.21872 0.04939,0.0776 0.04939,1.16064 0,0.24695 0,0.42686 -0.0035,0.29986 -0.0035,0.29986 -0.02117,0.16934 -0.130528,0.254 z m -0.05997,-2.22602 q 0.0035,-0.0882 -0.02822,-0.16581 -0.03528,-0.1023 -0.112888,-0.1023 -0.0247,-0.004 -0.05644,0.0141 -0.02822,0.0141 -0.03528,0.0141 -0.06703,0 -0.137583,-0.10584 -0.06703,-0.10583 -0.1905,-0.12347 -0.02822,0 -0.09525,0.0847 -0.0635,0.0811 -0.119944,0.0811 -0.04233,0 -0.144639,-0.0212 -0.102306,-0.0212 -0.148167,-0.0212 -0.03175,0.0917 -0.09172,0.0917 -0.02117,0 -0.141111,-0.0917 -0.119945,-0.0917 -0.169334,-0.0917 -0.04233,0 -0.0635,0.0565 -0.01764,0.0529 -0.01764,0.0988 l 0.0071,0.18698 q 0.0635,0.0494 0.0635,0.22225 v 0.06 q 0,0.007 -0.0035,0.0247 0.01058,-0.10583 0.09172,-0.10583 0.05644,0 0.08114,0.004 0.01058,0 0.02469,0.004 0,-0.0459 0.07761,-0.12348 0.08114,-0.0776 0.127,-0.0776 0.01764,0 0.134055,0.0952 0.0035,0 0.05292,-0.0459 0.04939,-0.0459 0.08467,-0.0459 0.01058,0 0.130528,0.0917 0.0635,0.0494 0.105833,0.0494 0.03175,0 0.05644,-0.0847 0.0247,-0.0882 0.04939,-0.0882 0.03175,0 0.07056,0.0529 0.03881,0.0494 0.04233,0.0494 0.01764,0.004 0.08114,-0.0388 0.03881,-0.0247 0.04939,-0.0247 0.04586,0 0.105833,0.0917 0.05645,0.10936 0.112889,0.21519 z m -0.504473,1.61219 -0.02822,-1.29117 q -0.02117,-0.11288 -0.186972,-0.11288 -0.04939,0 -0.141111,0.0212 l 0.01411,1.41817 0.1905,-0.0106 q 0.112889,-0.004 0.151694,-0.0247 z m 0.05997,0.29281 q 0,-0.0353 -0.05645,-0.0741 -0.06703,-0.0459 -0.07408,-0.06 -0.130528,-0.0388 -0.172861,-0.0388 -0.02117,0 -0.02822,0.007 0.0071,0.0459 -0.03881,0.10936 -0.02469,0.0318 -0.02469,0.06 0,0.0317 0.0388,0.0988 0.04233,0.0635 0.07056,0.0635 0.02469,0 0.06703,-0.16228 0.02822,0 0.09878,0.0776 0.07408,0.0741 0.102306,0.0847 -0.0071,-0.0282 -0.0071,-0.0353 0,-0.0212 0.01058,-0.0635 0.01411,-0.0459 0.01411,-0.067 z"
         style="font-style:normal;font-variant:normal;font-weight:normal;font-stretch:normal;font-family:'Snowtop Caps';-inkscape-font-specification:'Snowtop Caps';stroke-width:0.26458332"
         id="path4909"
         inkscape:connector-curvature="0" />
    </g>
    <text
       xml:space="preserve"
       style="font-style:normal;font-weight:normal;font-size:3.52777767px;line-height:1.25;font-family:sans-serif;letter-spacing:0px;word-spacing:0px;fill:#000000;fill-opacity:1;stroke:none;stroke-width:0.26458332"
       x="25.318932"
       y="64.822968"
       id="text5097"><tspan
         sodipodi:role="line"
         id="tspan5095"
         x="25.318932"
         y="68.041466"
         style="stroke-width:0.26458332" /></text>
    <text
       xml:space="preserve"
       style="font-style:normal;font-weight:normal;font-size:3.52777767px;line-height:1.25;font-family:sans-serif;text-align:center;letter-spacing:0px;word-spacing:0px;text-anchor:middle;fill:#000000;fill-opacity:1;stroke:none;stroke-width:0.26458332"
       x="86.673943"
       y="57.803589"
       id="text136"><tspan
         sodipodi:role="line"
         id="tspan134"
         x="86.673943"
         y="57.803589"
         style="font-style:normal;font-variant:normal;font-weight:normal;font-stretch:normal;font-family:'Snowtop Caps';-inkscape-font-specification:'Snowtop Caps';stroke-width:0.26458332">QUAD GOLOMB RULER RHYTHM</tspan></text>
    <text
       xml:space="preserve"
       style="font-style:normal;font-variant:normal;font-weight:bold;font-stretch:normal;font-size:3.52777767px;line-height:89.99999762%;font-family:Consolas;-inkscape-font-specification:'Consolas Bold';text-align:start;letter-spacing:0px;word-spacing:0px;writing-mode:lr-tb;text-anchor:start;fill:#000000;fill-opacity:1;stroke:none;stroke-width:0.26458332"
       x="37.03632"
       y="106.75245"
       id="text295"><tspan
         sodipodi:role="line"
         x="37.03632"
         y="106.75245"
         style="line-height:89.99999762%;text-align:start;writing-mode:lr-tb;text-anchor:start;stroke-width:0.26458332"
         id="tspan225"
         rotate="0 0">2</tspan></text>
    <text
       xml:space="preserve"
       style="font-style:normal;font-variant:normal;font-weight:bold;font-stretch:normal;font-size:3.52777767px;line-height:1.25;font-family:Consolas;-inkscape-font-specification:'Consolas Bold';text-align:center;letter-spacing:0px;word-spacing:0px;text-anchor:middle;fill:#000000;fill-opacity:1;stroke:none;stroke-width:0.26458332"
       x="44.605171"
       y="85.902939"
       id="text299"><tspan
         sodipodi:role="line"
         id="tspan297"
         x="44.605171"
         y="85.902939"
         style="font-size:2.46944451px;stroke-width:0.26458332">STEPS</tspan></text>
    <text
       xml:space="preserve"
       style="font-style:normal;font-variant:normal;font-weight:bold;font-stretch:normal;font-size:3.52777767px;line-height:1.25;font-family:Consolas;-inkscape-font-specification:'Consolas Bold';text-align:center;letter-spacing:0px;word-spacing:0px;text-anchor:middle;fill:#000000;fill-opacity:1;stroke:none;stroke-width:0.26458332"
       x="54.79163"
       y="85.902779"
       id="text303"><tspan
         sodipodi:role="line"
         id="tspan301"
         x="54.79163"
         y="85.902779"
         style="font-size:2.46944451px;stroke-width:0.26458332">DIVS</tspan></text>
    <text
       xml:space="preserve"
       style="font-style:normal;font-variant:normal;font-weight:bold;font-stretch:normal;font-size:3.52777767px;line-height:1.25;font-family:Consolas;-inkscape-font-specification:'Consolas Bold';text-align:center;letter-spacing:0px;word-spacing:0px;text-anchor:middle;fill:#000000;fill-opacity:1;stroke:none;stroke-width:0.26458332"
       x="65.04422"
       y="85.902939"
       id="text307"><tspan
         sodipodi:role="line"
         id="tspan305"
         x="65.04422"
         y="85.902939"
         style="font-size:2.46944451px;stroke-width:0.26458332">OFFSET</tspan></text>
    <text
       xml:space="preserve"
       style="font-style:normal;font-variant:normal;font-weight:bold;font-stretch:normal;font-size:3.52777767px;line-height:1.25;font-family:Consolas;-inkscape-font-specification:'Consolas Bold';text-align:center;letter-spacing:0px;word-spacing:0px;text-anchor:middle;fill:#000000;fill-opacity:1;stroke:none;stroke-width:0.26458332"
       x="66.102577"
       y="146.53029"
       id="text373"><tspan
         sodipodi:role="line"
         id="tspan371"
         x="66.102577"
         y="149.59126"
         style="font-size:2.11666656px;stroke-width:0.26458332" /></text>
    <flowRoot
       xml:space="preserve"
       id="flowRoot250"
       style="font-style:normal;font-variant:normal;font-weight:bold;font-stretch:normal;font-size:13.33333302px;line-height:1.25;font-family:Consolas;-inkscape-font-specification:'Consolas Bold';text-align:center;letter-spacing:0px;word-spacing:0px;text-anchor:middle;fill:#000000;fill-opacity:1;stroke:none"><flowRegion
         id="flowRegion252"><rect
           id="rect254"
           width="3.1819806"
           height="16.970562"
           x="78.1353"
           y="118.90082" /></flowRegion><flowPara
         id="flowPara256" /></flowRoot>    <text
       xml:space="preserve"
       style="font-style:normal;font-variant:normal;font-weight:bold;font-stretch:normal;font-size:3.52777767px;line-height:89.99999762%;font-family:Consolas;-inkscape-font-specification:'Consolas Bold';text-align:start;letter-spacing:0px;word-spacing:0px;writing-mode:lr-tb;text-anchor:start;fill:#000000;fill-opacity:1;stroke:none;stroke-width:0.26458332"
       x="37.036579"
       y="92.376945"
       id="text295-5"><tspan
         sodipodi:role="line"
         x="37.036579"
         y="92.376945"
         style="line-height:89.99999762%;text-align:start;writing-mode:lr-tb;text-anchor:start;stroke-width:0.26458332"
         rotate="0 0"
         id="tspan293">1</tspan></text>
    <path
       inkscape:connector-curvature="0"
       id="path38411"
       d="M 134.4702,82.934784 H 39.473166 V 59.073581 H 134.4702 Z m 0,0"
       style="fill:#1e282b;fill-opacity:1;fill-rule:nonzero;stroke:none;stroke-width:0.30072355" />
    <path
       inkscape:connector-curvature="0"
       id="path5509"
       d="M 39.473193,59.414566 H 134.72322"
       style="clip-rule:nonzero;fill:none;stroke:#ffffff;stroke-width:0.3592276;stroke-linecap:butt;stroke-linejoin:miter;stroke-miterlimit:10;stroke-dasharray:none;stroke-opacity:0.25098039" />
    <path
       inkscape:connector-curvature="0"
       id="path5503"
       d="M 39.473193,65.422932 H 134.72322"
       style="clip-rule:nonzero;fill:none;stroke:#ffffff;stroke-width:0.3592276;stroke-linecap:butt;stroke-linejoin:miter;stroke-miterlimit:10;stroke-dasharray:none;stroke-opacity:0.25098039" />
    <path
       inkscape:connector-curvature="0"
       id="path5497"
       d="M 39.473193,77.329182 H 134.72322"
       style="clip-rule:nonzero;fill:none;stroke:#ffffff;stroke-width:0.3592276;stroke-linecap:butt;stroke-linejoin:miter;stroke-miterlimit:10;stroke-dasharray:none;stroke-opacity:0.25098039" />
    <path
       inkscape:connector-curvature="0"
       id="path5491"
       d="M 39.473193,83.282307 H 134.72322"
       style="clip-rule:nonzero;fill:none;stroke:#ffffff;stroke-width:0.3592276;stroke-linecap:butt;stroke-linejoin:miter;stroke-miterlimit:10;stroke-dasharray:none;stroke-opacity:0.25098039" />
    <path
       inkscape:connector-curvature="0"
       id="path5305"
       d="M 39.473193,71.376057 H 134.72322"
       style="clip-rule:nonzero;fill:none;stroke:#ffffff;stroke-width:0.3592276;stroke-linecap:butt;stroke-linejoin:miter;stroke-miterlimit:10;stroke-dasharray:none;stroke-opacity:0.25098039" />
    <path
       inkscape:connector-curvature="0"
       id="path4803"
       d="m 57.356832,59.649421 v 23.8125"
       style="clip-rule:nonzero;fill:none;stroke:#ffffff;stroke-width:0.23924841;stroke-linecap:butt;stroke-linejoin:miter;stroke-miterlimit:10;stroke-dasharray:none;stroke-opacity:0.25098039" />
    <path
       inkscape:connector-curvature="0"
       id="path4797"
       d="m 63.312371,59.649421 v 23.8125"
       style="clip-rule:nonzero;fill:none;stroke:#ffffff;stroke-width:0.23924841;stroke-linecap:butt;stroke-linejoin:miter;stroke-miterlimit:10;stroke-dasharray:none;stroke-opacity:0.25098039" />
    <path
       inkscape:connector-curvature="0"
       id="path4791"
       d="m 51.41819,59.649421 v 23.8125"
       style="clip-rule:nonzero;fill:none;stroke:#ffffff;stroke-width:0.23919992;stroke-linecap:butt;stroke-linejoin:miter;stroke-miterlimit:10;stroke-dasharray:none;stroke-opacity:0.25098039" />
    <path
       inkscape:connector-curvature="0"
       id="path4785"
       d="m 45.465065,59.649421 v 23.8125"
       style="clip-rule:nonzero;fill:none;stroke:#ffffff;stroke-width:0.23919992;stroke-linecap:butt;stroke-linejoin:miter;stroke-miterlimit:10;stroke-dasharray:none;stroke-opacity:0.25098039" />
    <path
       inkscape:connector-curvature="0"
       id="path4779"
       d="m 69.269707,59.649421 v 23.8125"
       style="clip-rule:nonzero;fill:none;stroke:#ffffff;stroke-width:0.2392123;stroke-linecap:butt;stroke-linejoin:miter;stroke-miterlimit:10;stroke-dasharray:none;stroke-opacity:0.25098039" />
    <text
       xml:space="preserve"
       style="font-style:normal;font-variant:normal;font-weight:bold;font-stretch:normal;font-size:3.52777767px;line-height:89.99999762%;font-family:Consolas;-inkscape-font-specification:'Consolas Bold';text-align:start;letter-spacing:0px;word-spacing:0px;writing-mode:lr-tb;text-anchor:start;fill:#000000;fill-opacity:1;stroke:none;stroke-width:0.26458332"
       x="104.69907"
       y="136.60315"
       id="text295-57"><tspan
         sodipodi:role="line"
         x="104.69907"
         y="136.60315"
         style="line-height:89.99999762%;text-align:start;writing-mode:lr-tb;text-anchor:start;stroke-width:0.26458332"
         rotate="0 0 0 0 0 0 0 0 0 0 0 0 0"
         id="tspan1286">CHAIN MODE</tspan></text>
    <text
       xml:space="preserve"
       style="font-style:normal;font-variant:normal;font-weight:bold;font-stretch:normal;font-size:3.52777767px;line-height:1.25;font-family:Consolas;-inkscape-font-specification:'Consolas Bold';text-align:center;letter-spacing:0px;word-spacing:0px;text-anchor:middle;fill:#000000;fill-opacity:1;stroke:none;stroke-width:0.26458332"
       x="158.57443"
       y="48.272339"
       id="text308"><tspan
         sodipodi:role="line"
         id="tspan306"
         x="158.57443"
         y="48.272339"
         style="stroke-width:0.26458332">=+</tspan></text>
    <text
       xml:space="preserve"
       style="font-style:normal;font-variant:normal;font-weight:bold;font-stretch:normal;font-size:3.52777767px;line-height:89.99999762%;font-family:Consolas;-inkscape-font-specification:'Consolas Bold';text-align:start;letter-spacing:0px;word-spacing:0px;writing-mode:lr-tb;text-anchor:start;fill:#000000;fill-opacity:1;stroke:none;stroke-width:0.26458332"
       x="37.179947"
       y="135.6747"
       id="text295-9"><tspan
         sodipodi:role="line"
         x="37.179947"
         y="135.6747"
         style="line-height:89.99999762%;text-align:start;writing-mode:lr-tb;text-anchor:start;stroke-width:0.26458332"
         id="tspan225-8"
         rotate="0 0">4</tspan></text>
    <text
       xml:space="preserve"
       style="font-style:normal;font-variant:normal;font-weight:bold;font-stretch:normal;font-size:3.52777767px;line-height:89.99999762%;font-family:Consolas;-inkscape-font-specification:'Consolas Bold';text-align:start;letter-spacing:0px;word-spacing:0px;writing-mode:lr-tb;text-anchor:start;fill:#000000;fill-opacity:1;stroke:none;stroke-width:0.26458332"
       x="36.995235"
       y="121.29932"
       id="text295-5-3"><tspan
         sodipodi:role="line"
         x="36.995235"
         y="121.29932"
         style="line-height:89.99999762%;text-align:start;writing-mode:lr-tb;text-anchor:start;stroke-width:0.26458332"
         rotate="0 0"
         id="tspan293-2">3</tspan></text>
    <path
       inkscape:connector-curvature="0"
       id="path4779-9"
       d="m 75.223449,59.649421 v 23.8125"
       style="clip-rule:nonzero;fill:none;stroke:#ffffff;stroke-width:0.23924841;stroke-linecap:butt;stroke-linejoin:miter;stroke-miterlimit:10;stroke-dasharray:none;stroke-opacity:0.25098039" />
    <path
       inkscape:connector-curvature="0"
       id="path4779-0"
       d="M 81.17719,59.649514 V 83.461902"
       style="clip-rule:nonzero;fill:none;stroke:#ffffff;stroke-width:0.2392123;stroke-linecap:butt;stroke-linejoin:miter;stroke-miterlimit:10;stroke-dasharray:none;stroke-opacity:0.25098039" />
    <path
       inkscape:connector-curvature="0"
       id="path4779-4"
       d="M 87.136329,59.649516 V 83.461903"
       style="clip-rule:nonzero;fill:none;stroke:#ffffff;stroke-width:0.23922426;stroke-linecap:butt;stroke-linejoin:miter;stroke-miterlimit:10;stroke-dasharray:none;stroke-opacity:0.25098039" />
    <path
       inkscape:connector-curvature="0"
       id="path4779-6"
       d="m 93.090666,59.649403 v 23.8125"
       style="clip-rule:nonzero;fill:none;stroke:#ffffff;stroke-width:0.23922426;stroke-linecap:butt;stroke-linejoin:miter;stroke-miterlimit:10;stroke-dasharray:none;stroke-opacity:0.25098039" />
    <path
       inkscape:connector-curvature="0"
       id="path4779-96"
       d="M 99.045003,59.649509 V 83.461903"
       style="clip-rule:nonzero;fill:none;stroke:#ffffff;stroke-width:0.23922426;stroke-linecap:butt;stroke-linejoin:miter;stroke-miterlimit:10;stroke-dasharray:none;stroke-opacity:0.25098039" />
    <path
       inkscape:connector-curvature="0"
       id="path4779-1"
       d="M 104.99937,59.649528 V 83.461903"
       style="clip-rule:nonzero;fill:none;stroke:#ffffff;stroke-width:0.23922426;stroke-linecap:butt;stroke-linejoin:miter;stroke-miterlimit:10;stroke-dasharray:none;stroke-opacity:0.25098039" />
    <path
       inkscape:connector-curvature="0"
       id="path4779-2"
       d="M 110.9585,59.649515 V 83.461903"
       style="clip-rule:nonzero;fill:none;stroke:#ffffff;stroke-width:0.23922426;stroke-linecap:butt;stroke-linejoin:miter;stroke-miterlimit:10;stroke-dasharray:none;stroke-opacity:0.25098039" />
    <path
       inkscape:connector-curvature="0"
       id="path4779-69"
       d="m 116.91285,59.649403 v 23.8125"
       style="clip-rule:nonzero;fill:none;stroke:#ffffff;stroke-width:0.23922426;stroke-linecap:butt;stroke-linejoin:miter;stroke-miterlimit:10;stroke-dasharray:none;stroke-opacity:0.25098039" />
    <path
       inkscape:connector-curvature="0"
       id="path4779-7"
       d="M 122.86718,59.649537 V 83.461903"
       style="clip-rule:nonzero;fill:none;stroke:#ffffff;stroke-width:0.23922426;stroke-linecap:butt;stroke-linejoin:miter;stroke-miterlimit:10;stroke-dasharray:none;stroke-opacity:0.25098039" />
    <path
       inkscape:connector-curvature="0"
       id="path4779-72"
       d="M 128.82152,59.649442 V 83.461903"
       style="clip-rule:nonzero;fill:none;stroke:#ffffff;stroke-width:0.23922426;stroke-linecap:butt;stroke-linejoin:miter;stroke-miterlimit:10;stroke-dasharray:none;stroke-opacity:0.25098039" />
    <text
       xml:space="preserve"
       style="font-style:normal;font-variant:normal;font-weight:bold;font-stretch:normal;font-size:3.52777767px;line-height:1.25;font-family:Consolas;-inkscape-font-specification:'Consolas Bold';text-align:center;letter-spacing:0px;word-spacing:0px;text-anchor:middle;fill:#000000;fill-opacity:1;stroke:none;stroke-width:0.26458332"
       x="106.91119"
       y="147.58337"
       id="text303-4-84"><tspan
         sodipodi:role="line"
         id="tspan301-5-1"
         x="106.91119"
         y="147.58337"
         style="stroke-width:0.26458332">CLOCK</tspan></text>
    <text
       xml:space="preserve"
       style="font-style:normal;font-variant:normal;font-weight:bold;font-stretch:normal;font-size:3.52777767px;line-height:1.25;font-family:Consolas;-inkscape-font-specification:'Consolas Bold';text-align:center;letter-spacing:0px;word-spacing:0px;text-anchor:middle;fill:#000000;fill-opacity:1;stroke:none;stroke-width:0.26458332"
       x="119.38787"
       y="147.58337"
       id="text307-3"><tspan
         sodipodi:role="line"
         id="tspan305-2"
         x="119.38787"
         y="147.58337"
         style="stroke-width:0.26458332">RESET</tspan></text>
    <text
       xml:space="preserve"
       style="font-style:normal;font-variant:normal;font-weight:bold;font-stretch:normal;font-size:3.52777767px;line-height:1.25;font-family:Consolas;-inkscape-font-specification:'Consolas Bold';text-align:center;letter-spacing:0px;word-spacing:0px;text-anchor:middle;fill:#000000;fill-opacity:1;stroke:none;stroke-width:0.26458332"
       x="131.85661"
       y="85.902939"
       id="text1474-4"><tspan
         sodipodi:role="line"
         id="tspan1472-5"
         x="131.85661"
         y="85.902939"
         style="font-size:2.46944451px;stroke-width:0.26458332">EOC</tspan></text>
    <text
       xml:space="preserve"
       style="font-style:normal;font-variant:normal;font-weight:bold;font-stretch:normal;font-size:2.11666656px;line-height:89.99999762%;font-family:Consolas;-inkscape-font-specification:'Consolas Bold';text-align:start;letter-spacing:0px;word-spacing:0px;writing-mode:lr-tb;text-anchor:start;fill:#000000;fill-opacity:1;stroke:none;stroke-width:0.26458332"
       x="120.2126"
       y="124.44064"
       id="text295-57-9"><tspan
         sodipodi:role="line"
         x="120.2126"
         y="124.44064"
         style="font-size:2.82222223px;line-height:89.99999762%;text-align:start;writing-mode:lr-tb;text-anchor:start;stroke-width:0.26458332"
         rotate="0 0 0 0 0 0 0"
         id="tspan1286-6">NONE</tspan></text>
    <text
       xml:space="preserve"
       style="font-style:normal;font-variant:normal;font-weight:bold;font-stretch:normal;font-size:2.82222223px;line-height:89.99999762%;font-family:Consolas;-inkscape-font-specification:'Consolas Bold';text-align:start;letter-spacing:0px;word-spacing:0px;writing-mode:lr-tb;text-anchor:start;fill:#000000;fill-opacity:1;stroke:none;stroke-width:0.26458332"
       x="120.16438"
       y="128.40941"
       id="text295-57-9-2"><tspan
         sodipodi:role="line"
         x="120.16438"
         y="128.40941"
         style="font-size:2.82222223px;line-height:89.99999762%;text-align:start;writing-mode:lr-tb;text-anchor:start;stroke-width:0.26458332"
         rotate="0 0 0 0 0 0 0"
         id="tspan1286-6-7">BOSS</tspan></text>
    <text
       xml:space="preserve"
       style="font-style:normal;font-variant:normal;font-weight:bold;font-stretch:normal;font-size:2.11666656px;line-height:89.99999762%;font-family:Consolas;-inkscape-font-specification:'Consolas Bold';text-align:start;letter-spacing:0px;word-spacing:0px;writing-mode:lr-tb;text-anchor:start;fill:#000000;fill-opacity:1;stroke:none;stroke-width:0.26458332"
       x="120.08858"
       y="132.37811"
       id="text295-57-9-3"><tspan
         sodipodi:role="line"
         x="120.08858"
         y="132.37811"
         style="font-size:2.82222223px;line-height:89.99999762%;text-align:start;writing-mode:lr-tb;text-anchor:start;stroke-width:0.26458332"
         rotate="0 0 0 0 0 0 0 0 0 0 0"
         id="tspan1286-6-3">EMPLOYEE</tspan></text>
    <text
       xml:space="preserve"
       style="font-style:normal;font-variant:normal;font-weight:bold;font-stretch:normal;font-size:3.52777767px;line-height:1.25;font-family:Consolas;-inkscape-font-specification:'Consolas Bold';text-align:center;letter-spacing:0px;word-spacing:0px;text-anchor:middle;fill:#000000;fill-opacity:1;stroke:none;stroke-width:0.26458332"
       x="74.607124"
       y="85.930672"
       id="text307-0"><tspan
         sodipodi:role="line"
         id="tspan305-28"
         x="74.607124"
         y="85.930672"
         style="font-size:2.46944451px;stroke-width:0.26458332">PAD</tspan></text>
    <text
       xml:space="preserve"
       style="font-style:normal;font-variant:normal;font-weight:bold;font-stretch:normal;font-size:3.52777767px;line-height:1.25;font-family:Consolas;-inkscape-font-specification:'Consolas Bold';text-align:center;letter-spacing:0px;word-spacing:0px;text-anchor:middle;fill:#000000;fill-opacity:1;stroke:none;stroke-width:0.26458332"
       x="83.893021"
       y="86.042816"
       id="text307-0-2"><tspan
         sodipodi:role="line"
         id="tspan305-28-9"
         x="83.893021"
         y="86.042816"
         style="font-size:2.46944451px;stroke-width:0.26458332">ACCENT</tspan></text>
    <text
       xml:space="preserve"
       style="font-style:normal;font-variant:normal;font-weight:bold;font-stretch:normal;font-size:3.52777767px;line-height:1.25;font-family:Consolas;-inkscape-font-specification:'Consolas Bold';text-align:center;letter-spacing:0px;word-spacing:0px;text-anchor:middle;fill:#000000;fill-opacity:1;stroke:none;stroke-width:0.26458332"
       x="95.997719"
       y="85.910522"
       id="text307-0-7"><tspan
         sodipodi:role="line"
         x="95.997719"
         y="85.910522"
         style="font-size:2.46944451px;stroke-width:0.26458332"
         id="tspan53633">ACC ROT</tspan></text>
    <text
       xml:space="preserve"
       style="font-style:normal;font-variant:normal;font-weight:bold;font-stretch:normal;font-size:3.52777767px;line-height:1.25;font-family:Consolas;-inkscape-font-specification:'Consolas Bold';text-align:center;letter-spacing:0px;word-spacing:0px;text-anchor:middle;fill:#000000;fill-opacity:1;stroke:none;stroke-width:0.26458332"
       x="105.7873"
       y="85.902939"
       id="text307-0-1"><tspan
         sodipodi:role="line"
         id="tspan305-28-98"
         x="105.7873"
         y="85.902939"
         style="font-size:2.46944451px;stroke-width:0.26458332">OUT</tspan></text>
    <text
       xml:space="preserve"
       style="font-style:normal;font-variant:normal;font-weight:bold;font-stretch:normal;font-size:3.52777767px;line-height:1.25;font-family:Consolas;-inkscape-font-specification:'Consolas Bold';text-align:center;letter-spacing:0px;word-spacing:0px;text-anchor:middle;fill:#000000;fill-opacity:1;stroke:none;stroke-width:0.26458332"
       x="114.21712"
       y="85.895355"
       id="text307-0-1-4"><tspan
         sodipodi:role="line"
         x="114.21712"
         y="85.895355"
         style="font-size:2.46944451px;line-height:0;stroke-width:0.26458332"
         id="tspan53996">ACCENT</tspan></text>
    <text
       xml:space="preserve"
       style="font-style:normal;font-variant:normal;font-weight:bold;font-stretch:normal;font-size:3.52777767px;line-height:1.25;font-family:Consolas;-inkscape-font-specification:'Consolas Bold';text-align:center;letter-spacing:0px;word-spacing:0px;text-anchor:middle;fill:#000000;fill-opacity:1;stroke:none;stroke-width:0.26458332"
       x="123.34523"
       y="85.902939"
       id="text307-0-1-6"><tspan
         sodipodi:role="line"
         id="tspan305-28-98-64"
         x="123.34523"
         y="85.902939"
         style="font-size:2.46944451px;stroke-width:0.26458332">START</tspan></text>
    <flowRoot
       xml:space="preserve"
       id="flowRoot53665"
       style="font-style:normal;font-variant:normal;font-weight:bold;font-stretch:normal;font-size:13.33333302px;line-height:1.25;font-family:Consolas;-inkscape-font-specification:'Consolas Bold';text-align:center;letter-spacing:0px;word-spacing:0px;text-anchor:middle;fill:#000000;fill-opacity:1;stroke:none"><flowRegion
         id="flowRegion53667"><rect
           id="rect53669"
           width="254.5"
           height="13.5"
           x="-49.5"
           y="308.75" /></flowRegion><flowPara
         id="flowPara53671" /></flowRoot>    <text
       xml:space="preserve"
       style="font-style:normal;font-variant:normal;font-weight:bold;font-stretch:normal;font-size:3.52777767px;line-height:1.25;font-family:Consolas;-inkscape-font-specification:'Consolas Bold';text-align:center;letter-spacing:0px;word-spacing:0px;text-anchor:middle;fill:#000000;fill-opacity:1;stroke:none;stroke-width:0.26458332"
       x="116.2411"
       y="85.64473"
       id="text53994"><tspan
         sodipodi:role="line"
         id="tspan53992"
         x="116.2411"
         y="88.705696"
         style="stroke-width:0.26458332" /></text>
    <text
       xml:space="preserve"
       style="font-style:normal;font-variant:normal;font-weight:bold;font-stretch:normal;font-size:3.52777767px;line-height:1.25;font-family:Consolas;-inkscape-font-specification:'Consolas Bold';text-align:center;letter-spacing:0px;word-spacing:0px;text-anchor:middle;fill:#000000;fill-opacity:1;stroke:none;stroke-width:0.26458332"
       x="114.30315"
       y="88.483231"
       id="text307-0-1-4-2"><tspan
         sodipodi:role="line"
         x="114.30315"
         y="88.483231"
         style="font-size:2.46944451px;line-height:0;stroke-width:0.26458332"
         id="tspan53996-3">OUT</tspan></text>
    <text
       xml:space="preserve"
       style="font-style:normal;font-variant:normal;font-weight:bold;font-stretch:normal;font-size:3.52777767px;line-height:1.25;font-family:Consolas;-inkscape-font-specification:'Consolas Bold';text-align:center;letter-spacing:0px;word-spacing:0px;text-anchor:middle;fill:#000000;fill-opacity:1;stroke:none;stroke-width:0.26458332"
       x="131.01642"
       y="147.42529"
       id="text307-3-6"><tspan
         sodipodi:role="line"
         id="tspan305-2-8"
         x="131.01642"
         y="147.42529"
         style="stroke-width:0.26458332">MUTE</tspan></text>
  </g>
</svg>
