<?xml version="1.0" encoding="UTF-8" standalone="no"?>
<!-- Created with Inkscape (http://www.inkscape.org/) -->

<svg
   xmlns:dc="http://purl.org/dc/elements/1.1/"
   xmlns:cc="http://creativecommons.org/ns#"
   xmlns:rdf="http://www.w3.org/1999/02/22-rdf-syntax-ns#"
   xmlns:svg="http://www.w3.org/2000/svg"
   xmlns="http://www.w3.org/2000/svg"
   xmlns:sodipodi="http://sodipodi.sourceforge.net/DTD/sodipodi-0.dtd"
   xmlns:inkscape="http://www.inkscape.org/namespaces/inkscape"
   width="270"
   height="380"
   viewBox="0 0 71.437503 100.54167"
   version="1.1"
   id="svg8"
   inkscape:version="0.92.1 r15371"
   sodipodi:docname="MyModule.svg">
  <defs
     id="defs2">
    <style
       id="style97"
       type="text/css"><![CDATA[
    .fil0 {fill:#229BD0}
    .fil1 {fill:#4D4D4D;fill-rule:nonzero}
   ]]></style>
  </defs>
  <sodipodi:namedview
     id="base"
     pagecolor="#ffffff"
     bordercolor="#666666"
     borderopacity="1.0"
     inkscape:pageopacity="0.0"
     inkscape:pageshadow="2"
     inkscape:zoom="3.6120228"
     inkscape:cx="160.03611"
     inkscape:cy="148.60992"
     inkscape:document-units="mm"
     inkscape:current-layer="layer1"
     showgrid="false"
     units="px"
     inkscape:snap-bbox="true"
     inkscape:snap-page="true"
     inkscape:bbox-nodes="true"
     inkscape:snap-bbox-edge-midpoints="true"
     inkscape:window-width="1920"
     inkscape:window-height="1135"
     inkscape:window-x="0"
     inkscape:window-y="0"
     inkscape:window-maximized="1" />
  <metadata
     id="metadata5">
    <rdf:RDF>
      <cc:Work
         rdf:about="">
        <dc:format>image/svg+xml</dc:format>
        <dc:type
           rdf:resource="http://purl.org/dc/dcmitype/StillImage" />
        <dc:title />
      </cc:Work>
    </rdf:RDF>
  </metadata>
  <g
     inkscape:label="Layer 1"
     inkscape:groupmode="layer"
     id="layer1"
     transform="translate(0,-196.45832)">
    <path
       style="opacity:1;vector-effect:none;fill:#e6e6e6;fill-opacity:1;fill-rule:evenodd;stroke:none;stroke-width:0.84190798;stroke-linecap:butt;stroke-linejoin:round;stroke-miterlimit:4;stroke-dasharray:none;stroke-dashoffset:0;stroke-opacity:1;paint-order:normal"
       d="M 0,196.98748 H 71.439 V 297.52916 H 0 Z"
       id="rect817"
       inkscape:connector-curvature="0" />
    <path
       d="m 26.629885,288.9787 h 4.60938 c 0.4005,0 0.7281,0.32763 0.7281,0.7281 v 2.10199 h -2.61978 c -0.0967,-0.25291 -0.34163,-0.43257 -0.62857,-0.43257 -0.37152,0 -0.67274,0.30121 -0.67274,0.67274 0,0.37152 0.30122,0.67274 0.67274,0.67274 0.28078,0 0.5214,-0.17205 0.62217,-0.41652 h 2.62618 v 2.01098 c 0,0.4005 -0.3276,0.72809 -0.7281,0.72809 h -3.92111 v -4.53846 h 2.66151 c 0.10352,0.23822 0.34094,0.40485 0.6172,0.40485 0.37152,0 0.67273,-0.30122 0.67273,-0.67274 0,-0.37153 -0.30122,-0.67274 -0.67273,-0.67274 -0.29131,0 -0.53936,0.18518 -0.63291,0.44425 h -3.13569 v 0.01 h -0.006 v 5.02503 h -0.1919 c -0.40043,0 -0.72805,-0.32759 -0.72805,-0.72809 V 289.707 c 0,-0.40047 0.32762,-0.7281 0.72806,-0.7281 z m 3.96698,0.83825 c 0.23249,0 0.42093,0.18845 0.42093,0.42094 0,0.23248 -0.18844,0.42093 -0.42093,0.42093 -0.23248,0 -0.42093,-0.18845 -0.42093,-0.42093 0,-0.23249 0.18845,-0.42094 0.42093,-0.42094 z m -1.87785,1.81106 c 0.23249,0 0.42093,0.18845 0.42093,0.42094 0,0.23248 -0.18844,0.42093 -0.42093,0.42093 -0.23248,0 -0.42093,-0.18845 -0.42093,-0.42093 0,-0.23249 0.18845,-0.42094 0.42093,-0.42094 z"
       class="fil0"
       id="_231403904"
       inkscape:connector-curvature="0"
       style="clip-rule:evenodd;fill:#229bd0;fill-rule:evenodd;stroke-width:25.39999962;image-rendering:optimizeQuality;shape-rendering:geometricPrecision;text-rendering:geometricPrecision" />
    <path
       d="m 26.344605,288.59598 h 5.18006 c 0.45008,0 0.81823,0.36819 0.81823,0.8182 v 5.18006 c 0,0.45009 -0.36815,0.81824 -0.81823,0.81824 h -5.18006 c -0.45002,0 -0.8182,-0.36815 -0.8182,-0.81824 v -5.18006 c 0,-0.45001 0.36818,-0.8182 0.8182,-0.8182 z m 0.1839,0.24197 h 4.81226 c 0.41816,0 0.76017,0.34205 0.76017,0.76013 v 4.81229 c 0,0.41812 -0.34201,0.76014 -0.76017,0.76014 h -4.81226 c -0.41812,0 -0.76013,-0.34202 -0.76013,-0.76014 v -4.81229 c 0,-0.41808 0.34201,-0.76013 0.76013,-0.76013 z"
       class="fil0"
       id="_231403736"
       inkscape:connector-curvature="0"
       style="clip-rule:evenodd;fill:#229bd0;fill-rule:evenodd;stroke-width:25.39999962;image-rendering:optimizeQuality;shape-rendering:geometricPrecision;text-rendering:geometricPrecision" />
    <path
       style="clip-rule:evenodd;fill:#4d4d4d;fill-rule:nonzero;stroke-width:25.39999962;image-rendering:optimizeQuality;shape-rendering:geometricPrecision;text-rendering:geometricPrecision"
       inkscape:connector-curvature="0"
       id="_231403544"
       class="fil1"
       d="m 33.082685,291.57621 v -2.60908 h 1.87264 v 0.54176 h -1.20811 v 0.54055 h 1.04846 v 0.54058 h -1.04846 v 0.98618 z m 2.8697,-1.49167 h 0.49763 c 0.13425,0 0.23339,-0.0248 0.29629,-0.0744 0.0635,-0.0495 0.0949,-0.12879 0.0949,-0.23699 0,-0.0962 -0.0309,-0.1669 -0.0919,-0.21344 -0.0617,-0.0466 -0.1554,-0.0702 -0.28175,-0.0702 h -0.51519 z m -0.6645,1.49167 v -2.60908 h 1.24859 c 0.33076,0 0.57443,0.0592 0.73105,0.17716 0.15659,0.11791 0.23461,0.30111 0.23461,0.54903 0,0.14634 -0.0333,0.2721 -0.1004,0.3761 -0.0666,0.1046 -0.16989,0.19227 -0.31078,0.26303 0.11427,0.0441 0.1953,0.10338 0.24246,0.17834 0.0471,0.075 0.0744,0.2068 0.0816,0.39605 0.004,0.0526 0.007,0.12458 0.0109,0.21406 0.008,0.21042 0.0441,0.33194 0.10825,0.3652 v 0.0901 h -0.70019 c -0.0338,-0.0919 -0.0538,-0.21827 -0.0587,-0.37913 -0.004,-0.16023 -0.009,-0.26119 -0.0139,-0.30292 -0.0109,-0.10158 -0.0448,-0.17594 -0.10279,-0.22313 -0.0575,-0.0471 -0.14453,-0.0707 -0.26001,-0.0707 h -0.44623 v 0.9759 z m 3.40962,-1.01885 h 0.57078 l -0.29083,-0.89973 z m -0.0617,-1.59022 h 0.72983 l 0.92086,2.60908 h -0.71712 l -0.15961,-0.47827 h -0.8713 l -0.14936,0.47827 h -0.69233 z m 1.90406,2.60908 v -2.60908 h 0.72253 l 0.4928,0.8574 c 0.0804,0.13908 0.15662,0.27752 0.22855,0.41419 0.0719,0.13723 0.1397,0.27207 0.20379,0.40572 -0.01,-0.19711 -0.0163,-0.38215 -0.0212,-0.55448 -0.005,-0.17233 -0.007,-0.32408 -0.007,-0.4553 v -0.66753 h 0.64459 v 2.60908 h -0.72076 l -0.51215,-0.88218 c -0.0605,-0.104 -0.12577,-0.2207 -0.19652,-0.34948 -0.0713,-0.12941 -0.1463,-0.26907 -0.2249,-0.41906 0.0127,0.16993 0.0223,0.32836 0.0278,0.47467 0.006,0.14633 0.009,0.27633 0.009,0.38941 v 0.78665 z m 2.77959,0 v -2.60908 h 0.65727 v 0.99526 l 0.92812,-0.99526 h 0.80239 l -1.05572,1.09624 1.0805,1.51284 h -0.79694 l -0.73345,-1.04485 -0.2249,0.22494 v 0.81991 z" />
    <path
       style="clip-rule:evenodd;fill:#4d4d4d;fill-rule:nonzero;stroke-width:25.39999962;image-rendering:optimizeQuality;shape-rendering:geometricPrecision;text-rendering:geometricPrecision"
       inkscape:connector-curvature="0"
       id="_231403400"
       class="fil1"
       d="m 33.920775,293.30217 h 0.69157 c 0.14658,0 0.25573,-0.0273 0.32669,-0.0811 0.0718,-0.0538 0.10759,-0.13646 0.10759,-0.24561 0,-0.10214 -0.0335,-0.17932 -0.10061,-0.23231 -0.067,-0.0523 -0.16603,-0.0787 -0.29704,-0.0787 h -0.7282 z m 0,1.37922 h 0.65102 c 0.20506,0 0.34931,-0.0289 0.43115,-0.0858 0.0819,-0.0569 0.12319,-0.1536 0.12319,-0.28846 0,-0.12243 -0.039,-0.21365 -0.11774,-0.27522 -0.0779,-0.0616 -0.19492,-0.0928 -0.35004,-0.0928 h -0.73758 z m -0.82487,0.66894 v -3.36424 h 1.63338 c 0.39139,0 0.67986,0.0702 0.86622,0.21129 0.18634,0.14112 0.27989,0.35789 0.27989,0.65025 0,0.18087 -0.0413,0.33058 -0.12476,0.44831 -0.0826,0.1185 -0.20972,0.20972 -0.37968,0.27366 0.19491,0.0499 0.34382,0.14033 0.44752,0.27054 0.10369,0.13021 0.15516,0.29159 0.15516,0.48494 0,0.18866 -0.0429,0.35942 -0.12865,0.51146 -0.0865,0.15203 -0.20739,0.27054 -0.36255,0.35397 -0.10447,0.0577 -0.23154,0.099 -0.38125,0.12319 -0.14891,0.0242 -0.37892,0.0366 -0.68921,0.0366 z m 3.38762,-3.36424 h 0.84746 v 2.10119 c 0,0.23154 0.0437,0.39606 0.13102,0.4943 0.0881,0.0982 0.2331,0.14737 0.43503,0.14737 0.19957,0 0.34306,-0.0492 0.42959,-0.14737 0.0865,-0.0982 0.13021,-0.26276 0.13021,-0.4943 v -2.10118 h 0.85685 v 1.99826 c 0,0.28148 -0.0273,0.50601 -0.0819,0.67364 -0.0553,0.16764 -0.14581,0.30952 -0.27209,0.42493 -0.13255,0.12006 -0.28694,0.21049 -0.46236,0.27054 -0.17619,0.06 -0.37423,0.0904 -0.59566,0.0904 -0.22063,0 -0.41867,-0.0304 -0.59486,-0.0904 -0.17542,-0.06 -0.32982,-0.15047 -0.46236,-0.27054 -0.12784,-0.11697 -0.21986,-0.25965 -0.27675,-0.42805 -0.0561,-0.16841 -0.0842,-0.39216 -0.0842,-0.67052 z m 3.30732,2.24698 h 0.8272 c 0.006,0.19182 0.0624,0.33603 0.1692,0.43271 0.10678,0.0967 0.26272,0.14502 0.46858,0.14502 0.17462,0 0.31028,-0.0289 0.4062,-0.0865 0.0959,-0.0577 0.14422,-0.13955 0.14422,-0.24481 0,-0.053 -0.0117,-0.10057 -0.0343,-0.14269 -0.0234,-0.0413 -0.0553,-0.0733 -0.0967,-0.0943 -0.0624,-0.0335 -0.21518,-0.0866 -0.45924,-0.15749 -0.24325,-0.0718 -0.44908,-0.14112 -0.61668,-0.20818 -0.24172,-0.0959 -0.42569,-0.22297 -0.55125,-0.38045 -0.12552,-0.15749 -0.18866,-0.34149 -0.18866,-0.55125 0,-0.3212 0.12083,-0.57693 0.36175,-0.76639 0.24169,-0.18946 0.56838,-0.28457 0.9816,-0.28457 0.40464,0 0.72587,0.0998 0.96367,0.29937 0.23776,0.19961 0.3563,0.46858 0.3563,0.8085 h -0.81087 c -0.0179,-0.15669 -0.0733,-0.27286 -0.16527,-0.34695 -0.0928,-0.0748 -0.22533,-0.11224 -0.39918,-0.11224 -0.13799,0 -0.25104,0.0289 -0.3376,0.0858 -0.0865,0.0568 -0.13021,0.12941 -0.13021,0.2183 0,0.14891 0.20662,0.29003 0.61905,0.42257 0.0748,0.0242 0.13177,0.0421 0.17153,0.0546 l 0.0335,0.0117 c 0.42649,0.138 0.69314,0.25028 0.79992,0.33524 0.10838,0.0889 0.19026,0.19259 0.24715,0.31189 0.0561,0.12006 0.0842,0.2526 0.0842,0.39918 0,0.33447 -0.12861,0.59565 -0.38514,0.78199 -0.25649,0.18633 -0.61591,0.27989 -1.07904,0.27989 -0.4374,0 -0.77032,-0.0998 -0.99873,-0.30014 -0.22845,-0.20041 -0.35553,-0.50368 -0.38125,-0.91068 z m 3.27767,0 h 0.82721 c 0.006,0.19182 0.0624,0.33603 0.1692,0.43271 0.10675,0.0967 0.26268,0.14502 0.46854,0.14502 0.17462,0 0.31028,-0.0289 0.4062,-0.0865 0.0959,-0.0577 0.14422,-0.13955 0.14422,-0.24481 0,-0.053 -0.0117,-0.10057 -0.0343,-0.14269 -0.0234,-0.0413 -0.0554,-0.0733 -0.0967,-0.0943 -0.0624,-0.0335 -0.21518,-0.0866 -0.45923,-0.15749 -0.24326,-0.0718 -0.44905,-0.14112 -0.61665,-0.20818 -0.24173,-0.0959 -0.42569,-0.22297 -0.55125,-0.38045 -0.12553,-0.15749 -0.18866,-0.34149 -0.18866,-0.55125 0,-0.3212 0.12083,-0.57693 0.36175,-0.76639 0.24169,-0.18946 0.56838,-0.28457 0.98157,-0.28457 0.40464,0 0.72586,0.0998 0.96366,0.29937 0.23777,0.19961 0.3563,0.46858 0.3563,0.8085 h -0.81087 c -0.0179,-0.15669 -0.0733,-0.27286 -0.16527,-0.34695 -0.0928,-0.0748 -0.22533,-0.11224 -0.39918,-0.11224 -0.13799,0 -0.25103,0.0289 -0.33756,0.0858 -0.0865,0.0568 -0.13021,0.12941 -0.13021,0.2183 0,0.14891 0.20658,0.29003 0.61901,0.42257 0.0748,0.0242 0.13177,0.0421 0.17153,0.0546 l 0.0335,0.0117 c 0.42649,0.138 0.69314,0.25028 0.79992,0.33524 0.10839,0.0889 0.19026,0.19259 0.24715,0.31189 0.0561,0.12006 0.0842,0.2526 0.0842,0.39918 0,0.33447 -0.12861,0.59565 -0.38514,0.78199 -0.25649,0.18633 -0.61592,0.27989 -1.07904,0.27989 -0.43737,0 -0.77028,-0.0998 -0.9987,-0.30014 -0.22845,-0.20041 -0.35553,-0.50368 -0.38125,-0.91068 z" />
    <g
       aria-label="Formula"
       style="color:#000000;font-style:normal;font-variant:normal;font-weight:normal;font-stretch:normal;font-size:6.3499999px;line-height:125%;font-family:Sans;-inkscape-font-specification:Sans;text-indent:0;text-align:start;text-decoration:none;text-decoration-line:none;letter-spacing:0px;word-spacing:0px;text-transform:none;writing-mode:lr-tb;direction:ltr;baseline-shift:baseline;text-anchor:start;display:inline;overflow:visible;visibility:visible;fill:#000000;fill-opacity:1;fill-rule:nonzero;stroke:none;stroke-width:0.26458332px;stroke-linecap:butt;stroke-linejoin:miter;stroke-opacity:1;marker:none;enable-background:accumulate"
       id="text108">
      <path
         d="m 22.337272,199.6558 h 3.221509 v 0.90227 h -2.027783 v 0.86196 h 1.90686 v 0.90227 h -1.90686 v 1.96267 h -1.193726 z"
         style="font-style:normal;font-variant:normal;font-weight:bold;font-stretch:normal;font-family:Sans;-inkscape-font-specification:'Sans Bold';stroke-width:0.26458332px"
         id="path378" />
      <path
         d="m 28.020646,201.52235 q -0.36897,0 -0.564307,0.26665 -0.192236,0.26355 -0.192236,0.76275 0,0.49919 0.192236,0.76584 0.195337,0.26355 0.564307,0.26355 0.362769,0 0.555005,-0.26355 0.192236,-0.26665 0.192236,-0.76584 0,-0.4992 -0.192236,-0.76275 -0.192236,-0.26665 -0.555005,-0.26665 z m 0,-0.79375 q 0.896069,0 1.398364,0.48369 0.505396,0.48369 0.505396,1.33946 0,0.85576 -0.505396,1.33945 -0.502295,0.48369 -1.398364,0.48369 -0.89917,0 -1.407666,-0.48369 -0.505395,-0.48369 -0.505395,-1.33945 0,-0.85577 0.505395,-1.33946 0.508496,-0.48369 1.407666,-0.48369 z"
         style="font-style:normal;font-variant:normal;font-weight:bold;font-stretch:normal;font-family:Sans;-inkscape-font-specification:'Sans Bold';stroke-width:0.26458332px"
         id="path380" />
      <path
         d="m 33.313346,201.758 q -0.145728,-0.0682 -0.291455,-0.0992 -0.142627,-0.0341 -0.288355,-0.0341 -0.427881,0 -0.660425,0.27595 -0.229443,0.27285 -0.229443,0.78445 v 1.5999 h -1.11001 v -3.47265 h 1.11001 v 0.5705 q 0.21394,-0.34106 0.489893,-0.49609 0.279052,-0.15813 0.666625,-0.15813 0.05581,0 0.120923,0.006 0.06511,0.003 0.189136,0.0186 z"
         style="font-style:normal;font-variant:normal;font-weight:bold;font-stretch:normal;font-family:Sans;-inkscape-font-specification:'Sans Bold';stroke-width:0.26458332px"
         id="path382" />
      <path
         d="m 37.08986,201.38903 q 0.21084,-0.32247 0.499194,-0.4899 0.291455,-0.17053 0.638721,-0.17053 0.598413,0 0.911572,0.36897 0.313159,0.36897 0.313159,1.0728 v 2.1146 h -1.116211 v -1.81074 q 0.0031,-0.0403 0.0031,-0.0837 0.0031,-0.0434 0.0031,-0.12403 0,-0.36897 -0.108521,-0.5333 -0.10852,-0.16743 -0.350366,-0.16743 -0.31626,0 -0.489893,0.26045 -0.170532,0.26045 -0.176733,0.75344 v 1.70532 h -1.116211 v -1.81074 q 0,-0.57671 -0.09922,-0.74104 -0.09922,-0.16743 -0.353467,-0.16743 -0.31936,0 -0.492993,0.26355 -0.173632,0.26045 -0.173632,0.74724 v 1.70842 h -1.116211 v -3.47265 h 1.116211 v 0.50849 q 0.204638,-0.29455 0.468188,-0.44338 0.26665,-0.14883 0.586011,-0.14883 0.359668,0 0.63562,0.17363 0.275952,0.17364 0.418579,0.4868 z"
         style="font-style:normal;font-variant:normal;font-weight:bold;font-stretch:normal;font-family:Sans;-inkscape-font-specification:'Sans Bold';stroke-width:0.26458332px"
         id="path384" />
      <path
         d="m 40.457096,202.93312 v -2.1208 h 1.116211 v 0.34726 q 0,0.28216 -0.0031,0.71004 -0.0031,0.42478 -0.0031,0.5674 0,0.41858 0.0217,0.60462 0.0217,0.18293 0.07441,0.26665 0.06821,0.10852 0.176733,0.16743 0.111621,0.0589 0.254248,0.0589 0.347266,0 0.545704,-0.26665 0.198437,-0.26665 0.198437,-0.74104 v -1.71462 h 1.11001 v 3.47265 h -1.11001 v -0.50229 q -0.251147,0.30386 -0.533301,0.44958 -0.279052,0.14263 -0.617016,0.14263 -0.601514,0 -0.917774,-0.36897 -0.313159,-0.36897 -0.313159,-1.0728 z"
         style="font-style:normal;font-variant:normal;font-weight:bold;font-stretch:normal;font-family:Sans;-inkscape-font-specification:'Sans Bold';stroke-width:0.26458332px"
         id="path386" />
      <path
         d="m 45.021159,199.46046 h 1.110009 v 4.82451 h -1.110009 z"
         style="font-style:normal;font-variant:normal;font-weight:bold;font-stretch:normal;font-family:Sans;-inkscape-font-specification:'Sans Bold';stroke-width:0.26458332px"
         id="path388" />
      <path
         d="m 48.760464,202.72228 q -0.347265,0 -0.523999,0.11782 -0.173632,0.11782 -0.173632,0.34727 0,0.21084 0.139526,0.33176 0.142627,0.11782 0.393774,0.11782 0.31316,0 0.5271,-0.22324 0.21394,-0.22634 0.21394,-0.56431 v -0.12712 z m 1.696021,-0.41858 v 1.98127 h -1.119312 v -0.51469 q -0.223242,0.31626 -0.502294,0.46198 -0.279053,0.14263 -0.679029,0.14263 -0.539502,0 -0.877466,-0.31316 -0.334863,-0.31626 -0.334863,-0.81855 0,-0.61082 0.418579,-0.89607 0.42168,-0.28526 1.32085,-0.28526 h 0.654223 v -0.0868 q 0,-0.26355 -0.207739,-0.38448 -0.207739,-0.12402 -0.648022,-0.12402 -0.356568,0 -0.663526,0.0713 -0.306958,0.0713 -0.570507,0.21394 v -0.84646 q 0.356567,-0.0868 0.716235,-0.13022 0.359668,-0.0465 0.719336,-0.0465 0.939477,0 1.354956,0.37207 0.418579,0.36897 0.418579,1.20303 z"
         style="font-style:normal;font-variant:normal;font-weight:bold;font-stretch:normal;font-family:Sans;-inkscape-font-specification:'Sans Bold';stroke-width:0.26458332px"
         id="path390" />
    </g>
    <g
       aria-label="x"
       style="color:#000000;font-style:normal;font-variant:normal;font-weight:normal;font-stretch:normal;font-size:6.3499999px;line-height:125%;font-family:Sans;-inkscape-font-specification:Sans;text-indent:0;text-align:start;text-decoration:none;text-decoration-line:none;letter-spacing:0px;word-spacing:0px;text-transform:none;writing-mode:lr-tb;direction:ltr;baseline-shift:baseline;text-anchor:start;display:inline;overflow:visible;visibility:visible;fill:#000000;fill-opacity:1;fill-rule:nonzero;stroke:none;stroke-width:0.26458332px;stroke-linecap:butt;stroke-linejoin:miter;stroke-opacity:1;marker:none;enable-background:accumulate"
       id="text112-3"
       transform="translate(11.70491,0.65165192)">
      <path
         d="m 8.7759928,273.98449 -0.8371582,1.12654 0.8805664,1.18856 H 8.3708496 l -0.6738607,-0.9095 -0.6738606,0.9095 H 6.5745769 L 7.4737468,275.0883 6.651058,273.98449 h 0.4485514 l 0.613916,0.82475 0.613916,-0.82475 z"
         style="font-size:4.23333311px;stroke-width:0.26458332px"
         id="path431"
         inkscape:connector-curvature="0" />
    </g>
    <g
       aria-label="y"
       style="color:#000000;font-style:normal;font-variant:normal;font-weight:normal;font-stretch:normal;font-size:6.3499999px;line-height:125%;font-family:Sans;-inkscape-font-specification:Sans;text-indent:0;text-align:start;text-decoration:none;text-decoration-line:none;letter-spacing:0px;word-spacing:0px;text-transform:none;writing-mode:lr-tb;direction:ltr;baseline-shift:baseline;text-anchor:start;display:inline;overflow:visible;visibility:visible;fill:#000000;fill-opacity:1;fill-rule:nonzero;stroke:none;stroke-width:0.26458332px;stroke-linecap:butt;stroke-linejoin:miter;stroke-opacity:1;marker:none;enable-background:accumulate"
       id="text112-3-7"
       transform="translate(10.161352,0.31604525)">
      <path
         d="m 19.800337,276.82536 q -0.16123,0.41341 -0.314192,0.5395 -0.152963,0.12609 -0.409278,0.12609 H 18.77301 v -0.31833 h 0.223242 q 0.157096,0 0.243913,-0.0744 0.08682,-0.0744 0.192236,-0.3514 l 0.06821,-0.17363 -0.936377,-2.2779 h 0.403076 l 0.72347,1.81074 0.72347,-1.81074 h 0.403076 z"
         style="font-size:4.23333311px;stroke-width:0.26458332px"
         id="path434"
         inkscape:connector-curvature="0" />
    </g>
    <g
       aria-label="z"
       style="color:#000000;font-style:normal;font-variant:normal;font-weight:normal;font-stretch:normal;font-size:6.3499999px;line-height:125%;font-family:Sans;-inkscape-font-specification:Sans;text-indent:0;text-align:start;text-decoration:none;text-decoration-line:none;letter-spacing:0px;word-spacing:0px;text-transform:none;writing-mode:lr-tb;direction:ltr;baseline-shift:baseline;text-anchor:start;display:inline;overflow:visible;visibility:visible;fill:#000000;fill-opacity:1;fill-rule:nonzero;stroke:none;stroke-width:0.26458332px;stroke-linecap:butt;stroke-linejoin:miter;stroke-opacity:1;marker:none;enable-background:accumulate"
       id="text112-3-7-3"
       transform="translate(10.220569,-0.35590421)">
      <path
         d="m 29.022674,275.0981 h 1.806608 v 0.34727 l -1.430403,1.66398 h 1.430403 v 0.30386 h -1.858284 v -0.34727 l 1.430403,-1.66398 h -1.378727 z"
         style="font-size:4.23333311px;stroke-width:0.26458332px"
         id="path437"
         inkscape:connector-curvature="0" />
    </g>
    <g
       aria-label="-1"
       style="color:#000000;font-style:normal;font-variant:normal;font-weight:normal;font-stretch:normal;font-size:6.3499999px;line-height:125%;font-family:Sans;-inkscape-font-specification:Sans;text-indent:0;text-align:start;text-decoration:none;text-decoration-line:none;letter-spacing:0px;word-spacing:0px;text-transform:none;writing-mode:lr-tb;direction:ltr;baseline-shift:baseline;text-anchor:start;display:inline;overflow:visible;visibility:visible;fill:#000000;fill-opacity:1;fill-rule:nonzero;stroke:none;stroke-width:0.26458332px;stroke-linecap:butt;stroke-linejoin:miter;stroke-opacity:1;marker:none;enable-background:accumulate"
       id="text112-9-2"
       transform="translate(-23.439031,3.728183)">
      <path
         d="m 31.758521,258.64955 h 1.114144 v 0.339 h -1.114144 z"
         style="font-size:4.23333311px;stroke-width:0.26458332px"
         id="path412"
         inkscape:connector-curvature="0" />
      <path
         d="m 33.60647,259.62727 h 0.682129 v -2.35438 l -0.742074,0.14883 v -0.38034 l 0.73794,-0.14883 h 0.417545 v 2.73472 h 0.682129 v 0.3514 H 33.60647 Z"
         style="font-size:4.23333311px;stroke-width:0.26458332px"
         id="path414"
         inkscape:connector-curvature="0" />
    </g>
    <g
       aria-label="0"
       style="color:#000000;font-style:normal;font-variant:normal;font-weight:normal;font-stretch:normal;font-size:6.3499999px;line-height:125%;font-family:Sans;-inkscape-font-specification:Sans;text-indent:0;text-align:start;text-decoration:none;text-decoration-line:none;letter-spacing:0px;word-spacing:0px;text-transform:none;writing-mode:lr-tb;direction:ltr;baseline-shift:baseline;text-anchor:start;display:inline;overflow:visible;visibility:visible;fill:#000000;fill-opacity:1;fill-rule:nonzero;stroke:none;stroke-width:0.26458332px;stroke-linecap:butt;stroke-linejoin:miter;stroke-opacity:1;marker:none;enable-background:accumulate"
       id="text112-9-2-0"
       transform="translate(-19.238518,3.5816815)">
      <path
         d="m 41.48816,257.23186 q -0.322461,0 -0.485759,0.31833 -0.16123,0.31626 -0.16123,0.95291 0,0.63459 0.16123,0.95292 0.163298,0.31626 0.485759,0.31626 0.324528,0 0.485758,-0.31626 0.163298,-0.31833 0.163298,-0.95292 0,-0.63665 -0.163298,-0.95291 -0.16123,-0.31833 -0.485758,-0.31833 z m 0,-0.33073 q 0.518831,0 0.791683,0.41135 0.274918,0.40928 0.274918,1.19062 0,0.77928 -0.274918,1.19063 -0.272852,0.40927 -0.791683,0.40927 -0.518831,0 -0.79375,-0.40927 -0.272852,-0.41135 -0.272852,-1.19063 0,-0.78134 0.272852,-1.19062 0.274919,-0.41135 0.79375,-0.41135 z"
         style="font-size:4.23333311px;stroke-width:0.26458332px"
         id="path417"
         inkscape:connector-curvature="0" />
    </g>
    <g
       aria-label="1"
       style="color:#000000;font-style:normal;font-variant:normal;font-weight:normal;font-stretch:normal;font-size:6.3499999px;line-height:125%;font-family:Sans;-inkscape-font-specification:Sans;text-indent:0;text-align:start;text-decoration:none;text-decoration-line:none;letter-spacing:0px;word-spacing:0px;text-transform:none;writing-mode:lr-tb;direction:ltr;baseline-shift:baseline;text-anchor:start;display:inline;overflow:visible;visibility:visible;fill:#000000;fill-opacity:1;fill-rule:nonzero;stroke:none;stroke-width:0.26458332px;stroke-linecap:butt;stroke-linejoin:miter;stroke-opacity:1;marker:none;enable-background:accumulate"
       id="text112-9-2-0-3"
       transform="translate(-15.038006,3.3619294)">
      <path
         d="m 48.385666,259.908 h 0.682129 v -2.35438 l -0.742073,0.14883 v -0.38034 l 0.737939,-0.14883 h 0.417546 v 2.73472 h 0.682129 v 0.3514 h -1.77767 z"
         style="font-size:4.23333311px;stroke-width:0.26458332px"
         id="path420"
         inkscape:connector-curvature="0" />
    </g>
    <g
       aria-label="clamp"
       transform="translate(-226.49182,355.32034)"
       style="color:#000000;font-style:normal;font-variant:normal;font-weight:normal;font-stretch:normal;font-size:6.3499999px;line-height:125%;font-family:Sans;-inkscape-font-specification:Sans;text-indent:0;text-align:start;text-decoration:none;text-decoration-line:none;letter-spacing:0px;word-spacing:0px;text-transform:none;writing-mode:lr-tb;direction:ltr;baseline-shift:baseline;text-anchor:start;display:inline;overflow:visible;visibility:visible;fill:#000000;fill-opacity:1;fill-rule:nonzero;stroke:none;stroke-width:0.26458332px;stroke-linecap:butt;stroke-linejoin:miter;stroke-opacity:1;marker:none;enable-background:accumulate"
       id="text112-3-7-3-6-0-2"
       inkscape:transform-center-x="-1.97777"
       inkscape:transform-center-y="7.91108">
      <path
         d="m 278.73412,-68.047754 v 0.355534 q -0.16123,-0.08888 -0.32453,-0.132292 -0.16123,-0.04547 -0.32659,-0.04547 -0.37001,0 -0.57465,0.235645 -0.20464,0.233577 -0.20464,0.657324 0,0.423747 0.20464,0.659391 0.20464,0.233578 0.57465,0.233578 0.16536,0 0.32659,-0.04341 0.1633,-0.04547 0.32453,-0.134358 v 0.351399 q -0.15916,0.07441 -0.33073,0.111621 -0.1695,0.03721 -0.36174,0.03721 -0.52296,0 -0.83095,-0.328662 -0.30799,-0.328662 -0.30799,-0.886767 0,-0.566374 0.31005,-0.890902 0.31213,-0.324528 0.8537,-0.324528 0.1757,0 0.34313,0.03721 0.16743,0.03514 0.32453,0.107487 z"
         style="font-size:4.23333311px;stroke-width:0.26458332px"
         id="path455"
         inkscape:connector-curvature="0" />
      <path
         d="m 279.39971,-69.037874 h 0.38034 v 3.216341 h -0.38034 z"
         style="font-size:4.23333311px;stroke-width:0.26458332px"
         id="path457"
         inkscape:connector-curvature="0" />
      <path
         d="m 281.62593,-66.985286 q -0.46095,0 -0.63872,0.10542 -0.17777,0.105419 -0.17777,0.359667 0,0.202572 0.1323,0.322461 0.13435,0.117823 0.3638,0.117823 0.31626,0 0.50643,-0.223243 0.19223,-0.225309 0.19223,-0.597379 v -0.08475 z m 0.75861,-0.157097 v 1.32085 h -0.38034 v -0.3514 q -0.13022,0.21084 -0.32452,0.312126 -0.19431,0.09922 -0.47543,0.09922 -0.35553,0 -0.56637,-0.198437 -0.20877,-0.200505 -0.20877,-0.535368 0,-0.390674 0.26044,-0.589111 0.26252,-0.198438 0.78135,-0.198438 h 0.5333 v -0.03721 q 0,-0.262516 -0.17363,-0.405143 -0.17157,-0.144694 -0.48369,-0.144694 -0.19844,0 -0.38654,0.04754 -0.1881,0.04754 -0.36174,0.142627 v -0.351399 q 0.20878,-0.08062 0.40515,-0.11989 0.19637,-0.04134 0.3824,-0.04134 0.5023,0 0.75034,0.260449 0.24805,0.26045 0.24805,0.789616 z"
         style="font-size:4.23333311px;stroke-width:0.26458332px"
         id="path459"
         inkscape:connector-curvature="0" />
      <path
         d="m 284.9725,-67.69222 q 0.14262,-0.256315 0.34106,-0.378271 0.19844,-0.121957 0.46716,-0.121957 0.36173,0 0.5581,0.254248 0.19637,0.252181 0.19637,0.719336 v 1.397331 h -0.3824 v -1.384929 q 0,-0.332796 -0.11783,-0.494026 -0.11782,-0.161231 -0.35966,-0.161231 -0.29559,0 -0.46716,0.196371 -0.17156,0.19637 -0.17156,0.535368 v 1.308447 h -0.38241 v -1.384929 q 0,-0.334863 -0.11782,-0.494026 -0.11782,-0.161231 -0.3638,-0.161231 -0.29146,0 -0.46303,0.198438 -0.17156,0.19637 -0.17156,0.533301 v 1.308447 h -0.38241 v -2.315104 h 0.38241 v 0.359668 q 0.13022,-0.212907 0.31212,-0.314193 0.18191,-0.101286 0.43202,-0.101286 0.25218,0 0.42788,0.128158 0.17777,0.128157 0.26252,0.37207 z"
         style="font-size:4.23333311px;stroke-width:0.26458332px"
         id="path461"
         inkscape:connector-curvature="0" />
      <path
         d="m 287.66381,-66.168799 v 1.227832 h -0.38241 v -3.19567 h 0.38241 v 0.351399 q 0.11988,-0.206705 0.30179,-0.305924 0.18396,-0.101286 0.43821,-0.101286 0.42168,0 0.6842,0.334863 0.26458,0.334864 0.26458,0.880567 0,0.545703 -0.26458,0.880566 -0.26252,0.334863 -0.6842,0.334863 -0.25425,0 -0.43821,-0.09922 -0.18191,-0.101286 -0.30179,-0.307992 z m 1.29397,-0.808219 q 0,-0.419613 -0.17363,-0.657324 -0.17157,-0.239779 -0.47336,-0.239779 -0.30179,0 -0.47542,0.239779 -0.17156,0.237711 -0.17156,0.657324 0,0.419612 0.17156,0.659391 0.17363,0.237712 0.47542,0.237712 0.30179,0 0.47336,-0.237712 0.17363,-0.239779 0.17363,-0.659391 z"
         style="font-size:4.23333311px;stroke-width:0.26458332px"
         id="path463"
         inkscape:connector-curvature="0" />
    </g>
    <g
       aria-label="freq"
       style="color:#000000;font-style:normal;font-variant:normal;font-weight:normal;font-stretch:normal;font-size:4.23333311px;line-height:125%;font-family:Sans;-inkscape-font-specification:Sans;text-indent:0;text-align:start;text-decoration:none;text-decoration-line:none;letter-spacing:0px;word-spacing:0px;text-transform:none;writing-mode:lr-tb;direction:ltr;baseline-shift:baseline;text-anchor:start;display:inline;overflow:visible;visibility:visible;fill:#000000;fill-opacity:1;fill-rule:nonzero;stroke:none;stroke-width:0.26458332px;stroke-linecap:butt;stroke-linejoin:miter;stroke-opacity:1;marker:none;enable-background:accumulate"
       id="text473"
       transform="translate(-1.5875,-11.03925)">
      <path
         d="m 5.4532526,262.43234 v 0.31626 h -0.363802 q -0.2046387,0 -0.2852539,0.0827 -0.078548,0.0827 -0.078548,0.29766 v 0.20464 H 5.351967 v 0.29559 H 4.7256485 v 2.01951 H 4.3432429 v -2.01951 h -0.363802 v -0.29559 h 0.363802 v -0.16123 q 0,-0.38654 0.179834,-0.56224 0.179834,-0.17777 0.5705078,-0.17777 z"
         style="font-size:4.23333311px;stroke-width:0.26458332px"
         id="path475"
         inkscape:connector-curvature="0" />
      <path
         d="m 7.1110325,263.68911 q -0.064079,-0.0372 -0.1405599,-0.0537 -0.074414,-0.0186 -0.1653646,-0.0186 -0.3224609,0 -0.4960937,0.21084 -0.1715658,0.20878 -0.1715658,0.60152 v 1.21956 H 5.7550429 v -2.3151 h 0.3824056 v 0.35967 q 0.1198893,-0.21084 0.3121257,-0.31213 0.1922363,-0.10335 0.4671549,-0.10335 0.039274,0 0.086816,0.006 0.047542,0.004 0.1054199,0.0145 z"
         style="font-size:4.23333311px;stroke-width:0.26458332px"
         id="path477"
         inkscape:connector-curvature="0" />
      <path
         d="m 9.4033988,264.39604 v 0.18604 H 7.6546684 q 0.024805,0.39274 0.2356445,0.59945 0.2129069,0.20464 0.5911784,0.20464 0.219108,0 0.4237467,-0.0537 0.2067057,-0.0537 0.4092773,-0.16123 v 0.35967 q -0.2046387,0.0868 -0.4196126,0.13229 -0.214974,0.0455 -0.4361491,0.0455 -0.5539713,0 -0.8784993,-0.32246 -0.3224609,-0.32247 -0.3224609,-0.8723 0,-0.56844 0.3059245,-0.90124 0.3079915,-0.33486 0.8288899,-0.33486 0.4671549,0 0.7379394,0.30179 0.2728516,0.29972 0.2728516,0.81648 z m -0.3803386,-0.11162 q -0.00413,-0.31212 -0.1756998,-0.49816 -0.1694987,-0.18603 -0.4506185,-0.18603 -0.3183268,0 -0.5105631,0.17983 -0.1901693,0.17984 -0.2191081,0.50643 z"
         style="font-size:4.23333311px;stroke-width:0.26458332px"
         id="path479"
         inkscape:connector-curvature="0" />
      <path
         d="m 10.255026,264.4932 q 0,0.41961 0.171566,0.65939 0.173633,0.23771 0.475423,0.23771 0.301791,0 0.475424,-0.23771 0.173632,-0.23978 0.173632,-0.65939 0,-0.41962 -0.173632,-0.65733 -0.173633,-0.23978 -0.475424,-0.23978 -0.30179,0 -0.475423,0.23978 -0.171566,0.23771 -0.171566,0.65733 z m 1.296045,0.80822 q -0.119889,0.2067 -0.303857,0.30799 -0.181901,0.0992 -0.438216,0.0992 -0.419613,0 -0.684196,-0.33487 -0.2625164,-0.33486 -0.2625164,-0.88056 0,-0.54571 0.2625164,-0.88057 0.264583,-0.33486 0.684196,-0.33486 0.256315,0 0.438216,0.10128 0.183968,0.0992 0.303857,0.30593 v -0.3514 h 0.380339 v 3.19567 h -0.380339 z"
         style="font-size:4.23333311px;stroke-width:0.26458332px"
         id="path481"
         inkscape:connector-curvature="0" />
    </g>
    <g
       aria-label="-1"
       style="color:#000000;font-style:normal;font-variant:normal;font-weight:normal;font-stretch:normal;font-size:2.82222223px;line-height:125%;font-family:Sans;-inkscape-font-specification:Sans;text-indent:0;text-align:start;text-decoration:none;text-decoration-line:none;letter-spacing:0px;word-spacing:0px;text-transform:none;writing-mode:lr-tb;direction:ltr;baseline-shift:baseline;text-anchor:start;display:inline;overflow:visible;visibility:visible;fill:#000000;fill-opacity:1;fill-rule:nonzero;stroke:none;stroke-width:0.26458332px;stroke-linecap:butt;stroke-linejoin:miter;stroke-opacity:1;marker:none;enable-background:accumulate"
       id="text4968"
       transform="translate(-38.245694,10.761457)">
      <path
         d="m 81.226366,258.60953 h 0.742762 v 0.226 h -0.742762 z"
         style="font-size:2.82222223px;stroke-width:0.26458332px"
         id="path4988"
         inkscape:connector-curvature="0" />
      <path
         d="m 82.458332,259.26134 h 0.454753 v -1.56959 l -0.494716,0.0992 v -0.25356 l 0.491959,-0.0992 h 0.278364 v 1.82315 h 0.454753 v 0.23427 h -1.185113 z"
         style="font-size:2.82222223px;stroke-width:0.26458332px"
         id="path4990"
         inkscape:connector-curvature="0" />
    </g>
    <g
       aria-label="1"
       style="color:#000000;font-style:normal;font-variant:normal;font-weight:normal;font-stretch:normal;font-size:2.82222223px;line-height:125%;font-family:Sans;-inkscape-font-specification:Sans;text-indent:0;text-align:start;text-decoration:none;text-decoration-line:none;letter-spacing:0px;word-spacing:0px;text-transform:none;writing-mode:lr-tb;direction:ltr;baseline-shift:baseline;text-anchor:start;display:inline;overflow:visible;visibility:visible;fill:#000000;fill-opacity:1;fill-rule:nonzero;stroke:none;stroke-width:0.26458332px;stroke-linecap:butt;stroke-linejoin:miter;stroke-opacity:1;marker:none;enable-background:accumulate"
       id="text4968-7"
       transform="translate(-25.90349,5.5179374)">
      <path
         d="m 80.898003,264.61183 h 0.454753 v -1.56958 l -0.494716,0.0992 v -0.25356 l 0.491959,-0.0992 h 0.278364 v 1.82314 h 0.454753 v 0.23427 h -1.185113 z"
         style="font-size:2.82222223px;stroke-width:0.26458332px"
         id="path4993"
         inkscape:connector-curvature="0" />
    </g>
    <g
       aria-label="w"
       style="color:#000000;font-style:normal;font-variant:normal;font-weight:normal;font-stretch:normal;font-size:6.3499999px;line-height:125%;font-family:Sans;-inkscape-font-specification:Sans;text-indent:0;text-align:start;text-decoration:none;text-decoration-line:none;letter-spacing:0px;word-spacing:0px;text-transform:none;writing-mode:lr-tb;direction:ltr;baseline-shift:baseline;text-anchor:start;display:inline;overflow:visible;visibility:visible;fill:#000000;fill-opacity:1;fill-rule:nonzero;stroke:none;stroke-width:0.26458332px;stroke-linecap:butt;stroke-linejoin:miter;stroke-opacity:1;marker:none;enable-background:accumulate"
       id="text4539"
       transform="translate(-73.623253,17.895141)">
      <path
         d="m 80.75358,256.66775 h 0.380339 l 0.475423,1.8066 0.473356,-1.8066 h 0.448551 l 0.475424,1.8066 0.473356,-1.8066 h 0.380338 l -0.605648,2.3151 h -0.448551 l -0.498161,-1.89756 -0.500228,1.89756 h -0.448551 z"
         style="font-size:4.23333311px;stroke-width:0.26458332px"
         id="path4541"
         inkscape:connector-curvature="0" />
    </g>
    <rect
       style="color:#000000;display:inline;overflow:visible;visibility:visible;fill:#222222;fill-opacity:1;fill-rule:nonzero;stroke:none;stroke-width:0.26499999;stroke-linecap:butt;stroke-linejoin:miter;stroke-miterlimit:4;stroke-dasharray:none;stroke-dashoffset:0;stroke-opacity:1;marker:none;marker-start:none;marker-mid:none;marker-end:none;enable-background:accumulate"
       id="rect4555"
       width="7.6913266"
       height="11.866618"
       x="57.607693"
       y="273.74625"
       rx="0.93750072"
       ry="0.93750072" />
    <g
       aria-label="out"
       style="color:#000000;font-style:normal;font-variant:normal;font-weight:normal;font-stretch:normal;font-size:4.23333311px;line-height:125%;font-family:Sans;-inkscape-font-specification:Sans;text-indent:0;text-align:start;text-decoration:none;text-decoration-line:none;letter-spacing:0px;word-spacing:0px;text-transform:none;writing-mode:lr-tb;direction:ltr;baseline-shift:baseline;text-anchor:start;display:inline;overflow:visible;visibility:visible;fill:#ffffff;fill-opacity:1;fill-rule:nonzero;stroke:none;stroke-width:0.26458332px;stroke-linecap:butt;stroke-linejoin:miter;stroke-opacity:1;marker:none;enable-background:accumulate"
       id="text4546"
       transform="translate(-27.67754,12.016514)">
      <path
         d="m 86.926157,263.16071 q -0.305925,0 -0.483692,0.23978 -0.177767,0.23771 -0.177767,0.65319 0,0.41548 0.1757,0.65526 0.177767,0.23771 0.485759,0.23771 0.303857,0 0.481624,-0.23978 0.177767,-0.23978 0.177767,-0.65319 0,-0.41134 -0.177767,-0.65112 -0.177767,-0.24185 -0.481624,-0.24185 z m 0,-0.32246 q 0.496093,0 0.77928,0.32246 0.283187,0.32246 0.283187,0.89297 0,0.56844 -0.283187,0.89297 -0.283187,0.32246 -0.77928,0.32246 -0.498161,0 -0.781348,-0.32246 -0.28112,-0.32453 -0.28112,-0.89297 0,-0.57051 0.28112,-0.89297 0.283187,-0.32246 0.781348,-0.32246 z"
         style="font-size:4.23333311px;fill:#ffffff;fill-opacity:1;stroke-width:0.26458332px"
         id="path4548"
         inkscape:connector-curvature="0" />
      <path
         d="m 88.577735,264.29553 v -1.40147 h 0.380339 v 1.387 q 0,0.32866 0.128157,0.49403 0.128158,0.16329 0.384473,0.16329 0.307991,0 0.485758,-0.19637 0.179834,-0.19637 0.179834,-0.53537 v -1.31258 h 0.380339 v 2.31511 h -0.380339 v -0.35554 q -0.138493,0.21084 -0.322461,0.3142 -0.181901,0.10128 -0.423746,0.10128 -0.398942,0 -0.605648,-0.24804 -0.206706,-0.24805 -0.206706,-0.72554 z m 0.957048,-1.45728 z"
         style="font-size:4.23333311px;fill:#ffffff;fill-opacity:1;stroke-width:0.26458332px"
         id="path4550"
         inkscape:connector-curvature="0" />
      <path
         d="m 91.680388,262.23674 v 0.65732 h 0.783415 v 0.29559 h -0.783415 v 1.25677 q 0,0.28319 0.07648,0.36381 0.07855,0.0806 0.31626,0.0806 h 0.390674 v 0.31833 h -0.390674 q -0.440283,0 -0.607715,-0.1633 -0.167432,-0.16536 -0.167432,-0.59945 v -1.25677 H 91.01893 v -0.29559 h 0.279052 v -0.65732 z"
         style="font-size:4.23333311px;fill:#ffffff;fill-opacity:1;stroke-width:0.26458332px"
         id="path4552"
         inkscape:connector-curvature="0" />
    </g>
  </g>
</svg>
