<svg id="Layer_1" data-name="Layer 1" xmlns="http://www.w3.org/2000/svg" width="300" height="380" viewBox="0 0 300 380">
  <title>cheby2-n-ghost</title>
  <rect width="300" height="380" style="fill: #e6e6e6"/>
  <g>
    <path d="M112,9.88,105.8,17l4.51,8.49-.17.19L99.52,16.31l12.37-6.68Z"/>
    <path d="M122.26,16.58l-2.86,8-.31-.06a9.88,9.88,0,0,0,.15-1.74c0-1.53-.35-2.29-1-2.29a1.19,1.19,0,0,0-.4.08A3.83,3.83,0,0,0,116,22.4a8,8,0,0,0-1,2.54h-.23l-2.26-13.4h4.78L116,19.17a5.68,5.68,0,0,1,4.79-2.8A5,5,0,0,1,122.26,16.58Z"/>
    <path d="M133.47,19.08a2.16,2.16,0,0,1-1,2,7.86,7.86,0,0,1-3.78,1.51,13.85,13.85,0,0,1-1.54.15,1.91,1.91,0,0,0,1.62.69,7.36,7.36,0,0,0,3.72-1.32l.46.56a6.63,6.63,0,0,1-2.27,1.18,12.53,12.53,0,0,1-3.27.67,5.91,5.91,0,0,1-3-.48A2.47,2.47,0,0,1,123,21.83a3.38,3.38,0,0,1,1.6-2.83,8.36,8.36,0,0,1,3.63-1.58,10.47,10.47,0,0,1,1.85-.19,4.67,4.67,0,0,1,2.37.53A1.86,1.86,0,0,1,133.47,19.08Zm-4.22-1.15a2.61,2.61,0,0,0-1.49.52,3,3,0,0,0-1.51,2.44A1,1,0,0,0,127.34,22a2.6,2.6,0,0,0,1.51-.55,3.74,3.74,0,0,0,1.1-1.14,2.47,2.47,0,0,0,.42-1.27A1,1,0,0,0,129.25,17.93Z"/>
    <path d="M144.69,19.48a4.06,4.06,0,0,1-1.7,3,9.58,9.58,0,0,1-4.12,2,8.93,8.93,0,0,1-2,.23,6.65,6.65,0,0,1-1.51-.17l-.17,1H135l-2.27-13.42h4.79l-1,5.94a9.5,9.5,0,0,1,4.39-1.13,4.87,4.87,0,0,1,2.74.7A2.16,2.16,0,0,1,144.69,19.48Zm-3.87.92a2.34,2.34,0,0,0-.56-1.56,1.86,1.86,0,0,0-1.45-.62,4.7,4.7,0,0,0-2.5.93l-.76,4.53a5.76,5.76,0,0,0,1.68.27,3.61,3.61,0,0,0,2.59-1A3.25,3.25,0,0,0,140.82,20.4Z"/>
    <path d="M157.29,19l-9,10.18-.19-.12,2-4.79-5.08-5.59,4.28-2.12,1.22,6.7,2.79-6.8Z"/>
    <path d="M166.59,24.06l-8,2-.07-.12,3.41-2.67L157.54,18,165.2,16l.05.11-3.15,2.6Z"/>
    <path d="M177.07,16.58l-2.86,8-.31-.06a9.89,9.89,0,0,0,.14-1.74c0-1.53-.35-2.29-1-2.29a1.18,1.18,0,0,0-.39.08,3.83,3.83,0,0,0-1.81,1.85,8,8,0,0,0-1,2.54h-.23l-2.27-13.4h4.79l-1.3,7.63a5.67,5.67,0,0,1,4.79-2.8A5,5,0,0,1,177.07,16.58Z"/>
    <path d="M188.28,19.08a2.16,2.16,0,0,1-1,2,7.86,7.86,0,0,1-3.78,1.51,13.85,13.85,0,0,1-1.54.15,1.91,1.91,0,0,0,1.62.69,7.36,7.36,0,0,0,3.72-1.32l.46.56a6.63,6.63,0,0,1-2.27,1.18,12.6,12.6,0,0,1-3.28.67,5.89,5.89,0,0,1-3-.48,2.47,2.47,0,0,1-1.43-2.23A3.38,3.38,0,0,1,179.4,19,8.36,8.36,0,0,1,183,17.42a10.47,10.47,0,0,1,1.85-.19,4.67,4.67,0,0,1,2.37.53A1.86,1.86,0,0,1,188.28,19.08Zm-4.22-1.15a2.59,2.59,0,0,0-1.49.52,3,3,0,0,0-1.51,2.44A1,1,0,0,0,182.15,22a2.6,2.6,0,0,0,1.51-.55,3.7,3.7,0,0,0,1.09-1.14,2.47,2.47,0,0,0,.42-1.27A1,1,0,0,0,184.06,17.93Z"/>
    <path d="M200.23,18.7l-5.54,6.09h-.34l-5.54-6.09,4.28-2.12,1.43,7.84L196,16.58Z"/>
  </g>
  <g>
    <path d="M119.1,352.78l-5.4,3.61,4,6.8-8.43,2.55,0-.13L114.6,362l-4-6.79,8.49-2.56Z"/>
    <path d="M126.54,366.43h-3.17l.57-3.42a6,6,0,0,1-2.72.64,3.26,3.26,0,0,1-1.82-.46,1.43,1.43,0,0,1-.7-1.23,2.73,2.73,0,0,1,1.14-2,6.43,6.43,0,0,1,2.74-1.36,5.33,5.33,0,0,1,2.13-.08l.17-1H125Zm-1.93-7.34a4.53,4.53,0,0,0-.94-.11,2.45,2.45,0,0,0-1.72.64,2.16,2.16,0,0,0-.67,1.71,1.58,1.58,0,0,0,.38,1,1.2,1.2,0,0,0,1,.42,3,3,0,0,0,1.45-.48Z"/>
    <path d="M132.8,363.65h-1.9l.22-1.72a3.79,3.79,0,0,1-3.19,1.86,3,3,0,0,1-1-.14l1.9-5.32.21.05a7.26,7.26,0,0,0-.1,1.16c0,1,.24,1.52.71,1.52a.85.85,0,0,0,.26-.05,2.53,2.53,0,0,0,1.2-1.23,5,5,0,0,0,.63-1.7h.17Z"/>
    <path d="M136.44,357.8l-1.51,5.76h-.15l-1.52-5.76Zm.11-2-1.2.36.32,1.25-.73-1.05-1.07.67.75-1-1-.81,1.18.41.48-1.17,0,1.26Z"/>
    <path d="M142.87,358.22,141,363.54l-.21,0a6.26,6.26,0,0,0,.1-1.16c0-1-.23-1.53-.7-1.53a.74.74,0,0,0-.27.06,2.53,2.53,0,0,0-1.2,1.23,5.06,5.06,0,0,0-.64,1.69h-.16l-.87-5.57h1.9l-.21,1.72a3.78,3.78,0,0,1,3.19-1.86A3.52,3.52,0,0,1,142.87,358.22Z"/>
    <path d="M149.85,358.66l-2.91,2.07,1.85,3.29-.13.18L145.42,362l-.41,2.43h-.17l-1.51-8.94h3.19l-1,5.65,1.7-2.43Z"/>
    <path d="M157.29,359.85l-6,6.79-.13-.09,1.3-3.19-3.39-3.72,2.86-1.42.81,4.47,1.86-4.54Z"/>
    <path d="M168.89,363.09h-3.61l.13.8-3.12.46.19-1.26h-2.14l0-.16,2.3-.69,1.19-8h.09l1.14,7.26,3.86-1.16Z"/>
    <path d="M177,363.5H173.9l.27-1.18a6,6,0,0,1-1.67.9,4.43,4.43,0,0,1-1.49.28,2.09,2.09,0,0,1-1.26-.34,1.13,1.13,0,0,1-.47-1,2.75,2.75,0,0,1,.95-1.85,5.76,5.76,0,0,1,2.27-1.42,4.64,4.64,0,0,1,1.52-.28,2.38,2.38,0,0,1,.93.16l0-.16h.45ZM174.09,361a2.14,2.14,0,0,0,.16-.79c0-.63-.25-.94-.77-.94a1.72,1.72,0,0,0-1.09.51,3.14,3.14,0,0,0-.85,1.22,2.21,2.21,0,0,0-.17.8c0,.62.26.93.77.93a1.67,1.67,0,0,0,1.1-.51A3.09,3.09,0,0,0,174.09,361Z"/>
    <path d="M184.21,360.15a2.73,2.73,0,0,1-1.13,2,6.53,6.53,0,0,1-2.75,1.36,6,6,0,0,1-1.3.15,4.67,4.67,0,0,1-1-.11l-.11.66h-.17l-1.51-8.95h3.19l-.67,4a6.31,6.31,0,0,1,2.92-.75,3.19,3.19,0,0,1,1.83.47A1.42,1.42,0,0,1,184.21,360.15Zm-2.58.62a1.53,1.53,0,0,0-.38-1,1.2,1.2,0,0,0-1-.42,3.17,3.17,0,0,0-1.67.62l-.5,3a3.51,3.51,0,0,0,1.12.19,2.39,2.39,0,0,0,1.72-.68A2.13,2.13,0,0,0,181.63,360.77Z"/>
    <path d="M190.58,363.21l-5.36,1.33-.05-.09,2.27-1.78-2.9-3.48,5.11-1.37,0,.07-2.1,1.73Z"/>
  </g>
  <g>
    <rect x="258.5" y="307" width="29" height="42" rx="3"/>
    <path d="M284.5,349.5h-23A3.5,3.5,0,0,1,258,346V310a3.5,3.5,0,0,1,3.5-3.5h23A3.5,3.5,0,0,1,288,310v36A3.5,3.5,0,0,1,284.5,349.5Zm-23-42A2.5,2.5,0,0,0,259,310v36a2.5,2.5,0,0,0,2.5,2.5h23A2.5,2.5,0,0,0,287,346V310a2.5,2.5,0,0,0-2.5-2.5Z"/>
  </g>
</svg>
