<svg id="Layer_1" data-name="Layer 1" xmlns="http://www.w3.org/2000/svg" width="33" height="26" viewBox="0 0 33 26">
  <title>ac-dc</title>
  <g>
    <path d="M8.84,7.79a17.83,17.83,0,0,1,2.59-.19,5.42,5.42,0,0,1,3.83,1.17,4.37,4.37,0,0,1,1.33,3.39,5,5,0,0,1-1.36,3.67,5.78,5.78,0,0,1-4.17,1.36,19.89,19.89,0,0,1-2.22-.11Zm1.22,8.35a7.28,7.28,0,0,0,1.23.07c2.61,0,4-1.45,4-4,0-2.23-1.24-3.65-3.82-3.65a6.87,6.87,0,0,0-1.43.13Z" style="fill: #307dee"/>
    <path d="M24.76,16.8a5.89,5.89,0,0,1-2.49.45,4.41,4.41,0,0,1-4.66-4.78,4.7,4.7,0,0,1,4.93-5,5.2,5.2,0,0,1,2.24.42l-.3,1a4.34,4.34,0,0,0-1.9-.39c-2.21,0-3.68,1.41-3.68,3.89,0,2.31,1.33,3.8,3.62,3.8a4.82,4.82,0,0,0,2-.4Z" style="fill: #307dee"/>
  </g>
  <rect x="0.5" y="0.5" width="32" height="25" rx="3" style="fill: none;stroke: #999;stroke-miterlimit: 10"/>
</svg>
