<svg id="Layer_1" data-name="Layer 1" xmlns="http://www.w3.org/2000/svg" width="270" height="380" viewBox="0 0 270 380">
  <title>ev3-3-ghost</title>
  <g id="background_fill" data-name="background fill">
    <rect width="270" height="380" style="fill: #e6e6e6"/>
    <rect x="0.5" y="0.5" width="269" height="379" style="fill: none;stroke: #707070"/>
  </g>
  <line x1="90" y1="49" x2="90" y2="245" style="fill: none;stroke: #b3b3b3;stroke-linecap: round;stroke-miterlimit: 10;stroke-width: 2px"/>
  <line x1="180.25" y1="49" x2="179.75" y2="245" style="fill: none;stroke: #b3b3b3;stroke-linecap: round;stroke-miterlimit: 10;stroke-width: 2px"/>
  <rect x="185" y="267" width="75" height="93" rx="3" style="stroke: #000;stroke-miterlimit: 10"/>
  <g>
    <path d="M74.65,7.56l-6.93,4.65L72.88,21,62.05,24.23l0-.16,6.87-4.61-5.2-8.73L74.6,7.44Z"/>
    <path d="M84.23,25.11H80.14l.74-4.39a7.76,7.76,0,0,1-3.49.83A4.23,4.23,0,0,1,75.05,21a1.83,1.83,0,0,1-.9-1.59,3.48,3.48,0,0,1,1.45-2.55,8.16,8.16,0,0,1,3.53-1.75A6.73,6.73,0,0,1,81.87,15l.21-1.35h.2Zm-2.49-9.43a5.75,5.75,0,0,0-1.2-.14,3.12,3.12,0,0,0-2.22.83,2.73,2.73,0,0,0-.86,2.19,2,2,0,0,0,.48,1.34,1.58,1.58,0,0,0,1.25.53A3.75,3.75,0,0,0,81,19.82Z"/>
    <path d="M92.27,21.55H89.82l.29-2.21A4.87,4.87,0,0,1,86,21.73a4.08,4.08,0,0,1-1.26-.18l2.45-6.84.27,0a8.13,8.13,0,0,0-.13,1.5c0,1.31.3,2,.9,2a.86.86,0,0,0,.34-.07,3.24,3.24,0,0,0,1.55-1.59,6.61,6.61,0,0,0,.81-2.17h.22Z"/>
    <path d="M97,14,95,21.42h-.2L92.87,14Zm.15-2.63-1.55.46L96,13.47,95,12.12,93.64,13l1-1.29-1.24-1,1.53.52.61-1.49,0,1.62Z"/>
    <path d="M105.21,14.57l-2.44,6.84-.27-.06a9.08,9.08,0,0,0,.12-1.49c0-1.31-.3-2-.9-2a.86.86,0,0,0-.34.07,3.26,3.26,0,0,0-1.55,1.58A6.79,6.79,0,0,0,99,21.73h-.19l-1.12-7.16h2.43l-.27,2.21a4.85,4.85,0,0,1,4.1-2.39A4.26,4.26,0,0,1,105.21,14.57Z"/>
    <path d="M114.2,15.12l-3.75,2.67L112.83,22l-.16.23-4.18-2.9L108,22.49h-.22L105.81,11h4.1l-1.24,7.28,2.18-3.14Z"/>
    <path d="M123.75,16.65,116,25.38l-.16-.1,1.68-4.11-4.36-4.79,3.67-1.81,1,5.74,2.39-5.83Z"/>
    <path d="M138.68,20.83H134l.16,1-4,.59.25-1.62h-2.75l0-.22,3-.88,1.53-10.28h.13l1.46,9.35,5-1.5Z"/>
    <path d="M149.08,21.35h-4l.34-1.51A7.79,7.79,0,0,1,143.32,21a5.88,5.88,0,0,1-1.93.36,2.63,2.63,0,0,1-1.61-.44,1.42,1.42,0,0,1-.6-1.21,3.51,3.51,0,0,1,1.21-2.39,7.59,7.59,0,0,1,2.93-1.83,5.94,5.94,0,0,1,1.94-.36,3.15,3.15,0,0,1,1.21.22l0-.22h.58Zm-3.73-3.22a2.65,2.65,0,0,0,.22-1q0-1.2-1-1.2a2.19,2.19,0,0,0-1.41.66,4,4,0,0,0-1.09,1.57,2.65,2.65,0,0,0-.22,1c0,.79.33,1.18,1,1.18a2.14,2.14,0,0,0,1.41-.64A4.08,4.08,0,0,0,145.35,18.13Z"/>
    <path d="M158.37,17.05a3.5,3.5,0,0,1-1.46,2.54,8.09,8.09,0,0,1-3.53,1.74,7,7,0,0,1-1.67.2,6,6,0,0,1-1.3-.14l-.14.84h-.22l-1.94-11.5h4.1l-.86,5.1a8.08,8.08,0,0,1,3.76-1,4.2,4.2,0,0,1,2.35.61A1.84,1.84,0,0,1,158.37,17.05Zm-3.31.79a2.07,2.07,0,0,0-.49-1.34,1.59,1.59,0,0,0-1.24-.53,4,4,0,0,0-2.14.79l-.65,3.89a4.7,4.7,0,0,0,1.44.23,3.06,3.06,0,0,0,2.21-.86A2.8,2.8,0,0,0,155.06,17.84Z"/>
    <path d="M166.56,21l-6.9,1.71,0-.1,2.92-2.29-3.73-4.48L165.37,14l0,.09-2.71,2.24Z"/>
    <path d="M182.56,9.87l-6.05,2.57,2.92,3.37L176,19.23l5.65,3.15,0,.14-11-1.58,5.14-5.31-4.38-5.31,11.2-.56Z"/>
    <path d="M195.12,9,189,22.27l-6.2-13.34.09-.09L189,16.17l6-7.26Z"/>
    <path d="M204.79,20.52l-9.2,1.12v-.22l4-2.44L198.17,16l-1,.76v-.24l.65-1-.65-1v-.24l1,.76,1.42-2.94-4-2.46V9.4l9.2,1.12-5.94,5Z"/>
  </g>
</svg>
