<?xml version="1.0" encoding="UTF-8" standalone="no"?>
<svg
   xmlns:dc="http://purl.org/dc/elements/1.1/"
   xmlns:cc="http://creativecommons.org/ns#"
   xmlns:rdf="http://www.w3.org/1999/02/22-rdf-syntax-ns#"
   xmlns:svg="http://www.w3.org/2000/svg"
   xmlns="http://www.w3.org/2000/svg"
   xmlns:sodipodi="http://sodipodi.sourceforge.net/DTD/sodipodi-0.dtd"
   xmlns:inkscape="http://www.inkscape.org/namespaces/inkscape"
   version="1.1"
   width="225"
   height="380"
   viewBox="0 0 225 380"
   id="svg22"
   sodipodi:docname="svg_render_tmp.svg"
   inkscape:version="0.92.2 5c3e80d, 2017-08-06">
  <metadata
     id="metadata26">
    <rdf:RDF>
      <cc:Work
         rdf:about="">
        <dc:format>image/svg+xml</dc:format>
        <dc:type
           rdf:resource="http://purl.org/dc/dcmitype/StillImage" />
      </cc:Work>
    </rdf:RDF>
  </metadata>
  <sodipodi:namedview
     pagecolor="#ffffff"
     bordercolor="#666666"
     borderopacity="1"
     objecttolerance="10"
     gridtolerance="10"
     guidetolerance="10"
     inkscape:pageopacity="0"
     inkscape:pageshadow="2"
     inkscape:window-width="640"
     inkscape:window-height="480"
     id="namedview24"
     showgrid="false"
     inkscape:zoom="0.62105263"
     inkscape:cx="112.5"
     inkscape:cy="190"
     inkscape:window-x="0"
     inkscape:window-y="0"
     inkscape:window-maximized="0"
     inkscape:current-layer="svg22" />
  <style
     id="style2">
    text {
      fill: #333;
      font-family: 'Roboto', sans-serif;
      font-weight: bold;
    }
    text.title {
      font-family: 'Comfortaa', sans-serif;
      font-weight: normal;
    }
    text.brand {
      font-family: 'Audiowide', sans-serif;
      font-weight: bold;
    }
  </style>
  <defs
     id="defs4" />
  <path
     style="fill:#dddddd"
     d="M 0,0 H 225 V 380 H 0 Z"
     id="rect6" />
  <path
     style="fill:none;stroke:#e4e4e4;stroke-width:0.5"
     d="M 1,1 H 224 V 379 H 1 V 1"
     id="polyline8" />
  <path
     style="fill:none;stroke:#ebebeb;stroke-width:0.80000001"
     d="m 0.5,0.5 h 224 v 379 H 0.5 V 0.5"
     id="polyline10" />
  <path
     style="fill:none;stroke:#f2f2f2;stroke-width:1"
     d="M 0,0 H 225 V 380 H 0 V 0"
     id="polyline12" />
  <g
     aria-label="15HP-15HP"
     style="font-weight:normal;font-size:16px;font-family:Comfortaa, sans-serif;letter-spacing:4px;fill:#333333"
     id="text14">
    <path
       d="M 57.824,19 Q 57.568,19 57.376,18.824 57.2,18.632 57.2,18.376 v -10.4 l -1.6,0.56 q -0.16,0.08 -0.32,0.08 -0.272,0 -0.448,-0.16 -0.176,-0.176 -0.176,-0.448 0,-0.464 0.4,-0.592 L 57.52,6.568 q 0.24,-0.08 0.32,-0.08 0.256,0 0.432,0.176 0.176,0.176 0.176,0.448 v 11.264 q 0,0.256 -0.176,0.448 Q 58.096,19 57.824,19 Z"
       style="font-weight:normal;font-size:16px;font-family:Comfortaa, sans-serif;letter-spacing:4px;fill:#333333"
       id="path34" />
    <path
       d="m 69.1505,19 q -1.136,0 -2.064,-0.528 -0.928,-0.528 -1.456,-1.456 -0.528,-0.944 -0.528,-2.08 0,-0.272 0.176,-0.448 0.176,-0.176 0.432,-0.176 0.272,0 0.448,0.192 0.192,0.176 0.192,0.432 0,0.784 0.368,1.44 0.368,0.64 1.008,1.008 0.64,0.368 1.424,0.368 0.784,0 1.424,-0.368 0.656,-0.368 1.024,-1.008 0.368,-0.656 0.368,-1.44 0,-0.784 -0.368,-1.424 -0.368,-0.656 -1.024,-1.024 -0.64,-0.368 -1.424,-0.368 h -2.8 q -0.256,0 -0.448,-0.176 -0.176,-0.192 -0.176,-0.448 V 7.112 q 0,-0.272 0.176,-0.448 0.192,-0.176 0.448,-0.176 h 5.616 q 0.256,0 0.432,0.192 0.192,0.176 0.192,0.432 0,0.256 -0.192,0.448 -0.176,0.176 -0.432,0.176 h -5.008 v 3.136 h 2.192 q 1.136,0 2.064,0.544 0.944,0.528 1.472,1.456 0.528,0.928 0.528,2.064 0,1.136 -0.528,2.08 -0.528,0.928 -1.472,1.456 Q 70.2865,19 69.1505,19 Z"
       style="font-weight:normal;font-size:16px;font-family:Comfortaa, sans-serif;letter-spacing:4px;fill:#333333"
       id="path36" />
    <path
       d="m 80.31775,19 q -0.256,0 -0.448,-0.176 -0.176,-0.192 -0.176,-0.448 V 7.128 q 0,-0.272 0.176,-0.448 0.192,-0.176 0.448,-0.176 0.272,0 0.448,0.176 0.176,0.176 0.176,0.448 v 4.992 h 7.808 V 7.128 q 0,-0.272 0.176,-0.448 0.192,-0.176 0.448,-0.176 0.272,0 0.448,0.176 0.176,0.176 0.176,0.448 v 11.248 q 0,0.256 -0.176,0.448 -0.176,0.176 -0.448,0.176 -0.256,0 -0.448,-0.176 -0.176,-0.192 -0.176,-0.448 V 13.24 h -7.808 v 5.136 q 0,0.256 -0.176,0.448 -0.176,0.176 -0.448,0.176 z"
       style="font-weight:normal;font-size:16px;font-family:Comfortaa, sans-serif;letter-spacing:4px;fill:#333333"
       id="path38" />
    <path
       d="m 97.81775,19 q -0.272,0 -0.448,-0.176 -0.176,-0.176 -0.176,-0.448 V 7.128 q 0,-0.272 0.176,-0.448 0.176,-0.176 0.448,-0.176 h 3.2 q 1.168,0 2.08,0.528 0.928,0.512 1.44,1.44 0.512,0.912 0.512,2.096 0,1.168 -0.512,2.08 -0.512,0.912 -1.44,1.424 -0.912,0.512 -2.08,0.512 h -2.576 v 3.792 q 0,0.272 -0.176,0.448 -0.176,0.176 -0.448,0.176 z m 3.2,-5.616 q 0.816,0 1.456,-0.352 0.64,-0.368 0.992,-1.008 0.368,-0.64 0.368,-1.456 0,-0.832 -0.368,-1.472 -0.352,-0.656 -0.992,-1.024 -0.64,-0.368 -1.456,-0.368 h -2.576 v 5.68 z"
       style="font-weight:normal;font-size:16px;font-family:Comfortaa, sans-serif;letter-spacing:4px;fill:#333333"
       id="path40" />
    <path
       d="m 110.591,15.24 q -0.256,0 -0.432,-0.176 -0.176,-0.176 -0.176,-0.432 0,-0.272 0.16,-0.448 0.176,-0.176 0.448,-0.176 h 3.76 q 0.272,0 0.448,0.176 0.176,0.176 0.176,0.448 0,0.256 -0.176,0.432 -0.176,0.176 -0.448,0.176 z"
       style="font-weight:normal;font-size:16px;font-family:Comfortaa, sans-serif;letter-spacing:4px;fill:#333333"
       id="path42" />
    <path
       d="m 123.449,19 q -0.256,0 -0.448,-0.176 -0.176,-0.192 -0.176,-0.448 v -10.4 l -1.6,0.56 q -0.16,0.08 -0.32,0.08 -0.272,0 -0.448,-0.16 -0.176,-0.176 -0.176,-0.448 0,-0.464 0.4,-0.592 l 2.464,-0.848 q 0.24,-0.08 0.32,-0.08 0.256,0 0.432,0.176 0.176,0.176 0.176,0.448 v 11.264 q 0,0.256 -0.176,0.448 Q 123.721,19 123.449,19 Z"
       style="font-weight:normal;font-size:16px;font-family:Comfortaa, sans-serif;letter-spacing:4px;fill:#333333"
       id="path44" />
    <path
       d="m 134.7755,19 q -1.136,0 -2.064,-0.528 -0.928,-0.528 -1.456,-1.456 -0.528,-0.944 -0.528,-2.08 0,-0.272 0.176,-0.448 0.176,-0.176 0.432,-0.176 0.272,0 0.448,0.192 0.192,0.176 0.192,0.432 0,0.784 0.368,1.44 0.368,0.64 1.008,1.008 0.64,0.368 1.424,0.368 0.784,0 1.424,-0.368 0.656,-0.368 1.024,-1.008 0.368,-0.656 0.368,-1.44 0,-0.784 -0.368,-1.424 -0.368,-0.656 -1.024,-1.024 -0.64,-0.368 -1.424,-0.368 h -2.8 q -0.256,0 -0.448,-0.176 -0.176,-0.192 -0.176,-0.448 V 7.112 q 0,-0.272 0.176,-0.448 0.192,-0.176 0.448,-0.176 h 5.616 q 0.256,0 0.432,0.192 0.192,0.176 0.192,0.432 0,0.256 -0.192,0.448 -0.176,0.176 -0.432,0.176 h -5.008 v 3.136 h 2.192 q 1.136,0 2.064,0.544 0.944,0.528 1.472,1.456 0.528,0.928 0.528,2.064 0,1.136 -0.528,2.08 -0.528,0.928 -1.472,1.456 -0.928,0.528 -2.064,0.528 z"
       style="font-weight:normal;font-size:16px;font-family:Comfortaa, sans-serif;letter-spacing:4px;fill:#333333"
       id="path46" />
    <path
       d="m 145.94275,19 q -0.256,0 -0.448,-0.176 -0.176,-0.192 -0.176,-0.448 V 7.128 q 0,-0.272 0.176,-0.448 0.192,-0.176 0.448,-0.176 0.272,0 0.448,0.176 0.176,0.176 0.176,0.448 v 4.992 h 7.808 V 7.128 q 0,-0.272 0.176,-0.448 0.192,-0.176 0.448,-0.176 0.272,0 0.448,0.176 0.176,0.176 0.176,0.448 v 11.248 q 0,0.256 -0.176,0.448 -0.176,0.176 -0.448,0.176 -0.256,0 -0.448,-0.176 -0.176,-0.192 -0.176,-0.448 V 13.24 h -7.808 v 5.136 q 0,0.256 -0.176,0.448 -0.176,0.176 -0.448,0.176 z"
       style="font-weight:normal;font-size:16px;font-family:Comfortaa, sans-serif;letter-spacing:4px;fill:#333333"
       id="path48" />
    <path
       d="m 163.44275,19 q -0.272,0 -0.448,-0.176 -0.176,-0.176 -0.176,-0.448 V 7.128 q 0,-0.272 0.176,-0.448 0.176,-0.176 0.448,-0.176 h 3.2 q 1.168,0 2.08,0.528 0.928,0.512 1.44,1.44 0.512,0.912 0.512,2.096 0,1.168 -0.512,2.08 -0.512,0.912 -1.44,1.424 -0.912,0.512 -2.08,0.512 h -2.576 v 3.792 q 0,0.272 -0.176,0.448 -0.176,0.176 -0.448,0.176 z m 3.2,-5.616 q 0.816,0 1.456,-0.352 0.64,-0.368 0.992,-1.008 0.368,-0.64 0.368,-1.456 0,-0.832 -0.368,-1.472 -0.352,-0.656 -0.992,-1.024 -0.64,-0.368 -1.456,-0.368 h -2.576 v 5.68 z"
       style="font-weight:normal;font-size:16px;font-family:Comfortaa, sans-serif;letter-spacing:4px;fill:#333333"
       id="path50" />
  </g>
  <g
     aria-label="BOGAUDIO"
     style="font-weight:bold;font-size:10.66666698px;font-family:Audiowide, sans-serif;letter-spacing:2px;fill:#333333"
     id="text16">
    <path
       d="m 80.739584,372.35937 q 0,0.25 -0.08854,0.53646 -0.08333,0.28646 -0.28125,0.53125 -0.192708,0.24479 -0.505208,0.41146 Q 79.552084,374 79.098959,374 h -5.140626 q -0.145833,0 -0.270833,-0.0521 -0.125,-0.0521 -0.21875,-0.14063 -0.08854,-0.0937 -0.140625,-0.21875 -0.05208,-0.125 -0.05208,-0.27083 v -6.10417 q 0,-0.14062 0.05208,-0.26562 0.05208,-0.125 0.140625,-0.21875 0.09375,-0.0937 0.21875,-0.14584 0.125,-0.0521 0.270833,-0.0521 h 4.531251 q 0.25,0 0.536458,0.0885 0.286458,0.0885 0.53125,0.28646 0.25,0.19271 0.411458,0.50521 0.166667,0.3125 0.166667,0.76562 v 0.25521 q 0,0.35938 -0.119792,0.77604 -0.119791,0.41146 -0.385416,0.78125 0.229166,0.14063 0.427083,0.33854 0.203125,0.19792 0.354167,0.45834 0.151041,0.26041 0.239583,0.58854 0.08854,0.32812 0.08854,0.72396 z m -1.354167,-0.26041 q 0,-0.26563 -0.08333,-0.47396 -0.08333,-0.21354 -0.234375,-0.36458 -0.151042,-0.15105 -0.364584,-0.22917 -0.213541,-0.0833 -0.479166,-0.0833 h -3.052084 v -1.36459 h 2.442708 q 0.265625,0 0.479167,-0.0781 0.213542,-0.0833 0.364584,-0.23438 0.151041,-0.15104 0.229166,-0.35937 0.08333,-0.21354 0.08333,-0.47917 v -0.25521 q 0,-0.29166 -0.28125,-0.29166 h -3.859376 v 4.76041 h 4.468751 q 0.03646,0 0.08854,-0.005 0.05208,-0.005 0.09375,-0.0312 0.04167,-0.026 0.07292,-0.0885 0.03125,-0.0625 0.03125,-0.17187 z"
       style="font-weight:bold;font-size:10.66666698px;font-family:Audiowide, sans-serif;letter-spacing:2px;fill:#333333"
       id="path53" />
    <path
       d="m 91.75,370.97917 q 0,0.68229 -0.234375,1.2552 -0.234375,0.57292 -0.651041,0.98959 -0.416667,0.41666 -0.989584,0.65104 -0.567708,0.22917 -1.239583,0.22917 h -1.833334 q -0.671875,0 -1.244791,-0.22917 -0.572917,-0.23438 -0.989584,-0.65104 -0.416666,-0.41667 -0.65625,-0.98959 -0.234375,-0.57291 -0.234375,-1.2552 v -1.42709 q 0,-0.67708 0.234375,-1.25 0.239584,-0.57812 0.65625,-0.98958 0.416667,-0.41667 0.989584,-0.65104 0.572916,-0.23438 1.244791,-0.23438 h 1.833334 q 0.671875,0 1.239583,0.23438 0.572917,0.23437 0.989584,0.65104 0.416666,0.41146 0.651041,0.98958 0.234375,0.57292 0.234375,1.25 z m -1.354166,-1.42709 q 0,-0.40104 -0.130209,-0.72396 -0.125,-0.32812 -0.359375,-0.55729 -0.229166,-0.23437 -0.557291,-0.35937 -0.322917,-0.13021 -0.713542,-0.13021 h -1.833334 q -0.395833,0 -0.723958,0.13021 -0.322917,0.125 -0.557292,0.35937 -0.234375,0.22917 -0.364583,0.55729 -0.125,0.32292 -0.125,0.72396 v 1.42709 q 0,0.40104 0.125,0.72916 0.130208,0.32292 0.364583,0.55729 0.234375,0.22917 0.557292,0.35938 0.328125,0.125 0.723958,0.125 H 88.625 q 0.395834,0 0.71875,-0.125 0.328125,-0.13021 0.5625,-0.35938 0.234375,-0.23437 0.359375,-0.55729 0.130209,-0.32812 0.130209,-0.72916 z"
       style="font-weight:bold;font-size:10.66666698px;font-family:Audiowide, sans-serif;letter-spacing:2px;fill:#333333"
       id="path55" />
    <path
       d="m 102.46875,373.31771 q 0,0.14583 -0.0521,0.27083 -0.0521,0.125 -0.14584,0.21875 -0.0885,0.0885 -0.21354,0.14063 -0.125,0.0521 -0.27083,0.0521 h -4.885418 q -0.1875,0 -0.40625,-0.0417 -0.213542,-0.0469 -0.427084,-0.14062 -0.208333,-0.0937 -0.401041,-0.23959 -0.192709,-0.15104 -0.34375,-0.35937 -0.145834,-0.21354 -0.234375,-0.48958 Q 95,372.44792 95,372.09896 v -3.66667 q 0,-0.1875 0.04167,-0.40104 0.04687,-0.21875 0.140625,-0.42708 0.09375,-0.21355 0.244791,-0.40625 0.151042,-0.19271 0.359375,-0.33855 0.213542,-0.15104 0.489584,-0.23958 0.276041,-0.0885 0.625,-0.0885 h 5.505208 v 1.35417 h -5.505208 q -0.265625,0 -0.40625,0.14062 -0.140625,0.14063 -0.140625,0.41667 v 3.65625 q 0,0.26041 0.140625,0.40625 0.145833,0.14062 0.40625,0.14062 h 4.213538 v -1.69791 h -3.604163 v -1.36459 h 4.276043 q 0.14583,0 0.27083,0.0573 0.125,0.0521 0.21354,0.14584 0.0937,0.0937 0.14584,0.21875 0.0521,0.11979 0.0521,0.26041 z"
       style="font-weight:bold;font-size:10.66666698px;font-family:Audiowide, sans-serif;letter-spacing:2px;fill:#333333"
       id="path57" />
    <path
       d="m 113.21875,374 h -1.35417 v -1.83333 h -4.76041 V 374 H 105.75 v -3.73438 q 0,-0.8177 0.28125,-1.5052 0.28125,-0.6875 0.78125,-1.1823 0.5,-0.49479 1.18229,-0.77083 0.68229,-0.27604 1.48959,-0.27604 h 3.05208 q 0.14062,0 0.26562,0.0521 0.125,0.0521 0.21875,0.14584 0.0937,0.0937 0.14584,0.21875 0.0521,0.125 0.0521,0.26562 z m -6.11458,-3.1875 h 4.76041 v -2.92708 h -2.3802 q -0.0625,0 -0.26563,0.0208 -0.19792,0.0156 -0.46354,0.0885 -0.26042,0.0729 -0.55208,0.22396 -0.29167,0.15104 -0.53646,0.41667 -0.24479,0.26562 -0.40625,0.66666 -0.15625,0.39584 -0.15625,0.96354 z"
       style="font-weight:bold;font-size:10.66666698px;font-family:Audiowide, sans-serif;letter-spacing:2px;fill:#333333"
       id="path59" />
    <path
       d="m 124.10417,373.31771 q 0,0.14583 -0.0521,0.27083 -0.0521,0.125 -0.14583,0.21875 -0.0937,0.0885 -0.21875,0.14063 Q 123.5625,374 123.42188,374 h -3.05209 q -0.43229,0 -0.875,-0.0937 -0.44271,-0.0937 -0.85937,-0.28646 -0.41146,-0.19792 -0.77604,-0.5 -0.36459,-0.30208 -0.64063,-0.71354 -0.27083,-0.41667 -0.42708,-0.94792 -0.15625,-0.53646 -0.15625,-1.19271 v -3.73437 h 1.35416 v 3.73437 q 0,0.57292 0.15625,0.96875 0.16146,0.39584 0.40625,0.66146 0.2448,0.26563 0.53646,0.41667 0.29167,0.15104 0.55209,0.22396 0.26562,0.0729 0.46354,0.0937 0.20312,0.0156 0.26562,0.0156 H 122.75 v -6.11458 h 1.35417 z"
       style="font-weight:bold;font-size:10.66666698px;font-family:Audiowide, sans-serif;letter-spacing:2px;fill:#333333"
       id="path61" />
    <path
       d="m 135.13542,370.875 q 0,0.68229 -0.23958,1.25521 -0.23438,0.57291 -0.65105,0.98958 -0.41666,0.41146 -0.98958,0.64583 Q 132.68229,374 132.01042,374 h -3.65625 q -0.14583,0 -0.27083,-0.0521 -0.125,-0.0521 -0.21875,-0.14063 -0.0886,-0.0937 -0.14063,-0.21875 -0.0521,-0.125 -0.0521,-0.27083 v -6.10417 q 0,-0.14062 0.0521,-0.26562 0.0521,-0.125 0.14063,-0.21875 0.0937,-0.0937 0.21875,-0.14584 0.125,-0.0521 0.27083,-0.0521 h 3.65625 q 0.67187,0 1.24479,0.23437 0.57292,0.23438 0.98958,0.65105 0.41667,0.41145 0.65105,0.98958 0.23958,0.57292 0.23958,1.25 z m -1.35417,-1.21875 q 0,-0.39583 -0.13021,-0.72396 -0.125,-0.32812 -0.35937,-0.55729 -0.23438,-0.23438 -0.5625,-0.35938 -0.32292,-0.1302 -0.71875,-0.1302 h -2.98438 v 4.76041 h 2.98438 q 0.39583,0 0.71875,-0.125 0.32812,-0.13021 0.5625,-0.35937 0.23437,-0.23438 0.35937,-0.55729 0.13021,-0.32813 0.13021,-0.72917 z"
       style="font-weight:bold;font-size:10.66666698px;font-family:Audiowide, sans-serif;letter-spacing:2px;fill:#333333"
       id="path63" />
    <path
       d="m 139.83854,374 h -1.35416 v -7.46875 h 1.35416 z"
       style="font-weight:bold;font-size:10.66666698px;font-family:Audiowide, sans-serif;letter-spacing:2px;fill:#333333"
       id="path65" />
    <path
       d="m 151.27084,370.97917 q 0,0.68229 -0.23438,1.2552 -0.23437,0.57292 -0.65104,0.98959 -0.41667,0.41666 -0.98958,0.65104 -0.56771,0.22917 -1.23959,0.22917 h -1.83333 q -0.67188,0 -1.24479,-0.22917 -0.57292,-0.23438 -0.98959,-0.65104 -0.41666,-0.41667 -0.65625,-0.98959 -0.23437,-0.57291 -0.23437,-1.2552 v -1.42709 q 0,-0.67708 0.23437,-1.25 0.23959,-0.57812 0.65625,-0.98958 0.41667,-0.41667 0.98959,-0.65104 0.57291,-0.23438 1.24479,-0.23438 h 1.83333 q 0.67188,0 1.23959,0.23438 0.57291,0.23437 0.98958,0.65104 0.41667,0.41146 0.65104,0.98958 0.23438,0.57292 0.23438,1.25 z m -1.35417,-1.42709 q 0,-0.40104 -0.13021,-0.72396 -0.125,-0.32812 -0.35937,-0.55729 -0.22917,-0.23437 -0.5573,-0.35937 -0.32291,-0.13021 -0.71354,-0.13021 h -1.83333 q -0.39583,0 -0.72396,0.13021 -0.32292,0.125 -0.55729,0.35937 -0.23438,0.22917 -0.36458,0.55729 -0.125,0.32292 -0.125,0.72396 v 1.42709 q 0,0.40104 0.125,0.72916 0.1302,0.32292 0.36458,0.55729 0.23437,0.22917 0.55729,0.35938 0.32813,0.125 0.72396,0.125 h 1.82292 q 0.39583,0 0.71875,-0.125 0.32812,-0.13021 0.5625,-0.35938 0.23437,-0.23437 0.35937,-0.55729 0.13021,-0.32812 0.13021,-0.72916 z"
       style="font-weight:bold;font-size:10.66666698px;font-family:Audiowide, sans-serif;letter-spacing:2px;fill:#333333"
       id="path67" />
  </g>
  <path
     style="fill:#dddddd"
     d="m 96.5,369 h 3 v 3 h -3 z"
     id="rect18" />
</svg>
