<?xml version="1.0" encoding="utf-8"?>
<!-- Generator: Adobe Illustrator 16.0.0, SVG Export Plug-In . SVG Version: 6.00 Build 0)  -->
<!DOCTYPE svg PUBLIC "-//W3C//DTD SVG 1.1//EN" "http://www.w3.org/Graphics/SVG/1.1/DTD/svg11.dtd">
<svg version="1.1"
	 id="svg4541" xmlns:dc="http://purl.org/dc/elements/1.1/" xmlns:cc="http://creativecommons.org/ns#" xmlns:rdf="http://www.w3.org/1999/02/22-rdf-syntax-ns#" xmlns:svg="http://www.w3.org/2000/svg" xmlns:sodipodi="http://sodipodi.sourceforge.net/DTD/sodipodi-0.dtd" xmlns:inkscape="http://www.inkscape.org/namespaces/inkscape" sodipodi:docname="VCA.svg" inkscape:version="0.92.2 5c3e80d, 2017-08-06"
	 xmlns="http://www.w3.org/2000/svg" xmlns:xlink="http://www.w3.org/1999/xlink" x="0px" y="0px" width="90.135px" height="380px"
	 viewBox="0 0 90.135 380" enable-background="new 0 0 90.135 380" xml:space="preserve">
<path id="path33453" fill="#E6E6E6" stroke="#595A5A" stroke-miterlimit="10" d="M0,0h90.135v379.912H0V0z"/>
<rect x="53.003" y="308.292" fill="#E6E6E6" width="26.152" height="10.272"/>
<g>
	<rect x="46.233" y="226.039" fill="#595A5A" width="1.586" height="108.141"/>
</g>
<sodipodi:namedview  units="px" fit-margin-left="0" fit-margin-top="0" showgrid="false" inkscape:cy="-87.479401" inkscape:cx="-640.37084" inkscape:zoom="0.49497475" borderopacity="1.0" bordercolor="#666666" pagecolor="#ffffff" id="base" inkscape:pageopacity="0.0" inkscape:window-width="2560" fit-margin-bottom="0" fit-margin-right="0" inkscape:window-height="1422" inkscape:window-x="0" inkscape:document-units="mm" inkscape:current-layer="g13224" inkscape:pageshadow="2" inkscape:window-y="18" inkscape:window-maximized="0">
	</sodipodi:namedview>
<g>
	<path stroke="#000000" stroke-width="0.5" stroke-miterlimit="10" d="M20.876,310.402v6.068H19.5v-6.068H20.876z"/>
	<path stroke="#000000" stroke-width="0.5" stroke-miterlimit="10" d="M22.063,316.471v-6.066h1.603l1.26,2.229
		c0.36,0.646,0.72,1.396,0.99,2.079h0.027c-0.09-0.801-0.117-1.62-0.117-2.523v-1.771h1.26v6.065h-1.44l-1.296-2.348
		c-0.36-0.646-0.756-1.438-1.053-2.146L23.27,312c0.036,0.802,0.054,1.654,0.054,2.646v1.826h-1.261V316.471z"/>
</g>
<rect x="8.978" y="287.275" fill="#E6E6E6" width="52.162" height="10.271"/>
<g>
	<path stroke="#231F20" stroke-width="0.25" stroke-miterlimit="10" d="M44.021,367.67c-0.378,0.168-1.092,0.309-1.905,0.309
		c-2.213,0-3.628-1.346-3.628-3.502c0-2.004,1.373-3.643,3.922-3.643c0.561,0,1.177,0.1,1.625,0.268l-0.336,1.582
		c-0.252-0.104-0.63-0.211-1.19-0.211c-1.121,0-1.849,0.799-1.835,1.92c0,1.26,0.84,1.92,1.877,1.92
		c0.504,0,0.896-0.086,1.219-0.211L44.021,367.67z"/>
	<path stroke="#231F20" stroke-width="0.25" stroke-miterlimit="10" d="M45.937,362.066h1.274l0.042-0.448
		c0.111-0.938,0.63-3.039,3.039-3.039c0.477,0,0.911,0.098,1.163,0.224l-0.336,1.514c-0.169-0.062-0.394-0.127-0.659-0.127
		c-0.7,0-1.036,0.506-1.12,1.271l-0.084,0.605h1.429v1.479H49.08l-0.312,2.493c-0.211,1.709-0.785,3.062-2.771,3.062
		c-0.575-0.015-1.065-0.125-1.275-0.229l0.294-1.479c0.21,0.084,0.434,0.104,0.659,0.104c0.7-0.021,0.938-0.396,1.139-1.98
		l0.229-1.97H45.94v-1.479H45.937L45.937,362.066L45.937,362.066z"/>
</g>
<line fill="none" stroke="#595A5A" stroke-width="1.5862" stroke-miterlimit="10" x1="34.045" y1="226.109" x2="62.103" y2="226.109"/>
<text transform="matrix(1 0 0 1 115.0869 211.791)" font-family="'MyriadPro-Bold'" font-size="9">PAN</text>
<text transform="matrix(1 0 0 1 115.0869 211.791)" fill="none" stroke="#000000" stroke-width="0.75" stroke-miterlimit="10" font-family="'MyriadPro-Bold'" font-size="9">PAN</text>
<line fill="none" stroke="#595A5A" stroke-width="1.5862" stroke-miterlimit="10" x1="34.045" y1="334.172" x2="52.783" y2="334.18"/>
<g>
	<path fill="#231F20" stroke="#231F20" stroke-width="0.5" stroke-miterlimit="10" d="M63.907,313.374
		c0,1.989-1.206,3.194-2.98,3.194c-1.8,0-2.854-1.358-2.854-3.088c0-1.817,1.16-3.188,2.953-3.188
		C62.89,310.305,63.907,311.699,63.907,313.374z M59.522,313.455c0,1.188,0.559,2.025,1.477,2.025c0.928,0,1.459-0.883,1.459-2.062
		c0-1.09-0.521-2.025-1.468-2.025C60.063,311.395,59.522,312.275,59.522,313.455z"/>
	<path fill="#231F20" stroke="#231F20" stroke-width="0.5" stroke-miterlimit="10" d="M66.174,310.402v3.492
		c0,1.045,0.396,1.576,1.099,1.576c0.729,0,1.115-0.521,1.115-1.576v-3.492h1.369v3.402c0,1.854-0.945,2.764-2.529,2.764
		c-1.531,0-2.432-0.846-2.432-2.78v-3.386H66.174L66.174,310.402z"/>
	<path fill="#231F20" stroke="#231F20" stroke-width="0.5" stroke-miterlimit="10" d="M72.114,311.557h-1.631v-1.152h4.664v1.152
		h-1.656v4.914h-1.377V311.557z"/>
</g>
<circle fill="#FFFFFF" stroke="#000000" stroke-width="10" stroke-miterlimit="10" cx="66.492" cy="225.72" r="9.396"/>
<circle fill="#FFFFFF" stroke="#000000" stroke-width="10" stroke-miterlimit="10" cx="66.492" cy="333.632" r="9.396"/>
<line fill="none" stroke="#595A5A" stroke-width="1.5862" stroke-miterlimit="10" x1="31.043" y1="283.838" x2="47.086" y2="265.55"/>
<line fill="none" stroke="#231F20" stroke-width="1.5862" stroke-miterlimit="10" x1="-26.433" y1="187.999" x2="139.067" y2="187.999"/>
<text transform="matrix(1 0 0 1 115.0869 49.6895)" font-family="'MyriadPro-Bold'" font-size="9">PAN</text>
<rect x="53.003" y="126.182" fill="#E6E6E6" width="26.152" height="10.273"/>
<g>
	<rect x="46.233" y="43.925" fill="#595A5A" width="1.586" height="108.146"/>
</g>
<g>
	<path stroke="#000000" stroke-width="0.5" stroke-miterlimit="10" d="M20.876,128.292v6.069H19.5v-6.069H20.876z"/>
	<path stroke="#000000" stroke-width="0.5" stroke-miterlimit="10" d="M22.063,134.361v-6.067h1.603l1.26,2.23
		c0.36,0.646,0.72,1.396,0.99,2.079h0.027c-0.09-0.801-0.117-1.62-0.117-2.523v-1.771h1.26v6.066h-1.44l-1.296-2.348
		c-0.36-0.646-0.756-1.438-1.053-2.146l-0.027,0.01c0.036,0.802,0.054,1.654,0.054,2.646v1.826h-1.261V134.361z"/>
</g>
<rect x="8.978" y="105.165" fill="#E6E6E6" width="52.162" height="10.271"/>
<line fill="none" stroke="#595A5A" stroke-width="1.5862" stroke-miterlimit="10" x1="34.045" y1="43.996" x2="62.103" y2="43.996"/>
<line fill="none" stroke="#595A5A" stroke-width="1.5862" stroke-miterlimit="10" x1="34.045" y1="152.063" x2="52.783" y2="152.071"/>
<g>
	<path fill="#231F20" stroke="#231F20" stroke-width="0.5" stroke-miterlimit="10" d="M63.907,131.265
		c0,1.989-1.206,3.194-2.98,3.194c-1.8,0-2.854-1.358-2.854-3.088c0-1.817,1.16-3.189,2.953-3.189
		C62.89,128.195,63.907,129.59,63.907,131.265z M59.522,131.346c0,1.188,0.559,2.025,1.477,2.025c0.928,0,1.459-0.883,1.459-2.062
		c0-1.09-0.521-2.025-1.468-2.025C60.063,129.285,59.522,130.166,59.522,131.346z"/>
	<path fill="#231F20" stroke="#231F20" stroke-width="0.5" stroke-miterlimit="10" d="M66.174,128.292v3.493
		c0,1.045,0.396,1.576,1.099,1.576c0.729,0,1.115-0.521,1.115-1.576v-3.493h1.369v3.403c0,1.855-0.945,2.764-2.529,2.764
		c-1.531,0-2.432-0.846-2.432-2.78v-3.386L66.174,128.292L66.174,128.292z"/>
	<path fill="#231F20" stroke="#231F20" stroke-width="0.5" stroke-miterlimit="10" d="M72.114,129.447h-1.631v-1.153h4.664v1.153
		h-1.656v4.914h-1.377V129.447z"/>
</g>
<circle fill="#FFFFFF" stroke="#000000" stroke-width="10" stroke-miterlimit="10" cx="66.492" cy="43.606" r="9.396"/>
<circle fill="#FFFFFF" stroke="#000000" stroke-width="10" stroke-miterlimit="10" cx="66.492" cy="151.523" r="9.396"/>
<line fill="none" stroke="#595A5A" stroke-width="1.5862" stroke-miterlimit="10" x1="31.043" y1="101.727" x2="47.086" y2="83.438"/>
<rect x="21.984" y="182.214" fill="#E6E6E6" width="41.158" height="10.271"/>
<path fill="#231F20" stroke="#000000" stroke-width="0.75" stroke-miterlimit="10" d="M41.634,184.711h1.377v4.915h2.414v1.151
	h-3.791V184.711z"/>
<path fill="#231F20" stroke="#000000" stroke-width="0.75" stroke-miterlimit="10" d="M48.612,184.711v6.066h-1.379v-6.066H48.612z"
	/>
<path fill="#231F20" stroke="#000000" stroke-width="0.75" stroke-miterlimit="10" d="M49.8,190.777v-6.066h1.602l1.263,2.224
	c0.358,0.639,0.721,1.395,0.987,2.079h0.027c-0.09-0.801-0.117-1.62-0.117-2.529v-1.773h1.262v6.067h-1.438l-1.297-2.341
	c-0.356-0.648-0.756-1.432-1.053-2.143l-0.027,0.009c0.036,0.802,0.056,1.657,0.056,2.647v1.826H49.8L49.8,190.777z"/>
<path fill="#231F20" stroke="#000000" stroke-width="0.75" stroke-miterlimit="10" d="M56.01,184.711h1.359v2.683h0.026
	c0.135-0.234,0.276-0.45,0.414-0.666l1.377-2.017h1.685l-2.009,2.583l2.115,3.483h-1.604l-1.484-2.619l-0.521,0.64v1.979h-1.359
	L56.01,184.711L56.01,184.711z"/>
<g>
	<path stroke="#000000" stroke-miterlimit="10" d="M34.963,23.038c0.492,0.252,1.247,0.503,2.027,0.503
		c0.839,0,1.283-0.348,1.283-0.875c0-0.503-0.384-0.792-1.355-1.139c-1.343-0.468-2.219-1.211-2.219-2.387
		c0-1.379,1.151-2.435,3.058-2.435c0.912,0,1.583,0.192,2.063,0.408l-0.408,1.475c-0.324-0.156-0.9-0.384-1.691-0.384
		s-1.175,0.36-1.175,0.78c0,0.516,0.456,0.743,1.499,1.139c1.427,0.528,2.099,1.271,2.099,2.411c0,1.355-1.043,2.507-3.262,2.507
		c-0.923,0-1.835-0.24-2.291-0.492L34.963,23.038z"/>
	<path stroke="#000000" stroke-miterlimit="10" d="M43.206,16.837v4.653c0,1.391,0.527,2.099,1.463,2.099
		c0.959,0,1.487-0.672,1.487-2.099v-4.653h1.823v4.534c0,2.494-1.26,3.682-3.373,3.682c-2.039,0-3.238-1.127-3.238-3.706v-4.509
		L43.206,16.837L43.206,16.837z"/>
	<path stroke="#000000" stroke-miterlimit="10" d="M49.567,16.945c0.479-0.096,1.451-0.168,2.361-0.168
		c1.114,0,1.799,0.108,2.387,0.456c0.562,0.3,0.973,0.852,0.973,1.583c0,0.719-0.42,1.391-1.332,1.727v0.024
		c0.924,0.252,1.607,0.947,1.607,1.991c0,0.732-0.336,1.307-0.84,1.715c-0.59,0.468-1.57,0.731-3.18,0.731
		c-0.898,0-1.57-0.06-1.979-0.12v-7.939H49.567z M51.378,20.04h0.6c0.959,0,1.477-0.396,1.477-0.996
		c0-0.611-0.469-0.936-1.295-0.936c-0.396,0-0.623,0.024-0.779,0.048L51.378,20.04L51.378,20.04z M51.378,23.625
		c0.18,0.024,0.396,0.024,0.707,0.024c0.828,0,1.561-0.312,1.561-1.163c0-0.815-0.73-1.14-1.645-1.14h-0.623V23.625z"/>
</g>
<g>
	<path stroke="#000000" stroke-miterlimit="10" d="M37.255,294.256c0.351,0.217,0.864,0.396,1.404,0.396
		c0.801,0,1.27-0.424,1.27-1.035c0-0.566-0.324-0.891-1.144-1.206c-0.99-0.353-1.603-0.864-1.603-1.72
		c0-0.945,0.784-1.647,1.963-1.647c0.621,0,1.071,0.146,1.341,0.297l-0.216,0.64c-0.198-0.107-0.604-0.287-1.152-0.287
		c-0.829,0-1.144,0.494-1.144,0.908c0,0.567,0.369,0.848,1.207,1.17c1.026,0.396,1.548,0.893,1.548,1.783
		c0,0.937-0.693,1.746-2.125,1.746c-0.585,0-1.225-0.171-1.549-0.387L37.255,294.256z"/>
	<path stroke="#000000" stroke-miterlimit="10" d="M44.942,292.365h-2.359v2.188h2.629v0.657H41.8v-6.067h3.277v0.657h-2.494v1.917
		h2.359V292.365z"/>
	<path stroke="#000000" stroke-miterlimit="10" d="M46.228,295.21v-6.067h0.855l1.943,3.069c0.451,0.711,0.802,1.351,1.09,1.972
		l0.019-0.009c-0.071-0.812-0.09-1.549-0.09-2.493v-2.539h0.738v6.067H49.99l-1.927-3.079c-0.424-0.675-0.828-1.367-1.135-2.025
		l-0.027,0.01c0.045,0.766,0.063,1.494,0.063,2.503v2.593L46.228,295.21L46.228,295.21z"/>
	<path stroke="#000000" stroke-miterlimit="10" d="M52.149,289.225c0.477-0.072,1.043-0.127,1.664-0.127
		c1.127,0,1.928,0.262,2.459,0.756c0.539,0.496,0.854,1.197,0.854,2.18c0,0.99-0.308,1.801-0.873,2.357
		c-0.567,0.567-1.504,0.873-2.685,0.873c-0.557,0-1.024-0.025-1.422-0.07v-5.969H52.149z M52.933,294.589
		c0.198,0.036,0.486,0.045,0.793,0.045c1.674,0,2.584-0.937,2.584-2.575c0.008-1.431-0.803-2.34-2.459-2.34
		c-0.404,0-0.711,0.035-0.918,0.081V294.589z"/>
</g>
<g>
	<path stroke="#000000" stroke-miterlimit="10" d="M37.255,112.146c0.351,0.216,0.864,0.396,1.404,0.396
		c0.801,0,1.27-0.423,1.27-1.035c0-0.566-0.324-0.891-1.144-1.206c-0.99-0.352-1.603-0.864-1.603-1.72
		c0-0.946,0.784-1.648,1.963-1.648c0.621,0,1.071,0.145,1.341,0.297l-0.216,0.64c-0.198-0.108-0.604-0.288-1.152-0.288
		c-0.829,0-1.144,0.495-1.144,0.91c0,0.567,0.369,0.847,1.207,1.17c1.026,0.396,1.548,0.892,1.548,1.783
		c0,0.936-0.693,1.746-2.125,1.746c-0.585,0-1.225-0.171-1.549-0.387L37.255,112.146z"/>
	<path stroke="#000000" stroke-miterlimit="10" d="M44.942,110.255h-2.359v2.188h2.629v0.657H41.8v-6.068h3.277v0.657h-2.494v1.917
		h2.359V110.255z"/>
	<path stroke="#000000" stroke-miterlimit="10" d="M46.228,113.1v-6.068h0.855l1.943,3.07c0.451,0.711,0.802,1.351,1.09,1.972
		l0.019-0.009c-0.071-0.811-0.09-1.549-0.09-2.494v-2.539h0.738v6.068H49.99l-1.927-3.079c-0.424-0.675-0.828-1.368-1.135-2.026
		l-0.027,0.009c0.045,0.766,0.063,1.495,0.063,2.503v2.593H46.228L46.228,113.1z"/>
	<path stroke="#000000" stroke-miterlimit="10" d="M52.149,107.113c0.477-0.072,1.043-0.127,1.664-0.127
		c1.127,0,1.928,0.262,2.459,0.757c0.539,0.495,0.854,1.198,0.854,2.179c0,0.99-0.308,1.801-0.873,2.358
		c-0.567,0.567-1.504,0.873-2.685,0.873c-0.557,0-1.024-0.026-1.422-0.071v-5.969H52.149z M52.933,112.479
		c0.198,0.036,0.486,0.045,0.793,0.045c1.674,0,2.584-0.937,2.584-2.575c0.008-1.431-0.803-2.34-2.459-2.34
		c-0.404,0-0.711,0.035-0.918,0.081V112.479z"/>
</g>
</svg>
