<svg id="svg8" xmlns="http://www.w3.org/2000/svg" width="89.99999" height="380.00004" viewBox="0 0 89.99999 380.00004">
  <title>FlipPan</title>
  <g id="layer1">
    <path id="rect817" d="M0,0H90V380H0Z" transform="translate(0 0.00002)" style="fill: #f0f0f0"/>
  </g>
  <g>
    <path d="M25.78415,361.57842H24.17823v-5.3311H18.10212v5.3311H16.49619V350.15468h1.60593v4.71854h6.07611v-4.71854h1.60593Z" transform="translate(0 0.00002)" style="fill: #231f20"/>
    <path d="M33.99163,361.57842H27.17051V350.15468h6.68867v1.34109H28.77644v3.41053h4.8013v1.341h-4.8013v3.97347h5.21519Z" transform="translate(0 0.00002)" style="fill: #231f20"/>
    <path d="M42.86514,351.49577H39.65329v10.08265h-1.606V351.49577H34.81891v-1.34109h8.04624Z" transform="translate(0 0.00002)" style="fill: #231f20"/>
    <path d="M51.62163,361.57842H49.68452l-2.98-4.91715H45.47936v4.91715h-1.606V350.15468h3.22846a4.37325,4.37325,0,0,1,2.74834.79469A3.185,3.185,0,0,1,48.36,356.49568Zm-3.04632-9.70191a3.04673,3.04673,0,0,0-1.92045-.41389h-1.1755v3.87416h1.1755a3.15908,3.15908,0,0,0,1.92045-.39735,1.72712,1.72712,0,0,0,.72853-1.5397A1.69838,1.69838,0,0,0,48.57531,351.87651Z" transform="translate(0 0.00002)" style="fill: #231f20"/>
    <path d="M54.41922,361.57842H52.81317V350.15468h1.60605Z" transform="translate(0 0.00002)" style="fill: #231f20"/>
    <path d="M65.54207,360.08834A5.35543,5.35543,0,0,1,61.37,361.77709a5.89517,5.89517,0,1,1,4.05617-10.28133l-.67878,1.29135a4.52732,4.52732,0,0,0-3.31122-1.39071,4.45825,4.45825,0,0,0,0,8.90722,4.52188,4.52188,0,0,0,3.41059-1.39071Z" transform="translate(0 0.00002)" style="fill: #ed3224"/>
    <path d="M75.45235,361.57842H73.4987L69.70743,355.85l-1.1755,1.192v4.5364H66.92588V350.15468h1.60605v4.86753l4.65225-4.86753h1.95353l-4.35415,4.50326Z" transform="translate(0 0.00002)" style="fill: #ed3224"/>
    <path d="M75.45235,361.57842H73.4987L69.70743,355.85l-1.1755,1.192v4.5364H66.92588V357.019l1.60605.023,1.1755-1.192,1.07613-1.192.61637.91363.49748.7374Z" transform="translate(0 0.00002)"/>
  </g>
  <g>
    <path d="M23.46631,17.87109h-5.1499v4.14111h4.84375v1.4585H18.31641v5.36572H16.57031V16.4126h6.896Z" transform="translate(0 0.00002)"/>
    <path d="M27.082,28.83643H25.37158V16.4126H27.082Z" transform="translate(0 0.00002)"/>
    <path d="M30.48389,18.5376a1.06382,1.06382,0,1,1,1.1167-1.0625A1.061,1.061,0,0,1,30.48389,18.5376Zm.86426,10.29883H29.61963V20.28369h1.72852Z" transform="translate(0 0.00002)"/>
    <path d="M38.56738,29.03467a3.32259,3.32259,0,0,1-2.95312-1.53076l-.01807-.01807v4.69971H33.86768V20.28369h1.65674v1.35059h.03613a3.62477,3.62477,0,0,1,3.04248-1.5127c2.521,0,4.12354,1.89063,4.12354,4.42969C42.72656,27.08984,41.106,29.03467,38.56738,29.03467Zm-.32422-7.5083a2.71952,2.71952,0,0,0-2.71875,3.00684,2.73424,2.73424,0,1,0,5.4375,0A2.71952,2.71952,0,0,0,38.24316,21.52637Z" transform="translate(0 0.00002)"/>
    <path d="M54.78516,22.62451a4.49612,4.49612,0,0,1-3.00684.88232H50.03223v5.32959H48.28516V16.4126h3.49316a4.49874,4.49874,0,0,1,3.00684.88232,3.26679,3.26679,0,0,1,1.207,2.665A3.24141,3.24141,0,0,1,54.78516,22.62451Zm-1.35059-4.30322a2.92977,2.92977,0,0,0-1.7998-.48633H50.03223v4.24951h1.60254a3.05679,3.05679,0,0,0,1.7998-.46826A1.99815,1.99815,0,0,0,54.19141,19.96,1.96178,1.96178,0,0,0,53.43457,18.32129Z" transform="translate(0 0.00002)"/>
    <path d="M64.03711,28.83643H62.36328l-.01855-1.08008A3.52814,3.52814,0,0,1,59.626,29.03467a2.71761,2.71761,0,0,1-2.95312-2.647c0-1.67432,1.36914-2.521,3.34961-2.61084l2.28613-.08984v-.34229a1.87628,1.87628,0,0,0-2.124-1.94434,5.25608,5.25608,0,0,0-2.5752.73779l-.52246-1.15234a6.59391,6.59391,0,0,1,3.20508-.86426,3.70744,3.70744,0,0,1,2.82715.97266,3.5417,3.5417,0,0,1,.918,2.77246Zm-1.71-4.10547-1.999.12646c-1.38672.07178-1.94434.666-1.94434,1.47607,0,.81055.62988,1.47656,1.76465,1.47656a2.68647,2.68647,0,0,0,2.17871-1.24219Z" transform="translate(0 0.00002)"/>
    <path d="M73.68555,28.83643H71.957V24.06494c0-1.44043-.25293-2.52051-1.7832-2.52051-1.60254,0-2.19629,1.3501-2.19629,2.98877v4.30322H66.249V20.28369h1.72852L67.959,21.63428h.05469a2.8889,2.8889,0,0,1,2.61035-1.5127c2.43066,0,3.06152,1.60254,3.06152,3.65527Z" transform="translate(0 0.00002)"/>
  </g>
  <g>
    <path d="M40.94775,174.19531a2.9966,2.9966,0,0,1-2.00293.5874H37.78125V178.333H36.61816v-8.27539h2.32666a2.9966,2.9966,0,0,1,2.00293.5874,2.36223,2.36223,0,0,1,0,3.55029Zm-.89941-2.8667a1.9545,1.9545,0,0,0-1.19971-.32373H37.78125v2.83057h1.06738a2.037,2.037,0,0,0,1.19971-.312,1.33136,1.33136,0,0,0,.50342-1.103A1.30852,1.30852,0,0,0,40.04834,171.32861Z" transform="translate(0 0.00002)"/>
    <path d="M47.11523,178.333H46l-.01172-.71973a2.35071,2.35071,0,0,1-1.811.85156,1.80969,1.80969,0,0,1-1.9668-1.76318c0-1.11523.91113-1.67871,2.23047-1.73877l1.52344-.06006v-.228a1.25023,1.25023,0,0,0-1.41553-1.29492,3.495,3.495,0,0,0-1.71484.4917l-.34766-.76758a4.38091,4.38091,0,0,1,2.13477-.57568,2.46939,2.46939,0,0,1,1.88281.64746,2.35972,2.35972,0,0,1,.61133,1.84717Zm-1.13916-2.73437-1.33105.084c-.92383.04785-1.29541.44385-1.29541.9834s.41992.9834,1.17529.9834a1.78872,1.78872,0,0,0,1.45117-.82764Z" transform="translate(0 0.00002)"/>
    <path d="M53.54688,178.333H52.39551v-3.17822c0-.95947-.168-1.6792-1.1875-1.6792-1.06738,0-1.46289.89941-1.46289,1.99121V178.333H48.59375v-5.69678h1.15137l-.0127.89941h.03613a1.92432,1.92432,0,0,1,1.73926-1.00732c1.61914,0,2.03906,1.06738,2.03906,2.43457Z" transform="translate(0 0.00002)"/>
  </g>
  <g>
    <path d="M16.085,270.666H14.92188v-8.27539H16.085Z" transform="translate(0 0.00002)"/>
    <path d="M22.74268,270.666H21.59131v-3.17773c0-.96-.16748-1.67969-1.187-1.67969-1.06738,0-1.46338.89941-1.46338,1.99121V270.666H17.78955v-5.69629h1.15137l-.01172.89941h.03564a1.92525,1.92525,0,0,1,1.73926-1.00781c1.61914,0,2.03857,1.06738,2.03857,2.43457Z" transform="translate(0 0.00002)"/>
    <path d="M30.8667,270.666H26.78906v-8.27539h1.16309v7.28027H30.8667Z" transform="translate(0 0.00002)"/>
  </g>
  <g>
    <path d="M59.82715,270.666H58.66406v-8.27539h1.16309Z" transform="translate(0 0.00002)"/>
    <path d="M66.48438,270.666H65.333v-3.17773c0-.96-.167-1.67969-1.18652-1.67969-1.06738,0-1.46387.89941-1.46387,1.99121V270.666H61.53125v-5.69629h1.15137l-.01172.89941H62.707a1.92469,1.92469,0,0,1,1.73926-1.00781c1.61914,0,2.03809,1.06738,2.03809,2.43457Z" transform="translate(0 0.00002)"/>
    <path d="M76.14355,270.666H74.74023l-2.1582-3.56152h-.8877V270.666H70.53125v-8.27539h2.33789a3.16675,3.16675,0,0,1,1.99121.57617,2.17815,2.17815,0,0,1,.80371,1.751,2.20127,2.20127,0,0,1-1.88281,2.2666ZM73.9375,263.6377a2.2123,2.2123,0,0,0-1.3916-.2998h-.85156v2.80664h.85156a2.28526,2.28526,0,0,0,1.3916-.28809,1.25146,1.25146,0,0,0,.52734-1.11523A1.23318,1.23318,0,0,0,73.9375,263.6377Z" transform="translate(0 0.00002)"/>
  </g>
  <rect x="4.92708" y="280.00002" width="80.63021" height="45.33333" rx="8" ry="8"/>
  <g>
    <path d="M13.37842,321.47754a4.26953,4.26953,0,1,1,0-8.53906,4.26953,4.26953,0,1,1,0,8.53906Zm0-7.53125a3.2417,3.2417,0,1,0,3.08252,3.2373A3.02724,3.02724,0,0,0,13.37842,313.94629Z" transform="translate(0 0.00002)" style="fill: #fff"/>
    <path d="M23.73389,321.334H22.61865l-.01172-.81543a1.98657,1.98657,0,0,1-1.76318.94727,1.8454,1.8454,0,0,1-1.583-.66016,2.891,2.891,0,0,1-.41992-1.7627v-3.418H19.98v3.37012c0,.7793.168,1.51074,1.1875,1.51074,1.00732,0,1.415-.86328,1.415-1.82227V315.625h1.15137Z" transform="translate(0 0.00002)" style="fill: #fff"/>
    <path d="M28.09131,321.27344a2.881,2.881,0,0,1-1.04346.19238,1.3372,1.3372,0,0,1-1.21143-.58789,2.975,2.975,0,0,1-.2876-1.70312v-2.60254H24.709v-.92383h.83984v-1.70215H26.7002v1.70215h1.36719v.92383H26.7002v2.5791a2.23306,2.23306,0,0,0,.144,1.043.59655.59655,0,0,0,.5874.28809,1.39119,1.39119,0,0,0,.58789-.13184Z" transform="translate(0 0.00002)" style="fill: #fff"/>
    <path d="M35.63818,321.334H31.56055v-8.27539h1.16309v7.2793h2.91455Z" transform="translate(0 0.00002)" style="fill: #fff"/>
  </g>
  <g>
    <path d="M57.40723,321.47754a4.26953,4.26953,0,1,1,4.26953-4.26953A4.11137,4.11137,0,0,1,57.40723,321.47754Zm0-7.53125a3.24168,3.24168,0,1,0,3.083,3.2373A3.0275,3.0275,0,0,0,57.40723,313.94629Z" transform="translate(0 0.00002)" style="fill: #fff"/>
    <path d="M67.7627,321.334H66.64746l-.01172-.81543a1.98456,1.98456,0,0,1-1.7627.94727,1.8454,1.8454,0,0,1-1.583-.66016,2.891,2.891,0,0,1-.41992-1.7627v-3.418h1.13867v3.37012c0,.7793.168,1.51074,1.1875,1.51074,1.00781,0,1.415-.86328,1.415-1.82227V315.625H67.7627Z" transform="translate(0 0.00002)" style="fill: #fff"/>
    <path d="M72.12012,321.27344a2.87662,2.87662,0,0,1-1.043.19238,1.33807,1.33807,0,0,1-1.21191-.58789,2.98,2.98,0,0,1-.28711-1.70312v-2.60254h-.83984v-.92383h.83984v-1.70215h1.15137v1.70215h1.36719v.92383H70.72949v2.5791a2.24047,2.24047,0,0,0,.14355,1.043.59736.59736,0,0,0,.58789.28809,1.39119,1.39119,0,0,0,.58789-.13184Z" transform="translate(0 0.00002)" style="fill: #fff"/>
    <path d="M81.20215,321.334H79.79883l-2.1582-3.5625h-.8877v3.5625H75.58984v-8.27539h2.33789a3.16655,3.16655,0,0,1,1.99121.5752,2.307,2.307,0,0,1-1.0791,4.01758Zm-2.20605-7.02832a2.20594,2.20594,0,0,0-1.3916-.2998h-.85156v2.80664h.85156a2.29216,2.29216,0,0,0,1.3916-.28809,1.25146,1.25146,0,0,0,.52734-1.11523A1.231,1.231,0,0,0,78.99609,314.30566Z" transform="translate(0 0.00002)" style="fill: #fff"/>
  </g>
  <g>
    <g>
      <rect x="37.50075" y="144.00002" width="14.9985" height="14.66667" style="fill: none"/>
      <rect x="44.46945" y="145.08362" width="1.5" height="2.72237" style="fill: #231f20"/>
      <rect x="44.46945" y="149.96634" width="1.5" height="2.72237" style="fill: #231f20"/>
      <rect x="44.46945" y="154.83306" width="1.5" height="2.72237" style="fill: #231f20"/>
    </g>
    <g>
      <rect x="37.50075" y="129.33335" width="14.9985" height="14.66667" style="fill: none"/>
      <rect x="44.46945" y="130.41697" width="1.5" height="2.72235" style="fill: #231f20"/>
      <rect x="44.46945" y="135.29969" width="1.5" height="2.72235" style="fill: #231f20"/>
      <rect x="44.46945" y="140.16639" width="1.5" height="2.72237" style="fill: #231f20"/>
    </g>
    <g>
      <rect x="37.50075" y="114.66669" width="14.9985" height="14.66666" style="fill: none"/>
      <rect x="44.46945" y="115.75029" width="1.5" height="2.72237" style="fill: #231f20"/>
      <rect x="44.46945" y="120.63302" width="1.5" height="2.72237" style="fill: #231f20"/>
      <rect x="44.46945" y="125.49973" width="1.5" height="2.72235" style="fill: #231f20"/>
    </g>
    <g>
      <rect x="37.50075" y="100.00002" width="14.9985" height="14.66667" style="fill: none"/>
      <rect x="44.46945" y="101.08364" width="1.5" height="2.72235" style="fill: #231f20"/>
      <rect x="44.46945" y="105.96636" width="1.5" height="2.72235" style="fill: #231f20"/>
      <rect x="44.46945" y="110.83306" width="1.5" height="2.72237" style="fill: #231f20"/>
    </g>
    <g>
      <rect x="37.50075" y="85.33336" width="14.9985" height="14.66666" style="fill: none"/>
      <rect x="44.46945" y="86.41695" width="1.5" height="2.72238" style="fill: #231f20"/>
      <rect x="44.46945" y="91.29967" width="1.5" height="2.72238" style="fill: #231f20"/>
      <rect x="44.46945" y="96.1664" width="1.5" height="2.72235" style="fill: #231f20"/>
    </g>
  </g>
  <g>
    <path d="M39.75244,133.12988H37.81738v-.63965h1.93506Z" transform="translate(0 0.00002)"/>
    <path d="M54.375,132.5376H52.584v1.791h-.5918v-1.791H50.19336v-.5918h1.79883v-1.791h.5918v1.791h1.791Z" transform="translate(0 0.00002)"/>
  </g>
  <g>
    <path d="M13.59033,210.25H10.87207v-5.5166h.77539v4.85254h1.94287Z" transform="translate(0 0.00002)"/>
    <path d="M14.61523,205.67676a.47228.47228,0,1,1,.49609-.47168A.471.471,0,0,1,14.61523,205.67676ZM14.999,210.25h-.76758v-3.79785H14.999Z" transform="translate(0 0.00002)"/>
    <path d="M19.39014,210.25h-.76758v-2.11914c0-.63965-.1123-1.11914-.7915-1.11914-.71191,0-.97559.59961-.97559,1.32715V210.25h-.76758v-3.79785h.76758l-.0083.59961h.02393a1.28354,1.28354,0,0,1,1.15967-.67187c1.07959,0,1.35938.71191,1.35938,1.623Z" transform="translate(0 0.00002)"/>
    <path d="M23.86133,208.53125H20.93506a1.17122,1.17122,0,0,0,1.22314,1.207,2.10278,2.10278,0,0,0,1.25537-.43945l.31982.43945a2.23,2.23,0,0,1-1.6709.59961,1.84139,1.84139,0,0,1-1.90283-1.99121,1.88384,1.88384,0,0,1,1.92676-1.9668,1.73432,1.73432,0,0,1,1.79932,1.81543A3.26736,3.26736,0,0,1,23.86133,208.53125Zm-.70361-.51172a1.09754,1.09754,0,0,0-1.09521-1.08789,1.1172,1.1172,0,0,0-1.11914,1.08789Z" transform="translate(0 0.00002)"/>
    <path d="M27.59814,210.25h-.74365l-.00781-.47949a1.569,1.569,0,0,1-1.20752.56738,1.20627,1.20627,0,0,1-1.311-1.17578c0-.74316.60742-1.11914,1.4873-1.15918l1.01514-.04v-.15137a.83291.83291,0,0,0-.94336-.86328,2.33318,2.33318,0,0,0-1.14355.32715l-.23193-.51172a2.92522,2.92522,0,0,1,1.42334-.38379,1.64616,1.64616,0,0,1,1.25537.43164,1.5746,1.5746,0,0,1,.40771,1.23145Zm-.75928-1.82324-.8877.05664c-.61572.03125-.86377.2959-.86377.65527s.27979.65527.78369.65527a1.19366,1.19366,0,0,0,.96777-.55176Z" transform="translate(0 0.00002)"/>
    <path d="M30.6543,207.15527h-.03223a1.01868,1.01868,0,0,0-.41553-.0791.79547.79547,0,0,0-.62354.31934,1.68185,1.68185,0,0,0-.23193.96V210.25H28.5835v-3.79785h.76758l-.0083.584h.02441a.99007.99007,0,0,1,.93506-.65625,1.06139,1.06139,0,0,1,.3999.06445Z" transform="translate(0 0.00002)"/>
  </g>
  <g>
    <path d="M40.04639,197.16406a2.08683,2.08683,0,0,1-1.35156.43164,2.30732,2.30732,0,0,1-1.78271-.92773l.45557-.51953a1.86588,1.86588,0,0,0,1.39941.792.96517.96517,0,0,0,1.0791-.92773c0-.5752-.61572-.7998-.89551-.91113-.2876-.1123-.67139-.26367-.87939-.36816a1.7723,1.7723,0,0,1-.55176-.3916,1.3268,1.3268,0,0,1-.35986-.96,1.37361,1.37361,0,0,1,.50391-1.06348,1.93731,1.93731,0,0,1,1.27148-.40723,2.14991,2.14991,0,0,1,1.583.71191l-.40771.52734a1.67644,1.67644,0,0,0-1.21533-.5918c-.54395,0-.95947.25586-.95947.76758s.37549.7041.71143.83984l1.01563.42383a2.14772,2.14772,0,0,1,.62354.44727,1.42149,1.42149,0,0,1,.33594.92773A1.53616,1.53616,0,0,1,40.04639,197.16406Z" transform="translate(0 0.00002)"/>
    <path d="M43.28662,197.46a1.92083,1.92083,0,0,1-.69531.12793.89259.89259,0,0,1-.80762-.3916,1.98282,1.98282,0,0,1-.19189-1.13574v-1.73437h-.55957V193.71h.55957v-1.13574h.76758V193.71H43.271v.61621h-.91162v1.71875a1.4944,1.4944,0,0,0,.0957.69531.39844.39844,0,0,0,.39209.19238.92686.92686,0,0,0,.3916-.08789Z" transform="translate(0 0.00002)"/>
    <path d="M47.24512,193.70215,45.415,198.16406c-.26416.65527-.57617.87891-.99951.87891a1.88355,1.88355,0,0,1-.71973-.13574l.15186-.624a1.20652,1.20652,0,0,0,.3999.08789c.15967,0,.32764.0166.49561-.44727l.18408-.50391-1.51953-3.72559.7998.00781,1.12744,2.9502,1.11914-2.958Z" transform="translate(0 0.00002)"/>
    <path d="M48.55859,197.5H47.7998v-5.5166h.75879Z" transform="translate(0 0.00002)"/>
    <path d="M53.10156,195.78125H50.1748a1.17161,1.17161,0,0,0,1.22363,1.207,2.1007,2.1007,0,0,0,1.25488-.43945l.32031.43945a2.23122,2.23122,0,0,1-1.6709.59961,1.8415,1.8415,0,0,1-1.90332-1.99121,1.88412,1.88412,0,0,1,1.92676-1.9668,1.73471,1.73471,0,0,1,1.7998,1.81543A3.26736,3.26736,0,0,1,53.10156,195.78125Zm-.7041-.51172a1.09708,1.09708,0,0,0-1.09473-1.08789,1.11685,1.11685,0,0,0-1.11914,1.08789Z" transform="translate(0 0.00002)"/>
  </g>
  <g>
    <path d="M65.59961,210.25H62.30566v-5.5166h3.23047v.64746H63.082v1.64648h2.31836v.64844H63.082v1.91895h2.51758Z" transform="translate(0 0.00002)"/>
    <path d="M70.15234,211.7373h-.75977v-2.0791H69.377a1.48633,1.48633,0,0,1-1.3125.67969,1.84066,1.84066,0,0,1-1.8457-1.99121,1.81756,1.81756,0,0,1,1.83008-1.9668,1.58913,1.58913,0,0,1,1.35156.67188h.02344l-.00781-.59961h.73633Zm-1.94336-4.7334a1.34661,1.34661,0,1,0,1.207,1.335A1.207,1.207,0,0,0,68.209,207.00391Z" transform="translate(0 0.00002)"/>
    <path d="M74.43945,210.25h-.74316l-.00781-.54395a1.32322,1.32322,0,0,1-1.1748.63184,1.23278,1.23278,0,0,1-1.05664-.43945,1.93379,1.93379,0,0,1-.2793-1.17578v-2.27832h.75977v2.24609c0,.52051.11133,1.00781.791,1.00781.67188,0,.94336-.5752.94336-1.21484v-2.03906h.76758Z" transform="translate(0 0.00002)"/>
    <path d="M78.44824,210.25h-.74316l-.00781-.47949a1.5703,1.5703,0,0,1-1.208.56738,1.20642,1.20642,0,0,1-1.31152-1.17578c0-.74316.60742-1.11914,1.4873-1.15918l1.01563-.04v-.15137a.83291.83291,0,0,0-.94336-.86328,2.33318,2.33318,0,0,0-1.14355.32715l-.23242-.51172a2.92572,2.92572,0,0,1,1.42383-.38379,1.6474,1.6474,0,0,1,1.25586.43164,1.5746,1.5746,0,0,1,.40723,1.23145Zm-.75977-1.82324-.8877.05664c-.61523.03125-.86328.2959-.86328.65527s.28027.65527.7832.65527a1.1921,1.1921,0,0,0,.96777-.55176Z" transform="translate(0 0.00002)"/>
    <path d="M80.2334,210.25h-.75879v-5.5166h.75879Z" transform="translate(0 0.00002)"/>
  </g>
</svg>
