<svg id="svg8" xmlns="http://www.w3.org/2000/svg" width="180" height="380.00004" viewBox="0 0 180 380.00004">
  <title>RandomGates</title>
  <g id="layer1">
    <path id="rect817" d="M0,0H180V380H0Z" transform="translate(0 0.00002)" style="fill: #f0f0f0"/>
  </g>
  <g>
    <path d="M70.78415,374.57842H69.17823v-5.3311H63.10212v5.3311H61.49619V363.15468h1.60593v4.71854h6.07611v-4.71854h1.60593Z" transform="translate(0 0.00002)" style="fill: #231f20"/>
    <path d="M78.99163,374.57842H72.17051V363.15468h6.68867v1.34109H73.77644v3.41053h4.8013v1.341h-4.8013v3.97347h5.21519Z" transform="translate(0 0.00002)" style="fill: #231f20"/>
    <path d="M87.86514,364.49577H84.65329v10.08265h-1.606V364.49577H79.81891v-1.34109h8.04624Z" transform="translate(0 0.00002)" style="fill: #231f20"/>
    <path d="M96.62163,374.57842H94.68452l-2.98-4.91715H90.47936v4.91715h-1.606V363.15468h3.22846a4.37325,4.37325,0,0,1,2.74834.79469A3.185,3.185,0,0,1,93.36,369.49568Zm-3.04632-9.70191a3.04673,3.04673,0,0,0-1.92045-.41389h-1.1755v3.87416h1.1755a3.15908,3.15908,0,0,0,1.92045-.39735,1.72712,1.72712,0,0,0,.72853-1.5397A1.69838,1.69838,0,0,0,93.57531,364.87651Z" transform="translate(0 0.00002)" style="fill: #231f20"/>
    <path d="M99.41922,374.57842H97.81317V363.15468h1.60605Z" transform="translate(0 0.00002)" style="fill: #231f20"/>
    <path d="M110.54207,373.08834a5.35543,5.35543,0,0,1-4.17208,1.68875,5.89517,5.89517,0,1,1,4.05617-10.28133l-.67878,1.29135a4.52732,4.52732,0,0,0-3.31122-1.39071,4.45825,4.45825,0,0,0,0,8.90722,4.52188,4.52188,0,0,0,3.41059-1.39071Z" transform="translate(0 0.00002)" style="fill: #ed3224"/>
    <path d="M120.45235,374.57842H118.4987L114.70743,368.85l-1.1755,1.192v4.5364h-1.60605V363.15468h1.60605v4.86753l4.65225-4.86753h1.95353l-4.35415,4.50326Z" transform="translate(0 0.00002)" style="fill: #ed3224"/>
    <path d="M120.45235,374.57842H118.4987L114.70743,368.85l-1.1755,1.192v4.5364h-1.60605V370.019l1.60605.023,1.1755-1.192,1.07613-1.192.61637.91363.49748.7374Z" transform="translate(0 0.00002)"/>
  </g>
  <g>
    <path d="M43.645,28.83643H41.53857l-3.24121-5.34766H36.96484v5.34766H35.21875V16.4126h3.51074a4.755,4.755,0,0,1,2.98877.86426,3.27359,3.27359,0,0,1,1.20654,2.62891,3.30426,3.30426,0,0,1-2.82666,3.40283ZM40.332,18.28516a3.31434,3.31434,0,0,0-2.08887-.4502H36.96484v4.21338h1.27832a3.43712,3.43712,0,0,0,2.08887-.43213,1.87825,1.87825,0,0,0,.792-1.67432A1.84711,1.84711,0,0,0,40.332,18.28516Z" transform="translate(0 0.00002)"/>
    <path d="M51.40234,28.83643h-1.6748l-.01807-1.08008a3.52814,3.52814,0,0,1-2.71875,1.27832,2.71692,2.71692,0,0,1-2.95264-2.647c0-1.67432,1.36816-2.521,3.34863-2.61084l2.28711-.08984v-.34229a1.87683,1.87683,0,0,0-2.125-1.94434,5.25748,5.25748,0,0,0-2.57471.73779l-.522-1.15234a6.58723,6.58723,0,0,1,3.20508-.86426,3.707,3.707,0,0,1,2.82666.97266,3.5417,3.5417,0,0,1,.91846,2.77246ZM49.69141,24.731l-1.99854.12646c-1.38623.07178-1.94434.666-1.94434,1.47607,0,.81055.63037,1.47656,1.76465,1.47656a2.68471,2.68471,0,0,0,2.17822-1.24219Z" transform="translate(0 0.00002)"/>
    <path d="M61.05029,28.83643H59.32178V24.06494c0-1.44043-.252-2.52051-1.78271-2.52051-1.60205,0-2.19629,1.3501-2.19629,2.98877v4.30322H53.61426V20.28369h1.72852l-.01807,1.35059h.0542a2.88833,2.88833,0,0,1,2.61035-1.5127c2.43066,0,3.061,1.60254,3.061,3.65527Z" transform="translate(0 0.00002)"/>
    <path d="M71.63428,28.83643H69.978V27.46826h-.03613a3.48031,3.48031,0,0,1-3.00684,1.56641c-2.53857,0-4.15918-1.94482-4.15918-4.4834a4.10408,4.10408,0,0,1,4.123-4.42969,3.45507,3.45507,0,0,1,2.98877,1.49463h.03613V16.4126h1.71045Zm-4.375-7.31006A2.71988,2.71988,0,0,0,64.54,24.5332a2.73446,2.73446,0,1,0,5.438,0A2.71952,2.71952,0,0,0,67.25928,21.52637Z" transform="translate(0 0.00002)"/>
    <path d="M78.05859,29.03467a4.457,4.457,0,1,1,4.51953-4.44727A4.336,4.336,0,0,1,78.05859,29.03467Zm0-7.5083a2.78246,2.78246,0,0,0-2.79053,3.00684,2.79151,2.79151,0,1,0,5.56348,0A2.77929,2.77929,0,0,0,78.05859,21.52637Z" transform="translate(0 0.00002)"/>
    <path d="M96.7627,28.83643h-1.71v-4.9873c0-.99023-.17969-2.30469-1.56641-2.30469-1.36816,0-2.05273,1.31445-2.05273,2.84473v4.44727H89.70508v-4.9873c0-1.26074-.30615-2.30469-1.54883-2.30469-1.36816,0-2.05225,1.31445-2.05225,2.84473v4.44727H84.37549V20.28369H86.104l-.01807,1.35059h.05371a2.82292,2.82292,0,0,1,2.4668-1.5127,2.46689,2.46689,0,0,1,2.53906,1.69287,2.96908,2.96908,0,0,1,2.71875-1.69287c2.28711,0,2.89844,1.6748,2.89844,3.5293Z" transform="translate(0 0.00002)"/>
    <path d="M113.73633,27.03564a6.768,6.768,0,0,1-5.27539,2.0166,6.16143,6.16143,0,0,1-6.33789-6.42773,6.1274,6.1274,0,0,1,6.32031-6.3916,6.24726,6.24726,0,0,1,5.02344,2.16016l-1.18848,1.09863a4.77872,4.77872,0,0,0-3.835-1.76465c-2.55664,0-4.51953,1.83643-4.51953,4.89746a4.53661,4.53661,0,0,0,4.627,4.89746c2.5752,0,3.49316-1.13428,3.49316-1.13428V23.63281h-3.34863V22.21045h5.041Z" transform="translate(0 0.00002)"/>
    <path d="M122.73535,28.83643h-1.67383l-.01855-1.08008a3.52814,3.52814,0,0,1-2.71875,1.27832,2.71761,2.71761,0,0,1-2.95312-2.647c0-1.67432,1.36914-2.521,3.34961-2.61084l2.28613-.08984v-.34229a1.87628,1.87628,0,0,0-2.124-1.94434,5.25608,5.25608,0,0,0-2.5752.73779l-.52246-1.15234a6.59391,6.59391,0,0,1,3.20508-.86426,3.70744,3.70744,0,0,1,2.82715.97266,3.5417,3.5417,0,0,1,.918,2.77246Zm-1.71-4.10547-1.999.12646c-1.38672.07178-1.94434.666-1.94434,1.47607,0,.81055.62988,1.47656,1.76465,1.47656a2.68647,2.68647,0,0,0,2.17871-1.24219Z" transform="translate(0 0.00002)"/>
    <path d="M129.10645,28.74658a4.33218,4.33218,0,0,1-1.56641.28809,2.00705,2.00705,0,0,1-1.81836-.88232,4.46355,4.46355,0,0,1-.43262-2.55713V21.68848H124.0293V20.30176h1.25977V17.74512h1.72852v2.55664h2.05273v1.38672h-2.05273v3.87109a3.37291,3.37291,0,0,0,.21582,1.56641.89635.89635,0,0,0,.88281.43213,2.0827,2.0827,0,0,0,.88184-.19824Z" transform="translate(0 0.00002)"/>
    <path d="M138.125,24.96533h-6.58984A2.63767,2.63767,0,0,0,134.29,27.68408a4.73357,4.73357,0,0,0,2.82715-.99023l.71973.99023a5.02142,5.02142,0,0,1-3.7627,1.35059,4.147,4.147,0,0,1-4.28516-4.4834,4.24249,4.24249,0,0,1,4.33887-4.42969,3.90514,3.90514,0,0,1,4.05176,4.0874A7.36492,7.36492,0,0,1,138.125,24.96533ZM136.541,23.813a2.472,2.472,0,0,0-2.4668-2.44873,2.51551,2.51551,0,0,0-2.52051,2.44873Z" transform="translate(0 0.00002)"/>
    <path d="M144.76563,28.27832a3.64678,3.64678,0,0,1-2.376.75635,4.0948,4.0948,0,0,1-3.33105-1.53076l.82813-1.0083a3.51009,3.51009,0,0,0,2.52051,1.22461c.792,0,1.63867-.28809,1.63867-1.22461,0-.936-1.35059-1.22412-1.92676-1.42236a6.32814,6.32814,0,0,1-1.16992-.4502,2.20506,2.20506,0,0,1-1.35059-2.05225c0-1.585,1.36816-2.44922,2.88086-2.44922a3.742,3.742,0,0,1,2.917,1.1167l-.7207,1.062a3.13554,3.13554,0,0,0-2.16016-.918c-.82812,0-1.36816.35986-1.36816,1.062,0,.70264.82813,1.0083,1.67383,1.27881.46875.16162.792.27,1.15234.41406a3.27409,3.27409,0,0,1,.99023.61182,2.11386,2.11386,0,0,1,.68457,1.58447A2.43321,2.43321,0,0,1,144.76563,28.27832Z" transform="translate(0 0.00002)"/>
  </g>
  <rect x="135" y="280.00002" width="41.14172" height="45.33333" rx="8" ry="8" style="stroke: #fff;stroke-miterlimit: 10"/>
  <rect x="116.18911" y="46.04169" width="59.95261" height="313.68662" rx="8" ry="8"/>
  <g>
    <path d="M91.48047,105.103a3.88159,3.88159,0,0,1-3.02295,1.22363,4.27065,4.27065,0,1,1,2.939-7.44824l-.49219.93555a3.279,3.279,0,0,0-2.39844-1.00732,3.22967,3.22967,0,0,0,0,6.45264,3.274,3.274,0,0,0,2.47021-1.00781Z" transform="translate(0 0.00002)"/>
    <path d="M93.751,106.18262H92.61133V97.90723H93.751Z" transform="translate(0 0.00002)"/>
    <path d="M98.03418,106.31445a2.96856,2.96856,0,1,1,3.01074-2.9624A2.88814,2.88814,0,0,1,98.03418,106.31445Zm0-5.001a2.0159,2.0159,0,1,0,1.84668,2.00293A1.85292,1.85292,0,0,0,98.03418,101.31348Z" transform="translate(0 0.00002)"/>
    <path d="M107.02148,105.45117a3.03469,3.03469,0,0,1-5.1582-2.11084,2.8756,2.8756,0,0,1,2.915-2.9624,2.769,2.769,0,0,1,2.20605.81543l-.40723.83936a2.24769,2.24769,0,0,0-1.70312-.69531,2.0024,2.0024,0,0,0,.0127,3.99365,2.36723,2.36723,0,0,0,1.72656-.71973Z" transform="translate(0 0.00002)"/>
    <path d="M113.10547,106.18262h-1.34375l-1.95508-2.7583-.66016.62354v2.13477h-1.13867V97.90723h1.13867v4.85742l2.32813-2.27881h1.3418l-2.23047,2.14648Z" transform="translate(0 0.00002)"/>
  </g>
  <g>
    <path d="M60.03418,306.91113H58.48291v4.86914h-.77539v-4.86914H56.14844v-.64746h3.88574Z" transform="translate(0 0.00002)"/>
    <path d="M61.97852,308.68652h-.03125a1.003,1.003,0,0,0-.416-.08008.79751.79751,0,0,0-.624.31934,1.69456,1.69456,0,0,0-.23145.96v1.89453H59.9082v-3.79785h.76758l-.0083.584h.02393a.99247.99247,0,0,1,.93555-.65527,1.08018,1.08018,0,0,1,.40039.06348Z" transform="translate(0 0.00002)"/>
    <path d="M63.00391,307.207a.47228.47228,0,1,1,.49609-.47168A.47137.47137,0,0,1,63.00391,307.207Zm.38379,4.57324h-.76758v-3.79785h.76758Z" transform="translate(0 0.00002)"/>
    <path d="M68.1543,310.98145a2.41109,2.41109,0,0,1-.416,1.63867,2.00806,2.00806,0,0,1-1.69531.72754,2.91905,2.91905,0,0,1-1.69531-.56738l.36035-.53613a2.40223,2.40223,0,0,0,1.35938.47949,1.26985,1.26985,0,0,0,1.03906-.415,1.70779,1.70779,0,0,0,.28809-1.06348v-.19238h-.0166a1.52279,1.52279,0,0,1-1.32715.67969,1.91237,1.91237,0,0,1,0-3.82129,1.517,1.517,0,0,1,1.32715.6709h.02441l-.00781-.59961h.75977Zm-1.94336-2.45508a1.29446,1.29446,0,1,0,1.207,1.29492A1.18574,1.18574,0,0,0,66.21094,308.52637Z" transform="translate(0 0.00002)"/>
    <path d="M72.89844,310.98145a2.41109,2.41109,0,0,1-.416,1.63867,2.00806,2.00806,0,0,1-1.69531.72754,2.91905,2.91905,0,0,1-1.69531-.56738l.36035-.53613a2.40223,2.40223,0,0,0,1.35938.47949,1.26985,1.26985,0,0,0,1.03906-.415,1.70779,1.70779,0,0,0,.28809-1.06348v-.19238h-.0166a1.52279,1.52279,0,0,1-1.32715.67969,1.91237,1.91237,0,0,1,0-3.82129,1.517,1.517,0,0,1,1.32715.6709h.02441l-.00781-.59961h.75977Zm-1.94336-2.45508a1.29446,1.29446,0,1,0,1.207,1.29492A1.18574,1.18574,0,0,0,70.95508,308.52637Z" transform="translate(0 0.00002)"/>
    <path d="M77.40918,310.06152H74.4834a1.16973,1.16973,0,0,0,1.22266,1.207,2.10486,2.10486,0,0,0,1.25586-.43945l.31934.43945a2.22879,2.22879,0,0,1-1.6709.59961,1.84173,1.84173,0,0,1-1.90332-1.99023,1.88434,1.88434,0,0,1,1.92773-1.9668,1.73368,1.73368,0,0,1,1.79883,1.81445A3.26736,3.26736,0,0,1,77.40918,310.06152Zm-.70312-.51172a1.098,1.098,0,0,0-1.0957-1.08789,1.11685,1.11685,0,0,0-1.11914,1.08789Z" transform="translate(0 0.00002)"/>
    <path d="M80.2666,308.68652h-.03223a.99905.99905,0,0,0-.416-.08008.797.797,0,0,0-.623.31934,1.68339,1.68339,0,0,0-.23242.96v1.89453h-.76758v-3.79785h.76758l-.00781.584h.02441a.99065.99065,0,0,1,.93555-.65527,1.07124,1.07124,0,0,1,.39941.06348Z" transform="translate(0 0.00002)"/>
    <path d="M82.92188,311.53223a1.61394,1.61394,0,0,1-1.05566.33594,1.81615,1.81615,0,0,1-1.47852-.67969l.36719-.44727a1.56072,1.56072,0,0,0,1.12012.54395c.35156,0,.72754-.12793.72754-.54395s-.59961-.54395-.85547-.63184a2.814,2.814,0,0,1-.52051-.2002.9783.9783,0,0,1-.59961-.91113,1.14965,1.14965,0,0,1,1.2793-1.08691,1.66346,1.66346,0,0,1,1.2959.49512l-.32031.47168a1.39371,1.39371,0,0,0-.959-.40723c-.36816,0-.60742.15918-.60742.47168,0,.31152.36719.44727.74316.56738.208.07227.35156.12012.51172.18359a1.45415,1.45415,0,0,1,.43945.27246.93492.93492,0,0,1,.30371.70313A1.07791,1.07791,0,0,1,82.92188,311.53223Z" transform="translate(0 0.00002)"/>
    <path d="M61.18555,324.78027h-.77539v-2.57422H57.47559v2.57422H56.7002v-5.5166h.77539V321.542h2.93457v-2.27832h.77539Z" transform="translate(0 0.00002)"/>
    <path d="M64.09082,324.86816a1.97872,1.97872,0,1,1,2.00684-1.97461A1.92551,1.92551,0,0,1,64.09082,324.86816Zm0-3.334a1.34417,1.34417,0,1,0,1.23047,1.335A1.23561,1.23561,0,0,0,64.09082,321.53418Z" transform="translate(0 0.00002)"/>
    <path d="M67.69922,324.78027h-.75977v-5.5166h.75977Z" transform="translate(0 0.00002)"/>
    <path d="M72.47461,324.78027h-.73633v-.60742h-.01562a1.54362,1.54362,0,0,1-1.335.69531A1.84131,1.84131,0,0,1,68.54,322.87793a1.822,1.822,0,0,1,1.83105-1.9668,1.53344,1.53344,0,0,1,1.32715.66309h.0166v-2.31055h.75977Zm-1.94336-3.24609a1.34661,1.34661,0,1,0,1.207,1.335A1.20749,1.20749,0,0,0,70.53125,321.53418Z" transform="translate(0 0.00002)"/>
    <path d="M61.54492,336.98145a3.007,3.007,0,0,1-2.34229.89551,2.84692,2.84692,0,0,1-.0083-5.69336,2.77132,2.77132,0,0,1,2.23145.96l-.52832.4873a2.12133,2.12133,0,0,0-1.70312-.7832,1.98769,1.98769,0,0,0-2.00684,2.1748,2.01543,2.01543,0,0,0,2.05518,2.1748,1.992,1.992,0,0,0,1.55127-.50391v-1.22363h-1.4873v-.63184h2.23828Z" transform="translate(0 0.00002)"/>
    <path d="M65.54688,337.78027h-.74414l-.00781-.47949a1.5665,1.5665,0,0,1-1.207.56738,1.20626,1.20626,0,0,1-1.31152-1.1748c0-.74414.60742-1.11914,1.4873-1.15918l1.01563-.04v-.15234a.83417.83417,0,0,0-.94434-.86328,2.32985,2.32985,0,0,0-1.14258.32813l-.23242-.51172a2.92572,2.92572,0,0,1,1.42383-.38379,1.64647,1.64647,0,0,1,1.25488.43164,1.57169,1.57169,0,0,1,.4082,1.23145Zm-.75977-1.82227-.8877.05566c-.61523.03223-.86328.2959-.86328.65527,0,.36035.2793.65625.7832.65625a1.19366,1.19366,0,0,0,.96777-.55176Z" transform="translate(0 0.00002)"/>
    <path d="M68.37891,337.74023a1.92634,1.92634,0,0,1-.69629.12793.89165.89165,0,0,1-.80762-.3916,1.98627,1.98627,0,0,1-.19141-1.13477v-1.73535H66.124v-.61621h.55957v-1.13477h.76758v1.13477h.91113v.61621h-.91113v1.71875a1.4899,1.4899,0,0,0,.0957.69531.39764.39764,0,0,0,.3916.19238.92866.92866,0,0,0,.39258-.08789Z" transform="translate(0 0.00002)"/>
    <path d="M72.38574,336.06152H69.46a1.16973,1.16973,0,0,0,1.22266,1.207,2.10486,2.10486,0,0,0,1.25586-.43945l.31934.43945a2.22879,2.22879,0,0,1-1.6709.59961,1.84173,1.84173,0,0,1-1.90332-1.99023,1.88434,1.88434,0,0,1,1.92773-1.9668,1.73368,1.73368,0,0,1,1.79883,1.81445A3.26736,3.26736,0,0,1,72.38574,336.06152Zm-.70312-.51172a1.098,1.098,0,0,0-1.0957-1.08789,1.11685,1.11685,0,0,0-1.11914,1.08789Z" transform="translate(0 0.00002)"/>
  </g>
  <g>
    <path d="M135.875,66.13867h-1.12793V58.71484h-1.61914v-.85156H135.875Z" transform="translate(0 0.00002)" style="fill: #fff"/>
    <path d="M137.98438,106.18262h-5.58887l-.168-.77979,2.92676-2.77051a3.459,3.459,0,0,0,1.34277-2.29053,1.56288,1.56288,0,0,0-1.70312-1.60693,2.45016,2.45016,0,0,0-2.02637,1.33105l-.61133-.68359a2.94815,2.94815,0,0,1,2.71-1.59521,2.4755,2.4755,0,0,1,2.77051,2.43457,4.3247,4.3247,0,0,1-1.751,2.97461l-2.123,2.02686h4.22168Z" transform="translate(0 0.00002)" style="fill: #fff"/>
    <path d="M134.79395,147.07617a3.40948,3.40948,0,0,1-2.68652-1.40332l.64746-.70752a2.8789,2.8789,0,0,0,2.01465,1.16309c1.08008,0,1.85938-.53955,1.85938-1.53516a1.51686,1.51686,0,0,0-1.71484-1.499h-.6123v-.92334h.6123a1.32059,1.32059,0,0,0,1.4873-1.34326,1.39214,1.39214,0,0,0-1.55957-1.34326,2.73925,2.73925,0,0,0-1.97852.94727l-.54-.6958a3.22551,3.22551,0,0,1,2.61426-1.17529,2.33305,2.33305,0,0,1,2.59082,2.147,1.85875,1.85875,0,0,1-1.34375,1.87109v.03564a2.00446,2.00446,0,0,1,1.5957,2.02686C137.78027,146.15234,136.47266,147.07617,134.79395,147.07617Z" transform="translate(0 0.00002)" style="fill: #fff"/>
    <path d="M138.27148,185.189h-1.19922V187h-1.127v-1.811h-4.17383v-.85156l4.08984-5.66064h1.21094v5.55273h1.19922Zm-2.31445-.94727v-4.19775l-3.0459,4.19775Z" transform="translate(0 0.00002)" style="fill: #fff"/>
    <path d="M134.74609,226.32031a3.06122,3.06122,0,0,1-2.72266-1.3916l.64844-.6709a2.4069,2.4069,0,0,0,2.0625,1.10352,1.8368,1.8368,0,1,0,0-3.66992,2.35583,2.35583,0,0,0-1.46289.44336l-.58789-.34766.71973-3.88574h4.16113v.93555h-3.32227l-.43164,2.19434a2.906,2.906,0,0,1,1.17578-.21582,2.69381,2.69381,0,0,1,2.81836,2.71094A2.84245,2.84245,0,0,1,134.74609,226.32031Z" transform="translate(0 0.00002)" style="fill: #fff"/>
    <path d="M135.19043,266.36426a2.78149,2.78149,0,0,1-2.50684-1.42676,5.11759,5.11759,0,0,1-.57617-2.69922,5.26976,5.26976,0,0,1,.97168-3.32227,2.83981,2.83981,0,0,1,2.375-1.09082,3.64758,3.64758,0,0,1,2.32617.83984l-.49121.7793a2.80275,2.80275,0,0,0-1.82324-.708,1.74518,1.74518,0,0,0-1.53516.76758,4.3753,4.3753,0,0,0-.707,2.63867,2.36554,2.36554,0,0,1,2.24219-1.1748,2.48919,2.48919,0,0,1,2.543,2.542A2.71638,2.71638,0,0,1,135.19043,266.36426Zm-.02441-4.54492a1.81322,1.81322,0,1,0,1.71484,1.81055A1.697,1.697,0,0,0,135.166,261.81934Z" transform="translate(0 0.00002)" style="fill: #fff"/>
    <path d="M138.15234,299.38965l-3.98242,7.60449h-1.22266l3.90918-7.33984h-4.65332v-.93555h5.63672Z" transform="translate(0 0.00002)" style="fill: #fff"/>
    <path d="M134.998,347.16992c-1.63184,0-2.84277-.86328-2.84277-2.42285a2.08216,2.08216,0,0,1,1.54688-2.0625v-.03613a1.83229,1.83229,0,0,1-1.29492-1.85937c0-1.36719,1.19922-2.14648,2.59082-2.14648,1.39063,0,2.58984.7793,2.58984,2.14648a1.85079,1.85079,0,0,1-1.2832,1.87109v.02441a2.10564,2.10564,0,0,1,1.54785,2.0625C137.85254,346.30664,136.62891,347.16992,134.998,347.16992Zm0-4.07812a1.5543,1.5543,0,0,0-1.70312,1.57129,1.70866,1.70866,0,0,0,3.40625,0A1.5548,1.5548,0,0,0,134.998,343.0918Zm0-3.53809a1.34815,1.34815,0,1,0,1.46289,1.34375A1.32417,1.32417,0,0,0,134.998,339.55371Z" transform="translate(0 0.00002)" style="fill: #fff"/>
  </g>
  <g>
    <path d="M103.13086,165.62256h-1.15137l-.53906-6.53662h-.03613l-2.53125,6.6084h-.65918l-2.53027-6.6084h-.03613l-.52832,6.53662H93.96777l.74414-8.27539h1.43945l2.38672,6.39258h.02344l2.38672-6.39258H102.376Z" transform="translate(0 0.00002)"/>
    <path d="M105.0918,158.76221a.70837.70837,0,1,1,.74316-.70752A.70706.70706,0,0,1,105.0918,158.76221Zm.5752,6.86035h-1.15137v-5.69678H105.667Z" transform="translate(0 0.00002)"/>
    <path d="M112.25293,165.62256h-1.15137v-3.17822c0-.95947-.168-1.6792-1.1875-1.6792-1.06738,0-1.46289.89941-1.46289,1.99121v2.86621H107.2998v-5.69678h1.15137l-.01172.89941h.03516a1.92545,1.92545,0,0,1,1.73926-1.00732c1.61914,0,2.03906,1.06738,2.03906,2.43457Z" transform="translate(0 0.00002)"/>
  </g>
  <g>
    <path d="M64.76367,266.2207H63.6123l-.53955-6.53711h-.03613l-2.53076,6.6084h-.65967l-2.53027-6.6084h-.03613L56.752,266.2207H55.60059l.74365-8.27539h1.43945l2.38672,6.39258h.02393l2.38672-6.39258H64.0083Z" transform="translate(0 0.00002)"/>
    <path d="M68.73877,266.35254a2.96856,2.96856,0,1,1,3.01074-2.96289A2.88773,2.88773,0,0,1,68.73877,266.35254Zm0-5.001a2.01581,2.01581,0,1,0,1.84766,2.00293A1.85266,1.85266,0,0,0,68.73877,261.35156Z" transform="translate(0 0.00002)"/>
    <path d="M78.46924,266.2207H77.36572v-.91211h-.02344a2.31717,2.31717,0,0,1-2.00293,1.04395,2.76231,2.76231,0,0,1-2.77051-2.98633,2.73286,2.73286,0,0,1,2.74609-2.9502,2.3021,2.3021,0,0,1,1.99121.99512h.02344v-3.46582h1.13965Zm-2.91406-4.86914a2.01964,2.01964,0,1,0,1.81055,2.00293A1.81162,1.81162,0,0,0,75.55518,261.35156Z" transform="translate(0 0.00002)"/>
    <path d="M85.28564,263.6416H80.896a1.75617,1.75617,0,0,0,1.835,1.81152,3.14955,3.14955,0,0,0,1.88281-.66016l.47949.66016a3.34709,3.34709,0,0,1-2.50684.89941,2.76229,2.76229,0,0,1-2.85352-2.98633,2.82524,2.82524,0,0,1,2.88965-2.9502,2.601,2.601,0,0,1,2.69922,2.72168A4.92487,4.92487,0,0,1,85.28564,263.6416ZM84.23,262.874a1.64554,1.64554,0,0,0-1.64355-1.63086,1.67619,1.67619,0,0,0-1.67871,1.63086Z" transform="translate(0 0.00002)"/>
  </g>
  <g>
    <path d="M100.59863,226.17676H99.44727l-.53906-6.53711h-.03613l-2.53125,6.6084h-.65918l-2.53027-6.6084h-.03613l-.52832,6.53711H91.43555l.74414-8.27539h1.43945l2.38672,6.39258h.02344l2.38672-6.39258h1.42773Z" transform="translate(0 0.00002)"/>
    <path d="M106.36133,226.17676h-1.11523l-.01172-.71973a2.3504,2.3504,0,0,1-1.81152.85156,1.8099,1.8099,0,0,1-1.9668-1.7627c0-1.11621.91113-1.67969,2.23047-1.73926l1.52344-.06055v-.22754a1.25007,1.25007,0,0,0-1.415-1.29492,3.4962,3.4962,0,0,0-1.71484.49121l-.34766-.76758a4.38885,4.38885,0,0,1,2.13477-.5752,2.46939,2.46939,0,0,1,1.88281.64746,2.35777,2.35777,0,0,1,.61133,1.84668Zm-1.13965-2.73437-1.33105.084c-.92285.04785-1.29492.44336-1.29492.9834,0,.53906.41992.9834,1.1748.9834a1.78706,1.78706,0,0,0,1.45117-.82812Z" transform="translate(0 0.00002)"/>
    <path d="M113.00879,226.17676h-1.29492l-1.69141-2.31543-1.69141,2.31543h-1.29492l2.31445-2.999-2.05078-2.69824h1.27148l1.45117,2.05078,1.45117-2.05078h1.2832l-2.0625,2.69824Z" transform="translate(0 0.00002)"/>
  </g>
  <rect x="13.66645" y="32.73587" width="10.76415" height="10.76415" style="fill: none;stroke: #000;stroke-miterlimit: 10;stroke-width: 0.8442471623420715px"/>
  <line x1="24.4306" y1="38.11794" x2="34.01866" y2="38.11794" style="fill: none;stroke: #000;stroke-miterlimit: 10;stroke-width: 0.8442471623420715px"/>
  <rect x="34.01866" y="32.73587" width="10.76415" height="10.76415" style="fill: none;stroke: #000;stroke-miterlimit: 10;stroke-width: 0.8442471623420715px"/>
  <line x1="44.78282" y1="38.11794" x2="54.37088" y2="38.11794" style="fill: none;stroke: #000;stroke-miterlimit: 10;stroke-width: 0.8442471623420715px"/>
  <rect x="54.37088" y="32.73587" width="10.76415" height="10.76415" style="fill: none;stroke: #000;stroke-miterlimit: 10;stroke-width: 0.8442471623420715px"/>
  <line x1="65.13503" y1="38.11794" x2="74.72309" y2="38.11794" style="fill: none;stroke: #000;stroke-miterlimit: 10;stroke-width: 0.8442471623420715px"/>
  <rect x="74.72309" y="32.73587" width="10.76415" height="10.76415" style="fill: none;stroke: #000;stroke-miterlimit: 10;stroke-width: 0.8442471623420715px"/>
  <line x1="85.48724" y1="38.11794" x2="95.0753" y2="38.11794" style="fill: none;stroke: #000;stroke-miterlimit: 10;stroke-width: 0.8442471623420715px"/>
  <rect x="95.0753" y="32.73587" width="10.76415" height="10.76415" style="fill: none;stroke: #000;stroke-miterlimit: 10;stroke-width: 0.8442471623420715px"/>
  <line x1="105.83945" y1="38.11794" x2="115.42751" y2="38.11794" style="fill: none;stroke: #000;stroke-miterlimit: 10;stroke-width: 0.8442471623420715px"/>
  <rect x="115.42751" y="32.73587" width="10.76415" height="10.76415" style="fill: none;stroke: #000;stroke-miterlimit: 10;stroke-width: 0.8442471623420715px"/>
  <line x1="126.19166" y1="38.11794" x2="135.77972" y2="38.11794" style="fill: none;stroke: #000;stroke-miterlimit: 10;stroke-width: 0.8442471623420715px"/>
  <rect x="135.77972" y="32.73587" width="10.76415" height="10.76415" style="fill: none;stroke: #000;stroke-miterlimit: 10;stroke-width: 0.8442471623420715px"/>
  <line x1="146.54388" y1="38.11794" x2="156.13194" y2="38.11794" style="fill: none;stroke: #000;stroke-miterlimit: 10;stroke-width: 0.8442471623420715px"/>
  <rect x="156.13194" y="32.73587" width="10.76415" height="10.76415" style="fill: none;stroke: #000;stroke-miterlimit: 10;stroke-width: 0.8442471623420715px"/>
  <rect x="84.89919" y="48.97172" width="10.76415" height="10.76415" style="fill: none;stroke: #000;stroke-miterlimit: 10;stroke-width: 0.8442471623420715px"/>
  <line x1="90.28127" y1="38.11794" x2="90.28127" y2="48.97172" style="fill: none;stroke: #000;stroke-miterlimit: 10;stroke-width: 0.8442471623420715px"/>
  <path d="M89.65869,55.82666l-.01611-.20752a1.83645,1.83645,0,0,1,.49561-1.3833,1.75783,1.75783,0,0,0,.56006-1.0957c0-.40771-.25586-.67969-.75977-.6875a1.42206,1.42206,0,0,0-.80762.248l-.19189-.50391a2.09763,2.09763,0,0,1,1.14355-.31982A1.18166,1.18166,0,0,1,91.418,53.05225a2.16309,2.16309,0,0,1-.688,1.3916,1.58,1.58,0,0,0-.45557,1.17529l.00781.20752Zm-.17578,1.11963a.4727.4727,0,0,1,.47949-.50391.50039.50039,0,1,1-.47949.50391Z" transform="translate(0 0.00002)"/>
</svg>
