<?xml version="1.0" encoding="UTF-8" standalone="no"?>
<svg
   xmlns:dc="http://purl.org/dc/elements/1.1/"
   xmlns:cc="http://creativecommons.org/ns#"
   xmlns:rdf="http://www.w3.org/1999/02/22-rdf-syntax-ns#"
   xmlns:svg="http://www.w3.org/2000/svg"
   xmlns="http://www.w3.org/2000/svg"
   id="svg4352"
   version="1.1"
   height="380px"
   width="30">
  <metadata
     id="metadata30">
    <rdf:RDF>
      <cc:Work
         rdf:about="">
        <dc:format>image/svg+xml</dc:format>
        <dc:type
           rdf:resource="http://purl.org/dc/dcmitype/StillImage" />
      </cc:Work>
    </rdf:RDF>
  </metadata>
  <defs
     id="defs28" />
  <g
     id="background">
    <path
       id="rect4255"
       d="m 0,0 30,0 0,380 -30,0 z"
       style="fill:#294f77;stroke:none" />
    <path
       id="path4356"
       d="M 0,380 0,0 30,0 29,1 1,1 1,379 Z"
       style="fill:#3a6ea5;fill-rule:nonzero;stroke:none" />
    <path
       id="path4358"
       d="m 0,380 30,0 0,-380 -1,1 0,378 -28,0 z"
       style="fill:#182d44;fill-rule:nonzero;stroke:none" />
  </g>
  <g
     style="font-size:12px;font-family:'DejaVu Sans';fill:#719fcf"
     font-size="12"
     id="logo">
    <path
       id="path4136"
       d="m 14.35391,366 a 1.9846094,2.2519786 0 0 0 -1.98465,2.25192 1.9846094,2.2519786 0 0 0 0.0588,0.53167 A 8.1692063,5.1693144 0 0 0 6,373.83071 8.1692063,5.1693144 0 0 0 14.16915,379 8.1692063,5.1693144 0 0 0 21.48278,376.11985 3.0461447,4.2480502 0 0 0 24,377.97641 l 0,-2.35772 A 1.3384576,1.9448905 0 0 1 22.7077,373.67718 1.3384576,1.9448905 0 0 1 24,371.73455 l 0,-2.25416 a 3.0461447,4.2480502 0 0 0 -2.57413,1.97944 8.1692063,5.1693144 0 0 0 -7.25672,-2.79842 8.1692063,5.1693144 0 0 0 -0.37318,0.0119 1.7538409,2.0472531 0 0 1 0.69638,-1.00162 l 0,-1.66609 A 1.9846094,2.2519786 0 0 0 14.35391,366 Z m -3.27707,5.83461 a 1.6615335,1.8425278 0 0 1 1.66156,1.84257 1.6615335,1.8425278 0 0 1 -1.66156,1.84257 1.6615335,1.8425278 0 0 1 -1.66145,-1.84257 1.6615335,1.8425278 0 0 1 1.66145,-1.84257 z m 3.78465,0.40949 a 1.2923038,1.4330772 0 0 1 1.29231,1.43308 1.2923038,1.4330772 0 0 1 -1.29231,1.43308 1.2923038,1.4330772 0 0 1 -1.2923,-1.43308 1.2923038,1.4330772 0 0 1 1.2923,-1.43308 z m 3.00928,0.38892 a 0.92307415,1.0236265 0 0 1 0.92304,1.02373 0.92307415,1.0236265 0 0 1 -0.92304,1.02359 0.92307415,1.0236265 0 0 1 -0.92317,-1.02359 0.92307415,1.0236265 0 0 1 0.92317,-1.02373 z" />
    <g
       id="text9"
       style="font-size:8px;text-anchor:middle">
      <path
         id="path34"
         style="font-size:8px;text-anchor:middle"
         d="m 2.0898438,4.1679687 3.3515624,0 0,0.6640625 -2.5624999,0 0,1.71875 2.3124999,0 0,0.6640625 -2.3124999,0 0,2.7851563 -0.7890625,0 0,-5.8320313 z" />
      <path
         id="path36"
         style="font-size:8px;text-anchor:middle"
         d="m 6.6992187,4.1679687 3.3515623,0 0,0.6640625 -2.5624998,0 0,1.71875 2.3125001,0 0,0.6640625 -2.3125001,0 0,2.7851563 -0.7890625,0 0,-5.8320313 z" />
      <path
         id="path38"
         style="font-size:8px;text-anchor:middle"
         d="m 10.914063,7.4882812 2.105468,0 0,0.6406251 -2.105468,0 0,-0.6406251 z" />
      <path
         id="path40"
         style="font-size:8px;text-anchor:middle"
         d="m 14.949219,9.3359375 2.753906,0 0,0.6640625 L 14,10 14,9.3359375 Q 14.449219,8.8710938 15.222656,8.0898438 16,7.3046875 16.199219,7.078125 16.578125,6.6523437 16.726562,6.359375 16.878906,6.0625 16.878906,5.7773437 q 0,-0.4648437 -0.328125,-0.7578125 -0.324219,-0.2929687 -0.847656,-0.2929687 -0.371094,0 -0.785156,0.1289062 -0.410156,0.1289063 -0.878906,0.390625 l 0,-0.796875 Q 14.515625,4.2578125 14.929688,4.1601562 15.34375,4.0625 15.6875,4.0625 q 0.90625,0 1.445312,0.453125 0.539063,0.453125 0.539063,1.2109375 0,0.359375 -0.136719,0.6835937 -0.132812,0.3203125 -0.488281,0.7578125 -0.09766,0.1132813 -0.621094,0.65625 -0.523437,0.5390626 -1.476562,1.5117188 z" />
      <path
         id="path42"
         style="font-size:8px;text-anchor:middle"
         d="m 21.050781,4.6875 q -0.609375,0 -0.917969,0.6015625 -0.304687,0.5976562 -0.304687,1.8007812 0,1.1992188 0.304687,1.8007813 0.308594,0.5976563 0.917969,0.5976563 0.613281,0 0.917969,-0.5976563 0.308594,-0.6015625 0.308594,-1.8007813 0,-1.203125 -0.308594,-1.8007812 Q 21.664062,4.6875 21.050781,4.6875 Z m 0,-0.625 q 0.980469,0 1.496094,0.7773437 0.519531,0.7734375 0.519531,2.25 0,1.4726563 -0.519531,2.2500001 -0.515625,0.7734372 -1.496094,0.7734372 -0.980469,0 -1.5,-0.7734372 Q 19.035156,8.5625 19.035156,7.0898437 q 0,-1.4765625 0.515625,-2.25 0.519531,-0.7773437 1.5,-0.7773437 z" />
      <path
         id="path44"
         style="font-size:8px;text-anchor:middle"
         d="m 26.242187,6.7695312 q -0.53125,0 -0.84375,0.3632813 -0.308593,0.3632812 -0.308593,0.9960938 0,0.6289062 0.308593,0.9960937 0.3125,0.3632813 0.84375,0.3632813 0.53125,0 0.839844,-0.3632813 0.3125,-0.3671875 0.3125,-0.9960937 0,-0.6328126 -0.3125,-0.9960938 -0.308594,-0.3632813 -0.839844,-0.3632813 z m 1.566407,-2.4726562 0,0.71875 Q 27.511719,4.875 27.207031,4.8007812 26.90625,4.7265625 26.609375,4.7265625 q -0.78125,0 -1.195313,0.5273437 -0.410156,0.5273438 -0.46875,1.59375 0.230469,-0.3398437 0.578125,-0.5195312 0.347657,-0.1835938 0.765625,-0.1835938 0.878907,0 1.386719,0.5351563 0.511719,0.53125 0.511719,1.4492188 0,0.8984375 -0.53125,1.4414062 -0.53125,0.5429685 -1.414063,0.5429685 -1.011718,0 -1.546875,-0.7734372 Q 24.160156,8.5625 24.160156,7.0898437 q 0,-1.3828125 0.65625,-2.203125 Q 25.472656,4.0625 26.578125,4.0625 q 0.296875,0 0.597656,0.058594 0.304688,0.058594 0.632813,0.1757813 z" />
    </g>
  </g>
  <g
     style="fill:none;stroke:#ffffff;stroke-width:2;stroke-linecap:round"
     id="screen">
    <path
       id="line12"
       d="m 15,31.5 0,318"
       style="stroke:#719fcf" />
    <path
       id="line14"
       d="m 15,31.5 0,28"
       style="" />
    <path
       id="line16"
       d="m 15,89.5 0,28"
       style="" />
    <path
       id="line18"
       d="m 15,147.5 0,28"
       style="" />
    <path
       id="line20"
       d="m 15,205.5 0,28"
       style="" />
    <path
       id="line22"
       d="m 15,263.5 0,28"
       style="" />
    <path
       id="line24"
       d="m 15,321.5 0,28"
       style="" />
  </g>
</svg>
