<?xml version="1.0" encoding="UTF-8" standalone="no"?>
<!DOCTYPE svg PUBLIC "-//W3C//DTD SVG 1.1//EN" "http://www.w3.org/Graphics/SVG/1.1/DTD/svg11.dtd">
<svg xmlns:xlink="http://www.w3.org/1999/xlink"
     xmlns:serif="http://www.serif.com/"
     width="270px"
     height="380px"
     version="1.1"
     xmlns="http://www.w3.org/2000/svg"
     xml:space="preserve"
     style="fill-rule:evenodd;clip-rule:evenodd;stroke-linejoin:round;stroke-miterlimit:1.41421;">
    <g id="Background"
       transform="matrix(1.5,0,0,1,0.015,-196.458)">
        <rect x="-0.01"
              y="196.458"
              width="180"
              height="380"
              style="fill:#fff;"/>
    </g>
    <g id="Description"
       transform="matrix(1,0,0,1,45,10)">
        <g transform="matrix(1.99342,0,0,0.780697,-87.1285,-15.6422)">
            <rect x="25.142"
                  y="61.007"
                  width="127.921"
                  height="19.438"/>
        </g>
        <g id="Description1"
           serif:id="Description"
           transform="matrix(1.10867,0,0,1.10867,-22.0067,-27.2728)">
            <path d="M3.978,63.142l1.816,-5.392l-1.296,0l-0.688,2.304c-0.184,0.616 -0.352,1.256 -0.488,1.904l-0.024,0c-0.128,-0.672 -0.296,-1.288 -0.48,-1.928l-0.656,-2.28l-1.336,0l1.728,5.392l1.424,0Z"
                  style="fill:#fff;fill-rule:nonzero;"/>
            <path d="M9.106,57.662c-1.584,0 -2.648,1.152 -2.648,2.824c0,1.616 0.992,2.744 2.544,2.744c1.448,0 2.64,-0.984 2.64,-2.792c0,-1.576 -0.904,-2.776 -2.536,-2.776Zm-0.048,0.968c0.896,0 1.296,0.912 1.296,1.824c0,0.976 -0.44,1.808 -1.304,1.808c-0.84,0 -1.304,-0.8 -1.304,-1.808c0,-1 0.456,-1.824 1.312,-1.824Z"
                  style="fill:#fff;fill-rule:nonzero;"/>
            <path d="M12.842,63.142l3.368,0l0,-1.024l-2.144,0l0,-4.368l-1.224,0l0,5.392Z"
                  style="fill:#fff;fill-rule:nonzero;"/>
            <path d="M17.538,63.142l1.224,0l0,-4.368l1.472,0l0,-1.024l-4.144,0l0,1.024l1.448,0l0,4.368Z"
                  style="fill:#fff;fill-rule:nonzero;"/>
            <path d="M23.506,61.758l0.416,1.384l1.312,0l-1.672,-5.392l-1.6,0l-1.648,5.392l1.264,0l0.384,-1.384l1.544,0Zm-1.368,-0.912l0.32,-1.144c0.088,-0.312 0.168,-0.72 0.248,-1.04l0.016,0c0.08,0.32 0.176,0.72 0.272,1.04l0.336,1.144l-1.192,0Z"
                  style="fill:#fff;fill-rule:nonzero;"/>
            <path d="M30.658,60.054l-2.008,0l0,0.952l0.832,0l0,1.128c-0.096,0.048 -0.32,0.08 -0.6,0.08c-1,0 -1.696,-0.656 -1.696,-1.768c0,-1.168 0.768,-1.744 1.784,-1.744c0.592,0 0.96,0.104 1.256,0.232l0.256,-0.976c-0.264,-0.128 -0.8,-0.264 -1.496,-0.264c-1.768,0 -3.072,1.024 -3.08,2.816c-0.008,0.792 0.264,1.496 0.76,1.96c0.496,0.48 1.208,0.728 2.192,0.728c0.712,0 1.424,-0.176 1.8,-0.304l0,-2.84Z"
                  style="fill:#fff;fill-rule:nonzero;"/>
            <path d="M35.218,59.87l-1.984,0l0,-1.12l2.104,0l0,-1l-3.328,0l0,5.392l3.44,0l0,-1l-2.216,0l0,-1.28l1.984,0l0,-0.992Z"
                  style="fill:#fff;fill-rule:nonzero;"/>
            <path d="M42.474,62.038c-0.24,0.096 -0.648,0.176 -1.016,0.176c-1.088,0 -1.728,-0.68 -1.728,-1.76c0,-1.2 0.752,-1.784 1.72,-1.784c0.432,0 0.776,0.096 1.024,0.2l0.248,-0.968c-0.216,-0.112 -0.696,-0.232 -1.328,-0.232c-1.632,0 -2.944,1.016 -2.944,2.856c0,1.536 0.96,2.704 2.824,2.704c0.656,0 1.16,-0.128 1.384,-0.24l-0.184,-0.952Z"
                  style="fill:#fff;fill-rule:nonzero;"/>
            <path d="M46.018,57.662c-1.584,0 -2.648,1.152 -2.648,2.824c0,1.616 0.992,2.744 2.544,2.744c1.448,0 2.64,-0.984 2.64,-2.792c0,-1.576 -0.904,-2.776 -2.536,-2.776Zm-0.048,0.968c0.896,0 1.296,0.912 1.296,1.824c0,0.976 -0.44,1.808 -1.304,1.808c-0.84,0 -1.304,-0.8 -1.304,-1.808c0,-1 0.456,-1.824 1.312,-1.824Z"
                  style="fill:#fff;fill-rule:nonzero;"/>
            <path d="M50.874,63.142l0,-1.624c0,-0.88 -0.016,-1.64 -0.048,-2.352l0.024,-0.008c0.264,0.632 0.616,1.328 0.936,1.904l1.152,2.08l1.28,0l0,-5.392l-1.12,0l0,1.568c0,0.816 0.024,1.544 0.104,2.256l-0.024,0c-0.24,-0.608 -0.56,-1.28 -0.88,-1.848l-1.12,-1.976l-1.424,0l0,5.392l1.12,0Z"
                  style="fill:#fff;fill-rule:nonzero;"/>
            <path d="M56.714,63.142l1.224,0l0,-4.368l1.472,0l0,-1.024l-4.144,0l0,1.024l1.448,0l0,4.368Z"
                  style="fill:#fff;fill-rule:nonzero;"/>
            <path d="M60.458,63.142l1.208,0l0,-2.12l0.368,0c0.496,0.008 0.728,0.192 0.872,0.864c0.16,0.664 0.288,1.104 0.376,1.256l1.248,0c-0.104,-0.208 -0.272,-0.912 -0.44,-1.52c-0.136,-0.496 -0.344,-0.856 -0.72,-1.008l0,-0.024c0.464,-0.168 0.952,-0.64 0.952,-1.328c0,-0.496 -0.176,-0.872 -0.496,-1.128c-0.384,-0.304 -0.944,-0.424 -1.744,-0.424c-0.648,0 -1.232,0.048 -1.624,0.112l0,5.32Zm1.208,-4.488c0.088,-0.016 0.256,-0.04 0.552,-0.04c0.56,0.008 0.896,0.256 0.896,0.752c0,0.472 -0.36,0.776 -0.968,0.776l-0.48,0l0,-1.488Z"
                  style="fill:#fff;fill-rule:nonzero;"/>
            <path d="M67.97,57.662c-1.584,0 -2.648,1.152 -2.648,2.824c0,1.616 0.992,2.744 2.544,2.744c1.448,0 2.64,-0.984 2.64,-2.792c0,-1.576 -0.904,-2.776 -2.536,-2.776Zm-0.048,0.968c0.896,0 1.296,0.912 1.296,1.824c0,0.976 -0.44,1.808 -1.304,1.808c-0.84,0 -1.304,-0.8 -1.304,-1.808c0,-1 0.456,-1.824 1.312,-1.824Z"
                  style="fill:#fff;fill-rule:nonzero;"/>
            <path d="M71.706,63.142l3.368,0l0,-1.024l-2.144,0l0,-4.368l-1.224,0l0,5.392Z"
                  style="fill:#fff;fill-rule:nonzero;"/>
            <path d="M76.194,63.142l3.368,0l0,-1.024l-2.144,0l0,-4.368l-1.224,0l0,5.392Z"
                  style="fill:#fff;fill-rule:nonzero;"/>
            <path d="M83.89,59.87l-1.984,0l0,-1.12l2.104,0l0,-1l-3.328,0l0,5.392l3.44,0l0,-1l-2.216,0l0,-1.28l1.984,0l0,-0.992Z"
                  style="fill:#fff;fill-rule:nonzero;"/>
            <path d="M85.354,63.118c0.304,0.04 0.752,0.08 1.384,0.08c1.056,0 1.92,-0.224 2.488,-0.696c0.52,-0.44 0.896,-1.152 0.896,-2.184c0,-0.952 -0.352,-1.616 -0.912,-2.032c-0.52,-0.392 -1.184,-0.576 -2.208,-0.576c-0.616,0 -1.2,0.04 -1.648,0.112l0,5.296Zm1.224,-4.424c0.104,-0.024 0.28,-0.048 0.552,-0.048c1.048,0 1.704,0.592 1.696,1.712c0,1.288 -0.72,1.896 -1.824,1.888c-0.152,0 -0.32,0 -0.424,-0.024l0,-3.528Z"
                  style="fill:#fff;fill-rule:nonzero;"/>
            <path d="M97.978,63.142l1.192,0l-0.296,-5.392l-1.592,0l-0.576,1.792c-0.184,0.6 -0.36,1.336 -0.512,1.96l-0.024,0c-0.12,-0.632 -0.28,-1.336 -0.456,-1.952l-0.528,-1.8l-1.624,0l-0.344,5.392l1.128,0l0.096,-2.048c0.04,-0.672 0.064,-1.504 0.096,-2.232l0.016,0c0.128,0.704 0.312,1.472 0.488,2.112l0.568,2.08l0.96,0l0.656,-2.096c0.2,-0.624 0.432,-1.408 0.6,-2.096l0.024,0c0,0.784 0.024,1.568 0.048,2.216l0.08,2.064Z"
                  style="fill:#fff;fill-rule:nonzero;"/>
            <path d="M100.298,62.894c0.304,0.168 0.912,0.336 1.528,0.336c1.48,0 2.176,-0.776 2.176,-1.68c0,-0.76 -0.448,-1.256 -1.4,-1.608c-0.696,-0.264 -1,-0.416 -1,-0.76c0,-0.28 0.256,-0.52 0.784,-0.52c0.528,0 0.912,0.152 1.128,0.256l0.272,-0.984c-0.32,-0.144 -0.768,-0.264 -1.376,-0.264c-1.272,0 -2.04,0.696 -2.04,1.616c0,0.784 0.584,1.28 1.48,1.592c0.648,0.232 0.904,0.424 0.904,0.76c0,0.352 -0.296,0.584 -0.856,0.584c-0.52,0 -1.024,-0.168 -1.352,-0.336l-0.248,1.008Z"
                  style="fill:#fff;fill-rule:nonzero;"/>
            <path d="M106.586,63.142l1.176,0l0,-5.2l-1.008,0l-1.376,0.64l0.2,0.912l0.992,-0.472l0.016,0l0,4.12Z"
                  style="fill:#fff;fill-rule:nonzero;"/>
            <path d="M111.778,57.854c-1.344,0 -1.984,1.192 -1.984,2.696c0.008,1.472 0.6,2.68 1.944,2.68c1.328,0 1.976,-1.104 1.976,-2.712c0,-1.424 -0.544,-2.664 -1.936,-2.664Zm-0.016,0.92c0.488,0 0.736,0.608 0.736,1.76c0,1.184 -0.256,1.776 -0.728,1.776c-0.472,0 -0.76,-0.568 -0.752,-1.76c-0.008,-1.208 0.296,-1.776 0.744,-1.776Z"
                  style="fill:#fff;fill-rule:nonzero;"/>
            <path d="M117.65,63.142l1.224,0l0,-4.368l1.472,0l0,-1.024l-4.144,0l0,1.024l1.448,0l0,4.368Z"
                  style="fill:#fff;fill-rule:nonzero;"/>
            <path d="M123.914,63.142l0,-2.248l1.776,-3.144l-1.368,0l-0.544,1.296c-0.16,0.384 -0.288,0.696 -0.408,1.032l-0.016,0c-0.136,-0.352 -0.248,-0.64 -0.416,-1.032l-0.552,-1.296l-1.392,0l1.704,3.184l0,2.208l1.216,0Z"
                  style="fill:#fff;fill-rule:nonzero;"/>
            <path d="M126.53,63.142l1.208,0l0,-1.92c0.112,0.008 0.256,0.024 0.424,0.024c0.712,0 1.328,-0.184 1.744,-0.576c0.32,-0.296 0.496,-0.744 0.496,-1.28c0,-0.528 -0.232,-0.976 -0.576,-1.248c-0.36,-0.288 -0.896,-0.432 -1.648,-0.432c-0.728,0 -1.272,0.048 -1.648,0.112l0,5.32Zm1.208,-4.472c0.088,-0.016 0.248,-0.04 0.488,-0.04c0.632,0 0.968,0.296 0.968,0.8c0,0.544 -0.4,0.872 -1.048,0.872c-0.176,0 -0.32,-0.008 -0.408,-0.024l0,-1.608Z"
                  style="fill:#fff;fill-rule:nonzero;"/>
            <path d="M134.786,59.87l-1.984,0l0,-1.12l2.104,0l0,-1l-3.328,0l0,5.392l3.44,0l0,-1l-2.216,0l0,-1.28l1.984,0l0,-0.992Z"
                  style="fill:#fff;fill-rule:nonzero;"/>
            <path d="M142.906,63.142l1.192,0l-0.296,-5.392l-1.592,0l-0.576,1.792c-0.184,0.6 -0.36,1.336 -0.512,1.96l-0.024,0c-0.12,-0.632 -0.28,-1.336 -0.456,-1.952l-0.528,-1.8l-1.624,0l-0.344,5.392l1.128,0l0.096,-2.048c0.04,-0.672 0.064,-1.504 0.096,-2.232l0.016,0c0.128,0.704 0.312,1.472 0.488,2.112l0.568,2.08l0.96,0l0.656,-2.096c0.2,-0.624 0.432,-1.408 0.6,-2.096l0.024,0c0,0.784 0.024,1.568 0.048,2.216l0.08,2.064Z"
                  style="fill:#fff;fill-rule:nonzero;"/>
            <path d="M145.426,57.75l0,3.024c0,1.72 0.8,2.456 2.16,2.456c1.408,0 2.248,-0.776 2.248,-2.44l0,-3.04l-1.216,0l0,3.12c0,0.944 -0.352,1.384 -0.992,1.384c-0.624,0 -0.976,-0.464 -0.976,-1.384l0,-3.12l-1.224,0Z"
                  style="fill:#fff;fill-rule:nonzero;"/>
            <path d="M151.29,63.142l3.368,0l0,-1.024l-2.144,0l0,-4.368l-1.224,0l0,5.392Z"
                  style="fill:#fff;fill-rule:nonzero;"/>
            <path d="M155.986,63.142l1.224,0l0,-4.368l1.472,0l0,-1.024l-4.144,0l0,1.024l1.448,0l0,4.368Z"
                  style="fill:#fff;fill-rule:nonzero;"/>
            <rect x="159.73"
                  y="57.75"
                  width="1.224"
                  height="5.392"
                  style="fill:#fff;fill-rule:nonzero;"/>
            <path d="M167.05,63.142l1.192,0l-0.296,-5.392l-1.592,0l-0.576,1.792c-0.184,0.6 -0.36,1.336 -0.512,1.96l-0.024,0c-0.12,-0.632 -0.28,-1.336 -0.456,-1.952l-0.528,-1.8l-1.624,0l-0.344,5.392l1.128,0l0.096,-2.048c0.04,-0.672 0.064,-1.504 0.096,-2.232l0.016,0c0.128,0.704 0.312,1.472 0.488,2.112l0.568,2.08l0.96,0l0.656,-2.096c0.2,-0.624 0.432,-1.408 0.6,-2.096l0.024,0c0,0.784 0.024,1.568 0.048,2.216l0.08,2.064Z"
                  style="fill:#fff;fill-rule:nonzero;"/>
            <path d="M171.978,57.662c-1.584,0 -2.648,1.152 -2.648,2.824c0,1.616 0.992,2.744 2.544,2.744c1.448,0 2.64,-0.984 2.64,-2.792c0,-1.576 -0.904,-2.776 -2.536,-2.776Zm-0.048,0.968c0.896,0 1.296,0.912 1.296,1.824c0,0.976 -0.44,1.808 -1.304,1.808c-0.84,0 -1.304,-0.8 -1.304,-1.808c0,-1 0.456,-1.824 1.312,-1.824Z"
                  style="fill:#fff;fill-rule:nonzero;"/>
            <path d="M175.714,63.118c0.304,0.04 0.752,0.08 1.384,0.08c1.056,0 1.92,-0.224 2.488,-0.696c0.52,-0.44 0.896,-1.152 0.896,-2.184c0,-0.952 -0.352,-1.616 -0.912,-2.032c-0.52,-0.392 -1.184,-0.576 -2.208,-0.576c-0.616,0 -1.2,0.04 -1.648,0.112l0,5.296Zm1.224,-4.424c0.104,-0.024 0.28,-0.048 0.552,-0.048c1.048,0 1.704,0.592 1.696,1.712c0,1.288 -0.72,1.896 -1.824,1.888c-0.152,0 -0.32,0 -0.424,-0.024l0,-3.528Z"
                  style="fill:#fff;fill-rule:nonzero;"/>
            <path d="M184.89,59.87l-1.984,0l0,-1.12l2.104,0l0,-1l-3.328,0l0,5.392l3.44,0l0,-1l-2.216,0l0,-1.28l1.984,0l0,-0.992Z"
                  style="fill:#fff;fill-rule:nonzero;"/>
            <path d="M188.37,63.142l1.224,0l0,-2.168l1.936,0l0,-0.992l-1.936,0l0,-1.232l2.072,0l0,-1l-3.296,0l0,5.392Z"
                  style="fill:#fff;fill-rule:nonzero;"/>
            <rect x="192.986"
                  y="57.75"
                  width="1.224"
                  height="5.392"
                  style="fill:#fff;fill-rule:nonzero;"/>
            <path d="M195.666,63.142l3.368,0l0,-1.024l-2.144,0l0,-4.368l-1.224,0l0,5.392Z"
                  style="fill:#fff;fill-rule:nonzero;"/>
            <path d="M200.362,63.142l1.224,0l0,-4.368l1.472,0l0,-1.024l-4.144,0l0,1.024l1.448,0l0,4.368Z"
                  style="fill:#fff;fill-rule:nonzero;"/>
            <path d="M207.314,59.87l-1.984,0l0,-1.12l2.104,0l0,-1l-3.328,0l0,5.392l3.44,0l0,-1l-2.216,0l0,-1.28l1.984,0l0,-0.992Z"
                  style="fill:#fff;fill-rule:nonzero;"/>
            <path d="M208.778,63.142l1.208,0l0,-2.12l0.368,0c0.496,0.008 0.728,0.192 0.872,0.864c0.16,0.664 0.288,1.104 0.376,1.256l1.248,0c-0.104,-0.208 -0.272,-0.912 -0.44,-1.52c-0.136,-0.496 -0.344,-0.856 -0.72,-1.008l0,-0.024c0.464,-0.168 0.952,-0.64 0.952,-1.328c0,-0.496 -0.176,-0.872 -0.496,-1.128c-0.384,-0.304 -0.944,-0.424 -1.744,-0.424c-0.648,0 -1.232,0.048 -1.624,0.112l0,5.32Zm1.208,-4.488c0.088,-0.016 0.256,-0.04 0.552,-0.04c0.56,0.008 0.896,0.256 0.896,0.752c0,0.472 -0.36,0.776 -0.968,0.776l-0.48,0l0,-1.488Z"
                  style="fill:#fff;fill-rule:nonzero;"/>
        </g>
    </g>
    <g transform="matrix(2.23457,0.000425407,0,2.23431,-12.4573,-200.551)">
        <g id="Name">
            <path d="M51.557,107.273c0.211,0 0.75,-0.037 0.75,-0.357c0,-0.291 -0.451,-0.393 -0.75,-0.538c-1.084,-0.517 -1.288,-2.169 -1.288,-3.377c0,-1.244 0.219,-2.576 0.502,-3.755c0.343,-1.419 1.092,-3.908 2.162,-4.818c0.116,-0.101 0.24,-0.181 0.24,-0.334c0,-0.313 -0.48,-0.473 -0.728,-0.473c-0.284,0 -0.786,0.218 -1.128,0.422c-2.11,1.266 -3.908,5.429 -4.883,7.379c-0.225,0.444 -0.575,1.172 -0.706,1.172c-0.08,0 -0.072,-0.255 -0.072,-0.43c0,-1.957 1.12,-7.786 2.714,-9.016c0.204,-0.16 0.444,-0.262 0.444,-0.473c0,-0.335 -0.619,-0.386 -0.881,-0.386c-0.087,0 -0.24,0.007 -0.655,0.182c-2.176,0.91 -3.871,3.202 -5.217,5.334c-0.706,1.121 -1.289,2.154 -1.849,3.129c-0.356,0.626 -0.684,1.201 -1.055,1.805c-0.604,1.004 -1.98,3.384 -3.435,3.384c-0.349,0 -0.655,-0.138 -0.655,-0.568c0,-0.88 1.135,-2.306 1.776,-2.991c0.109,-0.123 0.153,-0.203 0.153,-0.312c0,-0.481 -0.968,-0.946 -1.478,-0.946c-0.735,0 -1.302,0.967 -1.579,1.579c-0.298,0.64 -0.466,1.295 -0.466,1.943c0,1.426 0.823,2.183 2.453,2.183c3.551,0 5.181,-3.588 7.11,-7.328c0.189,-0.371 0.844,-1.638 1.717,-2.737c-0.371,1.245 -0.567,3.159 -0.567,4.578c0,0.706 0.05,2.765 1.222,2.765c0.881,0 1.332,-1.179 1.819,-2.19c0.313,-0.655 0.859,-1.674 1.536,-2.627c-0.167,0.938 -0.262,1.892 -0.262,2.838c0,1.994 0.429,4.461 2.656,4.919c0.182,0.037 0.306,0.044 0.4,0.044Z"
                  style="fill-rule:nonzero;"/>
            <path d="M54.49,102.564c0,-0.385 0.67,-1.651 0.866,-2.161c0.095,-0.24 0.459,-1.062 0.459,-1.368c0,-0.531 -1.07,-0.822 -1.492,-0.924c0.116,-0.219 0.284,-0.517 0.284,-0.786c0,-0.553 -0.714,-0.793 -1.201,-0.793c-0.335,0 -0.721,0.116 -0.968,0.48c-0.138,0.196 -0.277,0.524 -0.277,0.822c0,0.16 0.037,0.371 0.131,0.481c-0.305,0.735 -0.589,1.462 -0.866,2.088c-0.072,0.16 -0.094,0.218 -0.094,0.277c0,0.211 0.291,0.225 0.458,0.225l0.175,0c0.226,0 0.626,-0.014 0.691,-0.153l0.939,-1.943c0.007,-0.014 0.022,0 0.036,0c0.022,0 0.219,0.059 0.277,0.08c0.124,0.051 0.16,0.131 0.16,0.292c0,0.887 -1.113,2.241 -1.113,3.151c0,0.786 0.829,1.04 1.535,1.04c1.645,0 2.249,-1.39 2.787,-2.423c0.131,-0.262 0.153,-0.313 0.153,-0.371c0,-0.313 -0.626,-0.335 -0.844,-0.335c-0.138,0 -0.349,0.007 -0.524,0.349c-0.109,0.204 -1.004,2.103 -1.47,2.103c-0.08,0 -0.102,-0.058 -0.102,-0.131Z"
                  style="fill-rule:nonzero;"/>
            <path d="M59.985,100.942c-0.081,-0.335 -0.255,-0.735 -0.437,-1.085c-0.269,-0.516 -0.611,-1.033 -0.611,-1.593c0,-0.335 0.123,-0.699 0.305,-0.954c0,-0.269 -0.458,-0.436 -0.677,-0.436c-0.895,0 -2.197,2.969 -2.517,3.762c0,0.247 0.443,0.269 0.64,0.269c0.145,0 0.611,-0.014 0.8,-0.335c0.059,-0.101 0.182,-0.385 0.313,-0.654c0.277,0.545 0.481,0.967 0.481,1.513c0,0.466 -0.146,1.412 -0.59,1.412c-0.364,0 -0.298,-0.633 -0.327,-0.808c-0.051,-0.327 -0.575,-0.371 -0.779,-0.371c-0.269,0 -1.004,0.073 -1.004,0.4l0,0.022c0.123,0.961 1.281,1.339 2.292,1.339c1.688,0 3.297,-1.055 4.105,-2.583c0.08,-0.153 0.101,-0.219 0.101,-0.277c0,-0.32 -0.524,-0.393 -0.778,-0.393c-0.117,0 -0.386,0.015 -0.495,0.204c-0.08,0.131 -0.466,1.026 -0.677,1.026c-0.044,0 -0.065,-0.029 -0.08,-0.087c-0.015,-0.073 -0.022,-0.189 -0.065,-0.371Z"
                  style="fill-rule:nonzero;"/>
            <path d="M61.549,102.834c-0.044,0 -0.247,0 -0.429,0.094c-0.058,0.029 -0.459,0.226 -0.459,0.364c0,0.051 0.059,0.146 0.088,0.189c0.174,0.255 0.567,0.299 0.873,0.299l0.007,0c0.255,0 0.961,-0.175 0.961,-0.437c0,-0.073 -0.058,-0.167 -0.088,-0.211c-0.174,-0.255 -0.567,-0.298 -0.953,-0.298Z"
                  style="fill-rule:nonzero;"/>
            <path d="M79.568,94.887c0,0.706 -0.342,1.339 -1.063,1.623c-0.182,0.073 -0.254,0.073 -0.436,0.102c-0.27,0.043 -0.823,0.094 -0.859,0.407c0.007,0.015 0,0.037 0.007,0.044c0.029,0.065 0.037,0.109 0.095,0.167c0.182,0.182 0.589,0.226 0.829,0.226c0.313,0 0.67,-0.073 0.881,-0.124c1.303,-0.313 2.343,-1.026 2.343,-2.401c0,-1.929 -2.023,-3.006 -3.82,-3.006c-1.594,0 -3.814,0.852 -3.814,2.882c0,1.666 1.492,3.187 2.336,4.767c0.553,1.047 0.866,2.205 0.866,3.369c0,2.212 -1.128,3.529 -3.245,3.529c-2.38,0 -3.923,-1.79 -3.923,-4.148c0,-0.866 0.211,-2.692 1.674,-2.692c1.237,0 1.346,1.295 2.3,1.295c0.247,0 0.8,-0.08 0.8,-0.422c0,-0.153 -0.109,-0.291 -0.233,-0.408c-0.669,-0.676 -1.87,-1.098 -2.889,-1.098c-1.943,0 -3.733,1.528 -3.733,3.747c0,3.028 3.34,4.534 6.135,4.534c2.518,0 5.203,-1.222 5.203,-4.272c0,-3.471 -3.5,-6.054 -3.5,-8.332c0,-1.143 0.873,-2.06 1.994,-2.06c1.288,0 2.052,1.208 2.052,2.271Z"
                  style="fill-rule:nonzero;"/>
            <path d="M86.721,101.407c0.168,-0.327 0.386,-0.72 0.386,-0.873c0,-0.255 -0.56,-0.291 -0.793,-0.291c-0.204,0 -0.393,0.029 -0.597,0.371c-0.196,0.328 -1.07,2.089 -1.528,2.089c-0.124,0 -0.146,-0.139 -0.146,-0.204c0,-0.102 0.044,-0.255 0.08,-0.371l1.514,-4.105c0.015,-0.036 0.022,-0.08 0.022,-0.116c0,-0.378 -0.764,-0.429 -1.055,-0.429c-0.219,0 -0.473,0.029 -0.597,0.254c-0.291,-0.152 -0.844,-0.254 -1.215,-0.254c-1.863,0 -3.21,2.234 -3.21,3.908c0,1.266 0.706,2.044 1.82,2.044c0.545,0 1.164,-0.189 1.521,-0.436c0.305,0.32 0.727,0.473 1.222,0.473c1.361,0 2.111,-1.143 2.576,-2.06Zm-5.494,0.67c0,-0.371 0.073,-0.75 0.131,-0.983c0.145,-0.625 0.764,-2.699 1.434,-2.699c0.32,0 0.363,0.473 0.363,0.742c0,0.342 -0.072,0.72 -0.138,0.968c-0.16,0.64 -0.822,2.59 -1.47,2.59c-0.298,0 -0.32,-0.436 -0.32,-0.618Z"
                  style="fill-rule:nonzero;"/>
            <path d="M86.918,102.47c0,-0.284 0.131,-0.684 0.291,-1.084c0.182,-0.459 2.692,-6.732 2.692,-7.052c0,-0.16 -0.618,-0.248 -0.916,-0.248c-0.153,0 -0.67,0.022 -0.859,0.444c-0.044,0.102 -0.153,0.415 -0.269,0.721l-0.634,1.586c-0.596,1.507 -1.208,3.02 -1.55,3.894c-0.327,0.858 -0.385,1.091 -0.385,1.339c0,0.975 0.888,1.411 1.761,1.411c1.433,0 2.096,-1.164 2.467,-1.877c0.276,-0.539 0.48,-0.866 0.48,-1.034c0,-0.298 -0.611,-0.334 -0.83,-0.334c-0.145,0 -0.363,0.022 -0.531,0.349c-0.145,0.298 -0.909,2.191 -1.506,2.191c-0.182,0 -0.211,-0.182 -0.211,-0.306Z"
                  style="fill-rule:nonzero;"/>
            <path d="M89.829,102.47c0,-0.284 0.131,-0.684 0.291,-1.084c0.182,-0.459 2.692,-6.732 2.692,-7.052c0,-0.16 -0.618,-0.248 -0.917,-0.248c-0.152,0 -0.669,0.022 -0.858,0.444c-0.044,0.102 -0.153,0.415 -0.27,0.721l-0.633,1.586c-0.596,1.507 -1.208,3.02 -1.55,3.894c-0.327,0.858 -0.385,1.091 -0.385,1.339c0,0.975 0.887,1.411 1.761,1.411c1.433,0 2.096,-1.164 2.467,-1.877c0.276,-0.539 0.48,-0.866 0.48,-1.034c0,-0.298 -0.611,-0.334 -0.83,-0.334c-0.145,0 -0.363,0.022 -0.531,0.349c-0.145,0.298 -0.909,2.191 -1.506,2.191c-0.182,0 -0.211,-0.182 -0.211,-0.306Z"
                  style="fill-rule:nonzero;"/>
            <path d="M95.221,98.009c-0.124,0.247 -0.211,0.553 -0.385,1.004c-0.139,0.349 -1.383,3.595 -1.929,3.595c-0.146,0 -0.182,-0.233 -0.182,-0.378c0,-0.895 1.252,-3.188 1.608,-4.141c0.037,-0.102 0.044,-0.146 0.044,-0.182c0,-0.335 -0.611,-0.422 -0.924,-0.422c-0.153,0 -0.641,0.022 -0.808,0.335c-0.051,0.109 -0.124,0.349 -0.298,0.778c-0.204,0.495 -1.056,2.511 -1.099,3.202c-0.007,0.044 -0.007,0.102 -0.007,0.124c0,1.099 0.567,1.492 1.579,1.492c0.08,0 0.153,0 0.211,-0.007c-0.022,0.138 -0.066,0.269 -0.109,0.393c-1.107,0.254 -3.29,1.448 -3.29,2.874c0,0.866 0.793,1.368 1.696,1.368c1.936,0 2.707,-2.307 3.1,-3.842l-0.007,0c0.662,-0.24 1.419,-0.568 2.132,-1.179c0.48,-0.415 1.15,-1.135 1.499,-1.812c0.109,-0.211 0.284,-0.502 0.284,-0.655c0,-0.262 -0.568,-0.313 -0.844,-0.313c-0.131,0 -0.35,-0.007 -0.67,0.626c-0.313,0.618 -0.829,1.215 -1.732,1.972c0.175,-0.451 1.921,-4.781 1.921,-5.087c0,-0.182 -0.611,-0.269 -0.997,-0.269c-0.334,0 -0.574,0.065 -0.793,0.524Zm-4.454,8.805c0,-0.64 1.187,-1.746 1.791,-1.914c-0.109,0.459 -0.932,2.198 -1.529,2.198c-0.109,0 -0.262,-0.058 -0.262,-0.284Z"
                  style="fill-rule:nonzero;"/>
        </g>
    </g>
    <g id="Logo"
       transform="matrix(1,0,0,1,15,0)">
        <g transform="matrix(0.0830615,0,0,0.0830615,109.213,349.922)">
            <path d="M232.321,164.268c-0.551,-1.407 -1.25,-2.487 -1.733,-4.267l0.016,0c-0.034,0 -0.056,-0.074 -0.088,-0.149c-0.062,-0.193 -0.122,-0.353 -0.173,-0.548c-0.097,-0.365 -0.189,-0.759 -0.253,-1.179c-0.043,-2.08 1.872,-2.792 1.946,-5.183c0.081,-2.573 -1.476,-3.898 -1.946,-4.241c-0.02,-0.028 -0.037,-0.054 -0.056,-0.082c0.012,-0.037 0.02,-0.068 0.031,-0.104c2.993,-2.433 1.69,-5.738 1.69,-5.738c-0.636,-0.338 -1.313,-0.55 -1.797,-0.98c-4.337,-3.863 -4.606,-6.636 -1.196,-11.288c0.866,-1.185 1.746,-2.375 2.467,-3.649c1.761,-3.117 1.359,-4.599 -1.81,-6.367c-2.28,-1.271 -4.743,-2.218 -6.988,-3.545c-6.396,-3.778 -11.834,-8.521 -15.061,-15.174c2.171,-3.872 2.171,-3.872 1.304,-6.341c-0.791,0.865 -1.527,1.672 -2.688,2.944c0,-3.049 0.294,-5.379 -0.083,-7.595c-0.367,-2.156 -0.85,-4.792 -2.281,-6.178c-5.217,-5.045 -8.175,-11.292 -10.92,-17.796c-2.029,-4.806 -4.196,-9.66 -8.171,-13.236c-2,-1.8 -4.474,-3.072 -6.742,-4.587c0,-1.354 0.017,-2.653 -0.006,-3.951c-0.019,-1.297 0.038,-2.61 -0.136,-3.89c-0.702,-5.113 -4.34,-7.564 -9.404,-6.548c-3.181,0.638 -6.385,1.238 -9.605,1.563c-1.888,0.19 -3.584,0.128 -3.225,-3.432c1.62,0 3.162,0 5.368,0c-1.104,0 -1.515,-1.544 -2.067,-1.769c-2.208,-0.892 -4.045,-0.36 -5.099,1.396c-1.25,2.077 0.023,3.586 1.504,4.555c1.273,0.832 3.004,1.441 4.492,1.365c3.234,-0.167 6.436,-0.842 9.658,-1.296c2.8,-0.394 4.451,0.587 5.01,3.266c0.266,1.278 0.047,2.658 0.047,3.561c-3.72,-1.383 -6.953,-3.369 -10.347,-3.69c-7.432,-0.706 -14.956,-0.912 -22.413,-0.611c-3.084,0.124 -6.484,1.511 -9.049,3.309c-4.547,3.188 -9.441,5.039 -14.773,6.138c-2.549,0.526 -5.106,1.149 -7.55,2.03c-4.689,1.689 -8.626,4.342 -11.53,8.63c-1.595,2.354 -3.836,4.445 -6.188,6.076c-4.591,3.184 -9.001,6.424 -12.144,11.187c-1.712,2.596 -4.124,4.212 -7.839,3.113c-1.104,-4.244 -4.87,-4.911 -8.627,-5.423c-1.764,-0.242 -3.625,-0.32 -5.373,-0.04c-10.247,1.643 -19.554,5.56 -26.813,13.074c-6.565,6.797 -5.937,10.365 -2.739,16.202c2.063,3.766 2.131,7.435 -0.279,11.089c-1.874,2.842 -2.57,6.013 -2.071,9.354c1.284,8.609 4.072,16.22 13.409,19.251c0.615,0.198 1.156,0.607 1.748,0.881c2.125,0.984 3.145,2.592 3.365,4.971c0.144,1.54 0.491,3.357 1.429,4.479c6.245,7.454 20.432,8.503 25.041,-1.951c0.189,-0.432 0.624,-0.756 0.945,-1.129c0.305,0.134 0.609,0.266 0.914,0.399c-0.27,1.348 -0.539,2.694 -0.81,4.042c-0.351,1.75 -1.204,3.572 -0.961,5.235c0.915,6.264 1.484,12.716 3.503,18.648c2.452,7.204 8.53,14.587 18.762,13.197c3.549,-0.483 6.782,0.391 9.818,2.234c1.254,0.76 2.657,1.272 3.912,2.027c3.221,1.943 6.497,1.898 9.857,0.464c2.024,-0.863 4.052,-1.726 6.331,-2.698c-1.16,4.041 -2.278,7.594 -3.189,11.197c-1.336,5.287 -3.631,9.452 -9.941,9.48c-0.115,0 -0.228,0.204 -0.481,0.441c0.473,1.385 0.975,2.855 1.446,4.234c-3.43,5.076 -9.388,5.288 -13.951,7.881c8.949,0.082 15.39,-4.254 16.179,-10.562c4.91,-1.582 7.805,-5.034 9.233,-9.921c0.777,-2.659 1.611,-5.32 2.672,-7.879c1.746,-4.209 4.792,-6.719 9.406,-6.833c-0.302,3.22 -0.579,6.169 -0.855,9.113c-6.687,1.486 -6.819,1.649 -6.534,8.315c-1.583,1.269 -3.238,2.596 -5.685,4.557c6.226,-1.428 7.436,-2.953 8.025,-9.211c0.938,-0.325 1.962,-0.799 3.039,-1.035c4.009,-0.875 4.11,-0.859 3.682,-5.037c-0.251,-2.445 0.739,-3.996 3.163,-5.664c0.451,1.766 0.892,3.088 1.115,4.445c0.316,1.923 0.547,3.867 0.687,5.81c0.517,7.404 -0.06,14.643 -3.457,21.43c-4.159,8.313 -8.334,16.622 -12.413,24.973c-1.174,2.404 -2.482,4.234 -5.172,5.433c-4.265,1.907 -7.421,6.556 -7.757,10.832c15.258,2.949 26.312,6.953 41.04,18.833c9.647,7.785 19.862,11.309 29.399,12.456c0.003,-0.004 10.248,-13.711 19.753,-32.558c-0.241,-0.365 -0.484,-0.728 -0.723,-1.095c-6.25,-9.478 -11.533,-18.592 -13.049,-22.521c-2.853,-7.395 -3.838,-14.659 -2.132,-22.466c1.983,-9.083 3.633,-18.206 7.761,-26.672c2.412,-4.95 6.15,-7.711 11.519,-8.858c6.366,-1.36 12.689,-3.037 18.94,-4.868c6.706,-1.966 9.308,-7.753 6.747,-14.275Z"
                  style="fill-rule:nonzero;"/>
        </g>
        <g transform="matrix(0.0830615,0,0,0.0830615,110.213,350.922)">
            <path d="M232.321,164.268c-0.551,-1.407 -1.25,-2.487 -1.733,-4.267l0.016,0c-0.034,0 -0.056,-0.074 -0.088,-0.149c-0.062,-0.193 -0.122,-0.353 -0.173,-0.548c-0.097,-0.365 -0.189,-0.759 -0.253,-1.179c-0.043,-2.08 1.872,-2.792 1.946,-5.183c0.081,-2.573 -1.476,-3.898 -1.946,-4.241c-0.02,-0.028 -0.037,-0.054 -0.056,-0.082c0.012,-0.037 0.02,-0.068 0.031,-0.104c2.993,-2.433 1.69,-5.738 1.69,-5.738c-0.636,-0.338 -1.313,-0.55 -1.797,-0.98c-4.337,-3.863 -4.606,-6.636 -1.196,-11.288c0.866,-1.185 1.746,-2.375 2.467,-3.649c1.761,-3.117 1.359,-4.599 -1.81,-6.367c-2.28,-1.271 -4.743,-2.218 -6.988,-3.545c-6.396,-3.778 -11.834,-8.521 -15.061,-15.174c2.171,-3.872 2.171,-3.872 1.304,-6.341c-0.791,0.865 -1.527,1.672 -2.688,2.944c0,-3.049 0.294,-5.379 -0.083,-7.595c-0.367,-2.156 -0.85,-4.792 -2.281,-6.178c-5.217,-5.045 -8.175,-11.292 -10.92,-17.796c-2.029,-4.806 -4.196,-9.66 -8.171,-13.236c-2,-1.8 -4.474,-3.072 -6.742,-4.587c0,-1.354 0.017,-2.653 -0.006,-3.951c-0.019,-1.297 0.038,-2.61 -0.136,-3.89c-0.702,-5.113 -4.34,-7.564 -9.404,-6.548c-3.181,0.638 -6.385,1.238 -9.605,1.563c-1.888,0.19 -3.584,0.128 -3.225,-3.432c1.62,0 3.162,0 5.368,0c-1.104,0 -1.515,-1.544 -2.067,-1.769c-2.208,-0.892 -4.045,-0.36 -5.099,1.396c-1.25,2.077 0.023,3.586 1.504,4.555c1.273,0.832 3.004,1.441 4.492,1.365c3.234,-0.167 6.436,-0.842 9.658,-1.296c2.8,-0.394 4.451,0.587 5.01,3.266c0.266,1.278 0.047,2.658 0.047,3.561c-3.72,-1.383 -6.953,-3.369 -10.347,-3.69c-7.432,-0.706 -14.956,-0.912 -22.413,-0.611c-3.084,0.124 -6.484,1.511 -9.049,3.309c-4.547,3.188 -9.441,5.039 -14.773,6.138c-2.549,0.526 -5.106,1.149 -7.55,2.03c-4.689,1.689 -8.626,4.342 -11.53,8.63c-1.595,2.354 -3.836,4.445 -6.188,6.076c-4.591,3.184 -9.001,6.424 -12.144,11.187c-1.712,2.596 -4.124,4.212 -7.839,3.113c-1.104,-4.244 -4.87,-4.911 -8.627,-5.423c-1.764,-0.242 -3.625,-0.32 -5.373,-0.04c-10.247,1.643 -19.554,5.56 -26.813,13.074c-6.565,6.797 -5.937,10.365 -2.739,16.202c2.063,3.766 2.131,7.435 -0.279,11.089c-1.874,2.842 -2.57,6.013 -2.071,9.354c1.284,8.609 4.072,16.22 13.409,19.251c0.615,0.198 1.156,0.607 1.748,0.881c2.125,0.984 3.145,2.592 3.365,4.971c0.144,1.54 0.491,3.357 1.429,4.479c6.245,7.454 20.432,8.503 25.041,-1.951c0.189,-0.432 0.624,-0.756 0.945,-1.129c0.305,0.134 0.609,0.266 0.914,0.399c-0.27,1.348 -0.539,2.694 -0.81,4.042c-0.351,1.75 -1.204,3.572 -0.961,5.235c0.915,6.264 1.484,12.716 3.503,18.648c2.452,7.204 8.53,14.587 18.762,13.197c3.549,-0.483 6.782,0.391 9.818,2.234c1.254,0.76 2.657,1.272 3.912,2.027c3.221,1.943 6.497,1.898 9.857,0.464c2.024,-0.863 4.052,-1.726 6.331,-2.698c-1.16,4.041 -2.278,7.594 -3.189,11.197c-1.336,5.287 -3.631,9.452 -9.941,9.48c-0.115,0 -0.228,0.204 -0.481,0.441c0.473,1.385 0.975,2.855 1.446,4.234c-3.43,5.076 -9.388,5.288 -13.951,7.881c8.949,0.082 15.39,-4.254 16.179,-10.562c4.91,-1.582 7.805,-5.034 9.233,-9.921c0.777,-2.659 1.611,-5.32 2.672,-7.879c1.746,-4.209 4.792,-6.719 9.406,-6.833c-0.302,3.22 -0.579,6.169 -0.855,9.113c-6.687,1.486 -6.819,1.649 -6.534,8.315c-1.583,1.269 -3.238,2.596 -5.685,4.557c6.226,-1.428 7.436,-2.953 8.025,-9.211c0.938,-0.325 1.962,-0.799 3.039,-1.035c4.009,-0.875 4.11,-0.859 3.682,-5.037c-0.251,-2.445 0.739,-3.996 3.163,-5.664c0.451,1.766 0.892,3.088 1.115,4.445c0.316,1.923 0.547,3.867 0.687,5.81c0.517,7.404 -0.06,14.643 -3.457,21.43c-4.159,8.313 -8.334,16.622 -12.413,24.973c-1.174,2.404 -2.482,4.234 -5.172,5.433c-4.265,1.907 -7.421,6.556 -7.757,10.832c15.258,2.949 26.312,6.953 41.04,18.833c9.647,7.785 19.862,11.309 29.399,12.456c0.003,-0.004 10.248,-13.711 19.753,-32.558c-0.241,-0.365 -0.484,-0.728 -0.723,-1.095c-6.25,-9.478 -11.533,-18.592 -13.049,-22.521c-2.853,-7.395 -3.838,-14.659 -2.132,-22.466c1.983,-9.083 3.633,-18.206 7.761,-26.672c2.412,-4.95 6.15,-7.711 11.519,-8.858c6.366,-1.36 12.689,-3.037 18.94,-4.868c6.706,-1.966 9.308,-7.753 6.747,-14.275Z"
                  style="fill-opacity:0.243137;fill-rule:nonzero;"/>
        </g>
    </g>
</svg>
