<?xml version="1.0" encoding="UTF-8" standalone="no"?>
<!DOCTYPE svg PUBLIC "-//W3C//DTD SVG 1.1//EN" "http://www.w3.org/Graphics/SVG/1.1/DTD/svg11.dtd">
<svg xmlns:xlink="http://www.w3.org/1999/xlink" xmlns:serif="http://www.serif.com/" width="105px" height="380px" version="1.1" xmlns="http://www.w3.org/2000/svg" xml:space="preserve" style="fill-rule:evenodd;clip-rule:evenodd;stroke-miterlimit:10;">
    <g id="Panel" transform="matrix(1.4,0,0,1,-7.10543e-15,0)">
        <rect x="0" y="0" width="75" height="380" style="fill:#161616;"/>
    </g>
    <g transform="matrix(0.474034,0,0,1,38.7372,3.21777)">
        <rect x="72.299" y="60.454" width="4.707" height="150.676" style="fill:#a6a6a6;"/>
    </g>
    <g id="Scales" transform="matrix(1,0,0,1,7.5,0)">
        <g id="ScaleSmall_3_" transform="matrix(1,0,0,1,-6.09332,-115.43)">
            <g id="OuterCircle_4_" transform="matrix(0.871536,0,0,0.871536,9.37732,23.2294)">
                <path d="M66.295,194.337c-4.545,-2.404 -7.642,-7.182 -7.642,-12.684c0,-7.92 6.422,-14.343 14.342,-14.343c7.921,0 14.343,6.423 14.343,14.343c0,5.459 -3.05,10.206 -7.538,12.628" style="fill:none;stroke:#f9f9f9;stroke-width:4.93px;"/>
            </g>
            <circle id="Circle_4_" cx="72.995" cy="181.659" r="11.474" style="fill:#323232;"/>
        </g>
        <g id="ScaleSmall_3_1" serif:id="ScaleSmall_3_" transform="matrix(1,0,0,1,-6.09332,-80.43)">
            <g id="OuterCircle_4_1" serif:id="OuterCircle_4_" transform="matrix(0.871536,0,0,0.871536,9.37732,23.2294)">
                <path d="M66.295,194.337c-4.545,-2.404 -7.642,-7.182 -7.642,-12.684c0,-7.92 6.422,-14.343 14.342,-14.343c7.921,0 14.343,6.423 14.343,14.343c0,5.459 -3.05,10.206 -7.538,12.628" style="fill:none;stroke:#f9f9f9;stroke-width:4.93px;"/>
            </g>
            <circle id="Circle_4_1" serif:id="Circle_4_" cx="72.995" cy="181.659" r="11.474" style="fill:#323232;"/>
        </g>
        <g id="ScaleSmall_3_2" serif:id="ScaleSmall_3_" transform="matrix(1,0,0,1,-6.09332,-45.43)">
            <g id="OuterCircle_4_2" serif:id="OuterCircle_4_" transform="matrix(0.871536,0,0,0.871536,9.37732,23.2294)">
                <path d="M66.295,194.337c-4.545,-2.404 -7.642,-7.182 -7.642,-12.684c0,-7.92 6.422,-14.343 14.342,-14.343c7.921,0 14.343,6.423 14.343,14.343c0,5.459 -3.05,10.206 -7.538,12.628" style="fill:none;stroke:#f9f9f9;stroke-width:4.93px;"/>
            </g>
            <circle id="Circle_4_2" serif:id="Circle_4_" cx="72.995" cy="181.659" r="11.474" style="fill:#323232;"/>
        </g>
        <g id="ScaleSmall_3_3" serif:id="ScaleSmall_3_" transform="matrix(1,0,0,1,-6.09332,-10.43)">
            <g id="OuterCircle_4_3" serif:id="OuterCircle_4_" transform="matrix(0.871536,0,0,0.871536,9.37732,23.2294)">
                <path d="M66.295,194.337c-4.545,-2.404 -7.642,-7.182 -7.642,-12.684c0,-7.92 6.422,-14.343 14.342,-14.343c7.921,0 14.343,6.423 14.343,14.343c0,5.459 -3.05,10.206 -7.538,12.628" style="fill:none;stroke:#f9f9f9;stroke-width:4.93px;"/>
            </g>
            <circle id="Circle_4_3" serif:id="Circle_4_" cx="72.995" cy="181.659" r="11.474" style="fill:#323232;"/>
        </g>
        <g id="ScaleSmall_3_4" serif:id="ScaleSmall_3_" transform="matrix(1,0,0,1,-6.09332,24.57)">
            <g id="OuterCircle_4_4" serif:id="OuterCircle_4_" transform="matrix(0.871536,0,0,0.871536,9.37732,23.2294)">
                <path d="M66.295,194.337c-4.545,-2.404 -7.642,-7.182 -7.642,-12.684c0,-7.92 6.422,-14.343 14.342,-14.343c7.921,0 14.343,6.423 14.343,14.343c0,5.459 -3.05,10.206 -7.538,12.628" style="fill:none;stroke:#f9f9f9;stroke-width:4.93px;"/>
            </g>
            <circle id="Circle_4_4" serif:id="Circle_4_" cx="72.995" cy="181.659" r="11.474" style="fill:#323232;"/>
        </g>
        <g id="ScaleSmall_3_5" serif:id="ScaleSmall_3_" transform="matrix(1,0,0,1,-6.09332,72.7723)">
            <g id="OuterCircle_4_5" serif:id="OuterCircle_4_" transform="matrix(0.871536,0,0,0.871536,9.37732,23.2294)">
                <path d="M66.295,194.337c-4.545,-2.404 -7.642,-7.182 -7.642,-12.684c0,-7.92 6.422,-14.343 14.342,-14.343c7.921,0 14.343,6.423 14.343,14.343c0,5.459 -3.05,10.206 -7.538,12.628" style="fill:none;stroke:#fff;stroke-width:4.93px;"/>
            </g>
            <circle id="Circle_4_5" serif:id="Circle_4_" cx="72.995" cy="181.659" r="11.474" style="fill:#323232;"/>
        </g>
        <g id="ScaleSmall_3_6" serif:id="ScaleSmall_3_" transform="matrix(-1,0,0,1,96.4955,136.57)">
            <g id="OuterCircle_4_6" serif:id="OuterCircle_4_" transform="matrix(0.941258,0,0,0.941258,4.28787,10.6218)">
                <path d="M66.295,194.337c-4.545,-2.404 -7.642,-7.182 -7.642,-12.684c0,-7.92 6.422,-14.343 14.342,-14.343c7.921,0 14.343,6.423 14.343,14.343c0,5.459 -3.05,10.206 -7.538,12.628" style="fill:#292929;stroke:#fff;stroke-width:4.25px;"/>
            </g>
            <circle id="Circle_4_6" serif:id="Circle_4_" cx="72.995" cy="181.659" r="11.474" style="fill:#323232;"/>
        </g>
    </g>
    <g id="Logo" transform="matrix(1,0,0,1,15.5,0)">
        <g transform="matrix(0.0779295,0,0,0.0779295,27.7136,350.135)">
            <path d="M232.321,164.268c-0.551,-1.407 -1.25,-2.487 -1.733,-4.267l0.016,0c-0.034,0 -0.056,-0.074 -0.088,-0.149c-0.062,-0.193 -0.122,-0.353 -0.173,-0.548c-0.097,-0.365 -0.189,-0.759 -0.253,-1.179c-0.043,-2.08 1.872,-2.792 1.946,-5.183c0.081,-2.573 -1.476,-3.898 -1.946,-4.241c-0.02,-0.028 -0.037,-0.054 -0.056,-0.082c0.012,-0.037 0.02,-0.068 0.031,-0.104c2.993,-2.433 1.69,-5.738 1.69,-5.738c-0.636,-0.338 -1.313,-0.55 -1.797,-0.98c-4.337,-3.863 -4.606,-6.636 -1.196,-11.288c0.866,-1.185 1.746,-2.375 2.467,-3.649c1.761,-3.117 1.359,-4.599 -1.81,-6.367c-2.28,-1.271 -4.743,-2.218 -6.988,-3.545c-6.396,-3.778 -11.834,-8.521 -15.061,-15.174c2.171,-3.872 2.171,-3.872 1.304,-6.341c-0.791,0.865 -1.527,1.672 -2.688,2.944c0,-3.049 0.294,-5.379 -0.083,-7.595c-0.367,-2.156 -0.85,-4.792 -2.281,-6.178c-5.217,-5.045 -8.175,-11.292 -10.92,-17.796c-2.029,-4.806 -4.196,-9.66 -8.171,-13.236c-2,-1.8 -4.474,-3.072 -6.742,-4.587c0,-1.354 0.017,-2.653 -0.006,-3.951c-0.019,-1.297 0.038,-2.61 -0.136,-3.89c-0.702,-5.113 -4.34,-7.564 -9.404,-6.548c-3.181,0.638 -6.385,1.238 -9.605,1.563c-1.888,0.19 -3.584,0.128 -3.225,-3.432c1.62,0 3.162,0 5.368,0c-1.104,0 -1.515,-1.544 -2.067,-1.769c-2.208,-0.892 -4.045,-0.36 -5.099,1.396c-1.25,2.077 0.023,3.586 1.504,4.555c1.273,0.832 3.004,1.441 4.492,1.365c3.234,-0.167 6.436,-0.842 9.658,-1.296c2.8,-0.394 4.451,0.587 5.01,3.266c0.266,1.278 0.047,2.658 0.047,3.561c-3.72,-1.383 -6.953,-3.369 -10.347,-3.69c-7.432,-0.706 -14.956,-0.912 -22.413,-0.611c-3.084,0.124 -6.484,1.511 -9.049,3.309c-4.547,3.188 -9.441,5.039 -14.773,6.138c-2.549,0.526 -5.106,1.149 -7.55,2.03c-4.689,1.689 -8.626,4.342 -11.53,8.63c-1.595,2.354 -3.836,4.445 -6.188,6.076c-4.591,3.184 -9.001,6.424 -12.144,11.187c-1.712,2.596 -4.124,4.212 -7.839,3.113c-1.104,-4.244 -4.87,-4.911 -8.627,-5.423c-1.764,-0.242 -3.625,-0.32 -5.373,-0.04c-10.247,1.643 -19.554,5.56 -26.813,13.074c-6.565,6.797 -5.937,10.365 -2.739,16.202c2.063,3.766 2.131,7.435 -0.279,11.089c-1.874,2.842 -2.57,6.013 -2.071,9.354c1.284,8.609 4.072,16.22 13.409,19.251c0.615,0.198 1.156,0.607 1.748,0.881c2.125,0.984 3.145,2.592 3.365,4.971c0.144,1.54 0.491,3.357 1.429,4.479c6.245,7.454 20.432,8.503 25.041,-1.951c0.189,-0.432 0.624,-0.756 0.945,-1.129c0.305,0.134 0.609,0.266 0.914,0.399c-0.27,1.348 -0.539,2.694 -0.81,4.042c-0.351,1.75 -1.204,3.572 -0.961,5.235c0.915,6.264 1.484,12.716 3.503,18.648c2.452,7.204 8.53,14.587 18.762,13.197c3.549,-0.483 6.782,0.391 9.818,2.234c1.254,0.76 2.657,1.272 3.912,2.027c3.221,1.943 6.497,1.898 9.857,0.464c2.024,-0.863 4.052,-1.726 6.331,-2.698c-1.16,4.041 -2.278,7.594 -3.189,11.197c-1.336,5.287 -3.631,9.452 -9.941,9.48c-0.115,0 -0.228,0.204 -0.481,0.441c0.473,1.385 0.975,2.855 1.446,4.234c-3.43,5.076 -9.388,5.288 -13.951,7.881c8.949,0.082 15.39,-4.254 16.179,-10.562c4.91,-1.582 7.805,-5.034 9.233,-9.921c0.777,-2.659 1.611,-5.32 2.672,-7.879c1.746,-4.209 4.792,-6.719 9.406,-6.833c-0.302,3.22 -0.579,6.169 -0.855,9.113c-6.687,1.486 -6.819,1.649 -6.534,8.315c-1.583,1.269 -3.238,2.596 -5.685,4.557c6.226,-1.428 7.436,-2.953 8.025,-9.211c0.938,-0.325 1.962,-0.799 3.039,-1.035c4.009,-0.875 4.11,-0.859 3.682,-5.037c-0.251,-2.445 0.739,-3.996 3.163,-5.664c0.451,1.766 0.892,3.088 1.115,4.445c0.316,1.923 0.547,3.867 0.687,5.81c0.517,7.404 -0.06,14.643 -3.457,21.43c-4.159,8.313 -8.334,16.622 -12.413,24.973c-1.174,2.404 -2.482,4.234 -5.172,5.433c-4.265,1.907 -7.421,6.556 -7.757,10.832c15.258,2.949 26.312,6.953 41.04,18.833c9.647,7.785 19.862,11.309 29.399,12.456c0.003,-0.004 10.248,-13.711 19.753,-32.558c-0.241,-0.365 -0.484,-0.728 -0.723,-1.095c-6.25,-9.478 -11.533,-18.592 -13.049,-22.521c-2.853,-7.395 -3.838,-14.659 -2.132,-22.466c1.983,-9.083 3.633,-18.206 7.761,-26.672c2.412,-4.95 6.15,-7.711 11.519,-8.858c6.366,-1.36 12.689,-3.037 18.94,-4.868c6.706,-1.966 9.308,-7.753 6.747,-14.275Z" style="fill-opacity:0.760784;fill-rule:nonzero;"/>
        </g>
        <g transform="matrix(0.0779295,0,0,0.0779295,27.0462,349.468)">
            <path d="M232.321,164.268c-0.551,-1.407 -1.25,-2.487 -1.733,-4.267l0.016,0c-0.034,0 -0.056,-0.074 -0.088,-0.149c-0.062,-0.193 -0.122,-0.353 -0.173,-0.548c-0.097,-0.365 -0.189,-0.759 -0.253,-1.179c-0.043,-2.08 1.872,-2.792 1.946,-5.183c0.081,-2.573 -1.476,-3.898 -1.946,-4.241c-0.02,-0.028 -0.037,-0.054 -0.056,-0.082c0.012,-0.037 0.02,-0.068 0.031,-0.104c2.993,-2.433 1.69,-5.738 1.69,-5.738c-0.636,-0.338 -1.313,-0.55 -1.797,-0.98c-4.337,-3.863 -4.606,-6.636 -1.196,-11.288c0.866,-1.185 1.746,-2.375 2.467,-3.649c1.761,-3.117 1.359,-4.599 -1.81,-6.367c-2.28,-1.271 -4.743,-2.218 -6.988,-3.545c-6.396,-3.778 -11.834,-8.521 -15.061,-15.174c2.171,-3.872 2.171,-3.872 1.304,-6.341c-0.791,0.865 -1.527,1.672 -2.688,2.944c0,-3.049 0.294,-5.379 -0.083,-7.595c-0.367,-2.156 -0.85,-4.792 -2.281,-6.178c-5.217,-5.045 -8.175,-11.292 -10.92,-17.796c-2.029,-4.806 -4.196,-9.66 -8.171,-13.236c-2,-1.8 -4.474,-3.072 -6.742,-4.587c0,-1.354 0.017,-2.653 -0.006,-3.951c-0.019,-1.297 0.038,-2.61 -0.136,-3.89c-0.702,-5.113 -4.34,-7.564 -9.404,-6.548c-3.181,0.638 -6.385,1.238 -9.605,1.563c-1.888,0.19 -3.584,0.128 -3.225,-3.432c1.62,0 3.162,0 5.368,0c-1.104,0 -1.515,-1.544 -2.067,-1.769c-2.208,-0.892 -4.045,-0.36 -5.099,1.396c-1.25,2.077 0.023,3.586 1.504,4.555c1.273,0.832 3.004,1.441 4.492,1.365c3.234,-0.167 6.436,-0.842 9.658,-1.296c2.8,-0.394 4.451,0.587 5.01,3.266c0.266,1.278 0.047,2.658 0.047,3.561c-3.72,-1.383 -6.953,-3.369 -10.347,-3.69c-7.432,-0.706 -14.956,-0.912 -22.413,-0.611c-3.084,0.124 -6.484,1.511 -9.049,3.309c-4.547,3.188 -9.441,5.039 -14.773,6.138c-2.549,0.526 -5.106,1.149 -7.55,2.03c-4.689,1.689 -8.626,4.342 -11.53,8.63c-1.595,2.354 -3.836,4.445 -6.188,6.076c-4.591,3.184 -9.001,6.424 -12.144,11.187c-1.712,2.596 -4.124,4.212 -7.839,3.113c-1.104,-4.244 -4.87,-4.911 -8.627,-5.423c-1.764,-0.242 -3.625,-0.32 -5.373,-0.04c-10.247,1.643 -19.554,5.56 -26.813,13.074c-6.565,6.797 -5.937,10.365 -2.739,16.202c2.063,3.766 2.131,7.435 -0.279,11.089c-1.874,2.842 -2.57,6.013 -2.071,9.354c1.284,8.609 4.072,16.22 13.409,19.251c0.615,0.198 1.156,0.607 1.748,0.881c2.125,0.984 3.145,2.592 3.365,4.971c0.144,1.54 0.491,3.357 1.429,4.479c6.245,7.454 20.432,8.503 25.041,-1.951c0.189,-0.432 0.624,-0.756 0.945,-1.129c0.305,0.134 0.609,0.266 0.914,0.399c-0.27,1.348 -0.539,2.694 -0.81,4.042c-0.351,1.75 -1.204,3.572 -0.961,5.235c0.915,6.264 1.484,12.716 3.503,18.648c2.452,7.204 8.53,14.587 18.762,13.197c3.549,-0.483 6.782,0.391 9.818,2.234c1.254,0.76 2.657,1.272 3.912,2.027c3.221,1.943 6.497,1.898 9.857,0.464c2.024,-0.863 4.052,-1.726 6.331,-2.698c-1.16,4.041 -2.278,7.594 -3.189,11.197c-1.336,5.287 -3.631,9.452 -9.941,9.48c-0.115,0 -0.228,0.204 -0.481,0.441c0.473,1.385 0.975,2.855 1.446,4.234c-3.43,5.076 -9.388,5.288 -13.951,7.881c8.949,0.082 15.39,-4.254 16.179,-10.562c4.91,-1.582 7.805,-5.034 9.233,-9.921c0.777,-2.659 1.611,-5.32 2.672,-7.879c1.746,-4.209 4.792,-6.719 9.406,-6.833c-0.302,3.22 -0.579,6.169 -0.855,9.113c-6.687,1.486 -6.819,1.649 -6.534,8.315c-1.583,1.269 -3.238,2.596 -5.685,4.557c6.226,-1.428 7.436,-2.953 8.025,-9.211c0.938,-0.325 1.962,-0.799 3.039,-1.035c4.009,-0.875 4.11,-0.859 3.682,-5.037c-0.251,-2.445 0.739,-3.996 3.163,-5.664c0.451,1.766 0.892,3.088 1.115,4.445c0.316,1.923 0.547,3.867 0.687,5.81c0.517,7.404 -0.06,14.643 -3.457,21.43c-4.159,8.313 -8.334,16.622 -12.413,24.973c-1.174,2.404 -2.482,4.234 -5.172,5.433c-4.265,1.907 -7.421,6.556 -7.757,10.832c15.258,2.949 26.312,6.953 41.04,18.833c9.647,7.785 19.862,11.309 29.399,12.456c0.003,-0.004 10.248,-13.711 19.753,-32.558c-0.241,-0.365 -0.484,-0.728 -0.723,-1.095c-6.25,-9.478 -11.533,-18.592 -13.049,-22.521c-2.853,-7.395 -3.838,-14.659 -2.132,-22.466c1.983,-9.083 3.633,-18.206 7.761,-26.672c2.412,-4.95 6.15,-7.711 11.519,-8.858c6.366,-1.36 12.689,-3.037 18.94,-4.868c6.706,-1.966 9.308,-7.753 6.747,-14.275Z"
                  style="fill:#bababa;fill-opacity:0.760784;fill-rule:nonzero;"/>
        </g>
    </g>
    <g id="Description" transform="matrix(1,0,0,1,-3.89421,-23.7183)">
        <path d="M30.182,63.142l-1.472,0l-1.8,-5.328l1.376,0l1.16,4.056l1.16,-4.056l1.376,0l-1.8,5.328Z" style="fill:#fff;fill-rule:nonzero;stroke:#fff;stroke-width:0.3px;stroke-linejoin:round;stroke-miterlimit:1.41421;"/>
        <path d="M35.438,57.718c0.278,0 0.556,0.027 0.836,0.08c0.28,0.054 0.522,0.131 0.724,0.232l-0.192,0.968c-0.16,-0.064 -0.342,-0.118 -0.548,-0.164c-0.205,-0.045 -0.409,-0.068 -0.612,-0.068c-0.544,0 -0.973,0.142 -1.288,0.424c-0.314,0.283 -0.472,0.712 -0.472,1.288c0,0.576 0.158,1.006 0.472,1.288c0.315,0.283 0.744,0.424 1.288,0.424c0.203,0 0.407,-0.022 0.612,-0.068c0.206,-0.045 0.388,-0.1 0.548,-0.164l0.192,0.968c-0.202,0.102 -0.444,0.179 -0.724,0.232c-0.28,0.054 -0.558,0.08 -0.836,0.08c-0.469,0 -0.882,-0.069 -1.24,-0.208c-0.357,-0.138 -0.656,-0.33 -0.896,-0.576c-0.24,-0.245 -0.421,-0.536 -0.544,-0.872c-0.122,-0.336 -0.184,-0.704 -0.184,-1.104c0,-0.4 0.062,-0.768 0.184,-1.104c0.123,-0.336 0.304,-0.626 0.544,-0.872c0.24,-0.245 0.539,-0.437 0.896,-0.576c0.358,-0.138 0.771,-0.208 1.24,-0.208Z" style="fill:#fff;fill-rule:nonzero;stroke:#fff;stroke-width:0.3px;stroke-linejoin:round;stroke-miterlimit:1.41421;"/>
        <path d="M43.926,62.294l-1.264,0l-1.04,-2.136l-0.16,2.984l-1.288,0l0.4,-5.328l1.184,0l1.536,3.256l1.536,-3.256l1.184,0l0.4,5.328l-1.288,0l-0.16,-2.984l-1.04,2.136Z" style="fill:#fff;fill-rule:nonzero;stroke:#fff;stroke-width:0.3px;stroke-linejoin:round;stroke-miterlimit:1.41421;"/>
        <rect x="47.71" y="57.814" width="1.312" height="5.328" style="fill:#fff;fill-rule:nonzero;stroke:#fff;stroke-width:0.3px;stroke-linejoin:round;stroke-miterlimit:1.41421;"/>
        <path d="M53.27,60.462l1.8,2.68l-1.4,0l-1.072,-1.704l-1.072,1.704l-1.4,0l1.8,-2.68l-1.768,-2.648l1.392,0l1.048,1.664l1.048,-1.664l1.392,0l-1.768,2.648Z" style="fill:#fff;fill-rule:nonzero;stroke:#fff;stroke-width:0.3px;stroke-linejoin:round;stroke-miterlimit:1.41421;"/>
        <path d="M56.134,57.814l3.32,0l0,1.04l-2.008,0l0,1.072l1.912,0l0,1.04l-1.912,0l0,1.136l2.032,0l0,1.04l-3.344,0l0,-5.328Z" style="fill:#fff;fill-rule:nonzero;stroke:#fff;stroke-width:0.3px;stroke-linejoin:round;stroke-miterlimit:1.41421;"/>
        <path d="M64.798,59.502c0,0.358 -0.1,0.67 -0.3,0.936c-0.2,0.267 -0.478,0.47 -0.836,0.608l1.752,2.096l-1.616,0l-1.464,-1.848l-0.24,0l0,1.848l-1.312,0l0,-5.328l1.696,0c0.331,0 0.638,0.035 0.92,0.104c0.283,0.07 0.528,0.174 0.736,0.312c0.208,0.139 0.371,0.314 0.488,0.524c0.118,0.211 0.176,0.46 0.176,0.748Zm-1.264,0.024c0,-0.24 -0.093,-0.417 -0.28,-0.532c-0.186,-0.114 -0.448,-0.172 -0.784,-0.172l-0.376,0l0,1.496l0.32,0c0.352,0 0.627,-0.069 0.824,-0.208c0.198,-0.138 0.296,-0.333 0.296,-0.584Z" style="fill:#fff;fill-rule:nonzero;stroke:#fff;stroke-width:0.3px;stroke-linejoin:round;stroke-miterlimit:1.41421;"/>
        <path d="M71.71,62.11l-2.04,0l-0.328,1.032l-1.352,0l1.984,-5.328l1.44,0l1.984,5.328l-1.352,0l-0.336,-1.032Zm-1.704,-1.04l1.368,0l-0.68,-2.248l-0.688,2.248Z" style="fill:#fff;fill-rule:nonzero;stroke:#fff;stroke-width:0.3px;stroke-linejoin:round;stroke-miterlimit:1.41421;"/>
        <path d="M77.982,62.294l-1.264,0l-1.04,-2.136l-0.16,2.984l-1.288,0l0.4,-5.328l1.184,0l1.536,3.256l1.536,-3.256l1.184,0l0.4,5.328l-1.288,0l-0.16,-2.984l-1.04,2.136Z" style="fill:#fff;fill-rule:nonzero;stroke:#fff;stroke-width:0.3px;stroke-linejoin:round;stroke-miterlimit:1.41421;"/>
        <path d="M85.582,59.55c0,0.283 -0.061,0.536 -0.184,0.76c-0.122,0.224 -0.292,0.412 -0.508,0.564c-0.216,0.152 -0.47,0.268 -0.764,0.348c-0.293,0.08 -0.61,0.12 -0.952,0.12l-0.136,0l0,1.8l-1.312,0l0,-5.328l1.536,0c0.336,0 0.647,0.035 0.932,0.104c0.286,0.07 0.531,0.175 0.736,0.316c0.206,0.142 0.366,0.322 0.48,0.54c0.115,0.219 0.172,0.478 0.172,0.776Zm-1.264,0.008c0,-0.49 -0.349,-0.736 -1.048,-0.736l-0.232,0l0,1.512l0.216,0c0.347,0 0.611,-0.069 0.792,-0.208c0.182,-0.138 0.272,-0.328 0.272,-0.568Z" style="fill:#fff;fill-rule:nonzero;stroke:#fff;stroke-width:0.3px;stroke-linejoin:round;stroke-miterlimit:1.41421;"/>
    </g>
    <g id="Label" transform="matrix(1,0,0,1,7.5,0)">
        <g id="Description1" serif:id="Description" transform="matrix(1,0,0,1,-9.6616,216.412)">
            <path d="M30.022,57.718c0.24,0 0.491,0.023 0.752,0.068c0.262,0.046 0.48,0.106 0.656,0.18l-0.12,0.568c-0.181,-0.064 -0.376,-0.116 -0.584,-0.156c-0.208,-0.04 -0.413,-0.06 -0.616,-0.06c-0.666,0 -1.186,0.187 -1.56,0.56c-0.373,0.374 -0.56,0.907 -0.56,1.6c0,0.694 0.187,1.227 0.56,1.6c0.374,0.374 0.894,0.56 1.56,0.56c0.203,0 0.408,-0.02 0.616,-0.06c0.208,-0.04 0.403,-0.092 0.584,-0.156l0.12,0.568c-0.176,0.075 -0.394,0.135 -0.656,0.18c-0.261,0.046 -0.512,0.068 -0.752,0.068c-0.437,0 -0.828,-0.069 -1.172,-0.208c-0.344,-0.138 -0.633,-0.33 -0.868,-0.576c-0.234,-0.245 -0.414,-0.536 -0.54,-0.872c-0.125,-0.336 -0.188,-0.704 -0.188,-1.104c0,-0.4 0.063,-0.768 0.188,-1.104c0.126,-0.336 0.306,-0.626 0.54,-0.872c0.235,-0.245 0.524,-0.437 0.868,-0.576c0.344,-0.138 0.735,-0.208 1.172,-0.208Z" style="fill:#fff;fill-rule:nonzero;stroke:#fff;stroke-width:0.3px;stroke-linejoin:round;stroke-miterlimit:1.41421;"/>
            <path d="M36.166,57.814l0.736,0l-1.912,5.328l-0.768,0l-1.912,-5.328l0.736,0l1.56,4.456l1.56,-4.456Z" style="fill:#fff;fill-rule:nonzero;stroke:#fff;stroke-width:0.3px;stroke-linejoin:round;stroke-miterlimit:1.41421;"/>
        </g>
        <g id="Shapes">
            <g id="Description2" serif:id="Description" transform="matrix(1,0,0,1,53.982,203.234)">
                <path d="M27.42,59.146l2.136,0l0,0.336l-1.728,0l0,1.446l1.656,0l0,0.336l-1.656,0l0,1.542l1.746,0l0,0.336l-2.154,0l0,-3.996Z" style="fill:#fff;fill-rule:nonzero;stroke:#fff;stroke-width:0.3px;stroke-linejoin:round;stroke-miterlimit:1.41421;"/>
                <path d="M33.108,59.146l0.45,0l-1.338,1.986l1.362,2.01l-0.456,0l-1.116,-1.692l-1.116,1.692l-0.456,0l1.362,-2.01l-1.338,-1.986l0.45,0l1.098,1.662l1.098,-1.662Z" style="fill:#fff;fill-rule:nonzero;stroke:#fff;stroke-width:0.3px;stroke-linejoin:round;stroke-miterlimit:1.41421;"/>
                <path d="M36.942,60.286c0,0.192 -0.04,0.364 -0.12,0.516c-0.08,0.152 -0.191,0.28 -0.333,0.384c-0.142,0.104 -0.31,0.184 -0.504,0.24c-0.194,0.056 -0.407,0.084 -0.639,0.084l-0.348,0l0,1.632l-0.408,0l0,-3.996l0.894,0c0.2,0 0.389,0.024 0.567,0.072c0.178,0.048 0.333,0.12 0.465,0.216c0.132,0.096 0.236,0.215 0.312,0.357c0.076,0.142 0.114,0.307 0.114,0.495Zm-0.408,0c0,-0.144 -0.029,-0.267 -0.087,-0.369c-0.058,-0.102 -0.137,-0.185 -0.237,-0.249c-0.1,-0.064 -0.214,-0.111 -0.342,-0.141c-0.128,-0.03 -0.262,-0.045 -0.402,-0.045l-0.468,0l0,1.692l0.366,0c0.168,0 0.324,-0.02 0.468,-0.06c0.144,-0.04 0.268,-0.097 0.372,-0.171c0.104,-0.074 0.185,-0.166 0.243,-0.276c0.058,-0.11 0.087,-0.237 0.087,-0.381Z" style="fill:#fff;fill-rule:nonzero;stroke:#fff;stroke-width:0.3px;stroke-linejoin:round;stroke-miterlimit:1.41421;"/>
            </g>
            <g id="Description3" serif:id="Description" transform="matrix(1,0,0,1,14.3408,203.306)">
                <path d="M27.828,59.146l0,3.66l1.686,0l0,0.336l-2.094,0l0,-3.996l0.408,0Z" style="fill:#fff;fill-rule:nonzero;stroke:#fff;stroke-width:0.3px;stroke-linejoin:round;stroke-miterlimit:1.41421;"/>
                <path d="M32.028,63.214c-0.304,0 -0.575,-0.056 -0.813,-0.168c-0.238,-0.112 -0.438,-0.263 -0.6,-0.453c-0.162,-0.19 -0.286,-0.41 -0.372,-0.66c-0.086,-0.25 -0.129,-0.513 -0.129,-0.789c0,-0.276 0.043,-0.539 0.129,-0.789c0.086,-0.25 0.21,-0.47 0.372,-0.66c0.162,-0.19 0.362,-0.341 0.6,-0.453c0.238,-0.112 0.509,-0.168 0.813,-0.168c0.304,0 0.575,0.056 0.813,0.168c0.238,0.112 0.438,0.263 0.6,0.453c0.162,0.19 0.286,0.41 0.372,0.66c0.086,0.25 0.129,0.513 0.129,0.789c0,0.276 -0.043,0.539 -0.129,0.789c-0.086,0.25 -0.21,0.47 -0.372,0.66c-0.162,0.19 -0.362,0.341 -0.6,0.453c-0.238,0.112 -0.509,0.168 -0.813,0.168Zm0,-0.336c0.24,0 0.453,-0.046 0.639,-0.138c0.186,-0.092 0.344,-0.216 0.474,-0.372c0.13,-0.156 0.228,-0.339 0.294,-0.549c0.066,-0.21 0.099,-0.435 0.099,-0.675c0,-0.236 -0.033,-0.459 -0.099,-0.669c-0.066,-0.21 -0.164,-0.394 -0.294,-0.552c-0.13,-0.158 -0.288,-0.283 -0.474,-0.375c-0.186,-0.092 -0.399,-0.138 -0.639,-0.138c-0.24,0 -0.453,0.046 -0.639,0.138c-0.186,0.092 -0.343,0.217 -0.471,0.375c-0.128,0.158 -0.226,0.342 -0.294,0.552c-0.068,0.21 -0.102,0.433 -0.102,0.669c0,0.24 0.034,0.465 0.102,0.675c0.068,0.21 0.166,0.393 0.294,0.549c0.128,0.156 0.285,0.28 0.471,0.372c0.186,0.092 0.399,0.138 0.639,0.138Z" style="fill:#fff;fill-rule:nonzero;stroke:#fff;stroke-width:0.3px;stroke-linejoin:round;stroke-miterlimit:1.41421;"/>
                <path d="M36.9,59.074c0.216,0 0.424,0.017 0.624,0.051c0.2,0.034 0.384,0.091 0.552,0.171l-0.072,0.33c-0.164,-0.068 -0.34,-0.121 -0.528,-0.159c-0.188,-0.038 -0.378,-0.057 -0.57,-0.057c-0.26,0 -0.495,0.039 -0.705,0.117c-0.21,0.078 -0.39,0.193 -0.54,0.345c-0.15,0.152 -0.266,0.338 -0.348,0.558c-0.082,0.22 -0.123,0.472 -0.123,0.756c0,0.536 0.147,0.953 0.441,1.251c0.294,0.298 0.721,0.447 1.281,0.447c0.128,0 0.271,-0.01 0.429,-0.03c0.158,-0.02 0.289,-0.046 0.393,-0.078l0,-1.356l0.378,0l0,1.59c-0.16,0.064 -0.354,0.114 -0.582,0.15c-0.228,0.036 -0.45,0.054 -0.666,0.054c-0.324,0 -0.614,-0.049 -0.87,-0.147c-0.256,-0.098 -0.474,-0.236 -0.654,-0.414c-0.18,-0.178 -0.318,-0.392 -0.414,-0.642c-0.096,-0.25 -0.144,-0.525 -0.144,-0.825c0,-0.32 0.049,-0.61 0.147,-0.87c0.098,-0.26 0.239,-0.482 0.423,-0.666c0.184,-0.184 0.407,-0.326 0.669,-0.426c0.262,-0.1 0.555,-0.15 0.879,-0.15Z" style="fill:#fff;fill-rule:nonzero;stroke:#fff;stroke-width:0.3px;stroke-linejoin:round;stroke-miterlimit:1.41421;"/>
            </g>
            <g id="Description4" serif:id="Description" transform="matrix(1,0,0,1,35.049,174.078)">
                <path d="M27.828,59.146l0,3.66l1.686,0l0,0.336l-2.094,0l0,-3.996l0.408,0Z" style="fill:#fff;fill-rule:nonzero;stroke:#fff;stroke-width:0.3px;stroke-linejoin:round;stroke-miterlimit:1.41421;"/>
                <rect x="30.498" y="59.146" width="0.408" height="3.996" style="fill:#fff;fill-rule:nonzero;stroke:#fff;stroke-width:0.3px;stroke-linejoin:round;stroke-miterlimit:1.41421;"/>
                <path d="M35.016,63.142l-2.37,-3.342l0,3.342l-0.39,0l0,-3.996l0.39,0l2.37,3.342l0,-3.342l0.39,0l0,3.996l-0.39,0Z" style="fill:#fff;fill-rule:nonzero;stroke:#fff;stroke-width:0.3px;stroke-linejoin:round;stroke-miterlimit:1.41421;"/>
            </g>
        </g>
        <g id="Description5" serif:id="Description" transform="matrix(1,0,0,1,28.3,216.412)">
            <path d="M30.622,61.758c0,0.23 -0.049,0.435 -0.148,0.616c-0.098,0.182 -0.232,0.336 -0.4,0.464c-0.168,0.128 -0.365,0.227 -0.592,0.296c-0.226,0.07 -0.47,0.104 -0.732,0.104c-0.256,0 -0.518,-0.026 -0.788,-0.08c-0.269,-0.053 -0.516,-0.133 -0.74,-0.24l0.144,-0.584c0.198,0.091 0.415,0.166 0.652,0.224c0.238,0.059 0.476,0.088 0.716,0.088c0.347,0 0.627,-0.073 0.84,-0.22c0.214,-0.146 0.32,-0.358 0.32,-0.636c0,-0.154 -0.03,-0.286 -0.092,-0.396c-0.061,-0.109 -0.145,-0.208 -0.252,-0.296c-0.106,-0.088 -0.23,-0.166 -0.372,-0.236c-0.141,-0.069 -0.292,-0.141 -0.452,-0.216c-0.181,-0.085 -0.356,-0.174 -0.524,-0.268c-0.168,-0.093 -0.316,-0.2 -0.444,-0.32c-0.128,-0.12 -0.23,-0.256 -0.308,-0.408c-0.077,-0.152 -0.116,-0.329 -0.116,-0.532c0,-0.229 0.042,-0.432 0.124,-0.608c0.083,-0.176 0.199,-0.322 0.348,-0.44c0.15,-0.117 0.328,-0.205 0.536,-0.264c0.208,-0.058 0.438,-0.088 0.688,-0.088c0.256,0 0.506,0.03 0.748,0.088c0.243,0.059 0.455,0.136 0.636,0.232l-0.136,0.584c-0.17,-0.09 -0.365,-0.165 -0.584,-0.224c-0.218,-0.058 -0.44,-0.088 -0.664,-0.088c-0.645,0 -0.968,0.251 -0.968,0.752c0,0.112 0.016,0.21 0.048,0.292c0.032,0.083 0.084,0.16 0.156,0.232c0.072,0.072 0.168,0.142 0.288,0.208c0.12,0.067 0.266,0.143 0.436,0.228c0.171,0.086 0.352,0.178 0.544,0.276c0.192,0.099 0.368,0.216 0.528,0.352c0.16,0.136 0.294,0.295 0.4,0.476c0.107,0.182 0.16,0.392 0.16,0.632Z" style="fill:#fff;fill-rule:nonzero;stroke:#fff;stroke-width:0.3px;stroke-linejoin:round;stroke-miterlimit:1.41421;"/>
            <path d="M35.422,63.142l0,-2.392l-2.728,0l0,2.392l-0.736,0l0,-5.328l0.736,0l0,2.312l2.728,0l0,-2.312l0.736,0l0,5.328l-0.736,0Z" style="fill:#fff;fill-rule:nonzero;stroke:#fff;stroke-width:0.3px;stroke-linejoin:round;stroke-miterlimit:1.41421;"/>
            <path d="M42.382,63.142l-0.752,0l-0.488,-1.288l-2.488,0l-0.48,1.288l-0.752,0l2.12,-5.328l0.72,0l2.12,5.328Zm-3.504,-1.88l2.048,0l-1.024,-2.776l-1.024,2.776Z" style="fill:#fff;fill-rule:nonzero;stroke:#fff;stroke-width:0.3px;stroke-linejoin:round;stroke-miterlimit:1.41421;"/>
            <path d="M46.974,59.374c0,0.256 -0.056,0.487 -0.168,0.692c-0.112,0.206 -0.268,0.38 -0.468,0.524c-0.2,0.144 -0.436,0.255 -0.708,0.332c-0.272,0.078 -0.565,0.116 -0.88,0.116l-0.368,0l0,2.104l-0.736,0l0,-5.328l1.288,0c0.288,0 0.556,0.032 0.804,0.096c0.248,0.064 0.464,0.162 0.648,0.292c0.184,0.131 0.328,0.294 0.432,0.488c0.104,0.195 0.156,0.423 0.156,0.684Zm-0.736,-0.008c0,-0.176 -0.034,-0.324 -0.104,-0.444c-0.069,-0.12 -0.164,-0.218 -0.284,-0.296c-0.12,-0.077 -0.261,-0.133 -0.424,-0.168c-0.162,-0.034 -0.334,-0.052 -0.516,-0.052l-0.528,0l0,2.04l0.392,0c0.214,0 0.41,-0.024 0.588,-0.072c0.179,-0.048 0.334,-0.118 0.464,-0.212c0.131,-0.093 0.232,-0.206 0.304,-0.34c0.072,-0.133 0.108,-0.285 0.108,-0.456Z" style="fill:#fff;fill-rule:nonzero;stroke:#fff;stroke-width:0.3px;stroke-linejoin:round;stroke-miterlimit:1.41421;"/>
            <path d="M48.11,57.814l2.968,0l0,0.6l-2.232,0l0,1.704l2.136,0l0,0.6l-2.136,0l0,1.824l2.256,0l0,0.6l-2.992,0l0,-5.328Z" style="fill:#fff;fill-rule:nonzero;stroke:#fff;stroke-width:0.3px;stroke-linejoin:round;stroke-miterlimit:1.41421;"/>
        </g>
        <g id="Description6" serif:id="Description" transform="matrix(1,0,0,1,32.292,281.412)">
            <path d="M29.87,63.238c-0.416,0 -0.786,-0.074 -1.112,-0.224c-0.325,-0.149 -0.597,-0.349 -0.816,-0.6c-0.218,-0.25 -0.385,-0.544 -0.5,-0.88c-0.114,-0.336 -0.172,-0.688 -0.172,-1.056c0,-0.368 0.058,-0.72 0.172,-1.056c0.115,-0.336 0.282,-0.629 0.5,-0.88c0.219,-0.25 0.491,-0.45 0.816,-0.6c0.326,-0.149 0.696,-0.224 1.112,-0.224c0.416,0 0.787,0.075 1.112,0.224c0.326,0.15 0.598,0.35 0.816,0.6c0.219,0.251 0.386,0.544 0.5,0.88c0.115,0.336 0.172,0.688 0.172,1.056c0,0.368 -0.057,0.72 -0.172,1.056c-0.114,0.336 -0.281,0.63 -0.5,0.88c-0.218,0.251 -0.49,0.451 -0.816,0.6c-0.325,0.15 -0.696,0.224 -1.112,0.224Zm0,-0.592c0.304,0 0.574,-0.056 0.808,-0.168c0.235,-0.112 0.43,-0.266 0.584,-0.464c0.155,-0.197 0.272,-0.428 0.352,-0.692c0.08,-0.264 0.12,-0.545 0.12,-0.844c0,-0.298 -0.04,-0.58 -0.12,-0.844c-0.08,-0.264 -0.197,-0.493 -0.352,-0.688c-0.154,-0.194 -0.349,-0.349 -0.584,-0.464c-0.234,-0.114 -0.504,-0.172 -0.808,-0.172c-0.304,0 -0.573,0.058 -0.808,0.172c-0.234,0.115 -0.429,0.27 -0.584,0.464c-0.154,0.195 -0.272,0.424 -0.352,0.688c-0.08,0.264 -0.12,0.546 -0.12,0.844c0,0.299 0.04,0.58 0.12,0.844c0.08,0.264 0.198,0.495 0.352,0.692c0.155,0.198 0.35,0.352 0.584,0.464c0.235,0.112 0.504,0.168 0.808,0.168Z" style="fill:#fff;fill-rule:nonzero;stroke:#fff;stroke-width:0.3px;stroke-linejoin:round;stroke-miterlimit:1.41421;"/>
            <path d="M37.278,57.814l0.736,0l0,3.44c0,0.278 -0.045,0.538 -0.136,0.78c-0.09,0.243 -0.224,0.454 -0.4,0.632c-0.176,0.179 -0.393,0.319 -0.652,0.42c-0.258,0.102 -0.558,0.152 -0.9,0.152c-0.341,0 -0.641,-0.05 -0.9,-0.152c-0.258,-0.101 -0.476,-0.241 -0.652,-0.42c-0.176,-0.178 -0.309,-0.389 -0.4,-0.632c-0.09,-0.242 -0.136,-0.502 -0.136,-0.78l0,-3.44l0.736,0l0,3.472c0,0.4 0.114,0.726 0.34,0.976c0.227,0.251 0.564,0.376 1.012,0.376c0.448,0 0.786,-0.125 1.012,-0.376c0.227,-0.25 0.34,-0.576 0.34,-0.976l0,-3.472Z" style="fill:#fff;fill-rule:nonzero;stroke:#fff;stroke-width:0.3px;stroke-linejoin:round;stroke-miterlimit:1.41421;"/>
            <path d="M43.07,57.814l0,0.6l-1.568,0l0,4.728l-0.736,0l0,-4.728l-1.568,0l0,-0.6l3.872,0Z" style="fill:#fff;fill-rule:nonzero;stroke:#fff;stroke-width:0.3px;stroke-linejoin:round;stroke-miterlimit:1.41421;"/>
        </g>
        <g id="Description7" serif:id="Description" transform="matrix(1,0,0,1,-19.7,281.412)">
            <path d="M32.118,57.814l0.664,0l0.384,5.328l-0.704,0l-0.256,-4.152l-1.536,3.192l-0.752,0l-1.536,-3.192l-0.256,4.152l-0.704,0l0.384,-5.328l0.664,0l1.824,3.768l1.824,-3.768Z" style="fill:#fff;fill-rule:nonzero;stroke:#fff;stroke-width:0.3px;stroke-linejoin:round;stroke-miterlimit:1.41421;"/>
            <path d="M39.262,63.142l-0.752,0l-0.488,-1.288l-2.488,0l-0.48,1.288l-0.752,0l2.12,-5.328l0.72,0l2.12,5.328Zm-3.504,-1.88l2.048,0l-1.024,-2.776l-1.024,2.776Z" style="fill:#fff;fill-rule:nonzero;stroke:#fff;stroke-width:0.3px;stroke-linejoin:round;stroke-miterlimit:1.41421;"/>
            <path d="M43.598,61.758c0,0.23 -0.049,0.435 -0.148,0.616c-0.098,0.182 -0.232,0.336 -0.4,0.464c-0.168,0.128 -0.365,0.227 -0.592,0.296c-0.226,0.07 -0.47,0.104 -0.732,0.104c-0.256,0 -0.518,-0.026 -0.788,-0.08c-0.269,-0.053 -0.516,-0.133 -0.74,-0.24l0.144,-0.584c0.198,0.091 0.415,0.166 0.652,0.224c0.238,0.059 0.476,0.088 0.716,0.088c0.347,0 0.627,-0.073 0.84,-0.22c0.214,-0.146 0.32,-0.358 0.32,-0.636c0,-0.154 -0.03,-0.286 -0.092,-0.396c-0.061,-0.109 -0.145,-0.208 -0.252,-0.296c-0.106,-0.088 -0.23,-0.166 -0.372,-0.236c-0.141,-0.069 -0.292,-0.141 -0.452,-0.216c-0.181,-0.085 -0.356,-0.174 -0.524,-0.268c-0.168,-0.093 -0.316,-0.2 -0.444,-0.32c-0.128,-0.12 -0.23,-0.256 -0.308,-0.408c-0.077,-0.152 -0.116,-0.329 -0.116,-0.532c0,-0.229 0.042,-0.432 0.124,-0.608c0.083,-0.176 0.199,-0.322 0.348,-0.44c0.15,-0.117 0.328,-0.205 0.536,-0.264c0.208,-0.058 0.438,-0.088 0.688,-0.088c0.256,0 0.506,0.03 0.748,0.088c0.243,0.059 0.455,0.136 0.636,0.232l-0.136,0.584c-0.17,-0.09 -0.365,-0.165 -0.584,-0.224c-0.218,-0.058 -0.44,-0.088 -0.664,-0.088c-0.645,0 -0.968,0.251 -0.968,0.752c0,0.112 0.016,0.21 0.048,0.292c0.032,0.083 0.084,0.16 0.156,0.232c0.072,0.072 0.168,0.142 0.288,0.208c0.12,0.067 0.266,0.143 0.436,0.228c0.171,0.086 0.352,0.178 0.544,0.276c0.192,0.099 0.368,0.216 0.528,0.352c0.16,0.136 0.294,0.295 0.4,0.476c0.107,0.182 0.16,0.392 0.16,0.632Z" style="fill:#fff;fill-rule:nonzero;stroke:#fff;stroke-width:0.3px;stroke-linejoin:round;stroke-miterlimit:1.41421;"/>
            <path d="M48.342,57.814l0,0.6l-1.568,0l0,4.728l-0.736,0l0,-4.728l-1.568,0l0,-0.6l3.872,0Z" style="fill:#fff;fill-rule:nonzero;stroke:#fff;stroke-width:0.3px;stroke-linejoin:round;stroke-miterlimit:1.41421;"/>
            <path d="M49.558,57.814l2.968,0l0,0.6l-2.232,0l0,1.704l2.136,0l0,0.6l-2.136,0l0,1.824l2.256,0l0,0.6l-2.992,0l0,-5.328Z" style="fill:#fff;fill-rule:nonzero;stroke:#fff;stroke-width:0.3px;stroke-linejoin:round;stroke-miterlimit:1.41421;"/>
            <path d="M54.774,63.142l-0.736,0l0,-5.328l1.384,0c0.288,0 0.556,0.032 0.804,0.096c0.248,0.064 0.466,0.159 0.652,0.284c0.187,0.126 0.334,0.283 0.44,0.472c0.107,0.19 0.16,0.407 0.16,0.652c0,0.368 -0.118,0.688 -0.356,0.96c-0.237,0.272 -0.569,0.47 -0.996,0.592l1.88,2.272l-0.904,0l-1.736,-2.144c-0.026,0 -0.066,0.002 -0.12,0.004c-0.053,0.003 -0.109,0.004 -0.168,0.004l-0.304,0l0,2.136Zm1.968,-3.808c0,-0.165 -0.036,-0.308 -0.108,-0.428c-0.072,-0.12 -0.169,-0.216 -0.292,-0.288c-0.122,-0.072 -0.264,-0.125 -0.424,-0.16c-0.16,-0.034 -0.328,-0.052 -0.504,-0.052l-0.64,0l0,2.008l0.368,0c0.224,0 0.434,-0.021 0.628,-0.064c0.195,-0.042 0.364,-0.108 0.508,-0.196c0.144,-0.088 0.258,-0.2 0.34,-0.336c0.083,-0.136 0.124,-0.297 0.124,-0.484Z" style="fill:#fff;fill-rule:nonzero;stroke:#fff;stroke-width:0.3px;stroke-linejoin:round;stroke-miterlimit:1.41421;"/>
        </g>
    </g>
    <g id="Name" transform="matrix(1,0,0,1,7.5,3)">
        <g transform="matrix(0.650665,0,0,0.650665,12.5091,8.43372)">
            <path d="M18.633,5.469l6.676,16.016l3.1,0l6.801,-16.016l-2.662,0l-5.679,13.603l-5.304,-13.603l-2.932,0Z" style="fill-rule:nonzero;stroke:#000;stroke-width:0.92px;stroke-linejoin:round;stroke-miterlimit:1.41421;"/>
            <path d="M47.191,21.485l0,-1.956l-5.283,0c-0.929,0 -1.702,-0.156 -2.319,-0.468c-0.618,-0.312 -1.11,-0.738 -1.477,-1.279c-0.368,-0.541 -0.628,-1.178 -0.78,-1.913c-0.153,-0.735 -0.229,-1.533 -0.229,-2.392c0,-0.86 0.076,-1.657 0.229,-2.392c0.152,-0.735 0.416,-1.373 0.79,-1.914c0.375,-0.541 0.87,-0.967 1.487,-1.279c0.617,-0.312 1.39,-0.468 2.32,-0.468l5.262,0l0,-1.955l-6.261,0c-0.873,0 -1.643,0.121 -2.309,0.364c-0.665,0.242 -1.241,0.572 -1.726,0.988c-0.485,0.416 -0.891,0.894 -1.217,1.435c-0.326,0.541 -0.582,1.106 -0.769,1.695c-0.188,0.589 -0.323,1.189 -0.406,1.799c-0.083,0.61 -0.125,1.186 -0.125,1.727c0,0.54 0.042,1.112 0.125,1.716c0.083,0.603 0.218,1.203 0.406,1.799c0.187,0.596 0.443,1.165 0.769,1.705c0.326,0.541 0.732,1.02 1.217,1.436c0.485,0.416 1.061,0.745 1.726,0.988c0.666,0.242 1.436,0.364 2.309,0.364l6.261,0Z" style="fill-rule:nonzero;stroke:#000;stroke-width:0.92px;stroke-linejoin:round;stroke-miterlimit:1.41421;"/>
            <path d="M48.813,21.485l2.496,0l0,-13.271l5.138,13.271l2.579,0l4.909,-13.25l0,13.25l2.538,0l0,-16.016l-3.744,0l-4.909,13.083l-4.888,-13.083l-4.119,0l0,16.016Z" style="fill-rule:nonzero;stroke:#000;stroke-width:0.92px;stroke-linejoin:round;stroke-miterlimit:1.41421;"/>
            <path d="M67.513,21.485l2.745,0l1.706,-4.223l7.592,0l1.685,4.223l2.766,0l-6.594,-16.016l-3.307,0l-6.593,16.016Zm5.158,-6.095l3.078,-7.55l3.058,7.55l-6.136,0Z" style="fill-rule:nonzero;stroke:#000;stroke-width:0.92px;stroke-linejoin:round;stroke-miterlimit:1.41421;"/>
        </g>
        <g transform="matrix(0.650665,0,0,0.650665,11.707,7.63159)">
            <path d="M18.633,5.469l6.676,16.016l3.1,0l6.801,-16.016l-2.662,0l-5.679,13.603l-5.304,-13.603l-2.932,0Z" style="fill:#fff;fill-rule:nonzero;"/>
            <path d="M47.191,21.485l0,-1.956l-5.283,0c-0.929,0 -1.702,-0.156 -2.319,-0.468c-0.618,-0.312 -1.11,-0.738 -1.477,-1.279c-0.368,-0.541 -0.628,-1.178 -0.78,-1.913c-0.153,-0.735 -0.229,-1.533 -0.229,-2.392c0,-0.86 0.076,-1.657 0.229,-2.392c0.152,-0.735 0.416,-1.373 0.79,-1.914c0.375,-0.541 0.87,-0.967 1.487,-1.279c0.617,-0.312 1.39,-0.468 2.32,-0.468l5.262,0l0,-1.955l-6.261,0c-0.873,0 -1.643,0.121 -2.309,0.364c-0.665,0.242 -1.241,0.572 -1.726,0.988c-0.485,0.416 -0.891,0.894 -1.217,1.435c-0.326,0.541 -0.582,1.106 -0.769,1.695c-0.188,0.589 -0.323,1.189 -0.406,1.799c-0.083,0.61 -0.125,1.186 -0.125,1.727c0,0.54 0.042,1.112 0.125,1.716c0.083,0.603 0.218,1.203 0.406,1.799c0.187,0.596 0.443,1.165 0.769,1.705c0.326,0.541 0.732,1.02 1.217,1.436c0.485,0.416 1.061,0.745 1.726,0.988c0.666,0.242 1.436,0.364 2.309,0.364l6.261,0Z" style="fill:#fff;fill-rule:nonzero;"/>
            <path d="M48.813,21.485l2.496,0l0,-13.271l5.138,13.271l2.579,0l4.909,-13.25l0,13.25l2.538,0l0,-16.016l-3.744,0l-4.909,13.083l-4.888,-13.083l-4.119,0l0,16.016Z" style="fill:#fff;fill-rule:nonzero;"/>
            <path d="M67.513,21.485l2.745,0l1.706,-4.223l7.592,0l1.685,4.223l2.766,0l-6.594,-16.016l-3.307,0l-6.593,16.016Zm5.158,-6.095l3.078,-7.55l3.058,7.55l-6.136,0Z" style="fill:#fff;fill-rule:nonzero;"/>
        </g>
    </g>
    <g transform="matrix(1.4997,0,0,0.398134,-3.84855,167.213)">
        <rect x="7.571" y="312.715" width="60.012" height="2.512" style="fill:#b55757;fill-opacity:0.529412;"/>
    </g>
    <g transform="matrix(1.4997,0,0,0.398134,-3.84855,102.213)">
        <rect x="7.571" y="312.715" width="60.012" height="2.512" style="fill:#b55757;fill-opacity:0.529412;"/>
    </g>
</svg>
