<?xml version="1.0" encoding="UTF-8" standalone="no"?>
<!DOCTYPE svg PUBLIC "-//W3C//DTD SVG 1.1//EN" "http://www.w3.org/Graphics/SVG/1.1/DTD/svg11.dtd">
<svg xmlns:xlink="http://www.w3.org/1999/xlink"
     xmlns:serif="http://www.serif.com/"
     width="105px"
     height="380px"
     version="1.1"
     xmlns="http://www.w3.org/2000/svg"
     xml:space="preserve"
     style="fill-rule:evenodd;clip-rule:evenodd;stroke-miterlimit:10;">
    <g id="Panel"
       transform="matrix(1.4,0,0,1,-7.10543e-15,0)">
        <rect x="0"
              y="0"
              width="75"
              height="380"
              style="fill:#fff;"/>
    </g>
    <g transform="matrix(0.474034,0,0,1,38.7372,3.21777)">
        <rect x="72.299"
              y="60.454"
              width="4.707"
              height="150.676"/>
    </g>
    <g id="Controls"
       transform="matrix(1,0,0,1,5.29747,35.7891)">
        <g id="ScaleSmall"
           transform="matrix(0.720434,0,0,0.720434,-24.7916,0.0394465)">
            <g id="Big_1_"
               transform="matrix(0.410551,0,0,0.410551,76.6225,53.479)">
                <path d="M129.99,118.265l0,-60.683"
                      style="fill:none;stroke:#000;stroke-width:1.5px;"/>
                <path d="M165.49,93.105l-71,0"
                      style="fill:none;stroke:#000;stroke-width:1.5px;"/>
                <path d="M99.247,110.867l61.488,-35.523"
                      style="fill:none;stroke:#000;stroke-width:1.5px;"/>
                <path d="M112.24,123.872l35.5,-61.53"
                      style="fill:none;stroke:#000;stroke-width:1.5px;"/>
                <path d="M160.735,110.867l-61.488,-35.523"
                      style="fill:none;stroke:#000;stroke-width:1.5px;"/>
                <path d="M147.74,123.872l-35.5,-61.53"
                      style="fill:none;stroke:#000;stroke-width:1.5px;"/>
            </g>
            <g id="InnerCircle_1_"
               transform="matrix(0.745435,0,0,0.745435,33.1524,21.6828)">
                <path d="M117.435,116.771c-8.587,-4.523 -14.444,-13.541 -14.444,-23.928c0,-14.922 12.089,-27.018 27,-27.018c14.91,0 27,12.096 27,27.018c0,10.35 -5.814,19.338 -14.349,23.876"
                      style="fill:#f9f9f9;stroke:#000;stroke-width:2.08px;"/>
            </g>
        </g>
        <g id="ScaleSmall1"
           serif:id="ScaleSmall"
           transform="matrix(0.720434,0,0,0.720434,-24.7916,105.039)">
            <g id="Big_1_1"
               serif:id="Big_1_"
               transform="matrix(0.410551,0,0,0.410551,76.6225,53.479)">
                <path d="M129.99,118.265l0,-60.683"
                      style="fill:none;stroke:#000;stroke-width:1.5px;"/>
                <path d="M165.49,93.105l-71,0"
                      style="fill:none;stroke:#000;stroke-width:1.5px;"/>
                <path d="M99.247,110.867l61.488,-35.523"
                      style="fill:none;stroke:#000;stroke-width:1.5px;"/>
                <path d="M112.24,123.872l35.5,-61.53"
                      style="fill:none;stroke:#000;stroke-width:1.5px;"/>
                <path d="M160.735,110.867l-61.488,-35.523"
                      style="fill:none;stroke:#000;stroke-width:1.5px;"/>
                <path d="M147.74,123.872l-35.5,-61.53"
                      style="fill:none;stroke:#000;stroke-width:1.5px;"/>
            </g>
            <g id="InnerCircle_1_1"
               serif:id="InnerCircle_1_"
               transform="matrix(0.745435,0,0,0.745435,33.1524,21.6828)">
                <path d="M117.435,116.771c-8.587,-4.523 -14.444,-13.541 -14.444,-23.928c0,-14.922 12.089,-27.018 27,-27.018c14.91,0 27,12.096 27,27.018c0,10.35 -5.814,19.338 -14.349,23.876"
                      style="fill:#f9f9f9;stroke:#000;stroke-width:2.08px;"/>
            </g>
        </g>
        <g id="ScaleSmall2"
           serif:id="ScaleSmall"
           transform="matrix(0.720434,0,0,0.720434,-24.3974,153.14)">
            <g id="Big_1_2"
               serif:id="Big_1_"
               transform="matrix(0.410551,0,0,0.410551,76.6225,53.479)">
                <path d="M129.99,118.265l0,-60.683"
                      style="fill:none;stroke:#000;stroke-width:1.5px;"/>
                <path d="M165.49,93.105l-71,0"
                      style="fill:none;stroke:#000;stroke-width:1.5px;"/>
                <path d="M99.247,110.867l61.488,-35.523"
                      style="fill:none;stroke:#000;stroke-width:1.5px;"/>
                <path d="M112.24,123.872l35.5,-61.53"
                      style="fill:none;stroke:#000;stroke-width:1.5px;"/>
                <path d="M160.735,110.867l-61.488,-35.523"
                      style="fill:none;stroke:#000;stroke-width:1.5px;"/>
                <path d="M147.74,123.872l-35.5,-61.53"
                      style="fill:none;stroke:#000;stroke-width:1.5px;"/>
            </g>
            <g id="InnerCircle_1_2"
               serif:id="InnerCircle_1_"
               transform="matrix(0.745435,0,0,0.745435,33.1524,21.6828)">
                <path d="M117.435,116.771c-8.587,-4.523 -14.444,-13.541 -14.444,-23.928c0,-14.922 12.089,-27.018 27,-27.018c14.91,0 27,12.096 27,27.018c0,10.35 -5.814,19.338 -14.349,23.876"
                      style="fill:#f9f9f9;stroke:#000;stroke-width:2.08px;"/>
            </g>
        </g>
        <g id="ScaleSmall3"
           serif:id="ScaleSmall"
           transform="matrix(0.720434,0,0,0.720434,-68.1916,217.039)">
            <g id="Big_1_3"
               serif:id="Big_1_"
               transform="matrix(0.410551,0,0,0.410551,76.6225,53.479)">
                <path d="M129.99,118.265l0,-60.683"
                      style="fill:none;stroke:#000;stroke-width:1.5px;"/>
                <path d="M165.49,93.105l-71,0"
                      style="fill:none;stroke:#000;stroke-width:1.5px;"/>
                <path d="M99.247,110.867l61.488,-35.523"
                      style="fill:none;stroke:#000;stroke-width:1.5px;"/>
                <path d="M112.24,123.872l35.5,-61.53"
                      style="fill:none;stroke:#000;stroke-width:1.5px;"/>
                <path d="M160.735,110.867l-61.488,-35.523"
                      style="fill:none;stroke:#000;stroke-width:1.5px;"/>
                <path d="M147.74,123.872l-35.5,-61.53"
                      style="fill:none;stroke:#000;stroke-width:1.5px;"/>
            </g>
            <g id="InnerCircle_1_3"
               serif:id="InnerCircle_1_"
               transform="matrix(0.745435,0,0,0.745435,33.1524,21.6828)">
                <path d="M117.435,116.771c-8.587,-4.523 -14.444,-13.541 -14.444,-23.928c0,-14.922 12.089,-27.018 27,-27.018c14.91,0 27,12.096 27,27.018c0,10.35 -5.814,19.338 -14.349,23.876"
                      style="fill:#f9f9f9;stroke:#000;stroke-width:2.08px;"/>
            </g>
        </g>
        <g id="ScaleSmall4"
           serif:id="ScaleSmall"
           transform="matrix(0.720434,0,0,0.720434,-24.7916,70.0394)">
            <g id="Big_1_4"
               serif:id="Big_1_"
               transform="matrix(0.410551,0,0,0.410551,76.6225,53.479)">
                <path d="M129.99,118.265l0,-60.683"
                      style="fill:none;stroke:#000;stroke-width:1.5px;"/>
                <path d="M165.49,93.105l-71,0"
                      style="fill:none;stroke:#000;stroke-width:1.5px;"/>
                <path d="M99.247,110.867l61.488,-35.523"
                      style="fill:none;stroke:#000;stroke-width:1.5px;"/>
                <path d="M112.24,123.872l35.5,-61.53"
                      style="fill:none;stroke:#000;stroke-width:1.5px;"/>
                <path d="M160.735,110.867l-61.488,-35.523"
                      style="fill:none;stroke:#000;stroke-width:1.5px;"/>
                <path d="M147.74,123.872l-35.5,-61.53"
                      style="fill:none;stroke:#000;stroke-width:1.5px;"/>
            </g>
            <g id="InnerCircle_1_4"
               serif:id="InnerCircle_1_"
               transform="matrix(0.745435,0,0,0.745435,33.1524,21.6828)">
                <path d="M117.435,116.771c-8.587,-4.523 -14.444,-13.541 -14.444,-23.928c0,-14.922 12.089,-27.018 27,-27.018c14.91,0 27,12.096 27,27.018c0,10.35 -5.814,19.338 -14.349,23.876"
                      style="fill:#f9f9f9;stroke:#000;stroke-width:2.08px;"/>
            </g>
        </g>
        <g id="ScaleSmall5"
           serif:id="ScaleSmall"
           transform="matrix(0.720434,0,0,0.720434,-24.7916,35.0394)">
            <g id="Big_1_5"
               serif:id="Big_1_"
               transform="matrix(0.410551,0,0,0.410551,76.6225,53.479)">
                <path d="M129.99,118.265l0,-60.683"
                      style="fill:none;stroke:#000;stroke-width:1.5px;"/>
                <path d="M165.49,93.105l-71,0"
                      style="fill:none;stroke:#000;stroke-width:1.5px;"/>
                <path d="M99.247,110.867l61.488,-35.523"
                      style="fill:none;stroke:#000;stroke-width:1.5px;"/>
                <path d="M112.24,123.872l35.5,-61.53"
                      style="fill:none;stroke:#000;stroke-width:1.5px;"/>
                <path d="M160.735,110.867l-61.488,-35.523"
                      style="fill:none;stroke:#000;stroke-width:1.5px;"/>
                <path d="M147.74,123.872l-35.5,-61.53"
                      style="fill:none;stroke:#000;stroke-width:1.5px;"/>
            </g>
            <g id="InnerCircle_1_5"
               serif:id="InnerCircle_1_"
               transform="matrix(0.745435,0,0,0.745435,33.1524,21.6828)">
                <path d="M117.435,116.771c-8.587,-4.523 -14.444,-13.541 -14.444,-23.928c0,-14.922 12.089,-27.018 27,-27.018c14.91,0 27,12.096 27,27.018c0,10.35 -5.814,19.338 -14.349,23.876"
                      style="fill:#f9f9f9;stroke:#000;stroke-width:2.08px;"/>
            </g>
        </g>
        <g id="ScaleSmall6"
           serif:id="ScaleSmall"
           transform="matrix(0.720434,0,0,0.720434,-24.7916,-34.9606)">
            <g id="Big_1_6"
               serif:id="Big_1_"
               transform="matrix(0.410551,0,0,0.410551,76.6225,53.479)">
                <path d="M129.99,118.265l0,-60.683"
                      style="fill:none;stroke:#000;stroke-width:1.5px;"/>
                <path d="M165.49,93.105l-71,0"
                      style="fill:none;stroke:#000;stroke-width:1.5px;"/>
                <path d="M99.247,110.867l61.488,-35.523"
                      style="fill:none;stroke:#000;stroke-width:1.5px;"/>
                <path d="M112.24,123.872l35.5,-61.53"
                      style="fill:none;stroke:#000;stroke-width:1.5px;"/>
                <path d="M160.735,110.867l-61.488,-35.523"
                      style="fill:none;stroke:#000;stroke-width:1.5px;"/>
                <path d="M147.74,123.872l-35.5,-61.53"
                      style="fill:none;stroke:#000;stroke-width:1.5px;"/>
            </g>
            <g id="InnerCircle_1_6"
               serif:id="InnerCircle_1_"
               transform="matrix(0.745435,0,0,0.745435,33.1524,21.6828)">
                <path d="M117.435,116.771c-8.587,-4.523 -14.444,-13.541 -14.444,-23.928c0,-14.922 12.089,-27.018 27,-27.018c14.91,0 27,12.096 27,27.018c0,10.35 -5.814,19.338 -14.349,23.876"
                      style="fill:#f9f9f9;stroke:#000;stroke-width:2.08px;"/>
            </g>
        </g>
    </g>
    <g id="Description"
       transform="matrix(1,0,0,1,-3.89421,-22.7183)">
        <path d="M30.182,63.142l-1.472,0l-1.8,-5.328l1.376,0l1.16,4.056l1.16,-4.056l1.376,0l-1.8,5.328Z"
              style="fill-rule:nonzero;stroke:#000;stroke-width:0.3px;stroke-linejoin:round;stroke-miterlimit:1.41421;"/>
        <path d="M35.438,57.718c0.278,0 0.556,0.027 0.836,0.08c0.28,0.054 0.522,0.131 0.724,0.232l-0.192,0.968c-0.16,-0.064 -0.342,-0.118 -0.548,-0.164c-0.205,-0.045 -0.409,-0.068 -0.612,-0.068c-0.544,0 -0.973,0.142 -1.288,0.424c-0.314,0.283 -0.472,0.712 -0.472,1.288c0,0.576 0.158,1.006 0.472,1.288c0.315,0.283 0.744,0.424 1.288,0.424c0.203,0 0.407,-0.022 0.612,-0.068c0.206,-0.045 0.388,-0.1 0.548,-0.164l0.192,0.968c-0.202,0.102 -0.444,0.179 -0.724,0.232c-0.28,0.054 -0.558,0.08 -0.836,0.08c-0.469,0 -0.882,-0.069 -1.24,-0.208c-0.357,-0.138 -0.656,-0.33 -0.896,-0.576c-0.24,-0.245 -0.421,-0.536 -0.544,-0.872c-0.122,-0.336 -0.184,-0.704 -0.184,-1.104c0,-0.4 0.062,-0.768 0.184,-1.104c0.123,-0.336 0.304,-0.626 0.544,-0.872c0.24,-0.245 0.539,-0.437 0.896,-0.576c0.358,-0.138 0.771,-0.208 1.24,-0.208Z"
              style="fill-rule:nonzero;stroke:#000;stroke-width:0.3px;stroke-linejoin:round;stroke-miterlimit:1.41421;"/>
        <path d="M43.926,62.294l-1.264,0l-1.04,-2.136l-0.16,2.984l-1.288,0l0.4,-5.328l1.184,0l1.536,3.256l1.536,-3.256l1.184,0l0.4,5.328l-1.288,0l-0.16,-2.984l-1.04,2.136Z"
              style="fill-rule:nonzero;stroke:#000;stroke-width:0.3px;stroke-linejoin:round;stroke-miterlimit:1.41421;"/>
        <rect x="47.71"
              y="57.814"
              width="1.312"
              height="5.328"
              style="fill-rule:nonzero;stroke:#000;stroke-width:0.3px;stroke-linejoin:round;stroke-miterlimit:1.41421;"/>
        <path d="M53.27,60.462l1.8,2.68l-1.4,0l-1.072,-1.704l-1.072,1.704l-1.4,0l1.8,-2.68l-1.768,-2.648l1.392,0l1.048,1.664l1.048,-1.664l1.392,0l-1.768,2.648Z"
              style="fill-rule:nonzero;stroke:#000;stroke-width:0.3px;stroke-linejoin:round;stroke-miterlimit:1.41421;"/>
        <path d="M56.134,57.814l3.32,0l0,1.04l-2.008,0l0,1.072l1.912,0l0,1.04l-1.912,0l0,1.136l2.032,0l0,1.04l-3.344,0l0,-5.328Z"
              style="fill-rule:nonzero;stroke:#000;stroke-width:0.3px;stroke-linejoin:round;stroke-miterlimit:1.41421;"/>
        <path d="M64.798,59.502c0,0.358 -0.1,0.67 -0.3,0.936c-0.2,0.267 -0.478,0.47 -0.836,0.608l1.752,2.096l-1.616,0l-1.464,-1.848l-0.24,0l0,1.848l-1.312,0l0,-5.328l1.696,0c0.331,0 0.638,0.035 0.92,0.104c0.283,0.07 0.528,0.174 0.736,0.312c0.208,0.139 0.371,0.314 0.488,0.524c0.118,0.211 0.176,0.46 0.176,0.748Zm-1.264,0.024c0,-0.24 -0.093,-0.417 -0.28,-0.532c-0.186,-0.114 -0.448,-0.172 -0.784,-0.172l-0.376,0l0,1.496l0.32,0c0.352,0 0.627,-0.069 0.824,-0.208c0.198,-0.138 0.296,-0.333 0.296,-0.584Z"
              style="fill-rule:nonzero;stroke:#000;stroke-width:0.3px;stroke-linejoin:round;stroke-miterlimit:1.41421;"/>
        <path d="M71.71,62.11l-2.04,0l-0.328,1.032l-1.352,0l1.984,-5.328l1.44,0l1.984,5.328l-1.352,0l-0.336,-1.032Zm-1.704,-1.04l1.368,0l-0.68,-2.248l-0.688,2.248Z"
              style="fill-rule:nonzero;stroke:#000;stroke-width:0.3px;stroke-linejoin:round;stroke-miterlimit:1.41421;"/>
        <path d="M77.982,62.294l-1.264,0l-1.04,-2.136l-0.16,2.984l-1.288,0l0.4,-5.328l1.184,0l1.536,3.256l1.536,-3.256l1.184,0l0.4,5.328l-1.288,0l-0.16,-2.984l-1.04,2.136Z"
              style="fill-rule:nonzero;stroke:#000;stroke-width:0.3px;stroke-linejoin:round;stroke-miterlimit:1.41421;"/>
        <path d="M85.582,59.55c0,0.283 -0.061,0.536 -0.184,0.76c-0.122,0.224 -0.292,0.412 -0.508,0.564c-0.216,0.152 -0.47,0.268 -0.764,0.348c-0.293,0.08 -0.61,0.12 -0.952,0.12l-0.136,0l0,1.8l-1.312,0l0,-5.328l1.536,0c0.336,0 0.647,0.035 0.932,0.104c0.286,0.07 0.531,0.175 0.736,0.316c0.206,0.142 0.366,0.322 0.48,0.54c0.115,0.219 0.172,0.478 0.172,0.776Zm-1.264,0.008c0,-0.49 -0.349,-0.736 -1.048,-0.736l-0.232,0l0,1.512l0.216,0c0.347,0 0.611,-0.069 0.792,-0.208c0.182,-0.138 0.272,-0.328 0.272,-0.568Z"
              style="fill-rule:nonzero;stroke:#000;stroke-width:0.3px;stroke-linejoin:round;stroke-miterlimit:1.41421;"/>
    </g>
    <g transform="matrix(0.742645,0,0,0.780697,-13.6716,-14.6283)">
        <g id="Description1"
           serif:id="Description">
            <path d="M153.063,63.926c0,-1.611 -1.375,-2.919 -3.068,-2.919l-121.785,0c-1.693,0 -3.068,1.308 -3.068,2.919l0,13.601c0,1.611 1.375,2.919 3.068,2.919l121.785,0c1.693,0 3.068,-1.308 3.068,-2.919l0,-13.601Z"/>
        </g>
    </g>
    <g id="Description--Art-Text-"
       serif:id="Description (Art Text)"
       transform="matrix(1,0,0,1,-3.76801,-19.7957)">
        <path d="M30.295,63.142l1.907,-5.661l-1.361,0l-0.722,2.419c-0.193,0.647 -0.37,1.319 -0.512,1.999l-0.026,0c-0.134,-0.705 -0.31,-1.352 -0.504,-2.024l-0.688,-2.394l-1.403,0l1.814,5.661l1.495,0Z"
              style="fill:#fff;fill-rule:nonzero;"/>
        <path d="M37.125,61.983c-0.252,0.101 -0.681,0.185 -1.067,0.185c-1.143,0 -1.815,-0.714 -1.815,-1.848c0,-1.26 0.79,-1.873 1.806,-1.873c0.454,0 0.815,0.101 1.076,0.21l0.26,-1.017c-0.227,-0.117 -0.731,-0.243 -1.394,-0.243c-1.714,0 -3.092,1.067 -3.092,2.999c0,1.612 1.008,2.839 2.966,2.839c0.688,0 1.218,-0.135 1.453,-0.252l-0.193,-1Z"
              style="fill:#fff;fill-rule:nonzero;"/>
        <path d="M45.567,63.142l1.251,0l-0.311,-5.661l-1.671,0l-0.605,1.881c-0.193,0.63 -0.378,1.403 -0.538,2.058l-0.025,0c-0.126,-0.663 -0.294,-1.402 -0.479,-2.049l-0.554,-1.89l-1.705,0l-0.361,5.661l1.184,0l0.101,-2.15c0.042,-0.706 0.067,-1.579 0.101,-2.344l0.016,0c0.135,0.74 0.328,1.546 0.513,2.218l0.596,2.184l1.008,0l0.689,-2.201c0.21,-0.655 0.454,-1.478 0.63,-2.201l0.025,0c0,0.824 0.025,1.647 0.051,2.327l0.084,2.167Z"
              style="fill:#fff;fill-rule:nonzero;"/>
        <rect x="48.221"
              y="57.481"
              width="1.285"
              height="5.662"
              style="fill:#fff;fill-rule:nonzero;"/>
        <path d="M55.495,63.142l-1.68,-2.898l1.596,-2.763l-1.461,0l-0.479,1.033c-0.143,0.328 -0.252,0.58 -0.386,0.941l-0.017,0c-0.135,-0.319 -0.261,-0.597 -0.429,-0.941l-0.495,-1.033l-1.47,0l1.579,2.797l-1.638,2.864l1.462,0l0.47,-1.024c0.176,-0.395 0.319,-0.689 0.437,-1.017l0.017,0c0.159,0.328 0.294,0.622 0.504,1.017l0.512,1.024l1.478,0Z"
              style="fill:#fff;fill-rule:nonzero;"/>
        <path d="M59.973,59.707l-2.084,0l0,-1.176l2.21,0l0,-1.05l-3.495,0l0,5.661l3.612,0l0,-1.05l-2.327,0l0,-1.344l2.084,0l0,-1.041Z"
              style="fill:#fff;fill-rule:nonzero;"/>
        <path d="M61.51,63.142l1.268,0l0,-2.226l0.387,0c0.52,0.009 0.764,0.202 0.915,0.908c0.168,0.697 0.303,1.159 0.395,1.318l1.31,0c-0.109,-0.218 -0.285,-0.957 -0.462,-1.596c-0.142,-0.52 -0.361,-0.898 -0.756,-1.058l0,-0.025c0.488,-0.177 1,-0.672 1,-1.395c0,-0.52 -0.185,-0.915 -0.521,-1.184c-0.403,-0.319 -0.991,-0.445 -1.831,-0.445c-0.68,0 -1.294,0.05 -1.705,0.117l0,5.586Zm1.268,-4.712c0.093,-0.017 0.269,-0.042 0.58,-0.042c0.588,0.008 0.941,0.269 0.941,0.79c0,0.495 -0.378,0.814 -1.017,0.814l-0.504,0l0,-1.562Z"
              style="fill:#fff;fill-rule:nonzero;"/>
        <path d="M71.968,61.689l0.437,1.453l1.377,0l-1.755,-5.661l-1.68,0l-1.731,5.661l1.327,0l0.404,-1.453l1.621,0Zm-1.437,-0.957l0.336,-1.202c0.093,-0.327 0.177,-0.756 0.261,-1.092l0.017,0c0.084,0.336 0.184,0.756 0.285,1.092l0.353,1.202l-1.252,0Z"
              style="fill:#fff;fill-rule:nonzero;"/>
        <path d="M79.83,63.142l1.252,0l-0.311,-5.661l-1.672,0l-0.604,1.881c-0.194,0.63 -0.378,1.403 -0.538,2.058l-0.025,0c-0.126,-0.663 -0.294,-1.402 -0.479,-2.049l-0.554,-1.89l-1.706,0l-0.361,5.661l1.185,0l0.1,-2.15c0.042,-0.706 0.068,-1.579 0.101,-2.344l0.017,0c0.134,0.74 0.328,1.546 0.512,2.218l0.597,2.184l1.008,0l0.689,-2.201c0.21,-0.655 0.453,-1.478 0.63,-2.201l0.025,0c0,0.824 0.025,1.647 0.05,2.327l0.084,2.167Z"
              style="fill:#fff;fill-rule:nonzero;"/>
        <path d="M82.485,63.142l1.268,0l0,-2.016c0.118,0.009 0.269,0.026 0.445,0.026c0.748,0 1.395,-0.194 1.831,-0.605c0.336,-0.311 0.521,-0.781 0.521,-1.344c0,-0.555 -0.243,-1.025 -0.605,-1.311c-0.378,-0.302 -0.94,-0.453 -1.73,-0.453c-0.764,0 -1.336,0.05 -1.73,0.117l0,5.586Zm1.268,-4.695c0.092,-0.017 0.26,-0.042 0.512,-0.042c0.664,0 1.017,0.311 1.017,0.84c0,0.571 -0.42,0.915 -1.101,0.915c-0.184,0 -0.336,-0.008 -0.428,-0.025l0,-1.688Z"
              style="fill:#fff;fill-rule:nonzero;"/>
    </g>
    <g id="Label"
       transform="matrix(1,0,0,1,7.5,0)">
        <g id="Description2"
           serif:id="Description"
           transform="matrix(1,0,0,1,-9.6616,216.412)">
            <path d="M30.022,57.718c0.24,0 0.491,0.023 0.752,0.068c0.262,0.046 0.48,0.106 0.656,0.18l-0.12,0.568c-0.181,-0.064 -0.376,-0.116 -0.584,-0.156c-0.208,-0.04 -0.413,-0.06 -0.616,-0.06c-0.666,0 -1.186,0.187 -1.56,0.56c-0.373,0.374 -0.56,0.907 -0.56,1.6c0,0.694 0.187,1.227 0.56,1.6c0.374,0.374 0.894,0.56 1.56,0.56c0.203,0 0.408,-0.02 0.616,-0.06c0.208,-0.04 0.403,-0.092 0.584,-0.156l0.12,0.568c-0.176,0.075 -0.394,0.135 -0.656,0.18c-0.261,0.046 -0.512,0.068 -0.752,0.068c-0.437,0 -0.828,-0.069 -1.172,-0.208c-0.344,-0.138 -0.633,-0.33 -0.868,-0.576c-0.234,-0.245 -0.414,-0.536 -0.54,-0.872c-0.125,-0.336 -0.188,-0.704 -0.188,-1.104c0,-0.4 0.063,-0.768 0.188,-1.104c0.126,-0.336 0.306,-0.626 0.54,-0.872c0.235,-0.245 0.524,-0.437 0.868,-0.576c0.344,-0.138 0.735,-0.208 1.172,-0.208Z"
                  style="fill-rule:nonzero;stroke:#000;stroke-width:0.3px;stroke-linejoin:round;stroke-miterlimit:1.41421;"/>
            <path d="M36.166,57.814l0.736,0l-1.912,5.328l-0.768,0l-1.912,-5.328l0.736,0l1.56,4.456l1.56,-4.456Z"
                  style="fill-rule:nonzero;stroke:#000;stroke-width:0.3px;stroke-linejoin:round;stroke-miterlimit:1.41421;"/>
        </g>
        <g id="Shapes">
            <g id="Description3"
               serif:id="Description"
               transform="matrix(1,0,0,1,53.982,203.234)">
                <path d="M27.42,59.146l2.136,0l0,0.336l-1.728,0l0,1.446l1.656,0l0,0.336l-1.656,0l0,1.542l1.746,0l0,0.336l-2.154,0l0,-3.996Z"
                      style="fill-rule:nonzero;stroke:#000;stroke-width:0.3px;stroke-linejoin:round;stroke-miterlimit:1.41421;"/>
                <path d="M33.108,59.146l0.45,0l-1.338,1.986l1.362,2.01l-0.456,0l-1.116,-1.692l-1.116,1.692l-0.456,0l1.362,-2.01l-1.338,-1.986l0.45,0l1.098,1.662l1.098,-1.662Z"
                      style="fill-rule:nonzero;stroke:#000;stroke-width:0.3px;stroke-linejoin:round;stroke-miterlimit:1.41421;"/>
                <path d="M36.942,60.286c0,0.192 -0.04,0.364 -0.12,0.516c-0.08,0.152 -0.191,0.28 -0.333,0.384c-0.142,0.104 -0.31,0.184 -0.504,0.24c-0.194,0.056 -0.407,0.084 -0.639,0.084l-0.348,0l0,1.632l-0.408,0l0,-3.996l0.894,0c0.2,0 0.389,0.024 0.567,0.072c0.178,0.048 0.333,0.12 0.465,0.216c0.132,0.096 0.236,0.215 0.312,0.357c0.076,0.142 0.114,0.307 0.114,0.495Zm-0.408,0c0,-0.144 -0.029,-0.267 -0.087,-0.369c-0.058,-0.102 -0.137,-0.185 -0.237,-0.249c-0.1,-0.064 -0.214,-0.111 -0.342,-0.141c-0.128,-0.03 -0.262,-0.045 -0.402,-0.045l-0.468,0l0,1.692l0.366,0c0.168,0 0.324,-0.02 0.468,-0.06c0.144,-0.04 0.268,-0.097 0.372,-0.171c0.104,-0.074 0.185,-0.166 0.243,-0.276c0.058,-0.11 0.087,-0.237 0.087,-0.381Z"
                      style="fill-rule:nonzero;stroke:#000;stroke-width:0.3px;stroke-linejoin:round;stroke-miterlimit:1.41421;"/>
            </g>
            <g id="Description4"
               serif:id="Description"
               transform="matrix(1,0,0,1,14.3408,203.306)">
                <path d="M27.828,59.146l0,3.66l1.686,0l0,0.336l-2.094,0l0,-3.996l0.408,0Z"
                      style="fill-rule:nonzero;stroke:#000;stroke-width:0.3px;stroke-linejoin:round;stroke-miterlimit:1.41421;"/>
                <path d="M32.028,63.214c-0.304,0 -0.575,-0.056 -0.813,-0.168c-0.238,-0.112 -0.438,-0.263 -0.6,-0.453c-0.162,-0.19 -0.286,-0.41 -0.372,-0.66c-0.086,-0.25 -0.129,-0.513 -0.129,-0.789c0,-0.276 0.043,-0.539 0.129,-0.789c0.086,-0.25 0.21,-0.47 0.372,-0.66c0.162,-0.19 0.362,-0.341 0.6,-0.453c0.238,-0.112 0.509,-0.168 0.813,-0.168c0.304,0 0.575,0.056 0.813,0.168c0.238,0.112 0.438,0.263 0.6,0.453c0.162,0.19 0.286,0.41 0.372,0.66c0.086,0.25 0.129,0.513 0.129,0.789c0,0.276 -0.043,0.539 -0.129,0.789c-0.086,0.25 -0.21,0.47 -0.372,0.66c-0.162,0.19 -0.362,0.341 -0.6,0.453c-0.238,0.112 -0.509,0.168 -0.813,0.168Zm0,-0.336c0.24,0 0.453,-0.046 0.639,-0.138c0.186,-0.092 0.344,-0.216 0.474,-0.372c0.13,-0.156 0.228,-0.339 0.294,-0.549c0.066,-0.21 0.099,-0.435 0.099,-0.675c0,-0.236 -0.033,-0.459 -0.099,-0.669c-0.066,-0.21 -0.164,-0.394 -0.294,-0.552c-0.13,-0.158 -0.288,-0.283 -0.474,-0.375c-0.186,-0.092 -0.399,-0.138 -0.639,-0.138c-0.24,0 -0.453,0.046 -0.639,0.138c-0.186,0.092 -0.343,0.217 -0.471,0.375c-0.128,0.158 -0.226,0.342 -0.294,0.552c-0.068,0.21 -0.102,0.433 -0.102,0.669c0,0.24 0.034,0.465 0.102,0.675c0.068,0.21 0.166,0.393 0.294,0.549c0.128,0.156 0.285,0.28 0.471,0.372c0.186,0.092 0.399,0.138 0.639,0.138Z"
                      style="fill-rule:nonzero;stroke:#000;stroke-width:0.3px;stroke-linejoin:round;stroke-miterlimit:1.41421;"/>
                <path d="M36.9,59.074c0.216,0 0.424,0.017 0.624,0.051c0.2,0.034 0.384,0.091 0.552,0.171l-0.072,0.33c-0.164,-0.068 -0.34,-0.121 -0.528,-0.159c-0.188,-0.038 -0.378,-0.057 -0.57,-0.057c-0.26,0 -0.495,0.039 -0.705,0.117c-0.21,0.078 -0.39,0.193 -0.54,0.345c-0.15,0.152 -0.266,0.338 -0.348,0.558c-0.082,0.22 -0.123,0.472 -0.123,0.756c0,0.536 0.147,0.953 0.441,1.251c0.294,0.298 0.721,0.447 1.281,0.447c0.128,0 0.271,-0.01 0.429,-0.03c0.158,-0.02 0.289,-0.046 0.393,-0.078l0,-1.356l0.378,0l0,1.59c-0.16,0.064 -0.354,0.114 -0.582,0.15c-0.228,0.036 -0.45,0.054 -0.666,0.054c-0.324,0 -0.614,-0.049 -0.87,-0.147c-0.256,-0.098 -0.474,-0.236 -0.654,-0.414c-0.18,-0.178 -0.318,-0.392 -0.414,-0.642c-0.096,-0.25 -0.144,-0.525 -0.144,-0.825c0,-0.32 0.049,-0.61 0.147,-0.87c0.098,-0.26 0.239,-0.482 0.423,-0.666c0.184,-0.184 0.407,-0.326 0.669,-0.426c0.262,-0.1 0.555,-0.15 0.879,-0.15Z"
                      style="fill-rule:nonzero;stroke:#000;stroke-width:0.3px;stroke-linejoin:round;stroke-miterlimit:1.41421;"/>
            </g>
            <g id="Description5"
               serif:id="Description"
               transform="matrix(1,0,0,1,35.049,174.078)">
                <path d="M27.828,59.146l0,3.66l1.686,0l0,0.336l-2.094,0l0,-3.996l0.408,0Z"
                      style="fill-rule:nonzero;stroke:#000;stroke-width:0.3px;stroke-linejoin:round;stroke-miterlimit:1.41421;"/>
                <rect x="30.498"
                      y="59.146"
                      width="0.408"
                      height="3.996"
                      style="fill-rule:nonzero;stroke:#000;stroke-width:0.3px;stroke-linejoin:round;stroke-miterlimit:1.41421;"/>
                <path d="M35.016,63.142l-2.37,-3.342l0,3.342l-0.39,0l0,-3.996l0.39,0l2.37,3.342l0,-3.342l0.39,0l0,3.996l-0.39,0Z"
                      style="fill-rule:nonzero;stroke:#000;stroke-width:0.3px;stroke-linejoin:round;stroke-miterlimit:1.41421;"/>
            </g>
        </g>
        <g id="Description6"
           serif:id="Description"
           transform="matrix(1,0,0,1,28.3,216.412)">
            <path d="M30.622,61.758c0,0.23 -0.049,0.435 -0.148,0.616c-0.098,0.182 -0.232,0.336 -0.4,0.464c-0.168,0.128 -0.365,0.227 -0.592,0.296c-0.226,0.07 -0.47,0.104 -0.732,0.104c-0.256,0 -0.518,-0.026 -0.788,-0.08c-0.269,-0.053 -0.516,-0.133 -0.74,-0.24l0.144,-0.584c0.198,0.091 0.415,0.166 0.652,0.224c0.238,0.059 0.476,0.088 0.716,0.088c0.347,0 0.627,-0.073 0.84,-0.22c0.214,-0.146 0.32,-0.358 0.32,-0.636c0,-0.154 -0.03,-0.286 -0.092,-0.396c-0.061,-0.109 -0.145,-0.208 -0.252,-0.296c-0.106,-0.088 -0.23,-0.166 -0.372,-0.236c-0.141,-0.069 -0.292,-0.141 -0.452,-0.216c-0.181,-0.085 -0.356,-0.174 -0.524,-0.268c-0.168,-0.093 -0.316,-0.2 -0.444,-0.32c-0.128,-0.12 -0.23,-0.256 -0.308,-0.408c-0.077,-0.152 -0.116,-0.329 -0.116,-0.532c0,-0.229 0.042,-0.432 0.124,-0.608c0.083,-0.176 0.199,-0.322 0.348,-0.44c0.15,-0.117 0.328,-0.205 0.536,-0.264c0.208,-0.058 0.438,-0.088 0.688,-0.088c0.256,0 0.506,0.03 0.748,0.088c0.243,0.059 0.455,0.136 0.636,0.232l-0.136,0.584c-0.17,-0.09 -0.365,-0.165 -0.584,-0.224c-0.218,-0.058 -0.44,-0.088 -0.664,-0.088c-0.645,0 -0.968,0.251 -0.968,0.752c0,0.112 0.016,0.21 0.048,0.292c0.032,0.083 0.084,0.16 0.156,0.232c0.072,0.072 0.168,0.142 0.288,0.208c0.12,0.067 0.266,0.143 0.436,0.228c0.171,0.086 0.352,0.178 0.544,0.276c0.192,0.099 0.368,0.216 0.528,0.352c0.16,0.136 0.294,0.295 0.4,0.476c0.107,0.182 0.16,0.392 0.16,0.632Z"
                  style="fill-rule:nonzero;stroke:#000;stroke-width:0.3px;stroke-linejoin:round;stroke-miterlimit:1.41421;"/>
            <path d="M35.422,63.142l0,-2.392l-2.728,0l0,2.392l-0.736,0l0,-5.328l0.736,0l0,2.312l2.728,0l0,-2.312l0.736,0l0,5.328l-0.736,0Z"
                  style="fill-rule:nonzero;stroke:#000;stroke-width:0.3px;stroke-linejoin:round;stroke-miterlimit:1.41421;"/>
            <path d="M42.382,63.142l-0.752,0l-0.488,-1.288l-2.488,0l-0.48,1.288l-0.752,0l2.12,-5.328l0.72,0l2.12,5.328Zm-3.504,-1.88l2.048,0l-1.024,-2.776l-1.024,2.776Z"
                  style="fill-rule:nonzero;stroke:#000;stroke-width:0.3px;stroke-linejoin:round;stroke-miterlimit:1.41421;"/>
            <path d="M46.974,59.374c0,0.256 -0.056,0.487 -0.168,0.692c-0.112,0.206 -0.268,0.38 -0.468,0.524c-0.2,0.144 -0.436,0.255 -0.708,0.332c-0.272,0.078 -0.565,0.116 -0.88,0.116l-0.368,0l0,2.104l-0.736,0l0,-5.328l1.288,0c0.288,0 0.556,0.032 0.804,0.096c0.248,0.064 0.464,0.162 0.648,0.292c0.184,0.131 0.328,0.294 0.432,0.488c0.104,0.195 0.156,0.423 0.156,0.684Zm-0.736,-0.008c0,-0.176 -0.034,-0.324 -0.104,-0.444c-0.069,-0.12 -0.164,-0.218 -0.284,-0.296c-0.12,-0.077 -0.261,-0.133 -0.424,-0.168c-0.162,-0.034 -0.334,-0.052 -0.516,-0.052l-0.528,0l0,2.04l0.392,0c0.214,0 0.41,-0.024 0.588,-0.072c0.179,-0.048 0.334,-0.118 0.464,-0.212c0.131,-0.093 0.232,-0.206 0.304,-0.34c0.072,-0.133 0.108,-0.285 0.108,-0.456Z"
                  style="fill-rule:nonzero;stroke:#000;stroke-width:0.3px;stroke-linejoin:round;stroke-miterlimit:1.41421;"/>
            <path d="M48.11,57.814l2.968,0l0,0.6l-2.232,0l0,1.704l2.136,0l0,0.6l-2.136,0l0,1.824l2.256,0l0,0.6l-2.992,0l0,-5.328Z"
                  style="fill-rule:nonzero;stroke:#000;stroke-width:0.3px;stroke-linejoin:round;stroke-miterlimit:1.41421;"/>
        </g>
        <g id="Description7"
           serif:id="Description"
           transform="matrix(1,0,0,1,32.292,281.412)">
            <path d="M29.87,63.238c-0.416,0 -0.786,-0.074 -1.112,-0.224c-0.325,-0.149 -0.597,-0.349 -0.816,-0.6c-0.218,-0.25 -0.385,-0.544 -0.5,-0.88c-0.114,-0.336 -0.172,-0.688 -0.172,-1.056c0,-0.368 0.058,-0.72 0.172,-1.056c0.115,-0.336 0.282,-0.629 0.5,-0.88c0.219,-0.25 0.491,-0.45 0.816,-0.6c0.326,-0.149 0.696,-0.224 1.112,-0.224c0.416,0 0.787,0.075 1.112,0.224c0.326,0.15 0.598,0.35 0.816,0.6c0.219,0.251 0.386,0.544 0.5,0.88c0.115,0.336 0.172,0.688 0.172,1.056c0,0.368 -0.057,0.72 -0.172,1.056c-0.114,0.336 -0.281,0.63 -0.5,0.88c-0.218,0.251 -0.49,0.451 -0.816,0.6c-0.325,0.15 -0.696,0.224 -1.112,0.224Zm0,-0.592c0.304,0 0.574,-0.056 0.808,-0.168c0.235,-0.112 0.43,-0.266 0.584,-0.464c0.155,-0.197 0.272,-0.428 0.352,-0.692c0.08,-0.264 0.12,-0.545 0.12,-0.844c0,-0.298 -0.04,-0.58 -0.12,-0.844c-0.08,-0.264 -0.197,-0.493 -0.352,-0.688c-0.154,-0.194 -0.349,-0.349 -0.584,-0.464c-0.234,-0.114 -0.504,-0.172 -0.808,-0.172c-0.304,0 -0.573,0.058 -0.808,0.172c-0.234,0.115 -0.429,0.27 -0.584,0.464c-0.154,0.195 -0.272,0.424 -0.352,0.688c-0.08,0.264 -0.12,0.546 -0.12,0.844c0,0.299 0.04,0.58 0.12,0.844c0.08,0.264 0.198,0.495 0.352,0.692c0.155,0.198 0.35,0.352 0.584,0.464c0.235,0.112 0.504,0.168 0.808,0.168Z"
                  style="fill-rule:nonzero;stroke:#000;stroke-width:0.3px;stroke-linejoin:round;stroke-miterlimit:1.41421;"/>
            <path d="M37.278,57.814l0.736,0l0,3.44c0,0.278 -0.045,0.538 -0.136,0.78c-0.09,0.243 -0.224,0.454 -0.4,0.632c-0.176,0.179 -0.393,0.319 -0.652,0.42c-0.258,0.102 -0.558,0.152 -0.9,0.152c-0.341,0 -0.641,-0.05 -0.9,-0.152c-0.258,-0.101 -0.476,-0.241 -0.652,-0.42c-0.176,-0.178 -0.309,-0.389 -0.4,-0.632c-0.09,-0.242 -0.136,-0.502 -0.136,-0.78l0,-3.44l0.736,0l0,3.472c0,0.4 0.114,0.726 0.34,0.976c0.227,0.251 0.564,0.376 1.012,0.376c0.448,0 0.786,-0.125 1.012,-0.376c0.227,-0.25 0.34,-0.576 0.34,-0.976l0,-3.472Z"
                  style="fill-rule:nonzero;stroke:#000;stroke-width:0.3px;stroke-linejoin:round;stroke-miterlimit:1.41421;"/>
            <path d="M43.07,57.814l0,0.6l-1.568,0l0,4.728l-0.736,0l0,-4.728l-1.568,0l0,-0.6l3.872,0Z"
                  style="fill-rule:nonzero;stroke:#000;stroke-width:0.3px;stroke-linejoin:round;stroke-miterlimit:1.41421;"/>
        </g>
        <g id="Description8"
           serif:id="Description"
           transform="matrix(1,0,0,1,-19.7,281.412)">
            <path d="M32.118,57.814l0.664,0l0.384,5.328l-0.704,0l-0.256,-4.152l-1.536,3.192l-0.752,0l-1.536,-3.192l-0.256,4.152l-0.704,0l0.384,-5.328l0.664,0l1.824,3.768l1.824,-3.768Z"
                  style="fill-rule:nonzero;stroke:#000;stroke-width:0.3px;stroke-linejoin:round;stroke-miterlimit:1.41421;"/>
            <path d="M39.262,63.142l-0.752,0l-0.488,-1.288l-2.488,0l-0.48,1.288l-0.752,0l2.12,-5.328l0.72,0l2.12,5.328Zm-3.504,-1.88l2.048,0l-1.024,-2.776l-1.024,2.776Z"
                  style="fill-rule:nonzero;stroke:#000;stroke-width:0.3px;stroke-linejoin:round;stroke-miterlimit:1.41421;"/>
            <path d="M43.598,61.758c0,0.23 -0.049,0.435 -0.148,0.616c-0.098,0.182 -0.232,0.336 -0.4,0.464c-0.168,0.128 -0.365,0.227 -0.592,0.296c-0.226,0.07 -0.47,0.104 -0.732,0.104c-0.256,0 -0.518,-0.026 -0.788,-0.08c-0.269,-0.053 -0.516,-0.133 -0.74,-0.24l0.144,-0.584c0.198,0.091 0.415,0.166 0.652,0.224c0.238,0.059 0.476,0.088 0.716,0.088c0.347,0 0.627,-0.073 0.84,-0.22c0.214,-0.146 0.32,-0.358 0.32,-0.636c0,-0.154 -0.03,-0.286 -0.092,-0.396c-0.061,-0.109 -0.145,-0.208 -0.252,-0.296c-0.106,-0.088 -0.23,-0.166 -0.372,-0.236c-0.141,-0.069 -0.292,-0.141 -0.452,-0.216c-0.181,-0.085 -0.356,-0.174 -0.524,-0.268c-0.168,-0.093 -0.316,-0.2 -0.444,-0.32c-0.128,-0.12 -0.23,-0.256 -0.308,-0.408c-0.077,-0.152 -0.116,-0.329 -0.116,-0.532c0,-0.229 0.042,-0.432 0.124,-0.608c0.083,-0.176 0.199,-0.322 0.348,-0.44c0.15,-0.117 0.328,-0.205 0.536,-0.264c0.208,-0.058 0.438,-0.088 0.688,-0.088c0.256,0 0.506,0.03 0.748,0.088c0.243,0.059 0.455,0.136 0.636,0.232l-0.136,0.584c-0.17,-0.09 -0.365,-0.165 -0.584,-0.224c-0.218,-0.058 -0.44,-0.088 -0.664,-0.088c-0.645,0 -0.968,0.251 -0.968,0.752c0,0.112 0.016,0.21 0.048,0.292c0.032,0.083 0.084,0.16 0.156,0.232c0.072,0.072 0.168,0.142 0.288,0.208c0.12,0.067 0.266,0.143 0.436,0.228c0.171,0.086 0.352,0.178 0.544,0.276c0.192,0.099 0.368,0.216 0.528,0.352c0.16,0.136 0.294,0.295 0.4,0.476c0.107,0.182 0.16,0.392 0.16,0.632Z"
                  style="fill-rule:nonzero;stroke:#000;stroke-width:0.3px;stroke-linejoin:round;stroke-miterlimit:1.41421;"/>
            <path d="M48.342,57.814l0,0.6l-1.568,0l0,4.728l-0.736,0l0,-4.728l-1.568,0l0,-0.6l3.872,0Z"
                  style="fill-rule:nonzero;stroke:#000;stroke-width:0.3px;stroke-linejoin:round;stroke-miterlimit:1.41421;"/>
            <path d="M49.558,57.814l2.968,0l0,0.6l-2.232,0l0,1.704l2.136,0l0,0.6l-2.136,0l0,1.824l2.256,0l0,0.6l-2.992,0l0,-5.328Z"
                  style="fill-rule:nonzero;stroke:#000;stroke-width:0.3px;stroke-linejoin:round;stroke-miterlimit:1.41421;"/>
            <path d="M54.774,63.142l-0.736,0l0,-5.328l1.384,0c0.288,0 0.556,0.032 0.804,0.096c0.248,0.064 0.466,0.159 0.652,0.284c0.187,0.126 0.334,0.283 0.44,0.472c0.107,0.19 0.16,0.407 0.16,0.652c0,0.368 -0.118,0.688 -0.356,0.96c-0.237,0.272 -0.569,0.47 -0.996,0.592l1.88,2.272l-0.904,0l-1.736,-2.144c-0.026,0 -0.066,0.002 -0.12,0.004c-0.053,0.003 -0.109,0.004 -0.168,0.004l-0.304,0l0,2.136Zm1.968,-3.808c0,-0.165 -0.036,-0.308 -0.108,-0.428c-0.072,-0.12 -0.169,-0.216 -0.292,-0.288c-0.122,-0.072 -0.264,-0.125 -0.424,-0.16c-0.16,-0.034 -0.328,-0.052 -0.504,-0.052l-0.64,0l0,2.008l0.368,0c0.224,0 0.434,-0.021 0.628,-0.064c0.195,-0.042 0.364,-0.108 0.508,-0.196c0.144,-0.088 0.258,-0.2 0.34,-0.336c0.083,-0.136 0.124,-0.297 0.124,-0.484Z"
                  style="fill-rule:nonzero;stroke:#000;stroke-width:0.3px;stroke-linejoin:round;stroke-miterlimit:1.41421;"/>
        </g>
    </g>
    <g id="Name"
       transform="matrix(1,0,0,1,7.5,3)">
        <g transform="matrix(0.928817,0,0,0.928817,-1.61353,1.98816)">
            <path d="M20.713,8.401c-0.153,0 -0.215,-0.083 -0.188,-0.249l0.25,-1.664c0.028,-0.167 0.118,-0.25 0.27,-0.25l3.266,0c0.152,0 0.243,0.077 0.27,0.229l2.08,11.17l5.367,-11.17c0.069,-0.152 0.187,-0.229 0.353,-0.229l2.351,0c0.152,0 0.194,0.077 0.125,0.229l-7.343,14.789c-0.069,0.152 -0.18,0.229 -0.333,0.229l-2.204,0c-0.153,0 -0.243,-0.077 -0.271,-0.229l-2.558,-12.855l-1.435,0Z"
                  style="fill-rule:nonzero;"/>
            <path d="M40.639,21.797c-1.054,0 -2,-0.205 -2.839,-0.614c-0.839,-0.409 -1.536,-0.974 -2.091,-1.695c-0.554,-0.721 -0.943,-1.574 -1.164,-2.559c-0.222,-0.984 -0.25,-2.052 -0.084,-3.203c0.167,-1.123 0.493,-2.166 0.978,-3.13c0.485,-0.964 1.092,-1.792 1.82,-2.486c0.728,-0.693 1.56,-1.237 2.496,-1.633c0.936,-0.395 1.938,-0.592 3.006,-0.592c1.178,0 2.215,0.28 3.109,0.842c0.895,0.562 1.598,1.439 2.111,2.631l-0.374,2.6c-0.028,0.153 -0.118,0.229 -0.27,0.229l-1.81,0c-0.153,0 -0.215,-0.076 -0.187,-0.229l0.249,-1.664c-0.235,-0.61 -0.617,-1.061 -1.144,-1.352c-0.527,-0.291 -1.144,-0.437 -1.851,-0.437c-1.345,0 -2.52,0.468 -3.525,1.404c-1.006,0.936 -1.619,2.16 -1.841,3.672c-0.236,1.636 0.007,2.981 0.728,4.035c0.721,1.054 1.775,1.581 3.161,1.581c1.096,0 2.115,-0.396 3.058,-1.186c0.111,-0.069 0.18,-0.104 0.208,-0.104c0.055,0 0.111,0.028 0.166,0.083l1.789,1.207c0.097,0.083 0.09,0.173 -0.021,0.27c-1.678,1.553 -3.57,2.33 -5.678,2.33Z"
                  style="fill-rule:nonzero;"/>
            <path d="M49.437,8.401c-0.152,0 -0.215,-0.083 -0.187,-0.249l0.25,-1.664c0.014,-0.167 0.097,-0.25 0.249,-0.25l4.264,0c0.167,0 0.278,0.07 0.333,0.208l3.515,7.176l5.7,-7.176c0.11,-0.138 0.235,-0.208 0.374,-0.208l2.6,0c0.152,0 0.215,0.083 0.187,0.25l-2.184,14.747c-0.028,0.166 -0.125,0.25 -0.291,0.25l-2.288,0c-0.139,0 -0.201,-0.084 -0.187,-0.25l1.581,-10.65l-4.576,5.637c-0.111,0.139 -0.243,0.208 -0.396,0.208l-1.872,0c-0.124,0 -0.228,-0.069 -0.312,-0.208l-2.891,-5.637l-1.581,10.65c-0.027,0.166 -0.118,0.25 -0.27,0.25l-2.309,0c-0.152,0 -0.215,-0.084 -0.187,-0.25l1.914,-12.834l-1.436,0Z"
                  style="fill-rule:nonzero;"/>
            <path d="M66.181,21.485c-0.124,0 -0.159,-0.077 -0.104,-0.229l6.719,-12.855l-1.456,0c-0.139,0 -0.201,-0.083 -0.187,-0.249l0.249,-1.664c0.014,-0.167 0.104,-0.25 0.271,-0.25l4.596,0c0.167,0 0.264,0.077 0.292,0.229l3.286,14.789c0.028,0.152 -0.042,0.229 -0.208,0.229l-2.288,0c-0.166,0 -0.257,-0.077 -0.27,-0.229l-0.77,-3.931l-5.533,0l-1.955,3.931c-0.056,0.152 -0.166,0.229 -0.333,0.229l-2.309,0Zm9.631,-6.594l-1.082,-5.387l-2.725,5.387l3.807,0Z"
                  style="fill-rule:nonzero;"/>
        </g>
        <g transform="matrix(0.928817,0,0,0.928817,-0.613528,2.98816)">
            <path d="M20.713,8.401c-0.153,0 -0.215,-0.083 -0.188,-0.249l0.25,-1.664c0.028,-0.167 0.118,-0.25 0.27,-0.25l3.266,0c0.152,0 0.243,0.077 0.27,0.229l2.08,11.17l5.367,-11.17c0.069,-0.152 0.187,-0.229 0.353,-0.229l2.351,0c0.152,0 0.194,0.077 0.125,0.229l-7.343,14.789c-0.069,0.152 -0.18,0.229 -0.333,0.229l-2.204,0c-0.153,0 -0.243,-0.077 -0.271,-0.229l-2.558,-12.855l-1.435,0Z"
                  style="fill-opacity:0.301961;fill-rule:nonzero;"/>
            <path d="M40.639,21.797c-1.054,0 -2,-0.205 -2.839,-0.614c-0.839,-0.409 -1.536,-0.974 -2.091,-1.695c-0.554,-0.721 -0.943,-1.574 -1.164,-2.559c-0.222,-0.984 -0.25,-2.052 -0.084,-3.203c0.167,-1.123 0.493,-2.166 0.978,-3.13c0.485,-0.964 1.092,-1.792 1.82,-2.486c0.728,-0.693 1.56,-1.237 2.496,-1.633c0.936,-0.395 1.938,-0.592 3.006,-0.592c1.178,0 2.215,0.28 3.109,0.842c0.895,0.562 1.598,1.439 2.111,2.631l-0.374,2.6c-0.028,0.153 -0.118,0.229 -0.27,0.229l-1.81,0c-0.153,0 -0.215,-0.076 -0.187,-0.229l0.249,-1.664c-0.235,-0.61 -0.617,-1.061 -1.144,-1.352c-0.527,-0.291 -1.144,-0.437 -1.851,-0.437c-1.345,0 -2.52,0.468 -3.525,1.404c-1.006,0.936 -1.619,2.16 -1.841,3.672c-0.236,1.636 0.007,2.981 0.728,4.035c0.721,1.054 1.775,1.581 3.161,1.581c1.096,0 2.115,-0.396 3.058,-1.186c0.111,-0.069 0.18,-0.104 0.208,-0.104c0.055,0 0.111,0.028 0.166,0.083l1.789,1.207c0.097,0.083 0.09,0.173 -0.021,0.27c-1.678,1.553 -3.57,2.33 -5.678,2.33Z"
                  style="fill-opacity:0.301961;fill-rule:nonzero;"/>
            <path d="M49.437,8.401c-0.152,0 -0.215,-0.083 -0.187,-0.249l0.25,-1.664c0.014,-0.167 0.097,-0.25 0.249,-0.25l4.264,0c0.167,0 0.278,0.07 0.333,0.208l3.515,7.176l5.7,-7.176c0.11,-0.138 0.235,-0.208 0.374,-0.208l2.6,0c0.152,0 0.215,0.083 0.187,0.25l-2.184,14.747c-0.028,0.166 -0.125,0.25 -0.291,0.25l-2.288,0c-0.139,0 -0.201,-0.084 -0.187,-0.25l1.581,-10.65l-4.576,5.637c-0.111,0.139 -0.243,0.208 -0.396,0.208l-1.872,0c-0.124,0 -0.228,-0.069 -0.312,-0.208l-2.891,-5.637l-1.581,10.65c-0.027,0.166 -0.118,0.25 -0.27,0.25l-2.309,0c-0.152,0 -0.215,-0.084 -0.187,-0.25l1.914,-12.834l-1.436,0Z"
                  style="fill-opacity:0.301961;fill-rule:nonzero;"/>
            <path d="M66.181,21.485c-0.124,0 -0.159,-0.077 -0.104,-0.229l6.719,-12.855l-1.456,0c-0.139,0 -0.201,-0.083 -0.187,-0.249l0.249,-1.664c0.014,-0.167 0.104,-0.25 0.271,-0.25l4.596,0c0.167,0 0.264,0.077 0.292,0.229l3.286,14.789c0.028,0.152 -0.042,0.229 -0.208,0.229l-2.288,0c-0.166,0 -0.257,-0.077 -0.27,-0.229l-0.77,-3.931l-5.533,0l-1.955,3.931c-0.056,0.152 -0.166,0.229 -0.333,0.229l-2.309,0Zm9.631,-6.594l-1.082,-5.387l-2.725,5.387l3.807,0Z"
                  style="fill-opacity:0.301961;fill-rule:nonzero;"/>
        </g>
    </g>
    <g transform="matrix(1.4997,0,0,0.398134,-3.84855,167.213)">
        <rect x="7.571"
              y="312.715"
              width="60.012"
              height="2.512"
              style="fill:#0a1250;fill-opacity:0.529412;"/>
    </g>
    <g transform="matrix(1.4997,0,0,0.398134,-3.84855,102.213)">
        <rect x="7.571"
              y="312.715"
              width="60.012"
              height="2.512"
              style="fill:#0a1250;fill-opacity:0.529412;"/>
    </g>
    <g id="LOGO"
       transform="matrix(1,0,0,1,-11.0657,-235.591)">
        <path d="M31.687,597.197c0.117,0 0.176,0.059 0.176,0.176l0,3.192c0,0.214 0.017,0.391 0.052,0.532c0.034,0.142 0.092,0.254 0.172,0.336c0.08,0.083 0.188,0.142 0.324,0.176c0.136,0.035 0.308,0.052 0.516,0.052l3.24,0c0.117,0 0.176,0.059 0.176,0.176l0,0.784c0,0.118 -0.059,0.176 -0.176,0.176l-3.288,0c-0.406,0 -0.75,-0.037 -1.032,-0.112c-0.283,-0.074 -0.514,-0.196 -0.692,-0.364c-0.179,-0.168 -0.31,-0.386 -0.392,-0.656c-0.083,-0.269 -0.124,-0.596 -0.124,-0.98l0,-3.312c0,-0.117 0.061,-0.176 0.184,-0.176l0.864,0Z"
              style="fill-rule:nonzero;"/>
        <path d="M38.111,597.197c0.117,0 0.176,0.059 0.176,0.176l0,5.248c0,0.118 -0.059,0.176 -0.176,0.176l-0.864,0c-0.123,0 -0.184,-0.058 -0.184,-0.176l0,-5.248c0,-0.117 0.061,-0.176 0.184,-0.176l0.864,0Z"
              style="fill-rule:nonzero;"/>
        <path d="M40.775,597.197c0.128,0 0.234,0.006 0.32,0.016c0.085,0.011 0.16,0.034 0.224,0.068c0.064,0.035 0.125,0.083 0.184,0.144c0.058,0.062 0.125,0.143 0.2,0.244l2.976,3.904c0.021,0.038 0.056,0.056 0.104,0.056l0.072,0c0.042,0 0.064,-0.026 0.064,-0.08l0,-4.176c0,-0.117 0.058,-0.176 0.176,-0.176l0.84,0c0.117,0 0.176,0.059 0.176,0.176l0,4.592c0,0.326 -0.059,0.546 -0.176,0.66c-0.118,0.115 -0.299,0.172 -0.544,0.172l-0.688,0c-0.123,0 -0.226,-0.005 -0.308,-0.016c-0.083,-0.01 -0.156,-0.032 -0.22,-0.064c-0.064,-0.032 -0.127,-0.078 -0.188,-0.14c-0.062,-0.061 -0.132,-0.145 -0.212,-0.252l-2.984,-3.904c-0.032,-0.037 -0.067,-0.056 -0.104,-0.056l-0.072,0c-0.043,0 -0.064,0.027 -0.064,0.08l0,4.176c0,0.118 -0.059,0.176 -0.176,0.176l-0.84,0c-0.123,0 -0.184,-0.058 -0.184,-0.176l0,-4.592c0,-0.325 0.058,-0.545 0.176,-0.66c0.117,-0.114 0.298,-0.172 0.544,-0.172l0.704,0Z"
              style="fill-rule:nonzero;"/>
        <path d="M51.159,597.197c0.432,0 0.802,0.044 1.112,0.132c0.309,0.088 0.562,0.224 0.76,0.408c0.197,0.184 0.342,0.419 0.436,0.704c0.093,0.286 0.14,0.623 0.14,1.012l0,1.088c0,0.39 -0.047,0.727 -0.14,1.012c-0.094,0.286 -0.239,0.52 -0.436,0.704c-0.198,0.184 -0.451,0.32 -0.76,0.408c-0.31,0.088 -0.68,0.132 -1.112,0.132l-3.744,0c-0.16,0 -0.24,-0.08 -0.24,-0.24l0,-5.12c0,-0.16 0.08,-0.24 0.24,-0.24l3.744,0Zm-2.76,4.384c0,0.07 0.034,0.104 0.104,0.104l2.624,0c0.234,0 0.432,-0.021 0.592,-0.064c0.16,-0.042 0.289,-0.112 0.388,-0.208c0.098,-0.096 0.169,-0.224 0.212,-0.384c0.042,-0.16 0.064,-0.357 0.064,-0.592l0,-0.88c0,-0.234 -0.022,-0.432 -0.064,-0.592c-0.043,-0.16 -0.114,-0.288 -0.212,-0.384c-0.099,-0.096 -0.228,-0.165 -0.388,-0.208c-0.16,-0.042 -0.358,-0.064 -0.592,-0.064l-2.624,0c-0.07,0 -0.104,0.038 -0.104,0.112l0,3.16Z"
              style="fill-rule:nonzero;"/>
        <path d="M60.303,597.197c0.122,0 0.184,0.059 0.184,0.176l0,0.76c0,0.118 -0.062,0.176 -0.184,0.176l-3.496,0c-0.208,0 -0.38,0.018 -0.516,0.052c-0.136,0.035 -0.246,0.094 -0.328,0.176c-0.083,0.083 -0.14,0.195 -0.172,0.336c-0.032,0.142 -0.048,0.316 -0.048,0.524l0,0.08l4.52,0c0.117,0 0.176,0.059 0.176,0.176l0,0.632c0,0.118 -0.059,0.176 -0.176,0.176l-4.52,0l0,0.136c0,0.208 0.016,0.383 0.048,0.524c0.032,0.142 0.089,0.254 0.172,0.336c0.082,0.083 0.192,0.142 0.328,0.176c0.136,0.035 0.308,0.052 0.516,0.052l3.496,0c0.122,0 0.184,0.059 0.184,0.176l0,0.76c0,0.118 -0.062,0.176 -0.184,0.176l-3.52,0c-0.406,0 -0.75,-0.037 -1.032,-0.112c-0.283,-0.074 -0.514,-0.196 -0.692,-0.364c-0.179,-0.168 -0.31,-0.386 -0.392,-0.656c-0.083,-0.269 -0.124,-0.596 -0.124,-0.98l0,-1.376c0,-0.384 0.041,-0.709 0.124,-0.976c0.082,-0.266 0.213,-0.484 0.392,-0.652c0.178,-0.168 0.409,-0.29 0.692,-0.368c0.282,-0.077 0.626,-0.116 1.032,-0.116l3.52,0Z"
              style="fill-rule:nonzero;"/>
        <path d="M62.831,597.197c0.128,0 0.234,0.006 0.32,0.016c0.085,0.011 0.16,0.034 0.224,0.068c0.064,0.035 0.125,0.083 0.184,0.144c0.058,0.062 0.125,0.143 0.2,0.244l2.976,3.904c0.021,0.038 0.056,0.056 0.104,0.056l0.072,0c0.042,0 0.064,-0.026 0.064,-0.08l0,-4.176c0,-0.117 0.058,-0.176 0.176,-0.176l0.84,0c0.117,0 0.176,0.059 0.176,0.176l0,4.592c0,0.326 -0.059,0.546 -0.176,0.66c-0.118,0.115 -0.299,0.172 -0.544,0.172l-0.688,0c-0.123,0 -0.226,-0.005 -0.308,-0.016c-0.083,-0.01 -0.156,-0.032 -0.22,-0.064c-0.064,-0.032 -0.127,-0.078 -0.188,-0.14c-0.062,-0.061 -0.132,-0.145 -0.212,-0.252l-2.984,-3.904c-0.032,-0.037 -0.067,-0.056 -0.104,-0.056l-0.072,0c-0.043,0 -0.064,0.027 -0.064,0.08l0,4.176c0,0.118 -0.059,0.176 -0.176,0.176l-0.84,0c-0.123,0 -0.184,-0.058 -0.184,-0.176l0,-4.592c0,-0.325 0.058,-0.545 0.176,-0.66c0.117,-0.114 0.298,-0.172 0.544,-0.172l0.704,0Z"
              style="fill-rule:nonzero;"/>
        <path d="M74.079,597.197c0.549,0 0.94,0.11 1.172,0.328c0.232,0.219 0.348,0.55 0.348,0.992l0,0.384c0,0.448 -0.171,0.787 -0.512,1.016c0.368,0.214 0.552,0.558 0.552,1.032l0,0.464c0,0.214 -0.024,0.406 -0.072,0.576c-0.048,0.171 -0.127,0.316 -0.236,0.436c-0.11,0.12 -0.255,0.212 -0.436,0.276c-0.182,0.064 -0.406,0.096 -0.672,0.096l-4.752,0c-0.16,0 -0.24,-0.08 -0.24,-0.24l0,-5.12c0,-0.16 0.08,-0.24 0.24,-0.24l4.608,0Zm-3.624,3.2l0,1.192c0,0.07 0.034,0.104 0.104,0.104l3.28,0c0.213,0 0.365,-0.038 0.456,-0.116c0.09,-0.077 0.136,-0.201 0.136,-0.372l0,-0.304c0,-0.165 -0.05,-0.29 -0.148,-0.376c-0.099,-0.085 -0.282,-0.128 -0.548,-0.128l-3.28,0Zm0,-0.872l3.28,0c0.266,0 0.448,-0.04 0.544,-0.12c0.096,-0.08 0.144,-0.197 0.144,-0.352l0,-0.272c0,-0.165 -0.047,-0.286 -0.14,-0.364c-0.094,-0.077 -0.244,-0.116 -0.452,-0.116l-3.272,0c-0.07,0 -0.104,0.035 -0.104,0.104l0,1.12Z"
              style="fill-rule:nonzero;"/>
        <path d="M82.279,597.197c0.122,0 0.184,0.059 0.184,0.176l0,0.76c0,0.118 -0.062,0.176 -0.184,0.176l-3.496,0c-0.208,0 -0.38,0.018 -0.516,0.052c-0.136,0.035 -0.246,0.094 -0.328,0.176c-0.083,0.083 -0.14,0.195 -0.172,0.336c-0.032,0.142 -0.048,0.316 -0.048,0.524l0,0.08l4.52,0c0.117,0 0.176,0.059 0.176,0.176l0,0.632c0,0.118 -0.059,0.176 -0.176,0.176l-4.52,0l0,0.136c0,0.208 0.016,0.383 0.048,0.524c0.032,0.142 0.089,0.254 0.172,0.336c0.082,0.083 0.192,0.142 0.328,0.176c0.136,0.035 0.308,0.052 0.516,0.052l3.496,0c0.122,0 0.184,0.059 0.184,0.176l0,0.76c0,0.118 -0.062,0.176 -0.184,0.176l-3.52,0c-0.406,0 -0.75,-0.037 -1.032,-0.112c-0.283,-0.074 -0.514,-0.196 -0.692,-0.364c-0.179,-0.168 -0.31,-0.386 -0.392,-0.656c-0.083,-0.269 -0.124,-0.596 -0.124,-0.98l0,-1.376c0,-0.384 0.041,-0.709 0.124,-0.976c0.082,-0.266 0.213,-0.484 0.392,-0.652c0.178,-0.168 0.409,-0.29 0.692,-0.368c0.282,-0.077 0.626,-0.116 1.032,-0.116l3.52,0Z"
              style="fill-rule:nonzero;"/>
        <path d="M87.919,597.197c0.613,0 1.053,0.139 1.32,0.416c0.266,0.278 0.4,0.688 0.4,1.232l0,0.456c0,0.459 -0.094,0.822 -0.28,1.088c-0.187,0.267 -0.491,0.438 -0.912,0.512l1.368,1.696c0.026,0.027 0.034,0.067 0.024,0.12c-0.011,0.054 -0.054,0.08 -0.128,0.08l-1.032,0c-0.07,0 -0.118,-0.008 -0.144,-0.024c-0.027,-0.016 -0.054,-0.042 -0.08,-0.08l-1.264,-1.664l-2.584,0l0,1.592c0,0.118 -0.059,0.176 -0.176,0.176l-0.864,0c-0.123,0 -0.184,-0.058 -0.184,-0.176l0,-5.184c0,-0.16 0.08,-0.24 0.24,-0.24l4.296,0Zm-3.312,2.856l3.064,0c0.272,0 0.464,-0.058 0.576,-0.176c0.112,-0.117 0.168,-0.296 0.168,-0.536l0,-0.336c0,-0.24 -0.056,-0.418 -0.168,-0.536c-0.112,-0.117 -0.304,-0.176 -0.576,-0.176l-2.96,0c-0.07,0 -0.104,0.032 -0.104,0.096l0,1.664Z"
              style="fill-rule:nonzero;"/>
        <path d="M96.711,597.197c0.117,0 0.176,0.059 0.176,0.176l0,0.784c0,0.123 -0.059,0.184 -0.176,0.184l-4.008,0c-0.208,0 -0.38,0.018 -0.516,0.052c-0.136,0.035 -0.244,0.094 -0.324,0.176c-0.08,0.083 -0.138,0.194 -0.172,0.332c-0.035,0.139 -0.052,0.315 -0.052,0.528l0,1.152c0,0.214 0.017,0.391 0.052,0.532c0.034,0.142 0.092,0.254 0.172,0.336c0.08,0.083 0.188,0.142 0.324,0.176c0.136,0.035 0.308,0.052 0.516,0.052l2.64,0c0.138,0 0.24,-0.036 0.304,-0.108c0.064,-0.072 0.096,-0.198 0.096,-0.38l0,-0.648c0,-0.069 -0.032,-0.104 -0.096,-0.104l-2.344,0c-0.118,0 -0.176,-0.061 -0.176,-0.184l0,-0.6c0,-0.122 0.058,-0.184 0.176,-0.184l3.336,0c0.16,0 0.24,0.08 0.24,0.24l0,1.864c0,0.448 -0.086,0.764 -0.256,0.948c-0.171,0.184 -0.416,0.276 -0.736,0.276l-3.232,0c-0.406,0 -0.75,-0.037 -1.032,-0.112c-0.283,-0.074 -0.514,-0.196 -0.692,-0.364c-0.179,-0.168 -0.31,-0.386 -0.392,-0.656c-0.083,-0.269 -0.124,-0.596 -0.124,-0.98l0,-1.376c0,-0.384 0.041,-0.709 0.124,-0.976c0.082,-0.266 0.213,-0.484 0.392,-0.652c0.178,-0.168 0.409,-0.29 0.692,-0.368c0.282,-0.077 0.626,-0.116 1.032,-0.116l4.056,0Z"
              style="fill-rule:nonzero;"/>
        <path d="M40.551,605.197c0.613,0 1.053,0.139 1.32,0.416c0.266,0.278 0.4,0.688 0.4,1.232l0,0.456c0,0.459 -0.094,0.822 -0.28,1.088c-0.187,0.267 -0.491,0.438 -0.912,0.512l1.368,1.696c0.026,0.027 0.034,0.067 0.024,0.12c-0.011,0.054 -0.054,0.08 -0.128,0.08l-1.032,0c-0.07,0 -0.118,-0.008 -0.144,-0.024c-0.027,-0.016 -0.054,-0.042 -0.08,-0.08l-1.264,-1.664l-2.584,0l0,1.592c0,0.118 -0.059,0.176 -0.176,0.176l-0.864,0c-0.123,0 -0.184,-0.058 -0.184,-0.176l0,-5.184c0,-0.16 0.08,-0.24 0.24,-0.24l4.296,0Zm-3.312,2.856l3.064,0c0.272,0 0.464,-0.058 0.576,-0.176c0.112,-0.117 0.168,-0.296 0.168,-0.536l0,-0.336c0,-0.24 -0.056,-0.418 -0.168,-0.536c-0.112,-0.117 -0.304,-0.176 -0.576,-0.176l-2.96,0c-0.07,0 -0.104,0.032 -0.104,0.096l0,1.664Z"
              style="fill-rule:nonzero;"/>
        <path d="M48.807,605.197c0.122,0 0.184,0.059 0.184,0.176l0,0.76c0,0.118 -0.062,0.176 -0.184,0.176l-3.496,0c-0.208,0 -0.38,0.018 -0.516,0.052c-0.136,0.035 -0.246,0.094 -0.328,0.176c-0.083,0.083 -0.14,0.195 -0.172,0.336c-0.032,0.142 -0.048,0.316 -0.048,0.524l0,0.08l4.52,0c0.117,0 0.176,0.059 0.176,0.176l0,0.632c0,0.118 -0.059,0.176 -0.176,0.176l-4.52,0l0,0.136c0,0.208 0.016,0.383 0.048,0.524c0.032,0.142 0.089,0.254 0.172,0.336c0.082,0.083 0.192,0.142 0.328,0.176c0.136,0.035 0.308,0.052 0.516,0.052l3.496,0c0.122,0 0.184,0.059 0.184,0.176l0,0.76c0,0.118 -0.062,0.176 -0.184,0.176l-3.52,0c-0.406,0 -0.75,-0.037 -1.032,-0.112c-0.283,-0.074 -0.514,-0.196 -0.692,-0.364c-0.179,-0.168 -0.31,-0.386 -0.392,-0.656c-0.083,-0.269 -0.124,-0.596 -0.124,-0.98l0,-1.376c0,-0.384 0.041,-0.709 0.124,-0.976c0.082,-0.266 0.213,-0.484 0.392,-0.652c0.178,-0.168 0.409,-0.29 0.692,-0.368c0.282,-0.077 0.626,-0.116 1.032,-0.116l3.52,0Z"
              style="fill-rule:nonzero;"/>
        <path d="M55.471,605.197c0.117,0 0.176,0.059 0.176,0.176l0,0.76c0,0.118 -0.059,0.176 -0.176,0.176l-4.008,0c-0.155,0 -0.264,0.04 -0.328,0.12c-0.064,0.08 -0.096,0.19 -0.096,0.328l0,0.272c0,0.299 0.138,0.448 0.416,0.448l3,0c0.464,0 0.813,0.119 1.048,0.356c0.234,0.238 0.352,0.578 0.352,1.02l0,0.64c0,0.39 -0.115,0.704 -0.344,0.944c-0.23,0.24 -0.587,0.36 -1.072,0.36l-4.432,0c-0.123,0 -0.184,-0.058 -0.184,-0.176l0,-0.76c0,-0.117 0.061,-0.176 0.184,-0.176l4.2,0c0.154,0 0.264,-0.04 0.328,-0.12c0.064,-0.08 0.096,-0.189 0.096,-0.328l0,-0.328c0,-0.298 -0.139,-0.448 -0.416,-0.448l-3,0c-0.464,0 -0.814,-0.118 -1.048,-0.356c-0.235,-0.237 -0.352,-0.577 -0.352,-1.02l0,-0.584c0,-0.389 0.114,-0.704 0.344,-0.944c0.229,-0.24 0.586,-0.36 1.072,-0.36l4.24,0Z"
              style="fill-rule:nonzero;"/>
        <path d="M62.463,605.197c0.122,0 0.184,0.059 0.184,0.176l0,0.76c0,0.118 -0.062,0.176 -0.184,0.176l-3.496,0c-0.208,0 -0.38,0.018 -0.516,0.052c-0.136,0.035 -0.246,0.094 -0.328,0.176c-0.083,0.083 -0.14,0.195 -0.172,0.336c-0.032,0.142 -0.048,0.316 -0.048,0.524l0,0.08l4.52,0c0.117,0 0.176,0.059 0.176,0.176l0,0.632c0,0.118 -0.059,0.176 -0.176,0.176l-4.52,0l0,0.136c0,0.208 0.016,0.383 0.048,0.524c0.032,0.142 0.089,0.254 0.172,0.336c0.082,0.083 0.192,0.142 0.328,0.176c0.136,0.035 0.308,0.052 0.516,0.052l3.496,0c0.122,0 0.184,0.059 0.184,0.176l0,0.76c0,0.118 -0.062,0.176 -0.184,0.176l-3.52,0c-0.406,0 -0.75,-0.037 -1.032,-0.112c-0.283,-0.074 -0.514,-0.196 -0.692,-0.364c-0.179,-0.168 -0.31,-0.386 -0.392,-0.656c-0.083,-0.269 -0.124,-0.596 -0.124,-0.98l0,-1.376c0,-0.384 0.041,-0.709 0.124,-0.976c0.082,-0.266 0.213,-0.484 0.392,-0.652c0.178,-0.168 0.409,-0.29 0.692,-0.368c0.282,-0.077 0.626,-0.116 1.032,-0.116l3.52,0Z"
              style="fill-rule:nonzero;"/>
        <path d="M67.119,605.197c0.202,0 0.373,0.042 0.512,0.124c0.138,0.083 0.274,0.244 0.408,0.484l2.648,4.808c0.026,0.054 0.033,0.098 0.02,0.132c-0.014,0.035 -0.052,0.052 -0.116,0.052l-1.016,0c-0.091,0 -0.152,-0.034 -0.184,-0.104l-0.568,-1.032l-3.76,0l-0.552,1.032c-0.038,0.07 -0.099,0.104 -0.184,0.104l-1.04,0c-0.07,0 -0.111,-0.017 -0.124,-0.052c-0.014,-0.034 -0.007,-0.078 0.02,-0.132l2.624,-4.808c0.133,-0.24 0.264,-0.401 0.392,-0.484c0.128,-0.082 0.277,-0.124 0.448,-0.124l0.472,0Zm-1.552,3.536l2.752,0l-1.272,-2.344c-0.022,-0.037 -0.051,-0.056 -0.088,-0.056l-0.048,0c-0.038,0 -0.067,0.019 -0.088,0.056l-1.256,2.344Z"
              style="fill-rule:nonzero;"/>
        <path d="M75.903,605.197c0.613,0 1.053,0.139 1.32,0.416c0.266,0.278 0.4,0.688 0.4,1.232l0,0.456c0,0.459 -0.094,0.822 -0.28,1.088c-0.187,0.267 -0.491,0.438 -0.912,0.512l1.368,1.696c0.026,0.027 0.034,0.067 0.024,0.12c-0.011,0.054 -0.054,0.08 -0.128,0.08l-1.032,0c-0.07,0 -0.118,-0.008 -0.144,-0.024c-0.027,-0.016 -0.054,-0.042 -0.08,-0.08l-1.264,-1.664l-2.584,0l0,1.592c0,0.118 -0.059,0.176 -0.176,0.176l-0.864,0c-0.123,0 -0.184,-0.058 -0.184,-0.176l0,-5.184c0,-0.16 0.08,-0.24 0.24,-0.24l4.296,0Zm-3.312,2.856l3.064,0c0.272,0 0.464,-0.058 0.576,-0.176c0.112,-0.117 0.168,-0.296 0.168,-0.536l0,-0.336c0,-0.24 -0.056,-0.418 -0.168,-0.536c-0.112,-0.117 -0.304,-0.176 -0.576,-0.176l-2.96,0c-0.07,0 -0.104,0.032 -0.104,0.096l0,1.664Z"
              style="fill-rule:nonzero;"/>
        <path d="M84.247,605.197c0.117,0 0.176,0.059 0.176,0.176l0,0.784c0,0.123 -0.059,0.184 -0.176,0.184l-3.56,0c-0.208,0 -0.38,0.018 -0.516,0.052c-0.136,0.035 -0.244,0.094 -0.324,0.176c-0.08,0.083 -0.138,0.194 -0.172,0.332c-0.035,0.139 -0.052,0.315 -0.052,0.528l0,1.136c0,0.214 0.017,0.391 0.052,0.532c0.034,0.142 0.092,0.254 0.172,0.336c0.08,0.083 0.188,0.142 0.324,0.176c0.136,0.035 0.308,0.052 0.516,0.052l3.56,0c0.117,0 0.176,0.059 0.176,0.176l0,0.784c0,0.118 -0.059,0.176 -0.176,0.176l-3.608,0c-0.406,0 -0.75,-0.037 -1.032,-0.112c-0.283,-0.074 -0.514,-0.196 -0.692,-0.364c-0.179,-0.168 -0.31,-0.386 -0.392,-0.656c-0.083,-0.269 -0.124,-0.596 -0.124,-0.98l0,-1.376c0,-0.384 0.041,-0.709 0.124,-0.976c0.082,-0.266 0.213,-0.484 0.392,-0.652c0.178,-0.168 0.409,-0.29 0.692,-0.368c0.282,-0.077 0.626,-0.116 1.032,-0.116l3.608,0Z"
              style="fill-rule:nonzero;"/>
        <path d="M86.327,605.197c0.117,0 0.176,0.059 0.176,0.176l0,2.08l3.744,0l0,-2.08c0,-0.117 0.058,-0.176 0.176,-0.176l0.864,0c0.122,0 0.184,0.059 0.184,0.176l0,5.248c0,0.118 -0.062,0.176 -0.184,0.176l-0.864,0c-0.118,0 -0.176,-0.058 -0.176,-0.176l0,-2.128l-3.744,0l0,2.128c0,0.118 -0.059,0.176 -0.176,0.176l-0.864,0c-0.123,0 -0.184,-0.058 -0.184,-0.176l0,-5.248c0,-0.117 0.061,-0.176 0.184,-0.176l0.864,0Z"
              style="fill-rule:nonzero;"/>
    </g>
</svg>
