<?xml version="1.0" encoding="UTF-8" standalone="no"?>
<!-- Created with Inkscape (http://www.inkscape.org/) -->

<svg
   xmlns:dc="http://purl.org/dc/elements/1.1/"
   xmlns:cc="http://creativecommons.org/ns#"
   xmlns:rdf="http://www.w3.org/1999/02/22-rdf-syntax-ns#"
   xmlns:svg="http://www.w3.org/2000/svg"
   xmlns="http://www.w3.org/2000/svg"
   xmlns:sodipodi="http://sodipodi.sourceforge.net/DTD/sodipodi-0.dtd"
   xmlns:inkscape="http://www.inkscape.org/namespaces/inkscape"
   width="26"
   height="26"
   viewBox="0 0 6.8791666 6.8791665"
   version="1.1"
   id="svg15246"
   sodipodi:docname="PJ301MVA.svg"
   inkscape:version="0.92.2 (5c3e80d, 2017-08-06)">
  <defs
     id="defs15240">
    <clipPath
       id="clip89">
      <rect
         y="0"
         x="0"
         width="18"
         height="19"
         id="rect4864" />
    </clipPath>
    <clipPath
       id="clip90">
      <path
         inkscape:connector-curvature="0"
         d="m 0.898438,0.128906 h 16.25 v 17.882813 h -16.25 z m 0,0"
         id="path4861" />
    </clipPath>
    <mask
       id="mask44">
      <g
         style="filter:url(#alpha)"
         id="g4858"
         transform="matrix(0.26458333,0,0,0.26458333,89.358789,128.57765)">
        <rect
           x="0"
           y="0"
           width="3052.8701"
           height="3351.5"
           style="fill:#000000;fill-opacity:0.14999402;stroke:none"
           id="rect4856" />
      </g>
    </mask>
    <filter
       id="alpha"
       filterUnits="objectBoundingBox"
       x="0"
       y="0"
       width="1"
       height="1">
      <feColorMatrix
         type="matrix"
         in="SourceGraphic"
         values="0 0 0 0 1 0 0 0 0 1 0 0 0 0 1 0 0 0 1 0"
         id="feColorMatrix4149" />
    </filter>
    <clipPath
       id="clipPath17821">
      <rect
         y="0"
         x="0"
         width="18"
         height="19"
         id="rect17819" />
    </clipPath>
    <clipPath
       id="clipPath17825">
      <path
         inkscape:connector-curvature="0"
         d="m 0.898438,0.128906 h 16.25 v 17.882813 h -16.25 z m 0,0"
         id="path17823" />
    </clipPath>
    <clipPath
       id="clip87">
      <rect
         y="0"
         x="0"
         width="24"
         height="26"
         id="rect4848" />
    </clipPath>
    <clipPath
       id="clip88">
      <path
         inkscape:connector-curvature="0"
         d="m 0.683594,0.921875 h 22.679687 v 24.9375 H 0.683594 Z m 0,0"
         id="path4845" />
    </clipPath>
    <mask
       id="mask43">
      <g
         style="filter:url(#alpha)"
         id="g4842"
         transform="matrix(0.26458333,0,0,0.26458333,89.358789,128.57765)">
        <rect
           x="0"
           y="0"
           width="3052.8701"
           height="3351.5"
           style="fill:#000000;fill-opacity:0.14999402;stroke:none"
           id="rect4840" />
      </g>
    </mask>
    <filter
       id="filter17836"
       filterUnits="objectBoundingBox"
       x="0"
       y="0"
       width="1"
       height="1">
      <feColorMatrix
         type="matrix"
         in="SourceGraphic"
         values="0 0 0 0 1 0 0 0 0 1 0 0 0 0 1 0 0 0 1 0"
         id="feColorMatrix17834" />
    </filter>
    <clipPath
       id="clipPath17840">
      <rect
         y="0"
         x="0"
         width="24"
         height="26"
         id="rect17838" />
    </clipPath>
    <clipPath
       id="clipPath17844">
      <path
         inkscape:connector-curvature="0"
         d="m 0.683594,0.921875 h 22.679687 v 24.9375 H 0.683594 Z m 0,0"
         id="path17842" />
    </clipPath>
  </defs>
  <sodipodi:namedview
     id="base"
     pagecolor="#ffffff"
     bordercolor="#666666"
     borderopacity="1.0"
     inkscape:pageopacity="0.0"
     inkscape:pageshadow="2"
     inkscape:zoom="14.196189"
     inkscape:cx="14.836952"
     inkscape:cy="-2.4235774"
     inkscape:document-units="px"
     inkscape:current-layer="layer1"
     showgrid="true"
     inkscape:window-width="1148"
     inkscape:window-height="1080"
     inkscape:window-x="661"
     inkscape:window-y="378"
     inkscape:window-maximized="0"
     units="px"
     fit-margin-top="0"
     fit-margin-left="0"
     fit-margin-right="0"
     fit-margin-bottom="0"
     inkscape:snap-grids="false"
     showguides="false">
    <inkscape:grid
       type="xygrid"
       id="grid855" />
  </sodipodi:namedview>
  <metadata
     id="metadata15243">
    <rdf:RDF>
      <cc:Work
         rdf:about="">
        <dc:format>image/svg+xml</dc:format>
        <dc:type
           rdf:resource="http://purl.org/dc/dcmitype/StillImage" />
        <dc:title></dc:title>
      </cc:Work>
    </rdf:RDF>
  </metadata>
  <g
     inkscape:label="Layer 1"
     inkscape:groupmode="layer"
     id="layer1"
     transform="translate(-88.611154,-120.67505)">
    <g
       transform="matrix(0.24896704,0,0,0.24896704,88.57248,120.62278)"
       style="clip-rule:evenodd;fill-rule:evenodd;stroke-miterlimit:10"
       id="IOPortB_3_">
      <g
         id="g6">
        <path
           inkscape:connector-curvature="0"
           d="M 5.311,22.794 C 4.229,20.928 3.16,19.037 2.09,17.175 -0.039,13.46 -0.039,14.582 2.092,10.863 3.174,8.971 4.253,7.062 5.334,5.17 7.469,1.452 6.5,2.014 10.772,2.021 c 2.136,0.004 4.298,0.008 6.431,0.014 4.266,-0.012 3.3,-0.575 5.429,3.141 1.078,1.896 2.176,3.788 3.271,5.689 2.125,3.719 2.122,2.578 -0.018,6.309 -1.07,1.871 -2.151,3.749 -3.217,5.621 -2.142,3.726 -1.166,3.154 -5.426,3.155 -2.175,0.007 -4.341,0.009 -6.521,0.009 -4.254,0 -3.287,0.563 -5.41,-3.165 z M 8.975,22.759 C 4.18,19.969 2.54,13.791 5.311,8.957 c 2.771,-4.846 8.9,-6.5 13.7,-3.712 4.811,2.8 6.449,8.978 3.674,13.82 -2.774,4.834 -8.905,6.491 -13.71,3.694 z M 9.386,22.041 C 4.985,19.479 3.467,13.802 6.009,9.369 c 2.546,-4.447 8.186,-5.962 12.584,-3.4 4.415,2.566 5.922,8.24 3.372,12.685 -2.542,4.433 -8.168,5.95 -12.579,3.387 z M 10.395,20.28 C 6.957,18.282 5.783,13.849 7.764,10.39 c 1.99,-3.473 6.388,-4.658 9.82,-2.666 3.45,2.01 4.627,6.441 2.637,9.912 -1.986,3.462 -6.379,4.651 -9.826,2.644 z m 0.404,-0.709 c 3.051,1.776 6.951,0.713 8.712,-2.354 1.763,-3.073 0.719,-7.005 -2.337,-8.775 -3.051,-1.774 -6.945,-0.724 -8.707,2.354 -1.756,3.065 -0.709,7.01 2.332,8.775 z"
           style="fill:#999999;fill-rule:nonzero;stroke:#201e1e;stroke-width:0.44999999px"
           id="path2" />
        <circle
           cx="13.982"
           cy="14.085"
           r="9.3330002"
           style="fill:#444444;stroke:#1a1a1a;stroke-width:2px;stroke-linejoin:round;stroke-miterlimit:1.41420996"
           id="circle4" />
      </g>
      <circle
         cx="14.001"
         cy="14.084"
         r="6.4580002"
         id="circle8" />
    </g>
  </g>
</svg>
