<?xml version="1.0" encoding="UTF-8" standalone="no"?>
<!-- Created with Inkscape (http://www.inkscape.org/) -->

<svg
   xmlns:dc="http://purl.org/dc/elements/1.1/"
   xmlns:cc="http://creativecommons.org/ns#"
   xmlns:rdf="http://www.w3.org/1999/02/22-rdf-syntax-ns#"
   xmlns:svg="http://www.w3.org/2000/svg"
   xmlns="http://www.w3.org/2000/svg"
   xmlns:sodipodi="http://sodipodi.sourceforge.net/DTD/sodipodi-0.dtd"
   xmlns:inkscape="http://www.inkscape.org/namespaces/inkscape"
   width="24"
   height="24"
   viewBox="0 0 6.3499999 6.3500001"
   version="1.1"
   id="svg928"
   inkscape:version="0.92.2 2405546, 2018-03-11"
   sodipodi:docname="RightButtonDown.svg">
  <defs
     id="defs922" />
  <sodipodi:namedview
     id="base"
     pagecolor="#ffffff"
     bordercolor="#666666"
     borderopacity="1.0"
     inkscape:pageopacity="0.0"
     inkscape:pageshadow="2"
     inkscape:zoom="22.4"
     inkscape:cx="12.151991"
     inkscape:cy="3.9437523"
     inkscape:document-units="mm"
     inkscape:current-layer="layer1"
     showgrid="true"
     units="px"
     objecttolerance="5"
     guidetolerance="4"
     inkscape:window-width="1920"
     inkscape:window-height="1080"
     inkscape:window-x="0"
     inkscape:window-y="0"
     inkscape:window-maximized="0"
     gridtolerance="5">
    <inkscape:grid
       type="xygrid"
       id="grid1476"
       empspacing="12"
       enabled="true" />
  </sodipodi:namedview>
  <metadata
     id="metadata925">
    <rdf:RDF>
      <cc:Work
         rdf:about="">
        <dc:format>image/svg+xml</dc:format>
        <dc:type
           rdf:resource="http://purl.org/dc/dcmitype/StillImage" />
        <dc:title></dc:title>
      </cc:Work>
    </rdf:RDF>
  </metadata>
  <g
     inkscape:label="Layer 1"
     inkscape:groupmode="layer"
     id="layer1"
     transform="translate(0,-290.64998)">
    <path
       style="opacity:1;fill:#000000;fill-opacity:0.19607843;stroke:none;stroke-width:0.2571159;stroke-linecap:square;stroke-linejoin:miter;stroke-miterlimit:4;stroke-dasharray:none;stroke-opacity:1;paint-order:stroke fill markers"
       d="m 3.175,291.9729 c -1.315128,0 -2.38125001,1.00678 -2.38125001,2.24872 0,1.24195 1.06612201,2.24874 2.38125001,2.24874 1.3151281,0 2.3812499,-1.00679 2.3812499,-2.24874 0,-1.24194 -1.0661218,-2.24872 -2.3812499,-2.24872 z m 0.3043742,1.18975 0.3436483,0.40603 -0.2139405,0.16299 -0.6500895,0.49044 0.6500895,0.48997 0.2139405,0.16201 -0.3436483,0.40602 -0.2144572,-0.16202 -1.1870077,-0.89598 1.1870077,-0.89743 z"
       id="path1478"
       inkscape:connector-curvature="0" />
    <path
       sodipodi:nodetypes="sssssccccccccc"
       inkscape:connector-curvature="0"
       id="path3037"
       d="m 3.175,279.20675 c -1.3151281,0 -2.38125,1.06612 -2.38125,2.38125 0,1.31513 1.0661219,2.38125 2.38125,2.38125 1.315128,0 2.3812499,-1.06612 2.3812499,-2.38125 0,-1.31513 -1.0661219,-2.38125 -2.3812499,-2.38125 z m -0.6615876,1.38867 1.2317078,0.71081 v -0.71042 h 0.4220672 v 1.98438 H 3.7451202 v -0.71042 l -1.2317078,0.7108 z"
       style="opacity:1;fill:#7f7f7f;fill-opacity:1;stroke:none;stroke-width:0.26458332;stroke-linecap:square;stroke-linejoin:miter;stroke-miterlimit:4;stroke-dasharray:none;stroke-opacity:1;paint-order:stroke fill markers" />
    <path
       id="path823"
       d="m 3.175,291.44373 c -1.315128,0 -2.38125001,1.06612 -2.38125001,2.38125 0,1.31513 1.06612201,2.38125 2.38125001,2.38125 1.3151281,0 2.3812499,-1.06612 2.3812499,-2.38125 0,-1.31513 -1.0661218,-2.38125 -2.3812499,-2.38125 z"
       style="opacity:1;fill:#7a7a7a;fill-opacity:1;stroke:none;stroke-width:0.26458332;stroke-linecap:square;stroke-linejoin:miter;stroke-miterlimit:4;stroke-dasharray:none;stroke-opacity:1;paint-order:stroke fill markers"
       inkscape:connector-curvature="0"
       sodipodi:nodetypes="sssss" />
    <path
       style="fill:none;stroke:#4b4b4b;stroke-width:0.39687499;stroke-linecap:butt;stroke-linejoin:miter;stroke-miterlimit:4;stroke-dasharray:none;stroke-opacity:1"
       d="m 2.6168218,294.88348 h 0.9434351 v -2.117 H 2.6168218"
       id="path2015"
       inkscape:connector-curvature="0" />
  </g>
</svg>
