#define bamboo_width 125
#define bamboo_height 126
static char bamboo_bits[] = {
 0x00,0x00,0x00,0x00,0x00,0x00,0x00,0x00,0x00,0x00,0x00,0x00,0x00,0x00,0x00,
 0xe0,0x00,0x00,0x00,0x00,0x00,0x00,0x00,0x00,0x00,0x00,0x00,0x00,0x00,0x00,
 0x00,0xe0,0x00,0x00,0x00,0x00,0x00,0x00,0x00,0x00,0x00,0x00,0x00,0x00,0x00,
 0x00,0x00,0xe0,0x00,0x00,0x00,0x00,0x00,0x00,0x00,0x00,0x00,0x00,0x00,0x00,
 0x00,0x00,0x00,0xe0,0x00,0x00,0x00,0x00,0x00,0x00,0x00,0x00,0x00,0x00,0x00,
 0x00,0x00,0x00,0x00,0xe0,0x00,0x00,0x00,0x00,0x00,0x00,0x00,0x00,0x00,0x00,
 0x00,0x00,0x00,0x00,0x00,0xe0,0x00,0x00,0x00,0x00,0x00,0x00,0x00,0x00,0x00,
 0x00,0x00,0x00,0x00,0x00,0x00,0xe0,0x00,0x00,0x00,0x00,0x00,0x00,0x00,0x00,
 0x00,0x00,0x00,0x00,0x00,0x00,0x00,0xe0,0x00,0x00,0x00,0x00,0x00,0x00,0x00,
 0x00,0x00,0x00,0x00,0x00,0x00,0x00,0x00,0xe0,0x00,0x00,0x00,0x00,0x00,0x00,
 0x00,0x00,0x00,0x00,0x00,0x00,0x00,0x00,0x00,0xe0,0x00,0x00,0x00,0x00,0x00,
 0x00,0x00,0x00,0x00,0x00,0x00,0x00,0x00,0x00,0x00,0xe0,0x00,0x00,0x00,0x00,
 0x00,0x00,0x00,0x00,0x00,0x00,0x00,0x00,0x00,0x00,0x00,0xe0,0x00,0x00,0x00,
 0x00,0x00,0x00,0x00,0x00,0x00,0x00,0x00,0x00,0x00,0x00,0x00,0xe0,0x00,0x00,
 0x00,0x00,0x00,0x00,0x00,0x00,0x00,0x00,0x00,0x00,0x00,0x00,0x00,0xe0,0x00,
 0x00,0x00,0x00,0x00,0x00,0x00,0x00,0x00,0x00,0x00,0x00,0x00,0x00,0x00,0xe0,
 0x00,0x00,0x00,0x00,0x00,0x00,0x00,0x00,0x00,0x00,0x00,0x00,0x00,0x00,0x00,
 0xe0,0x00,0x00,0x00,0x00,0x00,0x00,0x00,0x00,0x00,0x00,0x00,0x00,0x00,0x00,
 0x00,0xe0,0x00,0x00,0x00,0x00,0x00,0x00,0x00,0x00,0x00,0x00,0x00,0x00,0x00,
 0x00,0x00,0xe0,0x00,0x00,0x00,0x00,0x00,0x00,0x00,0x00,0x00,0x00,0x00,0x00,
 0x00,0x00,0x00,0xe0,0x00,0x00,0x00,0x00,0x00,0x00,0x00,0x00,0x00,0x00,0x00,
 0x00,0x00,0x00,0x00,0xe0,0x00,0x00,0x00,0x00,0x00,0x00,0x00,0x00,0x00,0x00,
 0x00,0x00,0x00,0x00,0x00,0xe0,0x00,0x00,0x00,0x00,0x00,0x00,0x00,0x00,0x00,
 0x00,0x00,0x00,0x24,0x00,0x04,0xe0,0x00,0x00,0x00,0x00,0x22,0x40,0x04,0x88,
 0x00,0x19,0x20,0x03,0x24,0x80,0x04,0xe0,0x00,0x00,0x88,0x01,0x22,0x40,0x04,
 0x88,0x00,0x11,0x20,0x02,0x64,0x80,0x04,0xe0,0x00,0x00,0x88,0x00,0x22,0x40,
 0x04,0x98,0x00,0x11,0x20,0x02,0x24,0x80,0x04,0xe0,0x00,0x00,0x08,0x01,0x22,
 0x40,0x04,0x88,0x00,0x11,0x60,0x02,0x24,0x80,0x04,0xe0,0x00,0x00,0x88,0x00,
 0x22,0x40,0x02,0x88,0x00,0x09,0x00,0x01,0x44,0x80,0x04,0xe0,0x00,0x00,0x08,
 0x01,0x22,0x40,0x04,0x88,0x00,0x11,0x20,0x02,0x24,0x80,0x04,0xe0,0x00,0x00,
 0x08,0x01,0x22,0x40,0x04,0x88,0x00,0x11,0x20,0x02,0x64,0x80,0x04,0xe0,0x00,
 0x00,0x88,0x00,0x22,0x40,0x04,0x88,0x00,0x11,0x60,0x02,0x24,0x80,0x04,0xe0,
 0x00,0x00,0x08,0x01,0x22,0x40,0x04,0x88,0x00,0x11,0x20,0x02,0x24,0x80,0x04,
 0xe0,0x00,0x00,0x08,0x01,0x22,0x40,0x04,0x88,0x00,0x11,0x20,0x02,0x44,0x80,
 0x04,0xe0,0x00,0x00,0x88,0x00,0x22,0x40,0x04,0x88,0x00,0x11,0x20,0x02,0x24,
 0x80,0x04,0xe0,0x00,0x00,0x08,0x01,0x22,0x40,0x04,0x98,0x00,0x13,0x40,0x02,
 0x64,0x80,0x04,0xe0,0x00,0x00,0x08,0x01,0x22,0x40,0x04,0x88,0x00,0x11,0x20,
 0x02,0x24,0x80,0x04,0xe0,0x00,0x00,0x08,0x01,0x22,0x40,0x04,0x88,0x00,0x11,
 0x40,0x00,0x24,0x80,0x04,0xe0,0x00,0x00,0x88,0x00,0x22,0x40,0x04,0x88,0x00,
 0x12,0x60,0x03,0x68,0x80,0x04,0xe0,0x00,0x00,0xf8,0x01,0x76,0xc0,0x07,0xf8,
 0x01,0x3f,0xe0,0x0f,0xfe,0xc0,0x1f,0xe0,0x00,0x00,0xf8,0x03,0xfe,0xe0,0x1f,
 0xfc,0xc7,0xff,0xf0,0x1e,0xef,0xf3,0x3f,0xe0,0x00,0x00,0x5e,0x87,0xab,0xf1,
 0x3a,0x9e,0xc6,0xd3,0xf8,0x9a,0x5f,0xf3,0x75,0xe0,0x00,0x00,0xbe,0x8e,0xb7,
 0xf3,0x77,0x7a,0x4d,0xaf,0xe9,0xb6,0x7d,0xd3,0x6a,0xe0,0x00,0x00,0x5a,0x8d,
 0xaf,0xf3,0x74,0xbf,0xe7,0xf5,0x78,0x3d,0xaf,0xf3,0x7f,0xe0,0x00,0x00,0xfe,
 0x8f,0xff,0xf3,0x3f,0xfe,0xcf,0xff,0xf9,0xaf,0xff,0xd2,0x5f,0xe0,0x00,0x00,
 0xfa,0x8b,0x7e,0xc2,0x4f,0xda,0x44,0x97,0x68,0x23,0x2c,0x92,0x40,0xe0,0x00,
 0x00,0x0a,0x88,0x00,0x52,0x40,0x09,0x28,0x01,0x21,0xa0,0x04,0x92,0x40,0xe0,
 0x00,0x00,0x0a,0x88,0x02,0x52,0x20,0x0a,0x44,0x01,0x49,0xa0,0x04,0x92,0x40,
 0xe0,0x00,0x00,0x0a,0x88,0x02,0x52,0x40,0x12,0x48,0x02,0x29,0xa0,0x04,0x92,
 0x40,0xe0,0x00,0x00,0x0a,0x88,0x02,0x42,0x40,0x0a,0x48,0x01,0x49,0xa0,0x2c,
 0x92,0x47,0xe0,0x00,0x00,0x08,0x80,0x02,0x52,0x40,0x12,0x48,0x02,0x49,0x91,
 0x78,0x12,0x4d,0xe0,0x00,0x00,0x12,0x88,0x02,0x52,0x40,0x0a,0x4c,0x01,0xc9,
 0xa3,0xd8,0x12,0x49,0xe0,0x00,0x00,0x0a,0x08,0x02,0x92,0x40,0xd2,0x44,0x1e,
 0xc9,0xa6,0x50,0x12,0x4f,0xe0,0x00,0x00,0x0a,0x88,0x14,0x92,0x47,0xf2,0x48,
 0x36,0x89,0x22,0x21,0x12,0x40,0xe0,0x00,0x00,0x52,0x88,0x3c,0x92,0x4d,0x22,
 0x49,0xb4,0x08,0xa1,0x00,0x12,0x40,0xe0,0x00,0x00,0xf2,0x88,0x24,0x92,0x44,
 0xe2,0x48,0x0c,0x09,0x20,0x01,0x12,0x40,0xe0,0x00,0x00,0xb2,0x89,0x38,0x12,
 0x43,0x42,0x48,0x00,0x09,0xa0,0x00,0x12,0x40,0xe0,0x00,0x00,0xa2,0x88,0x11,
 0x12,0x40,0x02,0x4c,0x80,0x08,0x20,0x01,0x12,0x40,0xe0,0x00,0x00,0xc2,0x88,
 0x00,0x12,0x40,0x02,0x40,0x00,0x09,0xa0,0x00,0x12,0x40,0xe0,0x00,0x00,0x02,
 0x88,0x00,0x12,0x40,0x02,0x4c,0x00,0x09,0x20,0x01,0x12,0x40,0xe0,0x00,0x00,
 0x02,0x88,0x00,0x12,0x40,0x02,0x48,0x00,0x09,0xa0,0x00,0x12,0x40,0xe0,0x00,
 0x00,0x02,0x88,0x00,0x12,0x40,0x02,0x48,0x80,0x08,0x20,0x01,0x12,0x40,0xe0,
 0x00,0x00,0x02,0x88,0x00,0x12,0x40,0x02,0x48,0x00,0x09,0xa0,0x00,0x12,0x40,
 0xe0,0x00,0x00,0x02,0x88,0x00,0x12,0x40,0x02,0x48,0x00,0x09,0x20,0x01,0x12,
 0x40,0xe0,0x00,0x00,0x02,0x88,0x00,0x12,0x40,0x02,0x48,0x00,0x09,0xa0,0x00,
 0x12,0x40,0xe0,0x00,0x00,0x02,0x88,0x00,0x12,0x00,0x02,0x48,0x80,0x08,0x20,
 0x01,0x12,0x40,0xe0,0x00,0x00,0x02,0x88,0x00,0x12,0x40,0x02,0x48,0x00,0x09,
 0x20,0x01,0x12,0x40,0xe0,0x00,0x00,0x02,0x88,0x00,0x12,0x40,0x02,0x48,0x00,
 0x09,0xa0,0x00,0x12,0x40,0xe0,0x00,0x00,0x02,0x88,0x00,0x12,0x40,0x02,0x48,
 0x00,0x09,0x20,0x01,0x12,0x40,0xe0,0x00,0x00,0x02,0x88,0x00,0x12,0x40,0x02,
 0x48,0x00,0x09,0x20,0x01,0x12,0x40,0xe0,0x00,0x00,0x02,0x88,0x00,0x12,0x40,
 0x02,0x48,0x00,0x09,0xa0,0x00,0x12,0x40,0xe0,0x00,0x00,0x02,0x88,0x00,0x12,
 0x40,0x02,0x44,0x00,0x09,0x20,0x01,0x12,0x40,0xe0,0x00,0x00,0x02,0x88,0x00,
 0x12,0x40,0x02,0x48,0x00,0x09,0x20,0x01,0x32,0x40,0xe0,0x00,0x00,0x02,0x88,
 0x00,0x12,0x40,0x02,0x48,0x80,0x08,0x20,0x01,0x12,0x40,0xe0,0x00,0x00,0x02,
 0x88,0x00,0x12,0x40,0x02,0x48,0x00,0x09,0xa0,0x00,0x12,0x40,0xe0,0x00,0x00,
 0x02,0x88,0x00,0x12,0x40,0x02,0x40,0x00,0x09,0x20,0x01,0x12,0x40,0xe0,0x00,
 0x00,0x02,0x88,0x00,0x12,0x40,0x02,0x48,0x00,0x09,0x20,0x01,0x12,0x40,0xe0,
 0x00,0x00,0x02,0x88,0x00,0x12,0x00,0x02,0x48,0x00,0x09,0x20,0x01,0x12,0x40,
 0xe0,0x00,0x00,0x02,0x88,0x00,0x12,0x40,0x02,0x48,0x00,0x09,0x20,0x01,0x12,
 0x40,0xe0,0x00,0x00,0x02,0x08,0x01,0x12,0x40,0x02,0x48,0x00,0x09,0x20,0x01,
 0x22,0x40,0xe0,0x00,0x00,0x02,0x88,0x00,0x12,0x40,0x02,0x48,0x00,0x09,0x20,
 0x01,0x12,0x40,0xe0,0x00,0x00,0x02,0x88,0x00,0x12,0x40,0x02,0x40,0x00,0x09,
 0x20,0x01,0x12,0x40,0xe0,0x00,0x00,0x02,0x88,0x00,0x12,0x40,0x02,0x48,0x00,
 0x09,0x20,0x01,0x24,0x40,0xe0,0x00,0x00,0x02,0x08,0x01,0x12,0x40,0x02,0x48,
 0x00,0x09,0x20,0x01,0x32,0x40,0xe0,0x00,0x00,0x02,0x88,0x00,0x12,0x40,0x02,
 0x48,0x00,0x09,0x20,0x01,0xc2,0x72,0xe0,0x00,0x00,0x04,0x88,0x00,0x12,0x40,
 0x02,0x48,0x00,0x11,0x20,0x03,0x83,0x0e,0xe0,0x00,0x00,0x02,0x08,0x01,0x12,
 0x40,0x02,0x48,0x00,0x09,0x20,0xfc,0x01,0x00,0xe0,0x00,0x00,0x02,0x88,0x00,
 0x12,0x40,0x02,0x48,0x00,0x19,0x20,0x00,0x00,0x00,0xe0,0x00,0x00,0x04,0x08,
 0x01,0x12,0x40,0x02,0x40,0x00,0xe1,0x1c,0x00,0x00,0x00,0xe0,0x00,0x00,0x02,
 0x88,0x00,0x12,0x40,0x06,0x48,0x00,0x01,0x07,0x00,0x00,0x00,0xe0,0x00,0x00,
 0x02,0x88,0x00,0x12,0x40,0x02,0x48,0x00,0x01,0x00,0x00,0x00,0x00,0xe0,0x00,
 0x00,0x04,0x08,0x01,0x32,0x40,0x02,0x88,0x81,0x00,0x00,0x00,0x00,0x00,0xe0,
 0x00,0x00,0x02,0x88,0x00,0x12,0x40,0x02,0x08,0x7e,0x00,0x00,0x00,0x00,0x00,
 0xe0,0x00,0x00,0x04,0x18,0x01,0x12,0x40,0x06,0x08,0x00,0x00,0x00,0x00,0x00,
 0x00,0xe0,0x00,0x00,0x02,0x88,0x00,0x12,0x40,0x9c,0x06,0x00,0x00,0x00,0x00,
 0x00,0x00,0xe0,0x00,0x00,0x04,0x08,0x01,0x62,0x60,0xf0,0x03,0x00,0x00,0x00,
 0x00,0x00,0x00,0xe0,0x00,0x00,0x02,0x88,0x00,0x86,0x1f,0x00,0x00,0x00,0x00,
 0x00,0x00,0x00,0x00,0xe0,0x00,0x00,0x04,0x08,0x01,0x02,0x00,0x00,0x00,0x00,
 0x00,0x00,0x00,0x00,0x00,0xe0,0x00,0x00,0x02,0x08,0x01,0x02,0x00,0x00,0x00,
 0x00,0x00,0x00,0x00,0x00,0x00,0xe0,0x00,0x00,0x04,0x08,0xae,0x01,0x00,0x00,
 0x00,0x00,0x00,0x00,0x00,0x00,0x00,0xe0,0x00,0x00,0x02,0x10,0x50,0x00,0x00,
 0x00,0x00,0x00,0x00,0x00,0x00,0x00,0x00,0xe0,0x00,0x00,0x04,0x08,0x00,0x00,
 0x00,0x00,0x00,0x00,0x00,0x00,0x00,0x00,0x00,0xe0,0x00,0x00,0x0c,0x0c,0x00,
 0x00,0x00,0x00,0x00,0x00,0x00,0x00,0x00,0x00,0x00,0xe0,0x00,0x00,0xf0,0x07,
 0x00,0x00,0x00,0x00,0x00,0x00,0x00,0x00,0x00,0x00,0x00,0xe0,0x00,0x00,0x00,
 0x00,0x00,0x00,0x00,0x00,0x00,0x00,0x00,0x00,0x00,0x00,0x00,0xe0,0x00,0x00,
 0x00,0x00,0x00,0x00,0x00,0x00,0x00,0x00,0x00,0x00,0x00,0x00,0x00,0xe0,0x00,
 0x00,0x00,0x00,0x00,0x00,0x00,0x00,0x00,0x00,0x00,0x00,0x00,0x00,0x00,0xe0,
 0x00,0x00,0x00,0x00,0x00,0x00,0x00,0x00,0x00,0x00,0x00,0x00,0x00,0x00,0x00,
 0xe0,0x00,0x00,0x00,0x00,0x00,0x00,0x00,0x00,0x00,0x00,0x00,0x00,0x00,0x00,
 0x00,0xe0,0x00,0x00,0x00,0x00,0x00,0x00,0x00,0x00,0x00,0x00,0x00,0x00,0x00,
 0x00,0x00,0xe0,0x00,0x00,0x00,0x00,0x00,0x00,0x00,0x00,0x00,0x00,0x00,0x00,
 0x00,0x00,0x00,0xe0,0x00,0x00,0x00,0x00,0x00,0x00,0x00,0x00,0x00,0x00,0x00,
 0x00,0x00,0x00,0x00,0xe0,0x00,0x00,0x00,0x00,0x00,0x00,0x00,0x00,0x00,0x00,
 0x00,0x00,0x00,0x00,0x00,0xe0,0x00,0x00,0x00,0x00,0x00,0x00,0x00,0x00,0x00,
 0x00,0x00,0x00,0x00,0x00,0x00,0xe0,0x00,0x00,0x00,0x00,0x00,0x00,0x00,0x00,
 0x00,0x00,0x00,0x00,0x00,0x00,0x00,0xe0,0x00,0x00,0x00,0x00,0x00,0x00,0x00,
 0x00,0x00,0x00,0x00,0x00,0x00,0x00,0x00,0xe0,0x00,0x00,0x00,0x00,0x00,0x00,
 0x00,0x00,0x00,0x00,0x00,0x00,0x00,0x00,0x00,0xe0,0x00,0x00,0x00,0x00,0x00,
 0x00,0x00,0x00,0x00,0x00,0x00,0x00,0x00,0x00,0x00,0xe0,0x00,0x00,0x00,0x00,
 0x00,0x00,0x00,0x00,0x00,0x00,0x00,0x00,0x00,0x00,0x00,0xe0,0x00,0x00,0x00,
 0x00,0x00,0x00,0x00,0x00,0x00,0x00,0x00,0x00,0x00,0x00,0x00,0xe0,0x00,0x00,
 0x00,0x00,0x00,0x00,0x00,0x00,0x00,0x00,0x00,0x00,0x00,0x00,0x00,0xe0,0x00,
 0x00,0x00,0x00,0x00,0x00,0x00,0x00,0x00,0x00,0x00,0x00,0x00,0x00,0x00,0xe0,
 0x00,0x00,0x00,0x00,0x00,0x00,0x00,0x00,0x00,0x00,0x00,0x00,0x00,0x00,0x00,
 0xe0,0x00,0x00,0x00,0x00,0x00,0x00,0x00,0x00,0x00,0x00,0x00,0x00,0x00,0x00,
 0x00,0xe0,0x00,0x00,0x00,0x00,0x00,0x00,0x00,0x00,0x00,0x00,0x00,0x00,0x00,
 0x00,0x00,0xe0,0x00,0x00,0x00,0x00,0x00,0x00,0x00,0x00,0x00,0x00,0x00,0x00,
 0x00,0x00,0x00,0xe0,0x00,0x00,0x00,0x00,0x00,0x00,0x00,0x00,0x00,0x00,0x00,
 0x00,0x00,0x00,0x00,0xe0,0x00,0x00,0x00,0x00,0x00,0x00,0x00,0x00,0x00,0x00,
 0x00,0x00,0x00,0x00,0x00,0xe0};
