#define cabasa_width 125
#define cabasa_height 126
static char cabasa_bits[] = {
 0x00,0x00,0x00,0x00,0x00,0x00,0x00,0x00,0x00,0x00,0x00,0x00,0x00,0x00,0x00,
 0xe0,0x00,0x00,0x00,0x00,0x00,0x00,0x00,0x00,0x00,0x00,0x00,0x00,0x00,0x00,
 0x00,0xe0,0x00,0x00,0x00,0x00,0x00,0x00,0x00,0x00,0x00,0x00,0x00,0x00,0x00,
 0x00,0x00,0xe0,0x00,0x00,0x00,0x00,0x00,0x00,0x00,0x00,0x00,0x00,0x00,0x00,
 0x00,0x00,0x00,0xe0,0x00,0x00,0x00,0x00,0x00,0x00,0x00,0x40,0x00,0x00,0x00,
 0x00,0x00,0x00,0x00,0xe0,0x00,0x00,0x00,0x00,0x00,0x00,0x54,0xbb,0xff,0x4a,
 0x01,0x00,0x00,0x00,0x00,0xe0,0x00,0x00,0x00,0x00,0x00,0xc0,0x0f,0x00,0x00,
 0xa0,0x3f,0x00,0x00,0x00,0x00,0xe0,0x00,0x00,0x00,0x00,0x00,0x3c,0x00,0x00,
 0x00,0x00,0xc0,0x0f,0x00,0x00,0x00,0xe0,0x00,0x00,0x00,0x00,0x80,0x03,0x00,
 0x00,0x00,0x00,0x00,0xf0,0x00,0x00,0x00,0xe0,0x00,0x00,0x00,0x00,0xc0,0x00,
 0x00,0x00,0x00,0x00,0x00,0x80,0x07,0x00,0x00,0xe0,0x00,0x00,0x00,0x00,0x20,
 0x00,0x00,0x00,0x00,0x00,0x00,0x00,0x1c,0x00,0x00,0xe0,0x00,0x00,0x00,0x00,
 0x30,0x00,0x00,0x00,0x00,0x00,0x00,0x00,0x70,0x00,0x00,0xe0,0x00,0x00,0x00,
 0x00,0x10,0x00,0x00,0x00,0x50,0x00,0x00,0x00,0xc0,0x00,0x00,0xe0,0x00,0x00,
 0x00,0x00,0x10,0x00,0x00,0x00,0xfc,0x00,0x00,0x00,0x80,0x01,0x00,0xe0,0x00,
 0x00,0x00,0x00,0x38,0x00,0x00,0x00,0xd8,0x01,0x00,0x00,0x00,0x03,0x00,0xe0,
 0x00,0x00,0x00,0x00,0x50,0x00,0x00,0x00,0x00,0x00,0x00,0x00,0x00,0x02,0x00,
 0xe0,0x00,0x00,0x00,0x00,0x90,0x00,0x00,0x00,0x00,0x00,0x00,0x00,0x00,0x06,
 0x00,0xe0,0x00,0x00,0x00,0x00,0x30,0x03,0x00,0x00,0x00,0x00,0x00,0x00,0x00,
 0x02,0x00,0xe0,0x00,0x00,0x00,0x00,0x60,0x0c,0x00,0x00,0x00,0x00,0x00,0x00,
 0x00,0x03,0x00,0xe0,0x00,0x00,0x00,0x00,0xa0,0x71,0x00,0x00,0x00,0x00,0x00,
 0x00,0xc0,0x02,0x00,0xe0,0x00,0x00,0x00,0x00,0x30,0x04,0x07,0x00,0x00,0x00,
 0x00,0x00,0x30,0x01,0x00,0xe0,0x00,0x00,0x00,0x00,0xd8,0x50,0x90,0x02,0x00,
 0x00,0x00,0x00,0xc6,0x00,0x00,0xe0,0x00,0x00,0x00,0x00,0x50,0xc1,0x04,0x0a,
 0x05,0x00,0x00,0x95,0xd1,0x00,0x00,0xe0,0x00,0x00,0x00,0x00,0x70,0x06,0x3c,
 0x01,0xfd,0xaa,0xda,0x05,0xdc,0x00,0x00,0xe0,0x00,0x00,0x00,0x00,0xe8,0x1d,
 0x80,0x3e,0x00,0x00,0x00,0xe0,0xcf,0x00,0x00,0xe0,0x00,0x00,0x00,0x00,0x80,
 0x67,0x00,0x80,0xf4,0xb6,0xf6,0x13,0x7b,0x00,0x00,0xe0,0x00,0x00,0x00,0x00,
 0xb8,0x9c,0x01,0x00,0x00,0x49,0x02,0xd0,0xcc,0x00,0x00,0xe0,0x00,0x00,0x00,
 0x00,0xf0,0xf2,0x0b,0x00,0x00,0x00,0x80,0x98,0xeb,0x00,0x00,0xe0,0x00,0x00,
 0x00,0x00,0xa0,0xdb,0xdb,0x00,0x00,0x00,0x90,0x53,0x63,0x00,0x00,0xe0,0x00,
 0x00,0x00,0x00,0xb8,0x0d,0x47,0x97,0x00,0x00,0x6e,0x2f,0x7c,0x00,0x00,0xe0,
 0x00,0x00,0x00,0x00,0xe8,0x72,0x7c,0x6b,0xef,0xbf,0x09,0xa5,0xee,0x00,0x00,
 0xe0,0x00,0x00,0x00,0x00,0xa8,0xc7,0xa1,0x5b,0x2d,0xa9,0xee,0xa4,0x61,0x00,
 0x00,0xe0,0x00,0x00,0x00,0x00,0xb0,0x6e,0xab,0xd5,0xb5,0xcd,0x96,0x96,0x6c,
 0x00,0x00,0xe0,0x00,0x00,0x00,0x00,0xf8,0x5c,0x99,0xd4,0x9a,0x5a,0x72,0xaf,
 0x6f,0x00,0x00,0xe0,0x00,0x00,0x00,0x00,0xa0,0x33,0xcf,0xaf,0x4a,0xf3,0xbe,
 0x99,0x60,0x00,0x00,0xe0,0x00,0x00,0x00,0x00,0xb8,0xdd,0x54,0x99,0xd3,0xae,
 0x25,0x75,0x7e,0x00,0x00,0xe0,0x00,0x00,0x00,0x00,0xe8,0xf4,0xf5,0x6b,0x3d,
 0x6d,0xdd,0xc4,0x6b,0x00,0x00,0xe0,0x00,0x00,0x00,0x00,0x94,0xe7,0xb5,0x69,
 0xa5,0x51,0xb3,0xeb,0x63,0x00,0x00,0xe0,0x00,0x00,0x00,0x00,0x18,0x3e,0xae,
 0xf4,0x5b,0x96,0x26,0xb7,0x6c,0x00,0x00,0xe0,0x00,0x00,0x00,0x00,0xf8,0xb4,
 0xd2,0x17,0xb5,0xbd,0xed,0x2c,0x7f,0x00,0x00,0xe0,0x00,0x00,0x00,0x00,0xcc,
 0xc3,0x1b,0xbb,0xa6,0xed,0xbf,0xe9,0x71,0x00,0x00,0xe0,0x00,0x00,0x00,0x00,
 0x58,0x0f,0x5d,0xe6,0xfb,0x3f,0x57,0xfa,0x7c,0x00,0x00,0xe0,0x00,0x00,0x00,
 0x00,0x3c,0x74,0xf2,0x99,0x56,0xd0,0xfa,0x9f,0x56,0x00,0x00,0xe0,0x00,0x00,
 0x00,0x00,0xec,0xb5,0x4b,0xfe,0xf3,0xbf,0xfd,0xe5,0x6b,0x00,0x00,0xe0,0x00,
 0x00,0x00,0x00,0xa6,0x96,0x7c,0x91,0x6e,0x69,0x4b,0xfb,0x7c,0x00,0x00,0xe0,
 0x00,0x00,0x00,0x00,0xb6,0xfd,0xf4,0x9e,0xb6,0xd6,0xea,0x2f,0x7e,0x00,0x00,
 0xe0,0x00,0x00,0x00,0x00,0xca,0xe0,0x93,0x3f,0xf7,0xfa,0xef,0xeb,0x2f,0x00,
 0x00,0xe0,0x00,0x00,0x00,0x00,0x36,0x87,0xef,0xd2,0xff,0xdb,0xb5,0xfa,0x79,
 0x00,0x00,0xe0,0x00,0x00,0x00,0x00,0x84,0x51,0x74,0x9f,0x84,0x2d,0xe5,0x9f,
 0x6e,0x00,0x00,0xe0,0x00,0x00,0x00,0x00,0x18,0xa4,0x36,0xf9,0xbd,0xed,0x7e,
 0xa5,0x68,0x00,0x00,0xe0,0x00,0x00,0x00,0x00,0xf0,0x18,0xa9,0xd6,0xff,0xfe,
 0xbf,0x6c,0x6d,0x00,0x00,0xe0,0x00,0x00,0x00,0x00,0x80,0xc3,0x43,0xb7,0xa0,
 0x2d,0x45,0x0b,0x33,0x00,0x00,0xe0,0x00,0x00,0x00,0x00,0x00,0x0e,0x70,0x03,
 0xbf,0xf6,0x3a,0x3a,0x18,0x00,0x00,0xe0,0x00,0x00,0x00,0x00,0x00,0xf0,0x01,
 0xd0,0xff,0x96,0xde,0x80,0x07,0x00,0x00,0xe0,0x00,0x00,0x00,0x00,0x00,0x80,
 0xae,0x00,0x50,0xb5,0x02,0xda,0x00,0x00,0x00,0xe0,0x00,0x00,0x00,0x00,0x00,
 0x00,0xf0,0x5f,0x04,0x00,0x48,0x1f,0x00,0x00,0x00,0xe0,0x00,0x00,0x00,0x00,
 0x00,0x00,0x00,0xe0,0xff,0xff,0x57,0x00,0x00,0x00,0x00,0xe0,0x00,0x00,0x00,
 0x00,0x00,0x00,0x00,0x40,0x60,0x00,0x00,0x00,0x00,0x00,0x00,0xe0,0x00,0x00,
 0x00,0x00,0x00,0x00,0x00,0x60,0x40,0x00,0x00,0x00,0x00,0x00,0x00,0xe0,0x00,
 0x00,0x00,0x00,0x00,0x00,0x00,0x00,0xe0,0x00,0x00,0x00,0x00,0x00,0x00,0xe0,
 0x00,0x00,0x00,0x00,0x00,0x00,0x00,0x60,0x40,0x04,0x00,0x00,0x00,0x00,0x00,
 0xe0,0x00,0x00,0x00,0x00,0x00,0x00,0x00,0x40,0x60,0x00,0x00,0x00,0x00,0x00,
 0x00,0xe0,0x00,0x00,0x00,0x00,0x00,0x00,0x00,0x20,0x40,0x00,0x00,0x00,0x00,
 0x00,0x00,0xe0,0x00,0x00,0x00,0x00,0x00,0x00,0x00,0x40,0x60,0x00,0x00,0x00,
 0x00,0x00,0x00,0xe0,0x00,0x00,0x00,0x00,0x00,0x00,0x00,0x60,0x40,0x00,0x00,
 0x00,0x00,0x00,0x00,0xe0,0x00,0x00,0x00,0x00,0x00,0x00,0x00,0x20,0x60,0x00,
 0x00,0x00,0x00,0x00,0x00,0xe0,0x00,0x00,0x00,0x00,0x00,0x00,0x00,0x40,0x40,
 0x00,0x00,0x00,0x00,0x00,0x00,0xe0,0x00,0x00,0x00,0x00,0x00,0x00,0x00,0x20,
 0x60,0x00,0x00,0x00,0x00,0x00,0x00,0xe0,0x00,0x00,0x00,0x00,0x00,0x00,0x00,
 0x60,0x60,0x00,0x00,0x00,0x00,0x00,0x00,0xe0,0x00,0x00,0x00,0x00,0x00,0x00,
 0x00,0x20,0x60,0x00,0x00,0x00,0x00,0x00,0x00,0xe0,0x00,0x00,0x00,0x00,0x00,
 0x00,0x00,0x60,0x40,0x00,0x00,0x00,0x00,0x00,0x00,0xe0,0x00,0x00,0x00,0x00,
 0x00,0x00,0x00,0x20,0x60,0x00,0x00,0x00,0x00,0x00,0x00,0xe0,0x00,0x00,0x00,
 0x00,0x00,0x00,0x00,0x00,0x60,0x00,0x00,0x00,0x00,0x00,0x00,0xe0,0x00,0x00,
 0x00,0x00,0x00,0x00,0x00,0x20,0x40,0x00,0x00,0x00,0x00,0x00,0x00,0xe0,0x00,
 0x00,0x00,0x00,0x00,0x00,0x00,0x00,0x60,0x00,0x00,0x00,0x00,0x00,0x00,0xe0,
 0x00,0x00,0x00,0x00,0x00,0x00,0x00,0x20,0x40,0x00,0x00,0x00,0x00,0x00,0x00,
 0xe0,0x00,0x00,0x00,0x00,0x00,0x00,0x00,0x00,0x60,0x00,0x00,0x00,0x00,0x00,
 0x00,0xe0,0x00,0x00,0x00,0x00,0x00,0x00,0x00,0x00,0x40,0x00,0x00,0x00,0x00,
 0x00,0x00,0xe0,0x00,0x00,0x00,0x00,0x00,0x00,0x00,0x00,0x40,0x00,0x00,0x00,
 0x00,0x00,0x00,0xe0,0x00,0x00,0x00,0x00,0x00,0x00,0x00,0x10,0x40,0x00,0x00,
 0x00,0x00,0x00,0x00,0xe0,0x00,0x00,0x00,0x00,0x00,0x00,0x00,0x10,0x60,0x00,
 0x00,0x00,0x00,0x00,0x00,0xe0,0x00,0x00,0x00,0x00,0x00,0x00,0x00,0x10,0x40,
 0x00,0x00,0x00,0x00,0x00,0x00,0xe0,0x00,0x00,0x00,0x00,0x00,0x00,0x00,0x10,
 0x40,0x00,0x00,0x00,0x00,0x00,0x00,0xe0,0x00,0x00,0x00,0x00,0x00,0x00,0x00,
 0x10,0xc0,0x00,0x00,0x00,0x00,0x00,0x00,0xe0,0x00,0x00,0x00,0x00,0x00,0x00,
 0x00,0x10,0x40,0x00,0x00,0x00,0x00,0x00,0x00,0xe0,0x00,0x00,0x00,0x00,0x00,
 0x00,0x00,0x10,0x40,0x00,0x00,0x00,0x00,0x00,0x00,0xe0,0x00,0x00,0x00,0x00,
 0x00,0x00,0x00,0x10,0x40,0x00,0x00,0x00,0x00,0x00,0x00,0xe0,0x00,0x00,0x00,
 0x00,0x00,0x00,0x00,0x00,0xc0,0x00,0x00,0x00,0x00,0x00,0x00,0xe0,0x00,0x00,
 0x00,0x00,0x00,0x00,0x00,0x08,0x40,0x00,0x00,0x00,0x00,0x00,0x00,0xe0,0x00,
 0x00,0x00,0x00,0x00,0x00,0x00,0x00,0x40,0x00,0x00,0x00,0x00,0x00,0x00,0xe0,
 0x00,0x00,0x00,0x00,0x00,0x00,0x00,0x08,0xc0,0x00,0x00,0x00,0x00,0x00,0x00,
 0xe0,0x00,0x00,0x00,0x00,0x00,0x00,0x00,0x08,0x40,0x00,0x00,0x00,0x00,0x00,
 0x00,0xe0,0x00,0x00,0x00,0x00,0x00,0x00,0x00,0x08,0xc0,0x00,0x00,0x00,0x00,
 0x00,0x00,0xe0,0x00,0x00,0x00,0x00,0x00,0x00,0x00,0x08,0xc0,0x00,0x00,0x00,
 0x00,0x00,0x00,0xe0,0x00,0x00,0x00,0x00,0x00,0x00,0x00,0x08,0xc0,0x00,0x00,
 0x00,0x00,0x00,0x00,0xe0,0x00,0x00,0x00,0x00,0x00,0x00,0x00,0x04,0x80,0x00,
 0x00,0x00,0x00,0x00,0x00,0xe0,0x00,0x00,0x00,0x00,0x00,0x00,0x00,0x00,0x80,
 0x00,0x00,0x00,0x00,0x00,0x00,0xe0,0x00,0x00,0x00,0x00,0x00,0x00,0x00,0x04,
 0x80,0x01,0x00,0x00,0x00,0x00,0x00,0xe0,0x00,0x00,0x00,0x00,0x00,0x00,0x00,
 0x00,0x80,0x00,0x00,0x00,0x00,0x00,0x00,0xe0,0x00,0x00,0x00,0x00,0x00,0x00,
 0x00,0x04,0x80,0x01,0x00,0x00,0x00,0x00,0x00,0xe0,0x00,0x00,0x00,0x00,0x00,
 0x00,0x00,0x00,0x80,0x01,0x00,0x00,0x00,0x00,0x00,0xe0,0x00,0x00,0x00,0x00,
 0x00,0x00,0x00,0x04,0x80,0x00,0x00,0x00,0x00,0x00,0x00,0xe0,0x00,0x00,0x00,
 0x00,0x00,0x00,0x00,0x00,0x80,0x01,0x00,0x00,0x00,0x00,0x00,0xe0,0x00,0x00,
 0x00,0x00,0x00,0x00,0x00,0x04,0x80,0x00,0x00,0x00,0x00,0x00,0x00,0xe0,0x00,
 0x00,0x00,0x00,0x00,0x00,0x00,0x00,0x80,0x00,0x00,0x00,0x00,0x00,0x00,0xe0,
 0x00,0x00,0x00,0x00,0x00,0x00,0x00,0x04,0xc0,0x00,0x00,0x00,0x00,0x00,0x00,
 0xe0,0x00,0x00,0x00,0x00,0x00,0x00,0x00,0x00,0xc0,0x00,0x00,0x00,0x00,0x00,
 0x00,0xe0,0x00,0x00,0x00,0x00,0x00,0x00,0x00,0x04,0xc0,0x00,0x00,0x00,0x00,
 0x00,0x00,0xe0,0x00,0x00,0x00,0x00,0x00,0x00,0x00,0x08,0x40,0x00,0x00,0x00,
 0x00,0x00,0x00,0xe0,0x00,0x00,0x00,0x00,0x00,0x00,0x00,0x08,0x40,0x00,0x00,
 0x00,0x00,0x00,0x00,0xe0,0x00,0x00,0x00,0x00,0x00,0x00,0x00,0x08,0x40,0x00,
 0x00,0x00,0x00,0x00,0x00,0xe0,0x00,0x00,0x00,0x00,0x00,0x00,0x00,0x08,0x60,
 0x00,0x00,0x00,0x00,0x00,0x00,0xe0,0x00,0x00,0x00,0x00,0x00,0x00,0x00,0x08,
 0x20,0x00,0x00,0x00,0x00,0x00,0x00,0xe0,0x00,0x00,0x00,0x00,0x00,0x00,0x00,
 0x00,0x20,0x00,0x00,0x00,0x00,0x00,0x00,0xe0,0x00,0x00,0x00,0x00,0x00,0x00,
 0x00,0x10,0x20,0x00,0x00,0x00,0x00,0x00,0x00,0xe0,0x00,0x00,0x00,0x00,0x00,
 0x00,0x00,0x10,0x30,0x00,0x00,0x00,0x00,0x00,0x00,0xe0,0x00,0x00,0x00,0x00,
 0x00,0x00,0x00,0x10,0x18,0x00,0x00,0x00,0x00,0x00,0x00,0xe0,0x00,0x00,0x00,
 0x00,0x00,0x00,0x00,0x20,0x08,0x00,0x00,0x00,0x00,0x00,0x00,0xe0,0x00,0x00,
 0x00,0x00,0x00,0x00,0x00,0x60,0x0c,0x00,0x00,0x00,0x00,0x00,0x00,0xe0,0x00,
 0x00,0x00,0x00,0x00,0x00,0x00,0x80,0x03,0x00,0x00,0x00,0x00,0x00,0x00,0xe0,
 0x00,0x00,0x00,0x00,0x00,0x00,0x00,0x00,0x01,0x00,0x00,0x00,0x00,0x00,0x00,
 0xe0,0x00,0x00,0x00,0x00,0x00,0x00,0x00,0x00,0x00,0x00,0x00,0x00,0x00,0x00,
 0x00,0xe0,0x00,0x00,0x00,0x00,0x00,0x00,0x00,0x00,0x00,0x00,0x00,0x00,0x00,
 0x00,0x00,0xe0,0x00,0x00,0x00,0x00,0x00,0x00,0x00,0x00,0x00,0x00,0x00,0x00,
 0x00,0x00,0x00,0xe0,0x00,0x00,0x00,0x00,0x00,0x00,0x00,0x00,0x00,0x00,0x00,
 0x00,0x00,0x00,0x00,0xe0,0x00,0x00,0x00,0x00,0x00,0x00,0x00,0x00,0x00,0x00,
 0x00,0x00,0x00,0x00,0x00,0xe0};
