#define rachet_width 125
#define rachet_height 126
static char rachet_bits[] = {
 0x00,0x00,0x00,0x00,0x00,0x00,0x00,0x00,0x00,0x00,0x00,0x00,0x00,0x00,0x00,
 0xe0,0x00,0x00,0x00,0x00,0x00,0x00,0x00,0x00,0x00,0x00,0x00,0x00,0x00,0x00,
 0x00,0xe0,0x00,0x00,0x00,0x00,0x00,0x00,0x00,0x00,0x00,0x00,0x00,0x00,0x00,
 0x00,0x00,0xe0,0x00,0x00,0x00,0x00,0x00,0x00,0x00,0x00,0x00,0x00,0x00,0x00,
 0x00,0x00,0x00,0xe0,0x00,0x00,0x00,0x00,0x00,0x00,0x00,0x00,0x00,0x00,0x00,
 0x00,0x00,0x00,0x00,0xe0,0x00,0x00,0x00,0x00,0x00,0x00,0x00,0x00,0x00,0x00,
 0x00,0x00,0x00,0x00,0x00,0xe0,0x00,0x00,0x00,0x00,0x00,0x00,0x00,0x00,0x00,
 0x00,0x00,0x00,0x00,0x00,0x00,0xe0,0x00,0x00,0x00,0x00,0x00,0x00,0x20,0x00,
 0x00,0x00,0x00,0x00,0x00,0x00,0x00,0xe0,0x00,0x00,0x00,0x00,0x00,0x00,0xfa,
 0x03,0x00,0x00,0x00,0x00,0x00,0x00,0x00,0xe0,0x00,0x00,0x00,0x00,0x00,0x00,
 0x01,0x0e,0x00,0x00,0x00,0x00,0x00,0x00,0x00,0xe0,0x00,0x00,0x00,0x00,0x00,
 0x00,0xb4,0x19,0x00,0x00,0x00,0x00,0x00,0x00,0x00,0xe0,0x00,0x00,0x00,0x00,
 0x00,0x00,0x11,0x67,0x00,0x00,0x00,0x00,0x00,0x00,0x00,0xe0,0x00,0x00,0x00,
 0x00,0x00,0x50,0x00,0xc9,0x00,0x00,0x00,0x00,0x00,0x00,0x00,0xe0,0x00,0x00,
 0x00,0x00,0x00,0x04,0x41,0x88,0x01,0x00,0x00,0x00,0x00,0x00,0x00,0xe0,0x00,
 0x00,0x00,0x00,0xf0,0x23,0x08,0x38,0x01,0x00,0x00,0x00,0x00,0x00,0x00,0xe0,
 0x00,0x00,0x00,0x00,0x1a,0x1d,0x00,0x22,0x03,0x00,0x00,0x00,0x00,0x00,0x00,
 0xe0,0x00,0x00,0x00,0x00,0x00,0x94,0x00,0x20,0x06,0x00,0x00,0x00,0x00,0x00,
 0x00,0xe0,0x00,0x00,0x00,0x00,0x01,0x70,0x20,0xe0,0x04,0x00,0x00,0x00,0x00,
 0x00,0x00,0xe0,0x00,0x00,0x00,0x80,0x00,0x80,0x04,0x90,0x05,0x00,0x00,0x00,
 0x00,0x00,0x00,0xe0,0x00,0x00,0x00,0x00,0x00,0x80,0x81,0x0a,0x04,0x00,0x00,
 0x00,0x00,0x00,0x00,0xe0,0x00,0x00,0x00,0x00,0x00,0x00,0x02,0xc1,0x0c,0x00,
 0x00,0x00,0x00,0x00,0x00,0xe0,0x00,0x00,0x00,0x80,0x00,0x00,0x52,0x10,0x05,
 0x00,0x00,0x00,0x00,0x00,0x00,0xe0,0x00,0x00,0x00,0x00,0x00,0x00,0x04,0x85,
 0x09,0x00,0x00,0x00,0x00,0x00,0x00,0xe0,0x00,0x00,0x00,0x40,0x00,0x00,0x0c,
 0xe0,0x04,0x00,0x00,0x00,0x00,0x00,0x00,0xe0,0x00,0x00,0x00,0x00,0x80,0x01,
 0x08,0xa8,0x04,0x00,0x00,0x00,0x00,0x00,0x00,0xe0,0x00,0x00,0x00,0x40,0x50,
 0x03,0x8c,0x86,0x06,0x00,0x00,0x00,0x00,0x00,0x00,0xe0,0x00,0x00,0x00,0x80,
 0x20,0x06,0xe8,0x00,0x06,0x00,0x00,0x00,0x00,0x00,0x00,0xe0,0x00,0x00,0x00,
 0x00,0x10,0x05,0x18,0xd0,0x06,0x00,0x00,0x00,0x00,0x00,0x00,0xe0,0x00,0x00,
 0x00,0x80,0x30,0x06,0x08,0x80,0x06,0x00,0x00,0x00,0x00,0x00,0x00,0xe0,0x00,
 0x00,0x00,0x80,0x40,0x05,0x08,0x42,0x02,0x00,0x00,0x00,0x00,0x00,0x00,0xe0,
 0x00,0x00,0x00,0x00,0x91,0x02,0x50,0x68,0x0a,0x00,0x00,0x00,0x00,0x00,0x00,
 0xe0,0x00,0x00,0x00,0x00,0x04,0x00,0x08,0x20,0x12,0x00,0x00,0x00,0x00,0x00,
 0x00,0xe0,0x00,0x00,0x00,0x00,0x01,0x01,0x88,0x1a,0x26,0x00,0x00,0x00,0x00,
 0x00,0x00,0xe0,0x00,0x00,0x00,0x00,0x01,0x01,0x0c,0x0a,0x42,0x00,0x00,0x00,
 0x00,0x00,0x00,0xe0,0x00,0x00,0x00,0x00,0x82,0x00,0xac,0x01,0x46,0x00,0x00,
 0x00,0x00,0x00,0x00,0xe0,0x00,0x00,0x00,0x00,0x6d,0x00,0x08,0x10,0x0c,0x01,
 0x00,0x00,0x00,0x00,0x00,0xe0,0x00,0x00,0x00,0x00,0x28,0x00,0x18,0x00,0x14,
 0x01,0x00,0x00,0x00,0x00,0x00,0xe0,0x00,0x00,0x00,0x00,0x80,0x02,0x48,0x10,
 0x2c,0x02,0x00,0x00,0x00,0x00,0x00,0xe0,0x00,0x00,0x00,0x00,0x6a,0x08,0x08,
 0x00,0x4c,0x04,0x00,0x00,0x00,0x00,0x00,0xe0,0x00,0x00,0x00,0x80,0x10,0x0a,
 0x18,0x20,0x88,0x08,0x00,0x00,0x00,0x00,0x00,0xe0,0x00,0x00,0x00,0xc0,0x82,
 0x09,0x80,0x00,0x18,0x11,0x00,0x00,0x00,0x00,0x00,0xe0,0x00,0x00,0x00,0x00,
 0x60,0x08,0x10,0x40,0x18,0x22,0x00,0x00,0x00,0x00,0x00,0xe0,0x00,0x00,0x00,
 0x80,0x00,0x10,0x10,0x00,0x10,0x44,0x00,0x00,0x80,0x03,0x00,0xe0,0x00,0x00,
 0x00,0x80,0x20,0x08,0x10,0x00,0x30,0x88,0x00,0x00,0x60,0x00,0x00,0xe0,0x00,
 0x02,0x00,0x40,0x20,0x09,0x30,0x01,0x30,0x08,0x01,0x00,0x18,0x06,0x00,0xe0,
 0x00,0x08,0x00,0x80,0x20,0x14,0x20,0x00,0x20,0x10,0x01,0x00,0x04,0x01,0x00,
 0xe0,0x00,0x00,0x00,0x80,0x20,0x07,0x20,0x80,0x60,0x20,0x04,0x80,0xc1,0x00,
 0x00,0xe0,0x00,0x00,0x00,0x20,0xc7,0x1d,0x20,0x02,0x60,0x40,0x04,0x40,0x20,
 0x00,0x00,0xe0,0x00,0x00,0x00,0x00,0xb8,0x00,0x60,0x00,0x40,0x80,0x08,0x10,
 0x0c,0x00,0x00,0xe0,0x00,0x00,0x00,0x20,0x40,0x08,0x40,0x00,0xc1,0x00,0x11,
 0x0c,0x07,0x00,0x00,0xe0,0x00,0x00,0x00,0x00,0x04,0x19,0x40,0x04,0x40,0x00,
 0x62,0x83,0x00,0x00,0x00,0xe0,0x00,0x00,0x00,0x20,0x01,0x0a,0xc0,0x00,0x80,
 0x00,0x04,0x60,0x00,0x00,0x00,0xe0,0x00,0x00,0x00,0x00,0x07,0x2c,0x80,0x00,
 0x82,0x01,0x0c,0x18,0x00,0x00,0x00,0xe0,0x00,0x00,0x00,0x10,0xa8,0x23,0x80,
 0x00,0x80,0x00,0x30,0x06,0x00,0x00,0x00,0xe0,0x00,0x00,0x00,0x10,0xd0,0x20,
 0x80,0x09,0x80,0x01,0xc0,0x01,0x00,0x00,0x00,0xe0,0x00,0x00,0x00,0x00,0x00,
 0x40,0x00,0x01,0x04,0x03,0x00,0x00,0x00,0x00,0x00,0xe0,0x00,0x00,0x00,0x10,
 0x80,0x40,0x00,0x01,0x00,0x01,0x00,0x00,0x00,0x00,0x00,0xe0,0x00,0x00,0x00,
 0x00,0x40,0x40,0x00,0x11,0x00,0x03,0x00,0x00,0x00,0x00,0x00,0xe0,0x00,0x00,
 0x00,0x08,0x40,0x40,0x00,0x03,0x00,0x02,0x00,0x00,0x00,0x00,0x00,0xe0,0x00,
 0x00,0x00,0x00,0x60,0x80,0x00,0x02,0x00,0x06,0x00,0x00,0x00,0x00,0x00,0xe0,
 0x00,0x00,0x00,0x08,0x20,0xa0,0x00,0x02,0x00,0x04,0x00,0x00,0x00,0x00,0x00,
 0xe0,0x00,0x00,0x00,0x00,0x40,0x80,0x00,0x06,0x10,0x06,0x00,0x00,0x00,0x00,
 0x00,0xe0,0x00,0x00,0x00,0x04,0x20,0x00,0x01,0x44,0x00,0x0c,0x00,0x00,0x00,
 0x00,0x00,0xe0,0x00,0x00,0x00,0x00,0x20,0x10,0x01,0x04,0x00,0x08,0x00,0x00,
 0x00,0x00,0x00,0xe0,0x00,0x00,0x00,0x04,0x20,0x00,0x01,0x0c,0x00,0x0c,0x00,
 0x00,0x00,0x00,0x00,0xe0,0x00,0x00,0x00,0x00,0x30,0x00,0x02,0x08,0x00,0x08,
 0x00,0x00,0x00,0x00,0x00,0xe0,0x00,0x00,0x00,0x04,0x10,0x80,0x02,0x88,0x40,
 0x18,0x00,0x00,0x00,0x00,0x00,0xe0,0x00,0x00,0x00,0x00,0x10,0x88,0x03,0x18,
 0x00,0x10,0x00,0x00,0x00,0x00,0x00,0xe0,0x00,0x00,0x00,0x02,0x10,0x80,0x04,
 0x10,0x01,0x10,0x00,0x00,0x00,0x00,0x00,0xe0,0x00,0x00,0x00,0x00,0x10,0x80,
 0x00,0x10,0x00,0x30,0x00,0x00,0x00,0x00,0x00,0xe0,0x00,0x00,0x00,0x02,0x18,
 0xc8,0x04,0x10,0x80,0x20,0x00,0x00,0x00,0x00,0x00,0xe0,0x00,0x00,0x00,0x00,
 0x08,0x80,0x08,0x30,0x00,0x20,0x00,0x00,0x00,0x00,0x00,0xe0,0x00,0x00,0x00,
 0x00,0x08,0x40,0x00,0x20,0x02,0x60,0x00,0x00,0x00,0x00,0x00,0xe0,0x00,0x00,
 0x00,0x01,0x08,0xc4,0x08,0x20,0x00,0x41,0x00,0x00,0x00,0x00,0x00,0xe0,0x00,
 0x00,0x00,0x00,0x08,0x40,0x08,0x40,0x00,0x40,0x00,0x00,0x00,0x00,0x00,0xe0,
 0x00,0x00,0x00,0x01,0x0c,0x60,0x10,0x40,0x00,0xc2,0x00,0x00,0x00,0x00,0x00,
 0xe0,0x00,0x00,0x00,0x00,0x04,0x40,0x10,0x40,0x00,0x80,0x00,0x00,0x00,0x00,
 0x00,0xe0,0x00,0x00,0x00,0x01,0x04,0x22,0x00,0xc0,0x00,0x80,0x00,0x00,0x00,
 0x00,0x00,0xe0,0x00,0x00,0x00,0x00,0x84,0x22,0x20,0x80,0x08,0x84,0x00,0x00,
 0x00,0x00,0x00,0xe0,0x00,0x00,0x80,0x00,0x26,0x24,0x20,0x80,0x00,0x80,0x01,
 0x00,0x00,0x00,0x00,0xe0,0x00,0x00,0x00,0x00,0x0e,0x38,0x00,0x80,0x01,0x00,
 0x01,0x00,0x00,0x00,0x00,0xe0,0x00,0x00,0x80,0x00,0x02,0x30,0x40,0x00,0x11,
 0x08,0x03,0x00,0x00,0x00,0x00,0xe0,0x00,0x00,0x00,0x00,0x02,0x11,0x40,0x00,
 0x01,0x00,0x02,0x00,0x00,0x00,0x00,0xe0,0x00,0x00,0x00,0x00,0x02,0x10,0x40,
 0x00,0x01,0x08,0x03,0x00,0x00,0x00,0x00,0xe0,0x00,0x00,0x40,0x00,0x0b,0x10,
 0x00,0x00,0x23,0x00,0x02,0x00,0x00,0x00,0x00,0xe0,0x00,0x00,0x00,0x00,0x01,
 0x18,0x80,0x00,0x02,0x10,0x06,0x00,0x00,0x00,0x00,0xe0,0x00,0x00,0x40,0x00,
 0x01,0x18,0x80,0x00,0x26,0x00,0x04,0x00,0x00,0x00,0x00,0xe0,0x00,0x00,0x00,
 0x00,0x01,0x08,0x80,0x00,0x06,0x20,0x04,0x00,0x00,0x00,0x00,0xe0,0x00,0x00,
 0x00,0x80,0x01,0x08,0x00,0x01,0x04,0x00,0x0c,0x00,0x00,0x00,0x00,0xe0,0x00,
 0x00,0x20,0x80,0x00,0x0c,0x00,0x01,0x04,0x60,0x0c,0x00,0x00,0x00,0x00,0xe0,
 0x00,0x00,0x00,0x80,0x00,0x0c,0x00,0x01,0x0c,0x10,0x0b,0x00,0x00,0x00,0x00,
 0xe0,0x00,0x00,0x20,0x80,0x00,0x0c,0x00,0x02,0x08,0x84,0x18,0x00,0x00,0x00,
 0x00,0xe0,0x00,0x00,0x00,0x80,0x00,0x0c,0x00,0x02,0x0c,0x21,0x10,0x00,0x00,
 0x00,0x00,0xe0,0x00,0x00,0x20,0x40,0x00,0x04,0x00,0x02,0x58,0x08,0x18,0x00,
 0x00,0x00,0x00,0xe0,0x00,0x00,0x40,0x40,0x00,0x04,0x00,0x00,0x18,0x02,0x30,
 0x00,0x00,0x00,0x00,0xe0,0x00,0x00,0x80,0x40,0x00,0x03,0x00,0x04,0x30,0x01,
 0x10,0x00,0x00,0x00,0x00,0xe0,0x00,0x00,0x00,0x41,0x80,0x00,0x00,0x04,0x70,
 0x00,0x20,0x00,0x00,0x00,0x00,0xe0,0x00,0x00,0x00,0x42,0x30,0x00,0x00,0x04,
 0x10,0x00,0x60,0x00,0x00,0x00,0x00,0xe0,0x00,0x00,0x00,0x64,0x08,0x00,0x00,
 0x08,0x10,0x00,0x40,0x00,0x00,0x00,0x00,0xe0,0x00,0x00,0x00,0x28,0x03,0x00,
 0x00,0x08,0x20,0x00,0x60,0x00,0x00,0x00,0x00,0xe0,0x00,0x00,0x00,0xf0,0x00,
 0x00,0x00,0x00,0x20,0x00,0xc0,0x00,0x00,0x00,0x00,0xe0,0x00,0x00,0x00,0x00,
 0x00,0x00,0x00,0x10,0x40,0x00,0x80,0x00,0x00,0x00,0x00,0xe0,0x00,0x00,0x00,
 0x00,0x00,0x00,0x00,0x10,0x00,0x00,0xc0,0x00,0x00,0x00,0x00,0xe0,0x00,0x00,
 0x00,0x00,0x00,0x00,0x00,0x10,0x40,0x00,0x80,0x00,0x00,0x00,0x00,0xe0,0x00,
 0x00,0x00,0x00,0x00,0x00,0x00,0x00,0x40,0x00,0x80,0x01,0x00,0x00,0x00,0xe0,
 0x00,0x00,0x00,0x00,0x00,0x00,0x00,0x20,0x80,0x00,0x00,0x01,0x00,0x00,0x00,
 0xe0,0x00,0x00,0x00,0x00,0x00,0x00,0x00,0x20,0x80,0x00,0x00,0x01,0x00,0x00,
 0x00,0xe0,0x00,0x00,0x00,0x00,0x00,0x00,0x00,0x40,0x80,0x00,0x00,0x03,0x00,
 0x00,0x00,0xe0,0x00,0x00,0x00,0x00,0x00,0x00,0x00,0x40,0x00,0x01,0x00,0x03,
 0x00,0x00,0x00,0xe0,0x00,0x00,0x00,0x00,0x00,0x00,0x00,0x40,0x00,0x01,0x00,
 0x02,0x00,0x00,0x00,0xe0,0x00,0x00,0x00,0x00,0x00,0x00,0x00,0x40,0x00,0x01,
 0x00,0x06,0x00,0x00,0x00,0xe0,0x00,0x00,0x00,0x00,0x00,0x00,0x00,0x80,0x00,
 0x02,0x80,0x01,0x00,0x00,0x00,0xe0,0x00,0x00,0x00,0x00,0x00,0x00,0x00,0x80,
 0x00,0x02,0x40,0x00,0x00,0x00,0x00,0xe0,0x00,0x00,0x00,0x00,0x00,0x00,0x00,
 0x80,0x00,0x02,0x30,0x00,0x00,0x00,0x00,0xe0,0x00,0x00,0x00,0x00,0x00,0x00,
 0x00,0x00,0x01,0x06,0x0c,0x00,0x00,0x00,0x00,0xe0,0x00,0x00,0x00,0x00,0x00,
 0x00,0x00,0x00,0x01,0x84,0x01,0x00,0x00,0x00,0x00,0xe0,0x00,0x00,0x00,0x00,
 0x00,0x00,0x00,0x00,0x01,0x44,0x00,0x00,0x00,0x00,0x00,0xe0,0x00,0x00,0x00,
 0x00,0x00,0x00,0x00,0x00,0x6a,0x3f,0x00,0x00,0x00,0x00,0x00,0xe0,0x00,0x00,
 0x00,0x00,0x00,0x00,0x00,0x00,0x14,0x00,0x00,0x00,0x00,0x00,0x00,0xe0,0x00,
 0x00,0x00,0x00,0x00,0x00,0x00,0x00,0x00,0x00,0x00,0x00,0x00,0x00,0x00,0xe0,
 0x00,0x00,0x00,0x00,0x00,0x00,0x00,0x00,0x00,0x00,0x00,0x00,0x00,0x00,0x00,
 0xe0,0x00,0x00,0x00,0x00,0x00,0x00,0x00,0x00,0x00,0x00,0x00,0x00,0x00,0x00,
 0x00,0xe0,0x00,0x00,0x00,0x00,0x00,0x00,0x00,0x00,0x00,0x00,0x00,0x00,0x00,
 0x00,0x00,0xe0,0x00,0x00,0x00,0x00,0x00,0x00,0x00,0x00,0x00,0x00,0x00,0x00,
 0x00,0x00,0x00,0xe0,0x00,0x00,0x00,0x00,0x00,0x00,0x00,0x00,0x00,0x00,0x00,
 0x00,0x00,0x00,0x00,0xe0,0x00,0x00,0x00,0x00,0x00,0x00,0x00,0x00,0x00,0x00,
 0x00,0x00,0x00,0x00,0x00,0xe0};
