<svg xmlns="http://www.w3.org/2000/svg" width="120.46" height="380" viewBox="0 0 120.46 380">
  <title>as-BlankPanelSpecial3</title>
  <g id="Layer_1" data-name="Layer 1">
    <g>
      <rect id="rect1709" x="0.34" width="120" height="380" style="fill: #333;opacity: 0.5"/>
      <g>
        <rect id="rect1709-2" x="0.46" y="226.13" width="120" height="1.26" style="fill: #2b2c2b"/>
        <rect id="rect1709-3" x="0.46" y="224.92" width="120" height="1.26" style="fill: #252624"/>
        <rect id="rect1709-4" x="0.46" y="223.63" width="120" height="1.26" style="fill: #1e1d1d"/>
        <rect id="rect1709-5" x="0.46" y="222.35" width="120" height="1.26" style="fill: #191818"/>
      </g>
      <rect x="0.34" y="147.67" width="119.87" height="74.67" style="fill: #034732"/>
      <rect id="rect1806-5" x="0.34" y="165.43" width="119.97" height="1.02" style="fill: #0e3e1f"/>
      <rect id="rect1806-6" x="0.34" y="170.84" width="119.97" height="1.02" style="fill: #0e3e1f"/>
      <rect id="rect1806-7" x="0.34" y="176.25" width="119.97" height="1.02" style="fill: #0e3e1f"/>
      <rect id="rect1806-8" x="0.34" y="181.66" width="119.97" height="1.02" style="fill: #0e3e1f"/>
      <rect id="rect1806-9" x="0.34" y="187.07" width="119.97" height="1.02" style="fill: #0e3e1f"/>
      <rect id="rect1806-10" x="0.34" y="192.48" width="119.97" height="1.02" style="fill: #0e3e1f"/>
      <rect id="rect1806-11" x="0.34" y="197.89" width="119.97" height="1.02" style="fill: #0e3e1f"/>
      <rect id="rect1806-12" x="0.34" y="203.3" width="119.97" height="1.02" style="fill: #0e3e1f"/>
      <g>
        <g>
          <g>
            <polygon points="35.1 164.53 32.82 163.14 30.48 164.42 30.42 167.09 32.7 168.48 35.03 167.2 35.1 164.53" style="fill: #2d2929"/>
            <circle cx="32.44" cy="165.8" r="0.77" transform="translate(-125.73 107.32) rotate(-58.68)" style="fill: #bb9965"/>
          </g>
          <g>
            <polygon points="39.79 164.53 37.51 163.14 35.17 164.42 35.1 167.09 37.38 168.48 39.72 167.2 39.79 164.53" style="fill: #2d2929"/>
            <circle cx="37.12" cy="165.8" r="0.77" transform="translate(-123.48 111.33) rotate(-58.68)" style="fill: #bb9965"/>
          </g>
        </g>
        <g>
          <g>
            <polygon points="35.1 169.96 32.82 168.57 30.48 169.85 30.42 172.52 32.7 173.91 35.03 172.63 35.1 169.96" style="fill: #2d2929"/>
            <circle cx="32.43" cy="171.23" r="0.77" transform="translate(-130.37 109.93) rotate(-58.68)" style="fill: #bb9965"/>
          </g>
          <g>
            <polygon points="39.79 169.96 37.51 168.57 35.17 169.85 35.1 172.52 37.38 173.91 39.72 172.63 39.79 169.96" style="fill: #2d2929"/>
            <circle cx="37.12" cy="171.23" r="0.77" transform="translate(-128.12 113.94) rotate(-58.68)" style="fill: #bb9965"/>
          </g>
        </g>
        <g>
          <g>
            <polygon points="35.1 175.39 32.82 174.01 30.48 175.29 30.42 177.95 32.7 179.34 35.03 178.06 35.1 175.39" style="fill: #2d2929"/>
            <circle cx="32.43" cy="176.66" r="0.77" transform="translate(-135.01 112.54) rotate(-58.68)" style="fill: #bb9965"/>
          </g>
          <g>
            <polygon points="39.79 175.39 37.51 174.01 35.17 175.29 35.1 177.95 37.38 179.34 39.72 178.06 39.79 175.39" style="fill: #2d2929"/>
            <circle cx="37.12" cy="176.66" r="0.77" transform="translate(-132.75 116.54) rotate(-58.68)" style="fill: #bb9965"/>
          </g>
        </g>
        <g>
          <g>
            <polygon points="35.1 180.83 32.82 179.44 30.48 180.72 30.42 183.39 32.7 184.77 35.03 183.49 35.1 180.83" style="fill: #2d2929"/>
            <circle cx="32.43" cy="182.1" r="0.77" transform="translate(-139.66 115.15) rotate(-58.68)" style="fill: #bb9965"/>
          </g>
          <g>
            <polygon points="39.79 180.83 37.51 179.44 35.17 180.72 35.1 183.39 37.38 184.77 39.72 183.49 39.79 180.83" style="fill: #2d2929"/>
            <circle cx="37.13" cy="182.09" r="0.77" transform="translate(-137.4 119.16) rotate(-58.68)" style="fill: #bb9965"/>
          </g>
        </g>
        <g>
          <g>
            <polygon points="35.1 186.26 32.82 184.87 30.48 186.15 30.42 188.82 32.7 190.21 35.03 188.93 35.1 186.26" style="fill: #2d2929"/>
            <circle cx="32.43" cy="187.53" r="0.77" transform="translate(-144.3 117.75) rotate(-58.68)" style="fill: #bb9965"/>
          </g>
          <g>
            <polygon points="39.79 186.26 37.51 184.87 35.17 186.15 35.1 188.82 37.38 190.21 39.72 188.93 39.79 186.26" style="fill: #2d2929"/>
            <circle cx="37.12" cy="187.53" r="0.77" transform="translate(-142.04 121.75) rotate(-58.68)" style="fill: #bb9965"/>
          </g>
        </g>
        <g>
          <g>
            <polygon points="35.1 191.69 32.82 190.31 30.48 191.59 30.42 194.25 32.7 195.64 35.03 194.36 35.1 191.69" style="fill: #2d2929"/>
            <circle cx="32.43" cy="192.95" r="0.77" transform="translate(-148.93 120.36) rotate(-58.68)" style="fill: #bb9965"/>
          </g>
          <g>
            <polygon points="39.79 191.69 37.51 190.31 35.17 191.59 35.1 194.25 37.38 195.64 39.72 194.36 39.79 191.69" style="fill: #2d2929"/>
            <circle cx="37.12" cy="192.96" r="0.77" transform="translate(-146.68 124.36) rotate(-58.68)" style="fill: #bb9965"/>
          </g>
        </g>
        <g>
          <g>
            <polygon points="35.1 197.12 32.82 195.74 30.48 197.02 30.42 199.68 32.7 201.07 35.03 199.79 35.1 197.12" style="fill: #2d2929"/>
            <circle cx="32.43" cy="198.39" r="0.77" transform="translate(-153.57 122.96) rotate(-58.68)" style="fill: #bb9965"/>
          </g>
          <g>
            <polygon points="39.79 197.12 37.51 195.74 35.17 197.02 35.1 199.68 37.38 201.07 39.72 199.79 39.79 197.12" style="fill: #2d2929"/>
            <circle cx="37.11" cy="198.39" r="0.77" transform="translate(-151.33 126.97) rotate(-58.68)" style="fill: #bb9965"/>
          </g>
        </g>
        <g>
          <g>
            <polygon points="35.1 202.56 32.82 201.17 30.48 202.45 30.42 205.12 32.7 206.5 35.03 205.22 35.1 202.56" style="fill: #2d2929"/>
            <circle cx="32.43" cy="203.83" r="0.77" transform="translate(-158.22 125.58) rotate(-58.68)" style="fill: #bb9965"/>
          </g>
          <g>
            <polygon points="39.79 202.56 37.51 201.17 35.17 202.45 35.1 205.12 37.38 206.5 39.72 205.22 39.79 202.56" style="fill: #2d2929"/>
            <circle cx="37.12" cy="203.83" r="0.77" transform="translate(-155.97 129.59) rotate(-58.68)" style="fill: #bb9965"/>
          </g>
        </g>
      </g>
      <g>
        <g>
          <g>
            <polygon points="84.6 164.53 82.32 163.14 79.98 164.42 79.92 167.09 82.19 168.48 84.53 167.2 84.6 164.53" style="fill: #2d2929"/>
            <circle cx="81.93" cy="165.8" r="0.77" transform="translate(-101.97 149.6) rotate(-58.68)" style="fill: #bb9965"/>
          </g>
          <g>
            <polygon points="89.29 164.53 87.01 163.14 84.67 164.42 84.61 167.09 86.88 168.48 89.22 167.2 89.29 164.53" style="fill: #2d2929"/>
            <circle cx="86.62" cy="165.79" r="0.77" transform="translate(-99.7 153.61) rotate(-58.68)" style="fill: #bb9965"/>
          </g>
        </g>
        <g>
          <g>
            <polygon points="84.6 169.96 82.32 168.57 79.98 169.85 79.92 172.52 82.19 173.91 84.53 172.63 84.6 169.96" style="fill: #2d2929"/>
            <circle cx="81.93" cy="171.23" r="0.77" transform="translate(-106.61 152.21) rotate(-58.68)" style="fill: #bb9965"/>
          </g>
          <g>
            <polygon points="89.29 169.96 87.01 168.57 84.67 169.85 84.61 172.52 86.88 173.91 89.22 172.63 89.29 169.96" style="fill: #2d2929"/>
            <circle cx="86.61" cy="171.23" r="0.77" transform="translate(-104.35 156.21) rotate(-58.68)" style="fill: #bb9965"/>
          </g>
        </g>
        <g>
          <g>
            <polygon points="84.6 175.39 82.32 174.01 79.98 175.29 79.92 177.95 82.19 179.34 84.53 178.06 84.6 175.39" style="fill: #2d2929"/>
            <circle cx="81.92" cy="176.66" r="0.77" transform="translate(-111.24 154.81) rotate(-58.68)" style="fill: #bb9965"/>
          </g>
          <g>
            <polygon points="89.29 175.39 87.01 174.01 84.67 175.29 84.61 177.95 86.88 179.34 89.22 178.06 89.29 175.39" style="fill: #2d2929"/>
            <circle cx="86.61" cy="176.66" r="0.77" transform="translate(-108.99 158.82) rotate(-58.68)" style="fill: #bb9965"/>
          </g>
        </g>
        <g>
          <g>
            <polygon points="84.6 180.83 82.32 179.44 79.98 180.72 79.92 183.39 82.19 184.77 84.53 183.49 84.6 180.83" style="fill: #2d2929"/>
            <circle cx="81.93" cy="182.09" r="0.77" transform="translate(-115.88 157.43) rotate(-58.68)" style="fill: #bb9965"/>
          </g>
          <g>
            <polygon points="89.29 180.83 87.01 179.44 84.67 180.72 84.61 183.39 86.88 184.77 89.22 183.49 89.29 180.83" style="fill: #2d2929"/>
            <circle cx="86.62" cy="182.1" r="0.77" transform="translate(-113.63 161.44) rotate(-58.68)" style="fill: #bb9965"/>
          </g>
        </g>
        <g>
          <g>
            <polygon points="84.6 186.26 82.32 184.87 79.98 186.15 79.92 188.82 82.19 190.21 84.53 188.93 84.6 186.26" style="fill: #2d2929"/>
            <circle cx="81.93" cy="187.53" r="0.77" transform="translate(-120.52 160.04) rotate(-58.68)" style="fill: #bb9965"/>
          </g>
          <g>
            <polygon points="89.29 186.26 87.01 184.87 84.67 186.15 84.61 188.82 86.88 190.21 89.22 188.93 89.29 186.26" style="fill: #2d2929"/>
            <circle cx="86.62" cy="187.53" r="0.77" transform="translate(-118.28 164.04) rotate(-58.68)" style="fill: #bb9965"/>
          </g>
        </g>
        <g>
          <g>
            <polygon points="84.6 191.69 82.32 190.31 79.98 191.59 79.92 194.25 82.19 195.64 84.53 194.36 84.6 191.69" style="fill: #2d2929"/>
            <circle cx="81.93" cy="192.96" r="0.77" transform="translate(-125.17 162.64) rotate(-58.68)" style="fill: #bb9965"/>
          </g>
          <g>
            <polygon points="89.29 191.69 87.01 190.31 84.67 191.59 84.61 194.25 86.88 195.64 89.22 194.36 89.29 191.69" style="fill: #2d2929"/>
            <circle cx="86.62" cy="192.96" r="0.77" transform="translate(-122.92 166.65) rotate(-58.68)" style="fill: #bb9965"/>
          </g>
        </g>
        <g>
          <g>
            <polygon points="84.6 197.12 82.32 195.74 79.98 197.02 79.92 199.68 82.19 201.07 84.53 199.79 84.6 197.12" style="fill: #2d2929"/>
            <circle cx="81.93" cy="198.39" r="0.77" transform="translate(-129.81 165.25) rotate(-58.68)" style="fill: #bb9965"/>
          </g>
          <g>
            <polygon points="89.29 197.12 87.01 195.74 84.67 197.02 84.61 199.68 86.88 201.07 89.22 199.79 89.29 197.12" style="fill: #2d2929"/>
            <circle cx="86.62" cy="198.38" r="0.77" transform="translate(-127.55 169.25) rotate(-58.68)" style="fill: #bb9965"/>
          </g>
        </g>
        <g>
          <g>
            <polygon points="84.6 202.56 82.32 201.17 79.98 202.45 79.92 205.12 82.19 206.5 84.53 205.22 84.6 202.56" style="fill: #2d2929"/>
            <circle cx="81.93" cy="203.83" r="0.77" transform="translate(-134.45 167.87) rotate(-58.68)" style="fill: #bb9965"/>
          </g>
          <g>
            <polygon points="89.29 202.56 87.01 201.17 84.67 202.45 84.61 205.12 86.88 206.5 89.22 205.22 89.29 202.56" style="fill: #2d2929"/>
            <circle cx="86.62" cy="203.82" r="0.77" transform="translate(-132.19 171.87) rotate(-58.68)" style="fill: #bb9965"/>
          </g>
        </g>
      </g>
      <g>
        <g>
          <path d="M45.6,165.23a.28.28,0,0,1,.08.21v1a1.16,1.16,0,0,1,0,.31.35.35,0,0,1-.11.17.69.69,0,0,1-.24.11,2.88,2.88,0,0,1-.45.09,3.47,3.47,0,0,1-.48,0,2,2,0,0,1-1-.22,1.5,1.5,0,0,1-.63-.62,2.22,2.22,0,0,1,0-1.92,1.51,1.51,0,0,1,.62-.63,2,2,0,0,1,1-.22,1.8,1.8,0,0,1,1.15.36.37.37,0,0,1,.1.12.33.33,0,0,1,0,.15.35.35,0,0,1-.07.22.22.22,0,0,1-.17.09h-.12l-.13-.06a1.75,1.75,0,0,0-.38-.19,1.3,1.3,0,0,0-.38-.05q-1,0-1,1.18a1.34,1.34,0,0,0,.27.91,1,1,0,0,0,.8.3,2.26,2.26,0,0,0,.58-.07v-.78h-.46a.33.33,0,0,1-.23-.07.29.29,0,0,1,0-.4.33.33,0,0,1,.23-.07h.85A.31.31,0,0,1,45.6,165.23Z" transform="translate(0.33)" style="fill: #fff"/>
          <path d="M50.17,166.79a.3.3,0,0,1-.11.24.38.38,0,0,1-.26.1.33.33,0,0,1-.18-.05.32.32,0,0,1-.13-.16l-.27-.59H47.53l-.27.59a.32.32,0,0,1-.31.21.39.39,0,0,1-.26-.1.3.3,0,0,1-.12-.24.39.39,0,0,1,0-.16L48,163.79a.4.4,0,0,1,.17-.18.47.47,0,0,1,.48,0,.44.44,0,0,1,.17.18l1.35,2.83C50.18,166.68,50.22,166.74,50.17,166.79Zm-2.37-1.05H49l-.58-1.3Z" transform="translate(0.33)" style="fill: #fff"/>
          <path d="M51.57,167a.37.37,0,0,1-.11-.28v-2.53h-.81c-.25,0-.37-.11-.37-.32s.12-.32.37-.32H53c.25,0,.37.11.37.32s-.12.32-.37.32h-.81v2.53a.38.38,0,0,1-.1.28A.44.44,0,0,1,51.57,167Z" transform="translate(0.33)" style="fill: #fff"/>
          <path d="M54.36,167a.36.36,0,0,1-.09-.27v-2.79a.33.33,0,0,1,.29-.37H56.4c.25,0,.37.1.37.3s-.12.31-.37.31H55V165h1.27c.25,0,.37.1.37.31s-.12.3-.37.3H55v.88h1.4c.25,0,.37.1.37.31s-.12.3-.37.3H54.63A.36.36,0,0,1,54.36,167Z" transform="translate(0.33)" style="fill: #fff"/>
        </g>
        <g>
          <path d="M43.37,172.48a1.48,1.48,0,0,1-.6-.63,2.29,2.29,0,0,1,0-1.92,1.49,1.49,0,0,1,.6-.63,2,2,0,0,1,2,.14.37.37,0,0,1,.1.12.32.32,0,0,1,0,.15.35.35,0,0,1-.07.22.22.22,0,0,1-.18.09H45.1L45,170a1.65,1.65,0,0,0-.37-.19,1.11,1.11,0,0,0-.37-.06.87.87,0,0,0-.72.3,1.38,1.38,0,0,0-.24.89q0,1.19,1,1.19a1.06,1.06,0,0,0,.35-.06,2.31,2.31,0,0,0,.38-.19l.13-.06h.12a.22.22,0,0,1,.18.09.36.36,0,0,1,.07.22.33.33,0,0,1,0,.15.37.37,0,0,1-.1.12,2,2,0,0,1-2,.14Z" transform="translate(0.33)" style="fill: #fff"/>
          <path d="M49.18,169.15a.35.35,0,0,1,.19-.05.41.41,0,0,1,.27.1.31.31,0,0,1,.12.24.36.36,0,0,1,0,.15l-1.35,2.85a.39.39,0,0,1-.17.18.49.49,0,0,1-.48,0,.39.39,0,0,1-.17-.18l-1.35-2.85a.32.32,0,0,1,0-.14.31.31,0,0,1,.13-.25.44.44,0,0,1,.28-.1.36.36,0,0,1,.19.05.33.33,0,0,1,.13.16l1,2.34,1-2.34A.33.33,0,0,1,49.18,169.15Z" transform="translate(0.33)" style="fill: #fff"/>
        </g>
        <g>
          <path d="M45,176.59a.24.24,0,0,1,.08.18.26.26,0,0,1-.26.26h-.7v.71a.24.24,0,0,1-.07.18.28.28,0,0,1-.37,0,.25.25,0,0,1-.08-.18V177h-.7a.26.26,0,0,1-.26-.26.24.24,0,0,1,.08-.18.25.25,0,0,1,.18-.07h.7v-.71a.26.26,0,0,1,.52,0s0,0,0,0v.71h.7A.25.25,0,0,1,45,176.59Z" transform="translate(0.33)" style="fill: #fff"/>
          <path d="M48.1,176.07a1,1,0,0,1,.4.4,1.22,1.22,0,0,1,.14.59,1.16,1.16,0,0,1-.17.62,1.12,1.12,0,0,1-.46.42,1.52,1.52,0,0,1-.69.15,2,2,0,0,1-.61-.09,1.62,1.62,0,0,1-.51-.26.34.34,0,0,1-.11-.12.62.62,0,0,1,.07-.37.22.22,0,0,1,.18-.09h.11l.13.06a2.72,2.72,0,0,0,.37.19.93.93,0,0,0,.36.07.67.67,0,0,0,.46-.14.52.52,0,0,0,.16-.42.53.53,0,0,0-.16-.41.62.62,0,0,0-.44-.15,1.06,1.06,0,0,0-.31,0,1.38,1.38,0,0,0-.31.14.42.42,0,0,1-.21.06.29.29,0,0,1-.2-.07.24.24,0,0,1-.08-.19V175a.33.33,0,0,1,.3-.36h1.67c.25,0,.37.1.37.29s-.12.3-.37.3H47V176a1.13,1.13,0,0,1,.56-.13A1.17,1.17,0,0,1,48.1,176.07Z" transform="translate(0.33)" style="fill: #fff"/>
          <path d="M52.34,174.71a.35.35,0,0,1,.19-.05.41.41,0,0,1,.27.1.31.31,0,0,1,.12.25.35.35,0,0,1,0,.15L51.53,178a.4.4,0,0,1-.17.18.49.49,0,0,1-.48,0,.4.4,0,0,1-.17-.18l-1.35-2.85a.32.32,0,0,1,0-.15.31.31,0,0,1,.13-.25.44.44,0,0,1,.28-.1.37.37,0,0,1,.19.05.32.32,0,0,1,.13.16l1.07,2.34,1.07-2.34A.33.33,0,0,1,52.34,174.71Z" transform="translate(0.33)" style="fill: #fff"/>
        </g>
        <g>
          <path d="M45,182.15a.25.25,0,0,1,.08.18.26.26,0,0,1-.26.26h-.7v.7a.24.24,0,0,1-.07.18.26.26,0,0,1-.19.07.25.25,0,0,1-.18-.07.24.24,0,0,1-.08-.18v-.7h-.7a.26.26,0,0,1-.26-.26.25.25,0,0,1,.08-.18.26.26,0,0,1,.18-.07h.7v-.71a.26.26,0,0,1,.26-.26.26.26,0,0,1,.26.26v.71h.7A.26.26,0,0,1,45,182.15Z" transform="translate(0.33)" style="fill: #fff"/>
          <path d="M48.7,183.45q0,.31-.37.32h-1.7q-.37,0-.37-.32t.37-.31h.46v-2l-.44.26a.29.29,0,0,1-.15,0,.27.27,0,0,1-.21-.1.36.36,0,0,1-.09-.24.29.29,0,0,1,.15-.26l.79-.48a.68.68,0,0,1,.35-.1.36.36,0,0,1,.38.38v2.54h.46Q48.7,183.14,48.7,183.45Z" transform="translate(0.33)" style="fill: #fff"/>
          <path d="M52.14,183.45q0,.31-.37.32H49.91a.34.34,0,0,1-.25-.09.31.31,0,0,1-.09-.23.47.47,0,0,1,.15-.33l1.1-1.17a1.1,1.1,0,0,0,.37-.72.4.4,0,0,0-.12-.31.47.47,0,0,0-.33-.11.93.93,0,0,0-.35.06,3,3,0,0,0-.37.19l-.13.07h-.1a.22.22,0,0,1-.18-.1.36.36,0,0,1-.08-.23.33.33,0,0,1,0-.16.31.31,0,0,1,.11-.11,1.94,1.94,0,0,1,1.1-.36,1.51,1.51,0,0,1,.62.12.94.94,0,0,1,.41.34.92.92,0,0,1,.15.51,1.26,1.26,0,0,1-.13.57,2.48,2.48,0,0,1-.43.58l-.79.83h1.16Q52.14,183.14,52.14,183.45Z" transform="translate(0.33)" style="fill: #fff"/>
          <path d="M55.84,180.26a.35.35,0,0,1,.19-.05.41.41,0,0,1,.27.1.31.31,0,0,1,.12.25.35.35,0,0,1,0,.15L55,183.55a.4.4,0,0,1-.17.18.49.49,0,0,1-.48,0,.4.4,0,0,1-.17-.18l-1.35-2.85a.32.32,0,0,1,0-.14.31.31,0,0,1,.13-.25.44.44,0,0,1,.28-.1.37.37,0,0,1,.19.05.33.33,0,0,1,.13.16l1.07,2.34,1.07-2.34A.34.34,0,0,1,55.84,180.26Z" transform="translate(0.33)" style="fill: #fff"/>
        </g>
        <g>
          <path d="M45.6,187.45a.28.28,0,0,1,.08.21v1a1.17,1.17,0,0,1,0,.31.35.35,0,0,1-.11.17.71.71,0,0,1-.24.11,2.89,2.89,0,0,1-.45.09,3.47,3.47,0,0,1-.48,0,2,2,0,0,1-1-.22,1.5,1.5,0,0,1-.63-.62,2.22,2.22,0,0,1,0-1.93,1.5,1.5,0,0,1,.62-.63,2,2,0,0,1,1-.22,1.8,1.8,0,0,1,1.15.36.37.37,0,0,1,.1.12.33.33,0,0,1,0,.15.36.36,0,0,1-.07.22.22.22,0,0,1-.17.09h-.12l-.13-.06a1.71,1.71,0,0,0-.38-.19,1.27,1.27,0,0,0-.38-.05q-1,0-1,1.18a1.34,1.34,0,0,0,.27.91,1,1,0,0,0,.8.3,2.31,2.31,0,0,0,.58-.07v-.78h-.46a.33.33,0,0,1-.23-.07.29.29,0,0,1,0-.4.33.33,0,0,1,.23-.07h.85A.31.31,0,0,1,45.6,187.45Z" transform="translate(0.33)" style="fill: #fff"/>
          <path d="M49.8,185.88a.38.38,0,0,1,.1.28V189a.39.39,0,0,1-.1.28.39.39,0,0,1-.56,0l-1.67-2.14V189a.4.4,0,0,1-.1.28.36.36,0,0,1-.52,0,.39.39,0,0,1-.1-.28v-2.8a.38.38,0,0,1,.1-.28.35.35,0,0,1,.27-.11.34.34,0,0,1,.29.13L49.18,188v-1.87a.39.39,0,0,1,.1-.28.34.34,0,0,1,.26-.11A.35.35,0,0,1,49.8,185.88Z" transform="translate(0.33)" style="fill: #fff"/>
          <path d="M51.2,189.22a.37.37,0,0,1-.09-.27v-2.79a.33.33,0,0,1,.3-.36h1.07a2.16,2.16,0,0,1,1,.21,1.47,1.47,0,0,1,.63.61,1.91,1.91,0,0,1,.22.94,2,2,0,0,1-.22.95,1.46,1.46,0,0,1-.63.61,2.19,2.19,0,0,1-1,.21h-1A.37.37,0,0,1,51.2,189.22Zm1.22-.53a1.14,1.14,0,1,0,0-2.27h-.54v2.27Z" transform="translate(0.33)" style="fill: #fff"/>
        </g>
        <g>
          <path d="M45.6,193a.28.28,0,0,1,.08.21v1a1.16,1.16,0,0,1,0,.31.35.35,0,0,1-.11.18.69.69,0,0,1-.24.11,2.77,2.77,0,0,1-.45.09,3.47,3.47,0,0,1-.48,0,2,2,0,0,1-1-.22,1.5,1.5,0,0,1-.63-.62,2.22,2.22,0,0,1,0-1.93,1.5,1.5,0,0,1,.62-.63,2,2,0,0,1,1-.22,1.8,1.8,0,0,1,1.15.36.37.37,0,0,1,.1.12.33.33,0,0,1,0,.15.36.36,0,0,1-.07.22.22.22,0,0,1-.17.09h-.12l-.13-.07a1.7,1.7,0,0,0-.38-.18,1.27,1.27,0,0,0-.38-.06q-1,0-1,1.19a1.34,1.34,0,0,0,.27.91,1,1,0,0,0,.8.3,2.26,2.26,0,0,0,.58-.08v-.77h-.46a.33.33,0,0,1-.23-.07.29.29,0,0,1,0-.4.33.33,0,0,1,.23-.07h.85A.31.31,0,0,1,45.6,193Z" transform="translate(0.33)" style="fill: #fff"/>
          <path d="M49.8,191.43a.39.39,0,0,1,.1.28v2.81a.39.39,0,0,1-.1.28.39.39,0,0,1-.56,0l-1.67-2.15v1.89a.41.41,0,0,1-.1.28.36.36,0,0,1-.52,0,.39.39,0,0,1-.1-.28v-2.81a.39.39,0,0,1,.1-.28.35.35,0,0,1,.27-.11.34.34,0,0,1,.29.13l1.67,2.13v-1.87a.39.39,0,0,1,.1-.28.34.34,0,0,1,.26-.11A.36.36,0,0,1,49.8,191.43Z" transform="translate(0.33)" style="fill: #fff"/>
          <path d="M51.2,194.78a.37.37,0,0,1-.09-.27v-2.79a.33.33,0,0,1,.3-.36h1.07a2.16,2.16,0,0,1,1,.21,1.47,1.47,0,0,1,.63.6,1.92,1.92,0,0,1,.22.95,2,2,0,0,1-.22.95,1.45,1.45,0,0,1-.63.61,2.17,2.17,0,0,1-1,.21h-1A.37.37,0,0,1,51.2,194.78Zm1.22-.54a1.13,1.13,0,0,0,0-2.26h-.54v2.26Z" transform="translate(0.33)" style="fill: #fff"/>
        </g>
        <g>
          <path d="M45.6,198.56a.28.28,0,0,1,.08.21v1a1.16,1.16,0,0,1,0,.31.35.35,0,0,1-.11.17.69.69,0,0,1-.24.11,2.88,2.88,0,0,1-.45.09,3.47,3.47,0,0,1-.48,0,2,2,0,0,1-1-.22,1.5,1.5,0,0,1-.63-.62,2.22,2.22,0,0,1,0-1.92,1.51,1.51,0,0,1,.62-.63,2,2,0,0,1,1-.22,1.8,1.8,0,0,1,1.15.36.37.37,0,0,1,.1.12.33.33,0,0,1,0,.15.35.35,0,0,1-.07.22.22.22,0,0,1-.17.09h-.12l-.13-.06a1.75,1.75,0,0,0-.38-.19,1.3,1.3,0,0,0-.38-.05q-1,0-1,1.18a1.34,1.34,0,0,0,.27.91,1,1,0,0,0,.8.3,2.26,2.26,0,0,0,.58-.07V199h-.46a.33.33,0,0,1-.23-.07.29.29,0,0,1,0-.4.33.33,0,0,1,.23-.07h.85A.31.31,0,0,1,45.6,198.56Z" transform="translate(0.33)" style="fill: #fff"/>
          <path d="M49.8,197a.38.38,0,0,1,.1.28v2.8a.39.39,0,0,1-.1.28.35.35,0,0,1-.27.11.36.36,0,0,1-.29-.13l-1.67-2.14v1.88a.4.4,0,0,1-.1.28.36.36,0,0,1-.52,0,.39.39,0,0,1-.1-.28v-2.8A.38.38,0,0,1,47,197a.35.35,0,0,1,.27-.11.34.34,0,0,1,.29.13l1.67,2.13v-1.87a.39.39,0,0,1,.1-.28.34.34,0,0,1,.26-.11A.35.35,0,0,1,49.8,197Z" transform="translate(0.33)" style="fill: #fff"/>
          <path d="M51.2,200.33a.37.37,0,0,1-.09-.27v-2.79a.33.33,0,0,1,.28-.37h1.09a2.18,2.18,0,0,1,1,.21,1.47,1.47,0,0,1,.63.61,1.91,1.91,0,0,1,.22.94,2,2,0,0,1-.22.95,1.46,1.46,0,0,1-.63.61,2.19,2.19,0,0,1-1,.21h-1A.37.37,0,0,1,51.2,200.33Zm1.22-.53a1.14,1.14,0,0,0,0-2.27h-.54v2.27Z" transform="translate(0.33)" style="fill: #fff"/>
        </g>
        <g>
          <path d="M42.56,204.64c0-.2.12-.29.36-.29h1c.24,0,.36.1.36.29s-.12.29-.36.29h-1Q42.56,204.94,42.56,204.64Z" transform="translate(0.33)" style="fill: #fff"/>
          <path d="M47.9,205.67c0,.21-.12.32-.37.32h-1.7q-.37,0-.37-.32t.37-.31h.47v-2l-.44.26a.29.29,0,0,1-.15,0,.27.27,0,0,1-.21-.1.36.36,0,0,1-.09-.24.29.29,0,0,1,.16-.26l.79-.48a.68.68,0,0,1,.35-.1.36.36,0,0,1,.38.38v2.54h.46C47.78,205.36,47.9,205.46,47.9,205.67Z" transform="translate(0.33)" style="fill: #fff"/>
          <path d="M51.34,205.67c0,.21-.12.32-.37.32H49.11a.33.33,0,0,1-.25-.09.31.31,0,0,1-.09-.23.46.46,0,0,1,.14-.33l1.1-1.17a1.11,1.11,0,0,0,.37-.72.41.41,0,0,0-.12-.31.47.47,0,0,0-.33-.11.92.92,0,0,0-.35.06,2.87,2.87,0,0,0-.37.19l-.13.07H49a.22.22,0,0,1-.18-.1.36.36,0,0,1-.08-.23.34.34,0,0,1,0-.16.31.31,0,0,1,.11-.11,1.86,1.86,0,0,1,.52-.26,1.84,1.84,0,0,1,.59-.1,1.5,1.5,0,0,1,.62.12.93.93,0,0,1,.41.34.92.92,0,0,1,.14.51,1.26,1.26,0,0,1-.1.64,2.48,2.48,0,0,1-.43.58l-.79.83H51C51.21,205.36,51.34,205.46,51.34,205.67Z" transform="translate(0.33)" style="fill: #fff"/>
          <path d="M54.11,203.53a.32.32,0,0,1,.18-.05.38.38,0,0,1,.25.09.28.28,0,0,1,.11.22.32.32,0,0,1,0,.15l-.9,1.84a.37.37,0,0,1-.15.17.44.44,0,0,1-.43,0,.39.39,0,0,1-.16-.17l-.9-1.84a.35.35,0,0,1,0-.13.29.29,0,0,1,.12-.23.41.41,0,0,1,.26-.09.35.35,0,0,1,.19.05.36.36,0,0,1,.14.16l.61,1.34L54,203.7A.36.36,0,0,1,54.11,203.53Z" transform="translate(0.33)" style="fill: #fff"/>
        </g>
      </g>
      <g>
        <g>
          <path d="M95.94,165.23a.28.28,0,0,1,.08.21v1a1.16,1.16,0,0,1,0,.31.35.35,0,0,1-.11.17.69.69,0,0,1-.24.11,2.88,2.88,0,0,1-.45.09,3.47,3.47,0,0,1-.48,0,2,2,0,0,1-1-.22,1.5,1.5,0,0,1-.63-.62,2.22,2.22,0,0,1,0-1.92,1.51,1.51,0,0,1,.62-.63,2,2,0,0,1,.95-.22,1.8,1.8,0,0,1,1.15.36.37.37,0,0,1,.1.12.33.33,0,0,1,0,.15.35.35,0,0,1-.07.22.22.22,0,0,1-.17.09h-.12l-.13-.06a1.75,1.75,0,0,0-.38-.19,1.3,1.3,0,0,0-.38-.05q-1,0-1,1.18a1.34,1.34,0,0,0,.27.91,1,1,0,0,0,.8.3,2.26,2.26,0,0,0,.58-.07v-.78h-.46a.33.33,0,0,1-.23-.07.29.29,0,0,1,0-.4.33.33,0,0,1,.23-.07h.85A.31.31,0,0,1,95.94,165.23Z" transform="translate(0.33)" style="fill: #fff"/>
          <path d="M100.51,166.79a.3.3,0,0,1-.11.24.38.38,0,0,1-.26.1.33.33,0,0,1-.18-.05.32.32,0,0,1-.13-.16l-.27-.59H97.87l-.27.59a.32.32,0,0,1-.31.21A.39.39,0,0,1,97,167a.3.3,0,0,1-.12-.24.39.39,0,0,1,0-.16l1.35-2.83a.4.4,0,0,1,.17-.18.47.47,0,0,1,.48,0,.44.44,0,0,1,.17.18l1.35,2.83A.41.41,0,0,1,100.51,166.79Zm-2.37-1.05H99.3l-.58-1.3Z" transform="translate(0.33)" style="fill: #fff"/>
          <path d="M101.91,167a.37.37,0,0,1-.11-.28v-2.53H101c-.25,0-.37-.11-.37-.32s.12-.32.37-.32h2.4c.25,0,.37.11.37.32s-.12.32-.37.32h-.81v2.53a.38.38,0,0,1-.1.28.44.44,0,0,1-.57,0Z" transform="translate(0.33)" style="fill: #fff"/>
          <path d="M104.69,167a.36.36,0,0,1-.09-.27v-2.79a.33.33,0,0,1,.29-.37h1.84c.25,0,.37.1.37.3s-.12.31-.37.31h-1.37V165h1.27c.25,0,.37.1.37.31s-.12.3-.37.3h-1.27v.88h1.38c.25,0,.37.1.37.31s-.12.3-.37.3H105A.36.36,0,0,1,104.69,167Z" transform="translate(0.33)" style="fill: #fff"/>
        </g>
        <g>
          <path d="M93.7,172.48a1.48,1.48,0,0,1-.6-.63,2.29,2.29,0,0,1,0-1.92,1.49,1.49,0,0,1,.6-.63,2,2,0,0,1,2,.14.37.37,0,0,1,.1.12.32.32,0,0,1,0,.15.35.35,0,0,1-.07.22.22.22,0,0,1-.18.09h-.12l-.12-.06a1.65,1.65,0,0,0-.37-.19,1.11,1.11,0,0,0-.37-.06.87.87,0,0,0-.72.3,1.38,1.38,0,0,0-.24.89q0,1.19,1,1.19A1.06,1.06,0,0,0,95,172a2.31,2.31,0,0,0,.38-.19l.13-.06h.12a.22.22,0,0,1,.18.09.36.36,0,0,1,.07.22.33.33,0,0,1,0,.15.37.37,0,0,1-.1.12,2,2,0,0,1-2,.14Z" transform="translate(0.33)" style="fill: #fff"/>
          <path d="M99.51,169.15a.35.35,0,0,1,.19-.05.41.41,0,0,1,.27.1.31.31,0,0,1,.12.24.36.36,0,0,1,0,.15l-1.35,2.85a.39.39,0,0,1-.17.18.49.49,0,0,1-.48,0,.39.39,0,0,1-.17-.18l-1.35-2.85a.32.32,0,0,1,0-.14.31.31,0,0,1,.13-.25.44.44,0,0,1,.28-.1.36.36,0,0,1,.19.05.33.33,0,0,1,.13.16l1.07,2.34,1.07-2.34A.33.33,0,0,1,99.51,169.15Z" transform="translate(0.33)" style="fill: #fff"/>
        </g>
        <g>
          <path d="M95.29,176.59a.24.24,0,0,1,.08.18.26.26,0,0,1-.26.26h-.7v.71a.24.24,0,0,1-.07.18.28.28,0,0,1-.37,0,.25.25,0,0,1-.08-.18V177h-.7a.26.26,0,0,1-.26-.26.24.24,0,0,1,.08-.18.25.25,0,0,1,.18-.07h.7v-.71a.26.26,0,0,1,.52,0s0,0,0,0v.71h.7A.25.25,0,0,1,95.29,176.59Z" transform="translate(0.33)" style="fill: #fff"/>
          <path d="M98.43,176.07a1,1,0,0,1,.4.4,1.22,1.22,0,0,1,.14.59,1.16,1.16,0,0,1-.17.62,1.12,1.12,0,0,1-.46.42,1.52,1.52,0,0,1-.69.15,2,2,0,0,1-.61-.09,1.62,1.62,0,0,1-.51-.26.34.34,0,0,1-.11-.12.62.62,0,0,1,.07-.37.22.22,0,0,1,.18-.09h.11l.13.06a2.72,2.72,0,0,0,.37.19.93.93,0,0,0,.36.07.67.67,0,0,0,.46-.14.52.52,0,0,0,.16-.42.53.53,0,0,0-.16-.41.62.62,0,0,0-.44-.15,1.06,1.06,0,0,0-.31,0,1.38,1.38,0,0,0-.31.14.42.42,0,0,1-.21.06.29.29,0,0,1-.2-.07.24.24,0,0,1-.08-.19V175a.33.33,0,0,1,.3-.36h1.67c.25,0,.37.1.37.29s-.12.3-.37.3H97.29V176a1.13,1.13,0,0,1,.56-.13A1.17,1.17,0,0,1,98.43,176.07Z" transform="translate(0.33)" style="fill: #fff"/>
          <path d="M102.67,174.71a.35.35,0,0,1,.19-.05.41.41,0,0,1,.27.1.31.31,0,0,1,.12.25.35.35,0,0,1,0,.15L101.87,178a.4.4,0,0,1-.17.18.49.49,0,0,1-.48,0,.4.4,0,0,1-.17-.18l-1.35-2.85a.32.32,0,0,1,0-.15.31.31,0,0,1,.13-.25.44.44,0,0,1,.28-.1.37.37,0,0,1,.19.05.32.32,0,0,1,.13.16l1.07,2.34,1.07-2.34A.33.33,0,0,1,102.67,174.71Z" transform="translate(0.33)" style="fill: #fff"/>
        </g>
        <g>
          <path d="M95.29,182.15a.25.25,0,0,1,.08.18.26.26,0,0,1-.26.26h-.7v.7a.24.24,0,0,1-.07.18.26.26,0,0,1-.19.07.25.25,0,0,1-.18-.07.24.24,0,0,1-.08-.18v-.7h-.7a.26.26,0,0,1-.26-.26.25.25,0,0,1,.08-.18.26.26,0,0,1,.18-.07h.7v-.71a.26.26,0,0,1,.26-.26.26.26,0,0,1,.26.26v.71h.7A.26.26,0,0,1,95.29,182.15Z" transform="translate(0.33)" style="fill: #fff"/>
          <path d="M99,183.45q0,.31-.37.32H97q-.37,0-.37-.32t.37-.31h.46v-2l-.44.26a.29.29,0,0,1-.15,0,.27.27,0,0,1-.21-.1.36.36,0,0,1-.09-.24.29.29,0,0,1,.15-.26l.79-.48a.68.68,0,0,1,.35-.1.36.36,0,0,1,.38.38v2.54h.46A.27.27,0,0,1,99,183.45Z" transform="translate(0.33)" style="fill: #fff"/>
          <path d="M102.47,183.45q0,.31-.37.32h-1.86a.34.34,0,0,1-.25-.09.31.31,0,0,1-.09-.23.47.47,0,0,1,.15-.33l1.1-1.17a1.1,1.1,0,0,0,.37-.72.4.4,0,0,0-.12-.31.47.47,0,0,0-.33-.11.93.93,0,0,0-.35.06,3,3,0,0,0-.37.19l-.13.07h-.1a.22.22,0,0,1-.18-.1.36.36,0,0,1-.08-.23.33.33,0,0,1,0-.16.31.31,0,0,1,.11-.11,1.94,1.94,0,0,1,1.1-.36,1.51,1.51,0,0,1,.62.12.94.94,0,0,1,.41.34.92.92,0,0,1,.15.51,1.26,1.26,0,0,1-.13.57,2.48,2.48,0,0,1-.43.58l-.79.83h1.16Q102.47,183.14,102.47,183.45Z" transform="translate(0.33)" style="fill: #fff"/>
          <path d="M106.18,180.26a.35.35,0,0,1,.19-.05.41.41,0,0,1,.27.1.31.31,0,0,1,.12.25.35.35,0,0,1,0,.15l-1.35,2.85a.4.4,0,0,1-.17.18.49.49,0,0,1-.48,0,.4.4,0,0,1-.17-.18l-1.35-2.85a.32.32,0,0,1,0-.14.31.31,0,0,1,.13-.25.44.44,0,0,1,.28-.1.37.37,0,0,1,.19.05.33.33,0,0,1,.13.16l1.07,2.34,1.07-2.34A.34.34,0,0,1,106.18,180.26Z" transform="translate(0.33)" style="fill: #fff"/>
        </g>
        <g>
          <path d="M95.94,187.45a.28.28,0,0,1,.08.21v1a1.17,1.17,0,0,1,0,.31.35.35,0,0,1-.11.17.71.71,0,0,1-.24.11,2.89,2.89,0,0,1-.45.09,3.47,3.47,0,0,1-.48,0,2,2,0,0,1-1-.22,1.5,1.5,0,0,1-.63-.62,2.22,2.22,0,0,1,0-1.93,1.5,1.5,0,0,1,.62-.63,2,2,0,0,1,.95-.22,1.8,1.8,0,0,1,1.15.36.37.37,0,0,1,.1.12.33.33,0,0,1,0,.15.36.36,0,0,1-.07.22.22.22,0,0,1-.17.09h-.12l-.13-.06a1.71,1.71,0,0,0-.38-.19,1.27,1.27,0,0,0-.38-.05q-1,0-1,1.18a1.34,1.34,0,0,0,.27.91,1,1,0,0,0,.8.3,2.31,2.31,0,0,0,.58-.07v-.78h-.46a.33.33,0,0,1-.23-.07.29.29,0,0,1,0-.4.33.33,0,0,1,.23-.07h.85A.31.31,0,0,1,95.94,187.45Z" transform="translate(0.33)" style="fill: #fff"/>
          <path d="M100.14,185.88a.38.38,0,0,1,.1.28V189a.39.39,0,0,1-.1.28.39.39,0,0,1-.56,0l-1.67-2.14V189a.4.4,0,0,1-.1.28.36.36,0,0,1-.52,0,.39.39,0,0,1-.1-.28v-2.8a.38.38,0,0,1,.1-.28.35.35,0,0,1,.27-.11.34.34,0,0,1,.29.13L99.51,188v-1.87a.39.39,0,0,1,.1-.28.34.34,0,0,1,.26-.11A.35.35,0,0,1,100.14,185.88Z" transform="translate(0.33)" style="fill: #fff"/>
          <path d="M101.53,189.22a.37.37,0,0,1-.09-.27v-2.79a.33.33,0,0,1,.3-.36h1.07a2.16,2.16,0,0,1,1,.21,1.47,1.47,0,0,1,.63.61,1.91,1.91,0,0,1,.22.94,2,2,0,0,1-.22.95,1.46,1.46,0,0,1-.63.61,2.19,2.19,0,0,1-1,.21h-1A.37.37,0,0,1,101.53,189.22Zm1.22-.53a1.14,1.14,0,1,0,0-2.27h-.54v2.27Z" transform="translate(0.33)" style="fill: #fff"/>
        </g>
        <g>
          <path d="M95.94,193a.28.28,0,0,1,.08.21v1a1.16,1.16,0,0,1,0,.31.35.35,0,0,1-.11.18.69.69,0,0,1-.24.11,2.77,2.77,0,0,1-.45.09,3.47,3.47,0,0,1-.48,0,2,2,0,0,1-1-.22,1.5,1.5,0,0,1-.63-.62,2.22,2.22,0,0,1,0-1.93,1.5,1.5,0,0,1,.62-.63,2,2,0,0,1,.95-.22,1.8,1.8,0,0,1,1.15.36.37.37,0,0,1,.1.12.33.33,0,0,1,0,.15.36.36,0,0,1-.07.22.22.22,0,0,1-.17.09h-.12l-.13-.07a1.7,1.7,0,0,0-.38-.18,1.27,1.27,0,0,0-.38-.06q-1,0-1,1.19A1.34,1.34,0,0,0,94,194a1,1,0,0,0,.8.3,2.26,2.26,0,0,0,.58-.08v-.77h-.46a.33.33,0,0,1-.23-.07.29.29,0,0,1,0-.4.33.33,0,0,1,.23-.07h.85A.31.31,0,0,1,95.94,193Z" transform="translate(0.33)" style="fill: #fff"/>
          <path d="M100.14,191.43a.39.39,0,0,1,.1.28v2.81a.39.39,0,0,1-.1.28.39.39,0,0,1-.56,0l-1.67-2.15v1.89a.41.41,0,0,1-.1.28.36.36,0,0,1-.52,0,.39.39,0,0,1-.1-.28v-2.81a.39.39,0,0,1,.1-.28.35.35,0,0,1,.27-.11.34.34,0,0,1,.29.13l1.67,2.13v-1.87a.39.39,0,0,1,.1-.28.34.34,0,0,1,.26-.11A.36.36,0,0,1,100.14,191.43Z" transform="translate(0.33)" style="fill: #fff"/>
          <path d="M101.53,194.78a.37.37,0,0,1-.09-.27v-2.79a.33.33,0,0,1,.3-.36h1.07a2.16,2.16,0,0,1,1,.21,1.47,1.47,0,0,1,.63.6,1.92,1.92,0,0,1,.22.95,2,2,0,0,1-.22.95,1.45,1.45,0,0,1-.63.61,2.17,2.17,0,0,1-1,.21h-1A.37.37,0,0,1,101.53,194.78Zm1.22-.54a1.13,1.13,0,0,0,0-2.26h-.54v2.26Z" transform="translate(0.33)" style="fill: #fff"/>
        </g>
        <g>
          <path d="M95.94,198.56a.28.28,0,0,1,.08.21v1a1.16,1.16,0,0,1,0,.31.35.35,0,0,1-.11.17.69.69,0,0,1-.24.11,2.88,2.88,0,0,1-.45.09,3.47,3.47,0,0,1-.48,0,2,2,0,0,1-1-.22,1.5,1.5,0,0,1-.63-.62,2.22,2.22,0,0,1,0-1.92,1.51,1.51,0,0,1,.62-.63,2,2,0,0,1,.95-.22,1.8,1.8,0,0,1,1.15.36.37.37,0,0,1,.1.12.33.33,0,0,1,0,.15.35.35,0,0,1-.07.22.22.22,0,0,1-.17.09h-.12l-.13-.06a1.75,1.75,0,0,0-.38-.19,1.3,1.3,0,0,0-.38-.05q-1,0-1,1.18a1.34,1.34,0,0,0,.27.91,1,1,0,0,0,.8.3,2.26,2.26,0,0,0,.58-.07V199h-.46a.33.33,0,0,1-.23-.07.29.29,0,0,1,0-.4.33.33,0,0,1,.23-.07h.85A.31.31,0,0,1,95.94,198.56Z" transform="translate(0.33)" style="fill: #fff"/>
          <path d="M100.14,197a.38.38,0,0,1,.1.28v2.8a.39.39,0,0,1-.1.28.35.35,0,0,1-.27.11.36.36,0,0,1-.29-.13l-1.67-2.14v1.88a.4.4,0,0,1-.1.28.36.36,0,0,1-.52,0,.39.39,0,0,1-.1-.28v-2.8a.38.38,0,0,1,.1-.28.35.35,0,0,1,.27-.11.34.34,0,0,1,.29.13l1.67,2.13v-1.87a.39.39,0,0,1,.1-.28.34.34,0,0,1,.26-.11A.35.35,0,0,1,100.14,197Z" transform="translate(0.33)" style="fill: #fff"/>
          <path d="M101.53,200.33a.37.37,0,0,1-.09-.27v-2.79a.33.33,0,0,1,.28-.37h1.09a2.18,2.18,0,0,1,1,.21,1.47,1.47,0,0,1,.63.61,1.91,1.91,0,0,1,.22.94,2,2,0,0,1-.22.95,1.46,1.46,0,0,1-.63.61,2.19,2.19,0,0,1-1,.21h-1A.37.37,0,0,1,101.53,200.33Zm1.22-.53a1.14,1.14,0,0,0,0-2.27h-.54v2.27Z" transform="translate(0.33)" style="fill: #fff"/>
        </g>
        <g>
          <path d="M92.89,204.64c0-.2.12-.29.36-.29h1c.24,0,.36.1.36.29s-.12.29-.36.29h-1Q92.89,204.94,92.89,204.64Z" transform="translate(0.33)" style="fill: #fff"/>
          <path d="M98.23,205.67c0,.21-.12.32-.37.32h-1.7q-.37,0-.37-.32t.37-.31h.47v-2l-.44.26a.29.29,0,0,1-.15,0,.27.27,0,0,1-.21-.1.36.36,0,0,1-.09-.24.29.29,0,0,1,.16-.26l.79-.48a.68.68,0,0,1,.35-.1.36.36,0,0,1,.38.38v2.54h.46C98.11,205.36,98.23,205.46,98.23,205.67Z" transform="translate(0.33)" style="fill: #fff"/>
          <path d="M101.67,205.67c0,.21-.12.32-.37.32H99.44a.33.33,0,0,1-.25-.09.31.31,0,0,1-.09-.23.46.46,0,0,1,.14-.33l1.1-1.17a1.11,1.11,0,0,0,.37-.72.41.41,0,0,0-.12-.31.47.47,0,0,0-.33-.11.92.92,0,0,0-.35.06,2.87,2.87,0,0,0-.37.19l-.13.07H99.3a.22.22,0,0,1-.18-.1A.36.36,0,0,1,99,203a.34.34,0,0,1,0-.16.31.31,0,0,1,.11-.11,1.86,1.86,0,0,1,.52-.26,1.84,1.84,0,0,1,.59-.1,1.5,1.5,0,0,1,.62.12.93.93,0,0,1,.41.34.92.92,0,0,1,.14.51,1.26,1.26,0,0,1-.13.57,2.48,2.48,0,0,1-.43.58l-.79.83h1.16C101.55,205.36,101.67,205.46,101.67,205.67Z" transform="translate(0.33)" style="fill: #fff"/>
          <path d="M104.44,203.53a.32.32,0,0,1,.18-.05.38.38,0,0,1,.25.09.28.28,0,0,1,.11.22.32.32,0,0,1,0,.15l-.9,1.84a.37.37,0,0,1-.15.17.44.44,0,0,1-.43,0,.39.39,0,0,1-.16-.17l-.9-1.84a.35.35,0,0,1,0-.13.29.29,0,0,1,.12-.23.41.41,0,0,1,.26-.09.35.35,0,0,1,.19.05.36.36,0,0,1,.14.16l.61,1.34.61-1.34A.36.36,0,0,1,104.44,203.53Z" transform="translate(0.33)" style="fill: #fff"/>
        </g>
      </g>
      <g>
        <g>
          <path d="M21.63,156.47a.73.73,0,0,1,.14.45.71.71,0,0,1-.27.58,1.17,1.17,0,0,1-.75.21H19.67a.27.27,0,0,1-.3-.3V155.1a.27.27,0,0,1,.24-.3h1.06a1.17,1.17,0,0,1,.72.2.66.66,0,0,1,.27.55.67.67,0,0,1-.12.4.69.69,0,0,1-.34.25A.73.73,0,0,1,21.63,156.47ZM20,156h.61a.63.63,0,0,0,.37-.08.3.3,0,0,0,.12-.26.31.31,0,0,0-.12-.27.63.63,0,0,0-.37-.08H20Zm1,1.14a.33.33,0,0,0,.12-.28.34.34,0,0,0-.12-.28.6.6,0,0,0-.37-.09H20v.74h.68A.62.62,0,0,0,21,157.14Z" transform="translate(0.33)" style="fill: #fff"/>
          <path d="M22.6,157.44a1.24,1.24,0,0,1-.32-.92v-1.41a.3.3,0,0,1,.28-.32h0a.31.31,0,0,1,.23.09.32.32,0,0,1,.08.23v1.44a.78.78,0,0,0,.16.53.67.67,0,0,0,.92,0,.78.78,0,0,0,.16-.53v-1.44a.32.32,0,0,1,.08-.23.31.31,0,0,1,.23-.09.3.3,0,0,1,.32.32v1.41a1.24,1.24,0,0,1-.32.92,1.53,1.53,0,0,1-1.87,0Z" transform="translate(0.33)" style="fill: #fff"/>
          <path d="M25.87,157.68a1.26,1.26,0,0,1-.46-.22.29.29,0,0,1-.09-.1.3.3,0,0,1,0-.31.19.19,0,0,1,.15-.08h.09l.11.05a1.37,1.37,0,0,0,.36.16,1.47,1.47,0,0,0,.4.05.79.79,0,0,0,.42-.09.29.29,0,0,0,.14-.26.23.23,0,0,0-.13-.21,1.74,1.74,0,0,0-.48-.15,2.63,2.63,0,0,1-.61-.19.8.8,0,0,1-.33-.28.73.73,0,0,1-.11-.4.78.78,0,0,1,.15-.47,1,1,0,0,1,.42-.33,1.48,1.48,0,0,1,.6-.12,1.54,1.54,0,0,1,1,.29.33.33,0,0,1,.09.1.27.27,0,0,1,0,.13.28.28,0,0,1-.06.18.19.19,0,0,1-.15.08H27.3l-.11-.05a1.72,1.72,0,0,0-.31-.16,1,1,0,0,0-.36-.05.71.71,0,0,0-.4.1.31.31,0,0,0-.14.27.24.24,0,0,0,.06.16.47.47,0,0,0,.19.11l.37.1a2,2,0,0,1,.81.32.64.64,0,0,1,.25.53.78.78,0,0,1-.15.47,1,1,0,0,1-.41.31,1.59,1.59,0,0,1-.62.11A2.29,2.29,0,0,1,25.87,157.68Z" transform="translate(0.33)" style="fill: #fff"/>
          <path d="M31.7,156.47a.73.73,0,0,1,.14.45.71.71,0,0,1-.27.58,1.17,1.17,0,0,1-.75.21H29.74a.27.27,0,0,1-.3-.3V155.1a.27.27,0,0,1,.24-.3h1.06a1.17,1.17,0,0,1,.72.2.66.66,0,0,1,.27.55.67.67,0,0,1-.12.4.69.69,0,0,1-.34.25A.73.73,0,0,1,31.7,156.47ZM30.07,156h.61a.63.63,0,0,0,.37-.08.3.3,0,0,0,.12-.26.31.31,0,0,0-.12-.27.63.63,0,0,0-.37-.08h-.61Zm1,1.15a.33.33,0,0,0,.12-.28.34.34,0,0,0-.12-.28.6.6,0,0,0-.37-.09h-.68v.74h.68a.62.62,0,0,0,.37-.1Z" transform="translate(0.33)" style="fill: #fff"/>
          <path d="M33,157.58a1.24,1.24,0,0,1-.49-.52,1.89,1.89,0,0,1,0-1.58A1.23,1.23,0,0,1,33,155a1.65,1.65,0,0,1,1.51,0,1.23,1.23,0,0,1,.49.52,1.89,1.89,0,0,1,0,1.58,1.24,1.24,0,0,1-.49.52,1.64,1.64,0,0,1-1.51,0Zm1.33-.57a1.42,1.42,0,0,0,0-1.48.77.77,0,0,0-1.09-.06l-.06.06a1.43,1.43,0,0,0,0,1.48.76.76,0,0,0,1.07.07l.07-.07Z" transform="translate(0.33)" style="fill: #fff"/>
          <path d="M38.37,157.46a.25.25,0,0,1-.09.2.32.32,0,0,1-.21.08.19.19,0,0,1-.26-.13l-.22-.49h-1.4l-.22.49a.27.27,0,0,1-.26.17.32.32,0,0,1-.21-.08.25.25,0,0,1-.1-.2.34.34,0,0,1,0-.13L36.55,155a.32.32,0,0,1,.14-.15.39.39,0,0,1,.39,0,.37.37,0,0,1,.14.15l1.12,2.34A.34.34,0,0,1,38.37,157.46Zm-2-.87h1l-.48-1.07Z" transform="translate(0.33)" style="fill: #fff"/>
          <path d="M41.26,157.49a.23.23,0,0,1-.09.19.35.35,0,0,1-.37,0,.31.31,0,0,1-.12-.12l-.55-.81a.48.48,0,0,0-.15-.15.38.38,0,0,0-.2,0h-.33v.83a.32.32,0,0,1-.08.24.31.31,0,0,1-.23.09.3.3,0,0,1-.32-.32v-2.31a.27.27,0,0,1,.24-.3h1.06a1.16,1.16,0,0,1,.77.23.81.81,0,0,1,.26.65.84.84,0,0,1-.19.56.89.89,0,0,1-.53.29.54.54,0,0,1,.22.1.84.84,0,0,1,.19.21l.31.47A.31.31,0,0,1,41.26,157.49ZM40.45,156a.44.44,0,0,0,0-.61.67.67,0,0,0-.4-.09h-.62v.8H40A.66.66,0,0,0,40.45,156Z" transform="translate(0.33)" style="fill: #fff"/>
          <path d="M41.87,157.65a.3.3,0,0,1-.08-.22v-2.31a.27.27,0,0,1,.24-.3h.89a1.79,1.79,0,0,1,.82.17,1.21,1.21,0,0,1,.52.5,1.58,1.58,0,0,1,.18.78,1.61,1.61,0,0,1-.18.78,1.2,1.2,0,0,1-.52.5,1.81,1.81,0,0,1-.82.17h-.83A.3.3,0,0,1,41.87,157.65Zm1-.44a.94.94,0,0,0,0-1.87h-.44v1.87Z" transform="translate(0.33)" style="fill: #fff"/>
        </g>
        <g id="g1794">
          <g id="g1792">
            <path id="path1790" d="M18.25,155.39a.22.22,0,0,0-.1-.13.19.19,0,0,0-.16,0,.22.22,0,0,0-.13.1,10.83,10.83,0,0,1-.82,1.25,5.3,5.3,0,0,1-.51-1.59v-.1l.49-.69c.06-.08.31-.38-.19-.6a.78.78,0,0,0-.58,0c-.57.25-.47,1-.46,1.18a.55.55,0,0,0,0,.15l-.93,1.53.14-.95a.34.34,0,0,0-.26-.39h0c-.25-.06-.4,0-.56.65s-.63,1.88-1,1.87-.06-.84.17-1.45A4.78,4.78,0,0,1,15.08,154c.17-.11.39-.37.16-.63s-.61-.07-.74,0a3.62,3.62,0,0,0-.86,1.07A5.62,5.62,0,0,0,13,156c-.25.8-.51,2.1,0,2.15.74.07,1.33-1.37,1.33-1.37s0,.75.34.77,1.11-1.45,1.32-2a5.51,5.51,0,0,0,.62,1.37v.1a10.35,10.35,0,0,0-1.12,2,.2.2,0,0,0,0,.18.19.19,0,0,0,.12.1.28.28,0,0,0,.18,0l.16-.09c1.19-.68,1.36-1.48,1.27-2.09l.06-.1a10.4,10.4,0,0,0,1-1.42.19.19,0,0,0,0-.16Z" transform="translate(0.33)" style="fill: #fff"/>
          </g>
        </g>
      </g>
      <g>
        <g>
          <polygon points="4.33 164.93 2.77 163.98 1.16 164.86 1.12 166.69 2.69 167.64 4.29 166.76 4.33 164.93" style="fill: #bb9965"/>
          <circle cx="2.41" cy="165.8" r="0.9" transform="translate(-140.15 81.67) rotate(-58.68)" style="fill: #bbbdbf"/>
          <path d="M2.15,165H0v1.6H2.15a.8.8,0,1,0,0-1.6Z" transform="translate(0.33)" style="fill: #929497"/>
        </g>
        <g>
          <polygon points="4.33 177.61 2.77 176.66 1.16 177.53 1.12 179.37 2.69 180.32 4.29 179.44 4.33 177.61" style="fill: #bb9965"/>
          <circle cx="2.41" cy="178.48" r="0.9" transform="translate(-150.98 87.76) rotate(-58.68)" style="fill: #bbbdbf"/>
          <path d="M2.15,177.65H0v1.6H2.15a.8.8,0,1,0,0-1.6Z" transform="translate(0.33)" style="fill: #929497"/>
        </g>
        <g>
          <polygon points="4.33 190.29 2.77 189.33 1.16 190.21 1.12 192.04 2.69 193 4.29 192.12 4.33 190.29" style="fill: #bb9965"/>
          <circle cx="2.4" cy="191.15" r="0.9" transform="translate(-161.81 93.84) rotate(-58.68)" style="fill: #bbbdbf"/>
          <path d="M2.15,190.33H0v1.6H2.15a.8.8,0,1,0,0-1.6Z" transform="translate(0.33)" style="fill: #929497"/>
        </g>
        <g>
          <polygon points="4.33 202.96 2.77 202.01 1.16 202.89 1.12 204.72 2.69 205.67 4.29 204.79 4.33 202.96" style="fill: #bb9965"/>
          <circle cx="2.4" cy="203.83" r="0.9" transform="translate(-172.64 99.93) rotate(-58.68)" style="fill: #bbbdbf"/>
          <path d="M2.15,203H0v1.6H2.15a.8.8,0,1,0,0-1.6Z" transform="translate(0.33)" style="fill: #929497"/>
        </g>
      </g>
      <g>
        <g>
          <polygon points="116.2 204.72 117.77 205.67 119.38 204.79 119.42 202.96 117.85 202.01 116.25 202.89 116.2 204.72" style="fill: #bb9965"/>
          <circle cx="117.47" cy="203.83" r="0.9" transform="translate(-117.38 198.23) rotate(-58.68)" style="fill: #bbbdbf"/>
          <path d="M117.72,204.68h2.15v-1.6h-2.15a.8.8,0,0,0,0,1.6Z" transform="translate(0.33)" style="fill: #929497"/>
        </g>
        <g>
          <polygon points="116.2 192.04 117.77 193 119.38 192.12 119.42 190.29 117.85 189.33 116.25 190.21 116.2 192.04" style="fill: #bb9965"/>
          <circle cx="117.47" cy="191.15" r="0.9" transform="translate(-106.55 192.14) rotate(-58.68)" style="fill: #bbbdbf"/>
          <path d="M117.72,192h2.15v-1.6h-2.15a.8.8,0,0,0,0,1.6Z" transform="translate(0.33)" style="fill: #929497"/>
        </g>
        <g>
          <polygon points="116.2 179.37 117.77 180.32 119.38 179.44 119.42 177.61 117.85 176.66 116.25 177.53 116.2 179.37" style="fill: #bb9965"/>
          <circle cx="117.48" cy="178.48" r="0.9" transform="translate(-95.73 186.06) rotate(-58.68)" style="fill: #bbbdbf"/>
          <path d="M117.72,179.32h2.15v-1.6h-2.15a.8.8,0,0,0,0,1.6Z" transform="translate(0.33)" style="fill: #929497"/>
        </g>
        <g>
          <polygon points="116.2 166.69 117.77 167.64 119.38 166.76 119.42 164.93 117.85 163.98 116.25 164.86 116.2 166.69" style="fill: #bb9965"/>
          <circle cx="117.48" cy="165.8" r="0.9" transform="translate(-84.9 179.97) rotate(-58.68)" style="fill: #bbbdbf"/>
          <path d="M117.72,166.65h2.15V165h-2.15a.8.8,0,0,0,0,1.6Z" transform="translate(0.33)" style="fill: #929497"/>
        </g>
      </g>
      <g>
        <path d="M8.57,165.81a.24.24,0,0,1,.08.18.26.26,0,0,1-.26.26h-.7V167a.24.24,0,0,1-.07.18.28.28,0,0,1-.37,0,.25.25,0,0,1-.08-.18v-.71h-.7A.26.26,0,0,1,6.2,166a.24.24,0,0,1,.08-.18.25.25,0,0,1,.18-.07h.7V165a.26.26,0,0,1,.52,0s0,0,0,0v.71h.7A.25.25,0,0,1,8.57,165.81Z" transform="translate(0.33)" style="fill: #fff"/>
        <path d="M11.72,165.29a1,1,0,0,1,.4.4,1.22,1.22,0,0,1,.14.59,1.16,1.16,0,0,1-.17.62,1.12,1.12,0,0,1-.46.42,1.52,1.52,0,0,1-.69.15,2,2,0,0,1-.61-.09,1.62,1.62,0,0,1-.51-.26.34.34,0,0,1-.11-.12.62.62,0,0,1,.07-.37.22.22,0,0,1,.18-.09h.11l.13.06a2.72,2.72,0,0,0,.37.19.93.93,0,0,0,.36.07.67.67,0,0,0,.46-.14.52.52,0,0,0,.16-.42.53.53,0,0,0-.16-.41.62.62,0,0,0-.44-.15,1.06,1.06,0,0,0-.31,0,1.38,1.38,0,0,0-.31.14.42.42,0,0,1-.21.06.29.29,0,0,1-.2-.07.24.24,0,0,1-.08-.19v-1.46a.33.33,0,0,1,.3-.36h1.67c.25,0,.37.1.37.29s-.12.3-.37.3H10.57v.79a1.13,1.13,0,0,1,.56-.13A1.17,1.17,0,0,1,11.72,165.29Z" transform="translate(0.33)" style="fill: #fff"/>
        <path d="M16,163.92a.35.35,0,0,1,.19-.05.41.41,0,0,1,.27.1.31.31,0,0,1,.12.25.35.35,0,0,1,0,.15l-1.35,2.85a.4.4,0,0,1-.17.18.49.49,0,0,1-.48,0,.4.4,0,0,1-.17-.18L13,164.36a.32.32,0,0,1,0-.15.31.31,0,0,1,.13-.25.44.44,0,0,1,.28-.1.37.37,0,0,1,.19.05.32.32,0,0,1,.13.16l1.07,2.34,1.07-2.34A.33.33,0,0,1,16,163.92Z" transform="translate(0.33)" style="fill: #fff"/>
      </g>
      <g>
        <path d="M8.57,178.4a.25.25,0,0,1,.08.18.26.26,0,0,1-.26.26h-.7v.7a.24.24,0,0,1-.07.18.26.26,0,0,1-.19.07.25.25,0,0,1-.18-.07.24.24,0,0,1-.08-.18v-.7h-.7a.26.26,0,0,1-.26-.26.25.25,0,0,1,.08-.18.26.26,0,0,1,.18-.07h.7v-.71a.26.26,0,0,1,.26-.26.26.26,0,0,1,.26.26v.71h.7A.26.26,0,0,1,8.57,178.4Z" transform="translate(0.33)" style="fill: #fff"/>
        <path d="M12.32,179.7q0,.31-.37.32H10.24q-.37,0-.37-.32t.37-.31h.46v-2l-.44.26a.29.29,0,0,1-.15,0,.27.27,0,0,1-.21-.1.36.36,0,0,1-.09-.24A.29.29,0,0,1,10,177l.79-.48a.68.68,0,0,1,.35-.1.36.36,0,0,1,.38.38v2.54H12A.28.28,0,0,1,12.32,179.7Z" transform="translate(0.33)" style="fill: #fff"/>
        <path d="M15.75,179.7q0,.31-.37.32H13.52a.34.34,0,0,1-.25-.09.31.31,0,0,1-.09-.23.47.47,0,0,1,.15-.33l1.1-1.17a1.1,1.1,0,0,0,.37-.72.4.4,0,0,0-.12-.31.47.47,0,0,0-.33-.11.93.93,0,0,0-.35.06,3,3,0,0,0-.37.19l-.13.07h-.1a.22.22,0,0,1-.18-.1.36.36,0,0,1-.08-.23.33.33,0,0,1,0-.16.31.31,0,0,1,.11-.11,1.94,1.94,0,0,1,1.1-.36,1.51,1.51,0,0,1,.62.12.94.94,0,0,1,.41.34.92.92,0,0,1,.15.51,1.26,1.26,0,0,1-.13.57,2.48,2.48,0,0,1-.43.58l-.79.83h1.16Q15.75,179.39,15.75,179.7Z" transform="translate(0.33)" style="fill: #fff"/>
        <path d="M19.46,176.51a.35.35,0,0,1,.19-.05.41.41,0,0,1,.27.1.31.31,0,0,1,.12.25.35.35,0,0,1,0,.15l-1.35,2.85a.4.4,0,0,1-.17.18.49.49,0,0,1-.48,0,.4.4,0,0,1-.17-.18L16.49,177a.32.32,0,0,1,0-.14.31.31,0,0,1,.13-.25.44.44,0,0,1,.28-.1.37.37,0,0,1,.19.05.33.33,0,0,1,.13.16l1,2.28,1.07-2.34A.34.34,0,0,1,19.46,176.51Z" transform="translate(0.33)" style="fill: #fff"/>
      </g>
      <g>
        <path d="M9.25,190.95a.28.28,0,0,1,.08.21v1a1.17,1.17,0,0,1,0,.31.35.35,0,0,1-.11.17.71.71,0,0,1-.24.11,2.89,2.89,0,0,1-.45.09,3.47,3.47,0,0,1-.48,0,2,2,0,0,1-1-.22,1.5,1.5,0,0,1-.63-.62,2.22,2.22,0,0,1,0-1.93,1.5,1.5,0,0,1,.62-.63,2,2,0,0,1,.95-.22,1.8,1.8,0,0,1,1.15.36.37.37,0,0,1,.1.12.33.33,0,0,1,0,.15.36.36,0,0,1-.07.22.22.22,0,0,1-.17.09H8.88l-.13-.06a1.71,1.71,0,0,0-.38-.19,1.27,1.27,0,0,0-.38-.05q-1,0-1,1.18a1.34,1.34,0,0,0,.27.91,1,1,0,0,0,.8.3,2.31,2.31,0,0,0,.58-.07v-.78H8.17a.33.33,0,0,1-.23-.07.29.29,0,0,1,0-.4.33.33,0,0,1,.23-.07H9A.31.31,0,0,1,9.25,190.95Z" transform="translate(0.33)" style="fill: #fff"/>
        <path d="M13.45,189.37a.38.38,0,0,1,.1.28v2.8a.39.39,0,0,1-.1.28.39.39,0,0,1-.56,0l-1.67-2.14v1.88a.4.4,0,0,1-.1.28.36.36,0,0,1-.52,0,.39.39,0,0,1-.1-.28v-2.8a.38.38,0,0,1,.1-.28.35.35,0,0,1,.27-.11.34.34,0,0,1,.29.13l1.67,2.13v-1.87a.39.39,0,0,1,.1-.28.34.34,0,0,1,.26-.11A.35.35,0,0,1,13.45,189.37Z" transform="translate(0.33)" style="fill: #fff"/>
        <path d="M14.85,192.72a.37.37,0,0,1-.09-.27v-2.79a.33.33,0,0,1,.3-.36h1.07a2.16,2.16,0,0,1,1,.21,1.47,1.47,0,0,1,.63.61A1.91,1.91,0,0,1,18,191a2,2,0,0,1-.22.95,1.46,1.46,0,0,1-.63.61,2.19,2.19,0,0,1-1,.21h-1A.37.37,0,0,1,14.85,192.72Zm1.22-.53a1.14,1.14,0,1,0,0-2.27h-.54v2.27Z" transform="translate(0.33)" style="fill: #fff"/>
      </g>
      <g>
        <path d="M6.2,204c0-.2.12-.29.36-.29h1c.24,0,.36.1.36.29s-.12.29-.36.29h-1Q6.2,204.31,6.2,204Z" transform="translate(0.33)" style="fill: #fff"/>
        <path d="M11.54,205c0,.21-.12.32-.37.32H9.47q-.37,0-.37-.32t.37-.31h.47v-2l-.44.26a.29.29,0,0,1-.15,0,.27.27,0,0,1-.21-.1.36.36,0,0,1-.09-.24.29.29,0,0,1,.16-.26l.79-.48a.68.68,0,0,1,.35-.1.36.36,0,0,1,.38.38v2.54h.46C11.42,204.73,11.54,204.83,11.54,205Z" transform="translate(0.33)" style="fill: #fff"/>
        <path d="M15,205c0,.21-.12.32-.37.32H12.75a.33.33,0,0,1-.25-.09.31.31,0,0,1-.09-.23.46.46,0,0,1,.14-.33l1.1-1.17a1.11,1.11,0,0,0,.37-.72.41.41,0,0,0-.12-.31.47.47,0,0,0-.33-.11.92.92,0,0,0-.35.06,2.87,2.87,0,0,0-.37.19l-.13.07h-.11a.22.22,0,0,1-.18-.1.36.36,0,0,1-.08-.23.34.34,0,0,1,0-.16.31.31,0,0,1,.11-.11,1.86,1.86,0,0,1,.52-.26,1.84,1.84,0,0,1,.59-.1,1.5,1.5,0,0,1,.62.12.93.93,0,0,1,.41.34.92.92,0,0,1,.14.51,1.26,1.26,0,0,1-.13.57,2.48,2.48,0,0,1-.43.58l-.79.83h1.16C14.85,204.73,15,204.83,15,205Z" transform="translate(0.33)" style="fill: #fff"/>
        <path d="M17.75,202.9a.32.32,0,0,1,.18-.05.38.38,0,0,1,.25.09.28.28,0,0,1,.11.22.32.32,0,0,1,0,.15l-.9,1.84a.37.37,0,0,1-.15.17.44.44,0,0,1-.43,0,.39.39,0,0,1-.16-.17l-.9-1.84a.35.35,0,0,1,0-.13.29.29,0,0,1,.12-.23.41.41,0,0,1,.26-.09.35.35,0,0,1,.19.05.36.36,0,0,1,.14.16l.61,1.34.61-1.34A.36.36,0,0,1,17.75,202.9Z" transform="translate(0.33)" style="fill: #fff"/>
      </g>
      <g>
        <circle id="circle868" cx="59.85" cy="214.15" r="3.99" style="fill: #bb9965"/>
        <circle id="circle868-2" cx="59.85" cy="214.15" r="1.86" style="fill: #231f20"/>
        <path id="path884" d="M59.52,209.1a5.06,5.06,0,1,1-5.06,5.06h0a5.06,5.06,0,0,1,5.06-5.06m0-.44a5.5,5.5,0,1,0,5.5,5.5h0a5.5,5.5,0,0,0-5.5-5.5Z" transform="translate(0.33)" style="fill: #fff"/>
      </g>
      <g>
        <circle id="circle868-3" cx="10.35" cy="214.15" r="3.99" style="fill: #bb9965"/>
        <circle id="circle868-4" cx="10.35" cy="214.15" r="1.86" style="fill: #231f20"/>
        <path id="path884-2" d="M10,209.1a5.06,5.06,0,1,1-5,5.12v-.06H5a5.06,5.06,0,0,1,5-5.06m0-.44a5.5,5.5,0,1,0,5.5,5.5h0a5.5,5.5,0,0,0-5.5-5.5Z" transform="translate(0.33)" style="fill: #fff"/>
      </g>
      <g>
        <circle id="circle868-5" cx="109.35" cy="214.15" r="3.99" style="fill: #bb9965"/>
        <circle id="circle868-6" cx="109.35" cy="214.15" r="1.86" style="fill: #231f20"/>
        <path id="path884-3" d="M109,209.1a5.06,5.06,0,1,1-5.06,5.06h0A5.06,5.06,0,0,1,109,209.1m0-.44a5.5,5.5,0,1,0,5.5,5.5h0a5.5,5.5,0,0,0-5.5-5.5Z" transform="translate(0.33)" style="fill: #fff"/>
      </g>
      <g style="opacity: 0.38">
        <rect id="rect1709-2-2" data-name="rect1709-2" x="12.83" y="147.49" width="4.17" height="74.88" style="fill: #2b2c2b"/>
        <rect id="rect1709-3-2" data-name="rect1709-3" x="8.83" y="147.49" width="4.17" height="74.88" style="fill: #252624"/>
        <rect id="rect1709-4-2" data-name="rect1709-4" x="4.57" y="147.49" width="4.17" height="74.88" style="fill: #1e1d1d"/>
        <rect id="rect1709-5-2" data-name="rect1709-5" x="0.33" y="147.49" width="4.17" height="74.88" style="fill: #191818"/>
      </g>
      <g style="opacity: 0.38">
        <rect id="rect1709-2-3" data-name="rect1709-2" x="103.8" y="147.49" width="4.17" height="74.88" style="fill: #2b2c2b"/>
        <rect id="rect1709-3-3" data-name="rect1709-3" x="107.8" y="147.49" width="4.17" height="74.88" style="fill: #252624"/>
        <rect id="rect1709-4-3" data-name="rect1709-4" x="112.07" y="147.49" width="4.17" height="74.88" style="fill: #1e1d1d"/>
        <rect id="rect1709-5-3" data-name="rect1709-5" x="116.3" y="147.49" width="4.17" height="74.88" style="fill: #191818"/>
      </g>
    </g>
  </g>
  <g id="Layer_4" data-name="Layer 4">
    <g>
      <rect id="rect1806" x="0.34" width="120" height="14.43" style="fill: #d9d9d8"/>
      <rect id="rect1806-2" x="0.34" y="14.41" width="120" height="1.02" style="fill: #b3b3b3"/>
      <g>
        <circle cx="7.84" cy="7.94" r="3.44" style="fill: #333"/>
        <circle cx="22.84" cy="7.94" r="3.44" style="fill: #333"/>
        <circle cx="37.84" cy="7.94" r="3.44" style="fill: #333"/>
        <circle cx="52.84" cy="7.94" r="3.44" style="fill: #333"/>
        <circle cx="67.84" cy="7.94" r="3.44" style="fill: #333"/>
        <circle cx="82.84" cy="7.94" r="3.44" style="fill: #333"/>
        <circle cx="97.84" cy="7.94" r="3.44" style="fill: #333"/>
        <circle cx="112.84" cy="7.94" r="3.44" style="fill: #333"/>
      </g>
    </g>
    <g>
      <rect id="rect1806-3" x="0.34" y="365.57" width="120" height="14.43" style="fill: #d9d9d8"/>
      <rect id="rect1806-4" x="0.34" y="364.57" width="120" height="1.02" style="fill: #b3b3b3"/>
      <g>
        <circle cx="112.84" cy="372.06" r="3.44" style="fill: #333"/>
        <circle cx="97.84" cy="372.06" r="3.44" style="fill: #333"/>
        <circle cx="82.84" cy="372.06" r="3.44" style="fill: #333"/>
        <circle cx="67.84" cy="372.06" r="3.44" style="fill: #333"/>
        <circle cx="52.84" cy="372.06" r="3.44" style="fill: #333"/>
        <circle cx="37.84" cy="372.06" r="3.44" style="fill: #333"/>
        <circle cx="22.84" cy="372.06" r="3.44" style="fill: #333"/>
        <circle cx="7.84" cy="372.06" r="3.44" style="fill: #333"/>
      </g>
    </g>
  </g>
  <g id="Layer_5" data-name="Layer 5">
    <g>
      <polygon points="25.18 103.03 60.69 96.88 56.42 97.62 58.49 84.41 48.1 86.21 46.03 99.42 35.56 101.23 37.63 88.02 21.55 90.81 27.25 89.82 25.18 103.03" style="fill: #fbc010"/>
      <polygon points="14.71 104.84 16.78 91.63 6.4 93.43 4.33 106.64 0 107.39 0 107.39 21.97 103.59 14.71 104.84" style="fill: #fbc010"/>
      <polygon points="77.27 94.01 79.34 80.8 85.55 79.73 68.96 82.6 66.89 95.81 77.27 94.01" style="fill: #fbc010"/>
      <polygon points="89.81 78.99 85.55 79.73 89.81 78.99 89.81 78.99"/>
      <polygon points="77.27 94.01 84.38 92.78 77.27 94.01 77.27 94.01"/>
      <polygon points="77.27 94.01 84.38 92.78 87.74 92.2 89.81 78.99 85.55 79.73 79.34 80.8 77.27 94.01"/>
      <polygon points="108.59 88.59 108.59 88.59 99.41 90.18 108.59 88.59"/>
      <polygon points="100.19 77.19 98.12 90.4 99.41 90.18 108.59 88.59 110.66 75.38 100.19 77.19"/>
      <polygon points="68.96 82.6 58.49 84.41 58.49 84.41 68.96 82.6 68.96 82.6"/>
      <polygon points="66.89 95.81 66.89 95.81 60.69 96.88 66.89 95.81"/>
      <polygon points="60.69 96.88 66.89 95.81 68.96 82.6 58.49 84.41 56.42 97.62 60.69 96.88"/>
      <polygon points="6.4 93.43 6.4 93.43 0 94.54 0 94.54 6.4 93.43"/>
      <polygon points="0 107.39 4.33 106.64 6.4 93.43 0 94.54 0 107.39"/>
      <polygon points="48.1 86.21 37.63 88.02 37.63 88.02 48.1 86.21 48.1 86.21"/>
      <polygon points="46.03 99.42 48.1 86.21 37.63 88.02 35.56 101.23 46.03 99.42"/>
      <polygon points="25.18 103.03 25.18 103.03 21.97 103.59 25.18 103.03"/>
      <polygon points="16.78 91.63 16.78 91.63 21.55 90.81 16.78 91.63"/>
      <polygon points="21.97 103.59 25.18 103.03 27.25 89.82 21.55 90.81 16.78 91.63 14.71 104.84 21.97 103.59"/>
      <polygon points="118.97 86.79 120.35 78.04 120.35 73.7 89.81 78.99 87.74 92.2 84.38 92.78 99.41 90.18 98.12 90.4 100.19 77.19 110.66 75.38 108.59 88.59 120.35 86.56 120.35 86.56 118.97 86.79" style="fill: #fbc010"/>
      <polygon points="118.97 86.79 120.35 86.56 120.35 78.04 118.97 86.79"/>
    </g>
    <g>
      <polygon points="52.89 162.55 46.89 174.5 36.37 173.04 42.36 161.09 0 155.18 0 156.13 0.44 155.25 10.97 156.71 4.97 168.66 15.4 170.12 21.4 158.17 31.93 159.63 25.93 171.58 57.33 175.96 63.33 164.01 52.89 162.55" style="fill: #fbc010"/>
      <polygon points="78.28 178.88 88.81 180.35 88.81 180.35 78.28 178.88 78.28 178.88"/>
      <polygon points="84.28 166.93 78.28 178.88 88.81 180.35 94.81 168.4 84.28 166.93"/>
      <polygon points="99.25 181.8 104.6 182.55 99.25 181.8 99.25 181.8"/>
      <polygon points="115.77 171.32 105.25 169.85 99.25 181.8 104.6 182.55 109.77 183.27 115.77 171.32"/>
      <polygon points="57.33 175.96 67.85 177.43 67.85 177.43 57.33 175.96 57.33 175.96"/>
      <polygon points="73.85 165.47 63.33 164.01 63.33 164.01 73.85 165.47 73.85 165.47"/>
      <polygon points="63.33 164.01 57.33 175.96 67.85 177.43 73.85 165.47 63.33 164.01"/>
      <polygon points="0 167.97 4.97 168.66 4.97 168.66 0 167.97 0 167.97"/>
      <polygon points="0.44 155.25 0 156.13 0 167.97 4.97 168.66 10.97 156.71 0.44 155.25"/>
      <polygon points="52.89 162.55 42.36 161.09 42.36 161.09 52.89 162.55 52.89 162.55"/>
      <polygon points="46.89 174.5 52.89 162.55 42.36 161.09 36.37 173.04 46.89 174.5"/>
      <polygon points="15.4 170.12 25.93 171.58 25.93 171.58 15.4 170.12 15.4 170.12"/>
      <polygon points="21.4 158.17 15.4 170.12 25.93 171.58 31.93 159.63 21.4 158.17"/>
      <polygon points="120.41 184.75 120.41 184.32 120.21 184.72 120.41 184.75" style="fill: none"/>
      <polygon points="120.21 184.72 120.41 184.32 120.41 171.96 73.85 165.47 67.85 177.43 78.28 178.88 84.28 166.93 94.81 168.4 88.81 180.35 99.25 181.8 105.25 169.85 115.77 171.32 109.77 183.27 104.6 182.55 120.41 184.75 120.41 184.75 120.21 184.72" style="fill: #fbc010"/>
    </g>
    <g>
      <polygon points="52.31 308.39 65.45 302.05 63.8 288.77 67.74 286.88 54.32 293.36 55.96 306.63 52.31 308.39" style="fill: #fbc010"/>
      <polygon points="85.24 292.48 84.5 292.84 82.86 279.57 85.49 278.3 73.37 284.15 75.02 297.42 85.24 292.48" style="fill: #fbc010"/>
      <polygon points="103.56 283.63 101.91 270.36 92.43 274.94 94.07 288.22 103.56 283.63" style="fill: #fbc010"/>
      <polygon points="27.34 320.46 25.69 307.19 16.21 311.77 17.85 325.04 27.34 320.46" style="fill: #fbc010"/>
      <polygon points="32.14 318.14 46.39 311.25 44.75 297.98 35.26 302.57 36.91 315.84 32.14 318.14" style="fill: #fbc010"/>
      <polygon points="65.45 302.05 75.02 297.42 75.02 297.42 65.45 302.05 65.45 302.05"/>
      <polygon points="73.37 284.15 67.74 286.88 73.37 284.15 73.37 284.15"/>
      <polygon points="65.45 302.05 75.02 297.42 73.37 284.15 67.74 286.88 63.8 288.77 65.45 302.05"/>
      <polygon points="92.43 274.94 85.49 278.3 92.43 274.94 92.43 274.94"/>
      <polygon points="94.07 288.22 94.07 288.22 85.24 292.48 94.07 288.22"/>
      <polygon points="84.5 292.84 85.24 292.48 94.07 288.22 92.43 274.94 85.49 278.3 82.86 279.57 84.5 292.84"/>
      <polygon points="54.32 293.36 44.75 297.98 44.75 297.98 54.32 293.36 54.32 293.36"/>
      <polygon points="46.39 311.25 52.31 308.39 46.39 311.25 46.39 311.25"/>
      <polygon points="52.31 308.39 55.96 306.63 54.32 293.36 44.75 297.98 46.39 311.25 52.31 308.39"/>
      <polygon points="35.26 302.57 25.69 307.19 25.69 307.19 35.26 302.57 35.26 302.57"/>
      <polygon points="27.34 320.46 32.14 318.14 27.34 320.46 27.34 320.46"/>
      <polygon points="32.14 318.14 36.91 315.84 35.26 302.57 25.69 307.19 27.34 320.46 32.14 318.14"/>
      <polygon points="16.21 311.77 6.64 316.4 6.64 316.4 16.21 311.77 16.21 311.77"/>
      <polygon points="17.85 325.04 17.85 325.04 14.61 326.61 17.85 325.04"/>
      <polygon points="14.61 326.61 17.85 325.04 16.21 311.77 6.64 316.4 8.28 329.67 14.61 326.61"/>
      <polygon points="111.48 265.74 101.91 270.36 101.91 270.36 111.48 265.74 111.48 265.74"/>
      <polygon points="103.56 283.63 113.13 279.01 113.13 279.01 103.56 283.63 103.56 283.63"/>
      <polygon points="111.48 265.74 113.13 279.01 120.39 275.5 120.39 261.43 111.48 265.74" style="fill: #fbc010"/>
      <polygon points="101.91 270.36 103.56 283.63 113.13 279.01 111.48 265.74 101.91 270.36"/>
      <polygon points="8.28 329.67 6.64 316.4 0.3 319.46 0.3 333.52 14.61 326.61 8.28 329.67" style="fill: #fbc010"/>
    </g>
  </g>
</svg>
