<?xml version="1.0" encoding="UTF-8" standalone="no"?>
<svg
   xmlns:dc="http://purl.org/dc/elements/1.1/"
   xmlns:cc="http://creativecommons.org/ns#"
   xmlns:rdf="http://www.w3.org/1999/02/22-rdf-syntax-ns#"
   xmlns:svg="http://www.w3.org/2000/svg"
   xmlns="http://www.w3.org/2000/svg"
   xmlns:sodipodi="http://sodipodi.sourceforge.net/DTD/sodipodi-0.dtd"
   xmlns:inkscape="http://www.inkscape.org/namespaces/inkscape"
   id="Layer_1"
   data-name="Layer 1"
   width="120.13"
   height="380"
   viewBox="0 0 120.13 380"
   version="1.1"
   sodipodi:docname="as-BlankPanelSpecial2.svg"
   inkscape:version="0.92.2 5c3e80d, 2017-08-06">
  <metadata
     id="metadata664">
    <rdf:RDF>
      <cc:Work
         rdf:about="">
        <dc:format>image/svg+xml</dc:format>
        <dc:type
           rdf:resource="http://purl.org/dc/dcmitype/StillImage" />
      </cc:Work>
    </rdf:RDF>
  </metadata>
  <defs
     id="defs662" />
  <sodipodi:namedview
     pagecolor="#ffffff"
     bordercolor="#666666"
     borderopacity="1"
     objecttolerance="10"
     gridtolerance="10"
     guidetolerance="10"
     inkscape:pageopacity="0"
     inkscape:pageshadow="2"
     inkscape:window-width="1775"
     inkscape:window-height="988"
     id="namedview660"
     showgrid="false"
     inkscape:zoom="3.0551642"
     inkscape:cx="27.257704"
     inkscape:cy="117.42292"
     inkscape:window-x="133"
     inkscape:window-y="208"
     inkscape:window-maximized="0"
     inkscape:current-layer="Layer_1" />
  <title
     id="title2">as-BlankPanel8-pcb</title>
  <g
     id="g587">
    <rect
       id="rect1709"
       x="0.01"
       width="120"
       height="380"
       style="fill:#333333;fill-opacity:0.15686275" />
    <g
       id="g9">
      <rect
         id="rect1709-2"
         x="0.13"
         y="226.13"
         width="120"
         height="1.26"
         style="fill: #2b2c2b" />
      <rect
         id="rect1709-3"
         x="0.14022857"
         y="224.86885"
         width="120"
         height="1.26"
         style="fill:#252624" />
      <rect
         id="rect1709-4"
         x="0.13511428"
         y="223.60954"
         width="120"
         height="1.26"
         style="fill:#1e1d1d" />
      <rect
         id="rect1709-5"
         x="0.13"
         y="222.35"
         width="120"
         height="1.26"
         style="fill: #191818" />
    </g>
    <g
       id="g31">
      <rect
         id="rect1806"
         x="0.01"
         width="120"
         height="14.43"
         style="fill: #d9d9d8" />
      <rect
         id="rect1806-2"
         x="0.01"
         y="14.41"
         width="120"
         height="1.02"
         style="fill: #b3b3b3" />
      <g
         id="g29">
        <circle
           cx="7.51"
           cy="7.94"
           r="3.44"
           style="fill: #333"
           id="circle13" />
        <circle
           cx="22.51"
           cy="7.94"
           r="3.44"
           style="fill: #333"
           id="circle15" />
        <circle
           cx="37.51"
           cy="7.94"
           r="3.44"
           style="fill: #333"
           id="circle17" />
        <circle
           cx="52.51"
           cy="7.94"
           r="3.44"
           style="fill: #333"
           id="circle19" />
        <circle
           cx="67.51"
           cy="7.94"
           r="3.44"
           style="fill: #333"
           id="circle21" />
        <circle
           cx="82.51"
           cy="7.94"
           r="3.44"
           style="fill: #333"
           id="circle23" />
        <circle
           cx="97.51"
           cy="7.94"
           r="3.44"
           style="fill: #333"
           id="circle25" />
        <circle
           cx="112.51"
           cy="7.94"
           r="3.44"
           style="fill: #333"
           id="circle27" />
      </g>
    </g>
    <g
       id="g53">
      <rect
         id="rect1806-3"
         x="0.01"
         y="365.57"
         width="120"
         height="14.43"
         style="fill: #d9d9d8" />
      <rect
         id="rect1806-4"
         x="0.01"
         y="364.57"
         width="120"
         height="1.02"
         style="fill: #b3b3b3" />
      <g
         id="g51">
        <circle
           cx="112.51"
           cy="372.06"
           r="3.44"
           style="fill: #333"
           id="circle35" />
        <circle
           cx="97.51"
           cy="372.06"
           r="3.44"
           style="fill: #333"
           id="circle37" />
        <circle
           cx="82.51"
           cy="372.06"
           r="3.44"
           style="fill: #333"
           id="circle39" />
        <circle
           cx="67.51"
           cy="372.06"
           r="3.44"
           style="fill: #333"
           id="circle41" />
        <circle
           cx="52.51"
           cy="372.06"
           r="3.44"
           style="fill: #333"
           id="circle43" />
        <circle
           cx="37.51"
           cy="372.06"
           r="3.44"
           style="fill: #333"
           id="circle45" />
        <circle
           cx="22.51"
           cy="372.06"
           r="3.44"
           style="fill: #333"
           id="circle47" />
        <circle
           cx="7.51"
           cy="372.06"
           r="3.44"
           style="fill: #333"
           id="circle49" />
      </g>
    </g>
    <rect
       x="0.01"
       y="147.67"
       width="119.87"
       height="74.67"
       style="fill: #034732"
       id="rect55" />
    <rect
       id="rect1806-5"
       x="0.01"
       y="165.43"
       width="119.97"
       height="1.02"
       style="fill: #0e3e1f" />
    <rect
       id="rect1806-6"
       x="0.01"
       y="170.84"
       width="119.97"
       height="1.02"
       style="fill: #0e3e1f" />
    <rect
       id="rect1806-7"
       x="0.01"
       y="176.25"
       width="119.97"
       height="1.02"
       style="fill: #0e3e1f" />
    <rect
       id="rect1806-8"
       x="0.01"
       y="181.66"
       width="119.97"
       height="1.02"
       style="fill: #0e3e1f" />
    <rect
       id="rect1806-9"
       x="0.01"
       y="187.07"
       width="119.97"
       height="1.02"
       style="fill: #0e3e1f" />
    <rect
       id="rect1806-10"
       x="0.01"
       y="192.48"
       width="119.97"
       height="1.02"
       style="fill: #0e3e1f" />
    <rect
       id="rect1806-11"
       x="0.01"
       y="197.89"
       width="119.97"
       height="1.02"
       style="fill: #0e3e1f" />
    <rect
       id="rect1806-12"
       x="0.01"
       y="203.3"
       width="119.97"
       height="1.02"
       style="fill: #0e3e1f" />
    <g
       id="g177">
      <g
         id="g77">
        <g
           id="g69">
          <polygon
             points="34.77 164.53 32.49 163.14 30.15 164.42 30.09 167.09 32.37 168.48 34.7 167.2 34.77 164.53"
             style="fill: #2d2929"
             id="polygon65" />
          <circle
             cx="32.44"
             cy="165.8"
             r="0.77"
             transform="translate(-126.06 107.32) rotate(-58.68)"
             style="fill: #bb9965"
             id="circle67" />
        </g>
        <g
           id="g75">
          <polygon
             points="39.46 164.53 37.18 163.14 34.84 164.42 34.77 167.09 37.05 168.48 39.39 167.2 39.46 164.53"
             style="fill: #2d2929"
             id="polygon71" />
          <circle
             cx="37.12"
             cy="165.8"
             r="0.77"
             transform="translate(-123.81 111.33) rotate(-58.68)"
             style="fill: #bb9965"
             id="circle73" />
        </g>
      </g>
      <g
         id="g91">
        <g
           id="g83">
          <polygon
             points="34.77 169.96 32.49 168.57 30.15 169.85 30.09 172.52 32.37 173.91 34.7 172.63 34.77 169.96"
             style="fill: #2d2929"
             id="polygon79" />
          <circle
             cx="32.43"
             cy="171.23"
             r="0.77"
             transform="translate(-130.7 109.93) rotate(-58.68)"
             style="fill: #bb9965"
             id="circle81" />
        </g>
        <g
           id="g89">
          <polygon
             points="39.46 169.96 37.18 168.57 34.84 169.85 34.77 172.52 37.05 173.91 39.39 172.63 39.46 169.96"
             style="fill: #2d2929"
             id="polygon85" />
          <circle
             cx="37.12"
             cy="171.23"
             r="0.77"
             transform="translate(-128.45 113.94) rotate(-58.68)"
             style="fill: #bb9965"
             id="circle87" />
        </g>
      </g>
      <g
         id="g105">
        <g
           id="g97">
          <polygon
             points="34.77 175.39 32.49 174.01 30.15 175.29 30.09 177.95 32.37 179.34 34.7 178.06 34.77 175.39"
             style="fill: #2d2929"
             id="polygon93" />
          <circle
             cx="32.43"
             cy="176.66"
             r="0.77"
             transform="translate(-135.34 112.54) rotate(-58.68)"
             style="fill: #bb9965"
             id="circle95" />
        </g>
        <g
           id="g103">
          <polygon
             points="39.46 175.39 37.18 174.01 34.84 175.29 34.77 177.95 37.05 179.34 39.39 178.06 39.46 175.39"
             style="fill: #2d2929"
             id="polygon99" />
          <circle
             cx="37.12"
             cy="176.66"
             r="0.77"
             transform="translate(-133.09 116.54) rotate(-58.68)"
             style="fill: #bb9965"
             id="circle101" />
        </g>
      </g>
      <g
         id="g119">
        <g
           id="g111">
          <polygon
             points="34.77 180.83 32.49 179.44 30.15 180.72 30.09 183.39 32.37 184.77 34.7 183.49 34.77 180.83"
             style="fill: #2d2929"
             id="polygon107" />
          <circle
             cx="32.43"
             cy="182.1"
             r="0.77"
             transform="translate(-139.99 115.15) rotate(-58.68)"
             style="fill: #bb9965"
             id="circle109" />
        </g>
        <g
           id="g117">
          <polygon
             points="39.46 180.83 37.18 179.44 34.84 180.72 34.77 183.39 37.05 184.77 39.39 183.49 39.46 180.83"
             style="fill: #2d2929"
             id="polygon113" />
          <circle
             cx="37.13"
             cy="182.09"
             r="0.77"
             transform="translate(-137.73 119.16) rotate(-58.68)"
             style="fill: #bb9965"
             id="circle115" />
        </g>
      </g>
      <g
         id="g133">
        <g
           id="g125">
          <polygon
             points="34.77 186.26 32.49 184.87 30.15 186.15 30.09 188.82 32.37 190.21 34.7 188.93 34.77 186.26"
             style="fill: #2d2929"
             id="polygon121" />
          <circle
             cx="32.43"
             cy="187.53"
             r="0.77"
             transform="translate(-144.63 117.75) rotate(-58.68)"
             style="fill: #bb9965"
             id="circle123" />
        </g>
        <g
           id="g131">
          <polygon
             points="39.46 186.26 37.18 184.87 34.84 186.15 34.77 188.82 37.05 190.21 39.39 188.93 39.46 186.26"
             style="fill: #2d2929"
             id="polygon127" />
          <circle
             cx="37.12"
             cy="187.53"
             r="0.77"
             transform="translate(-142.38 121.75) rotate(-58.68)"
             style="fill: #bb9965"
             id="circle129" />
        </g>
      </g>
      <g
         id="g147">
        <g
           id="g139">
          <polygon
             points="34.77 191.69 32.49 190.31 30.15 191.59 30.09 194.25 32.37 195.64 34.7 194.36 34.77 191.69"
             style="fill: #2d2929"
             id="polygon135" />
          <circle
             cx="32.43"
             cy="192.95"
             r="0.77"
             transform="translate(-149.27 120.36) rotate(-58.68)"
             style="fill: #bb9965"
             id="circle137" />
        </g>
        <g
           id="g145">
          <polygon
             points="39.46 191.69 37.18 190.31 34.84 191.59 34.77 194.25 37.05 195.64 39.39 194.36 39.46 191.69"
             style="fill: #2d2929"
             id="polygon141" />
          <circle
             cx="37.12"
             cy="192.96"
             r="0.77"
             transform="translate(-147.02 124.36) rotate(-58.68)"
             style="fill: #bb9965"
             id="circle143" />
        </g>
      </g>
      <g
         id="g161">
        <g
           id="g153">
          <polygon
             points="34.77 197.12 32.49 195.74 30.15 197.02 30.09 199.68 32.37 201.07 34.7 199.79 34.77 197.12"
             style="fill: #2d2929"
             id="polygon149" />
          <circle
             cx="32.43"
             cy="198.39"
             r="0.77"
             transform="translate(-153.91 122.96) rotate(-58.68)"
             style="fill: #bb9965"
             id="circle151" />
        </g>
        <g
           id="g159">
          <polygon
             points="39.46 197.12 37.18 195.74 34.84 197.02 34.77 199.68 37.05 201.07 39.39 199.79 39.46 197.12"
             style="fill: #2d2929"
             id="polygon155" />
          <circle
             cx="37.11"
             cy="198.39"
             r="0.77"
             transform="translate(-151.66 126.97) rotate(-58.68)"
             style="fill: #bb9965"
             id="circle157" />
        </g>
      </g>
      <g
         id="g175">
        <g
           id="g167">
          <polygon
             points="34.77 202.56 32.49 201.17 30.15 202.45 30.09 205.12 32.37 206.5 34.7 205.22 34.77 202.56"
             style="fill: #2d2929"
             id="polygon163" />
          <circle
             cx="32.43"
             cy="203.83"
             r="0.77"
             transform="translate(-158.55 125.58) rotate(-58.68)"
             style="fill: #bb9965"
             id="circle165" />
        </g>
        <g
           id="g173">
          <polygon
             points="39.46 202.56 37.18 201.17 34.84 202.45 34.77 205.12 37.05 206.5 39.39 205.22 39.46 202.56"
             style="fill: #2d2929"
             id="polygon169" />
          <circle
             cx="37.12"
             cy="203.83"
             r="0.77"
             transform="translate(-156.3 129.59) rotate(-58.68)"
             style="fill: #bb9965"
             id="circle171" />
        </g>
      </g>
    </g>
    <g
       id="g291">
      <g
         id="g191">
        <g
           id="g183">
          <polygon
             points="84.27 164.53 81.99 163.14 79.65 164.42 79.59 167.09 81.86 168.48 84.2 167.2 84.27 164.53"
             style="fill: #2d2929"
             id="polygon179" />
          <circle
             cx="81.93"
             cy="165.8"
             r="0.77"
             transform="translate(-102.3 149.6) rotate(-58.68)"
             style="fill: #bb9965"
             id="circle181" />
        </g>
        <g
           id="g189">
          <polygon
             points="88.96 164.53 86.68 163.14 84.34 164.42 84.28 167.09 86.55 168.48 88.89 167.2 88.96 164.53"
             style="fill: #2d2929"
             id="polygon185" />
          <circle
             cx="86.62"
             cy="165.79"
             r="0.77"
             transform="translate(-100.04 153.61) rotate(-58.68)"
             style="fill: #bb9965"
             id="circle187" />
        </g>
      </g>
      <g
         id="g205">
        <g
           id="g197">
          <polygon
             points="84.27 169.96 81.99 168.57 79.65 169.85 79.59 172.52 81.86 173.91 84.2 172.63 84.27 169.96"
             style="fill: #2d2929"
             id="polygon193" />
          <circle
             cx="81.93"
             cy="171.23"
             r="0.77"
             transform="translate(-106.94 152.21) rotate(-58.68)"
             style="fill: #bb9965"
             id="circle195" />
        </g>
        <g
           id="g203">
          <polygon
             points="88.96 169.96 86.68 168.57 84.34 169.85 84.28 172.52 86.55 173.91 88.89 172.63 88.96 169.96"
             style="fill: #2d2929"
             id="polygon199" />
          <circle
             cx="86.61"
             cy="171.23"
             r="0.77"
             transform="translate(-104.68 156.21) rotate(-58.68)"
             style="fill: #bb9965"
             id="circle201" />
        </g>
      </g>
      <g
         id="g219">
        <g
           id="g211">
          <polygon
             points="84.27 175.39 81.99 174.01 79.65 175.29 79.59 177.95 81.86 179.34 84.2 178.06 84.27 175.39"
             style="fill: #2d2929"
             id="polygon207" />
          <circle
             cx="81.92"
             cy="176.66"
             r="0.77"
             transform="translate(-111.57 154.81) rotate(-58.68)"
             style="fill: #bb9965"
             id="circle209" />
        </g>
        <g
           id="g217">
          <polygon
             points="88.96 175.39 86.68 174.01 84.34 175.29 84.28 177.95 86.55 179.34 88.89 178.06 88.96 175.39"
             style="fill: #2d2929"
             id="polygon213" />
          <circle
             cx="86.61"
             cy="176.66"
             r="0.77"
             transform="translate(-109.33 158.82) rotate(-58.68)"
             style="fill: #bb9965"
             id="circle215" />
        </g>
      </g>
      <g
         id="g233">
        <g
           id="g225">
          <polygon
             points="84.27 180.83 81.99 179.44 79.65 180.72 79.59 183.39 81.86 184.77 84.2 183.49 84.27 180.83"
             style="fill: #2d2929"
             id="polygon221" />
          <circle
             cx="81.93"
             cy="182.09"
             r="0.77"
             transform="translate(-116.22 157.43) rotate(-58.68)"
             style="fill: #bb9965"
             id="circle223" />
        </g>
        <g
           id="g231">
          <polygon
             points="88.96 180.83 86.68 179.44 84.34 180.72 84.28 183.39 86.55 184.77 88.89 183.49 88.96 180.83"
             style="fill: #2d2929"
             id="polygon227" />
          <circle
             cx="86.62"
             cy="182.1"
             r="0.77"
             transform="translate(-113.97 161.44) rotate(-58.68)"
             style="fill: #bb9965"
             id="circle229" />
        </g>
      </g>
      <g
         id="g247">
        <g
           id="g239">
          <polygon
             points="84.27 186.26 81.99 184.87 79.65 186.15 79.59 188.82 81.86 190.21 84.2 188.93 84.27 186.26"
             style="fill: #2d2929"
             id="polygon235" />
          <circle
             cx="81.93"
             cy="187.53"
             r="0.77"
             transform="translate(-120.86 160.04) rotate(-58.68)"
             style="fill: #bb9965"
             id="circle237" />
        </g>
        <g
           id="g245">
          <polygon
             points="88.96 186.26 86.68 184.87 84.34 186.15 84.28 188.82 86.55 190.21 88.89 188.93 88.96 186.26"
             style="fill: #2d2929"
             id="polygon241" />
          <circle
             cx="86.62"
             cy="187.53"
             r="0.77"
             transform="translate(-118.61 164.04) rotate(-58.68)"
             style="fill: #bb9965"
             id="circle243" />
        </g>
      </g>
      <g
         id="g261">
        <g
           id="g253">
          <polygon
             points="84.27 191.69 81.99 190.31 79.65 191.59 79.59 194.25 81.86 195.64 84.2 194.36 84.27 191.69"
             style="fill: #2d2929"
             id="polygon249" />
          <circle
             cx="81.93"
             cy="192.96"
             r="0.77"
             transform="translate(-125.5 162.64) rotate(-58.68)"
             style="fill: #bb9965"
             id="circle251" />
        </g>
        <g
           id="g259">
          <polygon
             points="88.96 191.69 86.68 190.31 84.34 191.59 84.28 194.25 86.55 195.64 88.89 194.36 88.96 191.69"
             style="fill: #2d2929"
             id="polygon255" />
          <circle
             cx="86.62"
             cy="192.96"
             r="0.77"
             transform="translate(-123.25 166.65) rotate(-58.68)"
             style="fill: #bb9965"
             id="circle257" />
        </g>
      </g>
      <g
         id="g275">
        <g
           id="g267">
          <polygon
             points="84.27 197.12 81.99 195.74 79.65 197.02 79.59 199.68 81.86 201.07 84.2 199.79 84.27 197.12"
             style="fill: #2d2929"
             id="polygon263" />
          <circle
             cx="81.93"
             cy="198.39"
             r="0.77"
             transform="translate(-130.14 165.25) rotate(-58.68)"
             style="fill: #bb9965"
             id="circle265" />
        </g>
        <g
           id="g273">
          <polygon
             points="88.96 197.12 86.68 195.74 84.34 197.02 84.28 199.68 86.55 201.07 88.89 199.79 88.96 197.12"
             style="fill: #2d2929"
             id="polygon269" />
          <circle
             cx="86.62"
             cy="198.38"
             r="0.77"
             transform="translate(-127.88 169.25) rotate(-58.68)"
             style="fill: #bb9965"
             id="circle271" />
        </g>
      </g>
      <g
         id="g289">
        <g
           id="g281">
          <polygon
             points="84.27 202.56 81.99 201.17 79.65 202.45 79.59 205.12 81.86 206.5 84.2 205.22 84.27 202.56"
             style="fill: #2d2929"
             id="polygon277" />
          <circle
             cx="81.93"
             cy="203.83"
             r="0.77"
             transform="translate(-134.78 167.87) rotate(-58.68)"
             style="fill: #bb9965"
             id="circle279" />
        </g>
        <g
           id="g287">
          <polygon
             points="88.96 202.56 86.68 201.17 84.34 202.45 84.28 205.12 86.55 206.5 88.89 205.22 88.96 202.56"
             style="fill: #2d2929"
             id="polygon283" />
          <circle
             cx="86.62"
             cy="203.82"
             r="0.77"
             transform="translate(-132.53 171.87) rotate(-58.68)"
             style="fill: #bb9965"
             id="circle285" />
        </g>
      </g>
    </g>
    <g
       id="g361">
      <g
         id="g301">
        <path
           d="M45.6,165.23a.28.28,0,0,1,.08.21v1a1.16,1.16,0,0,1,0,.31.35.35,0,0,1-.11.17.69.69,0,0,1-.24.11,2.88,2.88,0,0,1-.45.09,3.47,3.47,0,0,1-.48,0,2,2,0,0,1-1-.22,1.5,1.5,0,0,1-.63-.62,2.22,2.22,0,0,1,0-1.92,1.51,1.51,0,0,1,.62-.63,2,2,0,0,1,1-.22,1.8,1.8,0,0,1,1.15.36.37.37,0,0,1,.1.12.33.33,0,0,1,0,.15.35.35,0,0,1-.07.22.22.22,0,0,1-.17.09h-.12l-.13-.06a1.75,1.75,0,0,0-.38-.19,1.3,1.3,0,0,0-.38-.05q-1,0-1,1.18a1.34,1.34,0,0,0,.27.91,1,1,0,0,0,.8.3,2.26,2.26,0,0,0,.58-.07v-.78h-.46a.33.33,0,0,1-.23-.07.29.29,0,0,1,0-.4.33.33,0,0,1,.23-.07h.85A.31.31,0,0,1,45.6,165.23Z"
           style="fill: #fff"
           id="path293" />
        <path
           d="M50.17,166.79a.3.3,0,0,1-.11.24.38.38,0,0,1-.26.1.33.33,0,0,1-.18-.05.32.32,0,0,1-.13-.16l-.27-.59H47.53l-.27.59a.32.32,0,0,1-.31.21.39.39,0,0,1-.26-.1.3.3,0,0,1-.12-.24.39.39,0,0,1,0-.16L48,163.79a.4.4,0,0,1,.17-.18.47.47,0,0,1,.48,0,.44.44,0,0,1,.17.18l1.35,2.83C50.18,166.68,50.22,166.74,50.17,166.79Zm-2.37-1.05H49l-.58-1.3Z"
           style="fill: #fff"
           id="path295" />
        <path
           d="M51.57,167a.37.37,0,0,1-.11-.28v-2.53h-.81c-.25,0-.37-.11-.37-.32s.12-.32.37-.32H53c.25,0,.37.11.37.32s-.12.32-.37.32h-.81v2.53a.38.38,0,0,1-.1.28A.44.44,0,0,1,51.57,167Z"
           style="fill: #fff"
           id="path297" />
        <path
           d="M54.36,167a.36.36,0,0,1-.09-.27v-2.79a.33.33,0,0,1,.29-.37H56.4c.25,0,.37.1.37.3s-.12.31-.37.31H55V165h1.27c.25,0,.37.1.37.31s-.12.3-.37.3H55v.88h1.4c.25,0,.37.1.37.31s-.12.3-.37.3H54.63A.36.36,0,0,1,54.36,167Z"
           style="fill: #fff"
           id="path299" />
      </g>
      <g
         id="g307">
        <path
           d="M43.37,172.48a1.48,1.48,0,0,1-.6-.63,2.29,2.29,0,0,1,0-1.92,1.49,1.49,0,0,1,.6-.63,2,2,0,0,1,2,.14.37.37,0,0,1,.1.12.32.32,0,0,1,0,.15.35.35,0,0,1-.07.22.22.22,0,0,1-.18.09H45.1L45,170a1.65,1.65,0,0,0-.37-.19,1.11,1.11,0,0,0-.37-.06.87.87,0,0,0-.72.3,1.38,1.38,0,0,0-.24.89q0,1.19,1,1.19a1.06,1.06,0,0,0,.35-.06,2.31,2.31,0,0,0,.38-.19l.13-.06h.12a.22.22,0,0,1,.18.09.36.36,0,0,1,.07.22.33.33,0,0,1,0,.15.37.37,0,0,1-.1.12,2,2,0,0,1-2,.14Z"
           style="fill: #fff"
           id="path303" />
        <path
           d="M49.18,169.15a.35.35,0,0,1,.19-.05.41.41,0,0,1,.27.1.31.31,0,0,1,.12.24.36.36,0,0,1,0,.15l-1.35,2.85a.39.39,0,0,1-.17.18.49.49,0,0,1-.48,0,.39.39,0,0,1-.17-.18l-1.35-2.85a.32.32,0,0,1,0-.14.31.31,0,0,1,.13-.25.44.44,0,0,1,.28-.1.36.36,0,0,1,.19.05.33.33,0,0,1,.13.16l1,2.34,1-2.34A.33.33,0,0,1,49.18,169.15Z"
           style="fill: #fff"
           id="path305" />
      </g>
      <g
         id="g315">
        <path
           d="M45,176.59a.24.24,0,0,1,.08.18.26.26,0,0,1-.26.26h-.7v.71a.24.24,0,0,1-.07.18.28.28,0,0,1-.37,0,.25.25,0,0,1-.08-.18V177h-.7a.26.26,0,0,1-.26-.26.24.24,0,0,1,.08-.18.25.25,0,0,1,.18-.07h.7v-.71a.26.26,0,0,1,.52,0s0,0,0,0v.71h.7A.25.25,0,0,1,45,176.59Z"
           style="fill: #fff"
           id="path309" />
        <path
           d="M48.1,176.07a1,1,0,0,1,.4.4,1.22,1.22,0,0,1,.14.59,1.16,1.16,0,0,1-.17.62,1.12,1.12,0,0,1-.46.42,1.52,1.52,0,0,1-.69.15,2,2,0,0,1-.61-.09,1.62,1.62,0,0,1-.51-.26.34.34,0,0,1-.11-.12.62.62,0,0,1,.07-.37.22.22,0,0,1,.18-.09h.11l.13.06a2.72,2.72,0,0,0,.37.19.93.93,0,0,0,.36.07.67.67,0,0,0,.46-.14.52.52,0,0,0,.16-.42.53.53,0,0,0-.16-.41.62.62,0,0,0-.44-.15,1.06,1.06,0,0,0-.31,0,1.38,1.38,0,0,0-.31.14.42.42,0,0,1-.21.06.29.29,0,0,1-.2-.07.24.24,0,0,1-.08-.19V175a.33.33,0,0,1,.3-.36h1.67c.25,0,.37.1.37.29s-.12.3-.37.3H47V176a1.13,1.13,0,0,1,.56-.13A1.17,1.17,0,0,1,48.1,176.07Z"
           style="fill: #fff"
           id="path311" />
        <path
           d="M52.34,174.71a.35.35,0,0,1,.19-.05.41.41,0,0,1,.27.1.31.31,0,0,1,.12.25.35.35,0,0,1,0,.15L51.53,178a.4.4,0,0,1-.17.18.49.49,0,0,1-.48,0,.4.4,0,0,1-.17-.18l-1.35-2.85a.32.32,0,0,1,0-.15.31.31,0,0,1,.13-.25.44.44,0,0,1,.28-.1.37.37,0,0,1,.19.05.32.32,0,0,1,.13.16l1.07,2.34,1.07-2.34A.33.33,0,0,1,52.34,174.71Z"
           style="fill: #fff"
           id="path313" />
      </g>
      <g
         id="g325">
        <path
           d="M45,182.15a.25.25,0,0,1,.08.18.26.26,0,0,1-.26.26h-.7v.7a.24.24,0,0,1-.07.18.26.26,0,0,1-.19.07.25.25,0,0,1-.18-.07.24.24,0,0,1-.08-.18v-.7h-.7a.26.26,0,0,1-.26-.26.25.25,0,0,1,.08-.18.26.26,0,0,1,.18-.07h.7v-.71a.26.26,0,0,1,.26-.26.26.26,0,0,1,.26.26v.71h.7A.26.26,0,0,1,45,182.15Z"
           style="fill: #fff"
           id="path317" />
        <path
           d="M48.7,183.45q0,.31-.37.32h-1.7q-.37,0-.37-.32t.37-.31h.46v-2l-.44.26a.29.29,0,0,1-.15,0,.27.27,0,0,1-.21-.1.36.36,0,0,1-.09-.24.29.29,0,0,1,.15-.26l.79-.48a.68.68,0,0,1,.35-.1.36.36,0,0,1,.38.38v2.54h.46Q48.7,183.14,48.7,183.45Z"
           style="fill: #fff"
           id="path319" />
        <path
           d="M52.14,183.45q0,.31-.37.32H49.91a.34.34,0,0,1-.25-.09.31.31,0,0,1-.09-.23.47.47,0,0,1,.15-.33l1.1-1.17a1.1,1.1,0,0,0,.37-.72.4.4,0,0,0-.12-.31.47.47,0,0,0-.33-.11.93.93,0,0,0-.35.06,3,3,0,0,0-.37.19l-.13.07h-.1a.22.22,0,0,1-.18-.1.36.36,0,0,1-.08-.23.33.33,0,0,1,0-.16.31.31,0,0,1,.11-.11,1.94,1.94,0,0,1,1.1-.36,1.51,1.51,0,0,1,.62.12.94.94,0,0,1,.41.34.92.92,0,0,1,.15.51,1.26,1.26,0,0,1-.13.57,2.48,2.48,0,0,1-.43.58l-.79.83h1.16Q52.14,183.14,52.14,183.45Z"
           style="fill: #fff"
           id="path321" />
        <path
           d="M55.84,180.26a.35.35,0,0,1,.19-.05.41.41,0,0,1,.27.1.31.31,0,0,1,.12.25.35.35,0,0,1,0,.15L55,183.55a.4.4,0,0,1-.17.18.49.49,0,0,1-.48,0,.4.4,0,0,1-.17-.18l-1.35-2.85a.32.32,0,0,1,0-.14.31.31,0,0,1,.13-.25.44.44,0,0,1,.28-.1.37.37,0,0,1,.19.05.33.33,0,0,1,.13.16l1.07,2.34,1.07-2.34A.34.34,0,0,1,55.84,180.26Z"
           style="fill: #fff"
           id="path323" />
      </g>
      <g
         id="g333">
        <path
           d="M45.6,187.45a.28.28,0,0,1,.08.21v1a1.17,1.17,0,0,1,0,.31.35.35,0,0,1-.11.17.71.71,0,0,1-.24.11,2.89,2.89,0,0,1-.45.09,3.47,3.47,0,0,1-.48,0,2,2,0,0,1-1-.22,1.5,1.5,0,0,1-.63-.62,2.22,2.22,0,0,1,0-1.93,1.5,1.5,0,0,1,.62-.63,2,2,0,0,1,1-.22,1.8,1.8,0,0,1,1.15.36.37.37,0,0,1,.1.12.33.33,0,0,1,0,.15.36.36,0,0,1-.07.22.22.22,0,0,1-.17.09h-.12l-.13-.06a1.71,1.71,0,0,0-.38-.19,1.27,1.27,0,0,0-.38-.05q-1,0-1,1.18a1.34,1.34,0,0,0,.27.91,1,1,0,0,0,.8.3,2.31,2.31,0,0,0,.58-.07v-.78h-.46a.33.33,0,0,1-.23-.07.29.29,0,0,1,0-.4.33.33,0,0,1,.23-.07h.85A.31.31,0,0,1,45.6,187.45Z"
           style="fill: #fff"
           id="path327" />
        <path
           d="M49.8,185.88a.38.38,0,0,1,.1.28V189a.39.39,0,0,1-.1.28.39.39,0,0,1-.56,0l-1.67-2.14V189a.4.4,0,0,1-.1.28.36.36,0,0,1-.52,0,.39.39,0,0,1-.1-.28v-2.8a.38.38,0,0,1,.1-.28.35.35,0,0,1,.27-.11.34.34,0,0,1,.29.13L49.18,188v-1.87a.39.39,0,0,1,.1-.28.34.34,0,0,1,.26-.11A.35.35,0,0,1,49.8,185.88Z"
           style="fill: #fff"
           id="path329" />
        <path
           d="M51.2,189.22a.37.37,0,0,1-.09-.27v-2.79a.33.33,0,0,1,.3-.36h1.07a2.16,2.16,0,0,1,1,.21,1.47,1.47,0,0,1,.63.61,1.91,1.91,0,0,1,.22.94,2,2,0,0,1-.22.95,1.46,1.46,0,0,1-.63.61,2.19,2.19,0,0,1-1,.21h-1A.37.37,0,0,1,51.2,189.22Zm1.22-.53a1.14,1.14,0,1,0,0-2.27h-.54v2.27Z"
           style="fill: #fff"
           id="path331" />
      </g>
      <g
         id="g341">
        <path
           d="M45.6,193a.28.28,0,0,1,.08.21v1a1.16,1.16,0,0,1,0,.31.35.35,0,0,1-.11.18.69.69,0,0,1-.24.11,2.77,2.77,0,0,1-.45.09,3.47,3.47,0,0,1-.48,0,2,2,0,0,1-1-.22,1.5,1.5,0,0,1-.63-.62,2.22,2.22,0,0,1,0-1.93,1.5,1.5,0,0,1,.62-.63,2,2,0,0,1,1-.22,1.8,1.8,0,0,1,1.15.36.37.37,0,0,1,.1.12.33.33,0,0,1,0,.15.36.36,0,0,1-.07.22.22.22,0,0,1-.17.09h-.12l-.13-.07a1.7,1.7,0,0,0-.38-.18,1.27,1.27,0,0,0-.38-.06q-1,0-1,1.19a1.34,1.34,0,0,0,.27.91,1,1,0,0,0,.8.3,2.26,2.26,0,0,0,.58-.08v-.77h-.46a.33.33,0,0,1-.23-.07.29.29,0,0,1,0-.4.33.33,0,0,1,.23-.07h.85A.31.31,0,0,1,45.6,193Z"
           style="fill: #fff"
           id="path335" />
        <path
           d="M49.8,191.43a.39.39,0,0,1,.1.28v2.81a.39.39,0,0,1-.1.28.39.39,0,0,1-.56,0l-1.67-2.15v1.89a.41.41,0,0,1-.1.28.36.36,0,0,1-.52,0,.39.39,0,0,1-.1-.28v-2.81a.39.39,0,0,1,.1-.28.35.35,0,0,1,.27-.11.34.34,0,0,1,.29.13l1.67,2.13v-1.87a.39.39,0,0,1,.1-.28.34.34,0,0,1,.26-.11A.36.36,0,0,1,49.8,191.43Z"
           style="fill: #fff"
           id="path337" />
        <path
           d="M51.2,194.78a.37.37,0,0,1-.09-.27v-2.79a.33.33,0,0,1,.3-.36h1.07a2.16,2.16,0,0,1,1,.21,1.47,1.47,0,0,1,.63.6,1.92,1.92,0,0,1,.22.95,2,2,0,0,1-.22.95,1.45,1.45,0,0,1-.63.61,2.17,2.17,0,0,1-1,.21h-1A.37.37,0,0,1,51.2,194.78Zm1.22-.54a1.13,1.13,0,0,0,0-2.26h-.54v2.26Z"
           style="fill: #fff"
           id="path339" />
      </g>
      <g
         id="g349">
        <path
           d="M45.6,198.56a.28.28,0,0,1,.08.21v1a1.16,1.16,0,0,1,0,.31.35.35,0,0,1-.11.17.69.69,0,0,1-.24.11,2.88,2.88,0,0,1-.45.09,3.47,3.47,0,0,1-.48,0,2,2,0,0,1-1-.22,1.5,1.5,0,0,1-.63-.62,2.22,2.22,0,0,1,0-1.92,1.51,1.51,0,0,1,.62-.63,2,2,0,0,1,1-.22,1.8,1.8,0,0,1,1.15.36.37.37,0,0,1,.1.12.33.33,0,0,1,0,.15.35.35,0,0,1-.07.22.22.22,0,0,1-.17.09h-.12l-.13-.06a1.75,1.75,0,0,0-.38-.19,1.3,1.3,0,0,0-.38-.05q-1,0-1,1.18a1.34,1.34,0,0,0,.27.91,1,1,0,0,0,.8.3,2.26,2.26,0,0,0,.58-.07V199h-.46a.33.33,0,0,1-.23-.07.29.29,0,0,1,0-.4.33.33,0,0,1,.23-.07h.85A.31.31,0,0,1,45.6,198.56Z"
           style="fill: #fff"
           id="path343" />
        <path
           d="M49.8,197a.38.38,0,0,1,.1.28v2.8a.39.39,0,0,1-.1.28.35.35,0,0,1-.27.11.36.36,0,0,1-.29-.13l-1.67-2.14v1.88a.4.4,0,0,1-.1.28.36.36,0,0,1-.52,0,.39.39,0,0,1-.1-.28v-2.8A.38.38,0,0,1,47,197a.35.35,0,0,1,.27-.11.34.34,0,0,1,.29.13l1.67,2.13v-1.87a.39.39,0,0,1,.1-.28.34.34,0,0,1,.26-.11A.35.35,0,0,1,49.8,197Z"
           style="fill: #fff"
           id="path345" />
        <path
           d="M51.2,200.33a.37.37,0,0,1-.09-.27v-2.79a.33.33,0,0,1,.28-.37h1.09a2.18,2.18,0,0,1,1,.21,1.47,1.47,0,0,1,.63.61,1.91,1.91,0,0,1,.22.94,2,2,0,0,1-.22.95,1.46,1.46,0,0,1-.63.61,2.19,2.19,0,0,1-1,.21h-1A.37.37,0,0,1,51.2,200.33Zm1.22-.53a1.14,1.14,0,0,0,0-2.27h-.54v2.27Z"
           style="fill: #fff"
           id="path347" />
      </g>
      <g
         id="g359">
        <path
           d="M42.56,204.64c0-.2.12-.29.36-.29h1c.24,0,.36.1.36.29s-.12.29-.36.29h-1Q42.56,204.94,42.56,204.64Z"
           style="fill: #fff"
           id="path351" />
        <path
           d="M47.9,205.67c0,.21-.12.32-.37.32h-1.7q-.37,0-.37-.32t.37-.31h.47v-2l-.44.26a.29.29,0,0,1-.15,0,.27.27,0,0,1-.21-.1.36.36,0,0,1-.09-.24.29.29,0,0,1,.16-.26l.79-.48a.68.68,0,0,1,.35-.1.36.36,0,0,1,.38.38v2.54h.46C47.78,205.36,47.9,205.46,47.9,205.67Z"
           style="fill: #fff"
           id="path353" />
        <path
           d="M51.34,205.67c0,.21-.12.32-.37.32H49.11a.33.33,0,0,1-.25-.09.31.31,0,0,1-.09-.23.46.46,0,0,1,.14-.33l1.1-1.17a1.11,1.11,0,0,0,.37-.72.41.41,0,0,0-.12-.31.47.47,0,0,0-.33-.11.92.92,0,0,0-.35.06,2.87,2.87,0,0,0-.37.19l-.13.07H49a.22.22,0,0,1-.18-.1.36.36,0,0,1-.08-.23.34.34,0,0,1,0-.16.31.31,0,0,1,.11-.11,1.86,1.86,0,0,1,.52-.26,1.84,1.84,0,0,1,.59-.1,1.5,1.5,0,0,1,.62.12.93.93,0,0,1,.41.34.92.92,0,0,1,.14.51,1.26,1.26,0,0,1-.1.64,2.48,2.48,0,0,1-.43.58l-.79.83H51C51.21,205.36,51.34,205.46,51.34,205.67Z"
           style="fill: #fff"
           id="path355" />
        <path
           d="M54.11,203.53a.32.32,0,0,1,.18-.05.38.38,0,0,1,.25.09.28.28,0,0,1,.11.22.32.32,0,0,1,0,.15l-.9,1.84a.37.37,0,0,1-.15.17.44.44,0,0,1-.43,0,.39.39,0,0,1-.16-.17l-.9-1.84a.35.35,0,0,1,0-.13.29.29,0,0,1,.12-.23.41.41,0,0,1,.26-.09.35.35,0,0,1,.19.05.36.36,0,0,1,.14.16l.61,1.34L54,203.7A.36.36,0,0,1,54.11,203.53Z"
           style="fill: #fff"
           id="path357" />
      </g>
    </g>
    <g
       id="g431">
      <g
         id="g371">
        <path
           d="M95.94,165.23a.28.28,0,0,1,.08.21v1a1.16,1.16,0,0,1,0,.31.35.35,0,0,1-.11.17.69.69,0,0,1-.24.11,2.88,2.88,0,0,1-.45.09,3.47,3.47,0,0,1-.48,0,2,2,0,0,1-1-.22,1.5,1.5,0,0,1-.63-.62,2.22,2.22,0,0,1,0-1.92,1.51,1.51,0,0,1,.62-.63,2,2,0,0,1,.95-.22,1.8,1.8,0,0,1,1.15.36.37.37,0,0,1,.1.12.33.33,0,0,1,0,.15.35.35,0,0,1-.07.22.22.22,0,0,1-.17.09h-.12l-.13-.06a1.75,1.75,0,0,0-.38-.19,1.3,1.3,0,0,0-.38-.05q-1,0-1,1.18a1.34,1.34,0,0,0,.27.91,1,1,0,0,0,.8.3,2.26,2.26,0,0,0,.58-.07v-.78h-.46a.33.33,0,0,1-.23-.07.29.29,0,0,1,0-.4.33.33,0,0,1,.23-.07h.85A.31.31,0,0,1,95.94,165.23Z"
           style="fill: #fff"
           id="path363" />
        <path
           d="M100.51,166.79a.3.3,0,0,1-.11.24.38.38,0,0,1-.26.1.33.33,0,0,1-.18-.05.32.32,0,0,1-.13-.16l-.27-.59H97.87l-.27.59a.32.32,0,0,1-.31.21A.39.39,0,0,1,97,167a.3.3,0,0,1-.12-.24.39.39,0,0,1,0-.16l1.35-2.83a.4.4,0,0,1,.17-.18.47.47,0,0,1,.48,0,.44.44,0,0,1,.17.18l1.35,2.83A.41.41,0,0,1,100.51,166.79Zm-2.37-1.05H99.3l-.58-1.3Z"
           style="fill: #fff"
           id="path365" />
        <path
           d="M101.91,167a.37.37,0,0,1-.11-.28v-2.53H101c-.25,0-.37-.11-.37-.32s.12-.32.37-.32h2.4c.25,0,.37.11.37.32s-.12.32-.37.32h-.81v2.53a.38.38,0,0,1-.1.28.44.44,0,0,1-.57,0Z"
           style="fill: #fff"
           id="path367" />
        <path
           d="M104.69,167a.36.36,0,0,1-.09-.27v-2.79a.33.33,0,0,1,.29-.37h1.84c.25,0,.37.1.37.3s-.12.31-.37.31h-1.37V165h1.27c.25,0,.37.1.37.31s-.12.3-.37.3h-1.27v.88h1.38c.25,0,.37.1.37.31s-.12.3-.37.3H105A.36.36,0,0,1,104.69,167Z"
           style="fill: #fff"
           id="path369" />
      </g>
      <g
         id="g377">
        <path
           d="M93.7,172.48a1.48,1.48,0,0,1-.6-.63,2.29,2.29,0,0,1,0-1.92,1.49,1.49,0,0,1,.6-.63,2,2,0,0,1,2,.14.37.37,0,0,1,.1.12.32.32,0,0,1,0,.15.35.35,0,0,1-.07.22.22.22,0,0,1-.18.09h-.12l-.12-.06a1.65,1.65,0,0,0-.37-.19,1.11,1.11,0,0,0-.37-.06.87.87,0,0,0-.72.3,1.38,1.38,0,0,0-.24.89q0,1.19,1,1.19A1.06,1.06,0,0,0,95,172a2.31,2.31,0,0,0,.38-.19l.13-.06h.12a.22.22,0,0,1,.18.09.36.36,0,0,1,.07.22.33.33,0,0,1,0,.15.37.37,0,0,1-.1.12,2,2,0,0,1-2,.14Z"
           style="fill: #fff"
           id="path373" />
        <path
           d="M99.51,169.15a.35.35,0,0,1,.19-.05.41.41,0,0,1,.27.1.31.31,0,0,1,.12.24.36.36,0,0,1,0,.15l-1.35,2.85a.39.39,0,0,1-.17.18.49.49,0,0,1-.48,0,.39.39,0,0,1-.17-.18l-1.35-2.85a.32.32,0,0,1,0-.14.31.31,0,0,1,.13-.25.44.44,0,0,1,.28-.1.36.36,0,0,1,.19.05.33.33,0,0,1,.13.16l1.07,2.34,1.07-2.34A.33.33,0,0,1,99.51,169.15Z"
           style="fill: #fff"
           id="path375" />
      </g>
      <g
         id="g385">
        <path
           d="M95.29,176.59a.24.24,0,0,1,.08.18.26.26,0,0,1-.26.26h-.7v.71a.24.24,0,0,1-.07.18.28.28,0,0,1-.37,0,.25.25,0,0,1-.08-.18V177h-.7a.26.26,0,0,1-.26-.26.24.24,0,0,1,.08-.18.25.25,0,0,1,.18-.07h.7v-.71a.26.26,0,0,1,.52,0s0,0,0,0v.71h.7A.25.25,0,0,1,95.29,176.59Z"
           style="fill: #fff"
           id="path379" />
        <path
           d="M98.43,176.07a1,1,0,0,1,.4.4,1.22,1.22,0,0,1,.14.59,1.16,1.16,0,0,1-.17.62,1.12,1.12,0,0,1-.46.42,1.52,1.52,0,0,1-.69.15,2,2,0,0,1-.61-.09,1.62,1.62,0,0,1-.51-.26.34.34,0,0,1-.11-.12.62.62,0,0,1,.07-.37.22.22,0,0,1,.18-.09h.11l.13.06a2.72,2.72,0,0,0,.37.19.93.93,0,0,0,.36.07.67.67,0,0,0,.46-.14.52.52,0,0,0,.16-.42.53.53,0,0,0-.16-.41.62.62,0,0,0-.44-.15,1.06,1.06,0,0,0-.31,0,1.38,1.38,0,0,0-.31.14.42.42,0,0,1-.21.06.29.29,0,0,1-.2-.07.24.24,0,0,1-.08-.19V175a.33.33,0,0,1,.3-.36h1.67c.25,0,.37.1.37.29s-.12.3-.37.3H97.29V176a1.13,1.13,0,0,1,.56-.13A1.17,1.17,0,0,1,98.43,176.07Z"
           style="fill: #fff"
           id="path381" />
        <path
           d="M102.67,174.71a.35.35,0,0,1,.19-.05.41.41,0,0,1,.27.1.31.31,0,0,1,.12.25.35.35,0,0,1,0,.15L101.87,178a.4.4,0,0,1-.17.18.49.49,0,0,1-.48,0,.4.4,0,0,1-.17-.18l-1.35-2.85a.32.32,0,0,1,0-.15.31.31,0,0,1,.13-.25.44.44,0,0,1,.28-.1.37.37,0,0,1,.19.05.32.32,0,0,1,.13.16l1.07,2.34,1.07-2.34A.33.33,0,0,1,102.67,174.71Z"
           style="fill: #fff"
           id="path383" />
      </g>
      <g
         id="g395">
        <path
           d="M95.29,182.15a.25.25,0,0,1,.08.18.26.26,0,0,1-.26.26h-.7v.7a.24.24,0,0,1-.07.18.26.26,0,0,1-.19.07.25.25,0,0,1-.18-.07.24.24,0,0,1-.08-.18v-.7h-.7a.26.26,0,0,1-.26-.26.25.25,0,0,1,.08-.18.26.26,0,0,1,.18-.07h.7v-.71a.26.26,0,0,1,.26-.26.26.26,0,0,1,.26.26v.71h.7A.26.26,0,0,1,95.29,182.15Z"
           style="fill: #fff"
           id="path387" />
        <path
           d="M99,183.45q0,.31-.37.32H97q-.37,0-.37-.32t.37-.31h.46v-2l-.44.26a.29.29,0,0,1-.15,0,.27.27,0,0,1-.21-.1.36.36,0,0,1-.09-.24.29.29,0,0,1,.15-.26l.79-.48a.68.68,0,0,1,.35-.1.36.36,0,0,1,.38.38v2.54h.46A.27.27,0,0,1,99,183.45Z"
           style="fill: #fff"
           id="path389" />
        <path
           d="M102.47,183.45q0,.31-.37.32h-1.86a.34.34,0,0,1-.25-.09.31.31,0,0,1-.09-.23.47.47,0,0,1,.15-.33l1.1-1.17a1.1,1.1,0,0,0,.37-.72.4.4,0,0,0-.12-.31.47.47,0,0,0-.33-.11.93.93,0,0,0-.35.06,3,3,0,0,0-.37.19l-.13.07h-.1a.22.22,0,0,1-.18-.1.36.36,0,0,1-.08-.23.33.33,0,0,1,0-.16.31.31,0,0,1,.11-.11,1.94,1.94,0,0,1,1.1-.36,1.51,1.51,0,0,1,.62.12.94.94,0,0,1,.41.34.92.92,0,0,1,.15.51,1.26,1.26,0,0,1-.13.57,2.48,2.48,0,0,1-.43.58l-.79.83h1.16Q102.47,183.14,102.47,183.45Z"
           style="fill: #fff"
           id="path391" />
        <path
           d="M106.18,180.26a.35.35,0,0,1,.19-.05.41.41,0,0,1,.27.1.31.31,0,0,1,.12.25.35.35,0,0,1,0,.15l-1.35,2.85a.4.4,0,0,1-.17.18.49.49,0,0,1-.48,0,.4.4,0,0,1-.17-.18l-1.35-2.85a.32.32,0,0,1,0-.14.31.31,0,0,1,.13-.25.44.44,0,0,1,.28-.1.37.37,0,0,1,.19.05.33.33,0,0,1,.13.16l1.07,2.34,1.07-2.34A.34.34,0,0,1,106.18,180.26Z"
           style="fill: #fff"
           id="path393" />
      </g>
      <g
         id="g403">
        <path
           d="M95.94,187.45a.28.28,0,0,1,.08.21v1a1.17,1.17,0,0,1,0,.31.35.35,0,0,1-.11.17.71.71,0,0,1-.24.11,2.89,2.89,0,0,1-.45.09,3.47,3.47,0,0,1-.48,0,2,2,0,0,1-1-.22,1.5,1.5,0,0,1-.63-.62,2.22,2.22,0,0,1,0-1.93,1.5,1.5,0,0,1,.62-.63,2,2,0,0,1,.95-.22,1.8,1.8,0,0,1,1.15.36.37.37,0,0,1,.1.12.33.33,0,0,1,0,.15.36.36,0,0,1-.07.22.22.22,0,0,1-.17.09h-.12l-.13-.06a1.71,1.71,0,0,0-.38-.19,1.27,1.27,0,0,0-.38-.05q-1,0-1,1.18a1.34,1.34,0,0,0,.27.91,1,1,0,0,0,.8.3,2.31,2.31,0,0,0,.58-.07v-.78h-.46a.33.33,0,0,1-.23-.07.29.29,0,0,1,0-.4.33.33,0,0,1,.23-.07h.85A.31.31,0,0,1,95.94,187.45Z"
           style="fill: #fff"
           id="path397" />
        <path
           d="M100.14,185.88a.38.38,0,0,1,.1.28V189a.39.39,0,0,1-.1.28.39.39,0,0,1-.56,0l-1.67-2.14V189a.4.4,0,0,1-.1.28.36.36,0,0,1-.52,0,.39.39,0,0,1-.1-.28v-2.8a.38.38,0,0,1,.1-.28.35.35,0,0,1,.27-.11.34.34,0,0,1,.29.13L99.51,188v-1.87a.39.39,0,0,1,.1-.28.34.34,0,0,1,.26-.11A.35.35,0,0,1,100.14,185.88Z"
           style="fill: #fff"
           id="path399" />
        <path
           d="M101.53,189.22a.37.37,0,0,1-.09-.27v-2.79a.33.33,0,0,1,.3-.36h1.07a2.16,2.16,0,0,1,1,.21,1.47,1.47,0,0,1,.63.61,1.91,1.91,0,0,1,.22.94,2,2,0,0,1-.22.95,1.46,1.46,0,0,1-.63.61,2.19,2.19,0,0,1-1,.21h-1A.37.37,0,0,1,101.53,189.22Zm1.22-.53a1.14,1.14,0,1,0,0-2.27h-.54v2.27Z"
           style="fill: #fff"
           id="path401" />
      </g>
      <g
         id="g411">
        <path
           d="M95.94,193a.28.28,0,0,1,.08.21v1a1.16,1.16,0,0,1,0,.31.35.35,0,0,1-.11.18.69.69,0,0,1-.24.11,2.77,2.77,0,0,1-.45.09,3.47,3.47,0,0,1-.48,0,2,2,0,0,1-1-.22,1.5,1.5,0,0,1-.63-.62,2.22,2.22,0,0,1,0-1.93,1.5,1.5,0,0,1,.62-.63,2,2,0,0,1,.95-.22,1.8,1.8,0,0,1,1.15.36.37.37,0,0,1,.1.12.33.33,0,0,1,0,.15.36.36,0,0,1-.07.22.22.22,0,0,1-.17.09h-.12l-.13-.07a1.7,1.7,0,0,0-.38-.18,1.27,1.27,0,0,0-.38-.06q-1,0-1,1.19A1.34,1.34,0,0,0,94,194a1,1,0,0,0,.8.3,2.26,2.26,0,0,0,.58-.08v-.77h-.46a.33.33,0,0,1-.23-.07.29.29,0,0,1,0-.4.33.33,0,0,1,.23-.07h.85A.31.31,0,0,1,95.94,193Z"
           style="fill: #fff"
           id="path405" />
        <path
           d="M100.14,191.43a.39.39,0,0,1,.1.28v2.81a.39.39,0,0,1-.1.28.39.39,0,0,1-.56,0l-1.67-2.15v1.89a.41.41,0,0,1-.1.28.36.36,0,0,1-.52,0,.39.39,0,0,1-.1-.28v-2.81a.39.39,0,0,1,.1-.28.35.35,0,0,1,.27-.11.34.34,0,0,1,.29.13l1.67,2.13v-1.87a.39.39,0,0,1,.1-.28.34.34,0,0,1,.26-.11A.36.36,0,0,1,100.14,191.43Z"
           style="fill: #fff"
           id="path407" />
        <path
           d="M101.53,194.78a.37.37,0,0,1-.09-.27v-2.79a.33.33,0,0,1,.3-.36h1.07a2.16,2.16,0,0,1,1,.21,1.47,1.47,0,0,1,.63.6,1.92,1.92,0,0,1,.22.95,2,2,0,0,1-.22.95,1.45,1.45,0,0,1-.63.61,2.17,2.17,0,0,1-1,.21h-1A.37.37,0,0,1,101.53,194.78Zm1.22-.54a1.13,1.13,0,0,0,0-2.26h-.54v2.26Z"
           style="fill: #fff"
           id="path409" />
      </g>
      <g
         id="g419">
        <path
           d="M95.94,198.56a.28.28,0,0,1,.08.21v1a1.16,1.16,0,0,1,0,.31.35.35,0,0,1-.11.17.69.69,0,0,1-.24.11,2.88,2.88,0,0,1-.45.09,3.47,3.47,0,0,1-.48,0,2,2,0,0,1-1-.22,1.5,1.5,0,0,1-.63-.62,2.22,2.22,0,0,1,0-1.92,1.51,1.51,0,0,1,.62-.63,2,2,0,0,1,.95-.22,1.8,1.8,0,0,1,1.15.36.37.37,0,0,1,.1.12.33.33,0,0,1,0,.15.35.35,0,0,1-.07.22.22.22,0,0,1-.17.09h-.12l-.13-.06a1.75,1.75,0,0,0-.38-.19,1.3,1.3,0,0,0-.38-.05q-1,0-1,1.18a1.34,1.34,0,0,0,.27.91,1,1,0,0,0,.8.3,2.26,2.26,0,0,0,.58-.07V199h-.46a.33.33,0,0,1-.23-.07.29.29,0,0,1,0-.4.33.33,0,0,1,.23-.07h.85A.31.31,0,0,1,95.94,198.56Z"
           style="fill: #fff"
           id="path413" />
        <path
           d="M100.14,197a.38.38,0,0,1,.1.28v2.8a.39.39,0,0,1-.1.28.35.35,0,0,1-.27.11.36.36,0,0,1-.29-.13l-1.67-2.14v1.88a.4.4,0,0,1-.1.28.36.36,0,0,1-.52,0,.39.39,0,0,1-.1-.28v-2.8a.38.38,0,0,1,.1-.28.35.35,0,0,1,.27-.11.34.34,0,0,1,.29.13l1.67,2.13v-1.87a.39.39,0,0,1,.1-.28.34.34,0,0,1,.26-.11A.35.35,0,0,1,100.14,197Z"
           style="fill: #fff"
           id="path415" />
        <path
           d="M101.53,200.33a.37.37,0,0,1-.09-.27v-2.79a.33.33,0,0,1,.28-.37h1.09a2.18,2.18,0,0,1,1,.21,1.47,1.47,0,0,1,.63.61,1.91,1.91,0,0,1,.22.94,2,2,0,0,1-.22.95,1.46,1.46,0,0,1-.63.61,2.19,2.19,0,0,1-1,.21h-1A.37.37,0,0,1,101.53,200.33Zm1.22-.53a1.14,1.14,0,0,0,0-2.27h-.54v2.27Z"
           style="fill: #fff"
           id="path417" />
      </g>
      <g
         id="g429">
        <path
           d="M92.89,204.64c0-.2.12-.29.36-.29h1c.24,0,.36.1.36.29s-.12.29-.36.29h-1Q92.89,204.94,92.89,204.64Z"
           style="fill: #fff"
           id="path421" />
        <path
           d="M98.23,205.67c0,.21-.12.32-.37.32h-1.7q-.37,0-.37-.32t.37-.31h.47v-2l-.44.26a.29.29,0,0,1-.15,0,.27.27,0,0,1-.21-.1.36.36,0,0,1-.09-.24.29.29,0,0,1,.16-.26l.79-.48a.68.68,0,0,1,.35-.1.36.36,0,0,1,.38.38v2.54h.46C98.11,205.36,98.23,205.46,98.23,205.67Z"
           style="fill: #fff"
           id="path423" />
        <path
           d="M101.67,205.67c0,.21-.12.32-.37.32H99.44a.33.33,0,0,1-.25-.09.31.31,0,0,1-.09-.23.46.46,0,0,1,.14-.33l1.1-1.17a1.11,1.11,0,0,0,.37-.72.41.41,0,0,0-.12-.31.47.47,0,0,0-.33-.11.92.92,0,0,0-.35.06,2.87,2.87,0,0,0-.37.19l-.13.07H99.3a.22.22,0,0,1-.18-.1A.36.36,0,0,1,99,203a.34.34,0,0,1,0-.16.31.31,0,0,1,.11-.11,1.86,1.86,0,0,1,.52-.26,1.84,1.84,0,0,1,.59-.1,1.5,1.5,0,0,1,.62.12.93.93,0,0,1,.41.34.92.92,0,0,1,.14.51,1.26,1.26,0,0,1-.13.57,2.48,2.48,0,0,1-.43.58l-.79.83h1.16C101.55,205.36,101.67,205.46,101.67,205.67Z"
           style="fill: #fff"
           id="path425" />
        <path
           d="M104.44,203.53a.32.32,0,0,1,.18-.05.38.38,0,0,1,.25.09.28.28,0,0,1,.11.22.32.32,0,0,1,0,.15l-.9,1.84a.37.37,0,0,1-.15.17.44.44,0,0,1-.43,0,.39.39,0,0,1-.16-.17l-.9-1.84a.35.35,0,0,1,0-.13.29.29,0,0,1,.12-.23.41.41,0,0,1,.26-.09.35.35,0,0,1,.19.05.36.36,0,0,1,.14.16l.61,1.34.61-1.34A.36.36,0,0,1,104.44,203.53Z"
           style="fill: #fff"
           id="path427" />
      </g>
    </g>
    <g
       id="g454">
      <g
         id="g449">
        <path
           d="M21.63,156.47a.73.73,0,0,1,.14.45.71.71,0,0,1-.27.58,1.17,1.17,0,0,1-.75.21H19.67a.27.27,0,0,1-.3-.3V155.1a.27.27,0,0,1,.24-.3h1.06a1.17,1.17,0,0,1,.72.2.66.66,0,0,1,.27.55.67.67,0,0,1-.12.4.69.69,0,0,1-.34.25A.73.73,0,0,1,21.63,156.47ZM20,156h.61a.63.63,0,0,0,.37-.08.3.3,0,0,0,.12-.26.31.31,0,0,0-.12-.27.63.63,0,0,0-.37-.08H20Zm1,1.14a.33.33,0,0,0,.12-.28.34.34,0,0,0-.12-.28.6.6,0,0,0-.37-.09H20v.74h.68A.62.62,0,0,0,21,157.14Z"
           style="fill: #fff"
           id="path433" />
        <path
           d="M22.6,157.44a1.24,1.24,0,0,1-.32-.92v-1.41a.3.3,0,0,1,.28-.32h0a.31.31,0,0,1,.23.09.32.32,0,0,1,.08.23v1.44a.78.78,0,0,0,.16.53.67.67,0,0,0,.92,0,.78.78,0,0,0,.16-.53v-1.44a.32.32,0,0,1,.08-.23.31.31,0,0,1,.23-.09.3.3,0,0,1,.32.32v1.41a1.24,1.24,0,0,1-.32.92,1.53,1.53,0,0,1-1.87,0Z"
           style="fill: #fff"
           id="path435" />
        <path
           d="M25.87,157.68a1.26,1.26,0,0,1-.46-.22.29.29,0,0,1-.09-.1.3.3,0,0,1,0-.31.19.19,0,0,1,.15-.08h.09l.11.05a1.37,1.37,0,0,0,.36.16,1.47,1.47,0,0,0,.4.05.79.79,0,0,0,.42-.09.29.29,0,0,0,.14-.26.23.23,0,0,0-.13-.21,1.74,1.74,0,0,0-.48-.15,2.63,2.63,0,0,1-.61-.19.8.8,0,0,1-.33-.28.73.73,0,0,1-.11-.4.78.78,0,0,1,.15-.47,1,1,0,0,1,.42-.33,1.48,1.48,0,0,1,.6-.12,1.54,1.54,0,0,1,1,.29.33.33,0,0,1,.09.1.27.27,0,0,1,0,.13.28.28,0,0,1-.06.18.19.19,0,0,1-.15.08H27.3l-.11-.05a1.72,1.72,0,0,0-.31-.16,1,1,0,0,0-.36-.05.71.71,0,0,0-.4.1.31.31,0,0,0-.14.27.24.24,0,0,0,.06.16.47.47,0,0,0,.19.11l.37.1a2,2,0,0,1,.81.32.64.64,0,0,1,.25.53.78.78,0,0,1-.15.47,1,1,0,0,1-.41.31,1.59,1.59,0,0,1-.62.11A2.29,2.29,0,0,1,25.87,157.68Z"
           style="fill: #fff"
           id="path437" />
        <path
           d="M31.7,156.47a.73.73,0,0,1,.14.45.71.71,0,0,1-.27.58,1.17,1.17,0,0,1-.75.21H29.74a.27.27,0,0,1-.3-.3V155.1a.27.27,0,0,1,.24-.3h1.06a1.17,1.17,0,0,1,.72.2.66.66,0,0,1,.27.55.67.67,0,0,1-.12.4.69.69,0,0,1-.34.25A.73.73,0,0,1,31.7,156.47ZM30.07,156h.61a.63.63,0,0,0,.37-.08.3.3,0,0,0,.12-.26.31.31,0,0,0-.12-.27.63.63,0,0,0-.37-.08h-.61Zm1,1.15a.33.33,0,0,0,.12-.28.34.34,0,0,0-.12-.28.6.6,0,0,0-.37-.09h-.68v.74h.68a.62.62,0,0,0,.37-.1Z"
           style="fill: #fff"
           id="path439" />
        <path
           d="M33,157.58a1.24,1.24,0,0,1-.49-.52,1.89,1.89,0,0,1,0-1.58A1.23,1.23,0,0,1,33,155a1.65,1.65,0,0,1,1.51,0,1.23,1.23,0,0,1,.49.52,1.89,1.89,0,0,1,0,1.58,1.24,1.24,0,0,1-.49.52,1.64,1.64,0,0,1-1.51,0Zm1.33-.57a1.42,1.42,0,0,0,0-1.48.77.77,0,0,0-1.09-.06l-.06.06a1.43,1.43,0,0,0,0,1.48.76.76,0,0,0,1.07.07l.07-.07Z"
           style="fill: #fff"
           id="path441" />
        <path
           d="M38.37,157.46a.25.25,0,0,1-.09.2.32.32,0,0,1-.21.08.19.19,0,0,1-.26-.13l-.22-.49h-1.4l-.22.49a.27.27,0,0,1-.26.17.32.32,0,0,1-.21-.08.25.25,0,0,1-.1-.2.34.34,0,0,1,0-.13L36.55,155a.32.32,0,0,1,.14-.15.39.39,0,0,1,.39,0,.37.37,0,0,1,.14.15l1.12,2.34A.34.34,0,0,1,38.37,157.46Zm-2-.87h1l-.48-1.07Z"
           style="fill: #fff"
           id="path443" />
        <path
           d="M41.26,157.49a.23.23,0,0,1-.09.19.35.35,0,0,1-.37,0,.31.31,0,0,1-.12-.12l-.55-.81a.48.48,0,0,0-.15-.15.38.38,0,0,0-.2,0h-.33v.83a.32.32,0,0,1-.08.24.31.31,0,0,1-.23.09.3.3,0,0,1-.32-.32v-2.31a.27.27,0,0,1,.24-.3h1.06a1.16,1.16,0,0,1,.77.23.81.81,0,0,1,.26.65.84.84,0,0,1-.19.56.89.89,0,0,1-.53.29.54.54,0,0,1,.22.1.84.84,0,0,1,.19.21l.31.47A.31.31,0,0,1,41.26,157.49ZM40.45,156a.44.44,0,0,0,0-.61.67.67,0,0,0-.4-.09h-.62v.8H40A.66.66,0,0,0,40.45,156Z"
           style="fill: #fff"
           id="path445" />
        <path
           d="M41.87,157.65a.3.3,0,0,1-.08-.22v-2.31a.27.27,0,0,1,.24-.3h.89a1.79,1.79,0,0,1,.82.17,1.21,1.21,0,0,1,.52.5,1.58,1.58,0,0,1,.18.78,1.61,1.61,0,0,1-.18.78,1.2,1.2,0,0,1-.52.5,1.81,1.81,0,0,1-.82.17h-.83A.3.3,0,0,1,41.87,157.65Zm1-.44a.94.94,0,0,0,0-1.87h-.44v1.87Z"
           style="fill: #fff"
           id="path447" />
      </g>
      <g
         id="g1794">
        <g
           id="g1792">
          <path
             id="path1790"
             d="M18.25,155.39a.22.22,0,0,0-.1-.13.19.19,0,0,0-.16,0,.22.22,0,0,0-.13.1,10.83,10.83,0,0,1-.82,1.25,5.3,5.3,0,0,1-.51-1.59v-.1l.49-.69c.06-.08.31-.38-.19-.6a.78.78,0,0,0-.58,0c-.57.25-.47,1-.46,1.18a.55.55,0,0,0,0,.15l-.93,1.53.14-.95a.34.34,0,0,0-.26-.39h0c-.25-.06-.4,0-.56.65s-.63,1.88-1,1.87-.06-.84.17-1.45A4.78,4.78,0,0,1,15.08,154c.17-.11.39-.37.16-.63s-.61-.07-.74,0a3.62,3.62,0,0,0-.86,1.07A5.62,5.62,0,0,0,13,156c-.25.8-.51,2.1,0,2.15.74.07,1.33-1.37,1.33-1.37s0,.75.34.77,1.11-1.45,1.32-2a5.51,5.51,0,0,0,.62,1.37v.1a10.35,10.35,0,0,0-1.12,2,.2.2,0,0,0,0,.18.19.19,0,0,0,.12.1.28.28,0,0,0,.18,0l.16-.09c1.19-.68,1.36-1.48,1.27-2.09l.06-.1a10.4,10.4,0,0,0,1-1.42.19.19,0,0,0,0-.16Z"
             style="fill: #fff" />
        </g>
      </g>
    </g>
    <g
       id="g488">
      <g
         id="g462">
        <polygon
           points="4 164.93 2.44 163.98 0.83 164.86 0.79 166.69 2.36 167.64 3.96 166.76 4 164.93"
           style="fill: #bb9965"
           id="polygon456" />
        <circle
           cx="2.41"
           cy="165.8"
           r="0.9"
           transform="translate(-140.48 81.67) rotate(-58.68)"
           style="fill: #bbbdbf"
           id="circle458" />
        <path
           d="M2.15,165H0v1.6H2.15a.8.8,0,1,0,0-1.6Z"
           style="fill: #929497"
           id="path460" />
      </g>
      <g
         id="g470">
        <polygon
           points="4 177.61 2.44 176.66 0.83 177.53 0.79 179.37 2.36 180.32 3.96 179.44 4 177.61"
           style="fill: #bb9965"
           id="polygon464" />
        <circle
           cx="2.41"
           cy="178.48"
           r="0.9"
           transform="translate(-151.32 87.76) rotate(-58.68)"
           style="fill: #bbbdbf"
           id="circle466" />
        <path
           d="M2.15,177.65H0v1.6H2.15a.8.8,0,1,0,0-1.6Z"
           style="fill: #929497"
           id="path468" />
      </g>
      <g
         id="g478">
        <polygon
           points="4 190.29 2.44 189.33 0.83 190.21 0.79 192.04 2.36 193 3.96 192.12 4 190.29"
           style="fill: #bb9965"
           id="polygon472" />
        <circle
           cx="2.4"
           cy="191.15"
           r="0.9"
           transform="translate(-162.14 93.84) rotate(-58.68)"
           style="fill: #bbbdbf"
           id="circle474" />
        <path
           d="M2.15,190.33H0v1.6H2.15a.8.8,0,1,0,0-1.6Z"
           style="fill: #929497"
           id="path476" />
      </g>
      <g
         id="g486">
        <polygon
           points="4 202.96 2.44 202.01 0.83 202.89 0.79 204.72 2.36 205.67 3.96 204.79 4 202.96"
           style="fill: #bb9965"
           id="polygon480" />
        <circle
           cx="2.4"
           cy="203.83"
           r="0.9"
           transform="translate(-172.97 99.93) rotate(-58.68)"
           style="fill: #bbbdbf"
           id="circle482" />
        <path
           d="M2.15,203H0v1.6H2.15a.8.8,0,1,0,0-1.6Z"
           style="fill: #929497"
           id="path484" />
      </g>
    </g>
    <g
       id="g522">
      <g
         id="g496">
        <polygon
           points="115.87 204.72 117.44 205.67 119.05 204.79 119.09 202.96 117.52 202.01 115.92 202.89 115.87 204.72"
           style="fill: #bb9965"
           id="polygon490" />
        <circle
           cx="117.47"
           cy="203.83"
           r="0.9"
           transform="translate(-117.72 198.23) rotate(-58.68)"
           style="fill: #bbbdbf"
           id="circle492" />
        <path
           d="M117.72,204.68h2.15v-1.6h-2.15a.8.8,0,0,0,0,1.6Z"
           style="fill: #929497"
           id="path494" />
      </g>
      <g
         id="g504">
        <polygon
           points="115.87 192.04 117.44 193 119.05 192.12 119.09 190.29 117.52 189.33 115.92 190.21 115.87 192.04"
           style="fill: #bb9965"
           id="polygon498" />
        <circle
           cx="117.47"
           cy="191.15"
           r="0.9"
           transform="translate(-106.89 192.14) rotate(-58.68)"
           style="fill: #bbbdbf"
           id="circle500" />
        <path
           d="M117.72,192h2.15v-1.6h-2.15a.8.8,0,0,0,0,1.6Z"
           style="fill: #929497"
           id="path502" />
      </g>
      <g
         id="g512">
        <polygon
           points="115.87 179.37 117.44 180.32 119.05 179.44 119.09 177.61 117.52 176.66 115.92 177.53 115.87 179.37"
           style="fill: #bb9965"
           id="polygon506" />
        <circle
           cx="117.48"
           cy="178.48"
           r="0.9"
           transform="translate(-96.06 186.06) rotate(-58.68)"
           style="fill: #bbbdbf"
           id="circle508" />
        <path
           d="M117.72,179.32h2.15v-1.6h-2.15a.8.8,0,0,0,0,1.6Z"
           style="fill: #929497"
           id="path510" />
      </g>
      <g
         id="g520">
        <polygon
           points="115.87 166.69 117.44 167.64 119.05 166.76 119.09 164.93 117.52 163.98 115.92 164.86 115.87 166.69"
           style="fill: #bb9965"
           id="polygon514" />
        <circle
           cx="117.48"
           cy="165.8"
           r="0.9"
           transform="translate(-85.23 179.97) rotate(-58.68)"
           style="fill: #bbbdbf"
           id="circle516" />
        <path
           d="M117.72,166.65h2.15V165h-2.15a.8.8,0,0,0,0,1.6Z"
           style="fill: #929497"
           id="path518" />
      </g>
    </g>
    <g
       id="g530">
      <path
         d="M8.57,165.81a.24.24,0,0,1,.08.18.26.26,0,0,1-.26.26h-.7V167a.24.24,0,0,1-.07.18.28.28,0,0,1-.37,0,.25.25,0,0,1-.08-.18v-.71h-.7A.26.26,0,0,1,6.2,166a.24.24,0,0,1,.08-.18.25.25,0,0,1,.18-.07h.7V165a.26.26,0,0,1,.52,0s0,0,0,0v.71h.7A.25.25,0,0,1,8.57,165.81Z"
         style="fill: #fff"
         id="path524" />
      <path
         d="M11.72,165.29a1,1,0,0,1,.4.4,1.22,1.22,0,0,1,.14.59,1.16,1.16,0,0,1-.17.62,1.12,1.12,0,0,1-.46.42,1.52,1.52,0,0,1-.69.15,2,2,0,0,1-.61-.09,1.62,1.62,0,0,1-.51-.26.34.34,0,0,1-.11-.12.62.62,0,0,1,.07-.37.22.22,0,0,1,.18-.09h.11l.13.06a2.72,2.72,0,0,0,.37.19.93.93,0,0,0,.36.07.67.67,0,0,0,.46-.14.52.52,0,0,0,.16-.42.53.53,0,0,0-.16-.41.62.62,0,0,0-.44-.15,1.06,1.06,0,0,0-.31,0,1.38,1.38,0,0,0-.31.14.42.42,0,0,1-.21.06.29.29,0,0,1-.2-.07.24.24,0,0,1-.08-.19v-1.46a.33.33,0,0,1,.3-.36h1.67c.25,0,.37.1.37.29s-.12.3-.37.3H10.57v.79a1.13,1.13,0,0,1,.56-.13A1.17,1.17,0,0,1,11.72,165.29Z"
         style="fill: #fff"
         id="path526" />
      <path
         d="M16,163.92a.35.35,0,0,1,.19-.05.41.41,0,0,1,.27.1.31.31,0,0,1,.12.25.35.35,0,0,1,0,.15l-1.35,2.85a.4.4,0,0,1-.17.18.49.49,0,0,1-.48,0,.4.4,0,0,1-.17-.18L13,164.36a.32.32,0,0,1,0-.15.31.31,0,0,1,.13-.25.44.44,0,0,1,.28-.1.37.37,0,0,1,.19.05.32.32,0,0,1,.13.16l1.07,2.34,1.07-2.34A.33.33,0,0,1,16,163.92Z"
         style="fill: #fff"
         id="path528" />
    </g>
    <g
       id="g540">
      <path
         d="M8.57,178.4a.25.25,0,0,1,.08.18.26.26,0,0,1-.26.26h-.7v.7a.24.24,0,0,1-.07.18.26.26,0,0,1-.19.07.25.25,0,0,1-.18-.07.24.24,0,0,1-.08-.18v-.7h-.7a.26.26,0,0,1-.26-.26.25.25,0,0,1,.08-.18.26.26,0,0,1,.18-.07h.7v-.71a.26.26,0,0,1,.26-.26.26.26,0,0,1,.26.26v.71h.7A.26.26,0,0,1,8.57,178.4Z"
         style="fill: #fff"
         id="path532" />
      <path
         d="M12.32,179.7q0,.31-.37.32H10.24q-.37,0-.37-.32t.37-.31h.46v-2l-.44.26a.29.29,0,0,1-.15,0,.27.27,0,0,1-.21-.1.36.36,0,0,1-.09-.24A.29.29,0,0,1,10,177l.79-.48a.68.68,0,0,1,.35-.1.36.36,0,0,1,.38.38v2.54H12A.28.28,0,0,1,12.32,179.7Z"
         style="fill: #fff"
         id="path534" />
      <path
         d="M15.75,179.7q0,.31-.37.32H13.52a.34.34,0,0,1-.25-.09.31.31,0,0,1-.09-.23.47.47,0,0,1,.15-.33l1.1-1.17a1.1,1.1,0,0,0,.37-.72.4.4,0,0,0-.12-.31.47.47,0,0,0-.33-.11.93.93,0,0,0-.35.06,3,3,0,0,0-.37.19l-.13.07h-.1a.22.22,0,0,1-.18-.1.36.36,0,0,1-.08-.23.33.33,0,0,1,0-.16.31.31,0,0,1,.11-.11,1.94,1.94,0,0,1,1.1-.36,1.51,1.51,0,0,1,.62.12.94.94,0,0,1,.41.34.92.92,0,0,1,.15.51,1.26,1.26,0,0,1-.13.57,2.48,2.48,0,0,1-.43.58l-.79.83h1.16Q15.75,179.39,15.75,179.7Z"
         style="fill: #fff"
         id="path536" />
      <path
         d="M19.46,176.51a.35.35,0,0,1,.19-.05.41.41,0,0,1,.27.1.31.31,0,0,1,.12.25.35.35,0,0,1,0,.15l-1.35,2.85a.4.4,0,0,1-.17.18.49.49,0,0,1-.48,0,.4.4,0,0,1-.17-.18L16.49,177a.32.32,0,0,1,0-.14.31.31,0,0,1,.13-.25.44.44,0,0,1,.28-.1.37.37,0,0,1,.19.05.33.33,0,0,1,.13.16l1,2.28,1.07-2.34A.34.34,0,0,1,19.46,176.51Z"
         style="fill: #fff"
         id="path538" />
    </g>
    <g
       id="g548">
      <path
         d="M9.25,190.95a.28.28,0,0,1,.08.21v1a1.17,1.17,0,0,1,0,.31.35.35,0,0,1-.11.17.71.71,0,0,1-.24.11,2.89,2.89,0,0,1-.45.09,3.47,3.47,0,0,1-.48,0,2,2,0,0,1-1-.22,1.5,1.5,0,0,1-.63-.62,2.22,2.22,0,0,1,0-1.93,1.5,1.5,0,0,1,.62-.63,2,2,0,0,1,.95-.22,1.8,1.8,0,0,1,1.15.36.37.37,0,0,1,.1.12.33.33,0,0,1,0,.15.36.36,0,0,1-.07.22.22.22,0,0,1-.17.09H8.88l-.13-.06a1.71,1.71,0,0,0-.38-.19,1.27,1.27,0,0,0-.38-.05q-1,0-1,1.18a1.34,1.34,0,0,0,.27.91,1,1,0,0,0,.8.3,2.31,2.31,0,0,0,.58-.07v-.78H8.17a.33.33,0,0,1-.23-.07.29.29,0,0,1,0-.4.33.33,0,0,1,.23-.07H9A.31.31,0,0,1,9.25,190.95Z"
         style="fill: #fff"
         id="path542" />
      <path
         d="M13.45,189.37a.38.38,0,0,1,.1.28v2.8a.39.39,0,0,1-.1.28.39.39,0,0,1-.56,0l-1.67-2.14v1.88a.4.4,0,0,1-.1.28.36.36,0,0,1-.52,0,.39.39,0,0,1-.1-.28v-2.8a.38.38,0,0,1,.1-.28.35.35,0,0,1,.27-.11.34.34,0,0,1,.29.13l1.67,2.13v-1.87a.39.39,0,0,1,.1-.28.34.34,0,0,1,.26-.11A.35.35,0,0,1,13.45,189.37Z"
         style="fill: #fff"
         id="path544" />
      <path
         d="M14.85,192.72a.37.37,0,0,1-.09-.27v-2.79a.33.33,0,0,1,.3-.36h1.07a2.16,2.16,0,0,1,1,.21,1.47,1.47,0,0,1,.63.61A1.91,1.91,0,0,1,18,191a2,2,0,0,1-.22.95,1.46,1.46,0,0,1-.63.61,2.19,2.19,0,0,1-1,.21h-1A.37.37,0,0,1,14.85,192.72Zm1.22-.53a1.14,1.14,0,1,0,0-2.27h-.54v2.27Z"
         style="fill: #fff"
         id="path546" />
    </g>
    <g
       id="g558">
      <path
         d="M6.2,204c0-.2.12-.29.36-.29h1c.24,0,.36.1.36.29s-.12.29-.36.29h-1Q6.2,204.31,6.2,204Z"
         style="fill: #fff"
         id="path550" />
      <path
         d="M11.54,205c0,.21-.12.32-.37.32H9.47q-.37,0-.37-.32t.37-.31h.47v-2l-.44.26a.29.29,0,0,1-.15,0,.27.27,0,0,1-.21-.1.36.36,0,0,1-.09-.24.29.29,0,0,1,.16-.26l.79-.48a.68.68,0,0,1,.35-.1.36.36,0,0,1,.38.38v2.54h.46C11.42,204.73,11.54,204.83,11.54,205Z"
         style="fill: #fff"
         id="path552" />
      <path
         d="M15,205c0,.21-.12.32-.37.32H12.75a.33.33,0,0,1-.25-.09.31.31,0,0,1-.09-.23.46.46,0,0,1,.14-.33l1.1-1.17a1.11,1.11,0,0,0,.37-.72.41.41,0,0,0-.12-.31.47.47,0,0,0-.33-.11.92.92,0,0,0-.35.06,2.87,2.87,0,0,0-.37.19l-.13.07h-.11a.22.22,0,0,1-.18-.1.36.36,0,0,1-.08-.23.34.34,0,0,1,0-.16.31.31,0,0,1,.11-.11,1.86,1.86,0,0,1,.52-.26,1.84,1.84,0,0,1,.59-.1,1.5,1.5,0,0,1,.62.12.93.93,0,0,1,.41.34.92.92,0,0,1,.14.51,1.26,1.26,0,0,1-.13.57,2.48,2.48,0,0,1-.43.58l-.79.83h1.16C14.85,204.73,15,204.83,15,205Z"
         style="fill: #fff"
         id="path554" />
      <path
         d="M17.75,202.9a.32.32,0,0,1,.18-.05.38.38,0,0,1,.25.09.28.28,0,0,1,.11.22.32.32,0,0,1,0,.15l-.9,1.84a.37.37,0,0,1-.15.17.44.44,0,0,1-.43,0,.39.39,0,0,1-.16-.17l-.9-1.84a.35.35,0,0,1,0-.13.29.29,0,0,1,.12-.23.41.41,0,0,1,.26-.09.35.35,0,0,1,.19.05.36.36,0,0,1,.14.16l.61,1.34.61-1.34A.36.36,0,0,1,17.75,202.9Z"
         style="fill: #fff"
         id="path556" />
    </g>
    <g
       id="g563">
      <circle
         id="circle868"
         cx="59.52"
         cy="214.15"
         r="3.99"
         style="fill: #bb9965" />
      <circle
         id="circle868-2"
         cx="59.52"
         cy="214.15"
         r="1.86"
         style="fill: #231f20" />
      <path
         id="path884"
         d="M59.52,209.1a5.06,5.06,0,1,1-5.06,5.06h0a5.06,5.06,0,0,1,5.06-5.06m0-.44a5.5,5.5,0,1,0,5.5,5.5h0a5.5,5.5,0,0,0-5.5-5.5Z"
         style="fill: #fff" />
    </g>
    <g
       id="g568">
      <circle
         id="circle868-3"
         cx="10.02"
         cy="214.15"
         r="3.99"
         style="fill: #bb9965" />
      <circle
         id="circle868-4"
         cx="10.02"
         cy="214.15"
         r="1.86"
         style="fill: #231f20" />
      <path
         id="path884-2"
         d="M10,209.1a5.06,5.06,0,1,1-5,5.12v-.06H5a5.06,5.06,0,0,1,5-5.06m0-.44a5.5,5.5,0,1,0,5.5,5.5h0a5.5,5.5,0,0,0-5.5-5.5Z"
         style="fill: #fff" />
    </g>
    <g
       id="g573">
      <circle
         id="circle868-5"
         cx="109.02"
         cy="214.15"
         r="3.99"
         style="fill: #bb9965" />
      <circle
         id="circle868-6"
         cx="109.02"
         cy="214.15"
         r="1.86"
         style="fill: #231f20" />
      <path
         id="path884-3"
         d="M109,209.1a5.06,5.06,0,1,1-5.06,5.06h0A5.06,5.06,0,0,1,109,209.1m0-.44a5.5,5.5,0,1,0,5.5,5.5h0a5.5,5.5,0,0,0-5.5-5.5Z"
         style="fill: #fff" />
    </g>
    <g
       style="opacity:0.3800001"
       id="g579"
       transform="scale(3.3795573,1)">
      <rect
         id="rect1709-2-2"
         data-name="rect1709-2"
         x="3.78"
         y="147.49001"
         width="1.26"
         height="74.879997"
         style="fill:#2b2c2b" />
      <rect
         id="rect1709-3-2"
         data-name="rect1709-3"
         x="2.5699999"
         y="147.49001"
         width="1.26"
         height="74.879997"
         style="fill:#252624" />
      <rect
         id="rect1709-4-2"
         data-name="rect1709-4"
         x="1.28"
         y="147.49001"
         width="1.26"
         height="74.879997"
         style="fill:#1e1d1d" />
      <rect
         id="rect1709-5-2"
         data-name="rect1709-5"
         y="147.49001"
         width="1.26"
         height="74.879997"
         style="fill:#191818"
         x="0" />
    </g>
    <g
       transform="matrix(-3.3795573,0,0,-1,120.13,369.86001)"
       id="g1489"
       style="opacity:0.38000039">
      <rect
         style="fill:#2b2c2b"
         height="74.879997"
         width="1.26"
         y="147.49001"
         x="3.78"
         data-name="rect1709-2"
         id="rect1481" />
      <rect
         style="fill:#252624"
         height="74.879997"
         width="1.26"
         y="147.49001"
         x="2.5699999"
         data-name="rect1709-3"
         id="rect1483" />
      <rect
         style="fill:#1e1d1d"
         height="74.879997"
         width="1.26"
         y="147.49001"
         x="1.28"
         data-name="rect1709-4"
         id="rect1485" />
      <rect
         x="0"
         style="fill:#191818"
         height="74.879997"
         width="1.26"
         y="147.49001"
         data-name="rect1709-5"
         id="rect1487" />
    </g>
  </g>
  <g
     id="g629"
     transform="matrix(1.6533047,0,0,1.6533047,-39.196834,-176.4868)">
    <rect
       x="36.150002"
       y="260.66"
       width="47.779999"
       height="46.66"
       transform="rotate(-16.82,60.028951,283.99377)"
       style="fill:#ffef7a"
       id="rect589" />
    <g
       id="g627">
      <path
         d="m 43.43,281.7 v 0 a 1,1 0 0 1 0,0.42 v 0 l 0.1,0.31 v 0.15 0.07 0.29 0.07 0.25 0.11 0.16 l 0.11,0.16 -0.07,0.19 0.05,0.08 v 0.11 0 l 0.12,0.3 0.13,0.13 -0.09,0.12 v 0.13 h -0.27 l -0.13,-0.29 v 0 a 4.54,4.54 0 0 1 -0.18,-0.47 v 0 h -0.12 v 0.05 l -0.14,-0.08 -0.08,0.06 -0.18,-0.06 h -0.24 -0.08 v 0 l -0.57,-0.14 h -0.05 -0.16 l -0.12,-0.09 h -0.08 l -0.14,-0.06 h -0.35 l -0.27,-0.18 h -0.11 l -0.1,-0.07 a 1.37,1.37 0 0 1 -0.33,-0.14 v 0.06 0.3 l 0.12,0.17 v 0.36 l 0.05,0.09 a 0.26,0.26 0 0 1 0.06,0.11 0.38,0.38 0 0 1 0,0.16 h 0.06 v 0.26 0.15 0.15 l 0.07,0.07 -0.05,0.14 a 0.13,0.13 0 0 1 0,0.07 0.79,0.79 0 0 1 -0.06,0.32 h -0.12 c -0.14,0 -0.24,0 -0.3,-0.22 v -0.25 l -0.07,-0.1 V 285 a 0.21,0.21 0 0 1 0,-0.09 0.1,0.1 0 0 1 0,-0.07 h -0.08 v 0 -0.08 -0.07 a 0.62,0.62 0 0 0 -0.12,-0.18 v -0.1 -0.12 l -0.09,-0.18 v -0.21 l -0.08,-0.12 -0.06,-0.33 -0.07,-0.23 v -0.2 -0.05 l -0.12,-0.39 v -0.09 a 0.2,0.2 0 0 1 0,-0.09 c 0,-0.08 0,-0.13 0.13,-0.16 h 0.06 v -0.07 a 0.46,0.46 0 0 1 0.28,0.16 h 0.06 l 0.08,0.2 h 0.11 v 0.08 h 0.12 l 0.11,0.17 v 0 l 0.23,0.07 a 0.16,0.16 0 0 1 0.12,0.1 v 0 l 0.19,0.05 0.24,0.13 0.6,0.23 a 0.35,0.35 0 0 1 0.28,0.1 h 0.22 l 0.21,0.08 h 0.09 0.23 0.21 a 0.76,0.76 0 0 0 0.24,0.08 v -0.11 -0.15 0 l -0.08,-0.38 v -0.13 0 L 43,282.8 v -0.3 l -0.1,-0.22 -0.06,-0.42 -0.11,-0.06 v -0.29 h -0.07 v -0.11 -0.07 l 0.27,-0.25 0.06,0.06 h 0.21 a 0.6,0.6 0 0 0 0,0.21 v 0.05 a 0.31,0.31 0 0 1 0.1,0.11 v 0.12 z"
         id="path591"
         inkscape:connector-curvature="0" />
      <path
         d="m 46.94,283 a 0.34,0.34 0 0 1 -0.06,0.24 0.45,0.45 0 0 1 0,0.2 v 0 0.15 l -0.11,0.06 -0.1,0.12 v 0.14 H 46.6 l -0.11,0.07 v 0.06 h -0.06 a 0.23,0.23 0 0 0 -0.13,0.17 l -0.12,-0.05 H 46.1 a 0.3,0.3 0 0 1 -0.16,0 h -0.11 -0.06 a 0.4,0.4 0 0 1 -0.38,-0.09 v 0 H 45.1 l -0.08,-0.1 h -0.1 v -0.1 l -0.17,-0.27 -0.07,-0.24 v -0.12 -0.14 -0.12 0 -0.09 0 a 0.31,0.31 0 0 1 0,-0.14 v 0 l -0.07,-0.15 a 0.27,0.27 0 0 1 0,-0.23 l -0.06,-0.1 a 0.49,0.49 0 0 1 -0.06,-0.11 0.41,0.41 0 0 1 0,-0.18 0.18,0.18 0 0 0 0.18,0 v 0 a 0.19,0.19 0 0 1 0,-0.08 0.89,0.89 0 0 1 0.06,-0.33 v 0 a 0.91,0.91 0 0 1 0,-0.17 h 0.05 v 0 0 -0.08 l 0.12,-0.13 A 0.31,0.31 0 0 1 45,281 h 0.06 v 0 a 1.1,1.1 0 0 1 0.21,-0.13 0.2,0.2 0 0 1 0.11,0 v 0 h 0.05 l 0.19,0.05 0.14,0.05 v 0 a 0.43,0.43 0 0 1 0.26,0.29 v 0.07 l 0.09,0.21 v 0.06 0.19 l -0.08,0.18 v 0.11 a 3.29,3.29 0 0 1 -0.32,0.37 0.22,0.22 0 0 1 -0.16,0.15 v 0 l -0.1,0.12 h -0.11 l -0.14,0.12 h -0.14 v 0 a 1.62,1.62 0 0 0 0,0.17 v 0.06 0.08 0.13 l 0.08,0.21 v 0 a 1,1 0 0 1 0,0.13 v 0 a 0.1,0.1 0 0 0 0.08,0.07 c 0,0 0.06,0.08 0.1,0.08 h 0.06 0.16 v 0 h 0.06 l 0.23,-0.07 0.13,-0.06 0.05,-0.07 v 0 -0.12 0 l 0.15,-0.11 a 0.22,0.22 0 0 1 0.06,-0.11 v 0 a 0.18,0.18 0 0 0 0.11,-0.19 0.34,0.34 0 0 1 0.21,-0.17 v 0 a 0.45,0.45 0 0 1 0.4,0.13 z m -1.26,-1.72 v -0.07 H 45.5 l -0.05,0.07 h -0.06 v 0 l -0.07,0.18 -0.06,0.08 v 0.22 0.06 a 0.4,0.4 0 0 1 0,0.22 v 0.06 a 0.31,0.31 0 0 1 0.15,-0.1 v 0 0 h 0.1 v -0.1 h 0.12 v -0.11 0 -0.07 h 0.08 v -0.09 -0.15 a 0.25,0.25 0 0 0 -0.03,-0.19 z"
         id="path593"
         inkscape:connector-curvature="0" />
      <path
         d="m 50.93,279.41 v 0.14 0.06 0.29 0.1 l -0.06,0.13 v 0.14 0.13 0.27 l -0.06,0.25 -0.11,0.35 v 0.1 0.21 0.27 l -0.09,0.42 v 0.17 l -0.06,0.19 H 50.33 50.2 l -0.2,-0.28 -0.2,-0.19 v -0.07 l -0.14,-0.16 v 0 l -0.46,-0.5 -0.13,-0.11 v 0.14 l -0.08,0.12 -0.09,0.26 -0.07,0.15 v 0.19 l -0.09,0.23 v 0.06 0.24 0.1 0.11 0.1 h -0.06 l -0.1,0.2 v 0 a 0.47,0.47 0 0 1 -0.16,0.11 H 48.36 48 v -0.07 h -0.06 l -0.1,-0.17 -0.09,-0.1 v -0.09 0 l -0.19,-0.26 -0.08,-0.17 -0.09,-0.05 v -0.09 l -0.12,-0.14 v -0.06 l -0.1,-0.13 -0.13,-0.1 v -0.15 0 l -0.13,-0.15 v -0.1 l -0.06,-0.05 a 0.62,0.62 0 0 1 -0.1,-0.12 l -0.2,-0.25 0.06,-0.15 a 0.22,0.22 0 0 1 0.14,-0.14 l 0.13,-0.06 0.07,0.05 h 0.1 l 0.1,0.1 h 0.07 v 0.11 0.06 0.07 l 0.1,0.09 v 0.1 l 0.18,0.28 v 0.08 l 0.09,0.17 0.16,0.18 0.12,0.24 0.09,0.06 v 0.16 l 0.09,0.13 v 0.05 l 0.08,-0.09 0.08,-0.29 V 282 281.89 a 0.16,0.16 0 0 1 0,-0.11 v 0 -0.13 h 0.07 a 0.13,0.13 0 0 1 0,-0.1 v 0 a 0.12,0.12 0 0 1 0,-0.09 v 0 0 0 a 0.5,0.5 0 0 1 0.08,-0.2 v -0.13 l 0.08,-0.08 v 0 0 a 0.32,0.32 0 0 1 -0.08,-0.14 0.36,0.36 0 0 1 0,-0.27 0.39,0.39 0 0 1 0.14,-0.07 h 0.08 l 0.16,0.07 0.1,0.08 0.09,0.15 0.09,0.09 v 0.08 l 0.09,0.13 v 0.06 l 0.17,0.17 v 0 0 l 0.23,0.28 v 0.09 l 0.09,0.05 0.26,0.3 v -0.07 -0.29 l 0.06,-0.08 v -0.16 l 0.06,-0.05 v -0.1 l 0.09,-0.1 c 0,0 0,0 0,0 v -0.14 l 0.05,-0.11 v 0 -0.2 0 a 0.42,0.42 0 0 1 0,-0.19 v -0.07 l 0.08,-0.18 v -0.17 a 1.07,1.07 0 0 1 -0.18,-0.32 0.22,0.22 0 0 1 0.14,-0.3 h 0.2 v -0.06 h 0.07 0.08 v 0.08 z"
         id="path595"
         inkscape:connector-curvature="0" />
      <path
         d="m 59.17,279 a 0.34,0.34 0 0 1 0,0.17 0.2,0.2 0 0 1 0,0.13 0.22,0.22 0 0 1 -0.05,0.12 v 0 a 0.09,0.09 0 0 1 -0.06,0.06 v 0.08 0 0.07 0 0.06 0 a 0.24,0.24 0 0 0 -0.15,0.11 0.54,0.54 0 0 1 -0.17,0.09 0.44,0.44 0 0 1 -0.2,0 c -0.07,0 -0.11,0 -0.12,0 h -0.1 v 0 l -0.06,-0.07 h -0.09 a 0.32,0.32 0 0 1 -0.13,-0.14 0.87,0.87 0 0 1 -0.17,-0.23 l -0.1,-0.09 v -0.06 l -0.11,-0.19 v -0.08 l -0.1,-0.2 v -0.17 0 0.19 l -0.1,0.22 v 0 0.09 c 0,0 0,0 0.06,0 v 0.11 a 0.33,0.33 0 0 1 0,0.09 v 0 0.1 a 0.36,0.36 0 0 0 -0.06,0.24 l -0.13,0.31 -0.06,0.12 c 0,0 0,0 0,0 v 0 a 0.31,0.31 0 0 1 -0.09,0.19 v 0.13 0 l -0.14,0.11 a 0.25,0.25 0 0 1 -0.3,-0.1 v -0.07 l -0.07,-0.08 v -0.07 l -0.11,-0.18 V 280 l -0.06,-0.05 v -0.21 -0.09 -0.07 -0.07 l -0.06,-0.06 v -0.14 l -0.09,-0.16 v -0.07 -0.2 l -0.1,-0.12 v -0.12 -0.05 l -0.09,-0.11 v 0 l -0.05,0.13 -0.06,0.1 -0.1,0.25 v 0.08 l -0.08,0.16 v 0.11 0.07 a 0.26,0.26 0 0 1 -0.08,0.25 v 0.1 a 0.72,0.72 0 0 0 -0.05,0.13 0.31,0.31 0 0 1 0,0.09 v 0.06 0.14 a 0.17,0.17 0 0 1 0,0.19 v 0 a 0.6,0.6 0 0 1 -0.08,0.14 v 0 0.1 c 0,0 -0.06,0.06 -0.06,0.16 v 0 a 0.2,0.2 0 0 1 -0.07,0.2 l -0.07,0.12 a 0.49,0.49 0 0 1 -0.13,0.1 c -0.12,0 -0.22,0 -0.32,-0.22 l -0.07,-0.14 v 0 a 0.19,0.19 0 0 1 0,-0.1 l -0.07,-0.12 v -0.11 -0.11 a 0.35,0.35 0 0 1 0,-0.19 l -0.07,-0.15 v -0.12 -0.14 h -0.06 v -0.05 a 0.36,0.36 0 0 1 0,-0.19 l -0.09,-0.11 v -0.09 l -0.1,-0.18 v -0.1 l -0.09,-0.13 V 279 l -0.08,-0.11 c 0,-0.2 0.1,-0.32 0.2,-0.35 a 0.22,0.22 0 0 1 0.17,0 v 0.06 a 0.2,0.2 0 0 1 0.17,0.15 1.19,1.19 0 0 0 0,0.15 v 0 l 0.1,0.1 v 0.07 0 l 0.15,0.29 0.07,0.26 v 0.05 l 0.06,0.1 a 0.11,0.11 0 0 1 0,0.06 0.16,0.16 0 0 1 0,0.12 0.33,0.33 0 0 1 0,0.17 l 0.08,0.19 v 0.08 0 -0.07 -0.2 0 c 0,0 0,-0.06 0,-0.15 v -0.14 a 0.45,0.45 0 0 1 0.06,-0.16 v -0.13 -0.15 -0.1 l 0.05,-0.07 v 0 l 0.1,-0.19 v 0 -0.07 0 a 0.26,0.26 0 0 1 0.11,-0.24 v 0 0 0 l 0.09,-0.08 v -0.11 h 0.07 l 0.1,-0.15 0.12,-0.07 a 0.8,0.8 0 0 1 0.24,0 l 0.1,0.07 v 0 l 0.06,0.07 0.13,0.1 v 0.09 h 0.08 v 0.1 a 0.7,0.7 0 0 1 0.16,0.25 v 0.09 l 0.08,0.1 -0.05,0.1 0.07,0.14 v 0.08 a 0.9,0.9 0 0 0 0,0.1 0.61,0.61 0 0 0 0.08,0.12 v 0.08 0.09 0 l 0.14,0.3 v 0 l 0.14,-0.3 v -0.15 -0.15 0 a 0.25,0.25 0 0 1 0,-0.17 0.17,0.17 0 0 1 0,-0.12 v 0 a 0.31,0.31 0 0 1 0.08,-0.23 v -0.1 -0.1 -0.09 a 0.32,0.32 0 0 0 0,-0.18 v -0.1 -0.11 l 0.06,-0.06 v -0.12 -0.18 0 0 -0.06 -0.12 l 0.11,-0.08 v 0 h 0.12 0.12 l 0.13,0.08 v 0.09 0.08 0 0.16 0.17 a 0.16,0.16 0 0 1 0.08,0.11 0.18,0.18 0 0 0 0,0.09 v 0.06 0.11 a 0.39,0.39 0 0 1 0,0.09 v 0 0 0.08 c 0,0 0,0 0.07,0.08 v 0 0 0.13 0 l 0.17,0.25 v 0.06 l 0.1,0.06 0.07,0.08 v 0 0 h 0.1 v 0 0 a 0.35,0.35 0 0 0 0.14,-0.1 0.38,0.38 0 0 1 0.1,-0.18 0.5,0.5 0 0 1 0,-0.15 L 58.85,279 v -0.09 a 0.21,0.21 0 0 1 0.1,-0.07 0.4,0.4 0 0 1 0.17,0 0.43,0.43 0 0 1 0.05,0.16 z"
         id="path597"
         inkscape:connector-curvature="0" />
      <path
         d="m 61.67,277.36 v 0.13 a 1.45,1.45 0 0 1 0.06,0.28 v 0.08 0.07 0.06 0.1 l -0.05,0.1 v 0.18 0 0.08 l -0.07,0.07 v 0.13 l -0.07,0.06 v 0.08 l -0.11,0.09 a 0.4,0.4 0 0 1 -0.17,0.22 v 0 a 0.3,0.3 0 0 1 -0.2,0.22 0.31,0.31 0 0 1 -0.14,0.09 l -0.05,0.07 h -0.06 l -0.07,0.09 h -0.09 -0.09 -0.13 l -0.29,0.07 -0.15,-0.12 -0.19,-0.11 v -0.12 l -0.17,-0.2 v -0.1 l -0.07,-0.15 v -0.11 -0.13 a 0.25,0.25 0 0 1 0,-0.21 0.75,0.75 0 0 1 0,-0.25 v 0 0 -0.1 -0.1 a 0.35,0.35 0 0 0 0,-0.1 v -0.09 0 a 0.45,0.45 0 0 0 0,-0.21 l 0.08,-0.24 v -0.06 0 0 l 0.07,-0.14 v -0.16 l 0.15,-0.11 a 0.3,0.3 0 0 0 0.06,-0.24 h 0.09 a 0.29,0.29 0 0 1 0.12,-0.08 h 0.12 0.08 l 0.15,-0.12 0.12,0.06 h 0.09 0.05 0.12 0.05 l 0.27,0.16 v 0 h 0.05 l 0.2,0.14 0.22,0.28 v 0.07 z m -0.39,0.29 v 0 a 0.18,0.18 0 0 1 -0.08,-0.08 v 0 l -0.1,-0.11 v -0.13 0 c -0.07,0 -0.11,-0.05 -0.13,-0.08 -0.02,-0.03 -0.08,0 -0.1,-0.12 v 0 l -0.12,-0.11 h -0.07 -0.21 a 0.06,0.06 0 0 1 -0.06,0 l -0.09,0.19 v 0.21 l -0.12,0.12 v 0.08 l -0.06,0.05 v 0.18 l -0.07,0.07 a 0.68,0.68 0 0 0 0,0.18 l -0.08,0.13 v 0 a 0.2,0.2 0 0 1 0,0.16 1.46,1.46 0 0 1 0,0.15 v 0.05 0 0.08 0.2 0 L 60,279 v 0.1 0.09 l 0.09,0.07 h 0.14 0.05 l 0.17,-0.05 v -0.08 0 c 0,0 0,0 0.05,0 h 0.05 0.06 l 0.07,-0.09 v 0 h 0.06 a 0.49,0.49 0 0 1 0.18,-0.22 v 0 l 0.1,-0.14 v -0.13 l 0.09,-0.09 v -0.12 -0.09 l 0.06,-0.09 v -0.16 0 a 0.44,0.44 0 0 1 -0.06,-0.11 0.25,0.25 0 0 1 0,-0.14 z"
         id="path599"
         inkscape:connector-curvature="0" />
      <path
         d="m 65.63,277.33 v 0.3 0.1 c 0,0.13 -0.09,0.2 -0.16,0.22 a 0.4,0.4 0 0 1 -0.25,0 l -0.19,-0.15 -0.1,-0.1 -0.06,-0.11 -0.12,-0.18 -0.09,-0.29 -0.1,-0.25 v -0.15 0 l -0.09,0.29 v 0 0 l -0.06,0.22 -0.12,0.26 -0.08,0.24 -0.1,0.19 a 0.91,0.91 0 0 1 -0.08,0.23 l -0.11,0.13 v 0.13 l -0.13,0.09 v 0.09 l -0.14,0.07 -0.1,0.11 v 0 0 h -0.21 l -0.3,-0.1 a 0.54,0.54 0 0 1 -0.2,-0.21 v 0 0 h -0.08 l -0.1,-0.12 v -0.06 l -0.06,-0.07 v -0.1 l -0.05,-0.12 v -0.21 l -0.06,-0.21 v -0.08 -0.14 -0.1 -0.1 0 -0.09 -0.13 -0.1 -0.08 0 -0.17 -0.15 0 -0.09 l 0.06,-0.12 c 0,0 0,-0.08 0,-0.16 l 0.14,-0.13 0.07,-0.15 0.28,-0.18 H 63.15 63 v -0.06 l 0.15,-0.06 h 0.06 v 0 0 h 0.13 v 0 0 h 0.07 v 0 h 0.17 l 0.13,0.08 0.17,0.06 0.05,0.06 v 0 -0.2 l -0.06,-0.15 -0.06,-0.29 -0.07,-0.09 v -0.1 -0.07 -0.19 l -0.07,-0.15 h -0.08 l 0.07,-0.14 v -0.07 a 0.49,0.49 0 0 0 -0.16,-0.22 v 0 -0.13 l 0.17,-0.08 a 0.28,0.28 0 0 1 0.17,0 c 0.08,0 0.15,0.1 0.21,0.29 v 0 0 h 0.08 v 0.12 l 0.1,0.11 v 0 a 0.25,0.25 0 0 1 0,0.09 0.28,0.28 0 0 1 0,0.11 v 0 a 0.22,0.22 0 0 1 0,0.08 0.28,0.28 0 0 1 0,0.14 4.32,4.32 0 0 1 0.1,0.54 v 0.06 a 0.38,0.38 0 0 1 0,0.12 v 0 a 0.71,0.71 0 0 1 0,0.19 v 0.21 0.06 0.05 0.03 l 0.05,0.08 v 0.22 l 0.07,0.15 v 0.09 0.13 0.08 a 0.07,0.07 0 0 1 0,0.06 h 0.07 V 277 l 0.1,0.12 v 0 0 0 0 h 0.08 0.12 z M 64.13,276 v 0 a 0.25,0.25 0 0 1 -0.11,-0.06 l -0.11,-0.1 a 0.23,0.23 0 0 1 -0.14,-0.05 v 0 h -0.14 -0.16 l -0.14,0.06 -0.14,0.09 h -0.05 v 0 0 L 63,276 a 0.57,0.57 0 0 1 -0.13,0.25 v 0.13 0.06 0.12 0.23 0.07 0.12 0.06 0.16 0.26 0.11 0.18 l 0.06,0.06 v 0.09 0 0.14 h 0.05 l 0.05,0.07 v 0 0 -0.07 h 0.06 l 0.1,-0.08 v 0 l 0.11,-0.09 v 0 l 0.07,-0.07 v 0 l 0.11,-0.22 0.07,-0.06 v -0.1 h 0.08 l 0.07,-0.15 v 0 -0.06 -0.16 -0.08 -0.16 l 0.1,-0.07 v -0.13 0 -0.12 l 0.09,-0.08 z"
         id="path601"
         inkscape:connector-curvature="0" />
      <path
         d="m 70.05,276.07 a 0.32,0.32 0 0 1 -0.06,0.23 v 0 0.08 l -0.11,0.07 c 0,0 0,0.06 -0.05,0.07 v 0 a 0.83,0.83 0 0 1 -0.33,0.18 h -0.05 -0.18 -0.13 l -0.32,-0.13 -0.11,-0.17 -0.13,-0.05 a 0.15,0.15 0 0 0 0,-0.09 0.37,0.37 0 0 0 -0.09,-0.12 v -0.17 0 a 0.67,0.67 0 0 0 -0.11,-0.19 v -0.21 0.2 h -0.1 v 0.14 A 0.3,0.3 0 0 1 68,276 v 0.18 l -0.06,0.13 a 0.19,0.19 0 0 1 -0.07,0.1 v 0 l -0.16,0.32 v 0 l -0.08,0.19 -0.1,0.1 v 0.11 l -0.14,0.1 -0.19,0.16 h -0.15 a 0.2,0.2 0 0 1 -0.22,-0.06 h -0.07 a 0.23,0.23 0 0 1 0,-0.06 v 0 l -0.14,-0.06 v 0 l -0.14,-0.17 v 0 0 0 0 a 0.72,0.72 0 0 1 0,-0.15 v -0.18 l -0.06,-0.14 a 0.26,0.26 0 0 0 0,-0.1 0.15,0.15 0 0 0 -0.05,-0.08 l 0.06,-0.08 v -0.08 l -0.09,-0.21 -0.06,-0.45 a 1.27,1.27 0 0 0 -0.16,-0.3 c 0,-0.15 0,-0.25 0.21,-0.32 h 0.16 l 0.16,0.1 v 0.19 l 0.09,0.29 0.09,0.21 v 0.09 0 0.12 0.07 0 0.06 a 1.42,1.42 0 0 1 0,0.18 v 0 0.1 0.08 0.09 a 0.12,0.12 0 0 1 0.08,0.08 0.15,0.15 0 0 1 0,0.12 v 0 a 0.68,0.68 0 0 1 0.08,0.14 h 0.08 l 0.08,-0.1 a 0.13,0.13 0 0 1 0.07,-0.12 v -0.07 l 0.12,-0.06 v -0.06 l 0.1,-0.08 v 0 a 0.45,0.45 0 0 1 0.13,-0.13 v 0 l 0.1,-0.13 a 0.27,0.27 0 0 1 0.12,-0.22 l 0.07,-0.12 0.05,-0.14 v 0 0 h 0.05 v -0.1 l 0.12,-0.1 v 0 -0.06 -0.06 0 a 0.24,0.24 0 0 1 0.05,-0.19 v -0.26 -0.16 0 0 0 a 1.11,1.11 0 0 0 0,-0.29 l 0.19,-0.07 0.19,0.08 0.1,0.09 v 0.31 L 68.55,275 v 0 l -0.05,0.06 v 0.1 0.09 l 0.06,0.11 v 0.06 l 0.09,0.21 0.11,0.3 v 0 l 0.05,0.17 0.13,0.08 h 0.1 v 0 h 0.12 0.17 l 0.09,-0.06 0.15,-0.14 a 0.32,0.32 0 0 1 0.13,-0.07 c 0.23,0.01 0.3,0.09 0.35,0.16 z"
         id="path603"
         inkscape:connector-curvature="0" />
      <path
         d="m 72.2,275 a 0.16,0.16 0 0 1 0,0.14 0.74,0.74 0 0 1 -0.12,0.22 l -0.05,0.07 v 0.1 h -0.05 l -0.08,0.09 h -0.06 v 0 a 0.42,0.42 0 0 0 -0.17,0.2 0.15,0.15 0 0 1 -0.08,0.06 v 0 a 0.6,0.6 0 0 1 -0.27,0.16 0.49,0.49 0 0 1 -0.21,0 h -0.14 l -0.06,-0.05 v 0 a 0.17,0.17 0 0 0 -0.12,-0.12 l -0.07,-0.13 h -0.07 l -0.11,-0.24 v -0.15 -0.11 0 a 0.21,0.21 0 0 1 0,-0.08 c 0,-0.19 -0.06,-0.32 -0.08,-0.37 l -0.1,-0.1 v -0.12 -0.17 -0.11 -0.11 L 70,274.1 v -0.12 -0.06 l -0.07,-0.23 v 0 l -0.09,-0.28 -0.07,-0.29 v 0 l -0.06,-0.2 -0.06,-0.18 v -0.07 l -0.08,-0.41 0.22,-0.14 a 0.2,0.2 0 0 1 0.21,0.06 v 0.05 l 0.13,0.07 v 0.15 0 a 0.51,0.51 0 0 1 0,0.18 l 0.06,0.13 0.07,0.12 V 273 a 0.68,0.68 0 0 1 0,0.22 0.83,0.83 0 0 1 0,0.11 v 0 l 0.08,0.06 v 0.08 0.07 a 0.29,0.29 0 0 1 0,0.12 v 0.06 0.23 0.14 0.16 l 0.07,0.12 0.06,0.3 v 0 0.16 0.19 a 0.23,0.23 0 0 0 0,0.05 c 0,0.08 0,0.14 0.05,0.19 v 0.09 0.1 l 0.07,0.07 v 0 a 0.31,0.31 0 0 1 0.11,0.08 h 0.06 0.09 v -0.07 h 0.06 0.06 v 0 a 0.18,0.18 0 0 0 0.09,-0.1 v 0 a 0.25,0.25 0 0 1 0.12,-0.15 l 0.09,-0.15 a 0.16,0.16 0 0 1 0.07,-0.17 0.2,0.2 0 0 0 0.12,-0.08 0.26,0.26 0 0 1 0.19,0 0.35,0.35 0 0 1 0.55,0.12 z"
         id="path605"
         inkscape:connector-curvature="0" />
      <path
         d="m 74.7,274.46 a 0.35,0.35 0 0 1 -0.06,0.24 0.45,0.45 0 0 1 0,0.21 v 0 0.15 l -0.11,0.06 -0.1,0.12 v 0.14 h -0.07 l -0.11,0.07 v 0.06 h -0.06 a 0.23,0.23 0 0 0 -0.13,0.17 l -0.12,-0.05 h -0.08 a 0.3,0.3 0 0 1 -0.16,0 h -0.11 -0.06 a 0.4,0.4 0 0 1 -0.38,-0.09 v 0 h -0.09 l -0.08,-0.1 h -0.1 v -0.1 l -0.17,-0.27 -0.07,-0.24 v -0.12 -0.14 -0.12 0 -0.09 0 a 0.31,0.31 0 0 1 0,-0.14 v 0 l -0.07,-0.15 a 0.27,0.27 0 0 1 0,-0.23 l -0.06,-0.1 a 0.51,0.51 0 0 1 -0.06,-0.11 0.42,0.42 0 0 1 0,-0.18 0.18,0.18 0 0 0 0.18,0 v 0 a 0.18,0.18 0 0 1 0,-0.08 0.88,0.88 0 0 1 0.06,-0.33 v 0 a 0.91,0.91 0 0 1 0,-0.17 h 0.05 v 0 0 -0.08 l 0.12,-0.13 a 0.29,0.29 0 0 1 0.05,-0.11 h 0.06 v 0 a 1.09,1.09 0 0 1 0.21,-0.13 h 0.11 v 0 h 0.05 l 0.19,0.05 0.14,0.05 v 0 a 0.43,0.43 0 0 1 0.26,0.29 v 0.07 l 0.09,0.21 v 0.06 0.19 l -0.08,0.18 v 0.11 a 3.29,3.29 0 0 1 -0.32,0.37 0.22,0.22 0 0 1 -0.16,0.15 v 0 l -0.1,0.12 h -0.11 l -0.14,0.12 h -0.14 v 0 a 1.58,1.58 0 0 0 0,0.17 v 0.06 0.08 0.13 l 0.08,0.2 v 0 a 1.05,1.05 0 0 1 0,0.13 v 0 a 0.11,0.11 0 0 0 0.08,0.07 c 0,0 0.06,0.08 0.1,0.08 h 0.06 0.16 v 0 h 0.06 l 0.23,-0.07 0.13,-0.06 0.05,-0.07 v 0 -0.12 0 l 0.15,-0.1 a 0.22,0.22 0 0 1 0.06,-0.11 v 0 a 0.18,0.18 0 0 0 0.11,-0.19 0.35,0.35 0 0 1 0.21,-0.17 v 0 a 0.45,0.45 0 0 1 0.25,0.04 z m -1.26,-1.72 v -0.07 H 73.3 l -0.05,0.07 h -0.06 v 0 l -0.07,0.18 -0.06,0.08 v 0.22 0.06 a 0.39,0.39 0 0 1 0,0.22 v 0.05 a 0.33,0.33 0 0 1 0.15,-0.1 v 0 -0.07 h 0.1 v -0.1 h 0.12 v -0.11 0 -0.07 h 0.08 v -0.1 -0.15 a 0.22,0.22 0 0 0 -0.06,-0.11 z"
         id="path607"
         inkscape:connector-curvature="0" />
      <path
         d="m 49.25,290.78 v 0.27 l 0.05,0.07 v 0 a 0.23,0.23 0 0 1 0.08,0.11 0.18,0.18 0 0 1 0,0.09 v 0 c 0,0.05 0.06,0.28 0.14,0.67 v 0.13 0.09 0 0.07 0 0 0 a 0.17,0.17 0 0 1 0,0.1 v 0.12 a 0.36,0.36 0 0 1 0,0.15 1.64,1.64 0 0 1 -0.09,0.29 l -0.09,0.12 -0.09,0.15 -0.09,0.08 -0.06,0.08 v 0 a 0.77,0.77 0 0 1 -0.27,0.18 v 0 h -0.05 v 0 l -0.19,0.09 -0.26,0.08 h -0.17 l -0.13,0.08 h -0.09 -0.21 l -0.17,-0.08 h -0.12 a 0.46,0.46 0 0 1 -0.42,-0.26 v 0 l -0.05,-0.1 c 0,-0.1 0.06,-0.16 0.11,-0.18 a 0.21,0.21 0 0 1 0.1,-0.07 l 0.4,-0.07 v 0.1 h 0.1 v 0.08 0.08 h 0.34 l 0.14,-0.08 v 0 0 h 0.1 v 0 l 0.06,-0.05 a 0.85,0.85 0 0 1 0.31,-0.14 l 0.05,-0.07 h 0.08 c 0,0 0,0 0.05,-0.1 v 0 0 0 0 l 0.16,-0.25 0.05,-0.18 v -0.09 -0.12 -0.09 -0.09 -0.19 -0.18 -0.12 a 1.17,1.17 0 0 1 -0.05,-0.31 l -0.07,-0.09 -0.1,-0.33 -0.08,-0.1 -0.06,-0.19 -0.1,-0.12 -0.07,-0.21 v 0 0 0.11 l -0.07,0.12 -0.06,0.23 -0.14,0.17 -0.13,0.25 a 1.82,1.82 0 0 1 -0.28,0.41 v 0.1 l -0.08,0.09 -0.08,0.08 -0.06,0.12 -0.09,0.09 a 0.31,0.31 0 0 1 -0.13,0.12 0.6,0.6 0 0 1 -0.3,0.2 H 47 46.91 46.83 46.71 l -0.22,-0.11 -0.18,-0.13 -0.1,-0.12 L 46,292 v -0.2 -0.25 -0.07 -0.23 -0.14 a 0.75,0.75 0 0 0 0,-0.21 l 0.06,-0.32 a 0.29,0.29 0 0 1 0.07,-0.14 v -0.13 l 0.05,-0.11 a 0.34,0.34 0 0 1 0.06,-0.19 0.17,0.17 0 0 0 0,-0.12 c 0,-0.05 0.07,-0.12 0.21,-0.21 v 0 0 l 0.05,-0.16 h 0.08 v -0.06 a 0.36,0.36 0 0 1 0.2,-0.16 v 0 l 0.15,-0.12 h 0.11 0.12 0.09 a 0.15,0.15 0 0 1 0.13,0 l 0.12,0.06 v 0 0 l 0.09,0.08 v 0 0.11 0.07 0.16 l -0.18,0.08 -0.15,-0.13 h 0.04 -0.06 -0.07 l -0.12,0.11 v 0.05 l -0.17,0.05 a 0.22,0.22 0 0 1 -0.11,0.15 l -0.07,0.07 v 0.14 0 0.06 h -0.1 v 0.17 l -0.06,0.07 v 0.1 l -0.06,0.17 v 0.14 L 46.42,291 v 0.31 0.07 0.07 0.28 0.07 0.08 a 0.26,0.26 0 0 1 0.09,0.13 h 0.05 v 0 a 0.28,0.28 0 0 1 0.16,0 1,1 0 0 1 0.3,-0.2 0.29,0.29 0 0 1 0.07,-0.17 l 0.25,-0.26 v 0 a 0.15,0.15 0 0 1 0,-0.11 l 0.1,-0.09 a 0.13,0.13 0 0 0 0,-0.11 l 0.1,-0.06 v -0.08 l 0.1,-0.28 h 0.06 a 1.38,1.38 0 0 1 0.09,-0.23 l 0.1,-0.24 v -0.09 a 1.2,1.2 0 0 0 0.05,-0.49 l -0.08,-0.13 -0.08,-0.08 v -0.11 l -0.08,-0.06 v -0.09 -0.06 -0.14 a 0.45,0.45 0 0 1 0.14,-0.1 0.36,0.36 0 0 1 0.18,0 l 0.07,0.07 h 0.11 l 0.06,0.14 0.1,0.17 a 0.29,0.29 0 0 1 0.08,0.13 v 0 0 l 0.11,0.08 v 0.13 h 0.06 a 0.29,0.29 0 0 1 0.05,0.09 0.33,0.33 0 0 1 0,0.08 h 0.08 v 0.19 l 0.07,0.12 a 0.27,0.27 0 0 1 0.07,0.11 0.39,0.39 0 0 1 0,0.14 v 0 z"
         id="path609"
         inkscape:connector-curvature="0" />
      <path
         d="m 52.17,289.08 v 0.13 a 1.53,1.53 0 0 1 0.06,0.28 v 0.08 0.07 0.06 0.1 l -0.05,0.1 v 0.18 0 0.08 l -0.07,0.07 v 0.13 l -0.07,0.06 v 0.08 l -0.11,0.09 a 0.39,0.39 0 0 1 -0.17,0.22 v 0 a 0.88,0.88 0 0 1 -0.35,0.3 l -0.05,0.07 H 51.3 l -0.07,0.09 h -0.09 -0.09 -0.13 l -0.29,0.07 -0.15,-0.12 -0.2,-0.11 v -0.12 l -0.17,-0.2 v -0.1 l -0.07,-0.15 v -0.11 -0.13 a 0.24,0.24 0 0 1 0,-0.21 0.75,0.75 0 0 1 0,-0.25 v 0 0 -0.1 -0.1 a 0.31,0.31 0 0 0 0,-0.1 v -0.09 0 a 0.45,0.45 0 0 0 0,-0.21 L 50.12,289 v -0.05 0 0 l 0.07,-0.15 v -0.16 l 0.15,-0.11 a 0.31,0.31 0 0 0 0.06,-0.24 h 0.09 a 0.28,0.28 0 0 1 0.12,-0.08 h 0.12 0.08 l 0.15,-0.12 0.12,0.06 h 0.09 0.05 0.12 0.05 l 0.27,0.16 v 0 h 0.05 l 0.2,0.14 0.22,0.28 v 0.07 z m -0.39,0.29 v 0 a 0.18,0.18 0 0 1 -0.08,-0.08 v 0 l -0.1,-0.11 v -0.13 0 c -0.07,0 -0.11,-0.05 -0.13,-0.08 -0.02,-0.03 -0.08,0 -0.1,-0.11 v 0 l -0.12,-0.11 h -0.08 -0.21 a 0.06,0.06 0 0 1 -0.06,0 l -0.09,0.19 v 0.21 l -0.12,0.12 v 0.08 l -0.06,0.05 v 0.18 l -0.07,0.06 a 0.68,0.68 0 0 0 0,0.18 l -0.08,0.13 v 0 a 0.19,0.19 0 0 1 0,0.16 c 0,0 0,0.09 0,0.15 v 0.05 0 0.08 0.2 0 l 0.06,0.19 v 0.1 0.09 l 0.09,0.07 h 0.14 0.05 l 0.17,-0.05 v -0.08 0 c 0,0 0,0 0.05,0 h 0.05 0.06 l 0.07,-0.09 v 0 h 0.06 a 0.51,0.51 0 0 1 0.17,-0.22 v 0 l 0.1,-0.14 v -0.13 l 0.09,-0.09 v -0.12 -0.09 l 0.06,-0.09 v -0.05 -0.05 a 0.46,0.46 0 0 1 -0.06,-0.1 0.26,0.26 0 0 1 0,-0.14 z"
         id="path611"
         inkscape:connector-curvature="0" />
      <path
         d="m 55.09,289.29 a 0.34,0.34 0 0 1 -0.06,0.24 0.44,0.44 0 0 1 0,0.21 v 0 0.15 l -0.11,0.06 -0.1,0.12 v 0.14 h -0.07 l -0.11,0.07 v 0.06 h -0.06 a 0.23,0.23 0 0 0 -0.13,0.16 l -0.12,-0.05 h -0.08 a 0.31,0.31 0 0 1 -0.16,0 h -0.11 -0.06 a 0.4,0.4 0 0 1 -0.38,-0.09 v 0 h -0.09 l -0.07,-0.1 h -0.1 v -0.1 l -0.17,-0.27 -0.07,-0.24 v -0.12 -0.14 -0.12 0 -0.09 0 a 0.29,0.29 0 0 1 0,-0.14 v 0 l -0.07,-0.15 a 0.27,0.27 0 0 1 0,-0.23 l -0.06,-0.1 -0.06,-0.11 a 0.42,0.42 0 0 1 0,-0.18 0.18,0.18 0 0 0 0.18,0 v 0 a 0.21,0.21 0 0 1 0,-0.08 0.87,0.87 0 0 1 0.06,-0.33 v 0 a 0.87,0.87 0 0 1 0,-0.17 h 0.05 v 0 0 -0.08 l 0.12,-0.13 a 0.3,0.3 0 0 1 0.05,-0.11 h 0.06 v 0 a 1.06,1.06 0 0 1 0.21,-0.13 0.2,0.2 0 0 1 0.11,0 v 0 h 0.05 l 0.19,0.05 0.14,0.05 v 0 a 0.43,0.43 0 0 1 0.26,0.29 v 0.07 l 0.09,0.21 v 0.06 0.03 l -0.08,0.18 v 0.11 a 3.29,3.29 0 0 1 -0.32,0.37 0.21,0.21 0 0 1 -0.16,0.15 v 0 l -0.1,0.12 h -0.11 l -0.14,0.12 h -0.14 v 0 a 1.59,1.59 0 0 0 0,0.17 v 0.06 0.08 0.13 l 0.08,0.21 v 0 a 1,1 0 0 1 0,0.13 v 0 a 0.11,0.11 0 0 0 0.08,0.07 0.14,0.14 0 0 0 0.1,0.08 h 0.06 0.16 v 0 h 0.06 L 54,290 l 0.13,-0.06 0.05,-0.07 v 0 -0.12 0 l 0.15,-0.11 a 0.22,0.22 0 0 1 0.06,-0.11 v 0 a 0.18,0.18 0 0 0 0.11,-0.19 0.35,0.35 0 0 1 0.21,-0.17 v 0 c 0.29,-0.01 0.36,0.06 0.38,0.12 z m -1.26,-1.72 v -0.07 h -0.14 l -0.05,0.07 h -0.06 v 0 l -0.07,0.18 -0.06,0.08 v 0.22 0.06 a 0.4,0.4 0 0 1 0,0.22 v 0.06 a 0.32,0.32 0 0 1 0.15,-0.1 v 0 -0.07 h 0.1 v -0.1 h 0.12 v -0.12 0 -0.07 h 0.08 v -0.09 -0.15 a 0.23,0.23 0 0 0 -0.07,-0.12 z"
         id="path613"
         inkscape:connector-curvature="0" />
      <path
         d="m 58,288.39 -0.05,0.12 v 0.2 0.06 0.11 l -0.13,0.05 -0.06,0.11 h -0.13 l -0.06,0.09 h -0.08 -0.08 v 0.05 l -0.25,0.06 h -0.11 l -0.07,0.07 H 56.9 57 l -0.31,0.12 h -0.08 l -0.07,0.07 h -0.16 l -0.2,0.05 H 56.13 56 l -0.1,0.05 h -0.11 -0.14 q -0.26,0 -0.37,-0.33 v -0.06 l 0.1,-0.13 0.14,-0.11 h 0.14 0.09 v 0 a 0.22,0.22 0 0 1 0.14,0.07 h 0.05 v 0.09 H 56 l 0.84,-0.32 0.2,-0.1 v 0 0 h 0.09 v 0 a 0.9,0.9 0 0 0 0.24,-0.16 v 0 0 0 H 57.26 57.2 v 0 0 h -0.07 -0.07 -0.07 a 0.5,0.5 0 0 1 -0.18,0 H 56.75 56.7 l -0.08,0.06 h -0.07 v 0 H 56.43 56.2 56.12 55.85 v 0 l -0.22,-0.06 -0.17,-0.19 -0.12,-0.09 -0.13,-0.34 v 0 a 0.5,0.5 0 0 1 0,-0.3 0.18,0.18 0 0 0 0.05,-0.18 l 0.09,-0.05 a 0.28,0.28 0 0 1 0.08,-0.13 l 0.08,-0.11 0.37,-0.29 h 0.07 l 0.13,-0.05 0.2,-0.13 0.43,-0.1 v 0 a 0.35,0.35 0 0 1 0.17,0.07 v 0 h 0.13 v 0.24 a 0.19,0.19 0 0 1 -0.14,0.22 0.2,0.2 0 0 1 -0.22,-0.06 v 0 h -0.08 l -0.09,0.05 h -0.11 v 0 a 0.27,0.27 0 0 0 -0.14,0.11 0.3,0.3 0 0 0 -0.17,0.14 h -0.09 v 0.06 h -0.09 v 0 0 0.08 0 0.11 l -0.06,0.06 a 0.74,0.74 0 0 0 0,0.16 0.35,0.35 0 0 0 0.06,0.12 0.21,0.21 0 0 0 0.11,0 v 0 h 0.1 a 0.57,0.57 0 0 1 0.19,0 h 0.13 0.11 0.16 0.07 0.28 l 0.06,0.06 V 288 a 0.57,0.57 0 0 1 0.26,0 h 0.13 v 0 h 0.11 0.22 a 0.37,0.37 0 0 0 0.2,0.12 h 0.09 v 0.09 a 0.26,0.26 0 0 1 0.09,0.13 z"
         id="path615"
         inkscape:connector-curvature="0" />
      <path
         d="m 63.24,287.31 c 0.05,0.18 0,0.3 -0.21,0.36 a 0.24,0.24 0 0 1 -0.24,0 1,1 0 0 1 -0.22,-0.32 v -0.09 a 0.11,0.11 0 0 0 0,-0.07 v 0 l -0.14,-0.11 v -0.15 l -0.08,-0.13 v -0.09 -0.09 -0.08 l -0.06,-0.11 v -0.07 l -0.07,-0.22 -0.09,-0.29 -0.1,-0.21 v -0.09 l -0.1,-0.15 v 0.06 l -0.13,0.11 -0.12,0.32 H 61.6 l -0.06,0.23 v 0.09 l -0.06,0.06 v 0.14 0.08 0.25 l -0.09,0.19 v 0.1 l -0.06,0.08 v 0.17 l -0.11,0.16 0.05,0.25 h -0.06 v 0 l -0.06,0.25 -0.08,0.16 -0.06,0.16 H 60.89 60.8 l -0.11,-0.08 -0.15,-0.22 -0.11,-0.36 -0.06,-0.11 v -0.14 l -0.1,-0.31 v 0 l -0.11,-0.47 v -0.09 -0.14 0 -0.22 V 286 L 60,285.9 v 0 0 -0.19 h -0.07 v -0.11 l -0.07,-0.19 -0.13,-0.17 v -0.08 l -0.1,-0.17 v -0.11 0 l -0.1,-0.2 -0.06,-0.09 -0.16,-0.16 v -0.12 -0.13 h 0.06 a 0.26,0.26 0 0 1 0.25,0 h 0.12 l 0.08,0.11 0.13,0.05 v 0.1 l 0.1,0.12 v 0 l 0.07,0.22 0.1,0.29 0.1,0.17 v 0.09 0.11 0.1 l 0.07,0.15 v 0.14 0 l 0.13,0.41 v 0.09 0.06 0.23 0.11 l 0.09,0.17 v 0.06 0.13 a 0.09,0.09 0 0 0 0,-0.1 v -0.07 -0.1 -0.13 -0.13 -0.15 l 0.06,-0.13 v -0.13 h 0.06 v -0.06 -0.08 l 0.08,-0.07 v -0.05 h 0.06 v -0.11 -0.05 l 0.1,-0.09 v 0 -0.06 h 0.05 v -0.13 h 0.08 l 0.06,-0.07 a 0.31,0.31 0 0 1 0,-0.07 l 0.06,-0.06 a 0.54,0.54 0 0 1 0.19,-0.19 v 0 a 0.71,0.71 0 0 1 0.21,-0.16 0.25,0.25 0 0 1 0.21,0 0.15,0.15 0 0 1 0.13,0.07 h 0.07 v 0.09 l 0.13,0.13 0.17,0.54 0.07,0.23 h 0.05 l 0.15,0.5 v 0.1 0.13 l 0.08,0.14 v 0.14 L 63,287 h 0.1 v 0.05 0 a 0.71,0.71 0 0 1 0.14,0.26 z"
         id="path617"
         inkscape:connector-curvature="0" />
      <path
         d="m 65.92,286 a 0.35,0.35 0 0 1 -0.06,0.24 0.45,0.45 0 0 1 0,0.21 v 0 0.15 l -0.11,0.06 -0.1,0.12 v 0.14 h -0.07 l -0.11,0.07 v 0.06 h -0.06 a 0.23,0.23 0 0 0 -0.13,0.16 l -0.12,-0.05 h -0.08 a 0.3,0.3 0 0 1 -0.16,0 h -0.11 -0.06 a 0.4,0.4 0 0 1 -0.38,-0.09 v 0 H 64.28 L 64,287 h -0.1 v -0.1 l -0.17,-0.27 -0.07,-0.24 v -0.12 -0.14 -0.13 0 -0.09 0 a 0.31,0.31 0 0 1 0,-0.14 v 0 l -0.07,-0.15 a 0.27,0.27 0 0 1 0,-0.23 l -0.06,-0.1 a 0.51,0.51 0 0 1 -0.06,-0.11 0.42,0.42 0 0 1 0,-0.18 0.18,0.18 0 0 0 0.18,0 v 0 a 0.18,0.18 0 0 1 0,-0.08 0.85,0.85 0 0 1 0.06,-0.33 v 0 a 0.82,0.82 0 0 1 0,-0.17 h 0.05 v 0 0 -0.08 L 64,284 a 0.29,0.29 0 0 1 0.05,-0.11 h 0.06 v 0 a 1.06,1.06 0 0 1 0.21,-0.13 0.21,0.21 0 0 1 0.11,0 v 0 h 0.05 l 0.19,0.05 0.14,0.05 v 0 a 0.43,0.43 0 0 1 0.26,0.29 v 0.07 l 0.09,0.21 v 0.06 0.19 l -0.08,0.18 v 0.11 a 3.29,3.29 0 0 1 -0.32,0.37 0.22,0.22 0 0 1 -0.16,0.15 v 0 l -0.1,0.12 h -0.11 l -0.14,0.12 h -0.14 v 0 a 1.59,1.59 0 0 0 0,0.17 v 0.06 0.08 0.13 l 0.08,0.21 v 0 0.13 0 a 0.1,0.1 0 0 0 0.08,0.07 c 0,0 0.06,0.08 0.1,0.08 h 0.06 0.16 v 0 h 0.06 l 0.23,-0.07 0.13,-0.06 0.05,-0.07 v 0 -0.12 0 l 0.15,-0.11 a 0.22,0.22 0 0 1 0.06,-0.11 v 0 a 0.18,0.18 0 0 0 0.11,-0.19 0.34,0.34 0 0 1 0.21,-0.17 v 0 c 0.24,0.07 0.31,0.13 0.33,0.24 z m -1.26,-1.72 v -0.07 h -0.14 l -0.05,0.07 h -0.06 v 0 l -0.07,0.18 -0.06,0.08 v 0.22 0.06 a 0.39,0.39 0 0 1 0,0.22 v 0.06 a 0.32,0.32 0 0 1 0.15,-0.1 v 0 -0.07 h 0.1 v -0.1 h 0.12 v -0.11 0 -0.07 h 0.08 v -0.09 -0.15 a 0.23,0.23 0 0 0 -0.07,-0.18 z"
         id="path619"
         inkscape:connector-curvature="0" />
      <path
         d="m 68.28,283.11 v 0.24 l -0.24,0.11 -0.11,0.13 h -0.1 l -0.08,0.08 -0.09,0.07 -0.05,0.07 v 0 l -0.12,0.11 -0.06,0.15 v 0 a 0.87,0.87 0 0 1 -0.11,0.19 v 0.18 0 a 1.6,1.6 0 0 0 0,0.17 l -0.08,0.06 v 0.09 0.08 0.1 0 0.1 0 l 0.07,0.06 -0.09,0.07 v 0.09 0.13 l 0.07,0.08 v 0.15 0.09 0 0.06 l 0.15,0.08 v 0.18 l -0.06,0.08 -0.16,0.15 h -0.28 v -0.15 -0.05 -0.11 L 66.6,286 a 0.21,0.21 0 0 1 0,-0.05 v 0 -0.06 a 0.15,0.15 0 0 1 -0.08,-0.09 0.22,0.22 0 0 1 0,-0.13 l -0.07,-0.2 v 0 -0.08 -0.08 0 -0.16 l -0.06,-0.05 v -0.08 l -0.05,-0.08 a 0.74,0.74 0 0 0 0,-0.11 0.23,0.23 0 0 0 -0.07,-0.13 v 0 l -0.06,-0.11 -0.09,-0.07 v -0.12 0 l -0.08,-0.15 v -0.05 a 0.16,0.16 0 0 1 -0.06,-0.09 c 0,-0.09 0,-0.2 0.22,-0.32 h 0.18 l 0.07,0.12 0.09,0.07 v 0.19 l 0.14,0.28 0.05,0.1 v 0.07 a 0.16,0.16 0 0 1 0,0.1 l 0.06,0.13 v 0.15 0.07 0 0.06 a 0.2,0.2 0 0 0 0,-0.12 v -0.11 a 0.14,0.14 0 0 1 0,-0.08 v -0.11 l 0.08,-0.08 v -0.08 -0.1 -0.12 A 0.45,0.45 0 0 1 67,284.16 v 0 -0.11 h 0.06 v -0.08 l 0.06,-0.06 v -0.06 0 0 0 l 0.07,-0.06 0.09,-0.11 0.14,-0.1 h 0.1 v 0 l 0.07,-0.05 a 0.16,0.16 0 0 1 0.09,-0.05 h 0.1 a 0.31100643,0.31100643 0 0 1 0.5,-0.37 z"
         id="path621"
         inkscape:connector-curvature="0" />
      <path
         d="m 71.06,284.37 a 0.35,0.35 0 0 1 -0.06,0.24 0.45,0.45 0 0 1 0,0.21 v 0 0.15 l -0.11,0.06 -0.1,0.12 v 0.14 h -0.07 l -0.11,0.07 v 0.06 h -0.06 a 0.23,0.23 0 0 0 -0.13,0.17 l -0.12,-0.05 h -0.08 a 0.32,0.32 0 0 1 -0.16,0 h -0.11 -0.06 a 0.4,0.4 0 0 1 -0.38,-0.09 v 0 h -0.09 l -0.08,-0.1 h -0.1 v -0.1 L 69.07,284.98 69,284.74 v -0.12 -0.14 -0.12 0 -0.09 0 a 0.31,0.31 0 0 1 0,-0.14 v 0 l -0.07,-0.15 a 0.27,0.27 0 0 1 0,-0.23 l -0.06,-0.1 a 0.49,0.49 0 0 1 -0.06,-0.11 0.42,0.42 0 0 1 0,-0.18 0.19,0.19 0 0 0 0.18,0 v 0 a 0.21,0.21 0 0 1 0,-0.08 0.89,0.89 0 0 1 0.06,-0.33 v 0 a 0.92,0.92 0 0 1 0,-0.17 h 0.05 v 0 0 -0.08 l 0.12,-0.13 a 0.31,0.31 0 0 1 0.05,-0.11 h 0.06 v 0 a 1.08,1.08 0 0 1 0.21,-0.13 h 0.11 v 0 h 0.05 l 0.19,0.05 0.14,0.05 v 0 a 0.43,0.43 0 0 1 0.26,0.29 v 0.07 l 0.09,0.21 v 0.06 0.2 l -0.08,0.18 v 0.11 a 3.4,3.4 0 0 1 -0.32,0.37 0.22,0.22 0 0 1 -0.16,0.15 v 0 l -0.1,0.12 h -0.11 l -0.14,0.12 h -0.14 v 0 a 1.58,1.58 0 0 0 0,0.17 v 0.06 0.08 0.13 l 0.08,0.21 v 0 a 1.1,1.1 0 0 1 0,0.13 v 0 a 0.1,0.1 0 0 0 0.08,0.07 0.14,0.14 0 0 0 0.1,0.08 h 0.06 0.16 v 0 h 0.06 l 0.23,-0.07 0.13,-0.06 0.05,-0.07 v 0 -0.12 0 l 0.15,-0.1 a 0.22,0.22 0 0 1 0.06,-0.11 v 0 a 0.18,0.18 0 0 0 0.11,-0.19 0.35,0.35 0 0 1 0.21,-0.17 v 0 a 0.45,0.45 0 0 1 0.25,0.02 z m -1.26,-1.72 v -0.07 h -0.14 l -0.05,0.07 h -0.06 v 0 l -0.07,0.18 -0.06,0.08 v 0.22 0.06 a 0.39,0.39 0 0 1 0,0.22 v 0.06 a 0.32,0.32 0 0 1 0.15,-0.1 v 0 -0.07 h 0.1 v -0.1 h 0.12 v -0.11 0 -0.07 h 0.08 v -0.09 -0.15 a 0.24,0.24 0 0 0 -0.07,-0.13 z"
         id="path623"
         inkscape:connector-curvature="0" />
      <path
         d="m 71.72,281.39 v 0 0.12 0 0.08 0 l 0.07,0.11 v 0.07 0.09 a 0.48,0.48 0 0 1 0,0.08 V 282 l 0.14,0.54 0.06,0.06 v 0.18 l 0.08,0.13 v 0.08 a 0.45,0.45 0 0 1 0.06,0.13 l 0.07,0.1 v 0 0 a 0.16,0.16 0 0 1 0,0.09 v 0 a 0.2,0.2 0 0 1 -0.13,0.24 c -0.13,0 -0.22,0 -0.28,-0.2 v -0.13 l -0.06,-0.14 -0.09,-0.12 v -0.09 L 71.6,283 v -0.19 h -0.08 v -0.16 -0.06 -0.12 -0.11 a 0.4,0.4 0 0 1 0,-0.11 v 0 0 l -0.07,-0.05 v -0.12 -0.07 -0.07 -0.09 -0.06 a 0.12,0.12 0 0 1 0,-0.07 v 0 -0.05 0 -0.07 -0.08 h -0.09 l -0.07,-0.32 h 0.2 l 0.1,-0.06 h 0.27 l 0.06,0.08 v 0.11 a 0.19,0.19 0 0 1 0,0.06 v 0.07 z m 1,2.8 v 0.1 a 0.55,0.55 0 0 0 0,0.08 l -0.13,0.18 h -0.13 l -0.09,0.08 h -0.11 -0.14 l -0.16,-0.23 v -0.18 l 0.07,-0.12 v 0 -0.09 h 0.16 a 0.27,0.27 0 0 1 0.16,0 v 0 h 0.15 l 0.07,0.08 z"
         id="path625"
         inkscape:connector-curvature="0" />
    </g>
  </g>
  <g
     id="g657"
     transform="matrix(3.1950048,0,0,3.1950048,-183.90492,-726.37837)">
    <circle
       cx="76.360001"
       cy="253.27"
       r="10.41"
       transform="rotate(-73.38,76.353937,253.2657)"
       style="fill:#ffffee"
       id="circle631" />
    <g
       id="g655">
      <g
         id="g637">
        <path
           d="m 78.44,256 a 9.91,9.91 0 0 0 4.24,-2.51 2.22,2.22 0 0 0 -0.18,-3.19 2,2 0 0 0 -2.37,0 2,2 0 0 0 -2,-1.34 2.22,2.22 0 0 0 -1.9,2.57 9.88,9.88 0 0 0 2.21,4.47 z"
           style="fill:#b30d00"
           id="path633"
           inkscape:connector-curvature="0" />
        <path
           d="m 69.8,253.12 a 1.54,1.54 0 0 0 0.61,0.08 0.61,0.61 0 0 0 0.46,-0.49 l 1.38,-4.64 a 0.6,0.6 0 0 0 -0.11,-0.65 1.63,1.63 0 0 0 -0.57,-0.29 l 0.07,-0.24 3.35,1 -0.07,0.24 a 1.79,1.79 0 0 0 -0.65,-0.08 0.6,0.6 0 0 0 -0.45,0.49 l -1.38,4.64 a 0.6,0.6 0 0 0 0.06,0.6 1.38,1.38 0 0 0 0.63,0.34 l -0.07,0.24 -3.35,-1 z"
           id="path635"
           inkscape:connector-curvature="0" />
      </g>
      <g
         id="g653">
        <path
           d="m 69.51,254.25 v 0.06 h -0.19 c 0,0 -0.05,0 -0.06,0.07 v 0 l 0.12,1.08 v 0 l 0.6,-0.78 v -0.05 -0.08 c 0,0 0,-0.08 0,-0.1 l -0.17,-0.08 v -0.06 l 0.55,0.16 v 0.06 a 0.25,0.25 0 0 0 -0.16,0 0.47,0.47 0 0 0 -0.14,0.13 l -1,1.35 h -0.07 l -0.2,-1.75 a 0.44,0.44 0 0 0 0,-0.16 0.22,0.22 0 0 0 -0.12,-0.09 v -0.06 z"
           id="path639"
           inkscape:connector-curvature="0" />
        <path
           d="m 71.79,255 0.17,0.12 a 0.1,0.1 0 0 0 0.09,0 0.19,0.19 0 0 0 0.06,-0.07 h 0.07 L 72,255.66 h -0.07 a 1.48,1.48 0 0 0 -0.1,-0.37 0.56,0.56 0 0 0 -0.35,-0.33 0.4,0.4 0 0 0 -0.44,0.11 1.45,1.45 0 0 0 -0.29,0.57 1.44,1.44 0 0 0 -0.07,0.48 0.47,0.47 0 0 0 0.35,0.47 0.7,0.7 0 0 0 0.4,0 1.45,1.45 0 0 0 0.29,-0.14 l 0.06,0.09 a 1.54,1.54 0 0 1 -0.34,0.17 0.84,0.84 0 0 1 -0.5,0 1,1 0 0 1 -0.58,-0.42 0.89,0.89 0 0 1 -0.08,-0.76 0.94,0.94 0 0 1 0.48,-0.6 0.92,0.92 0 0 1 0.71,-0.06 1,1 0 0 1 0.32,0.13 z"
           id="path641"
           inkscape:connector-curvature="0" />
        <path
           d="m 73.26,255.37 v 0.06 h -0.19 c 0,0 -0.05,0 -0.06,0.07 v 0 l 0.12,1.08 v 0 l 0.6,-0.78 v -0.05 -0.08 c 0,0 0,-0.08 0,-0.1 l -0.17,-0.08 v -0.06 l 0.55,0.16 v 0.06 a 0.25,0.25 0 0 0 -0.16,0 0.47,0.47 0 0 0 -0.14,0.13 l -1,1.35 h -0.07 l -0.2,-1.75 a 0.44,0.44 0 0 0 0,-0.16 0.22,0.22 0 0 0 -0.12,-0.09 v -0.06 z"
           id="path643"
           inkscape:connector-curvature="0" />
        <path
           d="m 74.36,257.54 a 0.31,0.31 0 0 0 0.19,0 c 0,0 0.08,-0.08 0.1,-0.17 l 0.34,-1.15 a 0.26,0.26 0 0 0 0,-0.21 0.38,0.38 0 0 0 -0.16,-0.09 v -0.07 l 0.83,0.25 a 1.4,1.4 0 0 1 0.4,0.18 0.42,0.42 0 0 1 0.19,0.49 0.41,0.41 0 0 1 -0.26,0.28 0.67,0.67 0 0 1 -0.3,0 l 0.33,0.9 a 0.11,0.11 0 0 0 0,0.05 h 0.06 v 0.06 l -0.54,-0.16 -0.36,-1 v 0 l -0.15,0.51 a 0.2,0.2 0 0 0 0.16,0.3 v 0.07 l -0.88,-0.26 z m 1.28,-0.6 q 0.13,0 0.2,-0.28 a 0.58,0.58 0 0 0 0,-0.25 0.28,0.28 0 0 0 -0.22,-0.23 0.25,0.25 0 0 0 -0.14,0 0.11,0.11 0 0 0 -0.06,0.08 l -0.2,0.66 a 0.78,0.78 0 0 0 0.42,0.02 z"
           id="path645"
           inkscape:connector-curvature="0" />
        <path
           d="m 76.24,258.1 a 0.2,0.2 0 0 0 0.18,0 1.24,1.24 0 0 0 0.17,-0.19 l 1,-1.25 h 0.07 l 0.17,1.53 a 1.91,1.91 0 0 0 0.06,0.34 0.16,0.16 0 0 0 0.12,0.1 v 0.07 l -0.84,-0.25 v -0.07 h 0.17 c 0,0 0.05,0 0.06,-0.07 a 0.35,0.35 0 0 0 0,-0.1 c 0,0 0,-0.06 0,-0.1 v -0.18 l -0.58,-0.17 -0.13,0.18 a 0.54,0.54 0 0 0 -0.08,0.14 c 0,0 0,0.07 0.05,0.1 l 0.13,0.05 v 0.07 l -0.53,-0.16 z m 1.14,-0.26 -0.07,-0.67 v 0 l -0.41,0.53 z"
           id="path647"
           inkscape:connector-curvature="0" />
        <path
           d="m 79.89,257.38 0.17,0.12 a 0.1,0.1 0 0 0 0.09,0 0.19,0.19 0 0 0 0.06,-0.07 h 0.07 L 80.1,258.04 80,258 a 1.48,1.48 0 0 0 -0.1,-0.37 0.56,0.56 0 0 0 -0.35,-0.33 0.4,0.4 0 0 0 -0.44,0.11 1.45,1.45 0 0 0 -0.29,0.57 1.44,1.44 0 0 0 -0.07,0.48 0.47,0.47 0 0 0 0.35,0.47 0.7,0.7 0 0 0 0.4,0 1.45,1.45 0 0 0 0.29,-0.14 l 0.06,0.09 a 1.54,1.54 0 0 1 -0.34,0.17 0.84,0.84 0 0 1 -0.5,0 1,1 0 0 1 -0.58,-0.42 0.89,0.89 0 0 1 -0.08,-0.76 0.94,0.94 0 0 1 0.48,-0.6 0.92,0.92 0 0 1 0.71,-0.06 1,1 0 0 1 0.35,0.17 z"
           id="path649"
           inkscape:connector-curvature="0" />
        <path
           d="m 80,259.22 a 0.38,0.38 0 0 0 0.16,0 0.17,0.17 0 0 0 0.12,-0.13 l 0.37,-1.26 a 0.16,0.16 0 0 0 0,-0.17 0.43,0.43 0 0 0 -0.15,-0.08 v -0.07 l 0.88,0.26 v 0.07 a 0.36,0.36 0 0 0 -0.2,0 c 0,0 -0.07,0.07 -0.1,0.17 l -0.17,0.56 0.73,-0.4 0.1,-0.06 a 0.11,0.11 0 0 0 0,-0.05 0.06,0.06 0 0 0 0,-0.08 l -0.17,-0.07 v -0.07 l 0.75,0.22 v 0.07 a 0.67,0.67 0 0 0 -0.37,0 5.72,5.72 0 0 0 -0.64,0.32 l 0.5,1.22 a 0.12,0.12 0 0 0 0,0.05 h 0.07 v 0.07 L 81,259.6 v -0.07 h 0.16 c 0,0 0,0 0.06,0 v -0.08 l -0.3,-0.73 h -0.09 l -0.15,0.51 a 0.16,0.16 0 0 0 0,0.18 0.39,0.39 0 0 0 0.14,0.07 v 0.07 l -0.87,-0.26 z"
           id="path651"
           inkscape:connector-curvature="0" />
      </g>
    </g>
  </g>
</svg>
