<?xml version="1.0" encoding="UTF-8" standalone="no"?>
<svg
   xmlns:dc="http://purl.org/dc/elements/1.1/"
   xmlns:cc="http://creativecommons.org/ns#"
   xmlns:rdf="http://www.w3.org/1999/02/22-rdf-syntax-ns#"
   xmlns:svg="http://www.w3.org/2000/svg"
   xmlns="http://www.w3.org/2000/svg"
   xmlns:sodipodi="http://sodipodi.sourceforge.net/DTD/sodipodi-0.dtd"
   xmlns:inkscape="http://www.inkscape.org/namespaces/inkscape"
   id="svg8"
   viewBox="0 0 60 380"
   version="1.1"
   sodipodi:docname="BlankPanel4.svg"
   inkscape:version="0.92.2 5c3e80d, 2017-08-06"
   width="60"
   height="380">
  <metadata
     id="metadata39">
    <rdf:RDF>
      <cc:Work
         rdf:about="">
        <dc:format>image/svg+xml</dc:format>
        <dc:type
           rdf:resource="http://purl.org/dc/dcmitype/StillImage" />
        <dc:title>BlankPanel8</dc:title>
      </cc:Work>
    </rdf:RDF>
  </metadata>
  <sodipodi:namedview
     pagecolor="#ffffff"
     bordercolor="#666666"
     borderopacity="1"
     objecttolerance="10"
     gridtolerance="10"
     guidetolerance="10"
     inkscape:pageopacity="0"
     inkscape:pageshadow="2"
     inkscape:window-width="1372"
     inkscape:window-height="1231"
     id="namedview37"
     showgrid="false"
     inkscape:zoom="1.9612909"
     inkscape:cx="-84.198267"
     inkscape:cy="120.36804"
     inkscape:window-x="89"
     inkscape:window-y="125"
     inkscape:window-maximized="0"
     inkscape:current-layer="svg8" />
  <defs
     id="defs4">
    <style
       id="style2">.cls-1{fill:#ab2d2d;}.cls-2{fill:#952d2d;}.cls-3{fill:#251e1e;}.cls-4{fill:#fff7d4;}.cls-5{fill:#202020;}</style>
  </defs>
  <title
     id="title6">BlankPanel8</title>
  <rect
     style="opacity:1;vector-effect:none;fill:#44423e;fill-opacity:1;stroke:none;stroke-width:0.68849927;stroke-linecap:butt;stroke-linejoin:miter;stroke-miterlimit:4;stroke-dasharray:none;stroke-dashoffset:0;stroke-opacity:1"
     id="rect1709"
     width="60"
     height="380"
     x="0"
     y="0" />
  <g
     transform="matrix(7.9299111,0,0,7.9299111,-445.58996,-2669.2158)"
     data-name="Layer 2"
     id="g1661"
     style="fill:#3c3835;fill-opacity:1">
    <g
       data-name="Layer 1-2"
       id="g1659"
       style="fill:#3c3835;fill-opacity:1">
      <path
         style="fill:#3c3835;fill-opacity:1"
         inkscape:connector-curvature="0"
         d="m 71.31,357 a 0.91,0.91 0 0 0 -0.41,-0.53 0.77,0.77 0 0 0 -0.64,-0.1 0.91,0.91 0 0 0 -0.53,0.41 43.94,43.94 0 0 1 -3.33,5.08 21.5,21.5 0 0 1 -2.08,-6.45 v -0.39 l 2,-2.81 c 0.24,-0.34 1.26,-1.56 -0.78,-2.45 a 3.15,3.15 0 0 0 -2.36,0.07 c -2.32,1 -1.92,4.26 -1.85,4.79 q 0,0.31 0.09,0.62 l -3.78,6.22 c 0,0 0.49,-3.26 0.58,-3.85 A 1.36,1.36 0 0 0 57.1,356 c -1,-0.24 -1.61,0.06 -2.27,2.65 -0.56,2.19 -2.54,7.64 -3.86,7.6 -0.78,0 -0.24,-3.41 0.68,-5.87 1.12,-2.95 3.78,-7 6.78,-8.83 0.69,-0.43 1.6,-1.5 0.66,-2.56 -1.19,-1.34 -2.46,-0.28 -3,0.13 a 14.68,14.68 0 0 0 -3.49,4.35 22.82,22.82 0 0 0 -2.81,6.33 c -1,3.25 -2.07,8.54 0.1,8.74 3,0.27 5.39,-5.56 5.39,-5.56 0,0 -0.13,3.05 1.4,3.13 1.53,0.08 4.51,-5.9 5.36,-7.92 a 22.36,22.36 0 0 0 2.5,5.55 2.87,2.87 0 0 1 0.14,0.39 c -0.34,0.47 -3.77,4.86 -4.77,7.5 a 0.82,0.82 0 0 0 0,0.72 0.79,0.79 0 0 0 0.5,0.42 1.12,1.12 0 0 0 0.74,-0.12 5.53,5.53 0 0 0 0.66,-0.35 c 4.83,-2.78 5.52,-6 5.17,-8.48 a 2.08,2.08 0 0 1 0.26,-0.4 42.2,42.2 0 0 0 3.89,-5.77 0.76,0.76 0 0 0 0.18,-0.65 z"
         class="cls-4"
         id="path1657" />
    </g>
  </g>
  <rect
     style="opacity:1;vector-effect:none;fill:#3c3835;fill-opacity:1;stroke:none;stroke-width:0.68849927;stroke-linecap:butt;stroke-linejoin:miter;stroke-miterlimit:4;stroke-dasharray:none;stroke-dashoffset:0;stroke-opacity:1"
     id="rect1759"
     width="60"
     height="15"
     x="0"
     y="365" />
  <rect
     y="0"
     x="0"
     height="15"
     width="60"
     id="rect1806"
     style="opacity:1;vector-effect:none;fill:#3c3835;fill-opacity:1;stroke:none;stroke-width:0.68849927;stroke-linecap:butt;stroke-linejoin:miter;stroke-miterlimit:4;stroke-dasharray:none;stroke-dashoffset:0;stroke-opacity:1" />
  <circle
     style="opacity:1;vector-effect:none;fill:#3c3835;fill-opacity:1;stroke:none;stroke-width:0.74390346;stroke-linecap:butt;stroke-linejoin:miter;stroke-miterlimit:4;stroke-dasharray:none;stroke-dashoffset:0;stroke-opacity:1"
     id="path1686"
     cx="30"
     cy="359.88184"
     r="15.118111" />
  <g
     style="fill:#fff7d4;fill-opacity:1"
     id="Layer_2-2"
     data-name="Layer 2"
     transform="matrix(0.66602928,0,0,0.66602928,-9.9445641,118.99293)">
    <g
       style="fill:#fff7d4;fill-opacity:1"
       id="Layer_1-2-6"
       data-name="Layer 1-2">
      <path
         id="path8-4-6"
         class="cls-4"
         d="m 71.31,357 a 0.91,0.91 0 0 0 -0.41,-0.53 0.77,0.77 0 0 0 -0.64,-0.1 0.91,0.91 0 0 0 -0.53,0.41 43.94,43.94 0 0 1 -3.33,5.08 21.5,21.5 0 0 1 -2.08,-6.45 v -0.39 l 2,-2.81 c 0.24,-0.34 1.26,-1.56 -0.78,-2.45 a 3.15,3.15 0 0 0 -2.36,0.07 c -2.32,1 -1.92,4.26 -1.85,4.79 q 0,0.31 0.09,0.62 l -3.78,6.22 c 0,0 0.49,-3.26 0.58,-3.85 A 1.36,1.36 0 0 0 57.1,356 c -1,-0.24 -1.61,0.06 -2.27,2.65 -0.56,2.19 -2.54,7.64 -3.86,7.6 -0.78,0 -0.24,-3.41 0.68,-5.87 1.12,-2.95 3.78,-7 6.78,-8.83 0.69,-0.43 1.6,-1.5 0.66,-2.56 -1.19,-1.34 -2.46,-0.28 -3,0.13 a 14.68,14.68 0 0 0 -3.49,4.35 22.82,22.82 0 0 0 -2.81,6.33 c -1,3.25 -2.07,8.54 0.1,8.74 3,0.27 5.39,-5.56 5.39,-5.56 0,0 -0.13,3.05 1.4,3.13 1.53,0.08 4.51,-5.9 5.36,-7.92 a 22.36,22.36 0 0 0 2.5,5.55 2.87,2.87 0 0 1 0.14,0.39 c -0.34,0.47 -3.77,4.86 -4.77,7.5 a 0.82,0.82 0 0 0 0,0.72 0.79,0.79 0 0 0 0.5,0.42 1.12,1.12 0 0 0 0.74,-0.12 5.53,5.53 0 0 0 0.66,-0.35 c 4.83,-2.78 5.52,-6 5.17,-8.48 a 2.08,2.08 0 0 1 0.26,-0.4 42.2,42.2 0 0 0 3.89,-5.77 0.76,0.76 0 0 0 0.18,-0.65 z"
         inkscape:connector-curvature="0"
         style="fill:#fff7d4;fill-opacity:1" />
    </g>
  </g>
  <g
     transform="scale(3.7795276)"
     id="g1486">
    <path
       style="fill:#251e1e;fill-opacity:1;stroke-width:0.26458335"
       d="M 1.5406693,0.7410401 V 3.2385622 H 2.7333615 C 3.4623855,3.2776139 4.0851679,2.7185244 4.1250078,1.9895428 4.085169,1.2605618 3.4623855,0.70198842 2.7333615,0.7410401 Z"
       id="rect861-6"
       inkscape:connector-curvature="0" />
    <path
       id="path912"
       d="m 1.540669,97.440866 v 2.497523 h 1.192693 c 0.729024,0.03905 1.351806,-0.520038 1.391646,-1.24902 -0.03984,-0.728981 -0.662622,-1.287554 -1.391646,-1.248503 z"
       style="fill:#251e1e;fill-opacity:1;stroke-width:0.26458335"
       inkscape:connector-curvature="0" />
  </g>
  <g
     transform="scale(3.7795276)"
     id="g1490">
    <path
       inkscape:connector-curvature="0"
       id="path918"
       d="M 14.331839,0.74104081 V 3.2385629 H 13.139146 C 12.410122,3.2776147 11.78734,2.7185251 11.7475,1.9895435 11.78734,1.2605625 12.410122,0.70198913 13.139146,0.74104081 Z"
       style="fill:#251e1e;fill-opacity:1;stroke-width:0.26458335" />
    <path
       inkscape:connector-curvature="0"
       style="fill:#251e1e;fill-opacity:1;stroke-width:0.26458335"
       d="m 14.331839,97.440867 v 2.497523 h -1.192693 c -0.729024,0.03905 -1.351806,-0.520038 -1.391646,-1.24902 0.03984,-0.728981 0.662622,-1.287554 1.391646,-1.248503 z"
       id="path920" />
  </g>
</svg>
