<svg id="svg8" xmlns="http://www.w3.org/2000/svg" width="89.99999" height="380.00004" viewBox="0 0 89.99999 380.00004">
  <title>Crackle</title>
  <g id="layer1">
    <path id="rect817" d="M0,0H90V380H0Z" transform="translate(0 0.00002)" style="fill: #f0f0f0"/>
  </g>
  <g>
    <path d="M25.78415,361.57842H24.17823v-5.3311H18.10212v5.3311H16.49619V350.15468h1.60593v4.71854h6.07611v-4.71854h1.60593Z" transform="translate(0 0.00002)" style="fill: #231f20"/>
    <path d="M33.99163,361.57842H27.17051V350.15468h6.68867v1.34109H28.77644v3.41053h4.8013v1.341h-4.8013v3.97347h5.21519Z" transform="translate(0 0.00002)" style="fill: #231f20"/>
    <path d="M42.86514,351.49577H39.65329v10.08265h-1.606V351.49577H34.81891v-1.34109h8.04624Z" transform="translate(0 0.00002)" style="fill: #231f20"/>
    <path d="M51.62163,361.57842H49.68452l-2.98-4.91715H45.47936v4.91715h-1.606V350.15468h3.22846a4.37325,4.37325,0,0,1,2.74834.79469A3.185,3.185,0,0,1,48.36,356.49568Zm-3.04632-9.70191a3.04673,3.04673,0,0,0-1.92045-.41389h-1.1755v3.87416h1.1755a3.15908,3.15908,0,0,0,1.92045-.39735,1.72712,1.72712,0,0,0,.72853-1.5397A1.69838,1.69838,0,0,0,48.57531,351.87651Z" transform="translate(0 0.00002)" style="fill: #231f20"/>
    <path d="M54.41922,361.57842H52.81317V350.15468h1.60605Z" transform="translate(0 0.00002)" style="fill: #231f20"/>
    <path d="M65.54207,360.08834A5.35543,5.35543,0,0,1,61.37,361.77709a5.89517,5.89517,0,1,1,4.05617-10.28133l-.67878,1.29135a4.52732,4.52732,0,0,0-3.31122-1.39071,4.45825,4.45825,0,0,0,0,8.90722,4.52188,4.52188,0,0,0,3.41059-1.39071Z" transform="translate(0 0.00002)" style="fill: #ed3224"/>
    <path d="M75.45235,361.57842H73.4987L69.70743,355.85l-1.1755,1.192v4.5364H66.92588V350.15468h1.60605v4.86753l4.65225-4.86753h1.95353l-4.35415,4.50326Z" transform="translate(0 0.00002)" style="fill: #ed3224"/>
    <path d="M75.45235,361.57842H73.4987L69.70743,355.85l-1.1755,1.192v4.5364H66.92588V357.019l1.60605.023,1.1755-1.192,1.07613-1.192.61637.91363.49748.7374Z" transform="translate(0 0.00002)"/>
  </g>
  <g>
    <path d="M27.75977,27.21582a5.825,5.825,0,0,1-4.5376,1.83643,6.12088,6.12088,0,0,1-6.356-6.40967,6.15079,6.15079,0,0,1,6.356-6.40967,6.156,6.156,0,0,1,4.41162,1.63818l-.73828,1.4043a4.92533,4.92533,0,0,0-3.60107-1.51221A4.52144,4.52144,0,0,0,18.667,22.60645a4.53144,4.53144,0,0,0,4.62744,4.84375,4.91744,4.91744,0,0,0,3.709-1.5127Z" transform="translate(0 0.00002)"/>
    <path d="M34.02148,21.86816h-.07178a2.27079,2.27079,0,0,0-.93652-.17969,1.79124,1.79124,0,0,0-1.4043.72021,3.78913,3.78913,0,0,0-.522,2.16064v4.26709H29.3584V20.28369h1.72852l-.01807,1.31445h.0542a2.23246,2.23246,0,0,1,2.10645-1.47656,2.39763,2.39763,0,0,1,.90039.14453Z" transform="translate(0 0.00002)"/>
    <path d="M41.67236,28.83643h-1.6748l-.01807-1.08008a3.52814,3.52814,0,0,1-2.71875,1.27832,2.71692,2.71692,0,0,1-2.95264-2.647c0-1.67432,1.36816-2.521,3.34912-2.61084l2.28662-.08984v-.34229a1.87683,1.87683,0,0,0-2.125-1.94434,5.25748,5.25748,0,0,0-2.57471.73779l-.522-1.15234a6.59057,6.59057,0,0,1,3.20508-.86426,3.707,3.707,0,0,1,2.82666.97266,3.5417,3.5417,0,0,1,.91846,2.77246ZM39.96191,24.731l-1.999.12646c-1.38623.07178-1.94434.666-1.94434,1.47607,0,.81055.62988,1.47656,1.76465,1.47656a2.68647,2.68647,0,0,0,2.17871-1.24219Z" transform="translate(0 0.00002)"/>
    <path d="M51.05078,27.73828a4.55475,4.55475,0,0,1-7.74268-3.16895,4.31611,4.31611,0,0,1,4.37549-4.44775,4.161,4.161,0,0,1,3.3125,1.22461l-.6123,1.26025A3.37269,3.37269,0,0,0,47.82715,21.562a2.77552,2.77552,0,0,0-2.77246,2.95313,2.78558,2.78558,0,0,0,2.791,3.043,3.55764,3.55764,0,0,0,2.59277-1.08057Z" transform="translate(0 0.00002)"/>
    <path d="M60.17676,28.83643h-2.0166l-2.93457-4.14111-.99023.936v3.20508H52.52441V16.4126h1.71094v7.29248l3.49316-3.42139h2.01563l-3.34863,3.22314Z" transform="translate(0 0.00002)"/>
    <path d="M63.001,28.83643H61.29V16.4126H63.001Z" transform="translate(0 0.00002)"/>
    <path d="M73.22559,24.96533H66.63574a2.63767,2.63767,0,0,0,2.75488,2.71875,4.73357,4.73357,0,0,0,2.82715-.99023l.71973.99023a5.02142,5.02142,0,0,1-3.7627,1.35059,4.147,4.147,0,0,1-4.28516-4.4834,4.24249,4.24249,0,0,1,4.33887-4.42969,3.90514,3.90514,0,0,1,4.05176,4.0874A7.36492,7.36492,0,0,1,73.22559,24.96533ZM71.6416,23.813a2.472,2.472,0,0,0-2.4668-2.44873A2.51551,2.51551,0,0,0,66.6543,23.813Z" transform="translate(0 0.00002)"/>
  </g>
  <g>
    <path d="M36.56006,136.91992a3.87957,3.87957,0,0,1-3.02246,1.22363,4.27064,4.27064,0,1,1,2.93848-7.44824l-.4917.93555a3.279,3.279,0,0,0-2.39844-1.00732,3.22967,3.22967,0,0,0,0,6.45264,3.274,3.274,0,0,0,2.47021-1.00781Z" transform="translate(0 0.00002)"/>
    <path d="M42.645,137.99951H41.49365v-3.22607c0-.81592-.13184-1.63135-1.17529-1.63135s-1.4873.89941-1.4873,2.03906v2.81836H37.69189v-8.27539h1.13916v3.478H38.855a1.94533,1.94533,0,0,1,1.75146-1.00732c1.64307,0,2.03857,1.05518,2.03857,2.41064Z" transform="translate(0 0.00002)"/>
    <path d="M48.63281,137.99951H47.51758l-.01172-.71973a2.35166,2.35166,0,0,1-1.811.85156,1.80969,1.80969,0,0,1-1.9668-1.76318c0-1.11523.91113-1.67871,2.23047-1.73877l1.52295-.06006v-.228a1.25007,1.25007,0,0,0-1.415-1.29492,3.495,3.495,0,0,0-1.71484.4917l-.34766-.76758a4.38091,4.38091,0,0,1,2.13477-.57568,2.46939,2.46939,0,0,1,1.88281.64746,2.35972,2.35972,0,0,1,.61133,1.84717Zm-1.13965-2.73437-1.33105.084c-.92334.04785-1.29492.44385-1.29492.9834s.41992.9834,1.1748.9834a1.78794,1.78794,0,0,0,1.45117-.82764Z" transform="translate(0 0.00002)"/>
    <path d="M52.749,138.13135a2.96856,2.96856,0,1,1,3.01074-2.9624A2.88788,2.88788,0,0,1,52.749,138.13135Zm0-5.001a2.01581,2.01581,0,1,0,1.84766,2.00293A1.85292,1.85292,0,0,0,52.749,133.13037Z" transform="translate(0 0.00002)"/>
    <path d="M60.21387,137.62793a2.43023,2.43023,0,0,1-1.583.50342,2.72618,2.72618,0,0,1-2.21875-1.01953l.55176-.67139a2.3373,2.3373,0,0,0,1.67871.81543c.52734,0,1.0918-.19189,1.0918-.81543s-.90039-.81543-1.28418-.94775a4.23293,4.23293,0,0,1-.7793-.2998,1.46864,1.46864,0,0,1-.89941-1.36719,1.72375,1.72375,0,0,1,1.91895-1.63086,2.49409,2.49409,0,0,1,1.94336.74365l-.48047.70752a2.08429,2.08429,0,0,0-1.43848-.61182c-.55176,0-.91211.23975-.91211.70752s.55176.67188,1.11523.85156c.3125.10791.52832.18018.76758.27588a2.17756,2.17756,0,0,1,.66016.40771,1.40928,1.40928,0,0,1,.45605,1.05566A1.621,1.621,0,0,1,60.21387,137.62793Z" transform="translate(0 0.00002)"/>
  </g>
  <g>
    <path d="M38.91553,322.47754a4.27,4.27,0,1,1,4.26953-4.26953A4.1111,4.1111,0,0,1,38.91553,322.47754Zm0-7.53223a3.24222,3.24222,0,1,0,3.08252,3.23828A3.02752,3.02752,0,0,0,38.91553,314.94531Z" transform="translate(0 0.00002)"/>
    <path d="M49.27051,322.333H48.15527l-.01172-.81543a1.98573,1.98573,0,0,1-1.7627.94727,1.84507,1.84507,0,0,1-1.583-.65918,2.891,2.891,0,0,1-.41992-1.7627V316.624h1.13916v3.37012c0,.78027.168,1.51172,1.187,1.51172,1.00781,0,1.415-.86328,1.415-1.82324V316.624h1.15137Z" transform="translate(0 0.00002)"/>
    <path d="M53.62793,322.27344a2.898,2.898,0,0,1-1.04395.19141,1.33669,1.33669,0,0,1-1.21094-.58691,2.97191,2.97191,0,0,1-.28809-1.70312v-2.60254h-.83984v-.92383H51.085v-1.70312h1.15137v1.70313h1.36719v.92383H52.23633v2.57813a2.245,2.245,0,0,0,.14355,1.04395.59688.59688,0,0,0,.58789.28711,1.39119,1.39119,0,0,0,.58789-.13184Z" transform="translate(0 0.00002)"/>
  </g>
  <g>
    <path d="M35.16211,212.58691a3.87791,3.87791,0,0,1-3.02246,1.22363,4.27041,4.27041,0,1,1,2.93848-7.44824l-.4917.93555A3.28084,3.28084,0,0,0,32.188,206.291a3.22942,3.22942,0,0,0,0,6.45215,3.27589,3.27589,0,0,0,2.4707-1.00781Z" transform="translate(0 0.00002)"/>
    <path d="M37.43311,213.667H36.29395V205.3916h1.13916Z" transform="translate(0 0.00002)"/>
    <path d="M43.50342,213.667H42.3877l-.01172-.71973a2.35229,2.35229,0,0,1-1.811.85156,1.81006,1.81006,0,0,1-1.9668-1.76367c0-1.11523.91113-1.67871,2.23047-1.73828l1.52344-.06055v-.22754a1.25023,1.25023,0,0,0-1.41553-1.29492,3.4962,3.4962,0,0,0-1.71484.49121l-.34766-.76758a4.38147,4.38147,0,0,1,2.13477-.5752,2.46939,2.46939,0,0,1,1.88281.64746,2.35777,2.35777,0,0,1,.61182,1.84668Zm-1.13965-2.73437-1.33105.084c-.92383.04785-1.29541.44336-1.29541.9834,0,.53906.41992.9834,1.17529.9834a1.78784,1.78784,0,0,0,1.45117-.82812Z" transform="translate(0 0.00002)"/>
    <path d="M48.23145,213.29492a2.4277,2.4277,0,0,1-1.583.50391,2.72755,2.72755,0,0,1-2.21875-1.01953l.55176-.67187a2.33546,2.33546,0,0,0,1.67871.81543c.52832,0,1.0918-.19141,1.0918-.81543,0-.623-.89941-.81543-1.2832-.94727a4.289,4.289,0,0,1-.77979-.2998,1.46848,1.46848,0,0,1-.89941-1.36719A1.72355,1.72355,0,0,1,46.708,207.8623a2.494,2.494,0,0,1,1.94336.74316l-.47949.708a2.08682,2.08682,0,0,0-1.43945-.6123c-.55176,0-.91162.24023-.91162.708s.55127.67188,1.11572.85156c.31152.10742.52734.17969.76758.27539a2.19564,2.19564,0,0,1,.65918.4082A1.40928,1.40928,0,0,1,48.81934,212,1.61932,1.61932,0,0,1,48.23145,213.29492Z" transform="translate(0 0.00002)"/>
    <path d="M53.0791,213.29492a2.42583,2.42583,0,0,1-1.583.50391,2.72755,2.72755,0,0,1-2.21875-1.01953l.55176-.67187a2.33546,2.33546,0,0,0,1.67871.81543c.52832,0,1.0918-.19141,1.0918-.81543,0-.623-.89941-.81543-1.2832-.94727a4.2683,4.2683,0,0,1-.7793-.2998,1.46776,1.46776,0,0,1-.89941-1.36719,1.72346,1.72346,0,0,1,1.91895-1.63086,2.49162,2.49162,0,0,1,1.94238.74316l-.47949.708a2.08682,2.08682,0,0,0-1.43945-.6123c-.55176,0-.91113.24023-.91113.708s.55176.67188,1.11523.85156c.31152.10742.52734.17969.76758.27539a2.19564,2.19564,0,0,1,.65918.4082A1.40928,1.40928,0,0,1,53.667,212,1.61932,1.61932,0,0,1,53.0791,213.29492Z" transform="translate(0 0.00002)"/>
    <path d="M55.4209,206.80664a.70842.70842,0,1,1,.74414-.708A.70715.70715,0,0,1,55.4209,206.80664Zm.57617,6.86035H54.8457v-5.69727h1.15137Z" transform="translate(0 0.00002)"/>
    <path d="M62.40234,212.93555a3.034,3.034,0,0,1-5.15723-2.11133,2.87383,2.87383,0,0,1,2.91406-2.96191,2.77259,2.77259,0,0,1,2.207.81543l-.4082.83887a2.24751,2.24751,0,0,0-1.70312-.69531,2.0027,2.0027,0,0,0,.01172,3.99414,2.36816,2.36816,0,0,0,1.72754-.71973Z" transform="translate(0 0.00002)"/>
    <path d="M32.62549,256.32715a3.19919,3.19919,0,0,1-2.08691.54H27.85205V248.5918h2.23047a3.574,3.574,0,0,1,1.96729.39551A1.84148,1.84148,0,0,1,32.937,250.666a1.88563,1.88563,0,0,1-1.25928,1.81152v.02344a2.02362,2.02362,0,0,1,1.835,2.01563A2.1578,2.1578,0,0,1,32.62549,256.32715Zm-1.40332-6.584a2.12984,2.12984,0,0,0-1.13965-.22852H29.01514v2.627h.97168a2.04349,2.04349,0,0,0,1.23535-.252,1.23429,1.23429,0,0,0,.55176-1.0918A1.10182,1.10182,0,0,0,31.22217,249.74316Zm.4917,3.58594a2.53449,2.53449,0,0,0-1.45117-.2998H29.01514v2.89063H30.2627a2.53841,2.53841,0,0,0,1.45117-.28809,1.28521,1.28521,0,0,0,.59961-1.16406A1.24382,1.24382,0,0,0,31.71387,253.3291Z" transform="translate(0 0.00002)"/>
    <path d="M37.88232,252.22559h-.04785a1.51263,1.51263,0,0,0-.624-.12012,1.19615,1.19615,0,0,0-.93555.47949,2.52691,2.52691,0,0,0-.34766,1.43945v2.84277H34.77588v-5.69727h1.15137l-.01172.876h.03564a1.486,1.486,0,0,1,1.40332-.9834,1.6041,1.6041,0,0,1,.59961.0957Z" transform="translate(0 0.00002)"/>
    <path d="M41.25439,256.999a2.96855,2.96855,0,1,1,3.01025-2.96289A2.88853,2.88853,0,0,1,41.25439,256.999Zm0-5.001a2.0159,2.0159,0,1,0,1.84668,2.00293A1.853,1.853,0,0,0,41.25439,251.998Z" transform="translate(0 0.00002)"/>
    <path d="M50.625,256.86719H49.28125l-1.95508-2.75879-.65918.624v2.13477H45.52783V248.5918H46.667v4.85742l2.32617-2.2793h1.34375l-2.23047,2.14648Z" transform="translate(0 0.00002)"/>
    <path d="M56.18066,254.28809H51.791a1.75617,1.75617,0,0,0,1.835,1.81152,3.14954,3.14954,0,0,0,1.88281-.66016l.47949.66016a3.346,3.346,0,0,1-2.50586.89941,2.76251,2.76251,0,0,1-2.85449-2.98633,2.82524,2.82524,0,0,1,2.88965-2.9502,2.601,2.601,0,0,1,2.69922,2.72168A4.92487,4.92487,0,0,1,56.18066,254.28809Zm-1.05566-.76758a1.646,1.646,0,0,0-1.64258-1.63086,1.67643,1.67643,0,0,0-1.67969,1.63086Z" transform="translate(0 0.00002)"/>
    <path d="M62.3125,256.86719H61.16113v-3.17871c0-.959-.168-1.67871-1.1875-1.67871-1.06738,0-1.46289.89941-1.46289,1.99121v2.86621H57.35938v-5.69727h1.15137l-.0127.89941h.03613a1.924,1.924,0,0,1,1.73926-1.00684c1.61914,0,2.03906,1.06738,2.03906,2.43457Z" transform="translate(0 0.00002)"/>
  </g>
  <rect x="24.42913" y="281.00002" width="41.14172" height="45.33333" rx="8" ry="8"/>
  <g>
    <path d="M38.91553,322.47754a4.27,4.27,0,1,1,4.26953-4.26953A4.1111,4.1111,0,0,1,38.91553,322.47754Zm0-7.53223a3.24222,3.24222,0,1,0,3.08252,3.23828A3.02752,3.02752,0,0,0,38.91553,314.94531Z" transform="translate(0 0.00002)" style="fill: #fff"/>
    <path d="M49.27051,322.333H48.15527l-.01172-.81543a1.98573,1.98573,0,0,1-1.7627.94727,1.84507,1.84507,0,0,1-1.583-.65918,2.891,2.891,0,0,1-.41992-1.7627V316.624h1.13916v3.37012c0,.78027.168,1.51172,1.187,1.51172,1.00781,0,1.415-.86328,1.415-1.82324V316.624h1.15137Z" transform="translate(0 0.00002)" style="fill: #fff"/>
    <path d="M53.62793,322.27344a2.898,2.898,0,0,1-1.04395.19141,1.33669,1.33669,0,0,1-1.21094-.58691,2.97191,2.97191,0,0,1-.28809-1.70312v-2.60254h-.83984v-.92383H51.085v-1.70312h1.15137v1.70313h1.36719v.92383H52.23633v2.57813a2.245,2.245,0,0,0,.14355,1.04395.59688.59688,0,0,0,.58789.28711,1.39119,1.39119,0,0,0,.58789-.13184Z" transform="translate(0 0.00002)" style="fill: #fff"/>
  </g>
  <circle cx="45" cy="58.00002" r="19.5"/>
  <g>
    <circle cx="45" cy="58.00002" r="16.75688" style="fill: none;stroke: #f0f0f0;stroke-miterlimit: 10"/>
    <circle cx="45" cy="58.00002" r="15.3159" style="fill: none;stroke: #f0f0f0;stroke-miterlimit: 10"/>
    <circle cx="45" cy="58.00002" r="13.87493" style="fill: none;stroke: #f0f0f0;stroke-miterlimit: 10"/>
    <circle cx="45" cy="58.00002" r="12.43396" style="fill: none;stroke: #f0f0f0;stroke-miterlimit: 10"/>
    <circle cx="45" cy="58.00002" r="10.99298" style="fill: none;stroke: #f0f0f0;stroke-miterlimit: 10"/>
    <circle cx="45" cy="58.00002" r="9.55201" style="fill: none;stroke: #f0f0f0;stroke-miterlimit: 10"/>
    <circle cx="45" cy="58.00002" r="8.11103" style="fill: none;stroke: #f0f0f0;stroke-miterlimit: 10"/>
    <circle cx="45" cy="58.00002" r="6.67006" style="fill: none;stroke: #f0f0f0;stroke-miterlimit: 10"/>
    <circle cx="45" cy="58.00002" r="5.22908" style="fill: none;stroke: #f0f0f0;stroke-miterlimit: 10"/>
    <circle cx="45" cy="58.00002" r="3.78811" style="fill: none;stroke: #f0f0f0;stroke-miterlimit: 10"/>
  </g>
</svg>
