<svg id="Layer_1" data-name="Layer 1" xmlns="http://www.w3.org/2000/svg" viewBox="0 0 482.9463 92.5635"><defs><style>.cls-1{fill:#231f20;}.cls-2{fill:#ee3224;}</style></defs><title>hetrickcvlogo</title><path class="cls-1" d="M141.1914,361.1353h-12.61V319.2734H80.8691v41.8618h-12.61V271.4316h12.61v37.0518h47.7119V271.4316h12.61Z" transform="translate(-68.2588 -270.1318)"/><path class="cls-1" d="M214.64,361.1353h-53.562V271.4316H213.6v10.5308H173.688v26.7808H211.39v10.53H173.688v31.2012H214.64Z" transform="translate(-68.2588 -270.1318)"/><path class="cls-1" d="M284.3179,281.9624H259.0972v79.1729H246.4863V281.9624H221.1357V271.4316h63.1821Z" transform="translate(-68.2588 -270.1318)"/><path class="cls-1" d="M356.0771,361.1353H340.8662l-23.4-38.6113h-9.62v38.6113H295.2349V271.4316h25.3511c8.9707,0,16.25,2.08,21.5811,6.24,5.33,4.2905,8.71,10.7905,8.71,18.981,0,15.73-10.92,22.751-20.4111,24.5708Zm-23.9209-76.1831c-4.03-2.99-8.84-3.25-15.08-3.25h-9.23v30.4214h9.23c6.24,0,11.05-.26,15.08-3.12,4.03-2.99,5.7207-6.63,5.7207-12.09C337.877,291.5825,336.1865,287.8125,332.1563,284.9521Z" transform="translate(-68.2588 -270.1318)"/><path class="cls-1" d="M378.0449,361.1353H365.4336V271.4316h12.6113Z" transform="translate(-68.2588 -270.1318)"/><path class="cls-2" d="M471.3857,349.4346c-5.59,6.24-15.73,13.2607-32.7607,13.2607-26.1309,0-45.8916-18.3306-45.8916-46.2817s20.15-46.2817,45.8916-46.2817c16.7705,0,26.9111,7.0205,31.8506,11.8306l-5.33,10.14c-3.51-4.42-13.5205-10.92-26.001-10.92-19.37,0-33.4111,13.9106-33.4111,34.9712s14.1709,34.9717,33.4111,34.9717c11.8311,0,20.9307-4.55,26.7813-10.92Z" transform="translate(-68.2588 -270.1318)"/><path class="cls-2" d="M551.2051,361.1353H535.8643l-29.7705-44.9819-9.23,9.36v35.6216H484.252V271.4316h12.6113v38.2217l36.5312-38.2217h15.34l-34.19,35.3613Z" transform="translate(-68.2588 -270.1318)"/><path d="M551.2051,361.1353H535.8643l-29.7705-44.9819-9.23,9.36v35.6216H484.252V325.3333l12.6113.18,9.23-9.36,8.45-9.36,4.84,7.1742,3.9064,5.79Z" transform="translate(-68.2588 -270.1318)"/></svg>