<?xml version="1.0" encoding="UTF-8" standalone="no"?>
<svg
   xmlns:svg="http://www.w3.org/2000/svg"
   xmlns="http://www.w3.org/2000/svg"
   xmlns:inkscape="http://www.inkscape.org/namespaces/inkscape"
   width="90px"
   height="380px">
  <g
     inkscape:label="Background"
     inkscape:groupmode="layer"
     id="background">
    <rect
       x="0"
       y="0"
       width="90"
       height="380"
       style="fill:#294f77;stroke:none;"
       id="rect4255" />
    <path
       style="fill:#3a6ea5;fill-rule:nonzero;stroke:none"
       d="m 0 380 v -380 h 90 l -1 1 h -88 v 378 z"
       id="path4656" />
    <path
       style="fill:#182d44;fill-rule:nonzero;stroke:none"
       d="m 0 380 h 90 v -380 l -1 1 v 378 h -88 z"
       id="path4658" />
  </g>
  <g
     inkscape:label="Logo"
     inkscape:groupmode="layer"
     id="logo"
     fill="#719fcf"
     font-family="DejaVu Sans"
     font-size="12">
    <path
       d="m 79.35391,366 a 1.9846094,2.2519786 0 0 0 -1.98465,2.25192 1.9846094,2.2519786 0 0 0 0.0588,0.53167 A 8.1692063,5.1693144 0 0 0 71,373.83071 8.1692063,5.1693144 0 0 0 79.16915,379 8.1692063,5.1693144 0 0 0 86.48278,376.11985 3.0461447,4.2480502 0 0 0 89,377.97641 l 0,-2.35772 A 1.3384576,1.9448905 0 0 1 87.7077,373.67718 1.3384576,1.9448905 0 0 1 89,371.73455 l 0,-2.25416 a 3.0461447,4.2480502 0 0 0 -2.57413,1.97944 8.1692063,5.1693144 0 0 0 -7.25672,-2.79842 8.1692063,5.1693144 0 0 0 -0.37318,0.0119 1.7538409,2.0472531 0 0 1 0.69638,-1.00162 l 0,-1.66609 A 1.9846094,2.2519786 0 0 0 79.35391,366 Z m -3.27707,5.83461 a 1.6615335,1.8425278 0 0 1 1.66156,1.84257 1.6615335,1.8425278 0 0 1 -1.66156,1.84257 1.6615335,1.8425278 0 0 1 -1.66145,-1.84257 1.6615335,1.8425278 0 0 1 1.66145,-1.84257 z m 3.78465,0.40949 a 1.2923038,1.4330772 0 0 1 1.29231,1.43308 1.2923038,1.4330772 0 0 1 -1.29231,1.43308 1.2923038,1.4330772 0 0 1 -1.2923,-1.43308 1.2923038,1.4330772 0 0 1 1.2923,-1.43308 z m 3.00928,0.38892 a 0.92307415,1.0236265 0 0 1 0.92304,1.02373 0.92307415,1.0236265 0 0 1 -0.92304,1.02359 0.92307415,1.0236265 0 0 1 -0.92317,-1.02359 0.92307415,1.0236265 0 0 1 0.92317,-1.02373 z"
       id="path4136"
       inkscape:connector-curvature="0" />
    <text
       x="3"
       y="377"
       id="text4662">submarine</text>
    <text x="45" y="12" text-anchor="middle">TF-101</text>
  </g>
  <g
     inkscape:label="Group"
     inkscape:groupmode="layer"
     id="group1"
     font-family="DejaVu Sans"
     font-size="8"
     stroke="#ffffff"
     stroke-width="1"
     stroke-linecap="round"
     stroke-linejoin="round"
     fill="none">
    
    <line x1="4" y1="47.5" x2="86" y2="47.5" />
    <line x1="4" y1="181.5" x2="86" y2="181.5" />
    <line x1="4" y1="315.5" x2="86" y2="315.5" />

    <g
       inkscape:label="Text"
       inkscape:groupmode="layer"
       fill="#ffffff"
       stroke="none">
      <text x="59" y="35" text-anchor="end">OUT</text>
      <text x="55" y="57" text-anchor="middle">FOREGROUND</text>
      <text x="55" y="191" text-anchor="middle">BACKGROUND</text>
      <text x="55" y="325" text-anchor="middle">TEXT-SIZE</text>
      <text x="38" y="82" text-anchor="middle">R</text>
      <text x="38" y="122" text-anchor="middle">G</text>
      <text x="38" y="162" text-anchor="middle">B</text>
      <text x="38" y="216" text-anchor="middle">R</text>
      <text x="38" y="256" text-anchor="middle">G</text>
      <text x="38" y="296" text-anchor="middle">B</text>
    </g>
  </g>
</svg>
