<?xml version="1.0" encoding="UTF-8" standalone="no"?>
<svg
   xmlns="http://www.w3.org/2000/svg"
   xmlns:inkscape="http://www.inkscape.org/namespaces/inkscape"
   width="30"
   height="380px"
   version="1.1"
   inkscape:version="0.91 r13725"
   id="svg4352">
  <g
     inkscape:label="Background"
     inkscape:groupmode="layer"
     id="background">
    <rect
       x="0"
       y="0"
       width="30"
       height="380"
       style="fill:#294f77;stroke:none;"
       id="rect4255" />
    <path
       style="fill:#3a6ea5;fill-rule:nonzero;stroke:none"
       d="m 0 380 v -380 h 30 l -1 1 h -28 v 378 z"
       id="path4356" />
    <path
       style="fill:#182d44;fill-rule:nonzero;stroke:none"
       d="m 0 380 h 30 v -380 l -1 1 v 378 h -28 z"
       id="path4358" />
  </g>
  <g
     inkscape:label="Logo"
     inkscape:groupmode="layer"
     id="logo"
     fill="#719fcf"
     font-family="DejaVu Sans"
     font-size="12">
    <path
       d="m 14.35391,366 a 1.9846094,2.2519786 0 0 0 -1.98465,2.25192 1.9846094,2.2519786 0 0 0 0.0588,0.53167 A 8.1692063,5.1693144 0 0 0 6,373.83071 8.1692063,5.1693144 0 0 0 14.16915,379 8.1692063,5.1693144 0 0 0 21.48278,376.11985 3.0461447,4.2480502 0 0 0 24,377.97641 l 0,-2.35772 A 1.3384576,1.9448905 0 0 1 22.7077,373.67718 1.3384576,1.9448905 0 0 1 24,371.73455 l 0,-2.25416 a 3.0461447,4.2480502 0 0 0 -2.57413,1.97944 8.1692063,5.1693144 0 0 0 -7.25672,-2.79842 8.1692063,5.1693144 0 0 0 -0.37318,0.0119 1.7538409,2.0472531 0 0 1 0.69638,-1.00162 l 0,-1.66609 A 1.9846094,2.2519786 0 0 0 14.35391,366 Z m -3.27707,5.83461 a 1.6615335,1.8425278 0 0 1 1.66156,1.84257 1.6615335,1.8425278 0 0 1 -1.66156,1.84257 1.6615335,1.8425278 0 0 1 -1.66145,-1.84257 1.6615335,1.8425278 0 0 1 1.66145,-1.84257 z m 3.78465,0.40949 a 1.2923038,1.4330772 0 0 1 1.29231,1.43308 1.2923038,1.4330772 0 0 1 -1.29231,1.43308 1.2923038,1.4330772 0 0 1 -1.2923,-1.43308 1.2923038,1.4330772 0 0 1 1.2923,-1.43308 z m 3.00928,0.38892 a 0.92307415,1.0236265 0 0 1 0.92304,1.02373 0.92307415,1.0236265 0 0 1 -0.92304,1.02359 0.92307415,1.0236265 0 0 1 -0.92317,-1.02359 0.92307415,1.0236265 0 0 1 0.92317,-1.02373 z"
       id="path4136"
       inkscape:connector-curvature="0" />
    <text x="15" y="10" text-anchor="middle" font-size="8">XG-104</text>
  </g>
  <g 
     inkscape:label="Group"
     inkscape:groupmode="layer"
     id="screen"
     stroke="#ffffff"
     fill="none"
     stroke-width="2"
     stroke-linecap="round">
    <line x1="15" y1="31.5" x2="15" y2="348.5" stroke="#719fcf" />
    <line x1="15" y1="31.5" x2="15" y2="87.5"/>
    <line x1="15" y1="118.5" x2="15" y2="174.5"/>
    <line x1="15" y1="205.5" x2="15" y2="261.5"/>
    <line x1="15" y1="292.5" x2="15" y2="348.5"/>
  </g>
</svg>
