<?xml version="1.0" encoding="UTF-8" standalone="no"?>
<!-- Created with Inkscape (http://www.inkscape.org/) -->

<svg
   xmlns:dc="http://purl.org/dc/elements/1.1/"
   xmlns:cc="http://creativecommons.org/ns#"
   xmlns:rdf="http://www.w3.org/1999/02/22-rdf-syntax-ns#"
   xmlns:svg="http://www.w3.org/2000/svg"
   xmlns="http://www.w3.org/2000/svg"
   xmlns:sodipodi="http://sodipodi.sourceforge.net/DTD/sodipodi-0.dtd"
   xmlns:inkscape="http://www.inkscape.org/namespaces/inkscape"
   width="6.8791666mm"
   height="6.8792815mm"
   viewBox="0 0 6.8791666 6.8792815"
   version="1.1"
   id="svg16908"
   inkscape:version="0.92.1 r"
   sodipodi:docname="BefacoTinyKnob.svg">
  <defs
     id="defs16902">
    <clipPath
       clipPathUnits="userSpaceOnUse"
       id="clipPath6367">
      <path
         d="M 0,3193 H 2089 V 0 H 0 Z"
         id="path6365"
         inkscape:connector-curvature="0" />
    </clipPath>
  </defs>
  <sodipodi:namedview
     id="base"
     pagecolor="#ffffff"
     bordercolor="#666666"
     borderopacity="1.0"
     inkscape:pageopacity="0.0"
     inkscape:pageshadow="2"
     inkscape:zoom="3.959798"
     inkscape:cx="-8.2556708"
     inkscape:cy="2.4894949"
     inkscape:document-units="mm"
     inkscape:current-layer="layer1"
     showgrid="false"
     fit-margin-top="0"
     fit-margin-left="0"
     fit-margin-right="0"
     fit-margin-bottom="0"
     inkscape:window-width="1600"
     inkscape:window-height="882"
     inkscape:window-x="0"
     inkscape:window-y="18"
     inkscape:window-maximized="0" />
  <metadata
     id="metadata16905">
    <rdf:RDF>
      <cc:Work
         rdf:about="">
        <dc:format>image/svg+xml</dc:format>
        <dc:type
           rdf:resource="http://purl.org/dc/dcmitype/StillImage" />
        <dc:title></dc:title>
      </cc:Work>
    </rdf:RDF>
  </metadata>
  <g
     inkscape:label="Layer 1"
     inkscape:groupmode="layer"
     id="layer1"
     transform="translate(-231.55376,-124.02034)">
    <g
       id="g1855"
       transform="matrix(0.21561496,0,0,-0.21561496,-103.31724,625.91769)"
       style="stroke-width:1.63614702">
      <g
         transform="translate(1582.2939,2302.9199)"
         id="g6771"
         style="stroke-width:1.63614702">
        <path
           inkscape:connector-curvature="0"
           id="path6773"
           style="fill:#d6d6d6;fill-opacity:1;fill-rule:nonzero;stroke:none;stroke-width:1.63614702"
           d="m 0,0 c 4.908,7.312 2.961,17.207 -4.351,22.115 -7.311,4.907 -17.233,2.979 -22.14,-4.334 -4.908,-7.311 -2.953,-17.25 4.359,-22.158 C -14.82,-9.285 -4.907,-7.312 0,0" />
      </g>
      <g
         transform="translate(1581.9912,2308.7881)"
         id="g6775"
         style="stroke-width:1.63614702">
        <path
           inkscape:connector-curvature="0"
           id="path6777"
           style="fill:#ffffff;fill-opacity:1;fill-rule:nonzero;stroke:none;stroke-width:1.63614702"
           d="m 0,0 c -1.641,-7.167 -8.78,-11.647 -15.948,-10.007 -7.167,1.64 -11.648,8.78 -10.007,15.947 1.64,7.167 8.779,11.648 15.947,10.008 C -2.841,14.308 1.64,7.168 0,0" />
      </g>
      <g
         transform="translate(1581.9912,2308.7881)"
         id="g6779"
         style="stroke-width:1.63614702">
        <path
           inkscape:connector-curvature="0"
           id="path6781"
           style="fill:none;stroke:#807a7a;stroke-width:0.66591185;stroke-linecap:round;stroke-linejoin:round;stroke-miterlimit:4;stroke-dasharray:none;stroke-opacity:1"
           d="m 0,0 c -1.641,-7.167 -8.78,-11.647 -15.948,-10.007 -7.167,1.64 -11.648,8.78 -10.007,15.947 1.64,7.167 8.779,11.648 15.947,10.008 C -2.841,14.308 1.64,7.168 0,0 Z" />
      </g>
      <g
         transform="translate(1568.4746,2319.8965)"
         id="g6783"
         style="stroke-width:1.63614702">
        <path
           inkscape:connector-curvature="0"
           id="path6785"
           style="fill:#000000;fill-opacity:1;fill-rule:nonzero;stroke:none;stroke-width:1.63614702"
           d="M 0,0 C -0.401,0.27 -0.509,0.813 -0.239,1.216 0.031,1.617 0.575,1.725 0.977,1.454 1.379,1.185 1.485,0.641 1.216,0.239 0.946,-0.163 0.402,-0.27 0,0" />
      </g>
      <g
         transform="translate(1568.4746,2319.8965)"
         id="g6787"
         style="stroke-width:1.63614702">
        <path
           inkscape:connector-curvature="0"
           id="path6789"
           style="fill:none;stroke:#000000;stroke-width:2.72091246;stroke-linecap:square;stroke-linejoin:miter;stroke-miterlimit:4;stroke-dasharray:none;stroke-opacity:1"
           d="M 0,0 C -0.401,0.27 -0.509,0.813 -0.239,1.216 0.031,1.617 0.575,1.725 0.977,1.454 1.379,1.185 1.485,0.641 1.216,0.239 0.946,-0.163 0.402,-0.27 0,0 Z" />
      </g>
    </g>
  </g>
</svg>
