<?xml version="1.0" encoding="UTF-8" standalone="no"?>
<!-- Created with Inkscape (http://www.inkscape.org/) -->

<svg
   xmlns:dc="http://purl.org/dc/elements/1.1/"
   xmlns:cc="http://creativecommons.org/ns#"
   xmlns:rdf="http://www.w3.org/1999/02/22-rdf-syntax-ns#"
   xmlns:svg="http://www.w3.org/2000/svg"
   xmlns="http://www.w3.org/2000/svg"
   xmlns:sodipodi="http://sodipodi.sourceforge.net/DTD/sodipodi-0.dtd"
   xmlns:inkscape="http://www.inkscape.org/namespaces/inkscape"
   width="25.664583mm"
   height="25.66571mm"
   viewBox="0 0 25.664584 25.665714"
   version="1.1"
   id="svg15246"
   sodipodi:docname="BefacoBigKnob.svg"
   inkscape:version="0.92.2 5c3e80d, 2017-08-06">
  <defs
     id="defs15240">
    <clipPath
       id="clip89">
      <rect
         y="0"
         x="0"
         width="18"
         height="19"
         id="rect4864" />
    </clipPath>
    <clipPath
       id="clip90">
      <path
         inkscape:connector-curvature="0"
         d="m 0.898438,0.128906 h 16.25 v 17.882813 h -16.25 z m 0,0"
         id="path4861" />
    </clipPath>
    <mask
       id="mask44">
      <g
         style="filter:url(#alpha)"
         id="g4858"
         transform="matrix(0.26458333,0,0,0.26458333,89.358789,128.57765)">
        <rect
           x="0"
           y="0"
           width="3052.8701"
           height="3351.5"
           style="fill:#000000;fill-opacity:0.14999402;stroke:none"
           id="rect4856" />
      </g>
    </mask>
    <filter
       id="alpha"
       filterUnits="objectBoundingBox"
       x="0"
       y="0"
       width="1"
       height="1">
      <feColorMatrix
         type="matrix"
         in="SourceGraphic"
         values="0 0 0 0 1 0 0 0 0 1 0 0 0 0 1 0 0 0 1 0"
         id="feColorMatrix4149" />
    </filter>
    <clipPath
       id="clipPath17821">
      <rect
         y="0"
         x="0"
         width="18"
         height="19"
         id="rect17819" />
    </clipPath>
    <clipPath
       id="clipPath17825">
      <path
         inkscape:connector-curvature="0"
         d="m 0.898438,0.128906 h 16.25 v 17.882813 h -16.25 z m 0,0"
         id="path17823" />
    </clipPath>
    <clipPath
       id="clip87">
      <rect
         y="0"
         x="0"
         width="24"
         height="26"
         id="rect4848" />
    </clipPath>
    <clipPath
       id="clip88">
      <path
         inkscape:connector-curvature="0"
         d="m 0.683594,0.921875 h 22.679687 v 24.9375 H 0.683594 Z m 0,0"
         id="path4845" />
    </clipPath>
    <mask
       id="mask43">
      <g
         style="filter:url(#alpha)"
         id="g4842"
         transform="matrix(0.26458333,0,0,0.26458333,89.358789,128.57765)">
        <rect
           x="0"
           y="0"
           width="3052.8701"
           height="3351.5"
           style="fill:#000000;fill-opacity:0.14999402;stroke:none"
           id="rect4840" />
      </g>
    </mask>
    <filter
       id="filter17836"
       filterUnits="objectBoundingBox"
       x="0"
       y="0"
       width="1"
       height="1">
      <feColorMatrix
         type="matrix"
         in="SourceGraphic"
         values="0 0 0 0 1 0 0 0 0 1 0 0 0 0 1 0 0 0 1 0"
         id="feColorMatrix17834" />
    </filter>
    <clipPath
       id="clipPath17840">
      <rect
         y="0"
         x="0"
         width="24"
         height="26"
         id="rect17838" />
    </clipPath>
    <clipPath
       id="clipPath17844">
      <path
         inkscape:connector-curvature="0"
         d="m 0.683594,0.921875 h 22.679687 v 24.9375 H 0.683594 Z m 0,0"
         id="path17842" />
    </clipPath>
    <clipPath
       id="clip95">
      <rect
         y="0"
         x="0"
         width="18"
         height="18"
         id="rect4912" />
    </clipPath>
    <clipPath
       id="clip96">
      <path
         inkscape:connector-curvature="0"
         d="M 0.140625,0.140625 H 17.199219 V 17.199219 H 0.140625 Z m 0,0"
         id="path4909" />
    </clipPath>
    <mask
       id="mask47">
      <g
         style="filter:url(#alpha-3)"
         id="g4906"
         transform="matrix(0.26458333,0,0,0.26458333,88.611154,119.19859)">
        <rect
           x="0"
           y="0"
           width="3052.8701"
           height="3351.5"
           style="fill:#000000;fill-opacity:0.33000201;stroke:none"
           id="rect4904" />
      </g>
    </mask>
    <filter
       id="alpha-3"
       filterUnits="objectBoundingBox"
       x="0"
       y="0"
       width="1"
       height="1">
      <feColorMatrix
         type="matrix"
         in="SourceGraphic"
         values="0 0 0 0 1 0 0 0 0 1 0 0 0 0 1 0 0 0 1 0"
         id="feColorMatrix4149-6" />
    </filter>
    <clipPath
       id="clipPath18541">
      <rect
         y="0"
         x="0"
         width="18"
         height="18"
         id="rect18539" />
    </clipPath>
    <clipPath
       id="clipPath18545">
      <path
         inkscape:connector-curvature="0"
         d="M 0.140625,0.140625 H 17.199219 V 17.199219 H 0.140625 Z m 0,0"
         id="path18543" />
    </clipPath>
    <clipPath
       id="clip93">
      <rect
         y="0"
         x="0"
         width="22"
         height="24"
         id="rect4896" />
    </clipPath>
    <clipPath
       id="clip94">
      <path
         inkscape:connector-curvature="0"
         d="M 0.0390625,0.0390625 H 21.300781 V 23.421875 H 0.0390625 Z m 0,0"
         id="path4893" />
    </clipPath>
    <mask
       id="mask46">
      <g
         style="filter:url(#alpha-3)"
         id="g4890"
         transform="matrix(0.26458333,0,0,0.26458333,88.611154,119.19859)">
        <rect
           x="0"
           y="0"
           width="3052.8701"
           height="3351.5"
           style="fill:#000000;fill-opacity:0.14999402;stroke:none"
           id="rect4888" />
      </g>
    </mask>
    <filter
       id="filter18556"
       filterUnits="objectBoundingBox"
       x="0"
       y="0"
       width="1"
       height="1">
      <feColorMatrix
         type="matrix"
         in="SourceGraphic"
         values="0 0 0 0 1 0 0 0 0 1 0 0 0 0 1 0 0 0 1 0"
         id="feColorMatrix18554" />
    </filter>
    <clipPath
       id="clipPath18560">
      <rect
         y="0"
         x="0"
         width="22"
         height="24"
         id="rect18558" />
    </clipPath>
    <clipPath
       id="clipPath18564">
      <path
         inkscape:connector-curvature="0"
         d="M 0.0390625,0.0390625 H 21.300781 V 23.421875 H 0.0390625 Z m 0,0"
         id="path18562" />
    </clipPath>
    <clipPath
       id="clip91">
      <rect
         y="0"
         x="0"
         width="29"
         height="32"
         id="rect4880" />
    </clipPath>
    <clipPath
       id="clip92">
      <path
         inkscape:connector-curvature="0"
         d="M 0.507812,0.5 H 28.855469 V 31.679688 H 0.507812 Z m 0,0"
         id="path4877" />
    </clipPath>
    <mask
       id="mask45">
      <g
         style="filter:url(#alpha-3)"
         id="g4874"
         transform="matrix(0.26458333,0,0,0.26458333,88.611154,119.19859)">
        <rect
           x="0"
           y="0"
           width="3052.8701"
           height="3351.5"
           style="fill:#000000;fill-opacity:0.14999402;stroke:none"
           id="rect4872" />
      </g>
    </mask>
    <filter
       id="filter18575"
       filterUnits="objectBoundingBox"
       x="0"
       y="0"
       width="1"
       height="1">
      <feColorMatrix
         type="matrix"
         in="SourceGraphic"
         values="0 0 0 0 1 0 0 0 0 1 0 0 0 0 1 0 0 0 1 0"
         id="feColorMatrix18573" />
    </filter>
    <clipPath
       id="clipPath18579">
      <rect
         y="0"
         x="0"
         width="29"
         height="32"
         id="rect18577" />
    </clipPath>
    <clipPath
       id="clipPath18583">
      <path
         inkscape:connector-curvature="0"
         d="M 0.507812,0.5 H 28.855469 V 31.679688 H 0.507812 Z m 0,0"
         id="path18581" />
    </clipPath>
    <clipPath
       id="clip202">
      <rect
         y="0"
         x="0"
         width="18"
         height="18"
         id="rect5795" />
    </clipPath>
    <clipPath
       id="clip203">
      <path
         inkscape:connector-curvature="0"
         d="M 0.855469,0.140625 H 17.914062 V 17.199219 H 0.855469 Z m 0,0"
         id="path5792" />
    </clipPath>
    <mask
       id="mask104">
      <g
         style="filter:url(#alpha-7)"
         id="g5789"
         transform="matrix(0.26458333,0,0,0.26458333,74.416306,97.613551)">
        <rect
           x="0"
           y="0"
           width="3052.8701"
           height="3351.5"
           style="fill:#000000;fill-opacity:0.33000201;stroke:none"
           id="rect5787" />
      </g>
    </mask>
    <filter
       id="alpha-7"
       filterUnits="objectBoundingBox"
       x="0"
       y="0"
       width="1"
       height="1">
      <feColorMatrix
         type="matrix"
         in="SourceGraphic"
         values="0 0 0 0 1 0 0 0 0 1 0 0 0 0 1 0 0 0 1 0"
         id="feColorMatrix4149-5" />
    </filter>
    <clipPath
       id="clipPath18765">
      <rect
         y="0"
         x="0"
         width="18"
         height="18"
         id="rect18763" />
    </clipPath>
    <clipPath
       id="clipPath18769">
      <path
         inkscape:connector-curvature="0"
         d="M 0.855469,0.140625 H 17.914062 V 17.199219 H 0.855469 Z m 0,0"
         id="path18767" />
    </clipPath>
  </defs>
  <sodipodi:namedview
     id="base"
     pagecolor="#ffffff"
     bordercolor="#666666"
     borderopacity="1.0"
     inkscape:pageopacity="0.0"
     inkscape:pageshadow="2"
     inkscape:zoom="1.979899"
     inkscape:cx="87.773411"
     inkscape:cy="59.915557"
     inkscape:document-units="px"
     inkscape:current-layer="layer1"
     showgrid="false"
     inkscape:window-width="1274"
     inkscape:window-height="1434"
     inkscape:window-x="1280"
     inkscape:window-y="0"
     inkscape:window-maximized="0"
     units="px"
     fit-margin-top="0"
     fit-margin-left="0"
     fit-margin-right="0"
     fit-margin-bottom="0" />
  <metadata
     id="metadata15243">
    <rdf:RDF>
      <cc:Work
         rdf:about="">
        <dc:format>image/svg+xml</dc:format>
        <dc:type
           rdf:resource="http://purl.org/dc/dcmitype/StillImage" />
        <dc:title></dc:title>
      </cc:Work>
    </rdf:RDF>
  </metadata>
  <g
     inkscape:label="Layer 1"
     inkscape:groupmode="layer"
     id="layer1"
     transform="translate(-35.482976,-90.654687)">
    <path
       inkscape:connector-curvature="0"
       id="path8601"
       d="m 61.147561,103.48699 c 0,7.08725 -5.74505,12.83341 -12.832292,12.83341 -7.087243,0 -12.832293,-5.74616 -12.832293,-12.83341 0,-7.086131 5.74505,-12.832303 12.832293,-12.832303 7.087242,0 12.832292,5.746172 12.832292,12.832303"
       style="fill:#d4d4d4;fill-opacity:1;fill-rule:nonzero;stroke:none;stroke-width:0.28420019" />
    <path
       inkscape:connector-curvature="0"
       id="path8603"
       d="m 57.727183,98.408023 c -0.629474,-1.174541 -1.474287,-2.215876 -2.478992,-3.075134 -1.937223,0.271988 -3.943278,-0.692738 -4.94463,-2.372407 -0.643883,-0.122118 -1.308884,-0.187618 -1.988292,-0.187618 -0.679408,0 -1.3433,0.0655 -1.988294,0.187618 -1.00135,1.679669 -3.006296,2.644395 -4.944627,2.372407 -1.004706,0.859258 -1.849519,1.900593 -2.478994,3.075134 0.71715,1.853957 0.205392,4.067617 -1.254488,5.418667 0.04774,1.34552 0.340842,2.62774 0.840408,3.80119 1.942764,0.58283 3.389316,2.4046 3.515869,4.43063 1.029117,0.75603 2.199227,1.32997 3.462581,1.67855 1.673003,-1.17786 4.022088,-1.17786 5.69509,0 1.263355,-0.34858 2.433463,-0.92252 3.463689,-1.67855 0.125446,-2.02603 1.571996,-3.8478 3.51587,-4.43063 0.499566,-1.17345 0.792663,-2.45567 0.83927,-3.80119 -1.45985,-1.35105 -1.970501,-3.56471 -1.25446,-5.418667"
       style="fill:#ffffff;fill-opacity:1;fill-rule:nonzero;stroke:none;stroke-width:0.28420019" />
    <path
       inkscape:connector-curvature="0"
       id="path8605"
       d="m 48.76709,91.713777 c 0,0.249785 -0.203146,0.450724 -0.451821,0.450724 -0.248676,0 -0.450713,-0.200939 -0.450713,-0.450724 0,-0.249785 0.202037,-0.450726 0.450713,-0.450726 0.248675,0 0.451821,0.200941 0.451821,0.450726"
       style="fill:#000000;fill-opacity:1;fill-rule:nonzero;stroke:none;stroke-width:0.28420019" />
    <path
       inkscape:connector-curvature="0"
       id="path8607"
       d="m 48.76709,103.48809 h -0.902534 v -9.733847 h 0.902534 z m 0,0"
       style="fill:#000000;fill-opacity:1;fill-rule:nonzero;stroke:none;stroke-width:0.28420019" />
  </g>
</svg>
