<?xml version="1.0" encoding="utf-8"?>
<!-- Generator: Adobe Illustrator 25.2.3, SVG Export Plug-In . SVG Version: 6.00 Build 0)  -->
<svg version="1.0"
	 id="svg258108" sodipodi:docname="CKSSThree_2.svg" xmlns:cc="http://creativecommons.org/ns#" xmlns:dc="http://purl.org/dc/elements/1.1/" xmlns:inkscape="http://www.inkscape.org/namespaces/inkscape" xmlns:rdf="http://www.w3.org/1999/02/22-rdf-syntax-ns#" xmlns:sodipodi="http://sodipodi.sourceforge.net/DTD/sodipodi-0.dtd" xmlns:svg="http://www.w3.org/2000/svg"
	 xmlns="http://www.w3.org/2000/svg" xmlns:xlink="http://www.w3.org/1999/xlink" x="0px" y="0px" width="13.457px"
	 height="28.34766px" viewBox="0 0 13.457 28.34766" enable-background="new 0 0 13.457 28.34766" xml:space="preserve">
<sodipodi:namedview  bordercolor="#666666" borderopacity="1.0" fit-margin-bottom="0" fit-margin-left="0" fit-margin-right="0" fit-margin-top="0" id="base" inkscape:current-layer="layer1" inkscape:cx="10.922301" inkscape:cy="16.956782" inkscape:document-units="mm" inkscape:pageopacity="0.0" inkscape:pageshadow="2" inkscape:window-height="882" inkscape:window-maximized="0" inkscape:window-width="1600" inkscape:window-x="0" inkscape:window-y="18" inkscape:zoom="11.2" pagecolor="#ffffff" showgrid="false">
	</sodipodi:namedview>
<path id="path243332_1_" inkscape:connector-curvature="0" d="M0,1.41797C0,0.63673,0.6406,0,1.41793,0h10.62499
	c0.77739,0,1.4141,0.63671,1.4141,1.41797V26.9297c0,0.77735-0.63669,1.41797-1.4141,1.41797H1.41793
	C0.6406,28.34767,0,27.70704,0,26.9297V1.41797z"/>
<linearGradient id="path243334_2_" gradientUnits="userSpaceOnUse" x1="6.73046" y1="1.26955" x2="6.73046" y2="27.07814">
	<stop  offset="0" style="stop-color:#3B3B3B"/>
	<stop  offset="1" style="stop-color:#242424"/>
</linearGradient>
<path id="path243334_1_" inkscape:connector-curvature="0" opacity="0.54" fill="url(#path243334_2_)" d="M11.3242,1.26955H2.13671
	c-0.48326,0-0.87501,0.39176-0.87501,0.87501v24.05857c0,0.48326,0.39176,0.87501,0.87501,0.87501h9.18749
	c0.48326,0,0.87501-0.39176,0.87501-0.87501V2.14456C12.19921,1.6613,11.80746,1.26955,11.3242,1.26955z"/>
<rect x="0.63621" y="9.18761" opacity="0.44" width="12.00026" height="3.54676"/>
<g>
	<linearGradient id="path5815_2_" gradientUnits="userSpaceOnUse" x1="6.7285" y1="1.21638" x2="6.7285" y2="10.0629">
		<stop  offset="0.00559" style="stop-color:#3D3B3B"/>
		<stop  offset="1" style="stop-color:#2D2C2C"/>
	</linearGradient>
	<path id="path5815_1_" inkscape:connector-curvature="0" fill="url(#path5815_2_)" d="M1.25778,1.21638h10.94143v8.84651H1.25778
		V1.21638z"/>
	<path id="path5817_1_" inkscape:connector-curvature="0" fill="#5E5E5E" d="M1.25778,4.76331h10.94143v0.87738H1.25778V4.76331z"/>
	<path id="path5819_1_" inkscape:connector-curvature="0" fill="#5E5E5E" d="M1.25778,8.31023h10.94143v0.87738H1.25778V8.31023z"/>
	<path id="path5821_1_" inkscape:connector-curvature="0" fill="#5E5E5E" d="M1.25778,6.53763h10.94143v0.87738H1.25778V6.53763z"/>
	<path id="path5823_1_" inkscape:connector-curvature="0" fill="#5E5E5E" d="M1.25778,2.9899h10.94143v0.87738H1.25778V2.9899z"/>
	<path id="path5825_1_" inkscape:connector-curvature="0" fill="#797979" d="M1.25778,1.21638h10.94143v0.87738H1.25778V1.21638z"/>
</g>
</svg>
