<?xml version="1.0" encoding="utf-8"?>
<!-- Generator: Adobe Illustrator 25.2.3, SVG Export Plug-In . SVG Version: 6.00 Build 0)  -->
<svg version="1.0"
	 id="svg258108" sodipodi:docname="CKSSThree_1.svg" xmlns:cc="http://creativecommons.org/ns#" xmlns:dc="http://purl.org/dc/elements/1.1/" xmlns:inkscape="http://www.inkscape.org/namespaces/inkscape" xmlns:rdf="http://www.w3.org/1999/02/22-rdf-syntax-ns#" xmlns:sodipodi="http://sodipodi.sourceforge.net/DTD/sodipodi-0.dtd" xmlns:svg="http://www.w3.org/2000/svg"
	 xmlns="http://www.w3.org/2000/svg" xmlns:xlink="http://www.w3.org/1999/xlink" x="0px" y="0px" width="13.457px"
	 height="28.34766px" viewBox="0 0 13.457 28.34766" enable-background="new 0 0 13.457 28.34766" xml:space="preserve">
<sodipodi:namedview  bordercolor="#666666" borderopacity="1.0" fit-margin-bottom="0" fit-margin-left="0" fit-margin-right="0" fit-margin-top="0" id="base" inkscape:current-layer="layer1" inkscape:cx="10.922301" inkscape:cy="16.956782" inkscape:document-units="mm" inkscape:pageopacity="0.0" inkscape:pageshadow="2" inkscape:window-height="882" inkscape:window-maximized="0" inkscape:window-width="1600" inkscape:window-x="0" inkscape:window-y="18" inkscape:zoom="11.2" pagecolor="#ffffff" showgrid="false">
	</sodipodi:namedview>
<path id="path243332_1_" inkscape:connector-curvature="0" d="M-0.00001,1.41797C-0.00001,0.63673,0.64059,0,1.41792,0h10.62499
	c0.77739,0,1.4141,0.63671,1.4141,1.41797V26.9297c0,0.77735-0.63669,1.41797-1.4141,1.41797H1.41792
	c-0.77733,0-1.41793-0.64062-1.41793-1.41797V1.41797z"/>
<linearGradient id="path243334_2_" gradientUnits="userSpaceOnUse" x1="6.73045" y1="1.26955" x2="6.73045" y2="27.07814">
	<stop  offset="0" style="stop-color:#3B3B3B"/>
	<stop  offset="1" style="stop-color:#242424"/>
</linearGradient>
<path id="path243334_1_" inkscape:connector-curvature="0" opacity="0.54" fill="url(#path243334_2_)" d="M11.32419,1.26955H2.1367
	c-0.48326,0-0.87501,0.39176-0.87501,0.87501v24.05857c0,0.48326,0.39176,0.87501,0.87501,0.87501h9.18749
	c0.48326,0,0.87501-0.39176,0.87501-0.87501V2.14456C12.1992,1.6613,11.80745,1.26955,11.32419,1.26955z"/>
<rect x="0.73032" y="0.80509" opacity="0.3" width="12.00026" height="1.71664"/>
<rect x="0.6362" y="17.7218" opacity="0.44" width="12.00026" height="3.54676"/>
<g>
	<linearGradient id="path5815_2_" gradientUnits="userSpaceOnUse" x1="6.72849" y1="9.75058" x2="6.72849" y2="18.59709">
		<stop  offset="0.00559" style="stop-color:#3D3B3B"/>
		<stop  offset="1" style="stop-color:#2D2C2C"/>
	</linearGradient>
	<path id="path5815_1_" inkscape:connector-curvature="0" fill="url(#path5815_2_)" d="M1.25777,9.75058H12.1992v8.84651H1.25777
		V9.75058z"/>
	<path id="path5817_1_" inkscape:connector-curvature="0" fill="#5E5E5E" d="M1.25777,13.2975H12.1992v0.87738H1.25777V13.2975z"/>
	<path id="path5819_1_" inkscape:connector-curvature="0" fill="#5E5E5E" d="M1.25777,16.84443H12.1992v0.87738H1.25777V16.84443z"
		/>
	<path id="path5821_1_" inkscape:connector-curvature="0" fill="#5E5E5E" d="M1.25777,15.07182H12.1992v0.87738H1.25777V15.07182z"
		/>
	<path id="path5823_1_" inkscape:connector-curvature="0" fill="#5E5E5E" d="M1.25777,11.5241H12.1992v0.87738H1.25777V11.5241z"/>
	<path id="path5825_1_" inkscape:connector-curvature="0" fill="#797979" d="M1.25777,9.75058H12.1992v0.87738H1.25777V9.75058z"/>
</g>
</svg>
