<?xml version="1.0" encoding="utf-8"?>
<!-- Generator: Adobe Illustrator 25.2.3, SVG Export Plug-In . SVG Version: 6.00 Build 0)  -->
<svg version="1.0"
	 id="svg56722" sodipodi:docname="CKSS_0.svg" xmlns:cc="http://creativecommons.org/ns#" xmlns:dc="http://purl.org/dc/elements/1.1/" xmlns:inkscape="http://www.inkscape.org/namespaces/inkscape" xmlns:rdf="http://www.w3.org/1999/02/22-rdf-syntax-ns#" xmlns:sodipodi="http://sodipodi.sourceforge.net/DTD/sodipodi-0.dtd" xmlns:svg="http://www.w3.org/2000/svg"
	 xmlns="http://www.w3.org/2000/svg" xmlns:xlink="http://www.w3.org/1999/xlink" x="0px" y="0px" width="14px" height="20.64111px"
	 viewBox="0 0 14 20.64111" enable-background="new 0 0 14 20.64111" xml:space="preserve">
<sodipodi:namedview  bordercolor="#666666" borderopacity="1.0" fit-margin-bottom="0" fit-margin-left="0" fit-margin-right="0" fit-margin-top="0" id="base" inkscape:current-layer="layer1" inkscape:cx="-73.556791" inkscape:cy="-2.6476464" inkscape:document-units="mm" inkscape:pageopacity="0.0" inkscape:pageshadow="2" inkscape:window-height="1422" inkscape:window-maximized="0" inkscape:window-width="2560" inkscape:window-x="0" inkscape:window-y="18" inkscape:zoom="5.6" pagecolor="#ffffff" showgrid="false" units="px">
	</sodipodi:namedview>
<path id="path5785" inkscape:connector-curvature="0" d="M0,1.47508C0,0.66465,0.66471,0,1.47514,0h11.04979
	c0.81036,0,1.47514,0.66477,1.47514,1.47508v17.69189c0,0.81043-0.66471,1.47406-1.47514,1.47406H1.47514
	C0.66477,20.64102,0,19.97739,0,19.16696V1.47508z"/>
<g id="g5795" opacity="0.54">
	<g id="g5797">
		<linearGradient id="path5805_1_" gradientUnits="userSpaceOnUse" x1="6.99921" y1="1.33285" x2="6.99921" y2="19.45954">
			<stop  offset="0" style="stop-color:#3B3B3B"/>
			<stop  offset="1" style="stop-color:#242424"/>
		</linearGradient>
		<path id="path5805" inkscape:connector-curvature="0" fill="url(#path5805_1_)" d="M2.19312,1.33285
			c-0.48687,0-0.88421,0.39734-0.88421,0.88421l0,0v16.35726c0,0.48687,0.3974,0.88522,0.88421,0.88522l0,0h9.6132
			c0.48477,0,0.88319-0.39849,0.88319-0.88522l0,0V2.21706c0-0.48687-0.39842-0.88421-0.88319-0.88421l0,0H2.19312z"/>
	</g>
</g>
<rect x="1.30993" y="18.58425" fill="none" width="0.6829" height="0.89523"/>
<rect x="0.99908" y="0.81461" opacity="0.3" width="12.00026" height="1.71664"/>
<g>
	<linearGradient id="path5815_2_" gradientUnits="userSpaceOnUse" x1="6.99921" y1="10.61302" x2="6.99921" y2="19.45954">
		<stop  offset="0.00559" style="stop-color:#3D3B3B"/>
		<stop  offset="1" style="stop-color:#2D2C2C"/>
	</linearGradient>
	<path id="path5815_1_" inkscape:connector-curvature="0" fill="url(#path5815_2_)" d="M1.30891,10.61302h11.38059v8.84652H1.30891
		V10.61302z"/>
	<path id="path5817_1_" inkscape:connector-curvature="0" fill="#5E5E5E" d="M1.30891,14.15995h11.38059v0.87738H1.30891V14.15995z"
		/>
	<path id="path5819_1_" inkscape:connector-curvature="0" fill="#5E5E5E" d="M1.30891,17.70687h11.38059v0.87738H1.30891V17.70687z"
		/>
	<path id="path5821_1_" inkscape:connector-curvature="0" fill="#5E5E5E" d="M1.30891,15.93427h11.38059v0.87738H1.30891V15.93427z"
		/>
	<path id="path5823_1_" inkscape:connector-curvature="0" fill="#5E5E5E" d="M1.30891,12.38654h11.38059v0.87738H1.30891V12.38654z"
		/>
	<path id="path5825_1_" inkscape:connector-curvature="0" fill="#797979" d="M1.30891,10.61302h11.38059v0.87738H1.30891V10.61302z"
		/>
</g>
</svg>
