<?xml version="1.0" encoding="utf-8"?>
<!-- Generator: Adobe Illustrator 16.0.0, SVG Export Plug-In . SVG Version: 6.00 Build 0)  -->
<!DOCTYPE svg PUBLIC "-//W3C//DTD SVG 1.1//EN" "http://www.w3.org/Graphics/SVG/1.1/DTD/svg11.dtd">
<svg version="1.1" id="Layer_1" xmlns="http://www.w3.org/2000/svg" xmlns:xlink="http://www.w3.org/1999/xlink" x="0px" y="0px"
	 width="31.561px" height="28.357px" viewBox="0 0 31.561 28.357" enable-background="new 0 0 31.561 28.357" xml:space="preserve">
<path fill="#E7E7E7" d="M8.645,28.207c-0.446,0-0.968-0.305-1.188-0.691L0.313,14.869c-0.219-0.389-0.219-0.994,0-1.382L7.457,0.844
	c0.22-0.39,0.741-0.695,1.188-0.695h14.271c0.446,0,0.969,0.306,1.188,0.695l7.145,12.644c0.22,0.388,0.22,0.993,0,1.382
	l-7.145,12.646c-0.219,0.387-0.741,0.691-1.188,0.691H8.645z"/>
<path fill="#666866" d="M22.916,0.3c0.391,0,0.865,0.277,1.058,0.617l7.146,12.646c0.191,0.338,0.191,0.894,0,1.233l-7.146,12.644
	c-0.192,0.34-0.667,0.619-1.058,0.619H8.645c-0.391,0-0.865-0.279-1.057-0.619L0.442,14.796c-0.192-0.34-0.192-0.896,0-1.233
	L7.588,0.917C7.779,0.577,8.254,0.3,8.645,0.3H22.916 M22.916,0H8.645C8.148,0,7.569,0.338,7.326,0.77L0.182,13.414
	c-0.242,0.429-0.242,1.102,0,1.529l7.145,12.645c0.243,0.432,0.822,0.77,1.318,0.77h14.271c0.496,0,1.075-0.338,1.318-0.77
	l7.145-12.645c0.242-0.428,0.242-1.101,0-1.529L24.234,0.77C23.991,0.338,23.412,0,22.916,0"/>
<path fill="#555555" d="M26.76,14.179c0,6.063-4.917,10.981-10.98,10.981c-6.063,0-10.98-4.918-10.98-10.981
	c0-6.065,4.918-10.981,10.98-10.981C21.843,3.197,26.76,8.113,26.76,14.179"/>
<path d="M21.449,14.179c0,3.131-2.537,5.669-5.668,5.669c-3.132,0-5.67-2.538-5.67-5.669s2.538-5.669,5.67-5.669
	C18.912,8.51,21.449,11.048,21.449,14.179"/>
<g opacity="0.33">
	<g>
		<defs>
			<rect id="SVGID_1_" x="7.25" y="5.654" width="17.061" height="17.049"/>
		</defs>
		<clipPath id="SVGID_2_">
			<use xlink:href="#SVGID_1_"  overflow="visible"/>
		</clipPath>
		<path clip-path="url(#SVGID_2_)" fill="none" stroke="#000000" stroke-width="0.5" stroke-miterlimit="10" d="M7.5,14.171
			c0.023,4.599,3.69,8.269,8.289,8.288c4.575-0.014,8.276-3.708,8.271-8.288C24.058,9.6,20.355,5.912,15.789,5.9
			C11.199,5.92,7.533,9.58,7.5,14.171z"/>
	</g>
</g>
</svg>
