<?xml version="1.0" encoding="utf-8"?>
<!-- Generator: Adobe Illustrator 16.0.0, SVG Export Plug-In . SVG Version: 6.00 Build 0)  -->
<!DOCTYPE svg PUBLIC "-//W3C//DTD SVG 1.1//EN" "http://www.w3.org/Graphics/SVG/1.1/DTD/svg11.dtd">
<svg version="1.1" id="Layer_1" xmlns="http://www.w3.org/2000/svg" xmlns:xlink="http://www.w3.org/1999/xlink" x="0px" y="0px"
	 width="36px" height="36.002px" viewBox="0 0 36 36.002" enable-background="new 0 0 36 36.002" xml:space="preserve">
<path fill="#D6D6D6" d="M36,18.001c0,9.941-8.059,18-18,18s-18-8.059-18-18c0-9.94,8.059-18,18-18S36,8.061,36,18.001"/>
<path fill-rule="evenodd" clip-rule="evenodd" fill="#FFFFFF" d="M35.898,16.099c-0.79-1.278-2.12-2.537-2.86-4.327
	c-0.739-1.783-0.69-3.608-1.032-5.066c-0.806-0.997-1.711-1.902-2.709-2.708c-1.459-0.341-3.282-0.293-5.068-1.033
	c-1.79-0.742-3.048-2.069-4.325-2.86C19.278,0.038,18.644,0,18.001,0c-0.644,0-1.278,0.038-1.902,0.104
	c-1.279,0.791-2.537,2.118-4.327,2.86c-1.784,0.74-3.607,0.692-5.067,1.033C5.707,4.803,4.801,5.708,3.996,6.705
	c-0.342,1.458-0.294,3.283-1.035,5.066c-0.739,1.79-2.068,3.049-2.857,4.327C0.037,16.724,0,17.358,0,18.001
	s0.037,1.278,0.104,1.905c0.789,1.276,2.118,2.534,2.857,4.324c0.741,1.784,0.693,3.609,1.035,5.066
	c0.805,0.998,1.711,1.904,2.708,2.709c1.46,0.342,3.283,0.293,5.067,1.032c1.79,0.743,3.048,2.07,4.327,2.86
	c0.624,0.065,1.259,0.104,1.902,0.104c0.643,0,1.277-0.038,1.902-0.104c1.277-0.79,2.535-2.117,4.325-2.86
	c1.786-0.739,3.609-0.69,5.068-1.032c0.998-0.805,1.903-1.711,2.709-2.709c0.342-1.457,0.293-3.282,1.032-5.066
	c0.74-1.79,2.07-3.048,2.86-4.324C35.963,19.279,36,18.644,36,18.001S35.963,16.724,35.898,16.099"/>
<path fill-rule="evenodd" clip-rule="evenodd" d="M18.599,0.069C18.403,0.024,18.205,0,18.001,0c-0.206,0-0.404,0.024-0.599,0.069
	v18.157h1.196V0.069z"/>
</svg>
