<?xml version="1.0" encoding="UTF-8" standalone="no"?>
<!-- Created with Inkscape (http://www.inkscape.org/) -->

<svg
   xmlns:dc="http://purl.org/dc/elements/1.1/"
   xmlns:cc="http://creativecommons.org/ns#"
   xmlns:rdf="http://www.w3.org/1999/02/22-rdf-syntax-ns#"
   xmlns:svg="http://www.w3.org/2000/svg"
   xmlns="http://www.w3.org/2000/svg"
   xmlns:sodipodi="http://sodipodi.sourceforge.net/DTD/sodipodi-0.dtd"
   xmlns:inkscape="http://www.inkscape.org/namespaces/inkscape"
   width="54"
   height="54.002399"
   viewBox="0 0 14.2875 14.288134"
   version="1.1"
   id="svg16908"
   inkscape:version="0.92.2 5c3e80d, 2017-08-06"
   sodipodi:docname="Davies1900hLargeRed.svg">
  <defs
     id="defs16902">
    <clipPath
       clipPathUnits="userSpaceOnUse"
       id="clipPath6367">
      <path
         d="M 0,3193 H 2089 V 0 H 0 Z"
         id="path6365"
         inkscape:connector-curvature="0" />
    </clipPath>
  </defs>
  <sodipodi:namedview
     id="base"
     pagecolor="#ffffff"
     bordercolor="#666666"
     borderopacity="1.0"
     inkscape:pageopacity="0.0"
     inkscape:pageshadow="2"
     inkscape:zoom="3.959798"
     inkscape:cx="-60.437162"
     inkscape:cy="-3.2255292"
     inkscape:document-units="mm"
     inkscape:current-layer="layer1"
     showgrid="false"
     fit-margin-top="0"
     fit-margin-left="0"
     fit-margin-right="0"
     fit-margin-bottom="0"
     inkscape:window-width="2560"
     inkscape:window-height="1422"
     inkscape:window-x="0"
     inkscape:window-y="18"
     inkscape:window-maximized="0"
     units="px" />
  <metadata
     id="metadata16905">
    <rdf:RDF>
      <cc:Work
         rdf:about="">
        <dc:format>image/svg+xml</dc:format>
        <dc:type
           rdf:resource="http://purl.org/dc/dcmitype/StillImage" />
        <dc:title></dc:title>
      </cc:Work>
    </rdf:RDF>
  </metadata>
  <g
     inkscape:label="Layer 1"
     inkscape:groupmode="layer"
     id="layer1"
     transform="translate(-230.79391,-120.57842)">
    <g
       id="g1996"
       transform="matrix(0.39687059,0,0,-0.39687059,-331.13222,1066.8374)"
       style="stroke-width:0.88889879">
      <g
         transform="translate(1451.8926,2366.2998)"
         id="g6467"
         style="stroke-width:0.88889879">
        <path
           inkscape:connector-curvature="0"
           id="path6469"
           style="fill:#830100;fill-opacity:1;fill-rule:nonzero;stroke:none;stroke-width:0.88889879"
           d="m 0,0 c 0,-9.941 -8.059,-18 -18,-18 -9.941,0 -18,8.059 -18,18 0,9.941 8.059,18 18,18 C -8.059,18 0,9.941 0,0" />
      </g>
      <g
         transform="translate(1451.791,2368.2021)"
         id="g6471"
         style="stroke-width:0.88889879">
        <path
           inkscape:connector-curvature="0"
           id="path6473"
           style="fill:#ff030a;fill-opacity:1;fill-rule:evenodd;stroke:none;stroke-width:0.88889879"
           d="m 0,0 c -0.79,1.279 -2.12,2.537 -2.86,4.327 -0.74,1.784 -0.691,3.609 -1.033,5.067 -0.805,0.997 -1.711,1.902 -2.709,2.708 -1.459,0.341 -3.282,0.293 -5.068,1.033 -1.79,0.742 -3.048,2.069 -4.325,2.86 -0.625,0.066 -1.26,0.104 -1.902,0.104 -0.644,0 -1.279,-0.038 -1.903,-0.104 -1.279,-0.791 -2.537,-2.118 -4.327,-2.86 -1.784,-0.74 -3.607,-0.692 -5.067,-1.033 -0.997,-0.806 -1.904,-1.711 -2.708,-2.708 -0.342,-1.458 -0.294,-3.283 -1.035,-5.067 -0.74,-1.79 -2.069,-3.048 -2.858,-4.327 -0.066,-0.625 -0.103,-1.26 -0.103,-1.902 0,-0.643 0.037,-1.278 0.103,-1.905 0.789,-1.277 2.118,-2.535 2.858,-4.325 0.741,-1.784 0.693,-3.609 1.035,-5.066 0.804,-0.998 1.711,-1.904 2.708,-2.709 1.46,-0.342 3.283,-0.293 5.067,-1.032 1.79,-0.743 3.048,-2.071 4.327,-2.861 0.624,-0.065 1.259,-0.103 1.903,-0.103 0.642,0 1.277,0.038 1.902,0.103 1.277,0.79 2.535,2.118 4.325,2.861 1.786,0.739 3.609,0.69 5.068,1.032 0.998,0.805 1.904,1.711 2.709,2.709 0.342,1.457 0.293,3.282 1.033,5.066 0.74,1.79 2.07,3.048 2.86,4.325 0.065,0.627 0.102,1.262 0.102,1.905 C 0.102,-1.26 0.065,-0.625 0,0" />
      </g>
      <g
         transform="translate(1434.4912,2384.2314)"
         id="g6475"
         style="stroke-width:0.88889879">
        <path
           inkscape:connector-curvature="0"
           id="path6477"
           style="fill:#ffffff;fill-opacity:1;fill-rule:evenodd;stroke:none;stroke-width:0.88889879"
           d="M 0,0 C -0.195,0.045 -0.393,0.069 -0.598,0.069 -0.804,0.069 -1.002,0.045 -1.196,0 V -18.157 H 0 Z" />
      </g>
    </g>
  </g>
</svg>
