<?xml version="1.0" encoding="utf-8"?>
<!-- Generator: Adobe Illustrator 25.2.3, SVG Export Plug-In . SVG Version: 6.00 Build 0)  -->
<svg version="1.0"
	 id="svg16908" xmlns:cc="http://creativecommons.org/ns#" xmlns:dc="http://purl.org/dc/elements/1.1/" xmlns:inkscape="http://www.inkscape.org/namespaces/inkscape" xmlns:rdf="http://www.w3.org/1999/02/22-rdf-syntax-ns#" xmlns:sodipodi="http://sodipodi.sourceforge.net/DTD/sodipodi-0.dtd" xmlns:svg="http://www.w3.org/2000/svg"
	 xmlns="http://www.w3.org/2000/svg" xmlns:xlink="http://www.w3.org/1999/xlink" x="0px" y="0px" width="36px" height="36.0016px"
	 viewBox="0 0 36 36.0016" enable-background="new 0 0 36 36.0016" xml:space="preserve">
<sodipodi:namedview  bordercolor="#666666" borderopacity="1.0" fit-margin-bottom="0" fit-margin-left="0" fit-margin-right="0" fit-margin-top="0" id="base" inkscape:current-layer="layer1" inkscape:cx="-88.847695" inkscape:cy="17.482497" inkscape:document-units="mm" inkscape:pageopacity="0.0" inkscape:pageshadow="2" inkscape:window-height="1422" inkscape:window-maximized="0" inkscape:window-width="2560" inkscape:window-x="0" inkscape:window-y="18" inkscape:zoom="3.959798" pagecolor="#ffffff" showgrid="false" units="px">
	</sodipodi:namedview>
<g opacity="0.29" enable-background="new    ">
	<path fill="#F07F7F" d="M18.03021,1.84695c0.50058,0,1.00682,0.02386,1.50432,0.07087
		c0.10089,0.00958,0.20305,0.03061,0.30366,0.0625l0.07239,0.02295l0.07548,0.00843
		c0.42952,0.04798,0.90456,0.05413,1.27043,0.05413c0.2077,0,0.42116-0.00226,0.63775-0.00456
		c0.21742-0.00232,0.43807-0.00469,0.65915-0.00469c0.86696,0,1.84119,0.03638,2.49349,0.30619
		c0.6667,0.27582,1.08666,0.83378,1.57292,1.47985c0.38367,0.50974,0.7804,1.03684,1.34013,1.47981l0.05381,0.04259l0.06048,0.03244
		c0.09147,0.04909,0.17251,0.10263,0.24041,0.15876c0.77831,0.64445,1.49941,1.36698,2.14295,2.14714
		c0.05626,0.06829,0.10958,0.14926,0.15846,0.24066l0.03328,0.06222l0.04399,0.05518
		c0.40585,0.50903,0.92139,0.95439,1.41996,1.38509c0.73243,0.63272,1.42424,1.23036,1.72486,1.95522
		c0.30686,0.7398,0.24464,1.7328,0.18448,2.6931c-0.04213,0.67233-0.08569,1.36755-0.00864,2.01603l0.71195-0.08459
		l-0.69078,0.19688c0.02048,0.07362,0.04495,0.16837,0.05259,0.24842c0.09633,1.00796,0.09702,2.02855,0.00204,3.03355
		c-0.00839,0.08885-0.02793,0.18435-0.05811,0.28384l-0.02045,0.06745l-0.00793,0.07003
		c-0.06875,0.60724-0.04597,1.26405-0.02186,1.95943c0.03674,1.05952,0.07474,2.15511-0.24208,2.92096
		c-0.2912,0.70401-0.93378,1.2265-1.61408,1.77968c-0.51097,0.41548-1.03934,0.84511-1.46655,1.3875l-0.03816,0.04845l-0.03,0.05388
		c-0.04875,0.08754-0.089,0.14783-0.13931,0.20852c-0.64346,0.77744-1.36595,1.49853-2.1473,2.14318
		c-0.06979,0.05756-0.11429,0.08797-0.19043,0.13014l-0.05503,0.03048l-0.04938,0.03897
		c-0.51263,0.40454-0.97103,0.92516-1.41433,1.42863c-0.63211,0.71791-1.28574,1.46027-2.02566,1.76712
		c-0.38183,0.15839-0.85012,0.23217-1.47374,0.23217c-0.38329,0-0.79139-0.02747-1.18606-0.05404
		c-0.40773-0.02745-0.82935-0.05583-1.24003-0.05583c-0.28498,0-0.53817,0.01348-0.77404,0.04122l-0.06166,0.00725l-0.05972,0.017
		c-0.09319,0.02652-0.15748,0.0392-0.23766,0.04682c-0.50664,0.04844-1.02107,0.07301-1.529,0.07301
		c-0.50053,0-1.00672-0.02386-1.50444-0.0709c-0.09852-0.00931-0.15484-0.01935-0.23177-0.04129l-0.05985-0.01707l-0.06181-0.00728
		c-0.29212-0.03441-0.61664-0.05044-1.02126-0.05044c-0.31091,0-0.63496,0.00958-0.96426,0.01945
		c-0.32431,0.00972-0.65396,0.01971-0.98066,0.01971c-0.61522,0-1.39693-0.03125-1.98589-0.2749
		c-0.70807-0.29293-1.22684-0.93263-1.77608-1.60988c-0.41332-0.50966-0.84071-1.03666-1.38448-1.46601l-0.05056-0.03991
		l-0.05645-0.03101c-0.08205-0.04505-0.13802-0.08291-0.20697-0.14008c-0.77753-0.64358-1.49858-1.36607-2.14356-2.14798
		c-0.05284-0.06393-0.08678-0.11269-0.12679-0.18452L5.4222,28.03473l-0.0384-0.04866
		c-0.41014-0.5197-0.93317-0.97179-1.43897-1.409c-0.73406-0.6345-1.42741-1.23381-1.73065-1.9649
		c-0.31072-0.74925-0.25145-1.75534-0.19413-2.7283c0.03955-0.67143,0.08045-1.36572,0.00457-2.01145l-0.00711-0.06043
		l-0.01646-0.05857c-0.02946-0.10483-0.04481-0.17868-0.05133-0.24704C1.8534,18.49832,1.85271,17.47763,1.94763,16.473
		c0.00775-0.08166,0.02642-0.15562,0.04777-0.23415l0.01507-0.05544l0.00672-0.05705c0.07897-0.6705,0.01966-1.3546-0.03769-2.01617
		c-0.07997-0.92254-0.15551-1.79392,0.14179-2.51263c0.31304-0.75673,1.08781-1.46244,1.83707-2.14493
		c0.49451-0.45044,1.00587-0.91622,1.39796-1.41091l0.04205-0.05305l0.03219-0.05955
		C5.4812,7.83545,5.53209,7.75818,5.58611,7.69293C6.23046,6.91471,6.953,6.1937,7.73412,5.54955
		C7.79654,5.49797,7.87257,5.4481,7.96653,5.39708l0.05973-0.03244l0.05317-0.04236c0.50636-0.4035,0.95578-0.91889,1.3904-1.41731
		c0.6189-0.70973,1.25886-1.44362,1.98904-1.74653c0.37649-0.15612,0.84023-0.22883,1.4594-0.22881
		c0.38417,0.00001,0.79356,0.02767,1.18947,0.05441c0.40841,0.02759,0.83072,0.05611,1.24113,0.05611
		c0.28379,0,0.53571-0.01346,0.77015-0.04115l0.06235-0.00736l0.06034-0.01732c0.10572-0.03035,0.1879-0.04759,0.25947-0.05436
		C17.0078,1.87151,17.52223,1.84695,18.03021,1.84695 M18.03022,1.07347c-0.53702,0-1.07176,0.02575-1.60265,0.07651
		c-0.13618,0.01287-0.26897,0.04347-0.39926,0.08087c-0.21896,0.02586-0.4463,0.03582-0.67943,0.03582
		c-0.77704,0-1.61886-0.11051-2.43057-0.11053c-0.61634-0.00002-1.21521,0.06367-1.7557,0.2878
		c-1.45595,0.60399-2.38757,2.335-3.5652,3.27342C7.47262,4.78513,7.3521,4.86186,7.24154,4.95318
		c-0.8131,0.67054-1.56791,1.42122-2.2512,2.24646c-0.09289,0.1122-0.17152,0.2346-0.24019,0.36162
		c-0.9409,1.1871-2.73669,2.27351-3.3436,3.74062c-0.60849,1.47101,0.01994,3.22705-0.15753,4.734
		c-0.03315,0.12191-0.05938,0.23727-0.07141,0.36404c-0.10078,1.06665-0.09811,2.13086,0.00213,3.18002
		c0.01263,0.13236,0.04098,0.25573,0.07668,0.38275c0.1779,1.51375-0.36958,3.46796,0.24328,4.94577
		c0.60994,1.47052,2.337,2.36579,3.27693,3.55678c0.0652,0.11706,0.12021,0.19672,0.20631,0.3009
		c0.67072,0.8131,1.42122,1.56791,2.24658,2.25108c0.10868,0.0901,0.20534,0.15494,0.32786,0.22222
		c1.19621,0.94448,1.86602,2.57203,3.34419,3.18355c0.6596,0.27288,1.46168,0.33365,2.28158,0.33365
		c0.65817,0,1.32804-0.03916,1.94492-0.03916c0.32858,0,0.64191,0.01109,0.93077,0.04513
		c0.13029,0.03716,0.23502,0.05465,0.37109,0.06752c0.52682,0.04979,1.0531,0.07433,1.57727,0.07433
		c0.53699,0,1.07176-0.02576,1.60262-0.07652c0.13546-0.01287,0.24608-0.03594,0.37577-0.07285
		c0.22073-0.02596,0.44946-0.03593,0.68369-0.03593c0.7774,0,1.61588,0.10988,2.42609,0.10988
		c0.61984,0,1.22305-0.06427,1.77012-0.29121c1.47052-0.60983,2.43178-2.36313,3.62277-3.303
		c0.11839-0.06557,0.20242-0.12313,0.30783-0.21007c0.81303-0.67078,1.56778-1.42122,2.25101-2.24671
		c0.08737-0.1054,0.15325-0.20691,0.21924-0.32543c0.93884-1.19196,2.5792-1.87889,3.18775-3.35014
		c0.6026-1.45668,0.14837-3.59276,0.31776-5.08902c0.04287-0.14135,0.07396-0.28706,0.08798-0.43569
		c0.10079-1.0664,0.09812-2.13086-0.00213-3.17978c-0.01243-0.13034-0.04259-0.25706-0.07735-0.38206
		c-0.00002-0.00006-0.00004-0.00013-0.00005-0.0002c0.00002,0.00007,0.00003,0.00013,0.00005,0.0002
		c0.00041,0.00137,0.00136,0.00253,0.00171,0.00368c-0.17899-1.50646,0.38049-3.4437-0.22946-4.91422
		c-0.60302-1.45401-2.31693-2.35022-3.25449-3.52615c-0.0691-0.1292-0.1493-0.25331-0.24353-0.36769
		c-0.67072-0.8131-1.42128-1.56767-2.24664-2.25108c-0.11427-0.09447-0.23855-0.1751-0.368-0.24456
		c-1.17994-0.9338-1.64092-2.46532-3.09736-3.06786c-0.76566-0.3167-1.78183-0.36494-2.78918-0.36494
		c-0.44122,0-0.88078,0.00925-1.2969,0.00925c-0.4275,0-0.83014-0.00976-1.18456-0.04935
		c-0.15015-0.0476-0.30577-0.08015-0.46429-0.0952C19.08076,1.09802,18.55441,1.07347,18.03022,1.07347L18.03022,1.07347z
		 M8.23405,4.50073c0.00018,0,0.00043,0,0.00061,0C8.23448,4.50073,8.23429,4.50073,8.23405,4.50073L8.23405,4.50073z"/>
</g>
<path opacity="0.23" fill="#750000" d="M35.90357,16.15523c-0.07361-0.70705-0.49979-1.29864-1.06952-1.72377
	c-0.61895-0.46186-1.30921-1.50206-1.85906-2.79493c-0.55021-1.29408-0.82048-2.5138-0.72318-3.27993
	c0.08954-0.70504-0.04032-1.42231-0.49814-1.9659c-0.71619-0.85038-1.51525-1.63894-2.39182-2.35207
	c-0.55256-0.44953-1.27422-0.56869-1.97903-0.46552c-0.76414,0.11186-1.98919-0.13576-3.29369-0.66165
	c-1.30531-0.52654-2.35981-1.19865-2.83229-1.80971c-0.43578-0.56359-1.03802-0.97887-1.74792-1.03872
	c-1.12585-0.09492-2.24826-0.08171-3.35386,0.03338c-0.7071,0.07361-1.29866,0.49991-1.72382,1.06969
	c-0.46185,0.61894-1.50183,1.30921-2.79484,1.85879C10.34243,3.57512,9.12277,3.8454,8.35668,3.74825
	C7.65162,3.65884,6.93432,3.78858,6.39073,4.24642c-0.85038,0.71624-1.639,1.51525-2.35212,2.39175
	c-0.44951,0.5525-0.56872,1.27411-0.46555,1.97886c0.11186,0.76415-0.13561,1.9892-0.66171,3.29384
	c-0.52652,1.30541-1.19883,2.3602-1.80989,2.83256c-0.56343,0.43554-0.97863,1.03749-1.03844,1.74712
	c-0.09491,1.12597-0.0817,2.24858,0.03345,3.35436c0.07363,0.70707,0.49988,1.29863,1.06962,1.7238
	c0.61889,0.46184,1.30912,1.50186,1.85894,2.79489c0.5502,1.29385,0.82051,2.5137,0.72324,3.27988
	c-0.08951,0.70504,0.0403,1.42231,0.49813,1.96589c0.71613,0.85026,1.51513,1.63887,2.39162,2.35188
	c0.5526,0.44954,1.2743,0.56875,1.97914,0.46561c0.76419-0.11182,1.98924,0.13566,3.29371,0.6618
	c1.3056,0.52645,2.36037,1.19888,2.83273,1.80995c0.43551,0.56341,1.03745,0.97859,1.74704,1.03843
	c1.12602,0.09496,2.24863,0.08175,3.35437-0.03349c0.70696-0.07368,1.29852-0.49973,1.72354-1.06945
	c0.46177-0.61897,1.50192-1.30924,2.79504-1.85913c1.2939-0.55021,2.5135-0.82048,3.27964-0.72324
	c0.70521,0.08952,1.42269-0.04021,1.96637-0.4982c0.85029-0.71627,1.63881-1.51539,2.35187-2.39191
	c0.44946-0.55249,0.56865-1.27406,0.46548-1.97877c-0.11187-0.76414,0.1356-1.98916,0.66171-3.2936
	c0.52645-1.30538,1.19873-2.36014,1.8098-2.83266c0.56349-0.43573,0.97872-1.03787,1.03854-1.74766
	C36.03189,18.38322,36.01868,17.26087,35.90357,16.15523z M35.14483,19.45553c-0.03778,0.4441-0.26189,0.84652-0.59933,1.07659
	c-0.76952,0.52408-1.56887,1.71213-2.19307,3.25983c-0.62362,1.54641-0.87236,2.95595-0.68247,3.86751
	c0.08327,0.39955-0.03467,0.84465-0.31572,1.19049c-0.67815,0.83517-1.44105,1.61091-2.26751,2.30584
	c-0.26963,0.22685-0.59977,0.35347-0.92951,0.35656c-0.08353,0.00078-0.16682-0.00671-0.2476-0.02198
	c-0.1923-0.03671-0.40678-0.05408-0.63754-0.05193c-0.87313,0.00817-2.01639,0.29437-3.21898,0.80596
	c-1.5346,0.65219-2.70716,1.47313-3.21707,2.25219c-0.22193,0.33908-0.61765,0.56918-1.05824,0.61569
	c-0.53955,0.05674-1.08767,0.08797-1.62899,0.09303c-0.53344,0.00499-1.07326-0.01528-1.60433-0.06045
	c-0.44403-0.03797-0.84652-0.26189-1.07653-0.59959c-0.52428-0.76965-1.71252-1.569-3.26015-2.19313
	c-1.21234-0.489-2.36075-0.75375-3.23362-0.74558c-0.22967,0.00215-0.44288,0.02353-0.63362,0.0633
	c-0.08048,0.01678-0.16368,0.02557-0.24741,0.02635c-0.33272,0.00311-0.66769-0.11832-0.94328-0.34214
	c-0.8353-0.67835-1.61104-1.44124-2.30585-2.2677C4.55894,28.7474,4.434,28.30741,4.50968,27.90948
	c0.17409-0.9147-0.1008-2.32038-0.75404-3.85691C3.103,22.51811,2.282,21.34549,1.5032,20.83563
	c-0.33915-0.22193-0.56925-0.61752-0.61549-1.05799c-0.11271-1.07355-0.12367-2.16148-0.03246-3.23358
	c0.03778-0.4441,0.26183-0.84652,0.59927-1.07633c0.76958-0.52408,1.56894-1.71239,2.19313-3.26009
	c0.62362-1.54641,0.87236-2.95595,0.68247-3.86725c-0.08327-0.39955,0.0348-0.84465,0.31572-1.19075
	c0.67899-0.83595,1.44195-1.6117,2.26777-2.30559C7.18324,4.61721,7.51324,4.49058,7.84279,4.4875
	c0.08366-0.00078,0.16695,0.00671,0.24773,0.02198C8.28263,4.54619,8.49704,4.56356,8.72768,4.5614
	c0.87288-0.00817,2.01613-0.29436,3.21936-0.80597c1.53479-0.65271,2.70734-1.47364,3.21701-2.25219
	c0.22206-0.33934,0.61758-0.56944,1.05818-0.61569c0.53961-0.05674,1.08773-0.08797,1.62912-0.09304
	c0.53357-0.00499,1.07339,0.01528,1.60439,0.06045c0.44416,0.03797,0.84659,0.26189,1.07653,0.59959
	c0.52408,0.76939,1.71232,1.56874,3.25989,2.19287c1.2124,0.489,2.36088,0.75401,3.23388,0.74584
	c0.22967-0.00215,0.44281-0.02353,0.63356-0.0633c0.08048-0.01678,0.16368-0.02557,0.2474-0.02635
	c0.33272-0.00311,0.66776,0.11832,0.94315,0.34188c0.8353,0.6786,1.61118,1.4415,2.30585,2.2677
	c0.28513,0.33899,0.41014,0.77924,0.33445,1.17717c-0.17403,0.9147,0.1008,2.32038,0.75397,3.85665
	c0.65245,1.53447,1.47345,2.70709,2.25245,3.21694c0.33915,0.22193,0.56924,0.61752,0.61549,1.05824
	C35.22515,17.29576,35.23604,18.38344,35.14483,19.45553z"/>
<path opacity="0.64" fill="#DB0000" d="M34.06219,15.82835c-0.92052-0.6026-1.8255-1.87058-2.54837-3.57056
	c-0.72367-1.70204-1.00892-3.23478-0.8033-4.3157c0.0311-0.16363-0.03098-0.36205-0.16211-0.51795
	c-0.6622-0.78748-1.40201-1.51505-2.19884-2.16248c-0.1321-0.10705-0.28667-0.16556-0.43514-0.16417
	c-0.03146,0.00029-0.0627,0.00343-0.09288,0.00966c-0.24182,0.05033-0.50698,0.07737-0.78808,0.08
	c-0.97456,0.00912-2.23113-0.27633-3.53828-0.80347c-1.71445-0.69131-2.99972-1.57298-3.61906-2.48206
	c-0.09538-0.14022-0.28238-0.23797-0.48807-0.25568c-0.50527-0.04283-1.01994-0.0623-1.52929-0.05754
	c-0.51697,0.00484-1.03964,0.0348-1.55357,0.08871c-0.20287,0.02128-0.38549,0.1212-0.47684,0.26084
	c-0.60235,0.92026-1.87045,1.82504-3.57063,2.54805c-1.29693,0.5515-2.54794,0.86016-3.52263,0.86928
	C8.45162,5.35792,8.18457,5.33561,7.94153,5.2893c-0.02874-0.00542-0.05997-0.00823-0.0913-0.00793
	c-0.14562,0.00136-0.2967,0.0617-0.42555,0.17016C6.63706,6.11327,5.90956,6.85302,5.26206,7.65017
	C5.13214,7.81032,5.07279,8.01272,5.10729,8.17832c0.22439,1.07689-0.03253,2.61315-0.72341,4.32637
	c-0.69151,1.71451-1.57317,2.99998-2.48252,3.61919c-0.13989,0.09538-0.23765,0.28212-0.25511,0.48748
	c-0.08696,1.02217-0.07655,2.05946,0.03099,3.08344c0.02128,0.20268,0.12113,0.38524,0.26064,0.47645
	c0.92026,0.6026,1.82524,1.87058,2.54831,3.57056c0.7238,1.70256,1.00906,3.23529,0.80337,4.31621
	c-0.0311,0.16337,0.03104,0.36153,0.16204,0.51744c0.66259,0.78799,1.40227,1.51556,2.19871,2.16248
	c0.13236,0.10731,0.287,0.16582,0.4354,0.16443c0.0314-0.00029,0.06258-0.00343,0.09276-0.00965
	c0.24195-0.05033,0.50711-0.07737,0.78827-0.08c0.97482-0.00912,2.23132,0.27607,3.53802,0.80321
	c1.71445,0.69131,2.99979,1.57298,3.61932,2.48232c0.09532,0.14022,0.28238,0.23796,0.488,0.25568
	c0.50533,0.04282,1.02001,0.0623,1.52929,0.05754c0.5169-0.00484,1.03958-0.0348,1.55337-0.08871
	c0.2028-0.02154,0.38569-0.12146,0.47697-0.26084c0.6026-0.92078,1.87071-1.82556,3.57082-2.54805
	c1.29603-0.55149,2.54691-0.86015,3.52212-0.86928c0.28349-0.00265,0.55054,0.01966,0.79378,0.06597
	c0.02887,0.00542,0.0601,0.00822,0.09137,0.00793c0.14575-0.00136,0.29702-0.0617,0.42581-0.17016
	c0.78838-0.66304,1.51582-1.40279,2.16229-2.1989c0.13011-0.1599,0.18941-0.3623,0.15484-0.52789
	c-0.22433-1.07715,0.0326-2.61341,0.7234-4.32662c0.69144-1.71425,1.57304-2.99972,2.48245-3.61893
	c0.13983-0.09538,0.23771-0.28238,0.25517-0.48774c0.08696-1.02217,0.07655-2.05946-0.03098-3.08318
	C34.30149,16.10213,34.20164,15.91957,34.06219,15.82835z"/>
<g opacity="0.39">
	<path fill="#ED3232" d="M17.85875,1.58839c0.50938-0.00477,1.02404,0.01471,1.52934,0.05754
		c0.20568,0.01772,0.39264,0.11547,0.48802,0.25568c0.61935,0.90909,1.90463,1.79075,3.61907,2.48207
		c1.30716,0.52714,2.56374,0.81259,3.53827,0.80347c0.28111-0.00263,0.5463-0.02966,0.78808-0.08
		c0.03021-0.00623,0.06145-0.00936,0.09288-0.00966c0.14846-0.00139,0.30307,0.05712,0.43514,0.16417
		c0.79686,0.64743,1.53664,1.375,2.19888,2.16248c0.13108,0.15591,0.19319,0.35433,0.16209,0.51795
		c-0.20565,1.08092,0.07962,2.61365,0.80329,4.3157c0.72289,1.69998,1.62788,2.96796,2.54836,3.57056
		c0.13948,0.09122,0.23933,0.27378,0.26062,0.47671c0.10753,1.02372,0.11795,2.061,0.03097,3.08318
		c-0.01748,0.20537-0.11537,0.39236-0.25518,0.48774c-0.9094,0.61921-1.79101,1.90468-2.48246,3.61893
		c-0.69081,1.71321-0.94771,3.24947-0.72339,4.32662c0.03453,0.1656-0.02471,0.36799-0.15483,0.52789
		c-0.64647,0.79611-1.37391,1.53585-2.1623,2.1989c-0.12882,0.10846-0.28006,0.1688-0.42584,0.17016
		c-0.03127,0.00029-0.06247-0.00252-0.09134-0.00793c-0.24322-0.04631-0.51029-0.06862-0.79381-0.06597
		c-0.97516,0.00913-2.22609,0.31778-3.52207,0.86928c-1.70012,0.72249-2.96826,1.62727-3.57084,2.54805
		c-0.0913,0.13938-0.27418,0.2393-0.47697,0.26084c-0.51383,0.05391-1.03647,0.08387-1.55341,0.08871
		c-0.50928,0.00476-1.02392-0.01471-1.52924-0.05754c-0.20568-0.01772-0.39268-0.11547-0.48805-0.25568
		c-0.61948-0.90935-1.90487-1.79101-3.61932-2.48232c-1.30669-0.52714-2.56319-0.81233-3.53802-0.80321
		c-0.28113,0.00263-0.54633,0.02966-0.78824,0.08c-0.03018,0.00623-0.06139,0.00936-0.09279,0.00965
		c-0.1484,0.00139-0.30301-0.05712-0.43538-0.16443c-0.7964-0.64692-1.53613-1.37449-2.19871-2.16248
		c-0.13102-0.15591-0.19311-0.35407-0.16204-0.51744c0.20572-1.08092-0.07959-2.61365-0.80337-4.31621
		c-0.72307-1.69998-1.62804-2.96796-2.54829-3.57056c-0.13951-0.09122-0.23938-0.27378-0.26066-0.47645
		c-0.1075-1.02397-0.11792-2.06126-0.03097-3.08344c0.01746-0.20537,0.11523-0.3921,0.25511-0.48748
		c0.90933-0.61921,1.79098-1.90468,2.48253-3.61919c0.69082-1.71321,0.94775-3.24947,0.72339-4.32636
		c-0.03453-0.1656,0.02482-0.36799,0.15476-0.52815c0.64751-0.79715,1.375-1.5369,2.16263-2.19864
		C7.5535,5.34306,7.70463,5.28273,7.8502,5.28136C7.88153,5.28107,7.91277,5.28388,7.94152,5.2893
		C8.1846,5.33561,8.4516,5.35792,8.73508,5.35527c0.97472-0.00912,2.22573-0.31778,3.52263-0.86928
		c1.70023-0.72301,2.96828-1.62779,3.57063-2.54805c0.09134-0.13964,0.27402-0.23956,0.47687-0.26084
		C16.81911,1.62319,17.34179,1.59323,17.85875,1.58839 M17.85133,0.79453c-0.54139,0.00507-1.08951,0.0363-1.62912,0.09304
		c-0.4406,0.04625-0.83612,0.27635-1.05818,0.61569c-0.50966,0.77854-1.68222,1.59947-3.21701,2.25219
		c-1.20323,0.5116-2.34649,0.7978-3.21936,0.80597C8.49702,4.56356,8.28261,4.54619,8.0905,4.50948
		C8.00972,4.49421,7.92643,4.48672,7.84277,4.4875C7.51322,4.49058,7.18321,4.61721,6.91358,4.84406
		C6.08777,5.53795,5.3248,6.31369,4.64582,7.14964C4.3649,7.49574,4.24682,7.94085,4.3301,8.3404
		c0.18989,0.9113-0.05885,2.32084-0.68247,3.86725c-0.62419,1.5477-1.42355,2.736-2.19313,3.26009
		c-0.33744,0.22981-0.56149,0.63223-0.59927,1.07633c-0.09121,1.07209-0.08026,2.16003,0.03246,3.23358
		c0.04625,0.44047,0.27634,0.83606,0.61549,1.05799c0.7788,0.50985,1.5998,1.68247,2.25244,3.21694
		c0.65325,1.53653,0.92814,2.9422,0.75404,3.85691c-0.07568,0.39793,0.04926,0.83792,0.33432,1.17692
		c0.6948,0.82646,1.47055,1.58935,2.30585,2.2677c0.27559,0.22382,0.61057,0.34525,0.94328,0.34214
		c0.08373-0.00078,0.16693-0.00957,0.24741-0.02635c0.19075-0.03978,0.40395-0.06115,0.63362-0.0633
		c0.87288-0.00817,2.02128,0.25658,3.23362,0.74558c1.54764,0.62413,2.73588,1.42348,3.26015,2.19313
		c0.23001,0.3377,0.63249,0.56162,1.07653,0.59959c0.53107,0.04517,1.07088,0.06544,1.60433,0.06045
		c0.54132-0.00507,1.08945-0.0363,1.62899-0.09303c0.4406-0.04651,0.83631-0.27661,1.05824-0.61569
		c0.50992-0.77906,1.68247-1.59999,3.21707-2.25219c1.20259-0.51159,2.34584-0.79779,3.21898-0.80596
		c0.23077-0.00216,0.44524,0.01521,0.63754,0.05192c0.08078,0.01527,0.16406,0.02276,0.2476,0.02198
		c0.32974-0.00308,0.65988-0.12971,0.92951-0.35656c0.82645-0.69493,1.58935-1.47067,2.26751-2.30584
		c0.28105-0.34584,0.399-0.79095,0.31572-1.19049c-0.18989-0.91156,0.05885-2.3211,0.68247-3.86751
		c0.62419-1.5477,1.42355-2.73575,2.19307-3.25983c0.33744-0.23007,0.56155-0.63249,0.59933-1.07659
		c0.09121-1.07209,0.08032-2.15977-0.03245-3.23332c-0.04625-0.44073-0.27635-0.83632-0.6155-1.05824
		c-0.779-0.50985-1.59999-1.68247-2.25245-3.21694c-0.65318-1.53627-0.928-2.94195-0.75397-3.85665
		c0.07568-0.39793-0.04932-0.83818-0.33446-1.17717c-0.69467-0.8262-1.47054-1.5891-2.30585-2.2677
		c-0.27539-0.22356-0.61044-0.34499-0.94315-0.34188c-0.08373,0.00078-0.16693,0.00957-0.24741,0.02635
		c-0.19075,0.03978-0.40389,0.06115-0.63356,0.0633c-0.873,0.00817-2.02148-0.25684-3.23388-0.74584
		c-1.54757-0.62413-2.73581-1.42348-3.25989-2.19287c-0.22994-0.3377-0.63236-0.56162-1.07653-0.59959
		C18.92471,0.80981,18.3849,0.78953,17.85133,0.79453L17.85133,0.79453z"/>
</g>
<path fill="#E3E3E3" d="M17.98332,2.51392h-0.12289c-0.38496,0-0.69703,0.31207-0.69703,0.69703v14.41034
	c0,0.38496,0.31207,0.69703,0.69703,0.69703l0.12289,0c0.38496,0,0.69702-0.31207,0.69702-0.69703V3.21095
	C18.68035,2.82599,18.36828,2.51392,17.98332,2.51392z"/>
</svg>
