<?xml version="1.0" encoding="utf-8"?>
<!-- Generator: Adobe Illustrator 25.2.3, SVG Export Plug-In . SVG Version: 6.00 Build 0)  -->
<svg version="1.0"
	 id="svg16908" xmlns:cc="http://creativecommons.org/ns#" xmlns:dc="http://purl.org/dc/elements/1.1/" xmlns:inkscape="http://www.inkscape.org/namespaces/inkscape" xmlns:rdf="http://www.w3.org/1999/02/22-rdf-syntax-ns#" xmlns:sodipodi="http://sodipodi.sourceforge.net/DTD/sodipodi-0.dtd" xmlns:svg="http://www.w3.org/2000/svg"
	 xmlns="http://www.w3.org/2000/svg" xmlns:xlink="http://www.w3.org/1999/xlink" x="0px" y="0px" width="36px" height="36.0015px"
	 viewBox="0 0 36 36.0015" enable-background="new 0 0 36 36.0015" xml:space="preserve">
<sodipodi:namedview  bordercolor="#666666" borderopacity="1.0" fit-margin-bottom="0" fit-margin-left="0" fit-margin-right="0" fit-margin-top="0" id="base" inkscape:current-layer="layer1" inkscape:cx="-86.209372" inkscape:cy="9.5126135" inkscape:document-units="mm" inkscape:pageopacity="0.0" inkscape:pageshadow="2" inkscape:window-height="1422" inkscape:window-maximized="0" inkscape:window-width="2560" inkscape:window-x="0" inkscape:window-y="18" inkscape:zoom="3.959798" pagecolor="#ffffff" showgrid="false" units="px">
	</sodipodi:namedview>
<path opacity="0.24" fill="#616161" enable-background="new    " d="M31.33626,28.50767
	c0.94378-1.19824,2.59279-1.8888,3.20455-3.3678c0.60577-1.46436,0.14915-3.61169,0.31944-5.11584
	c0.04309-0.14209,0.07434-0.28857,0.08844-0.43799c0.10132-1.07202,0.09863-2.14209-0.00214-3.19653
	c-0.01251-0.1311-0.04285-0.25854-0.07782-0.38428c0.00037,0.00146,0.0014,0.00269,0.00177,0.00391
	c-0.17993-1.5144,0.38249-3.46186-0.23067-4.94013c-0.6062-1.46167-2.32915-2.36261-3.27165-3.54474
	c-0.06946-0.12988-0.15009-0.25464-0.24481-0.36963c-0.67426-0.81738-1.42877-1.57593-2.25848-2.26294
	c-0.11487-0.09497-0.23981-0.17603-0.36993-0.24585c-1.18616-0.93872-1.64957-2.47831-3.11368-3.08403
	c-1.45319-0.60107-3.80355-0.24019-5.29843-0.40718c-0.15094-0.04785-0.30737-0.08057-0.46674-0.0957
	c-1.07227-0.10132-2.14221-0.09863-3.19684,0.0022c-0.1369,0.01294-0.27039,0.0437-0.40137,0.0813
	c-1.5108,0.17847-3.41772-0.39687-4.89136,0.21421C9.66292,1.96383,8.7264,3.70396,7.54256,4.64732
	C7.41713,4.71543,7.29598,4.79258,7.18483,4.88438c-0.81738,0.67407-1.57617,1.42871-2.26306,2.2583
	C4.82839,7.25547,4.74935,7.37852,4.68032,7.50621C3.73446,8.69957,1.9292,9.7917,1.31909,11.26655
	c-0.61169,1.47876,0.02004,3.24405-0.15837,4.75894c-0.03333,0.12256-0.05969,0.23853-0.07178,0.36597
	c-0.10132,1.07227-0.09863,2.14209,0.00214,3.19678c0.0127,0.13306,0.0412,0.25708,0.07709,0.38477
	c0.17883,1.52173-0.37153,3.48624,0.24456,4.97184c0.61316,1.47827,2.34931,2.37826,3.2942,3.57553
	c0.06555,0.11768,0.12085,0.19775,0.2074,0.30249c0.67426,0.81738,1.42871,1.57617,2.25842,2.26294
	c0.10925,0.09058,0.20642,0.15576,0.32959,0.22339c1.20251,0.94946,1.87585,2.58559,3.36181,3.20034
	c1.47888,0.61182,3.66974,0.16294,5.18445,0.34141c0.13098,0.03735,0.23627,0.05493,0.37305,0.06787
	c1.07214,0.10132,2.14209,0.09863,3.19666-0.0022c0.13617-0.01294,0.24738-0.03613,0.37775-0.07324
	c1.52179-0.17896,3.42021,0.3978,4.90562-0.21841c1.47827-0.61304,2.4446-2.37558,3.64186-3.3204
	c0.11902-0.06592,0.20349-0.12378,0.30945-0.21118c0.81732-0.67432,1.57605-1.42871,2.26288-2.25854
	C31.2037,28.72886,31.26992,28.62681,31.33626,28.50767z M8.18319,4.42955c-0.00018,0-0.00037,0-0.00061,0
	C8.18276,4.42955,8.183,4.42955,8.18319,4.42955z"/>
<path opacity="0.71" d="M35.48765,16.19807c-0.0719-0.69063-0.48818-1.26847-1.04468-1.68373
	c-0.60457-0.45114-1.2788-1.46717-1.81588-2.73001c-0.53743-1.26403-0.80142-2.45542-0.70638-3.20375
	c0.08746-0.68866-0.03938-1.38927-0.48657-1.92024c-0.69955-0.83063-1.48005-1.60087-2.33626-2.29743
	c-0.53972-0.43909-1.24463-0.55548-1.93306-0.45471c-0.74639,0.10926-1.94299-0.13261-3.21719-0.64628
	c-1.27499-0.51431-2.305-1.17081-2.7665-1.76767c-0.42566-0.5505-1.01391-0.95614-1.70732-1.0146
	c-1.0997-0.09271-2.19604-0.07981-3.27596,0.0326c-0.69068,0.0719-1.26849,0.4883-1.68378,1.04485
	c-0.45112,0.60456-1.46695,1.2788-2.72992,1.81561C10.52023,3.91017,9.3289,4.17417,8.5806,4.07928
	c-0.68869-0.08733-1.38932,0.03939-1.92029,0.4866c-0.83063,0.6996-1.60093,1.48005-2.29749,2.3362
	C3.92375,7.44174,3.80732,8.14659,3.90809,8.83497c0.10926,0.7464-0.13246,1.94299-0.64634,3.21733
	c-0.51429,1.27509-1.17099,2.30538-1.76785,2.76677c-0.55034,0.42542-0.9559,1.0134-1.01432,1.70654
	c-0.0927,1.09982-0.0798,2.19635,0.03267,3.27645c0.07192,0.69065,0.48826,1.26847,1.04478,1.68376
	c0.60452,0.45111,1.27871,1.46698,1.81576,2.72997c0.53742,1.2638,0.80145,2.45531,0.70644,3.2037
	C3.9918,28.10814,4.1186,28.80875,4.5658,29.33971c0.69949,0.83051,1.47994,1.6008,2.33607,2.29726
	c0.53976,0.43909,1.2447,0.55554,1.93317,0.4548c0.74644-0.10922,1.94304,0.13251,3.21721,0.64642
	c1.27527,0.51422,2.30554,1.17103,2.76693,1.76791c0.4254,0.55032,1.01335,0.95586,1.70646,1.01431
	c1.09987,0.09276,2.1964,0.07985,3.27646-0.03271c0.69054-0.07197,1.26835-0.48813,1.68351-1.04461
	c0.45105-0.60459,1.46704-1.27883,2.73012-1.81594c1.26385-0.53743,2.45512-0.80143,3.20346-0.70644
	c0.68883,0.08744,1.38964-0.03928,1.92069-0.48663c0.83054-0.69964,1.60074-1.48019,2.29725-2.33636
	c0.43902-0.53966,0.55544-1.24446,0.45466-1.93281c-0.10927-0.7464,0.13245-1.94296,0.64634-3.2171
	c0.51423-1.27506,1.17089-2.30532,1.76777-2.76687c0.5504-0.4256,0.95598-1.01376,1.01442-1.70706
	C35.61299,18.37432,35.60009,17.27804,35.48765,16.19807z M34.74654,19.42172c-0.0369,0.43378-0.25581,0.82686-0.58541,1.05159
	c-0.75164,0.51191-1.53243,1.67236-2.14213,3.18411c-0.60914,1.51049-0.8521,2.88729-0.66662,3.77768
	c0.08134,0.39027-0.03387,0.82504-0.30839,1.16284c-0.6624,0.81577-1.40758,1.5735-2.21484,2.25229
	c-0.26337,0.22158-0.58583,0.34527-0.90792,0.34828c-0.08159,0.00076-0.16295-0.00655-0.24185-0.02147
	c-0.18783-0.03585-0.39733-0.05283-0.62274-0.05072c-0.85285,0.00798-1.96955,0.28753-3.14421,0.78724
	c-1.49895,0.63705-2.64428,1.43891-3.14235,2.19987c-0.21678,0.33121-0.6033,0.55596-1.03366,0.60139
	c-0.52702,0.05542-1.06241,0.08592-1.59116,0.09087c-0.52105,0.00488-1.04833-0.01493-1.56706-0.05905
	c-0.43372-0.03709-0.82686-0.25581-1.05152-0.58566c-0.5121-0.75177-1.67274-1.53255-3.18443-2.14219
	c-1.18418-0.47764-2.30591-0.73624-3.15851-0.72827c-0.22434,0.0021-0.43259,0.02298-0.61891,0.06183
	c-0.07861,0.01639-0.15988,0.02497-0.24166,0.02574c-0.32499,0.00304-0.65218-0.11557-0.92137-0.33419
	c-0.8159-0.66259-1.57362-1.40777-2.25229-2.21503c-0.27845-0.33112-0.40048-0.76089-0.32656-1.14958
	c0.17005-0.89346-0.09845-2.26649-0.73653-3.76732c-0.63749-1.49882-1.43941-2.64421-2.20013-3.14222
	c-0.33127-0.21677-0.55602-0.60317-0.6012-1.03341c-0.11009-1.04861-0.1208-2.11128-0.0317-3.15847
	c0.0369-0.43378,0.25575-0.82686,0.58535-1.05133c0.75171-0.51191,1.53249-1.67261,2.14219-3.18437
	c0.60914-1.51049,0.8521-2.88729,0.66662-3.77742c-0.08134-0.39027,0.034-0.82504,0.30839-1.16309
	c0.66322-0.81653,1.40846-1.57426,2.21509-2.25204c0.26337-0.22158,0.58571-0.34526,0.9076-0.34828
	c0.08172-0.00076,0.16307,0.00655,0.24197,0.02146C8.50827,4.85868,8.7177,4.87565,8.94298,4.87355
	c0.8526-0.00798,1.9693-0.28753,3.14459-0.78725c1.49914-0.63755,2.64446-1.43941,3.14228-2.19987
	c0.2169-0.33146,0.60324-0.55621,1.0336-0.60139c0.52708-0.05542,1.06247-0.08593,1.59128-0.09087
	c0.52118-0.00488,1.04845,0.01493,1.56713,0.05905c0.43385,0.03709,0.82692,0.25581,1.05152,0.58566
	c0.51191,0.75152,1.67255,1.5323,3.18418,2.14194c1.18424,0.47764,2.30604,0.7365,3.15877,0.72852
	c0.22433-0.0021,0.43253-0.02298,0.61884-0.06183c0.07861-0.01639,0.15988-0.02497,0.24166-0.02574
	c0.32499-0.00304,0.65225,0.11557,0.92125,0.33394c0.8159,0.66284,1.57375,1.40802,2.25229,2.21503
	c0.27851,0.33112,0.40061,0.76114,0.32669,1.14983c-0.16999,0.89346,0.09846,2.26648,0.73646,3.76707
	c0.6373,1.49882,1.43922,2.64421,2.20012,3.14222c0.33127,0.21677,0.55602,0.60318,0.6012,1.03366
	C34.82499,17.31212,34.83563,18.37453,34.74654,19.42172z"/>
<path opacity="0.6" d="M33.68905,15.8788c-0.89914-0.5886-1.7831-1.82713-2.48918-3.48763
	c-0.70686-1.66251-0.98549-3.15964-0.78465-4.21546c0.03037-0.15983-0.03026-0.35364-0.15834-0.50592
	c-0.64682-0.76919-1.36945-1.47986-2.14776-2.11225c-0.12903-0.10456-0.28002-0.16172-0.42503-0.16036
	c-0.03073,0.00029-0.06125,0.00335-0.09073,0.00943c-0.2362,0.04916-0.49521,0.07557-0.76978,0.07814
	c-0.95193,0.00891-2.17931-0.26991-3.4561-0.7848c-1.67463-0.67525-2.93005-1.53644-3.535-2.42441
	c-0.09317-0.13696-0.27582-0.23244-0.47673-0.24974c-0.49353-0.04183-0.99625-0.06086-1.49376-0.0562
	c-0.50496,0.00473-1.0155,0.03399-1.51748,0.08665c-0.19816,0.02079-0.37654,0.11838-0.46576,0.25478
	c-0.58835,0.89889-1.82701,1.78265-3.48769,2.48887c-1.26681,0.53869-2.48876,0.84018-3.44081,0.84909
	c-0.2769,0.00259-0.53775-0.0192-0.77515-0.06444C8.14702,5.57924,8.11651,5.5765,8.08591,5.57678
	C7.94367,5.57811,7.7961,5.63705,7.67024,5.74299C6.90093,6.38936,6.19032,7.11193,5.55786,7.89056
	C5.43096,8.047,5.37298,8.2447,5.40668,8.40645c0.21918,1.05188-0.03178,2.55245-0.7066,4.22588
	c-0.67544,1.67469-1.53663,2.9303-2.42485,3.53512c-0.13664,0.09317-0.23213,0.27556-0.24918,0.47616
	c-0.08494,0.99843-0.07477,2.01163,0.03027,3.01182c0.02079,0.19797,0.11832,0.37629,0.25458,0.46539
	c0.89889,0.58861,1.78284,1.82713,2.48912,3.48763c0.70699,1.66302,0.98562,3.16015,0.78471,4.21596
	c-0.03038,0.15957,0.03032,0.35313,0.15828,0.50542c0.6472,0.76969,1.3697,1.48036,2.14764,2.11225
	c0.12928,0.10481,0.28033,0.16197,0.42529,0.16061c0.03067-0.00029,0.06112-0.00335,0.0906-0.00943
	c0.23633-0.04916,0.49534-0.07557,0.76996-0.07814c0.95218-0.00891,2.17949,0.26966,3.45585,0.78455
	c1.67462,0.67525,2.93011,1.53644,3.53525,2.42467c0.09311,0.13696,0.27582,0.23244,0.47667,0.24974
	c0.4936,0.04183,0.99632,0.06086,1.49377,0.0562c0.5049-0.00473,1.01543-0.03399,1.51729-0.08665
	c0.1981-0.02104,0.37673-0.11864,0.46589-0.25478c0.5886-0.89939,1.82725-1.78316,3.48788-2.48887
	c1.26593-0.53868,2.48775-0.84017,3.44031-0.84908c0.2769-0.00259,0.53775,0.0192,0.77534,0.06444
	c0.0282,0.00529,0.0587,0.00803,0.08925,0.00775c0.14236-0.00133,0.29012-0.06027,0.41591-0.16621
	c0.77006-0.64764,1.48061-1.37021,2.11206-2.14782c0.12709-0.15619,0.18501-0.35388,0.15125-0.51563
	c-0.21912-1.05214,0.03184-2.55271,0.7066-4.22613c0.67538-1.67443,1.5365-2.93005,2.4248-3.53487
	c0.13658-0.09316,0.23219-0.27582,0.24924-0.47641c0.08494-0.99843,0.07477-2.01163-0.03026-3.01156
	C33.92278,16.14621,33.82525,15.96789,33.68905,15.8788z"/>
<g opacity="0.47">
	<path fill="#242424" d="M17.86197,1.96959c0.49755-0.00466,1.00025,0.01437,1.49381,0.0562
		c0.2009,0.01731,0.38352,0.11279,0.47669,0.24975c0.60496,0.88797,1.86039,1.74916,3.53501,2.42441
		c1.27679,0.51489,2.50419,0.79371,3.45609,0.7848c0.27458-0.00257,0.53361-0.02898,0.76978-0.07814
		c0.02951-0.00608,0.06003-0.00914,0.09073-0.00943c0.14501-0.00136,0.29603,0.0558,0.42503,0.16036
		c0.77835,0.6324,1.50095,1.34307,2.14781,2.11225c0.12804,0.15228,0.1887,0.34609,0.15833,0.50592
		c-0.20087,1.05581,0.07777,2.55294,0.78463,4.21546c0.7061,1.6605,1.59007,2.89902,2.48917,3.48763
		c0.13623,0.0891,0.23377,0.26742,0.25457,0.46564c0.10503,0.99994,0.11521,2.01313,0.03025,3.01157
		c-0.01707,0.2006-0.11269,0.38325-0.24926,0.47641c-0.88828,0.60483-1.74941,1.86044-2.42479,3.53487
		c-0.67476,1.67342-0.9257,3.17399-0.70658,4.22613c0.03373,0.16175-0.02414,0.35945-0.15123,0.51563
		c-0.63146,0.77761-1.342,1.50018-2.11208,2.14782c-0.12583,0.10594-0.27355,0.16488-0.41595,0.16621
		c-0.03054,0.00029-0.06102-0.00246-0.08921-0.00775c-0.23757-0.04523-0.49844-0.06703-0.77537-0.06444
		c-0.95251,0.00891-2.17438,0.3104-3.44026,0.84908c-1.66063,0.70571-2.89931,1.58948-3.4879,2.48887
		c-0.08918,0.13614-0.26781,0.23374-0.46589,0.25478c-0.50189,0.05266-1.0124,0.08192-1.51732,0.08665
		c-0.49745,0.00465-1.00014-0.01437-1.49372-0.0562c-0.2009-0.01731-0.38356-0.11279-0.47672-0.24974
		c-0.60509-0.88823-1.86063-1.74941-3.53525-2.42466c-1.27634-0.5149-2.50365-0.79346-3.45585-0.78456
		c-0.2746,0.00257-0.53364,0.02898-0.76993,0.07814c-0.02948,0.00608-0.05996,0.00914-0.09063,0.00943
		c-0.14495,0.00136-0.29597-0.0558-0.42527-0.16061c-0.7779-0.6319-1.50045-1.34257-2.14764-2.11225
		c-0.12798-0.15229-0.18862-0.34584-0.15828-0.50542c0.20094-1.05581-0.07774-2.55294-0.78471-4.21596
		c-0.70627-1.6605-1.59023-2.89902-2.4891-3.48763c-0.13627-0.0891-0.23382-0.26742-0.2546-0.46539
		c-0.105-1.00019-0.11518-2.01339-0.03025-3.01182c0.01706-0.2006,0.11255-0.38299,0.24918-0.47616
		c0.88821-0.60482,1.74938-1.86044,2.42487-3.53512c0.67478-1.67342,0.92573-3.17399,0.70659-4.22588
		C5.37296,8.2447,5.43094,8.047,5.55786,7.89056c0.63247-0.77863,1.34306-1.5012,2.1124-2.14757
		c0.12583-0.10594,0.27344-0.16488,0.41563-0.16621C8.11649,5.5765,8.147,5.57924,8.17508,5.58453
		c0.23743,0.04524,0.49823,0.06703,0.77513,0.06444c0.95208-0.00891,2.17403-0.3104,3.44081-0.84909
		c1.66074-0.70621,2.89934-1.58998,3.48769-2.48887c0.08922-0.13639,0.26765-0.23399,0.4658-0.25478
		C16.84647,2.00358,17.35701,1.97431,17.86197,1.96959 M17.85471,1.19416c-0.52881,0.00495-1.0642,0.03545-1.59128,0.09087
		c-0.43036,0.04517-0.8167,0.26993-1.0336,0.60139c-0.49782,0.76046-1.64315,1.56232-3.14228,2.19987
		c-1.17529,0.49972-2.29198,0.77927-3.14459,0.78725C8.71768,4.87565,8.50825,4.85868,8.3206,4.82282
		C8.2417,4.80791,8.16035,4.80059,8.07863,4.80136c-0.32189,0.00301-0.64424,0.12669-0.9076,0.34828
		c-0.80664,0.67777-1.55188,1.4355-2.21509,2.25204C4.68154,7.73973,4.5662,8.1745,4.64754,8.56476
		c0.18548,0.89013-0.05748,2.26693-0.66662,3.77742c-0.60969,1.51176-1.39048,2.67246-2.14219,3.18437
		c-0.3296,0.22447-0.54845,0.61755-0.58535,1.05133c-0.08909,1.04719-0.07839,2.10986,0.0317,3.15847
		c0.04517,0.43024,0.26993,0.81664,0.6012,1.03341c0.76071,0.49801,1.56264,1.64339,2.20013,3.14222
		c0.63807,1.50084,0.90658,2.87387,0.73653,3.76732c-0.07392,0.38869,0.04811,0.81846,0.32656,1.14958
		c0.67866,0.80726,1.43639,1.55244,2.25229,2.21503c0.26919,0.21862,0.59639,0.33723,0.92137,0.33419
		c0.08178-0.00076,0.16305-0.00935,0.24166-0.02574c0.18632-0.03885,0.39457-0.05973,0.61891-0.06183
		c0.8526-0.00798,1.97433,0.25063,3.15851,0.72827c1.51169,0.60963,2.67233,1.39042,3.18443,2.14219
		c0.22466,0.32986,0.6178,0.54858,1.05152,0.58566c0.51873,0.04412,1.04601,0.06393,1.56706,0.05905
		c0.52875-0.00495,1.06414-0.03545,1.59116-0.09087c0.43036-0.04543,0.81689-0.27018,1.03366-0.60139
		c0.49807-0.76097,1.64339-1.56283,3.14235-2.19987c1.17466-0.49971,2.29135-0.77926,3.14421-0.78724
		c0.22541-0.00211,0.4349,0.01486,0.62274,0.05072c0.0789,0.01491,0.16026,0.02223,0.24185,0.02147
		c0.32208-0.00301,0.64455-0.1267,0.90792-0.34828c0.80726-0.67879,1.55243-1.43652,2.21484-2.25229
		c0.27452-0.33781,0.38973-0.77258,0.30839-1.16284c-0.18548-0.89038,0.05748-2.26719,0.66662-3.77767
		c0.60969-1.51176,1.39048-2.6722,2.14212-3.18411c0.3296-0.22473,0.54851-0.6178,0.58541-1.05158
		c0.08909-1.04719,0.07846-2.10961-0.0317-3.15822c-0.04517-0.43049-0.26993-0.81689-0.6012-1.03366
		c-0.7609-0.49801-1.56283-1.64339-2.20012-3.14222c-0.63801-1.50059-0.90645-2.87361-0.73646-3.76707
		c0.07392-0.38869-0.04818-0.81871-0.32669-1.14983c-0.67854-0.80701-1.43639-1.55219-2.25229-2.21503
		c-0.269-0.21837-0.59626-0.33698-0.92125-0.33394c-0.08178,0.00077-0.16305,0.00935-0.24166,0.02574
		c-0.18632,0.03885-0.39451,0.05973-0.61884,0.06183c-0.85273,0.00798-1.97453-0.25088-3.15877-0.72852
		c-1.51163-0.60963-2.67226-1.39042-3.18418-2.14194c-0.2246-0.32986-0.61768-0.54858-1.05152-0.58566
		C18.90317,1.20909,18.37589,1.18929,17.85471,1.19416L17.85471,1.19416z"/>
</g>
<path fill="#E3E3E3" d="M17.92744,2.35119L17.92744,2.35119c-0.3887,0-0.70381,0.31511-0.70381,0.70381v14.53657
	c0,0.3887,0.31511,0.70381,0.70381,0.70381l0,0c0.3887,0,0.70381-0.31511,0.70381-0.70381V3.055
	C18.63125,2.66629,18.31614,2.35119,17.92744,2.35119z"/>
</svg>
