<?xml version="1.0" encoding="utf-8"?>
<!-- Generator: Adobe Illustrator 27.5.0, SVG Export Plug-In . SVG Version: 6.00 Build 0)  -->
<svg version="1.0"
	 id="svg15246" xmlns:inkscape="http://www.inkscape.org/namespaces/inkscape" xmlns:cc="http://creativecommons.org/ns#" xmlns:dc="http://purl.org/dc/elements/1.1/" xmlns:svg="http://www.w3.org/2000/svg" xmlns:rdf="http://www.w3.org/1999/02/22-rdf-syntax-ns#" xmlns:sodipodi="http://sodipodi.sourceforge.net/DTD/sodipodi-0.dtd"
	 xmlns="http://www.w3.org/2000/svg" xmlns:xlink="http://www.w3.org/1999/xlink" x="0px" y="0px" width="23.7px" height="23.7px"
	 viewBox="0 0 23.7 23.7" enable-background="new 0 0 23.7 23.7" xml:space="preserve">
<sodipodi:namedview  bordercolor="#666666" borderopacity="1.0" fit-margin-bottom="0" fit-margin-left="0" fit-margin-right="0" fit-margin-top="0" id="base" inkscape:current-layer="layer1" inkscape:cx="8.7220802" inkscape:cy="-10.120793" inkscape:document-rotation="0" inkscape:document-units="mm" inkscape:pageopacity="0.0" inkscape:pageshadow="2" inkscape:window-height="1361" inkscape:window-maximized="1" inkscape:window-width="2560" inkscape:window-x="2551" inkscape:window-y="-9" inkscape:zoom="11.2" pagecolor="#ffffff" showgrid="false" units="px">
	</sodipodi:namedview>
<g>
	<g>
		<g>
			<g>
				<g>
					
						<linearGradient id="SVGID_1_" gradientUnits="userSpaceOnUse" x1="-602.2439" y1="-1759.64124" x2="-578.86902" y2="-1759.64124" gradientTransform="matrix(0 1 -1 0 -1747.84119 602.39899)">
						<stop  offset="0" style="stop-color:#818080"/>
						<stop  offset="1" style="stop-color:#575757"/>
					</linearGradient>
					<path fill="url(#SVGID_1_)" d="M11.8,23.5c-6.4,0-11.7-5.2-11.7-11.7c0-6.4,5.2-11.7,11.7-11.7s11.7,5.2,11.7,11.7
						S18.3,23.5,11.8,23.5z"/>
				</g>
				
					<linearGradient id="SVGID_00000133507252578815705350000014969287794782242715_" gradientUnits="userSpaceOnUse" x1="1061.98364" y1="4127.63965" x2="1084.18359" y2="4127.63965" gradientTransform="matrix(0 1 1 0 -4115.83984 -1061.23169)">
					<stop  offset="0.00559" style="stop-color:#FFFFFF"/>
					<stop  offset="1" style="stop-color:#7B7B7B"/>
				</linearGradient>
				<circle fill="url(#SVGID_00000133507252578815705350000014969287794782242715_)" cx="11.8" cy="11.9" r="11.1"/>
				<circle fill="#DFDFDF" cx="11.8" cy="11.9" r="10.4"/>
				
					<linearGradient id="SVGID_00000016783443767324647770000012896450620973326471_" gradientUnits="userSpaceOnUse" x1="58.8937" y1="90.5555" x2="58.8937" y2="87.7828" gradientTransform="matrix(1 0 0 1 -47.0062 -77.3266)">
					<stop  offset="0" style="stop-color:#FFFAFC"/>
					<stop  offset="1" style="stop-color:#808080"/>
				</linearGradient>
				<path fill="url(#SVGID_00000016783443767324647770000012896450620973326471_)" d="M1.5,10.5l-0.4,0.4c-0.4,0.6-0.4,1.4,0,2
					l0.4,0.4h20.7l0.4-0.4c0.5-0.6,0.5-1.4,0-2l-0.4-0.4H1.5z"/>
				
					<linearGradient id="SVGID_00000142168628243639577640000009478606774827061173_" gradientUnits="userSpaceOnUse" x1="-1250.70715" y1="417.8472" x2="-1233.23022" y2="417.8472" gradientTransform="matrix(0 -1 1 0 -406.04721 -1230.1261)">
					<stop  offset="0" style="stop-color:#AFADAD"/>
					<stop  offset="1" style="stop-color:#616262"/>
				</linearGradient>
				<circle fill="url(#SVGID_00000142168628243639577640000009478606774827061173_)" cx="11.8" cy="11.8" r="8.7"/>
				<circle fill="#1F1F1F" cx="11.8" cy="11.8" r="8.2"/>
				<path opacity="0.28" fill="#414141" enable-background="new    " d="M11.8,4.2c4.2,0,7.6,3.8,7.6,8.4s-3.4,9.3-7.6,9.3
					s-7.6-4.6-7.6-9.3S7.6,4.2,11.8,4.2z"/>
				
					<linearGradient id="SVGID_00000129173681066646684810000007828613576644480430_" gradientUnits="userSpaceOnUse" x1="-1894.81348" y1="14.4203" x2="-1894.81348" y2="29.6827" gradientTransform="matrix(-1 0 0 1 -1883.01343 -10.2203)">
					<stop  offset="0.00559" style="stop-color:#707171"/>
					<stop  offset="1" style="stop-color:#181717"/>
				</linearGradient>
				<circle fill="url(#SVGID_00000129173681066646684810000007828613576644480430_)" cx="11.8" cy="11.8" r="7.6"/>
				<circle fill="#333333" cx="11.8" cy="11.8" r="6.8"/>
				<g opacity="0.43">
					<path fill="#414141" d="M11.8,4.7c4.2,0,7.6,3.3,7.6,7.3v-0.1c0-4.2-3.4-7.6-7.6-7.6s-7.6,3.4-7.6,7.6V12
						C4.3,7.9,7.7,4.7,11.8,4.7z"/>
					<path opacity="0.28" fill="#414141" enable-background="new    " d="M4.2,12v0.1c0,4.1,3.4,7.4,7.6,7.4
						C7.7,19.5,4.3,16.1,4.2,12z"/>
					<path opacity="0.28" fill="#414141" enable-background="new    " d="M11.8,19.5c4.2,0,7.6-3.3,7.6-7.4V12
						C19.4,16.1,16,19.5,11.8,19.5z"/>
				</g>
				
					<linearGradient id="SVGID_00000158015276085111732840000007822288051635862172_" gradientUnits="userSpaceOnUse" x1="-1894.81348" y1="27.2339" x2="-1894.81348" y2="16.8921" gradientTransform="matrix(-1 0 0 1 -1883.01343 -10.2203)">
					<stop  offset="0" style="stop-color:#595A5A"/>
					<stop  offset="1" style="stop-color:#181717"/>
				</linearGradient>
				<circle fill="url(#SVGID_00000158015276085111732840000007822288051635862172_)" cx="11.8" cy="11.8" r="5.2"/>
				<circle cx="11.8" cy="11.8" r="4.6"/>
				<path fill="#131313" d="M11.8,11.8"/>
			</g>
		</g>
	</g>
</g>
</svg>
