<?xml version="1.0" encoding="utf-8"?>
<!-- Generator: Adobe Illustrator 25.2.3, SVG Export Plug-In . SVG Version: 6.00 Build 0)  -->
<svg version="1.0"
	 id="svg57823" inkscape:version="0.92.4 5da689c313, 2019-01-14" sodipodi:docname="RackBusboard.svg" xmlns:cc="http://creativecommons.org/ns#" xmlns:dc="http://purl.org/dc/elements/1.1/" xmlns:inkscape="http://www.inkscape.org/namespaces/inkscape" xmlns:rdf="http://www.w3.org/1999/02/22-rdf-syntax-ns#" xmlns:sodipodi="http://sodipodi.sourceforge.net/DTD/sodipodi-0.dtd" xmlns:svg="http://www.w3.org/2000/svg"
	 xmlns="http://www.w3.org/2000/svg" xmlns:xlink="http://www.w3.org/1999/xlink" x="0px" y="0px" width="288px" height="92.389px"
	 viewBox="0 0 288 92.389" enable-background="new 0 0 288 92.389" xml:space="preserve">
<sodipodi:namedview  bordercolor="#666666" borderopacity="1" gridtolerance="10" guidetolerance="10" id="namedview57825" inkscape:current-layer="svg57823" inkscape:cx="224.97394" inkscape:cy="45.320028" inkscape:pageopacity="0" inkscape:pageshadow="2" inkscape:window-height="882" inkscape:window-maximized="0" inkscape:window-width="1600" inkscape:window-x="0" inkscape:window-y="18" inkscape:zoom="2.2083333" objecttolerance="10" pagecolor="#ffffff" showgrid="false">
	</sodipodi:namedview>
<g>
	<path id="path57596_2_" inkscape:connector-curvature="0" fill="#212121" d="M0,92.389h288V0H0V92.389z"/>
	
		<path id="path57598_2_" inkscape:connector-curvature="0" fill="none" stroke="#2E2E2E" stroke-width="14" stroke-miterlimit="10" d="
		M15.04141,55.35h272.92578"/>
	
		<path id="path57600_2_" inkscape:connector-curvature="0" fill="none" stroke="#2E2E2E" stroke-width="2.538" stroke-miterlimit="10" d="
		M15.04141,24.88906h272.92578"/>
	
		<path id="path57602_2_" inkscape:connector-curvature="0" fill="none" stroke="#2E2E2E" stroke-width="2.538" stroke-miterlimit="10" d="
		M15.04141,30.98281h272.92578"/>
	
		<path id="path57604_2_" inkscape:connector-curvature="0" fill="none" stroke="#2E2E2E" stroke-width="2.538" stroke-miterlimit="10" d="
		M15.04141,37.07656h272.92578"/>
	
		<path id="path57606_2_" inkscape:connector-curvature="0" fill="none" stroke="#2E2E2E" stroke-width="2.538" stroke-miterlimit="10" d="
		M15.04141,43.1664h272.92578"/>
	
		<path id="path57608_2_" inkscape:connector-curvature="0" fill="none" stroke="#2E2E2E" stroke-width="2.538" stroke-miterlimit="10" d="
		M15.04141,67.5375h272.92578"/>
	<path id="path57622_2_" inkscape:connector-curvature="0" fill="#212121" d="M97.62344,15.32266h-1.32422V8.34219h1.32422V15.32266
		z"/>
	<path id="path57624_2_" inkscape:connector-curvature="0" fill="#212121" d="M100.45157,12.49453h-6.98048v-1.32422h6.98048
		V12.49453z"/>
	<g>
		
			<linearGradient id="SVGID_1_" gradientUnits="userSpaceOnUse" x1="622.4679" y1="-5323.86133" x2="633.19763" y2="-5323.86133" gradientTransform="matrix(0 1 -1 0 -5226.8999 -616)">
			<stop  offset="0.01118" style="stop-color:#383838"/>
			<stop  offset="1" style="stop-color:#2B2B2B"/>
		</linearGradient>
		<circle fill="url(#SVGID_1_)" cx="96.96133" cy="11.83275" r="5.36487"/>
		<path fill="#141414" d="M100.10107,11.20986l-1.77729-0.21294c-0.27283-0.03269-0.48788-0.24782-0.52045-0.52066l-0.21205-1.77609
			c-0.00925-0.07742-0.07491-0.13571-0.15288-0.13571h-0.95412c-0.07796,0-0.14361,0.05827-0.15287,0.13567l-0.21255,1.7771
			c-0.03264,0.27288-0.24779,0.48799-0.52068,0.52057l-1.77652,0.2121c-0.07742,0.00924-0.13571,0.0749-0.13571,0.15287v0.95417
			c0,0.07796,0.05827,0.14361,0.13567,0.15287l1.77673,0.21252c0.27283,0.03263,0.48792,0.24771,0.52055,0.52055l0.21252,1.77668
			c0.00926,0.0774,0.07491,0.13567,0.15287,0.13567h0.95418c0.07794,0,0.14359-0.05825,0.15286-0.13564l0.21289-1.77691
			c0.03268-0.27279,0.24776-0.48781,0.52055-0.52044l1.77628-0.21243c0.07741-0.00926,0.13567-0.07491,0.13567-0.15287v-0.95423
			C100.23672,11.28478,100.17847,11.21913,100.10107,11.20986z"/>
	</g>
	<g>
		
			<linearGradient id="SVGID_2_" gradientUnits="userSpaceOnUse" x1="691.22729" y1="-5323.86133" x2="701.95703" y2="-5323.86133" gradientTransform="matrix(0 1 -1 0 -5226.8999 -616)">
			<stop  offset="0.01118" style="stop-color:#383838"/>
			<stop  offset="1" style="stop-color:#2B2B2B"/>
		</linearGradient>
		<circle fill="url(#SVGID_2_)" cx="96.96133" cy="80.59219" r="5.36487"/>
		<path fill="#141414" d="M100.10107,79.96929l-1.77729-0.21294c-0.27283-0.03268-0.48788-0.24782-0.52045-0.52066l-0.21205-1.77609
			c-0.00925-0.07742-0.07491-0.1357-0.15288-0.1357h-0.95412c-0.07796,0-0.14361,0.05827-0.15287,0.13567l-0.21255,1.77711
			c-0.03264,0.27288-0.24779,0.48798-0.52068,0.52056l-1.77652,0.2121c-0.07742,0.00924-0.13571,0.0749-0.13571,0.15287v0.95417
			c0,0.07796,0.05827,0.14361,0.13567,0.15287l1.77673,0.21252c0.27283,0.03263,0.48792,0.24771,0.52055,0.52055l0.21252,1.77668
			c0.00926,0.07741,0.07491,0.13567,0.15287,0.13567h0.95418c0.07794,0,0.14359-0.05825,0.15286-0.13564l0.21289-1.77691
			c0.03268-0.27279,0.24776-0.48781,0.52055-0.52044l1.77628-0.21243c0.07741-0.00926,0.13567-0.07491,0.13567-0.15287v-0.95423
			C100.23672,80.04421,100.17847,79.97856,100.10107,79.96929z"/>
	</g>
	<g>
		<g>
			<path id="path57670_11_" inkscape:connector-curvature="0" fill="#0F0F0F" d="M78.23672,79.67031H58.08828V12.75625h20.14844
				V79.67031z"/>
			<path id="path57672_21_" inkscape:connector-curvature="0" fill="#212121" d="M75.95937,76.9125H60.36172V15.51016h15.59766
				V76.9125z"/>
			<path id="path57672_19_" inkscape:connector-curvature="0" fill="#212121" d="M78.23672,52.43867h-2.27734V39.98399h2.27734
				V52.43867z"/>
			<g>
				<path id="path57674_21_" inkscape:connector-curvature="0" fill="#707070" d="M65.87734,25.65078H64.3539v-1.52344h1.52344
					V25.65078z"/>
				<path id="path57676_21_" inkscape:connector-curvature="0" fill="#707070" d="M71.96719,25.65078h-1.52344v-1.52344h1.52344
					V25.65078z"/>
				<path id="path57678_21_" inkscape:connector-curvature="0" fill="#707070" d="M65.87734,31.74453H64.3539v-1.52344h1.52344
					V31.74453z"/>
				<path id="path57680_21_" inkscape:connector-curvature="0" fill="#707070" d="M71.96719,31.74453h-1.52344v-1.52344h1.52344
					V31.74453z"/>
				<path id="path57682_21_" inkscape:connector-curvature="0" fill="#707070" d="M65.87734,37.83437H64.3539v-1.51953h1.52344
					V37.83437z"/>
				<path id="path57684_21_" inkscape:connector-curvature="0" fill="#707070" d="M71.96719,37.83437h-1.52344v-1.51953h1.52344
					V37.83437z"/>
				<path id="path57686_21_" inkscape:connector-curvature="0" fill="#707070" d="M65.87734,43.92812H64.3539v-1.52344h1.52344
					V43.92812z"/>
				<path id="path57688_21_" inkscape:connector-curvature="0" fill="#707070" d="M71.96719,43.92812h-1.52344v-1.52344h1.52344
					V43.92812z"/>
				<path id="path57690_21_" inkscape:connector-curvature="0" fill="#707070" d="M65.87734,50.02187H64.3539v-1.52344h1.52344
					V50.02187z"/>
				<path id="path57692_21_" inkscape:connector-curvature="0" fill="#707070" d="M71.96719,50.02187h-1.52344v-1.52344h1.52344
					V50.02187z"/>
				<path id="path57694_21_" inkscape:connector-curvature="0" fill="#707070" d="M65.87734,56.11172H64.3539v-1.52344h1.52344
					V56.11172z"/>
				<path id="path57696_21_" inkscape:connector-curvature="0" fill="#707070" d="M71.96719,56.11172h-1.52344v-1.52344h1.52344
					V56.11172z"/>
				<path id="path57698_21_" inkscape:connector-curvature="0" fill="#707070" d="M65.87734,62.20547H64.3539v-1.52344h1.52344
					V62.20547z"/>
				<path id="path57700_21_" inkscape:connector-curvature="0" fill="#707070" d="M71.96719,62.20547h-1.52344v-1.52344h1.52344
					V62.20547z"/>
				<path id="path57702_21_" inkscape:connector-curvature="0" fill="#707070" d="M65.87734,68.29531H64.3539v-1.52344h1.52344
					V68.29531z"/>
				<path id="path57704_21_" inkscape:connector-curvature="0" fill="#707070" d="M71.96719,68.29531h-1.52344v-1.52344h1.52344
					V68.29531z"/>
			</g>
			<g>
				<path id="path57674_20_" inkscape:connector-curvature="0" fill="#1A1A1A" d="M65.87734,27.17422H64.3539v-1.52344h1.52344
					V27.17422z"/>
				<path id="path57676_20_" inkscape:connector-curvature="0" fill="#1A1A1A" d="M71.96719,27.17422h-1.52344v-1.52344h1.52344
					V27.17422z"/>
				<path id="path57678_20_" inkscape:connector-curvature="0" fill="#1A1A1A" d="M65.87734,33.26797H64.3539v-1.52344h1.52344
					V33.26797z"/>
				<path id="path57680_20_" inkscape:connector-curvature="0" fill="#1A1A1A" d="M71.96719,33.26797h-1.52344v-1.52344h1.52344
					V33.26797z"/>
				<path id="path57682_20_" inkscape:connector-curvature="0" fill="#1A1A1A" d="M65.87734,39.35781H64.3539v-1.51953h1.52344
					V39.35781z"/>
				<path id="path57684_20_" inkscape:connector-curvature="0" fill="#1A1A1A" d="M71.96719,39.35781h-1.52344v-1.51953h1.52344
					V39.35781z"/>
				<path id="path57686_20_" inkscape:connector-curvature="0" fill="#1A1A1A" d="M65.87734,45.45156H64.3539v-1.52344h1.52344
					V45.45156z"/>
				<path id="path57688_20_" inkscape:connector-curvature="0" fill="#1A1A1A" d="M71.96719,45.45156h-1.52344v-1.52344h1.52344
					V45.45156z"/>
				<path id="path57690_20_" inkscape:connector-curvature="0" fill="#1A1A1A" d="M65.87734,51.54531H64.3539v-1.52344h1.52344
					V51.54531z"/>
				<path id="path57692_20_" inkscape:connector-curvature="0" fill="#1A1A1A" d="M71.96719,51.54531h-1.52344v-1.52344h1.52344
					V51.54531z"/>
				<path id="path57694_20_" inkscape:connector-curvature="0" fill="#1A1A1A" d="M65.87734,57.63515H64.3539v-1.52344h1.52344
					V57.63515z"/>
				<path id="path57696_20_" inkscape:connector-curvature="0" fill="#1A1A1A" d="M71.96719,57.63515h-1.52344v-1.52344h1.52344
					V57.63515z"/>
				<path id="path57698_20_" inkscape:connector-curvature="0" fill="#1A1A1A" d="M65.87734,63.7289H64.3539v-1.52344h1.52344
					V63.7289z"/>
				<path id="path57700_20_" inkscape:connector-curvature="0" fill="#1A1A1A" d="M71.96719,63.7289h-1.52344v-1.52344h1.52344
					V63.7289z"/>
				<path id="path57702_20_" inkscape:connector-curvature="0" fill="#1A1A1A" d="M65.87734,69.81875H64.3539v-1.52344h1.52344
					V69.81875z"/>
				<path id="path57704_20_" inkscape:connector-curvature="0" fill="#1A1A1A" d="M71.96719,69.81875h-1.52344v-1.52344h1.52344
					V69.81875z"/>
			</g>
			
				<path id="path57706_11_" inkscape:connector-curvature="0" fill="none" stroke="#303030" stroke-width="2" stroke-linecap="round" stroke-linejoin="round" stroke-miterlimit="10" d="
				M58.56875,85.42812h19.18359"/>
			<polygon fill="#1A1A1A" points="77.13554,78.25273 59.18555,78.25273 60.36172,76.9125 75.95937,76.9125 			"/>
			<polygon fill="#0A0A0A" points="77.13554,14.16992 59.18555,14.16992 60.36172,15.51016 75.95937,15.51016 			"/>
			<rect x="58.08828" y="79.67031" fill="#0A0A0A" width="20.14844" height="0.37773"/>
			<rect x="58.08828" y="80.04805" fill="#1A1A1A" width="20.14844" height="3.00469"/>
			<rect x="60.36172" y="15.51016" fill="#1A1A1A" width="15.59766" height="2.14258"/>
			<rect x="75.95937" y="39.98399" fill="#1A1A1A" width="2.26953" height="1.81875"/>
		</g>
	</g>
	<g>
		<g>
			<path id="path57670_12_" inkscape:connector-curvature="0" fill="#0F0F0F" d="M20.63711,79.67031H0.48867V12.75625h20.14844
				V79.67031z"/>
			<path id="path57672_23_" inkscape:connector-curvature="0" fill="#212121" d="M18.35977,76.9125H2.76211V15.51016h15.59766
				V76.9125z"/>
			<path id="path57672_22_" inkscape:connector-curvature="0" fill="#212121" d="M20.63711,52.43867h-2.27734V39.98399h2.27734
				V52.43867z"/>
			<g>
				<path id="path57674_23_" inkscape:connector-curvature="0" fill="#707070" d="M8.27773,25.65078H6.7543v-1.52344h1.52344
					V25.65078z"/>
				<path id="path57676_23_" inkscape:connector-curvature="0" fill="#707070" d="M14.36758,25.65078h-1.52344v-1.52344h1.52344
					V25.65078z"/>
				<path id="path57678_23_" inkscape:connector-curvature="0" fill="#707070" d="M8.27773,31.74453H6.7543v-1.52344h1.52344
					V31.74453z"/>
				<path id="path57680_23_" inkscape:connector-curvature="0" fill="#707070" d="M14.36758,31.74453h-1.52344v-1.52344h1.52344
					V31.74453z"/>
				<path id="path57682_23_" inkscape:connector-curvature="0" fill="#707070" d="M8.27773,37.83437H6.7543v-1.51953h1.52344
					V37.83437z"/>
				<path id="path57684_23_" inkscape:connector-curvature="0" fill="#707070" d="M14.36758,37.83437h-1.52344v-1.51953h1.52344
					V37.83437z"/>
				<path id="path57686_23_" inkscape:connector-curvature="0" fill="#707070" d="M8.27773,43.92812H6.7543v-1.52344h1.52344
					V43.92812z"/>
				<path id="path57688_23_" inkscape:connector-curvature="0" fill="#707070" d="M14.36758,43.92812h-1.52344v-1.52344h1.52344
					V43.92812z"/>
				<path id="path57690_23_" inkscape:connector-curvature="0" fill="#707070" d="M8.27773,50.02187H6.7543v-1.52344h1.52344
					V50.02187z"/>
				<path id="path57692_23_" inkscape:connector-curvature="0" fill="#707070" d="M14.36758,50.02187h-1.52344v-1.52344h1.52344
					V50.02187z"/>
				<path id="path57694_23_" inkscape:connector-curvature="0" fill="#707070" d="M8.27773,56.11172H6.7543v-1.52344h1.52344
					V56.11172z"/>
				<path id="path57696_23_" inkscape:connector-curvature="0" fill="#707070" d="M14.36758,56.11172h-1.52344v-1.52344h1.52344
					V56.11172z"/>
				<path id="path57698_23_" inkscape:connector-curvature="0" fill="#707070" d="M8.27773,62.20547H6.7543v-1.52344h1.52344
					V62.20547z"/>
				<path id="path57700_23_" inkscape:connector-curvature="0" fill="#707070" d="M14.36758,62.20547h-1.52344v-1.52344h1.52344
					V62.20547z"/>
				<path id="path57702_23_" inkscape:connector-curvature="0" fill="#707070" d="M8.27773,68.29531H6.7543v-1.52344h1.52344
					V68.29531z"/>
				<path id="path57704_23_" inkscape:connector-curvature="0" fill="#707070" d="M14.36758,68.29531h-1.52344v-1.52344h1.52344
					V68.29531z"/>
			</g>
			<g>
				<path id="path57674_22_" inkscape:connector-curvature="0" fill="#1A1A1A" d="M8.27773,27.17422H6.7543v-1.52344h1.52344
					V27.17422z"/>
				<path id="path57676_22_" inkscape:connector-curvature="0" fill="#1A1A1A" d="M14.36758,27.17422h-1.52344v-1.52344h1.52344
					V27.17422z"/>
				<path id="path57678_22_" inkscape:connector-curvature="0" fill="#1A1A1A" d="M8.27773,33.26797H6.7543v-1.52344h1.52344
					V33.26797z"/>
				<path id="path57680_22_" inkscape:connector-curvature="0" fill="#1A1A1A" d="M14.36758,33.26797h-1.52344v-1.52344h1.52344
					V33.26797z"/>
				<path id="path57682_22_" inkscape:connector-curvature="0" fill="#1A1A1A" d="M8.27773,39.35781H6.7543v-1.51953h1.52344
					V39.35781z"/>
				<path id="path57684_22_" inkscape:connector-curvature="0" fill="#1A1A1A" d="M14.36758,39.35781h-1.52344v-1.51953h1.52344
					V39.35781z"/>
				<path id="path57686_22_" inkscape:connector-curvature="0" fill="#1A1A1A" d="M8.27773,45.45156H6.7543v-1.52344h1.52344
					V45.45156z"/>
				<path id="path57688_22_" inkscape:connector-curvature="0" fill="#1A1A1A" d="M14.36758,45.45156h-1.52344v-1.52344h1.52344
					V45.45156z"/>
				<path id="path57690_22_" inkscape:connector-curvature="0" fill="#1A1A1A" d="M8.27773,51.54531H6.7543v-1.52344h1.52344
					V51.54531z"/>
				<path id="path57692_22_" inkscape:connector-curvature="0" fill="#1A1A1A" d="M14.36758,51.54531h-1.52344v-1.52344h1.52344
					V51.54531z"/>
				<path id="path57694_22_" inkscape:connector-curvature="0" fill="#1A1A1A" d="M8.27773,57.63515H6.7543v-1.52344h1.52344
					V57.63515z"/>
				<path id="path57696_22_" inkscape:connector-curvature="0" fill="#1A1A1A" d="M14.36758,57.63515h-1.52344v-1.52344h1.52344
					V57.63515z"/>
				<path id="path57698_22_" inkscape:connector-curvature="0" fill="#1A1A1A" d="M8.27773,63.7289H6.7543v-1.52344h1.52344V63.7289
					z"/>
				<path id="path57700_22_" inkscape:connector-curvature="0" fill="#1A1A1A" d="M14.36758,63.7289h-1.52344v-1.52344h1.52344
					V63.7289z"/>
				<path id="path57702_22_" inkscape:connector-curvature="0" fill="#1A1A1A" d="M8.27773,69.81875H6.7543v-1.52344h1.52344
					V69.81875z"/>
				<path id="path57704_22_" inkscape:connector-curvature="0" fill="#1A1A1A" d="M14.36758,69.81875h-1.52344v-1.52344h1.52344
					V69.81875z"/>
			</g>
			
				<path id="path57706_12_" inkscape:connector-curvature="0" fill="none" stroke="#303030" stroke-width="2" stroke-linecap="round" stroke-linejoin="round" stroke-miterlimit="10" d="
				M0.96914,85.42812h19.18359"/>
			<polygon fill="#1A1A1A" points="19.53594,78.25273 1.58594,78.25273 2.76211,76.9125 18.35977,76.9125 			"/>
			<polygon fill="#0A0A0A" points="19.53594,14.16992 1.58594,14.16992 2.76211,15.51016 18.35977,15.51016 			"/>
			<rect x="0.48867" y="79.67031" fill="#0A0A0A" width="20.14844" height="0.37773"/>
			<rect x="0.48867" y="80.04805" fill="#1A1A1A" width="20.14844" height="3.00469"/>
			<rect x="2.76211" y="15.51016" fill="#1A1A1A" width="15.59766" height="2.14258"/>
			<rect x="18.35977" y="39.98399" fill="#1A1A1A" width="2.26953" height="1.81875"/>
		</g>
	</g>
	<g>
		<g>
			<path id="path57670_10_" inkscape:connector-curvature="0" fill="#0F0F0F" d="M135.83438,79.67031h-20.14845V12.75625h20.14845
				V79.67031z"/>
			<path id="path57672_17_" inkscape:connector-curvature="0" fill="#212121" d="M133.55704,76.9125h-15.59766V15.51016h15.59766
				V76.9125z"/>
			<path id="path57672_16_" inkscape:connector-curvature="0" fill="#212121" d="M135.83438,52.43867h-2.27734V39.98399h2.27734
				V52.43867z"/>
			<g>
				<path id="path57674_19_" inkscape:connector-curvature="0" fill="#707070" d="M123.475,25.65078h-1.52344v-1.52344h1.52344
					V25.65078z"/>
				<path id="path57676_19_" inkscape:connector-curvature="0" fill="#707070" d="M129.56485,25.65078h-1.52344v-1.52344h1.52344
					V25.65078z"/>
				<path id="path57678_19_" inkscape:connector-curvature="0" fill="#707070" d="M123.475,31.74453h-1.52344v-1.52344h1.52344
					V31.74453z"/>
				<path id="path57680_19_" inkscape:connector-curvature="0" fill="#707070" d="M129.56485,31.74453h-1.52344v-1.52344h1.52344
					V31.74453z"/>
				<path id="path57682_19_" inkscape:connector-curvature="0" fill="#707070" d="M123.475,37.83437h-1.52344v-1.51953h1.52344
					V37.83437z"/>
				<path id="path57684_19_" inkscape:connector-curvature="0" fill="#707070" d="M129.56485,37.83437h-1.52344v-1.51953h1.52344
					V37.83437z"/>
				<path id="path57686_19_" inkscape:connector-curvature="0" fill="#707070" d="M123.475,43.92812h-1.52344v-1.52344h1.52344
					V43.92812z"/>
				<path id="path57688_19_" inkscape:connector-curvature="0" fill="#707070" d="M129.56485,43.92812h-1.52344v-1.52344h1.52344
					V43.92812z"/>
				<path id="path57690_19_" inkscape:connector-curvature="0" fill="#707070" d="M123.475,50.02187h-1.52344v-1.52344h1.52344
					V50.02187z"/>
				<path id="path57692_19_" inkscape:connector-curvature="0" fill="#707070" d="M129.56485,50.02187h-1.52344v-1.52344h1.52344
					V50.02187z"/>
				<path id="path57694_19_" inkscape:connector-curvature="0" fill="#707070" d="M123.475,56.11172h-1.52344v-1.52344h1.52344
					V56.11172z"/>
				<path id="path57696_19_" inkscape:connector-curvature="0" fill="#707070" d="M129.56485,56.11172h-1.52344v-1.52344h1.52344
					V56.11172z"/>
				<path id="path57698_19_" inkscape:connector-curvature="0" fill="#707070" d="M123.475,62.20547h-1.52344v-1.52344h1.52344
					V62.20547z"/>
				<path id="path57700_19_" inkscape:connector-curvature="0" fill="#707070" d="M129.56485,62.20547h-1.52344v-1.52344h1.52344
					V62.20547z"/>
				<path id="path57702_19_" inkscape:connector-curvature="0" fill="#707070" d="M123.475,68.29531h-1.52344v-1.52344h1.52344
					V68.29531z"/>
				<path id="path57704_19_" inkscape:connector-curvature="0" fill="#707070" d="M129.56485,68.29531h-1.52344v-1.52344h1.52344
					V68.29531z"/>
			</g>
			<g>
				<path id="path57674_18_" inkscape:connector-curvature="0" fill="#1A1A1A" d="M123.475,27.17422h-1.52344v-1.52344h1.52344
					V27.17422z"/>
				<path id="path57676_18_" inkscape:connector-curvature="0" fill="#1A1A1A" d="M129.56485,27.17422h-1.52344v-1.52344h1.52344
					V27.17422z"/>
				<path id="path57678_18_" inkscape:connector-curvature="0" fill="#1A1A1A" d="M123.475,33.26797h-1.52344v-1.52344h1.52344
					V33.26797z"/>
				<path id="path57680_18_" inkscape:connector-curvature="0" fill="#1A1A1A" d="M129.56485,33.26797h-1.52344v-1.52344h1.52344
					V33.26797z"/>
				<path id="path57682_18_" inkscape:connector-curvature="0" fill="#1A1A1A" d="M123.475,39.35781h-1.52344v-1.51953h1.52344
					V39.35781z"/>
				<path id="path57684_18_" inkscape:connector-curvature="0" fill="#1A1A1A" d="M129.56485,39.35781h-1.52344v-1.51953h1.52344
					V39.35781z"/>
				<path id="path57686_18_" inkscape:connector-curvature="0" fill="#1A1A1A" d="M123.475,45.45156h-1.52344v-1.52344h1.52344
					V45.45156z"/>
				<path id="path57688_18_" inkscape:connector-curvature="0" fill="#1A1A1A" d="M129.56485,45.45156h-1.52344v-1.52344h1.52344
					V45.45156z"/>
				<path id="path57690_18_" inkscape:connector-curvature="0" fill="#1A1A1A" d="M123.475,51.54531h-1.52344v-1.52344h1.52344
					V51.54531z"/>
				<path id="path57692_18_" inkscape:connector-curvature="0" fill="#1A1A1A" d="M129.56485,51.54531h-1.52344v-1.52344h1.52344
					V51.54531z"/>
				<path id="path57694_18_" inkscape:connector-curvature="0" fill="#1A1A1A" d="M123.475,57.63515h-1.52344v-1.52344h1.52344
					V57.63515z"/>
				<path id="path57696_18_" inkscape:connector-curvature="0" fill="#1A1A1A" d="M129.56485,57.63515h-1.52344v-1.52344h1.52344
					V57.63515z"/>
				<path id="path57698_18_" inkscape:connector-curvature="0" fill="#1A1A1A" d="M123.475,63.7289h-1.52344v-1.52344h1.52344
					V63.7289z"/>
				<path id="path57700_18_" inkscape:connector-curvature="0" fill="#1A1A1A" d="M129.56485,63.7289h-1.52344v-1.52344h1.52344
					V63.7289z"/>
				<path id="path57702_18_" inkscape:connector-curvature="0" fill="#1A1A1A" d="M123.475,69.81875h-1.52344v-1.52344h1.52344
					V69.81875z"/>
				<path id="path57704_18_" inkscape:connector-curvature="0" fill="#1A1A1A" d="M129.56485,69.81875h-1.52344v-1.52344h1.52344
					V69.81875z"/>
			</g>
			
				<path id="path57706_10_" inkscape:connector-curvature="0" fill="none" stroke="#303030" stroke-width="2" stroke-linecap="round" stroke-linejoin="round" stroke-miterlimit="10" d="
				M116.1664,85.42812h19.1836"/>
			<polygon fill="#1A1A1A" points="134.7332,78.25273 116.7832,78.25273 117.95937,76.9125 133.55704,76.9125 			"/>
			<polygon fill="#0A0A0A" points="134.7332,14.16992 116.7832,14.16992 117.95937,15.51016 133.55704,15.51016 			"/>
			<rect x="115.68594" y="79.67031" fill="#0A0A0A" width="20.14844" height="0.37773"/>
			<rect x="115.68594" y="80.04805" fill="#1A1A1A" width="20.14844" height="3.00469"/>
			<rect x="117.95937" y="15.51016" fill="#1A1A1A" width="15.59766" height="2.14258"/>
			<rect x="133.55704" y="39.98399" fill="#1A1A1A" width="2.26953" height="1.81875"/>
		</g>
	</g>
	<g id="XMLID_9_">
		<g>
			<path id="path57670_8_" inkscape:connector-curvature="0" fill="#0F0F0F" d="M193.43204,79.67031H173.2836V12.75625h20.14844
				V79.67031z"/>
			<path id="path57672_15_" inkscape:connector-curvature="0" fill="#212121" d="M191.15469,76.9125h-15.59766V15.51016h15.59766
				V76.9125z"/>
			<path id="path57672_14_" inkscape:connector-curvature="0" fill="#212121" d="M193.43204,52.43867h-2.27734V39.98399h2.27734
				V52.43867z"/>
			<g>
				<path id="path57674_15_" inkscape:connector-curvature="0" fill="#707070" d="M181.07266,25.65078h-1.52344v-1.52344h1.52344
					V25.65078z"/>
				<path id="path57676_15_" inkscape:connector-curvature="0" fill="#707070" d="M187.16251,25.65078h-1.52344v-1.52344h1.52344
					V25.65078z"/>
				<path id="path57678_15_" inkscape:connector-curvature="0" fill="#707070" d="M181.07266,31.74453h-1.52344v-1.52344h1.52344
					V31.74453z"/>
				<path id="path57680_15_" inkscape:connector-curvature="0" fill="#707070" d="M187.16251,31.74453h-1.52344v-1.52344h1.52344
					V31.74453z"/>
				<path id="path57682_15_" inkscape:connector-curvature="0" fill="#707070" d="M181.07266,37.83437h-1.52344v-1.51953h1.52344
					V37.83437z"/>
				<path id="path57684_15_" inkscape:connector-curvature="0" fill="#707070" d="M187.16251,37.83437h-1.52344v-1.51953h1.52344
					V37.83437z"/>
				<path id="path57686_15_" inkscape:connector-curvature="0" fill="#707070" d="M181.07266,43.92812h-1.52344v-1.52344h1.52344
					V43.92812z"/>
				<path id="path57688_15_" inkscape:connector-curvature="0" fill="#707070" d="M187.16251,43.92812h-1.52344v-1.52344h1.52344
					V43.92812z"/>
				<path id="path57690_15_" inkscape:connector-curvature="0" fill="#707070" d="M181.07266,50.02187h-1.52344v-1.52344h1.52344
					V50.02187z"/>
				<path id="path57692_15_" inkscape:connector-curvature="0" fill="#707070" d="M187.16251,50.02187h-1.52344v-1.52344h1.52344
					V50.02187z"/>
				<path id="path57694_15_" inkscape:connector-curvature="0" fill="#707070" d="M181.07266,56.11172h-1.52344v-1.52344h1.52344
					V56.11172z"/>
				<path id="path57696_15_" inkscape:connector-curvature="0" fill="#707070" d="M187.16251,56.11172h-1.52344v-1.52344h1.52344
					V56.11172z"/>
				<path id="path57698_15_" inkscape:connector-curvature="0" fill="#707070" d="M181.07266,62.20547h-1.52344v-1.52344h1.52344
					V62.20547z"/>
				<path id="path57700_15_" inkscape:connector-curvature="0" fill="#707070" d="M187.16251,62.20547h-1.52344v-1.52344h1.52344
					V62.20547z"/>
				<path id="path57702_15_" inkscape:connector-curvature="0" fill="#707070" d="M181.07266,68.29531h-1.52344v-1.52344h1.52344
					V68.29531z"/>
				<path id="path57704_15_" inkscape:connector-curvature="0" fill="#707070" d="M187.16251,68.29531h-1.52344v-1.52344h1.52344
					V68.29531z"/>
			</g>
			<g>
				<path id="path57674_14_" inkscape:connector-curvature="0" fill="#1A1A1A" d="M181.07266,27.17422h-1.52344v-1.52344h1.52344
					V27.17422z"/>
				<path id="path57676_14_" inkscape:connector-curvature="0" fill="#1A1A1A" d="M187.16251,27.17422h-1.52344v-1.52344h1.52344
					V27.17422z"/>
				<path id="path57678_14_" inkscape:connector-curvature="0" fill="#1A1A1A" d="M181.07266,33.26797h-1.52344v-1.52344h1.52344
					V33.26797z"/>
				<path id="path57680_14_" inkscape:connector-curvature="0" fill="#1A1A1A" d="M187.16251,33.26797h-1.52344v-1.52344h1.52344
					V33.26797z"/>
				<path id="path57682_14_" inkscape:connector-curvature="0" fill="#1A1A1A" d="M181.07266,39.35781h-1.52344v-1.51953h1.52344
					V39.35781z"/>
				<path id="path57684_14_" inkscape:connector-curvature="0" fill="#1A1A1A" d="M187.16251,39.35781h-1.52344v-1.51953h1.52344
					V39.35781z"/>
				<path id="path57686_14_" inkscape:connector-curvature="0" fill="#1A1A1A" d="M181.07266,45.45156h-1.52344v-1.52344h1.52344
					V45.45156z"/>
				<path id="path57688_14_" inkscape:connector-curvature="0" fill="#1A1A1A" d="M187.16251,45.45156h-1.52344v-1.52344h1.52344
					V45.45156z"/>
				<path id="path57690_14_" inkscape:connector-curvature="0" fill="#1A1A1A" d="M181.07266,51.54531h-1.52344v-1.52344h1.52344
					V51.54531z"/>
				<path id="path57692_14_" inkscape:connector-curvature="0" fill="#1A1A1A" d="M187.16251,51.54531h-1.52344v-1.52344h1.52344
					V51.54531z"/>
				<path id="path57694_14_" inkscape:connector-curvature="0" fill="#1A1A1A" d="M181.07266,57.63515h-1.52344v-1.52344h1.52344
					V57.63515z"/>
				<path id="path57696_14_" inkscape:connector-curvature="0" fill="#1A1A1A" d="M187.16251,57.63515h-1.52344v-1.52344h1.52344
					V57.63515z"/>
				<path id="path57698_14_" inkscape:connector-curvature="0" fill="#1A1A1A" d="M181.07266,63.7289h-1.52344v-1.52344h1.52344
					V63.7289z"/>
				<path id="path57700_14_" inkscape:connector-curvature="0" fill="#1A1A1A" d="M187.16251,63.7289h-1.52344v-1.52344h1.52344
					V63.7289z"/>
				<path id="path57702_14_" inkscape:connector-curvature="0" fill="#1A1A1A" d="M181.07266,69.81875h-1.52344v-1.52344h1.52344
					V69.81875z"/>
				<path id="path57704_14_" inkscape:connector-curvature="0" fill="#1A1A1A" d="M187.16251,69.81875h-1.52344v-1.52344h1.52344
					V69.81875z"/>
			</g>
			
				<path id="path57706_8_" inkscape:connector-curvature="0" fill="none" stroke="#303030" stroke-width="2" stroke-linecap="round" stroke-linejoin="round" stroke-miterlimit="10" d="
				M173.76407,85.42812h19.18359"/>
			<polygon fill="#1A1A1A" points="192.33086,78.25273 174.38086,78.25273 175.55704,76.9125 191.15469,76.9125 			"/>
			<polygon fill="#0A0A0A" points="192.33086,14.16992 174.38086,14.16992 175.55704,15.51016 191.15469,15.51016 			"/>
			<rect x="173.2836" y="79.67031" fill="#0A0A0A" width="20.14844" height="0.37773"/>
			<rect x="173.2836" y="80.04805" fill="#1A1A1A" width="20.14844" height="3.00469"/>
			<rect x="175.55704" y="15.51016" fill="#1A1A1A" width="15.59766" height="2.14258"/>
			<rect x="191.15469" y="39.98399" fill="#1A1A1A" width="2.26953" height="1.81875"/>
		</g>
	</g>
	<g id="XMLID_8_">
		<g>
			<path id="path57670_7_" inkscape:connector-curvature="0" fill="#0F0F0F" d="M251.03165,79.67031h-20.14844V12.75625h20.14844
				V79.67031z"/>
			<path id="path57672_13_" inkscape:connector-curvature="0" fill="#212121" d="M248.7543,76.9125h-15.59766V15.51016h15.59766
				V76.9125z"/>
			<path id="path57672_12_" inkscape:connector-curvature="0" fill="#212121" d="M251.03165,52.43867h-2.27734V39.98399h2.27734
				V52.43867z"/>
			<g>
				<path id="path57674_13_" inkscape:connector-curvature="0" fill="#707070" d="M238.67227,25.65078h-1.52344v-1.52344h1.52344
					V25.65078z"/>
				<path id="path57676_13_" inkscape:connector-curvature="0" fill="#707070" d="M244.76212,25.65078h-1.52344v-1.52344h1.52344
					V25.65078z"/>
				<path id="path57678_13_" inkscape:connector-curvature="0" fill="#707070" d="M238.67227,31.74453h-1.52344v-1.52344h1.52344
					V31.74453z"/>
				<path id="path57680_13_" inkscape:connector-curvature="0" fill="#707070" d="M244.76212,31.74453h-1.52344v-1.52344h1.52344
					V31.74453z"/>
				<path id="path57682_13_" inkscape:connector-curvature="0" fill="#707070" d="M238.67227,37.83437h-1.52344v-1.51953h1.52344
					V37.83437z"/>
				<path id="path57684_13_" inkscape:connector-curvature="0" fill="#707070" d="M244.76212,37.83437h-1.52344v-1.51953h1.52344
					V37.83437z"/>
				<path id="path57686_13_" inkscape:connector-curvature="0" fill="#707070" d="M238.67227,43.92812h-1.52344v-1.52344h1.52344
					V43.92812z"/>
				<path id="path57688_13_" inkscape:connector-curvature="0" fill="#707070" d="M244.76212,43.92812h-1.52344v-1.52344h1.52344
					V43.92812z"/>
				<path id="path57690_13_" inkscape:connector-curvature="0" fill="#707070" d="M238.67227,50.02187h-1.52344v-1.52344h1.52344
					V50.02187z"/>
				<path id="path57692_13_" inkscape:connector-curvature="0" fill="#707070" d="M244.76212,50.02187h-1.52344v-1.52344h1.52344
					V50.02187z"/>
				<path id="path57694_13_" inkscape:connector-curvature="0" fill="#707070" d="M238.67227,56.11172h-1.52344v-1.52344h1.52344
					V56.11172z"/>
				<path id="path57696_13_" inkscape:connector-curvature="0" fill="#707070" d="M244.76212,56.11172h-1.52344v-1.52344h1.52344
					V56.11172z"/>
				<path id="path57698_13_" inkscape:connector-curvature="0" fill="#707070" d="M238.67227,62.20547h-1.52344v-1.52344h1.52344
					V62.20547z"/>
				<path id="path57700_13_" inkscape:connector-curvature="0" fill="#707070" d="M244.76212,62.20547h-1.52344v-1.52344h1.52344
					V62.20547z"/>
				<path id="path57702_13_" inkscape:connector-curvature="0" fill="#707070" d="M238.67227,68.29531h-1.52344v-1.52344h1.52344
					V68.29531z"/>
				<path id="path57704_13_" inkscape:connector-curvature="0" fill="#707070" d="M244.76212,68.29531h-1.52344v-1.52344h1.52344
					V68.29531z"/>
			</g>
			<g>
				<path id="path57674_12_" inkscape:connector-curvature="0" fill="#1A1A1A" d="M238.67227,27.17422h-1.52344v-1.52344h1.52344
					V27.17422z"/>
				<path id="path57676_12_" inkscape:connector-curvature="0" fill="#1A1A1A" d="M244.76212,27.17422h-1.52344v-1.52344h1.52344
					V27.17422z"/>
				<path id="path57678_12_" inkscape:connector-curvature="0" fill="#1A1A1A" d="M238.67227,33.26797h-1.52344v-1.52344h1.52344
					V33.26797z"/>
				<path id="path57680_12_" inkscape:connector-curvature="0" fill="#1A1A1A" d="M244.76212,33.26797h-1.52344v-1.52344h1.52344
					V33.26797z"/>
				<path id="path57682_12_" inkscape:connector-curvature="0" fill="#1A1A1A" d="M238.67227,39.35781h-1.52344v-1.51953h1.52344
					V39.35781z"/>
				<path id="path57684_12_" inkscape:connector-curvature="0" fill="#1A1A1A" d="M244.76212,39.35781h-1.52344v-1.51953h1.52344
					V39.35781z"/>
				<path id="path57686_12_" inkscape:connector-curvature="0" fill="#1A1A1A" d="M238.67227,45.45156h-1.52344v-1.52344h1.52344
					V45.45156z"/>
				<path id="path57688_12_" inkscape:connector-curvature="0" fill="#1A1A1A" d="M244.76212,45.45156h-1.52344v-1.52344h1.52344
					V45.45156z"/>
				<path id="path57690_12_" inkscape:connector-curvature="0" fill="#1A1A1A" d="M238.67227,51.54531h-1.52344v-1.52344h1.52344
					V51.54531z"/>
				<path id="path57692_12_" inkscape:connector-curvature="0" fill="#1A1A1A" d="M244.76212,51.54531h-1.52344v-1.52344h1.52344
					V51.54531z"/>
				<path id="path57694_12_" inkscape:connector-curvature="0" fill="#1A1A1A" d="M238.67227,57.63515h-1.52344v-1.52344h1.52344
					V57.63515z"/>
				<path id="path57696_12_" inkscape:connector-curvature="0" fill="#1A1A1A" d="M244.76212,57.63515h-1.52344v-1.52344h1.52344
					V57.63515z"/>
				<path id="path57698_12_" inkscape:connector-curvature="0" fill="#1A1A1A" d="M238.67227,63.7289h-1.52344v-1.52344h1.52344
					V63.7289z"/>
				<path id="path57700_12_" inkscape:connector-curvature="0" fill="#1A1A1A" d="M244.76212,63.7289h-1.52344v-1.52344h1.52344
					V63.7289z"/>
				<path id="path57702_12_" inkscape:connector-curvature="0" fill="#1A1A1A" d="M238.67227,69.81875h-1.52344v-1.52344h1.52344
					V69.81875z"/>
				<path id="path57704_12_" inkscape:connector-curvature="0" fill="#1A1A1A" d="M244.76212,69.81875h-1.52344v-1.52344h1.52344
					V69.81875z"/>
			</g>
			
				<path id="path57706_7_" inkscape:connector-curvature="0" fill="none" stroke="#303030" stroke-width="2" stroke-linecap="round" stroke-linejoin="round" stroke-miterlimit="10" d="
				M231.36368,85.42812h19.18359"/>
			<polygon fill="#1A1A1A" points="249.93047,78.25273 231.98047,78.25273 233.15665,76.9125 248.7543,76.9125 			"/>
			<polygon fill="#0A0A0A" points="249.93047,14.16992 231.98047,14.16992 233.15665,15.51016 248.7543,15.51016 			"/>
			<rect x="230.88321" y="79.67031" fill="#0A0A0A" width="20.14844" height="0.37773"/>
			<rect x="230.88321" y="80.04805" fill="#1A1A1A" width="20.14844" height="3.00469"/>
			<rect x="233.15665" y="15.51016" fill="#1A1A1A" width="15.59766" height="2.14258"/>
			<rect x="248.7543" y="39.98399" fill="#1A1A1A" width="2.26953" height="1.81875"/>
		</g>
	</g>
	<rect fill="#383838" width="288" height="0.92118"/>
	<rect y="91.46783" fill="#0F0F0F" width="288" height="0.92118"/>
</g>
</svg>
