<?xml version="1.0" encoding="utf-8"?>
<!-- Generator: Adobe Illustrator 25.2.3, SVG Export Plug-In . SVG Version: 6.00 Build 0)  -->
<svg version="1.0"
	 id="svg57823" xmlns:cc="http://creativecommons.org/ns#" xmlns:dc="http://purl.org/dc/elements/1.1/" xmlns:inkscape="http://www.inkscape.org/namespaces/inkscape" xmlns:rdf="http://www.w3.org/1999/02/22-rdf-syntax-ns#" xmlns:sodipodi="http://sodipodi.sourceforge.net/DTD/sodipodi-0.dtd" xmlns:svg="http://www.w3.org/2000/svg"
	 xmlns="http://www.w3.org/2000/svg" xmlns:xlink="http://www.w3.org/1999/xlink" x="0px" y="0px" width="304px" height="380px"
	 viewBox="0 0 304 380" enable-background="new 0 0 304 380" xml:space="preserve">
<sodipodi:namedview  bordercolor="#666666" borderopacity="1" gridtolerance="10" guidetolerance="10" id="namedview57825" inkscape:current-layer="svg57823" inkscape:cx="224.97394" inkscape:cy="45.320028" inkscape:pageopacity="0" inkscape:pageshadow="2" inkscape:window-height="882" inkscape:window-maximized="0" inkscape:window-width="1600" inkscape:window-x="0" inkscape:window-y="18" inkscape:zoom="2.2083333" objecttolerance="10" pagecolor="#ffffff" showgrid="false">
	</sodipodi:namedview>
<rect x="0.00004" fill="#303030" width="304" height="380"/>
<g>
	<g>
		<rect x="0.00004" fill="#DEDEDE" width="304" height="14.93071"/>
		<rect x="0.00004" y="1.65063" fill="#9D9FA2" width="304" height="13.28007"/>
		<rect x="0.00004" y="1.20046" fill="#C9C9C9" width="304" height="12.52979"/>
		<rect x="0.00004" y="2.85109" fill="#7E8082" width="304" height="9.22853"/>
		<rect x="0.00004" y="4.12658" fill="#DEDEDE" width="304" height="7.95304"/>
		<rect x="0.00004" y="3.82646" fill="#ADADAD" width="304" height="7.27778"/>
		<rect x="0.00004" y="3.82646" opacity="0.15" width="304" height="1.87572"/>
	</g>
	<g>
		<rect x="0.00004" y="365.06931" fill="#DEDEDE" width="304" height="14.93071"/>
		<rect x="0.00004" y="366.71994" fill="#9D9FA2" width="304" height="13.28007"/>
		<rect x="0.00004" y="366.26974" fill="#C9C9C9" width="304" height="12.52979"/>
		<rect x="0.00004" y="367.92038" fill="#7E8082" width="304" height="9.22853"/>
		<rect x="0.00004" y="369.19586" fill="#DEDEDE" width="304" height="7.95304"/>
		<rect x="0.00004" y="368.89575" fill="#ADADAD" width="304" height="7.27778"/>
		<rect x="0.00004" y="368.89575" opacity="0.15" width="304" height="1.87572"/>
	</g>
	<circle fill="#303030" cx="7.50004" cy="7.70148" r="3.3375"/>
	<circle fill="#303030" cx="7.50004" cy="372.63129" r="3.3375"/>
	<circle fill="#303030" cx="22.50004" cy="7.70148" r="3.3375"/>
	<circle fill="#303030" cx="22.50004" cy="372.63129" r="3.3375"/>
	<circle fill="#303030" cx="37.50004" cy="7.70148" r="3.3375"/>
	<circle fill="#303030" cx="37.50004" cy="372.63129" r="3.3375"/>
	<circle fill="#303030" cx="52.50004" cy="7.70148" r="3.3375"/>
	<circle fill="#303030" cx="52.50004" cy="372.63129" r="3.3375"/>
	<circle fill="#303030" cx="67.50004" cy="7.70148" r="3.3375"/>
	<circle fill="#303030" cx="67.50004" cy="372.63129" r="3.3375"/>
	<circle fill="#303030" cx="82.50004" cy="7.70148" r="3.3375"/>
	<circle fill="#303030" cx="82.50004" cy="372.63129" r="3.3375"/>
	<circle fill="#303030" cx="97.50004" cy="7.70148" r="3.3375"/>
	<circle fill="#303030" cx="97.50004" cy="372.63129" r="3.3375"/>
	<circle fill="#303030" cx="112.50004" cy="7.70148" r="3.3375"/>
	<circle fill="#303030" cx="112.50004" cy="372.63129" r="3.3375"/>
	<circle fill="#303030" cx="127.50004" cy="7.70148" r="3.3375"/>
	<circle fill="#303030" cx="127.50004" cy="372.63129" r="3.3375"/>
	<circle fill="#303030" cx="142.50005" cy="7.70148" r="3.3375"/>
	<circle fill="#303030" cx="142.50005" cy="372.63129" r="3.3375"/>
	<circle fill="#303030" cx="157.50005" cy="7.70148" r="3.3375"/>
	<circle fill="#303030" cx="157.50005" cy="372.63129" r="3.3375"/>
	<circle fill="#303030" cx="172.50005" cy="7.70148" r="3.3375"/>
	<circle fill="#303030" cx="172.50005" cy="372.63129" r="3.3375"/>
	<circle fill="#303030" cx="187.50005" cy="7.70148" r="3.3375"/>
	<circle fill="#303030" cx="187.50005" cy="372.63129" r="3.3375"/>
	<circle fill="#303030" cx="202.50005" cy="7.70148" r="3.3375"/>
	<circle fill="#303030" cx="202.50005" cy="372.63129" r="3.3375"/>
	<circle fill="#303030" cx="217.50005" cy="7.70148" r="3.3375"/>
	<circle fill="#303030" cx="217.50005" cy="372.63129" r="3.3375"/>
	<circle fill="#303030" cx="232.50005" cy="7.70148" r="3.3375"/>
	<circle fill="#303030" cx="232.50005" cy="372.63129" r="3.3375"/>
	<circle fill="#303030" cx="247.50005" cy="7.70148" r="3.3375"/>
	<circle fill="#303030" cx="247.50005" cy="372.63129" r="3.3375"/>
	<circle fill="#303030" cx="262.50003" cy="7.70148" r="3.3375"/>
	<circle fill="#303030" cx="262.50003" cy="372.63129" r="3.3375"/>
	<circle fill="#303030" cx="277.50003" cy="7.70148" r="3.3375"/>
	<circle fill="#303030" cx="277.50003" cy="372.63129" r="3.3375"/>
	<circle fill="#303030" cx="292.50003" cy="7.70148" r="3.3375"/>
	<circle fill="#303030" cx="292.50003" cy="372.63129" r="3.3375"/>
</g>
<linearGradient id="SVGID_1_" gradientUnits="userSpaceOnUse" x1="-1742.56592" y1="-7289.4585" x2="-1742.56592" y2="-7306.55859" gradientTransform="matrix(-1 0 0 -1 -1590.56592 -7274.52783)">
	<stop  offset="0" style="stop-color:#000000"/>
	<stop  offset="0.96927" style="stop-color:#000000;stop-opacity:0"/>
</linearGradient>
<polygon opacity="0.28" fill="url(#SVGID_1_)" points="0.00004,14.93071 304.00003,14.93071 304.00003,32.0307 0.00004,32.0307 "/>
<g>
	<path id="path57596_3_" inkscape:connector-curvature="0" fill="#212121" d="M0,234.99995h304.00003v-89.99998H0V234.99995z"/>
	<g>
		
			<path id="path57598_3_" inkscape:connector-curvature="0" fill="none" stroke="#2E2E2E" stroke-width="14" stroke-miterlimit="10" d="
			M0,199.15546h303.96542"/>
		
			<path id="path57600_3_" inkscape:connector-curvature="0" fill="none" stroke="#2E2E2E" stroke-width="2.538" stroke-miterlimit="10" d="
			M0,168.69452h303.96542"/>
		
			<path id="path57602_3_" inkscape:connector-curvature="0" fill="none" stroke="#2E2E2E" stroke-width="2.538" stroke-miterlimit="10" d="
			M0,174.78827h303.96542"/>
		
			<path id="path57604_3_" inkscape:connector-curvature="0" fill="none" stroke="#2E2E2E" stroke-width="2.538" stroke-miterlimit="10" d="
			M0,180.88202h303.96542"/>
		
			<path id="path57606_3_" inkscape:connector-curvature="0" fill="none" stroke="#2E2E2E" stroke-width="2.538" stroke-miterlimit="10" d="
			M0,186.97186h303.96542"/>
		
			<path id="path57608_3_" inkscape:connector-curvature="0" fill="none" stroke="#2E2E2E" stroke-width="2.538" stroke-miterlimit="10" d="
			M0,211.34296h303.96542"/>
	</g>
	<g>
		
			<linearGradient id="SVGID_2_" gradientUnits="userSpaceOnUse" x1="657.66235" y1="6208.58496" x2="668.39209" y2="6208.58496" gradientTransform="matrix(0 1 1 0 -6103.51074 -507.38901)">
			<stop  offset="0.01118" style="stop-color:#383838"/>
			<stop  offset="1" style="stop-color:#2B2B2B"/>
		</linearGradient>
		<circle fill="url(#SVGID_2_)" cx="105.07423" cy="155.63821" r="5.36487"/>
		<path fill="#141414" d="M108.21397,155.01532l-1.77729-0.21294c-0.27283-0.0327-0.48788-0.24782-0.52045-0.52066l-0.21205-1.77609
			c-0.00925-0.07742-0.07491-0.13571-0.15288-0.13571h-0.95412c-0.07796,0-0.14361,0.05827-0.15287,0.13567l-0.21255,1.7771
			c-0.03264,0.27289-0.24779,0.48799-0.52068,0.52057l-1.77652,0.21211c-0.07742,0.00923-0.13571,0.07489-0.13571,0.15286v0.95418
			c0,0.07796,0.05827,0.1436,0.13567,0.15286l1.77673,0.21252c0.27283,0.03262,0.48792,0.24771,0.52055,0.52055l0.21252,1.77667
			c0.00926,0.07741,0.07491,0.13567,0.15287,0.13567h0.95418c0.07794,0,0.14359-0.05824,0.15286-0.13564l0.21289-1.77692
			c0.03268-0.27278,0.24776-0.48781,0.52055-0.52043l1.77628-0.21243c0.07741-0.00926,0.13567-0.07491,0.13567-0.15286v-0.95424
			C108.34962,155.09024,108.29137,155.0246,108.21397,155.01532z"/>
	</g>
	<g>
		
			<linearGradient id="SVGID_3_" gradientUnits="userSpaceOnUse" x1="726.42181" y1="6208.58496" x2="737.15155" y2="6208.58496" gradientTransform="matrix(0 1 1 0 -6103.51074 -507.38901)">
			<stop  offset="0.01118" style="stop-color:#383838"/>
			<stop  offset="1" style="stop-color:#2B2B2B"/>
		</linearGradient>
		<circle fill="url(#SVGID_3_)" cx="105.07426" cy="224.39766" r="5.36487"/>
		<path fill="#141414" d="M108.214,223.77475l-1.77729-0.21294c-0.27283-0.03267-0.48788-0.24782-0.52045-0.52066l-0.21205-1.77609
			c-0.00925-0.07742-0.07491-0.1357-0.15288-0.1357h-0.95412c-0.07796,0-0.14361,0.05827-0.15287,0.13568l-0.21255,1.7771
			c-0.03264,0.27289-0.24779,0.48799-0.52068,0.52057l-1.77652,0.2121c-0.07742,0.00923-0.13571,0.07489-0.13571,0.15286v0.95418
			c0,0.07796,0.05827,0.1436,0.13567,0.15286l1.77673,0.21252c0.27283,0.03262,0.48792,0.24771,0.52055,0.52055l0.21252,1.77667
			c0.00926,0.07741,0.07491,0.13568,0.15287,0.13568h0.95418c0.07794,0,0.14359-0.05826,0.15286-0.13565l0.21289-1.7769
			c0.03268-0.2728,0.24776-0.48781,0.52055-0.52045l1.77628-0.21243c0.07741-0.00926,0.13567-0.07491,0.13567-0.15286v-0.95424
			C108.34966,223.84967,108.2914,223.78403,108.214,223.77475z"/>
	</g>
	<g>
		<g>
			<path id="path57670_17_" inkscape:connector-curvature="0" fill="#0F0F0F" d="M85.14845,223.47577H65.00001v-66.91406h20.14844
				V223.47577z"/>
			<path id="path57672_33_" inkscape:connector-curvature="0" fill="#212121" d="M82.8711,220.71796H67.27345v-61.40233h15.59766
				C82.87111,159.31563,82.87111,220.71796,82.8711,220.71796z"/>
			<path id="path57672_32_" inkscape:connector-curvature="0" fill="#212121" d="M85.14845,196.24413h-2.27734v-12.45468h2.27734
				C85.14845,183.78944,85.14845,196.24413,85.14845,196.24413z"/>
			<g>
				<path id="path57674_33_" inkscape:connector-curvature="0" fill="#707070" d="M72.78907,169.45624h-1.52345v-1.52344h1.52344
					C72.78906,167.9328,72.78906,169.45624,72.78907,169.45624z"/>
				<path id="path57676_33_" inkscape:connector-curvature="0" fill="#707070" d="M78.87892,169.45624h-1.52344v-1.52344h1.52344
					V169.45624z"/>
				<path id="path57678_33_" inkscape:connector-curvature="0" fill="#707070" d="M72.78907,175.54999h-1.52345v-1.52344h1.52344
					C72.78906,174.02655,72.78906,175.54999,72.78907,175.54999z"/>
				<path id="path57680_33_" inkscape:connector-curvature="0" fill="#707070" d="M78.87892,175.54999h-1.52344v-1.52344h1.52344
					V175.54999z"/>
				<path id="path57682_33_" inkscape:connector-curvature="0" fill="#707070" d="M72.78907,181.63983h-1.52345v-1.51953h1.52344
					C72.78906,180.1203,72.78906,181.63983,72.78907,181.63983z"/>
				<path id="path57684_33_" inkscape:connector-curvature="0" fill="#707070" d="M78.87892,181.63983h-1.52344v-1.51953h1.52344
					V181.63983z"/>
				<path id="path57686_33_" inkscape:connector-curvature="0" fill="#707070" d="M72.78907,187.73358h-1.52345v-1.52344h1.52344
					C72.78906,186.21014,72.78906,187.73358,72.78907,187.73358z"/>
				<path id="path57688_33_" inkscape:connector-curvature="0" fill="#707070" d="M78.87892,187.73358h-1.52344v-1.52344h1.52344
					V187.73358z"/>
				<path id="path57690_33_" inkscape:connector-curvature="0" fill="#707070" d="M72.78907,193.82733h-1.52345v-1.52344h1.52344
					C72.78906,192.30389,72.78906,193.82733,72.78907,193.82733z"/>
				<path id="path57692_33_" inkscape:connector-curvature="0" fill="#707070" d="M78.87892,193.82733h-1.52344v-1.52344h1.52344
					V193.82733z"/>
				<path id="path57694_33_" inkscape:connector-curvature="0" fill="#707070" d="M72.78907,199.91718h-1.52345v-1.52344h1.52344
					C72.78906,198.39374,72.78906,199.91718,72.78907,199.91718z"/>
				<path id="path57696_33_" inkscape:connector-curvature="0" fill="#707070" d="M78.87892,199.91718h-1.52344v-1.52344h1.52344
					V199.91718z"/>
				<path id="path57698_33_" inkscape:connector-curvature="0" fill="#707070" d="M72.78907,206.01093h-1.52345v-1.52344h1.52344
					C72.78906,204.48749,72.78906,206.01093,72.78907,206.01093z"/>
				<path id="path57700_33_" inkscape:connector-curvature="0" fill="#707070" d="M78.87892,206.01093h-1.52344v-1.52344h1.52344
					V206.01093z"/>
				<path id="path57702_33_" inkscape:connector-curvature="0" fill="#707070" d="M72.78907,212.10077h-1.52345v-1.52344h1.52344
					C72.78906,210.57733,72.78906,212.10077,72.78907,212.10077z"/>
				<path id="path57704_33_" inkscape:connector-curvature="0" fill="#707070" d="M78.87892,212.10077h-1.52344v-1.52344h1.52344
					V212.10077z"/>
			</g>
			<g>
				<path id="path57674_32_" inkscape:connector-curvature="0" fill="#1A1A1A" d="M72.78907,170.97968h-1.52345v-1.52344h1.52344
					C72.78906,169.45624,72.78906,170.97968,72.78907,170.97968z"/>
				<path id="path57676_32_" inkscape:connector-curvature="0" fill="#1A1A1A" d="M78.87892,170.97968h-1.52344v-1.52344h1.52344
					V170.97968z"/>
				<path id="path57678_32_" inkscape:connector-curvature="0" fill="#1A1A1A" d="M72.78907,177.07343h-1.52345v-1.52344h1.52344
					C72.78906,175.54999,72.78906,177.07343,72.78907,177.07343z"/>
				<path id="path57680_32_" inkscape:connector-curvature="0" fill="#1A1A1A" d="M78.87892,177.07343h-1.52344v-1.52344h1.52344
					V177.07343z"/>
				<path id="path57682_32_" inkscape:connector-curvature="0" fill="#1A1A1A" d="M72.78907,183.16327h-1.52345v-1.51953h1.52344
					C72.78906,181.64374,72.78906,183.16327,72.78907,183.16327z"/>
				<path id="path57684_32_" inkscape:connector-curvature="0" fill="#1A1A1A" d="M78.87892,183.16327h-1.52344v-1.51953h1.52344
					V183.16327z"/>
				<path id="path57686_32_" inkscape:connector-curvature="0" fill="#1A1A1A" d="M72.78907,189.25702h-1.52345v-1.52344h1.52344
					C72.78906,187.73358,72.78906,189.25702,72.78907,189.25702z"/>
				<path id="path57688_32_" inkscape:connector-curvature="0" fill="#1A1A1A" d="M78.87892,189.25702h-1.52344v-1.52344h1.52344
					V189.25702z"/>
				<path id="path57690_32_" inkscape:connector-curvature="0" fill="#1A1A1A" d="M72.78907,195.35077h-1.52345v-1.52344h1.52344
					C72.78906,193.82733,72.78906,195.35077,72.78907,195.35077z"/>
				<path id="path57692_32_" inkscape:connector-curvature="0" fill="#1A1A1A" d="M78.87892,195.35077h-1.52344v-1.52344h1.52344
					V195.35077z"/>
				<path id="path57694_32_" inkscape:connector-curvature="0" fill="#1A1A1A" d="M72.78907,201.44061h-1.52345v-1.52344h1.52344
					C72.78906,199.91718,72.78906,201.44061,72.78907,201.44061z"/>
				<path id="path57696_32_" inkscape:connector-curvature="0" fill="#1A1A1A" d="M78.87892,201.44061h-1.52344v-1.52344h1.52344
					V201.44061z"/>
				<path id="path57698_32_" inkscape:connector-curvature="0" fill="#1A1A1A" d="M72.78907,207.53436h-1.52345v-1.52344h1.52344
					C72.78906,206.01093,72.78906,207.53436,72.78907,207.53436z"/>
				<path id="path57700_32_" inkscape:connector-curvature="0" fill="#1A1A1A" d="M78.87892,207.53436h-1.52344v-1.52344h1.52344
					V207.53436z"/>
				<path id="path57702_32_" inkscape:connector-curvature="0" fill="#1A1A1A" d="M72.78907,213.62421h-1.52345v-1.52344h1.52344
					C72.78906,212.10077,72.78906,213.62421,72.78907,213.62421z"/>
				<path id="path57704_32_" inkscape:connector-curvature="0" fill="#1A1A1A" d="M78.87892,213.62421h-1.52344v-1.52344h1.52344
					V213.62421z"/>
			</g>
			
				<path id="path57706_17_" inkscape:connector-curvature="0" fill="none" stroke="#303030" stroke-width="2" stroke-linecap="round" stroke-linejoin="round" stroke-miterlimit="10" d="
				M65.48048,229.23358h19.18359"/>
			<polygon fill="#1A1A1A" points="84.04726,222.0582 66.09728,222.0582 67.27345,220.71796 82.8711,220.71796 			"/>
			<polygon fill="#0A0A0A" points="84.04726,157.97539 66.09728,157.97539 67.27345,159.31563 82.8711,159.31563 			"/>
			<rect x="65.00001" y="223.47577" fill="#0A0A0A" width="20.14844" height="0.37773"/>
			<rect x="65.00001" y="223.85352" fill="#1A1A1A" width="20.14844" height="3.00469"/>
			<rect x="67.27345" y="159.31563" fill="#1A1A1A" width="15.59766" height="2.14258"/>
			<rect x="82.8711" y="183.78944" fill="#1A1A1A" width="2.26953" height="1.81875"/>
		</g>
	</g>
	<g>
		<g>
			<path id="path57670_16_" inkscape:connector-curvature="0" fill="#0F0F0F" d="M25.14848,223.47577H5.00004v-66.91406h20.14844
				V223.47577z"/>
			<path id="path57672_31_" inkscape:connector-curvature="0" fill="#212121" d="M22.87114,220.71796H7.27348v-61.40233h15.59766
				V220.71796z"/>
			<path id="path57672_30_" inkscape:connector-curvature="0" fill="#212121" d="M25.14848,196.24413h-2.27734v-12.45468h2.27734
				V196.24413z"/>
			<g>
				<path id="path57674_31_" inkscape:connector-curvature="0" fill="#707070" d="M12.7891,169.45624h-1.52343v-1.52344h1.52344
					v1.52344H12.7891z"/>
				<path id="path57676_31_" inkscape:connector-curvature="0" fill="#707070" d="M18.87895,169.45624h-1.52344v-1.52344h1.52344
					V169.45624z"/>
				<path id="path57678_31_" inkscape:connector-curvature="0" fill="#707070" d="M12.7891,175.54999h-1.52343v-1.52344h1.52344
					v1.52344H12.7891z"/>
				<path id="path57680_31_" inkscape:connector-curvature="0" fill="#707070" d="M18.87895,175.54999h-1.52344v-1.52344h1.52344
					V175.54999z"/>
				<path id="path57682_31_" inkscape:connector-curvature="0" fill="#707070" d="M12.7891,181.63983h-1.52343v-1.51953h1.52344
					v1.51953H12.7891z"/>
				<path id="path57684_31_" inkscape:connector-curvature="0" fill="#707070" d="M18.87895,181.63983h-1.52344v-1.51953h1.52344
					V181.63983z"/>
				<path id="path57686_31_" inkscape:connector-curvature="0" fill="#707070" d="M12.7891,187.73358h-1.52343v-1.52344h1.52344
					v1.52344H12.7891z"/>
				<path id="path57688_31_" inkscape:connector-curvature="0" fill="#707070" d="M18.87895,187.73358h-1.52344v-1.52344h1.52344
					V187.73358z"/>
				<path id="path57690_31_" inkscape:connector-curvature="0" fill="#707070" d="M12.7891,193.82733h-1.52343v-1.52344h1.52344
					v1.52344H12.7891z"/>
				<path id="path57692_31_" inkscape:connector-curvature="0" fill="#707070" d="M18.87895,193.82733h-1.52344v-1.52344h1.52344
					V193.82733z"/>
				<path id="path57694_31_" inkscape:connector-curvature="0" fill="#707070" d="M12.7891,199.91718h-1.52343v-1.52344h1.52344
					v1.52344H12.7891z"/>
				<path id="path57696_31_" inkscape:connector-curvature="0" fill="#707070" d="M18.87895,199.91718h-1.52344v-1.52344h1.52344
					V199.91718z"/>
				<path id="path57698_31_" inkscape:connector-curvature="0" fill="#707070" d="M12.7891,206.01093h-1.52343v-1.52344h1.52344
					v1.52344H12.7891z"/>
				<path id="path57700_31_" inkscape:connector-curvature="0" fill="#707070" d="M18.87895,206.01093h-1.52344v-1.52344h1.52344
					V206.01093z"/>
				<path id="path57702_31_" inkscape:connector-curvature="0" fill="#707070" d="M12.7891,212.10077h-1.52343v-1.52344h1.52344
					v1.52344H12.7891z"/>
				<path id="path57704_31_" inkscape:connector-curvature="0" fill="#707070" d="M18.87895,212.10077h-1.52344v-1.52344h1.52344
					V212.10077z"/>
			</g>
			<g>
				<path id="path57674_30_" inkscape:connector-curvature="0" fill="#1A1A1A" d="M12.7891,170.97968h-1.52343v-1.52344h1.52344
					v1.52344H12.7891z"/>
				<path id="path57676_30_" inkscape:connector-curvature="0" fill="#1A1A1A" d="M18.87895,170.97968h-1.52344v-1.52344h1.52344
					V170.97968z"/>
				<path id="path57678_30_" inkscape:connector-curvature="0" fill="#1A1A1A" d="M12.7891,177.07343h-1.52343v-1.52344h1.52344
					v1.52344H12.7891z"/>
				<path id="path57680_30_" inkscape:connector-curvature="0" fill="#1A1A1A" d="M18.87895,177.07343h-1.52344v-1.52344h1.52344
					V177.07343z"/>
				<path id="path57682_30_" inkscape:connector-curvature="0" fill="#1A1A1A" d="M12.7891,183.16327h-1.52343v-1.51953h1.52344
					v1.51953H12.7891z"/>
				<path id="path57684_30_" inkscape:connector-curvature="0" fill="#1A1A1A" d="M18.87895,183.16327h-1.52344v-1.51953h1.52344
					V183.16327z"/>
				<path id="path57686_30_" inkscape:connector-curvature="0" fill="#1A1A1A" d="M12.7891,189.25702h-1.52343v-1.52344h1.52344
					v1.52344H12.7891z"/>
				<path id="path57688_30_" inkscape:connector-curvature="0" fill="#1A1A1A" d="M18.87895,189.25702h-1.52344v-1.52344h1.52344
					V189.25702z"/>
				<path id="path57690_30_" inkscape:connector-curvature="0" fill="#1A1A1A" d="M12.7891,195.35077h-1.52343v-1.52344h1.52344
					v1.52344H12.7891z"/>
				<path id="path57692_30_" inkscape:connector-curvature="0" fill="#1A1A1A" d="M18.87895,195.35077h-1.52344v-1.52344h1.52344
					V195.35077z"/>
				<path id="path57694_30_" inkscape:connector-curvature="0" fill="#1A1A1A" d="M12.7891,201.44061h-1.52343v-1.52344h1.52344
					v1.52344H12.7891z"/>
				<path id="path57696_30_" inkscape:connector-curvature="0" fill="#1A1A1A" d="M18.87895,201.44061h-1.52344v-1.52344h1.52344
					V201.44061z"/>
				<path id="path57698_30_" inkscape:connector-curvature="0" fill="#1A1A1A" d="M12.7891,207.53436h-1.52343v-1.52344h1.52344
					v1.52344H12.7891z"/>
				<path id="path57700_30_" inkscape:connector-curvature="0" fill="#1A1A1A" d="M18.87895,207.53436h-1.52344v-1.52344h1.52344
					V207.53436z"/>
				<path id="path57702_30_" inkscape:connector-curvature="0" fill="#1A1A1A" d="M12.7891,213.62421h-1.52343v-1.52344h1.52344
					v1.52344H12.7891z"/>
				<path id="path57704_30_" inkscape:connector-curvature="0" fill="#1A1A1A" d="M18.87895,213.62421h-1.52344v-1.52344h1.52344
					V213.62421z"/>
			</g>
			
				<path id="path57706_16_" inkscape:connector-curvature="0" fill="none" stroke="#303030" stroke-width="2" stroke-linecap="round" stroke-linejoin="round" stroke-miterlimit="10" d="
				M5.48051,229.23358H24.6641"/>
			<polygon fill="#1A1A1A" points="24.04731,222.0582 6.09731,222.0582 7.27348,220.71796 22.87114,220.71796 			"/>
			<polygon fill="#0A0A0A" points="24.04731,157.97539 6.09731,157.97539 7.27348,159.31563 22.87114,159.31563 			"/>
			<rect x="5.00004" y="223.47577" fill="#0A0A0A" width="20.14844" height="0.37773"/>
			<rect x="5.00004" y="223.85352" fill="#1A1A1A" width="20.14844" height="3.00469"/>
			<rect x="7.27348" y="159.31563" fill="#1A1A1A" width="15.59766" height="2.14258"/>
			<rect x="22.87114" y="183.78944" fill="#1A1A1A" width="2.26953" height="1.81875"/>
		</g>
	</g>
	<g>
		<g>
			<path id="path57670_15_" inkscape:connector-curvature="0" fill="#0F0F0F" d="M145.14847,223.47577h-20.14845v-66.91406h20.14845
				V223.47577z"/>
			<path id="path57672_29_" inkscape:connector-curvature="0" fill="#212121" d="M142.87112,220.71796h-15.59766v-61.40233h15.59766
				V220.71796z"/>
			<path id="path57672_28_" inkscape:connector-curvature="0" fill="#212121" d="M145.14847,196.24413h-2.27734v-12.45468h2.27734
				V196.24413z"/>
			<g>
				<path id="path57674_29_" inkscape:connector-curvature="0" fill="#707070" d="M132.78909,169.45624h-1.52344v-1.52344h1.52344
					V169.45624z"/>
				<path id="path57676_29_" inkscape:connector-curvature="0" fill="#707070" d="M138.87894,169.45624h-1.52344v-1.52344h1.52344
					V169.45624z"/>
				<path id="path57678_29_" inkscape:connector-curvature="0" fill="#707070" d="M132.78909,175.54999h-1.52344v-1.52344h1.52344
					V175.54999z"/>
				<path id="path57680_29_" inkscape:connector-curvature="0" fill="#707070" d="M138.87894,175.54999h-1.52344v-1.52344h1.52344
					V175.54999z"/>
				<path id="path57682_29_" inkscape:connector-curvature="0" fill="#707070" d="M132.78909,181.63983h-1.52344v-1.51953h1.52344
					V181.63983z"/>
				<path id="path57684_29_" inkscape:connector-curvature="0" fill="#707070" d="M138.87894,181.63983h-1.52344v-1.51953h1.52344
					V181.63983z"/>
				<path id="path57686_29_" inkscape:connector-curvature="0" fill="#707070" d="M132.78909,187.73358h-1.52344v-1.52344h1.52344
					V187.73358z"/>
				<path id="path57688_29_" inkscape:connector-curvature="0" fill="#707070" d="M138.87894,187.73358h-1.52344v-1.52344h1.52344
					V187.73358z"/>
				<path id="path57690_29_" inkscape:connector-curvature="0" fill="#707070" d="M132.78909,193.82733h-1.52344v-1.52344h1.52344
					V193.82733z"/>
				<path id="path57692_29_" inkscape:connector-curvature="0" fill="#707070" d="M138.87894,193.82733h-1.52344v-1.52344h1.52344
					V193.82733z"/>
				<path id="path57694_29_" inkscape:connector-curvature="0" fill="#707070" d="M132.78909,199.91718h-1.52344v-1.52344h1.52344
					V199.91718z"/>
				<path id="path57696_29_" inkscape:connector-curvature="0" fill="#707070" d="M138.87894,199.91718h-1.52344v-1.52344h1.52344
					V199.91718z"/>
				<path id="path57698_29_" inkscape:connector-curvature="0" fill="#707070" d="M132.78909,206.01093h-1.52344v-1.52344h1.52344
					V206.01093z"/>
				<path id="path57700_29_" inkscape:connector-curvature="0" fill="#707070" d="M138.87894,206.01093h-1.52344v-1.52344h1.52344
					V206.01093z"/>
				<path id="path57702_29_" inkscape:connector-curvature="0" fill="#707070" d="M132.78909,212.10077h-1.52344v-1.52344h1.52344
					V212.10077z"/>
				<path id="path57704_29_" inkscape:connector-curvature="0" fill="#707070" d="M138.87894,212.10077h-1.52344v-1.52344h1.52344
					V212.10077z"/>
			</g>
			<g>
				<path id="path57674_28_" inkscape:connector-curvature="0" fill="#1A1A1A" d="M132.78909,170.97968h-1.52344v-1.52344h1.52344
					V170.97968z"/>
				<path id="path57676_28_" inkscape:connector-curvature="0" fill="#1A1A1A" d="M138.87894,170.97968h-1.52344v-1.52344h1.52344
					V170.97968z"/>
				<path id="path57678_28_" inkscape:connector-curvature="0" fill="#1A1A1A" d="M132.78909,177.07343h-1.52344v-1.52344h1.52344
					V177.07343z"/>
				<path id="path57680_28_" inkscape:connector-curvature="0" fill="#1A1A1A" d="M138.87894,177.07343h-1.52344v-1.52344h1.52344
					V177.07343z"/>
				<path id="path57682_28_" inkscape:connector-curvature="0" fill="#1A1A1A" d="M132.78909,183.16327h-1.52344v-1.51953h1.52344
					V183.16327z"/>
				<path id="path57684_28_" inkscape:connector-curvature="0" fill="#1A1A1A" d="M138.87894,183.16327h-1.52344v-1.51953h1.52344
					V183.16327z"/>
				<path id="path57686_28_" inkscape:connector-curvature="0" fill="#1A1A1A" d="M132.78909,189.25702h-1.52344v-1.52344h1.52344
					V189.25702z"/>
				<path id="path57688_28_" inkscape:connector-curvature="0" fill="#1A1A1A" d="M138.87894,189.25702h-1.52344v-1.52344h1.52344
					V189.25702z"/>
				<path id="path57690_28_" inkscape:connector-curvature="0" fill="#1A1A1A" d="M132.78909,195.35077h-1.52344v-1.52344h1.52344
					V195.35077z"/>
				<path id="path57692_28_" inkscape:connector-curvature="0" fill="#1A1A1A" d="M138.87894,195.35077h-1.52344v-1.52344h1.52344
					V195.35077z"/>
				<path id="path57694_28_" inkscape:connector-curvature="0" fill="#1A1A1A" d="M132.78909,201.44061h-1.52344v-1.52344h1.52344
					V201.44061z"/>
				<path id="path57696_28_" inkscape:connector-curvature="0" fill="#1A1A1A" d="M138.87894,201.44061h-1.52344v-1.52344h1.52344
					V201.44061z"/>
				<path id="path57698_28_" inkscape:connector-curvature="0" fill="#1A1A1A" d="M132.78909,207.53436h-1.52344v-1.52344h1.52344
					V207.53436z"/>
				<path id="path57700_28_" inkscape:connector-curvature="0" fill="#1A1A1A" d="M138.87894,207.53436h-1.52344v-1.52344h1.52344
					V207.53436z"/>
				<path id="path57702_28_" inkscape:connector-curvature="0" fill="#1A1A1A" d="M132.78909,213.62421h-1.52344v-1.52344h1.52344
					V213.62421z"/>
				<path id="path57704_28_" inkscape:connector-curvature="0" fill="#1A1A1A" d="M138.87894,213.62421h-1.52344v-1.52344h1.52344
					V213.62421z"/>
			</g>
			
				<path id="path57706_15_" inkscape:connector-curvature="0" fill="none" stroke="#303030" stroke-width="2" stroke-linecap="round" stroke-linejoin="round" stroke-miterlimit="10" d="
				M125.48048,229.23358h19.18359"/>
			<polygon fill="#1A1A1A" points="144.04729,222.0582 126.09729,222.0582 127.27346,220.71796 142.87112,220.71796 			"/>
			<polygon fill="#0A0A0A" points="144.04729,157.97539 126.09729,157.97539 127.27346,159.31563 142.87112,159.31563 			"/>
			<rect x="125.00003" y="223.47577" fill="#0A0A0A" width="20.14844" height="0.37773"/>
			<rect x="125.00003" y="223.85352" fill="#1A1A1A" width="20.14844" height="3.00469"/>
			<rect x="127.27346" y="159.31563" fill="#1A1A1A" width="15.59766" height="2.14258"/>
			<rect x="142.87112" y="183.78944" fill="#1A1A1A" width="2.26953" height="1.81875"/>
		</g>
	</g>
	<g id="XMLID_11_">
		<g>
			<path id="path57670_14_" inkscape:connector-curvature="0" fill="#0F0F0F" d="M205.14847,223.47577h-20.14844v-66.91406h20.14844
				V223.47577z"/>
			<path id="path57672_27_" inkscape:connector-curvature="0" fill="#212121" d="M202.87112,220.71796h-15.59766v-61.40233h15.59766
				V220.71796z"/>
			<path id="path57672_26_" inkscape:connector-curvature="0" fill="#212121" d="M205.14847,196.24413h-2.27734v-12.45468h2.27734
				V196.24413z"/>
			<g>
				<path id="path57674_27_" inkscape:connector-curvature="0" fill="#707070" d="M192.78909,169.45624h-1.52344v-1.52344h1.52344
					V169.45624z"/>
				<path id="path57676_27_" inkscape:connector-curvature="0" fill="#707070" d="M198.87894,169.45624h-1.52344v-1.52344h1.52344
					V169.45624z"/>
				<path id="path57678_27_" inkscape:connector-curvature="0" fill="#707070" d="M192.78909,175.54999h-1.52344v-1.52344h1.52344
					V175.54999z"/>
				<path id="path57680_27_" inkscape:connector-curvature="0" fill="#707070" d="M198.87894,175.54999h-1.52344v-1.52344h1.52344
					V175.54999z"/>
				<path id="path57682_27_" inkscape:connector-curvature="0" fill="#707070" d="M192.78909,181.63983h-1.52344v-1.51953h1.52344
					V181.63983z"/>
				<path id="path57684_27_" inkscape:connector-curvature="0" fill="#707070" d="M198.87894,181.63983h-1.52344v-1.51953h1.52344
					V181.63983z"/>
				<path id="path57686_27_" inkscape:connector-curvature="0" fill="#707070" d="M192.78909,187.73358h-1.52344v-1.52344h1.52344
					V187.73358z"/>
				<path id="path57688_27_" inkscape:connector-curvature="0" fill="#707070" d="M198.87894,187.73358h-1.52344v-1.52344h1.52344
					V187.73358z"/>
				<path id="path57690_27_" inkscape:connector-curvature="0" fill="#707070" d="M192.78909,193.82733h-1.52344v-1.52344h1.52344
					V193.82733z"/>
				<path id="path57692_27_" inkscape:connector-curvature="0" fill="#707070" d="M198.87894,193.82733h-1.52344v-1.52344h1.52344
					V193.82733z"/>
				<path id="path57694_27_" inkscape:connector-curvature="0" fill="#707070" d="M192.78909,199.91718h-1.52344v-1.52344h1.52344
					V199.91718z"/>
				<path id="path57696_27_" inkscape:connector-curvature="0" fill="#707070" d="M198.87894,199.91718h-1.52344v-1.52344h1.52344
					V199.91718z"/>
				<path id="path57698_27_" inkscape:connector-curvature="0" fill="#707070" d="M192.78909,206.01093h-1.52344v-1.52344h1.52344
					V206.01093z"/>
				<path id="path57700_27_" inkscape:connector-curvature="0" fill="#707070" d="M198.87894,206.01093h-1.52344v-1.52344h1.52344
					V206.01093z"/>
				<path id="path57702_27_" inkscape:connector-curvature="0" fill="#707070" d="M192.78909,212.10077h-1.52344v-1.52344h1.52344
					V212.10077z"/>
				<path id="path57704_27_" inkscape:connector-curvature="0" fill="#707070" d="M198.87894,212.10077h-1.52344v-1.52344h1.52344
					V212.10077z"/>
			</g>
			<g>
				<path id="path57674_26_" inkscape:connector-curvature="0" fill="#1A1A1A" d="M192.78909,170.97968h-1.52344v-1.52344h1.52344
					V170.97968z"/>
				<path id="path57676_26_" inkscape:connector-curvature="0" fill="#1A1A1A" d="M198.87894,170.97968h-1.52344v-1.52344h1.52344
					V170.97968z"/>
				<path id="path57678_26_" inkscape:connector-curvature="0" fill="#1A1A1A" d="M192.78909,177.07343h-1.52344v-1.52344h1.52344
					V177.07343z"/>
				<path id="path57680_26_" inkscape:connector-curvature="0" fill="#1A1A1A" d="M198.87894,177.07343h-1.52344v-1.52344h1.52344
					V177.07343z"/>
				<path id="path57682_26_" inkscape:connector-curvature="0" fill="#1A1A1A" d="M192.78909,183.16327h-1.52344v-1.51953h1.52344
					V183.16327z"/>
				<path id="path57684_26_" inkscape:connector-curvature="0" fill="#1A1A1A" d="M198.87894,183.16327h-1.52344v-1.51953h1.52344
					V183.16327z"/>
				<path id="path57686_26_" inkscape:connector-curvature="0" fill="#1A1A1A" d="M192.78909,189.25702h-1.52344v-1.52344h1.52344
					V189.25702z"/>
				<path id="path57688_26_" inkscape:connector-curvature="0" fill="#1A1A1A" d="M198.87894,189.25702h-1.52344v-1.52344h1.52344
					V189.25702z"/>
				<path id="path57690_26_" inkscape:connector-curvature="0" fill="#1A1A1A" d="M192.78909,195.35077h-1.52344v-1.52344h1.52344
					V195.35077z"/>
				<path id="path57692_26_" inkscape:connector-curvature="0" fill="#1A1A1A" d="M198.87894,195.35077h-1.52344v-1.52344h1.52344
					V195.35077z"/>
				<path id="path57694_26_" inkscape:connector-curvature="0" fill="#1A1A1A" d="M192.78909,201.44061h-1.52344v-1.52344h1.52344
					V201.44061z"/>
				<path id="path57696_26_" inkscape:connector-curvature="0" fill="#1A1A1A" d="M198.87894,201.44061h-1.52344v-1.52344h1.52344
					V201.44061z"/>
				<path id="path57698_26_" inkscape:connector-curvature="0" fill="#1A1A1A" d="M192.78909,207.53436h-1.52344v-1.52344h1.52344
					V207.53436z"/>
				<path id="path57700_26_" inkscape:connector-curvature="0" fill="#1A1A1A" d="M198.87894,207.53436h-1.52344v-1.52344h1.52344
					V207.53436z"/>
				<path id="path57702_26_" inkscape:connector-curvature="0" fill="#1A1A1A" d="M192.78909,213.62421h-1.52344v-1.52344h1.52344
					V213.62421z"/>
				<path id="path57704_26_" inkscape:connector-curvature="0" fill="#1A1A1A" d="M198.87894,213.62421h-1.52344v-1.52344h1.52344
					V213.62421z"/>
			</g>
			
				<path id="path57706_14_" inkscape:connector-curvature="0" fill="none" stroke="#303030" stroke-width="2" stroke-linecap="round" stroke-linejoin="round" stroke-miterlimit="10" d="
				M185.4805,229.23358h19.18359"/>
			<polygon fill="#1A1A1A" points="204.04729,222.0582 186.09729,222.0582 187.27347,220.71796 202.87112,220.71796 			"/>
			<polygon fill="#0A0A0A" points="204.04729,157.97539 186.09729,157.97539 187.27347,159.31563 202.87112,159.31563 			"/>
			<rect x="185.00003" y="223.47577" fill="#0A0A0A" width="20.14844" height="0.37773"/>
			<rect x="185.00003" y="223.85352" fill="#1A1A1A" width="20.14844" height="3.00469"/>
			<rect x="187.27347" y="159.31563" fill="#1A1A1A" width="15.59766" height="2.14258"/>
			<rect x="202.87112" y="183.78944" fill="#1A1A1A" width="2.26953" height="1.81875"/>
		</g>
	</g>
	<g id="XMLID_10_">
		<g>
			<path id="path57670_13_" inkscape:connector-curvature="0" fill="#0F0F0F" d="M265.14847,223.47577h-20.14844v-66.91406h20.14844
				V223.47577z"/>
			<path id="path57672_25_" inkscape:connector-curvature="0" fill="#212121" d="M262.87112,220.71796h-15.59766v-61.40233h15.59766
				V220.71796z"/>
			<path id="path57672_24_" inkscape:connector-curvature="0" fill="#212121" d="M265.14847,196.24413h-2.27734v-12.45468h2.27734
				V196.24413z"/>
			<g>
				<path id="path57674_25_" inkscape:connector-curvature="0" fill="#707070" d="M252.78909,169.45624h-1.52344v-1.52344h1.52344
					V169.45624z"/>
				<path id="path57676_25_" inkscape:connector-curvature="0" fill="#707070" d="M258.87894,169.45624h-1.52344v-1.52344h1.52344
					V169.45624z"/>
				<path id="path57678_25_" inkscape:connector-curvature="0" fill="#707070" d="M252.78909,175.54999h-1.52344v-1.52344h1.52344
					V175.54999z"/>
				<path id="path57680_25_" inkscape:connector-curvature="0" fill="#707070" d="M258.87894,175.54999h-1.52344v-1.52344h1.52344
					V175.54999z"/>
				<path id="path57682_25_" inkscape:connector-curvature="0" fill="#707070" d="M252.78909,181.63983h-1.52344v-1.51953h1.52344
					V181.63983z"/>
				<path id="path57684_25_" inkscape:connector-curvature="0" fill="#707070" d="M258.87894,181.63983h-1.52344v-1.51953h1.52344
					V181.63983z"/>
				<path id="path57686_25_" inkscape:connector-curvature="0" fill="#707070" d="M252.78909,187.73358h-1.52344v-1.52344h1.52344
					V187.73358z"/>
				<path id="path57688_25_" inkscape:connector-curvature="0" fill="#707070" d="M258.87894,187.73358h-1.52344v-1.52344h1.52344
					V187.73358z"/>
				<path id="path57690_25_" inkscape:connector-curvature="0" fill="#707070" d="M252.78909,193.82733h-1.52344v-1.52344h1.52344
					V193.82733z"/>
				<path id="path57692_25_" inkscape:connector-curvature="0" fill="#707070" d="M258.87894,193.82733h-1.52344v-1.52344h1.52344
					V193.82733z"/>
				<path id="path57694_25_" inkscape:connector-curvature="0" fill="#707070" d="M252.78909,199.91718h-1.52344v-1.52344h1.52344
					V199.91718z"/>
				<path id="path57696_25_" inkscape:connector-curvature="0" fill="#707070" d="M258.87894,199.91718h-1.52344v-1.52344h1.52344
					V199.91718z"/>
				<path id="path57698_25_" inkscape:connector-curvature="0" fill="#707070" d="M252.78909,206.01093h-1.52344v-1.52344h1.52344
					V206.01093z"/>
				<path id="path57700_25_" inkscape:connector-curvature="0" fill="#707070" d="M258.87894,206.01093h-1.52344v-1.52344h1.52344
					V206.01093z"/>
				<path id="path57702_25_" inkscape:connector-curvature="0" fill="#707070" d="M252.78909,212.10077h-1.52344v-1.52344h1.52344
					V212.10077z"/>
				<path id="path57704_25_" inkscape:connector-curvature="0" fill="#707070" d="M258.87894,212.10077h-1.52344v-1.52344h1.52344
					V212.10077z"/>
			</g>
			<g>
				<path id="path57674_24_" inkscape:connector-curvature="0" fill="#1A1A1A" d="M252.78909,170.97968h-1.52344v-1.52344h1.52344
					V170.97968z"/>
				<path id="path57676_24_" inkscape:connector-curvature="0" fill="#1A1A1A" d="M258.87894,170.97968h-1.52344v-1.52344h1.52344
					V170.97968z"/>
				<path id="path57678_24_" inkscape:connector-curvature="0" fill="#1A1A1A" d="M252.78909,177.07343h-1.52344v-1.52344h1.52344
					V177.07343z"/>
				<path id="path57680_24_" inkscape:connector-curvature="0" fill="#1A1A1A" d="M258.87894,177.07343h-1.52344v-1.52344h1.52344
					V177.07343z"/>
				<path id="path57682_24_" inkscape:connector-curvature="0" fill="#1A1A1A" d="M252.78909,183.16327h-1.52344v-1.51953h1.52344
					V183.16327z"/>
				<path id="path57684_24_" inkscape:connector-curvature="0" fill="#1A1A1A" d="M258.87894,183.16327h-1.52344v-1.51953h1.52344
					V183.16327z"/>
				<path id="path57686_24_" inkscape:connector-curvature="0" fill="#1A1A1A" d="M252.78909,189.25702h-1.52344v-1.52344h1.52344
					V189.25702z"/>
				<path id="path57688_24_" inkscape:connector-curvature="0" fill="#1A1A1A" d="M258.87894,189.25702h-1.52344v-1.52344h1.52344
					V189.25702z"/>
				<path id="path57690_24_" inkscape:connector-curvature="0" fill="#1A1A1A" d="M252.78909,195.35077h-1.52344v-1.52344h1.52344
					V195.35077z"/>
				<path id="path57692_24_" inkscape:connector-curvature="0" fill="#1A1A1A" d="M258.87894,195.35077h-1.52344v-1.52344h1.52344
					V195.35077z"/>
				<path id="path57694_24_" inkscape:connector-curvature="0" fill="#1A1A1A" d="M252.78909,201.44061h-1.52344v-1.52344h1.52344
					V201.44061z"/>
				<path id="path57696_24_" inkscape:connector-curvature="0" fill="#1A1A1A" d="M258.87894,201.44061h-1.52344v-1.52344h1.52344
					V201.44061z"/>
				<path id="path57698_24_" inkscape:connector-curvature="0" fill="#1A1A1A" d="M252.78909,207.53436h-1.52344v-1.52344h1.52344
					V207.53436z"/>
				<path id="path57700_24_" inkscape:connector-curvature="0" fill="#1A1A1A" d="M258.87894,207.53436h-1.52344v-1.52344h1.52344
					V207.53436z"/>
				<path id="path57702_24_" inkscape:connector-curvature="0" fill="#1A1A1A" d="M252.78909,213.62421h-1.52344v-1.52344h1.52344
					V213.62421z"/>
				<path id="path57704_24_" inkscape:connector-curvature="0" fill="#1A1A1A" d="M258.87894,213.62421h-1.52344v-1.52344h1.52344
					V213.62421z"/>
			</g>
			
				<path id="path57706_13_" inkscape:connector-curvature="0" fill="none" stroke="#303030" stroke-width="2" stroke-linecap="round" stroke-linejoin="round" stroke-miterlimit="10" d="
				M245.4805,229.23358h19.18359"/>
			<polygon fill="#1A1A1A" points="264.0473,222.0582 246.09729,222.0582 247.27347,220.71796 262.87112,220.71796 			"/>
			<polygon fill="#0A0A0A" points="264.0473,157.97539 246.09729,157.97539 247.27347,159.31563 262.87112,159.31563 			"/>
			<rect x="245.00003" y="223.47577" fill="#0A0A0A" width="20.14844" height="0.37773"/>
			<rect x="245.00003" y="223.85352" fill="#1A1A1A" width="20.14844" height="3.00469"/>
			<rect x="247.27347" y="159.31563" fill="#1A1A1A" width="15.59766" height="2.14258"/>
			<rect x="262.87112" y="183.78944" fill="#1A1A1A" width="2.26953" height="1.81875"/>
		</g>
	</g>
	<rect y="144.99997" fill="#383838" width="304.00003" height="0.89736"/>
	<rect y="234.1026" fill="#0F0F0F" width="304.00003" height="0.89736"/>
	<rect x="85.14845" y="164.43146" fill="#2E2E2E" width="39.85156" height="2.85"/>
</g>
</svg>
