<?xml version="1.0" encoding="UTF-8" standalone="no"?>
<!-- Created with Inkscape (http://www.inkscape.org/) -->

<svg
   xmlns:dc="http://purl.org/dc/elements/1.1/"
   xmlns:cc="http://creativecommons.org/ns#"
   xmlns:rdf="http://www.w3.org/1999/02/22-rdf-syntax-ns#"
   xmlns:svg="http://www.w3.org/2000/svg"
   xmlns="http://www.w3.org/2000/svg"
   xmlns:sodipodi="http://sodipodi.sourceforge.net/DTD/sodipodi-0.dtd"
   xmlns:inkscape="http://www.inkscape.org/namespaces/inkscape"
   width="13.999492mm"
   height="13.999491mm"
   viewBox="0 0 13.999491 13.999491"
   version="1.1"
   id="svg15246"
   sodipodi:docname="Rogan1PSWhite.svg"
   inkscape:version="0.92.2 5c3e80d, 2017-08-06">
  <defs
     id="defs15240">
    <clipPath
       id="clip89">
      <rect
         y="0"
         x="0"
         width="18"
         height="19"
         id="rect4864" />
    </clipPath>
    <clipPath
       id="clip90">
      <path
         inkscape:connector-curvature="0"
         d="m 0.898438,0.128906 h 16.25 v 17.882813 h -16.25 z m 0,0"
         id="path4861" />
    </clipPath>
    <mask
       id="mask44">
      <g
         style="filter:url(#alpha)"
         id="g4858"
         transform="matrix(0.26458333,0,0,0.26458333,89.358789,128.57765)">
        <rect
           x="0"
           y="0"
           width="3052.8701"
           height="3351.5"
           style="fill:#000000;fill-opacity:0.14999402;stroke:none"
           id="rect4856" />
      </g>
    </mask>
    <filter
       id="alpha"
       filterUnits="objectBoundingBox"
       x="0"
       y="0"
       width="1"
       height="1">
      <feColorMatrix
         type="matrix"
         in="SourceGraphic"
         values="0 0 0 0 1 0 0 0 0 1 0 0 0 0 1 0 0 0 1 0"
         id="feColorMatrix4149" />
    </filter>
    <clipPath
       id="clipPath17821">
      <rect
         y="0"
         x="0"
         width="18"
         height="19"
         id="rect17819" />
    </clipPath>
    <clipPath
       id="clipPath17825">
      <path
         inkscape:connector-curvature="0"
         d="m 0.898438,0.128906 h 16.25 v 17.882813 h -16.25 z m 0,0"
         id="path17823" />
    </clipPath>
    <clipPath
       id="clip87">
      <rect
         y="0"
         x="0"
         width="24"
         height="26"
         id="rect4848" />
    </clipPath>
    <clipPath
       id="clip88">
      <path
         inkscape:connector-curvature="0"
         d="m 0.683594,0.921875 h 22.679687 v 24.9375 H 0.683594 Z m 0,0"
         id="path4845" />
    </clipPath>
    <mask
       id="mask43">
      <g
         style="filter:url(#alpha)"
         id="g4842"
         transform="matrix(0.26458333,0,0,0.26458333,89.358789,128.57765)">
        <rect
           x="0"
           y="0"
           width="3052.8701"
           height="3351.5"
           style="fill:#000000;fill-opacity:0.14999402;stroke:none"
           id="rect4840" />
      </g>
    </mask>
    <filter
       id="filter17836"
       filterUnits="objectBoundingBox"
       x="0"
       y="0"
       width="1"
       height="1">
      <feColorMatrix
         type="matrix"
         in="SourceGraphic"
         values="0 0 0 0 1 0 0 0 0 1 0 0 0 0 1 0 0 0 1 0"
         id="feColorMatrix17834" />
    </filter>
    <clipPath
       id="clipPath17840">
      <rect
         y="0"
         x="0"
         width="24"
         height="26"
         id="rect17838" />
    </clipPath>
    <clipPath
       id="clipPath17844">
      <path
         inkscape:connector-curvature="0"
         d="m 0.683594,0.921875 h 22.679687 v 24.9375 H 0.683594 Z m 0,0"
         id="path17842" />
    </clipPath>
    <clipPath
       id="clip95">
      <rect
         y="0"
         x="0"
         width="18"
         height="18"
         id="rect4912" />
    </clipPath>
    <clipPath
       id="clip96">
      <path
         inkscape:connector-curvature="0"
         d="M 0.140625,0.140625 H 17.199219 V 17.199219 H 0.140625 Z m 0,0"
         id="path4909" />
    </clipPath>
    <mask
       id="mask47">
      <g
         style="filter:url(#alpha-3)"
         id="g4906"
         transform="matrix(0.26458333,0,0,0.26458333,88.611154,119.19859)">
        <rect
           x="0"
           y="0"
           width="3052.8701"
           height="3351.5"
           style="fill:#000000;fill-opacity:0.33000201;stroke:none"
           id="rect4904" />
      </g>
    </mask>
    <filter
       id="alpha-3"
       filterUnits="objectBoundingBox"
       x="0"
       y="0"
       width="1"
       height="1">
      <feColorMatrix
         type="matrix"
         in="SourceGraphic"
         values="0 0 0 0 1 0 0 0 0 1 0 0 0 0 1 0 0 0 1 0"
         id="feColorMatrix4149-6" />
    </filter>
    <clipPath
       id="clipPath18541">
      <rect
         y="0"
         x="0"
         width="18"
         height="18"
         id="rect18539" />
    </clipPath>
    <clipPath
       id="clipPath18545">
      <path
         inkscape:connector-curvature="0"
         d="M 0.140625,0.140625 H 17.199219 V 17.199219 H 0.140625 Z m 0,0"
         id="path18543" />
    </clipPath>
    <clipPath
       id="clip93">
      <rect
         y="0"
         x="0"
         width="22"
         height="24"
         id="rect4896" />
    </clipPath>
    <clipPath
       id="clip94">
      <path
         inkscape:connector-curvature="0"
         d="M 0.0390625,0.0390625 H 21.300781 V 23.421875 H 0.0390625 Z m 0,0"
         id="path4893" />
    </clipPath>
    <mask
       id="mask46">
      <g
         style="filter:url(#alpha-3)"
         id="g4890"
         transform="matrix(0.26458333,0,0,0.26458333,88.611154,119.19859)">
        <rect
           x="0"
           y="0"
           width="3052.8701"
           height="3351.5"
           style="fill:#000000;fill-opacity:0.14999402;stroke:none"
           id="rect4888" />
      </g>
    </mask>
    <filter
       id="filter18556"
       filterUnits="objectBoundingBox"
       x="0"
       y="0"
       width="1"
       height="1">
      <feColorMatrix
         type="matrix"
         in="SourceGraphic"
         values="0 0 0 0 1 0 0 0 0 1 0 0 0 0 1 0 0 0 1 0"
         id="feColorMatrix18554" />
    </filter>
    <clipPath
       id="clipPath18560">
      <rect
         y="0"
         x="0"
         width="22"
         height="24"
         id="rect18558" />
    </clipPath>
    <clipPath
       id="clipPath18564">
      <path
         inkscape:connector-curvature="0"
         d="M 0.0390625,0.0390625 H 21.300781 V 23.421875 H 0.0390625 Z m 0,0"
         id="path18562" />
    </clipPath>
    <clipPath
       id="clip91">
      <rect
         y="0"
         x="0"
         width="29"
         height="32"
         id="rect4880" />
    </clipPath>
    <clipPath
       id="clip92">
      <path
         inkscape:connector-curvature="0"
         d="M 0.507812,0.5 H 28.855469 V 31.679688 H 0.507812 Z m 0,0"
         id="path4877" />
    </clipPath>
    <mask
       id="mask45">
      <g
         style="filter:url(#alpha-3)"
         id="g4874"
         transform="matrix(0.26458333,0,0,0.26458333,88.611154,119.19859)">
        <rect
           x="0"
           y="0"
           width="3052.8701"
           height="3351.5"
           style="fill:#000000;fill-opacity:0.14999402;stroke:none"
           id="rect4872" />
      </g>
    </mask>
    <filter
       id="filter18575"
       filterUnits="objectBoundingBox"
       x="0"
       y="0"
       width="1"
       height="1">
      <feColorMatrix
         type="matrix"
         in="SourceGraphic"
         values="0 0 0 0 1 0 0 0 0 1 0 0 0 0 1 0 0 0 1 0"
         id="feColorMatrix18573" />
    </filter>
    <clipPath
       id="clipPath18579">
      <rect
         y="0"
         x="0"
         width="29"
         height="32"
         id="rect18577" />
    </clipPath>
    <clipPath
       id="clipPath18583">
      <path
         inkscape:connector-curvature="0"
         d="M 0.507812,0.5 H 28.855469 V 31.679688 H 0.507812 Z m 0,0"
         id="path18581" />
    </clipPath>
    <clipPath
       id="clip202">
      <rect
         y="0"
         x="0"
         width="18"
         height="18"
         id="rect5795" />
    </clipPath>
    <clipPath
       id="clip203">
      <path
         inkscape:connector-curvature="0"
         d="M 0.855469,0.140625 H 17.914062 V 17.199219 H 0.855469 Z m 0,0"
         id="path5792" />
    </clipPath>
    <mask
       id="mask104">
      <g
         style="filter:url(#alpha-7)"
         id="g5789"
         transform="matrix(0.26458333,0,0,0.26458333,74.416306,97.613551)">
        <rect
           x="0"
           y="0"
           width="3052.8701"
           height="3351.5"
           style="fill:#000000;fill-opacity:0.33000201;stroke:none"
           id="rect5787" />
      </g>
    </mask>
    <filter
       id="alpha-7"
       filterUnits="objectBoundingBox"
       x="0"
       y="0"
       width="1"
       height="1">
      <feColorMatrix
         type="matrix"
         in="SourceGraphic"
         values="0 0 0 0 1 0 0 0 0 1 0 0 0 0 1 0 0 0 1 0"
         id="feColorMatrix4149-5" />
    </filter>
    <clipPath
       id="clipPath18765">
      <rect
         y="0"
         x="0"
         width="18"
         height="18"
         id="rect18763" />
    </clipPath>
    <clipPath
       id="clipPath18769">
      <path
         inkscape:connector-curvature="0"
         d="M 0.855469,0.140625 H 17.914062 V 17.199219 H 0.855469 Z m 0,0"
         id="path18767" />
    </clipPath>
  </defs>
  <sodipodi:namedview
     id="base"
     pagecolor="#ffffff"
     bordercolor="#666666"
     borderopacity="1.0"
     inkscape:pageopacity="0.0"
     inkscape:pageshadow="2"
     inkscape:zoom="5.6"
     inkscape:cx="34.656219"
     inkscape:cy="23.675099"
     inkscape:document-units="mm"
     inkscape:current-layer="layer1"
     showgrid="false"
     inkscape:window-width="1274"
     inkscape:window-height="1434"
     inkscape:window-x="1280"
     inkscape:window-y="0"
     inkscape:window-maximized="0"
     units="px"
     fit-margin-top="0"
     fit-margin-left="0"
     fit-margin-right="0"
     fit-margin-bottom="0" />
  <metadata
     id="metadata15243">
    <rdf:RDF>
      <cc:Work
         rdf:about="">
        <dc:format>image/svg+xml</dc:format>
        <dc:type
           rdf:resource="http://purl.org/dc/dcmitype/StillImage" />
        <dc:title></dc:title>
      </cc:Work>
    </rdf:RDF>
  </metadata>
  <g
     inkscape:label="Layer 1"
     inkscape:groupmode="layer"
     id="layer1"
     transform="translate(-49.282827,-86.085259)">
    <path
       inkscape:connector-curvature="0"
       id="path7589"
       d="m 63.282319,93.084313 c 0,3.866777 -3.133655,7.000437 -7.000416,7.000437 -3.865386,0 -6.999076,-3.13366 -6.999076,-7.000437 0,-3.865396 3.13369,-6.999054 6.999076,-6.999054 3.866761,0 7.000416,3.133658 7.000416,6.999054"
       style="fill:#000000;fill-opacity:1;fill-rule:nonzero;stroke:none;stroke-width:0.35277775" />
    <path
       inkscape:connector-curvature="0"
       id="path7591"
       d="m 60.234107,93.085001 c 0,2.181437 -1.769392,3.950836 -3.950829,3.950836 -2.182812,0 -3.952204,-1.769399 -3.952204,-3.950836 0,-2.182812 1.769392,-3.950832 3.952204,-3.950832 2.181437,0 3.950829,1.76802 3.950829,3.950832"
       style="fill:#ffffff;fill-opacity:1;fill-rule:nonzero;stroke:none;stroke-width:0.35277775" />
    <path
       inkscape:connector-curvature="0"
       id="path7593"
       d="m 61.821607,93.084313 c 0,3.059247 -2.480451,5.539716 -5.538329,5.539716 -3.059253,0 -5.539704,-2.480469 -5.539704,-5.539716 0,-3.057867 2.480451,-5.538335 5.539704,-5.538335 3.057878,0 5.538329,2.480468 5.538329,5.538335 z m 0,0"
       style="fill:none;stroke:#636363;stroke-width:0.29999998;stroke-linecap:butt;stroke-linejoin:miter;stroke-miterlimit:10;stroke-dasharray:none;stroke-opacity:1" />
    <path
       inkscape:connector-curvature="0"
       id="path7595"
       d="m 56.919937,86.116953 c -0.20948,-0.0193 -0.421676,-0.03168 -0.638034,-0.03168 -0.260456,0 -0.51816,0.01655 -0.773077,0.0441 v 3.168111 h 1.411111 z m 0,0"
       style="fill:#ffffff;fill-opacity:1;fill-rule:nonzero;stroke:none;stroke-width:0.35277775" />
  </g>
</svg>
