<?xml version="1.0" encoding="utf-8"?>
<!-- Generator: Adobe Illustrator 25.0.0, SVG Export Plug-In . SVG Version: 6.00 Build 0)  -->
<svg version="1.0"
	 id="svg15246" xmlns:cc="http://creativecommons.org/ns#" xmlns:dc="http://purl.org/dc/elements/1.1/" xmlns:inkscape="http://www.inkscape.org/namespaces/inkscape" xmlns:rdf="http://www.w3.org/1999/02/22-rdf-syntax-ns#" xmlns:sodipodi="http://sodipodi.sourceforge.net/DTD/sodipodi-0.dtd" xmlns:svg="http://www.w3.org/2000/svg"
	 xmlns="http://www.w3.org/2000/svg" xmlns:xlink="http://www.w3.org/1999/xlink" x="0px" y="0px" width="39.6836px"
	 height="39.68359px" viewBox="0 0 39.6836 39.68359" enable-background="new 0 0 39.6836 39.68359" xml:space="preserve">
<sodipodi:namedview  bordercolor="#666666" borderopacity="1.0" fit-margin-bottom="0" fit-margin-left="0" fit-margin-right="0" fit-margin-top="0" id="base" inkscape:current-layer="layer1" inkscape:cx="34.656219" inkscape:cy="23.675099" inkscape:document-units="mm" inkscape:pageopacity="0.0" inkscape:pageshadow="2" inkscape:window-height="1434" inkscape:window-maximized="0" inkscape:window-width="1274" inkscape:window-x="1280" inkscape:window-y="0" inkscape:zoom="5.6" pagecolor="#ffffff" showgrid="false" units="px">
	</sodipodi:namedview>
<g>
	<path fill="#424242" d="M34.43681,19.84178c0-0.6795-0.04749-1.35828-0.14202-2.03119l-0.41997,0.05901
		c-0.38271,0.05377-0.75137-0.19515-0.82345-0.57484c-0.21154-1.11427-0.55626-2.18063-1.02396-3.17908
		c-0.15957-0.34065-0.01106-0.74719,0.32108-0.92379l0.37996-0.20203c-1.04089-1.95758-2.51422-3.65253-4.30792-4.95569
		s-3.8609-2.18067-6.04437-2.56568l-0.07594,0.43075c-0.06617,0.37534-0.41376,0.6375-0.79166,0.58796
		c-0.54597-0.07158-1.10119-0.11307-1.66676-0.11307c-0.56562,0-1.12085,0.04149-1.66683,0.11307
		c-0.37789,0.04954-0.72548-0.21262-0.79165-0.58796l-0.07594-0.4307c-2.18341,0.38495-4.25067,1.26245-6.04431,2.56561
		c-1.7937,1.30322-3.26709,2.99811-4.30793,4.95568l0.37989,0.20199c0.33214,0.1766,0.48066,0.58314,0.3211,0.92379
		c-0.46768,0.99845-0.81242,2.06485-1.02397,3.17912c-0.07209,0.37969-0.44075,0.62862-0.82346,0.57484l-0.4199-0.059
		c-0.09454,0.67291-0.14203,1.35168-0.14203,2.03119c0,3.78137,1.46948,7.41852,4.09624,10.13861l0.3138-0.30304
		c0.27206-0.26273,0.707-0.27847,0.98315-0.02004c0.81371,0.76151,1.72267,1.42046,2.70641,1.96264
		c0.33423,0.18421,0.45508,0.60637,0.28777,0.94938l-0.19043,0.39043c1.99274,0.97186,4.18097,1.47705,6.39807,1.47705
		c2.2171,0,4.40533-0.50518,6.39801-1.47704l-0.1904-0.39042c-0.16729-0.34302-0.04643-0.76518,0.2878-0.94939
		c0.98372-0.54217,1.89262-1.2011,2.70635-1.96262c0.27616-0.25844,0.71111-0.24271,0.9832,0.02002l0.31383,0.30304
		C32.96726,27.26029,34.43681,23.62315,34.43681,19.84178z"/>
	<g opacity="0.32">
		<g>
			<path d="M32.02742,14.11564c0.04254,0.09076,0.07007,0.18927,0.11053,0.28113c0.13385,0.30273,0.25311,0.61267,0.36444,0.92676
				c0.07318,0.20734,0.14337,0.41498,0.20654,0.62683c0.10876,0.36316,0.2033,0.73206,0.2821,1.1073
				c0.01678,0.08038,0.04498,0.15619,0.06036,0.23706c0.07208,0.3797,0.44073,0.62866,0.82343,0.57489l0.41998-0.05902
				c0.00031,0.00208,0.00037,0.00427,0.00067,0.00635l1.08002-0.15179c-0.25622-1.85193-0.82324-3.60327-1.66681-5.19006
				l-0.98645,0.52454c0.00189,0.00354,0.00433,0.00665,0.00623,0.01019l-0.45337,0.24109
				C32.00148,13.44645,31.88167,13.80442,32.02742,14.11564z"/>
		</g>
		<g>
			<path d="M5.80867,17.86952c0.38275,0.05383,0.7514-0.19513,0.82349-0.57483c0.01538-0.08093,0.04364-0.15674,0.06043-0.23712
				c0.07855-0.37427,0.17291-0.74213,0.28131-1.10437c0.06366-0.21368,0.13434-0.4231,0.20819-0.6322
				c0.11115-0.31329,0.23004-0.62256,0.36359-0.92456c0.04047-0.0918,0.06799-0.19012,0.11047-0.28082
				c0.14575-0.31128,0.026-0.66919-0.24768-0.86481l-0.45331-0.24103c0.00189-0.00354,0.00433-0.00665,0.00623-0.01019
				l-0.98645-0.52454c-0.84357,1.58679-1.41059,3.33813-1.66681,5.19012l1.08002,0.15179
				c0.00031-0.00214,0.00037-0.00427,0.00067-0.00641L5.80867,17.86952z"/>
		</g>
		<g>
			<path d="M13.63415,32.5693c0.16345-0.33514,0.04846-0.74249-0.26849-0.93305c-0.9953-0.54724-1.91229-1.21253-2.7337-1.98395
				c-0.25696-0.2337-0.64062-0.22717-0.91089-0.01709l-0.37805,0.36511c-0.00226-0.00232-0.00415-0.005-0.00641-0.00732
				L8.5639,30.73915c1.26471,1.30731,2.75616,2.3866,4.40857,3.19324l0.47388-0.97155
				c-0.00085-0.00043-0.00177-0.00067-0.00262-0.0011L13.63415,32.5693z"/>
		</g>
		<g>
			<path d="M29.05164,29.65232c-0.82135,0.77136-1.73834,1.4367-2.73358,1.98388c-0.31702,0.19049-0.43213,0.59796-0.26868,0.93311
				l0.19043,0.39044c-0.00085,0.00043-0.00177,0.00067-0.00262,0.0011l0.47388,0.97156
				c1.6524-0.80664,3.14392-1.88592,4.40863-3.19323c-0.21863-0.21106-0.47217-0.45593-0.77271-0.74615
				c-0.00226,0.00238-0.00415,0.00494-0.00641,0.00732l-0.37799-0.36505C29.69244,29.42515,29.30859,29.41855,29.05164,29.65232z"/>
		</g>
	</g>
	<path fill="#333333" d="M23.05357,1.60266l-0.43598,2.20123V4.1333c0.08862-0.37518,0.45538-0.6286,0.836-0.54394
		c2.22162,0.49408,4.32111,1.43958,6.1665,2.78034c1.84546,1.34076,3.39343,3.04535,4.5498,5.00556
		c0.20532,0.34796,0.06641,0.79944-0.29034,0.98907l-0.17084,0.09082c0.84357,1.58679,1.41058,3.33814,1.66681,5.19007
		l0.21173-0.02979c0.39954-0.05609,0.77631,0.22656,0.81469,0.62817c0.05042,0.52661,0.07568,1.05542,0.07568,1.58472
		c0,4.06311-1.48859,7.98022-4.16749,11.01312c-0.26788,0.30334-0.74072,0.31213-1.0318,0.03101
		c-0.04639-0.0448-0.10687-0.10321-0.15863-0.1532c-1.26471,1.30731-2.75617,2.38659-4.40857,3.19323l0.09918,0.20343
		c0.17749,0.36395,0.02374,0.81281-0.34772,0.974c-2.08716,0.90539-4.34058,1.3742-6.62079,1.3742
		c-2.28027,0-4.53369-0.46881-6.62079-1.37421c-0.37152-0.16119-0.52527-0.61005-0.34778-0.974l0.09924-0.20343
		c-1.6524-0.80664-3.14386-1.88593-4.40857-3.19324l-0.15741,0.15204c-0.29114,0.28113-0.76514,0.2735-1.03308-0.02979
		c-2.67889-3.03296-4.16741-6.95008-4.16741-11.01319c0-0.52924,0.02521-1.05811,0.07562-1.58472
		c0.03845-0.40161,0.41516-0.68427,0.8147-0.62811l0.21179,0.02979c0.25623-1.85199,0.82325-3.60333,1.66681-5.19012
		L5.80411,12.3643c-0.35675-0.18964-0.49567-0.64111-0.2904-0.98914c1.15644-1.96014,2.70441-3.66473,4.54981-5.00549
		c1.84546-1.34082,3.94495-2.28625,6.16657-2.78033c0.38055-0.08466,0.74725,0.16858,0.83594,0.54376V3.80388l-0.43591-2.20123
		C7.99052,3.12461,1.42081,10.64982,1.4208,19.72581c-0.00001,10.17365,8.24736,18.42103,18.421,18.42104
		c10.17365,0.00001,18.42103-8.24736,18.42104-18.421C38.26285,10.64979,31.69316,3.12458,23.05357,1.60266z"/>
	<path opacity="0.35" d="M19.84187,0C8.88356,0,0.00007,8.88348,0.00007,19.84179c0,10.95831,8.88348,19.8418,19.84179,19.8418
		s19.8418-8.88348,19.8418-19.84179C39.68366,8.88349,30.80018,0,19.84187,0z M19.8418,38.14685
		c-10.17365,0-18.42102-8.24738-18.42095-18.42103c0-9.07599,6.56971-16.60119,15.2093-18.12317l-0.07123-0.35974
		c-0.02869-0.14545,0.01105-0.29749,0.10889-0.41632c0.03558-0.04327,0.08215-0.07428,0.12854-0.10498l0.02997-0.02777
		c0.98212-0.15527,1.98926-0.2359,3.01556-0.2359c1.02106,0,2.02307,0.07983,3.00037,0.23352l0.04523,0.03021
		c0.04633,0.0307,0.09283,0.06165,0.12842,0.10492c0.09827,0.1192,0.13757,0.27087,0.10895,0.41632L23.0536,1.60266
		c8.63959,1.52191,15.20929,9.04718,15.20929,18.12323C38.26282,29.89954,30.01544,38.14685,19.8418,38.14685z"/>
	<rect x="17.06598" y="4.6367" fill="#E3E3E3" width="5.55161" height="9.97181"/>
	<path opacity="0.58" fill="#FFFFFF" d="M23.12478,1.2002c0.02866-0.14547-0.01064-0.29714-0.10891-0.41636
		c-0.09417-0.11448-0.23093-0.1874-0.38488-0.20563c-0.91962-0.10792-1.85808-0.16297-2.78917-0.16297
		c-0.9315,0-1.86995,0.05505-2.78876,0.16297c-0.15436,0.01823-0.29112,0.09115-0.38529,0.20563
		c-0.09786,0.11885-0.13758,0.27089-0.10891,0.41636l0.50715,2.56094v-0.0051l5.55161,0.00001v0.00511L23.12478,1.2002z"/>
	<path opacity="0.4" d="M5.80411,12.3643c-0.35675-0.18964-0.49567-0.64111-0.2904-0.98914
		c1.15644-1.96014,2.70441-3.66473,4.54981-5.00549c1.84546-1.34082,3.94495-2.28625,6.16657-2.78033
		c0.38055-0.08466,0.74725,0.16858,0.83594,0.54376l0,1.39227c-2.0932,0.40594-4.07642,1.25433-5.80298,2.50878
		c-1.7937,1.30322-3.26709,2.9981-4.30793,4.95568L5.80411,12.3643z M5.38809,17.817
		c-0.09387,0.67078-0.14136,1.34741-0.14136,2.02478c0,3.78137,1.46948,7.41852,4.09624,10.13861l-0.93646,0.89087
		c-0.29114,0.28113-0.76514,0.2735-1.03308-0.02979c-2.67889-3.03296-4.16741-6.95008-4.16741-11.01319
		c0-0.52924,0.02521-1.05811,0.07562-1.58472c0.03845-0.40161,0.41516-0.68427,0.8147-0.62811L5.38809,17.817z M26.23976,32.95978
		c-1.99268,0.97186-4.18091,1.47705-6.39801,1.47704c-2.21613,0-4.40326-0.50489-6.39538-1.47596l-0.57312,1.15503
		c-0.17749,0.36395-0.02374,0.81281,0.34778,0.974c2.0871,0.9054,4.34051,1.37421,6.62079,1.37421
		c2.28021,0,4.53363-0.46881,6.62079-1.3742c0.37146-0.16119,0.52521-0.61005,0.34772-0.974l-0.57049-1.15613
		c-0.00085,0.00043-0.00177,0.00067-0.00262,0.0011 M32.72842,12.98987c-1.04089-1.95758-2.51422-3.65253-4.30792-4.95569
		c-1.72656-1.2544-3.70971-2.10279-5.80292-2.50879l0-1.39209c0.08862-0.37518,0.45538-0.6286,0.836-0.54394
		c2.22162,0.49408,4.32111,1.43958,6.1665,2.78034c1.84546,1.34076,3.39343,3.04535,4.5498,5.00556
		c0.20532,0.34796,0.06641,0.79944-0.29034,0.98907L32.72842,12.98987z M34.2955,17.81696 M30.34053,29.98041
		c2.62671-2.72009,4.09626-6.35723,4.09626-10.13861c0-0.6795-0.04749-1.35828-0.14202-2.03119l1.29248-0.19519
		c0.39954-0.05609,0.77631,0.22656,0.81469,0.62817c0.05042,0.52661,0.07568,1.05542,0.07568,1.58472
		c0,4.06311-1.48859,7.98022-4.16749,11.01312c-0.26788,0.30334-0.74072,0.31213-1.0318,0.03101L30.34053,29.98041z"/>
	<rect x="17.06599" y="3.76114" opacity="0.81" fill="#FFFFFF" width="5.55161" height="0.87556"/>
</g>
</svg>
