<?xml version="1.0" encoding="UTF-8"?>
<svg width="45.73" height="45.73" version="1.1" viewBox="0 0 12.098513 12.098333" xmlns="http://www.w3.org/2000/svg">
 <g transform="translate(-128.4 -87.47)">
  <g transform="matrix(.3528 0 0 -.3528 140.5 93.52)">
   <path d="m0 0c0-9.471-7.678-17.15-17.15-17.15-9.47 0-17.15 7.676-17.15 17.15 0 9.47 7.678 17.15 17.15 17.15 9.469 0 17.15-7.677 17.15-17.15" fill="#000000"/>
  </g>
  <g transform="matrix(.3528 0 0 -.3528 138.7 93.52)" fill="#db4061">
   <path d="m0 0c0-6.755-5.476-12.23-12.23-12.23-6.754 0-12.23 5.477-12.23 12.23s5.479 12.23 12.23 12.23c6.756 0 12.23-5.476 12.23-12.23" fill="#db4061"/>
  </g>
  <g transform="matrix(.3528 0 0 -.3528 135.1 87.52)" fill="#db4061">
   <path d="m0 0c-.657.077-1.322.127-2 .127s-1.343-.05-2-.127v-5.388h4z" fill="#db4061"/>
  </g>
 </g>
</svg>
