<?xml version="1.0" encoding="utf-8"?>
<!-- Generator: Adobe Illustrator 25.0.0, SVG Export Plug-In . SVG Version: 6.00 Build 0)  -->
<svg version="1.0"
	 id="svg15246" xmlns:cc="http://creativecommons.org/ns#" xmlns:dc="http://purl.org/dc/elements/1.1/" xmlns:inkscape="http://www.inkscape.org/namespaces/inkscape" xmlns:rdf="http://www.w3.org/1999/02/22-rdf-syntax-ns#" xmlns:sodipodi="http://sodipodi.sourceforge.net/DTD/sodipodi-0.dtd" xmlns:svg="http://www.w3.org/2000/svg"
	 xmlns="http://www.w3.org/2000/svg" xmlns:xlink="http://www.w3.org/1999/xlink" x="0px" y="0px" width="89.11328px"
	 height="89.12107px" viewBox="0 0 89.11328 89.12107" enable-background="new 0 0 89.11328 89.12107" xml:space="preserve">
<sodipodi:namedview  bordercolor="#666666" borderopacity="1.0" fit-margin-bottom="0" fit-margin-left="0" fit-margin-right="0" fit-margin-top="0" id="base" inkscape:current-layer="layer1" inkscape:cx="80.640601" inkscape:cy="61.450345" inkscape:document-units="mm" inkscape:pageopacity="0.0" inkscape:pageshadow="2" inkscape:window-height="1434" inkscape:window-maximized="0" inkscape:window-width="1274" inkscape:window-x="1280" inkscape:window-y="0" inkscape:zoom="5.6" pagecolor="#ffffff" showgrid="false" units="px">
	</sodipodi:namedview>
<g>
	<g>
		<path opacity="0.35" d="M44.55666,0.00003c-24.60791,0-44.55664,19.94873-44.55664,44.55664
			c0,24.60815,19.94873,44.55664,44.55664,44.55664S89.1133,69.16483,89.1133,44.55667
			C89.1133,19.94876,69.16457,0.00003,44.55666,0.00003z M44.55666,87.69974c-23.82727,0-43.14307-19.31567-43.14307-43.14307
			c0-22.35254,16.99927-40.73364,38.77466-42.92334l-0.02832-0.10181c-0.03857-0.19482,0.01465-0.39844,0.14575-0.55762
			c0.12622-0.15332,0.30933-0.25098,0.51611-0.27539c1.23047-0.14453,2.4873-0.21826,3.73486-0.21826
			c1.24683,0,2.50366,0.07373,3.73535,0.21826c0.2063,0.02441,0.3894,0.12207,0.51562,0.27539
			c0.13159,0.15967,0.18408,0.36279,0.14575,0.55762l-0.02832,0.10181c21.77539,2.1897,38.77454,20.5708,38.77454,42.92334
			C87.6996,68.38406,68.3838,87.69974,44.55666,87.69974z"/>
	</g>
	<path fill="#424242" d="M80.90905,46.97015c0.05383-0.79761,0.08276-1.60205,0.08276-2.41357
		c0-0.81128-0.02893-1.61572-0.08276-2.41309c-0.04016-0.59473,0.38879-1.11621,0.98206-1.17334l0.64954-0.0625
		c-0.73792-7.77637-3.80518-14.87378-8.50244-20.58228l-0.50549,0.41675c-0.45898,0.37842-1.12854,0.31226-1.51978-0.13599
		c-1.06213-1.21655-2.20374-2.36157-3.41675-3.42749c-0.44592-0.39185-0.51074-1.05957-0.1333-1.51758l0.41895-0.50806
		c-5.70166-4.72241-12.82206-7.81292-20.60477-8.57098l-0.03952,0.64495c-0.05713,0.59375-0.57959,1.0227-1.1748,0.98144
		c-0.82825-0.05713-1.66382-0.0874-2.50659-0.0874c-0.78174,0-1.55688,0.02759-2.32568,0.07812
		c-0.60022,0.03931-1.12622-0.39429-1.18396-0.99292l-0.06165-0.63989C33.182,7.2907,26.05968,10.35882,20.33373,15.06756
		l0.4165,0.50513c0.37842,0.45923,0.31226,1.12891-0.13623,1.52002c-1.22266,1.06665-2.37354,2.21362-3.44409,3.43262
		c-0.39172,0.44604-1.05945,0.51099-1.51758,0.13354l-0.50806-0.41895c-4.73364,5.71899-7.82715,12.84229-8.57153,20.65112
		l0.64917,0.0625c0.59326,0.05713,1.02222,0.57886,0.98193,1.17334c-0.05432,0.80322-0.0835,1.61279-0.0835,2.42969
		s0.02917,1.62695,0.0835,2.43018c0.04028,0.59448-0.38867,1.11621-0.98193,1.17334l-0.64917,0.0625
		c0.74463,7.80884,3.83801,14.93188,8.57178,20.65088l0.50793-0.41895c0.45813-0.37744,1.12585-0.3125,1.51758,0.13354
		c1.07068,1.21924,2.22156,2.36597,3.44434,3.43286c0.44836,0.39111,0.51465,1.06079,0.13611,1.52002l-0.4165,0.50513
		c5.72583,4.70874,12.84814,7.77661,20.65088,8.50122l0.06177-0.64038c0.05762-0.59863,0.5835-1.03198,1.18359-0.99268
		c0.76904,0.05054,1.54419,0.07812,2.32593,0.07812c0.84277,0,1.67822-0.03027,2.50635-0.08765
		c0.59521-0.04126,1.11768,0.3877,1.17493,0.98145l0.06238,0.64795c7.78259-0.75806,14.88025-3.85132,20.58179-8.57349
		l-0.41895-0.50806c-0.37744-0.45801-0.31262-1.12573,0.1333-1.51758c1.21301-1.06592,2.35474-2.21118,3.41675-3.42773
		c0.39124-0.448,1.06067-0.51416,1.51978-0.13574l0.50562,0.41675c4.69727-5.7085,7.7644-12.80591,8.50256-20.58228l-0.64954-0.0625
		C81.29784,48.08636,80.86889,47.56487,80.90905,46.97015z"/>
	<g opacity="0.32">
		<g>
			<path d="M83.79442,40.76946c-0.05566,0.01245-0.10999,0.02808-0.16797,0.03369l-1.73542,0.16709
				c-0.59314,0.05711-1.02209,0.57861-0.98201,1.17314c0.05377,0.79758,0.08279,1.60189,0.08279,2.41319
				c0,0.81137-0.02901,1.61588-0.0828,2.41369c-0.04008,0.59452,0.38888,1.11602,0.982,1.17312l1.73544,0.1671
				c0.05798,0.00562,0.1123,0.02124,0.16785,0.03369c0.1189-1.24707,0.18506-2.50952,0.18506-3.7876
				C83.97935,43.27874,83.91331,42.01629,83.79442,40.76946z"/>
		</g>
		<g>
			<path d="M17.17004,68.58808c-0.39174-0.44605-1.05951-0.51105-1.51757-0.13342l-1.23207,1.01573
				c-0.08838,0.073-0.1925,0.10718-0.29163,0.15503c1.63611,1.9834,3.46411,3.80225,5.45276,5.43237
				c0.04651-0.09424,0.07837-0.19409,0.14783-0.27832l1.02112-1.23858c0.37854-0.45915,0.31226-1.12878-0.13615-1.51999
				C19.39159,70.95415,18.24075,69.80726,17.17004,68.58808z"/>
		</g>
		<g>
			<path d="M20.61404,17.09269c0.44838-0.3912,0.51466-1.06078,0.13616-1.51993l-1.02084-1.23836
				c-0.0697-0.08447-0.10144-0.18433-0.14807-0.27881c-1.98853,1.63037-3.81653,3.44922-5.45264,5.43262
				c0.09912,0.04785,0.20337,0.08203,0.29175,0.15503l1.23197,1.01556c0.45805,0.37759,1.12579,0.3126,1.51752-0.13343
				C18.24054,19.30632,19.39136,18.15944,20.61404,17.09269z"/>
		</g>
		<g>
			<path d="M72.01286,20.60613c0.39128,0.4482,1.06076,0.5144,1.51984,0.13594l1.33289-1.09883
				c0.05127-0.04224,0.11389-0.05615,0.16919-0.08984c-1.61658-1.96826-3.4187-3.77808-5.38196-5.40039
				c-0.0354,0.05933-0.05103,0.12622-0.09619,0.1814l-1.09371,1.32677c-0.37753,0.45798-0.31267,1.12564,0.13319,1.51742
				C69.80915,18.24452,70.95081,19.38959,72.01286,20.60613z"/>
		</g>
		<g>
			<path d="M8.20388,42.127c0.04024-0.59462-0.38867-1.11626-0.9819-1.17339l-1.56257-0.15046
				c-0.11865-0.01147-0.23022-0.04199-0.33789-0.08081c-0.12183,1.26196-0.18872,2.54028-0.18872,3.83423
				c0,1.29419,0.06689,2.57251,0.18872,3.83496c0.10767-0.03906,0.21924-0.06958,0.33789-0.08105l1.56258-0.15046
				c0.59323-0.05713,1.02213-0.57875,0.9819-1.17337c-0.05435-0.80315-0.08354-1.61322-0.08354-2.43008
				C8.12035,43.73976,8.14954,42.92995,8.20388,42.127z"/>
		</g>
		<g>
			<path d="M42.23024,80.91423c-0.60006-0.03938-1.12606,0.39411-1.18369,0.99271l-0.15728,1.63352
				c-0.00867,0.0896-0.02747,0.17603-0.05212,0.25977c1.22485,0.1145,2.46411,0.17969,3.71899,0.17969
				c1.31299,0,2.60986-0.06738,3.88989-0.19287c-0.02271-0.07959-0.04126-0.16162-0.04932-0.24658l-0.15932-1.65433
				c-0.05719-0.59384-0.57969-1.0226-1.17485-0.98141c-0.82814,0.05732-1.6637,0.08764-2.5064,0.08764
				C43.77433,80.99236,42.99918,80.96468,42.23024,80.91423z"/>
		</g>
		<g>
			<path d="M68.59584,71.93504c-0.44584,0.39178-0.5107,1.05944-0.13316,1.51742l1.09395,1.32702
				c0.04517,0.05493,0.06067,0.12183,0.09619,0.18091c1.96313-1.62231,3.76526-3.43188,5.38184-5.40015
				c-0.05518-0.03369-0.11792-0.04761-0.16907-0.08984l-1.33318-1.09895c-0.45907-0.3784-1.12849-0.31223-1.51977,0.13593
				C70.95058,69.72386,69.80891,70.86905,68.59584,71.93504z"/>
		</g>
	</g>
	<g opacity="0.4">
		<path d="M40.89147,5.57342c-0.0741-0.77002-0.76868-1.34448-1.53564-1.24341C35.8402,4.79217,32.39819,5.71355,29.1184,7.0722
			c-3.28076,1.35889-6.36731,3.14209-9.18091,5.30225c-0.61243,0.47021-0.69702,1.36401-0.20593,1.95996l0.60364,0.73206
			c5.72559-4.70813,12.84741-7.77576,20.64966-8.50012L40.89147,5.57342z"/>
		<path d="M69.55883,14.3344c0.49097-0.59595,0.40649-1.48975-0.20605-1.95996c-2.81348-2.16016-5.90002-3.94336-9.18091-5.30225
			c-3.27979-1.35864-6.72168-2.28003-10.2373-2.74219c-0.68352-0.09008-1.30964,0.35638-1.49016,0.99963l-0.16999-0.01025
			l0.00265,1.26265c7.78198,0.75854,14.9036,3.84906,20.60477,8.57098L69.55883,14.3344z"/>
		<path d="M83.62865,40.80315c0.77002-0.07422,1.34424-0.7688,1.24341-1.53564c-0.46216-3.51562-1.38367-6.95752-2.74219-10.23731
			c-1.35889-3.28101-3.14209-6.36743-5.30225-9.18115c-0.47021-0.6123-1.36401-0.69678-1.95984-0.20581l-0.82874,0.68323
			c4.69678,5.70825,7.76367,12.8053,8.50159,20.58118L83.62865,40.80315z"/>
		<path d="M15.14428,20.23992c-4.73364,5.71899-7.8269,12.84229-8.57153,20.65088l-0.91113-0.08765
			c-0.7699-0.07422-1.34424-0.7688-1.24341-1.53564c0.46228-3.51562,1.38379-6.95752,2.74219-10.23731
			c1.35901-3.28101,3.14209-6.36743,5.30225-9.18115c0.47021-0.6123,1.36414-0.69678,1.95996-0.20581L15.14428,20.23992z"/>
		<path d="M69.55883,74.77947c0.49097,0.5957,0.40649,1.48975-0.20605,1.95996c-2.81348,2.15991-5.90002,3.94312-9.18091,5.30225
			c-3.27979,1.3584-6.72168,2.27979-10.2373,2.74219c-0.76697,0.10083-1.46167-0.47363-1.53564-1.24341l-0.09692-1.00659
			c7.78174-0.75854,14.87866-3.85156,20.57959-8.57324L69.55883,74.77947z"/>
		<path d="M83.62865,48.31048c0.77002,0.07422,1.34424,0.7688,1.24341,1.53564c-0.46216,3.51562-1.38367,6.95776-2.74219,10.2373
			c-1.35889,3.28101-3.14209,6.36743-5.30225,9.18115c-0.47021,0.6123-1.36401,0.69702-1.95984,0.20581l-0.82898-0.68311
			c4.69678-5.70825,7.76367-12.80542,8.50183-20.5813L83.62865,48.31048z"/>
		<path d="M14.4226,69.47039c-0.59583,0.49121-1.48975,0.40649-1.95996-0.20581c-2.16016-2.81372-3.94324-5.90015-5.30225-9.18115
			c-1.3584-3.27954-2.27991-6.72168-2.74219-10.2373c-0.10083-0.76685,0.47351-1.46143,1.24341-1.53564l0.91113-0.08765
			c0.74487,7.80859,3.83814,14.93164,8.57178,20.65063L14.4226,69.47039z"/>
		<path d="M40.89147,83.54046c-0.0741,0.76978-0.76868,1.34424-1.53564,1.24341c-3.51562-0.4624-6.95764-1.38379-10.23743-2.74219
			c-3.28076-1.35913-6.36731-3.14233-9.18091-5.30225c-0.61243-0.47021-0.69702-1.36426-0.20593-1.95996l0.60376-0.73242
			c5.72571,4.70825,12.84741,7.77563,20.64954,8.50024L40.89147,83.54046z"/>
	</g>
	<g>
		<path fill="#333333" d="M48.92506,1.63333l-0.65088,2.32812v0.87549v0.47656c0.05786,0.00537,0.11646,0.00708,0.17419,0.0127
			c0.18213-0.64062,0.80432-1.08594,1.48621-0.99609c3.51562,0.46191,6.95752,1.3833,10.2373,2.74219
			c3.28088,1.35889,6.36743,3.14209,9.18091,5.30225c0.55627,0.42725,0.65234,1.19385,0.30176,1.7793
			c1.96301,1.62256,3.76501,3.43213,5.38135,5.3999c0.58667-0.35889,1.36182-0.26465,1.79175,0.29541
			c2.16016,2.81348,3.94336,5.8999,5.30225,9.18115c1.35852,3.27979,2.28003,6.72168,2.74219,10.2373
			c0.09326,0.70947-0.39404,1.35059-1.07715,1.50195c0.1189,1.24707,0.18506,2.50928,0.18506,3.78711
			s-0.06616,2.54053-0.18506,3.78711c0.68311,0.15186,1.17041,0.79248,1.07715,1.50244
			c-0.46216,3.51562-1.38367,6.95752-2.74219,10.2373c-1.35889,3.28076-3.14209,6.36719-5.30225,9.18115
			c-0.43005,0.56006-1.20532,0.6543-1.79199,0.29492c-1.61621,1.96802-3.41821,3.77783-5.38123,5.3999
			c0.35071,0.58521,0.25488,1.35254-0.30164,1.77979c-2.81348,2.16016-5.90002,3.94336-9.18091,5.30225
			c-3.27979,1.3584-6.72168,2.27979-10.2373,2.74219c-0.68213,0.08984-1.30432-0.35596-1.48633-0.99658
			c-0.6405,0.0625-1.28516,0.11182-1.93445,0.14355c-0.1134,0.00537-0.22864,0.00366-0.34229,0.0083
			c-0.53625,0.02173-1.07324,0.04102-1.61487,0.04102c-0.07031,0-0.13928-0.00488-0.20947-0.00537
			c-0.55908-0.00342-1.11597-0.01465-1.66895-0.04199c-0.60095-0.02832-1.19727-0.07397-1.79102-0.12891
			c-0.01587-0.00146-0.03198-0.00195-0.04785-0.00342c-0.18665,0.63403-0.80603,1.07275-1.48352,0.9834
			c-3.51562-0.4624-6.95764-1.38379-10.23743-2.74219c-3.28076-1.35889-6.36731-3.14209-9.18091-5.30225
			c-0.52539-0.40332-0.63599-1.10938-0.35437-1.68066c-0.00061-0.00024-0.0011-0.00049-0.00159-0.00098l0,0
			c-0.00085-0.00049-0.00159-0.00146-0.00244-0.00195c-0.97974-0.80322-1.92017-1.65283-2.81787-2.54541
			c-0.01294-0.0127-0.02673-0.0249-0.03979-0.03809c-0.40723-0.40576-0.8031-0.823-1.19226-1.24658
			c-0.04639-0.05029-0.09558-0.09766-0.14172-0.14844c-0.42896-0.47119-0.8468-0.95312-1.25269-1.44482
			c-0.00171-0.0022-0.00366-0.00415-0.00537-0.00635c-0.56885,0.27295-1.2666,0.15967-1.66675-0.36133
			c-2.16016-2.81396-3.94324-5.90039-5.30225-9.18115c-1.3584-3.27979-2.27991-6.72168-2.74219-10.2373
			c-0.08521-0.64795,0.31421-1.23975,0.90381-1.45361c0-0.00049,0-0.00098,0-0.00098c-0.00024,0-0.00037,0-0.00049,0
			c-0.00598-0.06201-0.00806-0.125-0.01367-0.18701c-0.052-0.56592-0.09766-1.13379-0.12549-1.70605
			c-0.03223-0.64355-0.04956-1.29053-0.04956-1.94189s0.01733-1.29834,0.04956-1.94141
			c0.02808-0.5791,0.07397-1.15283,0.12671-1.72461c0.00525-0.05566,0.00708-0.11279,0.01245-0.16846
			c0.00012,0,0.00024,0,0.00049,0.00049c0-0.00049,0-0.00146,0-0.00195c-0.58948-0.21387-0.98901-0.80518-0.90381-1.45312
			c0.46228-3.51562,1.38379-6.95752,2.74219-10.2373c1.35901-3.28125,3.14209-6.36768,5.30225-9.18115
			c0.40015-0.521,1.09766-0.63428,1.66675-0.36182c0.00098-0.00098,0.0022-0.00244,0.00317-0.00342
			c0.40759-0.49414,0.82715-0.97754,1.25781-1.45068c0.0155-0.01709,0.0321-0.0332,0.04761-0.0498
			c1.28284-1.40527,2.66626-2.71631,4.1383-3.92334c0.00171-0.00146,0.0033-0.00293,0.005-0.00439c0,0,0,0,0.00012,0
			c0.00061,0,0.0011-0.00049,0.00159-0.00098c-0.28162-0.57129-0.17078-1.27686,0.35449-1.68018
			c2.8136-2.16016,5.90015-3.94336,9.18091-5.30225c3.27979-1.35889,6.7218-2.28027,10.23743-2.74219
			c0.67712-0.08936,1.29614,0.34863,1.48328,0.98242V4.83694V3.96146l-0.65088-2.32812
			C18.41286,3.82278,1.41359,22.20413,1.41359,44.55667c0,23.82715,19.31592,43.14307,43.14307,43.14307
			s43.14307-19.31592,43.14307-43.14307C87.69972,22.20413,70.70045,3.82278,48.92506,1.63333z"/>
	</g>
	<g>
		<rect x="40.83901" y="4.8369" fill="#E3E3E3" width="7.43512" height="13.24099"/>
		<path opacity="0.58" fill="#FFFFFF" d="M40.83899,4.83692h7.43512V3.96137l0.67926-2.42981
			c0.03833-0.19482-0.01428-0.39795-0.14587-0.55762c-0.12616-0.15332-0.30927-0.25098-0.5155-0.27539
			c-1.23163-0.14453-2.48846-0.21826-3.73541-0.21826c-1.24756,0-2.50439,0.07373-3.73492,0.21826
			c-0.20673,0.02441-0.38989,0.12207-0.51599,0.27539c-0.13104,0.15918-0.18427,0.36279-0.14587,0.55762l0.6792,2.42981V4.83692z"/>
		<rect x="40.83901" y="3.96134" opacity="0.81" fill="#FFFFFF" width="7.43512" height="0.87556"/>
	</g>
</g>
</svg>
