<?xml version="1.0" encoding="utf-8"?>
<!-- Generator: Adobe Illustrator 16.0.0, SVG Export Plug-In . SVG Version: 6.00 Build 0)  -->
<!DOCTYPE svg PUBLIC "-//W3C//DTD SVG 1.1//EN" "http://www.w3.org/Graphics/SVG/1.1/DTD/svg11.dtd">
<svg version="1.1" id="Layer_1" xmlns="http://www.w3.org/2000/svg" xmlns:xlink="http://www.w3.org/1999/xlink" x="0px" y="0px"
	 width="39.686px" height="39.686px" viewBox="0 0 39.686 39.686" enable-background="new 0 0 39.686 39.686" xml:space="preserve">
<path d="M39.686,19.843c0,10.958-8.885,19.843-19.842,19.843C8.886,39.686,0,30.801,0,19.843S8.886,0.001,19.844,0.001
	C30.801,0.001,39.686,8.885,39.686,19.843"/>
<path fill="#FFFFFF" d="M31.043,19.842c0,6.186-5.014,11.201-11.199,11.201c-6.184,0-11.202-5.016-11.202-11.201
	c0-6.185,5.018-11.198,11.202-11.198C26.03,8.644,31.043,13.657,31.043,19.842"/>
<circle fill="none" stroke="#666666" stroke-width="0.666" stroke-miterlimit="10" cx="19.843" cy="19.844" r="15.7"/>
<path fill="#FFFFFF" d="M21.653,0.092C21.055,0.038,20.454,0,19.844,0c-0.742,0-1.471,0.049-2.191,0.128v8.979h4V0.092z"/>
</svg>
