<?xml version="1.0" encoding="utf-8"?>
<!-- Generator: Adobe Illustrator 25.0.0, SVG Export Plug-In . SVG Version: 6.00 Build 0)  -->
<svg version="1.0"
	 id="svg15246" xmlns:cc="http://creativecommons.org/ns#" xmlns:dc="http://purl.org/dc/elements/1.1/" xmlns:inkscape="http://www.inkscape.org/namespaces/inkscape" xmlns:rdf="http://www.w3.org/1999/02/22-rdf-syntax-ns#" xmlns:sodipodi="http://sodipodi.sourceforge.net/DTD/sodipodi-0.dtd" xmlns:svg="http://www.w3.org/2000/svg"
	 xmlns="http://www.w3.org/2000/svg" xmlns:xlink="http://www.w3.org/1999/xlink" x="0px" y="0px" width="59.52734px"
	 height="59.52736px" viewBox="0 0 59.52734 59.52736" enable-background="new 0 0 59.52734 59.52736" xml:space="preserve">
<sodipodi:namedview  bordercolor="#666666" borderopacity="1.0" fit-margin-bottom="0" fit-margin-left="0" fit-margin-right="0" fit-margin-top="0" id="base" inkscape:current-layer="layer1" inkscape:cx="25.325492" inkscape:cy="22.920973" inkscape:document-units="mm" inkscape:pageopacity="0.0" inkscape:pageshadow="2" inkscape:window-height="1434" inkscape:window-maximized="0" inkscape:window-width="1274" inkscape:window-x="1280" inkscape:window-y="0" inkscape:zoom="5.6" pagecolor="#ffffff" showgrid="false" units="px">
	</sodipodi:namedview>
<g>
	<path opacity="0.35" d="M29.76366,0.00002C13.32567,0.00002-0.00001,13.32571,0,29.7637s13.3257,29.76366,29.76369,29.76366
		s29.76366-13.3257,29.76366-29.76369S46.20164,0.00001,29.76366,0.00002z M29.76369,58.11378
		C14.10646,58.11379,1.41358,45.42093,1.41357,29.7637C1.41357,15.56766,11.84789,3.80911,25.46556,1.73781l-0.09863-0.35254
		c-0.03833-0.19482,0.01489-0.39844,0.14587-0.55762c0.1261-0.15332,0.3092-0.25098,0.51599-0.27539
		C27.25926,0.40773,28.5161,0.334,29.76366,0.334c1.24707,0,2.50391,0.07373,3.73547,0.21826
		c0.20618,0.02441,0.38928,0.12207,0.5155,0.27539c0.13159,0.15967,0.1842,0.36279,0.14587,0.55762L34.062,1.73781
		c13.61744,2.07128,24.05177,13.82982,24.05177,28.02587C58.11378,45.4209,45.42104,58.11378,29.76369,58.11378z"/>
	<path fill="#424242" d="M53.09118,20.33863l-0.78784,0.31836c-0.3844,0.15527-0.81445-0.02856-0.98206-0.40784
		c-0.69019-1.5614-1.54493-3.03308-2.54236-4.39416c-0.24548-0.33496-0.18945-0.79956,0.13757-1.05518l0.66846-0.52209
		c-3.9253-5.01697-9.70972-8.50476-16.32007-9.42565l-0.22205,1.57959c-1.07214-0.14929-2.16577-0.23218-3.27917-0.23218
		c-1.11328,0-2.20679,0.08289-3.27905,0.23218l-0.22192-1.57959c-6.61035,0.9209-12.39477,4.4087-16.32006,9.42554l0.66833,0.52222
		c0.32715,0.25549,0.38306,0.72021,0.1377,1.05493c-0.99756,1.36133-1.85229,2.83301-2.54236,4.39441
		c-0.16772,0.37927-0.59766,0.56311-0.98206,0.40784l-0.78796-0.31836c-1.17761,2.91187-1.83203,6.09119-1.83203,9.42505
		c0,3.33374,0.6543,6.51318,1.83204,9.4248l0.78784-0.31836c0.3844-0.15527,0.81445,0.02856,0.98206,0.40796
		c0.69019,1.5614,1.54492,3.03296,2.54248,4.39429c0.24536,0.33472,0.18945,0.79944-0.13769,1.05493l-0.66833,0.52222
		c3.9253,5.01709,9.70972,8.50488,16.32007,9.42553l0.11804-0.84033c0.05774-0.41101,0.43127-0.69238,0.84375-0.64722
		c0.83411,0.09094,1.68079,0.14013,2.53918,0.14013c0.85852,0,1.70508-0.04919,2.53931-0.14014
		c0.4126-0.04517,0.78601,0.23621,0.84375,0.64722l0.11816,0.84033c6.61035-0.92066,12.39465-4.40845,16.31994-9.42554
		l-0.66833-0.52209c-0.32703-0.25562-0.38306-0.72034-0.13757-1.05505c0.99744-1.36121,1.85217-2.83289,2.54235-4.39429
		c0.1676-0.37939,0.59766-0.56323,0.98206-0.40796l0.78784,0.31836c1.17761-2.91162,1.83191-6.09106,1.83191-9.4248
		C54.9231,26.42981,54.2688,23.25049,53.09118,20.33863z"/>
	<g opacity="0.32">
		<path fill="#171717" d="M10.61097,44.72732c0.32715-0.25549,0.38306-0.72021,0.13769-1.05493
			c-0.99756-1.36133-1.8523-2.83289-2.54248-4.39429c-0.1676-0.37939-0.59766-0.56323-0.98206-0.40796l-1.18848,0.48022
			c-0.0603,0.02441-0.1228,0.02051-0.18457,0.03406c0.91406,2.26941,2.14099,4.37732,3.62854,6.27307
			c0.0415-0.04492,0.06824-0.09937,0.1178-0.13818L10.61097,44.72732z"/>
		<path fill="#171717" d="M48.9165,14.79981c-0.32703,0.25562-0.38306,0.72021-0.13757,1.05518
			c0.99744,1.36108,1.85218,2.83276,2.54236,4.39416c0.1676,0.37927,0.59766,0.56311,0.98206,0.40784l1.18835-0.4801
			c0.0603-0.02429,0.12305-0.02039,0.18469-0.03406c-0.91394-2.26941-2.141-4.37732-3.62854-6.27307
			c-0.0415,0.04492-0.06812,0.09949-0.11768,0.13818L48.9165,14.79981z"/>
		<path fill="#171717" d="M33.14674,53.83473c-0.05774-0.41101-0.43115-0.69238-0.84375-0.64722
			c-0.83423,0.09094-1.68079,0.14014-2.53931,0.14014c-0.8584,0-1.70508-0.04919-2.53918-0.14013
			c-0.41248-0.04517-0.78601,0.23621-0.84375,0.64722l-0.17859,1.27124c-0.00903,0.0636-0.04333,0.11511-0.06201,0.17468
			c1.18445,0.16675,2.39307,0.25866,3.62354,0.25866c1.23059,0,2.43921-0.09192,3.62378-0.25867
			c-0.0188-0.05957-0.0531-0.11108-0.06201-0.17468L33.14674,53.83473z"/>
		<path fill="#171717" d="M7.22424,20.65701c0.3844,0.15527,0.81433-0.02856,0.98206-0.40784
			c0.69006-1.5614,1.5448-3.03308,2.54236-4.39441c0.24536-0.33472,0.18945-0.79944-0.1377-1.05493L9.5974,14.00796
			c-0.04956-0.0387-0.07629-0.09326-0.1178-0.13818c-1.48755,1.89575-2.71448,4.00366-3.62854,6.27307
			c0.06177,0.01367,0.12427,0.00977,0.18457,0.03406L7.22424,20.65701z"/>
		<path fill="#171717" d="M52.30335,38.87012c-0.3844-0.15527-0.81445,0.02856-0.98206,0.40796
			c-0.69019,1.56141-1.54492,3.03308-2.54235,4.39429c-0.24548,0.33472-0.18945,0.79944,0.13757,1.05505l1.01367,0.79187
			c0.04956,0.03882,0.07617,0.09326,0.11768,0.13818c1.48755-1.89576,2.7146-4.00367,3.62854-6.27308
			c-0.06165-0.01355-0.12439-0.00964-0.18469-0.03406L52.30335,38.87012z"/>
	</g>
	<g opacity="0.4">
		<path d="M26.04613,3.98537c-0.23438-0.38574-0.68469-0.61597-1.15405-0.52917c-2.99023,0.55371-5.86719,1.61389-8.50574,3.13709
			c-2.63855,1.52344-4.99499,3.48487-6.9696,5.79749c-0.41418,0.48511-0.32202,1.22449,0.18067,1.61719l0.34521,0.26965
			c3.88208-4.96167,9.58398-8.42334,16.10351-9.3899V4.69057L26.04613,3.98537z"/>
		<path d="M9.94263,45.24954l-0.34521,0.26978c-0.50269,0.39282-0.59485,1.13208-0.18066,1.61719
			c1.97461,2.31274,4.33106,4.27417,6.96961,5.79736c2.63855,1.52344,5.51538,2.58349,8.5055,3.1372
			c0.6272,0.11621,1.22144-0.33337,1.3103-0.96509l0.06054-0.43091C19.65236,53.75442,13.86793,50.26662,9.94263,45.24954z"/>
		<path d="M54.98266,20.82911c-0.21313-0.60132-0.89941-0.89111-1.49097-0.65222l-0.40051,0.16174
			c1.17761,2.91187,1.83191,6.09119,1.83191,9.42505c0,3.33374-0.65429,6.51318-1.83191,9.4248l0.40051,0.16187
			c0.59155,0.23901,1.27783-0.05078,1.49097-0.6521c1.01538-2.86646,1.53588-5.88794,1.53588-8.93457
			S55.99804,23.69532,54.98266,20.82911z"/>
		<path d="M43.1411,6.59327c-2.63843-1.52319-5.51538-2.58337-8.50562-3.13708c-0.46942-0.08679-0.91992,0.14343-1.15424,0.52942
			v0.70496v0.19714c6.51953,0.96655,12.22156,4.42822,16.1037,9.39001l0.34521-0.26978
			c0.50269-0.3927,0.59473-1.13208,0.18066-1.61707C48.13622,10.07813,45.77953,8.11671,43.1411,6.59327z"/>
		<path d="M6.03564,20.17691c-0.59131-0.23889-1.27759,0.0509-1.49072,0.65198c-1.01562,2.86646-1.53589,5.88818-1.53588,8.93481
			s0.52027,6.06812,1.53589,8.93457c0.21314,0.60132,0.89941,0.89111,1.49072,0.6521l0.40063-0.16187
			c-1.17774-2.91162-1.83203-6.09106-1.83204-9.4248c0-3.33386,0.65442-6.51318,1.83203-9.42505L6.03564,20.17691z"/>
		<path d="M49.58485,45.24952c-3.92529,5.01709-9.70959,8.50489-16.31994,9.42554l0.06055,0.43091
			c0.08875,0.63171,0.68286,1.0813,1.31018,0.96509c2.99011-0.55371,5.86707-1.61377,8.50549-3.13721
			c2.63855-1.5232,4.99512-3.48462,6.96972-5.79737c0.41406-0.48511,0.3219-1.22449-0.18066-1.61719L49.58485,45.24952z"/>
	</g>
	<g>
		<path fill="#333333" d="M34.06194,1.73781l-0.58068,2.07715v0.24902C33.7,3.64064,34.14244,3.365,34.63549,3.45619
			c2.99023,0.55371,5.86719,1.61389,8.50562,3.13708c2.63843,1.52344,4.99512,3.48486,6.96973,5.7976
			c0.37329,0.43713,0.31641,1.0686-0.06299,1.47888c1.48755,1.89575,2.7146,4.00366,3.62854,6.27307
			c0.54309-0.11975,1.11487,0.14624,1.30627,0.68628c1.01538,2.86621,1.53589,5.88794,1.53589,8.93457
			s-0.5205,6.06812-1.53588,8.93457c-0.19141,0.53992-0.76318,0.80591-1.30627,0.68616
			c-0.91394,2.26941-2.14099,4.37732-3.62854,6.27308c0.37927,0.41028,0.43628,1.04175,0.06299,1.479
			c-1.97461,2.31274-4.33117,4.27417-6.96972,5.79737c-2.63843,1.52344-5.51538,2.5835-8.50549,3.13721
			c-0.56409,0.10449-1.08118-0.25879-1.24817-0.79041c-1.18457,0.16675-2.39319,0.25867-3.62378,0.25867
			c-1.23047,0-2.43909-0.09192-3.62354-0.25866c-0.16711,0.53162-0.6842,0.8949-1.24829,0.79041
			c-2.99011-0.55371-5.86695-1.61377-8.5055-3.1372c-2.63855-1.52319-4.995-3.48462-6.96961-5.79736
			c-0.37329-0.43726-0.31629-1.0686,0.06287-1.479c-1.48755-1.89575-2.71448-4.00366-3.62854-6.27307
			c-0.54321,0.11975-1.11475-0.14624-1.30615-0.68616c-1.01563-2.86645-1.53589-5.88794-1.53589-8.93457
			s0.52026-6.06836,1.53588-8.93481c0.19141-0.53979,0.76294-0.80579,1.30615-0.68604
			c0.91406-2.26941,2.14099-4.37732,3.62854-6.27307c-0.37927-0.41028-0.43616-1.04175-0.06287-1.479
			c1.97461-2.31262,4.33105-4.27405,6.9696-5.79749c2.63855-1.52319,5.5155-2.58338,8.50574-3.13709
			c0.4928-0.09119,0.93512,0.18433,1.15405,0.60742V3.81496L25.4655,1.73781C11.84801,3.80911,1.41357,15.56766,1.41357,29.7637
			c0.00001,15.65723,12.69289,28.35009,28.35011,28.35008c15.65747-0.00001,28.35009-12.69288,28.35008-28.35011
			C58.11376,15.56763,47.67955,3.80909,34.06194,1.73781z"/>
	</g>
	<g>
		<rect x="26.04613" y="4.69054" fill="#5E5E5E" width="7.43512" height="13.24099"/>
		<path opacity="0.58" fill="#5E5E5E" d="M34.16052,1.38514c0.03833-0.19482-0.01428-0.39795-0.14587-0.55762
			c-0.12616-0.15332-0.30927-0.25098-0.5155-0.27539c-1.23163-0.14453-2.48847-0.21826-3.73541-0.21826
			c-1.24756,0-2.50439,0.07373-3.73492,0.21826c-0.20673,0.02441-0.38989,0.12207-0.51599,0.27539
			c-0.13104,0.15918-0.18427,0.36279-0.14587,0.55762l0.6792,2.42993l7.43512-0.00024v0.00024L34.16052,1.38514z"/>
		<rect x="26.04612" y="3.81498" opacity="0.58" fill="#919191" width="7.43512" height="0.87556"/>
	</g>
</g>
</svg>
