<?xml version="1.0" encoding="utf-8"?>
<!-- Generator: Adobe Illustrator 25.2.3, SVG Export Plug-In . SVG Version: 6.00 Build 0)  -->
<svg version="1.0"
	 id="svg15246" xmlns:cc="http://creativecommons.org/ns#" xmlns:dc="http://purl.org/dc/elements/1.1/" xmlns:inkscape="http://www.inkscape.org/namespaces/inkscape" xmlns:rdf="http://www.w3.org/1999/02/22-rdf-syntax-ns#" xmlns:sodipodi="http://sodipodi.sourceforge.net/DTD/sodipodi-0.dtd" xmlns:svg="http://www.w3.org/2000/svg"
	 xmlns="http://www.w3.org/2000/svg" xmlns:xlink="http://www.w3.org/1999/xlink" x="0px" y="0px" width="39.6836px"
	 height="39.68359px" viewBox="0 0 39.6836 39.68359" enable-background="new 0 0 39.6836 39.68359" xml:space="preserve">
<sodipodi:namedview  bordercolor="#666666" borderopacity="1.0" fit-margin-bottom="0" fit-margin-left="0" fit-margin-right="0" fit-margin-top="0" id="base" inkscape:current-layer="layer1" inkscape:cx="34.656219" inkscape:cy="23.675099" inkscape:document-units="mm" inkscape:pageopacity="0.0" inkscape:pageshadow="2" inkscape:window-height="1434" inkscape:window-maximized="0" inkscape:window-width="1274" inkscape:window-x="1280" inkscape:window-y="0" inkscape:zoom="5.6" pagecolor="#ffffff" showgrid="false" units="px">
	</sodipodi:namedview>
<g>
	<path fill="#424242" d="M34.43672,19.8417c0-0.6795-0.04748-1.35828-0.14202-2.03119l-0.41997,0.05901
		c-0.38271,0.05377-0.75137-0.19516-0.82345-0.57485c-0.21154-1.11427-0.55624-2.18064-1.02394-3.17908
		c-0.15957-0.34065-0.01106-0.74719,0.32108-0.92379l0.37996-0.20203c-1.04088-1.95759-2.5142-3.65254-4.30789-4.95571
		s-3.86089-2.18069-6.04436-2.56571l-0.07595,0.43075c-0.06618,0.37534-0.41377,0.6375-0.79166,0.58796
		c-0.54597-0.07158-1.10119-0.11308-1.66676-0.11308c-0.56562,0-1.12085,0.04149-1.66683,0.11306
		c-0.37789,0.04954-0.72548-0.21263-0.79165-0.58796l-0.07594-0.4307c-2.18341,0.38494-4.25068,1.26243-6.04433,2.56558
		c-1.79371,1.30321-3.26711,2.99809-4.30795,4.95566l0.37989,0.20199c0.33214,0.1766,0.48066,0.58314,0.32109,0.92379
		c-0.46769,0.99845-0.81243,2.06484-1.02399,3.17912c-0.07209,0.37969-0.44075,0.62861-0.82347,0.57483l-0.4199-0.05901
		c-0.09455,0.67291-0.14204,1.35168-0.14204,2.03119C5.24663,23.6229,6.7161,27.26005,9.34285,29.98016l0.3138-0.30304
		c0.27206-0.26273,0.707-0.27847,0.98315-0.02003c0.81371,0.76151,1.72267,1.42047,2.7064,1.96266
		c0.33423,0.18421,0.45507,0.60638,0.28777,0.94938l-0.19043,0.39043c1.99273,0.97187,4.18096,1.47708,6.39806,1.47709
		c2.2171,0.00002,4.40534-0.50516,6.39802-1.47701l-0.1904-0.39042c-0.16728-0.34302-0.04643-0.76518,0.28781-0.94939
		c0.98372-0.54217,1.89263-1.20109,2.70636-1.96261c0.27616-0.25844,0.71112-0.24271,0.9832,0.02003l0.31383,0.30304
		C32.96713,27.26021,34.4367,23.62307,34.43672,19.8417z"/>
	<g opacity="0.32">
		<g>
			<path d="M32.02736,14.11555c0.04254,0.09076,0.07007,0.18927,0.11053,0.28113c0.13385,0.30274,0.25311,0.61267,0.36443,0.92676
				c0.07318,0.20734,0.14337,0.41498,0.20654,0.62683c0.10876,0.36316,0.2033,0.73206,0.2821,1.1073
				c0.01678,0.08038,0.04498,0.15619,0.06036,0.23706c0.07208,0.3797,0.44073,0.62866,0.82342,0.57489l0.41998-0.05902
				c0.00031,0.00208,0.00037,0.00427,0.00067,0.00635l1.08002-0.15179c-0.25621-1.85193-0.82322-3.60328-1.66678-5.19007
				l-0.98645,0.52453c0.00189,0.00354,0.00433,0.00665,0.00623,0.01019l-0.45337,0.24109
				C32.00142,13.44636,31.88161,13.80433,32.02736,14.11555z"/>
		</g>
		<g>
			<path d="M5.80859,17.8693c0.38275,0.05384,0.7514-0.19512,0.82349-0.57482c0.01538-0.08093,0.04364-0.15674,0.06043-0.23712
				c0.07855-0.37427,0.17292-0.74212,0.28132-1.10437c0.06366-0.21368,0.13434-0.42309,0.20819-0.6322
				c0.11115-0.31329,0.23004-0.62256,0.36359-0.92456c0.04047-0.0918,0.06799-0.19012,0.11048-0.28082
				c0.14575-0.31128,0.026-0.66919-0.24768-0.86481L6.9551,13.00957c0.00189-0.00354,0.00433-0.00665,0.00623-0.01019
				l-0.98645-0.52454c-0.84358,1.58679-1.4106,3.33813-1.66684,5.19011l1.08002,0.1518
				c0.00031-0.00214,0.00037-0.00427,0.00067-0.00641L5.80859,17.8693z"/>
		</g>
		<g>
			<path d="M13.634,32.56911c0.16345-0.33514,0.04847-0.74249-0.26849-0.93304c-0.9953-0.54725-1.91228-1.21254-2.73369-1.98396
				c-0.25696-0.23371-0.64062-0.22718-0.91089-0.0171l-0.37805,0.36511c-0.00226-0.00232-0.00415-0.005-0.00641-0.00732
				l-0.77271,0.74615c1.2647,1.30732,2.75615,2.38661,4.40855,3.19326l0.47388-0.97155
				c-0.00085-0.00043-0.00177-0.00067-0.00262-0.0011L13.634,32.56911z"/>
		</g>
		<g>
			<path d="M29.0515,29.65222c-0.82136,0.77136-1.73835,1.4367-2.73359,1.98387c-0.31702,0.19049-0.43213,0.59796-0.26868,0.9331
				l0.19043,0.39044c-0.00085,0.00043-0.00177,0.00067-0.00262,0.0011l0.47387,0.97156
				c1.65241-0.80663,3.14393-1.88591,4.40865-3.19321c-0.21863-0.21106-0.47217-0.45594-0.7727-0.74616
				c-0.00226,0.00238-0.00415,0.00494-0.00641,0.00732l-0.37799-0.36505C29.69231,29.42505,29.30846,29.41845,29.0515,29.65222z"/>
		</g>
	</g>
	<path fill="#333333" d="M23.05357,1.60252l-0.43599,2.20123l0,0.32941c0.08862-0.37518,0.45539-0.6286,0.836-0.54394
		c2.22162,0.49409,4.3211,1.4396,6.16649,2.78037c1.84545,1.34077,3.39341,3.04537,4.54977,5.00558
		c0.20532,0.34796,0.0664,0.79944-0.29035,0.98907l-0.17084,0.09082c0.84356,1.5868,1.41056,3.33814,1.66678,5.19007
		l0.21173-0.02979c0.39954-0.05609,0.77631,0.22657,0.81469,0.62818c0.05041,0.52661,0.07568,1.05542,0.07568,1.58472
		c-0.00003,4.06311-1.48864,7.98022-4.16755,11.0131c-0.26789,0.30334-0.74073,0.31213-1.0318,0.031
		c-0.04639-0.0448-0.10687-0.10321-0.15863-0.1532c-1.26472,1.30731-2.75618,2.38658-4.40859,3.19321l0.09918,0.20343
		c0.17749,0.36395,0.02374,0.81281-0.34772,0.974c-2.08716,0.90538-4.34058,1.37418-6.6208,1.37417
		c-2.28027-0.00002-4.53369-0.46884-6.62078-1.37424c-0.37152-0.1612-0.52526-0.61005-0.34777-0.974l0.09924-0.20343
		c-1.6524-0.80665-3.14385-1.88594-4.40855-3.19326l-0.15741,0.15204c-0.29114,0.28113-0.76514,0.27349-1.03308-0.02979
		c-2.67888-3.03297-4.16738-6.9501-4.16735-11.01321c0-0.52924,0.02521-1.05811,0.07563-1.58472
		c0.03845-0.40161,0.41517-0.68426,0.8147-0.62811l0.21179,0.02979c0.25624-1.85199,0.82326-3.60333,1.66684-5.19012
		l-0.17084-0.09082c-0.35675-0.18964-0.49566-0.64112-0.2904-0.98914C6.6701,9.4148,8.21809,7.71022,10.06349,6.36948
		c1.84547-1.34081,3.94496-2.28623,6.16658-2.7803c0.38056-0.08465,0.74725,0.16858,0.83594,0.54377l0-0.32922l-0.4359-2.20124
		c-8.6396,1.52192-15.20934,9.04709-15.2094,18.12308C1.42065,29.89921,9.66798,38.14663,19.84162,38.14669
		s18.42107-8.24726,18.42113-18.42091C38.26281,10.64973,31.69315,3.12449,23.05357,1.60252z"/>
	<path opacity="0.35" d="M19.8419,0C8.88359-0.00006,0.00006,8.8832,0,19.84169
		c-0.00006,10.95825,8.88338,19.84172,19.84169,19.84178s19.84184-8.88332,19.8419-19.84157
		C39.68365,8.88341,30.80021,0.00006,19.8419,0z M19.84164,38.14673C9.66799,38.14668,1.42066,29.89932,1.42078,19.72549
		C1.42083,10.64956,7.99057,3.12445,16.63016,1.60252l-0.07123-0.35986c-0.02869-0.14526,0.01105-0.29736,0.10889-0.41626
		c0.03558-0.04321,0.08215-0.07422,0.12854-0.10498l0.02997-0.02759c0.98212-0.15527,1.98926-0.23607,3.01557-0.23607
		c1.02106,0.00001,2.02307,0.07984,3.00036,0.23366l0.04523,0.03027c0.04633,0.03052,0.09283,0.06152,0.12842,0.10474
		c0.09827,0.11939,0.13757,0.271,0.10895,0.41626l-0.07123,0.35986c8.63958,1.52202,15.20924,9.0472,15.20919,18.12337
		C38.2627,29.89951,30.01528,38.14678,19.84164,38.14673z"/>
	<rect x="17.06594" y="4.63655" fill="#005FCF" width="5.55161" height="9.97181"/>
	<path opacity="0.58" fill="#005FCF" d="M23.12478,1.20007c0.02866-0.14547-0.01064-0.29714-0.10891-0.41636
		c-0.09417-0.11448-0.23093-0.1874-0.38488-0.20563c-0.91962-0.10792-1.85808-0.16298-2.78916-0.16299
		c-0.9315-0.00001-1.86995,0.05504-2.78876,0.16295c-0.15436,0.01823-0.29112,0.09114-0.38529,0.20562
		c-0.09786,0.11885-0.13758,0.27089-0.10892,0.41636L17.066,3.76097V3.75586l5.55161,0.00003V3.761L23.12478,1.20007z"/>
	<path opacity="0.4" d="M5.80406,12.36408c-0.35675-0.18964-0.49566-0.64112-0.2904-0.98914
		C6.6701,9.4148,8.21809,7.71022,10.06349,6.36948c1.84547-1.34081,3.94496-2.28623,6.16658-2.7803
		c0.38056-0.08465,0.74725,0.16858,0.83594,0.54377L17.066,5.52522c-2.0932,0.40593-4.07642,1.25431-5.80299,2.50875
		C9.4693,9.33718,7.9959,11.03206,6.95505,12.98964L5.80406,12.36408z M5.38801,17.81677
		c-0.09388,0.67078-0.14137,1.34741-0.14137,2.02478c-0.00002,3.78137,1.46944,7.41853,4.09619,10.13864l-0.93647,0.89086
		c-0.29114,0.28113-0.76514,0.27349-1.03308-0.02979c-2.67888-3.03297-4.16738-6.9501-4.16735-11.01321
		c0-0.52924,0.02521-1.05811,0.07563-1.58472c0.03845-0.40161,0.41517-0.68426,0.8147-0.62811L5.38801,17.81677z M26.2396,32.95966
		c-1.99268,0.97185-4.18092,1.47702-6.39802,1.47701c-2.21613-0.00001-4.40326-0.50491-6.39538-1.47599l-0.57313,1.15503
		c-0.17749,0.36395-0.02375,0.81281,0.34777,0.974c2.08709,0.90541,4.34051,1.37423,6.62078,1.37424
		c2.28021,0.00002,4.53363-0.46878,6.6208-1.37417c0.37146-0.16119,0.52521-0.61004,0.34772-0.974l-0.57049-1.15613
		c-0.00085,0.00043-0.00177,0.00067-0.00262,0.0011 M32.72837,12.98979c-1.04088-1.95759-2.5142-3.65254-4.3079-4.95571
		c-1.72655-1.25441-3.7097-2.10281-5.8029-2.50882l0.00001-1.39209c0.08862-0.37518,0.45539-0.6286,0.836-0.54394
		c2.22162,0.49409,4.3211,1.4396,6.16649,2.78037c1.84545,1.34077,3.39341,3.04537,4.54977,5.00558
		c0.20532,0.34796,0.0664,0.79944-0.29035,0.98907L32.72837,12.98979z M34.29542,17.81688 M30.34039,29.98031
		c2.62672-2.72008,4.09629-6.35721,4.09631-10.13859c0-0.6795-0.04748-1.35828-0.14202-2.03119l1.29248-0.19518
		c0.39954-0.05609,0.77631,0.22657,0.81469,0.62818c0.05041,0.52661,0.07568,1.05542,0.07568,1.58472
		c-0.00003,4.06311-1.48864,7.98022-4.16755,11.0131c-0.26789,0.30334-0.74073,0.31213-1.0318,0.031L30.34039,29.98031z"/>
	<rect x="17.06598" y="3.76099" opacity="0.48" fill="#1D6FCF" width="5.55161" height="0.87556"/>
</g>
</svg>
