<?xml version="1.0" encoding="utf-8"?>
<!-- Generator: Adobe Illustrator 16.0.0, SVG Export Plug-In . SVG Version: 6.00 Build 0)  -->
<!DOCTYPE svg PUBLIC "-//W3C//DTD SVG 1.1//EN" "http://www.w3.org/Graphics/SVG/1.1/DTD/svg11.dtd">
<svg version="1.1" id="Layer_1" xmlns="http://www.w3.org/2000/svg" xmlns:xlink="http://www.w3.org/1999/xlink" x="0px" y="0px"
	 width="59.527px" height="59.527px" viewBox="0 0 59.527 59.527" enable-background="new 0 0 59.527 59.527" xml:space="preserve">
<path d="M59.527,29.763c0,16.437-13.325,29.765-29.765,29.765C13.328,59.527,0,46.199,0,29.763S13.328,0,29.762,0
	C46.202,0,59.527,13.326,59.527,29.763"/>
<path fill="#555555" d="M51.733,29.763c0,12.133-9.836,21.97-21.97,21.97c-12.131,0-21.969-9.837-21.969-21.97
	c0-12.132,9.838-21.968,21.969-21.968C41.897,7.795,51.733,17.631,51.733,29.763"/>
<path fill="none" stroke="#666666" stroke-width="0.5" stroke-miterlimit="10" d="M55.859,29.764
	c0,14.412-11.683,26.096-26.097,26.096c-14.409,0-26.094-11.684-26.094-26.096S15.353,3.668,29.762,3.668
	C44.176,3.668,55.859,15.352,55.859,29.764z"/>
<path fill="#555555" d="M32.263,0.112C31.438,0.045,30.606,0,29.763,0s-1.675,0.045-2.5,0.112v10.101h5V0.112z"/>
</svg>
