<?xml version="1.0" encoding="utf-8"?>
<!-- Generator: Adobe Illustrator 25.0.0, SVG Export Plug-In . SVG Version: 6.00 Build 0)  -->
<svg version="1.0"
	 id="svg15246" xmlns:cc="http://creativecommons.org/ns#" xmlns:dc="http://purl.org/dc/elements/1.1/" xmlns:inkscape="http://www.inkscape.org/namespaces/inkscape" xmlns:rdf="http://www.w3.org/1999/02/22-rdf-syntax-ns#" xmlns:sodipodi="http://sodipodi.sourceforge.net/DTD/sodipodi-0.dtd" xmlns:svg="http://www.w3.org/2000/svg"
	 xmlns="http://www.w3.org/2000/svg" xmlns:xlink="http://www.w3.org/1999/xlink" x="0px" y="0px" width="41.76172px"
	 height="41.76172px" viewBox="0 0 41.76172 41.76172" enable-background="new 0 0 41.76172 41.76172" xml:space="preserve">
<g>
	<g opacity="0.32">
		<g>
			<path d="M7.11227,32.26228c0.22996-0.19291,0.25918-0.5301,0.07438-0.76664c-0.14661-0.18763-0.28045-0.38502-0.41912-0.57884
				c-0.27376-0.38048-0.52931-0.77322-0.77231-1.17589c-0.06865-0.11484-0.14213-0.22621-0.20823-0.34275
				c-0.18309-0.31989-0.35081-0.64817-0.51382-0.98031c-0.02559-0.05271-0.05118-0.10542-0.07631-0.15847
				c-0.17169-0.35904-0.3356-0.72136-0.48289-1.09345c-0.1196-0.26247-0.41322-0.39818-0.68726-0.29838l-1.51728,0.55223
				c0.78514,2.15966,1.92239,4.14843,3.36943,5.87746l1.11359-0.93441L7.11227,32.26228z"/>
		</g>
		<g>
			<path d="M23.32031,38.00073c-0.02525,0.00368-0.05118,0.00505-0.07648,0.00862c-0.3036,0.04085-0.60743,0.07824-0.9158,0.10326
				c-0.46956,0.04261-0.94281,0.07195-1.42372,0.07195c-0.49867,0-0.98962-0.0299-1.47649-0.07461
				c-0.29509-0.02485-0.58548-0.06332-0.87626-0.10264c-0.06775-0.00959-0.13713-0.01368-0.20465-0.02394
				c-0.29963-0.04556-0.58173,0.15053-0.63433,0.44897l-0.06099,0.34604l-0.21566,1.22292
				c1.12761,0.20182,2.28278,0.32483,3.46843,0.32483c1.13544,0,2.24137-0.11733,3.32392-0.30275L23.951,38.45072
				C23.89863,38.15369,23.6188,37.95744,23.32031,38.00073z"/>
		</g>
		<g>
			<path d="M34.62246,9.17854c-0.23104,0.19387-0.25935,0.53305-0.07206,0.76948c0.0914,0.11541,0.17305,0.23836,0.26151,0.35614
				c0.37629,0.49946,0.72556,1.0185,1.04726,1.55773c0.03767,0.06366,0.07819,0.12528,0.11507,0.18939
				c0.19432,0.33538,0.37436,0.6787,0.5465,1.0278c0.01481,0.03018,0.02922,0.0606,0.04386,0.09095
				c0.18088,0.37226,0.35455,0.74769,0.50911,1.13413c0.12312,0.25481,0.41078,0.38576,0.68051,0.28755l1.53748-0.55955
				c-0.79336-2.17464-1.94633-4.17346-3.41039-5.90997l-0.98434,0.82599L34.62246,9.17854z"/>
		</g>
		<g>
			<path d="M4.03522,14.6387c0.27274,0.09929,0.5646-0.03489,0.68533-0.29509c0.14837-0.37367,0.31393-0.73714,0.48692-1.09759
				c0.02326-0.04891,0.04675-0.09753,0.07047-0.14616c0.16426-0.33418,0.33373-0.66417,0.51836-0.98582
				c0.05969-0.10497,0.12584-0.20539,0.18763-0.30894c0.25356-0.42133,0.52176-0.83126,0.80897-1.22837
				c0.13436-0.18678,0.26366-0.37753,0.40545-0.55858c0.18519-0.23643,0.15609-0.5739-0.07387-0.76698l-0.27694-0.2324
				L5.86319,8.19278c-1.44602,1.73203-2.58094,3.72432-3.36358,5.88699l1.25362,0.45628L4.03522,14.6387z"/>
		</g>
		<g>
			<path d="M37.76283,26.91458c-0.27098-0.09867-0.56034,0.0337-0.6825,0.29067c-0.15342,0.38485-0.32545,0.75887-0.50491,1.12965
				c-0.01617,0.0337-0.03217,0.06735-0.04857,0.10088c-0.17129,0.34809-0.34996,0.69067-0.54332,1.02514
				c-0.03852,0.06718-0.08102,0.13163-0.1204,0.19818c-0.30814,0.51694-0.64159,1.01515-0.99994,1.49566
				c-0.10128,0.13634-0.19586,0.27785-0.30111,0.41101c-0.18689,0.23648-0.15847,0.57526,0.0724,0.76896l0.27325,0.22928
				l-0.00006,0.00006l0.95796,0.8038c1.46514-1.73351,2.62032-3.7288,3.41623-5.90044l-1.1823-0.4303L37.76283,26.91458z"/>
		</g>
	</g>
	<g opacity="0.4">
		<g>
			<path d="M36.28105,6.78129c-1.45514-1.6095-3.15399-2.98279-5.03576-4.06921c-1.88171-1.08643-3.92047-1.87097-6.04187-2.32642
				c-0.21606-0.04639-0.42651,0.0127-0.59155,0.13599c0.06281,0.10657,0.08783,0.23657,0.05432,0.36548L24.19414,2.7039V2.69926
				h-0.00012v0.06396c4.26428,0.77502,8.01629,3.00623,10.70294,6.18494h0.00006l0.98431-0.82593l0.31573-0.26501
				C36.52055,7.58586,36.56425,7.0944,36.28105,6.78129z"/>
		</g>
		<path d="M40.65529,14.35908c-0.12993-0.40301-0.57991-0.6122-0.97782-0.46735l-0.38576,0.14043l-1.19893,0.43637
			c0.72006,1.96534,1.13305,4.0787,1.13305,6.29346c0,2.20789-0.4105,4.31496-1.1263,6.27513h0.00006l1.1823,0.4303l0.39557,0.144
			c0.3979,0.14479,0.84789-0.06434,0.97782-0.46735c0.66548-2.06395,1.00511-4.22077,1.00511-6.39252
			C41.6604,18.57986,41.32077,16.42303,40.65529,14.35908z"/>
		<path d="M2.49964,14.07976v0.00006l-0.51671-0.18809c-0.39784-0.14485-0.84783,0.06434-0.97782,0.46735
			C0.33963,16.42303,0,18.57986,0,20.75155c0,2.17175,0.33963,4.32858,1.00511,6.39252
			c0.12999,0.40301,0.57997,0.61214,0.97782,0.46735l0.52653-0.19166l1.18224-0.4303
			c-0.70474-1.94678-1.10888-4.03745-1.10888-6.22747c0-2.19688,0.40664-4.29391,1.11563-6.24586L2.49964,14.07976z"/>
		<path d="M35.86566,33.36786l-0.95796-0.8038l0.00006-0.00006H34.9077c-2.72585,3.23093-6.54923,5.49215-10.895,6.23644
			l0.2156,1.22293l0.08528,0.48352c0.07331,0.41578,0.47705,0.69929,0.88982,0.61067
			c2.12137-0.45555,4.16018-1.24006,6.04189-2.32647c1.88176-1.08647,3.5806-2.45986,5.03576-4.06923
			c0.28318-0.31319,0.23949-0.80454-0.08397-1.07592L35.86566,33.36786z"/>
		<path d="M6.83672,32.49348l-0.95785,0.80375v0.00006l-0.41555,0.34865c-0.32346,0.27138-0.36715,0.76273-0.08397,1.07592
			c1.45515,1.60937,3.15399,2.98276,5.03575,4.06923c1.88171,1.08641,3.92052,1.87093,6.04189,2.32647
			c0.41282,0.08862,0.81651-0.19489,0.88982-0.61067l0.08914-0.50559l0.21566-1.22293l-0.00006,0.00006
			C13.33245,38.00322,9.53659,35.72741,6.83672,32.49348z"/>
		<g>
			<path d="M17.09556,0.88713c-0.02631-0.10107-0.00928-0.19983,0.02582-0.29077c-0.17218-0.16956-0.41174-0.26501-0.66437-0.21069
				c-2.12134,0.45544-4.16016,1.23999-6.04187,2.32642C8.53337,3.79851,6.83452,5.1718,5.37938,6.78129
				c-0.2832,0.31311-0.2395,0.80457,0.08398,1.07593L5.8632,8.19279l0.98431,0.82593
				c2.68146-3.20605,6.44183-5.46509,10.72003-6.25391V2.70366L17.09556,0.88713z"/>
		</g>
	</g>
	<g>
		<path fill="#333333" d="M13.63097,40.28798c0.36987,0.13765,0.74406,0.2661,1.12352,0.38298
			C14.37588,40.55544,14.00227,40.42484,13.63097,40.28798z"/>
		<path fill="#333333" d="M12.55092,39.84849c0.12465,0.0547,0.24919,0.10939,0.37515,0.16159
			C12.80011,39.95834,12.67585,39.90273,12.55092,39.84849z"/>
		<path fill="#333333" d="M15.14247,40.78115c0.38355,0.10996,0.77135,0.20948,1.16352,0.29776
			C15.91478,40.99187,15.52743,40.89042,15.14247,40.78115z"/>
		<path fill="#333333" d="M5.46336,33.64593l0.41555-0.3486c-1.44704-1.72914-2.58429-3.71791-3.36943-5.87757l-0.52653,0.19166
			c-0.31989,0.11642-0.66508-0.00284-0.85895-0.26088c0.89583,2.68006,2.31898,5.11695,4.14929,7.18821
			C5.13269,34.23895,5.1964,33.86993,5.46336,33.64593z"/>
		<path fill="#333333" d="M1.0992,14.19567c0.18616-0.28653,0.54763-0.42633,0.88375-0.304l0.51671,0.18814
			C3.2823,11.9172,4.41723,9.9248,5.86324,8.19271L5.46336,7.85728C5.16821,7.60956,5.11964,7.18437,5.32628,6.87299
			C3.45337,8.97603,2.00213,11.46058,1.0992,14.19567z"/>
		<g>
			<path fill="#333333" d="M24.35234,0.16789l-0.03937,0.13586c0.13501,0.03088,0.24103,0.11682,0.30389,0.23108
				c0.16235-0.12817,0.36804-0.19617,0.58655-0.14917c2.1214,0.45544,4.16022,1.23999,6.04187,2.32642
				c1.88183,1.08643,3.58056,2.45972,5.03576,4.06921c0.28326,0.31323,0.23944,0.80457-0.08392,1.07605l-0.31573,0.26477
				c1.46411,1.73669,2.617,3.73547,3.4104,5.91003l0.38574-0.1405c0.39795-0.14478,0.84784,0.06445,0.97778,0.46741
				c0.66541,2.06397,1.00519,4.2207,1.00519,6.39246s-0.33978,4.32861-1.00519,6.39246
				c-0.12994,0.40308-0.57983,0.6123-0.97778,0.46753l-0.39557-0.14404c-0.79596,2.17163-1.95111,4.16687-3.4162,5.90039
				l0.33136,0.27808c0.32336,0.27148,0.36719,0.76282,0.08392,1.07593c-1.4552,1.60938-3.15393,2.98267-5.03576,4.06934
				c-1.88165,1.08643-3.92047,1.87085-6.04187,2.32642c-0.41272,0.0885-0.81647-0.19495-0.88977-0.61072l-0.08527-0.48352
				c-1.08258,0.18542-2.18854,0.30273-3.32397,0.30273c-1.18561,0-2.34082-0.12305-3.46838-0.32495l-0.08917,0.50574
				c-0.07227,0.41003-0.46637,0.68811-0.87329,0.61072c1.42841,0.30908,2.90979,0.47607,4.43079,0.47607
				c11.51922,0,20.85736-9.33813,20.85736-20.85718C41.7617,10.39225,34.22996,1.81193,24.35234,0.16789z"/>
		</g>
		<path fill="#333333" d="M8.85979,3.71361c-0.2745,0.1945-0.54389,0.39535-0.80834,0.60267
			C8.31675,4.10998,8.58461,3.90686,8.85979,3.71361z"/>
		<path fill="#333333" d="M7.20248,5.01835C7.08333,5.12229,6.96225,5.22408,6.84549,5.33063
			C6.96265,5.22442,7.08293,5.12184,7.20248,5.01835z"/>
		<g>
			<path fill="#333333" d="M10.33409,2.7631c0.05713-0.03345,0.11493-0.06604,0.17236-0.09912
				c-0.02991,0.01709-0.06146,0.03088-0.09131,0.0481C10.38743,2.72807,10.36168,2.74699,10.33409,2.7631z"/>
			<path fill="#333333" d="M17.35808,0.34074l-0.04291-0.14758c-2.44293,0.42395-4.73621,1.27673-6.80872,2.47083
				c1.85675-1.05981,3.86285-1.83008,5.95056-2.27832c0.25348-0.05444,0.49615,0.03638,0.66504,0.20898
				C17.16575,0.48259,17.24693,0.39311,17.35808,0.34074z"/>
			<path fill="#333333" d="M10.33409,2.7631c-0.41431,0.24414-0.82288,0.49683-1.2182,0.76831
				C9.51256,3.26164,9.91899,3.00578,10.33409,2.7631z"/>
		</g>
	</g>
	<g>
		<path fill="#424242" d="M38.09282,14.46855l-0.3385,0.12317c-0.28235,0.10278-0.58954-0.04102-0.70142-0.31995
			c-0.62854-1.56604-1.47089-3.02148-2.5025-4.32385c-0.18726-0.23633-0.159-0.57544,0.07202-0.76941l0.27454-0.23035
			c-2.68665-3.17871-6.43866-5.40991-10.70294-6.18481V3.3676v3.76453h-6.62646V3.3676V2.76481
			c-4.2782,0.78882-8.03857,3.04785-10.72003,6.25391l0.27686,0.2323c0.23016,0.19312,0.25922,0.53064,0.07397,0.76721
			c-1.01538,1.29663-1.84259,2.74414-2.46088,4.29883c-0.11133,0.27991-0.41925,0.42468-0.70221,0.32166l-0.33679-0.12256
			c-0.70905,1.95191-1.11566,4.04895-1.11566,6.24585c0,2.19006,0.40417,4.28064,1.10889,6.22742l0.33502-0.12183
			c0.28326-0.10315,0.59149,0.04199,0.70251,0.32227c0.61676,1.55688,1.44263,3.00708,2.4574,4.30579
			c0.18488,0.23645,0.15564,0.57361-0.07434,0.76672l-0.27551,0.2312c2.69983,3.23389,6.49567,5.50964,10.81482,6.28491
			l0.06097-0.34607c0.05267-0.29846,0.33472-0.49463,0.63434-0.4491c0.83496,0.12695,1.68701,0.20117,2.55743,0.20117
			c0.82172,0,1.6261-0.06909,2.41602-0.18384c0.29846-0.04321,0.57831,0.15308,0.63068,0.45007l0.06165,0.34973
			c4.34583-0.74438,8.16919-3.00562,10.89508-6.23645l-0.27319-0.22913c-0.2309-0.19385-0.25934-0.53271-0.07245-0.76904
			c1.03094-1.30444,1.87201-2.76233,2.49902-4.33057c0.11163-0.2793,0.41907-0.42358,0.70172-0.32068l0.33667,0.12244
			c0.71582-1.96008,1.12634-4.06714,1.12634-6.27502C39.22587,18.54729,38.81285,16.43388,38.09282,14.46855z"/>
	</g>
	<g>
		<rect x="17.56754" y="3.82154" fill="#DB1255" width="6.62647" height="12.72794"/>
		<path opacity="0.58" fill="#E3195A" d="M24.66616,0.88709c0.06962-0.26793-0.10286-0.54542-0.37565-0.59252
			C23.18218,0.10321,22.04378,0,20.88081,0c-1.16297,0-2.3013,0.10321-3.40961,0.29457
			c-0.27279,0.0471-0.44527,0.32459-0.37566,0.59252l0.47206,1.81683V2.69924l6.6265,0.00001v0.00467L24.66616,0.88709z"/>
		<rect x="17.56755" y="2.70398" opacity="0.58" fill="#EB5E8B" width="6.62647" height="1.11756"/>
	</g>
</g>
</svg>
