<?xml version="1.0" encoding="utf-8"?>
<!-- Generator: Adobe Illustrator 16.0.0, SVG Export Plug-In . SVG Version: 6.00 Build 0)  -->
<!DOCTYPE svg PUBLIC "-//W3C//DTD SVG 1.1//EN" "http://www.w3.org/Graphics/SVG/1.1/DTD/svg11.dtd">
<svg version="1.1" id="Layer_1" xmlns="http://www.w3.org/2000/svg" xmlns:xlink="http://www.w3.org/1999/xlink" x="0px" y="0px"
	 width="34.295px" height="34.295px" viewBox="0 0 34.295 34.295" enable-background="new 0 0 34.295 34.295" xml:space="preserve">
<path d="M34.295,17.147c0,9.472-7.679,17.147-17.147,17.147C7.678,34.295,0,26.619,0,17.147C0,7.678,7.678,0,17.148,0
	C26.617,0,34.295,7.678,34.295,17.147"/>
<path fill="#FFFFFF" d="M29.379,17.146c0,6.756-5.476,12.232-12.231,12.232c-6.755,0-12.233-5.477-12.233-12.232
	c0-6.754,5.478-12.23,12.233-12.23C23.904,4.916,29.379,10.393,29.379,17.146"/>
<path fill="#FFFFFF" d="M19.147,0.127C18.491,0.05,17.825,0,17.147,0s-1.342,0.05-2,0.127v5.389h4V0.127z"/>
</svg>
