<?xml version="1.0" encoding="utf-8"?>
<!-- Generator: Adobe Illustrator 16.0.0, SVG Export Plug-In . SVG Version: 6.00 Build 0)  -->
<!DOCTYPE svg PUBLIC "-//W3C//DTD SVG 1.1//EN" "http://www.w3.org/Graphics/SVG/1.1/DTD/svg11.dtd">
<svg version="1.1" id="Layer_1" xmlns="http://www.w3.org/2000/svg" xmlns:xlink="http://www.w3.org/1999/xlink" x="0px" y="0px"
	 width="31.4px" height="31.4px" viewBox="0 0 31.4 31.4" enable-background="new 0 0 31.4 31.4" xml:space="preserve">
<path d="M31.4,15.7c0,8.67-7.029,15.7-15.699,15.7S0,24.37,0,15.7S7.031,0,15.701,0S31.4,7.03,31.4,15.7"/>
<path fill="#337FEF" d="M26.9,15.699c0,6.187-5.014,11.2-11.199,11.2c-6.184,0-11.201-5.014-11.201-11.2
	c0-6.185,5.017-11.198,11.201-11.198C21.886,4.501,26.9,9.515,26.9,15.699"/>
<path fill="#337FEF" d="M17.701,0.142C17.044,0.058,16.378,0,15.701,0c-0.68,0-1.344,0.058-2,0.142v4.823h4V0.142z"/>
</svg>
