<?xml version="1.0" encoding="UTF-8" standalone="no"?>
<!-- Created with Inkscape (http://www.inkscape.org/) -->

<svg
   xmlns:dc="http://purl.org/dc/elements/1.1/"
   xmlns:cc="http://creativecommons.org/ns#"
   xmlns:rdf="http://www.w3.org/1999/02/22-rdf-syntax-ns#"
   xmlns:svg="http://www.w3.org/2000/svg"
   xmlns="http://www.w3.org/2000/svg"
   xmlns:sodipodi="http://sodipodi.sourceforge.net/DTD/sodipodi-0.dtd"
   xmlns:inkscape="http://www.inkscape.org/namespaces/inkscape"
   width="8.9958334mm"
   height="8.9957018mm"
   viewBox="0 0 8.9958336 8.9957016"
   version="1.1"
   id="svg16908"
   inkscape:version="0.92.1 r"
   sodipodi:docname="Rogan2PBlue.svg">
  <defs
     id="defs16902" />
  <sodipodi:namedview
     id="base"
     pagecolor="#ffffff"
     bordercolor="#666666"
     borderopacity="1.0"
     inkscape:pageopacity="0.0"
     inkscape:pageshadow="2"
     inkscape:zoom="0.35"
     inkscape:cx="-465.85716"
     inkscape:cy="-467.27904"
     inkscape:document-units="mm"
     inkscape:current-layer="layer1"
     showgrid="false"
     fit-margin-top="0"
     fit-margin-left="0"
     fit-margin-right="0"
     fit-margin-bottom="0"
     inkscape:window-width="1600"
     inkscape:window-height="882"
     inkscape:window-x="0"
     inkscape:window-y="18"
     inkscape:window-maximized="0" />
  <metadata
     id="metadata16905">
    <rdf:RDF>
      <cc:Work
         rdf:about="">
        <dc:format>image/svg+xml</dc:format>
        <dc:type
           rdf:resource="http://purl.org/dc/dcmitype/StillImage" />
        <dc:title></dc:title>
      </cc:Work>
    </rdf:RDF>
  </metadata>
  <g
     inkscape:label="Layer 1"
     inkscape:groupmode="layer"
     id="layer1"
     transform="translate(-217.37411,-43.417668)">
    <g
       id="g2872"
       transform="matrix(0.26230743,0,0,-0.26230743,-38.478849,706.52369)"
       style="stroke-width:1.34490192">
      <g
         transform="translate(1009.6885,2510.8252)"
         id="g5053"
         style="stroke-width:1.34490192">
        <path
           inkscape:connector-curvature="0"
           id="path5055"
           style="fill:#000000;fill-opacity:1;fill-rule:nonzero;stroke:none;stroke-width:1.34490192"
           d="m 0,0 c 0,-9.471 -7.678,-17.147 -17.147,-17.147 -9.47,0 -17.148,7.676 -17.148,17.147 0,9.47 7.678,17.147 17.148,17.147 C -7.678,17.147 0,9.47 0,0" />
      </g>
      <g
         transform="translate(1004.7735,2510.8257)"
         id="g5057"
         style="stroke-width:1.34490192">
        <path
           inkscape:connector-curvature="0"
           id="path5059"
           style="fill:#337fef;fill-opacity:1;fill-rule:nonzero;stroke:none;stroke-width:1.34490192"
           d="m 0,0 c 0,-6.755 -5.476,-12.232 -12.232,-12.232 -6.754,0 -12.233,5.477 -12.233,12.232 0,6.755 5.479,12.231 12.233,12.231 C -5.476,12.231 0,6.755 0,0" />
      </g>
      <g
         transform="translate(994.541,2527.8457)"
         id="g5061"
         style="stroke-width:1.34490192">
        <path
           inkscape:connector-curvature="0"
           id="path5063"
           style="fill:#337fef;fill-opacity:1;fill-rule:nonzero;stroke:none;stroke-width:1.34490192"
           d="M 0,0 C -0.657,0.077 -1.322,0.127 -2,0.127 -2.678,0.127 -3.343,0.077 -4,0 v -5.388 h 4 z" />
      </g>
    </g>
  </g>
</svg>
