<?xml version="1.0" encoding="UTF-8"?>
<svg width="57.79" height="57.79" version="1.1" viewBox="0 0 15.290799 15.290865" xmlns="http://www.w3.org/2000/svg">
 <g transform="translate(-127.1 -86.07)">
  <g transform="matrix(.3528 0 0 -.3528 142.4 93.72)">
   <path d="m0 0c0-11.97-9.704-21.67-21.67-21.67s-21.67 9.704-21.67 21.67c0 11.97 9.704 21.67 21.67 21.67s21.67-9.702 21.67-21.67" fill="#000000"/>
  </g>
  <g transform="matrix(.3528 0 0 -.3528 140.8 93.72)">
   <path d="m0 0c0-9.471-7.678-17.15-17.15-17.15-9.47 0-17.15 7.676-17.15 17.15 0 9.47 7.678 17.15 17.15 17.15 9.469 0 17.15-7.677 17.15-17.15z" fill="none" stroke="#666666" stroke-miterlimit="10" stroke-width=".666"/>
  </g>
  <g transform="matrix(.3528 0 0 -.3528 139.1 93.72)" fill="#db4061">
   <path d="m0 0c0-6.755-5.476-12.23-12.23-12.23-6.754 0-12.23 5.477-12.23 12.23s5.479 12.23 12.23 12.23c6.756 0 12.23-5.476 12.23-12.23" fill="#db4061"/>
  </g>
  <g transform="matrix(.3528 0 0 -.3528 135.5 86.11)" fill="#db4061">
   <path d="m0 0c-.659.061-1.326.096-2 .096-.675 0-1.342-.035-2-.096v-9.943h4z" fill="#db4061"/>
  </g>
 </g>
</svg>
