<?xml version="1.0" encoding="utf-8"?>
<!-- Generator: Adobe Illustrator 25.2.3, SVG Export Plug-In . SVG Version: 6.00 Build 0)  -->
<svg version="1.0"
	 id="svg111794" xmlns:cc="http://creativecommons.org/ns#" xmlns:dc="http://purl.org/dc/elements/1.1/" xmlns:inkscape="http://www.inkscape.org/namespaces/inkscape" xmlns:rdf="http://www.w3.org/1999/02/22-rdf-syntax-ns#" xmlns:sodipodi="http://sodipodi.sourceforge.net/DTD/sodipodi-0.dtd" xmlns:svg="http://www.w3.org/2000/svg"
	 xmlns="http://www.w3.org/2000/svg" xmlns:xlink="http://www.w3.org/1999/xlink" x="0px" y="0px" width="53.85929px"
	 height="53.85937px" viewBox="0 0 53.85929 53.85937" enable-background="new 0 0 53.85929 53.85937" xml:space="preserve">
<sodipodi:namedview  bordercolor="#666666" borderopacity="1.0" fit-margin-bottom="0" fit-margin-left="0" fit-margin-right="0" fit-margin-top="0" id="base" inkscape:current-layer="layer1" inkscape:cx="-18.065819" inkscape:cy="35.516889" inkscape:document-units="mm" inkscape:pageopacity="0.0" inkscape:pageshadow="2" inkscape:window-height="1422" inkscape:window-maximized="0" inkscape:window-width="2560" inkscape:window-x="0" inkscape:window-y="18" inkscape:zoom="2.8" pagecolor="#ffffff" showgrid="false">
	</sodipodi:namedview>
<linearGradient id="SVGID_1_" gradientUnits="userSpaceOnUse" x1="26.92965" y1="55.98862" x2="26.92965" y2="2.12932" gradientTransform="matrix(1 0 0 -1 0 56)">
	<stop  offset="0" style="stop-color:#9C989A"/>
	<stop  offset="1" style="stop-color:#0A0A0A"/>
</linearGradient>
<circle fill="url(#SVGID_1_)" cx="26.92965" cy="26.94103" r="26.92965"/>
<path opacity="0.25" fill="#FFFFFF" enable-background="new    " d="M26.92669,26.93722L19.96498,0.95579
	c-2.27054,0.60839-4.45157,1.5118-6.48728,2.68712S9.5691,6.25535,7.90695,7.9175L26.92669,26.93722z"/>
<g>
	
		<linearGradient id="SVGID_2_" gradientUnits="userSpaceOnUse" x1="26.92965" y1="55.03281" x2="26.92965" y2="3.08513" gradientTransform="matrix(1 0 0 -1 0 56)">
		<stop  offset="0" style="stop-color:#424042"/>
		<stop  offset="1" style="stop-color:#333333"/>
	</linearGradient>
	<circle fill="url(#SVGID_2_)" cx="26.92965" cy="26.94103" r="25.97384"/>
</g>
<linearGradient id="SVGID_3_" gradientUnits="userSpaceOnUse" x1="26.92965" y1="54.02028" x2="26.92965" y2="4.0976" gradientTransform="matrix(1 0 0 -1 0 56)">
	<stop  offset="0" style="stop-color:#9C989A"/>
	<stop  offset="1" style="stop-color:#0A0A0A"/>
</linearGradient>
<circle fill="url(#SVGID_3_)" cx="26.92965" cy="26.94106" r="24.96134"/>
<path opacity="0.08" fill="#FFFFFF" enable-background="new    " d="M26.93776,26.95234l6.44,24.03441
	c2.10039-0.56279,4.11797-1.3985,6.00113-2.48574s3.61569-2.41666,5.15328-3.95425L26.93776,26.95234z"/>
<path opacity="0.48" fill="#FFFFFF" enable-background="new    " d="M26.93776,26.95234l-6.4626-24.11877
	c-2.10776,0.56477-4.13243,1.40341-6.02219,2.49447S10.82459,7.75319,9.2816,9.29617L26.93776,26.95234z"/>
<linearGradient id="SVGID_4_" gradientUnits="userSpaceOnUse" x1="-295.92908" y1="1039.76428" x2="-247.85461" y2="1039.76428" gradientTransform="matrix(0 1 1 0 -1012.83295 298.83289)">
	<stop  offset="0.00559" style="stop-color:#403E3E"/>
	<stop  offset="1" style="stop-color:#1F1F1F"/>
</linearGradient>
<circle fill="url(#SVGID_4_)" cx="26.93139" cy="26.94103" r="24.03723"/>
<path opacity="0.13" fill="#FFFFFF" enable-background="new    " d="M26.92669,26.93497l6.22219,23.22153
	c2.02935-0.54376,3.97869-1.35121,5.79816-2.40168s3.4934-2.33493,4.97899-3.82051L26.92669,26.93497z"/>
<g>
	<g>
		<path fill="#1A1A1A" d="M26.92965,25.83358c0.61066,0,1.10746,0.4968,1.10746,1.10745s-0.4968,1.10745-1.10746,1.10745
			c-0.61065,0-1.10745-0.4968-1.10745-1.10745S26.319,25.83358,26.92965,25.83358 M26.92965,25.33358
			c-0.88777,0-1.60745,0.71968-1.60745,1.60745s0.71968,1.60745,1.60745,1.60745s1.60746-0.71968,1.60746-1.60745
			S27.81742,25.33358,26.92965,25.33358L26.92965,25.33358z"/>
	</g>
	<g>
		<path fill="#1A1A1A" d="M26.92965,24.46353c1.3661,0,2.4775,1.1114,2.4775,2.4775s-1.1114,2.4775-2.4775,2.4775
			s-2.4775-1.1114-2.4775-2.4775S25.56355,24.46353,26.92965,24.46353 M26.92965,23.96353c-1.64443,0-2.9775,1.33307-2.9775,2.9775
			s1.33307,2.9775,2.9775,2.9775s2.9775-1.33307,2.9775-2.9775S28.57408,23.96353,26.92965,23.96353L26.92965,23.96353z"/>
	</g>
	<g>
		<path fill="#1A1A1A" d="M26.92965,23.2086c2.05807,0,3.73244,1.67436,3.73244,3.73243s-1.67437,3.73243-3.73244,3.73243
			s-3.73243-1.67436-3.73243-3.73243S24.87158,23.2086,26.92965,23.2086 M26.92965,22.7086
			c-2.33751,0-4.23243,1.89492-4.23243,4.23243s1.89492,4.23243,4.23243,4.23243s4.23244-1.89492,4.23244-4.23243
			S29.26716,22.7086,26.92965,22.7086L26.92965,22.7086z"/>
	</g>
	<g>
		<path fill="#1A1A1A" d="M26.92965,21.88569c2.78752,0,5.05534,2.26782,5.05534,5.05534s-2.26782,5.05534-5.05534,5.05534
			s-5.05534-2.26782-5.05534-5.05534S24.14213,21.88569,26.92965,21.88569 M26.92965,21.38569
			c-3.06813,0-5.55534,2.48721-5.55534,5.55534s2.48721,5.55534,5.55534,5.55534s5.55534-2.48721,5.55534-5.55534
			S29.99778,21.38569,26.92965,21.38569L26.92965,21.38569z"/>
	</g>
	<g>
		<path fill="#1A1A1A" d="M26.92965,20.6357c3.47677,0,6.30533,2.82856,6.30533,6.30533s-2.82856,6.30533-6.30533,6.30533
			s-6.30533-2.82856-6.30533-6.30533S23.45288,20.6357,26.92965,20.6357 M26.92965,20.1357
			c-3.75848,0-6.80533,3.04685-6.80533,6.80533s3.04685,6.80533,6.80533,6.80533s6.80533-3.04685,6.80533-6.80533
			S30.68813,20.1357,26.92965,20.1357L26.92965,20.1357z"/>
	</g>
	<g>
		<path fill="#1A1A1A" d="M26.92965,19.33342c4.19485,0,7.60761,3.41276,7.60761,7.60761s-3.41276,7.60761-7.60761,7.60761
			s-7.60761-3.41276-7.60761-7.60761S22.7348,19.33342,26.92965,19.33342 M26.92965,18.83342
			c-4.47771,0-8.10761,3.6299-8.10761,8.10761s3.6299,8.10761,8.10761,8.10761s8.10761-3.6299,8.10761-8.10761
			S31.40736,18.83342,26.92965,18.83342L26.92965,18.83342z"/>
	</g>
	<g>
		<path fill="#1A1A1A" d="M26.92965,17.99009c4.93557,0,8.95094,4.01537,8.95094,8.95094c0,4.93556-4.01537,8.95093-8.95094,8.95093
			c-4.93556,0-8.95093-4.01537-8.95093-8.95093C17.97872,22.00546,21.99409,17.99009,26.92965,17.99009 M26.92965,17.49009
			c-5.21961,0-9.45093,4.23133-9.45093,9.45094c0,5.2196,4.23132,9.45093,9.45093,9.45093s9.45094-4.23133,9.45094-9.45093
			C36.38059,21.72142,32.14926,17.49009,26.92965,17.49009L26.92965,17.49009z"/>
	</g>
	<g>
		<path fill="#1A1A1A" d="M26.92965,16.5524c5.72831,0,10.38863,4.66032,10.38863,10.38863s-4.66032,10.38863-10.38863,10.38863
			s-10.38863-4.66032-10.38863-10.38863S21.20134,16.5524,26.92965,16.5524 M26.92965,16.0524
			c-6.01362,0-10.88863,4.875-10.88863,10.88863c0,6.01362,4.87501,10.88863,10.88863,10.88863
			c6.01363,0,10.88863-4.87501,10.88863-10.88863C37.81828,20.9274,32.94328,16.0524,26.92965,16.0524L26.92965,16.0524z"/>
	</g>
	<g>
		<path fill="#1A1A1A" d="M26.92965,15.16178c6.49509,0,11.77924,5.28415,11.77924,11.77925
			c0,6.49509-5.28415,11.77924-11.77924,11.77924s-11.77924-5.28415-11.77924-11.77924
			C15.15041,20.44593,20.43456,15.16178,26.92965,15.16178 M26.92965,14.66178c-6.78164,0-12.27924,5.49761-12.27924,12.27925
			s5.4976,12.27924,12.27924,12.27924s12.27924-5.4976,12.27924-12.27924S33.71129,14.66178,26.92965,14.66178L26.92965,14.66178z"
			/>
	</g>
	<g>
		<path fill="#1A1A1A" d="M26.92965,13.77096c7.262,0,13.17007,5.90807,13.17007,13.17007s-5.90807,13.17006-13.17007,13.17006
			s-13.17006-5.90806-13.17006-13.17006S19.66765,13.77096,26.92965,13.77096 M26.92965,13.27096
			c-7.54977,0-13.67006,6.1203-13.67006,13.67007s6.12029,13.67006,13.67006,13.67006s13.67007-6.12029,13.67007-13.67006
			S34.47942,13.27096,26.92965,13.27096L26.92965,13.27096z"/>
	</g>
	<g>
		<path fill="#1A1A1A" d="M26.92965,12.33348c8.05464,0,14.60756,6.55292,14.60756,14.60755s-6.55292,14.60755-14.60756,14.60755
			S12.3221,34.99566,12.3221,26.94103S18.87502,12.33348,26.92965,12.33348 M26.92965,11.83348
			c-8.34367,0-15.10755,6.76388-15.10755,15.10755s6.76388,15.10755,15.10755,15.10755s15.10756-6.76388,15.10756-15.10755
			S35.27332,11.83348,26.92965,11.83348L26.92965,11.83348z"/>
	</g>
	<g>
		<path fill="#1A1A1A" d="M26.92965,10.88909c8.85107,0,16.05194,7.20087,16.05194,16.05194s-7.20087,16.05194-16.05194,16.05194
			S10.87771,35.7921,10.87771,26.94103S18.07858,10.88909,26.92965,10.88909 M26.92965,10.38909
			c-9.14138,0-16.55194,7.41055-16.55194,16.55194s7.41056,16.55194,16.55194,16.55194s16.55194-7.41056,16.55194-16.55194
			C43.48159,17.79964,36.07103,10.38909,26.92965,10.38909L26.92965,10.38909z"/>
	</g>
	<g>
		<path fill="#1A1A1A" d="M26.92965,9.4585c9.6399,0,17.48253,7.84263,17.48253,17.48253s-7.84263,17.48253-17.48253,17.48253
			S9.44712,36.58093,9.44712,26.94103S17.28975,9.4585,26.92965,9.4585 M26.92965,8.9585
			c-9.93148,0-17.98253,8.05105-17.98253,17.98253s8.05105,17.98253,17.98253,17.98253s17.98253-8.05105,17.98253-17.98253
			S36.86113,8.9585,26.92965,8.9585L26.92965,8.9585z"/>
	</g>
	<g>
		<path fill="#1A1A1A" d="M26.92965,8.02034c10.4329,0,18.92069,8.48779,18.92069,18.92069s-8.48779,18.92069-18.92069,18.92069
			S8.00896,37.37393,8.00896,26.94103S16.49675,8.02034,26.92965,8.02034 M26.92965,7.52034
			c-10.72575,0-19.42069,8.69494-19.42069,19.42069s8.69494,19.42069,19.42069,19.42069s19.42069-8.69494,19.42069-19.42069
			S37.6554,7.52034,26.92965,7.52034L26.92965,7.52034z"/>
	</g>
	<g>
		<path fill="#1A1A1A" d="M26.92965,6.58352c11.22517,0,20.35751,9.13234,20.35751,20.35751s-9.13234,20.35751-20.35751,20.35751
			S6.57214,38.1662,6.57214,26.94103S15.70448,6.58352,26.92965,6.58352 M26.92965,6.08352
			c-11.51928,0-20.85751,9.33822-20.85751,20.85751s9.33823,20.85751,20.85751,20.85751s20.85751-9.33823,20.85751-20.85751
			S38.44893,6.08352,26.92965,6.08352L26.92965,6.08352z"/>
	</g>
	<g>
		<path fill="#1A1A1A" d="M26.92965,5.14603c12.0178,0,21.795,9.7772,21.795,21.795s-9.7772,21.795-21.795,21.795
			s-21.795-9.7772-21.795-21.795S14.91185,5.14603,26.92965,5.14603 M26.92965,4.64603c-12.31319,0-22.295,9.98182-22.295,22.295
			s9.98181,22.295,22.295,22.295s22.295-9.98181,22.295-22.295S39.24284,4.64603,26.92965,4.64603L26.92965,4.64603z"/>
	</g>
	<g>
		<path fill="#1A1A1A" d="M26.92965,3.70855c12.81044,0,23.23249,10.42205,23.23249,23.23248S39.74009,50.17352,26.92965,50.17352
			S3.69717,39.75147,3.69717,26.94103S14.11922,3.70855,26.92965,3.70855 M26.92965,3.20855
			c-13.10709,0-23.73248,10.62539-23.73248,23.73248s10.62539,23.73249,23.73248,23.73249s23.73249-10.6254,23.73249-23.73249
			S40.03674,3.20855,26.92965,3.20855L26.92965,3.20855z"/>
	</g>
</g>
<path opacity="0.39" enable-background="new    " d="M26.92669,26.94103l20.82093,12.02098
	c2.10997-3.65457,3.22102-7.80104,3.22102-12.02098c0-4.21993-1.11105-8.36641-3.22102-12.02097L26.92669,26.94103z"/>
<path opacity="0.39" enable-background="new    " d="M26.92672,26.94103L6.10578,14.92006
	c-2.10997,3.65456-3.22102,7.80104-3.22102,12.02097s1.11105,8.36641,3.22102,12.02098L26.92672,26.94103z"/>
<path opacity="0.13" fill="#FFFFFF" enable-background="new    " d="M26.92669,26.93497L20.69589,3.6813
	c-2.03216,0.54451-3.9842,1.35307-5.80618,2.405s-3.49824,2.33816-4.98588,3.8258L26.92669,26.93497z"/>
</svg>
