<?xml version="1.0" encoding="utf-8"?>
<!-- Generator: Adobe Illustrator 25.2.3, SVG Export Plug-In . SVG Version: 6.00 Build 0)  -->
<svg version="1.0"
	 id="svg111794" xmlns:cc="http://creativecommons.org/ns#" xmlns:dc="http://purl.org/dc/elements/1.1/" xmlns:inkscape="http://www.inkscape.org/namespaces/inkscape" xmlns:rdf="http://www.w3.org/1999/02/22-rdf-syntax-ns#" xmlns:sodipodi="http://sodipodi.sourceforge.net/DTD/sodipodi-0.dtd" xmlns:svg="http://www.w3.org/2000/svg"
	 xmlns="http://www.w3.org/2000/svg" xmlns:xlink="http://www.w3.org/1999/xlink" x="0px" y="0px" width="28.34759px"
	 height="28.34768px" viewBox="0 0 28.34759 28.34768" enable-background="new 0 0 28.34759 28.34768" xml:space="preserve">
<sodipodi:namedview  bordercolor="#666666" borderopacity="1.0" fit-margin-bottom="0" fit-margin-left="0" fit-margin-right="0" fit-margin-top="0" id="base" inkscape:current-layer="layer1" inkscape:cx="-66.596017" inkscape:cy="-47.298945" inkscape:document-units="mm" inkscape:pageopacity="0.0" inkscape:pageshadow="2" inkscape:window-height="1422" inkscape:window-maximized="0" inkscape:window-width="2560" inkscape:window-x="0" inkscape:window-y="18" inkscape:zoom="2.8" pagecolor="#ffffff" showgrid="false">
	</sodipodi:namedview>
<linearGradient id="SVGID_1_" gradientUnits="userSpaceOnUse" x1="14.1738" y1="29.99996" x2="14.1738" y2="1.65236" gradientTransform="matrix(1 0 0 -1 0 30)">
	<stop  offset="0" style="stop-color:#9C989A"/>
	<stop  offset="1" style="stop-color:#0A0A0A"/>
</linearGradient>
<circle fill="url(#SVGID_1_)" cx="14.1738" cy="14.17384" r="14.1738"/>
<path opacity="0.25" fill="#FFFFFF" enable-background="new    " d="M14.17084,14.17003L10.50698,0.49631
	C9.31202,0.8165,8.16417,1.29195,7.0928,1.91051S5.03575,3.2854,4.16098,4.16018L14.17084,14.17003z"/>
<g>
	
		<linearGradient id="SVGID_2_" gradientUnits="userSpaceOnUse" x1="14.1738" y1="29.03234" x2="14.1738" y2="2.61998" gradientTransform="matrix(1 0 0 -1 0 30)">
		<stop  offset="0" style="stop-color:#424042"/>
		<stop  offset="1" style="stop-color:#333333"/>
	</linearGradient>
	<circle fill="url(#SVGID_2_)" cx="14.1738" cy="14.17384" r="13.20618"/>
</g>
<linearGradient id="SVGID_3_" gradientUnits="userSpaceOnUse" x1="14.1738" y1="28.01242" x2="14.1738" y2="3.63984" gradientTransform="matrix(1 0 0 -1 0 30)">
	<stop  offset="0" style="stop-color:#9C989A"/>
	<stop  offset="1" style="stop-color:#0A0A0A"/>
</linearGradient>
<circle fill="url(#SVGID_3_)" cx="14.1738" cy="14.17387" r="12.18629"/>
<path opacity="0.08" fill="#FFFFFF" enable-background="new    " d="M14.17084,14.17003l3.1527,11.76603
	c1.02824-0.27551,2.01595-0.68464,2.93785-1.21689c0.9219-0.53226,1.77006-1.18307,2.52279-1.9358L14.17084,14.17003z"/>
<path opacity="0.48" fill="#FFFFFF" enable-background="new    " d="M14.17084,14.17003L11.01832,2.40467
	c-1.02819,0.2755-2.01584,0.6846-2.93768,1.21683C7.15879,4.15372,6.31068,4.8045,5.558,5.55719L14.17084,14.17003z"/>
<linearGradient id="SVGID_4_" gradientUnits="userSpaceOnUse" x1="-295.9404" y1="1053.00671" x2="-273.37769" y2="1053.00671" gradientTransform="matrix(0 1 1 0 -1038.83301 298.83289)">
	<stop  offset="0.00559" style="stop-color:#4A4848"/>
	<stop  offset="1" style="stop-color:#1F1F1F"/>
</linearGradient>
<circle fill="url(#SVGID_4_)" cx="14.1738" cy="14.17384" r="11.28136"/>
<g>
	<g>
		<path fill="#1A1A1A" d="M14.1738,13.06639c0.61066,0,1.10746,0.4968,1.10746,1.10745s-0.4968,1.10745-1.10746,1.10745
			c-0.61065,0-1.10745-0.4968-1.10745-1.10745S13.56315,13.06639,14.1738,13.06639 M14.1738,12.56639
			c-0.88777,0-1.60745,0.71968-1.60745,1.60745s0.71968,1.60745,1.60745,1.60745s1.60746-0.71968,1.60746-1.60745
			S15.06157,12.56639,14.1738,12.56639L14.1738,12.56639z"/>
	</g>
	<g>
		<path fill="#1A1A1A" d="M14.1738,11.69634c1.3661,0,2.4775,1.1114,2.4775,2.4775s-1.1114,2.4775-2.4775,2.4775
			s-2.4775-1.1114-2.4775-2.4775S12.8077,11.69634,14.1738,11.69634 M14.1738,11.19634c-1.64443,0-2.9775,1.33307-2.9775,2.9775
			s1.33307,2.9775,2.9775,2.9775s2.9775-1.33307,2.9775-2.9775S15.81823,11.19634,14.1738,11.19634L14.1738,11.19634z"/>
	</g>
	<g>
		<path fill="#1A1A1A" d="M14.1738,10.44141c2.05807,0,3.73243,1.67436,3.73243,3.73243s-1.67436,3.73243-3.73243,3.73243
			s-3.73243-1.67436-3.73243-3.73243S12.11573,10.44141,14.1738,10.44141 M14.1738,9.94141
			c-2.33751,0-4.23243,1.89492-4.23243,4.23243s1.89492,4.23243,4.23243,4.23243s4.23243-1.89492,4.23243-4.23243
			S16.51131,9.94141,14.1738,9.94141L14.1738,9.94141z"/>
	</g>
	<g>
		<path fill="#1A1A1A" d="M14.1738,9.1185c2.78752,0,5.05534,2.26782,5.05534,5.05534s-2.26782,5.05534-5.05534,5.05534
			s-5.05534-2.26782-5.05534-5.05534S11.38628,9.1185,14.1738,9.1185 M14.1738,8.6185c-3.06813,0-5.55534,2.48721-5.55534,5.55534
			s2.48721,5.55534,5.55534,5.55534s5.55534-2.48721,5.55534-5.55534S17.24193,8.6185,14.1738,8.6185L14.1738,8.6185z"/>
	</g>
	<g>
		<path fill="#1A1A1A" d="M14.1738,7.86851c3.47677,0,6.30533,2.82856,6.30533,6.30533s-2.82856,6.30533-6.30533,6.30533
			s-6.30533-2.82856-6.30533-6.30533S10.69703,7.86851,14.1738,7.86851 M14.1738,7.36851
			c-3.75848,0-6.80533,3.04685-6.80533,6.80533s3.04685,6.80533,6.80533,6.80533s6.80533-3.04685,6.80533-6.80533
			S17.93228,7.36851,14.1738,7.36851L14.1738,7.36851z"/>
	</g>
	<g>
		<path fill="#1A1A1A" d="M14.1738,6.56623c4.19485,0,7.60761,3.41276,7.60761,7.60761s-3.41276,7.60761-7.60761,7.60761
			s-7.60761-3.41276-7.60761-7.60761S9.97895,6.56623,14.1738,6.56623 M14.1738,6.06623c-4.47771,0-8.10761,3.6299-8.10761,8.10761
			s3.6299,8.10761,8.10761,8.10761s8.10761-3.6299,8.10761-8.10761S18.65151,6.06623,14.1738,6.06623L14.1738,6.06623z"/>
	</g>
	<g>
		<path fill="#1A1A1A" d="M14.1738,5.22291c4.93556,0,8.95093,4.01537,8.95093,8.95093s-4.01537,8.95093-8.95093,8.95093
			s-8.95093-4.01537-8.95093-8.95093S9.23824,5.22291,14.1738,5.22291 M14.1738,4.72291c-5.21961,0-9.45093,4.23132-9.45093,9.45093
			s4.23132,9.45093,9.45093,9.45093s9.45093-4.23132,9.45093-9.45093S19.39341,4.72291,14.1738,4.72291L14.1738,4.72291z"/>
	</g>
	<g>
		<path fill="#1A1A1A" d="M14.1738,3.78521c5.72831,0,10.38863,4.66032,10.38863,10.38863S19.90211,24.56247,14.1738,24.56247
			S3.78517,19.90215,3.78517,14.17384S8.44549,3.78521,14.1738,3.78521 M14.1738,3.28521
			c-6.01363,0-10.88863,4.87501-10.88863,10.88863s4.875,10.88863,10.88863,10.88863c6.01362,0,10.88863-4.87501,10.88863-10.88863
			S20.18742,3.28521,14.1738,3.28521L14.1738,3.28521z"/>
	</g>
</g>
<path opacity="0.39" enable-background="new    " d="M14.17084,14.17032l9.77251,5.64216
	c0.99034-1.71531,1.51182-3.6615,1.51182-5.64216s-0.52148-3.92686-1.51182-5.64216L14.17084,14.17032z"/>
<path opacity="0.39" enable-background="new    " d="M14.17086,14.17032L4.39834,8.52816
	c-0.99034,1.71531-1.51182,3.6615-1.51182,5.64216s0.52148,3.92686,1.51182,5.64216L14.17086,14.17032z"/>
<path opacity="0.13" fill="#FFFFFF" enable-background="new    " d="M14.17084,14.16748l2.92045,10.89926
	c0.9525-0.25522,1.86744-0.6342,2.72142-1.12725c0.85398-0.49305,1.63966-1.09592,2.33694-1.7932L14.17084,14.16748z"/>
<path opacity="0.13" fill="#FFFFFF" enable-background="new    " d="M14.17084,14.16748L11.24635,3.25314
	c-0.95381,0.25557-1.87002,0.63508-2.72519,1.12881C7.666,4.87568,6.87923,5.47938,6.18099,6.17762L14.17084,14.16748z"/>
</svg>
