<?xml version="1.0" encoding="utf-8"?>
<!-- Generator: Adobe Illustrator 25.2.3, SVG Export Plug-In . SVG Version: 6.00 Build 0)  -->
<svg version="1.0"
	 id="svg111794" xmlns:cc="http://creativecommons.org/ns#" xmlns:dc="http://purl.org/dc/elements/1.1/" xmlns:inkscape="http://www.inkscape.org/namespaces/inkscape" xmlns:rdf="http://www.w3.org/1999/02/22-rdf-syntax-ns#" xmlns:sodipodi="http://sodipodi.sourceforge.net/DTD/sodipodi-0.dtd" xmlns:svg="http://www.w3.org/2000/svg"
	 xmlns="http://www.w3.org/2000/svg" xmlns:xlink="http://www.w3.org/1999/xlink" x="0px" y="0px" width="22.67578px"
	 height="22.67581px" viewBox="0 0 22.67578 22.67581" enable-background="new 0 0 22.67578 22.67581" xml:space="preserve">
<sodipodi:namedview  bordercolor="#666666" borderopacity="1.0" fit-margin-bottom="0" fit-margin-left="0" fit-margin-right="0" fit-margin-top="0" id="base" inkscape:current-layer="layer1" inkscape:cx="-87.928177" inkscape:cy="-71.041818" inkscape:document-units="mm" inkscape:pageopacity="0.0" inkscape:pageshadow="2" inkscape:window-height="1422" inkscape:window-maximized="0" inkscape:window-width="2560" inkscape:window-x="0" inkscape:window-y="18" inkscape:zoom="2.8" pagecolor="#ffffff" showgrid="false">
	</sodipodi:namedview>
<g>
	<path opacity="0.4" enable-background="new    " d="M12.21259,0.01844v1.00361c-0.28908-0.02435-0.57936-0.04424-0.8747-0.04424
		c-0.29365,0-0.58225,0.01989-0.86965,0.04388V0.01808C4.6154,0.46528-0.00001,5.34337-0.00001,11.32006
		c0,6.27153,5.07611,11.35574,11.3379,11.35574s11.3379-5.08422,11.3379-11.35574
		C22.67579,5.34518,18.06303,0.46805,12.21259,0.01844z M11.33789,1.70068c0.29534,0,0.5861,0.01808,0.8747,0.04412v0.60764
		c4.57329,0.44153,8.15273,4.27998,8.15273,8.96762c0,4.98393-4.04182,9.02428-9.02743,9.02428
		c-4.98572,0-9.02743-4.04035-9.02743-9.02428c0-4.68933,3.58209-8.52898,8.15778-8.96823V1.74456
		C10.75516,1.71876,11.04424,1.70068,11.33789,1.70068z"/>
	<path opacity="0.82" fill="#1E1D1E" enable-background="new    " d="M11.33786,0.97781
		c-5.71387,0-10.34581,4.63043-10.34581,10.34224s4.63195,10.34224,10.34581,10.34224c5.71367,0,10.34581-4.63043,10.34581-10.34224
		S17.05153,0.97781,11.33786,0.97781z M11.33786,20.93945c-5.31449,0-9.62265-4.30681-9.62265-9.6194s4.30815-9.6194,9.62265-9.6194
		c5.3144,0,9.62265,4.30681,9.62265,9.6194S16.65226,20.93945,11.33786,20.93945z"/>
	<path fill="#EDEDED" d="M12.21262,2.32235l-1.74432,0v8.35055c0,0.28613,0.23196,0.51809,0.51809,0.51809h0.70814
		c0.28613,0,0.51809-0.23196,0.51809-0.51809V2.32235z"/>
	<rect x="10.46832" y="0.00001" opacity="0.71" fill="#FFFFFF" enable-background="new    " width="1.74432" height="0.97781"/>
	<rect x="10.46833" y="0.97782" fill="#D9D9D9" width="1.74432" height="0.72287"/>
	<rect x="10.46832" y="1.70068" opacity="0.71" fill="#FFFFFF" enable-background="new    " width="1.74432" height="0.62166"/>
</g>
</svg>
