<?xml version="1.0" encoding="UTF-8" standalone="no"?>
<!-- Generator: Adobe Illustrator 25.2.3, SVG Export Plug-In . SVG Version: 6.00 Build 0)  -->

<svg
   version="1.0"
   id="svg111794"
   x="0px"
   y="0px"
   width="35.99997px"
   height="36px"
   viewBox="0 0 35.99997 36"
   enable-background="new 0 0 35.99997 36"
   xml:space="preserve"
   sodipodi:docname="RoundLargeBlackKnob.svg"
   inkscape:version="1.1.1 (3bf5ae0d25, 2021-09-20, custom)"
   xmlns:inkscape="http://www.inkscape.org/namespaces/inkscape"
   xmlns:sodipodi="http://sodipodi.sourceforge.net/DTD/sodipodi-0.dtd"
   xmlns="http://www.w3.org/2000/svg"
   xmlns:svg="http://www.w3.org/2000/svg"><defs
   id="defs124" />
<sodipodi:namedview
   bordercolor="#666666"
   borderopacity="1.0"
   fit-margin-bottom="0"
   fit-margin-left="0"
   fit-margin-right="0"
   fit-margin-top="0"
   id="base"
   inkscape:current-layer="svg111794"
   inkscape:cx="-1639.4424"
   inkscape:cy="447.12065"
   inkscape:document-units="mm"
   inkscape:pageopacity="0.0"
   inkscape:pageshadow="2"
   inkscape:window-height="882"
   inkscape:window-maximized="0"
   inkscape:window-width="1600"
   inkscape:window-x="0"
   inkscape:window-y="18"
   inkscape:zoom="0.15432076"
   pagecolor="#ffffff"
   showgrid="false"
   inkscape:pagecheckerboard="0">
	</sodipodi:namedview>








<g
   id="g121">
	<g
   id="g109">
		<path
   opacity="0.4"
   enable-background="new    "
   d="M18.86291,0.02637v1.37952c-0.2876-0.01477-0.57153-0.04358-0.86279-0.04358    c-0.29138,0-0.57544,0.02881-0.86316,0.0437V0.02637C7.59935,0.4801-0.00002,8.34094-0.00002,18    c0,9.95068,8.05884,18.01733,18,18.01733s18-8.06665,18-18.01733C35.99998,8.34094,28.40038,0.48022,18.86291,0.02637z     M18.0001,2.36462c0.29126,0,0.57544,0.02795,0.86279,0.04358v0.89771C26.60593,3.75476,32.75169,10.15161,32.75169,18    c0,8.13928-6.60461,14.73755-14.75171,14.73755S3.24827,26.13928,3.24827,18c0-7.84839,6.14551-14.24512,13.88867-14.69397V2.4082    C17.42443,2.39258,17.70872,2.36462,18.0001,2.36462z"
   id="path105" />
		<path
   opacity="0.82"
   fill="#1E1D1E"
   enable-background="new    "
   d="M18.00006,1.36231    c-9.17993,0-16.6217,7.44897-16.6217,16.6377s7.44177,16.63757,16.6217,16.63757c9.17981,0,16.62158-7.44885,16.62158-16.63757    S27.17987,1.36231,18.00006,1.36231z M18.00006,33.63538C9.37311,33.63538,2.3797,26.63526,2.3797,18    S9.37311,2.36463,18.00006,2.36463c8.62671,0,15.62024,7.00012,15.62024,15.63538S26.62677,33.63538,18.00006,33.63538z"
   id="path107" />
	</g>
	<g
   id="g119">
		<path
   fill="#EDEDED"
   d="M18.86293,3.30591h-1.72592v14.17598c0,0.28613,0.23196,0.51809,0.51809,0.51809h0.68975    c0.28613,0,0.51809-0.23196,0.51809-0.51809L18.86293,3.30591z"
   id="path111" />
		<rect
   x="17.137"
   y="-0.01733"
   opacity="0.71"
   fill="#FFFFFF"
   enable-background="new    "
   width="1.72592"
   height="1.37964"
   id="rect113" />
		<rect
   x="17.137"
   y="1.36231"
   fill="#D9D9D9"
   width="1.72592"
   height="1.00231"
   id="rect115" />
		<rect
   x="17.137"
   y="2.36462"
   opacity="0.71"
   fill="#FFFFFF"
   enable-background="new    "
   width="1.72592"
   height="0.89789"
   id="rect117" />
	</g>
</g>
</svg>
