<?xml version="1.0" encoding="UTF-8" standalone="no"?>
<!-- Created with Inkscape (http://www.inkscape.org/) -->

<svg
   xmlns:dc="http://purl.org/dc/elements/1.1/"
   xmlns:cc="http://creativecommons.org/ns#"
   xmlns:rdf="http://www.w3.org/1999/02/22-rdf-syntax-ns#"
   xmlns:svg="http://www.w3.org/2000/svg"
   xmlns="http://www.w3.org/2000/svg"
   xmlns:xlink="http://www.w3.org/1999/xlink"
   xmlns:sodipodi="http://sodipodi.sourceforge.net/DTD/sodipodi-0.dtd"
   xmlns:inkscape="http://www.inkscape.org/namespaces/inkscape"
   width="195"
   height="380"
   viewBox="0 0 51.593751 100.54167"
   version="1.1"
   id="svg11003"
   inkscape:version="0.92.2 (5c3e80d, 2017-08-06)"
   sodipodi:docname="LissajousLFO.svg">
  <defs
     id="defs10997">
    <linearGradient
       inkscape:collect="always"
       id="linearGradient4682">
      <stop
         style="stop-color:#cce6f1;stop-opacity:1;"
         offset="0"
         id="stop4678" />
      <stop
         style="stop-color:#ffffff;stop-opacity:1;"
         offset="1"
         id="stop4680" />
    </linearGradient>
    <linearGradient
       inkscape:collect="always"
       xlink:href="#linearGradient4682"
       id="linearGradient4684"
       x1="35.219627"
       y1="150.85843"
       x2="35.23983"
       y2="96.163956"
       gradientUnits="userSpaceOnUse" />
  </defs>
  <sodipodi:namedview
     id="base"
     pagecolor="#ffffff"
     bordercolor="#666666"
     borderopacity="1.0"
     inkscape:pageopacity="0.0"
     inkscape:pageshadow="2"
     inkscape:zoom="4"
     inkscape:cx="-116.25"
     inkscape:cy="175.1322"
     inkscape:document-units="mm"
     inkscape:current-layer="layer1"
     showgrid="false"
     fit-margin-top="0"
     fit-margin-left="0"
     fit-margin-right="0"
     fit-margin-bottom="0"
     inkscape:window-width="3840"
     inkscape:window-height="2115"
     inkscape:window-x="-13"
     inkscape:window-y="-13"
     inkscape:window-maximized="1"
     units="px" />
  <metadata
     id="metadata11000">
    <rdf:RDF>
      <cc:Work
         rdf:about="">
        <dc:format>image/svg+xml</dc:format>
        <dc:type
           rdf:resource="http://purl.org/dc/dcmitype/StillImage" />
        <dc:title></dc:title>
      </cc:Work>
    </rdf:RDF>
  </metadata>
  <g
     inkscape:label="Layer 1"
     inkscape:groupmode="layer"
     id="layer1"
     transform="translate(-35.146312,-50.389004)">
    <path
       inkscape:connector-curvature="0"
       id="path33493"
       d="M 35.219628,50.462323 H 86.654867 V 150.85843 H 35.219628 Z m 0,0"
       style="fill:url(#linearGradient4684);fill-opacity:1;fill-rule:nonzero;stroke:none;stroke-width:0.3145712"
       inkscape:export-filename="/home/vortico/pics/tmp/LFOs.png"
       inkscape:export-xdpi="150.22649"
       inkscape:export-ydpi="150.22649" />
    <g
       style="font-style:normal;font-weight:normal;font-size:3.52777767px;line-height:1.25;font-family:sans-serif;letter-spacing:0px;word-spacing:0px;fill:#000000;fill-opacity:1;stroke:none;stroke-width:0.26458332"
       id="text5097" />
    <g
       aria-label="LISSAJOUS LFO"
       style="font-style:normal;font-weight:normal;font-size:3.52777767px;line-height:1.25;font-family:sans-serif;text-align:center;letter-spacing:0px;word-spacing:0px;text-anchor:middle;fill:#000000;fill-opacity:1;stroke:none;stroke-width:0.26458332"
       id="text136">
      <path
         d="m 50.418081,54.075317 q 0,0.05684 -0.0057,0.09663 -0.0038,0.0379 -0.01326,0.06442 -0.0095,0.02463 -0.02463,0.036 -0.01326,0.01137 -0.03221,0.01137 h -1.123618 q -0.06253,0 -0.106109,-0.036 -0.04169,-0.0379 -0.04169,-0.121268 v -2.226393 q 0,-0.01895 0.01137,-0.03411 0.01326,-0.01516 0.04169,-0.02463 0.02842,-0.0095 0.07579,-0.01516 0.04926,-0.0057 0.121267,-0.0057 0.0739,0 0.121268,0.0057 0.04737,0.0057 0.07579,0.01516 0.02842,0.0095 0.03979,0.02463 0.01326,0.01516 0.01326,0.03411 v 1.97249 h 0.771185 q 0.01895,0 0.03221,0.01137 0.01516,0.0095 0.02463,0.03411 0.0095,0.02274 0.01326,0.06253 0.0057,0.0379 0.0057,0.09474 z"
         style="font-style:normal;font-variant:normal;font-weight:bold;font-stretch:normal;font-size:3.88055563px;font-family:Calibri;-inkscape-font-specification:'Calibri Bold';stroke-width:0.26458332"
         id="path3278" />
      <path
         d="m 51.215793,54.215532 q 0,0.01895 -0.01326,0.03411 -0.01137,0.01516 -0.03979,0.02463 -0.02842,0.0095 -0.07579,0.01516 -0.04737,0.0057 -0.121267,0.0057 -0.072,0 -0.121268,-0.0057 -0.04737,-0.0057 -0.07579,-0.01516 -0.02842,-0.0095 -0.04169,-0.02463 -0.01137,-0.01516 -0.01137,-0.03411 v -2.315449 q 0,-0.01895 0.01137,-0.03411 0.01326,-0.01516 0.04169,-0.02463 0.03032,-0.0095 0.07769,-0.01516 0.04737,-0.0057 0.119373,-0.0057 0.0739,0 0.121267,0.0057 0.04737,0.0057 0.07579,0.01516 0.02842,0.0095 0.03979,0.02463 0.01326,0.01516 0.01326,0.03411 z"
         style="font-style:normal;font-variant:normal;font-weight:bold;font-stretch:normal;font-size:3.88055563px;font-family:Calibri;-inkscape-font-specification:'Calibri Bold';stroke-width:0.26458332"
         id="path3280" />
      <path
         d="m 53.20723,53.548561 q 0,0.19327 -0.072,0.33917 -0.072,0.1459 -0.195165,0.24443 -0.123162,0.09663 -0.28801,0.145899 -0.164848,0.04926 -0.352433,0.04926 -0.126952,0 -0.236851,-0.02084 -0.108003,-0.02084 -0.191375,-0.04926 -0.08337,-0.03032 -0.140215,-0.06253 -0.05495,-0.03221 -0.07958,-0.05684 -0.02463,-0.02463 -0.036,-0.07011 -0.0095,-0.04737 -0.0095,-0.134531 0,-0.05874 0.0038,-0.09853 0.0038,-0.03979 0.01137,-0.06442 0.0095,-0.02463 0.02274,-0.03411 0.01516,-0.01137 0.03411,-0.01137 0.02653,0 0.0739,0.03221 0.04927,0.03032 0.125057,0.06821 0.07579,0.0379 0.180006,0.07011 0.106109,0.03032 0.24443,0.03032 0.09095,0 0.162953,-0.02084 0.072,-0.02274 0.121267,-0.06253 0.05116,-0.03979 0.07769,-0.09853 0.02653,-0.05874 0.02653,-0.130741 0,-0.08337 -0.04547,-0.14211 -0.04548,-0.06063 -0.119373,-0.106109 -0.072,-0.04737 -0.164848,-0.08716 -0.09284,-0.04169 -0.191375,-0.08716 -0.09853,-0.04548 -0.191375,-0.10232 -0.09284,-0.05874 -0.166742,-0.13832 -0.072,-0.08148 -0.117478,-0.191375 -0.04548,-0.109899 -0.04548,-0.263378 0,-0.176216 0.06442,-0.308853 0.06632,-0.134531 0.176217,-0.221692 0.111793,-0.08906 0.261482,-0.132636 0.151585,-0.04358 0.320222,-0.04358 0.08716,0 0.174322,0.01326 0.08716,0.01326 0.162953,0.036 0.07579,0.02274 0.134531,0.05116 0.05874,0.02842 0.07769,0.04737 0.01895,0.01895 0.02463,0.03221 0.0076,0.01326 0.01137,0.036 0.0057,0.02084 0.0076,0.05495 0.0019,0.03221 0.0019,0.08148 0,0.05495 -0.0038,0.09284 -0.0019,0.0379 -0.0095,0.06253 -0.0057,0.02463 -0.01895,0.036 -0.01137,0.01137 -0.03221,0.01137 -0.02084,0 -0.06632,-0.02653 -0.04548,-0.02653 -0.111794,-0.05684 -0.06632,-0.03221 -0.153479,-0.05684 -0.08716,-0.02653 -0.191375,-0.02653 -0.08148,0 -0.14211,0.02084 -0.06063,0.01895 -0.102319,0.05495 -0.03979,0.03411 -0.06063,0.08337 -0.01895,0.04927 -0.01895,0.104214 0,0.08148 0.04358,0.14211 0.04548,0.05874 0.119373,0.106109 0.07579,0.04547 0.170532,0.08716 0.09474,0.03979 0.19327,0.08527 0.09853,0.04547 0.19327,0.104214 0.09474,0.05684 0.168637,0.138321 0.0739,0.07958 0.119373,0.18948 0.04548,0.108004 0.04548,0.255798 z"
         style="font-style:normal;font-variant:normal;font-weight:bold;font-stretch:normal;font-size:3.88055563px;font-family:Calibri;-inkscape-font-specification:'Calibri Bold';stroke-width:0.26458332"
         id="path3282" />
      <path
         d="m 55.041399,53.548561 q 0,0.19327 -0.072,0.33917 -0.072,0.1459 -0.195164,0.24443 -0.123162,0.09663 -0.28801,0.145899 -0.164848,0.04926 -0.352434,0.04926 -0.126951,0 -0.23685,-0.02084 -0.108004,-0.02084 -0.191375,-0.04926 -0.08337,-0.03032 -0.140215,-0.06253 -0.05495,-0.03221 -0.07958,-0.05684 -0.02463,-0.02463 -0.036,-0.07011 -0.0095,-0.04737 -0.0095,-0.134531 0,-0.05874 0.0038,-0.09853 0.0038,-0.03979 0.01137,-0.06442 0.0095,-0.02463 0.02274,-0.03411 0.01516,-0.01137 0.03411,-0.01137 0.02653,0 0.0739,0.03221 0.04926,0.03032 0.125056,0.06821 0.07579,0.0379 0.180007,0.07011 0.106109,0.03032 0.244429,0.03032 0.09095,0 0.162953,-0.02084 0.072,-0.02274 0.121268,-0.06253 0.05116,-0.03979 0.07769,-0.09853 0.02653,-0.05874 0.02653,-0.130741 0,-0.08337 -0.04548,-0.14211 -0.04548,-0.06063 -0.119373,-0.106109 -0.072,-0.04737 -0.164848,-0.08716 -0.09285,-0.04169 -0.191375,-0.08716 -0.09853,-0.04548 -0.191375,-0.10232 -0.09285,-0.05874 -0.166743,-0.13832 -0.072,-0.08148 -0.117477,-0.191375 -0.04548,-0.109899 -0.04548,-0.263378 0,-0.176216 0.06442,-0.308853 0.06632,-0.134531 0.176216,-0.221692 0.111794,-0.08906 0.261483,-0.132636 0.151584,-0.04358 0.320222,-0.04358 0.08716,0 0.174322,0.01326 0.08716,0.01326 0.162953,0.036 0.07579,0.02274 0.134531,0.05116 0.05874,0.02842 0.07769,0.04737 0.01895,0.01895 0.02463,0.03221 0.0076,0.01326 0.01137,0.036 0.0057,0.02084 0.0076,0.05495 0.0019,0.03221 0.0019,0.08148 0,0.05495 -0.0038,0.09284 -0.0019,0.0379 -0.0095,0.06253 -0.0057,0.02463 -0.01895,0.036 -0.01137,0.01137 -0.03221,0.01137 -0.02084,0 -0.06632,-0.02653 -0.04547,-0.02653 -0.111793,-0.05684 -0.06632,-0.03221 -0.153479,-0.05684 -0.08716,-0.02653 -0.191375,-0.02653 -0.08148,0 -0.14211,0.02084 -0.06063,0.01895 -0.10232,0.05495 -0.03979,0.03411 -0.06063,0.08337 -0.01895,0.04927 -0.01895,0.104214 0,0.08148 0.04358,0.14211 0.04547,0.05874 0.119373,0.106109 0.07579,0.04547 0.170532,0.08716 0.09474,0.03979 0.19327,0.08527 0.09853,0.04547 0.19327,0.104214 0.09474,0.05684 0.168637,0.138321 0.0739,0.07958 0.119373,0.18948 0.04547,0.108004 0.04547,0.255798 z"
         style="font-style:normal;font-variant:normal;font-weight:bold;font-stretch:normal;font-size:3.88055563px;font-family:Calibri;-inkscape-font-specification:'Calibri Bold';stroke-width:0.26458332"
         id="path3284" />
      <path
         d="m 57.38527,54.098054 q 0.02274,0.06821 0.02842,0.108004 0.0057,0.03979 -0.01516,0.06063 -0.02084,0.01895 -0.0739,0.02274 -0.05305,0.0057 -0.1459,0.0057 -0.09663,0 -0.151584,-0.0038 -0.05305,-0.0019 -0.08148,-0.0095 -0.02842,-0.0095 -0.03979,-0.02463 -0.01137,-0.01516 -0.01895,-0.03979 l -0.164848,-0.492649 h -0.920874 l -0.155374,0.479385 q -0.0076,0.02653 -0.02084,0.04547 -0.01137,0.01705 -0.03979,0.02842 -0.02653,0.0095 -0.07769,0.01326 -0.04926,0.0038 -0.130742,0.0038 -0.08716,0 -0.136426,-0.0057 -0.04926,-0.0057 -0.06821,-0.02653 -0.01895,-0.02274 -0.01326,-0.06253 0.0057,-0.03979 0.02842,-0.106108 l 0.756026,-2.175234 q 0.01137,-0.03221 0.02653,-0.05116 0.01516,-0.02084 0.04737,-0.03032 0.03411,-0.01137 0.09285,-0.01326 0.05874,-0.0038 0.155374,-0.0038 0.111793,0 0.178111,0.0038 0.06632,0.0019 0.102319,0.01326 0.0379,0.0095 0.05306,0.03032 0.01705,0.02084 0.02842,0.05684 z m -1.125513,-1.798167 h -0.0019 l -0.346748,1.042141 h 0.695392 z"
         style="font-style:normal;font-variant:normal;font-weight:bold;font-stretch:normal;font-size:3.88055563px;font-family:Calibri;-inkscape-font-specification:'Calibri Bold';stroke-width:0.26458332"
         id="path3286" />
      <path
         d="m 58.53352,53.601616 q 0,0.166743 -0.03221,0.301273 -0.03032,0.132637 -0.106109,0.227377 -0.0739,0.09285 -0.195164,0.14211 -0.121268,0.04926 -0.299379,0.04926 -0.05684,0 -0.113688,-0.0095 -0.05495,-0.0076 -0.10232,-0.02084 -0.04548,-0.01326 -0.07958,-0.02842 -0.03411,-0.01516 -0.04548,-0.02653 -0.01137,-0.01326 -0.01895,-0.02653 -0.0076,-0.01326 -0.01326,-0.03411 -0.0057,-0.02274 -0.0076,-0.05495 -0.0019,-0.03221 -0.0019,-0.08148 0,-0.06442 0.0019,-0.108003 0.0038,-0.04548 0.0095,-0.07011 0.0076,-0.02653 0.01895,-0.036 0.01326,-0.01137 0.03221,-0.01137 0.01705,0 0.03979,0.01326 0.02274,0.01137 0.05116,0.02463 0.02842,0.01326 0.06632,0.02653 0.0379,0.01137 0.08906,0.01137 0.05116,0 0.08905,-0.01326 0.03979,-0.01516 0.06442,-0.04926 0.02653,-0.036 0.03979,-0.09474 0.01326,-0.05874 0.01326,-0.151584 v -1.684479 q 0,-0.01895 0.01137,-0.03221 0.01326,-0.01516 0.03979,-0.02463 0.02842,-0.0095 0.07769,-0.01326 0.04926,-0.0057 0.121267,-0.0057 0.072,0 0.119373,0.0057 0.04737,0.0038 0.07579,0.01326 0.03032,0.0095 0.04169,0.02463 0.01326,0.01326 0.01326,0.03221 z"
         style="font-style:normal;font-variant:normal;font-weight:bold;font-stretch:normal;font-size:3.88055563px;font-family:Calibri;-inkscape-font-specification:'Calibri Bold';stroke-width:0.26458332"
         id="path3288" />
      <path
         d="m 61.273405,53.029386 q 0,0.305063 -0.07579,0.545703 -0.07579,0.24064 -0.225481,0.409277 -0.14969,0.166743 -0.371382,0.255798 -0.219797,0.08716 -0.509702,0.08716 -0.286115,0 -0.500227,-0.0739 -0.212218,-0.07579 -0.354329,-0.229271 -0.14211,-0.153479 -0.214112,-0.390329 -0.07011,-0.236851 -0.07011,-0.560862 0,-0.297484 0.07579,-0.534334 0.07579,-0.238745 0.225482,-0.405488 0.149689,-0.166743 0.369486,-0.255798 0.221692,-0.08906 0.513492,-0.08906 0.278536,0 0.490754,0.0739 0.214112,0.0739 0.356222,0.227376 0.144005,0.153479 0.216008,0.388435 0.0739,0.233061 0.0739,0.551388 z m -0.522965,0.02653 q 0,-0.19327 -0.03032,-0.350539 -0.03032,-0.159163 -0.104214,-0.270956 -0.072,-0.113689 -0.19327,-0.174322 -0.121268,-0.06253 -0.303169,-0.06253 -0.183795,0 -0.306958,0.07011 -0.123162,0.06821 -0.198954,0.183796 -0.07579,0.115583 -0.108004,0.270957 -0.03032,0.153479 -0.03032,0.325906 0,0.200849 0.03032,0.361907 0.03032,0.159163 0.10232,0.272851 0.072,0.113689 0.19327,0.174322 0.121267,0.05874 0.305063,0.05874 0.183796,0 0.306958,-0.06821 0.123162,-0.06821 0.198954,-0.18569 0.07579,-0.117478 0.106109,-0.272852 0.03221,-0.157269 0.03221,-0.333485 z"
         style="font-style:normal;font-variant:normal;font-weight:bold;font-stretch:normal;font-size:3.88055563px;font-family:Calibri;-inkscape-font-specification:'Calibri Bold';stroke-width:0.26458332"
         id="path3290" />
      <path
         d="m 63.691173,53.37045 q 0,0.225481 -0.06632,0.403593 -0.06632,0.178111 -0.195164,0.301274 -0.128847,0.123162 -0.318327,0.187585 -0.18948,0.06442 -0.435805,0.06442 -0.231166,0 -0.414961,-0.05684 -0.183796,-0.05874 -0.310748,-0.176216 -0.126952,-0.117478 -0.195165,-0.2918 -0.06632,-0.176217 -0.06632,-0.411172 v -1.49121 q 0,-0.01895 0.01137,-0.03411 0.01137,-0.01516 0.03979,-0.02463 0.03032,-0.0095 0.07769,-0.01516 0.04737,-0.0057 0.121267,-0.0057 0.072,0 0.119373,0.0057 0.04737,0.0057 0.07579,0.01516 0.02842,0.0095 0.03979,0.02463 0.01326,0.01516 0.01326,0.03411 v 1.447629 q 0,0.1459 0.036,0.253904 0.036,0.106109 0.102319,0.176217 0.06821,0.07011 0.161058,0.106108 0.09474,0.03411 0.210323,0.03411 0.117478,0 0.210323,-0.036 0.09285,-0.036 0.157269,-0.104214 0.06442,-0.07011 0.09853,-0.170533 0.036,-0.102319 0.036,-0.231166 v -1.476051 q 0,-0.01895 0.01137,-0.03411 0.01137,-0.01516 0.03979,-0.02463 0.02842,-0.0095 0.07579,-0.01516 0.04926,-0.0057 0.121267,-0.0057 0.072,0 0.117478,0.0057 0.04737,0.0057 0.07579,0.01516 0.02842,0.0095 0.03979,0.02463 0.01137,0.01516 0.01137,0.03411 z"
         style="font-style:normal;font-variant:normal;font-weight:bold;font-stretch:normal;font-size:3.88055563px;font-family:Calibri;-inkscape-font-specification:'Calibri Bold';stroke-width:0.26458332"
         id="path3292" />
      <path
         d="m 65.675031,53.548561 q 0,0.19327 -0.072,0.33917 -0.072,0.1459 -0.195165,0.24443 -0.123162,0.09663 -0.28801,0.145899 -0.164847,0.04926 -0.352433,0.04926 -0.126952,0 -0.23685,-0.02084 -0.108004,-0.02084 -0.191375,-0.04926 -0.08337,-0.03032 -0.140216,-0.06253 -0.05495,-0.03221 -0.07958,-0.05684 -0.02463,-0.02463 -0.036,-0.07011 -0.0095,-0.04737 -0.0095,-0.134531 0,-0.05874 0.0038,-0.09853 0.0038,-0.03979 0.01137,-0.06442 0.0095,-0.02463 0.02274,-0.03411 0.01516,-0.01137 0.03411,-0.01137 0.02653,0 0.0739,0.03221 0.04927,0.03032 0.125057,0.06821 0.07579,0.0379 0.180006,0.07011 0.106109,0.03032 0.24443,0.03032 0.09095,0 0.162953,-0.02084 0.072,-0.02274 0.121267,-0.06253 0.05116,-0.03979 0.07769,-0.09853 0.02653,-0.05874 0.02653,-0.130741 0,-0.08337 -0.04547,-0.14211 -0.04547,-0.06063 -0.119372,-0.106109 -0.072,-0.04737 -0.164848,-0.08716 -0.09284,-0.04169 -0.191375,-0.08716 -0.09853,-0.04548 -0.191375,-0.10232 -0.09285,-0.05874 -0.166743,-0.13832 -0.072,-0.08148 -0.117478,-0.191375 -0.04548,-0.109899 -0.04548,-0.263378 0,-0.176216 0.06442,-0.308853 0.06632,-0.134531 0.176217,-0.221692 0.111793,-0.08906 0.261483,-0.132636 0.151584,-0.04358 0.320221,-0.04358 0.08716,0 0.174322,0.01326 0.08716,0.01326 0.162953,0.036 0.07579,0.02274 0.134531,0.05116 0.05874,0.02842 0.07769,0.04737 0.01895,0.01895 0.02463,0.03221 0.0076,0.01326 0.01137,0.036 0.0057,0.02084 0.0076,0.05495 0.0019,0.03221 0.0019,0.08148 0,0.05495 -0.0038,0.09284 -0.0019,0.0379 -0.0095,0.06253 -0.0057,0.02463 -0.01895,0.036 -0.01137,0.01137 -0.03221,0.01137 -0.02084,0 -0.06632,-0.02653 -0.04548,-0.02653 -0.111793,-0.05684 -0.06632,-0.03221 -0.153479,-0.05684 -0.08716,-0.02653 -0.191375,-0.02653 -0.08148,0 -0.142111,0.02084 -0.06063,0.01895 -0.102319,0.05495 -0.03979,0.03411 -0.06063,0.08337 -0.01895,0.04927 -0.01895,0.104214 0,0.08148 0.04358,0.14211 0.04547,0.05874 0.119372,0.106109 0.07579,0.04547 0.170533,0.08716 0.09474,0.03979 0.193269,0.08527 0.09853,0.04547 0.19327,0.104214 0.09474,0.05684 0.168638,0.138321 0.0739,0.07958 0.119372,0.18948 0.04548,0.108004 0.04548,0.255798 z"
         style="font-style:normal;font-variant:normal;font-weight:bold;font-stretch:normal;font-size:3.88055563px;font-family:Calibri;-inkscape-font-specification:'Calibri Bold';stroke-width:0.26458332"
         id="path3294" />
      <path
         d="m 68.28228,54.075317 q 0,0.05684 -0.0057,0.09663 -0.0038,0.0379 -0.01326,0.06442 -0.0095,0.02463 -0.02463,0.036 -0.01326,0.01137 -0.03221,0.01137 H 67.08287 q -0.06253,0 -0.106109,-0.036 -0.04169,-0.0379 -0.04169,-0.121268 v -2.226393 q 0,-0.01895 0.01137,-0.03411 0.01326,-0.01516 0.04169,-0.02463 0.02842,-0.0095 0.07579,-0.01516 0.04926,-0.0057 0.121267,-0.0057 0.0739,0 0.121267,0.0057 0.04737,0.0057 0.07579,0.01516 0.02842,0.0095 0.03979,0.02463 0.01326,0.01516 0.01326,0.03411 v 1.97249 h 0.771184 q 0.01895,0 0.03221,0.01137 0.01516,0.0095 0.02463,0.03411 0.0095,0.02274 0.01326,0.06253 0.0057,0.0379 0.0057,0.09474 z"
         style="font-style:normal;font-variant:normal;font-weight:bold;font-stretch:normal;font-size:3.88055563px;font-family:Calibri;-inkscape-font-specification:'Calibri Bold';stroke-width:0.26458332"
         id="path3296" />
      <path
         d="m 69.955389,52.036509 q 0,0.05684 -0.0057,0.09663 -0.0038,0.0379 -0.01516,0.06063 -0.0095,0.02274 -0.02274,0.03411 -0.01326,0.01137 -0.03032,0.01137 H 69.07999 v 0.659391 h 0.752237 q 0.01705,0 0.03032,0.0095 0.01326,0.0095 0.02274,0.03221 0.01137,0.02274 0.01516,0.06063 0.0057,0.0379 0.0057,0.09474 0,0.05684 -0.0057,0.09474 -0.0038,0.0379 -0.01516,0.06253 -0.0095,0.02463 -0.02274,0.036 -0.01326,0.0095 -0.03032,0.0095 H 69.07999 v 0.913295 q 0,0.02084 -0.01137,0.036 -0.01137,0.01516 -0.04169,0.02653 -0.02842,0.0095 -0.07579,0.01516 -0.04737,0.0057 -0.121267,0.0057 -0.072,0 -0.121268,-0.0057 -0.04737,-0.0057 -0.07579,-0.01516 -0.02842,-0.01137 -0.04169,-0.02653 -0.01137,-0.01516 -0.01137,-0.036 v -2.222603 q 0,-0.08337 0.04169,-0.119373 0.04358,-0.0379 0.106109,-0.0379 h 1.153935 q 0.01705,0 0.03032,0.01137 0.01326,0.0095 0.02274,0.03411 0.01137,0.02274 0.01516,0.06253 0.0057,0.03979 0.0057,0.09663 z"
         style="font-style:normal;font-variant:normal;font-weight:bold;font-stretch:normal;font-size:3.88055563px;font-family:Calibri;-inkscape-font-specification:'Calibri Bold';stroke-width:0.26458332"
         id="path3298" />
      <path
         d="m 72.536112,53.029386 q 0,0.305063 -0.07579,0.545703 -0.07579,0.24064 -0.225482,0.409277 -0.149689,0.166743 -0.371381,0.255798 -0.219797,0.08716 -0.509702,0.08716 -0.286115,0 -0.500228,-0.0739 -0.212218,-0.07579 -0.354328,-0.229271 -0.14211,-0.153479 -0.214112,-0.390329 -0.07011,-0.236851 -0.07011,-0.560862 0,-0.297484 0.07579,-0.534334 0.07579,-0.238745 0.225481,-0.405488 0.14969,-0.166743 0.369487,-0.255798 0.221692,-0.08906 0.513491,-0.08906 0.278536,0 0.490754,0.0739 0.214113,0.0739 0.356223,0.227376 0.144005,0.153479 0.216008,0.388435 0.0739,0.233061 0.0739,0.551388 z m -0.522966,0.02653 q 0,-0.19327 -0.03032,-0.350539 -0.03032,-0.159163 -0.104215,-0.270956 -0.072,-0.113689 -0.193269,-0.174322 -0.121268,-0.06253 -0.303169,-0.06253 -0.183796,0 -0.306958,0.07011 -0.123162,0.06821 -0.198954,0.183796 -0.07579,0.115583 -0.108004,0.270957 -0.03032,0.153479 -0.03032,0.325906 0,0.200849 0.03032,0.361907 0.03032,0.159163 0.10232,0.272851 0.072,0.113689 0.193269,0.174322 0.121268,0.05874 0.305064,0.05874 0.183795,0 0.306958,-0.06821 0.123162,-0.06821 0.198954,-0.18569 0.07579,-0.117478 0.106109,-0.272852 0.03221,-0.157269 0.03221,-0.333485 z"
         style="font-style:normal;font-variant:normal;font-weight:bold;font-stretch:normal;font-size:3.88055563px;font-family:Calibri;-inkscape-font-specification:'Calibri Bold';stroke-width:0.26458332"
         id="path3300" />
    </g>
    <g
       aria-label="L
F
O
2"
       style="font-style:normal;font-variant:normal;font-weight:bold;font-stretch:normal;font-size:3.52777767px;line-height:89.99999762%;font-family:Consolas;-inkscape-font-specification:'Consolas Bold';text-align:start;letter-spacing:0px;word-spacing:0px;writing-mode:lr-tb;text-anchor:start;fill:#000000;fill-opacity:1;stroke:none;stroke-width:0.26458332"
       id="text295">
      <path
         d="m 37.375662,123.15662 v -2.25137 h 0.430637 v 1.88791 h 0.950846 v 0.36346 z"
         style="line-height:89.99999762%;text-align:start;writing-mode:lr-tb;text-anchor:start;stroke-width:0.26458332"
         id="path3303" />
      <path
         d="m 37.783905,124.43854 v 0.62356 h 0.850939 v 0.34795 h -0.850939 v 0.92157 h -0.430636 v -2.25137 h 1.329806 v 0.35829 z"
         style="line-height:89.99999762%;text-align:start;writing-mode:lr-tb;text-anchor:start;stroke-width:0.26458332"
         id="path3305" />
      <path
         d="m 38.912174,128.37146 q 0,0.30661 -0.07235,0.52882 -0.07062,0.22221 -0.19637,0.36518 -0.124024,0.14297 -0.292833,0.21187 -0.167088,0.0689 -0.35829,0.0689 -0.444418,0 -0.668349,-0.29455 -0.223931,-0.29628 -0.223931,-0.85955 0,-0.30662 0.07062,-0.52883 0.07235,-0.2222 0.196371,-0.36518 0.125746,-0.14297 0.292833,-0.21187 0.16881,-0.0689 0.360012,-0.0689 0.444418,0 0.668349,0.29456 0.223931,0.29455 0.223931,0.85955 z m -0.447862,0.0207 q 0,-0.39963 -0.106798,-0.596 -0.106798,-0.19637 -0.3514,-0.19637 -0.122301,0 -0.208428,0.0517 -0.08613,0.05 -0.142972,0.14814 -0.05512,0.0982 -0.08096,0.24288 -0.02584,0.14297 -0.02584,0.32901 0,0.39963 0.106798,0.596 0.108521,0.19637 0.3514,0.19637 0.122301,0 0.208428,-0.05 0.08785,-0.0517 0.142972,-0.14986 0.05512,-0.0982 0.08096,-0.24115 0.02584,-0.1447 0.02584,-0.33073 z"
         style="line-height:89.99999762%;text-align:start;writing-mode:lr-tb;text-anchor:start;stroke-width:0.26458332"
         id="path3307" />
      <path
         d="m 37.258528,132.68162 v -0.31006 l 0.532268,-0.53227 q 0.149861,-0.14986 0.239434,-0.25838 0.09129,-0.10852 0.139526,-0.19293 0.04995,-0.0861 0.06546,-0.15847 0.0155,-0.0724 0.0155,-0.14986 0,-0.0637 -0.02067,-0.12058 -0.02067,-0.0586 -0.06029,-0.0999 -0.03962,-0.0431 -0.09991,-0.0672 -0.06029,-0.0258 -0.137803,-0.0258 -0.132637,0 -0.246325,0.0586 -0.113688,0.0568 -0.215318,0.15331 l -0.222209,-0.28595 q 0.146417,-0.13608 0.329007,-0.21704 0.184312,-0.0827 0.397908,-0.0827 0.165365,0 0.299724,0.0431 0.134358,0.0413 0.229098,0.12403 0.09646,0.0827 0.148139,0.2067 0.0534,0.12403 0.0534,0.28594 0,0.13436 -0.03617,0.2515 -0.03617,0.11541 -0.105075,0.22565 -0.0689,0.11024 -0.170533,0.22049 -0.09991,0.11024 -0.229099,0.23254 l -0.327284,0.31178 h 0.949124 v 0.38758 z"
         style="line-height:89.99999762%;text-align:start;writing-mode:lr-tb;text-anchor:start;stroke-width:0.26458332"
         id="path3309" />
    </g>
    <g
       aria-label="AMP"
       style="font-style:normal;font-variant:normal;font-weight:bold;font-stretch:normal;font-size:3.52777767px;line-height:1.25;font-family:Consolas;-inkscape-font-specification:'Consolas Bold';text-align:center;letter-spacing:0px;word-spacing:0px;text-anchor:middle;fill:#000000;fill-opacity:1;stroke:none;stroke-width:0.26458332"
       id="text299">
      <path
         d="m 47.884562,98.903509 q 0.02067,0.06201 0.02584,0.09819 0.0052,0.03617 -0.01378,0.05512 -0.01895,0.01723 -0.06718,0.02067 -0.04823,0.0052 -0.132636,0.0052 -0.08785,0 -0.137804,-0.0034 -0.04823,-0.0017 -0.07407,-0.0086 -0.02584,-0.0086 -0.03617,-0.02239 -0.01034,-0.01378 -0.01723,-0.03617 l -0.149861,-0.447863 h -0.837159 l -0.141249,0.435805 q -0.0069,0.02412 -0.01895,0.04134 -0.01033,0.0155 -0.03617,0.02584 -0.02412,0.0086 -0.07062,0.01206 -0.04479,0.0034 -0.118855,0.0034 -0.07924,0 -0.124024,-0.0052 -0.04479,-0.0052 -0.06201,-0.02412 -0.01723,-0.02067 -0.01206,-0.05684 0.0052,-0.03617 0.02584,-0.09646 l 0.687296,-1.977484 q 0.01034,-0.02928 0.02412,-0.04651 0.01378,-0.01895 0.04306,-0.02756 0.03101,-0.01033 0.0844,-0.01206 0.0534,-0.0034 0.141249,-0.0034 0.10163,0 0.161919,0.0034 0.06029,0.0017 0.09302,0.01206 0.03445,0.0086 0.04823,0.02756 0.0155,0.01895 0.02584,0.05168 z m -1.023193,-1.634697 h -0.0017 l -0.315226,0.947401 h 0.632175 z"
         style="font-style:normal;font-variant:normal;font-weight:bold;font-stretch:normal;font-family:Calibri;-inkscape-font-specification:'Calibri Bold';stroke-width:0.26458332"
         id="path3312" />
      <path
         d="m 50.792223,99.010307 q 0,0.01723 -0.01034,0.03101 -0.0086,0.01378 -0.03445,0.02239 -0.02412,0.0086 -0.06546,0.01378 -0.04134,0.0052 -0.105076,0.0052 -0.06201,0 -0.103353,-0.0052 -0.04134,-0.0052 -0.06546,-0.01378 -0.02412,-0.0086 -0.03445,-0.02239 -0.01034,-0.01378 -0.01034,-0.03101 v -1.813842 h -0.0034 l -0.645955,1.81212 q -0.0069,0.02239 -0.02239,0.0379 -0.0155,0.01378 -0.04306,0.02239 -0.02584,0.0086 -0.06718,0.01034 -0.04134,0.0034 -0.09991,0.0034 -0.05857,0 -0.09991,-0.0052 -0.04134,-0.0034 -0.0689,-0.01206 -0.02584,-0.01033 -0.04134,-0.02412 -0.0155,-0.01378 -0.02067,-0.03273 l -0.623563,-1.81212 h -0.0034 v 1.813842 q 0,0.01723 -0.01033,0.03101 -0.0086,0.01378 -0.03445,0.02239 -0.02584,0.0086 -0.06718,0.01378 -0.03962,0.0052 -0.103353,0.0052 -0.06201,0 -0.103353,-0.0052 -0.04134,-0.0052 -0.06718,-0.01378 -0.02412,-0.0086 -0.03445,-0.02239 -0.0086,-0.01378 -0.0086,-0.03101 V 97.02421 q 0,-0.08785 0.04651,-0.134359 0.04651,-0.04651 0.124023,-0.04651 h 0.296278 q 0.07924,0 0.136082,0.01378 0.05684,0.01206 0.09819,0.04306 0.04134,0.02928 0.0689,0.07924 0.02756,0.04823 0.04823,0.120578 l 0.482313,1.328084 h 0.0069 l 0.499538,-1.324639 q 0.02239,-0.07235 0.04823,-0.122301 0.02756,-0.04995 0.06201,-0.08096 0.03617,-0.03101 0.08441,-0.04306 0.04823,-0.01378 0.111966,-0.01378 h 0.304891 q 0.04651,0 0.07924,0.01206 0.03445,0.01206 0.05512,0.03617 0.02239,0.02239 0.03273,0.05684 0.01206,0.03273 0.01206,0.07579 z"
         style="font-style:normal;font-variant:normal;font-weight:bold;font-stretch:normal;font-family:Calibri;-inkscape-font-specification:'Calibri Bold';stroke-width:0.26458332"
         id="path3314" />
      <path
         d="m 52.807603,97.520304 q 0,0.187757 -0.05857,0.332451 -0.05857,0.144694 -0.170532,0.244602 -0.111966,0.09819 -0.275608,0.149862 -0.16192,0.05168 -0.382406,0.05168 h -0.186035 v 0.711412 q 0,0.01723 -0.01206,0.03101 -0.01033,0.01378 -0.03617,0.02239 -0.02584,0.0086 -0.0689,0.01378 -0.04306,0.0052 -0.110243,0.0052 -0.06546,0 -0.110243,-0.0052 -0.04306,-0.0052 -0.0689,-0.01378 -0.02584,-0.0086 -0.03617,-0.02239 -0.01033,-0.01378 -0.01033,-0.03101 v -2.005045 q 0,-0.08096 0.04134,-0.120579 0.04306,-0.04134 0.111966,-0.04134 h 0.525377 q 0.07924,0 0.149862,0.0069 0.07235,0.0052 0.172254,0.02584 0.09991,0.01895 0.201538,0.07235 0.103353,0.0534 0.1757,0.136081 0.07235,0.08096 0.110243,0.191203 0.0379,0.10852 0.0379,0.244602 z m -0.4737,0.03273 q 0,-0.117133 -0.04134,-0.192925 -0.04134,-0.07579 -0.101631,-0.111966 -0.06029,-0.03617 -0.127468,-0.04479 -0.06546,-0.01034 -0.136081,-0.01034 h -0.192926 v 0.756199 h 0.203261 q 0.10852,0 0.180867,-0.02928 0.07407,-0.02928 0.120579,-0.08096 0.04651,-0.0534 0.07062,-0.125746 0.02412,-0.07407 0.02412,-0.160197 z"
         style="font-style:normal;font-variant:normal;font-weight:bold;font-stretch:normal;font-family:Calibri;-inkscape-font-specification:'Calibri Bold';stroke-width:0.26458332"
         id="path3316" />
    </g>
    <g
       aria-label="X"
       style="font-style:normal;font-variant:normal;font-weight:bold;font-stretch:normal;font-size:3.52777767px;line-height:1.25;font-family:Consolas;-inkscape-font-specification:'Consolas Bold';text-align:center;letter-spacing:0px;word-spacing:0px;text-anchor:middle;fill:#000000;fill-opacity:1;stroke:none;stroke-width:0.26458332"
       id="text303">
      <path
         d="m 62.530354,98.901627 q 0.03101,0.06029 0.03962,0.09646 0.01034,0.03617 -0.01033,0.05512 -0.02067,0.01895 -0.07579,0.02411 -0.0534,0.0052 -0.149862,0.0052 -0.08096,0 -0.127469,-0.0034 -0.04651,-0.0034 -0.07407,-0.01033 -0.02584,-0.0086 -0.0379,-0.02239 -0.01206,-0.01378 -0.02067,-0.03445 L 61.6553,98.20744 61.238444,99.01187 q -0.01034,0.02067 -0.02239,0.03445 -0.01206,0.01378 -0.03962,0.02239 -0.02584,0.0069 -0.07407,0.01033 -0.04651,0.0034 -0.124023,0.0034 -0.08957,0 -0.139526,-0.0052 -0.04823,-0.0052 -0.06546,-0.02411 -0.01723,-0.01895 -0.0069,-0.05512 0.01033,-0.03617 0.04306,-0.09646 l 0.53399,-0.97324 -0.496094,-0.914673 q -0.03101,-0.06201 -0.04306,-0.09818 -0.01034,-0.0379 0.0086,-0.05512 0.02067,-0.01895 0.07407,-0.02239 0.0534,-0.0052 0.151584,-0.0052 0.08096,0 0.127469,0.0034 0.04823,0.0034 0.07579,0.01206 0.02756,0.0069 0.0379,0.02067 0.01206,0.01378 0.02239,0.03445 l 0.391018,0.737251 0.380683,-0.737251 q 0.01034,-0.02067 0.02067,-0.03445 0.01206,-0.01378 0.03617,-0.02067 0.02584,-0.0086 0.0689,-0.01206 0.04479,-0.0034 0.122301,-0.0034 0.08613,0 0.136081,0.0052 0.04995,0.0034 0.0689,0.02239 0.01895,0.01895 0.0086,0.05512 -0.0086,0.03617 -0.0379,0.09818 l -0.496094,0.909506 z"
         style="font-style:normal;font-variant:normal;font-weight:bold;font-stretch:normal;font-family:Calibri;-inkscape-font-specification:'Calibri Bold';stroke-width:0.26458332"
         id="path3319" />
    </g>
    <g
       aria-label="Y"
       style="font-style:normal;font-variant:normal;font-weight:bold;font-stretch:normal;font-size:3.52777767px;line-height:1.25;font-family:Consolas;-inkscape-font-specification:'Consolas Bold';text-align:center;letter-spacing:0px;word-spacing:0px;text-anchor:middle;fill:#000000;fill-opacity:1;stroke:none;stroke-width:0.26458332"
       id="text307">
      <path
         d="m 75.325773,98.226388 v 0.783759 q 0,0.01723 -0.01206,0.03101 -0.01034,0.01378 -0.03617,0.02239 -0.02584,0.0086 -0.07062,0.01378 -0.04306,0.0052 -0.108521,0.0052 -0.06718,0 -0.110243,-0.0052 -0.04306,-0.0052 -0.07062,-0.01378 -0.02584,-0.0086 -0.03617,-0.02239 -0.01033,-0.01378 -0.01033,-0.03101 v -0.783759 l -0.609782,-1.214396 q -0.03273,-0.06373 -0.04306,-0.09819 -0.0086,-0.03617 0.01034,-0.0534 0.02067,-0.01895 0.07407,-0.02239 0.0534,-0.0052 0.148139,-0.0052 0.07924,0 0.125746,0.0034 0.04823,0.0034 0.07579,0.01378 0.02756,0.0086 0.03962,0.02412 0.01378,0.0155 0.02584,0.03962 l 0.248047,0.54777 q 0.03617,0.07924 0.07062,0.167087 0.03617,0.08785 0.07235,0.184312 h 0.0034 q 0.03273,-0.09302 0.06718,-0.180867 0.03445,-0.08785 0.06718,-0.167087 l 0.244602,-0.544325 q 0.0086,-0.02756 0.02067,-0.04306 0.01378,-0.01722 0.03962,-0.02756 0.02584,-0.01033 0.07062,-0.01378 0.04479,-0.0034 0.118856,-0.0034 0.09818,0 0.151584,0.0052 0.05512,0.0034 0.07407,0.02239 0.02067,0.01722 0.01034,0.0534 -0.01034,0.03617 -0.04134,0.09819 z"
         style="font-style:normal;font-variant:normal;font-weight:bold;font-stretch:normal;font-family:Calibri;-inkscape-font-specification:'Calibri Bold';stroke-width:0.26458332"
         id="path3322" />
    </g>
    <g
       aria-label="AMP"
       style="font-style:normal;font-variant:normal;font-weight:bold;font-stretch:normal;font-size:3.52777767px;line-height:1.25;font-family:Consolas;-inkscape-font-specification:'Consolas Bold';text-align:center;letter-spacing:0px;word-spacing:0px;text-anchor:middle;fill:#000000;fill-opacity:1;stroke:none;stroke-width:0.26458332"
       id="text299-1">
      <path
         d="m 47.884536,119.87287 q 0.02067,0.062 0.02584,0.0982 0.0052,0.0362 -0.01378,0.0551 -0.01895,0.0172 -0.06718,0.0207 -0.04823,0.005 -0.132636,0.005 -0.08785,0 -0.137804,-0.003 -0.04823,-0.002 -0.07407,-0.009 -0.02584,-0.009 -0.03617,-0.0224 -0.01034,-0.0138 -0.01723,-0.0362 l -0.149861,-0.44786 h -0.837158 l -0.141249,0.4358 q -0.0069,0.0241 -0.01895,0.0413 -0.01034,0.0155 -0.03617,0.0258 -0.02412,0.009 -0.07062,0.0121 -0.04479,0.003 -0.118856,0.003 -0.07924,0 -0.124023,-0.005 -0.04479,-0.005 -0.06201,-0.0241 -0.01723,-0.0207 -0.01206,-0.0568 0.0052,-0.0362 0.02584,-0.0965 l 0.687297,-1.97748 q 0.01033,-0.0293 0.02411,-0.0465 0.01378,-0.0189 0.04306,-0.0276 0.03101,-0.0103 0.08441,-0.0121 0.0534,-0.003 0.141249,-0.003 0.10163,0 0.161919,0.003 0.06029,0.002 0.09302,0.0121 0.03445,0.009 0.04823,0.0276 0.0155,0.019 0.02584,0.0517 z m -1.023194,-1.6347 h -0.0017 l -0.315227,0.9474 h 0.632175 z"
         style="font-style:normal;font-variant:normal;font-weight:bold;font-stretch:normal;font-family:Calibri;-inkscape-font-specification:'Calibri Bold';stroke-width:0.26458332"
         id="path3325" />
      <path
         d="m 50.792196,119.97967 q 0,0.0172 -0.01033,0.031 -0.0086,0.0138 -0.03445,0.0224 -0.02412,0.009 -0.06546,0.0138 -0.04134,0.005 -0.105075,0.005 -0.06201,0 -0.103353,-0.005 -0.04134,-0.005 -0.06546,-0.0138 -0.02412,-0.009 -0.03445,-0.0224 -0.01034,-0.0138 -0.01034,-0.031 v -1.81385 h -0.0034 l -0.645956,1.81213 q -0.0069,0.0224 -0.02239,0.0379 -0.0155,0.0138 -0.04306,0.0224 -0.02584,0.009 -0.06718,0.0103 -0.04134,0.003 -0.09991,0.003 -0.05857,0 -0.09991,-0.005 -0.04134,-0.003 -0.0689,-0.0121 -0.02584,-0.0103 -0.04134,-0.0241 -0.0155,-0.0138 -0.02067,-0.0327 l -0.623562,-1.81213 h -0.0034 v 1.81385 q 0,0.0172 -0.01033,0.031 -0.0086,0.0138 -0.03445,0.0224 -0.02584,0.009 -0.06718,0.0138 -0.03962,0.005 -0.103353,0.005 -0.06201,0 -0.103353,-0.005 -0.04134,-0.005 -0.06718,-0.0138 -0.02412,-0.009 -0.03445,-0.0224 -0.0086,-0.0138 -0.0086,-0.031 v -1.9861 q 0,-0.0879 0.04651,-0.13436 0.04651,-0.0465 0.124023,-0.0465 h 0.296279 q 0.07924,0 0.136081,0.0138 0.05684,0.0121 0.09819,0.0431 0.04134,0.0293 0.0689,0.0792 0.02756,0.0482 0.04823,0.12058 l 0.482314,1.32809 h 0.0069 l 0.499539,-1.32464 q 0.02239,-0.0724 0.04823,-0.1223 0.02756,-0.05 0.06201,-0.081 0.03617,-0.031 0.08441,-0.0431 0.04823,-0.0138 0.111965,-0.0138 h 0.304891 q 0.04651,0 0.07924,0.0121 0.03445,0.0121 0.05512,0.0362 0.02239,0.0224 0.03273,0.0568 0.01206,0.0327 0.01206,0.0758 z"
         style="font-style:normal;font-variant:normal;font-weight:bold;font-stretch:normal;font-family:Calibri;-inkscape-font-specification:'Calibri Bold';stroke-width:0.26458332"
         id="path3327" />
      <path
         d="m 52.807577,118.48966 q 0,0.18776 -0.05857,0.33246 -0.05857,0.14469 -0.170532,0.2446 -0.111966,0.0982 -0.275608,0.14986 -0.161919,0.0517 -0.382405,0.0517 h -0.186036 v 0.71141 q 0,0.0172 -0.01206,0.031 -0.01034,0.0138 -0.03617,0.0224 -0.02584,0.009 -0.0689,0.0138 -0.04306,0.005 -0.110243,0.005 -0.06546,0 -0.110243,-0.005 -0.04306,-0.005 -0.0689,-0.0138 -0.02584,-0.009 -0.03617,-0.0224 -0.01034,-0.0138 -0.01034,-0.031 v -2.00505 q 0,-0.081 0.04134,-0.12058 0.04306,-0.0413 0.111965,-0.0413 h 0.525377 q 0.07924,0 0.149862,0.007 0.07235,0.005 0.172255,0.0258 0.09991,0.019 0.201538,0.0724 0.103353,0.0534 0.1757,0.13608 0.07235,0.081 0.110243,0.1912 0.0379,0.10852 0.0379,0.2446 z m -0.473701,0.0327 q 0,-0.11713 -0.04134,-0.19292 -0.04134,-0.0758 -0.10163,-0.11197 -0.06029,-0.0362 -0.127469,-0.0448 -0.06546,-0.0103 -0.136081,-0.0103 h -0.192926 v 0.7562 h 0.203261 q 0.108521,0 0.180868,-0.0293 0.07407,-0.0293 0.120578,-0.081 0.04651,-0.0534 0.07062,-0.12575 0.02412,-0.0741 0.02412,-0.1602 z"
         style="font-style:normal;font-variant:normal;font-weight:bold;font-stretch:normal;font-family:Calibri;-inkscape-font-specification:'Calibri Bold';stroke-width:0.26458332"
         id="path3329" />
    </g>
    <g
       aria-label="X"
       style="font-style:normal;font-variant:normal;font-weight:bold;font-stretch:normal;font-size:3.52777767px;line-height:1.25;font-family:Consolas;-inkscape-font-specification:'Consolas Bold';text-align:center;letter-spacing:0px;word-spacing:0px;text-anchor:middle;fill:#000000;fill-opacity:1;stroke:none;stroke-width:0.26458332"
       id="text303-4">
      <path
         d="m 62.529939,119.87125 q 0.03101,0.0603 0.03962,0.0965 0.01033,0.0362 -0.01034,0.0551 -0.02067,0.019 -0.07579,0.0241 -0.0534,0.005 -0.149862,0.005 -0.08096,0 -0.127468,-0.003 -0.04651,-0.003 -0.07407,-0.0103 -0.02584,-0.009 -0.0379,-0.0224 -0.01206,-0.0138 -0.02067,-0.0345 l -0.418579,-0.80443 -0.416856,0.80443 q -0.01033,0.0207 -0.02239,0.0345 -0.01206,0.0138 -0.03962,0.0224 -0.02584,0.007 -0.07407,0.0103 -0.04651,0.003 -0.124024,0.003 -0.08957,0 -0.139526,-0.005 -0.04823,-0.005 -0.06546,-0.0241 -0.01723,-0.019 -0.0069,-0.0551 0.01033,-0.0362 0.04306,-0.0965 l 0.53399,-0.97324 -0.496094,-0.91467 q -0.03101,-0.062 -0.04306,-0.0982 -0.01034,-0.0379 0.0086,-0.0551 0.02067,-0.0189 0.07407,-0.0224 0.0534,-0.005 0.151584,-0.005 0.08096,0 0.127469,0.003 0.04823,0.003 0.07579,0.0121 0.02756,0.007 0.0379,0.0207 0.01206,0.0138 0.02239,0.0344 l 0.391018,0.73725 0.380683,-0.73725 q 0.01034,-0.0207 0.02067,-0.0344 0.01206,-0.0138 0.03617,-0.0207 0.02584,-0.009 0.0689,-0.0121 0.04479,-0.003 0.122301,-0.003 0.08613,0 0.136082,0.005 0.04995,0.003 0.0689,0.0224 0.01895,0.019 0.0086,0.0551 -0.0086,0.0362 -0.0379,0.0982 l -0.496094,0.90951 z"
         style="font-style:normal;font-variant:normal;font-weight:bold;font-stretch:normal;font-family:Calibri;-inkscape-font-specification:'Calibri Bold';stroke-width:0.26458332"
         id="path3332" />
    </g>
    <g
       aria-label="Y"
       style="font-style:normal;font-variant:normal;font-weight:bold;font-stretch:normal;font-size:3.52777767px;line-height:1.25;font-family:Consolas;-inkscape-font-specification:'Consolas Bold';text-align:center;letter-spacing:0px;word-spacing:0px;text-anchor:middle;fill:#000000;fill-opacity:1;stroke:none;stroke-width:0.26458332"
       id="text307-1">
      <path
         d="m 75.32549,119.19591 v 0.78376 q 0,0.0172 -0.01206,0.031 -0.01034,0.0138 -0.03617,0.0224 -0.02584,0.009 -0.07062,0.0138 -0.04306,0.005 -0.108521,0.005 -0.06718,0 -0.110243,-0.005 -0.04306,-0.005 -0.07062,-0.0138 -0.02584,-0.009 -0.03617,-0.0224 -0.01033,-0.0138 -0.01033,-0.031 v -0.78376 l -0.609782,-1.2144 q -0.03273,-0.0637 -0.04306,-0.0982 -0.0086,-0.0362 0.01033,-0.0534 0.02067,-0.019 0.07407,-0.0224 0.0534,-0.005 0.148139,-0.005 0.07924,0 0.125746,0.003 0.04823,0.003 0.07579,0.0138 0.02756,0.009 0.03962,0.0241 0.01378,0.0155 0.02584,0.0396 l 0.248047,0.54777 q 0.03617,0.0792 0.07062,0.16708 0.03617,0.0879 0.07235,0.18432 h 0.0034 q 0.03273,-0.093 0.06718,-0.18087 0.03445,-0.0879 0.06718,-0.16709 l 0.244602,-0.54432 q 0.0086,-0.0276 0.02067,-0.0431 0.01378,-0.0172 0.03962,-0.0276 0.02584,-0.0103 0.07063,-0.0138 0.04479,-0.003 0.118855,-0.003 0.09819,0 0.151584,0.005 0.05512,0.003 0.07407,0.0224 0.02067,0.0172 0.01033,0.0534 -0.01033,0.0362 -0.04134,0.0982 z"
         style="font-style:normal;font-variant:normal;font-weight:bold;font-stretch:normal;font-family:Calibri;-inkscape-font-specification:'Calibri Bold';stroke-width:0.26458332"
         id="path3335" />
    </g>
    <g
       aria-label="Xs"
       style="font-style:normal;font-variant:normal;font-weight:bold;font-stretch:normal;font-size:3.52777767px;line-height:1.25;font-family:Consolas;-inkscape-font-specification:'Consolas Bold';text-align:center;letter-spacing:0px;word-spacing:0px;text-anchor:middle;fill:#000000;fill-opacity:1;stroke:none;stroke-width:0.26458332"
       id="text365">
      <path
         d="m 44.500786,139.0544 q 0.0186,0.0362 0.02377,0.0579 0.0062,0.0217 -0.0062,0.0331 -0.0124,0.0114 -0.04548,0.0145 -0.03204,0.003 -0.08992,0.003 -0.04858,0 -0.07648,-0.002 -0.02791,-0.002 -0.04444,-0.006 -0.0155,-0.005 -0.02274,-0.0134 -0.0072,-0.008 -0.0124,-0.0207 l -0.251147,-0.48266 -0.250114,0.48266 q -0.0062,0.0124 -0.01344,0.0207 -0.0072,0.008 -0.02377,0.0134 -0.0155,0.004 -0.04444,0.006 -0.02791,0.002 -0.07441,0.002 -0.05374,0 -0.08372,-0.003 -0.02894,-0.003 -0.03927,-0.0145 -0.01034,-0.0114 -0.0041,-0.0331 0.0062,-0.0217 0.02584,-0.0579 l 0.320393,-0.58394 -0.297656,-0.5488 q -0.0186,-0.0372 -0.02584,-0.0589 -0.0062,-0.0227 0.0052,-0.0331 0.0124,-0.0114 0.04444,-0.0134 0.03204,-0.003 0.09095,-0.003 0.04858,0 0.07648,0.002 0.02894,0.002 0.04547,0.007 0.01654,0.004 0.02274,0.0124 0.0072,0.008 0.01344,0.0207 l 0.234611,0.44235 0.228409,-0.44235 q 0.0062,-0.0124 0.0124,-0.0207 0.0072,-0.008 0.0217,-0.0124 0.0155,-0.005 0.04134,-0.007 0.02687,-0.002 0.07338,-0.002 0.05168,0 0.08165,0.003 0.02997,0.002 0.04134,0.0134 0.01137,0.0114 0.0052,0.0331 -0.0052,0.0217 -0.02274,0.0589 l -0.297657,0.5457 z"
         style="font-style:normal;font-variant:normal;font-weight:bold;font-stretch:normal;font-size:2.11666656px;font-family:Calibri;-inkscape-font-specification:'Calibri Bold';stroke-width:0.26458332"
         id="path3338" />
      <path
         d="m 45.347245,138.86113 q 0,0.0786 -0.02997,0.1385 -0.02894,0.0599 -0.08268,0.10025 -0.05374,0.0403 -0.127124,0.0599 -0.07338,0.0207 -0.159164,0.0207 -0.05168,0 -0.09922,-0.008 -0.04651,-0.007 -0.08372,-0.0186 -0.03721,-0.0124 -0.06201,-0.0248 -0.0248,-0.0124 -0.03617,-0.0227 -0.01137,-0.0114 -0.01757,-0.0341 -0.0062,-0.0238 -0.0062,-0.0692 0,-0.03 0.0021,-0.0476 0.0021,-0.0186 0.0062,-0.0289 0.0041,-0.0114 0.01033,-0.0145 0.0062,-0.004 0.0155,-0.004 0.01137,0 0.03307,0.0134 0.02274,0.0124 0.05581,0.0279 0.03307,0.0155 0.07648,0.0289 0.04444,0.0134 0.100252,0.0134 0.03514,0 0.06201,-0.007 0.02791,-0.007 0.04754,-0.0207 0.02067,-0.0134 0.03101,-0.0341 0.01033,-0.0207 0.01033,-0.0476 0,-0.031 -0.01964,-0.0527 -0.0186,-0.0227 -0.05064,-0.0393 -0.03101,-0.0165 -0.07131,-0.031 -0.03928,-0.0145 -0.08165,-0.032 -0.04134,-0.0176 -0.08165,-0.0403 -0.03927,-0.0227 -0.07131,-0.0558 -0.03101,-0.0331 -0.05064,-0.0796 -0.0186,-0.0465 -0.0186,-0.11163 0,-0.0661 0.02584,-0.12092 0.02584,-0.0558 0.07441,-0.0951 0.04858,-0.0393 0.117823,-0.061 0.07028,-0.0217 0.157096,-0.0217 0.04341,0 0.08372,0.006 0.04134,0.006 0.07441,0.0155 0.03307,0.009 0.05581,0.0207 0.02274,0.0103 0.03204,0.0186 0.01033,0.007 0.01447,0.0155 0.0041,0.007 0.0062,0.0186 0.0021,0.0103 0.0031,0.0269 0.0021,0.0155 0.0021,0.0393 0,0.0279 -0.0021,0.0455 -0.001,0.0176 -0.0052,0.0279 -0.0031,0.0103 -0.0093,0.0145 -0.0062,0.003 -0.01447,0.003 -0.0093,0 -0.02894,-0.0103 -0.01964,-0.0114 -0.04961,-0.0238 -0.02894,-0.0124 -0.06821,-0.0227 -0.03824,-0.0114 -0.08785,-0.0114 -0.03514,0 -0.06098,0.007 -0.02584,0.007 -0.04237,0.0207 -0.01654,0.0134 -0.0248,0.032 -0.0083,0.0176 -0.0083,0.0382 0,0.032 0.01964,0.0537 0.01964,0.0217 0.05168,0.0382 0.03204,0.0165 0.07235,0.031 0.04134,0.0145 0.08268,0.032 0.04237,0.0165 0.08268,0.0393 0.04134,0.0227 0.07338,0.0558 0.03204,0.0331 0.05168,0.0796 0.01964,0.0455 0.01964,0.10852 z"
         style="font-style:normal;font-variant:normal;font-weight:bold;font-stretch:normal;font-size:2.11666656px;font-family:Calibri;-inkscape-font-specification:'Calibri Bold';stroke-width:0.26458332"
         id="path3340" />
    </g>
    <g
       aria-label="Ys"
       style="font-style:normal;font-variant:normal;font-weight:bold;font-stretch:normal;font-size:3.52777767px;line-height:1.25;font-family:Consolas;-inkscape-font-specification:'Consolas Bold';text-align:center;letter-spacing:0px;word-spacing:0px;text-anchor:middle;fill:#000000;fill-opacity:1;stroke:none;stroke-width:0.26458332"
       id="text369">
      <path
         d="m 52.323567,138.64905 v 0.47025 q 0,0.0103 -0.0072,0.0186 -0.0062,0.008 -0.0217,0.0134 -0.0155,0.005 -0.04237,0.008 -0.02584,0.003 -0.06511,0.003 -0.04031,0 -0.06615,-0.003 -0.02584,-0.003 -0.04237,-0.008 -0.0155,-0.005 -0.0217,-0.0134 -0.0062,-0.008 -0.0062,-0.0186 v -0.47025 l -0.365869,-0.72864 q -0.01964,-0.0382 -0.02584,-0.0589 -0.0052,-0.0217 0.0062,-0.032 0.0124,-0.0114 0.04444,-0.0134 0.03204,-0.003 0.08888,-0.003 0.04754,0 0.07545,0.002 0.02894,0.002 0.04548,0.008 0.01654,0.005 0.02377,0.0145 0.0083,0.009 0.0155,0.0238 l 0.148828,0.32866 q 0.0217,0.0475 0.04237,0.10025 0.0217,0.0527 0.04341,0.11059 h 0.0021 q 0.01964,-0.0558 0.04031,-0.10852 0.02067,-0.0527 0.04031,-0.10025 l 0.146761,-0.3266 q 0.0052,-0.0165 0.0124,-0.0258 0.0083,-0.0103 0.02377,-0.0165 0.0155,-0.006 0.04237,-0.008 0.02687,-0.002 0.07131,-0.002 0.05891,0 0.09095,0.003 0.03307,0.002 0.04444,0.0134 0.0124,0.0103 0.0062,0.032 -0.0062,0.0217 -0.02481,0.0589 z"
         style="font-style:normal;font-variant:normal;font-weight:bold;font-stretch:normal;font-size:2.11666656px;font-family:Calibri;-inkscape-font-specification:'Calibri Bold';stroke-width:0.26458332"
         id="path3343" />
      <path
         d="m 53.383967,138.86092 q 0,0.0786 -0.02997,0.13849 -0.02894,0.0599 -0.08268,0.10026 -0.05374,0.0403 -0.127124,0.0599 -0.07338,0.0207 -0.159164,0.0207 -0.05168,0 -0.09922,-0.008 -0.04651,-0.007 -0.08372,-0.0186 -0.03721,-0.0124 -0.06201,-0.0248 -0.02481,-0.0124 -0.03617,-0.0227 -0.01137,-0.0114 -0.01757,-0.0341 -0.0062,-0.0238 -0.0062,-0.0693 0,-0.03 0.0021,-0.0475 0.0021,-0.0186 0.0062,-0.0289 0.0041,-0.0114 0.01033,-0.0145 0.0062,-0.004 0.0155,-0.004 0.01137,0 0.03307,0.0134 0.02274,0.0124 0.05581,0.0279 0.03307,0.0155 0.07648,0.0289 0.04444,0.0134 0.100253,0.0134 0.03514,0 0.06201,-0.007 0.02791,-0.007 0.04754,-0.0207 0.02067,-0.0134 0.03101,-0.0341 0.01033,-0.0207 0.01033,-0.0475 0,-0.031 -0.01964,-0.0527 -0.0186,-0.0227 -0.05064,-0.0393 -0.03101,-0.0165 -0.07131,-0.031 -0.03927,-0.0145 -0.08165,-0.032 -0.04134,-0.0176 -0.08165,-0.0403 -0.03927,-0.0227 -0.07131,-0.0558 -0.03101,-0.0331 -0.05064,-0.0796 -0.0186,-0.0465 -0.0186,-0.11162 0,-0.0662 0.02584,-0.12092 0.02584,-0.0558 0.07441,-0.0951 0.04858,-0.0393 0.117823,-0.061 0.07028,-0.0217 0.157096,-0.0217 0.04341,0 0.08372,0.006 0.04134,0.006 0.07441,0.0155 0.03307,0.009 0.05581,0.0207 0.02274,0.0103 0.03204,0.0186 0.01034,0.007 0.01447,0.0155 0.0041,0.007 0.0062,0.0186 0.0021,0.0103 0.0031,0.0269 0.0021,0.0155 0.0021,0.0393 0,0.0279 -0.0021,0.0455 -0.001,0.0176 -0.0052,0.0279 -0.0031,0.0103 -0.0093,0.0145 -0.0062,0.003 -0.01447,0.003 -0.0093,0 -0.02894,-0.0103 -0.01964,-0.0114 -0.04961,-0.0238 -0.02894,-0.0124 -0.06821,-0.0227 -0.03824,-0.0114 -0.08785,-0.0114 -0.03514,0 -0.06098,0.007 -0.02584,0.007 -0.04237,0.0207 -0.01654,0.0134 -0.02481,0.032 -0.0083,0.0176 -0.0083,0.0382 0,0.032 0.01964,0.0538 0.01964,0.0217 0.05168,0.0382 0.03204,0.0165 0.07235,0.031 0.04134,0.0145 0.08268,0.032 0.04237,0.0165 0.08268,0.0393 0.04134,0.0227 0.07338,0.0558 0.03204,0.0331 0.05168,0.0796 0.01964,0.0455 0.01964,0.10852 z"
         style="font-style:normal;font-variant:normal;font-weight:bold;font-stretch:normal;font-size:2.11666656px;font-family:Calibri;-inkscape-font-specification:'Calibri Bold';stroke-width:0.26458332"
         id="path3345" />
    </g>
    <g
       style="font-style:normal;font-variant:normal;font-weight:bold;font-stretch:normal;font-size:3.52777767px;line-height:1.25;font-family:Consolas;-inkscape-font-specification:'Consolas Bold';text-align:center;letter-spacing:0px;word-spacing:0px;text-anchor:middle;fill:#000000;fill-opacity:1;stroke:none;stroke-width:0.26458332"
       id="text373" />
    <g
       aria-label="/Y"
       style="font-style:normal;font-variant:normal;font-weight:bold;font-stretch:normal;font-size:3.52777767px;line-height:1.25;font-family:Consolas;-inkscape-font-specification:'Consolas Bold';text-align:center;letter-spacing:0px;word-spacing:0px;text-anchor:middle;fill:#000000;fill-opacity:1;stroke:none;stroke-width:0.26458332"
       id="text377">
      <path
         d="m 79.513649,139.22591 q -0.0052,0.0134 -0.01344,0.0217 -0.0083,0.008 -0.02377,0.0134 -0.01447,0.005 -0.03721,0.007 -0.0217,0.003 -0.05581,0.003 -0.04237,0 -0.06925,-0.004 -0.02687,-0.004 -0.04134,-0.0124 -0.01344,-0.008 -0.0155,-0.0217 -0.0021,-0.0124 0.0041,-0.03 l 0.61805,-1.7353 q 0.0041,-0.0134 0.0124,-0.0217 0.0083,-0.009 0.02274,-0.0145 0.01447,-0.005 0.03721,-0.007 0.02377,-0.003 0.05684,-0.003 0.04341,0 0.06925,0.004 0.02687,0.004 0.04031,0.0124 0.01344,0.008 0.0155,0.0217 0.0021,0.0124 -0.0031,0.03 z"
         style="font-style:normal;font-variant:normal;font-weight:bold;font-stretch:normal;font-size:2.11666656px;font-family:Calibri;-inkscape-font-specification:'Calibri Bold';stroke-width:0.26458332"
         id="path3349" />
      <path
         d="m 80.848968,138.45076 v 0.47025 q 0,0.0103 -0.0072,0.0186 -0.0062,0.008 -0.0217,0.0134 -0.0155,0.005 -0.04237,0.008 -0.02584,0.003 -0.06511,0.003 -0.04031,0 -0.06615,-0.003 -0.02584,-0.003 -0.04237,-0.008 -0.0155,-0.005 -0.0217,-0.0134 -0.0062,-0.008 -0.0062,-0.0186 v -0.47025 l -0.365869,-0.72864 q -0.01964,-0.0382 -0.02584,-0.0589 -0.0052,-0.0217 0.0062,-0.032 0.0124,-0.0114 0.04444,-0.0134 0.03204,-0.003 0.08888,-0.003 0.04754,0 0.07545,0.002 0.02894,0.002 0.04547,0.008 0.01654,0.005 0.02377,0.0145 0.0083,0.009 0.0155,0.0238 l 0.148829,0.32866 q 0.0217,0.0475 0.04237,0.10025 0.0217,0.0527 0.04341,0.11059 h 0.0021 q 0.01964,-0.0558 0.04031,-0.10852 0.02067,-0.0527 0.04031,-0.10025 l 0.146761,-0.3266 q 0.0052,-0.0165 0.0124,-0.0258 0.0083,-0.0103 0.02377,-0.0165 0.0155,-0.006 0.04238,-0.008 0.02687,-0.002 0.07131,-0.002 0.05891,0 0.09095,0.003 0.03307,0.002 0.04444,0.0134 0.0124,0.0103 0.0062,0.032 -0.0062,0.0217 -0.02481,0.0589 z"
         style="font-style:normal;font-variant:normal;font-weight:bold;font-stretch:normal;font-size:2.11666656px;font-family:Calibri;-inkscape-font-specification:'Calibri Bold';stroke-width:0.26458332"
         id="path3351" />
    </g>
    <path
       style="fill:#cce6f1;fill-opacity:1;stroke-width:0.26458332"
       d="m 35.193085,60.660389 h 15.10741 v 6.26747 h -15.10741 z"
       id="rect5490" />
    <path
       style="fill:#cce6f1;fill-opacity:1;stroke-width:0.26458332"
       d="M 35.239857,59.210449 H 74.622021 V 77.685455 H 35.239857 Z"
       id="rect264" />
    <g
       style="font-style:normal;font-variant:normal;font-weight:bold;font-stretch:normal;font-size:13.33333302px;line-height:1.25;font-family:Consolas;-inkscape-font-specification:'Consolas Bold';text-align:center;letter-spacing:0px;word-spacing:0px;text-anchor:middle;fill:#000000;fill-opacity:1;stroke:none"
       id="flowRoot250" />
    <g
       aria-label="L
F
O
1"
       style="font-style:normal;font-variant:normal;font-weight:bold;font-stretch:normal;font-size:3.52777767px;line-height:89.99999762%;font-family:Consolas;-inkscape-font-specification:'Consolas Bold';text-align:start;letter-spacing:0px;word-spacing:0px;writing-mode:lr-tb;text-anchor:start;fill:#000000;fill-opacity:1;stroke:none;stroke-width:0.26458332"
       id="text295-5">
      <path
         d="m 37.375921,102.43111 v -2.25137 h 0.430637 v 1.88791 h 0.950846 v 0.36346 z"
         style="line-height:89.99999762%;text-align:start;writing-mode:lr-tb;text-anchor:start;stroke-width:0.26458332"
         id="path3357" />
      <path
         d="m 37.784165,103.71303 v 0.62356 h 0.850938 v 0.34795 h -0.850938 v 0.92157 h -0.430637 v -2.25137 h 1.329807 v 0.35829 z"
         style="line-height:89.99999762%;text-align:start;writing-mode:lr-tb;text-anchor:start;stroke-width:0.26458332"
         id="path3359" />
      <path
         d="m 38.912434,107.64595 q 0,0.30661 -0.07235,0.52882 -0.07062,0.22221 -0.196371,0.36518 -0.124023,0.14297 -0.292833,0.21187 -0.167087,0.0689 -0.35829,0.0689 -0.444417,0 -0.668348,-0.29455 -0.223932,-0.29628 -0.223932,-0.85955 0,-0.30662 0.07062,-0.52882 0.07235,-0.22221 0.19637,-0.36518 0.125746,-0.14298 0.292833,-0.21188 0.16881,-0.0689 0.360013,-0.0689 0.444417,0 0.668348,0.29456 0.223932,0.29455 0.223932,0.85955 z m -0.447863,0.0207 q 0,-0.39963 -0.106798,-0.596 -0.106798,-0.19637 -0.3514,-0.19637 -0.1223,0 -0.208428,0.0517 -0.08613,0.05 -0.142971,0.14814 -0.05512,0.0982 -0.08096,0.24288 -0.02584,0.14297 -0.02584,0.32901 0,0.39963 0.106798,0.596 0.10852,0.19637 0.351399,0.19637 0.122301,0 0.208429,-0.05 0.08785,-0.0517 0.142971,-0.14986 0.05512,-0.0982 0.08096,-0.24115 0.02584,-0.1447 0.02584,-0.33073 z"
         style="line-height:89.99999762%;text-align:start;writing-mode:lr-tb;text-anchor:start;stroke-width:0.26458332"
         id="path3361" />
      <path
         d="m 37.298406,111.95611 v -0.3738 h 0.573609 v -1.44694 l -0.499539,0.27561 -0.137804,-0.34279 0.714857,-0.37723 h 0.353123 v 1.89135 h 0.494371 v 0.3738 z"
         style="line-height:89.99999762%;text-align:start;writing-mode:lr-tb;text-anchor:start;stroke-width:0.26458332"
         id="path3363" />
    </g>
    <path
       inkscape:connector-curvature="0"
       id="path38411"
       d="M 86.911315,96.163954 H 35.23983 V 59.205875 h 51.671485 z m 0,0"
       style="fill:#1e282b;fill-opacity:1;fill-rule:nonzero;stroke:none;stroke-width:0.27602378" />
    <path
       inkscape:connector-curvature="0"
       id="path5509"
       d="M 35.239857,63.118735 H 86.911288"
       style="clip-rule:nonzero;fill:none;stroke:#ffffff;stroke-width:0.26458332;stroke-linecap:butt;stroke-linejoin:miter;stroke-miterlimit:10;stroke-dasharray:none;stroke-opacity:0.25098039" />
    <path
       inkscape:connector-curvature="0"
       id="path5503"
       d="M 35.239857,70.402095 H 86.911288"
       style="clip-rule:nonzero;fill:none;stroke:#ffffff;stroke-width:0.26458332;stroke-linecap:butt;stroke-linejoin:miter;stroke-miterlimit:10;stroke-dasharray:none;stroke-opacity:0.25098039" />
    <path
       inkscape:connector-curvature="0"
       id="path5497"
       d="M 35.239857,84.967745 H 86.911288"
       style="clip-rule:nonzero;fill:none;stroke:#ffffff;stroke-width:0.26458332;stroke-linecap:butt;stroke-linejoin:miter;stroke-miterlimit:10;stroke-dasharray:none;stroke-opacity:0.25098039" />
    <path
       inkscape:connector-curvature="0"
       id="path5491"
       d="M 35.239857,92.251106 H 86.911288"
       style="clip-rule:nonzero;fill:none;stroke:#ffffff;stroke-width:0.26458332;stroke-linecap:butt;stroke-linejoin:miter;stroke-miterlimit:10;stroke-dasharray:none;stroke-opacity:0.25098039" />
    <path
       inkscape:connector-curvature="0"
       id="path5305"
       d="M 35.239857,77.685455 H 86.911288"
       style="clip-rule:nonzero;fill:none;stroke:#ffffff;stroke-width:0.26458332;stroke-linecap:butt;stroke-linejoin:miter;stroke-miterlimit:10;stroke-dasharray:none;stroke-opacity:0.25098039" />
    <path
       inkscape:connector-curvature="0"
       id="path4803"
       d="M 61.076128,63.118735 V 92.253254"
       style="clip-rule:nonzero;fill:none;stroke:#ffffff;stroke-width:0.26458332;stroke-linecap:butt;stroke-linejoin:miter;stroke-miterlimit:10;stroke-dasharray:none;stroke-opacity:0.25098039" />
    <path
       inkscape:connector-curvature="0"
       id="path4797"
       d="M 69.687839,63.118735 V 92.253254"
       style="clip-rule:nonzero;fill:none;stroke:#ffffff;stroke-width:0.26458332;stroke-linecap:butt;stroke-linejoin:miter;stroke-miterlimit:10;stroke-dasharray:none;stroke-opacity:0.25098039" />
    <path
       inkscape:connector-curvature="0"
       id="path4791"
       d="M 52.464364,63.118735 V 92.253254"
       style="clip-rule:nonzero;fill:none;stroke:#ffffff;stroke-width:0.26458332;stroke-linecap:butt;stroke-linejoin:miter;stroke-miterlimit:10;stroke-dasharray:none;stroke-opacity:0.25098039" />
    <path
       inkscape:connector-curvature="0"
       id="path4785"
       d="M 43.852653,63.118735 V 92.253254"
       style="clip-rule:nonzero;fill:none;stroke:#ffffff;stroke-width:0.26458332;stroke-linecap:butt;stroke-linejoin:miter;stroke-miterlimit:10;stroke-dasharray:none;stroke-opacity:0.25098039" />
    <path
       inkscape:connector-curvature="0"
       id="path4779"
       d="M 78.300635,63.118735 V 92.253254"
       style="clip-rule:nonzero;fill:none;stroke:#ffffff;stroke-width:0.26458332;stroke-linecap:butt;stroke-linejoin:miter;stroke-miterlimit:10;stroke-dasharray:none;stroke-opacity:0.25098039" />
    <g
       aria-label="O
U
T"
       style="font-style:normal;font-variant:normal;font-weight:bold;font-stretch:normal;font-size:3.52777767px;line-height:89.99999762%;font-family:Consolas;-inkscape-font-specification:'Consolas Bold';text-align:start;letter-spacing:0px;word-spacing:0px;writing-mode:lr-tb;text-anchor:start;fill:#000000;fill-opacity:1;stroke:none;stroke-width:0.26458332"
       id="text295-57">
      <path
         d="m 38.912434,139.12821 q 0,0.30661 -0.07235,0.52882 -0.07062,0.22221 -0.196371,0.36518 -0.124023,0.14297 -0.292833,0.21187 -0.167087,0.0689 -0.35829,0.0689 -0.444417,0 -0.668348,-0.29456 -0.223932,-0.29628 -0.223932,-0.85955 0,-0.30662 0.07062,-0.52882 0.07235,-0.22221 0.19637,-0.36518 0.125746,-0.14298 0.292833,-0.21188 0.16881,-0.0689 0.360013,-0.0689 0.444417,0 0.668348,0.29456 0.223932,0.29455 0.223932,0.85955 z m -0.447863,0.0207 q 0,-0.39963 -0.106798,-0.596 -0.106798,-0.19637 -0.3514,-0.19637 -0.1223,0 -0.208428,0.0517 -0.08613,0.05 -0.142971,0.14814 -0.05512,0.0982 -0.08096,0.24288 -0.02584,0.14297 -0.02584,0.32901 0,0.39963 0.106798,0.596 0.10852,0.19637 0.351399,0.19637 0.122301,0 0.208429,-0.0499 0.08785,-0.0517 0.142971,-0.14987 0.05512,-0.0982 0.08096,-0.24115 0.02584,-0.1447 0.02584,-0.33073 z"
         style="line-height:89.99999762%;text-align:start;writing-mode:lr-tb;text-anchor:start;stroke-width:0.26458332"
         id="path3366" />
      <path
         d="m 38.826306,142.60982 q 0,0.21532 -0.05857,0.37896 -0.05685,0.16192 -0.165365,0.27044 -0.106798,0.10852 -0.261827,0.16364 -0.15503,0.0551 -0.347955,0.0551 -0.217041,0 -0.37207,-0.0551 -0.155029,-0.0551 -0.251492,-0.15847 -0.09646,-0.10335 -0.139527,-0.25149 -0.04306,-0.14814 -0.04306,-0.33245 V 141.187 h 0.423747 v 1.46761 q 0,0.11369 0.01895,0.20154 0.02067,0.0878 0.0689,0.14986 0.04995,0.0603 0.124024,0.0913 0.07407,0.031 0.186035,0.031 0.105075,0 0.177422,-0.0258 0.07235,-0.0276 0.120579,-0.0861 0.04823,-0.0603 0.07235,-0.1533 0.02411,-0.093 0.02411,-0.22566 V 141.187 h 0.423747 z"
         style="line-height:89.99999762%;text-align:start;writing-mode:lr-tb;text-anchor:start;stroke-width:0.26458332"
         id="path3368" />
      <path
         d="m 38.223414,144.71512 v 1.89825 h -0.434082 v -1.89825 H 37.17266 V 144.362 h 1.667427 v 0.35312 z"
         style="line-height:89.99999762%;text-align:start;writing-mode:lr-tb;text-anchor:start;stroke-width:0.26458332"
         id="path3370" />
    </g>
    <g
       aria-label="Xs+Ys"
       style="font-style:normal;font-variant:normal;font-weight:bold;font-stretch:normal;font-size:3.52777767px;line-height:1.25;font-family:Consolas;-inkscape-font-specification:'Consolas Bold';text-align:center;letter-spacing:0px;word-spacing:0px;text-anchor:middle;fill:#000000;fill-opacity:1;stroke:none;stroke-width:0.26458332"
       id="text1470">
      <path
         d="m 60.167009,139.05434 q 0.0186,0.0362 0.02377,0.0579 0.0062,0.0217 -0.0062,0.0331 -0.0124,0.0114 -0.04547,0.0145 -0.03204,0.003 -0.08992,0.003 -0.04858,0 -0.07648,-0.002 -0.0279,-0.002 -0.04444,-0.006 -0.0155,-0.005 -0.02274,-0.0134 -0.0072,-0.008 -0.0124,-0.0207 l -0.251148,-0.48266 -0.250114,0.48266 q -0.0062,0.0124 -0.01344,0.0207 -0.0072,0.008 -0.02377,0.0134 -0.0155,0.004 -0.04444,0.006 -0.02791,0.002 -0.07441,0.002 -0.05374,0 -0.08372,-0.003 -0.02894,-0.003 -0.03927,-0.0145 -0.01034,-0.0114 -0.0041,-0.0331 0.0062,-0.0217 0.02584,-0.0579 l 0.320394,-0.58394 -0.297657,-0.5488 q -0.0186,-0.0372 -0.02584,-0.0589 -0.0062,-0.0227 0.0052,-0.0331 0.0124,-0.0114 0.04444,-0.0134 0.03204,-0.003 0.09095,-0.003 0.04858,0 0.07648,0.002 0.02894,0.002 0.04548,0.007 0.01654,0.004 0.02274,0.0124 0.0072,0.008 0.01344,0.0207 l 0.234611,0.44235 0.22841,-0.44235 q 0.0062,-0.0124 0.0124,-0.0207 0.0072,-0.008 0.0217,-0.0124 0.0155,-0.005 0.04134,-0.007 0.02687,-0.002 0.07338,-0.002 0.05168,0 0.08165,0.003 0.02997,0.002 0.04134,0.0134 0.01137,0.0114 0.0052,0.0331 -0.0052,0.0217 -0.02274,0.0589 l -0.297656,0.5457 z"
         style="font-style:normal;font-variant:normal;font-weight:bold;font-stretch:normal;font-size:2.11666656px;font-family:Calibri;-inkscape-font-specification:'Calibri Bold';stroke-width:0.26458332"
         id="path3373" />
      <path
         d="m 61.013469,138.86107 q 0,0.0785 -0.02997,0.1385 -0.02894,0.0599 -0.08268,0.10025 -0.05374,0.0403 -0.127124,0.0599 -0.07338,0.0207 -0.159163,0.0207 -0.05168,0 -0.09922,-0.008 -0.04651,-0.007 -0.08372,-0.0186 -0.03721,-0.0124 -0.06201,-0.0248 -0.0248,-0.0124 -0.03617,-0.0227 -0.01137,-0.0114 -0.01757,-0.0341 -0.0062,-0.0238 -0.0062,-0.0692 0,-0.03 0.0021,-0.0476 0.0021,-0.0186 0.0062,-0.0289 0.0041,-0.0114 0.01034,-0.0145 0.0062,-0.004 0.0155,-0.004 0.01137,0 0.03307,0.0134 0.02274,0.0124 0.05581,0.0279 0.03307,0.0155 0.07648,0.0289 0.04444,0.0134 0.100252,0.0134 0.03514,0 0.06201,-0.007 0.0279,-0.007 0.04754,-0.0207 0.02067,-0.0134 0.03101,-0.0341 0.01034,-0.0207 0.01034,-0.0476 0,-0.031 -0.01964,-0.0527 -0.0186,-0.0227 -0.05064,-0.0393 -0.03101,-0.0165 -0.07131,-0.031 -0.03927,-0.0145 -0.08165,-0.032 -0.04134,-0.0176 -0.08165,-0.0403 -0.03927,-0.0227 -0.07131,-0.0558 -0.03101,-0.0331 -0.05064,-0.0796 -0.0186,-0.0465 -0.0186,-0.11162 0,-0.0661 0.02584,-0.12092 0.02584,-0.0558 0.07441,-0.0951 0.04857,-0.0393 0.117822,-0.061 0.07028,-0.0217 0.157096,-0.0217 0.04341,0 0.08372,0.006 0.04134,0.006 0.07441,0.0155 0.03307,0.009 0.05581,0.0207 0.02274,0.0103 0.03204,0.0186 0.01033,0.007 0.01447,0.0155 0.0041,0.007 0.0062,0.0186 0.0021,0.0103 0.0031,0.0269 0.0021,0.0155 0.0021,0.0393 0,0.0279 -0.0021,0.0455 -0.001,0.0176 -0.0052,0.0279 -0.0031,0.0103 -0.0093,0.0145 -0.0062,0.003 -0.01447,0.003 -0.0093,0 -0.02894,-0.0103 -0.01964,-0.0114 -0.04961,-0.0238 -0.02894,-0.0124 -0.06821,-0.0227 -0.03824,-0.0114 -0.08785,-0.0114 -0.03514,0 -0.06098,0.007 -0.02584,0.007 -0.04237,0.0207 -0.01654,0.0134 -0.02481,0.032 -0.0083,0.0176 -0.0083,0.0382 0,0.032 0.01964,0.0537 0.01964,0.0217 0.05168,0.0382 0.03204,0.0165 0.07235,0.031 0.04134,0.0145 0.08268,0.032 0.04238,0.0165 0.08268,0.0393 0.04134,0.0227 0.07338,0.0558 0.03204,0.0331 0.05168,0.0796 0.01964,0.0455 0.01964,0.10852 z"
         style="font-style:normal;font-variant:normal;font-weight:bold;font-stretch:normal;font-size:2.11666656px;font-family:Calibri;-inkscape-font-specification:'Calibri Bold';stroke-width:0.26458332"
         id="path3375" />
      <path
         d="m 62.078003,138.56238 q 0,0.0289 -0.0031,0.0486 -0.0031,0.0196 -0.0093,0.032 -0.0062,0.0114 -0.01447,0.0165 -0.0083,0.005 -0.01757,0.005 h -0.321427 v 0.35037 q 0,0.0103 -0.0052,0.0186 -0.0052,0.007 -0.01757,0.0134 -0.0124,0.005 -0.03307,0.008 -0.02067,0.003 -0.05168,0.003 -0.03101,0 -0.05168,-0.003 -0.02067,-0.003 -0.03307,-0.008 -0.0124,-0.006 -0.0186,-0.0134 -0.0052,-0.008 -0.0052,-0.0186 v -0.35037 h -0.320394 q -0.0093,0 -0.01757,-0.005 -0.0072,-0.005 -0.01344,-0.0165 -0.0062,-0.0124 -0.01034,-0.032 -0.0031,-0.0196 -0.0031,-0.0486 0,-0.0279 0.0031,-0.0475 0.0031,-0.0207 0.0083,-0.032 0.0062,-0.0124 0.01344,-0.0176 0.0072,-0.005 0.01654,-0.005 h 0.323495 v -0.34933 q 0,-0.0103 0.0052,-0.0186 0.0062,-0.009 0.0186,-0.0145 0.0124,-0.006 0.03307,-0.009 0.02067,-0.003 0.05168,-0.003 0.03101,0 0.05168,0.003 0.02067,0.003 0.03307,0.009 0.0124,0.005 0.01757,0.0145 0.0052,0.008 0.0052,0.0186 v 0.34933 h 0.324528 q 0.0083,0 0.0155,0.005 0.0083,0.005 0.01344,0.0176 0.0062,0.0114 0.0093,0.032 0.0031,0.0196 0.0031,0.0475 z"
         style="font-style:normal;font-variant:normal;font-weight:bold;font-stretch:normal;font-size:2.11666656px;font-family:Calibri;-inkscape-font-specification:'Calibri Bold';stroke-width:0.26458332"
         id="path3377" />
      <path
         d="m 62.81801,138.6492 v 0.47025 q 0,0.0103 -0.0072,0.0186 -0.0062,0.008 -0.0217,0.0134 -0.0155,0.005 -0.04237,0.008 -0.02584,0.003 -0.06511,0.003 -0.04031,0 -0.06615,-0.003 -0.02584,-0.003 -0.04237,-0.008 -0.0155,-0.005 -0.0217,-0.0134 -0.0062,-0.008 -0.0062,-0.0186 v -0.47025 l -0.365869,-0.72864 q -0.01964,-0.0382 -0.02584,-0.0589 -0.0052,-0.0217 0.0062,-0.032 0.0124,-0.0114 0.04444,-0.0134 0.03204,-0.003 0.08888,-0.003 0.04754,0 0.07545,0.002 0.02894,0.002 0.04547,0.008 0.01654,0.005 0.02377,0.0145 0.0083,0.009 0.0155,0.0238 l 0.148828,0.32866 q 0.0217,0.0476 0.04237,0.10026 0.0217,0.0527 0.04341,0.11058 h 0.0021 q 0.01964,-0.0558 0.04031,-0.10852 0.02067,-0.0527 0.04031,-0.10025 l 0.146761,-0.3266 q 0.0052,-0.0165 0.0124,-0.0258 0.0083,-0.0103 0.02377,-0.0165 0.0155,-0.006 0.04237,-0.008 0.02687,-0.002 0.07131,-0.002 0.05891,0 0.09095,0.003 0.03307,0.002 0.04444,0.0134 0.0124,0.0103 0.0062,0.032 -0.0062,0.0217 -0.0248,0.0589 z"
         style="font-style:normal;font-variant:normal;font-weight:bold;font-stretch:normal;font-size:2.11666656px;font-family:Calibri;-inkscape-font-specification:'Calibri Bold';stroke-width:0.26458332"
         id="path3379" />
      <path
         d="m 63.87841,138.86107 q 0,0.0785 -0.02997,0.1385 -0.02894,0.0599 -0.08268,0.10025 -0.05374,0.0403 -0.127124,0.0599 -0.07338,0.0207 -0.159164,0.0207 -0.05168,0 -0.09922,-0.008 -0.04651,-0.007 -0.08371,-0.0186 -0.03721,-0.0124 -0.06201,-0.0248 -0.02481,-0.0124 -0.03617,-0.0227 -0.01137,-0.0114 -0.01757,-0.0341 -0.0062,-0.0238 -0.0062,-0.0692 0,-0.03 0.0021,-0.0476 0.0021,-0.0186 0.0062,-0.0289 0.0041,-0.0114 0.01034,-0.0145 0.0062,-0.004 0.0155,-0.004 0.01137,0 0.03307,0.0134 0.02274,0.0124 0.05581,0.0279 0.03307,0.0155 0.07648,0.0289 0.04444,0.0134 0.100252,0.0134 0.03514,0 0.06201,-0.007 0.0279,-0.007 0.04754,-0.0207 0.02067,-0.0134 0.03101,-0.0341 0.01034,-0.0207 0.01034,-0.0476 0,-0.031 -0.01964,-0.0527 -0.0186,-0.0227 -0.05064,-0.0393 -0.03101,-0.0165 -0.07131,-0.031 -0.03927,-0.0145 -0.08165,-0.032 -0.04134,-0.0176 -0.08165,-0.0403 -0.03927,-0.0227 -0.07131,-0.0558 -0.03101,-0.0331 -0.05064,-0.0796 -0.0186,-0.0465 -0.0186,-0.11162 0,-0.0661 0.02584,-0.12092 0.02584,-0.0558 0.07441,-0.0951 0.04858,-0.0393 0.117822,-0.061 0.07028,-0.0217 0.157097,-0.0217 0.04341,0 0.08372,0.006 0.04134,0.006 0.07441,0.0155 0.03307,0.009 0.05581,0.0207 0.02274,0.0103 0.03204,0.0186 0.01033,0.007 0.01447,0.0155 0.0041,0.007 0.0062,0.0186 0.0021,0.0103 0.0031,0.0269 0.0021,0.0155 0.0021,0.0393 0,0.0279 -0.0021,0.0455 -0.001,0.0176 -0.0052,0.0279 -0.0031,0.0103 -0.0093,0.0145 -0.0062,0.003 -0.01447,0.003 -0.0093,0 -0.02894,-0.0103 -0.01964,-0.0114 -0.04961,-0.0238 -0.02894,-0.0124 -0.06821,-0.0227 -0.03824,-0.0114 -0.08785,-0.0114 -0.03514,0 -0.06098,0.007 -0.02584,0.007 -0.04237,0.0207 -0.01654,0.0134 -0.02481,0.032 -0.0083,0.0176 -0.0083,0.0382 0,0.032 0.01964,0.0537 0.01964,0.0217 0.05168,0.0382 0.03204,0.0165 0.07235,0.031 0.04134,0.0145 0.08268,0.032 0.04237,0.0165 0.08268,0.0393 0.04134,0.0227 0.07338,0.0558 0.03204,0.0331 0.05168,0.0796 0.01964,0.0455 0.01964,0.10852 z"
         style="font-style:normal;font-variant:normal;font-weight:bold;font-stretch:normal;font-size:2.11666656px;font-family:Calibri;-inkscape-font-specification:'Calibri Bold';stroke-width:0.26458332"
         id="path3381" />
    </g>
    <g
       aria-label="/X"
       style="font-style:normal;font-variant:normal;font-weight:bold;font-stretch:normal;font-size:3.52777767px;line-height:1.25;font-family:Consolas;-inkscape-font-specification:'Consolas Bold';text-align:center;letter-spacing:0px;word-spacing:0px;text-anchor:middle;fill:#000000;fill-opacity:1;stroke:none;stroke-width:0.26458332"
       id="text1474">
      <path
         d="m 70.451645,139.22591 q -0.0052,0.0134 -0.01344,0.0217 -0.0083,0.008 -0.02377,0.0134 -0.01447,0.005 -0.03721,0.007 -0.0217,0.003 -0.05581,0.003 -0.04238,0 -0.06925,-0.004 -0.02687,-0.004 -0.04134,-0.0124 -0.01344,-0.008 -0.0155,-0.0217 -0.0021,-0.0124 0.0041,-0.03 l 0.618051,-1.7353 q 0.0041,-0.0134 0.0124,-0.0217 0.0083,-0.009 0.02274,-0.0145 0.01447,-0.005 0.03721,-0.007 0.02377,-0.003 0.05684,-0.003 0.04341,0 0.06925,0.004 0.02687,0.004 0.04031,0.0124 0.01344,0.008 0.0155,0.0217 0.0021,0.0124 -0.0031,0.03 z"
         style="font-style:normal;font-variant:normal;font-weight:bold;font-stretch:normal;font-size:2.11666656px;font-family:Calibri;-inkscape-font-specification:'Calibri Bold';stroke-width:0.26458332"
         id="path3384" />
      <path
         d="m 72.199342,138.8559 q 0.0186,0.0362 0.02377,0.0579 0.0062,0.0217 -0.0062,0.0331 -0.0124,0.0114 -0.04547,0.0145 -0.03204,0.003 -0.08992,0.003 -0.04858,0 -0.07648,-0.002 -0.0279,-0.002 -0.04444,-0.006 -0.0155,-0.005 -0.02274,-0.0134 -0.0072,-0.008 -0.0124,-0.0207 l -0.251147,-0.48266 -0.250114,0.48266 q -0.0062,0.0124 -0.01344,0.0207 -0.0072,0.008 -0.02377,0.0134 -0.0155,0.004 -0.04444,0.006 -0.0279,0.002 -0.07441,0.002 -0.05374,0 -0.08372,-0.003 -0.02894,-0.003 -0.03927,-0.0145 -0.01033,-0.0114 -0.0041,-0.0331 0.0062,-0.0217 0.02584,-0.0579 l 0.320394,-0.58394 -0.297656,-0.54881 q -0.0186,-0.0372 -0.02584,-0.0589 -0.0062,-0.0227 0.0052,-0.0331 0.0124,-0.0114 0.04444,-0.0134 0.03204,-0.003 0.09095,-0.003 0.04857,0 0.07648,0.002 0.02894,0.002 0.04548,0.007 0.01654,0.004 0.02274,0.0124 0.0072,0.008 0.01344,0.0207 l 0.234611,0.44235 0.22841,-0.44235 q 0.0062,-0.0124 0.0124,-0.0207 0.0072,-0.008 0.0217,-0.0124 0.0155,-0.005 0.04134,-0.007 0.02687,-0.002 0.07338,-0.002 0.05168,0 0.08165,0.003 0.02997,0.002 0.04134,0.0134 0.01137,0.0114 0.0052,0.0331 -0.0052,0.0217 -0.02274,0.0589 l -0.297656,0.54571 z"
         style="font-style:normal;font-variant:normal;font-weight:bold;font-stretch:normal;font-size:2.11666656px;font-family:Calibri;-inkscape-font-specification:'Calibri Bold';stroke-width:0.26458332"
         id="path3386" />
    </g>
    <g
       aria-label="FROZEN WASTELAND"
       style="font-style:normal;font-variant:normal;font-weight:bold;font-stretch:normal;font-size:3.52777767px;line-height:1.25;font-family:Consolas;-inkscape-font-specification:'Consolas Bold';text-align:start;letter-spacing:0px;word-spacing:0px;text-anchor:start;fill:#000000;fill-opacity:1;stroke:none;stroke-width:0.26458332"
       id="text3885-7">
      <path
         d="m 46.838776,150.2604 q 0.119945,-0.11995 0.1905,-0.21167 0.07408,-0.0917 0.112889,-0.16933 0.04233,-0.0776 0.05292,-0.14464 0.01411,-0.0706 0.01411,-0.14817 0,-0.0952 -0.04586,-0.22931 -0.04586,-0.13405 -0.102306,-0.28575 -0.05644,-0.15169 -0.102305,-0.31044 -0.04586,-0.15875 -0.04586,-0.30339 0,-0.0776 0.02469,-0.15169 0.02822,-0.0741 0.06703,-0.14111 0.04233,-0.0706 0.09172,-0.13053 0.04939,-0.0635 0.09878,-0.11289 -0.07056,-0.0141 -0.123472,-0.0212 -0.05292,-0.0106 -0.07761,-0.0106 -0.130527,0 -0.22225,0.0706 -0.08819,0.067 -0.1905,0.16934 0,-0.11995 0.03528,-0.24695 0.03881,-0.13052 0.116417,-0.23636 0.07761,-0.10583 0.194028,-0.17286 0.119944,-0.067 0.282222,-0.067 0.112889,0 0.208139,0.0176 0.09878,0.0141 0.179916,0.0353 0.08114,0.0212 0.148167,0.0388 0.06703,0.0141 0.119944,0.0141 0.08114,0 0.141112,-0.0212 0.0635,-0.0247 0.123472,-0.0847 0,0.0776 -0.03175,0.17639 -0.02822,0.0988 -0.08819,0.1905 -0.05644,0.0882 -0.148166,0.1517 -0.09172,0.06 -0.211667,0.06 -0.05997,0 -0.137583,-0.007 -0.07408,-0.0106 -0.155222,-0.0247 -0.0071,0.0247 -0.01058,0.0459 -0.0035,0.0212 -0.0071,0.0388 -0.0035,0.0212 -0.0035,0.0388 0,0.0776 0.01058,0.1517 0.01411,0.0705 0.03881,0.14463 h 0.712611 l -0.08114,0.23989 q -0.01058,0.0459 -0.01411,0.067 -0.0035,0.0212 -0.01058,0.067 l -0.130527,-0.0917 h -0.363361 q 0.07761,0.17639 0.144639,0.35983 0.06703,0.17992 0.06703,0.38453 0,0.18344 -0.07408,0.34219 -0.07408,0.15522 -0.197556,0.27164 -0.119944,0.11642 -0.278694,0.17992 -0.155222,0.067 -0.321028,0.067 z"
         style="font-style:normal;font-variant:normal;font-weight:normal;font-stretch:normal;font-family:'Bradley Gratis';-inkscape-font-specification:'Bradley Gratis';text-align:start;text-anchor:start;stroke-width:0.26458332"
         id="path3389" />
      <path
         d="m 48.908865,148.53178 q 0.07056,-0.0423 0.137583,-0.0988 0.07056,-0.0564 0.123473,-0.127 0.05644,-0.0706 0.08819,-0.16228 0.03528,-0.0952 0.03528,-0.21167 0,-0.0988 -0.03881,-0.1658 -0.03528,-0.0706 -0.08467,-0.11289 -0.04939,-0.0423 -0.09878,-0.06 -0.04586,-0.0176 -0.07056,-0.0176 -0.02822,0 -0.05292,0.0106 -0.02117,0.0106 -0.03881,0.0247 z m -0.518583,-0.94191 q -0.112889,-0.0635 -0.112889,-0.23636 0.03175,0.0317 0.112889,0.0564 0.08114,0.0212 0.172861,0.0212 0.04586,0 0.130528,-0.0106 0.08467,-0.0141 0.172861,-0.0282 0.09172,-0.0141 0.172861,-0.0247 0.08467,-0.0141 0.130528,-0.0141 0.116416,0 0.232833,0.0353 0.116417,0.0353 0.215194,0.11995 0.09878,0.0847 0.165806,0.2293 0.07056,0.14112 0.09172,0.35984 l -0.627944,0.4445 q 0.07055,0.0282 0.15875,0.0952 0.08819,0.067 0.165805,0.18697 0.08114,0.11994 0.134056,0.30692 0.05292,0.18344 0.05292,0.45155 0,0.23284 0.02117,0.37747 0.02117,0.14464 0.05292,0.23284 0.03175,0.0882 0.06703,0.13053 0.0388,0.0459 0.07055,0.0776 -0.155222,0 -0.275166,-0.0917 -0.119945,-0.0882 -0.211667,-0.23283 -0.09172,-0.14464 -0.162278,-0.32808 -0.06703,-0.18345 -0.123472,-0.37042 -0.05645,-0.18697 -0.105833,-0.35983 -0.04586,-0.17286 -0.09525,-0.29986 -0.02469,0.0176 -0.04939,0.0353 -0.02117,0.0141 -0.03881,0.0317 v 1.31939 h -0.518583 z"
         style="font-style:normal;font-variant:normal;font-weight:normal;font-stretch:normal;font-family:'Bradley Gratis';-inkscape-font-specification:'Bradley Gratis';text-align:start;text-anchor:start;stroke-width:0.26458332"
         id="path3391" />
      <path
         d="m 50.796612,149.63951 q 0,0.11994 0.01411,0.18697 0.01764,0.067 0.04233,0.1023 0.02822,0.0318 0.0635,0.0388 0.03528,0.007 0.07056,0.007 0.07056,0 0.116417,-0.0952 0.04586,-0.0988 0.04586,-0.29987 v -1.53105 q 0,-0.15875 -0.01764,-0.25753 -0.01411,-0.1023 -0.04233,-0.15522 -0.0247,-0.0564 -0.05997,-0.0776 -0.03175,-0.0212 -0.0635,-0.0212 -0.06703,0 -0.119944,0.0847 -0.04939,0.0811 -0.04939,0.26105 z m 1.005417,-0.88548 q 0,0.25753 -0.06703,0.508 -0.0635,0.25048 -0.176389,0.44803 -0.109361,0.19756 -0.261056,0.32103 -0.151694,0.11994 -0.321027,0.11994 -0.15875,0 -0.310445,-0.10936 -0.148166,-0.10936 -0.264583,-0.29986 -0.112889,-0.1905 -0.183445,-0.4445 -0.07055,-0.254 -0.07055,-0.54328 0,-0.23636 0.0635,-0.4833 0.06703,-0.25047 0.179917,-0.45156 0.112888,-0.20108 0.264583,-0.32808 0.151694,-0.13053 0.321028,-0.13053 0.148166,0 0.292805,0.10936 0.148167,0.10936 0.264584,0.29986 0.119944,0.18698 0.194027,0.44098 0.07408,0.254 0.07408,0.54327 z"
         style="font-style:normal;font-variant:normal;font-weight:normal;font-stretch:normal;font-family:'Bradley Gratis';-inkscape-font-specification:'Bradley Gratis';text-align:start;text-anchor:start;stroke-width:0.26458332"
         id="path3393" />
      <path
         d="m 51.956093,150.11223 q 0.04586,-0.27164 0.130528,-0.51153 0.08819,-0.23989 0.194028,-0.45861 0.105833,-0.21872 0.218722,-0.41628 0.116417,-0.20108 0.218722,-0.38805 0.102306,-0.18698 0.179917,-0.36336 0.07761,-0.17992 0.112889,-0.35984 -0.02822,-0.0176 -0.06703,-0.0318 -0.03528,-0.0141 -0.137583,-0.0141 -0.05292,0 -0.09525,0.0282 -0.03881,0.0247 -0.06703,0.0635 -0.02822,0.0353 -0.04586,0.0776 -0.01411,0.0388 -0.01411,0.0635 0,0.0282 0.01058,0.067 0.01411,0.0353 0.02822,0.0706 0.01764,0.0353 0.03528,0.067 0.01764,0.0282 0.03175,0.0423 l -0.430389,0.26811 q -0.08467,-0.0811 -0.144639,-0.19756 -0.05644,-0.11994 -0.05644,-0.23988 0,-0.06 0.03175,-0.14817 0.03175,-0.0882 0.102305,-0.16933 0.07056,-0.0847 0.183445,-0.14112 0.116417,-0.06 0.282222,-0.06 0.130528,0 0.218722,0.0176 0.08819,0.0176 0.155223,0.0423 0.06703,0.0212 0.123472,0.0388 0.05997,0.0176 0.134055,0.0176 0.04586,0 0.09878,-0.007 0.05292,-0.007 0.09878,-0.0212 0.04586,-0.0141 0.08114,-0.0282 0.0388,-0.0176 0.05997,-0.0388 -0.04233,0.22225 -0.134056,0.46214 -0.09172,0.23989 -0.204611,0.47978 -0.109361,0.23988 -0.232833,0.46919 -0.119944,0.22931 -0.22225,0.43039 -0.09878,0.19755 -0.169333,0.35983 -0.06703,0.15875 -0.07408,0.26106 0.141111,0.06 0.239889,0.06 0.0635,0 0.130528,-0.0141 0.06703,-0.0176 0.119944,-0.0529 0.05644,-0.0353 0.09172,-0.0882 0.03528,-0.0565 0.03528,-0.13406 0,-0.0776 -0.01764,-0.127 -0.01411,-0.0529 -0.03881,-0.0847 -0.02469,-0.0353 -0.05644,-0.06 -0.03175,-0.0282 -0.05997,-0.0564 l 0.405695,-0.29986 q 0.141111,0.10583 0.201083,0.22578 0.05997,0.11994 0.05997,0.26105 0,0.067 -0.02117,0.13053 -0.01764,0.06 -0.04586,0.11289 -0.02469,0.0494 -0.05997,0.0917 -0.03175,0.0423 -0.05644,0.067 l 0.05997,0.06 q 0.01764,0.0176 0.03881,0.0529 0.02117,0.0317 0.02117,0.0564 0,0.0282 -0.02469,0.0811 -0.02117,0.0564 -0.08819,0.0988 -0.02469,-0.0318 -0.05644,-0.0565 -0.02822,-0.0212 -0.05997,-0.0388 -0.03175,-0.0176 -0.06703,-0.0176 z"
         style="font-style:normal;font-variant:normal;font-weight:normal;font-stretch:normal;font-family:'Bradley Gratis';-inkscape-font-specification:'Bradley Gratis';text-align:start;text-anchor:start;stroke-width:0.26458332"
         id="path3395" />
      <path
         d="m 55.462429,147.38526 v 0.381 q -0.03881,-0.0353 -0.102306,-0.0776 -0.05997,-0.0423 -0.130528,-0.0741 -0.06703,-0.0353 -0.134055,-0.0564 -0.06703,-0.0247 -0.112889,-0.0247 -0.08467,0 -0.172861,0.067 -0.08819,0.067 -0.144639,0.17992 -0.05644,0.10936 -0.07408,0.28928 -0.01411,0.17638 -0.01411,0.45508 h 0.903111 l -0.179917,0.40217 q -0.03528,-0.0529 -0.08467,-0.0706 -0.04586,-0.0212 -0.08467,-0.0212 h -0.553861 q 0,0.20109 0.0071,0.39511 0.0071,0.1905 0.04586,0.3422 0.04233,0.15169 0.127,0.24694 0.08467,0.0917 0.243417,0.0917 0.08467,0 0.165805,-0.0317 0.08467,-0.0318 0.155223,-0.0776 0.07055,-0.0494 0.123472,-0.1023 0.05644,-0.0529 0.08819,-0.0952 v 0.508 h -0.47625 q -0.342194,0 -0.553861,-0.11995 -0.211666,-0.12347 -0.331611,-0.32808 -0.116417,-0.20814 -0.15875,-0.47978 -0.03881,-0.27164 -0.03881,-0.56797 0,-0.0741 0.01058,-0.19403 0.01058,-0.12347 0.04586,-0.25752 0.03528,-0.13759 0.102306,-0.27517 0.06703,-0.14111 0.179916,-0.25047 0.116417,-0.11289 0.28575,-0.18345 0.169334,-0.0706 0.409222,-0.0706 z"
         style="font-style:normal;font-variant:normal;font-weight:normal;font-stretch:normal;font-family:'Bradley Gratis';-inkscape-font-specification:'Bradley Gratis';text-align:start;text-anchor:start;stroke-width:0.26458332"
         id="path3397" />
      <path
         d="m 55.848831,150.11223 v -2.4377 q 0,-0.0988 -0.04233,-0.1658 -0.04233,-0.0706 -0.08467,-0.12347 h 0.684389 v 0.35983 l 0.391583,-0.45508 q 0.179917,0.16227 0.296333,0.32455 0.116417,0.15875 0.183445,0.32103 0.06703,0.15875 0.09172,0.32456 0.02469,0.16227 0.02469,0.33513 0,0.16934 -0.02822,0.32456 -0.02469,0.15169 -0.07408,0.29986 -0.04939,0.14817 -0.119945,0.29986 -0.06703,0.1517 -0.148166,0.3175 h 0.127 q 0.04586,0 0.09525,-0.0318 0.04939,-0.0317 0.09878,-0.0317 v 0.33867 H 56.66022 q 0.09525,-0.19403 0.151694,-0.34925 0.05997,-0.15522 0.09172,-0.29633 0.03175,-0.14112 0.04233,-0.27517 0.01058,-0.13406 0.01058,-0.28575 0,-0.1517 -0.05292,-0.31397 -0.04939,-0.16581 -0.123472,-0.30339 -0.07408,-0.13759 -0.15875,-0.22578 -0.08114,-0.0882 -0.148167,-0.0882 -0.04233,0 -0.06703,0.0212 v 2.11667 z"
         style="font-style:normal;font-variant:normal;font-weight:normal;font-stretch:normal;font-family:'Bradley Gratis';-inkscape-font-specification:'Bradley Gratis';text-align:start;text-anchor:start;stroke-width:0.26458332"
         id="path3399" />
      <path
         d="m 59.087,150.22865 q -0.1905,-0.13759 -0.324556,-0.29281 -0.134055,-0.15875 -0.215194,-0.32808 -0.08114,-0.16934 -0.119945,-0.3422 -0.03528,-0.17639 -0.03528,-0.34572 0,-0.16581 0.03528,-0.32808 0.03528,-0.16581 0.09172,-0.32456 0.05997,-0.16228 0.137583,-0.31397 0.07761,-0.15522 0.15875,-0.30339 h -0.02117 q -0.01058,0 -0.02469,0 -0.01058,-0.004 -0.02822,-0.004 -0.05645,0 -0.137584,0.0141 -0.07761,0.0141 -0.151694,0.0706 v -0.34572 h 0.740833 q -0.09172,0.15875 -0.15875,0.32102 -0.0635,0.15875 -0.105833,0.31045 -0.03881,0.14817 -0.05997,0.28222 -0.01764,0.13053 -0.01764,0.23636 0,0.10584 0.02117,0.254 0.02117,0.14817 0.07761,0.30692 0.05997,0.15522 0.15875,0.29633 0.102305,0.14111 0.264583,0.22931 l 0.105833,-0.0776 q -0.0635,-0.11995 -0.09878,-0.22931 -0.03528,-0.11289 -0.05292,-0.21167 -0.01411,-0.0988 -0.01764,-0.17991 -0.0035,-0.0847 -0.0035,-0.1517 0,-0.10936 0.02822,-0.24694 0.02822,-0.13758 0.08114,-0.28575 0.05292,-0.14817 0.127,-0.29986 0.07761,-0.1517 0.172861,-0.29634 -0.134055,0 -0.22225,0.0212 -0.08467,0.0212 -0.144639,0.06 v -0.33866 h 0.762 q -0.0635,0.0882 -0.127,0.20108 -0.05997,0.10936 -0.105833,0.23989 -0.04586,0.127 -0.07408,0.27164 -0.02822,0.14464 -0.02822,0.29633 0,0.25753 0.04586,0.45861 0.04586,0.19756 0.127,0.34925 0.08114,0.1517 0.1905,0.26106 0.109361,0.10936 0.232833,0.18697 v -2.26483 h 0.529167 v 2.12019 q 0,0.0247 -0.03528,0.0706 -0.03528,0.0423 -0.09172,0.0988 -0.05292,0.0565 -0.127,0.12348 -0.07056,0.0635 -0.144639,0.127 -0.176389,0.14816 -0.398639,0.32455 -0.172861,-0.13405 -0.296333,-0.26458 -0.123473,-0.13053 -0.211667,-0.254 z"
         style="font-style:normal;font-variant:normal;font-weight:normal;font-stretch:normal;font-family:'Bradley Gratis';-inkscape-font-specification:'Bradley Gratis';text-align:start;text-anchor:start;stroke-width:0.26458332"
         id="path3401" />
      <path
         d="m 62.339059,148.41537 v -0.87842 h -0.416277 q -0.0035,0.23636 -0.01411,0.4692 -0.0071,0.2293 -0.01764,0.40922 z m 0.719667,-1.03011 q -0.03881,0.0282 -0.07408,0.0706 -0.03175,0.0423 -0.05644,0.0917 -0.02117,0.0459 -0.03528,0.0917 -0.01411,0.0423 -0.01411,0.0741 v 2.39889 h -0.53975 v -1.32997 h -0.472722 q -0.0035,0.127 -0.03528,0.27869 -0.03175,0.14817 -0.08819,0.29986 -0.05292,0.14817 -0.127,0.28928 -0.07055,0.13758 -0.162278,0.24342 -0.08819,0.10583 -0.1905,0.16933 -0.09878,0.0635 -0.208139,0.0635 -0.07056,0 -0.123472,-0.0423 -0.04939,-0.0423 -0.04939,-0.11995 0,-0.0494 0.03175,-0.0705 0.03175,-0.0247 0.06703,-0.0247 0.03175,0 0.04939,0.0106 0.01764,0.007 0.03175,0.0212 0.01764,0.0106 0.03881,0.0212 0.02117,0.007 0.05997,0.007 0.0635,0 0.102305,-0.0635 0.03881,-0.067 0.0635,-0.17638 0.02469,-0.11289 0.03528,-0.25753 0.01411,-0.14817 0.02117,-0.31045 0.0071,-0.16227 0.01764,-0.32808 0.01058,-0.16933 0.02822,-0.32456 0.02117,-0.18344 0.0635,-0.33513 0.04586,-0.1517 0.09525,-0.26812 0.04939,-0.11641 0.09878,-0.19755 0.04939,-0.0811 0.08467,-0.13053 h -0.07761 q -0.06703,0 -0.123472,0.0212 -0.05644,0.0176 -0.102306,0.0423 -0.04233,0.0212 -0.07761,0.0423 -0.03175,0.0176 -0.05644,0.0176 -0.05997,0 -0.08819,-0.0423 -0.02822,-0.0423 -0.02822,-0.0952 0,-0.0494 0.05292,-0.0917 0.05644,-0.0459 0.155222,-0.0459 z"
         style="font-style:normal;font-variant:normal;font-weight:normal;font-stretch:normal;font-family:'Bradley Gratis';-inkscape-font-specification:'Bradley Gratis';text-align:start;text-anchor:start;stroke-width:0.26458332"
         id="path3403" />
      <path
         d="m 63.838917,150.2357 q -0.08114,-0.0811 -0.186972,-0.15875 -0.102306,-0.0776 -0.201084,-0.13758 -0.09525,-0.06 -0.169333,-0.10231 -0.07056,-0.0423 -0.08114,-0.0529 0.03528,-0.0423 0.08819,-0.11642 0.05292,-0.0776 0.102306,-0.1517 0.05292,-0.0741 0.09172,-0.13052 0.04233,-0.06 0.05292,-0.0706 0.04939,0.0317 0.134055,0.0882 0.08819,0.0529 0.172862,0.11288 0.08819,0.06 0.15875,0.10937 0.07055,0.0494 0.09172,0.0705 0.04939,-0.0282 0.08114,-0.0741 0.03528,-0.0459 0.03528,-0.14817 0,-0.0882 -0.07408,-0.18697 -0.07055,-0.0988 -0.176389,-0.20814 -0.105833,-0.10936 -0.232833,-0.22931 -0.127,-0.11994 -0.232833,-0.24694 -0.105834,-0.127 -0.179917,-0.25753 -0.07056,-0.13053 -0.07056,-0.26811 0,-0.0988 0.04939,-0.18344 0.05292,-0.0882 0.130528,-0.16228 0.07761,-0.0776 0.169333,-0.13758 0.09525,-0.0635 0.179917,-0.11642 0.08819,-0.0564 0.155222,-0.0988 0.06703,-0.0459 0.09525,-0.0811 0.02117,0.0176 0.09172,0.0882 0.07408,0.067 0.15875,0.14464 0.08467,0.0776 0.15875,0.13758 0.07761,0.06 0.102306,0.06 -0.03528,0.0282 -0.08819,0.0847 -0.04939,0.0529 -0.102306,0.11289 -0.04939,0.06 -0.09172,0.11641 -0.03881,0.0529 -0.05644,0.0811 -0.08114,-0.0353 -0.162277,-0.10583 -0.08114,-0.0706 -0.148167,-0.13758 -0.06703,-0.067 -0.112889,-0.11642 -0.04586,-0.0529 -0.05997,-0.0529 -0.02822,0 -0.04939,0.0317 -0.01764,0.0282 -0.01764,0.067 0,0.0847 0.07408,0.17992 0.07761,0.0953 0.186973,0.20461 0.112888,0.10583 0.243416,0.22578 0.134056,0.11641 0.243417,0.24341 0.112889,0.127 0.186972,0.26459 0.07761,0.13405 0.07761,0.27516 0,0.127 -0.09525,0.26811 -0.09525,0.14111 -0.229305,0.28223 -0.130528,0.13758 -0.268111,0.26458 -0.137584,0.12347 -0.225778,0.21872 z"
         style="font-style:normal;font-variant:normal;font-weight:normal;font-stretch:normal;font-family:'Bradley Gratis';-inkscape-font-specification:'Bradley Gratis';text-align:start;text-anchor:start;stroke-width:0.26458332"
         id="path3405" />
      <path
         d="m 66.323905,149.63598 q 0,0.13758 -0.05644,0.23989 -0.05644,0.0988 -0.148166,0.16228 -0.08819,0.0635 -0.197556,0.0952 -0.109361,0.0318 -0.215194,0.0318 -0.165806,0 -0.324556,-0.0811 -0.15875,-0.0811 -0.28575,-0.21873 -0.127,-0.14111 -0.204611,-0.32808 -0.07761,-0.1905 -0.07761,-0.40922 0,-0.39158 0.179916,-0.72672 0.179917,-0.33867 0.500945,-0.61384 -0.02822,-0.004 -0.05292,-0.004 -0.02117,-0.004 -0.04586,-0.004 -0.08467,0 -0.179917,0.0282 -0.09525,0.0282 -0.179916,0.0741 -0.08467,0.0423 -0.155222,0.0953 -0.06703,0.0529 -0.102306,0.0988 0.02822,-0.13758 0.105833,-0.27164 0.07761,-0.13405 0.194028,-0.23636 0.116417,-0.1023 0.268111,-0.1658 0.151695,-0.0635 0.331611,-0.0635 0.09172,0 0.194028,0.0282 0.102306,0.0282 0.194028,0.0741 0.09525,0.0423 0.169333,0.0952 0.07408,0.0529 0.112889,0.10231 l -0.289278,0.44097 q -0.176389,-0.17286 -0.381,-0.24695 -0.04586,0.0741 -0.09525,0.17639 -0.04939,0.0988 -0.09172,0.22578 -0.0388,0.127 -0.06703,0.28222 -0.02469,0.1517 -0.02469,0.33161 0,0.16934 0.02469,0.29987 0.02822,0.13052 0.07056,0.22577 0.04233,0.0952 0.09525,0.15875 0.05644,0.0635 0.112889,0.10584 0.134055,0.0952 0.306916,0.10583 0.07056,0 0.162278,-0.0282 0.09525,-0.0317 0.151695,-0.0811 z"
         style="font-style:normal;font-variant:normal;font-weight:normal;font-stretch:normal;font-family:'Bradley Gratis';-inkscape-font-specification:'Bradley Gratis';text-align:start;text-anchor:start;stroke-width:0.26458332"
         id="path3407" />
      <path
         d="m 68.092149,147.38526 v 0.381 q -0.03881,-0.0353 -0.102306,-0.0776 -0.05997,-0.0423 -0.130527,-0.0741 -0.06703,-0.0353 -0.134056,-0.0564 -0.06703,-0.0247 -0.112889,-0.0247 -0.08467,0 -0.172861,0.067 -0.08819,0.067 -0.144639,0.17992 -0.05644,0.10936 -0.07408,0.28928 -0.01411,0.17638 -0.01411,0.45508 h 0.903111 l -0.179917,0.40217 q -0.03528,-0.0529 -0.08467,-0.0706 -0.04586,-0.0212 -0.08467,-0.0212 h -0.553861 q 0,0.20109 0.0071,0.39511 0.0071,0.1905 0.04586,0.3422 0.04233,0.15169 0.127,0.24694 0.08467,0.0917 0.243417,0.0917 0.08467,0 0.165806,-0.0317 0.08467,-0.0318 0.155222,-0.0776 0.07055,-0.0494 0.123472,-0.1023 0.05644,-0.0529 0.08819,-0.0952 v 0.508 h -0.47625 q -0.342195,0 -0.553862,-0.11995 -0.211666,-0.12347 -0.331611,-0.32808 -0.116416,-0.20814 -0.15875,-0.47978 -0.03881,-0.27164 -0.03881,-0.56797 0,-0.0741 0.01058,-0.19403 0.01058,-0.12347 0.04586,-0.25752 0.03528,-0.13759 0.102306,-0.27517 0.06703,-0.14111 0.179916,-0.25047 0.116417,-0.11289 0.28575,-0.18345 0.169334,-0.0706 0.409223,-0.0706 z"
         style="font-style:normal;font-variant:normal;font-weight:normal;font-stretch:normal;font-family:'Bradley Gratis';-inkscape-font-specification:'Bradley Gratis';text-align:start;text-anchor:start;stroke-width:0.26458332"
         id="path3409" />
      <path
         d="m 69.371078,148.08023 q -0.08819,-0.21167 -0.151694,-0.35278 -0.0635,-0.14111 -0.09878,-0.14111 -0.03881,0 -0.05292,0.0353 -0.01058,0.0317 -0.01058,0.0564 v 1.91206 q 0,0.0776 -0.04233,0.16228 -0.04233,0.0847 -0.112889,0.14816 0.130528,0 0.232833,-0.0635 0.102306,-0.067 0.211667,-0.14464 0.112889,-0.0811 0.250472,-0.14464 0.137583,-0.067 0.342194,-0.067 v 0.63147 h -1.594555 q 0.04586,-0.067 0.07761,-0.127 0.03528,-0.06 0.05644,-0.11995 0.02117,-0.06 0.03175,-0.127 0.01058,-0.067 0.01058,-0.14816 v -1.66864 q 0,-0.11289 -0.04233,-0.18345 -0.04233,-0.0741 -0.05997,-0.1023 0.01411,-0.004 0.07056,-0.0247 0.05997,-0.0247 0.144639,-0.0564 0.08467,-0.0317 0.186972,-0.067 0.102305,-0.0353 0.201083,-0.0635 0.09878,-0.0317 0.186972,-0.0494 0.08819,-0.0212 0.144639,-0.0212 0.08819,0 0.165806,0.0494 0.07761,0.0494 0.141111,0.12347 0.0635,0.0741 0.109361,0.1658 0.04586,0.0882 0.07408,0.16581 z"
         style="font-style:normal;font-variant:normal;font-weight:normal;font-stretch:normal;font-family:'Bradley Gratis';-inkscape-font-specification:'Bradley Gratis';text-align:start;text-anchor:start;stroke-width:0.26458332"
         id="path3411" />
      <path
         d="m 71.551245,148.41537 v -0.87842 h -0.416277 q -0.0035,0.23636 -0.01411,0.4692 -0.0071,0.2293 -0.01764,0.40922 z m 0.719667,-1.03011 q -0.03881,0.0282 -0.07408,0.0706 -0.03175,0.0423 -0.05644,0.0917 -0.02117,0.0459 -0.03528,0.0917 -0.01411,0.0423 -0.01411,0.0741 v 2.39889 h -0.53975 v -1.32997 h -0.472722 q -0.0035,0.127 -0.03528,0.27869 -0.03175,0.14817 -0.08819,0.29986 -0.05292,0.14817 -0.127,0.28928 -0.07056,0.13758 -0.162278,0.24342 -0.08819,0.10583 -0.1905,0.16933 -0.09878,0.0635 -0.208139,0.0635 -0.07055,0 -0.123472,-0.0423 -0.04939,-0.0423 -0.04939,-0.11995 0,-0.0494 0.03175,-0.0705 0.03175,-0.0247 0.06703,-0.0247 0.03175,0 0.04939,0.0106 0.01764,0.007 0.03175,0.0212 0.01764,0.0106 0.0388,0.0212 0.02117,0.007 0.05997,0.007 0.0635,0 0.102305,-0.0635 0.03881,-0.067 0.0635,-0.17638 0.02469,-0.11289 0.03528,-0.25753 0.01411,-0.14817 0.02117,-0.31045 0.0071,-0.16227 0.01764,-0.32808 0.01058,-0.16933 0.02822,-0.32456 0.02117,-0.18344 0.0635,-0.33513 0.04586,-0.1517 0.09525,-0.26812 0.04939,-0.11641 0.09878,-0.19755 0.04939,-0.0811 0.08467,-0.13053 h -0.07761 q -0.06703,0 -0.123472,0.0212 -0.05644,0.0176 -0.102306,0.0423 -0.04233,0.0212 -0.07761,0.0423 -0.03175,0.0176 -0.05644,0.0176 -0.05997,0 -0.08819,-0.0423 -0.02822,-0.0423 -0.02822,-0.0952 0,-0.0494 0.05292,-0.0917 0.05644,-0.0459 0.155222,-0.0459 z"
         style="font-style:normal;font-variant:normal;font-weight:normal;font-stretch:normal;font-family:'Bradley Gratis';-inkscape-font-specification:'Bradley Gratis';text-align:start;text-anchor:start;stroke-width:0.26458332"
         id="path3413" />
      <path
         d="m 72.571324,150.11223 v -2.4377 q 0,-0.0988 -0.04233,-0.1658 -0.04233,-0.0706 -0.08467,-0.12347 h 0.684389 v 0.35983 l 0.391583,-0.45508 q 0.179917,0.16227 0.296333,0.32455 0.116417,0.15875 0.183445,0.32103 0.06703,0.15875 0.09172,0.32456 0.02469,0.16227 0.02469,0.33513 0,0.16934 -0.02822,0.32456 -0.02469,0.15169 -0.07408,0.29986 -0.04939,0.14817 -0.119944,0.29986 -0.06703,0.1517 -0.148167,0.3175 h 0.127 q 0.04586,0 0.09525,-0.0318 0.04939,-0.0317 0.09878,-0.0317 v 0.33867 h -0.684389 q 0.09525,-0.19403 0.151694,-0.34925 0.05997,-0.15522 0.09172,-0.29633 0.03175,-0.14112 0.04233,-0.27517 0.01058,-0.13406 0.01058,-0.28575 0,-0.1517 -0.05292,-0.31397 -0.04939,-0.16581 -0.123472,-0.30339 -0.07408,-0.13759 -0.15875,-0.22578 -0.08114,-0.0882 -0.148166,-0.0882 -0.04233,0 -0.06703,0.0212 v 2.11667 z"
         style="font-style:normal;font-variant:normal;font-weight:normal;font-stretch:normal;font-family:'Bradley Gratis';-inkscape-font-specification:'Bradley Gratis';text-align:start;text-anchor:start;stroke-width:0.26458332"
         id="path3415" />
      <path
         d="m 74.460228,147.6322 q -0.09172,-0.0388 -0.127,-0.0953 -0.03528,-0.0564 -0.03528,-0.10583 0,-0.0423 0.02822,-0.0529 0.02822,0.0176 0.07761,0.0247 0.04939,0.007 0.112889,0.007 0.03175,0 0.08819,-0.0106 0.05997,-0.0106 0.130528,-0.0212 0.07055,-0.0106 0.144639,-0.0212 0.07761,-0.0106 0.144639,-0.0106 0.162277,0 0.331611,0.0847 0.169333,0.0811 0.303389,0.254 0.134055,0.16933 0.218722,0.43391 0.08819,0.26106 0.08819,0.62442 0,0.30692 -0.05292,0.52917 -0.05292,0.22225 -0.134056,0.37747 -0.08114,0.15522 -0.179917,0.25047 -0.09878,0.0917 -0.194027,0.14464 -0.09172,0.0494 -0.169334,0.067 -0.07408,0.0176 -0.109361,0.0176 -0.05292,0 -0.112889,-0.0141 -0.05997,-0.0141 -0.119944,-0.0317 -0.05644,-0.0176 -0.109361,-0.0318 -0.04939,-0.0141 -0.08467,-0.0141 -0.03881,0 -0.07055,0.0141 -0.03175,0.0106 -0.06703,0.0247 -0.03175,0.0106 -0.07056,0.0247 -0.0388,0.0106 -0.08819,0.0106 -0.01764,0 -0.03881,-0.004 -0.01764,-0.004 -0.03528,-0.0106 -0.01764,-0.007 -0.03528,-0.0176 0.02822,-0.0176 0.05644,-0.06 0.02822,-0.0459 0.05292,-0.0952 0.02822,-0.0529 0.05644,-0.11642 z m 0.518584,2.10256 q 0,0.0741 0.02469,0.11641 0.02822,0.0388 0.05997,0.0565 0.03881,0.0212 0.08467,0.0247 0.08114,0 0.141111,-0.10936 0.0635,-0.10936 0.0635,-0.27869 v -1.5487 q 0,-0.1658 -0.03175,-0.25753 -0.03175,-0.0917 -0.07408,-0.13405 -0.04233,-0.0423 -0.08467,-0.0494 -0.04233,-0.0106 -0.06703,-0.0106 -0.04233,0 -0.08114,0.0564 -0.03528,0.0565 -0.03528,0.14817 z"
         style="font-style:normal;font-variant:normal;font-weight:normal;font-stretch:normal;font-family:'Bradley Gratis';-inkscape-font-specification:'Bradley Gratis';text-align:start;text-anchor:start;stroke-width:0.26458332"
         id="path3417" />
    </g>
  </g>
</svg>
