<?xml version="1.0" encoding="UTF-8" standalone="no"?>
<!-- Created with Inkscape (http://www.inkscape.org/) -->

<svg
   xmlns:dc="http://purl.org/dc/elements/1.1/"
   xmlns:cc="http://creativecommons.org/ns#"
   xmlns:rdf="http://www.w3.org/1999/02/22-rdf-syntax-ns#"
   xmlns:svg="http://www.w3.org/2000/svg"
   xmlns="http://www.w3.org/2000/svg"
   xmlns:xlink="http://www.w3.org/1999/xlink"
   xmlns:sodipodi="http://sodipodi.sourceforge.net/DTD/sodipodi-0.dtd"
   xmlns:inkscape="http://www.inkscape.org/namespaces/inkscape"
   width="135"
   height="380"
   viewBox="0 0 35.718751 100.54167"
   version="1.1"
   id="svg11003"
   inkscape:version="0.92.2 (5c3e80d, 2017-08-06)"
   sodipodi:docname="Sabonis.svg">
  <defs
     id="defs10997">
    <linearGradient
       inkscape:collect="always"
       id="linearGradient3391">
      <stop
         style="stop-color:#cce6f1;stop-opacity:1;"
         offset="0"
         id="stop3387" />
      <stop
         style="stop-color:#ffffff;stop-opacity:1;"
         offset="1"
         id="stop3389" />
    </linearGradient>
    <linearGradient
       inkscape:collect="always"
       xlink:href="#linearGradient3391"
       id="linearGradient3393"
       x1="35.219627"
       y1="150.85843"
       x2="35.219627"
       y2="50.462322"
       gradientUnits="userSpaceOnUse"
       gradientTransform="matrix(0.89811348,0,0,1.0046119,3.5222574,-0.4311667)" />
  </defs>
  <sodipodi:namedview
     id="base"
     pagecolor="#ffffff"
     bordercolor="#666666"
     borderopacity="1.0"
     inkscape:pageopacity="0.0"
     inkscape:pageshadow="2"
     inkscape:zoom="4"
     inkscape:cx="150.26988"
     inkscape:cy="183.79805"
     inkscape:document-units="mm"
     inkscape:current-layer="layer1"
     showgrid="false"
     fit-margin-top="0"
     fit-margin-left="0"
     fit-margin-right="0"
     fit-margin-bottom="0"
     inkscape:window-width="3840"
     inkscape:window-height="2115"
     inkscape:window-x="-13"
     inkscape:window-y="-13"
     inkscape:window-maximized="1"
     units="px" />
  <metadata
     id="metadata11000">
    <rdf:RDF>
      <cc:Work
         rdf:about="">
        <dc:format>image/svg+xml</dc:format>
        <dc:type
           rdf:resource="http://purl.org/dc/dcmitype/StillImage" />
        <dc:title></dc:title>
      </cc:Work>
    </rdf:RDF>
  </metadata>
  <g
     inkscape:label="Layer 1"
     inkscape:groupmode="layer"
     id="layer1"
     transform="translate(-35.146312,-50.389004)">
    <path
       inkscape:connector-curvature="0"
       id="path33493"
       d="M 35.153482,50.263885 H 70.720468 V 151.12301 H 35.153482 Z m 0,0"
       style="fill:url(#linearGradient3393);fill-opacity:1;fill-rule:nonzero;stroke:none;stroke-width:0.26218709"
       inkscape:export-filename="/home/vortico/pics/tmp/LFOs.png"
       inkscape:export-xdpi="150.22649"
       inkscape:export-ydpi="150.22649" />
    <g
       aria-label="Frozen Wasteland"
       style="font-style:normal;font-weight:normal;font-size:3.52777767px;line-height:1.25;font-family:sans-serif;letter-spacing:0px;word-spacing:0px;fill:#000000;fill-opacity:1;stroke:none;stroke-width:0.26458332"
       id="text271"
       transform="translate(-1.9843677)">
      <path
         d="m 41.358287,143.6804 -0.03175,0.55386 -0.03528,0.0353 h -0.726723 q -0.0035,0.004 -0.03881,0.12348 -0.01764,0.06 -0.03881,0.0776 -0.05292,-0.0635 -0.127,-0.17992 -0.01411,0.0635 -0.01411,0.14817 0,0.0353 0.0071,0.0988 0.0071,0.0635 0.0071,0.0952 0.01764,-0.0353 0.07761,-0.0353 0.105834,0 0.155223,0.0317 0.04586,0.0423 0.09525,0.0847 0.01411,0.004 0.03881,-0.0176 0,0 0.0247,-0.0247 0.0071,0 0.03528,0.0106 0.02822,0.0106 0.04233,0.0106 0.01411,0.0388 0.02117,0.21519 l 0.01411,0.34925 h -0.490361 l -0.02117,0.0459 v 0.97367 H 39.64026 v -2.43064 q -0.04586,-0.0247 -0.04586,-0.11289 0,-0.0741 0.09525,-0.16933 0.03881,-0.0388 0.123473,-0.0988 0.112889,0.0212 0.225777,0.0423 0.165806,0.0353 0.204612,0.0741 0.04939,0 0.275166,-0.10584 0.112889,-0.0529 0.155222,-0.0529 l 0.165806,0.0459 q 0.04233,0.0141 0.07056,0.0141 0.01764,0 0.02822,-0.004 0.02117,0.10231 0.08467,0.10231 0.02822,0 0.105834,-0.0212 0.102305,-0.0247 0.112889,-0.0282 0.05292,0 0.09172,0.0494 0.0388,0.0459 0.02469,0.0988 z m -0.07408,0.007 q -0.01058,-0.0776 -0.09172,-0.0776 -0.03175,0 -0.105834,0.0247 -0.07055,0.0247 -0.09878,0.0247 -0.01058,-0.0353 -0.0247,-0.0529 -0.08819,-0.11641 -0.303389,-0.11641 -0.08114,0 -0.254,0.11994 -0.08114,0.0564 -0.141111,0.0564 -0.03528,0 -0.07055,-0.0247 -0.0882,-0.06 -0.09878,-0.06 -0.01411,0 -0.04233,0.007 -0.02822,0.007 -0.03528,0.007 -0.03881,0 -0.109361,-0.0176 -0.06703,-0.0176 -0.0882,-0.0176 -0.04939,0 -0.102305,0.0564 -0.04939,0.0564 -0.04939,0.10583 0,0.0564 0.134055,0.15169 0.137584,0.0953 0.194028,0.0953 0.03881,0 0.112889,-0.0176 0.07408,-0.0176 0.109361,-0.0176 0.05997,0 0.155222,0.1905 0.03175,0.0635 0.08467,0.19402 0.01764,-0.15169 0.03175,-0.21872 0.04586,-0.22225 0.102306,-0.2293 0.01764,-0.004 0.04233,0.0494 0.02469,0.0494 0.04586,0.0494 0.119944,0 0.328083,-0.10936 0.05645,0.007 0.112889,0.06 l 0.09878,0.127 q 0,-0.0212 0.04586,-0.2293 0.02117,-0.0988 0.01764,-0.13053 z m -0.469194,1.16417 q 0,-0.0741 -0.05645,-0.067 -0.04939,0.007 -0.07055,0.007 -0.02117,0 -0.04939,-0.0106 -0.04939,-0.0317 -0.105834,-0.06 -0.06703,-0.0353 -0.102305,-0.0353 -0.02822,0 -0.04939,0.0882 -0.02117,0.0741 -0.02117,0.11641 0,0.0317 0.07761,0.0423 0.0247,0 0.07761,0.004 0.07761,0.11642 0.09525,0.13053 0.04586,0.0388 0.09878,0.0282 0.03528,-0.007 0.07056,-0.1023 0.03528,-0.0952 0.03528,-0.14111 z"
         style="font-style:normal;font-variant:normal;font-weight:normal;font-stretch:normal;font-family:'Snowtop Caps';-inkscape-font-specification:'Snowtop Caps';stroke-width:0.26458332"
         id="path4881"
         inkscape:connector-curvature="0" />
      <path
         d="m 43.247026,144.40006 q 0,-0.20461 -0.0635,-0.381 -0.01764,-0.0847 -0.02117,-0.11641 -0.01411,-0.067 -0.03528,-0.12348 -0.01764,-0.0564 -0.04233,-0.10583 -0.08114,0 -0.15875,-0.127 -0.07761,-0.13053 -0.141111,-0.12347 -0.05997,0 -0.112889,0.0811 -0.105834,0.16227 -0.127,0.16227 -0.02822,0 -0.07056,-0.067 -0.08467,-0.13759 -0.130528,-0.127 -0.109361,0.0388 -0.194027,0.0776 -0.08114,0.0353 -0.141112,0.067 -0.02822,-0.007 -0.08819,-0.0917 -0.05644,-0.0882 -0.15875,-0.0882 -0.07408,0 -0.151694,0.10583 -0.07761,0.0988 -0.07761,0.17992 v 2.55411 h 0.680862 v -1.04069 l 0.02117,-0.0353 q 0.09172,0.007 0.162278,0.0106 0.07056,0 0.116417,0.004 l -0.0035,1.02305 q 0.02117,0.0353 0.06703,0.0353 l 0.395111,0.004 q 0.09525,0 0.15875,-0.0423 0.06703,-0.0423 0.06703,-0.13053 l -0.0071,-0.46567 q -0.0035,-0.25753 -0.03175,-0.38453 -0.04586,-0.21519 -0.201083,-0.29986 0.194027,-0.11289 0.250472,-0.22225 0.0388,-0.0776 0.0388,-0.23636 z m -0.07761,-0.2928 q -0.0071,0.0529 -0.01058,0.0917 -0.0035,0.0353 -0.0071,0.0564 -0.01411,0.11289 -0.02117,0.1517 l -0.105834,-0.3175 q -0.05997,-0.12347 -0.130527,-0.11289 -0.03881,0.007 -0.07408,0.0741 -0.03528,0.067 -0.04939,0.0706 -0.03528,-0.0706 -0.05644,-0.10936 -0.01764,-0.0423 -0.02469,-0.0494 -0.04939,-0.0741 -0.08819,-0.0847 -0.04939,-0.0106 -0.119944,0.1905 -0.02822,0.0741 -0.05292,0.17992 -0.07056,-0.0988 -0.116417,-0.15875 -0.04233,-0.06 -0.05997,-0.0847 -0.09525,-0.127 -0.151694,-0.127 -0.0635,0 -0.3175,0.34925 H 41.7618 q 0.0071,-0.0106 0.0071,-0.0212 0.0035,-0.0141 0.0035,-0.0494 0,-0.19403 -0.197555,-0.39159 0.07055,-0.18344 0.07055,-0.18344 0.03528,-0.0635 0.116417,-0.0635 0.04939,0 0.141111,0.0882 0.09172,0.0882 0.105833,0.0882 0.03175,0 0.144639,-0.0811 0.116417,-0.0847 0.183445,-0.0741 0.03528,0.007 0.09172,0.11642 0.0635,0.10936 0.09172,0.10936 0.05292,0 0.127,-0.13053 0.07408,-0.13052 0.137584,-0.13052 0.04939,0 0.130527,0.127 0.08114,0.127 0.141111,0.11289 0.03528,0.0388 0.0635,0.1905 0.02469,0.14463 0.04939,0.17286 z M 42.6085,144.4424 v 0.0529 q 0,0.0988 -0.05645,0.10936 -0.02469,0.004 -0.215194,-0.0564 -0.07408,0.0106 -0.102306,0.0705 v -0.39158 q 0.0635,-0.007 0.134056,0.0635 0.07761,0.0706 0.08819,0.0706 0.04233,0 0.07761,-0.0564 0.01058,-0.0176 0.01764,-0.0318 0.0071,-0.0141 0.01411,-0.0247 0.05292,0.067 0.04233,0.19403 z m -0.130528,0.25047 q -0.01764,0.0459 -0.02469,0.0847 -0.0071,0.0388 -0.01058,0.0706 -0.01058,-0.0247 -0.01764,-0.0318 -0.02117,-0.0247 -0.04233,-0.0317 -0.03175,-0.004 -0.06703,0.0353 -0.03175,0.0423 -0.03528,0.0423 v -0.0353 q 0,-0.19402 0.0635,-0.19402 0.01058,0 0.09172,0.0423 0.03528,0.0176 0.04233,0.0176 z m -0.546806,-0.89959 q 0.0035,-0.0106 -0.02469,-0.0247 -0.01058,-0.004 -0.03175,-0.0106 v 0.06 q 0.01764,-0.007 0.03175,-0.0106 0.01411,-0.007 0.02469,-0.0141 z"
         style="font-style:normal;font-variant:normal;font-weight:normal;font-stretch:normal;font-family:'Snowtop Caps';-inkscape-font-specification:'Snowtop Caps';stroke-width:0.26458332"
         id="path4883"
         inkscape:connector-curvature="0" />
      <path
         d="m 45.154782,144.38595 q 0.03881,0.36336 0.03881,0.68792 0,0.75494 -0.268111,1.016 -0.1905,0.18697 -0.642056,0.18697 -0.867833,0 -0.867833,-1.0795 0,-0.36689 0.01411,-0.46214 0,-0.36336 0.09172,-0.55739 0,-0.0317 -0.03175,-0.13758 -0.03175,-0.10583 -0.03175,-0.14817 0,-0.0811 0.08819,-0.17286 0.08819,-0.0952 0.169333,-0.0952 0.03528,0.0141 0.05644,0.0141 0.07761,-0.0776 0.179917,-0.0776 0.05644,0 0.08467,0.0423 0.02822,0.0423 0.03175,0.0423 0.03528,0.004 0.116416,-0.067 0.08114,-0.0706 0.09878,-0.067 0.01764,0.004 0.05645,0.0247 0.0388,0.0176 0.04233,0.0176 0.03175,0 0.127,-0.0635 0.09878,-0.0635 0.123472,-0.067 0.08819,0 0.186972,0.0564 0.09878,0.0565 0.119945,0.13759 0.0071,0.004 0.116417,0.40922 0.07761,0.29633 0.09878,0.35983 z m -0.105833,-0.17992 q -0.0071,-0.0317 -0.04586,-0.15522 -0.02117,-0.067 -0.01411,-0.0882 -0.05292,-0.0282 -0.07761,-0.16581 -0.02822,-0.17286 -0.03175,-0.18344 -0.01764,-0.0388 -0.127,-0.0882 -0.109361,-0.0529 -0.155223,-0.0529 -0.04586,0.0529 -0.09172,0.10583 -0.07055,0.0811 -0.09525,0.0811 -0.0035,0 -0.03528,-0.0423 -0.03175,-0.0423 -0.07761,-0.0423 -0.02469,0 -0.112889,0.0811 -0.08467,0.0776 -0.116416,0.0811 -0.04586,-0.0847 -0.119945,-0.0847 -0.02469,0 -0.112889,0.0317 -0.08467,0.0317 -0.119944,0.0317 l -0.04233,-0.0141 q -0.03528,0.0106 -0.102306,0.0776 -0.0635,0.067 -0.0635,0.0988 -0.01058,0.0494 0.03175,0.1517 0.04233,0.1023 0.09172,0.11288 0.01411,0.004 0.08114,-0.0423 0.06703,-0.0494 0.0882,-0.0529 0.04586,0 0.07408,0.0388 0.03881,-0.0106 0.102306,-0.10231 0.06703,-0.0917 0.105833,-0.0917 0.04233,0 0.127,0.0635 0.08467,0.0635 0.116417,0.0635 0.0388,0 0.05644,-0.0882 0.01764,-0.0917 0.05644,-0.0917 0.102306,0 0.194028,0.15522 0.03528,0.06 0.105834,0.18344 0.03528,-0.15875 0.09525,-0.15875 0.04586,0 0.197555,0.67381 l -0.01411,-0.40922 q 0.03175,-0.0282 0.03175,-0.0776 z m -0.585611,1.52753 v -1.52753 q 0,-0.0847 -0.04586,-0.0847 -0.0071,0 -0.03881,0.0459 -0.03175,0.0459 -0.05644,0.0459 -0.01764,0.004 -0.02822,-0.0494 -0.01058,-0.0564 -0.0247,-0.0635 -0.03175,-0.0106 -0.05997,0.0317 -0.0247,0.0388 -0.0247,0.0741 v 1.38289 q 0.02117,-0.0212 0.0635,-0.0282 0.0247,0 0.215195,0.17286 z m -0.03881,0.16581 q 0.0071,-0.14464 -0.176389,-0.24695 -0.02469,0.007 -0.04586,0.10231 -0.01764,0.0776 -0.01764,0.11994 0,0.0494 0.01411,0.0811 0.01058,-0.004 0.02469,-0.004 0.05292,0 0.105833,0.0776 0.02117,0.0317 0.05292,0.1023 0.01764,-0.0776 0.04233,-0.23283 z m 0.257528,-2.17664 -0.01058,0.0459 q -0.02117,0.0423 -0.05997,0.0423 l -0.01411,-0.007 q -0.01764,-0.004 -0.0388,-0.0247 l -0.03175,-0.0776 h 0.01411 q 0.01411,0.0247 0.0635,0.0565 z m -0.860778,0.18344 q -0.01058,0.007 -0.02469,0.007 -0.01764,0 -0.03528,-0.0176 l -0.03881,-0.0317 0.0071,-0.0247 q 0.0247,0 0.05645,0.0247 0.03528,0.0212 0.03528,0.0423 z"
         style="font-style:normal;font-variant:normal;font-weight:normal;font-stretch:normal;font-family:'Snowtop Caps';-inkscape-font-specification:'Snowtop Caps';stroke-width:0.26458332"
         id="path4885"
         inkscape:connector-curvature="0" />
      <path
         d="m 47.203815,146.25567 -0.03528,0.0212 H 45.32351 v -0.55739 l 0.917222,-1.31939 q 0.04939,-0.0494 0.07761,-0.13758 l -0.384528,-0.0282 q -0.03528,0.0847 -0.03528,0.0882 -0.02822,0.0494 -0.07761,0.0494 0,-0.10936 -0.109361,-0.13406 -0.02469,-0.007 -0.1905,-0.0141 -0.05997,0 -0.09172,-0.0106 -0.0247,-0.0952 -0.0247,-0.21519 0,-0.13406 0.03881,-0.32103 0.05292,-0.254 0.137583,-0.254 0.03881,0 0.09878,0.0564 0.0635,0.0529 0.105833,0.0529 0.02822,0 0.102306,-0.0494 0.03528,-0.0247 0.06703,-0.0247 0.179916,0 0.179916,0.0847 0,0.0459 0.01411,0.0459 0.02822,0 0.134055,-0.0776 0.109361,-0.0811 0.215195,-0.0811 0.105833,0 0.151694,0.0741 0.04939,0.0705 0.0635,0.0705 0.05644,-0.0353 0.155222,-0.0776 0.02822,-0.004 0.0635,-0.004 0.169334,0 0.225778,0.13759 0.03881,0.0917 0.03881,0.30339 v 0.14816 q 0,0.0776 0.0071,0.13053 -0.05644,0.0494 -0.09172,0.33514 -0.01764,0.13758 -0.04939,0.17992 l -0.05997,-0.13759 q -0.112889,0.0952 -0.328084,0.40922 l -0.232833,0.33162 q 0.130528,0.22225 0.22225,0.22225 0.01411,0 0.08819,-0.0247 l 0.08114,-0.0282 q 0.03528,0 0.109362,0.0529 0.123472,0.0882 0.179916,0.0882 0.01058,0 0.01764,-0.004 0.0247,0.0423 0.04586,0.33514 0.0071,0.10231 0.01764,0.28222 z m -0.08467,-2.49766 q 0,-0.0811 -0.05644,-0.14111 -0.05292,-0.0635 -0.130528,-0.0635 -0.04939,0 -0.119944,0.0529 -0.07056,0.0529 -0.105834,0.0529 -0.01058,0 -0.134055,-0.0988 -0.0635,-0.0494 -0.123472,-0.0494 -0.208139,0.15522 -0.303389,0.15522 -0.06703,0 -0.109361,-0.0811 -0.04233,-0.0811 -0.04586,-0.0811 -0.05292,0 -0.119945,0.0811 -0.06703,0.0811 -0.116417,0.0811 -0.01411,-0.0141 -0.08819,-0.0917 -0.04233,-0.0459 -0.07761,-0.0353 -0.06703,0.0212 -0.06703,0.16934 v 0.0388 q 0,0.007 0.0035,0.0176 0.105833,0.007 0.176389,0.15522 0.04939,0.10937 0.148166,0.32809 0.03528,0.004 0.05645,-0.0353 -0.02117,-0.0564 -0.02822,-0.10583 0,-0.0811 0.03881,-0.17639 0.04939,-0.11995 0.116417,-0.11995 0.03881,0 0.134055,0.10936 0.04586,0.0529 0.08114,0.0494 0.01058,-0.004 0.03528,-0.0388 0.0247,-0.0388 0.08114,-0.0388 0.01411,0 0.102306,0.0423 0.08819,0.0423 0.130527,0.0423 0.03528,0 0.09878,-0.0811 0.03528,-0.0459 0.07408,-0.0564 0.03175,-0.007 0.119945,0.18697 0.05644,0.14111 0.112889,0.27869 -0.0035,0.0353 -0.0035,0.0529 0,0.10936 0.0635,0.127 0.01411,-0.12347 0.02822,-0.26811 0.02822,-0.3175 0.02822,-0.45861 z m -0.02117,1.95439 q -0.03528,-0.0106 -0.155222,-0.0706 -0.116417,-0.06 -0.130528,-0.06 -0.04233,0 -0.105834,0.0353 -0.05997,0.0353 -0.0635,0.0353 -0.102305,0 -0.204611,-0.15875 -0.05292,-0.0811 -0.105833,-0.0847 -0.04233,0 -0.102306,0.14464 -0.05997,0.14111 -0.0388,0.19402 0.01411,0.0423 0.05644,0.0882 0.04939,0.0564 0.08467,0.0564 0.02822,0 0.04939,-0.0529 0.02469,-0.0565 0.04586,-0.0635 0.05292,-0.0176 0.112889,0.0952 0.05997,0.10936 0.07055,0.10583 0.03528,-0.007 0.09172,-0.10936 0.05997,-0.10584 0.137583,-0.10584 0.02469,0.0106 0.144639,0.0882 0.06703,0.0423 0.09878,0.0423 0.01411,0 0.02822,-0.0564 0.01058,-0.0459 0.01058,-0.067 0,-0.0529 -0.02469,-0.0564 z"
         style="font-style:normal;font-variant:normal;font-weight:normal;font-stretch:normal;font-family:'Snowtop Caps';-inkscape-font-specification:'Snowtop Caps';stroke-width:0.26458332"
         id="path4887"
         inkscape:connector-curvature="0" />
      <path
         d="m 49.152416,146.23451 -0.04939,0.0423 h -1.68275 l -0.03528,-0.0353 v -1.54164 q 0,-0.58914 -0.105833,-1.06891 0.03528,-0.0318 0.109361,-0.0988 0.07761,-0.067 0.148167,-0.067 0.02822,0 0.144639,0.0564 0.116416,0.0529 0.15875,0.0529 0.03528,0 0.176389,-0.1023 0.0635,-0.0459 0.08819,-0.0423 0.1905,0.0353 0.264583,0.13759 0.218723,0 0.338667,-0.0388 0.08114,-0.0317 0.250472,-0.0917 0.04233,0 0.137584,0.06 0,0.59972 -0.04939,0.70908 l -0.627945,0.0141 q -0.07761,0.0776 -0.112889,0.0776 0,0 -0.0388,-0.0318 -0.03528,-0.0317 -0.08467,-0.0317 -0.109361,0 -0.109361,0.16933 0,0.0635 0.0247,0.24342 0.04586,-0.0847 0.169333,-0.0847 0.102305,0 0.134055,0.0353 0.01764,0.0212 0.03175,0.0212 0.09172,-0.0776 0.127,-0.0776 0.01058,0 0.03175,0.007 0.01058,0 0.02117,0.007 0.01411,0.17639 0.01411,0.41628 v 0.0988 q -0.0071,0.0353 -0.0071,0.0459 -0.01764,0.0212 -0.112889,0.0318 -0.01411,0 -0.04586,0.004 -0.0071,0.007 -0.03528,0.11642 -0.0247,0.10936 -0.05644,0.127 l -0.05292,-0.1517 q -0.0247,-0.0635 -0.04233,-0.0917 l -0.109361,0.007 q -0.05644,0.004 -0.08114,0.0282 l 0.02117,0.27869 q 0.03528,0 0.0635,-0.004 l 0.137583,-0.0176 q 0.141111,0 0.197556,0.0917 0.05292,-0.0212 0.116417,-0.0212 0.01764,0 0.232833,0.0459 0.09878,0.0212 0.134055,0.0212 0.0071,0.004 0.04233,0.0741 0.03528,0.067 0.07408,0.067 0.01764,0 0.02822,-0.004 0.0071,0.22578 0.02117,0.51506 z m -0.105833,-2.68111 q 0,-0.0106 -0.04233,-0.0318 -0.04233,-0.0212 -0.05292,-0.0176 -0.289278,0.14111 -0.532695,0.14111 -0.08819,0 -0.169333,-0.0529 -0.08114,-0.0529 -0.09172,-0.0529 -0.0882,0 -0.172861,0.0635 -0.08467,0.0635 -0.123473,0.0635 -0.05292,0 -0.141111,-0.0529 -0.08819,-0.0529 -0.155222,-0.0529 -0.134055,0 -0.172861,0.0494 -0.02117,0.0282 -0.02117,0.11994 0,0.11642 0.07761,0.37042 0.08114,0.254 0.08114,0.35631 -0.0035,-0.0247 -0.0071,-0.067 -0.01058,-0.10231 -0.01058,-0.1517 0,-0.21166 0.08819,-0.21166 0.0071,0 0.04586,0.0141 0.03881,0.0141 0.05997,0.0141 0.03881,0.004 0.07761,-0.10936 0.04233,-0.11289 0.09525,-0.11289 0.09172,0 0.119945,0.11994 0.01411,0.14112 0.02117,0.17639 0.05645,-0.23636 0.105834,-0.23636 0.05292,0 0.112889,0.11995 0.0388,0.0882 0.07408,0.17286 0.08114,-0.27164 0.162278,-0.27164 0.03528,0 0.08819,0.0353 0.05645,0.0353 0.05645,0.0353 0.01764,-0.0459 0.03528,-0.1023 0.03175,-0.10231 0.05645,-0.10231 0.116416,0 0.179916,0.067 0.09878,-0.10583 0.112889,-0.127 0.04233,-0.067 0.04233,-0.1658 z m -0.500945,1.08655 q -0.03175,0.06 -0.105833,0.06 -0.01764,0 -0.08114,-0.0317 -0.0635,-0.0353 -0.09878,-0.0282 -0.05644,0.0106 -0.09525,0.067 -0.03528,0.0529 -0.02469,0.10583 0.02117,0.0952 0.112889,0.11289 0.05644,0.15875 0.116416,0.3175 0.179917,-0.30339 0.179917,-0.55739 0,-0.0212 -0.0035,-0.0459 z m 0.508,1.17122 q 0,-0.06 -0.183444,-0.14816 -0.148167,-0.0706 -0.215195,-0.0811 l -0.01764,0.0176 q -0.03175,0.0247 -0.134055,0.0247 -0.02117,0 -0.112889,-0.0529 -0.08819,-0.0564 -0.15875,-0.0564 -0.0388,0 -0.07408,0.0706 -0.03175,0.067 -0.03175,0.11288 0,0.24342 0.08819,0.24342 0.08114,0 0.144639,-0.067 0.0635,-0.0705 0.05997,-0.0705 0.0035,0 0.102306,0.11994 0.102305,0.11642 0.134055,0.11642 0.05292,0 0.141111,-0.18345 0.07056,-0.0106 0.127,0.0882 0.03175,0.0705 0.0635,0.13758 -0.01058,-0.0282 -0.01058,-0.0564 0,-0.0494 0.0247,-0.10231 z"
         style="font-style:normal;font-variant:normal;font-weight:normal;font-stretch:normal;font-family:'Snowtop Caps';-inkscape-font-specification:'Snowtop Caps';stroke-width:0.26458332"
         id="path4889"
         inkscape:connector-curvature="0" />
      <path
         d="m 51.032115,146.26978 h -0.687916 l -0.405695,-1.03363 v 1.04069 h -0.638527 l 0.0035,-2.36361 q 0,-0.47625 0.15875,-0.47625 0.03528,0 0.08114,0.0494 0.04939,0.0459 0.07761,0.0459 -0.0035,0 0.05997,-0.0529 0.0635,-0.0529 0.134055,-0.0564 0.05644,0 0.105833,0.0564 0.0071,0.0317 0.09172,0.10936 0.08819,0.0741 0.09525,0.0952 0.0071,0.0741 0.02469,0.22225 0.02822,0.19756 0.09525,0.29281 0.04586,-0.0565 0.119945,-0.0565 0.04939,0 0.06703,0.0282 l 0.02822,-0.0353 q 0,-0.0353 0,-0.10231 -0.0035,-0.067 -0.0035,-0.1023 0,-0.46567 0.225778,-0.46567 0.08114,0 0.123472,0.0529 0.04233,0.0529 0.08114,0.10583 l 0.09172,-0.0212 q 0.07055,0 0.07055,0.0212 z m -0.07761,-2.59644 q -0.01764,0.0106 -0.02469,0.0141 -0.02822,0.0141 -0.04586,0.0141 -0.03881,0 -0.112889,-0.0917 -0.07408,-0.0917 -0.127,-0.0776 -0.04939,0.007 -0.09172,0.0917 -0.0247,0.067 -0.05292,0.13406 0.09525,0.11994 0.194028,0.23989 0.09172,0.13405 0.148166,0.28575 0,-0.10584 0.0635,-0.28928 0.0635,-0.18697 0.0635,-0.25047 0,-0.0423 -0.01411,-0.0706 z m -0.860777,0.254 q 0,-0.10936 -0.05997,-0.254 -0.04233,0 -0.123472,-0.0952 -0.07761,-0.0988 -0.102305,-0.0988 -0.0247,0 -0.102306,0.067 -0.07761,0.0635 -0.08114,0.0635 -0.01411,0 -0.08467,-0.0529 -0.07056,-0.0529 -0.09525,-0.0529 -0.04233,0 -0.06703,0.0882 -0.01764,0.067 -0.01764,0.12347 0,0.11289 0.08467,0.43392 0.0388,-0.0353 0.116416,-0.20108 0.02822,0.007 0.155222,0.18697 0.01411,-0.0141 0.03528,-0.0988 0.04233,-0.16933 0.09172,-0.19755 0.176389,0.10936 0.176389,0.26105 l 0.03175,-0.007 q 0.04233,-0.0811 0.04233,-0.16581 z m 0.405694,0.75847 v -0.0529 q 0,0.0141 0.0035,-0.0741 0.0035,-0.13053 -0.06703,-0.25753 -0.05644,-0.0917 -0.123472,-0.1023 -0.0247,0.0247 -0.02822,0.0353 -0.0071,0.0141 0.01058,0.0388 0.01764,0.0247 0.01764,0.0318 -0.05292,0.127 -0.04939,0.17286 l 0.01411,0.29986 h 0.02117 q -0.01411,-0.0953 0.144639,-0.0953 h 0.03881 q 0.0071,0 0.01764,0.004 z m -0.811389,-0.99836 q -0.01411,0.0247 -0.02469,0.0317 -0.0247,0.0212 -0.04586,0.0212 -0.01058,0 -0.02117,-0.004 -0.0035,-0.0635 0.09172,-0.0635 z"
         style="font-style:normal;font-variant:normal;font-weight:normal;font-stretch:normal;font-family:'Snowtop Caps';-inkscape-font-specification:'Snowtop Caps';stroke-width:0.26458332"
         id="path4891"
         inkscape:connector-curvature="0" />
      <path
         d="m 55.182215,143.72978 q 0,0.0741 -0.05997,0.2787 -0.05997,0.20108 -0.05997,0.28928 l -0.41275,1.95086 -0.03881,0.0212 h -0.670278 l -0.02822,-0.0494 Q 53.827547,145.73005 53.6688,145.088 l -0.243417,1.16769 -0.518583,0.0212 q -0.239889,0.0106 -0.239889,-0.25047 v -0.0353 q 0,-0.004 0.0035,-0.0141 -0.08114,-0.30339 -0.239889,-1.08303 -0.0635,-0.31044 -0.102305,-0.45155 -0.04233,0 -0.05292,0.0212 -0.0247,-0.0247 -0.03881,-0.10936 v -0.0423 q 0,-0.0423 0.0071,-0.11642 l 0.0035,-0.0741 q 0,-0.22578 -0.105834,-0.34925 0.0035,0 0.05292,-0.14111 0.04233,-0.127 0.112889,-0.127 0.0388,0 0.130528,0.0635 0.0388,0.0282 0.04939,0.0282 0.03528,-0.007 0.07408,-0.0635 0.03881,-0.0565 0.05292,-0.06 0.04586,0 0.218722,0.27164 0.04233,0.1023 0.127,0.44097 0.01764,0.06 0.07408,0.29986 0.0247,0.004 0.03881,0.004 l 0.119944,0.0176 q 0.02117,0 0.04586,-0.0564 0.0035,-0.0106 0.01058,-0.0282 l 0.155222,-0.69145 q -0.03528,-0.0106 -0.04939,-0.0847 -0.0071,-0.0317 0.02822,-0.0847 0.07056,-0.10936 0.123472,-0.10936 0.02822,0 0.151695,0.0811 0,0 0.0635,-0.0494 0.06703,-0.0529 0.15875,-0.0529 0.109361,0 0.130528,0.0952 l 0.201083,0.92428 q 0.01764,-0.0141 0.04939,-0.0318 0.05644,-0.0317 0.102305,-0.0317 0.04233,0 0.04939,0.007 0.09878,-0.25753 0.127,-0.41981 0.01411,-0.0847 0.01411,-0.30692 0,-0.0459 0.04939,-0.12347 0.05292,-0.0776 0.09525,-0.0776 0.08467,0 0.102306,0.0776 0.02469,0.0882 0.04586,0.0952 0.01764,0.007 0.09878,-0.0529 0.08114,-0.06 0.116416,-0.067 0.08467,0 0.109361,0.067 0.01058,0.0353 0.01058,0.14463 z m -0.0635,-0.0212 q 0,-0.10584 -0.04939,-0.10584 -0.05292,0.0459 -0.08114,0.0635 -0.09525,0.06 -0.155222,0.0423 -0.04233,-0.0141 -0.08114,-0.0952 -0.03881,-0.0811 -0.05292,-0.0811 -0.03881,0 -0.0635,0.067 -0.01764,0.0529 -0.01764,0.1023 0,0.0529 0.02117,0.1517 0.02117,0.0988 0.03881,0.0952 0.02117,-0.004 0.04233,-0.0529 0.01058,-0.0247 0.02117,-0.0247 0.06703,0 0.102305,0.21872 0.02117,0.14464 0.04233,0.28928 0.06703,-0.16934 0.130528,-0.3422 0.09172,-0.23989 0.102306,-0.32808 z m -1.135945,0 q 0,-0.0564 -0.02822,-0.13053 -0.03528,-0.0882 -0.08467,-0.0882 -0.07055,0 -0.123472,0.0705 -0.05292,0.0706 -0.08467,0.0706 -0.02822,0 -0.07761,-0.0529 -0.04586,-0.0529 -0.07761,-0.0388 -0.03528,0.0106 -0.04586,0.0212 -0.02117,0.0176 -0.02117,0.0423 0,0.1905 0.137583,0.30339 0.01764,0.0776 0.0635,0.16228 0.0035,0 0.0388,-0.0741 0.03528,-0.0776 0.05645,-0.0811 0.02469,-0.004 0.08819,0.22578 0.0635,0.22577 0.0882,0.23283 0.01764,-0.0882 0.0388,-0.17639 0.03175,-0.28928 0.03175,-0.48683 z m 0.41275,1.03364 q -0.0071,-0.0459 -0.02822,-0.17286 -0.01058,-0.0529 -0.02469,-0.11995 -0.08819,0.0459 -0.08819,0.15522 0,0.0282 0.04939,0.22578 0.0247,0.0952 0.05292,0.1905 0.04233,-0.0811 0.04233,-0.19755 0,-0.0529 -0.0035,-0.0811 z m -1.598083,-0.74436 q 0,-0.0776 -0.06703,-0.25048 -0.07055,-0.1905 -0.130528,-0.1905 -0.02822,0 -0.05644,0.0529 -0.03528,0.0706 -0.07056,0.0706 -0.03881,0 -0.08467,-0.0635 -0.04586,-0.067 -0.08114,-0.0564 -0.08114,0.0212 -0.08114,0.17639 0.02822,0.10583 0.05292,0.21167 0.0388,0.15169 0.0388,0.20461 0.0035,0.0176 0.0035,0.0282 v 0.0247 q 0,0.0635 -0.01411,0.0741 v -0.004 q 0.04586,-0.007 0.07055,-0.21167 0.0247,-0.20461 0.06703,-0.20461 0.0247,0 0.06703,0.0247 0.01764,0.0106 0.02117,0.0318 0.0388,0.31044 0.0635,0.45861 0.02822,0.0882 0.05997,0.17286 0.0071,-0.004 0.02117,-0.0741 0.01764,-0.0882 0.03528,-0.17639 0.01764,-0.0917 0.05292,-0.17286 0.03175,-0.0706 0.03175,-0.127 z m 0.465667,0.83608 q 0,-0.16228 -0.08819,-0.23283 -0.02469,-0.0212 -0.09172,-0.0388 0,0.34572 0.102306,0.53269 0.07761,-0.067 0.07761,-0.26105 z"
         style="font-style:normal;font-variant:normal;font-weight:normal;font-stretch:normal;font-family:'Snowtop Caps';-inkscape-font-specification:'Snowtop Caps';stroke-width:0.26458332"
         id="path4893"
         inkscape:connector-curvature="0" />
      <path
         d="m 56.672646,146.27684 h -0.620889 l -0.119945,-0.43744 h -0.395111 l -0.127,0.43744 h -0.560916 q 0,-0.0529 0.130527,-0.63853 0.0635,-0.28928 0.254,-1.10066 l 0.155223,-0.66675 q -0.05644,-0.0494 -0.05644,-0.127 0,-0.21167 0.162278,-0.21167 0.05997,0 0.07761,0.007 0.02469,0.0176 0.05292,0.0282 0.01764,0.007 0.03881,-0.0317 0.02469,-0.0423 0.05997,-0.0423 0.03881,0 0.05645,-0.0353 0.01764,-0.0353 0.02117,-0.0353 0.03175,0.007 0.155222,0.0106 0.09878,0.004 0.137583,0.0318 0.04233,0.0247 0.04233,0.0811 l -0.0071,0.0494 q 0,0.0388 0.06703,0.13405 0.03528,0.0529 0.03528,0.0882 -0.0071,0.23283 -0.02117,0.40922 0.02822,0.11995 0.116416,0.49742 0.105834,0.4445 0.218723,0.95603 0.119944,0.54327 0.127,0.59619 z m -0.483306,-2.33539 q 0,-0.16228 -0.05292,-0.21519 -0.02822,-0.0282 -0.02822,-0.0388 l 0.0071,-0.0494 q 0,-0.0494 -0.03881,-0.1023 -0.03528,-0.0565 -0.08114,-0.0565 -0.02822,0.0212 -0.04939,0.0247 -0.0071,0 -0.05292,-0.0247 -0.04586,-0.0247 -0.0635,-0.0212 -0.02117,0.004 -0.03881,0.06 -0.01764,0.0564 -0.03175,0.0564 l -0.03528,-0.007 q -0.01411,0 -0.02822,0.0176 -0.03175,0.0459 -0.04939,0.0459 -0.02822,0 -0.102305,-0.0353 -0.04233,-0.0212 -0.05644,-0.0212 -0.09172,0 -0.09172,0.0988 0,0.0388 0.01764,0.0776 0.06703,0.14464 0.06703,0.2787 0,0.0212 0,0.067 -0.0035,0.0423 -0.0035,0.0635 0,0.0529 0.01764,0.0529 0.04233,0 0.04233,-0.14111 0,-0.10583 0,-0.10936 0.01058,-0.0706 0.05997,-0.0706 0.02117,0 0.06703,0.13759 0.04586,0.13405 0.05997,0.14111 0,-0.24342 0.03528,-0.24342 0.01058,0 0.04586,0.17992 0.03881,0.17639 0.09172,0.17639 0.01411,-0.0141 0.03528,-0.0882 0.0071,-0.0247 0.02822,-0.0882 0,-0.0176 -0.01764,-0.0494 -0.01764,-0.0318 -0.01764,-0.0459 0,-0.0529 0.02117,-0.0494 0.0035,0 0.0247,0.0388 0.02117,0.0388 0.02469,0.0459 0.02117,0.0247 0.07056,0.23284 0.04939,0.20461 0.05644,0.20461 0.02117,-0.13406 0.03175,-0.20814 0.03528,-0.24694 0.03528,-0.33514 z m -0.338667,1.36878 -0.08467,-0.64911 q -0.02822,0.0388 -0.105834,0.36336 -0.03881,0.16228 -0.04233,0.19755 0.1905,0.11642 0.232833,0.0882 z m -0.0071,0.18344 q 0,-0.0212 0.0035,-0.0459 -0.0071,-0.0494 -0.0247,-0.0741 l -0.03528,0.007 q -0.02117,0 -0.07408,-0.0388 -0.05292,-0.0388 -0.07408,-0.0388 -0.0071,0 -0.01764,0.004 -0.0071,0.004 -0.01764,0.0106 0,0.0247 0.01764,0.15875 0.02117,0.13406 0.02469,0.13406 0.0071,0 0.0635,-0.06 0.05997,-0.0635 0.08467,-0.0706 0.01058,0 0.03175,0.007 0.0071,0 0.01764,0.007 z m 0.130528,-1.91205 q 0,0.0212 -0.05644,0.0212 -0.03881,0.0141 -0.07408,0.0282 -0.0071,-0.007 -0.0071,-0.0176 0,-0.0459 0.06703,-0.0459 0.07056,0 0.07056,0.0141 z"
         style="font-style:normal;font-variant:normal;font-weight:normal;font-stretch:normal;font-family:'Snowtop Caps';-inkscape-font-specification:'Snowtop Caps';stroke-width:0.26458332"
         id="path4895"
         inkscape:connector-curvature="0" />
      <path
         d="m 58.885278,145.30317 q 0,0.46567 -0.254,0.71967 -0.254,0.254 -0.719666,0.254 -0.694973,0 -1.17475,-0.45156 v -0.0494 l 0.328083,-0.43039 q 0.03881,0.0141 0.07761,0.0141 0.07056,0 0.112889,-0.0706 0.134056,0.0212 0.1905,0.0423 0.109361,0.0388 0.130528,0.11994 0.03528,0 0.130527,-0.0529 0.09525,-0.0529 0.119945,-0.0529 0.05292,0 0.165805,0.0988 0.05644,0.0494 0.09172,0.0494 0.04939,0 0.04939,-0.0353 0,-0.0776 -0.345723,-0.1517 -0.451555,-0.0952 -0.642055,-0.20108 -0.345722,-0.1905 -0.345722,-0.55739 0,-0.10936 0.04233,-0.28575 -0.0635,-0.11995 -0.0635,-0.22931 0,-0.15875 0.07408,-0.27869 0.08467,-0.13758 0.232834,-0.13758 0.04586,0 0.144639,-0.10231 0.09878,-0.10231 0.172861,-0.0917 0.09878,0.0141 0.127,0.0564 0.01411,0.0212 0.02469,0.0176 0.03881,-0.0247 0.119944,-0.0529 0.04586,-0.004 0.119945,0.0388 0.07408,0.0423 0.09525,0.0423 0.194028,-0.067 0.321028,-0.067 0.08114,0 0.261055,0.25047 0.137584,0.19403 0.246945,0.24694 -0.01411,0.11995 -0.141111,0.30339 -0.04586,0.0635 -0.134056,0.1905 -0.204611,-0.0212 -0.204611,-0.10936 -0.179917,-0.067 -0.250472,-0.0882 -0.148167,-0.0459 -0.236361,-0.0459 -0.239889,0 -0.239889,0.13406 0,0.14464 0.352777,0.22931 0.536223,0.127 0.663223,0.1905 0.356305,0.17638 0.356305,0.54327 z m -0.331611,-1.38994 q 0,-0.0423 -0.155222,-0.20461 -0.151695,-0.16581 -0.201083,-0.17639 -0.02822,-0.007 -0.127,0.0317 -0.109362,0.0423 -0.137584,0.0459 -0.05644,0 -0.264583,-0.0988 -0.01764,0 -0.05292,0.0318 -0.03528,0.0317 -0.05997,0.0388 -0.02822,0.004 -0.07055,-0.0459 -0.03881,-0.0529 -0.04586,-0.0565 -0.04233,0.0106 -0.06703,0.0176 -0.07056,0.0212 -0.116417,0.0494 -0.01411,0.007 -0.04233,0.0847 -0.01764,0.0529 -0.134056,0.0705 -0.254,0.0353 -0.254,0.29281 0,0.0988 0.0247,0.14111 0.01058,-0.0212 0.04586,-0.0212 l 0.134055,0.0212 q 0.07056,-0.0952 0.127,-0.10231 0.02822,0 0.116417,0.18345 0.08819,0.18344 0.137583,0.19755 0.02822,-0.0529 0.0635,-0.32808 0.03175,-0.23283 0.08114,-0.23283 0.04586,0.0459 0.08467,0.0776 0.09878,0.0811 0.144639,0.0811 0.01058,0 0.04586,-0.11642 0.03881,-0.11642 0.09525,-0.11642 0.144639,0 0.254,0.2152 0.06703,0.17286 0.137583,0.34572 0,-0.0706 -0.05292,-0.43039 0,-0.0635 0.03881,-0.0635 0.0635,0 0.130528,0.0494 0.05644,0.0494 0.112889,0.0952 0.01411,0 0.01058,-0.0317 -0.0035,-0.0282 -0.0035,-0.0459 z m -0.384528,1.72508 q 0,-0.0459 -0.06703,-0.0635 -0.102306,-0.0212 -0.112889,-0.0282 -0.01058,-0.007 -0.05997,-0.0776 -0.03175,-0.0459 -0.09525,-0.0459 -0.01411,0 -0.236361,0.10583 -0.05292,0 -0.09525,-0.0635 -0.03881,-0.067 -0.09172,-0.0741 l -0.155222,-0.0247 q -0.05644,0.0847 -0.05644,0.11289 l 0.239888,0.39159 q 0.02822,-0.0565 0.04586,-0.0811 0.05997,-0.0847 0.112888,-0.0847 0.07408,0 0.09878,0.0635 0,0.004 0.04233,0.13053 0.02469,0 0.05644,-0.0741 0.03175,-0.0776 0.05997,-0.0776 0.05644,0 0.134056,0.0847 0.07055,0.0988 0.144639,0.19403 -0.02117,-0.0635 -0.02117,-0.11642 0,-0.0635 0.01764,-0.13053 z m -0.836083,-1.76036 q -0.01058,0.0247 -0.05644,0.0282 -0.02822,0 -0.03528,-0.0353 -0.01058,-0.0212 0.0388,-0.0212 0.05997,0 0.05292,0.0282 z"
         style="font-style:normal;font-variant:normal;font-weight:normal;font-stretch:normal;font-family:'Snowtop Caps';-inkscape-font-specification:'Snowtop Caps';stroke-width:0.26458332"
         id="path4897"
         inkscape:connector-curvature="0" />
      <path
         d="m 60.98315,144.24837 v -0.2787 q 0,-0.40216 -0.313972,-0.40216 -0.01764,0 -0.04233,0.0106 -0.02469,0.0106 -0.04939,0.0212 -0.02469,0.0106 -0.04233,0.0212 -0.01764,0.0106 -0.01764,0.0106 -0.02117,-0.007 -0.09172,-0.0917 -0.06703,-0.0882 -0.105833,-0.0882 -0.02469,0 -0.05292,0.0141 -0.03175,0 -0.07408,-0.0141 -0.03528,0 -0.134056,0.0847 -0.09172,0.0811 -0.119944,0.0882 -0.02822,0.007 -0.05644,-0.0635 -0.02469,-0.0141 -0.05644,-0.0353 -0.02822,-0.0247 -0.06703,-0.0529 -0.05292,-0.0423 -0.08467,-0.0423 -0.05644,0 -0.144639,0.0741 -0.08819,0.0705 -0.151694,0.0705 -0.09878,0 -0.123472,-0.0529 -0.0071,-0.0176 -0.01411,-0.0282 -0.0071,-0.0141 -0.01058,-0.0212 -0.105833,0 -0.183444,0.0529 -0.08819,0.0564 -0.08819,0.16228 0.0071,0.0635 0.04233,0.0776 v 0.50447 H 59.6814 v 2.00731 h 0.638528 v -2.02847 h 0.391583 q 0.04586,0.0282 0.08467,0.11641 0.0071,0.0141 0.01764,0.0459 0.01411,0.0317 0.03175,0.0811 0.04586,-0.007 0.08114,-0.11994 0.03881,-0.11642 0.05645,-0.12347 z m -0.850195,-0.43745 v -0.0212 q -0.01764,-0.0282 -0.03528,0 -0.0071,0.0106 0.01411,0.0212 0.0035,0.004 0.01058,0.004 0.0071,0 0.01058,-0.004 z m 0.765528,0.0212 -0.04586,0.17639 q -0.02117,0.0847 -0.02117,0.11994 0.01058,0.06 0.04586,0.11995 l -0.03175,0.0776 q -0.02469,-0.0388 -0.04939,-0.0847 -0.02117,-0.0459 -0.04233,-0.0952 -0.0071,-0.0141 -0.02469,-0.06 -0.01764,-0.0494 -0.04586,-0.13053 -0.03175,-0.0847 -0.123473,-0.0847 -0.116416,0.0141 -0.176388,0.26458 -0.0247,0 -0.05292,-0.0353 -0.0247,-0.0388 -0.04586,-0.0388 -0.134056,0 -0.172861,0.2293 l -0.04233,0.2787 q -0.07055,-0.20462 -0.105833,-0.30692 -0.105833,-0.29986 -0.282222,-0.29986 -0.03528,0.004 -0.07761,0.0353 -0.03881,0.0282 -0.04939,0.0282 -0.183445,-0.19403 -0.254,-0.19403 -0.01411,0 -0.04233,0.0176 -0.04586,0.0353 -0.07055,0.0353 -0.02822,0 -0.09525,-0.0882 -0.0635,-0.0882 -0.0635,-0.12347 0,-0.11289 0.08819,-0.11289 0.03881,0 0.116417,0.0388 0.07761,0.0388 0.116417,0.0388 0.0071,0 0.02469,-0.007 0.02117,-0.0106 0.03881,-0.007 0.0635,0 0.134055,-0.06 0.07056,-0.06 0.119945,-0.06 0.02469,0 0.09878,0.0741 0.144639,0.14464 0.151695,0.14464 0.03881,0 0.148167,-0.0988 0.112888,-0.1023 0.186972,-0.0988 0.05997,0.007 0.155222,0.13053 0.03528,0.0529 0.08819,0.0459 0.0247,0 0.130528,-0.0353 0.04233,-0.0141 0.08467,-0.0141 0.186972,0 0.186972,0.17992 z m -0.557389,-0.0882 q 0.0035,-0.0247 -0.03528,-0.0564 -0.03881,-0.0353 -0.06703,-0.0353 l -0.01411,0.0141 q -0.0071,0.0106 0.0071,0.0212 0.01764,0.0106 0.03175,0.0212 0.04939,0.06 0.0635,0.0494 z m -0.264583,0.1023 -0.04233,0.007 q -0.02469,0.0141 -0.04939,0.0141 -0.01058,0 -0.01764,-0.007 -0.04586,-0.0564 -0.0635,-0.0564 l -0.02117,0.007 q 0.02117,0.10936 0.08467,0.10936 0.02822,0 0.06703,-0.0247 0.03881,-0.0247 0.04233,-0.0494 z"
         style="font-style:normal;font-variant:normal;font-weight:normal;font-stretch:normal;font-family:'Snowtop Caps';-inkscape-font-specification:'Snowtop Caps';stroke-width:0.26458332"
         id="path4899"
         inkscape:connector-curvature="0" />
      <path
         d="m 62.919018,146.23451 -0.04939,0.0423 h -1.68275 l -0.03528,-0.0353 v -1.54164 q 0,-0.58914 -0.105833,-1.06891 0.03528,-0.0318 0.109361,-0.0988 0.07761,-0.067 0.148166,-0.067 0.02822,0 0.144639,0.0564 0.116417,0.0529 0.15875,0.0529 0.03528,0 0.176389,-0.1023 0.0635,-0.0459 0.08819,-0.0423 0.1905,0.0353 0.264583,0.13759 0.218722,0 0.338667,-0.0388 0.08114,-0.0317 0.250472,-0.0917 0.04233,0 0.137583,0.06 0,0.59972 -0.04939,0.70908 l -0.627944,0.0141 q -0.07761,0.0776 -0.112889,0.0776 0,0 -0.03881,-0.0318 -0.03528,-0.0317 -0.08467,-0.0317 -0.109361,0 -0.109361,0.16933 0,0.0635 0.02469,0.24342 0.04586,-0.0847 0.169333,-0.0847 0.102306,0 0.134056,0.0353 0.01764,0.0212 0.03175,0.0212 0.09172,-0.0776 0.127,-0.0776 0.01058,0 0.03175,0.007 0.01058,0 0.02117,0.007 0.01411,0.17639 0.01411,0.41628 v 0.0988 q -0.0071,0.0353 -0.0071,0.0459 -0.01764,0.0212 -0.112889,0.0318 -0.01411,0 -0.04586,0.004 -0.0071,0.007 -0.03528,0.11642 -0.02469,0.10936 -0.05644,0.127 l -0.05292,-0.1517 q -0.02469,-0.0635 -0.04233,-0.0917 l -0.109361,0.007 q -0.05645,0.004 -0.08114,0.0282 l 0.02117,0.27869 q 0.03528,0 0.0635,-0.004 l 0.137583,-0.0176 q 0.141111,0 0.197555,0.0917 0.05292,-0.0212 0.116417,-0.0212 0.01764,0 0.232833,0.0459 0.09878,0.0212 0.134056,0.0212 0.0071,0.004 0.04233,0.0741 0.03528,0.067 0.07408,0.067 0.01764,0 0.02822,-0.004 0.0071,0.22578 0.02117,0.51506 z m -0.105834,-2.68111 q 0,-0.0106 -0.04233,-0.0318 -0.04233,-0.0212 -0.05292,-0.0176 -0.289278,0.14111 -0.532694,0.14111 -0.08819,0 -0.169333,-0.0529 -0.08114,-0.0529 -0.09172,-0.0529 -0.08819,0 -0.172861,0.0635 -0.08467,0.0635 -0.123472,0.0635 -0.05292,0 -0.141111,-0.0529 -0.08819,-0.0529 -0.155222,-0.0529 -0.134056,0 -0.172861,0.0494 -0.02117,0.0282 -0.02117,0.11994 0,0.11642 0.07761,0.37042 0.08114,0.254 0.08114,0.35631 -0.0035,-0.0247 -0.0071,-0.067 -0.01058,-0.10231 -0.01058,-0.1517 0,-0.21166 0.08819,-0.21166 0.0071,0 0.04586,0.0141 0.0388,0.0141 0.05997,0.0141 0.03881,0.004 0.07761,-0.10936 0.04233,-0.11289 0.09525,-0.11289 0.09172,0 0.119944,0.11994 0.01411,0.14112 0.02117,0.17639 0.05644,-0.23636 0.105833,-0.23636 0.05292,0 0.112889,0.11995 0.03881,0.0882 0.07408,0.17286 0.08114,-0.27164 0.162277,-0.27164 0.03528,0 0.08819,0.0353 0.05644,0.0353 0.05644,0.0353 0.01764,-0.0459 0.03528,-0.1023 0.03175,-0.10231 0.05644,-0.10231 0.116417,0 0.179917,0.067 0.09878,-0.10583 0.112889,-0.127 0.04233,-0.067 0.04233,-0.1658 z m -0.500944,1.08655 q -0.03175,0.06 -0.105833,0.06 -0.01764,0 -0.08114,-0.0317 -0.0635,-0.0353 -0.09878,-0.0282 -0.05645,0.0106 -0.09525,0.067 -0.03528,0.0529 -0.0247,0.10583 0.02117,0.0952 0.112889,0.11289 0.05645,0.15875 0.116417,0.3175 0.179917,-0.30339 0.179917,-0.55739 0,-0.0212 -0.0035,-0.0459 z m 0.508,1.17122 q 0,-0.06 -0.183445,-0.14816 -0.148166,-0.0706 -0.215194,-0.0811 l -0.01764,0.0176 q -0.03175,0.0247 -0.134056,0.0247 -0.02117,0 -0.112888,-0.0529 -0.08819,-0.0564 -0.15875,-0.0564 -0.03881,0 -0.07408,0.0706 -0.03175,0.067 -0.03175,0.11288 0,0.24342 0.08819,0.24342 0.08114,0 0.144639,-0.067 0.0635,-0.0705 0.05997,-0.0705 0.0035,0 0.102305,0.11994 0.102306,0.11642 0.134056,0.11642 0.05292,0 0.141111,-0.18345 0.07056,-0.0106 0.127,0.0882 0.03175,0.0705 0.0635,0.13758 -0.01058,-0.0282 -0.01058,-0.0564 0,-0.0494 0.02469,-0.10231 z"
         style="font-style:normal;font-variant:normal;font-weight:normal;font-stretch:normal;font-family:'Snowtop Caps';-inkscape-font-specification:'Snowtop Caps';stroke-width:0.26458332"
         id="path4901"
         inkscape:connector-curvature="0" />
      <path
         d="m 64.830467,146.27331 q -0.05644,0.0212 -0.289278,0.0212 h -0.215194 q -0.116417,0 -0.141111,0.007 -0.02117,0.0494 -0.102306,0.0494 -0.01411,0 -0.05997,-0.0317 -0.01058,-0.007 -0.04586,-0.0318 h -0.885472 l 0.0035,-2.59997 q 0.127,-0.16933 0.264584,-0.18344 0.07055,0 0.151694,0.0705 0.07056,0.0635 0.116417,0.0529 0.02117,-0.007 0.02822,-0.007 0.02822,0.007 0.07761,0.0706 0.03175,0.0459 0.0635,0.0917 v 1.70039 q 0.04939,-0.0388 0.102306,-0.0388 0.03528,0 0.07408,0.004 l 0.07761,0.007 q 0.03175,0 0.03881,-0.007 0.07408,0.0564 0.123472,0.0564 0.05292,0 0.246944,-0.11289 0.09878,-0.0564 0.179917,-0.0564 0.03528,0 0.07408,0.007 0.01058,0 0.02117,0.007 0.112889,0.24342 0.112889,0.64206 0,0.20108 -0.01764,0.28222 z m -1.104194,-2.4765 q -0.01058,-0.10583 -0.165806,-0.10583 -0.03528,0 -0.134055,-0.10583 -0.04233,-0.0459 -0.08819,-0.0388 -0.109361,0.0141 -0.176389,0.13406 -0.01411,0.0282 -0.01058,0.06 0.109361,0.2293 0.144639,0.35983 0.01411,0 0.0635,-0.0317 0.04939,-0.0318 0.07055,-0.0388 0.04939,-0.0141 0.04939,0.0282 0,0.14816 0.01058,0.20461 0.02117,0.11642 0.102305,0.1658 0.04233,-0.30691 0.134056,-0.63147 z m 0.963083,1.60867 q -0.08467,0 -0.257528,0.0882 -0.172861,0.0882 -0.211667,0.0882 -0.04233,0 -0.07408,-0.0247 l -0.05644,-0.0388 q -0.02117,0.0141 -0.03528,0.0141 -0.02117,0 -0.06703,-0.0212 -0.04586,-0.0212 -0.06703,-0.0212 -0.102305,0 -0.116416,0.127 l 0.01411,0.18344 q 0.09525,0.067 0.179916,0.27517 0.03175,0.0776 0.09172,0.23283 l 0.05292,-0.0564 q -0.01764,-0.0706 0.09525,-0.1905 0.112889,-0.12348 0.1905,-0.12348 0.04939,0 0.144639,0.10936 0.04586,0.0529 0.09525,0.0529 0.04586,0 0.07408,-0.17639 0.01764,-0.11641 0.01764,-0.21166 0,-0.21873 -0.07055,-0.30692 z m -1.280583,-1.80622 q -0.0035,0.0141 -0.08114,0.0318 -0.03881,0.004 -0.07408,0.004 0.0071,-0.0564 0.09172,-0.0564 h 0.04233 q 0.02822,0.004 0.02117,0.0212 z m 1.259416,2.18722 q 0,-0.0176 -0.07055,-0.067 -0.06703,-0.0529 -0.07056,-0.0635 0,-0.0212 0.02117,-0.0423 0.02117,-0.0247 0.04233,-0.0247 0.04586,0 0.0635,0.0811 0.0071,0.0564 0.01411,0.11642 z m -0.483305,0.17992 q -0.04939,0 -0.186973,-0.1517 l 0.01411,-0.0353 q 0.09172,0.0776 0.09878,0.0847 0.07056,0.067 0.07408,0.10231 z"
         style="font-style:normal;font-variant:normal;font-weight:normal;font-stretch:normal;font-family:'Snowtop Caps';-inkscape-font-specification:'Snowtop Caps';stroke-width:0.26458332"
         id="path4903"
         inkscape:connector-curvature="0" />
      <path
         d="m 66.766775,146.27684 h -0.620889 l -0.119944,-0.43744 h -0.395111 l -0.127,0.43744 h -0.560917 q 0,-0.0529 0.130528,-0.63853 0.0635,-0.28928 0.254,-1.10066 l 0.155222,-0.66675 q -0.05644,-0.0494 -0.05644,-0.127 0,-0.21167 0.162277,-0.21167 0.05997,0 0.07761,0.007 0.02469,0.0176 0.05292,0.0282 0.01764,0.007 0.03881,-0.0317 0.02469,-0.0423 0.05997,-0.0423 0.03881,0 0.05644,-0.0353 0.01764,-0.0353 0.02117,-0.0353 0.03175,0.007 0.155222,0.0106 0.09878,0.004 0.137584,0.0318 0.04233,0.0247 0.04233,0.0811 l -0.0071,0.0494 q 0,0.0388 0.06703,0.13405 0.03528,0.0529 0.03528,0.0882 -0.0071,0.23283 -0.02117,0.40922 0.02822,0.11995 0.116417,0.49742 0.105833,0.4445 0.218722,0.95603 0.119945,0.54327 0.127,0.59619 z m -0.483305,-2.33539 q 0,-0.16228 -0.05292,-0.21519 -0.02822,-0.0282 -0.02822,-0.0388 l 0.0071,-0.0494 q 0,-0.0494 -0.0388,-0.1023 -0.03528,-0.0565 -0.08114,-0.0565 -0.02822,0.0212 -0.04939,0.0247 -0.0071,0 -0.05292,-0.0247 -0.04586,-0.0247 -0.0635,-0.0212 -0.02117,0.004 -0.0388,0.06 -0.01764,0.0564 -0.03175,0.0564 l -0.03528,-0.007 q -0.01411,0 -0.02822,0.0176 -0.03175,0.0459 -0.04939,0.0459 -0.02822,0 -0.102306,-0.0353 -0.04233,-0.0212 -0.05644,-0.0212 -0.09172,0 -0.09172,0.0988 0,0.0388 0.01764,0.0776 0.06703,0.14464 0.06703,0.2787 0,0.0212 0,0.067 -0.0035,0.0423 -0.0035,0.0635 0,0.0529 0.01764,0.0529 0.04233,0 0.04233,-0.14111 0,-0.10583 0,-0.10936 0.01058,-0.0706 0.05997,-0.0706 0.02117,0 0.06703,0.13759 0.04586,0.13405 0.05997,0.14111 0,-0.24342 0.03528,-0.24342 0.01058,0 0.04586,0.17992 0.0388,0.17639 0.09172,0.17639 0.01411,-0.0141 0.03528,-0.0882 0.0071,-0.0247 0.02822,-0.0882 0,-0.0176 -0.01764,-0.0494 -0.01764,-0.0318 -0.01764,-0.0459 0,-0.0529 0.02117,-0.0494 0.0035,0 0.02469,0.0388 0.02117,0.0388 0.0247,0.0459 0.02117,0.0247 0.07055,0.23284 0.04939,0.20461 0.05644,0.20461 0.02117,-0.13406 0.03175,-0.20814 0.03528,-0.24694 0.03528,-0.33514 z m -0.338667,1.36878 -0.08467,-0.64911 q -0.02822,0.0388 -0.105833,0.36336 -0.03881,0.16228 -0.04233,0.19755 0.1905,0.11642 0.232833,0.0882 z m -0.0071,0.18344 q 0,-0.0212 0.0035,-0.0459 -0.0071,-0.0494 -0.02469,-0.0741 l -0.03528,0.007 q -0.02117,0 -0.07408,-0.0388 -0.05292,-0.0388 -0.07408,-0.0388 -0.0071,0 -0.01764,0.004 -0.0071,0.004 -0.01764,0.0106 0,0.0247 0.01764,0.15875 0.02117,0.13406 0.02469,0.13406 0.0071,0 0.0635,-0.06 0.05997,-0.0635 0.08467,-0.0706 0.01058,0 0.03175,0.007 0.0071,0 0.01764,0.007 z m 0.130528,-1.91205 q 0,0.0212 -0.05644,0.0212 -0.03881,0.0141 -0.07408,0.0282 -0.0071,-0.007 -0.0071,-0.0176 0,-0.0459 0.06703,-0.0459 0.07055,0 0.07055,0.0141 z"
         style="font-style:normal;font-variant:normal;font-weight:normal;font-stretch:normal;font-family:'Snowtop Caps';-inkscape-font-specification:'Snowtop Caps';stroke-width:0.26458332"
         id="path4905"
         inkscape:connector-curvature="0" />
      <path
         d="m 68.608991,146.26978 h -0.687916 l -0.405695,-1.03363 v 1.04069 h -0.638528 l 0.0035,-2.36361 q 0,-0.47625 0.15875,-0.47625 0.03528,0 0.08114,0.0494 0.04939,0.0459 0.07761,0.0459 -0.0035,0 0.05997,-0.0529 0.0635,-0.0529 0.134056,-0.0564 0.05644,0 0.105833,0.0564 0.0071,0.0317 0.09172,0.10936 0.08819,0.0741 0.09525,0.0952 0.0071,0.0741 0.02469,0.22225 0.02822,0.19756 0.09525,0.29281 0.04586,-0.0565 0.119944,-0.0565 0.04939,0 0.06703,0.0282 l 0.02822,-0.0353 q 0,-0.0353 0,-0.10231 -0.0035,-0.067 -0.0035,-0.1023 0,-0.46567 0.225778,-0.46567 0.08114,0 0.123472,0.0529 0.04233,0.0529 0.08114,0.10583 l 0.09172,-0.0212 q 0.07055,0 0.07055,0.0212 z m -0.07761,-2.59644 q -0.01764,0.0106 -0.02469,0.0141 -0.02822,0.0141 -0.04586,0.0141 -0.0388,0 -0.112888,-0.0917 -0.07408,-0.0917 -0.127,-0.0776 -0.04939,0.007 -0.09172,0.0917 -0.02469,0.067 -0.05292,0.13406 0.09525,0.11994 0.194027,0.23989 0.09172,0.13405 0.148167,0.28575 0,-0.10584 0.0635,-0.28928 0.0635,-0.18697 0.0635,-0.25047 0,-0.0423 -0.01411,-0.0706 z m -0.860778,0.254 q 0,-0.10936 -0.05997,-0.254 -0.04233,0 -0.123472,-0.0952 -0.07761,-0.0988 -0.102306,-0.0988 -0.02469,0 -0.102305,0.067 -0.07761,0.0635 -0.08114,0.0635 -0.01411,0 -0.08467,-0.0529 -0.07055,-0.0529 -0.09525,-0.0529 -0.04233,0 -0.06703,0.0882 -0.01764,0.067 -0.01764,0.12347 0,0.11289 0.08467,0.43392 0.03881,-0.0353 0.116417,-0.20108 0.02822,0.007 0.155222,0.18697 0.01411,-0.0141 0.03528,-0.0988 0.04233,-0.16933 0.09172,-0.19755 0.176389,0.10936 0.176389,0.26105 l 0.03175,-0.007 q 0.04233,-0.0811 0.04233,-0.16581 z m 0.405695,0.75847 v -0.0529 q 0,0.0141 0.0035,-0.0741 0.0035,-0.13053 -0.06703,-0.25753 -0.05645,-0.0917 -0.123472,-0.1023 -0.02469,0.0247 -0.02822,0.0353 -0.0071,0.0141 0.01058,0.0388 0.01764,0.0247 0.01764,0.0318 -0.05292,0.127 -0.04939,0.17286 l 0.01411,0.29986 h 0.02117 q -0.01411,-0.0953 0.144639,-0.0953 h 0.03881 q 0.0071,0 0.01764,0.004 z m -0.811389,-0.99836 q -0.01411,0.0247 -0.0247,0.0317 -0.02469,0.0212 -0.04586,0.0212 -0.01058,0 -0.02117,-0.004 -0.0035,-0.0635 0.09172,-0.0635 z"
         style="font-style:normal;font-variant:normal;font-weight:normal;font-stretch:normal;font-family:'Snowtop Caps';-inkscape-font-specification:'Snowtop Caps';stroke-width:0.26458332"
         id="path4907"
         inkscape:connector-curvature="0" />
      <path
         d="m 70.426018,146.17453 q -0.127,0.10231 -0.363361,0.10231 h -1.248834 v -2.13431 q 0,-0.007 -0.01411,-0.0141 -0.01411,-0.0106 -0.01411,-0.0282 0,-0.0847 -0.0388,-0.23636 -0.03881,-0.15522 -0.03881,-0.21872 0,-0.0882 0.0635,-0.1517 0.0635,-0.0635 0.151695,-0.0635 0.04233,0 0.155222,0.0847 0.116416,0.0811 0.134055,0.0811 0.05644,0 0.08467,-0.0706 0.03175,-0.007 0.141111,0.0141 0.123472,0.0282 0.151695,0.0282 0.05644,0 0.119944,-0.0706 0.06703,-0.0741 0.123472,-0.0741 0.08467,0 0.151695,0.0635 0.06703,0.0811 0.134055,0.15875 0.01058,0.004 0.05997,-0.007 0.04939,-0.0141 0.05997,-0.0141 0.07761,0 0.179916,0.1905 0.08467,0.15875 0.09172,0.21872 0.04939,0.0776 0.04939,1.16064 0,0.24695 0,0.42686 -0.0035,0.29986 -0.0035,0.29986 -0.02117,0.16934 -0.130528,0.254 z m -0.05997,-2.22602 q 0.0035,-0.0882 -0.02822,-0.16581 -0.03528,-0.1023 -0.112888,-0.1023 -0.0247,-0.004 -0.05644,0.0141 -0.02822,0.0141 -0.03528,0.0141 -0.06703,0 -0.137583,-0.10584 -0.06703,-0.10583 -0.1905,-0.12347 -0.02822,0 -0.09525,0.0847 -0.0635,0.0811 -0.119944,0.0811 -0.04233,0 -0.144639,-0.0212 -0.102306,-0.0212 -0.148167,-0.0212 -0.03175,0.0917 -0.09172,0.0917 -0.02117,0 -0.141111,-0.0917 -0.119945,-0.0917 -0.169334,-0.0917 -0.04233,0 -0.0635,0.0565 -0.01764,0.0529 -0.01764,0.0988 l 0.0071,0.18698 q 0.0635,0.0494 0.0635,0.22225 v 0.06 q 0,0.007 -0.0035,0.0247 0.01058,-0.10583 0.09172,-0.10583 0.05644,0 0.08114,0.004 0.01058,0 0.02469,0.004 0,-0.0459 0.07761,-0.12348 0.08114,-0.0776 0.127,-0.0776 0.01764,0 0.134055,0.0952 0.0035,0 0.05292,-0.0459 0.04939,-0.0459 0.08467,-0.0459 0.01058,0 0.130528,0.0917 0.0635,0.0494 0.105833,0.0494 0.03175,0 0.05644,-0.0847 0.0247,-0.0882 0.04939,-0.0882 0.03175,0 0.07056,0.0529 0.03881,0.0494 0.04233,0.0494 0.01764,0.004 0.08114,-0.0388 0.03881,-0.0247 0.04939,-0.0247 0.04586,0 0.105833,0.0917 0.05645,0.10936 0.112889,0.21519 z m -0.504473,1.61219 -0.02822,-1.29117 q -0.02117,-0.11288 -0.186972,-0.11288 -0.04939,0 -0.141111,0.0212 l 0.01411,1.41817 0.1905,-0.0106 q 0.112889,-0.004 0.151694,-0.0247 z m 0.05997,0.29281 q 0,-0.0353 -0.05645,-0.0741 -0.06703,-0.0459 -0.07408,-0.06 -0.130528,-0.0388 -0.172861,-0.0388 -0.02117,0 -0.02822,0.007 0.0071,0.0459 -0.03881,0.10936 -0.02469,0.0318 -0.02469,0.06 0,0.0317 0.0388,0.0988 0.04233,0.0635 0.07056,0.0635 0.02469,0 0.06703,-0.16228 0.02822,0 0.09878,0.0776 0.07408,0.0741 0.102306,0.0847 -0.0071,-0.0282 -0.0071,-0.0353 0,-0.0212 0.01058,-0.0635 0.01411,-0.0459 0.01411,-0.067 z"
         style="font-style:normal;font-variant:normal;font-weight:normal;font-stretch:normal;font-family:'Snowtop Caps';-inkscape-font-specification:'Snowtop Caps';stroke-width:0.26458332"
         id="path4909"
         inkscape:connector-curvature="0" />
    </g>
    <g
       style="font-style:normal;font-weight:normal;font-size:3.52777767px;line-height:1.25;font-family:sans-serif;letter-spacing:0px;word-spacing:0px;fill:#000000;fill-opacity:1;stroke:none;stroke-width:0.26458332"
       id="text5097" />
    <g
       transform="matrix(0.26458333,0,0,0.26458333,34.617145,50.389004)"
       style="font-style:normal;font-variant:normal;font-weight:bold;font-stretch:normal;font-size:13.33333302px;line-height:1.25;font-family:Consolas;-inkscape-font-specification:'Consolas Bold';text-align:center;letter-spacing:0px;word-spacing:0px;text-anchor:middle;fill:#000000;fill-opacity:1;stroke:none"
       id="flowRoot1527" />
    <g
       style="font-style:normal;font-variant:normal;font-weight:bold;font-stretch:normal;font-size:13.33333302px;line-height:1.25;font-family:Consolas;-inkscape-font-specification:'Consolas Bold';text-align:center;letter-spacing:0px;word-spacing:0px;text-anchor:middle;fill:#000000;fill-opacity:1;stroke:none"
       id="flowRoot2489" />
    <g
       style="font-style:normal;font-variant:normal;font-weight:bold;font-stretch:normal;font-size:13.33333302px;line-height:1.25;font-family:Consolas;-inkscape-font-specification:'Consolas Bold';text-align:center;letter-spacing:0px;word-spacing:0px;text-anchor:middle;fill:#000000;fill-opacity:1;stroke:none"
       id="flowRoot2497" />
    <g
       style="font-style:normal;font-variant:normal;font-weight:bold;font-stretch:normal;font-size:13.33333302px;line-height:1.25;font-family:Consolas;-inkscape-font-specification:'Consolas Bold';text-align:center;letter-spacing:0px;word-spacing:0px;text-anchor:middle;fill:#000000;fill-opacity:1;stroke:none"
       id="flowRoot2505" />
    <g
       aria-label="SABONIS"
       style="font-style:normal;font-variant:normal;font-weight:bold;font-stretch:normal;font-size:3.52777767px;line-height:1.25;font-family:Consolas;-inkscape-font-specification:'Consolas Bold';text-align:center;letter-spacing:0px;word-spacing:0px;text-anchor:middle;fill:#000000;fill-opacity:1;stroke:none;stroke-width:0.26458332"
       id="text4597">
      <path
         d="m 48.793216,53.913254 q 0,0.465667 -0.254,0.719667 -0.254,0.254 -0.719666,0.254 -0.694973,0 -1.17475,-0.451556 v -0.04939 l 0.328083,-0.430388 q 0.03881,0.01411 0.07761,0.01411 0.07056,0 0.112889,-0.07056 0.134055,0.02117 0.1905,0.04233 0.109361,0.03881 0.130528,0.119944 0.03528,0 0.130527,-0.05292 0.09525,-0.05292 0.119945,-0.05292 0.05292,0 0.165805,0.09878 0.05644,0.04939 0.09172,0.04939 0.04939,0 0.04939,-0.03528 0,-0.07761 -0.345723,-0.151695 -0.451555,-0.09525 -0.642055,-0.201083 -0.345722,-0.1905 -0.345722,-0.557389 0,-0.109361 0.04233,-0.28575 -0.0635,-0.119945 -0.0635,-0.229306 0,-0.15875 0.07408,-0.278694 0.08467,-0.137583 0.232834,-0.137583 0.04586,0 0.144639,-0.102306 0.09878,-0.102306 0.172861,-0.09172 0.09878,0.01411 0.127,0.05644 0.01411,0.02117 0.02469,0.01764 0.03881,-0.02469 0.119944,-0.05292 0.04586,-0.0035 0.119945,0.03881 0.07408,0.04233 0.09525,0.04233 0.194028,-0.06703 0.321028,-0.06703 0.08114,0 0.261055,0.250472 0.137584,0.194028 0.246945,0.246944 -0.01411,0.119945 -0.141111,0.303389 -0.04586,0.0635 -0.134056,0.1905 -0.204611,-0.02117 -0.204611,-0.109361 -0.179917,-0.06703 -0.250472,-0.08819 -0.148167,-0.04586 -0.236361,-0.04586 -0.239889,0 -0.239889,0.134056 0,0.144639 0.352777,0.229306 0.536223,0.127 0.663223,0.1905 0.356305,0.176388 0.356305,0.543277 z M 48.461605,52.52331 q 0,-0.04233 -0.155222,-0.204611 -0.151695,-0.165806 -0.201083,-0.176389 -0.02822,-0.0071 -0.127,0.03175 -0.109362,0.04233 -0.137584,0.04586 -0.05644,0 -0.264583,-0.09878 -0.01764,0 -0.05292,0.03175 -0.03528,0.03175 -0.05997,0.03881 -0.02822,0.0035 -0.07056,-0.04586 -0.0388,-0.05292 -0.04586,-0.05644 -0.04233,0.01058 -0.06703,0.01764 -0.07056,0.02117 -0.116417,0.04939 -0.01411,0.0071 -0.04233,0.08467 -0.01764,0.05292 -0.134056,0.07055 -0.254,0.03528 -0.254,0.292806 0,0.09878 0.0247,0.141111 0.01058,-0.02117 0.04586,-0.02117 l 0.134055,0.02117 q 0.07056,-0.09525 0.127,-0.102306 0.02822,0 0.116417,0.183445 0.08819,0.183444 0.137583,0.197555 0.02822,-0.05292 0.0635,-0.328083 0.03175,-0.232833 0.08114,-0.232833 0.04586,0.04586 0.08467,0.07761 0.09878,0.08114 0.144639,0.08114 0.01058,0 0.04586,-0.116417 0.03881,-0.116417 0.09525,-0.116417 0.144639,0 0.254,0.215195 0.06703,0.172861 0.137583,0.345722 0,-0.07056 -0.05292,-0.430389 0,-0.0635 0.03881,-0.0635 0.0635,0 0.130528,0.04939 0.05644,0.04939 0.112889,0.09525 0.01411,0 0.01058,-0.03175 -0.0035,-0.02822 -0.0035,-0.04586 z m -0.384528,1.725083 q 0,-0.04586 -0.06703,-0.0635 -0.102306,-0.02117 -0.112889,-0.02822 -0.01058,-0.0071 -0.05997,-0.07761 -0.03175,-0.04586 -0.09525,-0.04586 -0.01411,0 -0.236361,0.105833 -0.05292,0 -0.09525,-0.0635 -0.03881,-0.06703 -0.09172,-0.07408 l -0.155222,-0.0247 q -0.05644,0.08467 -0.05644,0.112889 l 0.239888,0.391583 q 0.02822,-0.05644 0.04586,-0.08114 0.05997,-0.08467 0.112889,-0.08467 0.07408,0 0.09878,0.0635 0,0.0035 0.04233,0.130528 0.0247,0 0.05645,-0.07408 0.03175,-0.07761 0.05997,-0.07761 0.05644,0 0.134056,0.08467 0.07056,0.09878 0.144639,0.194028 -0.02117,-0.0635 -0.02117,-0.116417 0,-0.0635 0.01764,-0.130528 z m -0.836083,-1.760361 q -0.01058,0.0247 -0.05644,0.02822 -0.02822,0 -0.03528,-0.03528 -0.01058,-0.02117 0.0388,-0.02117 0.05997,0 0.05292,0.02822 z"
         style="font-style:normal;font-variant:normal;font-weight:bold;font-stretch:normal;font-family:'Snowtop Caps';-inkscape-font-specification:'Snowtop Caps Bold';stroke-width:0.26458332"
         id="path2411" />
      <path
         d="m 50.714697,54.886921 h -0.620888 l -0.119945,-0.437445 h -0.395111 l -0.127,0.437445 h -0.560917 q 0,-0.05292 0.130528,-0.638528 0.0635,-0.289278 0.254,-1.100666 l 0.155222,-0.66675 q -0.05644,-0.04939 -0.05644,-0.127 0,-0.211667 0.162278,-0.211667 0.05997,0 0.07761,0.0071 0.02469,0.01764 0.05292,0.02822 0.01764,0.0071 0.03881,-0.03175 0.02469,-0.04233 0.05997,-0.04233 0.03881,0 0.05644,-0.03528 0.01764,-0.03528 0.02117,-0.03528 0.03175,0.0071 0.155223,0.01058 0.09878,0.0035 0.137583,0.03175 0.04233,0.0247 0.04233,0.08114 l -0.0071,0.04939 q 0,0.03881 0.06703,0.134055 0.03528,0.05292 0.03528,0.08819 -0.0071,0.232833 -0.02117,0.409222 0.02822,0.119945 0.116416,0.497417 0.105834,0.4445 0.218722,0.956028 0.119945,0.543277 0.127,0.596194 z m -0.483305,-2.335389 q 0,-0.162278 -0.05292,-0.215194 -0.02822,-0.02822 -0.02822,-0.03881 l 0.0071,-0.04939 q 0,-0.04939 -0.03881,-0.102305 -0.03528,-0.05644 -0.08114,-0.05644 -0.02822,0.02117 -0.04939,0.0247 -0.0071,0 -0.05292,-0.0247 -0.04586,-0.02469 -0.0635,-0.02117 -0.02117,0.0035 -0.03881,0.05997 -0.01764,0.05644 -0.03175,0.05644 l -0.03528,-0.0071 q -0.01411,0 -0.02822,0.01764 -0.03175,0.04586 -0.04939,0.04586 -0.02822,0 -0.102305,-0.03528 -0.04233,-0.02117 -0.05644,-0.02117 -0.09172,0 -0.09172,0.09878 0,0.03881 0.01764,0.07761 0.06703,0.144639 0.06703,0.278695 0,0.02117 0,0.06703 -0.0035,0.04233 -0.0035,0.0635 0,0.05292 0.01764,0.05292 0.04233,0 0.04233,-0.141111 0,-0.105833 0,-0.109361 0.01058,-0.07056 0.05997,-0.07056 0.02117,0 0.06703,0.137584 0.04586,0.134055 0.05997,0.141111 0,-0.243417 0.03528,-0.243417 0.01058,0 0.04586,0.179917 0.03881,0.176389 0.09172,0.176389 0.01411,-0.01411 0.03528,-0.08819 0.0071,-0.02469 0.02822,-0.08819 0,-0.01764 -0.01764,-0.04939 -0.01764,-0.03175 -0.01764,-0.04586 0,-0.05292 0.02117,-0.04939 0.0035,0 0.0247,0.0388 0.02117,0.03881 0.02469,0.04586 0.02117,0.0247 0.07056,0.232834 0.04939,0.204611 0.05644,0.204611 0.02117,-0.134056 0.03175,-0.208139 0.03528,-0.246944 0.03528,-0.335139 z m -0.338667,1.368778 -0.08467,-0.649111 q -0.02822,0.0388 -0.105834,0.363361 -0.0388,0.162278 -0.04233,0.197555 0.1905,0.116417 0.232833,0.08819 z m -0.0071,0.183444 q 0,-0.02117 0.0035,-0.04586 -0.0071,-0.04939 -0.02469,-0.07408 l -0.03528,0.0071 q -0.02117,0 -0.07408,-0.0388 -0.05292,-0.03881 -0.07408,-0.03881 -0.0071,0 -0.01764,0.0035 -0.0071,0.0035 -0.01764,0.01058 0,0.0247 0.01764,0.15875 0.02117,0.134056 0.02469,0.134056 0.0071,0 0.0635,-0.05997 0.05997,-0.0635 0.08467,-0.07056 0.01058,0 0.03175,0.0071 0.0071,0 0.01764,0.0071 z m 0.130527,-1.912055 q 0,0.02117 -0.05644,0.02117 -0.03881,0.01411 -0.07408,0.02822 -0.0071,-0.0071 -0.0071,-0.01764 0,-0.04586 0.06703,-0.04586 0.07055,0 0.07055,0.01411 z"
         style="font-style:normal;font-variant:normal;font-weight:bold;font-stretch:normal;font-family:'Snowtop Caps';-inkscape-font-specification:'Snowtop Caps Bold';stroke-width:0.26458332"
         id="path2413" />
      <path
         d="m 52.539275,54.46006 q 0,0.1905 -0.09878,0.303389 -0.105833,0.123472 -0.292805,0.123472 h -1.210028 l -0.08467,-0.03175 -0.0035,-1.816806 q -0.0635,-0.430388 -0.0635,-0.529166 0,-0.310445 0.127,-0.310445 0.05292,0 0.09172,0.02117 0.03881,0.02117 0.04586,0.02117 0.116416,-0.208139 0.1905,-0.208139 0.229305,0.165805 0.433916,0.165805 0.292806,0 0.515056,0.151695 0.324556,0.22225 0.324556,0.694972 0,0.268111 -0.112889,0.402167 -0.03528,0.04233 -0.112889,0.08114 0.250472,0.105833 0.250472,0.47625 z m -0.169333,-1.763889 q 0.0035,-0.08819 -0.169334,-0.225778 -0.123472,-0.08467 -0.246944,-0.169333 -0.03881,-0.0247 -0.239889,-0.05292 -0.176389,-0.02117 -0.261056,-0.02117 -0.0071,0 -0.01764,0.02822 -0.01058,0.02469 -0.02469,0.02117 -0.03881,-0.05644 -0.07761,-0.109361 -0.05644,-0.07761 -0.08467,-0.07761 -0.08819,0.0035 -0.123472,0.130528 -0.03528,0.127 -0.03881,0.127 -0.03528,0 -0.102306,-0.05292 -0.06703,-0.05292 -0.119944,-0.05292 -0.01764,0 -0.03528,0.102305 -0.01411,0.08819 -0.01411,0.130528 0,0.04586 0.01411,0.155222 0.03528,0.271639 0.03528,0.292806 l 0.03528,0.07408 q 0.123473,-0.225778 0.165806,-0.402167 0.01764,-0.07055 0.07761,-0.07055 0.02117,0 0.05997,0.105833 0.03881,0.102306 0.05292,0.102306 0.04233,0 0.162278,-0.208139 0,0 0.04233,0.05292 0.04586,0.05292 0.06703,0.05292 l 0.102305,-0.09525 q 0.04939,-0.04586 0.08819,-0.04586 0.02117,0 0.0635,0.0247 0.04233,0.02469 0.06703,0.02469 l 0.03528,-0.01411 q 0.01411,0.0035 0.05997,0.102305 0.04939,0.09878 0.102305,0.09878 0.102306,0 0.102306,-0.123472 -0.02117,-0.04939 -0.02822,-0.06703 0.0035,-0.0071 0.0071,-0.01764 0.07761,0 0.137583,0.09525 0.04586,0.116417 0.09525,0.229306 l 0.0071,-0.08467 z m -0.529167,0.47625 -0.02117,-0.257528 q -0.02822,-0.07055 -0.141111,-0.07055 -0.06703,0 -0.144639,0.03528 l -0.0071,0.236362 q -0.0035,0.119944 0.08467,0.119944 0.03175,0 0.07408,-0.03528 0.04233,-0.03528 0.09525,-0.03528 0.01058,0 0.05997,0.0071 z m -0.02117,0.194028 q 0,-0.05997 -0.05997,-0.116417 -0.01058,0.05292 -0.07055,0.06703 -0.01764,0 -0.07056,-0.02117 -0.05292,-0.02469 -0.0635,-0.02469 v 0.0388 q -0.0035,0.02822 -0.0035,0.05292 0,0.15875 0.04586,0.15875 0.02117,0 0.04586,-0.04233 0.0247,-0.04233 0.04586,-0.04233 0.02117,0 0.04586,0.04939 0.02469,0.04939 0.04586,0.04233 0.02469,-0.0071 0.03528,-0.112889 0,-0.01764 0.0035,-0.04939 z m 0.05644,0.737305 q 0,-0.155222 -0.04939,-0.28575 -0.05997,-0.02117 -0.15875,-0.02117 -0.08467,0 -0.119945,0.03528 l 0.0071,0.373945 q 0.04233,-0.05292 0.07761,-0.05292 0.0071,0 0.08819,0.06703 0.08467,0.06703 0.119944,0.0635 0.03528,-0.08819 0.03528,-0.179917 z m 0.01411,0.356306 q 0,-0.04233 -0.127,-0.102306 -0.123472,-0.0635 -0.137583,-0.123472 -0.02117,0.02822 -0.04586,0.141111 -0.02469,0.112889 -0.02469,0.162278 0.03175,0.04233 0.05644,0.04939 0.03175,0.01058 0.105834,-0.07408 0.07408,-0.08467 0.102305,-0.08467 0.02117,-0.0035 0.0635,0.09525 z"
         style="font-style:normal;font-variant:normal;font-weight:bold;font-stretch:normal;font-family:'Snowtop Caps';-inkscape-font-specification:'Snowtop Caps Bold';stroke-width:0.26458332"
         id="path2415" />
      <path
         d="m 54.431046,52.996032 q 0.03881,0.363361 0.03881,0.687917 0,0.754944 -0.268112,1.016 -0.1905,0.186972 -0.642055,0.186972 -0.867833,0 -0.867833,-1.0795 0,-0.366889 0.01411,-0.462139 0,-0.363361 0.09172,-0.557389 0,-0.03175 -0.03175,-0.137583 -0.03175,-0.105833 -0.03175,-0.148167 0,-0.08114 0.08819,-0.172861 0.08819,-0.09525 0.169334,-0.09525 0.03528,0.01411 0.05644,0.01411 0.07761,-0.07761 0.179917,-0.07761 0.05644,0 0.08467,0.04233 0.02822,0.04233 0.03175,0.04233 0.03528,0.0035 0.116417,-0.06703 0.08114,-0.07056 0.09878,-0.06703 0.01764,0.0035 0.05644,0.0247 0.03881,0.01764 0.04233,0.01764 0.03175,0 0.127,-0.0635 0.09878,-0.0635 0.123472,-0.06703 0.08819,0 0.186972,0.05644 0.09878,0.05644 0.119945,0.137584 0.0071,0.0035 0.116416,0.409222 0.07761,0.296333 0.09878,0.359833 z m -0.105833,-0.179917 q -0.0071,-0.03175 -0.04586,-0.155222 -0.02117,-0.06703 -0.01411,-0.08819 -0.05292,-0.02822 -0.07761,-0.165806 -0.02822,-0.172861 -0.03175,-0.183444 -0.01764,-0.03881 -0.127,-0.08819 -0.109361,-0.05292 -0.155222,-0.05292 -0.04586,0.05292 -0.09172,0.105833 -0.07056,0.08114 -0.09525,0.08114 -0.0035,0 -0.03528,-0.04233 -0.03175,-0.04233 -0.07761,-0.04233 -0.02469,0 -0.112889,0.08114 -0.08467,0.07761 -0.116417,0.08114 -0.04586,-0.08467 -0.119944,-0.08467 -0.02469,0 -0.112889,0.03175 -0.08467,0.03175 -0.119944,0.03175 l -0.04233,-0.01411 q -0.03528,0.01058 -0.102305,0.07761 -0.0635,0.06703 -0.0635,0.09878 -0.01058,0.04939 0.03175,0.151695 0.04233,0.102305 0.09172,0.112888 0.01411,0.0035 0.08114,-0.04233 0.06703,-0.04939 0.08819,-0.05292 0.04586,0 0.07408,0.03881 0.0388,-0.01058 0.102305,-0.102306 0.06703,-0.09172 0.105834,-0.09172 0.04233,0 0.127,0.0635 0.08467,0.0635 0.116416,0.0635 0.03881,0 0.05644,-0.08819 0.01764,-0.09172 0.05644,-0.09172 0.102306,0 0.194028,0.155222 0.03528,0.05997 0.105833,0.183444 0.03528,-0.15875 0.09525,-0.15875 0.04586,0 0.197556,0.673806 l -0.01411,-0.409222 q 0.03175,-0.02822 0.03175,-0.07761 z m -0.585611,1.527528 v -1.527528 q 0,-0.08467 -0.04586,-0.08467 -0.0071,0 -0.0388,0.04586 -0.03175,0.04586 -0.05645,0.04586 -0.01764,0.0035 -0.02822,-0.04939 -0.01058,-0.05644 -0.02469,-0.0635 -0.03175,-0.01058 -0.05997,0.03175 -0.0247,0.03881 -0.0247,0.07408 v 1.382889 q 0.02117,-0.02117 0.0635,-0.02822 0.0247,0 0.215195,0.172861 z m -0.03881,0.165806 q 0.0071,-0.144639 -0.176389,-0.246945 -0.02469,0.0071 -0.04586,0.102306 -0.01764,0.07761 -0.01764,0.119944 0,0.04939 0.01411,0.08114 0.01058,-0.0035 0.0247,-0.0035 0.05292,0 0.105833,0.07761 0.02117,0.03175 0.05292,0.102306 0.01764,-0.07761 0.04233,-0.232833 z m 0.257528,-2.176639 -0.01058,0.04586 q -0.02117,0.04233 -0.05997,0.04233 l -0.01411,-0.0071 q -0.01764,-0.0035 -0.03881,-0.0247 l -0.03175,-0.07761 h 0.01411 q 0.01411,0.0247 0.0635,0.05645 z m -0.860778,0.183444 q -0.01058,0.0071 -0.02469,0.0071 -0.01764,0 -0.03528,-0.01764 l -0.03881,-0.03175 0.0071,-0.02469 q 0.02469,0 0.05644,0.02469 0.03528,0.02117 0.03528,0.04233 z"
         style="font-style:normal;font-variant:normal;font-weight:bold;font-stretch:normal;font-family:'Snowtop Caps';-inkscape-font-specification:'Snowtop Caps Bold';stroke-width:0.26458332"
         id="path2417" />
      <path
         d="m 56.367189,54.879865 h -0.687916 l -0.405695,-1.033638 v 1.040694 h -0.638527 l 0.0035,-2.363611 q 0,-0.47625 0.15875,-0.47625 0.03528,0 0.08114,0.04939 0.04939,0.04586 0.07761,0.04586 -0.0035,0 0.05997,-0.05292 0.0635,-0.05292 0.134055,-0.05644 0.05644,0 0.105833,0.05644 0.0071,0.03175 0.09172,0.109361 0.08819,0.07408 0.09525,0.09525 0.0071,0.07408 0.02469,0.22225 0.02822,0.197556 0.09525,0.292806 0.04586,-0.05645 0.119945,-0.05645 0.04939,0 0.06703,0.02822 l 0.02822,-0.03528 q 0,-0.03528 0,-0.102306 -0.0035,-0.06703 -0.0035,-0.102305 0,-0.465667 0.225778,-0.465667 0.08114,0 0.123472,0.05292 0.04233,0.05292 0.08114,0.105833 l 0.09172,-0.02117 q 0.07056,0 0.07056,0.02117 z m -0.07761,-2.596444 q -0.01764,0.01058 -0.02469,0.01411 -0.02822,0.01411 -0.04586,0.01411 -0.03881,0 -0.112889,-0.09172 -0.07408,-0.09172 -0.127,-0.07761 -0.04939,0.0071 -0.09172,0.09172 -0.02469,0.06703 -0.05292,0.134056 0.09525,0.119944 0.194028,0.239889 0.09172,0.134055 0.148166,0.28575 0,-0.105834 0.0635,-0.289278 0.0635,-0.186972 0.0635,-0.250472 0,-0.04233 -0.01411,-0.07056 z m -0.860777,0.254 q 0,-0.109361 -0.05997,-0.254 -0.04233,0 -0.123472,-0.09525 -0.07761,-0.09878 -0.102305,-0.09878 -0.0247,0 -0.102306,0.06703 -0.07761,0.0635 -0.08114,0.0635 -0.01411,0 -0.08467,-0.05292 -0.07055,-0.05292 -0.09525,-0.05292 -0.04233,0 -0.06703,0.08819 -0.01764,0.06703 -0.01764,0.123472 0,0.112889 0.08467,0.433917 0.03881,-0.03528 0.116417,-0.201083 0.02822,0.0071 0.155222,0.186972 0.01411,-0.01411 0.03528,-0.09878 0.04233,-0.169333 0.09172,-0.197555 0.176389,0.109361 0.176389,0.261055 l 0.03175,-0.0071 q 0.04233,-0.08114 0.04233,-0.165806 z m 0.405694,0.758472 v -0.05292 q 0,0.01411 0.0035,-0.07408 0.0035,-0.130528 -0.06703,-0.257528 -0.05644,-0.09172 -0.123472,-0.102305 -0.0247,0.02469 -0.02822,0.03528 -0.0071,0.01411 0.01058,0.0388 0.01764,0.0247 0.01764,0.03175 -0.05292,0.127 -0.04939,0.172861 l 0.01411,0.299861 h 0.02117 q -0.01411,-0.09525 0.144639,-0.09525 h 0.03881 q 0.0071,0 0.01764,0.0035 z m -0.811389,-0.998361 q -0.01411,0.0247 -0.02469,0.03175 -0.0247,0.02117 -0.04586,0.02117 -0.01058,0 -0.02117,-0.0035 -0.0035,-0.0635 0.09172,-0.0635 z"
         style="font-style:normal;font-variant:normal;font-weight:bold;font-stretch:normal;font-family:'Snowtop Caps';-inkscape-font-specification:'Snowtop Caps Bold';stroke-width:0.26458332"
         id="path2419" />
      <path
         d="m 57.284632,52.149365 -0.0035,2.737556 h -0.642056 l -0.0035,-2.54 q 0,-0.09172 0.04939,-0.1905 0.05644,-0.116417 0.137583,-0.116417 l 0.08467,0.01411 q 0.03528,0 0.109361,-0.01058 0.07408,-0.01058 0.109361,-0.01058 0.105834,0 0.15875,0.116416 z m -0.02469,0.04233 q -0.02117,-0.102306 -0.134056,-0.102306 -0.02822,0 -0.09172,0.01411 -0.05997,0.01058 -0.09172,0.01058 -0.02117,0 -0.07056,-0.0247 l 0.03528,0.08114 q -0.0635,0.0247 -0.08467,0.02117 -0.02822,0 -0.02822,-0.02822 l 0.0071,-0.04939 q -0.09878,0.04233 -0.09878,0.183444 0,0.04939 0.05644,0.303389 0.04586,0.02469 0.05645,0.123472 0,0.03528 -0.03528,0.211667 0,0.07408 0.07761,0.130528 0.02822,-0.03528 0.02822,-0.123473 0,-0.07761 -0.0071,-0.148166 0,-0.07761 0.0635,-0.151695 0.04233,0 0.08467,0.0635 0.03881,0.07761 0.07761,0.151695 0.155222,-0.215195 0.155222,-0.66675 z m -0.148167,0.169333 q -0.09525,0 -0.162278,-0.04233 0.01411,-0.02117 0.05292,-0.02822 0.0635,0 0.109361,0.05644 z"
         style="font-style:normal;font-variant:normal;font-weight:bold;font-stretch:normal;font-family:'Snowtop Caps';-inkscape-font-specification:'Snowtop Caps Bold';stroke-width:0.26458332"
         id="path2421" />
      <path
         d="m 59.597035,53.913254 q 0,0.465667 -0.254,0.719667 -0.254,0.254 -0.719667,0.254 -0.694972,0 -1.17475,-0.451556 v -0.04939 l 0.328084,-0.430388 q 0.0388,0.01411 0.07761,0.01411 0.07055,0 0.112889,-0.07056 0.134055,0.02117 0.1905,0.04233 0.109361,0.03881 0.130527,0.119944 0.03528,0 0.130528,-0.05292 0.09525,-0.05292 0.119945,-0.05292 0.05292,0 0.165805,0.09878 0.05645,0.04939 0.09172,0.04939 0.04939,0 0.04939,-0.03528 0,-0.07761 -0.345722,-0.151695 -0.451555,-0.09525 -0.642055,-0.201083 -0.345723,-0.1905 -0.345723,-0.557389 0,-0.109361 0.04233,-0.28575 -0.0635,-0.119945 -0.0635,-0.229306 0,-0.15875 0.07408,-0.278694 0.08467,-0.137583 0.232833,-0.137583 0.04586,0 0.144639,-0.102306 0.09878,-0.102306 0.172861,-0.09172 0.09878,0.01411 0.127,0.05644 0.01411,0.02117 0.0247,0.01764 0.0388,-0.02469 0.119944,-0.05292 0.04586,-0.0035 0.119945,0.03881 0.07408,0.04233 0.09525,0.04233 0.194027,-0.06703 0.321027,-0.06703 0.08114,0 0.261056,0.250472 0.137583,0.194028 0.246944,0.246944 -0.01411,0.119945 -0.141111,0.303389 -0.04586,0.0635 -0.134055,0.1905 -0.204611,-0.02117 -0.204611,-0.109361 -0.179917,-0.06703 -0.250473,-0.08819 -0.148166,-0.04586 -0.236361,-0.04586 -0.239889,0 -0.239889,0.134056 0,0.144639 0.352778,0.229306 0.536222,0.127 0.663222,0.1905 0.356306,0.176388 0.356306,0.543277 z M 59.265424,52.52331 q 0,-0.04233 -0.155222,-0.204611 -0.151695,-0.165806 -0.201084,-0.176389 -0.02822,-0.0071 -0.127,0.03175 -0.109361,0.04233 -0.137583,0.04586 -0.05644,0 -0.264583,-0.09878 -0.01764,0 -0.05292,0.03175 -0.03528,0.03175 -0.05997,0.03881 -0.02822,0.0035 -0.07056,-0.04586 -0.0388,-0.05292 -0.04586,-0.05644 -0.04233,0.01058 -0.06703,0.01764 -0.07055,0.02117 -0.116416,0.04939 -0.01411,0.0071 -0.04233,0.08467 -0.01764,0.05292 -0.134055,0.07055 -0.254,0.03528 -0.254,0.292806 0,0.09878 0.02469,0.141111 0.01058,-0.02117 0.04586,-0.02117 l 0.134056,0.02117 q 0.07055,-0.09525 0.127,-0.102306 0.02822,0 0.116417,0.183445 0.08819,0.183444 0.137583,0.197555 0.02822,-0.05292 0.0635,-0.328083 0.03175,-0.232833 0.08114,-0.232833 0.04586,0.04586 0.08467,0.07761 0.09878,0.08114 0.144639,0.08114 0.01058,0 0.04586,-0.116417 0.03881,-0.116417 0.09525,-0.116417 0.144639,0 0.254,0.215195 0.06703,0.172861 0.137584,0.345722 0,-0.07056 -0.05292,-0.430389 0,-0.0635 0.03881,-0.0635 0.0635,0 0.130527,0.04939 0.05644,0.04939 0.112889,0.09525 0.01411,0 0.01058,-0.03175 -0.0035,-0.02822 -0.0035,-0.04586 z m -0.384528,1.725083 q 0,-0.04586 -0.06703,-0.0635 -0.102305,-0.02117 -0.112889,-0.02822 -0.01058,-0.0071 -0.05997,-0.07761 -0.03175,-0.04586 -0.09525,-0.04586 -0.01411,0 -0.236361,0.105833 -0.05292,0 -0.09525,-0.0635 -0.0388,-0.06703 -0.09172,-0.07408 l -0.155222,-0.0247 q -0.05645,0.08467 -0.05645,0.112889 l 0.239889,0.391583 q 0.02822,-0.05644 0.04586,-0.08114 0.05997,-0.08467 0.112889,-0.08467 0.07408,0 0.09878,0.0635 0,0.0035 0.04233,0.130528 0.0247,0 0.05644,-0.07408 0.03175,-0.07761 0.05997,-0.07761 0.05644,0 0.134055,0.08467 0.07056,0.09878 0.144639,0.194028 -0.02117,-0.0635 -0.02117,-0.116417 0,-0.0635 0.01764,-0.130528 z m -0.836083,-1.760361 q -0.01058,0.0247 -0.05644,0.02822 -0.02822,0 -0.03528,-0.03528 -0.01058,-0.02117 0.0388,-0.02117 0.05997,0 0.05292,0.02822 z"
         style="font-style:normal;font-variant:normal;font-weight:bold;font-stretch:normal;font-family:'Snowtop Caps';-inkscape-font-specification:'Snowtop Caps Bold';stroke-width:0.26458332"
         id="path2423" />
    </g>
    <g
       aria-label="INPUT"
       style="font-style:normal;font-weight:normal;font-size:3.52777767px;line-height:1.25;font-family:sans-serif;letter-spacing:0px;word-spacing:0px;fill:#000000;fill-opacity:1;stroke:none;stroke-width:0.26458332"
       id="text5443-7">
      <path
         d="m 38.595538,93.812369 v -0.276986 h 1.138259 v 0.276986 h -0.396875 v 1.244368 h 0.396875 v 0.279742 h -1.138259 v -0.279742 h 0.396875 v -1.244368 z"
         style="font-style:normal;font-variant:normal;font-weight:bold;font-stretch:normal;font-size:2.82222223px;font-family:Consolas;-inkscape-font-specification:'Consolas Bold';stroke-width:0.26458332"
         id="path2426" />
      <path
         d="m 40.963008,95.336479 -0.482314,-1.07487 -0.09922,-0.23151 v 0.746897 0.559483 h -0.30868 v -1.801096 h 0.416167 l 0.49196,1.08176 0.08682,0.21084 v -0.795128 -0.497472 h 0.308681 v 1.801096 z"
         style="font-style:normal;font-variant:normal;font-weight:bold;font-stretch:normal;font-size:2.82222223px;font-family:Consolas;-inkscape-font-specification:'Consolas Bold';stroke-width:0.26458332"
         id="path2428" />
      <path
         d="m 42.933602,94.108647 q 0,0.14056 -0.04685,0.260449 -0.04685,0.118512 -0.139182,0.205328 -0.09233,0.08682 -0.230132,0.135048 -0.137804,0.04823 -0.319705,0.04823 h -0.172255 v 0.578776 h -0.341753 v -1.801096 h 0.527788 q 0.175011,0 0.308681,0.03858 0.135047,0.03721 0.225998,0.110243 0.09233,0.07304 0.139182,0.180523 0.04823,0.106109 0.04823,0.243913 z m -0.355534,0.02343 q 0,-0.07166 -0.02343,-0.129536 -0.02205,-0.05926 -0.0689,-0.100597 -0.04548,-0.04134 -0.115755,-0.06339 -0.07028,-0.02205 -0.166743,-0.02205 h -0.177767 v 0.66008 h 0.188791 q 0.08819,0 0.155719,-0.02343 0.06752,-0.02481 0.112999,-0.07028 0.04685,-0.04548 0.07028,-0.108865 0.0248,-0.06339 0.0248,-0.141938 z"
         style="font-style:normal;font-variant:normal;font-weight:bold;font-stretch:normal;font-size:2.82222223px;font-family:Consolas;-inkscape-font-specification:'Consolas Bold';stroke-width:0.26458332"
         id="path2430" />
      <path
         d="m 44.483895,94.673643 q 0,0.172255 -0.04685,0.303168 -0.04547,0.129536 -0.132292,0.216352 -0.08544,0.08682 -0.209462,0.130914 -0.124023,0.0441 -0.278363,0.0441 -0.173633,0 -0.297657,-0.0441 -0.124023,-0.0441 -0.201193,-0.12678 -0.07717,-0.08268 -0.111621,-0.201193 -0.03445,-0.118512 -0.03445,-0.265962 V 93.535383 H 43.511 v 1.174089 q 0,0.09095 0.01516,0.16123 0.01654,0.07028 0.05512,0.11989 0.03996,0.04823 0.09922,0.07304 0.05926,0.0248 0.148828,0.0248 0.08406,0 0.141938,-0.02067 0.05788,-0.02205 0.09646,-0.0689 0.03858,-0.04823 0.05788,-0.122646 0.01929,-0.07441 0.01929,-0.180523 v -1.160308 h 0.338997 z"
         style="font-style:normal;font-variant:normal;font-weight:bold;font-stretch:normal;font-size:2.82222223px;font-family:Consolas;-inkscape-font-specification:'Consolas Bold';stroke-width:0.26458332"
         id="path2432" />
      <path
         d="m 45.556009,93.817881 v 1.518598 h -0.347266 v -1.518598 h -0.493337 v -0.282498 h 1.333941 v 0.282498 z"
         style="font-style:normal;font-variant:normal;font-weight:bold;font-stretch:normal;font-size:2.82222223px;font-family:Consolas;-inkscape-font-specification:'Consolas Bold';stroke-width:0.26458332"
         id="path2434" />
    </g>
    <g
       aria-label="TONAL"
       style="font-style:normal;font-weight:normal;font-size:3.52777767px;line-height:1.25;font-family:sans-serif;letter-spacing:0px;word-spacing:0px;fill:#000000;fill-opacity:1;stroke:none;stroke-width:0.26458332"
       id="text5443-7-0">
      <path
         d="m 39.436025,120.27621 v 1.5186 H 39.08876 v -1.5186 h -0.493338 v -0.2825 h 1.333941 v 0.2825 z"
         style="font-style:normal;font-variant:normal;font-weight:bold;font-stretch:normal;font-size:2.82222223px;font-family:Consolas;-inkscape-font-specification:'Consolas Bold';stroke-width:0.26458332"
         id="path2437" />
      <path
         d="m 41.541668,120.88668 q 0,0.24529 -0.05788,0.42306 -0.0565,0.17776 -0.157096,0.29214 -0.09922,0.11438 -0.234267,0.1695 -0.133669,0.0551 -0.286632,0.0551 -0.355534,0 -0.534678,-0.23564 -0.179145,-0.23702 -0.179145,-0.68764 0,-0.24529 0.0565,-0.42306 0.05788,-0.17777 0.157096,-0.29215 0.100597,-0.11437 0.234267,-0.16949 0.135048,-0.0551 0.28801,-0.0551 0.355534,0 0.534679,0.23565 0.179145,0.23564 0.179145,0.68764 z m -0.35829,0.0165 q 0,-0.31971 -0.08544,-0.4768 -0.08544,-0.1571 -0.281119,-0.1571 -0.09784,0 -0.166743,0.0413 -0.0689,0.04 -0.114377,0.11851 -0.0441,0.0786 -0.06477,0.1943 -0.02067,0.11438 -0.02067,0.26321 0,0.31971 0.08544,0.4768 0.08682,0.1571 0.28112,0.1571 0.09784,0 0.166742,-0.04 0.07028,-0.0413 0.114377,-0.11988 0.0441,-0.0786 0.06477,-0.19293 0.02067,-0.11576 0.02067,-0.26458 z"
         style="font-style:normal;font-variant:normal;font-weight:bold;font-stretch:normal;font-size:2.82222223px;font-family:Consolas;-inkscape-font-specification:'Consolas Bold';stroke-width:0.26458332"
         id="path2439" />
      <path
         d="m 42.61516,121.79481 -0.482314,-1.07487 -0.09922,-0.23151 v 0.74689 0.55949 h -0.30868 v -1.8011 h 0.416167 l 0.49196,1.08176 0.08682,0.21084 v -0.79513 -0.49747 h 0.308681 v 1.8011 z"
         style="font-style:normal;font-variant:normal;font-weight:bold;font-stretch:normal;font-size:2.82222223px;font-family:Consolas;-inkscape-font-specification:'Consolas Bold';stroke-width:0.26458332"
         id="path2441" />
      <path
         d="m 44.321171,121.79481 -0.09922,-0.35554 h -0.628385 l -0.101975,0.35554 h -0.336241 l 0.5333,-1.8011 h 0.474046 l 0.5333,1.8011 z m -0.409277,-1.47037 -0.237023,0.83785 h 0.471289 z"
         style="font-style:normal;font-variant:normal;font-weight:bold;font-stretch:normal;font-size:2.82222223px;font-family:Consolas;-inkscape-font-specification:'Consolas Bold';stroke-width:0.26458332"
         id="path2443" />
      <path
         d="m 44.975739,121.79481 v -1.8011 h 0.34451 v 1.51033 h 0.760677 v 0.29077 z"
         style="font-style:normal;font-variant:normal;font-weight:bold;font-stretch:normal;font-size:2.82222223px;font-family:Consolas;-inkscape-font-specification:'Consolas Bold';stroke-width:0.26458332"
         id="path2445" />
    </g>
    <g
       aria-label="TRANSIENT"
       style="font-style:normal;font-weight:normal;font-size:3.52777767px;line-height:1.25;font-family:sans-serif;letter-spacing:0px;word-spacing:0px;fill:#000000;fill-opacity:1;stroke:none;stroke-width:0.26458332"
       id="text5443-7-2">
      <path
         d="m 39.436025,107.04705 v 1.51859 H 39.08876 v -1.51859 h -0.493338 v -0.2825 h 1.333941 v 0.2825 z"
         style="font-style:normal;font-variant:normal;font-weight:bold;font-stretch:normal;font-size:2.82222223px;font-family:Consolas;-inkscape-font-specification:'Consolas Bold';stroke-width:0.26458332"
         id="path2448" />
      <path
         d="m 41.126878,108.56564 -0.253559,-0.57877 q -0.03583,-0.0827 -0.100597,-0.12403 -0.06339,-0.0427 -0.150206,-0.0427 h -0.06477 v 0.74552 h -0.338997 v -1.80109 h 0.525033 q 0.148828,0 0.270095,0.0262 0.121267,0.0248 0.206706,0.0841 0.08544,0.0593 0.130913,0.15434 0.04685,0.0951 0.04685,0.23289 0,0.0992 -0.02894,0.17639 -0.02894,0.0772 -0.0813,0.13367 -0.05237,0.0551 -0.125402,0.0896 -0.07166,0.0345 -0.157096,0.0482 0.06615,0.0138 0.121267,0.0758 0.05512,0.0606 0.110243,0.17639 l 0.28801,0.60358 z m -0.08406,-1.27055 q 0,-0.13229 -0.08406,-0.19017 -0.08406,-0.0579 -0.252181,-0.0579 h -0.148829 v 0.50849 h 0.137804 q 0.07855,0 0.141938,-0.0165 0.06477,-0.0165 0.110243,-0.0496 0.04548,-0.0331 0.07028,-0.0813 0.0248,-0.0496 0.0248,-0.113 z"
         style="font-style:normal;font-variant:normal;font-weight:bold;font-stretch:normal;font-size:2.82222223px;font-family:Consolas;-inkscape-font-specification:'Consolas Bold';stroke-width:0.26458332"
         id="path2450" />
      <path
         d="m 42.766744,108.56564 -0.09922,-0.35553 H 42.03914 l -0.101975,0.35553 h -0.336242 l 0.533301,-1.80109 h 0.474045 l 0.533301,1.80109 z m -0.409278,-1.47036 -0.237022,0.83784 h 0.471289 z"
         style="font-style:normal;font-variant:normal;font-weight:bold;font-stretch:normal;font-size:2.82222223px;font-family:Consolas;-inkscape-font-specification:'Consolas Bold';stroke-width:0.26458332"
         id="path2452" />
      <path
         d="m 44.169587,108.56564 -0.482314,-1.07487 -0.09922,-0.23151 v 0.7469 0.55948 h -0.308681 v -1.80109 h 0.416168 l 0.491959,1.08176 0.08682,0.21084 v -0.79513 -0.49747 h 0.30868 v 1.80109 z"
         style="font-style:normal;font-variant:normal;font-weight:bold;font-stretch:normal;font-size:2.82222223px;font-family:Consolas;-inkscape-font-specification:'Consolas Bold';stroke-width:0.26458332"
         id="path2454" />
      <path
         d="m 46.109865,108.02132 q 0,0.14745 -0.05512,0.25631 -0.05374,0.10887 -0.151584,0.18053 -0.09784,0.0703 -0.232889,0.10473 -0.135047,0.0345 -0.2949,0.0345 -0.141938,0 -0.274229,-0.0165 -0.132292,-0.0165 -0.261828,-0.0551 v -0.33486 q 0.06339,0.022 0.132292,0.0413 0.0689,0.0193 0.137804,0.0345 0.07028,0.0138 0.139182,0.022 0.0689,0.008 0.133669,0.008 0.09646,0 0.163987,-0.0165 0.06752,-0.0165 0.110243,-0.0455 0.04272,-0.0289 0.06201,-0.0689 0.01929,-0.04 0.01929,-0.0882 0,-0.0662 -0.03858,-0.11025 -0.03721,-0.0455 -0.09922,-0.0799 -0.06201,-0.0344 -0.141938,-0.062 -0.07855,-0.0276 -0.16123,-0.0593 -0.0813,-0.0317 -0.16123,-0.0717 -0.07855,-0.04 -0.14056,-0.0992 -0.06201,-0.0593 -0.100597,-0.14056 -0.03721,-0.0827 -0.03721,-0.19843 0,-0.10611 0.03858,-0.2012 0.03859,-0.0951 0.121267,-0.16536 0.08268,-0.0717 0.212218,-0.113 0.129536,-0.0427 0.312815,-0.0427 0.05374,0 0.111621,0.006 0.05926,0.004 0.115755,0.0124 0.05788,0.007 0.110243,0.0179 0.05374,0.01 0.09784,0.0207 v 0.31006 q -0.0441,-0.0165 -0.09646,-0.0303 -0.05237,-0.0138 -0.108865,-0.0234 -0.05512,-0.011 -0.111621,-0.0165 -0.0565,-0.006 -0.107487,-0.006 -0.08957,0 -0.151584,0.0152 -0.06201,0.0138 -0.101975,0.04 -0.03996,0.0248 -0.05788,0.062 -0.01791,0.0372 -0.01791,0.0827 0,0.0565 0.03721,0.0978 0.03858,0.04 0.100597,0.073 0.06339,0.0317 0.141938,0.0606 0.07993,0.0276 0.162608,0.0606 0.08406,0.0317 0.162609,0.073 0.07993,0.0413 0.141938,0.1006 0.06339,0.0593 0.100596,0.14056 0.03859,0.0799 0.03859,0.19017 z"
         style="font-style:normal;font-variant:normal;font-weight:bold;font-stretch:normal;font-size:2.82222223px;font-family:Consolas;-inkscape-font-specification:'Consolas Bold';stroke-width:0.26458332"
         id="path2456" />
      <path
         d="m 46.465398,107.04153 v -0.27698 h 1.13826 v 0.27698 h -0.396875 v 1.24437 h 0.396875 v 0.27974 h -1.13826 v -0.27974 h 0.396875 v -1.24437 z"
         style="font-style:normal;font-variant:normal;font-weight:bold;font-stretch:normal;font-size:2.82222223px;font-family:Consolas;-inkscape-font-specification:'Consolas Bold';stroke-width:0.26458332"
         id="path2458" />
      <path
         d="m 48.066679,108.56564 v -1.80109 h 1.084516 v 0.28663 h -0.740007 v 0.44786 h 0.705556 v 0.27974 h -0.705556 v 0.50023 h 0.740007 v 0.28663 z"
         style="font-style:normal;font-variant:normal;font-weight:bold;font-stretch:normal;font-size:2.82222223px;font-family:Consolas;-inkscape-font-specification:'Consolas Bold';stroke-width:0.26458332"
         id="path2460" />
      <path
         d="m 50.387295,108.56564 -0.482313,-1.07487 -0.09922,-0.23151 v 0.7469 0.55948 h -0.30868 v -1.80109 h 0.416167 l 0.49196,1.08176 0.08682,0.21084 v -0.79513 -0.49747 h 0.308681 v 1.80109 z"
         style="font-style:normal;font-variant:normal;font-weight:bold;font-stretch:normal;font-size:2.82222223px;font-family:Consolas;-inkscape-font-specification:'Consolas Bold';stroke-width:0.26458332"
         id="path2462" />
      <path
         d="m 51.871443,107.04705 v 1.51859 h -0.347266 v -1.51859 h -0.493338 v -0.2825 h 1.333941 v 0.2825 z"
         style="font-style:normal;font-variant:normal;font-weight:bold;font-stretch:normal;font-size:2.82222223px;font-family:Consolas;-inkscape-font-specification:'Consolas Bold';stroke-width:0.26458332"
         id="path2464" />
    </g>
    <g
       aria-label="SMOOTHING"
       style="font-style:normal;font-weight:normal;font-size:3.52777767px;line-height:1.25;font-family:sans-serif;letter-spacing:0px;word-spacing:0px;fill:#000000;fill-opacity:1;stroke:none;stroke-width:0.26458332"
       id="text5443-7-5">
      <path
         d="m 47.897992,61.048105 q 0,0.14745 -0.05512,0.256315 -0.05374,0.108865 -0.151584,0.180523 -0.09784,0.07028 -0.232889,0.104731 -0.135047,0.03445 -0.2949,0.03445 -0.141938,0 -0.27423,-0.01654 -0.132291,-0.01654 -0.261827,-0.05512 v -0.334863 q 0.06339,0.02205 0.132292,0.04134 0.0689,0.01929 0.137804,0.03445 0.07028,0.01378 0.139182,0.02205 0.0689,0.0083 0.133669,0.0083 0.09646,0 0.163987,-0.01654 0.06752,-0.01654 0.110243,-0.04547 0.04272,-0.02894 0.06201,-0.0689 0.01929,-0.03996 0.01929,-0.08819 0,-0.06615 -0.03859,-0.110243 -0.03721,-0.04548 -0.09922,-0.07993 -0.06201,-0.03445 -0.141938,-0.06201 -0.07855,-0.02756 -0.16123,-0.05926 -0.0813,-0.03169 -0.161231,-0.07166 -0.07855,-0.03996 -0.140559,-0.09922 -0.06201,-0.05926 -0.100597,-0.14056 -0.03721,-0.08268 -0.03721,-0.198437 0,-0.106109 0.03858,-0.201194 0.03859,-0.09508 0.121267,-0.165364 0.08268,-0.07166 0.212218,-0.112999 0.129536,-0.04272 0.312815,-0.04272 0.05374,0 0.111621,0.0055 0.05926,0.0041 0.115755,0.0124 0.05788,0.0069 0.110243,0.01791 0.05374,0.0096 0.09784,0.02067 v 0.310059 q -0.0441,-0.01654 -0.09646,-0.03032 -0.05237,-0.01378 -0.108865,-0.02343 -0.05512,-0.01102 -0.111621,-0.01654 -0.0565,-0.0055 -0.107487,-0.0055 -0.08957,0 -0.151584,0.01516 -0.06201,0.01378 -0.101975,0.03996 -0.03996,0.02481 -0.05788,0.06201 -0.01791,0.03721 -0.01791,0.08268 0,0.0565 0.03721,0.09784 0.03858,0.03996 0.100597,0.07304 0.06339,0.03169 0.141938,0.06063 0.07993,0.02756 0.162608,0.06063 0.08406,0.03169 0.162609,0.07304 0.07993,0.04134 0.141938,0.100597 0.06339,0.05926 0.100596,0.14056 0.03859,0.07993 0.03859,0.190169 z"
         style="font-style:normal;font-variant:normal;font-weight:bold;font-stretch:normal;font-size:2.82222223px;font-family:Consolas;-inkscape-font-specification:'Consolas Bold';stroke-width:0.26458332"
         id="path2467" />
      <path
         d="m 49.237446,61.59243 -0.03307,-1.01837 -0.0124,-0.406521 -0.08682,0.275607 -0.199816,0.613227 h -0.212217 l -0.180523,-0.613227 -0.07579,-0.275607 -0.0096,0.398253 -0.03032,1.026638 h -0.28801 l 0.08819,-1.801096 h 0.383094 l 0.158475,0.511252 0.07579,0.28801 0.07579,-0.271473 0.166743,-0.527789 h 0.389984 l 0.08957,1.801096 z"
         style="font-style:normal;font-variant:normal;font-weight:bold;font-stretch:normal;font-size:2.82222223px;font-family:Consolas;-inkscape-font-specification:'Consolas Bold';stroke-width:0.26458332"
         id="path2469" />
      <path
         d="m 51.101931,60.684303 q 0,0.245291 -0.05788,0.423058 -0.0565,0.177767 -0.157097,0.292144 -0.09922,0.114377 -0.234266,0.169498 -0.13367,0.05512 -0.286632,0.05512 -0.355534,0 -0.534679,-0.235645 -0.179145,-0.237022 -0.179145,-0.687641 0,-0.24529 0.0565,-0.423057 0.05788,-0.177767 0.157096,-0.292144 0.100597,-0.114378 0.234267,-0.169499 0.135047,-0.05512 0.28801,-0.05512 0.355533,0 0.534678,0.235645 0.179145,0.235644 0.179145,0.687641 z m -0.35829,0.01654 q 0,-0.319704 -0.08544,-0.476801 -0.08544,-0.157096 -0.28112,-0.157096 -0.09784,0 -0.166742,0.04134 -0.0689,0.03996 -0.114377,0.118511 -0.0441,0.07855 -0.06477,0.194304 -0.02067,0.114377 -0.02067,0.263205 0,0.319705 0.08544,0.476801 0.08682,0.157097 0.281119,0.157097 0.09784,0 0.166743,-0.03996 0.07028,-0.04134 0.114377,-0.119889 0.0441,-0.07855 0.06477,-0.192925 0.02067,-0.115755 0.02067,-0.264584 z"
         style="font-style:normal;font-variant:normal;font-weight:bold;font-stretch:normal;font-size:2.82222223px;font-family:Consolas;-inkscape-font-specification:'Consolas Bold';stroke-width:0.26458332"
         id="path2471" />
      <path
         d="m 52.656359,60.684303 q 0,0.245291 -0.05788,0.423058 -0.0565,0.177767 -0.157096,0.292144 -0.09922,0.114377 -0.234267,0.169498 -0.13367,0.05512 -0.286632,0.05512 -0.355534,0 -0.534679,-0.235645 -0.179145,-0.237022 -0.179145,-0.687641 0,-0.24529 0.0565,-0.423057 0.05788,-0.177767 0.157096,-0.292144 0.100597,-0.114378 0.234267,-0.169499 0.135048,-0.05512 0.28801,-0.05512 0.355534,0 0.534679,0.235645 0.179145,0.235644 0.179145,0.687641 z m -0.35829,0.01654 q 0,-0.319704 -0.08544,-0.476801 -0.08544,-0.157096 -0.28112,-0.157096 -0.09784,0 -0.166742,0.04134 -0.0689,0.03996 -0.114377,0.118511 -0.0441,0.07855 -0.06477,0.194304 -0.02067,0.114377 -0.02067,0.263205 0,0.319705 0.08544,0.476801 0.08682,0.157097 0.281119,0.157097 0.09784,0 0.166743,-0.03996 0.07028,-0.04134 0.114377,-0.119889 0.0441,-0.07855 0.06477,-0.192925 0.02067,-0.115755 0.02067,-0.264584 z"
         style="font-style:normal;font-variant:normal;font-weight:bold;font-stretch:normal;font-size:2.82222223px;font-family:Consolas;-inkscape-font-specification:'Consolas Bold';stroke-width:0.26458332"
         id="path2473" />
      <path
         d="m 53.65957,60.073832 v 1.518598 h -0.347265 v -1.518598 h -0.493338 v -0.282498 h 1.333941 v 0.282498 z"
         style="font-style:normal;font-variant:normal;font-weight:bold;font-stretch:normal;font-size:2.82222223px;font-family:Consolas;-inkscape-font-specification:'Consolas Bold';stroke-width:0.26458332"
         id="path2475" />
      <path
         d="M 55.346289,61.59243 V 60.808326 H 54.73444 v 0.784104 h -0.338997 v -1.801096 h 0.338997 v 0.72347 h 0.611849 v -0.72347 h 0.338998 v 1.801096 z"
         style="font-style:normal;font-variant:normal;font-weight:bold;font-stretch:normal;font-size:2.82222223px;font-family:Consolas;-inkscape-font-specification:'Consolas Bold';stroke-width:0.26458332"
         id="path2477" />
      <path
         d="m 56.025662,60.06832 v -0.276986 h 1.13826 v 0.276986 h -0.396875 v 1.244368 h 0.396875 v 0.279742 h -1.13826 v -0.279742 h 0.396875 V 60.06832 Z"
         style="font-style:normal;font-variant:normal;font-weight:bold;font-stretch:normal;font-size:2.82222223px;font-family:Consolas;-inkscape-font-specification:'Consolas Bold';stroke-width:0.26458332"
         id="path2479" />
      <path
         d="M 58.393132,61.59243 57.910818,60.51756 57.8116,60.28605 v 0.746897 0.559483 h -0.308681 v -1.801096 h 0.416168 l 0.491959,1.08176 0.08682,0.21084 v -0.795128 -0.497472 h 0.30868 v 1.801096 z"
         style="font-style:normal;font-variant:normal;font-weight:bold;font-stretch:normal;font-size:2.82222223px;font-family:Consolas;-inkscape-font-specification:'Consolas Bold';stroke-width:0.26458332"
         id="path2481" />
      <path
         d="m 59.711914,60.830375 v -0.279742 h 0.640788 v 0.960493 q -0.124023,0.05788 -0.259071,0.08544 -0.135048,0.02756 -0.293522,0.02756 -0.187413,0 -0.33762,-0.05788 -0.148828,-0.05788 -0.253559,-0.172254 -0.10473,-0.114378 -0.16123,-0.283876 -0.05512,-0.169499 -0.05512,-0.392741 0,-0.22462 0.05788,-0.402387 0.05926,-0.177767 0.170877,-0.300413 0.112999,-0.124023 0.275607,-0.188791 0.163987,-0.06477 0.373449,-0.06477 0.124023,0 0.241156,0.02205 0.118512,0.02067 0.235645,0.0565 v 0.334863 q -0.101975,-0.04823 -0.225998,-0.07855 -0.122646,-0.03169 -0.248047,-0.03169 -0.12678,0 -0.22462,0.0441 -0.09646,0.0441 -0.162609,0.125401 -0.06477,0.08131 -0.09922,0.199816 -0.03307,0.118511 -0.03307,0.267339 0,0.143316 0.02618,0.259072 0.02618,0.114377 0.08406,0.195681 0.05926,0.07993 0.151584,0.122645 0.09233,0.04272 0.22462,0.04272 0.03169,0 0.05512,-0.0014 0.02343,-0.0028 0.0441,-0.0069 0.02067,-0.0041 0.03859,-0.0096 0.01929,-0.0055 0.03996,-0.0124 v -0.460265 z"
         style="font-style:normal;font-variant:normal;font-weight:bold;font-stretch:normal;font-size:2.82222223px;font-family:Consolas;-inkscape-font-specification:'Consolas Bold';stroke-width:0.26458332"
         id="path2483" />
    </g>
  </g>
</svg>
