<svg xmlns="http://www.w3.org/2000/svg" height="380" width="105"><path d="M0 0h105v380H0z" fill="#ababab"/><path d="M.3.3h104.4v379.4H0z" fill="#e6e6e6"/><path d="M.3 16h104.4v16H0z" fill="#c91847"/><path d="M59.5 360a7 7 0 0 1-7 7 7 7 0 0 1-7-7 7 7 0 0 1 7-7 7 7 0 0 1 7 7z" fill="#556746"/><path d="M59.5 362a5 5 0 0 1-5 5 5 5 0 0 1-5-5 5 5 0 0 1 5-5 5 5 0 0 1 5 5z" fill="#e6e6e6"/><path d="M59.5 364a3 3 0 0 1-3 3 3 3 0 0 1-3-3 3 3 0 0 1 3-3 3 3 0 0 1 3 3z" fill="#556746"/><g fill="none" stroke="#000" stroke-width=".7"><path d="M28 157l-10 20M76 157l10 20M28 232l-10 20M76 232l10 20"/></g><g><path d="M20 306h20.5c2.216 0 4 1.784 4 4v34c0 2.216-1.784 4-4 4H20c-2.216 0-4-1.784-4-4v-34c0-2.216 1.784-4 4-4zM65 306h20.5c2.216 0 4 1.784 4 4v34c0 2.216-1.784 4-4 4H65c-2.216 0-4-1.784-4-4v-34c0-2.216 1.784-4 4-4z"/></g><g><path d="M46.934 193.531c-.272-.033-.546-.055-.816-.1-.41-.067-.817-.152-1.226-.226-.289-.052-.58-.086-.87-.01-.374.099-.593.356-.677.72-.07.3.104.515.328.683.112.084.244.14.367.207.03.016.061.027.121.053-.06.021-.092.037-.126.043-.935.177-1.359-.515-1.29-1.195.053-.538.349-.895.804-1.146.385-.212.806-.29 1.235-.335.503-.052 1.007-.09 1.509-.148.274-.032.537-.118.777-.26.044-.025.08-.063.12-.096l-.018-.038c-.123.018-.245.04-.368.055-.583.072-1.146.014-1.676-.257-.32-.163-.485-.448-.455-.776.034-.38.298-.604.698-.58-.02.016-.03.026-.043.033-.17.09-.209.228-.112.396.13.228.344.31.588.323.842.046 1.633-.13 2.358-.57.096-.058.181-.136.27-.206.032-.025.06-.054.09-.082-.141.034-.279.083-.42.096-.478.044-.936-.062-1.384-.217-.545-.189-1.049-.465-1.563-.72-.317-.158-.638-.308-1.002-.33-.237-.016-.387.057-.473.233-.054.11-.05.22.034.307.089.093.193.172.287.253-.203.126-.552.049-.744-.177-.238-.28-.232-.697.016-1.04.194-.268.47-.396.784-.451.556-.098 1.097-.005 1.628.157.357.11.704.254 1.062.361.722.215 1.457.283 2.2.119.184-.04.364-.103.541-.166.119-.042.23-.103.343-.164-.36.05-.716.023-1.07-.043-.366-.068-.725-.165-1.042-.37-.113-.074-.21-.176-.305-.273-.04-.042-.058-.105-.098-.18 1.061.294 2.075.182 3.079-.18-.163-.067-.328-.13-.488-.203-.613-.28-1.223-.567-1.836-.845-.284-.129-.582-.219-.898-.199-.12.008-.248.034-.357.084-.398.186-.439.604-.091.86-.133.065-.312.027-.438-.103a.7.7 0 0 1-.187-.713c.14-.497.504-.767.983-.888.697-.176 1.378-.089 2.045.154.394.143.785.296 1.183.423.411.132.834.12 1.255.036.03-.006.058-.017.114-.034-.057-.017-.091-.025-.124-.037a2.218 2.218 0 0 1-1.238-1.033c-.075-.135-.147-.272-.232-.401-.14-.215-.27-.294-.532-.342.194-.074.379-.068.561-.038.437.07.806.28 1.149.55.388.307.817.538 1.31.622.547.095 1.066-.01 1.558-.262a.398.398 0 0 0 .06-.04c.006-.006.01-.016.019-.031-.094-.011-.182-.016-.268-.034a1.439 1.439 0 0 1-.805-.47c-.216-.241-.244-.687-.068-.957a.505.505 0 0 1 .567-.222c-.05.041-.098.077-.14.12-.155.156-.158.335-.002.49.222.221.499.289.804.275.471-.02.92-.153 1.374-.267a4.262 4.262 0 0 1 1.226-.13c.062.003.091-.02.122-.07.16-.26.364-.473.654-.59.027-.012.056-.02.103-.035-.09.291.025.54.106.793.009.028.037.061.063.07.45.15.854.377 1.208.69.556-.43.832-.493 1.21-1.457.11.119.13.266.147.412a4.242 4.242 0 0 1-.28 2.103c-.038.096-.09.185-.14.287.056.045.114.099.179.143.39.27.782.537 1.17.81.104.072.2.157.29.245a.604.604 0 0 1 .19.454c-.002.071.035.088.09.1.178.042.354.024.53-.02a.294.294 0 0 1 .102-.013c-.182.283-.394.52-.774.564.008.065.012.132.025.196.104.483.359.89.644 1.28a10.648 10.648 0 0 0 1.644 1.763c.137.118.269.247.382.388a.751.751 0 0 1 .14.67c-.044.196-.057.4-.074.602-.018.209-.011.42-.04.628-.058.43-.275.653-.701.738-.092.019-.142.05-.18.143-.106.257-.338.334-.588.374-.335.052-.601-.062-.806-.328-.128-.166-.265-.326-.38-.501a1.53 1.53 0 0 0-.51-.487c-.644-.38-1.314-.704-2.032-.92a1.38 1.38 0 0 0-.397-.052c-.493.001-.983-.014-1.464-.14-.027-.006-.079.03-.1.06-.224.32-.38.675-.507 1.043-.221.644-.33 1.311-.414 1.984-.094.753-.178 1.509-.293 2.26a3.724 3.724 0 0 1-.684 1.63c-.16.221-.367.388-.621.495-.088.037-.143.02-.184-.066-.07-.145-.144-.289-.215-.434-.214-.437-.53-.792-.892-1.11-1.086-.957-2.345-1.595-3.723-2.002-.681-.202-1.374-.365-2.061-.546-.746-.197-1.435-.504-1.994-1.05a3.32 3.32 0 0 1-.414-.51c-.103-.15-.07-.216.111-.262.24-.06.485-.098.724-.16.228-.058.452-.133.677-.202l-.008-.038z" clip-rule="evenodd" fill="#979797" fill-rule="evenodd"/></g><g font-family="Envy Code R" letter-spacing="0" word-spacing="0"><g style="-inkscape-font-specification:'Envy Code R'" aria-label="HORSEHAIR VCO" font-weight="700" fill="#fff" font-size="12.5"><path d="M10 19.32h1.929v3.858h1.928v-3.857h1.93V28h-1.93v-3.857H11.93V28H10zM16.714 21.732q0-.544.244-.99.25-.445.66-.756.408-.317.927-.488.519-.177 1.062-.177t1.062.177q.519.17.928.488.409.311.653.757.25.445.25.989v3.857q0 .543-.25.989-.244.445-.653.763-.41.311-.928.488-.519.171-1.062.171t-1.062-.17q-.519-.178-.928-.49-.409-.317-.659-.762-.244-.446-.244-.989zm2.893-1.447q-.36 0-.555.092-.196.091-.287.274-.092.177-.11.452-.012.269-.012.629v3.857q0 .36.012.635.018.268.11.452.091.177.287.268.195.092.555.092.36 0 .555-.092.196-.091.287-.268.092-.184.104-.452.018-.275.018-.635v-3.857q0-.36-.018-.629-.012-.275-.104-.452-.091-.183-.287-.274-.195-.092-.555-.092zM27.352 24.082q1.905 3.9 1.905 3.918h-1.972q-.946-1.929-1.44-2.88-.489-.953-.489-.965V28h-1.928v-8.68h3.375q.5 0 .94.19.44.19.763.519.33.323.519.763t.189.94q0 .427-.14.811-.14.385-.391.696-.25.312-.592.531-.342.22-.739.312zm-1.031-.904q.299 0 .488-.11.19-.116.293-.31.104-.202.14-.465.043-.262.043-.561 0-.3-.043-.562-.036-.262-.14-.458-.104-.201-.293-.31-.19-.117-.488-.117h-.965v2.893zM32.07 21.732q0 .36.013.634.018.269.11.452.09.177.286.269.196.091.556.091.72 0 1.263.177.543.171.903.489.367.31.544.756.183.446.183.99 0 .542-.25.988-.245.445-.654.763-.409.311-.927.488-.52.171-1.062.171h-2.893v-.964h2.893q.36 0 .555-.092.195-.091.287-.268.092-.184.104-.452.018-.275.018-.635t-.018-.629q-.012-.274-.104-.451-.092-.183-.287-.275-.195-.091-.555-.091-.727 0-1.27-.171-.537-.177-.903-.489-.36-.317-.543-.763-.177-.445-.177-.988 0-.544.244-.99.25-.445.659-.756.409-.317.928-.488.518-.177 1.062-.177h2.893v.964h-2.893q-.36 0-.556.092-.195.091-.287.274-.091.177-.11.452-.012.269-.012.629zM36.855 19.32h5.787v.965h-3.858v2.893h2.893v.965h-2.893v2.893h3.858V28h-5.787zM43.57 19.32h1.928v3.858h1.929v-3.857h1.928V28h-1.928v-3.857h-1.929V28h-1.929zM50.283 21.732q0-.544.244-.99.25-.445.66-.756.408-.317.927-.488.52-.177 1.062-.177.543 0 1.062.177.52.17.928.488.409.311.653.757.25.445.25.989V28h-1.928v-3.857h-1.93V28h-1.928zm3.858 1.446v-1.446q0-.36-.019-.629-.012-.275-.103-.452-.092-.183-.287-.274-.196-.092-.556-.092-.36 0-.555.092-.195.091-.287.274-.092.177-.11.452-.012.269-.012.629v1.446zM56.997 27.036h1.929v-6.75h-1.929v-.965h5.786v.964h-1.929v6.75h1.93V28h-5.787zM67.635 24.082q1.905 3.9 1.905 3.918h-1.972q-.946-1.929-1.44-2.88-.488-.953-.488-.965V28h-1.93v-8.68h3.376q.5 0 .94.19.44.19.763.519.33.323.519.763.19.44.19.94 0 .427-.141.811-.14.385-.39.696-.251.312-.593.531-.342.22-.739.312zm-1.031-.904q.3 0 .488-.11.19-.116.293-.31.104-.202.14-.465.043-.262.043-.561 0-.3-.042-.562-.037-.262-.14-.458-.105-.201-.294-.31-.189-.117-.488-.117h-.964v2.893zM79.067 19.32l.965 5.787.964-5.786h1.953L81.021 28h-1.954l-1.928-8.68zM86.746 20.285q-.3 0-.489.116-.189.11-.293.311-.103.196-.146.458-.037.263-.037.562v3.857q0 .3.037.562.043.262.146.464.104.195.293.31.19.11.489.11.238 0 .415-.079.183-.085.305-.22.122-.14.183-.31.061-.172.061-.355h1.88q.018.36-.22.708t-.64.623q-.404.268-.922.433-.52.165-1.062.165-.544 0-1.062-.17-.52-.178-.928-.49-.41-.317-.66-.762-.243-.446-.243-.989v-3.857q0-.544.244-.99.25-.445.659-.756.409-.317.928-.488.518-.177 1.062-.177.543 0 1.062.165.518.164.921.439.403.269.641.617.238.347.22.708h-1.88q0-.184-.061-.354-.061-.171-.183-.306-.122-.14-.305-.22-.177-.085-.415-.085zM90.566 21.732q0-.544.245-.99.25-.445.659-.756.409-.317.927-.488.52-.177 1.062-.177.544 0 1.062.177.52.17.928.488.41.311.653.757.25.445.25.989v3.857q0 .543-.25.989-.244.445-.653.763-.409.311-.928.488-.518.171-1.062.171-.543 0-1.062-.17-.518-.178-.927-.49-.41-.317-.66-.762-.244-.446-.244-.989zm2.893-1.447q-.36 0-.555.092-.195.091-.287.274-.091.177-.11.452-.012.269-.012.629v3.857q0 .36.012.635.019.268.11.452.092.177.287.268.195.092.555.092.36 0 .556-.092.195-.091.287-.268.091-.184.104-.452.018-.275.018-.635v-3.857q0-.36-.018-.629-.013-.275-.104-.452-.092-.183-.287-.274-.195-.092-.556-.092z"/></g><g style="-inkscape-font-specification:'Envy Code R'" aria-label="V/OCTPITCHOCT AOCT BSHAPE ASHAPE BPW APW BMIX" font-weight="400" font-size="8"><path d="M21.234 39.445l.926 4.063.926-4.063h.617L22.47 45h-.617l-1.235-5.555zM27.383 39.445H28l-2.469 6.172h-.617zM29.21 40.988q0-.32.122-.601.121-.282.328-.489.211-.21.492-.332.282-.12.602-.12t.601.12q.282.121.489.332.21.207.332.489.12.281.12.601v2.469q0 .32-.12.602-.121.28-.332.492-.207.207-.489.328-.28.121-.601.121-.32 0-.602-.121-.28-.121-.492-.328-.207-.211-.328-.492-.121-.282-.121-.602zm1.544-.925q-.192 0-.36.074-.167.07-.296.199-.125.125-.2.293-.07.168-.07.36v2.468q0 .191.07.36.075.167.2.296.129.125.297.2.168.07.359.07.191 0 .36-.07.167-.075.292-.2.13-.129.2-.297.074-.168.074-.359v-2.469q0-.191-.075-.36-.07-.167-.199-.292-.125-.129-.293-.2-.168-.074-.36-.074zM35.063 40.063q-.2 0-.372.074-.171.07-.296.199-.125.125-.2.293-.07.168-.07.36v2.468q0 .191.07.36.075.167.2.296.125.125.296.2.172.07.371.07.165 0 .31-.043.144-.047.26-.13.122-.081.208-.194.09-.114.137-.25h.617q-.055.265-.192.492-.136.226-.34.39-.199.164-.453.258t-.547.094q-.328 0-.613-.121-.281-.121-.492-.328-.21-.211-.332-.492-.117-.282-.117-.602v-2.469q0-.32.117-.601.121-.282.332-.489.211-.21.492-.332.285-.12.614-.12.292 0 .546.093.258.094.457.262.2.164.336.39.137.227.192.489h-.617q-.047-.133-.137-.246-.086-.114-.203-.196-.117-.082-.266-.129-.144-.047-.309-.047zM39.04 40.063h-1.235v-.618h3.086v.617h-1.235V45h-.617zM65.234 45h-.617v-5.555h1.543q.32 0 .602.121.281.121.488.332.21.207.332.489.121.281.121.601 0 .32-.121.602-.121.281-.332.492-.207.207-.488.328-.282.121-.602.121h-.926zm.926-3.086q.192 0 .36-.07.168-.074.293-.2.128-.128.199-.296.074-.168.074-.36 0-.191-.074-.36-.07-.167-.2-.292-.124-.129-.292-.2-.168-.073-.36-.073h-.926v1.851zM68.914 44.383h1.234v-4.32h-1.234v-.618H72v.617h-1.234v4.32H72V45h-3.086zM74.445 40.063h-1.234v-.618h3.086v.617h-1.234V45h-.618zM79.063 40.063q-.2 0-.372.074-.171.07-.296.199-.125.125-.2.293-.07.168-.07.36v2.468q0 .191.07.36.075.167.2.296.125.125.296.2.172.07.371.07.165 0 .31-.043.144-.047.26-.13.122-.081.208-.194.09-.114.137-.25h.617q-.055.265-.192.492-.136.226-.34.39-.199.164-.453.258t-.546.094q-.329 0-.614-.121-.281-.121-.492-.328-.21-.211-.332-.492-.117-.282-.117-.602v-2.469q0-.32.117-.601.121-.282.332-.489.211-.21.492-.332.285-.12.614-.12.292 0 .546.093.258.094.457.262.2.164.336.39.137.227.192.489h-.617q-.047-.133-.137-.246-.086-.114-.203-.196-.117-.082-.266-.129-.144-.047-.308-.047zM81.805 39.445h.617v2.47h1.851v-2.47h.618V45h-.618v-2.469h-1.851V45h-.617zM19.617 83.988q0-.32.121-.601.121-.282.328-.489.211-.21.493-.332.28-.12.601-.12.32 0 .602.12.281.121.488.332.21.207.332.489.121.281.121.601v2.469q0 .32-.121.602-.121.28-.332.492-.207.207-.488.328-.282.121-.602.121t-.601-.121q-.282-.121-.493-.328-.207-.211-.328-.492-.12-.282-.12-.602zm1.543-.925q-.191 0-.36.074-.167.07-.296.199-.125.125-.2.293-.07.168-.07.36v2.468q0 .191.07.36.075.167.2.296.129.125.297.2.168.07.36.07.19 0 .359-.07.168-.075.293-.2.128-.129.199-.297.074-.168.074-.359v-2.469q0-.191-.074-.36-.07-.167-.2-.292-.125-.129-.292-.2-.168-.073-.36-.073zM25.469 83.063q-.2 0-.371.074-.172.07-.297.199-.125.125-.2.293-.07.168-.07.36v2.468q0 .191.07.36.075.167.2.296.125.125.297.2.172.07.37.07.165 0 .31-.043.144-.047.261-.13.121-.081.207-.194.09-.114.137-.25H27q-.055.265-.191.492-.137.226-.34.39-.2.165-.453.258-.254.094-.547.094-.328 0-.614-.121-.28-.121-.492-.328-.21-.211-.332-.492-.117-.282-.117-.602v-2.469q0-.32.117-.601.121-.282.332-.489.211-.21.492-.332.286-.12.614-.12.293 0 .547.093.257.094.457.262.199.164.336.39.136.227.191.489h-.617q-.047-.133-.137-.246-.086-.114-.203-.196-.117-.082-.266-.129-.144-.046-.308-.046zM29.445 83.063h-1.234v-.618h3.086v.618h-1.235V88h-.617zM36.805 83.988q0-.32.12-.601.122-.282.329-.489.21-.21.492-.332.281-.12.602-.12.32 0 .601.12.281.121.489.332.21.207.332.489.12.281.12.601V88h-.617v-2.469h-1.851V88h-.617zm2.468.926v-.926q0-.191-.074-.36-.07-.167-.199-.292-.125-.129-.293-.2-.168-.073-.36-.073-.19 0-.359.074-.168.07-.297.199-.125.125-.199.293-.07.168-.07.36v.925zM65.617 83.988q0-.32.121-.601.121-.282.328-.489.211-.21.493-.332.28-.12.601-.12.32 0 .602.12.281.121.488.332.21.207.332.489.121.281.121.601v2.469q0 .32-.121.602-.121.28-.332.492-.207.207-.488.328-.282.121-.602.121t-.601-.121q-.282-.121-.493-.328-.207-.211-.328-.492-.12-.282-.12-.602zm1.543-.925q-.191 0-.36.074-.167.07-.296.199-.125.125-.2.293-.07.168-.07.36v2.468q0 .191.07.36.075.167.2.296.129.125.297.2.168.07.36.07.19 0 .359-.07.168-.075.293-.2.128-.129.199-.297.074-.168.074-.359v-2.469q0-.191-.074-.36-.07-.167-.2-.292-.124-.129-.292-.2-.168-.073-.36-.073zM71.469 83.063q-.2 0-.371.074-.172.07-.297.199-.125.125-.2.293-.07.168-.07.36v2.468q0 .191.07.36.075.167.2.296.125.125.297.2.172.07.37.07.165 0 .31-.043.144-.047.261-.13.121-.081.207-.194.09-.114.137-.25H73q-.055.265-.191.492-.137.226-.34.39-.2.165-.453.258-.254.094-.547.094-.328 0-.614-.121-.28-.121-.492-.328-.21-.211-.332-.492-.117-.282-.117-.602v-2.469q0-.32.117-.601.121-.282.332-.489.211-.21.492-.332.286-.12.614-.12.293 0 .547.093.257.094.457.262.199.164.336.39.136.227.191.489h-.617q-.047-.133-.137-.246-.086-.114-.203-.196-.117-.082-.266-.129-.144-.046-.308-.046zM75.445 83.063h-1.234v-.618h3.086v.618h-1.234V88h-.618zM82.805 82.445h1.543q.32 0 .601.121.281.121.489.332.21.207.332.489.12.281.12.601 0 .383-.171.703-.168.32-.45.532.282.21.45.535.172.32.172.699 0 .32-.121.602-.122.28-.332.492-.208.207-.489.328-.281.121-.601.121h-1.543zm1.543 2.47q.191 0 .359-.071.168-.074.293-.2.129-.128.2-.296.073-.168.073-.36 0-.191-.074-.36-.07-.167-.199-.292-.125-.129-.293-.2-.168-.073-.36-.073h-.925v1.851zm0 2.468q.191 0 .359-.07.168-.075.293-.2.129-.129.2-.297.073-.168.073-.359 0-.191-.074-.36-.07-.167-.199-.292-.125-.13-.293-.2-.168-.074-.36-.074h-.925v1.852zM16.234 132.988q0 .192.07.36.075.168.2.297.129.125.297.199.168.07.36.07.32 0 .6.121.282.121.489.332.21.207.332.488.121.282.121.602t-.121.602q-.121.28-.332.492-.207.207-.488.328-.282.121-.602.121h-1.543v-.617h1.543q.192 0 .36-.07.168-.075.293-.2.128-.129.199-.297.074-.168.074-.359 0-.191-.074-.36-.07-.167-.2-.292-.125-.13-.292-.2-.168-.074-.36-.074-.32 0-.601-.12-.282-.122-.493-.329-.207-.21-.328-.492-.12-.281-.12-.602 0-.32.12-.601.121-.281.328-.489.211-.21.493-.332.28-.12.601-.12h1.543v.617H17.16q-.191 0-.36.074-.167.07-.296.199-.125.125-.2.293-.07.168-.07.36zM19.914 131.445h.617v2.47h1.852v-2.47H23V137h-.617v-2.469H20.53V137h-.617zM24.21 132.988q0-.32.122-.601.121-.282.328-.489.211-.21.492-.332.282-.12.602-.12t.601.12q.282.121.489.332.21.207.332.489.12.281.12.601V137h-.616v-2.469h-1.852V137h-.617zm2.47.926v-.926q0-.191-.075-.36-.07-.167-.199-.292-.125-.129-.293-.2-.168-.073-.36-.073-.19 0-.358.074-.168.07-.297.199-.125.125-.2.293-.07.168-.07.36v.925zM29.125 137h-.617v-5.555h1.543q.32 0 .601.121.282.122.489.332.21.207.332.489.12.281.12.601 0 .32-.12.602-.121.281-.332.492-.207.207-.489.328-.28.121-.601.121h-.926zm.926-3.086q.191 0 .36-.07.167-.074.292-.2.129-.128.2-.296.074-.168.074-.36 0-.191-.075-.36-.07-.167-.199-.292-.125-.129-.293-.2-.168-.073-.36-.073h-.925v1.851zM32.805 131.445h3.086v.618h-2.47v1.851h1.852v.617h-1.851v1.852h2.469V137h-3.086zM41.398 132.988q0-.32.122-.601.12-.282.328-.489.21-.21.492-.332.281-.12.601-.12.32 0 .602.12.281.121.488.332.211.207.332.489.121.281.121.601V137h-.617v-2.469h-1.851V137h-.618zm2.47.926v-.926q0-.191-.075-.36-.07-.167-.2-.292-.124-.129-.292-.2-.168-.073-.36-.073-.191 0-.359.074-.168.07-.297.199-.125.125-.2.293-.07.168-.07.36v.925zM63.234 132.988q0 .192.07.36.075.168.2.297.129.125.297.199.168.07.36.07.32 0 .6.121.282.121.489.332.21.207.332.488.121.282.121.602t-.121.602q-.121.28-.332.492-.207.207-.488.328-.282.121-.602.121h-1.543v-.617h1.543q.192 0 .36-.07.168-.075.293-.2.128-.129.199-.297.074-.168.074-.359 0-.191-.074-.36-.07-.167-.2-.292-.124-.13-.292-.2-.168-.074-.36-.074-.32 0-.601-.12-.282-.122-.493-.329-.207-.21-.328-.492-.12-.281-.12-.602 0-.32.12-.601.121-.281.328-.489.211-.21.493-.332.28-.12.601-.12h1.543v.617H64.16q-.191 0-.36.074-.167.07-.296.199-.125.125-.2.293-.07.168-.07.36zM66.914 131.445h.617v2.47h1.852v-2.47H70V137h-.617v-2.469H67.53V137h-.617zM71.21 132.988q0-.32.122-.601.121-.282.328-.489.211-.21.492-.332.282-.12.602-.12t.601.12q.282.121.489.332.21.207.332.489.12.281.12.601V137h-.616v-2.469h-1.852V137h-.617zm2.47.926v-.926q0-.191-.075-.36-.07-.167-.199-.292-.125-.129-.293-.2-.168-.073-.36-.073-.19 0-.358.074-.168.07-.297.199-.125.125-.2.293-.07.168-.07.36v.925zM76.125 137h-.617v-5.555h1.543q.32 0 .601.121.282.122.489.332.21.207.332.489.12.281.12.601 0 .32-.12.602-.121.281-.332.492-.207.207-.489.328-.28.121-.601.121h-.926zm.926-3.086q.191 0 .36-.07.167-.074.292-.2.129-.128.2-.296.074-.168.074-.36 0-.191-.075-.36-.07-.167-.199-.292-.125-.129-.293-.2-.168-.073-.36-.073h-.925v1.851zM79.805 131.445h3.086v.618h-2.47v1.851h1.852v.617h-1.851v1.852h2.469V137h-3.086zM88.398 131.445h1.543q.32 0 .602.121.281.122.488.332.211.207.332.489.121.281.121.601 0 .383-.171.703-.168.32-.45.532.282.21.45.535.171.32.171.699 0 .32-.12.602-.122.28-.333.492-.207.207-.488.328-.281.121-.602.121h-1.543zm1.543 2.47q.192 0 .36-.071.168-.074.293-.2.129-.128.199-.296.074-.168.074-.36 0-.191-.074-.36-.07-.167-.2-.292-.124-.129-.292-.2-.168-.073-.36-.073h-.925v1.851zm0 2.468q.192 0 .36-.07.168-.075.293-.2.129-.129.199-.297.074-.168.074-.359 0-.191-.074-.36-.07-.167-.2-.292-.124-.13-.292-.2-.168-.074-.36-.074h-.925v1.852zM22.234 209h-.617v-5.555h1.543q.32 0 .602.121.281.122.488.332.21.207.332.489.121.281.121.601 0 .32-.121.602-.121.281-.332.492-.207.207-.488.328-.282.121-.602.121h-.926zm.926-3.086q.192 0 .36-.07.168-.074.293-.2.128-.128.199-.296.074-.168.074-.36 0-.191-.074-.36-.07-.167-.2-.292-.125-.129-.292-.2-.168-.073-.36-.073h-.926v1.851zM28.383 203.445H29V209h-.617l-.926-1.852-.926 1.852h-.617v-5.555h.617v4.32l.926-1.617.926 1.618zM34.508 204.988q0-.32.12-.601.122-.282.329-.489.211-.21.492-.332.281-.12.602-.12.32 0 .601.12.282.121.489.332.21.207.332.489.12.281.12.601V209h-.616v-2.469h-1.852V209h-.617zm2.469.926v-.926q0-.191-.075-.36-.07-.167-.199-.292-.125-.129-.293-.2-.168-.073-.36-.073-.19 0-.359.074-.168.07-.296.199-.125.125-.2.293-.07.168-.07.36v.925zM67.234 209h-.617v-5.555h1.543q.32 0 .602.121.281.122.488.332.21.207.332.489.121.281.121.601 0 .32-.121.602-.121.281-.332.492-.207.207-.488.328-.282.121-.602.121h-.926zm.926-3.086q.192 0 .36-.07.168-.074.293-.2.128-.128.199-.296.074-.168.074-.36 0-.191-.074-.36-.07-.167-.2-.292-.124-.129-.292-.2-.168-.073-.36-.073h-.926v1.851zM73.383 203.445H74V209h-.617l-.926-1.852-.926 1.852h-.617v-5.555h.617v4.32l.926-1.617.926 1.618zM79.508 203.445h1.543q.32 0 .601.121.282.122.489.332.21.207.332.489.12.281.12.601 0 .383-.171.703-.168.32-.45.532.282.21.45.535.172.32.172.699 0 .32-.121.602-.121.28-.332.492-.207.207-.489.328-.28.121-.601.121h-1.543zm1.543 2.47q.191 0 .36-.071.167-.074.292-.2.129-.128.2-.296.074-.168.074-.36 0-.191-.075-.36-.07-.167-.199-.292-.125-.129-.293-.2-.168-.073-.36-.073h-.925v1.851zm0 2.468q.191 0 .36-.07.167-.075.292-.2.129-.129.2-.297.074-.168.074-.359 0-.191-.075-.36-.07-.167-.199-.292-.125-.13-.293-.2-.168-.074-.36-.074h-.925v1.852zM49.086 254.68l-.926 1.617-.926-1.617V259h-.617v-5.555h.617l.926 1.852.926-1.852h.617V259h-.617zM50.914 258.383h1.234v-4.32h-1.234v-.618H54v.618h-1.234v4.32H54V259h-3.086zM56.754 255.469l.898-2.024h.649l-1.211 2.778L58.3 259h-.648l-.898-2.02-.899 2.02h-.644l1.207-2.777-1.211-2.778h.648z"/></g><g style="-inkscape-font-specification:'Envy Code R'" aria-label="OUTSIN" font-weight="400" fill="#fff" font-size="8"><path d="M24.117 311.988q0-.32.121-.601.121-.282.328-.489.211-.21.493-.332.28-.12.601-.12.32 0 .602.12.281.122.488.332.21.207.332.489.121.281.121.601v2.469q0 .32-.121.602-.121.28-.332.492-.207.207-.488.328-.282.121-.602.121t-.601-.121q-.282-.121-.493-.328-.207-.211-.328-.492-.12-.282-.12-.602zm1.543-.926q-.191 0-.36.075-.167.07-.296.199-.125.125-.2.293-.07.168-.07.36v2.468q0 .191.07.36.075.167.2.296.129.125.297.2.168.07.36.07.19 0 .359-.07.168-.075.293-.2.128-.129.199-.297.074-.168.074-.359v-2.469q0-.191-.074-.36-.07-.167-.2-.292-.125-.129-.292-.2-.168-.074-.36-.074zM28.414 310.445h.617v4.012q0 .191.07.36.075.167.2.296.129.125.297.2.168.07.359.07.191 0 .36-.07.167-.075.292-.2.13-.129.2-.297.074-.168.074-.359v-4.012h.617v4.012q0 .32-.121.602-.121.28-.332.492-.207.207-.488.328-.282.121-.602.121t-.602-.121q-.28-.121-.492-.328-.207-.211-.328-.492-.12-.282-.12-.602v-1.543zM33.945 311.063h-1.234v-.618h3.086v.618h-1.234V316h-.618zM70.234 311.988q0 .192.07.36.075.168.2.297.129.125.297.199.168.07.36.07.32 0 .6.121.282.121.489.332.21.207.332.488.121.282.121.602t-.121.602q-.121.28-.332.492-.207.207-.488.328-.282.121-.602.121h-1.543v-.617h1.543q.192 0 .36-.07.168-.075.293-.2.128-.129.199-.297.074-.168.074-.359 0-.191-.074-.36-.07-.167-.2-.292-.124-.13-.292-.2-.168-.074-.36-.074-.32 0-.601-.12-.282-.122-.493-.329-.207-.21-.328-.492-.12-.281-.12-.602 0-.32.12-.601.121-.282.328-.489.211-.21.493-.332.28-.12.601-.12h1.543v.617H71.16q-.191 0-.36.074-.167.07-.296.199-.125.125-.2.293-.07.168-.07.36zM73.914 315.383h1.234v-4.32h-1.234v-.618H77v.618h-1.234v4.32H77V316h-3.086zM78.21 316v-5.555h.618l1.852 4.11v-4.11h.617V316h-.617l-1.852-4.11V316z"/></g></g></svg>