<?xml version="1.0" encoding="UTF-8" standalone="no"?>
<!-- Created with Inkscape (http://www.inkscape.org/) -->

<svg
   xmlns:dc="http://purl.org/dc/elements/1.1/"
   xmlns:cc="http://creativecommons.org/ns#"
   xmlns:rdf="http://www.w3.org/1999/02/22-rdf-syntax-ns#"
   xmlns:svg="http://www.w3.org/2000/svg"
   xmlns="http://www.w3.org/2000/svg"
   xmlns:sodipodi="http://sodipodi.sourceforge.net/DTD/sodipodi-0.dtd"
   xmlns:inkscape="http://www.inkscape.org/namespaces/inkscape"
   width="27.007812"
   height="26.884766"
   viewBox="0 0 7.1458169 7.1132612"
   version="1.1"
   id="svg2554"
   inkscape:version="0.92.2 (5c3e80d, 2017-08-06)"
   sodipodi:docname="BarkKnob26.svg">
  <defs
     id="defs2548" />
  <sodipodi:namedview
     id="base"
     pagecolor="#ffffff"
     bordercolor="#666666"
     borderopacity="1.0"
     inkscape:pageopacity="0.0"
     inkscape:pageshadow="2"
     inkscape:zoom="22.4"
     inkscape:cx="6.9032549"
     inkscape:cy="15.51336"
     inkscape:document-units="px"
     inkscape:current-layer="layer1"
     showgrid="false"
     inkscape:snap-global="false"
     units="px" />
  <metadata
     id="metadata2551">
    <rdf:RDF>
      <cc:Work
         rdf:about="">
        <dc:format>image/svg+xml</dc:format>
        <dc:type
           rdf:resource="http://purl.org/dc/dcmitype/StillImage" />
        <dc:title />
      </cc:Work>
    </rdf:RDF>
  </metadata>
  <g
     inkscape:label="Knob"
     inkscape:groupmode="layer"
     id="layer1"
     transform="translate(-142.32583,-186.87027)">
    <path
       style="opacity:1;fill:#e6e6e6;fill-opacity:1;fill-rule:evenodd;stroke:none;stroke-width:0.15426569;stroke-linecap:butt;stroke-linejoin:round;stroke-miterlimit:4;stroke-dasharray:none;stroke-dashoffset:0;stroke-opacity:1;paint-order:fill markers stroke"
       d="M 15.818359,0.12304688 13.910156,11.240234 13.671875,13.759766 H 13.335938 L 13.09375,11.214844 11.193359,0.14648438 A 13.547585,13.504331 89.977372 0 0 0,13.466797 13.547585,13.504331 89.977372 0 0 13.509766,27.007812 13.547585,13.504331 89.977372 0 0 27.007812,13.455078 13.547585,13.504331 89.977372 0 0 15.818359,0.12304688 Z"
       id="path2363"
       transform="matrix(0.26458333,0,0,0.26458333,142.32583,186.83771)"
       inkscape:connector-curvature="0" />
    <path
       style="opacity:1;fill:#343434;fill-opacity:1;fill-rule:evenodd;stroke:none;stroke-width:0.94499993;stroke-linecap:butt;stroke-linejoin:round;stroke-miterlimit:4;stroke-dasharray:none;stroke-dashoffset:0;stroke-opacity:1;paint-order:fill markers stroke"
       d="m -13.705078,-2.2324219 a 2.6785714,2.6785714 0 0 0 -2.679688,2.6777344 2.6785714,2.6785714 0 0 0 2.679688,2.6796875 2.6785714,2.6785714 0 0 0 2.677734,-2.6796875 2.6785714,2.6785714 0 0 0 -2.677734,-2.6777344 z m 0,0.2675781 a 2.4107141,2.4107141 0 0 1 2.410156,2.4101563 2.4107141,2.4107141 0 0 1 -2.410156,2.4121094 2.4107141,2.4107141 0 0 1 -2.410156,-2.4121094 2.4107141,2.4107141 0 0 1 2.410156,-2.4101563 z"
       id="path3664"
       inkscape:connector-curvature="0"
       transform="matrix(0.26458333,0,0,0.26458333,142.42038,186.9322)" />
  </g>
  <g
     inkscape:groupmode="layer"
     id="layer2"
     inkscape:label="Needle"
     style="display:none"
     transform="translate(0.09455,0.06193385)">
    <path
       transform="translate(-142.42038,-186.9322)"
       inkscape:connector-curvature="0"
       id="path2361"
       d="m 145.89621,187.07197 -0.0225,0.0657 -0.003,-4.5e-4 v 3.46727 c 1e-5,0.005 0.005,0.01 0.0126,0.01 l 0.036,2e-5 c 0.006,-1e-5 0.0126,-0.004 0.0126,-0.01 v -3.46728 l -0.003,3.4e-4 -0.0225,-0.0657 z"
       style="opacity:1;fill:#373737;fill-opacity:1;fill-rule:evenodd;stroke:none;stroke-width:0.11562635;stroke-linecap:butt;stroke-linejoin:round;stroke-miterlimit:4;stroke-dasharray:none;stroke-dashoffset:0;stroke-opacity:1;paint-order:fill markers stroke" />
  </g>
</svg>
