<?xml version="1.0" encoding="UTF-8" standalone="no"?>
<!-- Created with Inkscape (http://www.inkscape.org/) -->

<svg
   xmlns:dc="http://purl.org/dc/elements/1.1/"
   xmlns:cc="http://creativecommons.org/ns#"
   xmlns:rdf="http://www.w3.org/1999/02/22-rdf-syntax-ns#"
   xmlns:svg="http://www.w3.org/2000/svg"
   xmlns="http://www.w3.org/2000/svg"
   xmlns:sodipodi="http://sodipodi.sourceforge.net/DTD/sodipodi-0.dtd"
   xmlns:inkscape="http://www.inkscape.org/namespaces/inkscape"
   width="50.799999mm"
   height="128.4993mm"
   viewBox="0 0 50.799999 128.4993"
   version="1.1"
   id="svg28799"
   inkscape:version="0.92.2 5c3e80d, 2017-08-06"
   sodipodi:docname="Audio.svg">
  <defs
     id="defs28793" />
  <sodipodi:namedview
     id="base"
     pagecolor="#ffffff"
     bordercolor="#666666"
     borderopacity="1.0"
     inkscape:pageopacity="0.0"
     inkscape:pageshadow="2"
     inkscape:zoom="0.98994949"
     inkscape:cx="173.75816"
     inkscape:cy="245.43317"
     inkscape:document-units="mm"
     inkscape:current-layer="layer2"
     showgrid="false"
     fit-margin-top="0"
     fit-margin-left="0"
     fit-margin-right="0"
     fit-margin-bottom="0"
     inkscape:window-width="1600"
     inkscape:window-height="882"
     inkscape:window-x="0"
     inkscape:window-y="18"
     inkscape:window-maximized="0"
     inkscape:snap-bbox="true"
     inkscape:bbox-nodes="true" />
  <metadata
     id="metadata28796">
    <rdf:RDF>
      <cc:Work
         rdf:about="">
        <dc:format>image/svg+xml</dc:format>
        <dc:type
           rdf:resource="http://purl.org/dc/dcmitype/StillImage" />
        <dc:title></dc:title>
      </cc:Work>
    </rdf:RDF>
  </metadata>
  <g
     inkscape:label="Layer 1"
     inkscape:groupmode="layer"
     id="layer1"
     transform="translate(88.9,-244.84559)"
     style="display:inline">
    <path
       inkscape:connector-curvature="0"
       id="path3819"
       d="m -88.806295,244.93792 h 50.613966 v 128.31327 h -50.613966 z m 0,0"
       style="fill:#e6e6e6;fill-opacity:1;fill-rule:nonzero;stroke:none;stroke-width:0.35277775" />
    <path
       inkscape:connector-curvature="0"
       id="path3821"
       d="m -38.1,244.84559 h -50.8 v 128.4993 h 50.8 z m -0.186039,128.31189 H -88.712587 V 245.03163 h 50.426548 z m 0,0"
       style="fill:#ababab;fill-opacity:1;fill-rule:nonzero;stroke:none;stroke-width:0.35277775" />
    <path
       inkscape:connector-curvature="0"
       id="path3847"
       d="m -66.251942,369.20251 c -0.117133,0 -0.224621,-0.0661 -0.275608,-0.17088 l -1.003212,-2.00504 c -0.07579,-0.15297 -0.01379,-0.33762 0.139182,-0.41341 0.151585,-0.0772 0.337619,-0.0152 0.413409,0.1378 l 0.726229,1.45246 0.726224,-1.45246 c 0.07579,-0.15296 0.261828,-0.21497 0.413414,-0.1378 0.15296,0.0758 0.214972,0.26044 0.137802,0.41341 l -1.001833,2.00504 c -0.05237,0.10474 -0.158474,0.17088 -0.275607,0.17088"
       style="fill:#000000;fill-opacity:1;fill-rule:nonzero;stroke:none;stroke-width:0.35277775" />
    <path
       inkscape:connector-curvature="0"
       id="path3849"
       d="m -60.74668,369.20251 c -0.117136,0 -0.223245,-0.0661 -0.275608,-0.17088 l -1.00321,-2.00504 c -0.07579,-0.15297 -0.01378,-0.33762 0.139181,-0.41341 0.15158,-0.0772 0.337619,-0.0152 0.413409,0.1378 l 0.726228,1.45246 0.727604,-1.45246 c 0.07579,-0.15296 0.260448,-0.21497 0.413409,-0.1378 0.151585,0.0758 0.213598,0.26044 0.137806,0.41341 l -1.00321,2.00504 c -0.05237,0.10474 -0.158475,0.17088 -0.275609,0.17088"
       style="fill:#000000;fill-opacity:1;fill-rule:nonzero;stroke:none;stroke-width:0.35277775" />
    <path
       inkscape:connector-curvature="0"
       id="path3851"
       d="m -63.349795,369.20251 c -0.72347,0 -1.310513,-0.58842 -1.310513,-1.31189 0,-0.72209 0.587043,-1.31052 1.310513,-1.31052 0.286632,0 0.558105,0.091 0.78686,0.26183 0.136426,0.10335 0.163985,0.29628 0.06063,0.43271 -0.101974,0.13642 -0.294897,0.16398 -0.431324,0.0606 -0.121267,-0.0896 -0.264583,-0.13918 -0.416168,-0.13918 -0.383095,0 -0.694531,0.31282 -0.694531,0.69453 0,0.38309 0.311436,0.69453 0.694531,0.69453 0.151585,0 0.294901,-0.0482 0.416168,-0.13918 0.136427,-0.10198 0.32935,-0.0744 0.431324,0.062 0.103353,0.13643 0.07579,0.32935 -0.06063,0.43132 -0.228755,0.17226 -0.500228,0.26321 -0.78686,0.26321"
       style="fill:#000000;fill-opacity:1;fill-rule:nonzero;stroke:none;stroke-width:0.35277775" />
    <path
       inkscape:connector-curvature="0"
       id="path3853"
       d="m -62.929492,367.87546 c 0,0.22186 -0.179147,0.40101 -0.399634,0.40101 -0.221862,0 -0.401009,-0.17915 -0.401009,-0.40101 0,-0.22186 0.179147,-0.40101 0.401009,-0.40101 0.220487,0 0.399634,0.17915 0.399634,0.40101"
       style="fill:#000000;fill-opacity:1;fill-rule:nonzero;stroke:none;stroke-width:0.35277775" />
    <path
       inkscape:connector-curvature="0"
       style="fill:#000000;fill-opacity:1;stroke:none;stroke-width:0.35277775"
       d="m -70.706464,254.12899 c 0,0.17088 0.126778,0.30868 0.297657,0.30868 0.137801,0 0.248045,-0.0772 0.303166,-0.20395 l 0.203951,-0.49058 h 1.306379 l 0.198437,0.46854 c 0.06064,0.13229 0.159855,0.22599 0.314195,0.22599 0.170875,0 0.308681,-0.14331 0.308681,-0.31419 0,-0.0441 -0.01101,-0.0882 -0.03306,-0.13229 l -1.03628,-2.33164 c -0.07166,-0.15985 -0.198438,-0.25907 -0.374827,-0.25907 h -0.03859 c -0.176389,0 -0.30868,0.0992 -0.380336,0.25907 l -1.030775,2.33164 c -0.02205,0.0441 -0.03858,0.0937 -0.03858,0.1378 z m 1.047309,-0.95911 0.41341,-0.97565 0.407899,0.97565 z m 0,0"
       id="path26666" />
    <path
       inkscape:connector-curvature="0"
       style="fill:#000000;fill-opacity:1;stroke:none;stroke-width:0.35277775"
       d="m -66.11777,254.45421 c 0.793749,0 1.300868,-0.43546 1.300868,-1.33394 v -1.37253 c 0,-0.1819 -0.148827,-0.32521 -0.33073,-0.32521 -0.181899,0 -0.325215,0.14331 -0.325215,0.32521 v 1.39458 c 0,0.47404 -0.242535,0.71106 -0.639409,0.71106 -0.396875,0 -0.63941,-0.24804 -0.63941,-0.7276 v -1.37804 c 0,-0.1819 -0.143316,-0.32521 -0.325219,-0.32521 -0.181899,0 -0.325215,0.14331 -0.325215,0.32521 v 1.39458 c 0,0.87092 0.485069,1.31189 1.28433,1.31189 z m 0,0"
       id="path26662" />
    <path
       inkscape:connector-curvature="0"
       style="fill:#000000;fill-opacity:1;stroke:none;stroke-width:0.35277775"
       d="m -64.088593,254.08489 c 0,0.18191 0.143316,0.32522 0.325219,0.32522 h 0.826823 c 0.931553,0 1.576475,-0.65043 1.576475,-1.48277 v -0.005 c 0,-0.83784 -0.644922,-1.47725 -1.576475,-1.47725 h -0.826823 c -0.181903,0 -0.325219,0.14882 -0.325219,0.33072 z m 0.650434,-0.26458 v -1.78594 h 0.501608 c 0.534678,0 0.892968,0.36932 0.892968,0.89297 v 0.011 c 0,0.52366 -0.35829,0.88194 -0.892968,0.88194 z m 0,0"
       id="path26650" />
    <path
       inkscape:connector-curvature="0"
       style="fill:#000000;fill-opacity:1;stroke:none;stroke-width:0.35277775"
       d="m -60.742094,254.10694 c 0,0.18191 0.143316,0.33073 0.325215,0.33073 0.181903,0 0.32522,-0.14882 0.32522,-0.33073 v -2.3592 c 0,-0.1819 -0.143317,-0.32521 -0.32522,-0.32521 -0.181899,0 -0.325215,0.14331 -0.325215,0.32521 z m 0,0"
       id="path26654" />
    <path
       inkscape:connector-curvature="0"
       style="fill:#000000;fill-opacity:1;stroke:none;stroke-width:0.35277775"
       d="m -57.900115,254.45972 c 0.915017,0 1.576475,-0.68902 1.576475,-1.53238 v -0.005 c 0,-0.84336 -0.655947,-1.52687 -1.570966,-1.52687 -0.915017,0 -1.576475,0.68903 -1.576475,1.53238 v 0.011 c 0,0.84336 0.655947,1.52135 1.570966,1.52135 z m 0.0055,-0.60082 c -0.523652,0 -0.89848,-0.42444 -0.89848,-0.93156 v -0.005 c 0,-0.50712 0.363802,-0.92604 0.892969,-0.92604 0.523653,0 0.892969,0.42443 0.892969,0.93155 v 0.011 c 0,0.50712 -0.363802,0.92053 -0.887458,0.92053 z m 0,0"
       id="path26658" />
    <path
       inkscape:connector-curvature="0"
       id="path3871"
       d="m -41.258466,349.26368 c 0,-0.54984 -0.449239,-0.99908 -1.000453,-0.99908 h -7.681185 c -0.549841,0 -1.000459,0.44924 -1.000459,0.99908 v 12.17359 c 0,0.54983 0.450618,0.99908 1.000459,0.99908 h 7.681185 c 0.551214,0 1.000453,-0.44925 1.000453,-0.99908 z m 0,0"
       style="fill:#000000;fill-opacity:1;fill-rule:nonzero;stroke:none;stroke-width:0.35277775" />
    <path
       inkscape:connector-curvature="0"
       id="path3873"
       d="m -52.858792,349.26368 c 0,-0.54984 -0.449241,-0.99908 -0.999077,-0.99908 h -7.682561 c -0.549838,0 -0.99908,0.44924 -0.99908,0.99908 v 12.17359 c 0,0.54983 0.449242,0.99908 0.99908,0.99908 h 7.682561 c 0.549836,0 0.999077,-0.44925 0.999077,-0.99908 z m 0,0"
       style="fill:#000000;fill-opacity:1;fill-rule:nonzero;stroke:none;stroke-width:0.35277775" />
    <path
       inkscape:connector-curvature="0"
       id="path3875"
       d="m -64.459115,349.26368 c 0,-0.54984 -0.449241,-0.99908 -0.999077,-0.99908 h -7.682565 c -0.549836,0 -0.999078,0.44924 -0.999078,0.99908 v 12.17359 c 0,0.54983 0.449242,0.99908 0.999078,0.99908 h 7.682565 c 0.549836,0 0.999077,-0.44925 0.999077,-0.99908 z m 0,0"
       style="fill:#000000;fill-opacity:1;fill-rule:nonzero;stroke:none;stroke-width:0.35277775" />
    <path
       inkscape:connector-curvature="0"
       id="path3877"
       d="m -76.058064,349.26368 c 0,-0.54984 -0.450617,-0.99908 -1.000456,-0.99908 h -7.681182 c -0.551216,0 -1.000457,0.44924 -1.000457,0.99908 v 12.17359 c 0,0.54983 0.449241,0.99908 1.000457,0.99908 h 7.681182 c 0.549839,0 1.000456,-0.44925 1.000456,-0.99908 z m 0,0"
       style="fill:#000000;fill-opacity:1;fill-rule:nonzero;stroke:none;stroke-width:0.35277775" />
    <path
       inkscape:connector-curvature="0"
       style="fill:#ffffff;fill-opacity:1;stroke:none;stroke-width:0.35277775"
       d="m -80.910483,351.37939 c 0.352778,0 0.600826,-0.21498 0.600826,-0.55673 v -0.005 c 0,-0.35829 -0.248048,-0.51263 -0.562239,-0.51263 -0.09371,0 -0.14883,0.011 -0.214976,0.0276 l 0.02205,-0.27561 h 0.540191 c 0.08268,0 0.15434,-0.0717 0.15434,-0.15434 0,-0.0827 -0.07166,-0.15434 -0.15434,-0.15434 h -0.700042 c -0.08268,0 -0.14883,0.0662 -0.15434,0.14883 l -0.03306,0.5457 c -0.0055,0.0606 0.01654,0.10473 0.06615,0.14332 0.07166,0.0496 0.110243,0.0717 0.159851,0.0717 0.04961,0 0.110243,-0.0441 0.242534,-0.0441 0.170879,0 0.286632,0.0827 0.286632,0.22049 0,0.14331 -0.110243,0.226 -0.259069,0.226 -0.115757,0 -0.209462,-0.0331 -0.30868,-0.10473 -0.02755,-0.022 -0.05512,-0.0331 -0.09371,-0.0331 -0.0937,0 -0.165365,0.0772 -0.165365,0.17087 0,0.0606 0.02755,0.10474 0.06615,0.13781 0.132292,0.0882 0.286632,0.14883 0.507118,0.14883 z m 0,0"
       id="path26646" />
    <path
       inkscape:connector-curvature="0"
       style="fill:#ffffff;fill-opacity:1;stroke:none;stroke-width:0.35277775"
       d="m -69.280458,351.37939 c 0.347267,0 0.61185,-0.226 0.61185,-0.55673 v -0.005 c 0,-0.33073 -0.242534,-0.50712 -0.562239,-0.50712 -0.159855,0 -0.253559,0.0496 -0.336243,0.0992 0.02755,-0.20947 0.126781,-0.36932 0.325218,-0.36932 0.09922,0 0.165365,0.022 0.237021,0.0661 0.02755,0.011 0.05512,0.022 0.08819,0.022 0.08819,0 0.165364,-0.0717 0.165364,-0.15986 0,-0.0717 -0.03858,-0.12126 -0.0937,-0.15434 -0.09371,-0.0551 -0.226,-0.0937 -0.38585,-0.0937 -0.479559,0 -0.705556,0.38034 -0.705556,0.87643 v 0.005 c 0,0.3142 0.07717,0.49058 0.192924,0.60634 0.110243,0.11024 0.253559,0.17088 0.463021,0.17088 z m -0.01101,-0.30317 c -0.176389,0 -0.281118,-0.10473 -0.281118,-0.23703 v -0.005 c 0,-0.1378 0.09922,-0.23151 0.275607,-0.23151 0.170875,0 0.275608,0.0992 0.275608,0.23151 v 0.005 c 0,0.13781 -0.09922,0.23703 -0.270097,0.23703 z m 0,0"
       id="path26642" />
    <path
       inkscape:connector-curvature="0"
       style="fill:#ffffff;fill-opacity:1;stroke:none;stroke-width:0.35277775"
       d="m -58.127831,351.20851 c 0,0.0992 0.0882,0.15434 0.181903,0.15434 0.07166,0 0.121267,-0.033 0.170876,-0.11576 l 0.644922,-1.16857 c 0.02755,-0.0551 0.04961,-0.12127 0.04961,-0.17088 0,-0.10473 -0.06063,-0.15985 -0.159851,-0.15985 h -0.870921 c -0.08819,0 -0.15434,0.0661 -0.15434,0.15434 0,0.0827 0.06615,0.14883 0.15434,0.14883 h 0.611846 l -0.595312,1.04731 c -0.01654,0.0331 -0.03306,0.0772 -0.03306,0.11024 z m 0,0"
       id="path26638" />
    <path
       inkscape:connector-curvature="0"
       style="fill:#ffffff;fill-opacity:1;stroke:none;stroke-width:0.35277775"
       d="m -46.100053,351.37388 c 0.358294,0 0.617363,-0.17088 0.617363,-0.47405 0,-0.19293 -0.0937,-0.29766 -0.259069,-0.38034 0.126777,-0.0772 0.203946,-0.17639 0.203946,-0.35278 0,-0.24804 -0.220485,-0.44097 -0.56224,-0.44097 -0.341752,0 -0.562239,0.19293 -0.562239,0.44097 0,0.17639 0.07717,0.27561 0.203951,0.35278 -0.170878,0.0772 -0.259072,0.19293 -0.259072,0.38585 v 0.006 c 0,0.28112 0.264583,0.46302 0.61736,0.46302 z m 0,-0.97014 c -0.1378,0 -0.23151,-0.0882 -0.23151,-0.19844 v -0.006 c 0,-0.0992 0.0882,-0.18741 0.23151,-0.18741 0.143317,0 0.231511,0.0937 0.231511,0.19293 0,0.11575 -0.0937,0.19844 -0.231511,0.19844 z m 0,0.67799 c -0.176387,0 -0.275606,-0.0882 -0.275606,-0.19844 v -0.005 c 0,-0.12127 0.115756,-0.19293 0.275606,-0.19293 0.159856,0 0.275609,0.0717 0.275609,0.19293 v 0.005 c 0,0.11576 -0.09922,0.19844 -0.275609,0.19844 z m 0,0"
       id="path26634" />
    <path
       inkscape:connector-curvature="0"
       id="path3975"
       d="m -41.258466,333.26465 c 0,-0.55121 -0.449239,-1.00045 -1.000453,-1.00045 h -7.681185 c -0.549841,0 -1.000459,0.44924 -1.000459,1.00045 v 12.17222 c 0,0.54983 0.450618,1.00045 1.000459,1.00045 h 7.681185 c 0.551214,0 1.000453,-0.45062 1.000453,-1.00045 z m 0,0"
       style="fill:#000000;fill-opacity:1;fill-rule:nonzero;stroke:none;stroke-width:0.35277775" />
    <path
       inkscape:connector-curvature="0"
       id="path3977"
       d="m -52.858792,333.26465 c 0,-0.55121 -0.449241,-1.00045 -0.999077,-1.00045 h -7.682561 c -0.549838,0 -0.99908,0.44924 -0.99908,1.00045 v 12.17222 c 0,0.54983 0.449242,1.00045 0.99908,1.00045 h 7.682561 c 0.549836,0 0.999077,-0.45062 0.999077,-1.00045 z m 0,0"
       style="fill:#000000;fill-opacity:1;fill-rule:nonzero;stroke:none;stroke-width:0.35277775" />
    <path
       inkscape:connector-curvature="0"
       id="path3979"
       d="m -64.459115,333.26465 c 0,-0.55121 -0.449241,-1.00045 -0.999077,-1.00045 h -7.682565 c -0.549836,0 -0.999078,0.44924 -0.999078,1.00045 v 12.17222 c 0,0.54983 0.449242,1.00045 0.999078,1.00045 h 7.682565 c 0.549836,0 0.999077,-0.45062 0.999077,-1.00045 z m 0,0"
       style="fill:#000000;fill-opacity:1;fill-rule:nonzero;stroke:none;stroke-width:0.35277775" />
    <path
       inkscape:connector-curvature="0"
       id="path3981"
       d="m -76.058064,333.26465 c 0,-0.55121 -0.450617,-1.00045 -1.000456,-1.00045 h -7.681182 c -0.551216,0 -1.000457,0.44924 -1.000457,1.00045 v 12.17222 c 0,0.54983 0.449241,1.00045 1.000457,1.00045 h 7.681182 c 0.549839,0 1.000456,-0.45062 1.000456,-1.00045 z m 0,0"
       style="fill:#000000;fill-opacity:1;fill-rule:nonzero;stroke:none;stroke-width:0.35277775" />
    <path
       inkscape:connector-curvature="0"
       style="fill:#ffffff;fill-opacity:1;stroke:none;stroke-width:0.35277775"
       d="m -80.975243,335.19123 c 0,0.0937 0.07717,0.17088 0.176389,0.17088 0.0937,0 0.170875,-0.0772 0.170875,-0.17088 v -1.29535 c 0,-0.0937 -0.07717,-0.17088 -0.170875,-0.17088 h -0.0055 c -0.04961,0 -0.09922,0.011 -0.165364,0.0275 l -0.226,0.0661 c -0.07166,0.022 -0.121267,0.0827 -0.121267,0.15434 0,0.0827 0.07166,0.14883 0.15434,0.14883 0.02205,0 0.0441,-0.005 0.06615,-0.011 l 0.121267,-0.0276 z m 0,0"
       id="path26582" />
    <path
       inkscape:connector-curvature="0"
       style="fill:#ffffff;fill-opacity:1;stroke:none;stroke-width:0.35277775"
       d="m -69.91495,335.18572 c 0,0.10473 0.07717,0.16537 0.187413,0.16537 h 0.87092 c 0.08819,0 0.15434,-0.0661 0.15434,-0.14883 0,-0.0882 -0.06615,-0.15434 -0.15434,-0.15434 h -0.556729 l 0.259073,-0.20395 c 0.286631,-0.22049 0.424434,-0.35278 0.424434,-0.62287 v -0.005 c 0,-0.29766 -0.220486,-0.49059 -0.551216,-0.49059 -0.242534,0 -0.396875,0.0827 -0.523652,0.23151 -0.02755,0.0331 -0.0441,0.0717 -0.0441,0.11024 0,0.0937 0.07166,0.16537 0.159851,0.16537 0.05512,0 0.09922,-0.0275 0.121268,-0.0551 0.08819,-0.0937 0.159854,-0.1378 0.264583,-0.1378 0.121267,0 0.214975,0.0717 0.214975,0.20946 0,0.13229 -0.07717,0.22048 -0.281121,0.38585 l -0.451997,0.37483 c -0.06063,0.0441 -0.0937,0.10473 -0.0937,0.17639 z m 0,0"
       id="path26578" />
    <path
       inkscape:connector-curvature="0"
       style="fill:#ffffff;fill-opacity:1;stroke:none;stroke-width:0.35277775"
       d="m -57.700243,335.37865 c 0.358293,0 0.578778,-0.22049 0.578778,-0.52366 v -0.005 c 0,-0.29765 -0.209462,-0.4134 -0.429948,-0.45199 l 0.31419,-0.29766 c 0.06615,-0.0606 0.104733,-0.11024 0.104733,-0.19844 0,-0.0937 -0.07717,-0.15434 -0.176387,-0.15434 h -0.782727 c -0.08268,0 -0.15434,0.0662 -0.15434,0.14883 0,0.0827 0.07166,0.15434 0.15434,0.15434 h 0.490579 l -0.308678,0.3142 c -0.05512,0.0551 -0.07717,0.0937 -0.07717,0.14331 0,0.0827 0.06615,0.14883 0.14883,0.14883 h 0.05512 c 0.198437,0 0.31419,0.0772 0.31419,0.20395 v 0.005 c 0,0.12127 -0.0937,0.19844 -0.225996,0.19844 -0.126781,0 -0.220486,-0.0441 -0.314193,-0.12127 -0.02755,-0.022 -0.06063,-0.0441 -0.110244,-0.0441 -0.0937,0 -0.170876,0.0772 -0.170876,0.17087 0,0.0496 0.02755,0.0992 0.06063,0.12678 0.132292,0.11024 0.30317,0.1819 0.529167,0.1819 z m 0,0"
       id="path26574" />
    <path
       inkscape:connector-curvature="0"
       style="fill:#ffffff;fill-opacity:1;stroke:none;stroke-width:0.35277775"
       d="m -45.97369,335.19675 c 0,0.0937 0.07166,0.16536 0.165364,0.16536 0.09371,0 0.170879,-0.0717 0.170879,-0.16536 v -0.19293 h 0.08268 c 0.08268,0 0.143317,-0.0606 0.143317,-0.14331 0,-0.0772 -0.06063,-0.14332 -0.143317,-0.14332 h -0.08268 v -0.82682 c 0,-0.0937 -0.07717,-0.17088 -0.170879,-0.17088 -0.10473,0 -0.154339,0.0441 -0.220485,0.12127 l -0.694531,0.81028 c -0.05512,0.0606 -0.08268,0.11576 -0.08268,0.19293 0,0.0937 0.07717,0.15985 0.170876,0.15985 h 0.661456 z m -0.429948,-0.47956 0.429948,-0.50161 v 0.50161 z m 0,0"
       id="path26570" />
    <path
       inkscape:connector-curvature="0"
       style="fill:#000000;fill-opacity:1;stroke:none;stroke-width:0.35277775"
       d="m -69.474133,328.91013 c 0.606336,0 1.036284,-0.46302 1.036284,-1.01975 v -0.005 c 0,-0.55673 -0.424434,-1.01975 -1.030771,-1.01975 -0.606336,0 -1.036284,0.46853 -1.036284,1.02526 v 0.005 c 0,0.55672 0.424434,1.01423 1.030771,1.01423 z m 0.0055,-0.31971 c -0.391365,0 -0.672483,-0.3197 -0.672483,-0.70004 v -0.005 c 0,-0.38585 0.275608,-0.70005 0.666969,-0.70005 0.391364,0 0.672483,0.31971 0.672483,0.70556 v 0.005 c 0,0.38033 -0.275608,0.69453 -0.666969,0.69453 z m 0,0"
       id="path26518" />
    <path
       inkscape:connector-curvature="0"
       style="fill:#000000;fill-opacity:1;stroke:none;stroke-width:0.35277775"
       d="m -67.138109,328.91013 c 0.518142,0 0.848871,-0.29766 0.848871,-0.88746 v -0.96462 c 0,-0.0937 -0.07717,-0.17088 -0.170875,-0.17088 -0.09922,0 -0.176389,0.0772 -0.176389,0.17088 v 0.98116 c 0,0.3638 -0.187413,0.5457 -0.496094,0.5457 -0.30868,0 -0.501607,-0.19292 -0.501607,-0.56224 v -0.96462 c 0,-0.0937 -0.07166,-0.17088 -0.170875,-0.17088 -0.09922,0 -0.176389,0.0772 -0.176389,0.17088 v 0.98116 c 0,0.57326 0.330729,0.87092 0.843358,0.87092 z m 0,0"
       id="path26510" />
    <path
       inkscape:connector-curvature="0"
       style="fill:#000000;fill-opacity:1;stroke:none;stroke-width:0.35277775"
       d="m -65.267636,328.7172 c 0,0.0992 0.07717,0.17639 0.176389,0.17639 0.0937,0 0.176389,-0.0772 0.176389,-0.17639 v -1.49379 h 0.479555 c 0.08819,0 0.159854,-0.0717 0.159854,-0.15986 0,-0.0882 -0.07166,-0.15985 -0.159854,-0.15985 h -1.311892 c -0.0882,0 -0.159851,0.0717 -0.159851,0.15985 0,0.0882 0.07166,0.15986 0.159851,0.15986 h 0.479559 z m 0,0"
       id="path26514" />
    <path
       inkscape:connector-curvature="0"
       style="fill:#000000;fill-opacity:1;stroke:none;stroke-width:0.35277775"
       d="m -63.879875,328.7172 c 0,0.0992 0.07717,0.17639 0.176389,0.17639 0.0937,0 0.170875,-0.0772 0.170875,-0.17639 v -0.47404 h 0.391364 c 0.435458,0 0.793751,-0.23151 0.793751,-0.678 v -0.005 c 0,-0.39687 -0.292147,-0.65594 -0.755168,-0.65594 h -0.600822 c -0.09922,0 -0.176389,0.0717 -0.176389,0.17087 z m 0.347264,-0.78824 v -0.71106 h 0.402388 c 0.25907,0 0.429948,0.12126 0.429948,0.35277 v 0.005 c 0,0.20395 -0.165364,0.35278 -0.429948,0.35278 z m 0,0"
       id="path26506" />
    <path
       inkscape:connector-curvature="0"
       style="fill:#000000;fill-opacity:1;stroke:none;stroke-width:0.35277775"
       d="m -61.127058,328.91013 c 0.518142,0 0.848871,-0.29766 0.848871,-0.88746 v -0.96462 c 0,-0.0937 -0.07717,-0.17088 -0.170876,-0.17088 -0.09922,0 -0.176387,0.0772 -0.176387,0.17088 v 0.98116 c 0,0.3638 -0.187415,0.5457 -0.496094,0.5457 -0.308681,0 -0.501608,-0.19292 -0.501608,-0.56224 v -0.96462 c 0,-0.0937 -0.07166,-0.17088 -0.170876,-0.17088 -0.09922,0 -0.176389,0.0772 -0.176389,0.17088 v 0.98116 c 0,0.57326 0.330729,0.87092 0.843359,0.87092 z m 0,0"
       id="path26502" />
    <path
       inkscape:connector-curvature="0"
       style="fill:#000000;fill-opacity:1;stroke:none;stroke-width:0.35277775"
       d="m -59.257996,328.7172 c 0,0.0992 0.07717,0.17639 0.176389,0.17639 0.0937,0 0.176388,-0.0772 0.176388,-0.17639 v -1.49379 h 0.479557 c 0.08819,0 0.159853,-0.0717 0.159853,-0.15986 0,-0.0882 -0.07166,-0.15985 -0.159853,-0.15985 h -1.311894 c -0.08819,0 -0.159851,0.0717 -0.159851,0.15985 0,0.0882 0.07166,0.15986 0.159851,0.15986 h 0.47956 z m 0,0"
       id="path26498" />
    <path
       inkscape:connector-curvature="0"
       style="fill:#000000;fill-opacity:1;stroke:none;stroke-width:0.35277775"
       d="m -57.187566,328.90462 c 0.413412,0 0.705557,-0.22049 0.705557,-0.5898 v -0.005 c 0,-0.32522 -0.214977,-0.47405 -0.633899,-0.57878 -0.380336,-0.0882 -0.474046,-0.15985 -0.474046,-0.30868 v -0.005 c 0,-0.13229 0.121269,-0.23702 0.32522,-0.23702 0.154339,0 0.297656,0.0551 0.451996,0.14883 0.02755,0.0165 0.05512,0.0276 0.0937,0.0276 0.08819,0 0.159853,-0.0717 0.159853,-0.15986 0,-0.0661 -0.03305,-0.11575 -0.07717,-0.1378 -0.176389,-0.12127 -0.374827,-0.18742 -0.622876,-0.18742 -0.391361,0 -0.677992,0.23703 -0.677992,0.57327 v 0.005 c 0,0.3638 0.237021,0.49058 0.661458,0.5898 0.363802,0.0882 0.446482,0.16536 0.446482,0.30317 v 0.005 c 0,0.14882 -0.137801,0.24804 -0.352777,0.24804 -0.214972,0 -0.391361,-0.0716 -0.551215,-0.20394 -0.02204,-0.0165 -0.05512,-0.0275 -0.10473,-0.0275 -0.08819,0 -0.159853,0.0717 -0.159853,0.15985 0,0.0551 0.02755,0.10473 0.06615,0.13229 0.220485,0.16537 0.474043,0.24805 0.74414,0.24805 z m 0,0"
       id="path26494" />
    <path
       inkscape:connector-curvature="0"
       style="fill:#000000;fill-opacity:1;stroke:none;stroke-width:0.35277775"
       d="m -80.945609,298.2157 c 0,0.0772 0.06615,0.1378 0.137802,0.1378 0.08268,0 0.143316,-0.0606 0.143316,-0.1378 v -1.36151 c 0,-0.0772 -0.06063,-0.1378 -0.143316,-0.1378 -0.0441,0 -0.08268,0.011 -0.137802,0.0276 l -0.242535,0.0772 c -0.06064,0.0165 -0.09922,0.0606 -0.09922,0.12127 0,0.0606 0.06063,0.11576 0.126778,0.11576 0.01101,0 0.03306,0 0.04961,-0.005 l 0.165365,-0.0496 z m 0,0"
       id="path26490" />
    <path
       inkscape:connector-curvature="0"
       style="fill:#000000;fill-opacity:1;stroke:none;stroke-width:0.35277775"
       d="m -80.907068,313.37809 c 0.347264,0 0.589798,-0.22049 0.589798,-0.54571 0,-0.34175 -0.248045,-0.50711 -0.562239,-0.50711 -0.104729,0 -0.176389,0.0165 -0.253559,0.0441 l 0.02755,-0.37483 h 0.600823 c 0.06615,0 0.126781,-0.0551 0.126781,-0.12127 0,-0.0717 -0.06064,-0.12678 -0.126781,-0.12678 h -0.727604 c -0.06615,0 -0.121268,0.0496 -0.126778,0.12678 l -0.03305,0.57878 c -0.0055,0.0496 0.01101,0.0937 0.05512,0.12126 0.04961,0.0386 0.08819,0.0551 0.132292,0.0551 0.0441,0 0.115753,-0.0551 0.275607,-0.0551 0.192924,0 0.330729,0.0992 0.330729,0.26459 v 0.005 c 0,0.17087 -0.132291,0.2756 -0.314194,0.2756 -0.126778,0 -0.237021,-0.0441 -0.347264,-0.13229 -0.02205,-0.0165 -0.04961,-0.0276 -0.08268,-0.0276 -0.07166,0 -0.132292,0.0606 -0.132292,0.13229 0,0.0496 0.02205,0.0827 0.05512,0.11025 0.132292,0.10473 0.297656,0.17639 0.512632,0.17639 z m 0,0"
       id="path26486" />
    <path
       inkscape:connector-curvature="0"
       style="fill:#000000;fill-opacity:1;stroke:none;stroke-width:0.35277775"
       d="m -69.903065,298.21018 c 0,0.0827 0.06614,0.13229 0.148826,0.13229 h 0.909507 c 0.07166,0 0.126778,-0.0551 0.126778,-0.12126 0,-0.0717 -0.05512,-0.12678 -0.126778,-0.12678 h -0.650434 l 0.330729,-0.27561 c 0.286632,-0.23151 0.418924,-0.36931 0.418924,-0.62287 0,-0.28663 -0.214976,-0.47956 -0.529167,-0.47956 -0.253559,0 -0.402389,0.0937 -0.534681,0.25907 -0.01654,0.022 -0.02755,0.0551 -0.02755,0.0827 0,0.0717 0.05512,0.13229 0.126777,0.13229 0.0441,0 0.07717,-0.022 0.09922,-0.0441 0.09922,-0.12126 0.187413,-0.1819 0.314194,-0.1819 0.148827,0 0.25907,0.0937 0.25907,0.25356 0,0.14331 -0.07717,0.24805 -0.297656,0.42995 l -0.496094,0.41892 c -0.04961,0.0441 -0.07166,0.0882 -0.07166,0.14332 z m 0,0"
       id="path26458" />
    <path
       inkscape:connector-curvature="0"
       style="fill:#000000;fill-opacity:1;stroke:none;stroke-width:0.35277775"
       d="m -69.281027,313.37809 c 0.33624,0 0.595313,-0.226 0.595313,-0.54571 v -0.005 c 0,-0.3197 -0.248048,-0.5016 -0.556729,-0.5016 -0.192924,0 -0.303167,0.0772 -0.385851,0.15985 0.01101,-0.29214 0.14883,-0.51263 0.385851,-0.51263 0.104733,0 0.187413,0.0331 0.275608,0.0937 0.02205,0.011 0.0441,0.0165 0.07166,0.0165 0.07166,0 0.132292,-0.0551 0.132292,-0.12678 0,-0.0606 -0.02755,-0.0937 -0.07166,-0.12127 -0.104729,-0.0717 -0.237021,-0.11575 -0.396875,-0.11575 -0.457507,0 -0.689017,0.38034 -0.689017,0.87092 v 0.006 c 0,0.32522 0.07166,0.49058 0.192924,0.61185 0.110243,0.11024 0.248048,0.17088 0.446484,0.17088 z m -0.0055,-0.24805 c -0.198437,0 -0.330729,-0.12127 -0.330729,-0.28663 0,-0.15434 0.126781,-0.28663 0.325219,-0.28663 0.198437,0 0.325215,0.12126 0.325215,0.28111 v 0.005 c 0,0.16537 -0.121267,0.28664 -0.319705,0.28664 z m 0,0"
       id="path26454" />
    <path
       inkscape:connector-curvature="0"
       style="fill:#000000;fill-opacity:1;stroke:none;stroke-width:0.35277775"
       d="m -57.697074,298.37004 c 0.336243,0 0.56224,-0.21498 0.56224,-0.50712 v -0.005 c 0,-0.29766 -0.225997,-0.41892 -0.468532,-0.452 l 0.374827,-0.39136 c 0.04961,-0.0496 0.08268,-0.0882 0.08268,-0.15434 0,-0.0717 -0.06063,-0.12127 -0.143317,-0.12127 h -0.821309 c -0.06615,0 -0.121267,0.0551 -0.121267,0.12127 0,0.0661 0.05512,0.12127 0.121267,0.12127 h 0.58429 l -0.374827,0.40238 c -0.0441,0.0441 -0.06064,0.0772 -0.06064,0.11576 0,0.0661 0.05512,0.12127 0.121266,0.12127 h 0.06064 c 0.220488,0 0.369313,0.0882 0.369313,0.24804 v 0.005 c 0,0.14332 -0.121266,0.24254 -0.281117,0.24254 -0.148831,0 -0.264583,-0.0551 -0.363802,-0.15434 -0.02204,-0.022 -0.05512,-0.0386 -0.09371,-0.0386 -0.07165,0 -0.1378,0.0662 -0.1378,0.1378 0,0.0386 0.02204,0.0772 0.04961,0.0992 0.126781,0.12678 0.308682,0.20947 0.540192,0.20947 z m 0,0"
       id="path26426" />
    <path
       inkscape:connector-curvature="0"
       style="fill:#000000;fill-opacity:1;stroke:none;stroke-width:0.35277775"
       d="m -58.082484,313.23477 c 0,0.0827 0.06615,0.12678 0.143317,0.12678 0.06063,0 0.104732,-0.0276 0.137805,-0.0937 l 0.661458,-1.26228 c 0.02755,-0.0441 0.03858,-0.0937 0.03858,-0.13229 0,-0.0827 -0.04961,-0.12678 -0.126778,-0.12678 h -0.898482 c -0.07165,0 -0.126778,0.0551 -0.126778,0.12127 0,0.0717 0.05512,0.12678 0.126778,0.12678 h 0.694531 l -0.622872,1.15203 c -0.01654,0.0276 -0.02755,0.0661 -0.02755,0.0882 z m 0,0"
       id="path26422" />
    <path
       inkscape:connector-curvature="0"
       style="fill:#000000;fill-opacity:1;stroke:none;stroke-width:0.35277775"
       d="m -45.939318,298.22121 c 0,0.0772 0.06063,0.13229 0.137805,0.13229 0.07717,0 0.132292,-0.0551 0.132292,-0.13229 v -0.23702 h 0.126778 c 0.06614,0 0.115755,-0.0496 0.115755,-0.11576 0,-0.0661 -0.04961,-0.11575 -0.115755,-0.11575 h -0.126778 v -0.904 c 0,-0.0772 -0.06064,-0.13229 -0.132292,-0.13229 -0.08268,0 -0.126783,0.0276 -0.17639,0.0882 l -0.755165,0.89848 c -0.03859,0.0441 -0.06063,0.0937 -0.06063,0.14883 0,0.0772 0.06063,0.13229 0.1378,0.13229 h 0.716582 z m -0.523653,-0.46853 0.523653,-0.63941 v 0.63941 z m 0,0"
       id="path26394" />
    <path
       inkscape:connector-curvature="0"
       style="fill:#000000;fill-opacity:1;stroke:none;stroke-width:0.35277775"
       d="m -46.10019,313.37257 c 0.352779,0 0.611849,-0.17638 0.611849,-0.46302 v -0.006 c 0,-0.19292 -0.110244,-0.30316 -0.286634,-0.38585 0.132292,-0.0717 0.23151,-0.17639 0.23151,-0.35828 v -0.005 c 0,-0.24805 -0.237019,-0.42995 -0.556725,-0.42995 -0.319704,0 -0.556729,0.18741 -0.556729,0.42995 v 0.005 c 0,0.18189 0.09922,0.28663 0.231511,0.35828 -0.17639,0.0772 -0.286631,0.19844 -0.286631,0.39137 v 0.006 c 0,0.27561 0.259072,0.45751 0.611849,0.45751 z m 0,-0.94809 c -0.165365,0 -0.286631,-0.0992 -0.286631,-0.23702 v -0.005 c 0,-0.12127 0.115752,-0.226 0.286631,-0.226 0.170875,0 0.286633,0.10473 0.286633,0.226 v 0.005 c 0,0.13781 -0.121269,0.23702 -0.286633,0.23702 z m 0,0.71107 c -0.20946,0 -0.336243,-0.11024 -0.336243,-0.23702 v -0.005 c 0,-0.14883 0.14883,-0.24254 0.336243,-0.24254 0.192923,0 0.33624,0.0937 0.33624,0.24254 v 0.005 c 0,0.13229 -0.126778,0.23702 -0.33624,0.23702 z m 0,0"
       id="path26390" />
    <path
       inkscape:connector-curvature="0"
       style="fill:#000000;fill-opacity:1;stroke:none;stroke-width:0.35277775"
       d="m -68.763766,293.60392 c 0,0.0992 0.07166,0.17639 0.170875,0.17639 0.09922,0 0.176389,-0.0772 0.176389,-0.17639 v -1.65916 c 0,-0.0937 -0.07717,-0.17088 -0.176389,-0.17088 -0.09922,0 -0.170875,0.0772 -0.170875,0.17088 z m 0,0"
       id="path26350" />
    <path
       inkscape:connector-curvature="0"
       style="fill:#000000;fill-opacity:1;stroke:none;stroke-width:0.35277775"
       d="m -67.822029,293.60943 c 0,0.0937 0.07717,0.17088 0.170875,0.17088 0.09371,0 0.170878,-0.0772 0.170878,-0.17088 v -1.25126 l 1.014236,1.31189 c 0.04961,0.0606 0.09922,0.10474 0.1819,0.10474 h 0.01654 c 0.0937,0 0.165365,-0.0772 0.165365,-0.17088 v -1.65916 c 0,-0.0937 -0.07166,-0.17088 -0.170879,-0.17088 -0.0937,0 -0.170875,0.0772 -0.170875,0.17088 v 1.21268 l -0.986677,-1.27882 c -0.0441,-0.0606 -0.0937,-0.0992 -0.181899,-0.0992 h -0.03306 c -0.09922,0 -0.176388,0.0772 -0.176388,0.17087 z m 0,0"
       id="path26346" />
    <path
       inkscape:connector-curvature="0"
       style="fill:#000000;fill-opacity:1;stroke:none;stroke-width:0.35277775"
       d="m -65.510347,293.60392 c 0,0.0992 0.07717,0.17639 0.176389,0.17639 0.0937,0 0.170875,-0.0772 0.170875,-0.17639 v -0.47405 h 0.391364 c 0.435459,0 0.79375,-0.23151 0.79375,-0.67799 v -0.006 c 0,-0.39688 -0.292146,-0.65594 -0.755166,-0.65594 h -0.600823 c -0.09922,0 -0.176389,0.0717 -0.176389,0.17087 z m 0.347264,-0.78824 v -0.71107 h 0.402389 c 0.259069,0 0.429948,0.12127 0.429948,0.35278 v 0.006 c 0,0.20395 -0.165365,0.35278 -0.429948,0.35278 z m 0,0"
       id="path26334" />
    <path
       inkscape:connector-curvature="0"
       style="fill:#000000;fill-opacity:1;stroke:none;stroke-width:0.35277775"
       d="m -62.758377,293.79684 c 0.518143,0 0.848872,-0.29765 0.848872,-0.88745 v -0.96463 c 0,-0.0937 -0.07717,-0.17088 -0.170876,-0.17088 -0.09922,0 -0.17639,0.0772 -0.17639,0.17088 v 0.98117 c 0,0.3638 -0.187412,0.5457 -0.496092,0.5457 -0.308681,0 -0.501608,-0.19293 -0.501608,-0.56224 v -0.96463 c 0,-0.0937 -0.07166,-0.17088 -0.170875,-0.17088 -0.09922,0 -0.176389,0.0772 -0.176389,0.17088 v 0.98117 c 0,0.57326 0.330729,0.87091 0.843358,0.87091 z m 0,0"
       id="path26338" />
    <path
       inkscape:connector-curvature="0"
       style="fill:#000000;fill-opacity:1;stroke:none;stroke-width:0.35277775"
       d="m -60.890722,293.60392 c 0,0.0992 0.07717,0.17639 0.176388,0.17639 0.0937,0 0.176389,-0.0772 0.176389,-0.17639 v -1.49379 h 0.479555 c 0.0882,0 0.159856,-0.0717 0.159856,-0.15986 0,-0.0882 -0.07166,-0.15985 -0.159856,-0.15985 h -1.311891 c -0.08819,0 -0.159851,0.0717 -0.159851,0.15985 0,0.0882 0.07166,0.15986 0.159851,0.15986 h 0.479559 z m 0,0"
       id="path26342" />
    <path
       inkscape:connector-curvature="0"
       style="fill:#000000;fill-opacity:1;stroke:none;stroke-width:0.35277775"
       d="m -58.819719,293.79133 c 0.413409,0 0.705556,-0.22048 0.705556,-0.5898 v -0.005 c 0,-0.32521 -0.214976,-0.47404 -0.633899,-0.57877 -0.380339,-0.0882 -0.474046,-0.15986 -0.474046,-0.30868 v -0.005 c 0,-0.1323 0.121266,-0.23702 0.325218,-0.23702 0.154342,0 0.297656,0.0551 0.451998,0.14882 0.02755,0.0165 0.05512,0.0276 0.0937,0.0276 0.08819,0 0.159853,-0.0717 0.159853,-0.15985 0,-0.0661 -0.03305,-0.11575 -0.07717,-0.1378 -0.176387,-0.12127 -0.374825,-0.18742 -0.622874,-0.18742 -0.391361,0 -0.677992,0.23703 -0.677992,0.57327 v 0.006 c 0,0.3638 0.237019,0.49058 0.661458,0.5898 0.363802,0.0882 0.446482,0.16536 0.446482,0.30317 v 0.005 c 0,0.14882 -0.137803,0.24804 -0.352777,0.24804 -0.214974,0 -0.391361,-0.0717 -0.551217,-0.20395 -0.02204,-0.0165 -0.05512,-0.0275 -0.104727,-0.0275 -0.0882,0 -0.159856,0.0717 -0.159856,0.15986 0,0.0551 0.02755,0.10473 0.06615,0.13229 0.220488,0.16536 0.474046,0.24804 0.744144,0.24804 z m 0,0"
       id="path26330" />
  </g>
  <g
     inkscape:groupmode="layer"
     id="layer2"
     inkscape:label="widgets"
     style="display:none">
    <rect
       style="opacity:1;vector-effect:none;fill:#ffff00;fill-opacity:0.50196078;fill-rule:evenodd;stroke:none;stroke-width:0.38020268;stroke-linecap:round;stroke-linejoin:miter;stroke-miterlimit:4;stroke-dasharray:none;stroke-dashoffset:0;stroke-opacity:1;paint-order:normal"
       id="rect29342"
       width="43.999382"
       height="28.000349"
       x="3.4009969"
       y="14.837341"
       rx="0"
       ry="0" />
    <rect
       ry="0"
       rx="0"
       y="55.5308"
       x="3.894335"
       height="8.21173"
       width="8.2117281"
       id="rect30149"
       style="opacity:1;vector-effect:none;fill:#00ff00;fill-opacity:0.50196078;fill-rule:evenodd;stroke:none;stroke-width:0.08894975;stroke-linecap:round;stroke-linejoin:miter;stroke-miterlimit:4;stroke-dasharray:none;stroke-dashoffset:0;stroke-opacity:1;paint-order:normal" />
    <rect
       style="opacity:1;vector-effect:none;fill:#00ff00;fill-opacity:0.50196078;fill-rule:evenodd;stroke:none;stroke-width:0.08894975;stroke-linecap:round;stroke-linejoin:miter;stroke-miterlimit:4;stroke-dasharray:none;stroke-dashoffset:0;stroke-opacity:1;paint-order:normal"
       id="rect30151"
       width="8.2117281"
       height="8.21173"
       x="15.494663"
       y="55.5308"
       rx="0"
       ry="0" />
    <rect
       ry="0"
       rx="0"
       y="55.5308"
       x="27.094986"
       height="8.21173"
       width="8.2117281"
       id="rect30153"
       style="opacity:1;vector-effect:none;fill:#00ff00;fill-opacity:0.50196078;fill-rule:evenodd;stroke:none;stroke-width:0.08894975;stroke-linecap:round;stroke-linejoin:miter;stroke-miterlimit:4;stroke-dasharray:none;stroke-dashoffset:0;stroke-opacity:1;paint-order:normal" />
    <rect
       style="opacity:1;vector-effect:none;fill:#00ff00;fill-opacity:0.50196078;fill-rule:evenodd;stroke:none;stroke-width:0.08894975;stroke-linecap:round;stroke-linejoin:miter;stroke-miterlimit:4;stroke-dasharray:none;stroke-dashoffset:0;stroke-opacity:1;paint-order:normal"
       id="rect30155"
       width="8.2117281"
       height="8.21173"
       x="38.695312"
       y="55.5308"
       rx="0"
       ry="0" />
    <rect
       ry="0"
       rx="0"
       y="70.144897"
       x="3.8943348"
       height="8.21173"
       width="8.2117281"
       id="rect30157"
       style="opacity:1;vector-effect:none;fill:#00ff00;fill-opacity:0.50196078;fill-rule:evenodd;stroke:none;stroke-width:0.08894975;stroke-linecap:round;stroke-linejoin:miter;stroke-miterlimit:4;stroke-dasharray:none;stroke-dashoffset:0;stroke-opacity:1;paint-order:normal" />
    <rect
       style="opacity:1;vector-effect:none;fill:#00ff00;fill-opacity:0.50196078;fill-rule:evenodd;stroke:none;stroke-width:0.08894975;stroke-linecap:round;stroke-linejoin:miter;stroke-miterlimit:4;stroke-dasharray:none;stroke-dashoffset:0;stroke-opacity:1;paint-order:normal"
       id="rect30159"
       width="8.2117281"
       height="8.21173"
       x="15.494663"
       y="70.144897"
       rx="0"
       ry="0" />
    <rect
       ry="0"
       rx="0"
       y="70.144897"
       x="27.094986"
       height="8.21173"
       width="8.2117281"
       id="rect30161"
       style="opacity:1;vector-effect:none;fill:#00ff00;fill-opacity:0.50196078;fill-rule:evenodd;stroke:none;stroke-width:0.08894975;stroke-linecap:round;stroke-linejoin:miter;stroke-miterlimit:4;stroke-dasharray:none;stroke-dashoffset:0;stroke-opacity:1;paint-order:normal" />
    <rect
       style="opacity:1;vector-effect:none;fill:#00ff00;fill-opacity:0.50196078;fill-rule:evenodd;stroke:none;stroke-width:0.08894975;stroke-linecap:round;stroke-linejoin:miter;stroke-miterlimit:4;stroke-dasharray:none;stroke-dashoffset:0;stroke-opacity:1;paint-order:normal"
       id="rect30163"
       width="8.2117281"
       height="8.21173"
       x="38.695312"
       y="70.144897"
       rx="0"
       ry="0" />
    <rect
       style="opacity:1;vector-effect:none;fill:#0000ff;fill-opacity:0.50196078;fill-rule:evenodd;stroke:none;stroke-width:0.08894975;stroke-linecap:round;stroke-linejoin:miter;stroke-miterlimit:4;stroke-dasharray:none;stroke-dashoffset:0;stroke-opacity:1;paint-order:normal"
       id="rect30167"
       width="8.2117281"
       height="8.21173"
       x="3.8929532"
       y="92.143898"
       rx="0"
       ry="0" />
    <rect
       ry="0"
       rx="0"
       y="92.143898"
       x="15.49328"
       height="8.21173"
       width="8.2117281"
       id="rect30169"
       style="opacity:1;vector-effect:none;fill:#0000ff;fill-opacity:0.50196078;fill-rule:evenodd;stroke:none;stroke-width:0.08894975;stroke-linecap:round;stroke-linejoin:miter;stroke-miterlimit:4;stroke-dasharray:none;stroke-dashoffset:0;stroke-opacity:1;paint-order:normal" />
    <rect
       style="opacity:1;vector-effect:none;fill:#0000ff;fill-opacity:0.50196078;fill-rule:evenodd;stroke:none;stroke-width:0.08894975;stroke-linecap:round;stroke-linejoin:miter;stroke-miterlimit:4;stroke-dasharray:none;stroke-dashoffset:0;stroke-opacity:1;paint-order:normal"
       id="rect30171"
       width="8.2117281"
       height="8.21173"
       x="27.093605"
       y="92.143898"
       rx="0"
       ry="0" />
    <rect
       ry="0"
       rx="0"
       y="92.143898"
       x="38.693932"
       height="8.21173"
       width="8.2117281"
       id="rect30173"
       style="opacity:1;vector-effect:none;fill:#0000ff;fill-opacity:0.50196078;fill-rule:evenodd;stroke:none;stroke-width:0.08894975;stroke-linecap:round;stroke-linejoin:miter;stroke-miterlimit:4;stroke-dasharray:none;stroke-dashoffset:0;stroke-opacity:1;paint-order:normal" />
    <rect
       style="opacity:1;vector-effect:none;fill:#0000ff;fill-opacity:0.50196078;fill-rule:evenodd;stroke:none;stroke-width:0.08894975;stroke-linecap:round;stroke-linejoin:miter;stroke-miterlimit:4;stroke-dasharray:none;stroke-dashoffset:0;stroke-opacity:1;paint-order:normal"
       id="rect30175"
       width="8.2117281"
       height="8.21173"
       x="3.894335"
       y="108.1443"
       rx="0"
       ry="0" />
    <rect
       ry="0"
       rx="0"
       y="108.1443"
       x="15.494662"
       height="8.21173"
       width="8.2117281"
       id="rect30177"
       style="opacity:1;vector-effect:none;fill:#0000ff;fill-opacity:0.50196078;fill-rule:evenodd;stroke:none;stroke-width:0.08894975;stroke-linecap:round;stroke-linejoin:miter;stroke-miterlimit:4;stroke-dasharray:none;stroke-dashoffset:0;stroke-opacity:1;paint-order:normal" />
    <rect
       style="opacity:1;vector-effect:none;fill:#0000ff;fill-opacity:0.50196078;fill-rule:evenodd;stroke:none;stroke-width:0.08894975;stroke-linecap:round;stroke-linejoin:miter;stroke-miterlimit:4;stroke-dasharray:none;stroke-dashoffset:0;stroke-opacity:1;paint-order:normal"
       id="rect30179"
       width="8.2117281"
       height="8.21173"
       x="27.094988"
       y="108.1443"
       rx="0"
       ry="0" />
    <rect
       ry="0"
       rx="0"
       y="108.1443"
       x="38.695312"
       height="8.21173"
       width="8.2117281"
       id="rect30181"
       style="opacity:1;vector-effect:none;fill:#0000ff;fill-opacity:0.50196078;fill-rule:evenodd;stroke:none;stroke-width:0.08894975;stroke-linecap:round;stroke-linejoin:miter;stroke-miterlimit:4;stroke-dasharray:none;stroke-dashoffset:0;stroke-opacity:1;paint-order:normal" />
  </g>
</svg>
