<?xml version="1.0" encoding="UTF-8" standalone="no"?>
<!-- Created with Inkscape (http://www.inkscape.org/) -->

<svg
   xmlns:dc="http://purl.org/dc/elements/1.1/"
   xmlns:cc="http://creativecommons.org/ns#"
   xmlns:rdf="http://www.w3.org/1999/02/22-rdf-syntax-ns#"
   xmlns:svg="http://www.w3.org/2000/svg"
   xmlns="http://www.w3.org/2000/svg"
   xmlns:sodipodi="http://sodipodi.sourceforge.net/DTD/sodipodi-0.dtd"
   xmlns:inkscape="http://www.inkscape.org/namespaces/inkscape"
   width="50.799999mm"
   height="128.50069mm"
   viewBox="0 0 50.799999 128.50069"
   version="1.1"
   id="svg26618"
   inkscape:version="0.92.2 2405546, 2018-03-11"
   sodipodi:docname="CV-CC.svg">
  <defs
     id="defs26612" />
  <sodipodi:namedview
     id="base"
     pagecolor="#ffffff"
     bordercolor="#666666"
     borderopacity="1.0"
     inkscape:pageopacity="0.0"
     inkscape:pageshadow="2"
     inkscape:zoom="1.979899"
     inkscape:cx="85.567542"
     inkscape:cy="333.70852"
     inkscape:document-units="mm"
     inkscape:current-layer="layer2"
     showgrid="false"
     fit-margin-top="0"
     fit-margin-left="0"
     fit-margin-right="0"
     fit-margin-bottom="0"
     inkscape:snap-bbox="true"
     inkscape:snap-nodes="false"
     inkscape:snap-bbox-midpoints="true"
     inkscape:bbox-nodes="true"
     inkscape:window-width="1600"
     inkscape:window-height="882"
     inkscape:window-x="0"
     inkscape:window-y="18"
     inkscape:window-maximized="0" />
  <metadata
     id="metadata26615">
    <rdf:RDF>
      <cc:Work
         rdf:about="">
        <dc:format>image/svg+xml</dc:format>
        <dc:type
           rdf:resource="http://purl.org/dc/dcmitype/StillImage" />
        <dc:title></dc:title>
      </cc:Work>
    </rdf:RDF>
  </metadata>
  <g
     inkscape:label="Layer 1"
     inkscape:groupmode="layer"
     id="layer1"
     transform="translate(-362.22837,-118.49952)">
    <path
       inkscape:connector-curvature="0"
       id="path9519"
       d="m 362.32207,118.59323 h 50.61256 V 246.9065 h -50.61256 z m 0,0"
       style="fill:#e6e6e6;fill-opacity:1;fill-rule:nonzero;stroke:none;stroke-width:0.35277775" />
    <path
       inkscape:connector-curvature="0"
       id="path9521"
       d="m 413.02837,118.49952 h -50.8 V 247.0002 h 50.8 z m -0.18743,128.31327 H 362.41439 V 118.68694 h 50.42655 z m 0,0"
       style="fill:#ababab;fill-opacity:1;fill-rule:nonzero;stroke:none;stroke-width:0.35277775" />
    <path
       inkscape:connector-curvature="0"
       id="path9555"
       d="m 370.22785,195.95078 h 34.79962"
       style="fill:none;stroke:#000000;stroke-width:0.35277775;stroke-linecap:butt;stroke-linejoin:miter;stroke-miterlimit:10;stroke-opacity:1" />
    <path
       inkscape:connector-curvature="0"
       id="path9557"
       d="m 370.22785,207.55111 h 34.79962"
       style="fill:none;stroke:#000000;stroke-width:0.35277775;stroke-linecap:butt;stroke-linejoin:miter;stroke-miterlimit:10;stroke-opacity:1" />
    <path
       inkscape:connector-curvature="0"
       id="path9559"
       d="m 370.22785,219.15143 h 34.79962"
       style="fill:none;stroke:#000000;stroke-width:0.35277775;stroke-linecap:butt;stroke-linejoin:miter;stroke-miterlimit:10;stroke-opacity:1" />
    <path
       inkscape:connector-curvature="0"
       id="path9561"
       d="m 370.22785,230.75037 h 34.79962"
       style="fill:none;stroke:#000000;stroke-width:0.35277775;stroke-linecap:butt;stroke-linejoin:miter;stroke-miterlimit:10;stroke-opacity:1" />
    <path
       inkscape:connector-curvature="0"
       id="path12881"
       d="m 384.87504,242.85644 c -0.11715,0 -0.22323,-0.0661 -0.27562,-0.1695 l -1.00182,-2.00504 c -0.0772,-0.15296 -0.0152,-0.33762 0.13779,-0.41479 0.15159,-0.0758 0.33761,-0.0138 0.41342,0.13918 l 0.72623,1.45245 0.72623,-1.45245 c 0.0758,-0.15296 0.26183,-0.21497 0.41339,-0.13918 0.15296,0.0772 0.21498,0.26183 0.13783,0.41479 l -1.00186,2.00504 c -0.0523,0.10336 -0.15846,0.1695 -0.27559,0.1695"
       style="fill:#000000;fill-opacity:1;fill-rule:nonzero;stroke:none;stroke-width:0.35277775" />
    <path
       inkscape:connector-curvature="0"
       id="path12883"
       d="m 390.38028,242.85644 c -0.11575,0 -0.22324,-0.0661 -0.27559,-0.1695 l -1.00182,-2.00504 c -0.0772,-0.15296 -0.0152,-0.33762 0.1378,-0.41479 0.15159,-0.0758 0.33761,-0.0138 0.41342,0.13918 l 0.72619,1.45245 0.72761,-1.45245 c 0.0758,-0.15296 0.26045,-0.21497 0.41341,-0.13918 0.1516,0.0772 0.21361,0.26183 0.1378,0.41479 l -1.00319,2.00504 c -0.051,0.10336 -0.15847,0.1695 -0.27563,0.1695"
       style="fill:#000000;fill-opacity:1;fill-rule:nonzero;stroke:none;stroke-width:0.35277775" />
    <path
       inkscape:connector-curvature="0"
       id="path12885"
       d="m 387.77717,242.85644 c -0.72207,0 -1.3105,-0.58705 -1.3105,-1.31051 0,-0.72209 0.58843,-1.31052 1.3105,-1.31052 0.28663,0 0.55813,0.091 0.78687,0.26183 0.13642,0.10197 0.16401,0.29628 0.062,0.4327 -0.10336,0.13505 -0.2963,0.16261 -0.43272,0.0606 -0.11987,-0.091 -0.26458,-0.13919 -0.41617,-0.13919 -0.38308,0 -0.69314,0.31145 -0.69314,0.69454 0,0.38309 0.31006,0.69453 0.69314,0.69453 0.15159,0 0.2963,-0.0482 0.41617,-0.13918 0.13642,-0.10198 0.32936,-0.0744 0.43272,0.062 0.10199,0.13505 0.0744,0.32935 -0.062,0.43132 -0.22874,0.17088 -0.50024,0.26183 -0.78687,0.26183"
       style="fill:#000000;fill-opacity:1;fill-rule:nonzero;stroke:none;stroke-width:0.35277775" />
    <path
       inkscape:connector-curvature="0"
       id="path12887"
       d="m 388.19888,241.53077 c 0,0.22186 -0.18055,0.40101 -0.40104,0.40101 -0.22186,0 -0.401,-0.17915 -0.401,-0.40101 0,-0.22186 0.17914,-0.40101 0.401,-0.40101 0.22049,0 0.40104,0.17915 0.40104,0.40101"
       style="fill:#000000;fill-opacity:1;fill-rule:nonzero;stroke:none;stroke-width:0.35277775" />
    <path
       inkscape:connector-curvature="0"
       style="fill:#000000;fill-opacity:1;stroke:none;stroke-width:0.35277775"
       d="m 382.2781,128.11472 c 0.47407,0 0.78825,-0.1378 1.05834,-0.36931 0.0551,-0.0551 0.11024,-0.13229 0.11024,-0.23703 0,-0.16536 -0.1433,-0.29765 -0.30868,-0.29765 -0.0771,0 -0.1433,0.0276 -0.19293,0.0717 -0.1874,0.14882 -0.36929,0.23151 -0.64492,0.23151 -0.50711,0 -0.85989,-0.42444 -0.85989,-0.93156 v -0.005 c 0,-0.50711 0.36382,-0.92604 0.85989,-0.92604 0.23153,0 0.42443,0.0772 0.60636,0.21497 0.0496,0.0276 0.1047,0.0606 0.1929,0.0606 0.18192,0 0.32522,-0.13781 0.32522,-0.3142 0,-0.11575 -0.0606,-0.20946 -0.12679,-0.25907 -0.24803,-0.1819 -0.54567,-0.30317 -0.99218,-0.30317 -0.9095,0 -1.54341,0.68903 -1.54341,1.53238 v 0.011 c 0,0.84887 0.64495,1.52135 1.51585,1.52135 z m 0,0"
       id="path24553" />
    <path
       inkscape:connector-curvature="0"
       style="fill:#000000;fill-opacity:1;stroke:none;stroke-width:0.35277775"
       d="m 385.20172,128.10921 h 0.0441 c 0.17638,0 0.29763,-0.0937 0.36378,-0.25356 l 0.97014,-2.32062 c 0.0166,-0.0386 0.0332,-0.0937 0.0332,-0.14331 0,-0.1819 -0.14334,-0.31419 -0.31972,-0.31419 -0.15434,0 -0.27009,0.0992 -0.31419,0.20395 l -0.74965,1.94027 -0.73861,-1.91823 c -0.0496,-0.13229 -0.15988,-0.22599 -0.33073,-0.22599 -0.18193,0 -0.32523,0.1378 -0.32523,0.3197 0,0.0551 0.0166,0.10473 0.0386,0.15985 l 0.9591,2.29857 c 0.0661,0.15985 0.19293,0.25356 0.36932,0.25356 z m 0,0"
       id="path24545" />
    <path
       inkscape:connector-curvature="0"
       style="fill:#000000;fill-opacity:1;stroke:none;stroke-width:0.35277775"
       d="m 387.17918,127.0619 h 0.7331 c 0.17089,0 0.31419,-0.1378 0.31419,-0.30868 0,-0.17088 -0.1433,-0.30868 -0.31419,-0.30868 h -0.7331 c -0.17089,0 -0.30868,0.1378 -0.30868,0.30868 0,0.17088 0.13779,0.30868 0.30868,0.30868 z m 0,0"
       id="path24549" />
    <path
       inkscape:connector-curvature="0"
       style="fill:#000000;fill-opacity:1;stroke:none;stroke-width:0.35277775"
       d="m 390.30112,128.11472 c 0.47406,0 0.78824,-0.1378 1.05833,-0.36931 0.0551,-0.0551 0.11025,-0.13229 0.11025,-0.23703 0,-0.16536 -0.1433,-0.29765 -0.30869,-0.29765 -0.0771,0 -0.14329,0.0276 -0.19293,0.0717 -0.1874,0.14882 -0.36929,0.23151 -0.64491,0.23151 -0.50712,0 -0.8599,-0.42444 -0.8599,-0.93156 v -0.005 c 0,-0.50711 0.36382,-0.92604 0.8599,-0.92604 0.23152,0 0.42442,0.0772 0.60635,0.21497 0.0496,0.0276 0.10471,0.0606 0.1929,0.0606 0.18193,0 0.32522,-0.13781 0.32522,-0.3142 0,-0.11575 -0.0606,-0.20946 -0.12678,-0.25907 -0.24804,-0.1819 -0.54568,-0.30317 -0.99219,-0.30317 -0.9095,0 -1.5434,0.68902 -1.5434,1.53238 v 0.011 c 0,0.84887 0.64495,1.52135 1.51585,1.52135 z m 0,0"
       id="path24541" />
    <path
       inkscape:connector-curvature="0"
       style="fill:#000000;fill-opacity:1;stroke:none;stroke-width:0.35277775"
       d="m 393.37282,128.11472 c 0.47407,0 0.78825,-0.1378 1.05834,-0.36931 0.0551,-0.0551 0.11024,-0.13229 0.11024,-0.23703 0,-0.16536 -0.1433,-0.29765 -0.30868,-0.29765 -0.0771,0 -0.1433,0.0276 -0.19293,0.0717 -0.1874,0.14882 -0.36929,0.23151 -0.64492,0.23151 -0.50711,0 -0.85989,-0.42444 -0.85989,-0.93156 v -0.005 c 0,-0.50711 0.36382,-0.92604 0.85989,-0.92604 0.23153,0 0.42443,0.0772 0.60636,0.21497 0.0496,0.0276 0.1047,0.0606 0.1929,0.0606 0.18192,0 0.32522,-0.13781 0.32522,-0.3142 0,-0.11575 -0.0606,-0.20946 -0.12679,-0.25907 -0.24803,-0.1819 -0.54567,-0.30317 -0.99218,-0.30317 -0.9095,0 -1.54341,0.68903 -1.54341,1.53238 v 0.011 c 0,0.84887 0.64495,1.52135 1.51585,1.52135 z m 0,0"
       id="path24537" />
  </g>
  <g
     inkscape:groupmode="layer"
     id="layer2"
     inkscape:label="widgets"
     style="display:none">
    <circle
       style="opacity:1;vector-effect:none;fill:#0000ff;fill-opacity:1;fill-rule:evenodd;stroke:none;stroke-width:0.69999999;stroke-linecap:butt;stroke-linejoin:miter;stroke-miterlimit:4;stroke-dasharray:none;stroke-dashoffset:0;stroke-opacity:1;paint-order:normal"
       id="path27377"
       cx="7.9994998"
       cy="77.451263"
       r="2" />
    <circle
       r="2"
       cy="77.451263"
       cx="19.599819"
       id="circle28184"
       style="opacity:1;vector-effect:none;fill:#0000ff;fill-opacity:1;fill-rule:evenodd;stroke:none;stroke-width:0.69999999;stroke-linecap:butt;stroke-linejoin:miter;stroke-miterlimit:4;stroke-dasharray:none;stroke-dashoffset:0;stroke-opacity:1;paint-order:normal" />
    <circle
       style="opacity:1;vector-effect:none;fill:#0000ff;fill-opacity:1;fill-rule:evenodd;stroke:none;stroke-width:0.69999999;stroke-linecap:butt;stroke-linejoin:miter;stroke-miterlimit:4;stroke-dasharray:none;stroke-dashoffset:0;stroke-opacity:1;paint-order:normal"
       id="circle28186"
       cx="31.199474"
       cy="77.451263"
       r="2" />
    <circle
       r="2"
       cy="77.451263"
       cx="42.799793"
       id="circle28188"
       style="opacity:1;vector-effect:none;fill:#0000ff;fill-opacity:1;fill-rule:evenodd;stroke:none;stroke-width:0.69999999;stroke-linecap:butt;stroke-linejoin:miter;stroke-miterlimit:4;stroke-dasharray:none;stroke-dashoffset:0;stroke-opacity:1;paint-order:normal" />
    <circle
       r="2"
       cy="89.050903"
       cx="7.9994998"
       id="circle28190"
       style="opacity:1;vector-effect:none;fill:#0000ff;fill-opacity:1;fill-rule:evenodd;stroke:none;stroke-width:0.69999999;stroke-linecap:butt;stroke-linejoin:miter;stroke-miterlimit:4;stroke-dasharray:none;stroke-dashoffset:0;stroke-opacity:1;paint-order:normal" />
    <circle
       style="opacity:1;vector-effect:none;fill:#0000ff;fill-opacity:1;fill-rule:evenodd;stroke:none;stroke-width:0.69999999;stroke-linecap:butt;stroke-linejoin:miter;stroke-miterlimit:4;stroke-dasharray:none;stroke-dashoffset:0;stroke-opacity:1;paint-order:normal"
       id="circle28192"
       cx="19.599819"
       cy="89.050903"
       r="2" />
    <circle
       r="2"
       cy="89.050903"
       cx="31.199474"
       id="circle28194"
       style="opacity:1;vector-effect:none;fill:#0000ff;fill-opacity:1;fill-rule:evenodd;stroke:none;stroke-width:0.69999999;stroke-linecap:butt;stroke-linejoin:miter;stroke-miterlimit:4;stroke-dasharray:none;stroke-dashoffset:0;stroke-opacity:1;paint-order:normal" />
    <circle
       style="opacity:1;vector-effect:none;fill:#0000ff;fill-opacity:1;fill-rule:evenodd;stroke:none;stroke-width:0.69999999;stroke-linecap:butt;stroke-linejoin:miter;stroke-miterlimit:4;stroke-dasharray:none;stroke-dashoffset:0;stroke-opacity:1;paint-order:normal"
       id="circle28196"
       cx="42.799793"
       cy="89.050903"
       r="2" />
    <circle
       style="opacity:1;vector-effect:none;fill:#0000ff;fill-opacity:1;fill-rule:evenodd;stroke:none;stroke-width:0.69999999;stroke-linecap:butt;stroke-linejoin:miter;stroke-miterlimit:4;stroke-dasharray:none;stroke-dashoffset:0;stroke-opacity:1;paint-order:normal"
       id="circle28198"
       cx="7.9994998"
       cy="100.65122"
       r="2" />
    <circle
       r="2"
       cy="100.65122"
       cx="19.599819"
       id="circle28200"
       style="opacity:1;vector-effect:none;fill:#0000ff;fill-opacity:1;fill-rule:evenodd;stroke:none;stroke-width:0.69999999;stroke-linecap:butt;stroke-linejoin:miter;stroke-miterlimit:4;stroke-dasharray:none;stroke-dashoffset:0;stroke-opacity:1;paint-order:normal" />
    <circle
       style="opacity:1;vector-effect:none;fill:#0000ff;fill-opacity:1;fill-rule:evenodd;stroke:none;stroke-width:0.69999999;stroke-linecap:butt;stroke-linejoin:miter;stroke-miterlimit:4;stroke-dasharray:none;stroke-dashoffset:0;stroke-opacity:1;paint-order:normal"
       id="circle28202"
       cx="31.199474"
       cy="100.65122"
       r="2" />
    <circle
       r="2"
       cy="100.65122"
       cx="42.799793"
       id="circle28204"
       style="opacity:1;vector-effect:none;fill:#0000ff;fill-opacity:1;fill-rule:evenodd;stroke:none;stroke-width:0.69999999;stroke-linecap:butt;stroke-linejoin:miter;stroke-miterlimit:4;stroke-dasharray:none;stroke-dashoffset:0;stroke-opacity:1;paint-order:normal" />
    <circle
       r="2"
       cy="112.25155"
       cx="7.9994998"
       id="circle28206"
       style="opacity:1;vector-effect:none;fill:#0000ff;fill-opacity:1;fill-rule:evenodd;stroke:none;stroke-width:0.69999999;stroke-linecap:butt;stroke-linejoin:miter;stroke-miterlimit:4;stroke-dasharray:none;stroke-dashoffset:0;stroke-opacity:1;paint-order:normal" />
    <circle
       style="opacity:1;vector-effect:none;fill:#0000ff;fill-opacity:1;fill-rule:evenodd;stroke:none;stroke-width:0.69999999;stroke-linecap:butt;stroke-linejoin:miter;stroke-miterlimit:4;stroke-dasharray:none;stroke-dashoffset:0;stroke-opacity:1;paint-order:normal"
       id="circle28208"
       cx="19.599819"
       cy="112.25155"
       r="2" />
    <circle
       r="2"
       cy="112.25155"
       cx="31.199474"
       id="circle28210"
       style="opacity:1;vector-effect:none;fill:#0000ff;fill-opacity:1;fill-rule:evenodd;stroke:none;stroke-width:0.69999999;stroke-linecap:butt;stroke-linejoin:miter;stroke-miterlimit:4;stroke-dasharray:none;stroke-dashoffset:0;stroke-opacity:1;paint-order:normal" />
    <circle
       style="opacity:1;vector-effect:none;fill:#0000ff;fill-opacity:1;fill-rule:evenodd;stroke:none;stroke-width:0.69999999;stroke-linecap:butt;stroke-linejoin:miter;stroke-miterlimit:4;stroke-dasharray:none;stroke-dashoffset:0;stroke-opacity:1;paint-order:normal"
       id="circle28212"
       cx="42.799793"
       cy="112.25155"
       r="2" />
    <rect
       style="opacity:1;vector-effect:none;fill:#ffff00;fill-opacity:1;fill-rule:evenodd;stroke:none;stroke-width:0.87907022;stroke-linecap:butt;stroke-linejoin:miter;stroke-miterlimit:4;stroke-dasharray:none;stroke-dashoffset:0;stroke-opacity:1;paint-order:normal"
       id="rect28214"
       width="44.00074"
       height="54.666771"
       x="3.39961"
       y="14.83872" />
  </g>
</svg>
