<?xml version="1.0" encoding="UTF-8" standalone="no"?>
<svg
   xmlns:dc="http://purl.org/dc/elements/1.1/"
   xmlns:cc="http://creativecommons.org/ns#"
   xmlns:rdf="http://www.w3.org/1999/02/22-rdf-syntax-ns#"
   xmlns:svg="http://www.w3.org/2000/svg"
   xmlns="http://www.w3.org/2000/svg"
   xmlns:sodipodi="http://sodipodi.sourceforge.net/DTD/sodipodi-0.dtd"
   xmlns:inkscape="http://www.inkscape.org/namespaces/inkscape"
   width="150"
   height="380"
   viewBox="0 0 150 380"
   version="1.1"
   id="svg84"
   sodipodi:docname="CV_MIDICC.svg"
   inkscape:version="0.92.3 (2405546, 2018-03-11)">
  <metadata
     id="metadata88">
    <rdf:RDF>
      <cc:Work
         rdf:about="">
        <dc:format>image/svg+xml</dc:format>
        <dc:type
           rdf:resource="http://purl.org/dc/dcmitype/StillImage" />
      </cc:Work>
    </rdf:RDF>
  </metadata>
  <sodipodi:namedview
     pagecolor="#ffffff"
     bordercolor="#666666"
     borderopacity="1"
     objecttolerance="10"
     gridtolerance="10"
     guidetolerance="10"
     inkscape:pageopacity="0"
     inkscape:pageshadow="2"
     inkscape:window-width="867"
     inkscape:window-height="480"
     id="namedview86"
     showgrid="false"
     inkscape:zoom="0.62105263"
     inkscape:cx="75"
     inkscape:cy="190"
     inkscape:window-x="0"
     inkscape:window-y="0"
     inkscape:window-maximized="0"
     inkscape:current-layer="svg84" />
  <defs
     id="defs10">
    <linearGradient
       id="b312728e-8ed6-4de8-8086-31a605b7ca98"
       x1="75"
       x2="75"
       y2="380"
       gradientUnits="userSpaceOnUse">
      <stop
         offset="0"
         stop-color="#ebebeb"
         id="stop2" />
      <stop
         offset="1"
         stop-color="#e1e1e1"
         id="stop4" />
    </linearGradient>
  </defs>
  <g
     id="b9bf60ff-de04-46c4-8f94-cb02442a6779"
     data-name="FND BG">
    <rect
       width="150"
       height="380"
       fill="url(#b312728e-8ed6-4de8-8086-31a605b7ca98)"
       id="rect12" />
  </g>
  <g
     id="bee24d60-f982-400d-bc1b-e8e1beff5076"
     data-name="FND GRAPH">
    <g
       id="g19">
      <path
         id="a00f3f95-93a1-4715-a488-46304d54fe4f"
         data-name="path12881"
         d="M66.8593,359.76276a.91363.91363,0,0,1-.8151-.50123l-2.9626-5.92925a.91123.91123,0,1,1,1.63-.81506l2.14758,4.29517,2.14759-4.29517a.91123.91123,0,1,1,1.63.81506l-2.96269,5.92925a.91335.91335,0,0,1-.815.50123"
         fill="#1f1f1f" />
      <path
         id="e06020ad-ee93-4ba3-893c-67c2998ab6cb"
         data-name="path12883"
         d="M83.13933,359.76276a.91812.91812,0,0,1-.815-.50123l-2.9626-5.92925a.91123.91123,0,1,1,1.63-.81506l2.1475,4.29517,2.15165-4.29517a.91123.91123,0,1,1,1.63.81506l-2.96666,5.92925a.90912.90912,0,0,1-.8151.50123"
         fill="#1f1f1f" />
      <path
         id="a08adb03-865c-43cd-8cb5-971a122dc23b"
         data-name="path12885"
         d="M75.44143,359.76276a3.87544,3.87544,0,1,1,2.32691-6.97661.91237.91237,0,1,1-1.09622,1.45874,2.02336,2.02336,0,0,0-1.23069-.41161,2.05387,2.05387,0,0,0,0,4.10773,2.02389,2.02389,0,0,0,1.23069-.41157.9124.9124,0,1,1,1.09622,1.45883,3.85738,3.85738,0,0,1-2.32691.77426"
         fill="#1f1f1f" />
      <path
         id="acc2b450-a2fc-418e-a77e-156a2488ec7a"
         data-name="path12887"
         d="M76.68854,355.84252a1.18588,1.18588,0,1,1-1.18592-1.18588,1.187,1.187,0,0,1,1.18592,1.18588"
         fill="#1f1f1f" />
    </g>
    <g
       id="use21"
       transform="rotate(-90,41.77889,-15.47033)">
      <path
         id="path4813"
         d="M 2.35242,3.42947 4.01038,0.55779 A 0.37186,0.37186 0 0 0 3.68834,0 H 0.37242 a 0.37186,0.37186 0 0 0 -0.322,0.55779 l 1.658,2.87168 a 0.37187,0.37187 0 0 0 0.644,0 z"
         inkscape:connector-curvature="0"
         style="fill:#1f1f1f" />
    </g>
    <path
       id="e5099ee5-6372-4630-a0e0-80212542849a"
       data-name="path9561"
       d="M23.37878,333.58887H126.28761"
       fill="none"
       stroke="#000"
       stroke-miterlimit="28.34646"
       stroke-width="0.8" />
    <path
       id="b5505e52-c7e1-44f0-8507-fbf609161f19"
       data-name="path9561"
       d="M23.37878,299.59306H126.28761"
       fill="none"
       stroke="#000"
       stroke-miterlimit="28.34646"
       stroke-width="0.8" />
    <path
       id="e5ea2ff4-147c-4cc6-b254-437bdd3a64d3"
       data-name="path9561"
       d="M23.37878,265.59726H126.28761"
       fill="none"
       stroke="#000"
       stroke-miterlimit="28.34646"
       stroke-width="0.8" />
    <path
       id="af4a088e-9347-4dd3-b6a6-14a5f4e54342"
       data-name="path9561"
       d="M23.37878,231.60145H126.28761"
       fill="none"
       stroke="#000"
       stroke-miterlimit="28.34646"
       stroke-width="0.8" />
  </g>
  <g
     id="aef3fa67-ad26-4b73-8455-37ec10bc1913"
     data-name="FND TXT">
    <g
       id="g44">
      <path
         d="M35.1377,23.93164v-.0249a4.45169,4.45169,0,0,1,4.56738-4.5293,4.63906,4.63906,0,0,1,2.92773.88818.96764.96764,0,0,1,.375.76368.94032.94032,0,0,1-.95117.93847,1.01442,1.01442,0,0,1-.57519-.188,2.88027,2.88027,0,0,0-1.78907-.62549,2.59489,2.59489,0,0,0-2.54,2.72754v.0249a2.602,2.602,0,0,0,2.54,2.75293,2.812,2.812,0,0,0,1.90137-.688A.89229.89229,0,1,1,42.74512,27.335a4.61461,4.61461,0,0,1-7.60742-3.40332Z"
         fill="#1f1f1f"
         id="path28" />
      <path
         d="M47.17578,27.66064l-2.83984-6.79443a1.18042,1.18042,0,0,1-.11328-.46289.94531.94531,0,0,1,.96289-.95068,1.00248,1.00248,0,0,1,.97656.67529l2.18945,5.668,2.21485-5.73047a.99864.99864,0,0,1,.92578-.61279.92974.92974,0,0,1,.95117.92578,1.14169,1.14169,0,0,1-.09961.42529l-2.86621,6.85693a1.13167,1.13167,0,0,1-1.08887.76319h-.125A1.12955,1.12955,0,0,1,47.17578,27.66064Z"
         fill="#1f1f1f"
         id="path30" />
      <path
         d="M65.19141,20.44092a.95535.95535,0,0,1,.96289-.96338h.21289a.98888.98888,0,0,1,.875.50049l2.32812,3.7915,2.33985-3.80371a.941.941,0,0,1,.86328-.48828h.21289a.956.956,0,0,1,.96289.96338v6.95654a.95705.95705,0,1,1-1.91406,0V23.03125L70.3457,25.63379a.90119.90119,0,0,1-1.60156,0l-1.66406-2.56543v4.35449a.94033.94033,0,0,1-.95117.93848.92874.92874,0,0,1-.9375-.93848Z"
         fill="#1f1f1f"
         id="path32" />
      <path
         d="M76.26953,20.416a.96387.96387,0,0,1,1.92774,0v6.98144a.96387.96387,0,0,1-1.92774,0Z"
         fill="#1f1f1f"
         id="path34" />
      <path
         d="M80.48633,20.49121a.95638.95638,0,0,1,.96289-.96387h2.45312a4.366,4.366,0,0,1,4.6543,4.3545v.0249a4.38489,4.38489,0,0,1-4.6543,4.37939H81.44922a.956.956,0,0,1-.96289-.96338Zm3.416,6.05567A2.4956,2.4956,0,0,0,86.542,23.93164v-.0249a2.51553,2.51553,0,0,0-2.63965-2.64014H82.41309v5.28028Z"
         fill="#1f1f1f"
         id="path36" />
      <path
         d="M90.38281,20.416a.96289.96289,0,1,1,1.92578,0v6.98144a.96289.96289,0,1,1-1.92578,0Z"
         fill="#1f1f1f"
         id="path38" />
      <path
         d="M97.86914,23.93164v-.0249a4.45146,4.45146,0,0,1,4.56641-4.5293,4.635,4.635,0,0,1,2.92773.88818.962.962,0,0,1,.375.76368.93948.93948,0,0,1-.95019.93847,1.00916,1.00916,0,0,1-.5752-.188,2.88436,2.88436,0,0,0-1.78906-.62549,2.59567,2.59567,0,0,0-2.541,2.72754v.0249a2.60214,2.60214,0,0,0,2.541,2.75293,2.8138,2.8138,0,0,0,1.90137-.688.89227.89227,0,1,1,1.15136,1.36328,4.61464,4.61464,0,0,1-7.60742-3.40332Z"
         fill="#1f1f1f"
         id="path40" />
      <path
         d="M106.94824,23.93164v-.0249a4.4517,4.4517,0,0,1,4.56738-4.5293,4.63907,4.63907,0,0,1,2.92774.88818.96764.96764,0,0,1,.375.76368.94032.94032,0,0,1-.95117.93847,1.01448,1.01448,0,0,1-.5752-.188,2.88022,2.88022,0,0,0-1.78906-.62549,2.59489,2.59489,0,0,0-2.54,2.72754v.0249a2.602,2.602,0,0,0,2.54,2.75293,2.812,2.812,0,0,0,1.90137-.688.89228.89228,0,1,1,1.15136,1.36328,4.61461,4.61461,0,0,1-7.60742-3.40332Z"
         fill="#1f1f1f"
         id="path42" />
    </g>
  </g>
  <g
     id="b4c12a47-1a15-4b45-a55c-d65536fd4202"
     data-name="FND CONT">
    <line
       x1="0.33006"
       y1="66.87637"
       x2="149.67055"
       y2="66.87637"
       fill="none"
       stroke="#fff"
       stroke-miterlimit="10"
       stroke-width="0.54356"
       opacity="0.3"
       id="line47" />
    <line
       x1="0.33006"
       y1="94.68621"
       x2="149.67055"
       y2="94.68621"
       fill="none"
       stroke="#fff"
       stroke-miterlimit="10"
       stroke-width="0.54356"
       opacity="0.3"
       id="line49" />
    <line
       x1="0.33006"
       y1="122.49605"
       x2="149.67055"
       y2="122.49605"
       fill="none"
       stroke="#fff"
       stroke-miterlimit="10"
       stroke-width="0.54356"
       opacity="0.3"
       id="line51" />
    <line
       x1="0.33006"
       y1="142.36681"
       x2="150.00471"
       y2="142.36681"
       fill="none"
       stroke="#fff"
       stroke-miterlimit="10"
       stroke-width="0.54356"
       opacity="0.3"
       id="line53" />
    <line
       x1="0.33006"
       y1="162.23758"
       x2="150.00471"
       y2="162.23758"
       fill="none"
       stroke="#fff"
       stroke-miterlimit="10"
       stroke-width="0.54356"
       opacity="0.3"
       id="line55" />
    <line
       x1="0.33006"
       y1="182.10835"
       x2="149.67055"
       y2="182.10835"
       fill="none"
       stroke="#fff"
       stroke-miterlimit="10"
       stroke-width="0.54356"
       opacity="0.3"
       id="line57" />
    <line
       x1="37.41764"
       y1="201.7625"
       x2="37.41764"
       y2="122.49605"
       fill="none"
       stroke="#fff"
       stroke-miterlimit="10"
       stroke-width="0.54356"
       opacity="0.3"
       id="line59" />
    <line
       x1="74.88321"
       y1="201.7625"
       x2="74.88321"
       y2="122.49605"
       fill="none"
       stroke="#fff"
       stroke-miterlimit="10"
       stroke-width="0.54356"
       opacity="0.3"
       id="line61" />
    <line
       x1="112.34878"
       y1="201.7625"
       x2="112.34878"
       y2="122.49605"
       fill="none"
       stroke="#fff"
       stroke-miterlimit="10"
       stroke-width="0.54356"
       opacity="0.3"
       id="line63" />
  </g>
  <g
     id="e77c254c-ddce-40cc-8754-ddb6d6a18ec6"
     data-name="components"
     inkscape:groupmode="layer"
     style="display:none">
    <circle
       id="a2c368fb-7d65-42ec-9d7b-1978e8763cbf"
       data-name="Midi14#PJ301MPort"
       cx="58.284859"
       cy="333.61429"
       r="5"
       style="fill:#00ff00" />
    <circle
       id="b932bb27-a0f9-47f2-ad45-2b5c9926a402"
       data-name="Midi15#PJ301MPort"
       cx="92.388229"
       cy="333.61429"
       r="5"
       style="fill:#00ff00" />
    <circle
       id="b1563263-623e-473e-9ede-786f6142edd1"
       data-name="Midi16#PJ301MPort"
       cx="126.49161"
       cy="333.61429"
       r="5"
       style="fill:#00ff00" />
    <circle
       id="affcdb24-af98-4f8d-be87-1ce30a9cffa9"
       data-name="Midi13#PJ301MPort"
       cx="24.18148"
       cy="333.65686"
       r="5"
       style="fill:#00ff00" />
    <circle
       id="ec659f75-dc66-4655-b0d7-0556fb4c8808"
       data-name="Midi09#PJ301MPort"
       cx="24.181231"
       cy="299.60391"
       r="5"
       style="fill:#00ff00" />
    <circle
       id="aeaf3805-2e4c-47cd-ac72-631c7ed75145"
       data-name="Midi05#PJ301MPort"
       cx="24.181231"
       cy="265.58911"
       r="5"
       style="fill:#00ff00" />
    <circle
       id="b2f97d82-22c9-4192-8dec-0876bf726f9d"
       data-name="Midi01#PJ301MPort"
       cx="24.181231"
       cy="231.58824"
       r="5"
       style="fill:#00ff00" />
    <circle
       id="eb97ce2f-ba72-4fc4-be88-ec0bd342854b"
       data-name="Midi10#PJ301MPort"
       cx="58.284599"
       cy="299.60391"
       r="5"
       style="fill:#00ff00" />
    <circle
       id="a508279b-dbea-4d9c-a08a-cd0a7de4ebb9"
       data-name="Midi06#PJ301MPort"
       cx="58.284599"
       cy="265.58911"
       r="5"
       style="fill:#00ff00" />
    <circle
       id="ef30a315-e0e0-4f3a-869f-c7c0f357d6b4"
       data-name="Midi02#PJ301MPort"
       cx="58.284599"
       cy="231.58824"
       r="5"
       style="fill:#00ff00" />
    <circle
       id="b5b0749e-92f8-48f9-b239-3d18087034cb"
       data-name="Midi11#PJ301MPort"
       cx="92.387978"
       cy="299.60391"
       r="5"
       style="fill:#00ff00" />
    <circle
       id="e0b8328e-9566-47a3-bb2f-0b12a9fa0849"
       data-name="Midi07#PJ301MPort"
       cx="92.387978"
       cy="265.58911"
       r="5"
       style="fill:#00ff00" />
    <circle
       id="fd223488-4b9c-4496-b1cd-27273135bf12"
       data-name="Midi03#PJ301MPort"
       cx="92.387978"
       cy="231.58824"
       r="5"
       style="fill:#00ff00" />
    <circle
       id="a4c3dc8f-0759-49fe-aad5-28a5a9d8a2a4"
       data-name="Midi12#PJ301MPort"
       cx="126.49136"
       cy="299.60391"
       r="5"
       style="fill:#00ff00" />
    <circle
       id="bab3ecc6-2b07-4644-9253-ade5b7c788c6"
       data-name="Midi08#PJ301MPort"
       cx="126.49136"
       cy="265.58911"
       r="5"
       style="fill:#00ff00" />
    <circle
       id="b6c09072-659f-428b-bf44-0109f1ad438a"
       data-name="Midi04#PJ301MPort"
       cx="126.49136"
       cy="231.58824"
       r="5"
       style="fill:#00ff00" />
    <rect
       id="b341094a-c030-4c31-b82a-2f27a098e63a"
       data-name="Screen"
       y="38.5"
       width="150"
       height="165"
       x="0"
       style="fill:#ffff00" />
  </g>
</svg>
