<?xml version="1.0" encoding="UTF-8"?>
<svg xmlns="http://www.w3.org/2000/svg" width="150" height="380" xmlns:xlink="http://www.w3.org/1999/xlink" viewBox="0 0 150 380">
  <defs>
    <linearGradient id="uuid-aaff3b5e-1750-4ea0-ac50-30ca055794f1" x1="75" y1="0" x2="75" y2="380" gradientUnits="userSpaceOnUse">
      <stop offset="0" stop-color="#2a2a2b"/>
      <stop offset="1" stop-color="#171717"/>
    </linearGradient>
  </defs>
  <g id="uuid-b15ea993-6330-4b33-9fe8-1fa024e5347c" data-name="FND BG">
    <rect width="150" height="380" fill="url(#uuid-aaff3b5e-1750-4ea0-ac50-30ca055794f1)"/>
  </g>
  <g id="uuid-f7506c1b-2698-4ef2-a2f6-fc4358b3c15e" data-name="FND GRAPH">
    <g>
      <path id="uuid-a8cf1b49-fc0d-4279-8279-e4c69dc67b56" data-name="path12881" d="m66.8593,359.75269c-.34645,0-.66015-.19547-.8151-.50123l-2.9626-5.92926c-.22832-.45231-.04494-.99839.40746-1.22662.44825-.22417.99839-.04079,1.22256.41157l2.14759,4.29517,2.14759-4.29517c.22417-.45231.77431-.63569,1.22247-.41157.45231.22828.63569.77427.40755,1.22662l-2.96269,5.92926c-.15468.30566-.46856.50123-.81501.50123" fill="#ededed"/>
      <path id="uuid-57d23042-90cf-4750-8585-3a1c6f2b2b7d" data-name="path12883" d="m83.13933,359.75269c-.3423,0-.66015-.19547-.81501-.50123l-2.9626-5.92926c-.22832-.45231-.04494-.99839.40746-1.22662.44825-.22417.99839-.04079,1.22256.41157l2.14749,4.29517,2.15165-4.29517c.22417-.45231.77016-.63569,1.22256-.41157.44834.22828.63172.77427.40746,1.22662l-2.96666,5.92926c-.1508.30566-.46865.50123-.8151.50123" fill="#ededed"/>
      <path id="uuid-a22804eb-cd83-4c22-be86-e658a664d8ef" data-name="path12885" d="m75.44143,359.75269c-2.13531,0-3.87535-1.73602-3.87535-3.87544,0-2.13536,1.74012-3.87544,3.87535-3.87544.84759,0,1.65051.26911,2.3269.77427.4034.30156.48498.87615.18338,1.27955-.30566.39938-.8762.48088-1.2796.17918-.35449-.26911-.78243-.41161-1.23069-.41161-1.13286,0-2.04976.92101-2.04976,2.05386s.9169,2.05386,2.04976,2.05386c.44825,0,.8762-.14254,1.23069-.41157.4034-.30156.97394-.22002,1.2796.18333.3016.39938.22002.97394-.18338,1.27549-.67639.50533-1.47931.77427-2.3269.77427" fill="#ededed"/>
      <path id="uuid-1afa8bd1-721c-4167-a4e2-4bb97154aac9" data-name="path12887" d="m76.68854,355.83245c0,.65609-.5339,1.18588-1.18592,1.18588-.65609,0-1.18583-.52979-1.18583-1.18588s.52974-1.18588,1.18583-1.18588c.65203,0,1.18592.52979,1.18592,1.18588" fill="#ededed"/>
    </g>
    <path d="m79.49137,23.95687l-2.87167-1.65796c-.24791-.14313-.55779.03578-.55779.32204v3.31592c0,.28626.30989.46517.55779.32204l2.87167-1.65796c.24791-.14313.24791-.50096,0-.64409Z" fill="#ededed"/>
    <path id="uuid-326dd73e-c353-44d4-8bc3-96cad2e9e216" data-name="path9561" d="m26.19785,333.61111h102.90883" fill="none" stroke="#ebebeb" stroke-miterlimit="28.34646" stroke-width=".8"/>
    <path id="uuid-f4efc715-cf06-47db-aa21-55c7f713beff" data-name="path9561" d="m26.19785,299.61111h102.90883" fill="none" stroke="#ebebeb" stroke-miterlimit="28.34646" stroke-width=".8"/>
    <path id="uuid-39d79cdb-3199-42ae-a1a8-df4b74180f2c" data-name="path9561" d="m26.19785,265.58911h102.90883" fill="none" stroke="#ebebeb" stroke-miterlimit="28.34646" stroke-width=".8"/>
    <path id="uuid-bddaadeb-adb4-4597-a019-eaa3bb81edd5" data-name="path9561" d="m26.19785,231.58824h102.90883" fill="none" stroke="#ebebeb" stroke-miterlimit="28.34646" stroke-width=".8"/>
  </g>
  <g id="uuid-bae4e24f-156e-42a1-b1cc-9601b25988cd" data-name="FND TXT">
    <g>
      <path d="m37.97656,23.93262v-.02539c0-2.48975,1.93945-4.5293,4.5918-4.5293,1.32617,0,2.20117.30029,2.99023.85059.1875.1377.40039.40039.40039.77588,0,.52588-.42578.95117-.95117.95117-.27539,0-.4502-.1001-.58789-.2002-.52539-.37549-1.08789-.60059-1.91406-.60059-1.40234,0-2.51562,1.23877-2.51562,2.72754v.0249c0,1.60156,1.10156,2.77783,2.65234,2.77783.70117,0,1.32617-.17529,1.81445-.52539v-1.25146h-1.30078c-.46289,0-.83789-.36279-.83789-.82568s.375-.83838.83789-.83838h2.20215c.53809,0,.96387.42578.96387.96338v2.12744c0,.5625-.21289.95068-.67578,1.22607-.71289.43799-1.75195.87549-3.06641.87549-2.72656,0-4.60352-1.91406-4.60352-4.50391Z" fill="#ebebeb"/>
      <path d="m47.64258,27.04785l3.05371-6.89404c.21191-.47559.60059-.76318,1.12598-.76318h.11328c.52539,0,.90039.2876,1.11328.76318l3.05273,6.89404c.0625.1377.09961.2627.09961.3877,0,.51318-.40039.92627-.91309.92627-.4502,0-.75098-.26318-.92578-.66357l-.58887-1.37598h-3.85352l-.61328,1.43896c-.16211.37549-.4873.60059-.8877.60059-.50098,0-.8877-.40039-.8877-.90088,0-.1377.04883-.27539.11133-.41309Zm5.41797-2.42725l-1.21289-2.89014-1.21484,2.89014h2.42773Z" fill="#ebebeb"/>
      <path d="m58.75,21.30469h-1.85156c-.48828,0-.88867-.40039-.88867-.88818s.40039-.88818.88867-.88818h5.62988c.4873,0,.8877.40039.8877.88818s-.40039.88818-.8877.88818h-1.85156v6.09375c0,.53809-.42578.96338-.96387.96338-.53711,0-.96289-.42529-.96289-.96338v-6.09375Z" fill="#ebebeb"/>
      <path d="m64.77539,27.32324v-6.83203c0-.5376.4248-.96289.96289-.96289h4.85449c.47559,0,.86328.3877.86328.86328s-.3877.85059-.86328.85059h-3.90332v1.77686h3.33984c.47656,0,.86328.3877.86328.86328s-.38672.85107-.86328.85107h-3.33984v1.83887h3.96582c.47559,0,.86328.38818.86328.86328,0,.47559-.3877.85107-.86328.85107h-4.91699c-.53809,0-.96289-.42529-.96289-.96338Z" fill="#ebebeb"/>
      <path d="m84.42969,20.44141c0-.53809.4248-.96338.96289-.96338h.21289c.41211,0,.7002.2124.875.50049l2.32812,3.79102,2.33984-3.80371c.19922-.3252.47461-.48779.86328-.48779h.21289c.53711,0,.96289.42529.96289.96338v6.95703c0,.53809-.42578.96338-.96289.96338-.52539,0-.95117-.43799-.95117-.96338v-4.36719l-1.68945,2.60254c-.2002.30078-.45117.48828-.80078.48828s-.60059-.1875-.80078-.48828l-1.66406-2.56445v4.354c0,.52539-.42578.93848-.95117.93848s-.9375-.41309-.9375-.93848v-6.98193Z" fill="#ebebeb"/>
      <path d="m95.50781,20.4165c0-.53809.42578-.96338.96289-.96338.53906,0,.96387.42529.96387.96338v6.98193c0,.53809-.4248.96338-.96387.96338-.53711,0-.96289-.42529-.96289-.96338v-6.98193Z" fill="#ebebeb"/>
      <path d="m99.72461,20.49121c0-.5376.42578-.96289.96289-.96289h2.45312c2.75195,0,4.6543,1.88916,4.6543,4.354v.0249c0,2.46484-1.90234,4.37939-4.6543,4.37939h-2.45312c-.53711,0-.96289-.42529-.96289-.96338v-6.83203Zm3.41602,6.05615c1.57617,0,2.63965-1.06348,2.63965-2.61475v-.02539c0-1.55127-1.06348-2.63965-2.63965-2.63965h-1.48926v5.27979h1.48926Z" fill="#ebebeb"/>
      <path d="m109.62012,20.4165c0-.53809.4248-.96338.96387-.96338.53711,0,.96289.42529.96289.96338v6.98193c0,.53809-.42578.96338-.96289.96338-.53906,0-.96387-.42529-.96387-.96338v-6.98193Z" fill="#ebebeb"/>
    </g>
  </g>
</svg>