<?xml version="1.0" encoding="UTF-8" standalone="no"?>
<svg
   xmlns:dc="http://purl.org/dc/elements/1.1/"
   xmlns:cc="http://creativecommons.org/ns#"
   xmlns:rdf="http://www.w3.org/1999/02/22-rdf-syntax-ns#"
   xmlns:svg="http://www.w3.org/2000/svg"
   xmlns="http://www.w3.org/2000/svg"
   xmlns:sodipodi="http://sodipodi.sourceforge.net/DTD/sodipodi-0.dtd"
   xmlns:inkscape="http://www.inkscape.org/namespaces/inkscape"
   width="240"
   height="380"
   viewBox="0 0 240 380"
   version="1.1"
   id="svg34"
   sodipodi:docname="NOTES.svg"
   inkscape:version="0.92.3 (2405546, 2018-03-11)">
  <metadata
     id="metadata38">
    <rdf:RDF>
      <cc:Work
         rdf:about="">
        <dc:format>image/svg+xml</dc:format>
        <dc:type
           rdf:resource="http://purl.org/dc/dcmitype/StillImage" />
      </cc:Work>
    </rdf:RDF>
  </metadata>
  <sodipodi:namedview
     pagecolor="#ffffff"
     bordercolor="#666666"
     borderopacity="1"
     objecttolerance="10"
     gridtolerance="10"
     guidetolerance="10"
     inkscape:pageopacity="0"
     inkscape:pageshadow="2"
     inkscape:window-width="1920"
     inkscape:window-height="1017"
     id="namedview36"
     showgrid="false"
     inkscape:zoom="0.62105263"
     inkscape:cx="120"
     inkscape:cy="190"
     inkscape:window-x="-8"
     inkscape:window-y="-8"
     inkscape:window-maximized="1"
     inkscape:current-layer="svg34" />
  <defs
     id="defs7">
    <linearGradient
       id="a2d41a32-129a-467c-88bb-0081d4967003"
       x1="120"
       x2="120"
       y2="380"
       gradientUnits="userSpaceOnUse">
      <stop
         offset="0"
         stop-color="#ebebeb"
         id="stop2" />
      <stop
         offset="1"
         stop-color="#e1e1e1"
         id="stop4" />
    </linearGradient>
  </defs>
  <g
     id="ff212d66-6d77-44f8-85c7-307f2d84ecf1"
     data-name="FND BG">
    <rect
       width="240"
       height="380"
       fill="url(#a2d41a32-129a-467c-88bb-0081d4967003)"
       id="rect9" />
  </g>
  <g
     id="b4dd66e7-8e7e-494a-8612-34274361d97e"
     data-name="FND GRAPH">
    <g
       id="g16">
      <path
         id="b4cb817a-ff42-4dfc-8866-e3d83608b518"
         data-name="path6935"
         d="M111.8588,359.76681a.90968.90968,0,0,1-.815-.50533l-2.96266-5.92926a.91122.91122,0,0,1,1.63-.815l2.14759,4.29517,2.15167-4.29517a.91122.91122,0,1,1,1.63.815l-2.96663,5.92926a.91016.91016,0,0,1-.81508.50533"
         fill="#1f1f1f" />
      <path
         id="a58877fa-d57b-4d74-bbda-a883bf30a365"
         data-name="path6937"
         d="M128.13889,359.76681a.91459.91459,0,0,1-.81508-.50533l-2.96255-5.92926a.91122.91122,0,1,1,1.63-.815l2.14758,4.29517,2.15167-4.29517a.91122.91122,0,0,1,1.63005.815l-2.96256,5.92926a.91635.91635,0,0,1-.81914.50533"
         fill="#1f1f1f" />
      <path
         id="aa48af94-af91-4b1f-b663-ef6af4b5cf3b"
         data-name="path6939"
         d="M120.441,359.76681a3.87747,3.87747,0,1,1,2.32692-6.98067.91239.91239,0,1,1-1.09622,1.45879,2.05219,2.05219,0,1,0-1.23068,3.69616,2.02393,2.02393,0,0,0,1.23068-.41157.9124.9124,0,1,1,1.09622,1.45883,3.82664,3.82664,0,0,1-2.32692.77837"
         fill="#1f1f1f" />
      <path
         id="a3b43b3b-5987-49ba-834a-210c6d95bb7d"
         data-name="path6941"
         d="M121.688,355.84246a1.18584,1.18584,0,1,1-1.18583-1.18588,1.18437,1.18437,0,0,1,1.18583,1.18588"
         fill="#1f1f1f" />
    </g>
  </g>
  <g
     id="be2da85e-1478-4d1b-867a-5b13dcd701fb"
     data-name="FND TXT">
    <g
       id="g29">
      <path
         d="M98.66992,20.44141a.956.956,0,0,1,.96289-.96338H99.834a1.19028,1.19028,0,0,1,1,.563l3.7168,4.87988V20.40381a.95069.95069,0,1,1,1.90137,0v6.96924a.956.956,0,0,1-.96387.96386h-.0625a1.19078,1.19078,0,0,1-1-.56347l-3.85351-5.05469v4.69189a.95118.95118,0,1,1-1.90235,0Z"
         fill="#1f1f1f"
         id="path19" />
      <path
         d="M108.25586,23.93262v-.02539a4.6564,4.6564,0,0,1,9.30859-.02491v.02491a4.65641,4.65641,0,0,1-9.30859.02539Zm7.29492,0v-.02539a2.6612,2.6612,0,0,0-2.65332-2.75244,2.61944,2.61944,0,0,0-2.62793,2.72753v.02491a2.66143,2.66143,0,0,0,2.65235,2.75293A2.61993,2.61993,0,0,0,115.55078,23.93262Z"
         fill="#1f1f1f"
         id="path21" />
      <path
         d="M120.94434,21.30469h-1.85157a.88819.88819,0,0,1,0-1.77637h5.62989a.88819.88819,0,1,1,0,1.77637h-1.85157v6.09375a.96338.96338,0,1,1-1.92675,0Z"
         fill="#1f1f1f"
         id="path23" />
      <path
         d="M126.96875,27.32324v-6.832a.95629.95629,0,0,1,.96484-.96289h4.85352a.86419.86419,0,0,1,.86328.86328.85343.85343,0,0,1-.86328.85059h-3.90332V23.019h3.34082a.86481.86481,0,0,1,.86328.86328.85445.85445,0,0,1-.86328.85108h-3.34082v1.83887h3.96582a.86449.86449,0,0,1,.86328.86328.85384.85384,0,0,1-.86328.85107h-4.916A.95639.95639,0,0,1,126.96875,27.32324Z"
         fill="#1f1f1f"
         id="path25" />
      <path
         d="M135.24609,27.36084a.9.9,0,0,1-.36328-.72607.88664.88664,0,0,1,.90039-.88819.92557.92557,0,0,1,.55078.1753,3.69452,3.69452,0,0,0,2.24024.78808c.78711,0,1.26367-.3125,1.26367-.82568v-.0249c0-.48829-.30078-.73829-1.76465-1.11377-1.76465-.45069-2.90332-.93848-2.90332-2.67725V22.043c0-1.58887,1.27735-2.64014,3.06641-2.64014a5.08773,5.08773,0,0,1,2.77734.77588.87743.87743,0,0,1,.42578.76318.88656.88656,0,0,1-.90136.88819.91789.91789,0,0,1-.48731-.1377,3.651,3.651,0,0,0-1.83984-.58789c-.73828,0-1.126.33789-1.126.76367v.02442c0,.57617.375.76367,1.88965,1.15137,1.77637.46289,2.77734,1.10107,2.77734,2.62793v.02441c0,1.73926-1.32617,2.71533-3.21582,2.71533A5.6477,5.6477,0,0,1,135.24609,27.36084Z"
         fill="#1f1f1f"
         id="path27" />
    </g>
  </g>
  <g
     id="b660f694-0f3e-42b6-93f7-7ede9c067179"
     data-name="components"
     inkscape:groupmode="layer"
     style="display:none">
    <rect
       id="abeeb0d9-2e17-439a-8711-ace9121243e1"
       data-name="Screen"
       y="38"
       width="240"
       height="310.21326"
       x="0"
       style="fill:#ffff00" />
  </g>
</svg>
