<svg xmlns="http://www.w3.org/2000/svg" xmlns:xlink="http://www.w3.org/1999/xlink" width="255" height="380" viewBox="0 0 67.469 100.542"><defs><linearGradient id="b"><stop offset="0" stop-color="#626262"/><stop offset="1" stop-color="#929292"/></linearGradient><linearGradient id="a"><stop offset="0"/><stop offset="1" stop-color="#fff"/></linearGradient><linearGradient xlink:href="#a" id="q" gradientUnits="userSpaceOnUse" gradientTransform="translate(32.958 -15.82) scale(1.25816)" x1="24.039" y1="62.948" x2="24.039" y2="59.622"/><linearGradient xlink:href="#a" id="r" gradientUnits="userSpaceOnUse" gradientTransform="translate(-69.402 -137.27) scale(1.00722)" x1="24.039" y1="62.948" x2="24.039" y2="59.622"/><linearGradient xlink:href="#a" id="s" gradientUnits="userSpaceOnUse" gradientTransform="translate(32.958 -15.82) scale(1.25816)" x1="24.039" y1="62.948" x2="24.039" y2="59.622"/><linearGradient xlink:href="#a" id="t" gradientUnits="userSpaceOnUse" gradientTransform="translate(-69.402 -137.27) scale(1.00722)" x1="24.039" y1="62.948" x2="24.039" y2="59.622"/><linearGradient xlink:href="#a" id="u" gradientUnits="userSpaceOnUse" gradientTransform="translate(32.958 -15.82) scale(1.25816)" x1="24.039" y1="62.948" x2="24.039" y2="59.622"/><linearGradient xlink:href="#a" id="v" gradientUnits="userSpaceOnUse" gradientTransform="translate(-69.402 -137.27) scale(1.00722)" x1="24.039" y1="62.948" x2="24.039" y2="59.622"/><linearGradient xlink:href="#a" id="w" gradientUnits="userSpaceOnUse" gradientTransform="translate(32.958 -15.82) scale(1.25816)" x1="24.039" y1="62.948" x2="24.039" y2="59.622"/><linearGradient xlink:href="#a" id="x" gradientUnits="userSpaceOnUse" gradientTransform="translate(-69.402 -137.27) scale(1.00722)" x1="24.039" y1="62.948" x2="24.039" y2="59.622"/><linearGradient xlink:href="#a" id="y" gradientUnits="userSpaceOnUse" gradientTransform="translate(32.958 -15.82) scale(1.25816)" x1="24.039" y1="62.948" x2="24.039" y2="59.622"/><linearGradient xlink:href="#a" id="z" gradientUnits="userSpaceOnUse" gradientTransform="translate(-69.402 -137.27) scale(1.00722)" x1="24.039" y1="62.948" x2="24.039" y2="59.622"/><linearGradient xlink:href="#a" id="A" gradientUnits="userSpaceOnUse" gradientTransform="translate(32.958 -15.82) scale(1.25816)" x1="24.039" y1="62.948" x2="24.039" y2="59.622"/><linearGradient xlink:href="#a" id="B" gradientUnits="userSpaceOnUse" gradientTransform="translate(-69.402 -137.27) scale(1.00722)" x1="24.039" y1="62.948" x2="24.039" y2="59.622"/><linearGradient xlink:href="#b" id="h" x1="45.259" y1="102.973" x2="45.259" y2="34.751" gradientUnits="userSpaceOnUse" gradientTransform="translate(0 -.257) scale(.26458)"/><linearGradient xlink:href="#a" id="C" x1="30.566" y1="174.548" x2="30.566" y2="173.613" gradientUnits="userSpaceOnUse" gradientTransform="translate(-26.791 -160.307)"/><linearGradient gradientTransform="translate(-19.151 -160.307)" xlink:href="#a" id="D" x1="30.566" y1="174.548" x2="30.566" y2="173.613" gradientUnits="userSpaceOnUse"/><linearGradient gradientTransform="translate(-8.644 -160.307)" xlink:href="#a" id="F" x1="30.566" y1="174.548" x2="30.566" y2="173.613" gradientUnits="userSpaceOnUse"/><linearGradient xlink:href="#a" id="E" x1="30.566" y1="174.548" x2="30.566" y2="173.613" gradientUnits="userSpaceOnUse" gradientTransform="translate(-16.285 -160.307)"/><linearGradient gradientTransform="translate(2.02 -160.307)" xlink:href="#a" id="H" x1="30.566" y1="174.548" x2="30.566" y2="173.613" gradientUnits="userSpaceOnUse"/><linearGradient xlink:href="#a" id="G" x1="30.566" y1="174.548" x2="30.566" y2="173.613" gradientUnits="userSpaceOnUse" gradientTransform="translate(-5.621 -160.307)"/><linearGradient gradientTransform="translate(12.59 -160.307)" xlink:href="#a" id="J" x1="30.566" y1="174.548" x2="30.566" y2="173.613" gradientUnits="userSpaceOnUse"/><linearGradient xlink:href="#a" id="I" x1="30.566" y1="174.548" x2="30.566" y2="173.613" gradientUnits="userSpaceOnUse" gradientTransform="translate(4.95 -160.307)"/><linearGradient gradientTransform="translate(23.111 -160.307)" xlink:href="#a" id="L" x1="30.566" y1="174.548" x2="30.566" y2="173.613" gradientUnits="userSpaceOnUse"/><linearGradient xlink:href="#a" id="K" x1="30.566" y1="174.548" x2="30.566" y2="173.613" gradientUnits="userSpaceOnUse" gradientTransform="translate(15.471 -160.307)"/><linearGradient gradientTransform="translate(33.64 -160.307)" xlink:href="#a" id="N" x1="30.566" y1="174.548" x2="30.566" y2="173.613" gradientUnits="userSpaceOnUse"/><linearGradient xlink:href="#a" id="M" x1="30.566" y1="174.548" x2="30.566" y2="173.613" gradientUnits="userSpaceOnUse" gradientTransform="translate(26 -160.307)"/><linearGradient xlink:href="#a" id="g" x1="45.259" y1="102.973" x2="45.259" y2="34.751" gradientUnits="userSpaceOnUse" gradientTransform="matrix(.2846 0 0 .27725 -.541 -1.129)"/><linearGradient xlink:href="#a" id="i" gradientUnits="userSpaceOnUse" gradientTransform="matrix(.2846 0 0 .27725 9.983 -1.104)" x1="45.259" y1="102.973" x2="45.259" y2="34.751"/><linearGradient xlink:href="#b" id="j" gradientUnits="userSpaceOnUse" gradientTransform="translate(10.524 -.232) scale(.26458)" x1="45.259" y1="102.973" x2="45.259" y2="34.751"/><linearGradient xlink:href="#a" id="e" gradientUnits="userSpaceOnUse" gradientTransform="matrix(.2846 0 0 .27725 20.459 -1.244)" x1="45.259" y1="102.973" x2="45.259" y2="34.751"/><linearGradient xlink:href="#b" id="f" gradientUnits="userSpaceOnUse" gradientTransform="translate(21 -.372) scale(.26458)" x1="45.259" y1="102.973" x2="45.259" y2="34.751"/><linearGradient xlink:href="#a" id="k" gradientUnits="userSpaceOnUse" gradientTransform="matrix(.2846 0 0 .27725 31.124 -1.244)" x1="45.259" y1="102.973" x2="45.259" y2="34.751"/><linearGradient xlink:href="#b" id="l" gradientUnits="userSpaceOnUse" gradientTransform="translate(31.665 -.372) scale(.26458)" x1="45.259" y1="102.973" x2="45.259" y2="34.751"/><linearGradient xlink:href="#a" id="m" gradientUnits="userSpaceOnUse" gradientTransform="matrix(.2846 0 0 .27725 41.694 -1.291)" x1="45.259" y1="102.973" x2="45.259" y2="34.751"/><linearGradient xlink:href="#b" id="n" gradientUnits="userSpaceOnUse" gradientTransform="translate(42.235 -.419) scale(.26458)" x1="45.259" y1="102.973" x2="45.259" y2="34.751"/><linearGradient xlink:href="#a" id="o" gradientUnits="userSpaceOnUse" gradientTransform="matrix(.2846 0 0 .27725 52.359 -1.431)" x1="45.259" y1="102.973" x2="45.259" y2="34.751"/><linearGradient xlink:href="#b" id="p" gradientUnits="userSpaceOnUse" gradientTransform="translate(52.9 -.559) scale(.26458)" x1="45.259" y1="102.973" x2="45.259" y2="34.751"/><linearGradient xlink:href="#a" id="O" x1="90.01" y1="192.064" x2="90.01" y2="200.961" gradientUnits="userSpaceOnUse" gradientTransform="translate(-26.543 -161.307)"/><linearGradient xlink:href="#a" id="P" x1="90.01" y1="192.064" x2="90.01" y2="200.961" gradientUnits="userSpaceOnUse" gradientTransform="matrix(.62653 0 0 .99296 -7.812 -159.906)"/><linearGradient xlink:href="#c" id="Q" x1="26.759" y1="162" x2="30.999" y2="162" gradientUnits="userSpaceOnUse" gradientTransform="matrix(1 0 0 .56406 0 70.452)"/><linearGradient id="c"><stop offset="0" stop-color="#fff"/><stop offset="1" stop-color="#fff" stop-opacity="0"/></linearGradient><linearGradient xlink:href="#d" id="R" x1="26.759" y1="162" x2="30.999" y2="162" gradientUnits="userSpaceOnUse" gradientTransform="matrix(.99995 0 0 .53173 135.453 -112.052)"/><linearGradient id="d"><stop offset="0" stop-color="#fff" stop-opacity=".992"/><stop offset="1" stop-color="#fff" stop-opacity="0"/></linearGradient></defs><path d="M0 0h67.47v100.541H0zm0 0" fill="#191919"/><path d="M28.157 8.441c-2.834 0-5.132 2.238-5.132 4.999.001.085.004.17.01.254h-.001l.054.504c.01.065.022.13.036.195l1.813 10.05h.004c.27 1.62 1.707 2.812 3.392 2.812 1.899 0 3.438-1.5 3.438-3.349l-.002-.039 1.41-9.406c.04-.192.07-.386.087-.581l.017-.319v-.002l.005-.12c0-2.76-2.297-4.999-5.131-4.999z" fill="url(#e)"/><path d="M28.157 8.871a4.77 4.77 0 0 0-4.771 4.77c0 .082.004.163.009.244h-.001l.05.48.033.186 1.686 9.591h.004a3.196 3.196 0 0 0 6.35-.512l-.002-.037 1.31-8.977c.038-.183.066-.368.082-.555l.016-.304-.001-.002.005-.114a4.77 4.77 0 0 0-4.77-4.77z" fill="url(#f)"/><g word-spacing="0" letter-spacing="0" font-size="5.644" font-weight="400" style="line-height:1.25" aria-label="BIG-BUTTON-SEQ" font-family="Casual Caps" fill="#c8c8c8" stroke-width=".265"><path style="-inkscape-font-specification:'Casual Caps'" d="M16.154 1.825q.584 0 1.254.931v.226q0 .364-.805.932-.193.27-.193.352 0 .177.998 1.158.16.33.16.482 0 .805-1.64.805h-.16q-.965 0-.965-.29v-.096q.11-.193.356-.193.284-4.084.579-4.084.138-.224.416-.224zm-.482 4.338l.096.066q1.193-.053 1.254-.29v-.033q0-.231-.931-1.124-.163-.243-.163-.42v-.225q0-.372.805-.962.16-.171.16-.26-.237-.402-.706-.545-.281 0-.515 3.792zm2.656-4.082h.709q.173 0 .256.16v.193l-.256.226q-.163.832-.323 2.99.364.16.386.256v.193q0 .044-.16.16h-.033q-.416-.096-.449-.096h-.033q-.312.066-.353.066h-.063q-.163-.083-.163-.26v-.063q.02-.088.323-.256.256-2.357.352-2.99-.286-.097-.385-.257v-.096q.055-.146.192-.226z"/><path style="-inkscape-font-specification:'Casual Caps'" d="M21.333 1.825h.063q.852 0 1.094 1.413 0 .312-.226.45h-.16q-.044 0-.162-.16v-.033q0-.116.033-.29-.212-.868-.579-.868h-.13q-.75.223-1.22.998-.45.86-.45 1.414v.16q0 .733.739.964.025 0 .193.033 1.22-.195 1.22-.642 0-.146-.705-.226-.058.033-.13.033-.2-.066-.225-.162v-.193q0-.042.162-.16h.193q.984 0 1.221.515l.033.193q0 .59-1.03 1.028-.348.097-.676.097h-.16q-.815 0-1.254-.932-.096-.248-.096-.675 0-1.552 1.543-2.764.438-.193.709-.193zm2.538 1.736q.772 0 .772.193v.16q0 .044-.163.16h-.223q-.378 0-.772-.03l-.805.093q-.132-.044-.193-.16v-.16q0-.22.902-.256zm1.808-1.736q.584 0 1.254.931v.226q0 .364-.805.932-.193.27-.193.352 0 .177.998 1.158.16.33.16.482 0 .805-1.64.805h-.16q-.965 0-.965-.29v-.096q.11-.193.356-.193.284-4.084.579-4.084.138-.224.416-.224zm-.482 4.338l.096.066q1.193-.053 1.254-.29v-.033q0-.231-.931-1.124-.163-.243-.163-.42v-.225q0-.372.805-.962.16-.171.16-.26-.237-.402-.706-.545-.281 0-.515 3.792zm2.946-4.372q.146.053.184.124.042.07.042.133 0 .151-.42 2.797-.062.35-.062.805v.193q.068.46.212.518.022.011.047.011.13 0 .311-.262.215-.311.52-1.361.13-.408.354-1.362.226-.953.295-1.017.069-.063.19-.063.102 0 .198.151.033.055.033.188 0 .223-.102.667-.138.6-.138 2.51 0 .326.003.687-.022.28-.21.314-.04.008-.076.008-.127 0-.182-.097-.053-.082-.053-.261 0-.083.011-.182v-.579q0-.138-.022-.138-.013 0-.041.075-.548 1.317-.998 1.317h-.03q-.711 0-.838-1.254 0-.667.482-3.6 0-.129.061-.225.06-.097.229-.097zm4.55.482q.13.144.13.16v.163q0 .193-.612.193h-.257q-.046 0-.096.097 0 .14-.033 1.444 0 .4.13 2.218-.136.13-.257.13-.29 0-.29-.835-.065-.568-.065-1.447v-1.48q0-.044-.094-.097-.108 0-.708.097h-.097q-.05 0-.13-.127v-.193q0-.322 2.38-.322zm2.789 0q.13.144.13.16v.163q0 .193-.612.193h-.256q-.047 0-.097.097 0 .14-.033 1.444 0 .4.13 2.218-.135.13-.257.13-.29 0-.29-.835-.065-.568-.065-1.447v-1.48q0-.044-.094-.097-.107 0-.708.097h-.097q-.05 0-.13-.127v-.193q0-.322 2.38-.322z"/><path style="-inkscape-font-specification:'Casual Caps'" d="M37.569 2.701q.807.67.807 1.695v.223q0 1.246-1.414 1.77-.242.063-.449.063h-.226q-.827 0-1.188-.965-.066-.223-.066-.386v-.352q0-1.034.901-2.09-.041-.085-.041-.16 0-.217.372-.324.085-.025.182-.025.455 0 1.122.55zm-2.054 2.177q0 .924.805 1.092h.097q.587 0 1.157-.546.292-.455.32-.901 0-.808-.802-1.444-.43-.26-.516-.26-.176 0-.705.805-.356.72-.356 1.254zm6.254-3.216q.146.055.223.193v.066q-.353 1.38-.898 4.178l-.163.13h-.223q-.265 0-.838-2.572-.102-.322-.16-.322-.256.595-.546 2.731 0 .612-.226.612h-.063q-.13 0-.226-.16 0-1.273.612-3.57.19-.481.482-.481.41 0 .675 1.35l.32 1.158h.033q.064-.047.386-1.833.328-1.37.45-1.447zm1.405 1.899q.772 0 .772.193v.16q0 .044-.162.16h-.224q-.377 0-.771-.03l-.805.093q-.132-.044-.193-.16v-.16q0-.22.901-.256zm3.818-1.254h.355q.711 0 1.028.482.033.083.033.146 0 .075-.044.127-.052.066-.168.066-.063 0-.143-.02-.334-.319-.932-.319-1.3 0-2.249 1.028-.13.176-.13.353 0 .256.852.256t1.43.11q.58.11.58.75t-1.029 1.136q-.261.096-.482.096h-.096q-.932-.085-.932-.934v-.127q0-.174.223-.201h.042q.184 0 .2.223.017.25.128.389.11.135.273.135h.192q.965-.27.965-.709.003-.016.003-.035 0-.353-1.05-.367-1.103-.011-1.436-.116-.334-.107-.378-.573 0-.978 1.737-1.736.56-.16 1.028-.16zm3.045-.516h.323q.705 0 .705.386v.064q0 .044-.16.162h-.13q-.369-.13-.608-.13-.81 0-.932.516-.163.265-.259 1.284l.066.034q.736-.193.962-.193.044 0 .163.16v.16q0 .137-.516.258-.609.147-.609.224v.033q.1 1.077.61 1.22.176.034.256.034.038 0 .611-.16.133.044.193.16v.193q-.21.29-.708.29h-.256q-1.003 0-1.221-1.608-.033-.308-.033-.612v-.063q0-1.723.741-2.252.345-.16.802-.16z"/><path style="-inkscape-font-specification:'Casual Caps'" d="M52.873 1.993q.579.113 1.364 1.405.257.612.257 1.094 0 .645-.45 1.254v.064q0 .055.483.546v.192q0 .045-.16.163h-.066q-.15 0-.706-.579-.818.353-1.416.353-.96 0-1.285-.675-.13-.298-.13-.546v-.163q0-1.493 1.607-2.86-.008-.042-.008-.078 0-.195.273-.195.1 0 .237.025zm-1.626 3.108q0 .745.708.869.144 0 .193.033 1.028-.15 1.028-.353l-.096-.163v-.16q0-.044.16-.16h.193q.137.127.259.127.29-.283.29-.835-.08-.68-.343-1.1-.262-.421-.719-.763-.648.133-1.384 1.447-.289.783-.289 1.059z"/></g><path d="M28.85 98.374s3.88-.711 5.052-1.131c1.172-.42 2.27-1.196 2.27-1.196s1.318.145 1.172.42c-.147.275-.366.663-.366.663s2.49-.518 2.562-1.002c.073-.485-.732-1.212-.732-1.212s1.172-.049 1.757.226c.586.275.366 1.099.366 1.099s4.394-1.148 3.222-2.408c-1.171-1.26-5.711-2.134-5.711-2.134s1.977.663 1.025 1.245c-.952.582-2.709.905-2.709.905s.44-.307.512-.485c.074-.178-.073-.469-.073-.469s-2.562.34-3.148.905c-.586.566-.44 1.6-.44 1.6s-1.537-.727-1.83-.937c-.293-.21-.659-.76-.659-.76l-.879.324s-.878-.227-.585-.582c.293-.356.805-.614.805-.614s-.952.064-1.171.242c-.22.178-.513.453-.513.453s-1.318-.51-.586-1.059c.732-.55 2.307-.937 2.307-.937s-4.1.331-5.748 1.09c-1.647.76-1.61 1.261-1.391 1.609.22.347.915.92 1.977 1.268 1.061.348 1.5.453 1.5.453s-.915-.727-1.024-.954c-.11-.226.293-.71.293-.71s2.05.46 2.892 1.01c.842.549 1.94 1.187 1.61 1.672-.329.485-1.757 1.406-1.757 1.406z" fill="#552100"/><g style="line-height:1.25"><path style="-inkscape-font-specification:'Casual Caps'" d="M22.464 95.082h.588q.145 0 .213.133v.16l-.213.188q-.135.69-.267 2.483.302.133.32.213v.16q0 .037-.133.133h-.027q-.346-.08-.373-.08h-.028q-.259.055-.293.055h-.052q-.136-.069-.136-.215v-.053q.016-.073.268-.213.213-1.957.293-2.483-.238-.08-.32-.213v-.08q.046-.122.16-.188zm2.971-.108q.364 0 .428.616.348 1.708.561 3.338-.078.185-.24.185-.21 0-.24-.746-.401-2.273-.509-2.724h-.025q-.426 1.174-.616 1.334h-.132q-.33 0-.454-.72h-.027q-.094 0-.32 1.389-.117 1.094-.266 1.094h-.08q-.215-.014-.215-.213.295-2.136.64-3.072.142-.24.32-.24.17 0 .349.8.016.241.08.241l.48-1.147q.14-.135.266-.135zm2.097-.105h.133q1.002 0 1.657.721.053.096.053.213v.027q0 .66-1.31.987-.265.108-.934.213 0 .027-.025.027.053 1.047.053 1.736-.078.187-.24.187h-.053q-.037 0-.135-.133 0-.141.027-.24-.052-.842-.052-1.602l-.055-.188v-.027q0-.023.055-.213v-.373q0-1.335.826-1.335zm-.426 1.655l.08.053q1.053-.151 1.655-.534.106-.112.106-.212 0-.234-1.067-.536-.034 0-.268-.025-.426 0-.426.425-.061 0-.08.83zm3.624-1.575h.107q1.058 0 1.603.614.052.087.052.16v.16q0 .426-1.442.854-.428.09-.428.16 0 .071.641.48 1.248.685 1.417.83l.025.052v.133q-.069.135-.213.135-1.149-.522-2.03-1.202-.069 0-.318-.295h-.028l-.027.055q.16.975.16 1.254v.268q-.069.133-.213.133-.107 0-.188-.133v-.028q0-.192-.24-2.083v-.212q0-1.335 1.122-1.335zm-.694 1.227v.48q.01.056.053.056.15-.24 1.149-.481.698-.231.801-.4 0-.321-1.257-.481-.718.084-.718.613-.028.028-.028.213zm4.791-.579q.67.556.67 1.408v.185q0 1.035-1.173 1.47-.202.052-.374.052h-.187q-.687 0-.987-.8-.055-.186-.055-.321v-.293q0-.859.749-1.735-.035-.071-.035-.133 0-.181.31-.27.07-.02.15-.02.378 0 .932.457zm-1.705 1.808q0 .767.668.907h.08q.488 0 .962-.453.242-.378.265-.749 0-.67-.666-1.2-.357-.215-.428-.215-.146 0-.586.669-.295.597-.295 1.041zm4.555-2.431q.364 0 .428.616.348 1.708.56 3.338-.077.185-.24.185-.21 0-.24-.746-.4-2.273-.508-2.724h-.025q-.426 1.174-.616 1.334h-.133q-.33 0-.453-.72h-.027q-.094 0-.32 1.389-.118 1.094-.266 1.094h-.08q-.216-.014-.216-.213.296-2.136.641-3.072.142-.24.32-.24.17 0 .349.8.016.241.08.241l.48-1.147q.14-.135.266-.135zm2.097-.105h.132q1.003 0 1.658.721.052.096.052.213v.027q0 .66-1.309.987-.265.108-.934.213 0 .027-.025.027.053 1.047.053 1.736-.078.187-.24.187h-.053q-.037 0-.135-.133 0-.141.027-.24-.053-.842-.053-1.602l-.055-.188v-.027q0-.023.055-.213v-.373q0-1.335.827-1.335zm-.426 1.655l.08.053q1.053-.151 1.655-.534.105-.112.105-.212 0-.234-1.066-.536-.035 0-.268-.025-.426 0-.426.425-.062 0-.08.83zm4.477-1.281q.108.118.108.132v.135q0 .16-.508.16h-.213q-.04 0-.08.08 0 .117-.028 1.2 0 .332.108 1.842-.112.108-.213.108-.24 0-.24-.694-.055-.471-.055-1.201v-1.23q0-.036-.078-.08-.09 0-.588.08h-.08q-.042 0-.108-.105v-.16q0-.268 1.975-.268zm.634-.401q.122.043.154.103.034.057.034.11 0 .125-.348 2.323-.053.29-.053.668v.16q.058.383.177.43.018.01.039.01.107 0 .258-.218.179-.258.433-1.13.107-.34.293-1.131.188-.792.245-.845.057-.053.158-.053.084 0 .165.126.027.046.027.156 0 .185-.085.554-.114.499-.114 2.085l.002.57q-.018.234-.174.261-.034.007-.064.007-.105 0-.15-.08-.044-.069-.044-.217 0-.07.009-.151v-.481q0-.115-.019-.115-.011 0-.034.062-.455 1.094-.828 1.094h-.026q-.59 0-.696-1.041 0-.554.401-2.99 0-.107.05-.187t.19-.08z" word-spacing="0" letter-spacing="0" font-size="4.688" font-weight="400" aria-label="IMPROMPTU" font-family="Casual Caps" fill="#c8c8c8"/></g><path d="M4.339 80.765c-1.276 1.977.063 4.402.063 4.402-.526-.463-1.371-.431-1.371-.431m1.356.399c.127-.718.494-1.18.494-1.18" fill="none" stroke="#c8c8c8" stroke-width=".265" stroke-linecap="round" stroke-linejoin="round"/><path d="M28.695 58.64s3.88 3.37 5.052 5.362c1.171 1.992 2.27 5.669 2.27 5.669s1.317-.69 1.171-1.992c-.146-1.302-.366-3.14-.366-3.14s2.49 2.45 2.563 4.749c.073 2.298-.733 5.745-.733 5.745s1.172.23 1.758-1.072c.585-1.303.366-5.21.366-5.21s4.393 5.44 3.221 11.415c-1.171 5.975-5.71 10.112-5.71 10.112s1.976-3.14 1.024-5.899c-.952-2.758-2.709-4.29-2.709-4.29s.44 1.456.513 2.299c.073.842-.073 2.221-.073 2.221s-2.563-1.609-3.149-4.29c-.586-2.681-.44-7.584-.44-7.584s-1.537 3.447-1.83 4.443c-.293.996-.659 3.6-.659 3.6l-.878-1.531s-.879 1.072-.586 2.757c.293 1.686.805 2.912.805 2.912s-.952-.307-1.171-1.15c-.22-.842-.513-2.145-.513-2.145s-1.318 2.414-.585 5.018c.732 2.605 2.306 4.443 2.306 4.443s-4.1-1.57-5.748-5.17c-1.647-3.601-1.61-5.976-1.39-7.623.219-1.647.914-4.367 1.976-6.014 1.062-1.647 1.501-2.145 1.501-2.145s-.915 3.448-1.025 4.52c-.11 1.073.293 3.371.293 3.371s2.05-2.183 2.892-4.788c.842-2.605 1.94-5.63 1.61-7.929-.329-2.298-1.756-6.664-1.756-6.664z" fill="#ff6e0f" stroke="#950e00" stroke-width=".29"/><path d="M30.623 61.941c.39 1.357.686 2.061.86 3.27.391 2.733-.816 5.804-1.649 8.382-.939 2.905-3.117 5.168-3.117 5.168a1.011 1.011 0 0 1-1.733-.517s-.105-.597-.195-1.334c-.028-.225-.01-.468-.033-.707-.225.82-.44 1.664-.52 2.267-.204 1.536-.266 3.628 1.309 7.07.495 1.084 1.276 1.903 2.078 2.604-.176-.428-.393-.698-.53-1.181-.861-3.066.673-5.776.673-5.776a1.011 1.011 0 0 1 .93-.523c.22-1.141.64-2.008.64-2.008a1.011 1.011 0 0 1 1.092-.322c.11-.617.12-.932.256-1.391.192-.654.641-1.712 1.066-2.707.425-.995.81-1.863.81-1.863a1.011 1.011 0 0 1 1.934.441s-.105 4.944.418 7.34c.192.88.684 1.605 1.19 2.207-.097-.665-.436-1.93-.436-1.93a1.011 1.011 0 0 1 1.63-1.054s1.962 1.711 3 4.722c.211.61.21 1.202.23 1.791 1.028-1.598 2.055-3.544 2.511-5.87.6-3.063-.346-5.74-1.37-7.759-.047.746-.014 1.519-.304 2.162-.405.902-1.142 1.41-1.74 1.583-.598.171-1.135.068-1.135.068a1.011 1.011 0 0 1-.789-1.223s.772-3.452.707-5.482c-.007-.222-.238-.495-.312-.748-.364 1.313-1.578 1.996-1.578 1.996a1.011 1.011 0 0 1-1.438-.608s-1.136-3.686-2.172-5.447c-.379-.644-1.373-1.687-2.283-2.62z" fill="#ffba1a" stroke="#ff8a0d" stroke-width=".502" stroke-opacity=".995"/><path d="M36.872 61.144c1.276 1.978-.064 4.402-.064 4.402.527-.463 1.372-.43 1.372-.43m-1.356.398c-.127-.718-.494-1.18-.494-1.18m-15.086 2.588c1.276 1.977-.064 4.402-.064 4.402.527-.463 1.372-.43 1.372-.43m-1.355.398c-.128-.718-.495-1.18-.495-1.18m31.695-3.258c1.275 1.978-.064 4.402-.064 4.402.526-.462 1.371-.43 1.371-.43m-1.356.398c-.127-.718-.494-1.18-.494-1.18m5.368 10.433c-1.275 1.978.064 4.402.064 4.402-.526-.462-1.371-.43-1.371-.43m1.355.398c.128-.717.495-1.18.495-1.18" fill="none" stroke="#c8c8c8" stroke-width=".265" stroke-linecap="round" stroke-linejoin="round"/><path d="M7.157 8.556c-2.834 0-5.132 2.238-5.132 4.999.001.085.004.17.01.254h-.001l.054.504c.01.065.022.13.036.195l1.813 10.05h.004c.27 1.62 1.707 2.812 3.392 2.812 1.899 0 3.438-1.5 3.438-3.349l-.002-.039 1.41-9.406c.04-.192.07-.386.087-.581l.017-.319v-.002l.005-.12c0-2.76-2.297-4.999-5.131-4.999z" fill="url(#g)"/><path d="M7.157 8.986a4.77 4.77 0 0 0-4.771 4.77c0 .082.004.163.009.244h-.001l.05.48.033.186 1.686 9.591h.004a3.196 3.196 0 0 0 6.35-.512l-.002-.037 1.31-8.977c.038-.183.066-.368.082-.555l.016-.304-.001-.002.005-.114a4.77 4.77 0 0 0-4.77-4.77z" fill="url(#h)"/><path word-spacing="0" letter-spacing="0" font-size="3.772" font-weight="400" aria-label="1" d="M7.209 9.765q.29 0 .323.365-.28 1.556-.28 2.083.193.081.193.216 0 .079-.15.15-.143 0-.515.043-.09-.03-.129-.107v-.108q.1-.15.258-.15l.02-.044q0-.722.258-2.083l-.064-.042q-.21.02-.43.064-.128 0-.15-.173v-.042q.057-.172.538-.172z" font-family="Casual Caps"/><path d="M17.681 8.581c-2.834 0-5.132 2.238-5.132 4.999.001.085.004.17.01.254h-.001l.054.504c.01.065.022.13.036.195l1.813 10.05h.004c.27 1.62 1.707 2.812 3.392 2.812 1.899 0 3.438-1.5 3.438-3.349l-.002-.039 1.41-9.406c.04-.192.07-.386.087-.581l.017-.319v-.002l.005-.12c0-2.76-2.297-4.999-5.131-4.999z" fill="url(#i)"/><path d="M17.681 9.011a4.77 4.77 0 0 0-4.771 4.77c0 .082.004.163.009.244h-.001l.05.48.033.186 1.686 9.591h.004a3.196 3.196 0 0 0 6.35-.512l-.002-.037 1.31-8.977c.038-.183.066-.368.082-.555l.016-.304-.001-.002.005-.114a4.77 4.77 0 0 0-4.77-4.77z" fill="url(#j)"/><path word-spacing="0" letter-spacing="0" font-size="3.772" font-weight="400" aria-label="2" d="M17.798 9.7h.171q.332 0 .387.622v.022q0 .853-1.01 1.805v.043q.023 0 .023.022 1.053-.087 1.354-.087l.064.087v.129q0 .149-.818.149 0 .028-1.18.087-.098-.035-.151-.13v-.128q0-.022.709-.645.645-.737.667-1.267v-.13q0-.194-.13-.257-.252 0-.73.558h-.15q-.035 0-.086-.085v-.128q.515-.667.88-.667z" font-family="Casual Caps"/><path word-spacing="0" letter-spacing="0" font-size="3.772" font-weight="400" aria-label="3" d="M28.928 9.737h.194q.17 0 .17.172v.086q-.143.179-.793.71l-.022.042q.731.423.731 1.096 0 .294-.302.622-.298.258-.73.258-.526 0-.86-.516V12.1q0-.03.11-.106h.064q.1 0 .257.213.24.173.408.173h.064q.645-.092.645-.58 0-.35-.387-.644-.473-.17-.473-.345v-.042q0-.146.602-.603v-.02l-.022-.044q-.739.129-.923.129h-.042q-.116 0-.151-.085v-.15q0-.093.664-.152.487-.107.796-.107z" font-family="Casual Caps"/><path d="M38.822 8.441c-2.834 0-5.132 2.238-5.132 4.999.001.085.004.17.01.254h-.001l.054.504c.01.065.022.13.036.195l1.813 10.05h.004c.27 1.62 1.707 2.812 3.392 2.812 1.899 0 3.438-1.5 3.438-3.349l-.002-.039 1.41-9.406c.04-.192.07-.386.087-.581l.017-.319v-.002l.005-.12c0-2.76-2.297-4.999-5.131-4.999z" fill="url(#k)"/><path d="M38.822 8.871a4.77 4.77 0 0 0-4.771 4.77c0 .082.004.163.009.244h-.001l.05.48.033.186 1.686 9.591h.004a3.196 3.196 0 0 0 6.35-.512l-.002-.037 1.31-8.977c.038-.183.066-.368.082-.555l.016-.304-.001-.002.005-.114a4.77 4.77 0 0 0-4.77-4.77z" fill="url(#l)"/><path word-spacing="0" letter-spacing="0" font-size="3.772" font-weight="400" aria-label="4" d="M39.487 9.794q.09.03.129.107v.087q-.107.784-.172 1.48l.065.045h.171l.129-.022q.081 0 .173.129v.086q0 .03-.129.13h-.387q-.03 0-.064.064-.022.45-.022.622-.063.151-.194.151-.07 0-.15-.15.021-.516.044-.623 0-.06-.732-.087-.173-.057-.258-.193v-.13q0-.215.752-1.03.284-.347.473-.645.019 0 .172-.02zm-1.01 1.675q.109.044.387.044h.171q.107 0 .13-.731.021 0 .021-.107l-.042-.022q-.101.048-.602.687-.065.084-.065.129z" font-family="Casual Caps"/><path d="M49.392 8.394c-2.834 0-5.132 2.238-5.132 4.999.001.085.004.17.01.254h-.001l.054.504c.01.065.022.13.036.195l1.813 10.05h.004c.27 1.62 1.707 2.812 3.392 2.812 1.899 0 3.438-1.5 3.438-3.349l-.002-.039 1.41-9.406c.04-.192.07-.386.087-.581l.017-.319v-.002l.005-.12c0-2.76-2.297-4.999-5.131-4.999z" fill="url(#m)"/><path d="M49.392 8.824a4.77 4.77 0 0 0-4.771 4.77c0 .082.004.163.009.244h-.001l.05.48.033.186 1.686 9.591h.004a3.196 3.196 0 0 0 6.35-.512l-.002-.037 1.31-8.977c.038-.183.066-.368.082-.555l.016-.304-.001-.002.005-.114a4.77 4.77 0 0 0-4.77-4.77z" fill="url(#n)"/><path word-spacing="0" letter-spacing="0" font-size="3.772" font-weight="400" aria-label="5" d="M50.292 9.727q.088.03.129.107v.129q0 .03-.107.109-1.225 0-1.225.129-.065.173-.065.322v.042q0 .07.623.151.86.35.86.965v.194q0 .499-.538.753-.092.043-.387.065-.51 0-.793-.323v-.129q0-.035.084-.086h.087q.44.193.536.193h.109q.558-.057.558-.473.022 0 .022-.107 0-.595-.903-.774-.429 0-.602-.235v-.216q.064-.73.366-.73 0-.049 1.246-.086z" font-family="Casual Caps"/><path d="M60.057 8.254c-2.834 0-5.132 2.238-5.132 4.999.001.085.004.17.01.254h-.001l.054.504c.01.065.022.13.036.195l1.813 10.05h.004c.27 1.62 1.707 2.812 3.392 2.812 1.899 0 3.438-1.5 3.438-3.349l-.002-.039 1.41-9.406c.04-.192.07-.386.087-.581l.017-.319v-.002l.005-.12c0-2.76-2.297-4.999-5.131-4.999z" fill="url(#o)"/><path d="M60.057 8.684a4.77 4.77 0 0 0-4.771 4.77c0 .082.004.163.009.244h-.001l.05.48.033.186 1.686 9.591h.004a3.196 3.196 0 0 0 6.35-.512l-.002-.037 1.31-8.977c.038-.183.066-.368.082-.555l.016-.304-.001-.002.005-.114a4.77 4.77 0 0 0-4.77-4.77z" fill="url(#p)"/><path word-spacing="0" letter-spacing="0" font-size="3.772" font-weight="400" aria-label="6" d="M60.737 9.593h.108q.173 0 .173.173v.064q0 .092-.323.129-.692.407-.989 1.332v.042l.065.042h.15q.664 0 .881.516.022.085.022.173v.02q0 .42-.45.603l-.13.022h-.173q-.433 0-.687-.645-.042-.107-.064-.409 0-1.042 1.073-1.911.194-.151.345-.151zm-1.073 2.17q0 .231.236.515.17.108.28.108.3-.086.3-.28v-.064q0-.245-.58-.344h-.107q-.077 0-.129.064z" font-family="Casual Caps"/><g word-spacing="0" letter-spacing="0" font-size="2.799" font-weight="400" style="line-height:1.25" aria-label="CLEAR" font-family="Casual Caps" fill="#c8c8c8" stroke-width=".175"><path style="-inkscape-font-specification:'Casual Caps'" d="M15.961 57.361l.093-.02q.226-.02.267.169-.01.104-.054.127-.094.02-.145-.009-.051-.03-.06-.027l-.03.006q-.262.127-.468.545-.212.515-.142.83l.007.03q.146.41.597.343.331-.073.669-.377.03-.018.057-.024.078-.017.13.065.018.078-.032.163-.05.084-.483.31-.118.06-.258.09l-.031.007q-.546.12-.815-.294-.068-.156-.087-.242-.144-.65.422-1.416.208-.242.363-.276zm.738-.244q.027-.087.109-.105h.002q.083-.018.126.068l.024.11.306 1.826q.057.194.162.171.004 0 .006-.003.111-.03.246-.145.027-.017.052-.023.047-.01.082.023.032.03.04.067.006.026 0 .057-.134.225-.38.28l-.025.005q-.162.036-.255-.027-.099-.068-.153-.315l-.002-.008q-.09-.403-.34-1.981z"/><path style="-inkscape-font-specification:'Casual Caps'" d="M17.937 56.778l.156-.035q.342-.075.383.112l.007.03q.005.022-.06.096l-.063.014q-.192-.023-.308.002-.393.087-.396.35-.05.145.012.65l.035.008q.336-.172.445-.196.022-.005.096.06l.017.077q.015.067-.222.18-.279.137-.27.174l.003.016q.163.511.425.526.09-.003.128-.011.019-.004.28-.143.068.007.11.057l.02.093q-.07.163-.312.216l-.124.027q-.486.108-.763-.647-.049-.146-.081-.293l-.007-.03q-.184-.834.118-1.17.15-.114.371-.163zm.962-.311q.201-.044.525.75.284.541.715 1.54l.007.031q-.023.086-.107.105-.126.028-.253-.336-.051-.119-.106-.107-.58.256-.568.305.033.15-.062.242l-.077.017q-.021.005-.096-.06-.16-1.324-.15-2.008.002-.441.172-.479zm.092.487q.002 1.119.08 1.467.032.01.05.006.438-.18.482-.254-.563-1.23-.612-1.22zm1.236-.616l.064-.014q.616-.136 1.013.151.042.044.051.087l.02.093q.056.248-.73.684-.238.107-.229.148.01.042.436.198.815.238.932.3l.022.028.017.077q-.023.088-.107.107-.737-.157-1.338-.44-.04.01-.224-.13l-.016.003-.009.035q.22.548.255.711l.035.156q-.023.086-.107.105-.063.014-.127-.053l-.003-.016q-.025-.112-.409-1.184l-.027-.124q-.172-.778.482-.922zm-.245.804l.061.28q.013.031.038.026.057-.16.608-.429.377-.224.416-.336-.042-.187-.795-.119-.408.142-.34.45-.012.02.012.128z"/></g><path d="M33.238 45.96s-2.866 1.927-4.56 2.508c-1.694.582-4.82 1.127-4.82 1.127s.587.654 1.694.582c1.107-.073 2.67-.182 2.67-.182s-2.084 1.236-4.039 1.272c-1.954.037-4.885-.364-4.885-.364s-.195.582.912.873c1.108.29 4.43.182 4.43.182s-4.626 2.18-9.706 1.599c-5.081-.581-8.599-2.835-8.599-2.835s2.67.981 5.016.509C13.696 50.758 15 49.886 15 49.886s-1.238.218-1.955.254c-.716.037-1.888-.036-1.888-.036s1.368-1.272 3.648-1.563c2.28-.291 6.448-.219 6.448-.219s-2.93-.763-3.778-.908c-.846-.146-3.06-.327-3.06-.327l1.301-.436s-.911-.436-2.344-.291a20.17 20.17 0 0 0-2.476.4s.26-.473.978-.582c.715-.109 1.823-.254 1.823-.254s-2.052-.655-4.266-.29c-2.216.363-3.778 1.144-3.778 1.144s1.335-2.035 4.396-2.854c3.062-.817 5.081-.799 6.482-.69 1.4.11 3.713.454 5.114.981 1.4.528 1.823.746 1.823.746s-2.931-.455-3.843-.51c-.912-.054-2.866.146-2.866.146s1.856 1.018 4.07 1.436c2.216.418 4.788.963 6.743.8 1.954-.164 5.667-.873 5.667-.873z" fill="#ff6e0f" stroke="#950e00" stroke-width=".188"/><path d="M30.43 46.917c-1.153.194-1.752.341-2.78.427-2.324.195-4.935-.405-7.127-.818-2.47-.466-4.395-1.548-4.395-1.548a.86.502 0 0 1 .44-.86s.508-.052 1.134-.097c.192-.014.398-.005.601-.016-.697-.112-1.414-.219-1.927-.258-1.306-.102-3.085-.132-6.012.65-.922.245-1.618.633-2.214 1.031.364-.087.593-.195 1.004-.263 2.607-.427 4.912.334 4.912.334a.86.502 0 0 1 .444.462c.97.11 1.708.318 1.708.318a.86.502 0 0 1 .273.542c.525.054.793.06 1.183.127.556.095 1.456.318 2.302.529.846.211 1.584.402 1.584.402a.86.502 0 0 1-.375.96s-4.204-.052-6.241.208c-.748.095-1.365.34-1.877.59.566-.048 1.641-.216 1.641-.216a.86.502 0 0 1 .897.81s-1.455.973-4.016 1.489c-.518.104-1.022.104-1.523.114 1.36.51 3.014 1.02 4.992 1.246 2.604.298 4.88-.171 6.597-.68-.634-.023-1.291-.007-1.838-.15-.767-.202-1.199-.568-1.346-.865-.145-.296-.058-.563-.058-.563a.86.502 0 0 1 1.04-.392s2.935.384 4.662.351c.188-.003.42-.118.636-.155-1.117-.18-1.698-.783-1.698-.783a.86.502 0 0 1 .517-.714s3.135-.564 4.632-1.078c.548-.188 1.435-.682 2.228-1.134z" fill="#ffba1a" stroke="#ff8a0d" stroke-width=".326" stroke-opacity=".995"/><g word-spacing="0" letter-spacing="0" font-size="2.799" font-weight="400" style="line-height:1.25" aria-label="LEN" font-family="Casual Caps" fill="#c8c8c8" stroke="#ca4c07" stroke-width=".096" stroke-opacity=".997"><path style="-inkscape-font-specification:'Casual Caps'" d="M57.76 54.207q.02-.09.1-.113l.003-.001q.082-.021.131.06l.031.108.427 1.803q.07.19.173.16l.006-.004q.109-.038.235-.161.026-.019.05-.027.046-.013.084.018.034.026.045.063.007.027.004.058-.119.233-.36.304l-.025.008q-.16.046-.256-.01-.104-.062-.175-.304l-.002-.008q-.116-.396-.47-1.954z"/><path style="-inkscape-font-specification:'Casual Caps'" d="M58.972 53.785l.154-.044q.336-.099.39.086l.008.03q.006.02-.053.1l-.062.017q-.194-.01-.308.023-.386.113-.372.374-.04.15.055.647l.037.007q.323-.194.43-.225.021-.006.1.054l.023.075q.019.066-.21.196-.269.154-.258.19l.004.016q.197.5.46.497.088-.008.126-.02.019-.005.27-.161.069.002.113.05l.027.09q-.06.168-.297.237l-.122.035q-.477.14-.805-.594-.058-.143-.1-.287l-.009-.03q-.24-.82.04-1.175.141-.124.36-.188zm1.898-.622q.077.007.133.062l.009.032q.023.706.153 2.113l-.06.083-.105.033q-.127.036-.757-1.108-.094-.14-.12-.131-.04.318.12 1.376.084.29-.023.322l-.03.01q-.062.018-.13-.046-.177-.606-.205-1.783.024-.257.162-.297.196-.057.509.549l.314.506.015-.004q.024-.032-.07-.926-.035-.698.011-.751z"/></g><path d="M10.022 37.713s2.866-1.927 4.56-2.508c1.694-.582 4.82-1.127 4.82-1.127s-.587-.654-1.694-.582c-1.107.073-2.67.182-2.67.182s2.084-1.236 4.039-1.272c1.954-.037 4.885.364 4.885.364s.195-.582-.912-.873c-1.108-.29-4.43-.182-4.43-.182s4.626-2.18 9.706-1.599c5.081.581 8.599 2.835 8.599 2.835s-2.67-.981-5.016-.509c-2.345.473-3.648 1.345-3.648 1.345s1.238-.218 1.955-.254c.716-.037 1.888.036 1.888.036s-1.368 1.272-3.648 1.563c-2.28.291-6.448.219-6.448.219s2.93.763 3.778.908c.846.146 3.06.327 3.06.327l-1.301.436s.911.436 2.344.291a20.17 20.17 0 0 0 2.476-.4s-.26.473-.978.582c-.715.109-1.823.254-1.823.254s2.052.655 4.266.29c2.216-.363 3.778-1.144 3.778-1.144s-1.335 2.035-4.396 2.854c-3.062.817-5.081.799-6.482.69-1.4-.11-3.713-.454-5.114-.981-1.4-.528-1.823-.746-1.823-.746s2.931.455 3.843.51c.912.054 2.866-.146 2.866-.146s-1.856-1.018-4.07-1.436c-2.216-.418-4.788-.963-6.743-.8-1.954.164-5.667.873-5.667.873z" fill="#ff6e0f" stroke="#950e00" stroke-width=".188"/><path d="M12.83 36.756c1.153-.194 1.752-.341 2.78-.427 2.324-.195 4.935.405 7.127.818 2.47.466 4.395 1.548 4.395 1.548a.86.502 0 0 1-.44.86s-.508.052-1.134.097c-.192.014-.398.005-.601.016.697.112 1.414.219 1.927.258 1.306.102 3.085.132 6.012-.65.922-.245 1.618-.633 2.214-1.031-.364.087-.593.195-1.004.263-2.607.427-4.912-.334-4.912-.334a.86.502 0 0 1-.444-.462c-.97-.11-1.708-.318-1.708-.318a.86.502 0 0 1-.273-.542c-.525-.054-.793-.06-1.183-.127-.556-.095-1.456-.318-2.302-.529-.846-.211-1.584-.402-1.584-.402a.86.502 0 0 1 .375-.96s4.204.052 6.241-.208c.748-.095 1.365-.34 1.877-.59-.566.048-1.641.216-1.641.216a.86.502 0 0 1-.897-.81s1.455-.973 4.016-1.489c.518-.104 1.022-.104 1.523-.114-1.36-.51-3.014-1.02-4.992-1.246-2.604-.298-4.88.171-6.597.68.634.023 1.291.007 1.838.15.767.202 1.199.568 1.346.865.145.296.058.563.058.563a.86.502 0 0 1-1.04.392s-2.935-.384-4.662-.351c-.188.003-.42.118-.636.155 1.117.18 1.698.783 1.698.783a.86.502 0 0 1-.517.714s-3.135.564-4.632 1.078c-.548.188-1.435.682-2.228 1.134z" fill="#ffba1a" stroke="#ff8a0d" stroke-width=".326" stroke-opacity=".995"/><g style="line-height:1.25"><path style="-inkscape-font-specification:'Casual Caps'" d="M35.385 40.616l.091-.03q.223-.04.283.142 0 .105-.042.132-.091.03-.145.006-.054-.025-.062-.022l-.03.01q-.248.151-.412.587-.16.534-.06.84l.01.03q.185.393.628.283.322-.105.628-.441.028-.02.055-.03.076-.024.137.052.024.076-.017.165-.042.089-.45.356-.112.071-.249.116l-.03.01q-.531.173-.84-.214-.083-.148-.11-.231-.207-.634.281-1.45.184-.262.334-.311zm.728-.472q.088-.029.17.06.112.496.366 1.273l.044.137.045.035.102-.049.5-.163q.06-.02-.025-.278-.126-.386-.369-1.237.04-.063.09-.08l.016-.005q.124-.029.155.066.097.398.594 2.02.019.057-.052.15l-.03.011q-.125.03-.156-.066-.06-.235-.088-.323-.01-.031-.304.049-.27.103-.359.133-.017.047-.01.07.146.394.17.466l-.058.084-.075.025q-.108-.022-.14-.12-.071-.22-.209-.587-.368-1.18-.415-1.424-.032-.052-.059-.132.056-.102.097-.115zm1.646-.555q.196-.064.596.694.335.512.863 1.462l.01.031q-.014.088-.096.115-.124.04-.285-.31-.063-.112-.116-.095-.552.31-.536.359.048.147-.037.246l-.076.025q-.02.007-.1-.05-.29-1.302-.347-1.984-.041-.439.124-.493zm.14.475q.111 1.114.222 1.453.034.006.05 0 .42-.221.456-.3-.68-1.169-.729-1.153zm2.151-1.191q.077.004.135.057l.01.032q.046.705.22 2.108l-.057.086-.105.034q-.125.04-.79-1.083-.099-.136-.126-.128-.029.32.163 1.372.095.288-.012.323l-.03.01q-.06.02-.131-.04-.196-.6-.261-1.777.015-.257.153-.302.194-.063.526.533l.33.496.015-.005q.022-.032-.1-.923-.057-.696-.011-.751z" word-spacing="0" letter-spacing="0" font-size="2.799" font-weight="400" aria-label="CHAN" font-family="Casual Caps" fill="#c8c8c8" stroke="#ca4c07" stroke-width=".096" stroke-opacity=".997"/></g><g style="line-height:1.25"><path style="-inkscape-font-specification:'Casual Caps'" d="M47.337 57.006l.093-.022q.162-.039.905.637.425.409.51.764.121.51-.67.897-.13.046-.215.067-.114 0-.13-.068-.367-1.19-.525-1.857l-.04-.17q-.034-.14.072-.248zm.205.312l-.008.035q.2.77.48 1.672.045.022.07.016.587-.286.51-.613l-.004-.016q-.095-.395-1.013-1.085zm1.78-.817l.155-.037q.34-.081.385.105l.007.03q.005.022-.058.097l-.063.015q-.193-.02-.309.008-.39.093-.39.355-.048.147.023.65l.036.008q.332-.178.441-.203.022-.006.097.058l.019.077q.015.067-.22.184-.276.14-.267.178l.003.016q.172.508.435.519.088-.004.127-.014.019-.004.277-.147.069.006.111.055l.022.093q-.067.164-.308.221l-.124.03q-.484.115-.773-.635-.052-.146-.087-.292l-.007-.03q-.198-.831.099-1.172.148-.116.369-.169zm.629-.084q.025-.087.106-.107h.003q.083-.019.127.066l.026.11.335 1.82q.06.194.165.169l.007-.003q.11-.032.242-.15.027-.017.052-.023.047-.01.083.021.032.03.04.067.007.026.002.057-.13.228-.375.286l-.025.006q-.162.038-.256-.024-.1-.066-.158-.312l-.002-.008q-.096-.401-.372-1.975z" word-spacing="0" letter-spacing="0" font-size="2.799" font-weight="400" aria-label="DEL" font-family="Casual Caps" fill="#c8c8c8"/></g><g style="line-height:1.25"><path style="-inkscape-font-specification:'Casual Caps'" d="M58.812 70.72l.078-.018q.389-.088.537.057l.014.063q.005.02-.06.095l-.062.014q-.32-.008-.438.019-.369.084-.442.427-.02.197.023.388l.032.14q.025.11.07.163.283-.082.415-.112l.093-.021q.022-.005.097.06l.018.078q.02.093-.399.189-.152.052-.141.098.16.411.2.592l.018.077q.005.022-.06.095l-.078.018q-.088-.026-.099-.075-.319-.896-.368-1.11l-.053-.233q-.131-.577.305-.886.126-.078.3-.118zm.823-.057l.342-.078q.084-.02.142.049l.02.093-.098.138q.013.42.174 1.481.193.037.215.081l.02.094q.006.02-.059.095l-.016.003q-.212 0-.228.003l-.016.004q-.143.066-.163.07l-.03.008q-.088-.022-.108-.108l-.007-.03q0-.045.128-.16-.136-1.167-.16-1.485-.148-.015-.214-.08l-.01-.048q.01-.076.068-.13zm.562-.21q.026-.087.107-.105l.003-.001q.083-.018.126.068l.025.11.318 1.823q.058.195.164.17.004 0 .006-.002.11-.031.244-.147.027-.018.052-.023.047-.01.082.022.032.029.04.066.007.027.001.058-.132.226-.377.282l-.025.006q-.163.037-.256-.026-.1-.067-.155-.314l-.002-.008q-.092-.402-.353-1.979zm.895-.204q.026-.087.108-.106h.002q.083-.018.127.068l.025.109.317 1.824q.059.194.164.17.004 0 .006-.003.111-.03.244-.146.027-.018.053-.024.046-.01.082.022.032.03.04.067.006.027 0 .057-.131.227-.377.283l-.025.005q-.162.037-.255-.026-.1-.067-.156-.313l-.002-.008q-.092-.403-.353-1.979z" word-spacing="0" letter-spacing="0" font-size="2.799" font-weight="400" aria-label="FILL" font-family="Casual Caps" fill="#c8c8c8"/></g><g word-spacing="0" letter-spacing="0" font-size="2.799" font-weight="400" style="line-height:1.25" aria-label="RESET" font-family="Casual Caps" fill="#c8c8c8" stroke-width=".175"><path style="-inkscape-font-specification:'Casual Caps'" d="M4.252 71.188l.062-.018q.609-.167 1.02.1.044.041.056.083l.025.093q.068.245-.695.72-.232.12-.22.16.01.04.445.175.826.196.947.252l.022.027.021.076q-.018.089-.1.111-.745-.118-1.36-.37-.04.012-.23-.119l-.016.005-.007.036q.247.535.291.696l.043.154q-.019.088-.102.11-.062.018-.129-.046l-.004-.016q-.03-.11-.469-1.16l-.034-.123q-.211-.769.434-.946zm-.204.816l.076.277q.014.03.039.023.049-.163.585-.46.365-.243.398-.357-.051-.184-.8-.077-.4.163-.316.467-.012.02.018.127zm2.071-1.398l.155-.042q.337-.093.388.091l.008.03q.006.022-.055.1l-.062.017q-.193-.014-.308.018-.387.107-.378.37-.042.147.046.647l.036.007q.326-.189.434-.219.021-.005.099.055l.021.077q.018.066-.212.192-.272.15-.262.187l.004.015q.19.502.452.504.09-.008.127-.018.019-.005.272-.157.069.003.113.05l.025.093q-.062.166-.3.232l-.123.033q-.48.133-.795-.607-.056-.143-.096-.288l-.009-.03q-.227-.824.058-1.174.144-.122.362-.183z"/><path style="-inkscape-font-specification:'Casual Caps'" d="M7.693 70.438l.17-.047q.34-.094.555.095.027.035.035.066.01.035-.004.066-.016.039-.072.054-.03.008-.07.01-.202-.11-.488-.03-.622.17-.94.787-.039.101-.015.186.033.122.44.01.408-.112.699-.136.291-.023.375.283.085.305-.342.678-.112.08-.217.11l-.047.012q-.456.082-.568-.324l-.017-.06q-.023-.083.08-.126l.02-.005q.089-.025.126.08.04.118.112.169.07.05.148.029l.092-.026q.426-.256.368-.466 0-.008-.003-.017-.047-.169-.55-.037-.53.14-.702.134-.174-.008-.256-.224-.13-.468.601-1.06.246-.15.47-.211zm1.388-.648l.155-.042q.337-.093.388.091l.008.03q.006.022-.055.1l-.062.016q-.193-.013-.308.019-.387.107-.378.369-.042.148.046.648l.036.007q.326-.189.434-.219.021-.006.099.055l.021.077q.018.066-.212.191-.272.15-.262.187l.004.016q.19.502.452.504.09-.008.127-.018.019-.005.272-.157.069.003.113.05l.025.093q-.062.166-.3.232l-.123.033q-.48.132-.795-.607-.056-.143-.096-.288l-.009-.03q-.227-.824.058-1.175.144-.121.362-.182z"/><path style="-inkscape-font-specification:'Casual Caps'" d="M10.714 69.588q.081.052.083.06l.022.078q.025.092-.267.172l-.123.034q-.022.006-.033.059.018.067.174.695.053.19.354 1.043-.047.08-.105.096-.139.038-.249-.361-.106-.263-.222-.683l-.195-.708q-.006-.02-.057-.033-.052.014-.326.139l-.046.013q-.024.006-.079-.044l-.025-.092q-.043-.154 1.094-.468z"/></g><g style="line-height:1.25"><path style="-inkscape-font-specification:'Casual Caps'" d="M6.351 28.673h.095q.225.03.225.222-.033.1-.081.112-.096 0-.14-.04-.043-.039-.051-.039h-.032q-.283.067-.574.43-.318.458-.318.781v.031q.054.43.51.464.338 0 .733-.224.033-.011.062-.011.08 0 .113.091 0 .08-.067.152-.067.071-.538.198-.129.033-.272.033h-.031q-.56 0-.733-.463-.033-.167-.033-.255 0-.667.718-1.291.255-.192.414-.192zm.773-.08q.045-.08.129-.08h.003q.084.002.108.095v.112l-.096 1.85q.014.202.122.202.004 0 .006-.002.115-.005.271-.088.03-.011.056-.011.048 0 .075.04.025.035.025.073 0 .027-.013.056-.179.191-.43.191h-.026q-.167 0-.243-.082-.082-.087-.082-.34v-.008q0-.413.095-2.008zm1.143-.08q.098 0 .11.128v.015q0 .126-.062.495l.031.016q.54-.417.701-.59h.08q.022 0 .08.08v.111q-.078.094-.796.686-.144.159-.144.238.078.216.701 1.165.032.051.032.095v.032q0 .021-.08.08h-.095q-.06-.033-.527-.782 0-.023-.047-.047h-.017q-.031.005-.031.031 0 .237-.017.638l-.079.065h-.08q-.021 0-.08-.081v-.127q0-.94.208-2.2.059-.048.112-.048z" word-spacing="0" letter-spacing="0" font-size="2.799" font-weight="400" aria-label="CLK" font-family="Casual Caps" fill="#c8c8c8"/></g><g word-spacing="0" letter-spacing="0" font-size="2.799" font-weight="400" style="line-height:1.25" aria-label="LEN" font-family="Casual Caps" fill="#c8c8c8" stroke-width=".175"><path style="-inkscape-font-specification:'Casual Caps'" d="M56.114 27.621q.045-.08.128-.08h.003q.085.002.108.095v.112l-.096 1.85q.014.201.122.201l.007-.001q.115-.006.27-.089.03-.01.056-.01.048 0 .076.039.024.035.024.074 0 .027-.012.056-.18.191-.43.191h-.027q-.166 0-.243-.082-.082-.087-.082-.34v-.009q0-.412.096-2.007z"/><path style="-inkscape-font-specification:'Casual Caps'" d="M57.396 27.557h.16q.35 0 .35.19v.032q0 .022-.08.081h-.064q-.183-.064-.302-.064-.402 0-.462.255-.08.132-.128.637l.032.017q.365-.096.477-.096.022 0 .081.08v.078q0 .069-.256.129-.302.072-.302.11v.017q.05.534.302.606.088.016.128.016.019 0 .303-.08.066.023.096.08v.096q-.104.143-.352.143h-.127q-.497 0-.605-.797-.017-.153-.017-.303v-.032q0-.854.368-1.116.17-.08.398-.08zm1.995-.064q.073.027.111.095v.033q-.175.685-.446 2.072l-.08.064h-.11q-.132 0-.416-1.275-.051-.16-.08-.16-.127.295-.27 1.354 0 .304-.112.304h-.032q-.064 0-.112-.08 0-.63.304-1.77.094-.239.239-.239.203 0 .335.67l.158.574h.016q.032-.023.192-.909.162-.679.223-.717z"/></g><g style="line-height:1.25"><path style="-inkscape-font-specification:'Casual Caps'" d="M17.38 92.06q.053.08.052.087l-.012.08q-.014.095-.314.051l-.126-.018q-.023-.003-.054.04-.01.07-.119.707-.028.196-.094 1.098-.075.054-.135.046-.142-.021-.082-.43.007-.284.07-.716l.105-.726q.003-.022-.039-.054-.053-.008-.354-.003l-.048-.007q-.024-.003-.054-.071l.013-.095q.023-.158 1.19.01zm.509-.265q.204.03.226.886.074.608.125 1.694l-.004.032q-.052.073-.138.06-.128-.018-.118-.404-.006-.129-.061-.137-.632.034-.64.084-.022.153-.142.205l-.079-.012q-.022-.003-.068-.09.317-1.295.57-1.93.157-.413.329-.388zm-.086.488q-.393 1.047-.445 1.4.028.021.045.024.475-.013.542-.067-.092-1.35-.142-1.357zm1.364-.19l.079.012q.592.086.917.568.023.061.013.13l-.002.016q-.057.39-.858.471-.166.041-.57.046-.003.016-.018.014-.058.623-.117 1.03-.062.104-.158.09l-.031-.004q-.022-.003-.069-.09.013-.084.037-.14.041-.502.106-.951l-.016-.116.002-.016q.002-.014.05-.121l.033-.22q.114-.79.602-.719zm-.393.942l.043.038q.635 0 1.023-.174.072-.057.08-.116.02-.138-.584-.408-.02-.003-.156-.038-.251-.036-.288.215-.036-.005-.118.483z" word-spacing="0" letter-spacing="0" font-size="2.799" font-weight="400" aria-label="TAP" font-family="Casual Caps" fill="#c8c8c8"/></g><g transform="translate(-13.601 -37.268)"><circle cx="63.203" cy="61.279" r="2.082" fill="url(#q)"/><circle cx="-45.189" cy="-75.549" r="1.667" transform="rotate(165)" fill="url(#r)"/></g><g transform="translate(-3.009 -37.268)"><circle cx="63.203" cy="61.279" r="2.082" fill="url(#s)"/><circle cx="-45.189" cy="-75.549" r="1.667" transform="rotate(165)" fill="url(#t)"/></g><g transform="translate(-24.143 -37.268)"><circle cx="63.203" cy="61.279" r="2.082" fill="url(#u)"/><circle cx="-45.189" cy="-75.549" r="1.667" transform="rotate(165)" fill="url(#v)"/></g><g transform="translate(-34.759 -37.268)"><circle cx="63.203" cy="61.279" r="2.082" fill="url(#w)"/><circle cx="-45.189" cy="-75.549" r="1.667" transform="rotate(165)" fill="url(#x)"/></g><g transform="translate(-45.343 -37.268)"><circle cx="63.203" cy="61.279" r="2.082" fill="url(#y)"/><circle cx="-45.189" cy="-75.549" r="1.667" transform="rotate(165)" fill="url(#z)"/></g><g transform="translate(-55.893 -37.268)"><circle cx="63.203" cy="61.279" r="2.082" fill="url(#A)"/><circle cx="-45.189" cy="-75.549" r="1.667" transform="rotate(165)" fill="url(#B)"/></g><path d="M33.835 50.744s2.866-1.927 4.56-2.508c1.694-.582 4.82-1.127 4.82-1.127s-.587-.654-1.694-.582c-1.107.073-2.67.182-2.67.182s2.084-1.236 4.039-1.272c1.954-.037 4.885.364 4.885.364s.195-.582-.912-.873c-1.108-.29-4.43-.182-4.43-.182s4.626-2.18 9.706-1.599c5.081.581 8.599 2.835 8.599 2.835s-2.67-.981-5.016-.509c-2.345.473-3.648 1.345-3.648 1.345s1.238-.218 1.955-.254c.716-.037 1.888.036 1.888.036s-1.368 1.272-3.648 1.563c-2.28.291-6.448.219-6.448.219s2.93.763 3.778.908c.846.146 3.06.327 3.06.327l-1.301.436s.911.436 2.344.291a20.17 20.17 0 0 0 2.476-.4s-.26.473-.978.582c-.715.109-1.823.254-1.823.254s2.052.655 4.266.29c2.216-.363 3.778-1.144 3.778-1.144s-1.335 2.035-4.396 2.854c-3.062.817-5.081.799-6.482.69-1.4-.11-3.713-.454-5.114-.981-1.4-.528-1.823-.746-1.823-.746s2.931.455 3.843.51c.912.054 2.866-.146 2.866-.146s-1.856-1.018-4.07-1.436c-2.216-.418-4.788-.963-6.743-.8-1.954.164-5.667.873-5.667.873z" fill="#ff6e0f" stroke="#950e00" stroke-width=".188"/><path d="M36.642 49.787c1.154-.194 1.753-.341 2.78-.427 2.325-.195 4.936.405 7.128.818 2.47.466 4.395 1.548 4.395 1.548a.86.502 0 0 1-.44.86s-.508.052-1.134.097c-.192.014-.398.005-.601.016.697.112 1.414.219 1.927.258 1.306.102 3.085.132 6.012-.65.922-.245 1.618-.633 2.214-1.031-.364.087-.593.195-1.004.263-2.607.427-4.912-.334-4.912-.334a.86.502 0 0 1-.444-.462c-.97-.11-1.708-.318-1.708-.318a.86.502 0 0 1-.273-.542c-.525-.054-.793-.06-1.183-.127-.556-.095-1.456-.318-2.302-.529-.846-.211-1.584-.402-1.584-.402a.86.502 0 0 1 .375-.96s4.204.052 6.241-.208c.748-.095 1.365-.34 1.877-.59-.566.048-1.641.216-1.641.216a.86.502 0 0 1-.897-.81s1.455-.973 4.016-1.489c.518-.104 1.022-.104 1.523-.114-1.36-.51-3.014-1.02-4.992-1.246-2.604-.298-4.88.171-6.597.68.634.023 1.291.007 1.838.15.767.202 1.199.568 1.346.865.145.296.058.563.058.563a.86.502 0 0 1-1.04.392s-2.935-.384-4.662-.351c-.188.003-.42.118-.636.155 1.117.18 1.698.783 1.698.783a.86.502 0 0 1-.517.714s-3.135.564-4.632 1.078c-.548.188-1.435.682-2.228 1.134z" fill="#ffba1a" stroke="#ff8a0d" stroke-width=".326" stroke-opacity=".995"/><g style="line-height:1.25"><path style="-inkscape-font-specification:'Casual Caps'" d="M31.309 51.398q.283-.061.706.32l.024.109q.038.176-.291.536-.065.151-.057.192.019.085.606.455.112.143.128.217.085.39-.71.563l-.077.017q-.467.102-.497-.038l-.01-.047q.032-.105.151-.131-.294-2.01-.15-2.04.042-.123.177-.153zm.225 2.153l.054.022q.572-.151.577-.273l-.004-.016q-.024-.112-.57-.446-.105-.1-.123-.186l-.024-.11q-.04-.18.288-.55.06-.1.05-.143-.157-.17-.4-.19-.135.03.152 1.892zm1.116-2.56q.202-.044.523.75.282.544.711 1.543l.007.032q-.023.086-.107.104-.127.028-.253-.337-.05-.118-.105-.107-.58.254-.57.304.034.15-.061.241l-.078.017q-.021.005-.096-.06-.157-1.324-.144-2.008.003-.442.173-.479zm.09.487q0 1.12.076 1.468.033.01.05.006.44-.179.484-.253-.56-1.232-.61-1.221zm2.262-.967q.076.011.128.07l.007.032q-.025.706.006 2.119l-.065.08-.108.024q-.128.027-.678-1.158-.083-.145-.111-.14-.061.316.024 1.382.065.296-.045.32l-.03.007q-.063.014-.127-.054-.134-.617-.08-1.794.04-.253.182-.284.2-.044.47.583l.277.527.016-.004q.026-.03-.007-.929.015-.698.065-.748zm.375-.033q.097-.021.136.102l.003.014q.027.123.044.497l.035.01q.438-.523.559-.727l.077-.017q.022-.004.096.06l.024.11q-.056.109-.632.84-.107.186-.09.263.122.194.933.988.042.044.051.087l.007.03q.005.022-.06.097l-.094.02q-.064-.02-.68-.652-.005-.022-.057-.036l-.016.003q-.03.012-.024.038.05.23.12.627l-.064.08-.078.016q-.021.005-.096-.061l-.027-.125q-.2-.917-.266-2.194.048-.059.1-.07z" word-spacing="0" letter-spacing="0" font-size="2.799" font-weight="400" aria-label="BANK" font-family="Casual Caps" fill="#c8c8c8"/></g><g style="line-height:1.25"><path style="-inkscape-font-specification:'Casual Caps'" d="M6.003 52.7l.06.022q.593.217.773.673.01.059-.003.1l-.033.09q-.087.24-.985.183-.258-.038-.272.002-.014.04.26.401.56.64.626.755l.003.034-.027.075q-.067.062-.148.032-.537-.528-.892-1.09-.038-.014-.117-.23l-.016-.006-.027.024q-.11.58-.167.737l-.055.15q-.065.061-.147.031-.06-.022-.077-.112l.005-.016q.04-.108.292-1.217l.044-.12q.274-.749.903-.518zm-.642.546l-.097.268q-.007.034.017.043.135-.104.744-.034.44.013.531-.06.066-.18-.607-.528-.419-.099-.528.196-.02.011-.058.115zm3.373.316q.06.05.072.128l-.011.03q-.4.584-1.13 1.794l-.099.032-.103-.038q-.124-.045.047-1.34.008-.168-.02-.177-.22.233-.719 1.178-.103.286-.209.248l-.03-.011q-.06-.023-.078-.113.217-.594.894-1.559.17-.192.306-.141.192.07.084.742l-.047.594.015.006q.038-.011.491-.789.387-.581.457-.596zm.32.218l.09.033q.156.057.402 1.03.13.576.004.92-.18.492-1.054.377-.133-.032-.216-.062-.094-.063-.07-.128.351-1.195.586-1.839l.06-.164q.049-.135.197-.167zm-.002.373l-.026.024q-.258.753-.52 1.662.024.042.047.05.648.086.764-.23l.005-.015q.14-.381-.245-1.464z" word-spacing="0" letter-spacing="0" font-size="2.799" font-weight="400" aria-label="RND" font-family="Casual Caps" fill="#c8c8c8" stroke="#ca4c07" stroke-width=".096" stroke-opacity=".997"/></g><path transform="matrix(-.38285 -1.32585 1.14806 -.44214 -244.873 240.3)" d="M30.882 242.072c-1.276 1.977.063 4.402.063 4.402-.526-.463-1.371-.431-1.371-.431m1.356.399c.127-.718.494-1.18.494-1.18" fill="none" stroke="#c8c8c8" stroke-width=".265" stroke-linecap="round" stroke-linejoin="round"/><circle r=".468" cy="13.773" cx="3.307" fill="url(#C)"/><circle r=".468" cy="13.773" cx="10.948" fill="url(#D)"/><circle r=".468" cy="13.773" cx="13.813" fill="url(#E)"/><circle r=".468" cy="13.773" cx="21.454" fill="url(#F)"/><circle r=".468" cy="13.773" cx="24.477" fill="url(#G)"/><circle r=".468" cy="13.773" cx="32.118" fill="url(#H)"/><circle r=".468" cy="13.773" cx="35.048" fill="url(#I)"/><circle r=".468" cy="13.773" cx="42.688" fill="url(#J)"/><circle r=".468" cy="13.773" cx="45.569" fill="url(#K)"/><circle r=".468" cy="13.773" cx="53.209" fill="url(#L)"/><circle r=".468" cy="13.773" cx="56.098" fill="url(#M)"/><circle r=".468" cy="13.773" cx="63.738" fill="url(#N)"/><rect rx="1.418" y="30.757" x="51.892" height="8.897" width="11.576" fill="url(#O)"/><rect rx=".888" y="30.806" x="41.329" height="8.834" width="7.253" fill="url(#P)"/><g transform="translate(-26.435 -161.22)"><rect width="4.24" height=".439" x="26.759" y="161.611" ry=".206" fill="url(#Q)"/><rect width="4.24" height=".413" x="162.21" y="-26.119" ry=".194" transform="matrix(.00655 .99998 -.99973 .02317 0 0)" fill="url(#R)"/></g><g style="line-height:1.25;-inkscape-font-specification:SKULLX"><path d="M58.411 59.213q.227-.035.327.343.38 1.032.67 2.029-.03.123-.132.138-.131.02-.221-.442-.469-1.38-.58-1.651l-.015.002q-.153.774-.256.892l-.083.013q-.206.032-.352-.406l-.017.002q-.059.01-.067.898.033.694-.06.709l-.05.007q-.136.012-.155-.112-.021-1.361.105-1.979.065-.163.176-.18.106-.017.295.466.033.149.073.142l.19-.761q.074-.098.152-.11zm1.397-.3l.167-.026q.366-.056.397.143l.005.033q.004.023-.07.097l-.067.01q-.202-.037-.326-.018-.42.065-.442.342-.063.15-.031.686l.037.012q.366-.159.483-.177.023-.003.097.07l.012.083q.011.071-.246.175-.304.125-.298.165l.003.017q.137.55.413.584.094.003.136-.003.02-.003.304-.132.072.012.113.067l.015.1q-.085.167-.344.207l-.133.02q-.52.08-.76-.735-.043-.157-.067-.314l-.005-.033q-.138-.893.204-1.226.166-.11.403-.147zm1.814-.195q.227-.035.327.343.381 1.032.67 2.029-.03.123-.132.139-.13.02-.221-.443-.469-1.38-.58-1.651l-.015.002q-.153.774-.256.892l-.083.013q-.206.032-.352-.406l-.017.002q-.059.01-.067.898.033.694-.06.709l-.05.007q-.136.012-.155-.112-.02-1.36.105-1.978.065-.164.177-.181.105-.016.294.466.033.149.073.143l.19-.762q.074-.098.152-.11z" style="-inkscape-font-specification:'Casual Caps'" aria-label="MEM" font-weight="400" font-size="2.96" font-family="Casual Caps" letter-spacing="0" word-spacing="0" fill="#d2d2d2" stroke-width=".265"/></g><g style="line-height:1.25;-inkscape-font-specification:SKULLX"><path d="M47.069 82.477l.184-.028q.369-.057.571.167.024.04.03.074.005.038-.014.069-.021.038-.081.048-.033.005-.076 0-.199-.138-.509-.09-.674.104-1.083.712-.053.102-.04.193.021.133.463.065.441-.068.75-.057.309.01.36.342.05.332-.442.67-.128.072-.243.09l-.05.007q-.49.03-.557-.41l-.01-.065q-.014-.09.1-.122l.02-.004q.097-.015.123.1.029.129.097.191.068.061.152.048l.1-.015q.478-.217.443-.444l-.001-.019q-.028-.183-.574-.106-.572.082-.753.055-.182-.03-.242-.267-.078-.507.762-1.039.277-.128.52-.165zm2.075-.662q.08.017.131.082l.006.034q-.073.744-.132 2.238l-.074.08-.116.018q-.137.02-.64-1.266-.078-.16-.108-.155-.086.33-.065 1.46.049.317-.068.335l-.033.005q-.067.01-.13-.065-.102-.66.032-1.899.06-.265.212-.288.212-.033.457.646l.259.574.017-.002q.029-.03.053-.981.06-.736.118-.786zm.498-.11q.216-.034.503.826.262.591.65 1.674l.005.034q-.03.09-.12.103-.136.021-.244-.372-.047-.129-.105-.12-.629.23-.62.283.024.162-.082.251l-.083.013q-.022.003-.097-.07-.08-1.408-.02-2.129.031-.465.213-.493zm.064.52q-.074 1.18-.017 1.553.035.013.053.01.476-.16.527-.235-.51-1.337-.563-1.329zm1.321-.614l.083-.013q.625-.096 1.103.29.042.056.054.129l.002.017q.064.411-.722.741-.155.093-.562.223.002.017-.013.02.133.647.2 1.077-.031.125-.132.14l-.033.006q-.023.003-.097-.07-.014-.089-.006-.153-.114-.52-.187-.995l-.053-.112-.002-.017q-.002-.014.014-.138l-.036-.233q-.129-.832.387-.912zm-.107 1.074l.056.025q.642-.196.981-.492.055-.08.045-.143-.022-.146-.717-.232-.021.004-.17.01-.265.041-.224.307-.039.006.03.525z" style="-inkscape-font-specification:'Casual Caps'" aria-label="SNAP" font-weight="400" font-size="2.96" font-family="Casual Caps" letter-spacing="0" word-spacing="0" fill="#d2d2d2" stroke-width=".265"/></g></svg>