<svg xmlns="http://www.w3.org/2000/svg" xmlns:xlink="http://www.w3.org/1999/xlink" width="90" height="380" viewBox="0 0 23.813 100.542"><defs><linearGradient gradientTransform="translate(-36.083 -155.755)" xlink:href="#a" id="f" x1="52.213" y1="240.472" x2="52.123" y2="246.822" gradientUnits="userSpaceOnUse"/><linearGradient id="a"><stop offset="0"/><stop offset="1" stop-color="#dcdcdc"/></linearGradient><linearGradient gradientTransform="translate(-36.074 -159.233)" xlink:href="#b" id="e" x1="38.979" y1="169.509" x2="38.979" y2="224.012" gradientUnits="userSpaceOnUse"/><linearGradient id="b"><stop offset="0"/><stop offset="1" stop-color="#8c8c8c"/></linearGradient><linearGradient xlink:href="#c" id="g" x1="26.759" y1="162" x2="30.999" y2="162" gradientUnits="userSpaceOnUse" gradientTransform="matrix(1 0 0 .56406 0 70.452)"/><linearGradient id="c"><stop offset="0" stop-color="#fff"/><stop offset="1" stop-color="#fff" stop-opacity="0"/></linearGradient><linearGradient xlink:href="#d" id="h" x1="26.759" y1="162" x2="30.999" y2="162" gradientUnits="userSpaceOnUse" gradientTransform="matrix(.99995 0 0 .53173 135.453 -112.052)"/><linearGradient id="d"><stop offset="0" stop-color="#fff" stop-opacity=".992"/><stop offset="1" stop-color="#fff" stop-opacity="0"/></linearGradient></defs><path d="M0 0h23.813v100.541H0zm0 0" fill="#191919"/><g style="line-height:1.25"><path style="-inkscape-font-specification:'Arial, Normal';font-variant-ligatures:normal;font-variant-caps:normal;font-variant-numeric:normal;font-feature-settings:normal;text-align:start" d="M12.383 96.87l-1.63.115v-2.06q0-.23.064-.333.064-.104.22-.147.153-.043.348-.002.223.047.356.19.134.146.134.33 0 .186-.158.286-.158.103-.408.05-.082-.018-.143-.044-.064-.027-.205-.11v1.345l1.22-.085v-1.554q0-.225.064-.337.066-.11.226-.151.16-.04.348 0 .223.047.354.19.13.14.13.325 0 .195-.156.294-.156.1-.408.047-.16-.034-.356-.16z" font-size="3.528" aria-label="♫" font-family="Arial" font-weight="400" letter-spacing="0" word-spacing="0" fill="#969696"/></g><rect ry="2.037" rx="2.037" y="10.276" x="2.905" height="54.503" width="13.493" fill="url(#e)"/><g transform="translate(-49.297 -159.19)" fill="#787878" stroke="#191919"><rect width="10.716" height="51.726" x="53.597" y="170.898" rx=".845" ry=".845" stroke-width="1.191" paint-order="stroke markers fill"/><path d="M53.002 218.618l11.275.04.063.04M53.002 174.52l11.275.04.063.041" stroke-width=".265"/></g><rect rx="2.34" ry="2.34" y="-13.035" x="-92.704" height="9.909" width="12.103" transform="matrix(0 -1 -1 0 0 0)" fill="#3e3e3e" stroke-width=".265" paint-order="stroke markers fill" stroke="#c8c8c8"/><path d="M7.387 81.924a1.03 1.03 0 0 1 .358.065c.05.02.092.046.124.079a.14.14 0 0 1 .05.107c0 .043-.011.076-.033.099a.117.117 0 0 1-.085.033.24.24 0 0 1-.085-.014 1.445 1.445 0 0 0-.084-.036.708.708 0 0 0-.283-.051.413.413 0 0 0-.206.056.538.538 0 0 0-.17.153.81.81 0 0 0-.112.228.952.952 0 0 0-.042.288c0 .128.016.238.048.33a.694.694 0 0 0 .13.229.54.54 0 0 0 .177.133.532.532 0 0 0 .204.042c.08 0 .148-.008.203-.025a1.307 1.307 0 0 0 .24-.113.156.156 0 0 1 .082-.026.1.1 0 0 1 .076.029c.019.017.028.048.028.093a.19.19 0 0 1-.045.115.397.397 0 0 1-.127.105.89.89 0 0 1-.458.104.857.857 0 0 1-.595-.245.974.974 0 0 1-.197-.308 1.123 1.123 0 0 1-.077-.432c0-.163.023-.309.068-.437a.98.98 0 0 1 .19-.325.815.815 0 0 1 .62-.276zm1.64 1.885a.424.424 0 0 1-.067.099.096.096 0 0 1-.074.03.116.116 0 0 1-.08-.03.479.479 0 0 1-.072-.096 2.347 2.347 0 0 1-.116-.235 10.14 10.14 0 0 1-.446-1.337.974.974 0 0 1-.028-.18c0-.038.008-.067.023-.086.015-.019.044-.028.087-.028.025 0 .045.007.062.02.02.011.043.045.07.101.023.043.048.1.074.17.027.07.054.146.082.231.03.085.06.174.09.268l.09.277c.03.092.059.18.085.265l.074.229.076-.232.087-.265.09-.276a8.096 8.096 0 0 1 .246-.667.294.294 0 0 1 .068-.101.114.114 0 0 1 .062-.02c.043 0 .073.011.088.034.017.02.025.052.025.093a.663.663 0 0 1-.017.136 8.934 8.934 0 0 1-.166.536l-.167.477a1.98 1.98 0 0 1-.06.158c-.02.055-.041.108-.064.16a3.426 3.426 0 0 1-.122.269z" style="line-height:1.25;-inkscape-font-specification:'Sniglet, Normal';font-variant-ligatures:normal;font-variant-caps:normal;font-variant-numeric:normal;font-feature-settings:normal;text-align:start" aria-label="CV 2" font-weight="400" font-size="2.822" letter-spacing="0" word-spacing="0" font-family="Sniglet" fill="#c8c8c8"/><g style="line-height:1.25"><path word-spacing="0" letter-spacing="0" font-size="2.822" font-weight="400" aria-label="RATE" style="-inkscape-font-specification:'Sniglet, Normal';font-variant-ligatures:normal;font-variant-caps:normal;font-variant-numeric:normal;font-feature-settings:normal;text-align:start" d="M4.313 67.794l-.082.006h-.178q-.048 0-.107-.006v.573q0 .09-.045.113-.043.02-.107.02-.034 0-.054-.007-.02-.003-.034-.014-.011-.014-.02-.04-.005-.025-.008-.07-.006-.05-.01-.147l-.004-.254q0-.155-.003-.375v-.522q0-.116.028-.223.028-.11.102-.192.073-.085.197-.135.127-.05.322-.05.138 0 .268.03.133.031.234.107.102.076.164.206.062.13.062.325 0 .26-.113.403-.11.141-.305.2l.379.52q.05.068.05.138 0 .057-.04.088-.036.034-.092.034-.062 0-.108-.034-.045-.037-.084-.093zm.443-.658q0-.195-.12-.288-.114-.096-.37-.096-.091 0-.154.017-.062.014-.098.057-.037.042-.054.118-.014.074-.014.19v.191q0 .11.003.2.065.004.144.004h.152q.08 0 .167-.008.09-.012.166-.05.076-.044.127-.12.05-.079.05-.214zm1.73 1.208l-.062-.155q-.031-.09-.068-.19l-.178.007H5.77q-.1 0-.18-.003l-.065.186q-.031.088-.06.155-.056.144-.163.144-.04 0-.077-.025-.033-.026-.033-.074t.017-.124q.016-.079.042-.166.028-.09.06-.184.03-.096.058-.178.029-.09.08-.228l.112-.294.119-.299q.06-.15.107-.26.01-.028.028-.062.017-.036.04-.067.025-.03.053-.054.03-.022.068-.022.037 0 .068.025.03.023.054.056.025.034.042.07.02.038.03.066.046.113.102.26.06.146.116.296.06.15.11.285.05.135.082.228l.057.175q.033.094.062.184.028.09.045.17.02.075.02.123t-.037.074q-.034.025-.074.025-.05 0-.093-.034-.042-.036-.073-.11zm-.5-.62l.136.002q.068 0 .135.003l-.067-.197-.065-.19q-.028-.09-.054-.166l-.04-.138q-.01-.037-.025-.06-.014-.022-.036-.022-.023 0-.037.025-.014.023-.026.06-.033.115-.096.302l-.127.386q.077-.003.153-.003.076-.003.15-.003zm1.876-.952q-.08.006-.17.008l-.194.006.006.144.005.133q.003.067.003.14.003.074.003.164v.246q0 .116-.003.234l-.006.234q-.002.12-.008.246-.003.068-.014.104-.01.037-.026.057-.017.02-.04.022-.022.006-.05.006-.05 0-.087-.033-.034-.037-.04-.153-.006-.1-.008-.214 0-.113-.003-.243t-.003-.28v-.606q.003-.116.008-.2H7.12q-.12 0-.203-.004-.082-.003-.136-.014-.053-.014-.08-.042-.021-.028-.021-.079 0-.025.005-.045.006-.023.026-.04.02-.02.053-.03.037-.012.093-.018l.096-.006.085-.006q.042-.003.087-.003h.105q.166 0 .313.003.15.003.316.012.068.006.105.017.036.008.056.025.02.017.023.04.005.022.005.05 0 .051-.036.085-.034.034-.15.04zm.402 1.287q-.006-.09-.011-.246-.006-.155-.006-.318v-.192l.006-.206q.005-.21.025-.328.023-.118.085-.178.065-.059.18-.073.116-.014.308-.014h.06q.058 0 .14.003.082 0 .17.003l.15.006q.06.006.098.017.04.008.06.025.019.014.025.037.005.02.005.045 0 .065-.036.096-.037.028-.15.037-.056.006-.167.008h-.22q-.113 0-.203.003H8.67q-.073.003-.104.034-.028.028-.028.138l.002.124q.006.096.006.271h.234q.15 0 .243.006.096.003.147.017.053.014.073.045.02.031.02.082 0 .025-.006.048-.003.02-.022.037-.02.014-.057.025-.036.008-.104.014-.082.006-.155.008h-.38v.344l.007.096q.003.046.01.077.013.03.038.05.028.02.08.03.053.007.14.007h.607q.099 0 .124.036.026.037.026.1 0 .05-.023.078-.023.026-.11.037-.085.014-.257.017-.17.003-.468.003-.127 0-.21-.023-.081-.022-.132-.076-.05-.054-.076-.138-.023-.088-.031-.212z" font-family="Sniglet" fill="#c8c8c8"/></g><path word-spacing="0" letter-spacing="0" font-size="2.117" font-weight="400" style="line-height:1.25;-inkscape-font-specification:'Sniglet, Normal';font-variant-ligatures:normal;font-variant-caps:normal;font-variant-numeric:normal;font-feature-settings:normal;text-align:start" d="M3.427 77.417q0-.13.024-.265.025-.136.089-.246.063-.11.17-.18.11-.07.28-.07.134 0 .227.04.095.041.156.107.062.065.096.15.034.082.05.173.017.091.02.18.004.09.004.163 0 .15-.036.273-.034.123-.106.212-.07.09-.178.14-.106.048-.25.048-.15 0-.256-.057-.103-.059-.17-.156-.063-.1-.092-.23-.028-.134-.028-.283zm.212-.004q0 .103.017.198.019.094.06.166.04.07.103.112.066.042.159.042.089 0 .154-.036.068-.036.112-.1.045-.065.066-.154.02-.089.02-.193 0-.078-.005-.177-.007-.102-.04-.19-.032-.09-.102-.15-.07-.063-.195-.063-.106 0-.173.051-.066.051-.106.131-.04.08-.055.176-.015.095-.015.186zm4.792.29q-.002.08-.002.175 0 .095-.006.178-.004.063-.03.082-.023.017-.065.017-.04 0-.06-.015-.02-.012-.03-.057-.008-.046-.01-.133-.002-.089-.002-.237-.07 0-.133.002l-.123.002q-.09 0-.163-.004-.072-.004-.125-.015-.05-.013-.08-.034-.028-.02-.028-.055 0-.046.038-.116.038-.072.095-.155l.12-.167.12-.16.074-.094q.048-.06.103-.12.055-.062.11-.106.056-.045.094-.045.036 0 .063.023.028.024.032.108.008.123.01.26.003.132.003.263v.21q.059.004.095.01.036.006.055.02.019.01.025.027.007.017.007.042 0 .053-.05.072-.048.017-.137.021zm-.207-.693l-.16.193-.11.135q-.043.057-.077.098l-.057.072q.097-.004.198-.004l.206-.002zm1.4.026q.045 0 .113.008.068.006.13.027.06.02.105.055.045.036.045.091 0 .032-.02.055-.016.023-.055.023-.027 0-.063-.008l-.076-.019q-.04-.012-.09-.02-.046-.009-.1-.009-.088 0-.145.028-.055.027-.055.086 0 .034.02.058.02.023.054.042.036.017.083.03l.102.025q.065.017.129.038.065.021.116.06.05.035.083.092.03.055.03.138 0 .157-.117.25-.12.09-.35.09-.05 0-.12-.007-.07-.006-.131-.028-.062-.019-.106-.055-.042-.038-.042-.1 0-.042.019-.063.02-.023.05-.023.024 0 .049.015t.06.031q.037.017.088.032.05.015.125.015l.072-.002q.045-.004.087-.019.044-.015.074-.04.032-.028.032-.076 0-.038-.022-.064-.02-.027-.057-.046-.036-.02-.084-.032l-.1-.03q-.061-.017-.125-.038-.061-.02-.112-.055-.05-.034-.082-.085-.032-.052-.032-.129 0-.072.03-.133.03-.064.084-.11.055-.047.13-.072.08-.025.175-.025zm.62.975l.06-.197.074-.245.09-.28.097-.298.074-.224q.034-.098.06-.16.03-.06.056-.09.028-.032.06-.032.03 0 .057.021.027.022.027.066l-.002.032q-.002.017-.01.04-.098.351-.214.711-.117.358-.248.713-.026.068-.05.091-.022.024-.045.024-.038 0-.068-.022-.03-.02-.03-.07 0-.03.013-.08zm1.416.045q-.028.05-.051.074-.021.023-.055.023t-.06-.023q-.025-.023-.055-.072-.038-.064-.086-.176-.047-.112-.096-.243-.048-.134-.095-.275l-.085-.267q-.036-.125-.06-.218-.02-.095-.02-.136 0-.042.017-.063.017-.02.066-.02.027 0 .046.013.02.013.053.077.025.048.055.127.03.078.06.173.035.096.069.201l.068.208q.034.103.063.2l.055.17.058-.173.065-.2.068-.207q.034-.106.068-.199l.063-.17q.03-.079.053-.13.03-.06.05-.077.024-.014.047-.014.05 0 .066.025.02.023.02.07 0 .042-.014.102-.012.06-.044.158-.03.098-.08.244l-.125.357q-.02.058-.045.12l-.048.12-.047.11q-.023.053-.044.091z" font-family="Sniglet" fill="#c8c8c8"/><g style="line-height:1.25"><path word-spacing="0" letter-spacing="0" font-size="2.822" font-weight="400" aria-label="EXP" style="-inkscape-font-specification:'Sniglet, Normal';font-variant-ligatures:normal;font-variant-caps:normal;font-variant-numeric:normal;font-feature-settings:normal;text-align:start" d="M16.23 83.504q-.007-.09-.013-.245-.005-.155-.005-.32v-.191l.005-.206q.006-.21.026-.327.022-.12.084-.178.065-.06.18-.074.117-.014.31-.014h.058q.06 0 .14.003.083 0 .17.003l.15.006q.062.006.1.017.04.008.058.026.02.014.025.036.006.02.006.045 0 .065-.037.096-.037.029-.15.037-.056.006-.166.008h-.22q-.113 0-.203.003h-.113q-.074.003-.105.034-.028.028-.028.138l.003.124q.006.096.006.27h.234q.15 0 .243.007.096.003.146.017.054.014.074.046.02.03.02.08 0 .027-.006.049-.003.02-.023.037-.02.014-.056.026-.037.008-.105.014-.08.006-.155.008h-.378v.343l.006.097q.002.045.01.076.012.03.038.05.028.02.08.03.052.007.14.007h.607q.098 0 .124.037.025.037.025.099 0 .05-.022.079-.023.025-.11.036-.085.014-.257.017-.17.003-.469.003-.127 0-.209-.022-.082-.023-.132-.077-.05-.053-.077-.138-.022-.087-.03-.212zm2.218-.313l-.42.652q-.04.062-.088.093-.045.034-.104.034-.073 0-.104-.037-.029-.034-.029-.087 0-.031.012-.065.014-.034.036-.065l.525-.75-.525-.751q-.022-.031-.036-.065-.012-.034-.012-.065 0-.054.03-.088.03-.036.103-.036.06 0 .104.033.048.03.088.094l.42.65.421-.65q.04-.063.085-.094.048-.033.107-.033.073 0 .101.036.032.034.032.088 0 .03-.015.065-.01.034-.033.065l-.525.75.525.75q.022.032.033.066.015.034.015.065 0 .053-.032.087-.028.037-.1.037-.06 0-.108-.034-.046-.031-.085-.093zm1.281.564q0 .068-.014.105-.01.037-.03.056-.018.02-.043.023-.023.006-.045.006-.076 0-.102-.034-.022-.034-.03-.152-.006-.063-.01-.181l-.005-.282q0-.164-.003-.362v-.417q0-.105.026-.212.025-.107.096-.195.073-.087.2-.14.13-.054.336-.054.144 0 .274.03.13.032.228.108.1.076.158.203.06.127.06.316 0 .198-.065.328t-.184.206q-.118.076-.282.107-.164.03-.359.03h-.095q-.048 0-.108-.005zm.813-1.188q0-.19-.107-.285-.104-.096-.35-.096-.093 0-.16.017-.066.014-.108.054-.042.036-.065.1-.02.066-.02.165v.22q0 .122.003.229.065.003.144.003h.152q.085 0 .175-.012.093-.01.167-.05.073-.043.121-.122.048-.082.048-.223z" font-family="Sniglet" fill="#c8c8c8"/></g><g style="line-height:1.25"><path d="M7.53 6.076q-.12.009-.255.013l-.292.009.009.216.008.198q.004.102.004.212.004.11.004.246v.368q0 .174-.004.351l-.008.352q-.004.178-.013.368-.004.102-.021.157-.013.055-.038.084-.026.03-.06.034-.033.009-.076.009-.076 0-.13-.051-.052-.055-.06-.229-.009-.152-.013-.321 0-.17-.004-.365-.004-.194-.004-.419V6.398q.004-.173.012-.3h-.173q-.178 0-.305-.005-.123-.004-.203-.02-.08-.022-.119-.064-.034-.043-.034-.119 0-.038.009-.068.008-.033.038-.059.03-.03.08-.046.055-.017.14-.026l.144-.008.127-.009q.064-.004.131-.004h.157q.25 0 .47.004.224.005.474.017.102.009.157.026.055.012.084.038.03.025.034.059.009.034.009.076 0 .076-.055.127-.051.051-.225.06zm2.094 2.358q-.042-.101-.093-.232-.047-.136-.102-.284l-.266.008h-.614q-.148 0-.271-.004l-.098.28q-.046.13-.088.232-.085.216-.246.216-.06 0-.114-.038-.051-.038-.051-.11 0-.072.025-.186.026-.119.064-.25.042-.135.089-.275.046-.144.089-.267.042-.135.118-.343.08-.211.17-.44.088-.229.177-.449.09-.224.161-.39.017-.041.042-.092.026-.055.06-.102.038-.046.08-.08.047-.034.102-.034.055 0 .101.038.047.034.08.085.039.05.064.105.03.055.047.098.068.17.152.39.09.22.174.444.089.224.165.427.076.204.123.343.038.123.084.263.051.14.093.275.043.135.068.254.03.114.03.186t-.055.11q-.051.038-.11.038-.076 0-.14-.05-.063-.056-.11-.166zm-.75-.93q.102 0 .204.003.101 0 .203.005-.05-.149-.102-.297l-.097-.283q-.042-.136-.08-.25l-.06-.208q-.017-.055-.038-.089-.02-.033-.055-.033-.034 0-.055.038-.02.034-.038.089-.05.173-.144.453-.089.275-.19.58.114-.005.228-.005.115-.004.225-.004zm2.631-1.851q.14 0 .28.026.143.02.257.071.115.047.187.119.076.068.076.16 0 .098-.051.149-.05.05-.127.05-.072 0-.127-.02-.055-.026-.127-.055-.068-.03-.165-.051-.097-.026-.258-.026t-.31.085q-.143.08-.253.229-.106.144-.17.343-.063.199-.063.431 0 .288.072.496.076.207.195.343.118.13.266.199.153.063.305.063.182 0 .305-.038t.207-.085q.09-.046.153-.084.063-.038.122-.038.072 0 .115.042.042.038.042.14 0 .084-.068.173-.063.085-.19.157-.123.068-.297.114-.173.042-.389.042-.237 0-.474-.093-.233-.093-.42-.275-.181-.186-.296-.461-.114-.28-.114-.648t.102-.656q.106-.288.283-.487.182-.203.42-.31.24-.105.512-.105zm2.87.423q-.118.009-.254.013l-.292.009.009.216.008.198q.004.102.004.212.005.11.005.246v.368q0 .174-.005.351l-.008.352q-.004.178-.013.368-.004.102-.021.157-.013.055-.038.084-.026.03-.06.034-.033.009-.076.009-.076 0-.13-.051-.052-.055-.06-.229-.009-.152-.013-.321 0-.17-.004-.365-.004-.194-.004-.419V6.398q.004-.173.013-.3h-.174q-.178 0-.305-.005-.123-.004-.203-.02-.08-.022-.119-.064-.033-.043-.033-.119 0-.038.008-.068.009-.033.038-.059.03-.03.08-.046.056-.017.14-.026l.144-.008.127-.009q.064-.004.131-.004h.157q.25 0 .47.004.224.005.474.017.102.009.157.026.055.012.084.038.03.025.034.059.009.034.009.076 0 .076-.055.127-.051.051-.225.06zm2.075 1.516l-.45.017q-.253.004-.6.004-.145 0-.246-.004-.102-.004-.165-.021-.064-.021-.093-.064-.03-.042-.03-.118 0-.038.009-.068.008-.034.038-.06.03-.025.08-.042.055-.02.14-.03.063-.003.11-.008.05-.004.097-.004.047-.004.098-.004h.127q.228 0 .44.004.211 0 .44.013.102.008.157.025.055.013.084.038.03.026.034.06.009.033.009.076 0 .076-.055.127-.051.05-.225.059zm1.187.796q-.009-.153-.013-.318 0-.165-.004-.355-.004-.19-.004-.41v-1.03l-.255.132q-.105.067-.169.08-.06.013-.131.013-.064 0-.114-.055-.047-.055-.047-.131 0-.077.05-.132.056-.059.128-.106.093-.063.199-.127.11-.063.211-.114.102-.055.187-.085.089-.033.148-.033.03 0 .06.008.033.009.058.034.03.025.047.08.021.051.025.14.009.152.013.267l.009.224q.004.106.004.225v.639q0 .173-.004.343l-.009.343q-.004.173-.013.364-.004.101-.02.156-.013.055-.039.085-.025.03-.06.034-.029.008-.071.008-.076 0-.127-.05-.05-.056-.06-.23z" style="-inkscape-font-specification:'Sniglet, Normal';font-variant-ligatures:normal;font-variant-caps:normal;font-variant-numeric:normal;font-feature-settings:normal;text-align:start" aria-label="TACT-1" font-weight="400" font-size="4.233" font-family="Sniglet" letter-spacing="0" word-spacing="0" fill="#c8c8c8" stroke-width=".265"/></g><g style="line-height:1.25"><path d="M15.607 68.344l-.062-.155q-.031-.09-.068-.19l-.177.006h-.41q-.098 0-.18-.003l-.065.187q-.031.087-.06.155-.056.144-.163.144-.04 0-.076-.025-.034-.026-.034-.074t.017-.124q.017-.08.042-.167.028-.09.06-.183.03-.096.059-.178.028-.09.079-.228.053-.142.112-.294l.119-.3q.06-.149.107-.259l.028-.062q.017-.036.04-.068.025-.03.054-.053.03-.023.067-.023.037 0 .068.026.031.022.054.056.025.034.042.07.02.037.031.066l.102.26q.059.146.115.296.06.15.11.285.051.135.082.228l.057.175q.034.093.062.184.028.09.045.169.02.076.02.124t-.037.074q-.034.025-.073.025-.051 0-.093-.034-.043-.037-.074-.11zm-.5-.62l.136.002q.068 0 .136.003l-.068-.198-.065-.189q-.028-.09-.054-.166l-.04-.139q-.01-.036-.025-.059-.014-.023-.036-.023-.023 0-.037.026-.014.022-.025.06-.034.115-.096.301l-.127.387q.076-.003.152-.003.076-.003.15-.003zm1.876-.952q-.079.006-.17.009l-.194.005.006.144.005.133q.003.067.003.14.003.074.003.165v.245q0 .116-.003.234l-.005.235q-.003.118-.009.245-.003.068-.014.104-.009.037-.025.057-.017.02-.04.023-.023.005-.05.005-.052 0-.088-.034-.034-.036-.04-.152-.005-.102-.008-.215 0-.113-.003-.242-.003-.13-.003-.28V66.987q.003-.116.009-.2h-.116q-.119 0-.203-.004-.082-.003-.136-.014-.053-.014-.079-.042-.022-.028-.022-.08 0-.025.005-.044.006-.023.026-.04.02-.02.053-.03.037-.012.093-.018l.096-.005.085-.006q.042-.003.088-.003h.104q.166 0 .313.003.15.003.316.011.068.006.105.017.036.009.056.026.02.017.023.04.005.022.005.05 0 .05-.036.085-.034.033-.15.04zm1.538 0q-.079.006-.17.009l-.194.005.006.144.005.133q.003.067.003.14.003.074.003.165v.245q0 .116-.003.234l-.006.235q-.002.118-.008.245-.003.068-.014.104-.009.037-.026.057-.016.02-.039.023-.023.005-.05.005-.052 0-.088-.034-.034-.036-.04-.152-.005-.102-.008-.215 0-.113-.003-.242-.003-.13-.003-.28V66.987q.003-.116.009-.2h-.116q-.119 0-.203-.004-.082-.003-.136-.014-.053-.014-.079-.042-.022-.028-.022-.08 0-.025.005-.044.006-.023.026-.04.02-.02.053-.03.037-.012.093-.018l.096-.005.085-.006q.042-.003.087-.003h.105q.166 0 .313.003.15.003.316.011.068.006.105.017.036.009.056.026.02.017.023.04.005.022.005.05 0 .05-.036.085-.034.033-.15.04zm1.211 1.603q-.037.068-.068.099-.028.03-.073.03-.046 0-.08-.03-.033-.031-.073-.096-.05-.085-.116-.234-.062-.15-.127-.325-.064-.178-.127-.367-.062-.189-.112-.355-.048-.167-.08-.291-.028-.127-.028-.18 0-.057.023-.085.022-.029.087-.029.037 0 .062.02.029.017.071.102.034.065.073.17.04.103.082.23.045.127.09.269l.09.276q.046.138.086.265.039.127.073.23l.076-.232.088-.266.09-.276q.045-.141.09-.266.045-.124.085-.228.04-.105.07-.172.04-.082.068-.102.031-.02.062-.02.065 0 .088.034.025.031.025.093 0 .057-.017.136-.017.079-.059.212-.04.13-.107.324l-.167.477q-.025.076-.06.158-.03.082-.064.16-.031.077-.062.148-.031.07-.06.121z" style="-inkscape-font-specification:'Sniglet, Normal';font-variant-ligatures:normal;font-variant-caps:normal;font-variant-numeric:normal;font-feature-settings:normal;text-align:start" aria-label="ATTV" font-weight="400" font-size="2.822" font-family="Sniglet" letter-spacing="0" word-spacing="0" fill="#c8c8c8" stroke-width=".265"/></g><path style="line-height:1.25;-inkscape-font-specification:'Sniglet, Normal';font-variant-ligatures:normal;font-variant-caps:normal;font-variant-numeric:normal;font-feature-settings:normal;text-align:start" d="M14.177 77.806l-.163.172q-.066.07-.113.116-.046.045-.078.066-.03.021-.055.021-.03 0-.06-.025-.027-.026-.027-.055 0-.026.036-.077.036-.053.09-.116.052-.064.113-.131.062-.07.113-.132l-.13-.152q-.059-.074-.103-.138-.045-.063-.072-.112-.026-.048-.026-.076 0-.027.028-.047.027-.02.05-.02.02 0 .066.042.047.04.104.1.06.056.119.122.061.066.11.116l.103-.114q.06-.066.117-.123.057-.057.106-.097.048-.04.076-.04.023 0 .046.017.024.017.024.044 0 .028-.028.076-.025.049-.07.112-.044.064-.106.138-.059.074-.127.152l.115.13q.061.067.114.133.053.063.087.116.036.051.036.076 0 .03-.03.056-.027.025-.057.025-.027 0-.074-.034-.044-.036-.102-.089-.055-.055-.116-.12l-.116-.132zm1.371-.161q-.098.005-.225.009-.127.002-.3.002-.072 0-.123-.002-.05-.002-.082-.01-.032-.011-.047-.032-.015-.022-.015-.06 0-.019.004-.034.005-.016.02-.03.014-.012.04-.02.027-.01.07-.015l.055-.004.048-.002q.024-.003.049-.003h.063q.115 0 .22.003.106 0 .22.006.051.004.079.013.028.006.042.019.015.012.017.03.004.016.004.037 0 .038-.027.064-.025.025-.112.03zm.594.398q-.005-.076-.007-.158l-.002-.178q-.002-.095-.002-.206v-.514l-.127.066q-.053.034-.085.04-.03.006-.065.006-.032 0-.058-.027-.023-.028-.023-.066 0-.038.026-.065.027-.03.063-.053.047-.032.1-.064.055-.032.105-.057.051-.028.094-.042.044-.017.074-.017.014 0 .03.004t.029.017q.015.013.023.04.01.025.013.07l.006.133.004.112q.003.053.003.113v.319q0 .087-.003.172l-.004.171-.006.182q-.002.051-.01.078-.007.028-.02.043-.012.015-.03.017-.014.004-.035.004-.038 0-.064-.025-.025-.028-.03-.115zm3.165-.237l-.163.172q-.066.07-.112.116-.047.045-.079.066-.03.021-.055.021-.03 0-.059-.025-.027-.026-.027-.055 0-.026.036-.077.036-.053.089-.116.052-.064.114-.131.061-.07.112-.132l-.13-.152q-.058-.074-.103-.138-.044-.063-.072-.112-.025-.048-.025-.076 0-.027.027-.047.028-.02.051-.02.02 0 .066.042.046.04.103.1.06.056.119.122.061.066.11.116.047-.05.104-.114.06-.066.116-.123.057-.057.106-.097.049-.04.076-.04.024 0 .047.017t.023.044q0 .028-.027.076-.026.049-.07.112-.045.064-.106.138-.06.074-.127.152l.114.13q.062.067.115.133.052.063.086.116.036.051.036.076 0 .03-.03.056-.027.025-.057.025-.027 0-.074-.034-.044-.036-.101-.089l-.117-.12-.116-.132zm.948.237q-.004-.076-.006-.158 0-.083-.003-.178-.002-.095-.002-.206v-.514l-.127.066q-.053.034-.084.04-.03.006-.066.006-.032 0-.057-.027-.023-.028-.023-.066 0-.038.025-.065.028-.03.064-.053.046-.032.099-.064.055-.032.106-.057.05-.028.093-.042.044-.017.074-.017.015 0 .03.004.017.004.03.017.014.013.023.04.01.025.012.07l.007.133.004.112q.002.053.002.113v.319q0 .087-.002.172l-.004.171q-.002.087-.007.182-.002.051-.01.078-.007.028-.02.043-.012.015-.029.017-.015.004-.036.004-.038 0-.063-.025-.026-.028-.03-.115z" font-weight="400" font-size="2.117" font-family="Sniglet" letter-spacing="0" word-spacing="0" fill="#c8c8c8"/><rect ry=".723" rx=".723" y="84.739" x="16.018" height="6.283" width="4.405" fill="url(#f)"/><g transform="translate(-26.368 -161.169)"><rect rx=".206" width="4.24" height=".439" x="26.759" y="161.611" ry=".206" fill="url(#g)"/><rect rx=".194" width="4.24" height=".413" x="162.21" y="-26.119" ry=".194" transform="matrix(.00655 .99998 -.99973 .02317 0 0)" fill="url(#h)"/></g></svg>