<?xml version="1.0" encoding="UTF-8" standalone="no"?>
<!DOCTYPE svg PUBLIC "-//W3C//DTD SVG 1.1//EN" "http://www.w3.org/Graphics/SVG/1.1/DTD/svg11.dtd">
<svg width="60" height="380" viewBox="0 0 60 380" version="1.1" xmlns="http://www.w3.org/2000/svg" xmlns:xlink="http://www.w3.org/1999/xlink" xml:space="preserve" xmlns:serif="http://www.serif.com/" style="fill-rule:evenodd;clip-rule:evenodd;stroke-miterlimit:1.41421;">
    <rect x="0" y="0" width="60" height="380" style="fill:#262626;"/>
    <path d="M15.146,29.251c-0.08,0.056 -0.371,0.147 -0.874,0.275c-0.407,0.12 -0.615,0.184 -0.623,0.192l0,-1.234c0.319,-0.112 0.669,-0.266 1.048,-0.461c0.379,-0.196 0.657,-0.398 0.833,-0.605l1.281,0l0,9.703l-1.665,0l0,-7.87Z" style="fill:#c78d00;fill-rule:nonzero;"/>
    <path d="M19.902,33.395l-1.449,-3.198l1.593,0l0.886,1.917l0.767,-1.917l1.39,0l-1.474,3.426l1.581,3.498l-1.605,0l-0.97,-2.12l-0.815,2.12l-1.413,0l1.509,-3.726Z" style="fill:#c78d00;fill-rule:nonzero;"/>
    <path d="M26.563,37.253c-1.686,0 -2.528,-0.967 -2.528,-2.899c0,-1.134 0.387,-1.917 1.162,-2.348c-0.312,-0.216 -0.559,-0.505 -0.743,-0.869c-0.184,-0.363 -0.275,-0.808 -0.275,-1.335c0,-0.783 0.203,-1.394 0.611,-1.833c0.407,-0.439 0.998,-0.659 1.773,-0.659c0.782,0 1.373,0.22 1.772,0.659c0.4,0.439 0.599,1.05 0.599,1.833c0,1.014 -0.335,1.749 -1.006,2.204c0.775,0.439 1.162,1.234 1.162,2.384c0,1.908 -0.842,2.863 -2.527,2.863Zm0,-5.894c0.527,-0.008 0.79,-0.523 0.79,-1.545c0,-0.384 -0.064,-0.687 -0.192,-0.911c-0.127,-0.223 -0.327,-0.335 -0.598,-0.335c-0.272,0 -0.476,0.112 -0.611,0.335c-0.136,0.224 -0.204,0.523 -0.204,0.899c0,1.03 0.271,1.549 0.815,1.557Zm0,4.636c0.367,0 0.61,-0.154 0.73,-0.461c0.12,-0.308 0.18,-0.713 0.18,-1.216c0,-0.463 -0.066,-0.837 -0.198,-1.12c-0.132,-0.284 -0.369,-0.429 -0.712,-0.437c-0.344,0.008 -0.583,0.161 -0.719,0.461c-0.136,0.299 -0.204,0.693 -0.204,1.18c0,0.471 0.064,0.854 0.192,1.15c0.128,0.295 0.371,0.443 0.731,0.443Z" style="fill:#c78d00;fill-rule:nonzero;"/>
    <path d="M36.349,37.253c-1.006,0 -1.719,-0.282 -2.138,-0.845c-0.419,-0.563 -0.629,-1.359 -0.629,-2.39l0,-3.462c0,-1.062 0.208,-1.868 0.623,-2.419c0.415,-0.551 1.13,-0.827 2.144,-0.827c0.951,0 1.626,0.24 2.025,0.719c0.399,0.479 0.599,1.17 0.599,2.072l0,0.815l-1.701,0l0,-0.839c0,-0.343 -0.016,-0.613 -0.048,-0.808c-0.032,-0.196 -0.114,-0.356 -0.246,-0.48c-0.131,-0.123 -0.337,-0.185 -0.617,-0.185c-0.287,0 -0.503,0.066 -0.646,0.197c-0.144,0.132 -0.238,0.308 -0.282,0.527c-0.044,0.22 -0.066,0.506 -0.066,0.857l0,4.205c0,0.551 0.072,0.948 0.216,1.192c0.144,0.243 0.403,0.365 0.778,0.365c0.272,0 0.474,-0.064 0.605,-0.192c0.132,-0.127 0.216,-0.297 0.252,-0.509c0.036,-0.211 0.054,-0.493 0.054,-0.844l0,-0.875l1.701,0l0,0.779c0,0.934 -0.196,1.659 -0.587,2.174c-0.391,0.515 -1.07,0.773 -2.037,0.773Z" style="fill:#c78d00;fill-rule:nonzero;"/>
    <path d="M39.991,27.418l1.557,0l1.282,6.864l1.21,-6.864l1.593,0l-1.952,9.703l-1.737,0l-1.953,-9.703Z" style="fill:#c78d00;fill-rule:nonzero;"/>
    <g>
        <g transform="matrix(0.595095,0,0,0.595095,224.447,264.521)">
            <path d="M-345.397,174.963c-0.962,0 -1.884,-0.156 -2.766,-0.468c-0.881,-0.313 -1.546,-0.713 -1.996,-1.2l0.675,-1.088c0.437,0.475 1.043,0.856 1.818,1.144c0.775,0.287 1.575,0.431 2.4,0.431c1.163,0 2.097,-0.228 2.803,-0.684c0.707,-0.456 1.06,-1.091 1.06,-1.903c0,-0.438 -0.131,-0.794 -0.394,-1.069c-0.262,-0.275 -0.594,-0.497 -0.994,-0.666c-0.4,-0.168 -0.943,-0.353 -1.631,-0.553c-0.812,-0.237 -1.472,-0.465 -1.978,-0.684c-0.506,-0.219 -0.938,-0.544 -1.294,-0.975c-0.356,-0.431 -0.534,-0.991 -0.534,-1.678c0,-0.813 0.222,-1.516 0.665,-2.11c0.444,-0.593 1.063,-1.05 1.857,-1.368c0.793,-0.319 1.703,-0.479 2.728,-0.479c0.787,0 1.537,0.097 2.25,0.291c0.712,0.194 1.319,0.472 1.819,0.834l-0.582,1.125c-0.475,-0.35 -1.018,-0.615 -1.631,-0.796c-0.612,-0.182 -1.256,-0.272 -1.931,-0.272c-1.15,0 -2.075,0.237 -2.775,0.712c-0.7,0.475 -1.05,1.119 -1.05,1.931c0,0.45 0.137,0.819 0.412,1.107c0.275,0.287 0.616,0.515 1.022,0.684c0.406,0.169 0.953,0.353 1.641,0.553c0.812,0.238 1.469,0.466 1.969,0.685c0.5,0.218 0.925,0.531 1.275,0.937c0.35,0.406 0.525,0.941 0.525,1.603c0,0.825 -0.229,1.535 -0.685,2.128c-0.456,0.594 -1.087,1.047 -1.894,1.36c-0.806,0.312 -1.734,0.468 -2.784,0.468Z" style="fill:#c78d00;fill-rule:nonzero;stroke:#c78d00;stroke-width:0.07px;"/>
            <path d="M-326.609,174.851l-1.557,0l-4.237,-6.188l-3.225,2.757l-0.694,3.431l-1.369,0l2.625,-13.125l1.369,0l-1.575,7.837l9.15,-7.837l1.819,0l-7.088,6.094l4.782,7.031Z" style="fill:#c78d00;fill-rule:nonzero;"/>
        </g>
        <path d="M25.072,360.767l0.542,0l-1.561,7.808l-0.542,0l1.561,-7.808Z" style="fill:#c78d00;"/>
        <path d="M30.845,360.811l-6.42,5.483" style="fill:none;stroke:#c78d00;stroke-width:0.77px;stroke-linecap:round;stroke-linejoin:round;stroke-miterlimit:1.5;"/>
        <path d="M35.654,355.195l-1.4,7.004" style="fill:none;stroke:#c78d00;stroke-width:0.76px;stroke-linecap:round;stroke-linejoin:round;stroke-miterlimit:1.5;"/>
        <path d="M27.635,365.664l5.887,0l5.104,7.427" style="fill:none;stroke:#c78d00;stroke-width:0.76px;stroke-linecap:round;stroke-linejoin:round;stroke-miterlimit:1.5;"/>
        <path d="M38.605,372.955c0.645,-0.443 1.528,-0.28 1.971,0.365c0.443,0.645 0.279,1.528 -0.366,1.971c-0.644,0.443 -1.527,0.279 -1.97,-0.366c-0.444,-0.644 -0.28,-1.527 0.365,-1.97Zm0.417,0.607c0.31,-0.213 0.734,-0.134 0.946,0.175c0.213,0.31 0.134,0.734 -0.175,0.946c-0.309,0.213 -0.733,0.134 -0.946,-0.175c-0.213,-0.309 -0.134,-0.733 0.175,-0.946Z" style="fill:#c78d00;"/>
        <path d="M36.158,352.671c0.767,0.153 1.265,0.901 1.112,1.668c-0.153,0.767 -0.9,1.265 -1.668,1.112c-0.767,-0.153 -1.265,-0.901 -1.112,-1.668c0.154,-0.767 0.901,-1.265 1.668,-1.112Zm-0.145,0.723c0.369,0.073 0.608,0.432 0.534,0.8c-0.073,0.368 -0.432,0.608 -0.8,0.534c-0.368,-0.073 -0.608,-0.432 -0.534,-0.8c0.074,-0.369 0.432,-0.608 0.8,-0.534Z" style="fill:#c78d00;"/>
        <path d="M32.798,359.122c0.508,0.595 0.438,1.49 -0.157,1.998c-0.595,0.508 -1.49,0.438 -1.998,-0.157c-0.508,-0.595 -0.438,-1.49 0.157,-1.998c0.595,-0.508 1.49,-0.438 1.998,0.157Zm-0.56,0.479c0.244,0.285 0.21,0.715 -0.075,0.959c-0.286,0.244 -0.716,0.21 -0.96,-0.075c-0.243,-0.286 -0.21,-0.716 0.076,-0.96c0.285,-0.244 0.715,-0.21 0.959,0.076Z" style="fill:#c78d00;"/>
        <path d="M42.514,357.801c0.782,0 1.418,0.635 1.418,1.417c0,0.782 -0.636,1.417 -1.418,1.417c-0.782,0 -1.417,-0.635 -1.417,-1.417c0,-0.782 0.635,-1.417 1.417,-1.417Zm0,0.737c0.376,0 0.681,0.305 0.681,0.68c0,0.376 -0.305,0.68 -0.681,0.68c-0.375,0 -0.68,-0.304 -0.68,-0.68c0,-0.375 0.305,-0.68 0.68,-0.68Z" style="fill:#c78d00;"/>
        <path d="M30.766,370.246l-4.031,-5.887" style="fill:none;stroke:#c78d00;stroke-width:0.76px;stroke-linecap:round;stroke-linejoin:round;stroke-miterlimit:1.5;"/>
        <path d="M32.226,372.366c-0.645,0.442 -1.528,0.277 -1.97,-0.369c-0.442,-0.645 -0.277,-1.528 0.369,-1.97c0.645,-0.442 1.528,-0.277 1.97,0.369c0.442,0.645 0.277,1.528 -0.369,1.97Zm-0.416,-0.608c-0.31,0.212 -0.734,0.133 -0.946,-0.177c-0.212,-0.31 -0.132,-0.734 0.177,-0.946c0.31,-0.212 0.734,-0.133 0.946,0.177c0.212,0.31 0.133,0.734 -0.177,0.946Z" style="fill:#c78d00;"/>
        <path d="M30.313,365.664l7.547,-6.446l3.588,0" style="fill:none;stroke:#c78d00;stroke-width:0.76px;stroke-linecap:round;stroke-linejoin:round;stroke-miterlimit:1.5;"/>
    </g>
    <circle cx="30" cy="85.278" r="11.5" style="fill:none;stroke:#e7b028;stroke-width:1.56px;stroke-linejoin:bevel;stroke-miterlimit:1.5;"/>
    <rect x="26.689" y="62.343" width="1.041" height="7.594" style="fill:#8d8d8d;fill-rule:nonzero;"/>
    <path d="M29.239,62.343l0.722,-0.001l2.156,5.044l0,-5.044l0.881,0l0,7.594l-0.675,0l-2.184,-5.184l0,5.184l-0.9,0l0,-7.594Z" style="fill:#8d8d8d;fill-rule:nonzero;"/>
    <rect x="0" y="158.27" width="37.5" height="171.004" style="fill:#3c3c3c;"/>
    <path d="M49.5,160.27c0,-0.53 -0.211,-1.039 -0.586,-1.414c-0.375,-0.375 -0.884,-0.586 -1.414,-0.586c-5.764,0 -22,0 -22,0l0,171.004c0,0 16.236,0 22,0c0.53,0 1.039,-0.21 1.414,-0.585c0.375,-0.375 0.586,-0.884 0.586,-1.415c0,-17.823 0,-149.18 0,-167.004Z" style="fill:#e7b028;"/>
    <circle cx="54.717" cy="170.273" r="3.217" style="fill:#5a5a5a;"/>
    <circle cx="54.717" cy="191.272" r="3.217" style="fill:#5a5a5a;"/>
    <circle cx="54.717" cy="212.271" r="3.217" style="fill:#5a5a5a;"/>
    <circle cx="54.717" cy="233.27" r="3.217" style="fill:#5a5a5a;"/>
    <circle cx="54.717" cy="254.269" r="3.217" style="fill:#5a5a5a;"/>
    <circle cx="54.717" cy="275.273" r="3.217" style="fill:#5a5a5a;"/>
    <circle cx="54.717" cy="296.273" r="3.217" style="fill:#5a5a5a;"/>
    <circle cx="54.717" cy="317.273" r="3.217" style="fill:#5a5a5a;"/>
    <path d="M32.596,155.002c-0.743,0 -1.276,-0.211 -1.598,-0.633c-0.322,-0.422 -0.483,-1.033 -0.483,-1.833l0,-2.878c0,-0.788 0.163,-1.384 0.488,-1.791c0.325,-0.406 0.856,-0.609 1.593,-0.609c0.738,0 1.268,0.205 1.589,0.614c0.322,0.409 0.483,1.005 0.483,1.786l0,2.887c0,0.788 -0.162,1.394 -0.487,1.819c-0.325,0.425 -0.853,0.638 -1.585,0.638Zm0,-0.835c0.394,0 0.66,-0.115 0.797,-0.347c0.138,-0.231 0.206,-0.581 0.206,-1.05l0,-3.328c0,-0.462 -0.068,-0.804 -0.206,-1.026c-0.137,-0.222 -0.403,-0.333 -0.797,-0.333c-0.4,0 -0.668,0.111 -0.806,0.333c-0.137,0.222 -0.206,0.564 -0.206,1.026l0,3.328c0,0.469 0.069,0.819 0.206,1.05c0.138,0.232 0.406,0.347 0.806,0.347Z" style="fill:#8d8d8d;fill-rule:nonzero;"/>
    <path d="M37.949,155.002c-0.531,0 -0.945,-0.107 -1.242,-0.319c-0.297,-0.213 -0.501,-0.509 -0.614,-0.891c-0.112,-0.381 -0.169,-0.859 -0.169,-1.434l0,-5.034l1.013,0l0,5.081c0,0.575 0.067,1.012 0.202,1.312c0.134,0.3 0.404,0.45 0.81,0.45c0.407,0 0.677,-0.15 0.811,-0.45c0.135,-0.3 0.202,-0.737 0.202,-1.312l0,-5.081l1.003,0l0,5.034c0,0.575 -0.056,1.053 -0.169,1.434c-0.112,0.382 -0.315,0.678 -0.609,0.891c-0.294,0.212 -0.706,0.319 -1.238,0.319Z" style="fill:#8d8d8d;fill-rule:nonzero;"/>
    <path d="M42.196,148.111l-1.284,0l0,-0.787l3.591,0l0,0.787l-1.247,0l0,6.806l-1.06,0l0,-6.806Z" style="fill:#8d8d8d;fill-rule:nonzero;"/>
    <path d="M10.202,155.002c-0.75,0 -1.279,-0.224 -1.585,-0.671c-0.306,-0.447 -0.459,-1.064 -0.459,-1.851l0,-2.681c0,-0.832 0.15,-1.463 0.45,-1.894c0.3,-0.431 0.831,-0.647 1.594,-0.647c0.681,0 1.17,0.184 1.467,0.553c0.297,0.369 0.445,0.913 0.445,1.631l0,0.6l-1.003,0l0,-0.534c0,-0.35 -0.016,-0.619 -0.047,-0.806c-0.031,-0.188 -0.111,-0.338 -0.239,-0.45c-0.128,-0.113 -0.333,-0.169 -0.614,-0.169c-0.288,0 -0.502,0.061 -0.642,0.183c-0.141,0.122 -0.233,0.29 -0.277,0.506c-0.044,0.216 -0.065,0.505 -0.065,0.867l0,3.01c0,0.387 0.031,0.69 0.093,0.909c0.063,0.219 0.164,0.375 0.305,0.469c0.141,0.093 0.336,0.14 0.586,0.14c0.269,0 0.469,-0.059 0.6,-0.178c0.131,-0.119 0.214,-0.281 0.248,-0.487c0.035,-0.207 0.052,-0.488 0.052,-0.844l0,-0.563l1.003,0l0,0.563c0,0.756 -0.142,1.336 -0.427,1.739c-0.284,0.403 -0.779,0.605 -1.485,0.605Z" style="fill:#8d8d8d;fill-rule:nonzero;"/>
    <path d="M13.033,147.324l0.994,0l1.2,5.596l1.143,-5.596l0.966,0l-1.678,7.593l-0.928,0l-1.697,-7.593Z" style="fill:#8d8d8d;fill-rule:nonzero;"/>
    <path d="M37.5,165.171l0,146.994" style="fill:none;stroke:#3c3c3c;stroke-width:1.04px;stroke-miterlimit:1.5;"/>
    <path d="M37.5,170.273l-24.75,0" style="fill:none;stroke:#e7b028;stroke-width:1.04px;stroke-miterlimit:1.5;"/>
    <path d="M37.5,191.272l-24.75,0" style="fill:none;stroke:#e7b028;stroke-width:1.04px;stroke-miterlimit:1.5;"/>
    <path d="M37.5,212.271l-24.75,0" style="fill:none;stroke:#e7b028;stroke-width:1.04px;stroke-miterlimit:1.5;"/>
    <path d="M37.5,233.27l-24.75,0" style="fill:none;stroke:#e7b028;stroke-width:1.04px;stroke-miterlimit:1.5;"/>
    <path d="M37.5,254.269l-24.75,0" style="fill:none;stroke:#e7b028;stroke-width:1.04px;stroke-miterlimit:1.5;"/>
    <path d="M37.5,275.268l-24.75,0" style="fill:none;stroke:#e7b028;stroke-width:1.04px;stroke-miterlimit:1.5;"/>
    <path d="M37.5,296.267l-24.75,0" style="fill:none;stroke:#e7b028;stroke-width:1.04px;stroke-miterlimit:1.5;"/>
    <path d="M37.5,317.273l-24.75,0" style="fill:none;stroke:#e7b028;stroke-width:1.04px;stroke-miterlimit:1.5;"/>
    <path d="M37.5,144.066l0,-16.223l-25.032,-25.032l9.259,-9.259" style="fill:none;stroke:#e7b028;stroke-width:1.04px;stroke-miterlimit:1.5;"/>
</svg>
