<?xml version="1.0" encoding="UTF-8" standalone="no"?>
<!DOCTYPE svg PUBLIC "-//W3C//DTD SVG 1.1//EN" "http://www.w3.org/Graphics/SVG/1.1/DTD/svg11.dtd">
<svg width="45" height="380" viewBox="0 0 45 380" version="1.1" xmlns="http://www.w3.org/2000/svg" xmlns:xlink="http://www.w3.org/1999/xlink" xml:space="preserve" xmlns:serif="http://www.serif.com/" style="fill-rule:evenodd;clip-rule:evenodd;stroke-linejoin:bevel;stroke-miterlimit:1.5;">
    <rect x="0" y="0" width="45" height="380" style="fill:#262626;"/>
    <path d="M34.5,160.277c0,-0.53 -0.211,-1.039 -0.586,-1.414c-0.375,-0.375 -0.884,-0.586 -1.414,-0.586c-4.52,0 -15.48,0 -20,0c-0.53,0 -1.039,0.211 -1.414,0.586c-0.375,0.375 -0.586,0.884 -0.586,1.414c0,4.52 0,15.48 0,20c0,0.53 0.211,1.039 0.586,1.414c0.375,0.375 0.884,0.586 1.414,0.586c4.52,0 15.48,0 20,0c0.53,0 1.039,-0.211 1.414,-0.586c0.375,-0.375 0.586,-0.884 0.586,-1.414c0,-4.52 0,-15.48 0,-20Z" style="fill:#e7b028;"/>
    <path d="M34.5,307.277c0,-0.53 -0.211,-1.039 -0.586,-1.414c-0.375,-0.375 -0.884,-0.586 -1.414,-0.586c-4.52,0 -15.48,0 -20,0c-0.53,0 -1.039,0.211 -1.414,0.586c-0.375,0.375 -0.586,0.884 -0.586,1.414c0,4.52 0,15.48 0,20c0,0.53 0.211,1.039 0.586,1.414c0.375,0.375 0.884,0.586 1.414,0.586c4.52,0 15.48,0 20,0c0.53,0 1.039,-0.211 1.414,-0.586c0.375,-0.375 0.586,-0.884 0.586,-1.414c0,-4.52 0,-15.48 0,-20Z" style="fill:#e7b028;"/>
    <path d="M17.588,154.998c-0.744,0 -1.277,-0.211 -1.599,-0.633c-0.322,-0.422 -0.483,-1.033 -0.483,-1.833l0,-2.878c0,-0.787 0.163,-1.384 0.488,-1.791c0.325,-0.406 0.856,-0.609 1.594,-0.609c0.737,0 1.267,0.205 1.589,0.614c0.321,0.41 0.482,1.005 0.482,1.786l0,2.888c0,0.787 -0.162,1.393 -0.487,1.818c-0.325,0.425 -0.853,0.638 -1.584,0.638Zm0,-0.835c0.393,0 0.659,-0.115 0.796,-0.346c0.138,-0.232 0.207,-0.582 0.207,-1.05l0,-3.329c0,-0.462 -0.069,-0.804 -0.207,-1.026c-0.137,-0.222 -0.403,-0.333 -0.796,-0.333c-0.4,0 -0.669,0.111 -0.807,0.333c-0.137,0.222 -0.206,0.564 -0.206,1.026l0,3.329c0,0.468 0.069,0.818 0.206,1.05c0.138,0.231 0.407,0.346 0.807,0.346Z" style="fill:#8d8d8d;fill-rule:nonzero;"/>
    <path d="M22.941,154.998c-0.532,0 -0.946,-0.106 -1.243,-0.319c-0.296,-0.212 -0.501,-0.509 -0.614,-0.891c-0.112,-0.381 -0.168,-0.859 -0.168,-1.434l0,-5.034l1.012,0l0,5.081c0,0.575 0.067,1.012 0.202,1.312c0.134,0.3 0.404,0.45 0.811,0.45c0.406,0 0.676,-0.15 0.811,-0.45c0.134,-0.3 0.201,-0.737 0.201,-1.312l0,-5.081l1.003,0l0,5.034c0,0.575 -0.056,1.053 -0.168,1.434c-0.113,0.382 -0.316,0.679 -0.61,0.891c-0.294,0.213 -0.706,0.319 -1.237,0.319Z" style="fill:#8d8d8d;fill-rule:nonzero;"/>
    <path d="M27.188,148.107l-1.285,0l0,-0.787l3.591,0l0,0.787l-1.247,0l0,6.806l-1.059,0l0,-6.806Z" style="fill:#8d8d8d;fill-rule:nonzero;"/>
    <path d="M17.622,301.998c-0.744,0 -1.277,-0.211 -1.599,-0.633c-0.321,-0.422 -0.482,-1.033 -0.482,-1.833l0,-2.878c0,-0.787 0.162,-1.384 0.487,-1.791c0.325,-0.406 0.856,-0.609 1.594,-0.609c0.737,0 1.267,0.205 1.589,0.614c0.322,0.41 0.483,1.005 0.483,1.786l0,2.888c0,0.787 -0.163,1.393 -0.488,1.818c-0.325,0.425 -0.853,0.638 -1.584,0.638Zm0,-0.835c0.394,0 0.659,-0.115 0.797,-0.346c0.137,-0.232 0.206,-0.582 0.206,-1.05l0,-3.329c0,-0.462 -0.069,-0.804 -0.206,-1.026c-0.138,-0.222 -0.403,-0.333 -0.797,-0.333c-0.4,0 -0.669,0.111 -0.806,0.333c-0.138,0.222 -0.207,0.564 -0.207,1.026l0,3.329c0,0.468 0.069,0.818 0.207,1.05c0.137,0.231 0.406,0.346 0.806,0.346Z" style="fill:#8d8d8d;fill-rule:nonzero;"/>
    <path d="M22.975,301.998c-0.531,0 -0.945,-0.106 -1.242,-0.319c-0.297,-0.212 -0.502,-0.509 -0.614,-0.891c-0.113,-0.381 -0.169,-0.859 -0.169,-1.434l0,-5.034l1.012,0l0,5.081c0,0.575 0.068,1.012 0.202,1.312c0.134,0.3 0.405,0.45 0.811,0.45c0.406,0 0.677,-0.15 0.811,-0.45c0.134,-0.3 0.201,-0.737 0.201,-1.312l0,-5.081l1.004,0l0,5.034c0,0.575 -0.057,1.053 -0.169,1.434c-0.113,0.382 -0.316,0.679 -0.61,0.891c-0.293,0.213 -0.706,0.319 -1.237,0.319Z" style="fill:#8d8d8d;fill-rule:nonzero;"/>
    <path d="M27.222,295.107l-1.285,0l0,-0.787l3.591,0l0,0.787l-1.247,0l0,6.806l-1.059,0l0,-6.806Z" style="fill:#8d8d8d;fill-rule:nonzero;"/>
    <circle cx="22.5" cy="85.278" r="11.5" style="fill:none;stroke:#e7b028;stroke-width:1.56px;"/>
    <circle cx="22.5" cy="232.278" r="11.5" style="fill:none;stroke:#e7b028;stroke-width:1.56px;"/>
    <rect x="19.189" y="62.343" width="1.041" height="7.594" style="fill:#8d8d8d;fill-rule:nonzero;"/>
    <path d="M21.739,62.343l0.722,-0.001l2.156,5.044l0,-5.044l0.881,0l0,7.594l-0.675,0l-2.184,-5.184l0,5.184l-0.9,0l0,-7.594Z" style="fill:#8d8d8d;fill-rule:nonzero;"/>
    <rect x="19.189" y="209.343" width="1.041" height="7.594" style="fill:#8d8d8d;fill-rule:nonzero;"/>
    <path d="M21.739,209.343l0.722,-0.001l2.156,5.044l0,-5.044l0.881,0l0,7.594l-0.675,0l-2.184,-5.184l0,5.184l-0.9,0l0,-7.594Z" style="fill:#8d8d8d;fill-rule:nonzero;"/>
    <rect x="19.181" y="104.323" width="1.041" height="7.594" style="fill:#8d8d8d;fill-rule:nonzero;"/>
    <path d="M21.731,104.323l0.722,0l2.156,5.043l0,-5.043l0.882,0l0,7.593l-0.675,0l-2.185,-5.184l0,5.184l-0.9,0l0,-7.593Z" style="fill:#8d8d8d;fill-rule:nonzero;"/>
    <rect x="19.181" y="251.323" width="1.041" height="7.594" style="fill:#8d8d8d;fill-rule:nonzero;"/>
    <path d="M21.731,251.323l0.722,0l2.156,5.043l0,-5.043l0.882,0l0,7.593l-0.675,0l-2.185,-5.184l0,5.184l-0.9,0l0,-7.593Z" style="fill:#8d8d8d;fill-rule:nonzero;"/>
    <circle cx="22.5" cy="127.255" r="11.5" style="fill:none;stroke:#e7b028;stroke-width:1.56px;"/>
    <circle cx="22.5" cy="274.255" r="11.5" style="fill:none;stroke:#e7b028;stroke-width:1.56px;"/>
    <path d="M2,189.5l41,0" style="fill:none;stroke:#4c4c4c;stroke-width:0.78px;stroke-linejoin:miter;"/>
    <path d="M16.067,27.31l1.893,0l1.941,9.703l-1.642,0l-0.383,-2.24l-1.689,0l-0.395,2.24l-1.665,0l1.94,-9.703Zm1.617,6.337l-0.658,-4.073l-0.659,4.073l1.317,0Z" style="fill:#c78d00;fill-rule:nonzero;"/>
    <path d="M20.763,30.089l1.629,0l0,0.683c0.551,-0.527 1.11,-0.791 1.677,-0.791c0.392,0 0.685,0.144 0.881,0.432c0.195,0.287 0.293,0.65 0.293,1.09l0,5.51l-1.629,0l0,-5.187c0,-0.223 -0.034,-0.387 -0.102,-0.491c-0.068,-0.104 -0.189,-0.156 -0.365,-0.156c-0.192,0 -0.443,0.112 -0.755,0.336l0,5.498l-1.629,0l0,-6.924Z" style="fill:#c78d00;fill-rule:nonzero;"/>
    <path d="M27.998,37.121c-0.559,0 -0.976,-0.198 -1.251,-0.593c-0.276,-0.395 -0.414,-1.02 -0.414,-1.875l0,-2.12c0,-0.783 0.13,-1.404 0.39,-1.863c0.259,-0.459 0.68,-0.689 1.263,-0.689c0.448,0 0.863,0.184 1.246,0.551l0,-3.222l1.641,0l0,9.703l-1.641,0l0,-0.491c-0.383,0.399 -0.794,0.599 -1.234,0.599Zm0.587,-1.126c0.208,0 0.424,-0.076 0.647,-0.228l0,-4.444c-0.207,-0.152 -0.423,-0.228 -0.647,-0.228c-0.415,0 -0.622,0.364 -0.622,1.091l0,2.587c0,0.391 0.043,0.693 0.131,0.904c0.088,0.212 0.252,0.318 0.491,0.318Z" style="fill:#c78d00;fill-rule:nonzero;"/>
    <g>
        <path d="M6.548,368.57c-0.571,0 -1.118,-0.093 -1.641,-0.278c-0.522,-0.186 -0.917,-0.423 -1.184,-0.712l0.4,-0.645c0.26,0.282 0.619,0.508 1.079,0.678c0.46,0.171 0.934,0.256 1.424,0.256c0.689,0 1.244,-0.135 1.663,-0.406c0.419,-0.27 0.628,-0.647 0.628,-1.129c0,-0.259 -0.078,-0.471 -0.233,-0.634c-0.156,-0.163 -0.353,-0.295 -0.59,-0.395c-0.237,-0.1 -0.56,-0.209 -0.968,-0.328c-0.482,-0.141 -0.873,-0.276 -1.173,-0.406c-0.3,-0.13 -0.556,-0.322 -0.768,-0.578c-0.211,-0.256 -0.317,-0.588 -0.317,-0.996c0,-0.482 0.132,-0.899 0.395,-1.251c0.264,-0.352 0.631,-0.623 1.101,-0.812c0.471,-0.189 1.011,-0.284 1.619,-0.284c0.467,0 0.912,0.058 1.335,0.173c0.422,0.115 0.782,0.28 1.078,0.495l-0.344,0.667c-0.282,-0.207 -0.605,-0.365 -0.968,-0.473c-0.363,-0.107 -0.745,-0.161 -1.146,-0.161c-0.682,0 -1.231,0.141 -1.646,0.423c-0.415,0.282 -0.623,0.663 -0.623,1.145c0,0.267 0.082,0.486 0.245,0.657c0.163,0.17 0.365,0.306 0.606,0.406c0.241,0.1 0.566,0.209 0.973,0.328c0.482,0.141 0.872,0.276 1.168,0.406c0.297,0.13 0.549,0.315 0.757,0.556c0.207,0.241 0.311,0.558 0.311,0.951c0,0.489 -0.135,0.91 -0.406,1.262c-0.271,0.353 -0.645,0.621 -1.123,0.807c-0.479,0.185 -1.029,0.278 -1.652,0.278Z" style="fill:#c78d00;fill-rule:nonzero;"/>
        <path d="M17.693,368.503l-0.923,0l-2.514,-3.67l-1.913,1.635l-0.412,2.035l-0.812,0l1.558,-7.786l0.812,0l-0.935,4.65l5.428,-4.65l1.079,0l-4.204,3.615l2.836,4.171Z" style="fill:#c78d00;fill-rule:nonzero;"/>
        <path d="M12.698,360.721l0.54,0l-1.555,7.784l-0.541,0l1.556,-7.784Z" style="fill:#c78d00;"/>
        <path d="M18.452,360.721l-6.262,5.349" style="fill:none;stroke:#c78d00;stroke-width:0.66px;stroke-linecap:round;stroke-linejoin:round;"/>
        <path d="M23.114,355.3l-1.395,6.981" style="fill:none;stroke:#c78d00;stroke-width:0.76px;stroke-linecap:round;stroke-linejoin:round;"/>
        <path d="M15.321,365.603c0,0 3.663,0 5.053,0c0.329,0 0.638,0.162 0.824,0.434c1.089,1.584 4.79,6.969 4.79,6.969" style="fill:none;stroke:#c78d00;stroke-width:0.76px;stroke-linecap:round;stroke-linejoin:round;"/>
        <path d="M25.967,372.871c0.643,-0.442 1.523,-0.279 1.965,0.364c0.442,0.642 0.278,1.523 -0.364,1.964c-0.643,0.442 -1.523,0.279 -1.965,-0.364c-0.441,-0.642 -0.278,-1.523 0.364,-1.964Zm0.416,0.605c0.309,-0.212 0.731,-0.134 0.943,0.175c0.212,0.308 0.134,0.731 -0.174,0.943c-0.309,0.212 -0.731,0.133 -0.943,-0.175c-0.212,-0.308 -0.134,-0.731 0.174,-0.943Z" style="fill:#c78d00;"/>
        <path d="M23.616,352.783c0.765,0.153 1.262,0.898 1.109,1.663c-0.153,0.764 -0.898,1.261 -1.662,1.108c-0.765,-0.152 -1.262,-0.897 -1.109,-1.662c0.153,-0.765 0.898,-1.261 1.662,-1.109Zm-0.144,0.721c0.368,0.073 0.606,0.431 0.533,0.798c-0.074,0.367 -0.431,0.605 -0.798,0.532c-0.367,-0.073 -0.606,-0.431 -0.532,-0.798c0.073,-0.367 0.43,-0.605 0.797,-0.532Z" style="fill:#c78d00;"/>
        <path d="M20.4,359.038c0.506,0.592 0.436,1.485 -0.157,1.991c-0.593,0.507 -1.485,0.437 -1.992,-0.156c-0.506,-0.593 -0.436,-1.486 0.157,-1.992c0.593,-0.507 1.486,-0.436 1.992,0.157Zm-0.559,0.477c0.243,0.284 0.21,0.713 -0.075,0.956c-0.285,0.243 -0.713,0.209 -0.956,-0.075c-0.243,-0.285 -0.209,-0.713 0.075,-0.957c0.285,-0.243 0.713,-0.209 0.956,0.076Z" style="fill:#c78d00;"/>
        <path d="M29.864,357.764c0.78,0 1.413,0.633 1.413,1.413c0,0.78 -0.633,1.413 -1.413,1.413c-0.779,0 -1.413,-0.633 -1.413,-1.413c0,-0.78 0.634,-1.413 1.413,-1.413Zm0,0.735c0.375,0 0.679,0.304 0.679,0.678c0,0.375 -0.304,0.678 -0.679,0.678c-0.374,0 -0.678,-0.303 -0.678,-0.678c0,-0.374 0.304,-0.678 0.678,-0.678Z" style="fill:#c78d00;"/>
        <path d="M18.374,370.17l-4.018,-5.868" style="fill:none;stroke:#c78d00;stroke-width:0.76px;stroke-linecap:round;stroke-linejoin:round;"/>
        <path d="M19.83,372.284c-0.644,0.44 -1.524,0.276 -1.964,-0.368c-0.441,-0.643 -0.276,-1.523 0.367,-1.964c0.644,-0.44 1.524,-0.276 1.964,0.368c0.441,0.643 0.276,1.523 -0.367,1.964Zm-0.415,-0.606c-0.309,0.211 -0.732,0.132 -0.943,-0.177c-0.211,-0.309 -0.132,-0.731 0.176,-0.942c0.309,-0.212 0.732,-0.133 0.943,0.176c0.212,0.309 0.133,0.731 -0.176,0.943Z" style="fill:#c78d00;"/>
        <path d="M17.934,365.603c0,0 5.879,-5.021 7.243,-6.186c0.181,-0.155 0.411,-0.24 0.65,-0.24c0.863,0 2.942,0 2.942,0" style="fill:none;stroke:#c78d00;stroke-width:0.76px;stroke-linecap:round;stroke-linejoin:round;"/>
    </g>
    <path d="M34,85.278l6.006,0l0,12" style="fill:none;stroke:#e7b028;stroke-width:0.78px;stroke-linejoin:miter;"/>
    <path d="M34,127.278l5.993,0l0,-12" style="fill:none;stroke:#e7b028;stroke-width:0.78px;stroke-linejoin:miter;"/>
    <path d="M36.618,112.232l0,-1.525l6.75,-1.3l0,1.266l-1.483,0.25l0,1.067l1.483,0.258l0,1.292l-6.75,-1.308Zm4.417,-1.175l-2.717,0.408l2.717,0.4l0,-0.808Z" style="fill:#8d8d8d;fill-rule:nonzero;"/>
    <path d="M36.618,108.14l0,-0.958l3.509,-1.5l-3.509,0l0,-1.142l6.75,0l0,0.925l-3.733,1.5l3.733,0l0,1.175l-6.75,0Z" style="fill:#8d8d8d;fill-rule:nonzero;"/>
    <path d="M36.618,102.94l0,-1.65c0,-0.567 0.074,-1.01 0.221,-1.329c0.148,-0.32 0.374,-0.547 0.679,-0.684c0.306,-0.136 0.712,-0.204 1.217,-0.204l2.458,0c0.517,0 0.932,0.067 1.246,0.2c0.314,0.134 0.548,0.359 0.7,0.675c0.153,0.317 0.229,0.753 0.229,1.309l0,1.683l-6.75,0Zm5.792,-1.667c0,-0.239 -0.037,-0.415 -0.112,-0.529c-0.075,-0.114 -0.185,-0.186 -0.33,-0.217c-0.144,-0.03 -0.352,-0.045 -0.625,-0.045l-2.791,0c-0.256,0 -0.449,0.018 -0.579,0.054c-0.131,0.036 -0.228,0.109 -0.292,0.221c-0.064,0.111 -0.096,0.286 -0.096,0.525l0,0.291l4.825,0l0,-0.3Z" style="fill:#8d8d8d;fill-rule:nonzero;"/>
    <path d="M34,232.278l6.006,0l0,12" style="fill:none;stroke:#e7b028;stroke-width:0.78px;stroke-linejoin:miter;"/>
    <path d="M34,274.255l5.993,0l0,-12" style="fill:none;stroke:#e7b028;stroke-width:0.78px;stroke-linejoin:miter;"/>
    <path d="M36.618,259.232l0,-1.525l6.75,-1.3l0,1.266l-1.483,0.25l0,1.067l1.483,0.258l0,1.292l-6.75,-1.308Zm4.417,-1.175l-2.717,0.408l2.717,0.4l0,-0.808Z" style="fill:#8d8d8d;fill-rule:nonzero;"/>
    <path d="M36.618,255.14l0,-0.958l3.509,-1.5l-3.509,0l0,-1.142l6.75,0l0,0.925l-3.733,1.5l3.733,0l0,1.175l-6.75,0Z" style="fill:#8d8d8d;fill-rule:nonzero;"/>
    <path d="M36.618,249.94l0,-1.65c0,-0.567 0.074,-1.01 0.221,-1.329c0.148,-0.32 0.374,-0.547 0.679,-0.684c0.306,-0.136 0.712,-0.204 1.217,-0.204l2.458,0c0.517,0 0.932,0.067 1.246,0.2c0.314,0.134 0.548,0.359 0.7,0.675c0.153,0.317 0.229,0.753 0.229,1.309l0,1.683l-6.75,0Zm5.792,-1.667c0,-0.239 -0.037,-0.415 -0.112,-0.529c-0.075,-0.114 -0.185,-0.186 -0.33,-0.217c-0.144,-0.03 -0.352,-0.045 -0.625,-0.045l-2.791,0c-0.256,0 -0.449,0.018 -0.579,0.054c-0.131,0.036 -0.228,0.109 -0.292,0.221c-0.064,0.111 -0.096,0.286 -0.096,0.525l0,0.291l4.825,0l0,-0.3Z" style="fill:#8d8d8d;fill-rule:nonzero;"/>
</svg>
