<?xml version="1.0" encoding="utf-8"?>
<svg viewBox="0 0 120 380" width="120" height="380" xmlns="http://www.w3.org/2000/svg">
  <g id="layer1" style="">
    <rect width="120" height="380" style="fill: rgb(187, 237, 187);"/>
  </g>
  <path d="M 36.44 32.2 C 35.347 32.2 34.397 32.027 33.59 31.68 C 32.783 31.333 32.17 30.877 31.75 30.31 C 31.33 29.743 31.107 29.133 31.08 28.48 C 31.08 28.373 31.12 28.28 31.2 28.2 C 31.28 28.12 31.38 28.08 31.5 28.08 L 32.48 28.08 C 32.72 28.08 32.887 28.213 32.98 28.48 C 33.1 29.04 33.443 29.523 34.01 29.93 C 34.577 30.337 35.387 30.54 36.44 30.54 C 37.573 30.54 38.42 30.34 38.98 29.94 C 39.54 29.54 39.82 28.987 39.82 28.28 C 39.82 27.827 39.683 27.453 39.41 27.16 C 39.137 26.867 38.73 26.61 38.19 26.39 C 37.65 26.17 36.84 25.9 35.76 25.58 C 34.733 25.287 33.917 24.973 33.31 24.64 C 32.703 24.307 32.247 23.897 31.94 23.41 C 31.633 22.923 31.48 22.307 31.48 21.56 C 31.48 20.84 31.673 20.197 32.06 19.63 C 32.447 19.063 33.007 18.617 33.74 18.29 C 34.473 17.963 35.34 17.8 36.34 17.8 C 37.38 17.8 38.27 17.983 39.01 18.35 C 39.75 18.717 40.313 19.177 40.7 19.73 C 41.087 20.283 41.293 20.84 41.32 21.4 C 41.32 21.52 41.28 21.62 41.2 21.7 C 41.12 21.78 41.02 21.82 40.9 21.82 L 39.9 21.82 C 39.793 21.82 39.693 21.787 39.6 21.72 C 39.507 21.653 39.44 21.553 39.4 21.42 C 39.32 20.847 39 20.373 38.44 20 C 37.88 19.627 37.18 19.44 36.34 19.44 C 35.433 19.44 34.713 19.617 34.18 19.97 C 33.647 20.323 33.38 20.847 33.38 21.54 C 33.38 22.007 33.503 22.387 33.75 22.68 C 33.997 22.973 34.377 23.233 34.89 23.46 C 35.403 23.687 36.153 23.947 37.14 24.24 C 38.273 24.56 39.163 24.88 39.81 25.2 C 40.457 25.52 40.94 25.917 41.26 26.39 C 41.58 26.863 41.74 27.473 41.74 28.22 C 41.74 29.473 41.263 30.45 40.31 31.15 C 39.357 31.85 38.067 32.2 36.44 32.2 ZM 48.24 32.2 C 46.88 32.2 45.793 31.777 44.98 30.93 C 44.167 30.083 43.72 28.927 43.64 27.46 L 43.62 26.78 L 43.64 26.12 C 43.72 24.68 44.167 23.533 44.98 22.68 C 45.793 21.827 46.88 21.4 48.24 21.4 C 49.707 21.4 50.843 21.867 51.65 22.8 C 52.457 23.733 52.86 25 52.86 26.6 L 52.86 26.96 C 52.86 27.093 52.817 27.203 52.73 27.29 C 52.643 27.377 52.533 27.42 52.4 27.42 L 45.46 27.42 L 45.46 27.6 C 45.5 28.467 45.767 29.207 46.26 29.82 C 46.753 30.433 47.407 30.74 48.22 30.74 C 48.847 30.74 49.357 30.617 49.75 30.37 C 50.143 30.123 50.44 29.867 50.64 29.6 C 50.76 29.44 50.853 29.343 50.92 29.31 C 50.987 29.277 51.1 29.26 51.26 29.26 L 52.14 29.26 C 52.26 29.26 52.363 29.293 52.45 29.36 C 52.537 29.427 52.58 29.513 52.58 29.62 C 52.58 29.913 52.4 30.267 52.04 30.68 C 51.68 31.093 51.17 31.45 50.51 31.75 C 49.85 32.05 49.093 32.2 48.24 32.2 Z M 45.46 26.06 L 51.04 26.06 L 51.04 26 C 51.04 25.067 50.787 24.307 50.28 23.72 C 49.773 23.133 49.093 22.84 48.24 22.84 C 47.373 22.84 46.693 23.133 46.2 23.72 C 45.707 24.307 45.46 25.067 45.46 26 L 45.46 26.06 ZM 58.64 32 C 58.293 32 58.053 31.827 57.92 31.48 L 53.42 18.62 L 53.38 18.4 C 53.38 18.293 53.423 18.2 53.51 18.12 C 53.597 18.04 53.693 18 53.8 18 L 54.76 18 C 54.907 18 55.023 18.037 55.11 18.11 C 55.197 18.183 55.253 18.267 55.28 18.36 L 59.24 29.8 L 63.22 18.36 C 63.247 18.267 63.303 18.183 63.39 18.11 C 63.477 18.037 63.593 18 63.74 18 L 64.7 18 C 64.807 18 64.9 18.04 64.98 18.12 C 65.06 18.2 65.1 18.293 65.1 18.4 C 65.1 18.493 65.093 18.567 65.08 18.62 L 60.58 31.48 C 60.447 31.827 60.207 32 59.86 32 L 58.64 32 ZM 70.36 32.2 C 69 32.2 67.913 31.777 67.1 30.93 C 66.287 30.083 65.84 28.927 65.76 27.46 L 65.74 26.78 L 65.76 26.12 C 65.84 24.68 66.287 23.533 67.1 22.68 C 67.913 21.827 69 21.4 70.36 21.4 C 71.827 21.4 72.963 21.867 73.77 22.8 C 74.577 23.733 74.98 25 74.98 26.6 L 74.98 26.96 C 74.98 27.093 74.937 27.203 74.85 27.29 C 74.763 27.377 74.653 27.42 74.52 27.42 L 67.58 27.42 L 67.58 27.6 C 67.62 28.467 67.887 29.207 68.38 29.82 C 68.873 30.433 69.527 30.74 70.34 30.74 C 70.967 30.74 71.477 30.617 71.87 30.37 C 72.263 30.123 72.56 29.867 72.76 29.6 C 72.88 29.44 72.973 29.343 73.04 29.31 C 73.107 29.277 73.22 29.26 73.38 29.26 L 74.26 29.26 C 74.38 29.26 74.483 29.293 74.57 29.36 C 74.657 29.427 74.7 29.513 74.7 29.62 C 74.7 29.913 74.52 30.267 74.16 30.68 C 73.8 31.093 73.29 31.45 72.63 31.75 C 71.97 32.05 71.213 32.2 70.36 32.2 Z M 67.58 26.06 L 73.16 26.06 L 73.16 26 C 73.16 25.067 72.907 24.307 72.4 23.72 C 71.893 23.133 71.213 22.84 70.36 22.84 C 69.493 22.84 68.813 23.133 68.32 23.72 C 67.827 24.307 67.58 25.067 67.58 26 L 67.58 26.06 ZM 78.12 32 C 77.987 32 77.88 31.957 77.8 31.87 C 77.72 31.783 77.68 31.673 77.68 31.54 L 77.68 18.48 C 77.68 18.333 77.72 18.217 77.8 18.13 C 77.88 18.043 77.987 18 78.12 18 L 79 18 C 79.133 18 79.233 18.027 79.3 18.08 C 79.367 18.133 79.433 18.2 79.5 18.28 L 86.2 28.6 L 86.2 18.48 C 86.2 18.333 86.243 18.217 86.33 18.13 C 86.417 18.043 86.527 18 86.66 18 L 87.56 18 C 87.707 18 87.823 18.043 87.91 18.13 C 87.997 18.217 88.04 18.333 88.04 18.48 L 88.04 31.52 C 88.04 31.653 87.997 31.767 87.91 31.86 C 87.823 31.953 87.713 32 87.58 32 L 86.68 32 C 86.453 32 86.293 31.907 86.2 31.72 L 79.5 21.5 L 79.5 31.54 C 79.5 31.673 79.457 31.783 79.37 31.87 C 79.283 31.957 79.173 32 79.04 32 L 78.12 32 Z" transform="matrix(1, 0, 0, 1, 0, 0)" style="fill: rgb(51, 51, 51); white-space: pre;"/>
  <g id="Ainput" style="">
    <circle style="fill: rgb(0, 0, 0);" cx="17" cy="61" r="10"/>
    <circle style="fill: rgb(216, 0, 216);" cx="57" cy="61" r="14"/>
    <rect x="89" y="54" width="11.5" height="18" style="fill: rgb(0, 0, 0);"/>
    <path d="M 108.426 53.217 C 108.366 53.217 108.316 53.197 108.276 53.157 C 108.236 53.124 108.216 53.077 108.216 53.017 L 108.216 47.827 C 108.216 47.767 108.236 47.717 108.276 47.677 C 108.316 47.637 108.366 47.617 108.426 47.617 L 109.336 47.617 C 109.469 47.617 109.563 47.677 109.616 47.797 L 110.996 50.257 L 112.376 47.797 C 112.436 47.677 112.533 47.617 112.666 47.617 L 113.576 47.617 C 113.629 47.617 113.676 47.637 113.716 47.677 C 113.756 47.717 113.776 47.767 113.776 47.827 L 113.776 53.017 C 113.776 53.077 113.756 53.124 113.716 53.157 C 113.676 53.197 113.629 53.217 113.576 53.217 L 112.556 53.217 C 112.503 53.217 112.456 53.197 112.416 53.157 C 112.376 53.117 112.356 53.07 112.356 53.017 L 112.356 50.107 L 111.496 51.687 C 111.423 51.814 111.329 51.877 111.216 51.877 L 110.776 51.877 C 110.669 51.877 110.576 51.814 110.496 51.687 L 109.646 50.107 L 109.646 53.017 C 109.646 53.077 109.626 53.124 109.586 53.157 C 109.546 53.197 109.496 53.217 109.436 53.217 L 108.426 53.217 Z" transform="matrix(1, 0, 0, 1, 0, 0)" style="fill: rgb(51, 51, 51); white-space: pre;"/>
    <path d="M 44.778 80.6 C 43.918 80.6 43.291 80.347 42.898 79.84 C 42.498 79.34 42.285 78.683 42.258 77.87 L 42.248 77.01 L 42.258 76.12 C 42.278 75.313 42.491 74.66 42.898 74.16 C 43.298 73.653 43.925 73.4 44.778 73.4 C 45.638 73.4 46.268 73.653 46.668 74.16 C 47.075 74.66 47.288 75.313 47.308 76.12 C 47.315 76.307 47.318 76.603 47.318 77.01 C 47.318 77.403 47.315 77.69 47.308 77.87 C 47.281 78.683 47.068 79.34 46.668 79.84 C 46.275 80.347 45.645 80.6 44.778 80.6 Z M 44.778 79.77 C 45.291 79.77 45.678 79.6 45.938 79.26 C 46.198 78.92 46.335 78.44 46.348 77.82 C 46.355 77.627 46.358 77.35 46.358 76.99 C 46.358 76.623 46.355 76.35 46.348 76.17 C 46.335 75.557 46.198 75.08 45.938 74.74 C 45.671 74.393 45.285 74.22 44.778 74.22 C 44.271 74.22 43.888 74.393 43.628 74.74 C 43.368 75.08 43.231 75.557 43.218 76.17 L 43.208 76.99 L 43.218 77.82 C 43.231 78.44 43.368 78.92 43.628 79.26 C 43.888 79.6 44.271 79.77 44.778 79.77 Z" transform="matrix(1, 0, 0, 1, 0, 0)" style="fill: rgb(51, 51, 51); white-space: pre;"/>
    <path d="M 70.416 80.5 C 70.349 80.5 70.296 80.477 70.256 80.43 C 70.216 80.39 70.196 80.337 70.196 80.27 L 70.196 74.63 L 68.516 75.92 C 68.469 75.96 68.419 75.98 68.366 75.98 C 68.306 75.98 68.249 75.947 68.196 75.88 L 67.956 75.57 C 67.923 75.523 67.906 75.477 67.906 75.43 C 67.906 75.357 67.939 75.297 68.006 75.25 L 70.176 73.57 C 70.249 73.523 70.336 73.5 70.436 73.5 L 70.906 73.5 C 70.973 73.5 71.029 73.52 71.076 73.56 C 71.116 73.607 71.136 73.663 71.136 73.73 L 71.136 80.27 C 71.136 80.337 71.116 80.39 71.076 80.43 C 71.029 80.477 70.973 80.5 70.906 80.5 L 70.416 80.5 Z" transform="matrix(1, 0, 0, 1, 0, 0)" style="fill: rgb(51, 51, 51); white-space: pre;"/>
    <path d="M 93.84 49.694 C 93.773 49.694 93.72 49.671 93.68 49.624 C 93.633 49.584 93.61 49.531 93.61 49.464 L 93.61 47.374 L 91.54 47.374 C 91.473 47.374 91.417 47.354 91.37 47.314 C 91.33 47.267 91.31 47.211 91.31 47.144 L 91.31 46.844 C 91.31 46.777 91.33 46.721 91.37 46.674 C 91.417 46.634 91.473 46.614 91.54 46.614 L 93.61 46.614 L 93.61 44.584 C 93.61 44.511 93.633 44.454 93.68 44.414 C 93.72 44.374 93.773 44.354 93.84 44.354 L 94.16 44.354 C 94.233 44.354 94.29 44.374 94.33 44.414 C 94.37 44.454 94.39 44.511 94.39 44.584 L 94.39 46.614 L 96.46 46.614 C 96.527 46.614 96.583 46.634 96.63 46.674 C 96.67 46.721 96.69 46.777 96.69 46.844 L 96.69 47.144 C 96.69 47.211 96.67 47.267 96.63 47.314 C 96.583 47.354 96.527 47.374 96.46 47.374 L 94.39 47.374 L 94.39 49.464 C 94.39 49.531 94.37 49.584 94.33 49.624 C 94.283 49.671 94.227 49.694 94.16 49.694 L 93.84 49.694 Z" transform="matrix(1, 0, 0, 1, 0, 0)" style="fill: rgb(51, 51, 51); white-space: pre;"/>
    <path d="M 92.5 78.4 C 92.433 78.4 92.38 78.38 92.34 78.34 C 92.293 78.3 92.27 78.247 92.27 78.18 L 92.27 77.82 C 92.27 77.753 92.293 77.697 92.34 77.65 C 92.38 77.61 92.433 77.59 92.5 77.59 L 95.5 77.59 C 95.567 77.59 95.62 77.61 95.66 77.65 C 95.707 77.697 95.73 77.753 95.73 77.82 L 95.73 78.18 C 95.73 78.247 95.707 78.3 95.66 78.34 C 95.62 78.38 95.567 78.4 95.5 78.4 L 92.5 78.4 Z" transform="matrix(1, 0, 0, 1, 0, 0)" style="fill: rgb(51, 51, 51); white-space: pre;"/>
  </g>
  <g id="Binput" style="" transform="matrix(1, 0, 0, 1, 0, 42.700001)">
    <circle style="fill: rgb(0, 0, 0);" cx="17" cy="61" r="10"/>
    <circle style="fill: rgb(216, 0, 216);" cx="57" cy="61" r="14" transform=""/>
    <rect x="89" y="54" width="11.5" height="18" style="fill: rgb(0, 0, 0);" transform=""/>
    <path d="M 108.426 53.217 C 108.366 53.217 108.316 53.197 108.276 53.157 C 108.236 53.124 108.216 53.077 108.216 53.017 L 108.216 47.827 C 108.216 47.767 108.236 47.717 108.276 47.677 C 108.316 47.637 108.366 47.617 108.426 47.617 L 109.336 47.617 C 109.469 47.617 109.563 47.677 109.616 47.797 L 110.996 50.257 L 112.376 47.797 C 112.436 47.677 112.533 47.617 112.666 47.617 L 113.576 47.617 C 113.629 47.617 113.676 47.637 113.716 47.677 C 113.756 47.717 113.776 47.767 113.776 47.827 L 113.776 53.017 C 113.776 53.077 113.756 53.124 113.716 53.157 C 113.676 53.197 113.629 53.217 113.576 53.217 L 112.556 53.217 C 112.503 53.217 112.456 53.197 112.416 53.157 C 112.376 53.117 112.356 53.07 112.356 53.017 L 112.356 50.107 L 111.496 51.687 C 111.423 51.814 111.329 51.877 111.216 51.877 L 110.776 51.877 C 110.669 51.877 110.576 51.814 110.496 51.687 L 109.646 50.107 L 109.646 53.017 C 109.646 53.077 109.626 53.124 109.586 53.157 C 109.546 53.197 109.496 53.217 109.436 53.217 L 108.426 53.217 Z" transform="matrix(1, 0, 0, 1, 0, 0)" style="fill: rgb(51, 51, 51); white-space: pre;"/>
    <path d="M 44.778 80.6 C 43.918 80.6 43.291 80.347 42.898 79.84 C 42.498 79.34 42.285 78.683 42.258 77.87 L 42.248 77.01 L 42.258 76.12 C 42.278 75.313 42.491 74.66 42.898 74.16 C 43.298 73.653 43.925 73.4 44.778 73.4 C 45.638 73.4 46.268 73.653 46.668 74.16 C 47.075 74.66 47.288 75.313 47.308 76.12 C 47.315 76.307 47.318 76.603 47.318 77.01 C 47.318 77.403 47.315 77.69 47.308 77.87 C 47.281 78.683 47.068 79.34 46.668 79.84 C 46.275 80.347 45.645 80.6 44.778 80.6 Z M 44.778 79.77 C 45.291 79.77 45.678 79.6 45.938 79.26 C 46.198 78.92 46.335 78.44 46.348 77.82 C 46.355 77.627 46.358 77.35 46.358 76.99 C 46.358 76.623 46.355 76.35 46.348 76.17 C 46.335 75.557 46.198 75.08 45.938 74.74 C 45.671 74.393 45.285 74.22 44.778 74.22 C 44.271 74.22 43.888 74.393 43.628 74.74 C 43.368 75.08 43.231 75.557 43.218 76.17 L 43.208 76.99 L 43.218 77.82 C 43.231 78.44 43.368 78.92 43.628 79.26 C 43.888 79.6 44.271 79.77 44.778 79.77 Z" transform="matrix(1, 0, 0, 1, 0, 0)" style="fill: rgb(51, 51, 51); white-space: pre;"/>
    <path d="M 70.416 80.5 C 70.349 80.5 70.296 80.477 70.256 80.43 C 70.216 80.39 70.196 80.337 70.196 80.27 L 70.196 74.63 L 68.516 75.92 C 68.469 75.96 68.419 75.98 68.366 75.98 C 68.306 75.98 68.249 75.947 68.196 75.88 L 67.956 75.57 C 67.923 75.523 67.906 75.477 67.906 75.43 C 67.906 75.357 67.939 75.297 68.006 75.25 L 70.176 73.57 C 70.249 73.523 70.336 73.5 70.436 73.5 L 70.906 73.5 C 70.973 73.5 71.029 73.52 71.076 73.56 C 71.116 73.607 71.136 73.663 71.136 73.73 L 71.136 80.27 C 71.136 80.337 71.116 80.39 71.076 80.43 C 71.029 80.477 70.973 80.5 70.906 80.5 L 70.416 80.5 Z" transform="matrix(1, 0, 0, 1, 0, 0)" style="fill: rgb(51, 51, 51); white-space: pre;"/>
    <path d="M 93.84 49.694 C 93.773 49.694 93.72 49.671 93.68 49.624 C 93.633 49.584 93.61 49.531 93.61 49.464 L 93.61 47.374 L 91.54 47.374 C 91.473 47.374 91.417 47.354 91.37 47.314 C 91.33 47.267 91.31 47.211 91.31 47.144 L 91.31 46.844 C 91.31 46.777 91.33 46.721 91.37 46.674 C 91.417 46.634 91.473 46.614 91.54 46.614 L 93.61 46.614 L 93.61 44.584 C 93.61 44.511 93.633 44.454 93.68 44.414 C 93.72 44.374 93.773 44.354 93.84 44.354 L 94.16 44.354 C 94.233 44.354 94.29 44.374 94.33 44.414 C 94.37 44.454 94.39 44.511 94.39 44.584 L 94.39 46.614 L 96.46 46.614 C 96.527 46.614 96.583 46.634 96.63 46.674 C 96.67 46.721 96.69 46.777 96.69 46.844 L 96.69 47.144 C 96.69 47.211 96.67 47.267 96.63 47.314 C 96.583 47.354 96.527 47.374 96.46 47.374 L 94.39 47.374 L 94.39 49.464 C 94.39 49.531 94.37 49.584 94.33 49.624 C 94.283 49.671 94.227 49.694 94.16 49.694 L 93.84 49.694 Z" transform="matrix(1, 0, 0, 1, 0, 0)" style="fill: rgb(51, 51, 51); white-space: pre;"/>
    <path d="M 92.5 78.4 C 92.433 78.4 92.38 78.38 92.34 78.34 C 92.293 78.3 92.27 78.247 92.27 78.18 L 92.27 77.82 C 92.27 77.753 92.293 77.697 92.34 77.65 C 92.38 77.61 92.433 77.59 92.5 77.59 L 95.5 77.59 C 95.567 77.59 95.62 77.61 95.66 77.65 C 95.707 77.697 95.73 77.753 95.73 77.82 L 95.73 78.18 C 95.73 78.247 95.707 78.3 95.66 78.34 C 95.62 78.38 95.567 78.4 95.5 78.4 L 92.5 78.4 Z" transform="matrix(1, 0, 0, 1, 0, 0)" style="fill: rgb(51, 51, 51); white-space: pre;"/>
  </g>
  <g id="Cinput" style="" transform="matrix(1, 0, 0, 1, 0, 85.800003)">
    <circle style="fill: rgb(0, 0, 0);" cx="17" cy="61" r="10"/>
    <circle style="fill: rgb(216, 0, 216);" cx="57" cy="61" r="14" transform=""/>
    <rect x="89" y="54" width="11.5" height="18" style="fill: rgb(0, 0, 0);" transform=""/>
    <path d="M 108.426 53.217 C 108.366 53.217 108.316 53.197 108.276 53.157 C 108.236 53.124 108.216 53.077 108.216 53.017 L 108.216 47.827 C 108.216 47.767 108.236 47.717 108.276 47.677 C 108.316 47.637 108.366 47.617 108.426 47.617 L 109.336 47.617 C 109.469 47.617 109.563 47.677 109.616 47.797 L 110.996 50.257 L 112.376 47.797 C 112.436 47.677 112.533 47.617 112.666 47.617 L 113.576 47.617 C 113.629 47.617 113.676 47.637 113.716 47.677 C 113.756 47.717 113.776 47.767 113.776 47.827 L 113.776 53.017 C 113.776 53.077 113.756 53.124 113.716 53.157 C 113.676 53.197 113.629 53.217 113.576 53.217 L 112.556 53.217 C 112.503 53.217 112.456 53.197 112.416 53.157 C 112.376 53.117 112.356 53.07 112.356 53.017 L 112.356 50.107 L 111.496 51.687 C 111.423 51.814 111.329 51.877 111.216 51.877 L 110.776 51.877 C 110.669 51.877 110.576 51.814 110.496 51.687 L 109.646 50.107 L 109.646 53.017 C 109.646 53.077 109.626 53.124 109.586 53.157 C 109.546 53.197 109.496 53.217 109.436 53.217 L 108.426 53.217 Z" transform="matrix(1, 0, 0, 1, 0, 0)" style="fill: rgb(51, 51, 51); white-space: pre;"/>
    <path d="M 44.778 80.6 C 43.918 80.6 43.291 80.347 42.898 79.84 C 42.498 79.34 42.285 78.683 42.258 77.87 L 42.248 77.01 L 42.258 76.12 C 42.278 75.313 42.491 74.66 42.898 74.16 C 43.298 73.653 43.925 73.4 44.778 73.4 C 45.638 73.4 46.268 73.653 46.668 74.16 C 47.075 74.66 47.288 75.313 47.308 76.12 C 47.315 76.307 47.318 76.603 47.318 77.01 C 47.318 77.403 47.315 77.69 47.308 77.87 C 47.281 78.683 47.068 79.34 46.668 79.84 C 46.275 80.347 45.645 80.6 44.778 80.6 Z M 44.778 79.77 C 45.291 79.77 45.678 79.6 45.938 79.26 C 46.198 78.92 46.335 78.44 46.348 77.82 C 46.355 77.627 46.358 77.35 46.358 76.99 C 46.358 76.623 46.355 76.35 46.348 76.17 C 46.335 75.557 46.198 75.08 45.938 74.74 C 45.671 74.393 45.285 74.22 44.778 74.22 C 44.271 74.22 43.888 74.393 43.628 74.74 C 43.368 75.08 43.231 75.557 43.218 76.17 L 43.208 76.99 L 43.218 77.82 C 43.231 78.44 43.368 78.92 43.628 79.26 C 43.888 79.6 44.271 79.77 44.778 79.77 Z" transform="matrix(1, 0, 0, 1, 0, 0)" style="fill: rgb(51, 51, 51); white-space: pre;"/>
    <path d="M 70.416 80.5 C 70.349 80.5 70.296 80.477 70.256 80.43 C 70.216 80.39 70.196 80.337 70.196 80.27 L 70.196 74.63 L 68.516 75.92 C 68.469 75.96 68.419 75.98 68.366 75.98 C 68.306 75.98 68.249 75.947 68.196 75.88 L 67.956 75.57 C 67.923 75.523 67.906 75.477 67.906 75.43 C 67.906 75.357 67.939 75.297 68.006 75.25 L 70.176 73.57 C 70.249 73.523 70.336 73.5 70.436 73.5 L 70.906 73.5 C 70.973 73.5 71.029 73.52 71.076 73.56 C 71.116 73.607 71.136 73.663 71.136 73.73 L 71.136 80.27 C 71.136 80.337 71.116 80.39 71.076 80.43 C 71.029 80.477 70.973 80.5 70.906 80.5 L 70.416 80.5 Z" transform="matrix(1, 0, 0, 1, 0, 0)" style="fill: rgb(51, 51, 51); white-space: pre;"/>
    <path d="M 93.84 49.694 C 93.773 49.694 93.72 49.671 93.68 49.624 C 93.633 49.584 93.61 49.531 93.61 49.464 L 93.61 47.374 L 91.54 47.374 C 91.473 47.374 91.417 47.354 91.37 47.314 C 91.33 47.267 91.31 47.211 91.31 47.144 L 91.31 46.844 C 91.31 46.777 91.33 46.721 91.37 46.674 C 91.417 46.634 91.473 46.614 91.54 46.614 L 93.61 46.614 L 93.61 44.584 C 93.61 44.511 93.633 44.454 93.68 44.414 C 93.72 44.374 93.773 44.354 93.84 44.354 L 94.16 44.354 C 94.233 44.354 94.29 44.374 94.33 44.414 C 94.37 44.454 94.39 44.511 94.39 44.584 L 94.39 46.614 L 96.46 46.614 C 96.527 46.614 96.583 46.634 96.63 46.674 C 96.67 46.721 96.69 46.777 96.69 46.844 L 96.69 47.144 C 96.69 47.211 96.67 47.267 96.63 47.314 C 96.583 47.354 96.527 47.374 96.46 47.374 L 94.39 47.374 L 94.39 49.464 C 94.39 49.531 94.37 49.584 94.33 49.624 C 94.283 49.671 94.227 49.694 94.16 49.694 L 93.84 49.694 Z" transform="matrix(1, 0, 0, 1, 0, 0)" style="fill: rgb(51, 51, 51); white-space: pre;"/>
    <path d="M 92.5 78.4 C 92.433 78.4 92.38 78.38 92.34 78.34 C 92.293 78.3 92.27 78.247 92.27 78.18 L 92.27 77.82 C 92.27 77.753 92.293 77.697 92.34 77.65 C 92.38 77.61 92.433 77.59 92.5 77.59 L 95.5 77.59 C 95.567 77.59 95.62 77.61 95.66 77.65 C 95.707 77.697 95.73 77.753 95.73 77.82 L 95.73 78.18 C 95.73 78.247 95.707 78.3 95.66 78.34 C 95.62 78.38 95.567 78.4 95.5 78.4 L 92.5 78.4 Z" transform="matrix(1, 0, 0, 1, 0, 0)" style="fill: rgb(51, 51, 51); white-space: pre;"/>
  </g>
  <g id="Dinput" style="" transform="matrix(1, 0, 0, 1, 0, 128.699997)">
    <circle style="fill: rgb(0, 0, 0);" cx="17" cy="61" r="10" transform=""/>
    <circle style="fill: rgb(216, 0, 216);" cx="57" cy="61" r="14" transform=""/>
    <rect x="89" y="54" width="11.5" height="18" style="fill: rgb(0, 0, 0);" transform=""/>
    <path d="M 108.426 53.217 C 108.366 53.217 108.316 53.197 108.276 53.157 C 108.236 53.124 108.216 53.077 108.216 53.017 L 108.216 47.827 C 108.216 47.767 108.236 47.717 108.276 47.677 C 108.316 47.637 108.366 47.617 108.426 47.617 L 109.336 47.617 C 109.469 47.617 109.563 47.677 109.616 47.797 L 110.996 50.257 L 112.376 47.797 C 112.436 47.677 112.533 47.617 112.666 47.617 L 113.576 47.617 C 113.629 47.617 113.676 47.637 113.716 47.677 C 113.756 47.717 113.776 47.767 113.776 47.827 L 113.776 53.017 C 113.776 53.077 113.756 53.124 113.716 53.157 C 113.676 53.197 113.629 53.217 113.576 53.217 L 112.556 53.217 C 112.503 53.217 112.456 53.197 112.416 53.157 C 112.376 53.117 112.356 53.07 112.356 53.017 L 112.356 50.107 L 111.496 51.687 C 111.423 51.814 111.329 51.877 111.216 51.877 L 110.776 51.877 C 110.669 51.877 110.576 51.814 110.496 51.687 L 109.646 50.107 L 109.646 53.017 C 109.646 53.077 109.626 53.124 109.586 53.157 C 109.546 53.197 109.496 53.217 109.436 53.217 L 108.426 53.217 Z" transform="matrix(1, 0, 0, 1, 0, 0)" style="fill: rgb(51, 51, 51); white-space: pre;"/>
    <path d="M 44.778 80.6 C 43.918 80.6 43.291 80.347 42.898 79.84 C 42.498 79.34 42.285 78.683 42.258 77.87 L 42.248 77.01 L 42.258 76.12 C 42.278 75.313 42.491 74.66 42.898 74.16 C 43.298 73.653 43.925 73.4 44.778 73.4 C 45.638 73.4 46.268 73.653 46.668 74.16 C 47.075 74.66 47.288 75.313 47.308 76.12 C 47.315 76.307 47.318 76.603 47.318 77.01 C 47.318 77.403 47.315 77.69 47.308 77.87 C 47.281 78.683 47.068 79.34 46.668 79.84 C 46.275 80.347 45.645 80.6 44.778 80.6 Z M 44.778 79.77 C 45.291 79.77 45.678 79.6 45.938 79.26 C 46.198 78.92 46.335 78.44 46.348 77.82 C 46.355 77.627 46.358 77.35 46.358 76.99 C 46.358 76.623 46.355 76.35 46.348 76.17 C 46.335 75.557 46.198 75.08 45.938 74.74 C 45.671 74.393 45.285 74.22 44.778 74.22 C 44.271 74.22 43.888 74.393 43.628 74.74 C 43.368 75.08 43.231 75.557 43.218 76.17 L 43.208 76.99 L 43.218 77.82 C 43.231 78.44 43.368 78.92 43.628 79.26 C 43.888 79.6 44.271 79.77 44.778 79.77 Z" transform="matrix(1, 0, 0, 1, 0, 0)" style="fill: rgb(51, 51, 51); white-space: pre;"/>
    <path d="M 70.416 80.5 C 70.349 80.5 70.296 80.477 70.256 80.43 C 70.216 80.39 70.196 80.337 70.196 80.27 L 70.196 74.63 L 68.516 75.92 C 68.469 75.96 68.419 75.98 68.366 75.98 C 68.306 75.98 68.249 75.947 68.196 75.88 L 67.956 75.57 C 67.923 75.523 67.906 75.477 67.906 75.43 C 67.906 75.357 67.939 75.297 68.006 75.25 L 70.176 73.57 C 70.249 73.523 70.336 73.5 70.436 73.5 L 70.906 73.5 C 70.973 73.5 71.029 73.52 71.076 73.56 C 71.116 73.607 71.136 73.663 71.136 73.73 L 71.136 80.27 C 71.136 80.337 71.116 80.39 71.076 80.43 C 71.029 80.477 70.973 80.5 70.906 80.5 L 70.416 80.5 Z" transform="matrix(1, 0, 0, 1, 0, 0)" style="fill: rgb(51, 51, 51); white-space: pre;"/>
    <path d="M 93.84 49.694 C 93.773 49.694 93.72 49.671 93.68 49.624 C 93.633 49.584 93.61 49.531 93.61 49.464 L 93.61 47.374 L 91.54 47.374 C 91.473 47.374 91.417 47.354 91.37 47.314 C 91.33 47.267 91.31 47.211 91.31 47.144 L 91.31 46.844 C 91.31 46.777 91.33 46.721 91.37 46.674 C 91.417 46.634 91.473 46.614 91.54 46.614 L 93.61 46.614 L 93.61 44.584 C 93.61 44.511 93.633 44.454 93.68 44.414 C 93.72 44.374 93.773 44.354 93.84 44.354 L 94.16 44.354 C 94.233 44.354 94.29 44.374 94.33 44.414 C 94.37 44.454 94.39 44.511 94.39 44.584 L 94.39 46.614 L 96.46 46.614 C 96.527 46.614 96.583 46.634 96.63 46.674 C 96.67 46.721 96.69 46.777 96.69 46.844 L 96.69 47.144 C 96.69 47.211 96.67 47.267 96.63 47.314 C 96.583 47.354 96.527 47.374 96.46 47.374 L 94.39 47.374 L 94.39 49.464 C 94.39 49.531 94.37 49.584 94.33 49.624 C 94.283 49.671 94.227 49.694 94.16 49.694 L 93.84 49.694 Z" transform="matrix(1, 0, 0, 1, 0, 0)" style="fill: rgb(51, 51, 51); white-space: pre;"/>
    <path d="M 92.5 78.4 C 92.433 78.4 92.38 78.38 92.34 78.34 C 92.293 78.3 92.27 78.247 92.27 78.18 L 92.27 77.82 C 92.27 77.753 92.293 77.697 92.34 77.65 C 92.38 77.61 92.433 77.59 92.5 77.59 L 95.5 77.59 C 95.567 77.59 95.62 77.61 95.66 77.65 C 95.707 77.697 95.73 77.753 95.73 77.82 L 95.73 78.18 C 95.73 78.247 95.707 78.3 95.66 78.34 C 95.62 78.38 95.567 78.4 95.5 78.4 L 92.5 78.4 Z" transform="matrix(1, 0, 0, 1, 0, 0)" style="fill: rgb(51, 51, 51); white-space: pre;"/>
  </g>
  <g id="Einput" style="" transform="matrix(1, 0, 0, 1, 0, 171.600006)">
    <circle style="fill: rgb(0, 0, 0);" cx="17" cy="61" r="10" transform=""/>
    <circle style="fill: rgb(216, 0, 216);" cx="57" cy="61" r="14" transform=""/>
    <rect x="89" y="54" width="11.5" height="18" style="fill: rgb(0, 0, 0);" transform=""/>
    <path d="M 108.426 53.217 C 108.366 53.217 108.316 53.197 108.276 53.157 C 108.236 53.124 108.216 53.077 108.216 53.017 L 108.216 47.827 C 108.216 47.767 108.236 47.717 108.276 47.677 C 108.316 47.637 108.366 47.617 108.426 47.617 L 109.336 47.617 C 109.469 47.617 109.563 47.677 109.616 47.797 L 110.996 50.257 L 112.376 47.797 C 112.436 47.677 112.533 47.617 112.666 47.617 L 113.576 47.617 C 113.629 47.617 113.676 47.637 113.716 47.677 C 113.756 47.717 113.776 47.767 113.776 47.827 L 113.776 53.017 C 113.776 53.077 113.756 53.124 113.716 53.157 C 113.676 53.197 113.629 53.217 113.576 53.217 L 112.556 53.217 C 112.503 53.217 112.456 53.197 112.416 53.157 C 112.376 53.117 112.356 53.07 112.356 53.017 L 112.356 50.107 L 111.496 51.687 C 111.423 51.814 111.329 51.877 111.216 51.877 L 110.776 51.877 C 110.669 51.877 110.576 51.814 110.496 51.687 L 109.646 50.107 L 109.646 53.017 C 109.646 53.077 109.626 53.124 109.586 53.157 C 109.546 53.197 109.496 53.217 109.436 53.217 L 108.426 53.217 Z" transform="matrix(1, 0, 0, 1, 0, 0)" style="fill: rgb(51, 51, 51); white-space: pre;"/>
    <path d="M 44.778 80.6 C 43.918 80.6 43.291 80.347 42.898 79.84 C 42.498 79.34 42.285 78.683 42.258 77.87 L 42.248 77.01 L 42.258 76.12 C 42.278 75.313 42.491 74.66 42.898 74.16 C 43.298 73.653 43.925 73.4 44.778 73.4 C 45.638 73.4 46.268 73.653 46.668 74.16 C 47.075 74.66 47.288 75.313 47.308 76.12 C 47.315 76.307 47.318 76.603 47.318 77.01 C 47.318 77.403 47.315 77.69 47.308 77.87 C 47.281 78.683 47.068 79.34 46.668 79.84 C 46.275 80.347 45.645 80.6 44.778 80.6 Z M 44.778 79.77 C 45.291 79.77 45.678 79.6 45.938 79.26 C 46.198 78.92 46.335 78.44 46.348 77.82 C 46.355 77.627 46.358 77.35 46.358 76.99 C 46.358 76.623 46.355 76.35 46.348 76.17 C 46.335 75.557 46.198 75.08 45.938 74.74 C 45.671 74.393 45.285 74.22 44.778 74.22 C 44.271 74.22 43.888 74.393 43.628 74.74 C 43.368 75.08 43.231 75.557 43.218 76.17 L 43.208 76.99 L 43.218 77.82 C 43.231 78.44 43.368 78.92 43.628 79.26 C 43.888 79.6 44.271 79.77 44.778 79.77 Z" transform="matrix(1, 0, 0, 1, 0, 0)" style="fill: rgb(51, 51, 51); white-space: pre;"/>
    <path d="M 70.416 80.5 C 70.349 80.5 70.296 80.477 70.256 80.43 C 70.216 80.39 70.196 80.337 70.196 80.27 L 70.196 74.63 L 68.516 75.92 C 68.469 75.96 68.419 75.98 68.366 75.98 C 68.306 75.98 68.249 75.947 68.196 75.88 L 67.956 75.57 C 67.923 75.523 67.906 75.477 67.906 75.43 C 67.906 75.357 67.939 75.297 68.006 75.25 L 70.176 73.57 C 70.249 73.523 70.336 73.5 70.436 73.5 L 70.906 73.5 C 70.973 73.5 71.029 73.52 71.076 73.56 C 71.116 73.607 71.136 73.663 71.136 73.73 L 71.136 80.27 C 71.136 80.337 71.116 80.39 71.076 80.43 C 71.029 80.477 70.973 80.5 70.906 80.5 L 70.416 80.5 Z" transform="matrix(1, 0, 0, 1, 0, 0)" style="fill: rgb(51, 51, 51); white-space: pre;"/>
    <path d="M 93.84 49.694 C 93.773 49.694 93.72 49.671 93.68 49.624 C 93.633 49.584 93.61 49.531 93.61 49.464 L 93.61 47.374 L 91.54 47.374 C 91.473 47.374 91.417 47.354 91.37 47.314 C 91.33 47.267 91.31 47.211 91.31 47.144 L 91.31 46.844 C 91.31 46.777 91.33 46.721 91.37 46.674 C 91.417 46.634 91.473 46.614 91.54 46.614 L 93.61 46.614 L 93.61 44.584 C 93.61 44.511 93.633 44.454 93.68 44.414 C 93.72 44.374 93.773 44.354 93.84 44.354 L 94.16 44.354 C 94.233 44.354 94.29 44.374 94.33 44.414 C 94.37 44.454 94.39 44.511 94.39 44.584 L 94.39 46.614 L 96.46 46.614 C 96.527 46.614 96.583 46.634 96.63 46.674 C 96.67 46.721 96.69 46.777 96.69 46.844 L 96.69 47.144 C 96.69 47.211 96.67 47.267 96.63 47.314 C 96.583 47.354 96.527 47.374 96.46 47.374 L 94.39 47.374 L 94.39 49.464 C 94.39 49.531 94.37 49.584 94.33 49.624 C 94.283 49.671 94.227 49.694 94.16 49.694 L 93.84 49.694 Z" transform="matrix(1, 0, 0, 1, 0, 0)" style="fill: rgb(51, 51, 51); white-space: pre;"/>
    <path d="M 92.5 78.4 C 92.433 78.4 92.38 78.38 92.34 78.34 C 92.293 78.3 92.27 78.247 92.27 78.18 L 92.27 77.82 C 92.27 77.753 92.293 77.697 92.34 77.65 C 92.38 77.61 92.433 77.59 92.5 77.59 L 95.5 77.59 C 95.567 77.59 95.62 77.61 95.66 77.65 C 95.707 77.697 95.73 77.753 95.73 77.82 L 95.73 78.18 C 95.73 78.247 95.707 78.3 95.66 78.34 C 95.62 78.38 95.567 78.4 95.5 78.4 L 92.5 78.4 Z" transform="matrix(1, 0, 0, 1, 0, 0)" style="fill: rgb(51, 51, 51); white-space: pre;"/>
  </g>
  <g id="Finput" style="" transform="matrix(1, 0, 0, 1, 0, 214.5)">
    <circle style="fill: rgb(0, 0, 0);" cx="17" cy="61" r="10" transform=""/>
    <circle style="fill: rgb(216, 0, 216);" cx="57" cy="61" r="14" transform=""/>
    <rect x="89" y="54" width="11.5" height="18" style="fill: rgb(0, 0, 0);" transform=""/>
    <path d="M 108.426 53.217 C 108.366 53.217 108.316 53.197 108.276 53.157 C 108.236 53.124 108.216 53.077 108.216 53.017 L 108.216 47.827 C 108.216 47.767 108.236 47.717 108.276 47.677 C 108.316 47.637 108.366 47.617 108.426 47.617 L 109.336 47.617 C 109.469 47.617 109.563 47.677 109.616 47.797 L 110.996 50.257 L 112.376 47.797 C 112.436 47.677 112.533 47.617 112.666 47.617 L 113.576 47.617 C 113.629 47.617 113.676 47.637 113.716 47.677 C 113.756 47.717 113.776 47.767 113.776 47.827 L 113.776 53.017 C 113.776 53.077 113.756 53.124 113.716 53.157 C 113.676 53.197 113.629 53.217 113.576 53.217 L 112.556 53.217 C 112.503 53.217 112.456 53.197 112.416 53.157 C 112.376 53.117 112.356 53.07 112.356 53.017 L 112.356 50.107 L 111.496 51.687 C 111.423 51.814 111.329 51.877 111.216 51.877 L 110.776 51.877 C 110.669 51.877 110.576 51.814 110.496 51.687 L 109.646 50.107 L 109.646 53.017 C 109.646 53.077 109.626 53.124 109.586 53.157 C 109.546 53.197 109.496 53.217 109.436 53.217 L 108.426 53.217 Z" transform="matrix(1, 0, 0, 1, 0, 0)" style="fill: rgb(51, 51, 51); white-space: pre;"/>
    <path d="M 44.778 80.6 C 43.918 80.6 43.291 80.347 42.898 79.84 C 42.498 79.34 42.285 78.683 42.258 77.87 L 42.248 77.01 L 42.258 76.12 C 42.278 75.313 42.491 74.66 42.898 74.16 C 43.298 73.653 43.925 73.4 44.778 73.4 C 45.638 73.4 46.268 73.653 46.668 74.16 C 47.075 74.66 47.288 75.313 47.308 76.12 C 47.315 76.307 47.318 76.603 47.318 77.01 C 47.318 77.403 47.315 77.69 47.308 77.87 C 47.281 78.683 47.068 79.34 46.668 79.84 C 46.275 80.347 45.645 80.6 44.778 80.6 Z M 44.778 79.77 C 45.291 79.77 45.678 79.6 45.938 79.26 C 46.198 78.92 46.335 78.44 46.348 77.82 C 46.355 77.627 46.358 77.35 46.358 76.99 C 46.358 76.623 46.355 76.35 46.348 76.17 C 46.335 75.557 46.198 75.08 45.938 74.74 C 45.671 74.393 45.285 74.22 44.778 74.22 C 44.271 74.22 43.888 74.393 43.628 74.74 C 43.368 75.08 43.231 75.557 43.218 76.17 L 43.208 76.99 L 43.218 77.82 C 43.231 78.44 43.368 78.92 43.628 79.26 C 43.888 79.6 44.271 79.77 44.778 79.77 Z" transform="matrix(1, 0, 0, 1, 0, 0)" style="fill: rgb(51, 51, 51); white-space: pre;"/>
    <path d="M 70.416 80.5 C 70.349 80.5 70.296 80.477 70.256 80.43 C 70.216 80.39 70.196 80.337 70.196 80.27 L 70.196 74.63 L 68.516 75.92 C 68.469 75.96 68.419 75.98 68.366 75.98 C 68.306 75.98 68.249 75.947 68.196 75.88 L 67.956 75.57 C 67.923 75.523 67.906 75.477 67.906 75.43 C 67.906 75.357 67.939 75.297 68.006 75.25 L 70.176 73.57 C 70.249 73.523 70.336 73.5 70.436 73.5 L 70.906 73.5 C 70.973 73.5 71.029 73.52 71.076 73.56 C 71.116 73.607 71.136 73.663 71.136 73.73 L 71.136 80.27 C 71.136 80.337 71.116 80.39 71.076 80.43 C 71.029 80.477 70.973 80.5 70.906 80.5 L 70.416 80.5 Z" transform="matrix(1, 0, 0, 1, 0, 0)" style="fill: rgb(51, 51, 51); white-space: pre;"/>
    <path d="M 93.84 49.694 C 93.773 49.694 93.72 49.671 93.68 49.624 C 93.633 49.584 93.61 49.531 93.61 49.464 L 93.61 47.374 L 91.54 47.374 C 91.473 47.374 91.417 47.354 91.37 47.314 C 91.33 47.267 91.31 47.211 91.31 47.144 L 91.31 46.844 C 91.31 46.777 91.33 46.721 91.37 46.674 C 91.417 46.634 91.473 46.614 91.54 46.614 L 93.61 46.614 L 93.61 44.584 C 93.61 44.511 93.633 44.454 93.68 44.414 C 93.72 44.374 93.773 44.354 93.84 44.354 L 94.16 44.354 C 94.233 44.354 94.29 44.374 94.33 44.414 C 94.37 44.454 94.39 44.511 94.39 44.584 L 94.39 46.614 L 96.46 46.614 C 96.527 46.614 96.583 46.634 96.63 46.674 C 96.67 46.721 96.69 46.777 96.69 46.844 L 96.69 47.144 C 96.69 47.211 96.67 47.267 96.63 47.314 C 96.583 47.354 96.527 47.374 96.46 47.374 L 94.39 47.374 L 94.39 49.464 C 94.39 49.531 94.37 49.584 94.33 49.624 C 94.283 49.671 94.227 49.694 94.16 49.694 L 93.84 49.694 Z" transform="matrix(1, 0, 0, 1, 0, 0)" style="fill: rgb(51, 51, 51); white-space: pre;"/>
    <path d="M 92.5 78.4 C 92.433 78.4 92.38 78.38 92.34 78.34 C 92.293 78.3 92.27 78.247 92.27 78.18 L 92.27 77.82 C 92.27 77.753 92.293 77.697 92.34 77.65 C 92.38 77.61 92.433 77.59 92.5 77.59 L 95.5 77.59 C 95.567 77.59 95.62 77.61 95.66 77.65 C 95.707 77.697 95.73 77.753 95.73 77.82 L 95.73 78.18 C 95.73 78.247 95.707 78.3 95.66 78.34 C 95.62 78.38 95.567 78.4 95.5 78.4 L 92.5 78.4 Z" transform="matrix(1, 0, 0, 1, 0, 0)" style="fill: rgb(51, 51, 51); white-space: pre;"/>
  </g>
  <g id="Ginput" style="" transform="matrix(1, 0, 0, 1, 0, 257.399994)">
    <circle style="fill: rgb(0, 0, 0);" cx="17" cy="61" r="10" transform=""/>
    <circle style="fill: rgb(216, 0, 216);" cx="57" cy="61" r="14" transform=""/>
    <rect x="89" y="54" width="11.5" height="18" style="fill: rgb(0, 0, 0);" transform=""/>
    <path d="M 108.426 53.217 C 108.366 53.217 108.316 53.197 108.276 53.157 C 108.236 53.124 108.216 53.077 108.216 53.017 L 108.216 47.827 C 108.216 47.767 108.236 47.717 108.276 47.677 C 108.316 47.637 108.366 47.617 108.426 47.617 L 109.336 47.617 C 109.469 47.617 109.563 47.677 109.616 47.797 L 110.996 50.257 L 112.376 47.797 C 112.436 47.677 112.533 47.617 112.666 47.617 L 113.576 47.617 C 113.629 47.617 113.676 47.637 113.716 47.677 C 113.756 47.717 113.776 47.767 113.776 47.827 L 113.776 53.017 C 113.776 53.077 113.756 53.124 113.716 53.157 C 113.676 53.197 113.629 53.217 113.576 53.217 L 112.556 53.217 C 112.503 53.217 112.456 53.197 112.416 53.157 C 112.376 53.117 112.356 53.07 112.356 53.017 L 112.356 50.107 L 111.496 51.687 C 111.423 51.814 111.329 51.877 111.216 51.877 L 110.776 51.877 C 110.669 51.877 110.576 51.814 110.496 51.687 L 109.646 50.107 L 109.646 53.017 C 109.646 53.077 109.626 53.124 109.586 53.157 C 109.546 53.197 109.496 53.217 109.436 53.217 L 108.426 53.217 Z" transform="matrix(1, 0, 0, 1, 0, 0)" style="fill: rgb(51, 51, 51); white-space: pre;"/>
    <path d="M 44.778 80.6 C 43.918 80.6 43.291 80.347 42.898 79.84 C 42.498 79.34 42.285 78.683 42.258 77.87 L 42.248 77.01 L 42.258 76.12 C 42.278 75.313 42.491 74.66 42.898 74.16 C 43.298 73.653 43.925 73.4 44.778 73.4 C 45.638 73.4 46.268 73.653 46.668 74.16 C 47.075 74.66 47.288 75.313 47.308 76.12 C 47.315 76.307 47.318 76.603 47.318 77.01 C 47.318 77.403 47.315 77.69 47.308 77.87 C 47.281 78.683 47.068 79.34 46.668 79.84 C 46.275 80.347 45.645 80.6 44.778 80.6 Z M 44.778 79.77 C 45.291 79.77 45.678 79.6 45.938 79.26 C 46.198 78.92 46.335 78.44 46.348 77.82 C 46.355 77.627 46.358 77.35 46.358 76.99 C 46.358 76.623 46.355 76.35 46.348 76.17 C 46.335 75.557 46.198 75.08 45.938 74.74 C 45.671 74.393 45.285 74.22 44.778 74.22 C 44.271 74.22 43.888 74.393 43.628 74.74 C 43.368 75.08 43.231 75.557 43.218 76.17 L 43.208 76.99 L 43.218 77.82 C 43.231 78.44 43.368 78.92 43.628 79.26 C 43.888 79.6 44.271 79.77 44.778 79.77 Z" transform="matrix(1, 0, 0, 1, 0, 0)" style="fill: rgb(51, 51, 51); white-space: pre;"/>
    <path d="M 70.416 80.5 C 70.349 80.5 70.296 80.477 70.256 80.43 C 70.216 80.39 70.196 80.337 70.196 80.27 L 70.196 74.63 L 68.516 75.92 C 68.469 75.96 68.419 75.98 68.366 75.98 C 68.306 75.98 68.249 75.947 68.196 75.88 L 67.956 75.57 C 67.923 75.523 67.906 75.477 67.906 75.43 C 67.906 75.357 67.939 75.297 68.006 75.25 L 70.176 73.57 C 70.249 73.523 70.336 73.5 70.436 73.5 L 70.906 73.5 C 70.973 73.5 71.029 73.52 71.076 73.56 C 71.116 73.607 71.136 73.663 71.136 73.73 L 71.136 80.27 C 71.136 80.337 71.116 80.39 71.076 80.43 C 71.029 80.477 70.973 80.5 70.906 80.5 L 70.416 80.5 Z" transform="matrix(1, 0, 0, 1, 0, 0)" style="fill: rgb(51, 51, 51); white-space: pre;"/>
    <path d="M 93.84 49.694 C 93.773 49.694 93.72 49.671 93.68 49.624 C 93.633 49.584 93.61 49.531 93.61 49.464 L 93.61 47.374 L 91.54 47.374 C 91.473 47.374 91.417 47.354 91.37 47.314 C 91.33 47.267 91.31 47.211 91.31 47.144 L 91.31 46.844 C 91.31 46.777 91.33 46.721 91.37 46.674 C 91.417 46.634 91.473 46.614 91.54 46.614 L 93.61 46.614 L 93.61 44.584 C 93.61 44.511 93.633 44.454 93.68 44.414 C 93.72 44.374 93.773 44.354 93.84 44.354 L 94.16 44.354 C 94.233 44.354 94.29 44.374 94.33 44.414 C 94.37 44.454 94.39 44.511 94.39 44.584 L 94.39 46.614 L 96.46 46.614 C 96.527 46.614 96.583 46.634 96.63 46.674 C 96.67 46.721 96.69 46.777 96.69 46.844 L 96.69 47.144 C 96.69 47.211 96.67 47.267 96.63 47.314 C 96.583 47.354 96.527 47.374 96.46 47.374 L 94.39 47.374 L 94.39 49.464 C 94.39 49.531 94.37 49.584 94.33 49.624 C 94.283 49.671 94.227 49.694 94.16 49.694 L 93.84 49.694 Z" transform="matrix(1, 0, 0, 1, 0, 0)" style="fill: rgb(51, 51, 51); white-space: pre;"/>
    <path d="M 92.5 78.4 C 92.433 78.4 92.38 78.38 92.34 78.34 C 92.293 78.3 92.27 78.247 92.27 78.18 L 92.27 77.82 C 92.27 77.753 92.293 77.697 92.34 77.65 C 92.38 77.61 92.433 77.59 92.5 77.59 L 95.5 77.59 C 95.567 77.59 95.62 77.61 95.66 77.65 C 95.707 77.697 95.73 77.753 95.73 77.82 L 95.73 78.18 C 95.73 78.247 95.707 78.3 95.66 78.34 C 95.62 78.38 95.567 78.4 95.5 78.4 L 92.5 78.4 Z" transform="matrix(1, 0, 0, 1, 0, 0)" style="fill: rgb(51, 51, 51); white-space: pre;"/>
  </g>
  <circle style="fill: rgb(0, 0, 0);" cx="67.828" cy="356" r="10"/>
  <path d="M 28.46 359.877 C 28.38 359.877 28.313 359.85 28.26 359.797 C 28.206 359.75 28.18 359.687 28.18 359.607 L 28.18 352.467 C 28.18 352.387 28.206 352.317 28.26 352.257 C 28.313 352.204 28.38 352.177 28.46 352.177 L 29.71 352.177 C 29.89 352.177 30.02 352.257 30.1 352.417 L 31.99 355.807 L 33.9 352.417 C 33.98 352.257 34.11 352.177 34.29 352.177 L 35.54 352.177 C 35.62 352.177 35.686 352.204 35.74 352.257 C 35.793 352.317 35.82 352.387 35.82 352.467 L 35.82 359.607 C 35.82 359.687 35.793 359.75 35.74 359.797 C 35.686 359.85 35.62 359.877 35.54 359.877 L 34.14 359.877 C 34.066 359.877 34.003 359.85 33.95 359.797 C 33.89 359.744 33.86 359.68 33.86 359.607 L 33.86 355.597 L 32.68 357.777 C 32.58 357.944 32.45 358.027 32.29 358.027 L 31.7 358.027 C 31.553 358.027 31.423 357.944 31.31 357.777 L 30.14 355.597 L 30.14 359.607 C 30.14 359.687 30.11 359.75 30.05 359.797 C 29.996 359.85 29.93 359.877 29.85 359.877 L 28.46 359.877 Z" transform="matrix(1, 0, 0, 1, 0, 0)" style="fill: rgb(51, 51, 51); white-space: pre;"/>
  <path d="M 88.008 359.976 C 86.968 359.976 86.144 359.723 85.538 359.216 C 84.938 358.709 84.621 357.966 84.588 356.986 C 84.581 356.779 84.578 356.463 84.578 356.036 C 84.578 355.609 84.581 355.289 84.588 355.076 C 84.614 354.109 84.934 353.366 85.548 352.846 C 86.161 352.319 86.981 352.056 88.008 352.056 C 89.028 352.056 89.844 352.319 90.458 352.846 C 91.064 353.366 91.384 354.109 91.418 355.076 C 91.431 355.503 91.438 355.823 91.438 356.036 C 91.438 356.256 91.431 356.573 91.418 356.986 C 91.378 357.966 91.061 358.709 90.468 359.216 C 89.868 359.723 89.048 359.976 88.008 359.976 Z M 88.008 358.326 C 88.388 358.326 88.691 358.209 88.918 357.976 C 89.144 357.749 89.264 357.396 89.278 356.916 C 89.298 356.489 89.308 356.186 89.308 356.006 C 89.308 355.819 89.298 355.523 89.278 355.116 C 89.264 354.636 89.144 354.283 88.918 354.056 C 88.691 353.823 88.388 353.706 88.008 353.706 C 87.614 353.706 87.304 353.823 87.078 354.056 C 86.851 354.283 86.731 354.636 86.718 355.116 C 86.711 355.323 86.708 355.619 86.708 356.006 C 86.708 356.399 86.711 356.703 86.718 356.916 C 86.731 357.396 86.851 357.749 87.078 357.976 C 87.304 358.209 87.614 358.326 88.008 358.326 Z" transform="matrix(1, 0, 0, 1, 0, 0)" style="fill: rgb(51, 51, 51); white-space: pre;"/>
</svg>