<svg id="Layer_1" data-name="Layer 1" xmlns="http://www.w3.org/2000/svg" width="33" height="26" viewBox="0 0 33 26">
  <title>ac-dc</title>
  <g>
    <path d="M10.85,14.14l-1,3H8.61l3.21-9.44h1.47l3.22,9.44h-1.3l-1-3Zm3.1-1L13,10.47c-.21-.62-.35-1.18-.49-1.72h0q-.21.84-.48,1.71l-.93,2.73Z" style="fill: #307dee"/>
    <path d="M24.28,16.8a5.93,5.93,0,0,1-2.49.45,4.42,4.42,0,0,1-4.67-4.78,4.71,4.71,0,0,1,4.93-5,5.25,5.25,0,0,1,2.25.42l-.3,1a4.34,4.34,0,0,0-1.9-.39c-2.22,0-3.69,1.41-3.69,3.89,0,2.31,1.33,3.8,3.63,3.8a4.85,4.85,0,0,0,2-.4Z" style="fill: #307dee"/>
  </g>
  <rect x="0.5" y="0.5" width="32" height="25" rx="3" style="fill: none;stroke: #999;stroke-miterlimit: 10"/>
</svg>
