<svg
  version="1.1"
  xmlns="http://www.w3.org/2000/svg"
  xmlns:xlink="http://www.w3.org/1999/xlink"
  width="45"
  height="380"
  viewBox="0 0 45 380"
>
  <style>
    text {
      fill: #333;
      font-family: 'Roboto', sans-serif;
      font-weight: bold;
    }
    text.title {
      font-family: 'Comfortaa', sans-serif;
      font-weight: normal;
    }
    text.brand {
      font-family: 'Audiowide', sans-serif;
      font-weight: bold;
    }
  </style>

  <defs>
    <symbol id="knob" viewBox="0 0 45px 45px">
      <g transform="translate(22.5 22.5)">
        <polyline points="-5,0 5,0" stroke-width="1" stroke="#00f" />
        <polyline points="0,-5 0,5" stroke-width="1" stroke="#00f" />
        <circle cx="0" cy="0" r="14" stroke-width="1" stroke="#00f" fill="none" />
      </g>
    </symbol>

    <symbol id="knobguide" viewBox="0 0 45px 45px">
      <g transform="translate(22.5 22.5)">
        <g transform="rotate(-240) translate(17 0)">
          <g transform="translate(3 0) rotate(240)">
            <text font-size="6.5pt" transform="translate(-2.8 3.3)">0</text>
          </g>
        </g>
        <g transform="rotate(-172.92) translate(17 0)">
          <polyline points="0,0 1.5,0" stroke-width="0.3" stroke="#333" />
        </g>
        <g transform="rotate(-145.13) translate(17 0)">
          <g transform="translate(3 0) rotate(145.13)">
            <text font-size="6.5pt" transform="translate(-2.8 3.3)">1</text>
          </g>
        </g>
        <g transform="rotate(-105.84) translate(17 0)">
          <polyline points="0,0 3,0" stroke-width="0.3" stroke="#333" />
        </g>
        <g transform="rotate(-75.68) translate(17 0)">
          <polyline points="0,0 3,0" stroke-width="0.3" stroke="#333" />
        </g>
        <g transform="rotate(-50.26) translate(17 0)">
          <polyline points="0,0 3,0" stroke-width="0.3" stroke="#333" />
        </g>
        <g transform="rotate(-27.87) translate(17 0)">
          <g transform="translate(3 0) rotate(27.87)">
            <text font-size="6.5pt" transform="translate(-2.8 3.3)">5</text>
          </g>
        </g>
        <g transform="rotate(-7.62) translate(17 0)">
          <polyline points="0,0 3,0" stroke-width="0.3" stroke="#333" />
        </g>
        <g transform="rotate(11) translate(17 0)">
          <polyline points="0,0 3,0" stroke-width="0.3" stroke="#333" />
        </g>
        <g transform="rotate(28.33) translate(17 0)">
          <polyline points="0,0 3,0" stroke-width="0.3" stroke="#333" />
        </g>
        <g transform="rotate(44.6) translate(17 0)">
          <polyline points="0,0 3,0" stroke-width="0.3" stroke="#333" />
        </g>
        <g transform="rotate(60) translate(17 0)">
          <polyline points="0,0 3,0" stroke-width="0.3" stroke="#333" />
        </g>
      </g>
    </symbol>

    <symbol id="knobguide-linear" viewBox="0 0 45px 45px">
      <g transform="translate(22.5 22.5)">
        <g transform="rotate(-240) translate(17 0)">
          <g transform="translate(3 0) rotate(240)">
            <text font-size="6.5pt" transform="translate(-2.8 3.3)">0</text>
          </g>
        </g>
        <polyline points="0,0 3,0" stroke-width="0.3" stroke="#333" transform="rotate(-210) translate(17 0)" />
        <polyline points="0,0 3,0" stroke-width="0.3" stroke="#333" transform="rotate(-180) translate(17 0)" />
        <polyline points="0,0 3,0" stroke-width="0.3" stroke="#333" transform="rotate(-150) translate(17 0)" />
        <polyline points="0,0 3,0" stroke-width="0.3" stroke="#333" transform="rotate(-120) translate(17 0)" />
        <polyline points="0,0 3,0" stroke-width="0.3" stroke="#333" transform="rotate(-90) translate(17 0)" />
        <polyline points="0,0 3,0" stroke-width="0.3" stroke="#333" transform="rotate(-60) translate(17 0)" />
        <polyline points="0,0 3,0" stroke-width="0.3" stroke="#333" transform="rotate(-30) translate(17 0)" />
        <polyline points="0,0 3,0" stroke-width="0.3" stroke="#333" transform="rotate(0) translate(17 0)" />
        <polyline points="0,0 3,0" stroke-width="0.3" stroke="#333" transform="rotate(30) translate(17 0)" />
        <polyline points="0,0 3.5,0" stroke-width="1" stroke="#333" transform="rotate(60) translate(17 0)" />
      </g>
    </symbol>

    <symbol id="input" viewBox="0 0 24px 24px">
      <g transform="translate(12 12)">
        <circle cx="0" cy="0" r="5" stroke-width="1" stroke="#0f0" fill="#0f0" />
        <circle cx="0" cy="0" r="10.5" stroke-width="3" stroke="#0f0" fill="none" />
      </g>
    </symbol>

    <symbol id="output" viewBox="0 0 24px 24px">
      <g transform="translate(12 12)">
        <circle cx="0" cy="0" r="5" stroke-width="1" stroke="#f00" fill="#f00" />
        <circle cx="0" cy="0" r="10.5" stroke-width="3" stroke="#f00" fill="none" />
      </g>
    </symbol>

    <symbol id="button-small" viewBox="0 0 9px 9px">
      <g transform="translate(4.5 4.5)">
        <circle r="4" stroke-width="1" stroke="#00f" fill="#f00" />
      </g>
    </symbol>

    <symbol id="light-small" viewBox="0 0 6.4px 6.4px">
      <rect width="6.4" height="6.4" fill="#0f0" />
    </symbol>

    <symbol id="light-tiny" viewBox="0 0 1.1px 1.1px">
      <rect width="3.2" height="3.2" fill="#0f0" />
    </symbol>
  </defs>

  <rect width="100%" height="100%" fill="#ddd" />
  <polyline points="1,1 44,1 44,379 1,379 1,1" stroke="#e4e4e4" stroke-width="0.5" fill="none" />
  <polyline points="0.5,0.5 44.5,0.5 44.5,379.5 0.5,379.5 0.5,0.5" stroke="#ebebeb" stroke-width="0.8" fill="none" />
  <polyline points="0,0 45,0 45,380 0,380 0,0" stroke="#f2f2f2" stroke-width="1" fill="none" />

  <!-- <polyline points="22.5,0 22.5,380" stroke-width="0.5" stroke="#0f0" /> -->
  <!-- <rect width="45" height="10" fill="#0f0" transform="translate(0 68)" /> -->
  <!-- <rect width="45" height="10" fill="#0f0" transform="translate(0 127)" /> -->
  <!-- <rect width="45" height="10" fill="#0f0" transform="translate(0 177)" /> -->

  <g transform="rotate(-90) translate(-376 13)">
    <text class="title" font-size="7pt" letter-spacing="2.5px">ADSR</text>
    <g transform="translate(0 12)">
      <text class="brand" font-size="7pt" letter-spacing="2px">BGA</text>
      <rect width="3.0" height="3" fill="#ddd" transform="translate(11.5 -5)" />
    </g>
  </g>

  <g transform="translate(0 25)">
    <text font-size="6pt" letter-spacing="2px" transform="translate(13 0)">ATT</text>
    <use id="ATTACK_PARAM" xlink:href="#knob" transform="translate(0 0)" />
    <use xlink:href="#knobguide" transform="translate(0 0)" />
    <use id="ATTACK_LIGHT" xlink:href="#light-tiny" transform="translate(20.8 40)" />
  </g>

  <g transform="translate(0 82)">
    <text font-size="6pt" letter-spacing="2px" transform="translate(13 0)">DEC</text>
    <use id="DECAY_PARAM" xlink:href="#knob" transform="translate(0 0)" />
    <use xlink:href="#knobguide" transform="translate(0 0)" />
    <use id="DECAY_LIGHT" xlink:href="#light-tiny" transform="translate(20.8 40)" />
  </g>

  <g transform="translate(0 139)">
    <text font-size="6pt" letter-spacing="2px" transform="translate(13 0)">SUS</text>
    <use id="SUSTAIN_PARAM" xlink:href="#knob" transform="translate(0 0)" />
    <use xlink:href="#knobguide-linear" transform="translate(0 0)" />
    <use id="SUSTAIN_LIGHT" xlink:href="#light-tiny" transform="translate(20.8 40)" />
  </g>

  <g transform="translate(0 196)">
    <text font-size="6pt" letter-spacing="2px" transform="translate(13 0)">REL</text>
    <use id="RELEASE_PARAM" xlink:href="#knob" transform="translate(0 0)" />
    <use xlink:href="#knobguide" transform="translate(0 0)" />
    <use id="RELEASE_LIGHT" xlink:href="#light-tiny" transform="translate(20.8 40)" />
  </g>

  <g transform="translate(4 247)">
    <!-- <polyline points="0,3.2 70,3.2" stroke="#0f0" stroke-width="1" fill="none" /> -->
    <use id="LINEAR_PARAM" xlink:href="#button-small" transform="translate(28 -1.3)" />
    <use id="LINEAR_LIGHT" xlink:href="#light-small" transform="translate(0 0)" />
    <text font-size="6pt" letter-spacing="2px" transform="translate(9 6.1)">LIN</text>
    <!-- <rect width="90" height="10" fill="#0f0" transform="translate(0 7)" /> -->
  </g>

  <g transform="translate(0 262)">
    <g transform="translate(5.5 0)">
      <rect width="34" height="10" fill="#fafafa" transform="translate(0 28)" />
      <rect width="34" height="35" rx="5" fill="#fafafa" />
      <use id="GATE_INPUT" xlink:href="#input" transform="translate(5 3)" />
      <text font-size="5pt" letter-spacing="2px" transform="translate(5.5 35)">GATE</text>
    </g>
    <g transform="translate(5.5 41)">
      <rect width="34" height="10" fill="#bbb" transform="translate(0 -3)" />
      <rect width="34" height="35" rx="5" fill="#bbb" />
      <use id="OUT_OUTPUT" xlink:href="#output" transform="translate(5 0)" />
      <text font-size="5pt" letter-spacing="2px" transform="translate(8.3 32)">OUT</text>
    </g>
  </g>
</svg>
