<svg xmlns="http://www.w3.org/2000/svg" xmlns:xlink="http://www.w3.org/1999/xlink" width="150" height="380" viewBox="0 0 39.688 100.542"><defs><filter height="1" width="1" y="0" x="0" filterUnits="objectBoundingBox" id="a"><feColorMatrix values="0 0 0 0 1 0 0 0 0 1 0 0 0 0 1 0 0 0 1 0" in="SourceGraphic"/></filter><filter height="1" width="1" y="0" x="0" filterUnits="objectBoundingBox" id="b"><feColorMatrix values="0 0 0 0 1 0 0 0 0 1 0 0 0 0 1 0 0 0 1 0" in="SourceGraphic"/></filter><filter height="1" width="1" y="0" x="0" filterUnits="objectBoundingBox" id="c"><feColorMatrix values="0 0 0 0 1 0 0 0 0 1 0 0 0 0 1 0 0 0 1 0" in="SourceGraphic"/></filter><filter height="1" width="1" y="0" x="0" filterUnits="objectBoundingBox" id="d"><feColorMatrix values="0 0 0 0 1 0 0 0 0 1 0 0 0 0 1 0 0 0 1 0" in="SourceGraphic"/></filter><filter height="1" width="1" y="0" x="0" filterUnits="objectBoundingBox" id="e"><feColorMatrix values="0 0 0 0 1 0 0 0 0 1 0 0 0 0 1 0 0 0 1 0" in="SourceGraphic"/></filter><filter height="1" width="1" y="0" x="0" filterUnits="objectBoundingBox" id="f"><feColorMatrix values="0 0 0 0 1 0 0 0 0 1 0 0 0 0 1 0 0 0 1 0" in="SourceGraphic"/></filter><filter height="1" width="1" y="0" x="0" filterUnits="objectBoundingBox" id="g"><feColorMatrix values="0 0 0 0 1 0 0 0 0 1 0 0 0 0 1 0 0 0 1 0" in="SourceGraphic"/></filter><filter height="1" width="1" y="0" x="0" filterUnits="objectBoundingBox" id="h"><feColorMatrix values="0 0 0 0 1 0 0 0 0 1 0 0 0 0 1 0 0 0 1 0" in="SourceGraphic"/></filter><filter height="1" width="1" y="0" x="0" filterUnits="objectBoundingBox" id="i"><feColorMatrix values="0 0 0 0 1 0 0 0 0 1 0 0 0 0 1 0 0 0 1 0" in="SourceGraphic"/></filter><filter height="1" width="1" y="0" x="0" filterUnits="objectBoundingBox" id="j"><feColorMatrix values="0 0 0 0 1 0 0 0 0 1 0 0 0 0 1 0 0 0 1 0" in="SourceGraphic"/></filter><filter height="1" width="1" y="0" x="0" filterUnits="objectBoundingBox" id="k"><feColorMatrix values="0 0 0 0 1 0 0 0 0 1 0 0 0 0 1 0 0 0 1 0" in="SourceGraphic"/></filter><filter height="1" width="1" y="0" x="0" filterUnits="objectBoundingBox" id="l"><feColorMatrix values="0 0 0 0 1 0 0 0 0 1 0 0 0 0 1 0 0 0 1 0" in="SourceGraphic"/></filter><filter height="1" width="1" y="0" x="0" filterUnits="objectBoundingBox" id="m"><feColorMatrix values="0 0 0 0 1 0 0 0 0 1 0 0 0 0 1 0 0 0 1 0" in="SourceGraphic"/></filter><filter height="1" width="1" y="0" x="0" filterUnits="objectBoundingBox" id="n"><feColorMatrix values="0 0 0 0 1 0 0 0 0 1 0 0 0 0 1 0 0 0 1 0" in="SourceGraphic"/></filter><filter height="1" width="1" y="0" x="0" filterUnits="objectBoundingBox" id="o"><feColorMatrix values="0 0 0 0 1 0 0 0 0 1 0 0 0 0 1 0 0 0 1 0" in="SourceGraphic"/></filter><filter height="1" width="1" y="0" x="0" filterUnits="objectBoundingBox" id="p"><feColorMatrix values="0 0 0 0 1 0 0 0 0 1 0 0 0 0 1 0 0 0 1 0" in="SourceGraphic"/></filter><filter height="1" width="1" y="0" x="0" filterUnits="objectBoundingBox" id="q"><feColorMatrix values="0 0 0 0 1 0 0 0 0 1 0 0 0 0 1 0 0 0 1 0" in="SourceGraphic"/></filter><filter height="1" width="1" y="0" x="0" filterUnits="objectBoundingBox" id="r"><feColorMatrix values="0 0 0 0 1 0 0 0 0 1 0 0 0 0 1 0 0 0 1 0" in="SourceGraphic"/></filter><filter height="1" width="1" y="0" x="0" filterUnits="objectBoundingBox" id="s"><feColorMatrix values="0 0 0 0 1 0 0 0 0 1 0 0 0 0 1 0 0 0 1 0" in="SourceGraphic"/></filter><filter height="1" width="1" y="0" x="0" filterUnits="objectBoundingBox" id="t"><feColorMatrix values="0 0 0 0 1 0 0 0 0 1 0 0 0 0 1 0 0 0 1 0" in="SourceGraphic"/></filter><linearGradient xlink:href="#u" id="w" x1="26.759" y1="162" x2="30.999" y2="162" gradientUnits="userSpaceOnUse" gradientTransform="matrix(1 0 0 .56406 0 70.452)"/><linearGradient id="u"><stop offset="0" stop-color="#fff"/><stop offset="1" stop-color="#fff" stop-opacity="0"/></linearGradient><linearGradient xlink:href="#v" id="x" x1="26.759" y1="162" x2="30.999" y2="162" gradientUnits="userSpaceOnUse" gradientTransform="matrix(.99995 0 0 .53173 135.453 -112.052)"/><linearGradient id="v"><stop offset="0" stop-color="#fff" stop-opacity=".992"/><stop offset="1" stop-color="#fff" stop-opacity="0"/></linearGradient></defs><path d="M0 .794v99.219h39.688V.793zm19.91 30.413c7.313 0 13.242 5.93 13.242 13.243 0 7.314-5.929 13.242-13.242 13.243-7.314 0-13.243-5.93-13.243-13.243 0-7.314 5.93-13.243 13.243-13.243z" fill="#030303"/><path d="M0 .53v99.218h39.688V.529zm19.91 29.09c7.313 0 13.242 5.929 13.242 13.243 0 7.313-5.929 13.242-13.242 13.242-7.314 0-13.243-5.929-13.243-13.242 0-7.314 5.93-13.243 13.243-13.243z" fill="#fff"/><path d="M0 0v100.542h39.687V0zm19.91 30.414a13.242 13.242 0 0 1 13.242 13.242A13.242 13.242 0 0 1 19.91 56.9 13.242 13.242 0 0 1 6.667 43.656 13.242 13.242 0 0 1 19.91 30.414z" fill="#191919"/><text style="line-height:1.25" x="97.254" y="220.696" font-weight="400" font-size="10.583" font-family="sans-serif" letter-spacing="0" word-spacing="0" stroke-width=".265" transform="translate(-26.543 -161.307)"/><path style="line-height:1.25;-inkscape-font-specification:'Arial, Normal';font-variant-ligatures:normal;font-variant-caps:normal;font-variant-numeric:normal;font-feature-settings:normal;text-align:start" d="M22.602 52.972l-9.391.661v-11.86q0-1.327.377-1.921.366-.597 1.263-.846.884-.25 2.005-.012 1.286.273 2.053 1.099.767.837.767 1.897 0 1.07-.909 1.648-.908.589-2.347.283-.472-.1-.826-.25-.366-.153-1.18-.636v7.75l7.02-.49v-8.949q0-1.295.377-1.943.378-.637 1.298-.87.92-.232 2.005-.002 1.286.273 2.041 1.097.744.811.744 1.87 0 1.125-.897 1.694-.897.58-2.348.273-.92-.196-2.052-.928z" font-weight="400" font-size="3.528" font-family="Arial" letter-spacing="0" word-spacing="0"/><g style="line-height:1.25"><path d="M-90.05-258.56l1.372-.426v1.908q0 .214-.055.322-.053.109-.184.18-.13.07-.293.07-.188 0-.3-.107-.112-.108-.112-.279 0-.172.133-.296.132-.126.343-.126.068 0 .12.012.054.012.172.062v-1.247l-1.025.319v1.44q0 .208-.055.325-.055.116-.19.185-.134.069-.292.069-.188 0-.298-.107-.109-.105-.109-.276 0-.18.131-.303.131-.124.343-.124.135 0 .3.08z" style="-inkscape-font-specification:'Arial, Normal';font-variant-ligatures:normal;font-variant-caps:normal;font-variant-numeric:normal;font-feature-settings:normal;text-align:start" font-size="3.528" font-family="Arial" transform="matrix(-6.84893 -1.45416 0 -6.21406 -592.935 -1687.524)" aria-label="♫" font-weight="400" letter-spacing="0" word-spacing="0" fill="#878787" stroke="#000" stroke-width=".026"/></g><g aria-label="IMPROMPT MODULAR" style="line-height:19px;-inkscape-font-specification:'Sniglet Bold';text-align:center" font-weight="700" font-size="21.333" font-family="Sniglet" text-anchor="middle" fill="#c8c8c8" stroke-width="1.134"><path d="M4.52 12.6q-.012-.204-.018-.424 0-.22-.006-.474t-.006-.547v-.667q0-.4.006-.682.006-.288.035-.469.03-.18.088-.265.064-.085.17-.085.052 0 .099.011.046.012.081.051.035.034.059.107.029.068.035.181.011.203.017.361l.012.316q.006.153.006.322v.858q0 .231-.006.457l-.012.457q-.006.232-.017.486-.006.135-.03.209-.023.073-.058.113-.035.04-.082.045-.046.011-.105.011-.105 0-.18-.068-.077-.073-.088-.304zM7.423 11.99q-.269-.57-.479-1.1-.204-.537-.35-.955-.135.7-.228 1.411-.088.712-.228 1.36-.035.148-.128.198-.094.045-.158.045-.105 0-.17-.062-.058-.062-.058-.158 0-.13.03-.395.034-.27.081-.61.053-.338.117-.71.064-.373.128-.717.07-.35.129-.633.064-.282.11-.434.077-.26.31-.26.14 0 .24.136.1.13.21.406.117.27.274.689.164.417.421.982.251-.565.403-.977.158-.417.263-.688.11-.277.21-.407.1-.135.245-.135.135 0 .205.068.07.062.105.191.04.158.099.44.058.277.123.622.07.338.134.71.064.373.117.712.052.339.082.615.035.271.035.418 0 .09-.065.147-.064.05-.163.05-.064 0-.158-.045-.093-.05-.128-.197-.07-.322-.129-.666l-.105-.695-.093-.705q-.047-.356-.1-.706-.076.226-.175.497-.1.271-.21.548-.111.27-.228.536-.117.265-.228.48-.04.073-.11.112-.065.034-.135.034-.076 0-.146-.034-.064-.04-.1-.118zM10.742 12.594q0 .135-.03.209-.023.073-.064.113-.035.04-.087.045-.047.011-.094.011-.157 0-.21-.068-.047-.067-.064-.304-.012-.125-.018-.362l-.011-.564q0-.328-.006-.723v-.835q0-.209.052-.423.053-.215.199-.39.152-.175.415-.282.268-.107.695-.107.297 0 .566.062.269.062.473.214.204.153.327.407.123.254.123.632 0 .395-.135.655-.134.26-.38.412-.244.152-.583.214-.339.062-.742.062h-.198q-.1 0-.222-.011zm1.682-2.376q0-.379-.222-.57-.216-.192-.724-.192-.193 0-.333.033-.135.029-.222.108-.088.073-.134.203-.041.13-.041.327v.44q0 .243.006.458.134.005.297.005h.316q.175 0 .362-.022.192-.023.344-.102.152-.084.251-.243.1-.163.1-.445zM14.826 11.56q-.082.007-.17.012h-.367q-.1 0-.222-.011v1.146q0 .18-.094.226-.087.039-.222.039-.07 0-.11-.011-.041-.006-.07-.028-.024-.029-.041-.08-.012-.05-.018-.14-.012-.102-.017-.294-.006-.198-.012-.508 0-.31-.006-.75v-1.045q0-.231.058-.446.059-.22.21-.384.152-.17.41-.27.262-.102.665-.102.286 0 .555.062.274.062.485.214.21.153.338.412.129.26.129.65 0 .519-.234.807-.227.282-.63.4l.782 1.039q.105.135.105.276 0 .113-.082.175-.075.068-.192.068-.129 0-.222-.068-.094-.073-.175-.186zm.917-1.314q0-.39-.245-.576-.24-.192-.765-.192-.193 0-.322.034-.128.028-.204.113-.076.085-.111.237-.03.147-.03.378v.384q0 .22.007.4.134.006.298.006h.315q.163 0 .344-.017.187-.022.345-.101.158-.085.263-.237.105-.158.105-.43zM18.407 13.006q-.35 0-.66-.136-.304-.135-.531-.389-.228-.26-.363-.632-.128-.373-.128-.847 0-.446.111-.818.117-.373.339-.644.227-.27.56-.417.333-.153.771-.153.356 0 .678.124.32.124.56.373.246.248.386.62.14.373.14.87 0 .412-.117.785-.11.372-.345.654-.227.277-.578.446-.35.164-.823.164zm.012-.53q.32 0 .56-.125.24-.13.397-.339.158-.208.234-.48.076-.276.076-.564 0-.35-.1-.62-.093-.277-.256-.463-.164-.187-.38-.283-.216-.101-.461-.101-.292 0-.514.118-.216.119-.368.322-.146.203-.222.48-.076.27-.076.581 0 .333.088.61.087.27.233.463.152.191.356.299.205.101.433.101zM22.365 11.99q-.269-.57-.48-1.1-.203-.537-.35-.955-.134.7-.227 1.411-.088.712-.228 1.36-.035.148-.128.198-.094.045-.158.045-.105 0-.17-.062-.058-.062-.058-.158 0-.13.03-.395.034-.27.081-.61.053-.338.117-.71.064-.373.128-.717.07-.35.129-.633.064-.282.11-.434.077-.26.31-.26.14 0 .24.136.099.13.21.406.117.27.274.689.164.417.42.982.252-.565.404-.977.158-.417.263-.688.11-.277.21-.407.1-.135.245-.135.134 0 .205.068.07.062.105.191.04.158.099.44.058.277.123.622.07.338.134.71.064.373.117.712.052.339.081.615.036.271.036.418 0 .09-.065.147-.064.05-.163.05-.064 0-.158-.045-.093-.05-.128-.197-.07-.322-.129-.666l-.105-.695-.093-.705q-.047-.356-.1-.706-.076.226-.175.497-.1.271-.21.548-.111.27-.228.536-.117.265-.228.48-.04.073-.11.112-.065.034-.135.034-.076 0-.146-.034-.064-.04-.1-.118zM25.684 12.594q0 .135-.03.209-.023.073-.064.113-.035.04-.087.045-.047.011-.094.011-.157 0-.21-.068-.047-.067-.064-.304-.012-.125-.018-.362-.006-.237-.011-.564 0-.328-.006-.723v-.835q0-.209.052-.423.053-.215.199-.39.152-.175.415-.282.268-.107.694-.107.298 0 .567.062.269.062.473.214.204.153.327.407.123.254.123.632 0 .395-.135.655-.134.26-.38.412-.245.152-.583.214-.339.062-.742.062h-.198q-.1 0-.222-.011zm1.682-2.376q0-.379-.222-.57-.216-.192-.724-.192-.193 0-.333.033-.135.029-.222.108-.088.073-.134.203-.041.13-.041.327v.44q0 .243.005.458.135.005.298.005h.316q.175 0 .362-.022.192-.023.344-.102.152-.084.251-.243.1-.163.1-.445zM30.634 9.518q-.164.01-.35.017l-.404.01.012.289.012.265q.006.135.006.282.005.147.005.328v.49q0 .232-.005.47l-.012.468q-.006.237-.018.49-.006.136-.029.21-.017.073-.052.112-.035.04-.082.046-.047.01-.105.01-.105 0-.181-.067-.07-.073-.082-.305-.012-.203-.018-.429 0-.225-.005-.485-.006-.26-.006-.559v-.672-.541q.006-.232.017-.401h-.24q-.245 0-.42-.006-.17-.005-.28-.028-.111-.028-.164-.085-.046-.056-.046-.158 0-.05.011-.09.012-.045.053-.079.04-.04.111-.062.076-.023.193-.034l.198-.011.175-.012q.088-.005.181-.005h.217q.344 0 .648.005.31.006.654.023.14.011.216.034.076.017.117.05.04.035.046.08.012.045.012.101 0 .102-.076.17-.07.067-.31.079zM9.55 17.773q-.269-.57-.479-1.1-.204-.537-.35-.955-.135.7-.228 1.412-.088.71-.228 1.36-.035.147-.128.197-.094.046-.158.046-.105 0-.17-.063-.058-.062-.058-.158 0-.13.03-.395l.081-.61q.053-.338.117-.71.064-.373.129-.717l.128-.633q.064-.282.111-.434.076-.26.31-.26.14 0 .239.136.1.13.21.406.117.271.275.689.163.417.42.982.251-.565.403-.977.158-.417.263-.688.11-.277.21-.407.1-.135.245-.135.135 0 .205.068.07.062.105.192.04.158.1.44.058.276.122.62.07.34.134.712.064.372.117.711.053.339.082.615.035.271.035.418 0 .09-.064.147-.065.05-.164.05-.064 0-.158-.045-.093-.05-.128-.197-.07-.322-.129-.666l-.105-.694-.093-.706q-.047-.356-.1-.706-.075.226-.175.497-.099.271-.21.548-.11.27-.228.536-.116.265-.227.48-.041.073-.111.113-.065.033-.135.033-.076 0-.146-.033-.064-.04-.099-.119zM13.793 18.789q-.35 0-.66-.135-.303-.136-.531-.39-.228-.26-.362-.632-.129-.373-.129-.847 0-.446.111-.818.117-.373.339-.644.228-.27.56-.417.333-.153.771-.153.357 0 .678.124.321.125.56.373.246.248.386.62.14.373.14.87 0 .412-.117.785-.11.372-.344.654-.228.277-.578.446-.35.164-.824.164zm.012-.53q.321 0 .56-.125.24-.13.398-.338.157-.21.233-.48.076-.277.076-.565 0-.35-.1-.62-.093-.277-.256-.463-.164-.187-.38-.283-.216-.101-.461-.101-.292 0-.514.118-.216.119-.368.322-.146.203-.222.48-.076.27-.076.581 0 .333.088.61.087.27.233.463.152.192.357.299.204.101.432.101zM17.44 14.742q.602 0 .964.175t.555.463q.192.288.25.655.065.366.065.745 0 .412-.111.779-.105.366-.333.643-.222.27-.572.435-.35.158-.835.158-.386 0-.62-.057-.227-.05-.356-.158-.122-.107-.163-.27-.041-.164-.041-.385v-2.122q0-.243.04-.44.048-.198.176-.333.129-.141.362-.215.24-.073.62-.073zm.024 3.488q.362 0 .595-.124.24-.13.38-.339.14-.208.192-.474.059-.265.059-.542 0-.254-.041-.508-.04-.26-.17-.468-.128-.209-.367-.339-.24-.13-.637-.13-.362 0-.502.102t-.14.31v2.162q0 .175.128.266.135.084.503.084zM21.266 18.829q-.666 0-.975-.35-.123-.136-.21-.345-.082-.214-.135-.553-.046-.339-.07-.835-.017-.503-.017-1.22 0-.23.011-.378.012-.152.047-.237.035-.09.088-.124.058-.034.146-.034.17 0 .24.147.07.147.07.508 0 .124-.007.22v.198q0 .096-.005.214v.288q0 .564.035.937.04.373.134.598.093.22.251.31.164.091.403.091.251 0 .415-.096.169-.101.268-.333.1-.237.14-.626.047-.39.047-.971 0-.254-.006-.435v-.327q0-.21.012-.35.018-.141.047-.22.035-.085.093-.119.059-.034.146-.034.088 0 .146.034.059.034.094.119.035.084.046.237.012.146.012.384 0 .993-.064 1.636-.064.638-.228 1.01-.164.368-.45.514-.28.142-.724.142zM24.013 17.158v.321q0 .136-.006.26 0 .124-.006.248l-.012.277q.403-.045.631-.073l.356-.045q.135-.017.205-.023.076-.006.175-.006.257 0 .257.243 0 .096-.105.164-.1.067-.257.118-.152.045-.345.08-.187.028-.368.039-.175.017-.32.022-.141.006-.2.006-.21 0-.326-.028-.117-.023-.176-.147-.058-.13-.076-.39-.011-.26-.011-.733v-.813q0-.356.006-.638.005-.282.005-.502.006-.22.018-.401.012-.231.082-.3.07-.072.175-.072.058 0 .1.01.046.006.081.046t.053.113q.023.073.029.209.023.496.029.982.006.485.006 1.033zM28.522 18.445q-.058-.136-.129-.31-.064-.181-.14-.379l-.368.011H27.04q-.205 0-.374-.005l-.134.372q-.065.175-.123.31-.117.289-.339.289-.082 0-.158-.051-.07-.051-.07-.147t.035-.248q.035-.158.088-.333.058-.181.123-.367.064-.192.122-.356.059-.18.164-.457.11-.282.233-.587.123-.305.246-.598.122-.3.222-.52.023-.056.058-.124.035-.073.082-.135.052-.062.11-.108.065-.045.14-.045.077 0 .141.051.064.045.111.113.053.068.088.141.04.073.064.13.093.226.21.52.123.293.24.592.122.299.227.57.105.27.17.457.052.164.116.35.07.186.129.367.058.18.093.339.041.152.041.248t-.076.147q-.07.05-.152.05-.105 0-.192-.067-.088-.074-.152-.22zm-1.034-1.242q.14 0 .28.006.14 0 .28.005l-.14-.395-.134-.378q-.058-.18-.11-.333l-.082-.277q-.024-.073-.053-.118-.03-.045-.076-.045t-.076.05q-.029.046-.052.119-.07.231-.199.604-.122.367-.263.773.158-.005.316-.005.157-.006.31-.006zM30.857 17.344l-.17.011h-.367q-.1 0-.222-.011v1.146q0 .18-.093.226-.088.04-.222.04-.07 0-.111-.012-.041-.006-.07-.028-.024-.029-.041-.08-.012-.05-.018-.14-.011-.102-.017-.294-.006-.198-.012-.508 0-.31-.006-.75v-1.045q0-.231.059-.446.058-.22.21-.384.152-.169.409-.27.262-.102.665-.102.287 0 .555.062.275.062.485.214.21.153.339.412.128.26.128.65 0 .519-.233.807-.228.282-.631.4l.782 1.039q.105.135.105.277 0 .112-.081.175-.076.067-.193.067-.128 0-.222-.067-.093-.074-.175-.187zm.917-1.315q0-.39-.245-.576-.24-.192-.765-.192-.193 0-.321.034-.129.028-.205.113-.076.085-.11.237-.03.147-.03.378v.384q0 .22.006.4.134.006.298.006h.315q.164 0 .345-.017.187-.022.344-.101.158-.085.263-.237.105-.158.105-.43z" style="line-height:19px"/></g><g style="line-height:1.25"><path d="M34.249 12.916l-2.688.192V9.66q0-.385.108-.558.105-.174.362-.246.253-.073.574-.004.368.08.587.32.22.243.22.551 0 .311-.26.48-.26.17-.672.082-.135-.03-.237-.073-.104-.045-.337-.185v2.253l2.009-.143v-2.6q0-.377.108-.565.108-.186.371-.253.263-.068.574-.001.368.08.584.319.213.236.213.544 0 .326-.257.492-.256.168-.672.079-.263-.057-.587-.27z" style="-inkscape-font-specification:'Arial, Normal';font-variant-ligatures:normal;font-variant-caps:normal;font-variant-numeric:normal;font-feature-settings:normal;text-align:start" font-size="3.528" font-family="Arial" aria-label="♫" font-weight="400" letter-spacing="0" word-spacing="0" fill="#969696" stroke-width=".026"/></g><g aria-label="by Marc BOULÉ in collaboration with Nigel Sixsmith Xavier Belmont" style="line-height:1.25;-inkscape-font-specification:'Sniglet, Normal';font-variant-ligatures:normal;font-variant-caps:normal;font-variant-numeric:normal;font-feature-settings:normal;text-align:center" font-weight="400" font-size="2.822" font-family="Sniglet" letter-spacing="0" word-spacing="0" text-anchor="middle" fill="#c8c8c8" stroke-width=".265"><path d="M11.19 72.224q0 .17-.012.356-.008.183-.022.358.037-.076.096-.13.059-.056.13-.09.073-.034.152-.05.079-.018.152-.018.127 0 .237.048.113.046.195.136.085.087.13.22.048.13.048.3 0 .163-.048.298-.048.136-.144.235-.093.096-.234.15-.138.053-.32.053-.245 0-.386-.1-.138-.098-.206-.262-.067-.166-.084-.38-.015-.215-.015-.45 0-.236.009-.428.008-.192.025-.31.017-.108.057-.153t.104-.045q.048 0 .076.022.029.02.04.057.014.037.017.085.003.045.003.098zm.417.706q-.081 0-.158.028-.073.025-.132.082-.057.056-.09.144-.034.084-.034.206 0 .214.104.327.107.11.285.11.073 0 .15-.02.076-.022.138-.073.062-.054.101-.141.04-.088.04-.217 0-.116-.034-.2-.031-.085-.087-.139-.057-.056-.13-.082-.074-.025-.153-.025zM12.863 74.586q-.037.065-.07.096-.032.031-.074.031-.04 0-.079-.025-.04-.025-.04-.07 0-.043.029-.122.03-.079.073-.172l.093-.192.088-.18.02-.043q-.085-.166-.175-.355-.088-.19-.161-.359-.074-.17-.122-.293-.045-.127-.045-.167 0-.037.028-.062.031-.028.077-.028.04 0 .076.017.037.014.068.067.045.085.093.195.05.107.098.226l.102.24q.054.121.107.234.062-.116.133-.243l.135-.245.125-.217q.056-.102.096-.17.04-.065.079-.093.04-.028.081-.028.029 0 .057.025.028.023.028.062 0 .06-.054.192-.05.13-.132.302t-.186.37q-.102.195-.204.384-.101.186-.194.35l-.15.274zM15.337 73.59q-.13-.285-.231-.55-.1-.268-.17-.477-.065.35-.11.705-.042.356-.11.68-.017.074-.062.1-.045.022-.076.022-.051 0-.082-.031-.028-.031-.028-.079 0-.065.014-.198l.04-.304q.025-.17.056-.356.03-.186.062-.358l.062-.316q.031-.142.054-.218.036-.13.15-.13.067 0 .115.068.048.065.101.203.057.136.133.345.08.208.203.49.122-.282.195-.488l.127-.344q.054-.138.102-.203.048-.068.118-.068.065 0 .099.034.034.031.05.096.02.08.049.22.028.139.059.31.034.17.065.356l.056.356q.026.17.04.308.017.135.017.208 0 .045-.031.074-.031.025-.08.025-.03 0-.075-.022-.046-.026-.063-.1-.033-.16-.062-.332l-.05-.347-.046-.353q-.022-.178-.048-.353-.036.113-.084.248-.048.136-.102.274-.053.136-.11.268-.056.133-.11.24-.02.037-.054.057-.03.017-.065.017-.036 0-.07-.017-.031-.02-.048-.06zM17.835 74.081q-.045 0-.073-.014-.026-.017-.04-.042-.014-.026-.02-.06-.005-.036-.008-.076-.07.088-.183.147-.11.06-.283.06-.11 0-.225-.032-.113-.034-.206-.113-.094-.081-.153-.217-.06-.135-.06-.341 0-.161.04-.302t.119-.246q.082-.107.203-.17.121-.061.285-.061.144 0 .257.053.113.051.203.17 0-.034.003-.068.003-.037.014-.065.014-.031.042-.048.029-.02.077-.02.042 0 .079.034.036.034.042.147.008.15.011.268.006.119.006.246 0 .155-.003.285-.003.13-.014.276-.006.065-.017.105-.009.036-.023.056-.014.017-.033.023-.02.006-.04.006zm-.152-.717q0-.146-.045-.24-.043-.093-.11-.143-.065-.054-.142-.074-.076-.02-.14-.02-.102 0-.176.037-.07.037-.115.102-.046.062-.068.15-.02.084-.02.186 0 .248.107.367.11.118.297.118.11 0 .186-.037.079-.04.127-.104.05-.065.073-.152.026-.09.026-.19zM18.307 73.898q-.011-.099-.014-.24-.003-.141-.003-.342v-.319q.003-.12.017-.214.014-.116.043-.15.03-.033.079-.033.033 0 .059.006.028.006.048.025.022.017.034.05.011.035.011.094 0 .011.003.022v.026q.003.011.003.028.076-.096.172-.164.099-.067.223-.067.166 0 .166.138 0 .05-.022.085-.02.034-.06.056-.036.02-.087.031l-.107.023q-.09.017-.17.065-.079.045-.107.115v.08q.003.025.003.042.003.016.003.036v.062q0 .144-.006.271l-.011.271q-.003.068-.017.105-.011.036-.031.056-.017.02-.04.023-.022.006-.045.006-.079 0-.107-.034-.026-.037-.037-.153zM19.956 72.63q.082 0 .164.015.085.014.152.04.068.025.11.061.043.037.043.085 0 .124-.141.124-.034 0-.065-.008-.028-.011-.068-.02-.04-.01-.099-.02-.059-.01-.147-.01-.186 0-.287.126-.102.127-.102.33 0 .223.102.359.104.135.293.135.119 0 .192-.02.073-.02.119-.045.048-.025.076-.045.03-.02.068-.02.05 0 .079.023.03.02.03.085 0 .067-.053.118-.05.051-.13.085-.079.034-.172.05-.09.018-.167.018-.341 0-.536-.19-.194-.188-.194-.536 0-.15.045-.282.048-.135.14-.237.094-.101.23-.16.138-.06.318-.06zM21.816 74.07q-.158 0-.254-.025-.096-.026-.15-.071-.05-.048-.07-.116-.017-.067-.025-.152-.009-.099-.014-.26-.003-.163-.003-.338v-.178q.003-.096.003-.187l.005-.172q.003-.079.009-.135.008-.088.028-.158t.073-.122q.057-.05.156-.076.101-.028.268-.028.378 0 .564.141.19.138.19.395 0 .133-.06.246-.056.113-.198.17.08.013.144.058.065.046.11.11.048.063.071.142.025.076.025.155 0 .101-.042.209-.042.104-.144.192-.101.087-.27.144-.167.056-.416.056zm.59-.61q0-.101-.048-.163-.045-.062-.118-.093-.074-.034-.164-.046-.09-.01-.18-.01h-.147q-.077 0-.141.002l-.006.121-.006.119v.152q0 .077.012.127.01.051.042.082.031.031.087.045.06.012.15.012.248 0 .384-.088.135-.087.135-.26zm-.522-1.14q-.093 0-.152.017-.057.014-.088.04-.028.025-.04.062-.008.036-.008.079v.395q.04.003.082.003h.085q.101 0 .197-.014.099-.014.178-.048.08-.034.127-.093.048-.06.048-.153 0-.127-.104-.206-.102-.082-.325-.082zM23.699 74.098q-.17 0-.319-.068-.147-.067-.257-.194-.11-.13-.175-.316-.062-.187-.062-.424 0-.223.054-.409.056-.186.163-.322.11-.135.271-.208.161-.077.373-.077.172 0 .327.062.155.063.271.187.119.124.186.31.068.186.068.435 0 .206-.056.392-.054.186-.167.327-.11.139-.28.223-.169.082-.397.082zm.005-.265q.156 0 .271-.062.116-.065.192-.17.077-.104.113-.24.037-.138.037-.282 0-.175-.048-.31-.045-.138-.124-.232-.08-.093-.184-.14-.104-.051-.223-.051-.14 0-.248.059-.104.06-.178.16-.07.102-.107.24-.037.136-.037.291 0 .167.043.305.042.136.112.232.074.096.173.15.098.05.208.05zM25.563 74.118q-.322 0-.471-.175-.06-.068-.102-.172-.04-.107-.065-.277-.022-.17-.034-.417-.008-.252-.008-.61 0-.116.005-.19.006-.075.023-.118.017-.045.042-.062.028-.017.07-.017.083 0 .117.074.033.073.033.254 0 .062-.002.11v.099q0 .048-.003.107v.144q0 .282.017.468.02.186.065.3.045.11.121.155.079.045.195.045.121 0 .2-.048.082-.051.13-.167.048-.118.068-.313.022-.195.022-.485 0-.127-.003-.218v-.163q0-.105.006-.175.009-.071.023-.11.017-.043.045-.06.028-.017.07-.017.043 0 .07.017.03.017.046.06.017.042.023.118.005.073.005.192 0 .497-.03.818-.032.32-.11.506-.08.183-.218.256-.136.07-.35.07zM26.89 73.283v.16q0 .068-.002.13 0 .062-.003.124l-.006.139.305-.037.172-.023q.065-.008.099-.01.037-.004.085-.004.124 0 .124.121 0 .048-.051.082-.048.034-.124.06-.074.022-.167.04-.09.013-.178.019-.084.008-.155.011l-.096.003q-.101 0-.158-.014-.056-.011-.084-.073-.029-.065-.037-.195-.006-.13-.006-.367v-.406q0-.178.003-.32.003-.14.003-.25.003-.11.008-.2.006-.117.04-.15.034-.037.085-.037.028 0 .047.006.023.003.04.022.017.02.025.057.012.037.015.104.01.249.014.491.002.243.002.517zM27.904 73.641q-.006-.09-.011-.246-.006-.155-.006-.318v-.192l.006-.206q.005-.21.025-.328.023-.118.085-.178.065-.059.18-.073.116-.014.308-.014h.06q.058 0 .14.003.082 0 .17.003l.15.006q.061.006.098.017.04.008.06.025.019.014.025.037.005.02.005.045 0 .065-.036.096-.037.028-.15.037-.056.006-.167.008h-.22q-.113 0-.203.003h-.113q-.073.003-.104.034-.028.028-.028.138l.002.124q.006.096.006.271h.234q.15 0 .243.006.096.003.147.017.053.014.073.045.02.031.02.082 0 .026-.006.048-.003.02-.022.037-.02.014-.057.025-.036.008-.104.014-.082.006-.155.008h-.379v.345l.006.096q.003.045.011.076.012.03.037.05.028.02.079.029.054.008.141.008h.607q.099 0 .124.037.025.036.025.098 0 .051-.022.08-.023.025-.11.036-.085.014-.257.017-.17.003-.469.003-.127 0-.208-.023-.082-.022-.133-.076-.05-.053-.076-.138-.023-.088-.031-.212zm.55-1.71q-.03-.006-.062-.02-.028-.017-.028-.06.003-.033.04-.078.039-.046.095-.09.057-.049.127-.09.07-.046.139-.08.07-.034.13-.054.059-.022.095-.022.048 0 .082.028.037.028.037.082 0 .034-.037.076-.036.04-.096.082-.059.042-.132.085-.074.04-.147.07-.07.031-.136.051-.064.02-.107.02zM7.473 80.95l-.011-.237q-.003-.135-.003-.296 0-.2.003-.341.003-.144.014-.235.014-.093.042-.135.029-.045.08-.045.047 0 .084.034.037.034.042.146.017.297.017.573 0 .141-.005.266l-.012.268q-.002.067-.014.104-.008.037-.025.057-.017.02-.04.022-.02.006-.048.006-.05 0-.084-.034-.034-.036-.04-.152zm.127-1.8q.065 0 .119.05.056.052.056.122 0 .068-.056.119-.057.048-.127.048-.06 0-.113-.048-.051-.051-.051-.125 0-.067.05-.115.054-.051.122-.051zM8.756 79.923q-.104 0-.189.034-.082.034-.186.102v.175q0 .113-.003.248l-.006.263q-.002.13-.011.217-.006.056-.014.09-.006.031-.02.048-.011.017-.034.023-.02.003-.053.003-.034 0-.057-.003-.02-.006-.034-.02-.014-.017-.022-.048-.009-.031-.014-.085-.006-.05-.012-.135l-.005-.184-.006-.203v-.192q0-.144.003-.234.006-.09.017-.16.017-.12.045-.15.028-.032.076-.032.07 0 .105.04.036.04.045.13.104-.09.223-.144.121-.054.248-.054.122 0 .22.057.102.056.167.183.04.076.06.17.019.09.027.191l.006.09q.003.043.003.094.002.048.002.11v.147q0 .09-.002.169-.003.079-.017.138-.012.057-.043.09-.03.031-.084.031-.13 0-.136-.124v-.07q0-.065-.003-.15l-.002-.172q0-.087-.003-.144-.003-.045-.009-.096-.002-.054-.01-.107-.006-.054-.018-.102-.011-.05-.028-.09-.04-.093-.099-.119-.06-.025-.127-.025zM10.897 79.686q.082 0 .164.014.084.014.152.04.068.025.11.062.043.037.043.085 0 .124-.142.124-.033 0-.064-.008-.029-.012-.068-.02-.04-.011-.099-.02-.06-.011-.147-.011-.186 0-.288.127-.101.127-.101.33 0 .223.101.359.105.135.294.135.118 0 .192-.02.073-.02.118-.045.048-.025.077-.045.03-.02.067-.02.051 0 .08.023.03.02.03.084 0 .068-.053.119-.051.05-.13.085-.08.033-.172.05-.09.017-.167.017-.341 0-.536-.189t-.195-.536q0-.15.045-.282.048-.136.142-.237.093-.102.228-.161.138-.06.32-.06zM12.306 79.695q.16 0 .287.05.127.048.215.139.09.09.138.22.048.13.048.29 0 .178-.056.32-.054.14-.153.24-.096.098-.231.152-.133.053-.29.053-.173 0-.306-.059-.13-.06-.22-.16-.087-.102-.132-.235-.045-.133-.045-.28 0-.16.05-.293.054-.135.15-.231.099-.1.237-.153.138-.053.308-.053zm-.031 1.205q.115 0 .197-.04.082-.042.133-.11.053-.068.076-.152.025-.088.025-.18 0-.097-.025-.179-.023-.084-.073-.146-.048-.063-.127-.096-.077-.037-.184-.037-.11 0-.192.037-.082.036-.138.101-.054.062-.082.15-.028.087-.028.189 0 .206.104.336.108.127.314.127zM13.264 80.962l-.006-.237-.006-.294-.002-.333v-.358q0-.2.002-.345.003-.143.015-.237.014-.093.042-.135.028-.045.079-.045.048 0 .085.03.036.032.042.145.011.203.014.423.003.217.003.429v.246q0 .115-.003.23l-.006.232q-.002.119-.008.246-.003.068-.014.104-.009.037-.026.057-.017.02-.04.022-.019.006-.047.006-.05 0-.085-.033-.034-.037-.04-.153zM13.898 80.962l-.006-.237-.006-.294-.002-.333v-.358q0-.2.002-.345.003-.143.014-.237.015-.093.043-.135.028-.045.079-.045.048 0 .084.03.037.032.043.145.011.203.014.423.003.217.003.429v.246q0 .115-.003.23l-.006.232q-.002.119-.008.246-.003.068-.014.104-.009.037-.026.057-.017.02-.04.022-.019.006-.047.006-.051 0-.085-.033-.034-.037-.04-.153zM15.672 81.137q-.046 0-.074-.014-.025-.017-.04-.043-.013-.025-.019-.059-.006-.037-.009-.076-.07.087-.183.147-.11.059-.282.059-.11 0-.226-.031-.113-.034-.206-.113-.093-.082-.152-.217-.06-.136-.06-.342 0-.16.04-.302.04-.14.118-.245.082-.108.204-.17.12-.062.285-.062.144 0 .256.054.113.05.204.17 0-.035.002-.068.003-.037.015-.065.014-.031.042-.048.028-.02.076-.02.042 0 .08.034.036.034.041.146.009.15.012.269.005.118.005.245 0 .155-.002.285-.003.13-.015.277-.005.065-.017.104-.008.037-.022.057-.014.017-.034.022-.02.006-.04.006zm-.153-.717q0-.147-.045-.24-.042-.093-.11-.144-.065-.053-.141-.073-.076-.02-.141-.02-.102 0-.175.037-.07.036-.116.101-.045.062-.068.15-.02.084-.02.186 0 .248.108.367.11.118.296.118.11 0 .186-.036.08-.04.127-.105.051-.065.074-.152.025-.09.025-.19zM16.44 79.28q0 .17-.011.355-.009.184-.023.359.037-.076.096-.13.06-.057.13-.09.073-.034.152-.051.08-.017.153-.017.127 0 .237.048.113.045.195.135.084.088.13.22.047.13.047.3 0 .163-.048.299-.048.135-.144.234-.093.096-.234.15-.138.053-.319.053-.245 0-.386-.098-.139-.1-.206-.263-.068-.166-.085-.381-.014-.214-.014-.449 0-.237.008-.429.009-.192.026-.31.017-.107.056-.153.04-.045.105-.045.048 0 .076.023.028.02.04.056.013.037.016.085.003.045.003.099zm.418.705q-.082 0-.158.029-.074.025-.133.081-.056.057-.09.144-.034.085-.034.206 0 .215.104.328.107.11.285.11.074 0 .15-.02.076-.023.138-.073.062-.054.102-.142.04-.087.04-.217 0-.116-.035-.2-.03-.085-.087-.139-.057-.056-.13-.081-.073-.026-.152-.026zM18.48 79.695q.16 0 .287.05.127.048.215.139.09.09.138.22.048.13.048.29 0 .178-.057.32-.053.14-.152.24-.096.098-.231.152-.133.053-.291.053-.172 0-.305-.059-.13-.06-.22-.16-.088-.102-.133-.235-.045-.133-.045-.28 0-.16.051-.293.054-.135.15-.231.098-.1.237-.153.138-.053.307-.053zm-.032 1.205q.116 0 .198-.04.082-.042.132-.11.054-.068.077-.152.025-.088.025-.18 0-.097-.025-.179-.023-.084-.074-.146-.048-.063-.127-.096-.076-.037-.183-.037-.11 0-.192.037-.082.036-.138.101-.054.062-.082.15-.028.087-.028.189 0 .206.104.336.107.127.313.127zM19.434 80.953q-.01-.098-.014-.24-.002-.14-.002-.341v-.319q.002-.121.016-.214.015-.116.043-.15.03-.034.079-.034.034 0 .06.006.027.006.047.025.023.017.034.051.011.034.011.093 0 .012.003.023v.025q.003.012.003.029.076-.096.172-.164.099-.068.223-.068.166 0 .166.138 0 .051-.022.085-.02.034-.06.057-.036.02-.087.03-.048.012-.107.023-.09.017-.17.065-.079.045-.107.116v.079q.003.025.003.042.003.017.003.037v.062q0 .144-.006.27l-.011.272q-.003.067-.017.104-.011.037-.031.057-.017.02-.04.022-.022.006-.045.006-.079 0-.107-.034-.025-.036-.037-.152zM21.614 81.137q-.045 0-.074-.014-.025-.017-.04-.043-.013-.025-.019-.059-.006-.037-.008-.076-.071.087-.184.147-.11.059-.282.059-.11 0-.226-.031-.113-.034-.206-.113-.093-.082-.152-.217-.06-.136-.06-.342 0-.16.04-.302.04-.14.118-.245.082-.108.204-.17.121-.062.285-.062.144 0 .257.054.112.05.203.17 0-.035.003-.068.002-.037.014-.065.014-.031.042-.048.028-.02.076-.02.043 0 .08.034.036.034.042.146.008.15.01.269.006.118.006.245 0 .155-.002.285-.003.13-.014.277-.006.065-.017.104-.009.037-.023.057-.014.017-.034.022-.02.006-.04.006zm-.153-.717q0-.147-.045-.24-.042-.093-.11-.144-.065-.053-.141-.073-.076-.02-.141-.02-.102 0-.175.037-.07.036-.116.101-.045.062-.068.15-.02.084-.02.186 0 .248.108.367.11.118.296.118.11 0 .187-.036.079-.04.127-.105.05-.065.073-.152.025-.09.025-.19zM22.314 80.942q-.008-.178-.01-.42v-.556q-.03.003-.069.003h-.059q-.05 0-.093-.003-.04-.003-.07-.017-.032-.014-.049-.04-.017-.028-.017-.076 0-.135.204-.135h.076q.045 0 .076.006 0-.15.006-.24.005-.09.02-.139.016-.05.042-.065.028-.016.07-.016.045 0 .074.03.028.032.042.08.017.048.02.107.005.06.005.115 0 .04-.002.074v.056q.04-.011.081-.011.043-.003.082-.003.105 0 .161.034.057.03.057.104 0 .045-.02.074-.02.025-.054.04-.03.013-.076.019-.042.003-.093.003h-.065q-.037 0-.068-.006v.274q0 .124-.003.24l-.005.225q-.003.113-.009.24-.002.068-.014.105-.008.036-.025.056-.017.02-.04.026-.02.003-.048.003-.05 0-.087-.034-.034-.037-.04-.153zM23.21 80.95l-.01-.237q-.004-.135-.004-.296 0-.2.003-.341.003-.144.014-.235.014-.093.043-.135.028-.045.079-.045.048 0 .084.034.037.034.043.146.016.297.016.573 0 .141-.005.266-.006.12-.011.268-.003.067-.015.104-.008.037-.025.057-.017.02-.04.022-.02.006-.047.006-.051 0-.085-.034-.034-.036-.04-.152zm.127-1.8q.065 0 .119.05.056.052.056.122 0 .068-.056.119-.057.048-.127.048-.06 0-.113-.048-.05-.051-.05-.125 0-.067.05-.115.054-.051.121-.051zM24.482 79.695q.16 0 .288.05.127.048.214.139.09.09.139.22.048.13.048.29 0 .178-.057.32-.053.14-.152.24-.096.098-.232.152-.132.053-.29.053-.173 0-.305-.059-.13-.06-.22-.16-.088-.102-.133-.235-.045-.133-.045-.28 0-.16.05-.293.054-.135.15-.231.1-.1.237-.153.139-.053.308-.053zm-.031 1.205q.116 0 .197-.04.082-.042.133-.11.054-.068.076-.152.026-.088.026-.18 0-.097-.026-.179-.022-.084-.073-.146-.048-.063-.127-.096-.076-.037-.183-.037-.11 0-.192.037-.082.036-.139.101-.053.062-.082.15-.028.087-.028.189 0 .206.105.336.107.127.313.127zM26.086 79.923q-.104 0-.189.034-.082.034-.186.102v.175q0 .113-.003.248l-.005.263q-.003.13-.012.217-.005.056-.014.09-.005.031-.02.048-.01.017-.034.023-.02.003-.053.003-.034 0-.057-.003-.02-.006-.033-.02-.015-.017-.023-.048-.009-.031-.014-.085-.006-.05-.011-.135l-.006-.184-.006-.203v-.192q0-.144.003-.234.006-.09.017-.16.017-.12.045-.15.028-.032.076-.032.071 0 .105.04.037.04.045.13.104-.09.223-.144.121-.054.248-.054.122 0 .22.057.102.056.167.183.04.076.06.17.019.09.027.191l.006.09q.003.043.003.094.003.048.003.11v.147q0 .09-.003.169-.003.079-.017.138-.011.057-.042.09-.031.031-.085.031-.13 0-.135-.124v-.07q0-.065-.003-.15 0-.085-.003-.172 0-.087-.003-.144l-.008-.096q-.003-.054-.012-.107-.005-.054-.017-.102-.01-.05-.028-.09-.04-.093-.099-.119-.059-.025-.127-.025zM28.27 80.059q.017-.037.048-.054.033-.02.073-.02.034 0 .065.017.034.017.054.054.081.152.146.31.068.155.144.316.07-.228.124-.44.054-.214.11-.42.02-.074.054-.096.034-.026.088-.026.048 0 .079.028.03.026.03.071 0 .037-.02.13-.016.09-.047.211-.028.119-.065.254-.034.136-.07.26-.034.124-.065.226l-.048.152q-.023.065-.054.096-.031.034-.096.034-.06 0-.099-.045-.04-.048-.073-.113l-.037-.076q-.025-.054-.062-.127l-.076-.161-.082-.178q-.042.09-.088.178l-.079.164-.064.127-.037.076q-.034.065-.074.113-.036.045-.098.045-.1 0-.15-.13-.02-.05-.05-.15-.032-.101-.066-.225l-.067-.257-.062-.254q-.026-.119-.043-.209-.017-.09-.017-.13 0-.048.026-.079.028-.03.079-.03.056 0 .09.025.037.022.056.096.057.206.11.42.054.212.125.44.062-.135.124-.282.062-.147.164-.341zM29.588 80.95q-.006-.104-.011-.237-.003-.135-.003-.296 0-.2.003-.341.002-.144.014-.235.014-.093.042-.135.028-.045.08-.045.047 0 .084.034.036.034.042.146.017.297.017.573 0 .141-.006.266l-.01.268q-.004.067-.015.104-.008.037-.025.057-.017.02-.04.022-.02.006-.048.006-.05 0-.085-.034-.033-.036-.039-.152zm.127-1.8q.065 0 .118.05.057.052.057.122 0 .068-.057.119-.056.048-.127.048-.059 0-.112-.048-.051-.051-.051-.125 0-.067.05-.115.054-.051.122-.051zM30.45 80.942q-.008-.178-.011-.42v-.556q-.028.003-.068.003h-.059q-.05 0-.093-.003-.04-.003-.07-.017-.032-.014-.049-.04-.017-.028-.017-.076 0-.135.204-.135h.076q.045 0 .076.006 0-.15.006-.24.005-.09.02-.139.016-.05.042-.065.028-.016.07-.016.045 0 .074.03.028.032.042.08.017.048.02.107.005.06.005.115 0 .04-.002.074v.056q.039-.011.081-.011.043-.003.082-.003.105 0 .161.034.057.03.057.104 0 .045-.02.074-.02.025-.054.04-.03.013-.076.019-.042.003-.093.003h-.065q-.037 0-.068-.006v.274q0 .124-.003.24l-.005.225q-.003.113-.009.24-.003.068-.014.105-.008.036-.025.056-.017.02-.04.026-.02.003-.048.003-.05 0-.087-.034-.034-.037-.04-.153zM31.987 79.966q-.104 0-.19.03-.081.032-.185.085v.054q0 .05-.003.13 0 .079-.003.177 0 .096-.003.195 0 .096-.005.184l-.006.146q-.006.06-.014.094-.006.033-.017.05-.009.014-.025.017-.017.003-.037.003-.048 0-.076-.006-.026-.003-.043-.017-.017-.017-.025-.048-.006-.03-.011-.084-.006-.054-.012-.147l-.005-.212-.006-.251v-.262-.274l.006-.28.005-.24q.003-.107.009-.158.005-.073.025-.127.023-.053.096-.053.057 0 .09.04.037.039.043.149.005.099.008.277.006.175.009.395.04-.031.096-.057.056-.028.118-.045.062-.02.127-.031t.122-.011q.135 0 .234.065.102.062.16.18.04.076.06.17.02.09.028.192l.006.09q.003.042.003.093.003.048.003.11v.147q0 .084-.003.158-.003.07-.017.124-.011.05-.04.082-.028.028-.079.028-.073 0-.11-.045-.034-.048-.034-.113v-.06l-.002-.13q0-.075-.003-.152 0-.076-.003-.124-.003-.045-.009-.096-.002-.053-.01-.107-.006-.053-.018-.101-.011-.051-.028-.09-.04-.094-.099-.12-.06-.025-.127-.025zM12.51 84.52q-.09-.124-.173-.245l-.172-.27q-.09-.148-.209-.325-.115-.181-.28-.42v.38q0 .167-.002.31l-.006.271q-.002.127-.008.254-.003.068-.014.105-.009.037-.026.056-.016.02-.04.023-.019.006-.047.006-.05 0-.085-.034-.034-.037-.04-.152-.013-.31-.016-.621v-.646q0-.19.003-.297.005-.107.02-.16.016-.054.042-.068.028-.014.073-.014t.119.07q.073.068.16.18.088.114.187.26.101.147.2.302.099.156.19.308l.169.277q-.003-.133-.003-.291v-.356q0-.223.003-.367.002-.146.014-.231.014-.085.042-.119.028-.033.079-.033.048 0 .085.03.036.032.042.144l.009.181.005.158q.003.076.003.161v.429q0 .116-.003.229l-.005.228q-.003.116-.009.243-.003.068-.014.104-.009.037-.025.057-.017.02-.04.022-.02.006-.048.006-.048 0-.082-.028t-.099-.116zM13.195 84.478q-.006-.104-.011-.237-.003-.135-.003-.296 0-.2.003-.342.002-.144.014-.234.014-.093.042-.135.028-.046.079-.046.048 0 .085.034.036.034.042.147.017.296.017.573 0 .141-.006.265l-.011.268q-.003.068-.014.105-.009.037-.025.056-.017.02-.04.023-.02.006-.048.006-.05 0-.085-.034-.034-.037-.04-.152zm.127-1.8q.065 0 .118.05.057.051.057.122 0 .068-.057.118-.056.048-.127.048-.059 0-.113-.048-.05-.05-.05-.124 0-.067.05-.115.054-.051.122-.051zM14.37 85.04q.133 0 .223-.054.094-.05.15-.15.056-.095.079-.23.025-.139.025-.311-.025.09-.073.152-.048.062-.113.102-.062.037-.141.053-.079.017-.164.017-.13 0-.245-.036-.116-.037-.203-.116-.085-.079-.136-.2-.05-.125-.05-.297 0-.166.047-.305.051-.14.144-.242.096-.102.232-.158.135-.057.31-.057.093 0 .164.017.073.017.13.045.056.029.098.068.046.04.082.085.107.135.155.321.048.184.048.444 0 .191-.033.392-.031.2-.116.361-.085.164-.234.265-.15.105-.384.105-.043 0-.096-.006-.051-.003-.107-.012-.054-.008-.108-.025-.053-.014-.098-.04-.057-.03-.09-.059-.035-.028-.035-.093 0-.053.023-.099.025-.042.085-.042.028 0 .062.017t.082.034q.05.02.118.037.07.016.17.016zm.015-.677q.11 0 .186-.04.079-.042.127-.11.05-.068.073-.152.026-.085.026-.17 0-.07-.02-.14-.017-.074-.06-.133-.042-.06-.115-.096-.074-.037-.184-.037-.186 0-.302.113-.112.113-.112.333 0 .206.101.319.102.113.28.113zM16.043 84.134q-.099 0-.209-.014-.107-.017-.234-.068.025.172.14.26.12.087.34.087.079 0 .14-.008.066-.011.114-.022l.084-.023q.037-.011.068-.011.04 0 .076.025.037.023.037.08 0 .07-.06.115-.056.045-.14.073-.082.026-.176.034-.093.012-.163.012-.167 0-.308-.046-.138-.045-.24-.135-.101-.093-.158-.229-.056-.135-.056-.316 0-.175.053-.31.057-.136.153-.229t.226-.141q.132-.048.285-.048.118 0 .228.031.113.031.198.093.087.062.138.158.054.093.054.22 0 .113-.043.192-.042.08-.121.127-.076.048-.186.07-.107.023-.24.023zm-.02-.655q-.076 0-.147.02-.07.017-.13.06-.056.039-.095.107-.04.064-.054.163.107.048.209.068.101.017.214.017.167 0 .246-.04.082-.042.082-.15 0-.098-.077-.171-.073-.074-.248-.074zM16.918 84.49l-.005-.237-.006-.294q0-.158-.003-.333v-.358q0-.2.003-.345.003-.144.014-.237.014-.093.042-.135.029-.045.08-.045.047 0 .084.03.037.032.042.144.012.204.015.424l.002.429v.245l-.002.232-.006.231q-.003.119-.009.246-.002.067-.014.104-.008.037-.025.057-.017.02-.04.022-.02.006-.048.006-.05 0-.084-.034-.034-.036-.04-.152zM18.81 82.66q.08 0 .181.015.105.011.195.045.09.031.153.085.062.05.062.127 0 .045-.026.076-.025.031-.082.031-.042 0-.087-.017-.042-.017-.099-.034-.054-.02-.127-.037-.07-.016-.166-.016-.187 0-.277.067-.087.065-.087.18 0 .08.039.134.04.053.104.093.068.036.15.062.085.025.172.048.099.025.195.062.099.037.175.096.076.06.121.15.048.09.048.228 0 .144-.053.26-.054.112-.147.194-.093.08-.223.124-.13.043-.282.043-.085 0-.198-.017-.113-.014-.214-.05-.102-.04-.173-.103-.07-.064-.07-.158 0-.056.028-.09.031-.034.09-.034.048 0 .08.02.03.017.053.04.085.073.192.098.107.026.22.026.065 0 .136-.008.073-.012.132-.043.06-.03.099-.087.04-.06.04-.158 0-.09-.037-.147-.034-.06-.093-.099-.06-.04-.141-.065-.08-.025-.173-.05-.104-.029-.206-.062-.101-.034-.18-.09-.08-.06-.13-.148-.048-.09-.048-.228t.05-.243q.052-.104.14-.175.087-.07.205-.107.121-.037.26-.037zM19.787 84.478l-.01-.237q-.004-.135-.004-.296 0-.2.003-.342.003-.144.014-.234.014-.093.042-.135.029-.046.08-.046.047 0 .084.034.037.034.043.147.016.296.016.573 0 .141-.005.265l-.011.268q-.003.068-.015.105-.008.037-.025.056-.017.02-.04.023-.02.006-.047.006-.051 0-.085-.034-.034-.037-.04-.152zm.127-1.8q.065 0 .119.05.056.051.056.122 0 .068-.056.118-.057.048-.127.048-.06 0-.113-.048-.05-.05-.05-.124 0-.067.05-.115.054-.051.121-.051zM20.946 84.162l-.217.229q-.088.093-.15.155-.062.06-.104.088-.04.028-.074.028-.04 0-.079-.034-.036-.034-.036-.074 0-.033.048-.101.048-.07.118-.155.07-.085.153-.175l.15-.175q-.091-.105-.173-.204-.079-.098-.138-.183-.06-.085-.096-.15-.034-.064-.034-.101 0-.037.037-.062.036-.028.067-.028.026 0 .088.056.062.054.138.133.08.076.158.163l.147.156.138-.153q.08-.087.155-.164.077-.076.141-.13.065-.053.102-.053.031 0 .062.023.031.022.031.059t-.036.102q-.034.064-.094.15-.059.084-.14.183-.08.098-.17.203l.152.172q.082.09.153.178.07.084.115.155.048.068.048.102 0 .04-.04.073-.036.034-.075.034-.037 0-.099-.045-.06-.048-.136-.119-.073-.073-.155-.16l-.155-.176zM22.331 83.18q.06 0 .15.011.09.008.172.037.082.025.141.073.06.048.06.122 0 .042-.026.073-.023.031-.073.031-.037 0-.085-.011l-.102-.025q-.053-.017-.118-.029-.062-.011-.133-.011-.118 0-.194.037-.074.036-.074.115 0 .046.026.077.028.03.073.056.048.023.11.04l.135.033q.088.023.173.051.087.028.155.08.068.047.11.123.042.074.042.184 0 .209-.158.333-.158.121-.465.121-.068 0-.161-.011-.093-.008-.175-.037-.082-.025-.141-.073-.057-.051-.057-.133 0-.056.026-.085.028-.03.067-.03.031 0 .065.02.034.019.082.041.048.023.116.043.067.02.166.02.037 0 .096-.004.06-.006.116-.025.06-.02.099-.054.042-.036.042-.101 0-.05-.028-.085-.028-.037-.076-.062t-.113-.042q-.062-.02-.133-.04-.082-.022-.166-.05-.082-.029-.15-.074-.068-.045-.11-.113-.042-.07-.042-.172 0-.096.04-.178.039-.084.112-.147.073-.062.175-.096.104-.033.231-.033zM25.038 84.569q-.017-.048-.023-.108-.003-.059-.003-.146v-.096q.003-.037.003-.062v-.054q.003-.028.003-.076 0-.099-.006-.198-.002-.101-.028-.18-.025-.082-.079-.133-.054-.05-.155-.05-.172 0-.268.163-.096.164-.116.522-.006.113-.006.206 0 .093-.01.16-.012.066-.043.102-.028.037-.096.037-.062 0-.09-.03-.029-.035-.043-.1-.011-.065-.014-.158 0-.093-.008-.217-.009-.135-.029-.26-.017-.124-.059-.217-.04-.096-.11-.152-.068-.057-.175-.057-.102 0-.158.051-.054.048-.079.13-.025.079-.031.18-.003.1-.003.2v.077q.003.023.003.042v.051q.003.031.003.096 0 .093-.006.16-.003.069-.02.117-.02.056-.053.07-.034.012-.062.012-.088 0-.113-.063-.026-.062-.028-.18 0-.065-.003-.144v-.198-.098-.082q.003-.04.003-.08l.005-.095q.009-.172.062-.274.054-.104.127-.158.074-.054.158-.068.085-.017.156-.017.152 0 .256.046.105.045.17.118.067.074.098.167.034.093.046.189.01-.093.045-.184.036-.093.104-.163.07-.074.18-.119.11-.045.272-.045.076 0 .155.017.082.014.15.068.067.053.112.155.048.099.057.268.003.053.003.096l.002.079q.003.04.003.082v.098q0 .116-.003.198v.144q0 .053-.005.099-.003.045-.017.076-.014.03-.042.05-.026.018-.077.018-.048 0-.073-.017-.025-.02-.042-.065zM25.647 84.478l-.012-.237q-.002-.135-.002-.296 0-.2.002-.342.003-.144.015-.234.014-.093.042-.135.028-.046.079-.046.048 0 .085.034.036.034.042.147.017.296.017.573 0 .141-.006.265l-.011.268q-.003.068-.014.105-.009.037-.026.056-.016.02-.04.023-.019.006-.047.006-.05 0-.085-.034-.034-.037-.04-.152zm.127-1.8q.065 0 .118.05.057.051.057.122 0 .068-.057.118-.056.048-.127.048-.059 0-.113-.048-.05-.05-.05-.124 0-.067.05-.115.054-.051.122-.051zM26.51 84.47q-.01-.178-.012-.42v-.557q-.028.003-.068.003h-.06q-.05 0-.092-.003-.04-.003-.07-.017-.032-.014-.049-.04-.017-.027-.017-.075 0-.136.203-.136h.077q.045 0 .076.006 0-.15.005-.24.006-.09.02-.138.017-.05.043-.065.028-.017.07-.017.045 0 .073.031.029.031.043.08.017.047.02.107.005.059.005.115 0 .04-.003.074v.056q.04-.011.082-.011.043-.003.082-.003.104 0 .16.034.057.03.057.104 0 .045-.02.073-.02.026-.053.04-.031.014-.076.02-.043.003-.093.003h-.065q-.037 0-.068-.006v.273q0 .125-.003.24l-.005.226q-.003.113-.009.24-.003.068-.014.104-.009.037-.025.057-.017.02-.04.025-.02.003-.048.003-.05 0-.087-.034-.034-.036-.04-.152zM28.046 83.493q-.105 0-.19.031-.081.031-.186.085v.054l-.002.13q0 .078-.003.177 0 .096-.003.195 0 .096-.006.183l-.005.147q-.006.06-.014.093-.006.034-.017.051-.009.014-.026.017-.017.003-.036.003-.048 0-.077-.006-.025-.003-.042-.017-.017-.017-.025-.048-.006-.031-.012-.085-.005-.053-.01-.146-.004-.096-.006-.212l-.006-.251v-.263-.273l.006-.28.005-.24q.003-.107.009-.158.005-.073.025-.127.023-.053.096-.053.056 0 .09.04.037.039.043.149.005.099.008.276.006.175.009.395.04-.03.096-.056.056-.028.118-.045.062-.02.127-.031t.122-.011q.135 0 .234.064.101.063.16.181.04.076.06.17.02.09.028.191l.006.09q.003.043.003.094.002.048.002.11v.147q0 .084-.002.158-.003.07-.017.124-.012.05-.04.082-.028.028-.079.028-.073 0-.11-.045-.034-.048-.034-.113v-.06q0-.056-.003-.13l-.002-.152q0-.076-.003-.124-.003-.045-.009-.096-.003-.054-.011-.107-.006-.054-.017-.102-.011-.05-.028-.09-.04-.093-.099-.119-.06-.025-.127-.025zM11.363 87.439l-.42.652q-.04.062-.088.093-.045.034-.104.034-.074 0-.105-.037-.028-.034-.028-.087 0-.032.011-.065.015-.034.037-.065l.525-.751-.525-.75q-.022-.032-.037-.066-.01-.033-.01-.064 0-.054.027-.088.031-.037.105-.037.059 0 .104.034.048.031.088.093l.42.652.42-.652q.04-.062.085-.093.048-.034.108-.034.073 0 .101.037.031.034.031.088 0 .03-.014.064-.011.034-.034.065l-.525.751.525.75q.023.032.034.066.014.034.014.065 0 .053-.03.087-.029.037-.102.037-.06 0-.108-.034-.045-.031-.084-.093zM13.494 88.192q-.045 0-.073-.014-.025-.017-.04-.042-.014-.025-.02-.06-.005-.036-.008-.076-.07.088-.183.147-.11.06-.283.06-.11 0-.225-.032-.113-.033-.206-.112-.093-.082-.153-.218-.059-.135-.059-.341 0-.161.04-.302.039-.141.118-.246.082-.107.203-.169.122-.062.285-.062.144 0 .257.053.113.051.203.17 0-.034.003-.068.003-.037.014-.065.014-.03.043-.048.028-.02.076-.02.042 0 .079.034.036.034.042.147.009.15.011.268.006.119.006.246 0 .155-.003.285-.003.13-.014.276-.005.065-.017.105-.008.037-.022.056-.015.017-.034.023-.02.006-.04.006zm-.152-.717q0-.146-.045-.24-.043-.092-.11-.143-.065-.054-.141-.074-.077-.02-.142-.02-.101 0-.175.037-.07.037-.115.102-.045.062-.068.15-.02.084-.02.186 0 .248.108.367.11.118.296.118.11 0 .186-.037.08-.04.127-.104.05-.065.074-.152.025-.09.025-.19zM14.593 88.068q-.062.13-.15.13-.082 0-.144-.13-.022-.045-.05-.113l-.06-.15q-.03-.081-.065-.166-.033-.085-.067-.158-.113-.248-.175-.39-.062-.14-.062-.225 0-.048.028-.08.03-.03.082-.03.03 0 .065.025.036.026.073.096.107.215.198.438.093.22.18.448.088-.228.178-.448.093-.223.2-.438.037-.07.07-.096.038-.025.069-.025.05 0 .079.03.03.032.03.08 0 .085-.061.226l-.175.39q-.034.073-.068.157l-.065.167-.06.15q-.028.067-.05.112zM15.339 88.006q-.006-.104-.011-.237-.003-.135-.003-.296 0-.2.003-.342.003-.144.014-.234.014-.093.042-.136.028-.045.08-.045.047 0 .084.034.037.034.042.147.017.296.017.573 0 .141-.005.265l-.012.268q-.003.068-.014.105-.008.036-.025.056-.017.02-.04.023-.02.006-.048.006-.05 0-.084-.034-.034-.037-.04-.153zm.127-1.8q.065 0 .119.05.056.051.056.122 0 .067-.056.118-.057.048-.127.048-.06 0-.113-.048-.051-.05-.051-.124 0-.068.05-.116.054-.05.122-.05zM16.61 87.662q-.098 0-.208-.014-.107-.017-.234-.068.025.172.14.26.12.087.34.087.078 0 .14-.008.065-.011.113-.022.048-.015.085-.023.037-.011.068-.011.04 0 .076.025.037.023.037.079 0 .07-.06.116-.056.045-.14.073-.083.026-.176.034-.093.011-.163.011-.167 0-.308-.045-.138-.045-.24-.135-.102-.093-.158-.229-.056-.135-.056-.316 0-.175.053-.31.057-.136.153-.23.096-.092.225-.14.133-.048.285-.048.119 0 .229.03.113.032.198.094.087.062.138.158.053.093.053.22 0 .113-.042.192t-.121.127q-.076.048-.186.07-.108.023-.24.023zm-.02-.655q-.075 0-.146.02-.07.017-.13.06-.056.039-.096.106-.04.065-.053.164.107.048.209.068.101.017.214.017.167 0 .246-.04.081-.042.081-.15 0-.098-.076-.172-.073-.073-.248-.073zM17.483 88.009q-.011-.099-.014-.24-.003-.141-.003-.341v-.32q.003-.12.017-.214.014-.116.042-.15.032-.033.08-.033.033 0 .059.006.028.006.048.025.022.017.034.05.01.035.01.094 0 .011.004.023v.025q.003.011.003.028.076-.096.172-.164.098-.067.223-.067.166 0 .166.138 0 .05-.022.085-.02.034-.06.056-.036.02-.087.031-.048.012-.107.023-.09.017-.17.065-.079.045-.107.115v.08q.003.025.003.042.003.017.003.036v.063q0 .143-.006.27l-.011.271q-.003.068-.017.105-.012.037-.031.056-.017.02-.04.023-.022.006-.045.006-.079 0-.107-.034-.026-.037-.037-.152zM19.636 88.181q-.158 0-.254-.025-.096-.026-.15-.07-.05-.049-.07-.117-.017-.067-.025-.152-.009-.099-.014-.26-.003-.163-.003-.338v-.178q.003-.096.003-.186l.005-.173q.003-.079.009-.135.008-.088.028-.158t.073-.121q.057-.051.156-.077.101-.028.268-.028.378 0 .564.141.19.139.19.395 0 .133-.06.246-.056.113-.198.17.08.013.144.059.065.045.11.11.048.062.071.14.025.077.025.156 0 .102-.042.209-.042.104-.144.192-.102.087-.27.144-.167.056-.416.056zm.59-.61q0-.101-.048-.163-.045-.062-.118-.093-.074-.034-.164-.046-.09-.01-.18-.01h-.147q-.077 0-.142.002l-.005.122-.006.118v.152q0 .077.012.127.01.051.042.082.03.031.087.046.06.01.15.01.248 0 .384-.087.135-.087.135-.26zm-.522-1.14q-.093 0-.152.017-.057.014-.088.04-.028.025-.04.062-.008.036-.008.079v.395q.04.003.082.003h.085q.101 0 .197-.014.099-.014.178-.048.079-.034.127-.093.048-.06.048-.153 0-.127-.104-.206-.102-.082-.325-.082zM21.417 87.662q-.099 0-.209-.014-.107-.017-.234-.068.026.172.141.26.119.087.339.087.079 0 .141-.008.065-.011.113-.022.048-.015.085-.023.036-.011.067-.011.04 0 .077.025.036.023.036.079 0 .07-.06.116-.056.045-.14.073-.082.026-.175.034-.093.011-.164.011-.166 0-.307-.045-.139-.045-.24-.135-.102-.093-.158-.229-.057-.135-.057-.316 0-.175.054-.31.056-.136.152-.23.096-.092.226-.14.133-.048.285-.048.119 0 .229.03.112.032.197.094.088.062.138.158.054.093.054.22 0 .113-.042.192-.043.079-.122.127-.076.048-.186.07-.107.023-.24.023zm-.02-.655q-.076 0-.146.02-.07.017-.13.06-.057.039-.096.106-.04.065-.054.164.108.048.21.068.1.017.214.017.166 0 .245-.04.082-.042.082-.15 0-.098-.076-.172-.074-.073-.249-.073zM22.293 88.017l-.006-.237-.006-.293-.002-.333v-.359q0-.2.002-.344.003-.144.014-.237.015-.093.043-.136.028-.045.079-.045.048 0 .084.031.037.031.043.144.011.203.014.424.003.217.003.429v.245q0 .116-.003.231l-.006.232q-.002.118-.008.245-.003.068-.014.105-.009.037-.026.056-.017.02-.04.023-.019.006-.047.006-.051 0-.085-.034-.034-.037-.04-.152zM24.812 88.096q-.017-.048-.023-.107-.003-.06-.003-.147v-.096q.003-.036.003-.062v-.053q.003-.029.003-.077 0-.098-.006-.197-.002-.102-.028-.18-.025-.083-.079-.133-.054-.051-.155-.051-.172 0-.268.164-.096.163-.116.522-.006.113-.006.206 0 .093-.01.16-.012.065-.043.102-.028.037-.096.037-.062 0-.09-.031-.029-.034-.043-.099-.011-.065-.014-.158 0-.093-.008-.217-.009-.136-.029-.26-.017-.124-.059-.217-.04-.096-.11-.153-.068-.056-.175-.056-.102 0-.158.05-.054.049-.079.13-.025.08-.031.181-.003.099-.003.2v.077q.003.022.003.042v.05q.003.032.003.097 0 .093-.006.16-.003.068-.02.116-.02.057-.053.071-.034.011-.062.011-.088 0-.113-.062-.026-.062-.028-.18 0-.065-.003-.144v-.198-.099-.081q.003-.04.003-.08l.005-.095q.009-.173.062-.274.054-.105.127-.158.074-.054.158-.068.085-.017.156-.017.152 0 .256.045.105.046.17.119.067.073.098.166.034.093.046.19.01-.094.045-.184.036-.093.104-.164.07-.073.18-.118.11-.045.272-.045.076 0 .155.017.082.014.15.067.067.054.112.155.048.1.057.269.003.053.003.095.003.04.003.08.002.039.002.081v.099q0 .116-.002.198v.144q0 .053-.006.098-.003.046-.017.077-.014.03-.042.05-.026.017-.077.017-.048 0-.073-.017-.025-.02-.042-.065zM26.053 86.75q.16 0 .288.051.127.048.214.138.09.09.139.22.048.13.048.291 0 .178-.057.319-.054.141-.152.24-.096.099-.232.152-.132.054-.29.054-.173 0-.305-.06-.13-.059-.22-.16-.088-.102-.133-.235-.045-.132-.045-.279 0-.16.05-.293.054-.136.15-.232.099-.099.237-.152.139-.054.308-.054zm-.031 1.205q.116 0 .197-.04.082-.042.133-.11.054-.067.076-.152.026-.087.026-.18 0-.096-.026-.178-.022-.085-.073-.147-.048-.062-.127-.096-.076-.036-.184-.036-.11 0-.191.036-.082.037-.139.102-.053.062-.082.15-.028.087-.028.188 0 .207.105.336.107.127.313.127zM27.657 86.979q-.104 0-.189.034-.082.034-.186.101v.175q0 .113-.003.249l-.006.262q-.002.13-.01.217-.006.057-.015.09-.006.032-.02.049-.011.017-.034.022-.02.003-.053.003-.034 0-.057-.003-.02-.006-.033-.02-.015-.016-.023-.048-.009-.03-.014-.084-.006-.051-.011-.136l-.006-.183-.006-.203v-.192q0-.144.003-.234.006-.09.017-.161.017-.119.045-.15.028-.03.076-.03.071 0 .105.039.037.04.045.13.104-.09.223-.145.121-.053.248-.053.122 0 .22.056.102.057.167.184.04.076.06.169.019.09.027.192l.006.09q.003.043.003.093.003.048.003.11v.147q0 .09-.003.17-.003.079-.017.138-.011.056-.042.09-.031.031-.085.031-.13 0-.136-.124v-.07l-.002-.15q0-.085-.003-.172 0-.088-.003-.144l-.008-.096q-.003-.054-.012-.108-.005-.053-.017-.101-.01-.051-.028-.09-.04-.094-.099-.119-.059-.025-.127-.025zM28.764 87.998q-.009-.178-.012-.42v-.557q-.028.003-.067.003h-.06q-.05 0-.093-.003-.04-.003-.07-.017-.031-.014-.048-.04-.017-.027-.017-.075 0-.136.203-.136h.076q.045 0 .076.006 0-.15.006-.24t.02-.138q.017-.05.042-.065.028-.017.07-.017.046 0 .074.031.028.031.042.08.017.047.02.106.006.06.006.116 0 .04-.003.073v.057q.04-.011.082-.011.042-.003.081-.003.105 0 .161.033.057.031.057.105 0 .045-.02.073-.02.026-.054.04-.03.014-.076.02-.042.002-.093.002h-.065q-.036 0-.068-.006v.274q0 .124-.002.24l-.006.226-.008.24q-.003.067-.015.104-.008.037-.025.057-.017.02-.04.025-.02.003-.047.003-.051 0-.088-.034-.034-.037-.04-.152z" style="-inkscape-font-specification:'Sniglet, Normal';font-variant-ligatures:normal;font-variant-caps:normal;font-variant-numeric:normal;font-feature-settings:normal;text-align:center"/></g><g transform="translate(-26.496 -161.347)"><rect ry=".206" y="161.611" x="26.759" height=".439" width="4.24" fill="url(#w)"/><rect transform="matrix(.00655 .99998 -.99973 .02317 0 0)" ry=".194" y="-26.119" x="162.21" height=".413" width="4.24" fill="url(#x)"/></g></svg>