<?xml version="1.0" encoding="utf-8"?>
<!-- Generator: Adobe Illustrator 16.0.0, SVG Export Plug-In . SVG Version: 6.00 Build 0)  -->
<!DOCTYPE svg PUBLIC "-//W3C//DTD SVG 1.1//EN" "http://www.w3.org/Graphics/SVG/1.1/DTD/svg11.dtd">
<svg version="1.1"
	 id="svg12553" xmlns:dc="http://purl.org/dc/elements/1.1/" xmlns:cc="http://creativecommons.org/ns#" xmlns:rdf="http://www.w3.org/1999/02/22-rdf-syntax-ns#" xmlns:svg="http://www.w3.org/2000/svg" xmlns:inkscape="http://www.inkscape.org/namespaces/inkscape" xmlns:sodipodi="http://sodipodi.sourceforge.net/DTD/sodipodi-0.dtd" inkscape:version="0.92.2 5c3e80d, 2017-08-06" sodipodi:docname="SEQ3.svg"
	 xmlns="http://www.w3.org/2000/svg" xmlns:xlink="http://www.w3.org/1999/xlink" x="0px" y="0px" width="29.977px"
	 height="59.211px" viewBox="0 0 29.977 59.211" enable-background="new 0 0 29.977 59.211" xml:space="preserve">
<rect x="1.001" width="27.975" height="59.257"/>
<path fill="#FFFFFF" stroke="#FFFFFF" d="M2.716,18.188c0.562-0.096,1.354-0.168,2.472-0.168c1.127,0,1.937,0.216,2.478,0.647
	c0.516,0.408,0.856,1.08,0.856,1.871s-0.265,1.463-0.744,1.918c-0.624,0.589-1.547,0.853-2.627,0.853
	c-0.234,0-0.456-0.012-0.624-0.036v2.892H2.716V18.188z M4.527,21.857c0.157,0.036,0.354,0.048,0.613,0.048
	c0.971,0,1.57-0.492,1.57-1.318c0-0.743-0.521-1.187-1.426-1.187c-0.373,0-0.625,0.036-0.762,0.072L4.527,21.857L4.527,21.857z"/>
<path fill="#FFFFFF" stroke="#FFFFFF" d="M9.688,18.078h1.835v6.548h3.214v1.535H9.688V18.078z"/>
<path fill="#FFFFFF" stroke="#FFFFFF" d="M17.775,24.089L17.2,26.164h-1.896l2.47-8.083h2.4l2.507,8.083h-1.968l-0.624-2.075H17.775
	z M19.828,22.72l-0.505-1.715c-0.146-0.48-0.288-1.08-0.407-1.56h-0.024c-0.12,0.48-0.24,1.091-0.372,1.559l-0.479,1.715
	L19.828,22.72L19.828,22.72z"/>
<path fill="#FFFFFF" stroke="#FFFFFF" d="M24.496,26.161V22.85l-2.561-4.773h2.088l0.826,1.943c0.252,0.588,0.42,1.021,0.625,1.547
	H25.5c0.184-0.504,0.373-0.972,0.605-1.547l0.812-1.943h2.055l-2.662,4.713v3.37L24.496,26.161L24.496,26.161z"/>
</svg>
