<?xml version="1.0" encoding="utf-8"?>
<!-- Generator: Adobe Illustrator 16.0.0, SVG Export Plug-In . SVG Version: 6.00 Build 0)  -->
<!DOCTYPE svg PUBLIC "-//W3C//DTD SVG 1.1//EN" "http://www.w3.org/Graphics/SVG/1.1/DTD/svg11.dtd">
<svg version="1.1" id="Layer_1" xmlns="http://www.w3.org/2000/svg" xmlns:xlink="http://www.w3.org/1999/xlink" x="0px" y="0px"
	 width="60px" height="380px" viewBox="0 0 60 380" enable-background="new 0 0 60 380" xml:space="preserve">
<rect id="background" width="60" height="380"/>
<g id="decoupe" display="none">
	
		<path display="inline" fill="none" stroke="#ED312D" stroke-width="0.2835" stroke-linecap="round" stroke-linejoin="round" stroke-miterlimit="10" d="
		M17.525,371.131c0,2.613,2.116,4.73,4.732,4.73c2.612,0,4.731-2.117,4.731-4.73s-2.119-4.73-4.731-4.73
		C19.641,366.398,17.525,368.518,17.525,371.131"/>
	
		<path display="inline" fill="none" stroke="#ED312D" stroke-width="0.2835" stroke-linecap="round" stroke-linejoin="round" stroke-miterlimit="10" d="
		M17.525,8.873c0,2.613,2.116,4.731,4.732,4.731c2.612,0,4.731-2.118,4.731-4.731c0-2.614-2.119-4.732-4.731-4.732
		C19.641,4.14,17.525,6.258,17.525,8.873"/>
	
		<rect x="0.078" display="inline" fill="none" stroke="#ED312D" stroke-width="0.2835" stroke-linecap="round" stroke-linejoin="round" stroke-miterlimit="10" width="59.145" height="380.002"/>
	
		<path display="inline" fill="none" stroke="#ED312D" stroke-width="0.2835" stroke-linecap="round" stroke-linejoin="round" stroke-miterlimit="10" d="
		M33.499,328.547c0,5.146,4.171,9.316,9.313,9.316c5.146,0,9.312-4.172,9.312-9.316s-4.169-9.314-9.312-9.314
		C37.67,319.23,33.499,323.402,33.499,328.547"/>
	
		<path display="inline" fill="none" stroke="#ED312D" stroke-width="0.2835" stroke-linecap="round" stroke-linejoin="round" stroke-miterlimit="10" d="
		M7.175,328.547c0,5.146,4.17,9.316,9.315,9.316c5.145,0,9.314-4.172,9.314-9.316s-4.169-9.314-9.314-9.314
		C11.345,319.232,7.175,323.402,7.175,328.547"/>
	
		<path display="inline" fill="none" stroke="#ED312D" stroke-width="0.2835" stroke-linecap="round" stroke-linejoin="round" stroke-miterlimit="10" d="
		M33.499,290.99c0,5.146,4.171,9.316,9.313,9.316c5.146,0,9.312-4.183,9.312-9.316c0-5.145-4.169-9.315-9.312-9.315
		C37.669,281.675,33.499,285.846,33.499,290.99"/>
	
		<path display="inline" fill="none" stroke="#ED312D" stroke-width="0.2835" stroke-linecap="round" stroke-linejoin="round" stroke-miterlimit="10" d="
		M7.175,290.99c0,5.146,4.17,9.316,9.315,9.316c5.145,0,9.314-4.183,9.314-9.316c0-5.145-4.169-9.315-9.314-9.315
		C11.345,281.675,7.175,285.846,7.175,290.99"/>
	
		<path display="inline" fill="none" stroke="#ED312D" stroke-width="0.2835" stroke-linecap="round" stroke-linejoin="round" stroke-miterlimit="10" d="
		M24.918,266.578c0,2.613,2.117,4.73,4.731,4.73c2.613,0,4.732-2.117,4.732-4.73c0-2.614-2.119-4.73-4.732-4.73
		S24.918,263.964,24.918,266.578"/>
	
		<path display="inline" fill="none" stroke="#ED312D" stroke-width="0.2835" stroke-linecap="round" stroke-linejoin="round" stroke-miterlimit="10" d="
		M33.499,227.145c0,5.146,4.171,9.314,9.313,9.314c5.146,0,9.312-4.171,9.312-9.314c0-5.145-4.169-9.312-9.312-9.312
		C37.67,217.829,33.499,222,33.499,227.145"/>
	
		<path display="inline" fill="none" stroke="#ED312D" stroke-width="0.2835" stroke-linecap="round" stroke-linejoin="round" stroke-miterlimit="10" d="
		M7.175,227.145c0,5.146,4.17,9.314,9.315,9.314c5.145,0,9.314-4.171,9.314-9.314c0-5.145-4.169-9.312-9.314-9.312
		C11.345,217.83,7.175,222,7.175,227.145"/>
	
		<path display="inline" fill="none" stroke="#ED312D" stroke-width="0.2835" stroke-linecap="round" stroke-linejoin="round" stroke-miterlimit="10" d="
		M33.499,189.587c0,5.144,4.171,9.313,9.313,9.313c5.146,0,9.312-4.17,9.312-9.313c0-5.144-4.169-9.316-9.312-9.316
		C37.669,180.271,33.499,184.443,33.499,189.587"/>
	
		<path display="inline" fill="none" stroke="#ED312D" stroke-width="0.2835" stroke-linecap="round" stroke-linejoin="round" stroke-miterlimit="10" d="
		M7.175,189.587c0,5.144,4.17,9.313,9.315,9.313c5.145,0,9.314-4.17,9.314-9.313c0-5.144-4.169-9.316-9.314-9.316
		C11.345,180.271,7.175,184.443,7.175,189.587"/>
	
		<path display="inline" fill="none" stroke="#ED312D" stroke-width="0.2835" stroke-linecap="round" stroke-linejoin="round" stroke-miterlimit="10" d="
		M24.918,165.175c0,2.613,2.117,4.732,4.731,4.732c2.613,0,4.732-2.119,4.732-4.732c0-2.613-2.119-4.731-4.732-4.731
		S24.918,162.562,24.918,165.175"/>
	
		<path display="inline" fill="none" stroke="#ED312D" stroke-width="0.2835" stroke-linecap="round" stroke-linejoin="round" stroke-miterlimit="10" d="
		M33.499,125.741c0,5.145,4.171,9.316,9.313,9.316c5.146,0,9.312-4.171,9.312-9.316c0-5.144-4.169-9.314-9.312-9.314
		C37.67,116.426,33.499,120.597,33.499,125.741"/>
	
		<path display="inline" fill="none" stroke="#ED312D" stroke-width="0.2835" stroke-linecap="round" stroke-linejoin="round" stroke-miterlimit="10" d="
		M7.175,125.741c0,5.145,4.17,9.316,9.315,9.316c5.145,0,9.314-4.171,9.314-9.316c0-5.144-4.169-9.314-9.314-9.314
		C11.345,116.427,7.175,120.597,7.175,125.741"/>
	
		<path display="inline" fill="none" stroke="#ED312D" stroke-width="0.2835" stroke-linecap="round" stroke-linejoin="round" stroke-miterlimit="10" d="
		M33.499,88.184c0,5.145,4.171,9.315,9.313,9.315c5.146,0,9.312-4.17,9.312-9.315s-4.169-9.314-9.312-9.314
		C37.669,78.87,33.499,83.04,33.499,88.184"/>
	
		<path display="inline" fill="none" stroke="#ED312D" stroke-width="0.2835" stroke-linecap="round" stroke-linejoin="round" stroke-miterlimit="10" d="
		M7.175,88.184c0,5.145,4.17,9.315,9.315,9.315c5.145,0,9.314-4.17,9.314-9.315s-4.169-9.314-9.314-9.314
		C11.345,78.87,7.175,83.04,7.175,88.184"/>
	
		<path display="inline" fill="none" stroke="#ED312D" stroke-width="0.2835" stroke-linecap="round" stroke-linejoin="round" stroke-miterlimit="10" d="
		M24.918,63.773c0,2.613,2.117,4.731,4.731,4.731c2.613,0,4.732-2.118,4.732-4.731s-2.119-4.732-4.732-4.732
		S24.918,61.16,24.918,63.773"/>
</g>
<g id="widgets" display="none">
	
		<rect id="PJ301_11_" x="4.99" y="76.917" display="inline" fill="none" stroke="#000000" stroke-miterlimit="10" width="23" height="23"/>
	
		<rect id="PJ301_9_" x="31.314" y="76.917" display="inline" fill="none" stroke="#000000" stroke-miterlimit="10" width="23" height="23"/>
	
		<rect id="PJ301_10_" x="4.99" y="114.241" display="inline" fill="none" stroke="#000000" stroke-miterlimit="10" width="23" height="23"/>
	
		<rect id="PJ301_8_" x="31.314" y="114.241" display="inline" fill="none" stroke="#000000" stroke-miterlimit="10" width="23" height="23"/>
	
		<rect id="PJ301_4_" x="4.99" y="177.875" display="inline" fill="none" stroke="#000000" stroke-miterlimit="10" width="23" height="23"/>
	
		<rect id="PJ301_3_" x="31.314" y="177.875" display="inline" fill="none" stroke="#000000" stroke-miterlimit="10" width="23" height="23"/>
	
		<rect id="PJ301_2_" x="4.99" y="215.2" display="inline" fill="none" stroke="#000000" stroke-miterlimit="10" width="23" height="23"/>
	
		<rect id="PJ301_1_" x="31.314" y="215.2" display="inline" fill="none" stroke="#000000" stroke-miterlimit="10" width="23" height="23"/>
	
		<rect id="PJ301_12_" x="4.99" y="279.896" display="inline" fill="none" stroke="#000000" stroke-miterlimit="10" width="23" height="23"/>
	
		<rect id="PJ301_7_" x="31.314" y="279.896" display="inline" fill="none" stroke="#000000" stroke-miterlimit="10" width="23" height="23"/>
	
		<rect id="PJ301_6_" x="4.99" y="317.223" display="inline" fill="none" stroke="#000000" stroke-miterlimit="10" width="23" height="23"/>
	
		<rect id="PJ301_5_" x="31.314" y="317.223" display="inline" fill="none" stroke="#000000" stroke-miterlimit="10" width="23" height="23"/>
	
		<rect id="SmallLight" x="26.149" y="60.272" display="inline" fill="none" stroke="#000000" stroke-miterlimit="10" width="7" height="7"/>
	
		<rect id="SmallLight_1_" x="26.149" y="161.676" display="inline" fill="none" stroke="#000000" stroke-miterlimit="10" width="7" height="7"/>
	
		<rect id="SmallLight_2_" x="26.149" y="263.078" display="inline" fill="none" stroke="#000000" stroke-miterlimit="10" width="7" height="7"/>
</g>
<g>
	<path fill="#FFFFFF" stroke="#FFFFFF" stroke-width="0.25" stroke-miterlimit="10" d="M29.05,367.67
		c-0.379,0.168-1.092,0.309-1.905,0.309c-2.214,0-3.628-1.346-3.628-3.502c0-2.004,1.373-3.643,3.922-3.643
		c0.561,0,1.177,0.1,1.625,0.268l-0.336,1.582c-0.252-0.104-0.631-0.211-1.19-0.211c-1.12,0-1.849,0.799-1.835,1.92
		c0,1.26,0.84,1.92,1.877,1.92c0.504,0,0.896-0.086,1.219-0.211L29.05,367.67z"/>
	<path fill="#FFFFFF" stroke="#FFFFFF" stroke-width="0.25" stroke-miterlimit="10" d="M30.965,362.066h1.273l0.043-0.448
		c0.111-0.938,0.63-3.039,3.039-3.039c0.477,0,0.91,0.098,1.162,0.224l-0.336,1.514c-0.168-0.062-0.396-0.127-0.658-0.127
		c-0.7,0-1.036,0.506-1.12,1.271l-0.084,0.605h1.429v1.482h-1.604l-0.312,2.493c-0.211,1.709-0.785,3.063-2.771,3.063
		c-0.571-0.014-1.062-0.125-1.271-0.234l0.293-1.48c0.211,0.084,0.435,0.108,0.659,0.108c0.697-0.019,0.938-0.396,1.141-1.985
		l0.229-1.965h-1.104v-1.482H30.965L30.965,362.066z"/>
</g>
<g>
	<path fill="#FFFFFF" stroke="#FFFFFF" stroke-width="0.5" stroke-miterlimit="10" d="M12.87,297.395v6.066h-1.375v-6.066H12.87z"/>
	<path fill="#FFFFFF" stroke="#FFFFFF" stroke-width="0.5" stroke-miterlimit="10" d="M14.058,303.463v-6.066h1.604l1.26,2.229
		c0.358,0.646,0.72,1.396,0.989,2.08h0.026c-0.09-0.802-0.116-1.621-0.116-2.522v-1.771h1.26v6.063h-1.439l-1.295-2.352
		c-0.36-0.646-0.757-1.438-1.055-2.146l-0.026,0.012c0.036,0.802,0.054,1.652,0.054,2.646v1.824h-1.262V303.463L14.058,303.463z"/>
</g>
<circle fill="#FFFFFF" stroke="#595A5A" stroke-width="10" stroke-miterlimit="10" cx="44.479" cy="320.773" r="9.395"/>
<circle fill="#FFFFFF" stroke="#595A5A" stroke-width="10" stroke-miterlimit="10" cx="44.479" cy="346.787" r="9.395"/>
<g>
	<path fill="#FFFFFF" stroke="#FFFFFF" stroke-width="0.5" stroke-miterlimit="10" d="M41.895,300.365
		c0,1.988-1.207,3.193-2.979,3.193c-1.803,0-2.854-1.357-2.854-3.093c0-1.812,1.16-3.188,2.953-3.188
		C40.876,297.296,41.895,298.689,41.895,300.365z M37.509,300.445c0,1.188,0.56,2.025,1.478,2.025c0.931,0,1.459-0.888,1.459-2.062
		c0-1.092-0.521-2.025-1.469-2.025C38.05,298.386,37.509,299.268,37.509,300.445z"/>
	<path fill="#FFFFFF" stroke="#FFFFFF" stroke-width="0.5" stroke-miterlimit="10" d="M44.16,297.395v3.492
		c0,1.045,0.396,1.575,1.099,1.575c0.729,0,1.115-0.521,1.115-1.575v-3.492h1.369v3.401c0,1.856-0.945,2.765-2.529,2.765
		c-1.528,0-2.432-0.847-2.432-2.775v-3.391H44.16L44.16,297.395z"/>
	<path fill="#FFFFFF" stroke="#FFFFFF" stroke-width="0.5" stroke-miterlimit="10" d="M50.102,298.548h-1.631v-1.151h4.663v1.151
		h-1.655v4.914h-1.377V298.548L50.102,298.548z"/>
</g>
<g>
	<path fill="#FFFFFF" stroke="#FFFFFF" stroke-miterlimit="10" d="M22.606,25.216c-0.336,0.168-1.092,0.348-2.075,0.348
		c-2.794,0-4.233-1.739-4.233-4.042c0-2.758,1.967-4.293,4.413-4.293c0.948,0,1.667,0.192,1.991,0.36l-0.372,1.451
		c-0.371-0.156-0.888-0.3-1.535-0.3c-1.451,0-2.578,0.875-2.578,2.674c0,1.619,0.959,2.639,2.591,2.639
		c0.552,0,1.163-0.12,1.522-0.264L22.606,25.216z"/>
	<path fill="#FFFFFF" stroke="#FFFFFF" stroke-miterlimit="10" d="M25.632,17.36v4.653c0,1.391,0.528,2.099,1.464,2.099
		c0.959,0,1.487-0.672,1.487-2.099V17.36h1.822v4.534c0,2.494-1.259,3.682-3.37,3.682c-2.039,0-3.238-1.127-3.238-3.706v-4.51
		H25.632z"/>
	<path fill="#FFFFFF" stroke="#FFFFFF" stroke-miterlimit="10" d="M33.553,18.896h-2.171V17.36h6.214v1.535h-2.207v6.548h-1.836
		V18.896z"/>
	<path fill="#FFFFFF" stroke="#FFFFFF" stroke-miterlimit="10" d="M38.521,23.562c0.49,0.252,1.246,0.503,2.022,0.503
		c0.843,0,1.284-0.348,1.284-0.875c0-0.503-0.387-0.792-1.354-1.139c-1.347-0.468-2.222-1.211-2.222-2.387
		c0-1.379,1.149-2.435,3.06-2.435c0.912,0,1.584,0.192,2.062,0.408l-0.406,1.475c-0.323-0.156-0.899-0.384-1.69-0.384
		s-1.176,0.36-1.176,0.78c0,0.516,0.457,0.743,1.5,1.139c1.428,0.528,2.1,1.271,2.1,2.411c0,1.355-1.043,2.507-3.264,2.507
		c-0.924,0-1.834-0.24-2.291-0.492L38.521,23.562z"/>
</g>
<g>
	<rect x="44.219" y="112.927" fill="#595A5A" width="1.586" height="152.175"/>
</g>
<g>
	<rect x="14.2" y="112.927" fill="#595A5A" width="1.586" height="152.175"/>
</g>
<line fill="none" stroke="#595A5A" stroke-width="1.586" stroke-linecap="square" stroke-miterlimit="10" x1="14.934" y1="113.036" x2="44.984" y2="113.036"/>
<rect x="3.5" y="216.174" width="53.833" height="30.18"/>
<g>
	<path stroke="#000000" stroke-width="0.5" stroke-miterlimit="10" d="M-48.936,218.126h1.377v4.915h2.413v1.152h-3.79V218.126z"/>
	<path stroke="#000000" stroke-width="0.5" stroke-miterlimit="10" d="M-40.223,224.021c-0.252,0.127-0.819,0.262-1.557,0.262
		c-2.098,0-3.178-1.307-3.178-3.034c0-2.069,1.477-3.224,3.313-3.224c0.711,0,1.251,0.146,1.495,0.271l-0.279,1.089
		c-0.279-0.115-0.666-0.225-1.152-0.225c-1.089,0-1.936,0.656-1.936,2.007c0,1.216,0.72,1.979,1.945,1.979
		c0.414,0,0.873-0.09,1.143-0.196L-40.223,224.021z"/>
</g>
<g>
	<path stroke="#000000" stroke-width="0.5" stroke-miterlimit="10" d="M71.383,218.126v2.331h2.26v-2.331h1.369v6.067h-1.369v-2.539
		h-2.26v2.539h-1.377v-6.067H71.383z"/>
	<path stroke="#000000" stroke-width="0.5" stroke-miterlimit="10" d="M80.663,224.021c-0.252,0.127-0.819,0.262-1.56,0.262
		c-2.1,0-3.18-1.307-3.18-3.034c0-2.069,1.479-3.224,3.312-3.224c0.712,0,1.252,0.146,1.494,0.271l-0.278,1.089
		c-0.277-0.115-0.666-0.225-1.15-0.225c-1.09,0-1.938,0.656-1.938,2.007c0,1.216,0.724,1.979,1.945,1.979
		c0.414,0,0.873-0.09,1.145-0.196L80.663,224.021z"/>
</g>
<g>
	<path fill="#FFFFFF" stroke="#FFFFFF" stroke-width="0.5" stroke-miterlimit="10" d="M21.83,93.266h1.377v4.915h2.413v1.152h-3.79
		V93.266z"/>
	<path fill="#FFFFFF" stroke="#FFFFFF" stroke-width="0.5" stroke-miterlimit="10" d="M27.806,93.266v6.067h-1.378v-6.067H27.806z"
		/>
	<path fill="#FFFFFF" stroke="#FFFFFF" stroke-width="0.5" stroke-miterlimit="10" d="M28.993,99.333v-6.067h1.603l1.262,2.224
		c0.359,0.639,0.723,1.396,0.988,2.079h0.027c-0.09-0.801-0.117-1.62-0.117-2.529v-1.773h1.262v6.067H32.58l-1.296-2.341
		c-0.36-0.648-0.761-1.432-1.054-2.143l-0.03,0.008c0.035,0.802,0.054,1.657,0.054,2.647v1.827L28.993,99.333L28.993,99.333z"/>
	<path fill="#FFFFFF" stroke="#FFFFFF" stroke-width="0.5" stroke-miterlimit="10" d="M35.203,93.266h1.359v2.683h0.023
		c0.139-0.234,0.279-0.45,0.414-0.666l1.377-2.017h1.688l-2.008,2.583l2.111,3.484h-1.602l-1.484-2.62l-0.521,0.64v1.98h-1.356
		L35.203,93.266L35.203,93.266z"/>
</g>
<text transform="matrix(1 0 0 1 72.0938 141.335)" font-family="'MyriadPro-Bold'" font-size="9">LINK</text>
<text transform="matrix(1 0 0 1 72.0938 141.335)" fill="none" stroke="#000000" stroke-width="0.5" stroke-miterlimit="10" font-family="'MyriadPro-Bold'" font-size="9">LINK</text>
<g>
	<path fill="#FFFFFF" stroke="#FFFFFF" stroke-width="0.75" stroke-miterlimit="10" d="M7.121,218.895h0.696v4.807h2.303v0.584
		H7.121V218.895z"/>
	<path fill="#FFFFFF" stroke="#FFFFFF" stroke-width="0.75" stroke-miterlimit="10" d="M15.591,221.532
		c0,1.854-1.127,2.839-2.503,2.839c-1.423,0-2.423-1.104-2.423-2.734c0-1.711,1.063-2.83,2.503-2.83
		C14.639,218.807,15.591,219.934,15.591,221.532z M11.409,221.621c0,1.15,0.624,2.184,1.719,2.184c1.104,0,1.727-1.017,1.727-2.24
		c0-1.069-0.56-2.188-1.719-2.188C11.984,219.374,11.409,220.438,11.409,221.621z"/>
	<path fill="#FFFFFF" stroke="#FFFFFF" stroke-width="0.75" stroke-miterlimit="10" d="M17.777,224.283l-1.367-5.389h0.735
		l0.64,2.727c0.16,0.671,0.304,1.343,0.4,1.861h0.016c0.088-0.534,0.256-1.174,0.439-1.871l0.72-2.717h0.728l0.656,2.732
		c0.152,0.641,0.296,1.279,0.376,1.848h0.016c0.112-0.593,0.264-1.19,0.432-1.863l0.712-2.717h0.711l-1.527,5.389h-0.728
		l-0.68-2.807c-0.168-0.688-0.28-1.217-0.352-1.761h-0.016c-0.096,0.535-0.216,1.062-0.416,1.761l-0.768,2.807H17.777
		L17.777,224.283z"/>
	<path fill="#FFFFFF" stroke="#FFFFFF" stroke-width="0.75" stroke-miterlimit="10" d="M11.863,233.707
		c-0.256,0.128-0.768,0.256-1.423,0.256c-1.519,0-2.663-0.96-2.663-2.727c0-1.688,1.144-2.83,2.814-2.83
		c0.672,0,1.096,0.144,1.279,0.238l-0.167,0.567c-0.264-0.129-0.64-0.226-1.087-0.226c-1.264,0-2.103,0.809-2.103,2.224
		c0,1.317,0.76,2.167,2.071,2.167c0.424,0,0.855-0.088,1.135-0.225L11.863,233.707z"/>
	<path fill="#FFFFFF" stroke="#FFFFFF" stroke-width="0.75" stroke-miterlimit="10" d="M13.833,228.494v3.189
		c0,1.207,0.536,1.719,1.255,1.719c0.799,0,1.311-0.527,1.311-1.719v-3.189h0.704v3.142c0,1.655-0.872,2.335-2.039,2.335
		c-1.104,0-1.935-0.632-1.935-2.303v-3.174H13.833z"/>
	<path fill="#FFFFFF" stroke="#FFFFFF" stroke-width="0.75" stroke-miterlimit="10" d="M19.736,229.085h-1.639v-0.591h3.99v0.591
		H20.44v4.798h-0.704V229.085z"/>
	<path fill="#FFFFFF" stroke="#FFFFFF" stroke-width="0.75" stroke-miterlimit="10" d="M5.97,238.096h2.902v0.582H6.665v1.791h2.039
		v0.576H6.665v2.438H5.97V238.096z"/>
	<path fill="#FFFFFF" stroke="#FFFFFF" stroke-width="0.75" stroke-miterlimit="10" d="M10.266,238.166
		c0.352-0.07,0.855-0.111,1.335-0.111c0.744,0,1.224,0.137,1.559,0.439c0.272,0.24,0.424,0.607,0.424,1.023
		c0,0.711-0.448,1.184-1.015,1.375v0.022c0.416,0.146,0.664,0.526,0.792,1.087c0.176,0.752,0.304,1.271,0.416,1.479h-0.72
		c-0.088-0.151-0.208-0.614-0.359-1.287c-0.16-0.743-0.448-1.022-1.08-1.049h-0.656v2.336h-0.695L10.266,238.166L10.266,238.166z
		 M10.961,240.621h0.712c0.743,0,1.215-0.408,1.215-1.023c0-0.695-0.503-1-1.239-1.008c-0.335,0-0.576,0.032-0.688,0.064V240.621z"
		/>
	<path fill="#FFFFFF" stroke="#FFFFFF" stroke-width="0.75" stroke-miterlimit="10" d="M17.76,240.957h-2.095v1.941H18v0.584h-3.03
		v-5.39h2.91v0.583h-2.215v1.703h2.095V240.957z"/>
	<path fill="#FFFFFF" stroke="#FFFFFF" stroke-width="0.75" stroke-miterlimit="10" d="M23.751,244.275
		c-0.728-0.192-1.439-0.408-2.063-0.625c-0.112-0.039-0.224-0.08-0.328-0.08c-1.279-0.047-2.375-0.99-2.375-2.728
		c0-1.727,1.056-2.838,2.511-2.838c1.463,0,2.415,1.136,2.415,2.728c0,1.384-0.64,2.271-1.535,2.582v0.033
		c0.536,0.135,1.119,0.264,1.575,0.344L23.751,244.275z M23.175,240.766c0-1.08-0.56-2.189-1.703-2.189
		c-1.175,0-1.751,1.087-1.743,2.255c-0.008,1.146,0.624,2.175,1.711,2.175C22.552,243.004,23.175,241.996,23.175,240.766z"/>
</g>
<g>
	<path fill="#FFFFFF" stroke="#FFFFFF" stroke-width="0.75" stroke-miterlimit="10" d="M36.752,218.895v2.256h2.605v-2.256h0.703
		v5.391h-0.703v-2.526h-2.605v2.526h-0.695v-5.391H36.752L36.752,218.895z"/>
	<path fill="#FFFFFF" stroke="#FFFFFF" stroke-width="0.75" stroke-miterlimit="10" d="M42.367,218.895v5.391h-0.695v-5.391H42.367
		L42.367,218.895z"/>
	<path fill="#FFFFFF" stroke="#FFFFFF" stroke-width="0.75" stroke-miterlimit="10" d="M48.086,224.043
		c-0.312,0.111-0.928,0.296-1.654,0.296c-0.814,0-1.488-0.208-2.016-0.711c-0.464-0.448-0.752-1.168-0.752-2.007
		c0.008-1.607,1.111-2.783,2.918-2.783c0.624,0,1.111,0.137,1.344,0.248l-0.168,0.566c-0.287-0.127-0.646-0.23-1.191-0.23
		c-1.312,0-2.166,0.814-2.166,2.167c0,1.367,0.824,2.175,2.078,2.175c0.457,0,0.77-0.062,0.93-0.145v-1.605h-1.098v-0.561h1.775
		V224.043z"/>
	<path fill="#FFFFFF" stroke="#FFFFFF" stroke-width="0.75" stroke-miterlimit="10" d="M50.248,218.895v2.256h2.605v-2.256h0.703
		v5.391h-0.703v-2.526h-2.605v2.526h-0.696v-5.391H50.248L50.248,218.895z"/>
	<path fill="#FFFFFF" stroke="#FFFFFF" stroke-width="0.75" stroke-miterlimit="10" d="M41.882,233.707
		c-0.256,0.128-0.769,0.256-1.423,0.256c-1.52,0-2.663-0.96-2.663-2.727c0-1.688,1.144-2.83,2.813-2.83
		c0.673,0,1.097,0.144,1.279,0.238l-0.166,0.567c-0.267-0.129-0.642-0.226-1.09-0.226c-1.264,0-2.104,0.809-2.104,2.224
		c0,1.317,0.761,2.167,2.07,2.167c0.424,0,0.854-0.088,1.135-0.225L41.882,233.707z"/>
	<path fill="#FFFFFF" stroke="#FFFFFF" stroke-width="0.75" stroke-miterlimit="10" d="M43.852,228.494v3.189
		c0,1.207,0.537,1.719,1.256,1.719c0.801,0,1.312-0.527,1.312-1.719v-3.189h0.704v3.142c0,1.655-0.871,2.335-2.039,2.335
		c-1.104,0-1.937-0.632-1.937-2.303v-3.174H43.852z"/>
	<path fill="#FFFFFF" stroke="#FFFFFF" stroke-width="0.75" stroke-miterlimit="10" d="M49.755,229.085h-1.639v-0.591h3.989v0.591
		h-1.646v4.798h-0.704V229.085z"/>
	<path fill="#FFFFFF" stroke="#FFFFFF" stroke-width="0.75" stroke-miterlimit="10" d="M35.988,238.096h2.902v0.582h-2.207v1.791
		h2.039v0.576h-2.039v2.438h-0.695V238.096z"/>
	<path fill="#FFFFFF" stroke="#FFFFFF" stroke-width="0.75" stroke-miterlimit="10" d="M40.284,238.166
		c0.353-0.07,0.854-0.111,1.335-0.111c0.744,0,1.224,0.137,1.561,0.439c0.271,0.24,0.424,0.607,0.424,1.023
		c0,0.711-0.449,1.184-1.017,1.375v0.022c0.416,0.146,0.664,0.526,0.792,1.087c0.176,0.752,0.305,1.271,0.415,1.479h-0.72
		c-0.088-0.151-0.207-0.614-0.359-1.287c-0.16-0.743-0.447-1.022-1.078-1.049H40.98v2.336h-0.695L40.284,238.166L40.284,238.166z
		 M40.979,240.621h0.713c0.742,0,1.216-0.408,1.216-1.023c0-0.695-0.505-1-1.239-1.008c-0.335,0-0.575,0.032-0.688,0.064v1.967
		H40.979z"/>
	<path fill="#FFFFFF" stroke="#FFFFFF" stroke-width="0.75" stroke-miterlimit="10" d="M47.777,240.957h-2.094v1.941h2.334v0.584
		h-3.029v-5.39h2.91v0.583h-2.215v1.703h2.094V240.957z"/>
	<path fill="#FFFFFF" stroke="#FFFFFF" stroke-width="0.75" stroke-miterlimit="10" d="M53.77,244.275
		c-0.728-0.192-1.438-0.408-2.062-0.625c-0.112-0.039-0.224-0.08-0.328-0.08c-1.278-0.047-2.375-0.99-2.375-2.728
		c0-1.727,1.056-2.838,2.511-2.838c1.465,0,2.416,1.136,2.416,2.728c0,1.384-0.641,2.271-1.535,2.582v0.033
		c0.535,0.135,1.119,0.264,1.574,0.344L53.77,244.275z M53.193,240.766c0-1.08-0.561-2.189-1.702-2.189
		c-1.177,0-1.751,1.087-1.743,2.255c-0.008,1.146,0.624,2.175,1.711,2.175C52.57,243.004,53.193,241.996,53.193,240.766z"/>
</g>
<g>
	<path fill="#FFFFFF" stroke="#FFFFFF" stroke-width="0.5" stroke-miterlimit="10" d="M16.478,40.297h3.294v1h-2.071v1.231h1.935
		v0.991h-1.935v2.167h-1.223V40.297z"/>
	<path fill="#FFFFFF" stroke="#FFFFFF" stroke-width="0.5" stroke-miterlimit="10" d="M22.317,40.297v5.389h-1.223v-5.389H22.317z"
		/>
	<path fill="#FFFFFF" stroke="#FFFFFF" stroke-width="0.5" stroke-miterlimit="10" d="M23.773,40.297h1.223v4.366h2.143v1.023
		h-3.366V40.297z"/>
	<path fill="#FFFFFF" stroke="#FFFFFF" stroke-width="0.5" stroke-miterlimit="10" d="M28.469,41.321h-1.447v-1.023h4.142v1.023
		h-1.472v4.366h-1.223V41.321z"/>
	<path fill="#FFFFFF" stroke="#FFFFFF" stroke-width="0.5" stroke-miterlimit="10" d="M35.42,43.408h-1.982v1.279h2.215v1h-3.438
		v-5.389h3.326v1h-2.104v1.12h1.982V43.408L35.42,43.408z"/>
	<path fill="#FFFFFF" stroke="#FFFFFF" stroke-width="0.5" stroke-miterlimit="10" d="M36.887,40.37
		c0.391-0.064,0.975-0.112,1.622-0.112c0.8,0,1.359,0.12,1.743,0.424c0.318,0.256,0.495,0.632,0.495,1.127
		c0,0.688-0.487,1.159-0.951,1.327v0.024c0.376,0.152,0.584,0.512,0.72,1.007c0.168,0.607,0.336,1.311,0.44,1.519h-1.248
		c-0.088-0.152-0.216-0.592-0.376-1.255c-0.145-0.671-0.376-0.855-0.871-0.863h-0.368v2.119h-1.206V40.37z M38.093,42.688h0.48
		c0.606,0,0.967-0.304,0.967-0.775c0-0.496-0.336-0.744-0.896-0.751c-0.297,0-0.465,0.024-0.554,0.04L38.093,42.688L38.093,42.688z"
		/>
	<path fill="#FFFFFF" stroke="#FFFFFF" stroke-width="0.5" stroke-miterlimit="10" d="M42.068,44.431
		c0.328,0.168,0.832,0.336,1.353,0.336c0.56,0,0.854-0.232,0.854-0.583c0-0.336-0.256-0.528-0.903-0.76
		c-0.896-0.312-1.479-0.808-1.479-1.591c0-0.919,0.77-1.623,2.039-1.623c0.607,0,1.055,0.128,1.375,0.272l-0.271,0.983
		c-0.218-0.104-0.601-0.256-1.128-0.256c-0.528,0-0.784,0.24-0.784,0.52c0,0.344,0.306,0.496,1,0.76
		c0.951,0.352,1.399,0.848,1.399,1.607c0,0.904-0.696,1.671-2.176,1.671c-0.615,0-1.225-0.16-1.527-0.328L42.068,44.431z"/>
</g>
<g>
	
		<line fill="none" stroke="#000000" stroke-width="0.5" stroke-miterlimit="10" x1="-44.574" y1="82.822" x2="-15.938" y2="54.187"/>
	
		<line fill="none" stroke="#000000" stroke-width="0.5" stroke-miterlimit="10" x1="-15.939" y1="82.824" x2="-44.576" y2="54.187"/>
	
		<line fill="none" stroke="#000000" stroke-width="0.5" stroke-miterlimit="10" x1="-30.255" y1="88.753" x2="-30.258" y2="48.257"/>
	
		<line fill="none" stroke="#000000" stroke-width="0.5" stroke-miterlimit="10" x1="-10.006" y1="68.508" x2="-50.504" y2="68.504"/>
</g>
<circle fill="#FFFFFF" stroke="#595A5A" stroke-width="14" stroke-miterlimit="10" cx="30.479" cy="68.696" r="9.395"/>
<g>
	<path fill="#FFFFFF" stroke="#FFFFFF" stroke-miterlimit="10" d="M20.917,83.758h-0.012l-0.744,0.354l-0.15-0.684l1.031-0.48h0.756
		v3.898h-0.882L20.917,83.758L20.917,83.758z"/>
</g>
<g>
	<path fill="#FFFFFF" stroke="#FFFFFF" stroke-miterlimit="10" d="M11.287,75.838v-0.552l0.503-0.456
		c0.852-0.762,1.266-1.199,1.277-1.655c0-0.318-0.192-0.57-0.642-0.57c-0.335,0-0.629,0.168-0.833,0.324l-0.258-0.654
		c0.294-0.222,0.75-0.402,1.277-0.402c0.881,0,1.367,0.516,1.367,1.223c0,0.654-0.474,1.176-1.038,1.679l-0.359,0.3v0.012h1.468
		v0.75L11.287,75.838L11.287,75.838z"/>
</g>
<g>
	<path fill="#FFFFFF" stroke="#FFFFFF" stroke-miterlimit="10" d="M12.193,61.938c0.162,0.084,0.534,0.24,0.906,0.24
		c0.473,0,0.713-0.228,0.713-0.521c0-0.384-0.384-0.558-0.786-0.558h-0.372v-0.654h0.354c0.306-0.006,0.695-0.12,0.695-0.45
		c0-0.234-0.191-0.408-0.575-0.408c-0.318,0-0.653,0.138-0.815,0.234l-0.186-0.66c0.234-0.15,0.702-0.294,1.206-0.294
		c0.833,0,1.295,0.438,1.295,0.972c0,0.414-0.233,0.737-0.714,0.905v0.012c0.468,0.084,0.846,0.438,0.846,0.947
		c0,0.689-0.605,1.193-1.595,1.193c-0.504,0-0.93-0.132-1.157-0.276L12.193,61.938z"/>
</g>
<path fill="#FFFFFF" stroke="#FFFFFF" stroke-miterlimit="10" d="M24.185,53.826v-0.93h-1.727v-0.593l1.476-2.375h1.115v2.285h0.468
	v0.684h-0.468v0.93L24.185,53.826L24.185,53.826z M24.185,52.212v-0.863c0-0.234,0.012-0.474,0.03-0.726h-0.024
	c-0.126,0.252-0.228,0.479-0.36,0.726l-0.522,0.852v0.012L24.185,52.212L24.185,52.212z"/>
<path fill="#FFFFFF" stroke="#FFFFFF" stroke-miterlimit="10" d="M38.623,50.676h-1.512l-0.084,0.6
	c0.084-0.012,0.156-0.012,0.252-0.012c0.371,0,0.75,0.084,1.025,0.282c0.295,0.198,0.475,0.522,0.475,0.978
	c0,0.726-0.625,1.367-1.674,1.367c-0.476,0-0.869-0.108-1.084-0.222l0.16-0.684c0.176,0.084,0.526,0.192,0.883,0.192
	c0.377,0,0.777-0.18,0.777-0.594c0-0.402-0.316-0.648-1.098-0.648c-0.217,0-0.365,0.012-0.527,0.036l0.26-2.045h2.146L38.623,50.676
	L38.623,50.676z"/>
<path fill="#FFFFFF" stroke="#FFFFFF" stroke-miterlimit="10" d="M48.35,60.582c-0.104-0.006-0.211,0-0.354,0.012
	c-0.811,0.066-1.169,0.48-1.271,0.936h0.02c0.189-0.198,0.462-0.312,0.826-0.312c0.654,0,1.205,0.462,1.205,1.271
	c0,0.773-0.594,1.409-1.438,1.409c-1.038,0-1.548-0.773-1.548-1.703c0-0.731,0.271-1.343,0.688-1.733
	c0.392-0.354,0.896-0.546,1.506-0.576c0.168-0.012,0.274-0.012,0.365-0.006V60.582L48.35,60.582z M47.852,62.537
	c0-0.36-0.191-0.671-0.582-0.671c-0.246,0-0.449,0.15-0.539,0.348c-0.023,0.048-0.037,0.12-0.037,0.228
	c0.02,0.414,0.218,0.786,0.631,0.786C47.646,63.227,47.852,62.933,47.852,62.537z"/>
<path fill="#FFFFFF" stroke="#FFFFFF" stroke-miterlimit="10" d="M49.796,71.94v0.576l-1.606,3.322h-0.965l1.605-3.136V72.69h-1.786
	v-0.75H49.796z"/>
<path fill="#FFFFFF" stroke="#FFFFFF" stroke-miterlimit="10" d="M39.076,84.823c0-0.468,0.27-0.792,0.695-0.978v-0.018
	c-0.379-0.191-0.563-0.509-0.563-0.851c0-0.66,0.593-1.098,1.373-1.098c0.911,0,1.289,0.528,1.289,1.001
	c0,0.336-0.181,0.666-0.563,0.857v0.018c0.377,0.144,0.713,0.468,0.713,0.972c0,0.708-0.594,1.181-1.498,1.181
	C39.531,85.909,39.076,85.351,39.076,84.823z M41.091,84.793c0-0.342-0.252-0.546-0.612-0.642c-0.299,0.084-0.474,0.3-0.474,0.582
	c-0.006,0.282,0.21,0.546,0.552,0.546C40.881,85.279,41.091,85.069,41.091,84.793z M40.064,82.946c0,0.264,0.24,0.432,0.552,0.528
	c0.21-0.06,0.396-0.252,0.396-0.498c0-0.24-0.139-0.48-0.474-0.48C40.227,82.497,40.064,82.701,40.064,82.946z"/>
<g>
	<rect x="9.196" y="128.935" fill="#595A5A" width="11.592" height="83.139"/>
</g>
<g>
	<rect x="39.215" y="128.935" fill="#595A5A" width="11.592" height="83.139"/>
</g>
</svg>
