<?xml version="1.0" encoding="utf-8"?>
<!-- Generator: Adobe Illustrator 16.0.0, SVG Export Plug-In . SVG Version: 6.00 Build 0)  -->
<!DOCTYPE svg PUBLIC "-//W3C//DTD SVG 1.1//EN" "http://www.w3.org/Graphics/SVG/1.1/DTD/svg11.dtd">
<svg version="1.1"
	 id="svg4541" xmlns:sodipodi="http://sodipodi.sourceforge.net/DTD/sodipodi-0.dtd" xmlns:inkscape="http://www.inkscape.org/namespaces/inkscape" xmlns:dc="http://purl.org/dc/elements/1.1/" xmlns:cc="http://creativecommons.org/ns#" xmlns:rdf="http://www.w3.org/1999/02/22-rdf-syntax-ns#" xmlns:svg="http://www.w3.org/2000/svg" inkscape:version="0.92.2 5c3e80d, 2017-08-06" sodipodi:docname="VCF.svg"
	 xmlns="http://www.w3.org/2000/svg" xmlns:xlink="http://www.w3.org/1999/xlink" x="0px" y="0px" width="120.18px" height="380px"
	 viewBox="0 0 120.18 380" enable-background="new 0 0 120.18 380" xml:space="preserve">
<g>
	<path d="M-7.693,0.065l135.566-0.042v379.911l-135.566,0.043V0.065z"/>
</g>
<line fill="none" stroke="#505151" stroke-width="1.5" stroke-miterlimit="10" x1="59.832" y1="274.448" x2="59.832" y2="43.892"/>
<line fill="none" stroke="#505151" stroke-width="1.5" stroke-linecap="square" stroke-miterlimit="10" x1="27.812" y1="321.479" x2="27.812" y2="275.034"/>
<line fill="none" stroke="#505151" stroke-width="1.5" stroke-miterlimit="10" x1="92.852" y1="321.479" x2="92.852" y2="177.978"/>
<line fill="none" stroke="#505151" stroke-width="1.5" stroke-miterlimit="10" x1="59.832" y1="321.479" x2="59.832" y2="280.036"/>
<path fill="none" stroke="#505151" stroke-width="1.5" stroke-miterlimit="10" d="M81.34,334.008"/>
<path fill="none" stroke="#505151" stroke-width="1.5" stroke-miterlimit="10" d="M69.84,334.008"/>
<sodipodi:namedview  units="px" id="base" pagecolor="#ffffff" bordercolor="#666666" borderopacity="1.0" inkscape:zoom="1.979899" inkscape:cx="-12.284485" inkscape:cy="138.75941" showgrid="false" fit-margin-top="0" fit-margin-left="0" inkscape:current-layer="g13178" fit-margin-bottom="0" inkscape:window-x="0" inkscape:window-y="18" inkscape:window-height="1422" inkscape:window-width="2560" inkscape:pageopacity="0.0" inkscape:document-units="mm" inkscape:window-maximized="0" fit-margin-right="0" inkscape:pageshadow="2">
	</sodipodi:namedview>
<g>
	<path fill="#FFFFFF" stroke="#FFFFFF" stroke-width="0.25" stroke-miterlimit="10" d="M60.129,366.671
		c-0.378,0.168-1.092,0.31-1.899,0.31c-2.22,0-3.635-1.347-3.635-3.502c0-2.004,1.373-3.644,3.929-3.644
		c0.562,0,1.188,0.101,1.625,0.269l-0.336,1.582c-0.259-0.104-0.637-0.211-1.188-0.211c-1.12,0-1.854,0.799-1.835,1.92
		c0,1.26,0.841,1.92,1.877,1.92c0.505,0,0.896-0.086,1.22-0.211L60.129,366.671z"/>
	<path fill="#FFFFFF" stroke="#FFFFFF" stroke-width="0.25" stroke-miterlimit="10" d="M62.045,361.066h1.271l0.042-0.447
		c0.105-0.938,0.644-3.039,3.04-3.039c0.479,0,0.911,0.098,1.163,0.225l-0.336,1.514c-0.169-0.062-0.396-0.127-0.659-0.127
		c-0.688,0-1.023,0.518-1.107,1.271l-0.097,0.604H66.8v1.482h-1.61l-0.312,2.493c-0.211,1.709-0.785,3.063-2.771,3.063
		c-0.563-0.021-1.062-0.125-1.271-0.234l0.294-1.48c0.21,0.084,0.438,0.108,0.659,0.108c0.688-0.019,0.938-0.396,1.14-1.985
		l0.229-1.965H62.05v-1.482H62.045L62.045,361.066z"/>
</g>
<path fill="none" stroke="#6C6C6D" stroke-miterlimit="10" d="M84.956,272.529"/>
<path fill="none" stroke="#6C6C6D" stroke-miterlimit="10" d="M51.257,262.523"/>
<path fill="none" stroke="#6C6C6D" stroke-miterlimit="10" d="M51.257,282.539"/>
<path fill="none" stroke="#6C6C6D" stroke-miterlimit="10" d="M38.465,282.539"/>
<path fill="none" stroke="#6C6C6D" stroke-miterlimit="10" d="M84.956,327.561"/>
<path fill="none" stroke="#6C6C6D" stroke-miterlimit="10" d="M57.261,322.559"/>
<path fill="none" stroke="#6C6C6D" stroke-miterlimit="10" d="M84.956,297.542"/>
<path fill="none" stroke="#6C6C6D" stroke-miterlimit="10" d="M51.257,292.541"/>
<path fill="none" stroke="#303232" stroke-miterlimit="10" d="M60.833,312.561"/>
<path fill="none" stroke="#303232" stroke-miterlimit="10" d="M44.469,312.561"/>
<path fill="none" stroke="#303232" stroke-miterlimit="10" d="M84.956,282.535"/>
<path fill="none" stroke="#303232" stroke-miterlimit="10" d="M60.833,272.529"/>
<path fill="none" stroke="#303232" stroke-miterlimit="10" d="M84.956,337.564"/>
<path fill="none" stroke="#303232" stroke-miterlimit="10" d="M60.833,332.564"/>
<path fill="none" stroke="#303232" stroke-miterlimit="10" d="M85.957,307.548"/>
<path fill="none" stroke="#303232" stroke-miterlimit="10" d="M61.195,302.547"/>
<path fill="none" stroke="#6C6C6D" stroke-miterlimit="10" d="M51.089,262.523"/>
<path fill="none" stroke="#6C6C6D" stroke-miterlimit="10" d="M57.093,322.559"/>
<path fill="none" stroke="#303232" stroke-miterlimit="10" d="M61.095,272.529"/>
<path fill="none" stroke="#303232" stroke-miterlimit="10" d="M61.095,332.564"/>
<g>
	<path stroke="#000000" stroke-width="0.5" stroke-miterlimit="10" d="M89.946,63.118c0,1.985-1.195,3.19-2.979,3.19
		c-1.8,0-2.854-1.354-2.854-3.088c0-1.813,1.153-3.188,2.946-3.188C88.927,60.051,89.946,61.446,89.946,63.118z M85.559,63.2
		c0,1.188,0.562,2.023,1.479,2.023c0.928,0,1.459-0.883,1.459-2.061c0-1.092-0.521-2.025-1.479-2.025
		C86.1,61.141,85.559,62.021,85.559,63.2z"/>
	<path stroke="#000000" stroke-width="0.5" stroke-miterlimit="10" d="M92.212,60.148v3.492c0,1.045,0.396,1.576,1.1,1.576
		c0.729,0,1.116-0.513,1.116-1.576v-3.492h1.369v3.402c0,1.866-0.945,2.764-2.53,2.764c-1.521,0-2.433-0.846-2.433-2.774v-3.391
		L92.212,60.148L92.212,60.148z"/>
	<path stroke="#000000" stroke-width="0.5" stroke-miterlimit="10" d="M98.154,61.303h-1.637v-1.151h4.664v1.151h-1.646v4.914H98.15
		L98.154,61.303L98.154,61.303z"/>
</g>
<path fill="#595A5A" d="M109.09,269.232c0,1.549-1.271,2.807-2.835,2.807h-91.33c-1.565,0-2.834-1.258-2.834-2.807V73.323
	c0-1.549,1.269-2.806,2.834-2.806h91.331c1.562,0,2.835,1.256,2.835,2.806l-0.001,100.814V269.232z"/>
<path fill="none" stroke="#505151" stroke-width="1.5" stroke-miterlimit="10" d="M57.318,167"/>
<path fill="none" stroke="#505151" stroke-width="1.5" stroke-miterlimit="10" d="M56.832,334.008"/>
<path fill="none" stroke="#505151" stroke-width="1.5" stroke-miterlimit="10" d="M92.339,167"/>
<rect x="7.924" y="307.548" width="99.667" height="11.955"/>
<line fill="none" stroke="#505151" stroke-width="1.5" stroke-linecap="square" stroke-miterlimit="10" x1="59.832" y1="275.029" x2="27.812" y2="275.029"/>
<line fill="none" stroke="#505151" stroke-width="1.5" stroke-linecap="square" stroke-miterlimit="10" x1="81.842" y1="43.893" x2="59.832" y2="43.893"/>
<circle fill="#595A5A" stroke="#595A5A" stroke-width="10" stroke-miterlimit="10" cx="92.506" cy="43.605" r="9.395"/>
<g>
	<path fill="#FFFFFF" stroke="#FFFFFF" stroke-miterlimit="10" d="M25.054,311.073v6.067h-0.783v-6.067H25.054z"/>
	<path fill="#FFFFFF" stroke="#FFFFFF" stroke-miterlimit="10" d="M26.422,317.141v-6.062h0.854l1.944,3.064
		c0.45,0.711,0.801,1.354,1.089,1.977l0.021-0.014c-0.072-0.811-0.095-1.549-0.095-2.494v-2.533h0.738v6.062h-0.792l-1.927-3.078
		c-0.423-0.676-0.828-1.369-1.134-2.021l-0.027,0.009c0.045,0.771,0.063,1.495,0.063,2.503v2.598H26.42L26.422,317.141
		L26.422,317.141z"/>
</g>
<g>
	<path fill="#FFFFFF" stroke="#FFFFFF" stroke-width="1.5" stroke-miterlimit="10" d="M42.831,20.366
		c0.636-0.096,1.391-0.168,2.219-0.168c1.499,0,2.566,0.348,3.274,1.007c0.72,0.66,1.14,1.595,1.14,2.902
		c0,1.319-0.408,2.399-1.164,3.143c-0.755,0.755-2.003,1.163-3.574,1.163c-0.744,0-1.367-0.036-1.895-0.096V20.366z M43.875,27.514
		c0.264,0.048,0.646,0.06,1.055,0.06c2.231,0,3.442-1.248,3.442-3.43c0.012-1.907-1.067-3.118-3.274-3.118
		c-0.54,0-0.947,0.048-1.223,0.108V27.514z"/>
	<path fill="#FFFFFF" stroke="#FFFFFF" stroke-width="1.5" stroke-miterlimit="10" d="M51.866,20.258v8.083h-1.043v-8.083H51.866z"
		/>
	<path fill="#FFFFFF" stroke="#FFFFFF" stroke-width="1.5" stroke-miterlimit="10" d="M53.547,27.07
		c0.468,0.288,1.151,0.528,1.871,0.528c1.065,0,1.688-0.563,1.688-1.379c0-0.755-0.432-1.187-1.521-1.607
		c-1.319-0.468-2.135-1.151-2.135-2.291c0-1.259,1.043-2.195,2.613-2.195c0.827,0,1.429,0.192,1.787,0.396l-0.288,0.852
		C57.3,21.23,56.76,20.99,56.029,20.99c-1.103,0-1.521,0.66-1.521,1.211c0,0.755,0.492,1.127,1.605,1.559
		c1.367,0.528,2.062,1.188,2.062,2.375c0,1.247-0.922,2.327-2.83,2.327c-0.779,0-1.631-0.228-2.062-0.516L53.547,27.07z"/>
	<path fill="#FFFFFF" stroke="#FFFFFF" stroke-width="1.5" stroke-miterlimit="10" d="M61.14,21.146h-2.458v-0.888h5.984v0.888
		h-2.473v7.196H61.14V21.146z"/>
	<path fill="#FFFFFF" stroke="#FFFFFF" stroke-width="1.5" stroke-miterlimit="10" d="M72.153,24.216
		c0,2.782-1.689,4.257-3.754,4.257c-2.134,0-3.634-1.655-3.634-4.102c0-2.567,1.596-4.246,3.754-4.246
		C70.726,20.126,72.153,21.817,72.153,24.216z M65.881,24.348c0,1.727,0.935,3.274,2.578,3.274c1.652,0,2.59-1.523,2.59-3.358
		c0-1.607-0.839-3.286-2.578-3.286C66.743,20.978,65.881,22.572,65.881,24.348z"/>
</g>
<g>
	<path fill="#FFFFFF" stroke="#FFFFFF" stroke-miterlimit="10" d="M81.336,310.977h3.269v0.657H82.12v2.017h2.296v0.647H82.12v2.746
		h-0.783L81.336,310.977L81.336,310.977z"/>
	<path fill="#FFFFFF" stroke="#FFFFFF" stroke-miterlimit="10" d="M91.175,313.947c0,2.089-1.271,3.195-2.818,3.195
		c-1.603,0-2.728-1.242-2.728-3.078c0-1.929,1.197-3.188,2.816-3.188C90.104,310.877,91.175,312.146,91.175,313.947z
		 M86.466,314.046c0,1.297,0.703,2.458,1.937,2.458c1.242,0,1.944-1.145,1.944-2.521c0-1.207-0.631-2.467-1.936-2.467
		C87.115,311.518,86.466,312.714,86.466,314.046z"/>
	<path fill="#FFFFFF" stroke="#FFFFFF" stroke-miterlimit="10" d="M92.46,310.977h0.783v5.41h2.593v0.657H92.46V310.977z"/>
	<path fill="#FFFFFF" stroke="#FFFFFF" stroke-miterlimit="10" d="M96.978,311.059c0.479-0.072,1.045-0.127,1.666-0.127
		c1.125,0,1.927,0.262,2.458,0.756c0.54,0.496,0.854,1.197,0.854,2.181c0,0.989-0.308,1.801-0.873,2.356
		c-0.567,0.567-1.503,0.873-2.685,0.873c-0.559,0-1.024-0.025-1.423-0.07L96.978,311.059L96.978,311.059z M97.761,316.423
		c0.198,0.036,0.486,0.045,0.793,0.045c1.674,0,2.583-0.937,2.583-2.575c0.01-1.431-0.801-2.34-2.457-2.34
		c-0.405,0-0.712,0.035-0.919,0.081V316.423z"/>
</g>
<g>
	<path fill="#FFFFFF" stroke="#FFFFFF" stroke-miterlimit="10" d="M53.937,316.773c-0.351,0.125-1.044,0.334-1.862,0.334
		c-0.92,0-1.676-0.234-2.271-0.803c-0.521-0.505-0.846-1.313-0.846-2.261c0.009-1.812,1.251-3.133,3.286-3.133
		c0.701,0,1.251,0.151,1.513,0.278l-0.189,0.64c-0.322-0.146-0.729-0.263-1.341-0.263c-1.477,0-2.438,0.918-2.438,2.439
		c0,1.54,0.927,2.449,2.341,2.449c0.513,0,0.864-0.072,1.044-0.162v-1.811H51.94v-0.629h1.999L53.937,316.773L53.937,316.773z"/>
	<path fill="#FFFFFF" stroke="#FFFFFF" stroke-miterlimit="10" d="M56.384,315.136l-0.63,1.908h-0.812l2.062-6.067h0.945
		l2.068,6.067h-0.837l-0.646-1.908H56.384z M58.373,314.523l-0.596-1.748c-0.135-0.396-0.225-0.756-0.313-1.106h-0.02
		c-0.09,0.36-0.188,0.729-0.306,1.099l-0.594,1.756H58.373L58.373,314.523z"/>
	<path fill="#FFFFFF" stroke="#FFFFFF" stroke-miterlimit="10" d="M61.962,310.977v6.067h-0.783v-6.067H61.962z"/>
	<path fill="#FFFFFF" stroke="#FFFFFF" stroke-miterlimit="10" d="M63.6,317.044v-6.067h0.855l1.942,3.069
		c0.45,0.711,0.804,1.351,1.09,1.972l0.02-0.009c-0.071-0.811-0.09-1.549-0.09-2.493v-2.539h0.736v6.067h-0.792l-1.927-3.079
		c-0.423-0.675-0.828-1.367-1.135-2.025l-0.026,0.011c0.045,0.766,0.062,1.493,0.062,2.503v2.593L63.6,317.044L63.6,317.044z"/>
</g>
<path fill="none" stroke="#505151" stroke-width="1.5" stroke-miterlimit="10" d="M59.809,273.057
	c0-55.557-29.014-76.168-29.014-101.557c0-25.5,29.014-53,29.014-102"/>
<path fill="none" stroke="#505151" stroke-width="1.5" stroke-miterlimit="10" d="M59.874,273.057
	c0-55.557,29.016-76.168,29.016-101.557c0-25.5-29.016-53-29.016-102"/>
<line fill="none" stroke="#505151" stroke-width="1.5" stroke-linecap="square" stroke-miterlimit="10" x1="72.841" y1="280.035" x2="59.832" y2="280.035"/>
<line fill="none" stroke="#505151" stroke-width="1.5" stroke-miterlimit="10" x1="72.842" y1="279.453" x2="72.842" y2="214.997"/>
<line fill="none" stroke="#505151" stroke-width="1.5" stroke-miterlimit="10" x1="85.851" y1="270.443" x2="85.851" y2="186.979"/>
<line fill="none" stroke="#505151" stroke-width="1.5" stroke-linecap="square" stroke-miterlimit="10" x1="92.853" y1="270.029" x2="85.85" y2="270.029"/>
<line fill="none" stroke="#505151" stroke-width="1.5" stroke-miterlimit="10" x1="92.852" y1="273.451" x2="92.852" y2="270.029"/>
<circle fill="#595A5A" stroke="#595A5A" stroke-width="7.6943" stroke-miterlimit="10" cx="59.507" cy="293.675" r="7.229"/>
<circle fill="#595A5A" stroke="#595A5A" stroke-width="7.6943" stroke-miterlimit="10" cx="92.528" cy="293.675" r="7.229"/>
</svg>
