<?xml version="1.0" encoding="utf-8"?>
<!-- Generator: Adobe Illustrator 16.0.0, SVG Export Plug-In . SVG Version: 6.00 Build 0)  -->
<!DOCTYPE svg PUBLIC "-//W3C//DTD SVG 1.1//EN" "http://www.w3.org/Graphics/SVG/1.1/DTD/svg11.dtd">
<svg version="1.1"
	 id="svg4541" xmlns:sodipodi="http://sodipodi.sourceforge.net/DTD/sodipodi-0.dtd" xmlns:inkscape="http://www.inkscape.org/namespaces/inkscape" xmlns:dc="http://purl.org/dc/elements/1.1/" xmlns:cc="http://creativecommons.org/ns#" xmlns:rdf="http://www.w3.org/1999/02/22-rdf-syntax-ns#" xmlns:svg="http://www.w3.org/2000/svg" sodipodi:docname="VCA.svg" inkscape:version="0.92.2 5c3e80d, 2017-08-06"
	 xmlns="http://www.w3.org/2000/svg" xmlns:xlink="http://www.w3.org/1999/xlink" x="0px" y="0px" width="90.135px" height="380px"
	 viewBox="0 0 90.135 380" enable-background="new 0 0 90.135 380" xml:space="preserve">
<path id="path33453" d="M0,0.032h90.135v379.913H0V0.032z"/>
<line fill="none" stroke="#595A5A" stroke-width="1.5" stroke-miterlimit="10" x1="47.069" y1="63.833" x2="47.069" y2="234.988"/>
<sodipodi:namedview  units="px" fit-margin-left="0" fit-margin-top="0" showgrid="false" inkscape:cy="-87.479401" inkscape:cx="-640.37084" inkscape:zoom="0.49497475" borderopacity="1.0" bordercolor="#666666" pagecolor="#ffffff" id="base" inkscape:pageshadow="2" fit-margin-right="0" inkscape:window-maximized="0" inkscape:document-units="mm" inkscape:pageopacity="0.0" inkscape:window-width="2560" inkscape:window-height="1422" inkscape:window-y="18" inkscape:window-x="0" fit-margin-bottom="0" inkscape:current-layer="g13224">
	</sodipodi:namedview>
<g>
	<path fill="#FFFFFF" stroke="#FFFFFF" stroke-width="0.25" stroke-miterlimit="10" d="M44.021,367.67
		c-0.378,0.168-1.092,0.309-1.905,0.309c-2.213,0-3.628-1.346-3.628-3.502c0-2.004,1.373-3.643,3.922-3.643
		c0.561,0,1.177,0.1,1.625,0.268l-0.336,1.582c-0.252-0.104-0.63-0.211-1.19-0.211c-1.121,0-1.849,0.799-1.835,1.92
		c0,1.26,0.84,1.92,1.877,1.92c0.504,0,0.896-0.086,1.219-0.211L44.021,367.67z"/>
	<path fill="#FFFFFF" stroke="#FFFFFF" stroke-width="0.25" stroke-miterlimit="10" d="M45.937,362.066h1.274l0.042-0.448
		c0.111-0.938,0.63-3.039,3.039-3.039c0.477,0,0.911,0.098,1.163,0.224l-0.336,1.514c-0.169-0.062-0.394-0.127-0.659-0.127
		c-0.7,0-1.036,0.506-1.12,1.271l-0.084,0.605h1.429v1.485H49.08l-0.312,2.493c-0.211,1.709-0.785,3.066-2.771,3.066
		c-0.575-0.014-1.065-0.125-1.275-0.237l0.294-1.483c0.21,0.084,0.434,0.111,0.659,0.111c0.7-0.016,0.938-0.393,1.139-1.988
		l0.229-1.962H45.94v-1.485H45.937L45.937,362.066z"/>
</g>
<line fill="none" stroke="#595A5A" stroke-width="1.5862" stroke-miterlimit="10" x1="31.043" y1="146.756" x2="47.086" y2="128.467"/>
<line fill="none" stroke="#595A5A" stroke-width="1.5862" stroke-miterlimit="10" x1="82.76" y1="163.5" x2="47.052" y2="206.164"/>
<path fill="none" stroke="#595A5A" stroke-width="1.5862" stroke-miterlimit="10" d="M66.551,163.489"/>
<path fill="none" stroke="#595A5A" stroke-width="1.5862" stroke-miterlimit="10" d="M82.76,145.487"/>
<g>
	<path fill="#FFFFFF" stroke="#FFFFFF" stroke-miterlimit="10" d="M61.567,310.48l0.621,0.937c0.162,0.243,0.297,0.468,0.438,0.711
		h0.023c0.146-0.261,0.287-0.485,0.436-0.72l0.611-0.928h0.854l-1.484,2.104l1.531,2.251h-0.898l-0.643-0.979
		c-0.172-0.252-0.312-0.494-0.47-0.756h-0.021c-0.146,0.262-0.297,0.496-0.459,0.756l-0.631,0.979H60.61l1.549-2.226l-1.477-2.135
		h0.885V310.48z"/>
	<path fill="#FFFFFF" stroke="#FFFFFF" stroke-miterlimit="10" d="M68.741,309.725h-0.02l-1.021,0.549l-0.152-0.604l1.278-0.684
		h0.675v5.852H68.74L68.741,309.725L68.741,309.725z"/>
	<path fill="#FFFFFF" stroke="#FFFFFF" stroke-miterlimit="10" d="M71.638,314.838v-0.486l0.621-0.603
		c1.494-1.423,2.17-2.179,2.18-3.062c0-0.599-0.289-1.146-1.162-1.146c-0.526,0-0.973,0.271-1.238,0.495l-0.252-0.56
		c0.4-0.344,0.979-0.598,1.652-0.598c1.265,0,1.791,0.864,1.791,1.702c0,1.08-0.783,1.953-2.017,3.144l-0.468,0.436v0.02h2.629
		v0.655L71.638,314.838L71.638,314.838z"/>
</g>
<rect x="9.919" y="306.753" width="26.152" height="9.662"/>
<g>
	<path fill="#FFFFFF" stroke="#FFFFFF" stroke-miterlimit="10" d="M12.086,313.884c0.352,0.216,0.864,0.396,1.404,0.396
		c0.802,0,1.27-0.422,1.27-1.03c0-0.563-0.324-0.896-1.144-1.206c-0.99-0.354-1.603-0.863-1.603-1.725
		c0-0.94,0.783-1.646,1.963-1.646c0.621,0,1.071,0.146,1.342,0.298l-0.217,0.641c-0.198-0.105-0.603-0.286-1.152-0.286
		c-0.828,0-1.143,0.493-1.143,0.907c0,0.565,0.368,0.85,1.206,1.17c1.026,0.396,1.548,0.895,1.548,1.783
		c0,0.938-0.692,1.746-2.124,1.746c-0.585,0-1.225-0.173-1.549-0.389L12.086,313.884z"/>
	<path fill="#FFFFFF" stroke="#FFFFFF" stroke-miterlimit="10" d="M17.784,309.438h-1.846v-0.666h4.492v0.666h-1.854v5.4h-0.792
		V309.438z"/>
	<path fill="#FFFFFF" stroke="#FFFFFF" stroke-miterlimit="10" d="M21.411,312.93l-0.63,1.908H19.97l2.062-6.066h0.945l2.07,6.066
		H24.21l-0.648-1.908H21.411z M23.401,312.316l-0.595-1.746c-0.135-0.396-0.225-0.756-0.314-1.107h-0.019
		c-0.09,0.359-0.188,0.729-0.306,1.1l-0.595,1.756h1.829V312.316z"/>
	<path fill="#FFFFFF" stroke="#FFFFFF" stroke-miterlimit="10" d="M25.938,308.852c0.396-0.08,0.963-0.127,1.503-0.127
		c0.837,0,1.378,0.153,1.756,0.495c0.306,0.271,0.477,0.685,0.477,1.152c0,0.802-0.504,1.333-1.143,1.549v0.027
		c0.468,0.161,0.747,0.594,0.891,1.225c0.198,0.847,0.343,1.431,0.469,1.665H29.08c-0.099-0.171-0.234-0.693-0.405-1.449
		c-0.18-0.838-0.504-1.152-1.215-1.18h-0.738v2.629h-0.783L25.938,308.852L25.938,308.852z M26.721,311.615h0.801
		c0.837,0,1.368-0.459,1.368-1.152c0-0.783-0.566-1.126-1.396-1.135c-0.378,0-0.647,0.035-0.773,0.072V311.615z"/>
	<path fill="#FFFFFF" stroke="#FFFFFF" stroke-miterlimit="10" d="M32.013,309.438h-1.846v-0.666h4.492v0.666h-1.854v5.4h-0.792
		V309.438z"/>
</g>
<rect x="33.933" y="149.696" width="26.152" height="9.663"/>
<g>
	<path fill="#FFFFFF" stroke="#FFFFFF" stroke-miterlimit="10" d="M35.975,20.514H33v1.919h3.322v1.499h-5.157v-8.083h4.989v1.499
		H33v1.679h2.975V20.514z"/>
	<path fill="#FFFFFF" stroke="#FFFFFF" stroke-miterlimit="10" d="M39.456,21.857l-0.576,2.075h-1.895l2.471-8.083h2.398
		l2.507,8.083h-1.967l-0.624-2.075H39.456z M41.507,20.49l-0.504-1.715c-0.144-0.479-0.288-1.079-0.407-1.559h-0.024
		c-0.12,0.48-0.24,1.091-0.372,1.559l-0.48,1.715H41.507z"/>
	<path fill="#FFFFFF" stroke="#FFFFFF" stroke-miterlimit="10" d="M51.081,23.704c-0.336,0.168-1.091,0.348-2.074,0.348
		c-2.795,0-4.233-1.739-4.233-4.042c0-2.758,1.966-4.293,4.413-4.293c0.947,0,1.668,0.192,1.992,0.36l-0.373,1.451
		c-0.371-0.156-0.888-0.3-1.535-0.3c-1.451,0-2.578,0.875-2.578,2.674c0,1.619,0.959,2.639,2.593,2.639
		c0.552,0,1.161-0.12,1.521-0.264L51.081,23.704z"/>
	<path fill="#FFFFFF" stroke="#FFFFFF" stroke-miterlimit="10" d="M54.12,15.848v3.106h3.01v-3.106h1.823v8.083H57.13v-3.382h-3.01
		v3.382h-1.835v-8.083H54.12z"/>
</g>
<line fill="none" stroke="#595A5A" stroke-width="1.5" stroke-miterlimit="10" x1="6.043" y1="55.828" x2="6.043" y2="317.029"/>
<line fill="none" stroke="#595A5A" stroke-width="1.5862" stroke-miterlimit="10" x1="6.026" y1="316.576" x2="15.737" y2="327.406"/>
<line fill="none" stroke="#595A5A" stroke-width="1.5" stroke-miterlimit="10" x1="82.76" y1="317.029" x2="82.76" y2="55.828"/>
<line fill="none" stroke="#595A5A" stroke-width="1.5862" stroke-miterlimit="10" x1="73.065" y1="327.406" x2="82.776" y2="316.576"/>
<circle fill="#FFFFFF" stroke="#595A5A" stroke-width="10" stroke-miterlimit="10" cx="23.465" cy="333.783" r="9.395"/>
<circle fill="#FFFFFF" stroke="#595A5A" stroke-width="10" stroke-miterlimit="10" cx="66.492" cy="333.782" r="9.396"/>
<line fill="none" stroke="#595A5A" stroke-width="1.5862" stroke-miterlimit="10" x1="15.737" y1="45.409" x2="6.026" y2="56.239"/>
<line fill="none" stroke="#595A5A" stroke-width="1.5862" stroke-miterlimit="10" x1="82.776" y1="56.239" x2="73.065" y2="45.409"/>
<line fill="none" stroke="#595A5A" stroke-width="1.5862" stroke-miterlimit="10" x1="6.026" y1="186.5" x2="23.465" y2="205.71"/>
<path fill="none" stroke="#595A5A" stroke-width="1.5" stroke-miterlimit="10" d="M66.551,183.939"/>
<path fill="none" stroke="#595A5A" stroke-width="1.5" stroke-miterlimit="10" d="M66.551,163.489"/>
<line fill="none" stroke="#595A5A" stroke-width="1.5" stroke-miterlimit="10" x1="23.465" y1="205.698" x2="23.523" y2="263.986"/>
<g>
	<path fill="#FFFFFF" stroke="#FFFFFF" stroke-width="1.5" stroke-miterlimit="10" d="M40.486,151.524
		c0.477-0.072,1.044-0.126,1.665-0.126c1.125,0,1.927,0.261,2.458,0.756c0.54,0.495,0.855,1.197,0.855,2.179
		c0,0.99-0.307,1.8-0.874,2.358c-0.566,0.567-1.503,0.874-2.683,0.874c-0.558,0-1.026-0.027-1.422-0.072L40.486,151.524
		L40.486,151.524z M41.269,156.89c0.197,0.036,0.485,0.045,0.792,0.045c1.675,0,2.584-0.937,2.584-2.575
		c0.009-1.432-0.802-2.341-2.458-2.341c-0.405,0-0.711,0.036-0.918,0.081V156.89z"/>
	<path fill="#FFFFFF" stroke="#FFFFFF" stroke-width="1.5" stroke-miterlimit="10" d="M47.263,151.443v6.068h-0.783v-6.068H47.263z"
		/>
	<path fill="#FFFFFF" stroke="#FFFFFF" stroke-width="1.5" stroke-miterlimit="10" d="M49.962,157.511l-1.98-6.068h0.849
		l0.942,2.989c0.265,0.819,0.486,1.558,0.648,2.269h0.02c0.17-0.703,0.422-1.468,0.691-2.26l1.026-2.998h0.838l-2.17,6.068H49.962z"
		/>
	<path fill="#FFFFFF" stroke="#FFFFFF" stroke-width="1.5" stroke-miterlimit="10" d="M52.94,157.043
		c0-0.333,0.226-0.567,0.539-0.567s0.529,0.234,0.529,0.567c0,0.324-0.205,0.567-0.537,0.567
		C53.157,157.61,52.94,157.367,52.94,157.043z"/>
</g>
<line fill="none" stroke="#595A5A" stroke-width="1.5862" stroke-miterlimit="10" x1="23.693" y1="263.986" x2="41.132" y2="283.195"/>
<circle fill="#FFFFFF" stroke="#595A5A" stroke-width="10" stroke-miterlimit="10" cx="47.481" cy="287.757" r="9.396"/>
<circle fill="#FFFFFF" stroke="#595A5A" stroke-width="10" stroke-miterlimit="10" cx="47.481" cy="247.733" r="9.396"/>
<path fill="#595A5A" stroke="#595A5A" stroke-width="14.3326" stroke-miterlimit="10" d="M45.505,112.141
	c7.435,0,13.466,6.028,13.466,13.464s-6.031,13.464-13.466,13.464c-7.433,0-13.462-6.028-13.462-13.464
	S38.072,112.141,45.505,112.141z"/>
</svg>
