<?xml version="1.0" encoding="utf-8"?>
<!-- Generator: Adobe Illustrator 16.0.0, SVG Export Plug-In . SVG Version: 6.00 Build 0)  -->
<!DOCTYPE svg PUBLIC "-//W3C//DTD SVG 1.1//EN" "http://www.w3.org/Graphics/SVG/1.1/DTD/svg11.dtd">
<svg version="1.1"
	 id="svg4541" xmlns:sodipodi="http://sodipodi.sourceforge.net/DTD/sodipodi-0.dtd" xmlns:inkscape="http://www.inkscape.org/namespaces/inkscape" xmlns:dc="http://purl.org/dc/elements/1.1/" xmlns:cc="http://creativecommons.org/ns#" xmlns:rdf="http://www.w3.org/1999/02/22-rdf-syntax-ns#" xmlns:svg="http://www.w3.org/2000/svg" sodipodi:docname="VCA.svg" inkscape:version="0.92.2 5c3e80d, 2017-08-06"
	 xmlns="http://www.w3.org/2000/svg" xmlns:xlink="http://www.w3.org/1999/xlink" x="0px" y="0px" width="90.135px" height="380px"
	 viewBox="0 0 90.135 380" enable-background="new 0 0 90.135 380" xml:space="preserve">
<path id="path33453" stroke="#595A5A" stroke-miterlimit="10" d="M0,0h90.135v379.912H0V0z"/>
<sodipodi:namedview  units="px" fit-margin-left="0" fit-margin-top="0" showgrid="false" inkscape:cy="-87.479401" inkscape:cx="-640.37084" inkscape:zoom="0.49497475" borderopacity="1.0" bordercolor="#666666" pagecolor="#ffffff" id="base" inkscape:pageshadow="2" fit-margin-right="0" inkscape:window-maximized="0" inkscape:document-units="mm" inkscape:pageopacity="0.0" inkscape:window-width="2560" inkscape:window-height="1422" inkscape:window-y="18" inkscape:window-x="0" fit-margin-bottom="0" inkscape:current-layer="g13224">
	</sodipodi:namedview>
<g>
	<path fill="#FFFFFF" stroke="#FFFFFF" stroke-width="0.25" stroke-miterlimit="10" d="M44.021,367.67
		c-0.378,0.168-1.092,0.309-1.905,0.309c-2.213,0-3.628-1.346-3.628-3.502c0-2.004,1.373-3.643,3.922-3.643
		c0.561,0,1.177,0.1,1.625,0.268l-0.336,1.582c-0.252-0.104-0.63-0.211-1.19-0.211c-1.121,0-1.849,0.799-1.835,1.92
		c0,1.26,0.84,1.92,1.877,1.92c0.504,0,0.896-0.086,1.219-0.211L44.021,367.67z"/>
	<path fill="#FFFFFF" stroke="#FFFFFF" stroke-width="0.25" stroke-miterlimit="10" d="M45.937,362.066h1.274l0.042-0.448
		c0.111-0.938,0.63-3.039,3.039-3.039c0.477,0,0.911,0.098,1.163,0.224l-0.336,1.514c-0.169-0.062-0.394-0.127-0.659-0.127
		c-0.7,0-1.036,0.506-1.12,1.271l-0.084,0.605h1.429v1.479H49.08l-0.312,2.493c-0.211,1.709-0.785,3.062-2.771,3.062
		c-0.575-0.015-1.065-0.125-1.275-0.229l0.294-1.479c0.21,0.084,0.434,0.104,0.659,0.104c0.7-0.021,0.938-0.396,1.139-1.98
		l0.229-1.97H45.94v-1.479H45.937L45.937,362.066L45.937,362.066z"/>
</g>
<rect x="3.867" y="79.529" stroke="#000000" stroke-miterlimit="10" width="81.399" height="248.965"/>
<line fill="none" stroke="#595A5A" stroke-width="1.5862" stroke-miterlimit="10" x1="44.504" y1="54" x2="44.504" y2="80.054"/>
<line fill="none" stroke="#595A5A" stroke-width="1.5862" stroke-miterlimit="10" x1="75.083" y1="54" x2="75.083" y2="80.054"/>
<line fill="none" stroke="#595A5A" stroke-width="1.5862" stroke-miterlimit="10" x1="14.045" y1="54" x2="14.045" y2="80.054"/>
<line fill="none" stroke="#595A5A" stroke-width="1.5862" stroke-miterlimit="10" x1="30.056" y1="77.011" x2="30.056" y2="80.054"/>
<line fill="none" stroke="#595A5A" stroke-width="1.5862" stroke-miterlimit="10" x1="59.075" y1="77.011" x2="59.075" y2="80.054"/>
<circle fill="#FFFFFF" stroke="#595A5A" stroke-width="10" stroke-miterlimit="10" cx="16.467" cy="42.561" r="9.395"/>
<circle fill="#FFFFFF" stroke="#595A5A" stroke-width="10" stroke-miterlimit="10" cx="44.485" cy="42.561" r="9.395"/>
<circle fill="#FFFFFF" stroke="#595A5A" stroke-width="10" stroke-miterlimit="10" cx="72.504" cy="42.561" r="9.395"/>
<circle fill="#FFFFFF" stroke="#595A5A" stroke-width="10" stroke-miterlimit="10" cx="30.477" cy="64.572" r="9.395"/>
<circle fill="#FFFFFF" stroke="#595A5A" stroke-width="10" stroke-miterlimit="10" cx="58.491" cy="64.572" r="9.395"/>
<g>
	<path fill="#FFFFFF" stroke="#FFFFFF" stroke-miterlimit="10" d="M39.891,333.657h-2.359v2.188h2.629v0.655h-3.412v-6.065h3.277
		v0.655h-2.494v1.917h2.359V333.657L39.891,333.657z"/>
	<path fill="#FFFFFF" stroke="#FFFFFF" stroke-miterlimit="10" d="M41.177,330.516c0.477-0.072,1.044-0.127,1.666-0.127
		c1.125,0,1.927,0.262,2.458,0.758c0.54,0.494,0.855,1.196,0.855,2.18c0,0.988-0.308,1.801-0.874,2.357
		c-0.566,0.566-1.503,0.873-2.683,0.873c-0.558,0-1.026-0.027-1.422-0.072V330.516z M41.96,335.881
		c0.197,0.036,0.485,0.045,0.792,0.045c1.675,0,2.584-0.937,2.584-2.574c0.009-1.432-0.802-2.34-2.458-2.34
		c-0.405,0-0.711,0.034-0.918,0.08V335.881z"/>
	<path fill="#FFFFFF" stroke="#FFFFFF" stroke-miterlimit="10" d="M47.954,330.436v6.066h-0.783v-6.066H47.954z"/>
	<path fill="#FFFFFF" stroke="#FFFFFF" stroke-miterlimit="10" d="M50.474,331.102h-1.846v-0.666h4.492v0.666h-1.854v5.4h-0.793
		V331.102L50.474,331.102z"/>
</g>
<g>
	<path fill="#FFFFFF" stroke="#FFFFFF" stroke-miterlimit="10" d="M64.658,335.548c0.352,0.216,0.864,0.396,1.403,0.396
		c0.803,0,1.271-0.422,1.271-1.033c0-0.566-0.324-0.893-1.144-1.206c-0.99-0.353-1.604-0.864-1.604-1.722
		c0-0.943,0.784-1.646,1.963-1.646c0.621,0,1.071,0.146,1.343,0.297l-0.217,0.642c-0.197-0.108-0.604-0.289-1.15-0.289
		c-0.83,0-1.146,0.496-1.146,0.91c0,0.565,0.369,0.847,1.206,1.17c1.025,0.396,1.549,0.892,1.549,1.783
		c0,0.936-0.691,1.744-2.125,1.744c-0.585,0-1.225-0.171-1.549-0.387L64.658,335.548z"/>
	<path fill="#FFFFFF" stroke="#FFFFFF" stroke-miterlimit="10" d="M70.354,331.102H68.51v-0.666h4.491v0.666h-1.854v5.4h-0.793
		V331.102z"/>
	<path fill="#FFFFFF" stroke="#FFFFFF" stroke-miterlimit="10" d="M76.817,333.657H74.46v2.188h2.629v0.655h-3.412v-6.065h3.276
		v0.655H74.46v1.917h2.357V333.657z"/>
	<path fill="#FFFFFF" stroke="#FFFFFF" stroke-miterlimit="10" d="M78.104,330.506c0.377-0.062,0.873-0.117,1.502-0.117
		c0.773,0,1.343,0.182,1.701,0.506c0.334,0.287,0.53,0.729,0.53,1.271c0,0.549-0.162,0.979-0.468,1.296
		c-0.414,0.439-1.09,0.666-1.854,0.666c-0.233,0-0.449-0.009-0.629-0.054v2.431h-0.783V330.506z M78.888,333.432
		c0.172,0.045,0.387,0.063,0.647,0.063c0.944,0,1.521-0.459,1.521-1.297c0-0.802-0.564-1.188-1.431-1.188
		c-0.343,0-0.604,0.026-0.737,0.062V333.432L78.888,333.432z"/>
</g>
<g>
	<path fill="#FFFFFF" stroke="#FFFFFF" stroke-miterlimit="10" d="M6.73,330.516c0.396-0.08,0.963-0.127,1.503-0.127
		c0.837,0,1.377,0.153,1.756,0.496c0.306,0.27,0.477,0.684,0.477,1.152c0,0.801-0.504,1.332-1.144,1.548v0.026
		c0.468,0.162,0.748,0.595,0.892,1.226c0.198,0.847,0.342,1.431,0.468,1.665h-0.81c-0.099-0.171-0.234-0.693-0.405-1.449
		c-0.18-0.838-0.504-1.152-1.215-1.18H7.513v2.629H6.73V330.516z M7.513,333.279h0.801c0.837,0,1.369-0.459,1.369-1.152
		c0-0.783-0.567-1.126-1.396-1.135c-0.378,0-0.648,0.035-0.774,0.072V333.279z"/>
	<path fill="#FFFFFF" stroke="#FFFFFF" stroke-miterlimit="10" d="M14.714,333.657h-2.358v2.188h2.629v0.655h-3.412v-6.065h3.276
		v0.655h-2.493v1.917h2.358V333.657z"/>
	<path fill="#FFFFFF" stroke="#FFFFFF" stroke-miterlimit="10" d="M15.892,335.548c0.352,0.216,0.864,0.396,1.404,0.396
		c0.802,0,1.27-0.422,1.27-1.033c0-0.566-0.324-0.893-1.144-1.206c-0.99-0.353-1.603-0.864-1.603-1.722
		c0-0.943,0.783-1.646,1.963-1.646c0.621,0,1.071,0.146,1.342,0.297l-0.217,0.642c-0.198-0.108-0.603-0.289-1.152-0.289
		c-0.828,0-1.143,0.496-1.143,0.91c0,0.565,0.368,0.847,1.206,1.17c1.026,0.396,1.548,0.892,1.548,1.783
		c0,0.936-0.692,1.744-2.124,1.744c-0.585,0-1.225-0.171-1.549-0.387L15.892,335.548z"/>
	<path fill="#FFFFFF" stroke="#FFFFFF" stroke-miterlimit="10" d="M23.579,333.657h-2.358v2.188h2.629v0.655h-3.412v-6.065h3.276
		v0.655h-2.493v1.917h2.358V333.657z"/>
	<path fill="#FFFFFF" stroke="#FFFFFF" stroke-miterlimit="10" d="M26.161,331.102h-1.846v-0.666h4.492v0.666h-1.854v5.4h-0.792
		V331.102z"/>
</g>
<g>
	<path fill="#FFFFFF" stroke="#FFFFFF" stroke-miterlimit="10" d="M24.667,17.032h1.835v6.548h3.214v1.535h-5.049V17.032z"/>
	<path fill="#FFFFFF" stroke="#FFFFFF" stroke-miterlimit="10" d="M35.608,21.698h-2.975v1.919h3.322v1.499h-5.157v-8.083h4.989
		v1.499h-3.154v1.679h2.975V21.698z"/>
	<path fill="#FFFFFF" stroke="#FFFFFF" stroke-miterlimit="10" d="M37.207,17.14c0.672-0.108,1.547-0.168,2.471-0.168
		c1.535,0,2.531,0.276,3.31,0.864c0.84,0.624,1.367,1.619,1.367,3.046c0,1.547-0.563,2.615-1.343,3.274
		c-0.852,0.708-2.146,1.043-3.73,1.043c-0.947,0-1.619-0.06-2.075-0.12V17.14z M39.042,23.736c0.156,0.036,0.408,0.036,0.636,0.036
		c1.655,0.012,2.734-0.899,2.734-2.831c0.012-1.679-0.971-2.566-2.542-2.566c-0.408,0-0.672,0.036-0.828,0.072V23.736L39.042,23.736
		z"/>
	<path fill="#FFFFFF" stroke="#FFFFFF" stroke-miterlimit="10" d="M45.618,23.233c0.492,0.252,1.248,0.503,2.027,0.503
		c0.84,0,1.283-0.348,1.283-0.875c0-0.503-0.385-0.792-1.355-1.139c-1.344-0.468-2.218-1.211-2.218-2.387
		c0-1.379,1.152-2.435,3.058-2.435c0.912,0,1.584,0.192,2.062,0.408l-0.408,1.475c-0.322-0.156-0.898-0.384-1.689-0.384
		c-0.793,0-1.176,0.36-1.176,0.78c0,0.516,0.455,0.743,1.498,1.139c1.428,0.528,2.1,1.271,2.1,2.411
		c0,1.355-1.043,2.507-3.262,2.507c-0.924,0-1.836-0.24-2.292-0.492L45.618,23.233z"/>
	<path fill="#FFFFFF" stroke="#FFFFFF" stroke-miterlimit="10" d="M56.849,21.698h-2.975v1.919h3.322v1.499H52.04v-8.083h4.988
		v1.499h-3.154v1.679h2.975V21.698z"/>
	<path fill="#FFFFFF" stroke="#FFFFFF" stroke-miterlimit="10" d="M65.354,26.507c-1.15-0.335-2.111-0.684-3.189-1.139
		c-0.18-0.072-0.373-0.108-0.564-0.12c-1.822-0.12-3.523-1.463-3.523-4.102c0-2.423,1.533-4.246,3.943-4.246
		c2.473,0,3.826,1.871,3.826,4.078c0,1.835-0.852,3.13-1.92,3.61v0.048c0.625,0.18,1.32,0.324,1.955,0.456L65.354,26.507z
		 M63.915,21.05c0-1.475-0.695-2.698-1.943-2.698c-1.246,0-1.967,1.223-1.967,2.734c-0.012,1.535,0.732,2.71,1.955,2.71
		C63.196,23.796,63.915,22.633,63.915,21.05z"/>
</g>
</svg>
