<?xml version="1.0" encoding="UTF-8" standalone="no"?>
<!DOCTYPE svg PUBLIC "-//W3C//DTD SVG 1.1//EN" "http://www.w3.org/Graphics/SVG/1.1/DTD/svg11.dtd">
<svg xmlns:xlink="http://www.w3.org/1999/xlink"
     xmlns:serif="http://www.serif.com/"
     width="26px"
     height="26px"
     version="1.1"
     xmlns="http://www.w3.org/2000/svg"
     xml:space="preserve"
     style="fill-rule:evenodd;clip-rule:evenodd;stroke-linejoin:round;stroke-miterlimit:1.41421;">
    <g id="Small"
       transform="matrix(2.68471,0,0,2.68471,-542.273,-366.89)">
        <path d="M211.292,140.637l-0.096,0.096l-0.768,-0.24l-0.24,-0.24l-0.048,-0.432l0.48,-0.48l0.096,-0.192l-0.048,-0.336l-0.384,-0.528l-0.192,0.048l-0.048,-0.192l0.048,-0.096l-0.336,-0.048l-0.624,0.288l-0.384,0.048l-0.336,-0.24l-0.192,-1.056l-0.288,-0.192l-0.144,0.048l-0.096,0.192l-0.096,0l-0.24,-0.192l-0.24,0.144l-0.24,-0.096l0.336,-0.048l0.048,-0.096l-0.288,-0.048l-0.24,0.144l-0.336,0.864l-0.528,0.096l-0.288,-0.24l-0.336,-0.432l-0.288,-0.096l-0.864,0.384l-0.24,0.288l-0.048,0.144l0.192,0.48l0.288,-0.048l-0.144,0.24l0,0.288l-0.24,0.384l0.24,0.144l0,0.096l-0.192,0.096l-0.192,0.24l-0.096,-0.048l0.192,-0.432l-0.672,-0.096l-0.576,0l-0.144,0.144l-0.288,0.72l0,0.336l0.24,0.336l0.672,0.432l0.48,0.624l0,0.24l-0.096,0.048l-0.096,-0.048l-0.096,-0.192l-0.144,-0.048l-0.24,0.048l-0.48,0.24l-0.24,0.336l0.192,0.48l0.048,0.528l0.384,0.24l0.096,-0.096l0.144,0.144l0.144,-0.384l0.288,-0.192l0.096,0l0.144,0.384l0.288,0.288l0.144,0.24l-0.288,1.056l0.24,0.288l0.144,0.048l0,-0.24l0.096,-0.048l0.096,0.336l0.096,0.096l0.432,0.192l0.24,-0.048l0.576,-0.72l0.096,-0.048l0.576,0.048l0.192,0.096l0.144,0.24l-0.192,0.192l0.048,0.144l0.288,-0.144l0.096,0.048l-0.048,0.144l-0.24,0.048l0.24,0.288l0.048,0.144l0.432,-0.192l0.336,0.048l0.48,-0.192l0.096,-0.192l0,-0.24l-0.144,-0.288l0,-0.24l0.528,-0.432l0.288,0.048l0.528,0.432l0.144,0.048l0.432,-0.192l0.144,-0.288l0.24,-0.192l0.144,-0.24l0.048,-0.384l-0.48,-0.48l-0.048,-0.48l-0.096,-0.192l0.912,-0.48l0.096,0.096l0.24,-0.048l0.144,-0.912l-0.096,-0.528l-0.096,-0.096Zm-4.704,2.4l-0.192,-0.096l-0.384,0l0.144,-0.144l0.288,-0.096l0.048,-0.096l-0.096,-0.096l-0.144,0l-0.384,0.24l0.048,0.192l-0.288,0.528l0.048,0.096l-0.192,0l-0.336,-0.288l-0.096,0l0.096,-0.144l0.288,0.048l0.096,0.096l0.048,-0.048l-0.048,-0.432l0.24,-0.336l0.048,-0.384l-0.144,-0.144l0.144,-0.048l-0.048,-0.384l-0.096,-0.192l0.096,-0.432l0.288,-0.24l0.288,-0.144l0.144,-0.432l0.144,0.048l-0.048,0.288l0.768,0.096l0.192,0.24l0.288,0.816l0.048,0.384l-0.48,0.192l-0.384,0.288l-0.432,0.576l0,0.048Zm1.392,-3.6l0.096,0.432l-0.096,0.144l-0.096,0l0,-0.432l-0.048,-0.096l-0.192,0.048l-0.24,-0.048l0.096,-0.144l0.192,0.048l-0.192,-0.432l0,-0.288l-0.096,0.096l-0.096,0l0,-0.144l0.096,-0.192l0.144,0l0.048,0.096l-0.048,0.144l0.192,0l0,-0.144l0.144,-0.048l0.144,0.144l-0.048,0.288l-0.192,0.096l0.192,0.24l0.144,0l0,-0.24l0.192,-0.048l0.24,-0.384l0.144,0.144l-0.144,0.336l-0.24,0.24l0.192,0.048l0.432,-0.24l0.192,0.048l0.096,0.24l-0.144,0.48l-0.144,-0.048l-0.048,-0.288l-0.096,-0.096l-0.096,0.384l-0.288,-0.24l-0.336,-0.144l-0.096,0Zm-3.648,1.728l0.192,0.048l0.192,0.144l0.432,-0.24l0.192,0l-0.24,0.288l-0.432,0.096l-0.384,-0.144l-0.048,-0.144l0.096,-0.048Zm5.136,0.384l-0.144,0.096l-0.336,-0.048l0.144,-0.24l-0.096,-0.096l0.288,-0.048l0.144,0.096l0.048,0.144l-0.048,0.096Zm-1.2,-0.096l-0.048,-0.384l0.048,-0.336l0.144,-0.096l0.048,0.192l-0.096,0.144l0.192,0.24l-0.192,0.192l-0.096,0.048Zm-4.272,1.296l0.624,-0.048l-0.048,0.192l-0.24,0.144l-0.24,-0.048l-0.096,-0.144l0,-0.096Zm4.608,-1.872l0.144,-0.528l0.24,0.624l-0.192,0l-0.192,-0.096Zm-0.816,-0.096l0.096,-0.624l0.144,0.096l0.048,0.288l-0.192,0.24l-0.096,0Zm-0.144,-3.168l-0.24,-0.048l-0.24,-0.144l0.096,-0.144l0.192,0.048l0.096,0.096l0.096,0.192Zm-1.104,6.864l0,-0.384l0.336,0.048l-0.24,0.336l-0.096,0Zm-1.92,0l0.144,-0.144l0.288,0.048l0.048,0.192l-0.384,-0.048l-0.096,-0.048Zm-1.008,-2.832l-0.048,-0.24l0.096,-0.096l0.144,0.048l0.096,0.192l-0.096,0l-0.096,0.096l-0.096,0Zm3.552,-2.064l0.048,0.144l-0.144,0.048l-0.24,-0.144l0.096,-0.144l0.192,0.048l0.048,0.048Zm-1.872,2.592l-0.528,-0.144l0.144,-0.096l0.192,0l0.144,0.144l0.048,0.096Zm1.632,2.784l-0.048,-0.24l0.096,-0.192l0.192,0.048l-0.192,0.336l-0.048,0.048Zm3.6,-3.072l-0.144,0.096l-0.096,-0.096l0,-0.144l0.192,-0.048l0.144,0.144l-0.096,0.048Zm-5.184,-3.696l0.24,0.048l-0.048,0.24l-0.144,-0.048l-0.048,-0.096l0,-0.144Zm-1.296,5.28l-0.288,-0.048l0.048,-0.192l0.192,0.048l0.048,0.096l0,0.096Zm1.968,-4.464l0.096,0.192l0,0.144l-0.192,-0.048l0,-0.096l0.096,-0.192Zm0.288,0l0.096,0.288l-0.144,0.096l-0.048,-0.192l0.096,-0.192Zm0.48,0.672l-0.288,0.24l-0.096,-0.048l0.096,-0.144l0.192,-0.048l0.096,0Zm-2.064,2.784l-0.192,-0.048l-0.096,-0.192l0.192,0.048l0.096,0.096l0,0.096Zm0.96,-2.784l0.144,0.048l0.048,0.144l-0.096,0.048l-0.144,-0.144l0.048,-0.096Zm2.976,2.352l-0.048,-0.096l0.144,-0.144l0.096,0.048l0,0.096l-0.192,0.096Zm1.296,0.432l0.096,-0.336l0.096,0.24l-0.096,0.096l-0.096,0Zm-4.512,-1.68l0,-0.24l0.192,0.144l0,0.096l-0.192,0Zm2.832,-0.768l0.144,-0.048l0.048,0.192l-0.096,0.048l-0.048,-0.048l-0.048,-0.144Zm1.056,-0.24l0.096,-0.192l0.24,-0.096l-0.096,0.144l-0.192,0.096l-0.048,0.048Zm-4.128,3.936l-0.144,-0.096l0.048,-0.144l0.144,0.096l-0.048,0.144Zm0.192,-1.248l0.048,-0.192l0.144,0.096l-0.048,0.096l-0.144,0Zm1.44,0.48l0.096,0.048l-0.048,0.192l-0.096,-0.048l0,-0.096l0.048,-0.096Zm2.16,-3.984l0,-0.24l0.144,0.144l-0.048,0.096l-0.096,0Zm-2.64,5.856l-0.048,-0.144l0.144,-0.048l0.048,0.048l-0.048,0.096l-0.096,0.048Zm0.288,-1.056l0,-0.192l0.144,0.096l0,0.096l-0.144,0Zm0.768,-5.52l-0.144,0l0,-0.096l0.096,-0.048l0.048,0.048l0,0.096Zm-2.544,1.104l0.24,0.096l-0.144,0.048l-0.096,-0.048l0,-0.096Zm5.136,4.512l-0.144,-0.144l0.048,-0.048l0.144,0.096l-0.048,0.096Zm0.048,-1.968l-0.096,0.144l-0.096,-0.192l0.096,0.048l0.096,0Zm-3.696,-2.448l0,0.096l-0.096,0l0,0.096l-0.048,-0.096l0.048,-0.096l0.096,0Zm-0.624,-0.048l0.144,0.048l0,0.096l-0.144,-0.048l0,-0.096Zm1.248,3.264l0.144,-0.048l0,0.096l-0.096,0.048l-0.048,-0.096Zm-2.016,-1.632l-0.096,0.048l-0.096,-0.048l0.048,-0.096l0.048,0.048l0.096,0.048Zm-0.96,1.632l-0.144,0.048l-0.048,-0.144l0.192,0.096Zm5.136,-2.112l-0.048,0.096l-0.096,-0.048l0.048,-0.096l0.096,0.048Zm-2.208,-2.976l-0.096,0.144l-0.048,-0.048l0.048,-0.048l0.096,-0.048Zm-4.416,5.28l-0.096,-0.048l0.144,-0.048l-0.048,0.096Zm1.344,-0.768l-0.048,0.096l-0.096,-0.048l0.048,0l0.096,-0.048Zm1.776,-0.192l-0.048,0.096l-0.048,-0.096l0.096,0Zm1.44,-2.88l0.048,-0.096l0.048,0.048l-0.096,0.048Z"
              style="fill-rule:nonzero;"/>
    </g>
</svg>
