<?xml version="1.0" encoding="UTF-8" standalone="no"?>
<!-- Created with Inkscape (http://www.inkscape.org/) -->

<svg
   xmlns:dc="http://purl.org/dc/elements/1.1/"
   xmlns:cc="http://creativecommons.org/ns#"
   xmlns:rdf="http://www.w3.org/1999/02/22-rdf-syntax-ns#"
   xmlns:svg="http://www.w3.org/2000/svg"
   xmlns="http://www.w3.org/2000/svg"
   xmlns:xlink="http://www.w3.org/1999/xlink"
   xmlns:sodipodi="http://sodipodi.sourceforge.net/DTD/sodipodi-0.dtd"
   xmlns:inkscape="http://www.inkscape.org/namespaces/inkscape"
   width="27"
   height="27"
   viewBox="0 0 7.1437501 7.1437501"
   version="1.1"
   id="svg113936"
   inkscape:version="0.92.3 (2405546, 2018-03-11)"
   sodipodi:docname="ZZC-Big-Knob-Inner.svg">
  <defs
     id="defs113930">
    <linearGradient
       inkscape:collect="always"
       xlink:href="#linearGradient1925"
       id="linearGradient8030"
       gradientUnits="userSpaceOnUse"
       gradientTransform="matrix(0.26303833,0,0,0.26303833,64.676912,84.058919)"
       x1="74.85244"
       y1="78.416855"
       x2="74.85244"
       y2="77.703018" />
    <linearGradient
       inkscape:collect="always"
       id="linearGradient1925">
      <stop
         style="stop-color:#5c5c52;stop-opacity:1;"
         offset="0"
         id="stop1921" />
      <stop
         style="stop-color:#3e3e39;stop-opacity:1"
         offset="1"
         id="stop1923" />
    </linearGradient>
  </defs>
  <sodipodi:namedview
     id="base"
     pagecolor="#ffffff"
     bordercolor="#666666"
     borderopacity="1.0"
     inkscape:pageopacity="0.0"
     inkscape:pageshadow="2"
     inkscape:zoom="32"
     inkscape:cx="2.255296"
     inkscape:cy="12.994506"
     inkscape:document-units="px"
     inkscape:current-layer="layer1"
     showgrid="true"
     fit-margin-top="0"
     fit-margin-left="0"
     fit-margin-right="0"
     fit-margin-bottom="0"
     inkscape:window-width="2317"
     inkscape:window-height="1579"
     inkscape:window-x="849"
     inkscape:window-y="662"
     inkscape:window-maximized="0"
     units="px"
     inkscape:snap-global="false">
    <inkscape:grid
       type="xygrid"
       id="grid825" />
  </sodipodi:namedview>
  <metadata
     id="metadata113933">
    <rdf:RDF>
      <cc:Work
         rdf:about="">
        <dc:format>image/svg+xml</dc:format>
        <dc:type
           rdf:resource="http://purl.org/dc/dcmitype/StillImage" />
        <dc:title />
      </cc:Work>
    </rdf:RDF>
  </metadata>
  <g
     inkscape:label="Layer 1"
     inkscape:groupmode="layer"
     id="layer1"
     transform="translate(-80.833177,-103.94641)">
    <circle
       r="3.5191762"
       cy="107.51829"
       cx="84.405052"
       id="circle7902"
       style="opacity:1;fill:#959584;fill-opacity:1;stroke:#000000;stroke-width:0.07937501;stroke-linecap:round;stroke-linejoin:round;stroke-miterlimit:0;stroke-dasharray:none;stroke-dashoffset:0;stroke-opacity:0.53710196" />
    <path
       style="opacity:1;fill:#eaead5;fill-opacity:1;stroke:#000000;stroke-width:0.10583334;stroke-linecap:round;stroke-linejoin:round;stroke-miterlimit:0;stroke-dasharray:none;stroke-dashoffset:0;stroke-opacity:0.48763254"
       d="m 85.118813,104.14022 c -0.148301,-0.0314 -0.298197,-0.0494 -0.448643,-0.0611 -0.07752,0.10497 -0.211414,0.15176 -0.337443,0.11792 -0.06975,-0.0189 -0.130954,-0.061 -0.173487,-0.11947 -0.150383,0.0107 -0.300562,0.0276 -0.448936,0.0579 -0.523506,0.4888 -1.131571,0.86529 -1.867458,1.07199 -0.1031,0.11444 -0.19495,0.23738 -0.281501,0.36392 0.02898,0.0662 0.03449,0.14031 0.01562,0.21007 -0.0345,0.12569 -0.14236,0.2175 -0.271955,0.23144 -0.06706,0.13815 -0.128229,0.27906 -0.176509,0.42559 0.112888,0.71918 0.136297,1.43661 -0.0059,2.15083 0.04746,0.14483 0.107571,0.28438 0.17338,0.42107 0.01624,0.002 0.03234,0.005 0.04813,0.009 0.16905,0.0459 0.268887,0.22015 0.223003,0.38921 -0.0042,0.0152 -0.0095,0.03 -0.01592,0.0445 0.08536,0.12563 0.175849,0.24785 0.277495,0.36166 0.69161,0.21223 1.320228,0.55679 1.862953,1.0818 0.148145,0.0314 0.297951,0.0493 0.44824,0.061 0.0776,-0.10478 0.211425,-0.1514 0.337335,-0.11751 0.06959,0.0189 0.130639,0.061 0.173083,0.11936 0.150284,-0.0106 0.300139,-0.0274 0.448425,-0.0577 0.556074,-0.49779 1.189793,-0.83243 1.868482,-1.07258 0.103101,-0.11444 0.194948,-0.23738 0.281502,-0.36393 -0.02898,-0.0662 -0.03449,-0.1403 -0.01562,-0.21006 0.0345,-0.12569 0.14236,-0.2175 0.271956,-0.23145 0.06706,-0.13814 0.128229,-0.27905 0.176509,-0.42558 -0.152539,-0.72374 -0.126907,-1.43932 0.0056,-2.15001 -0.0475,-0.14519 -0.107623,-0.28497 -0.173562,-0.42199 -0.01598,-0.002 -0.03179,-0.004 -0.04732,-0.008 -0.168951,-0.0456 -0.269018,-0.21949 -0.223624,-0.3885 0.0043,-0.0153 0.0098,-0.0303 0.01643,-0.0447 -0.08539,-0.12579 -0.176085,-0.24822 -0.277789,-0.36217 -0.687119,-0.23423 -1.308196,-0.59436 -1.862555,-1.08168 z"
       id="path7904"
       inkscape:connector-curvature="0"
       sodipodi:nodetypes="ccccccccccccccccccccccccccccccccc" />
    <ellipse
       ry="2.3831191"
       rx="2.3814516"
       cy="-107.51829"
       cx="84.405052"
       id="ellipse7906"
       style="opacity:1;fill:#dfdfc7;fill-opacity:1;stroke:#959584;stroke-width:0.13229166;stroke-linecap:round;stroke-linejoin:round;stroke-miterlimit:4;stroke-dasharray:none;stroke-dashoffset:0;stroke-opacity:1"
       transform="scale(1,-1)" />
    <path
       sodipodi:nodetypes="ccsssscccc"
       inkscape:connector-curvature="0"
       id="path7908"
       d="m 84.219789,104.04385 c -0.04774,0.002 -0.09076,0.01 -0.136384,0.0145 v 1.35434 c 0,0.12546 0.101023,0.22655 0.226398,0.22655 h 0.190029 c 0.125375,0 0.226398,-0.10109 0.226398,-0.22655 v -1.35844 c -0.102106,-0.0102 -0.208373,-0.0148 -0.321412,-0.0105 -0.06346,-0.002 -0.125107,-0.002 -0.185029,1e-5 z"
       style="opacity:1;fill:url(#linearGradient8030);fill-opacity:1;stroke:#000000;stroke-width:0.13229166;stroke-linecap:round;stroke-linejoin:round;stroke-miterlimit:4;stroke-dasharray:none;stroke-dashoffset:0;stroke-opacity:0.614841" />
  </g>
</svg>
