<?xml version="1.0" encoding="UTF-8" standalone="no"?>
<!DOCTYPE svg PUBLIC "-//W3C//DTD SVG 1.1//EN" "http://www.w3.org/Graphics/SVG/1.1/DTD/svg11.dtd">
<svg width="70" height="15" viewBox="0 0 50 11" version="1.1" 
   xmlns="http://www.w3.org/2000/svg" 
   xmlns:xlink="http://www.w3.org/1999/xlink" xml:space="preserve" style="fill-rule:evenodd;clip-rule:evenodd;stroke-linecap:round;stroke-linejoin:round;stroke-miterlimit:1.5;">
   <g transform="matrix(0.974359,0,0,0.46806,-98.8666,-119.842)">
      <path d="M141,258.821c0,-0.964 -0.376,-1.746 -0.839,-1.746l-37.322,0c-0.463,0 -0.839,0.782 -0.839,1.746l0,17.872c0,0.964 0.376,1.746 0.839,1.746l37.322,0c0.463,0 0.839,-0.782 0.839,-1.746l0,-17.872Z" style="fill:rgb(166,166,166);stroke:rgb(13,13,13);stroke-width:1.31px;"/>
   </g>
   <g transform="matrix(1,0,0,1,-102.482,-257.225)">
      <path d="M103,265l38,0" style="fill:none;stroke:rgb(64,64,64);stroke-opacity:0.470588;stroke-width:0.5px;"/>
   </g>
   <g transform="matrix(1,0,0,1,-102.482,-256.225)">
      <path d="M103,265l38,0" style="fill:none;stroke:rgb(64,64,64);stroke-opacity:0.470588;stroke-width:0.5px;"/>
   </g>
   <g transform="matrix(1,0,0,1,-102.482,-255.225)">
      <path d="M103,265l38,0" style="fill:none;stroke:rgb(64,64,64);stroke-opacity:0.470588;stroke-width:0.5px;"/>
   </g>
   <g transform="matrix(1,0,0,1,-102.482,-258.225)">
      <path d="M103,265l38,0" style="fill:none;stroke:rgb(64,64,64);stroke-opacity:0.470588;stroke-width:0.5px;"/>
   </g>
   <g transform="matrix(1,0,0,1,-102.482,-263.225)">
      <path d="M103,265l38,0" style="fill:none;stroke:rgb(64,64,64);stroke-opacity:0.470588;stroke-width:0.5px;"/>
   </g>
   <g transform="matrix(1,0,0,1,-102.482,-262.225)">
      <path d="M103,265l38,0" style="fill:none;stroke:rgb(64,64,64);stroke-opacity:0.470588;stroke-width:0.5px;"/>
   </g>
   <g transform="matrix(1,0,0,1,-102.482,-261.225)">
      <path d="M103,265l38,0" style="fill:none;stroke:rgb(64,64,64);stroke-opacity:0.470588;stroke-width:0.5px;"/>
   </g>
   <g transform="matrix(1,0,0,1,-102.482,-260.225)">
      <path d="M103,265l38,0" style="fill:none;stroke:rgb(64,64,64);stroke-opacity:0.470588;stroke-width:0.5px;"/>
   </g>
   <g transform="matrix(1,0,0,1,-102.482,-259.225)">
      <path d="M103,265l38,0" style="fill:none;stroke:rgb(64,64,64);stroke-opacity:0.470588;stroke-width:0.5px;"/>
   </g>
   <g transform="matrix(1,0,0,1,-106.225,-259.175)">
      <path d="M114.068,264.393l-0.522,0.468l-0.405,-0.468l0.297,-2.079l0.522,-0.459l0.405,0.459l-0.297,2.079Zm-0.162,-2.601l-0.531,0.459l-2.16,0l-0.801,-0.927l3.096,0l0.396,0.468Zm-3.06,2.601l-0.549,0.486l-0.45,0l0.495,-3.492l0.792,0.927l-0.288,2.079Zm2.619,0.531l-0.531,0.468l-2.16,0l-0.405,-0.468l0.531,-0.459l2.169,0l0.396,0.459Zm0.027,3.6l-0.864,0l-1.899,-2.628l0.054,-0.414l0.837,0l1.926,2.655l-0.054,0.387Zm-3.177,-0.459l-0.522,0.459l-0.405,-0.459l0.441,-3.096l0.441,0l0.414,0.486l-0.369,2.61Z" style="fill:none;"/>
      <path d="M118.811,261.792l-0.531,0.459l-2.151,0l-0.396,-0.468l0.522,-0.459l2.16,0l0.396,0.468Zm-3.051,2.601l-0.549,0.486l-0.45,0l0.36,-2.565l0.531,-0.459l0.396,0.459l-0.288,2.079Zm-0.441,3.141l-0.531,0.459l-0.396,-0.459l0.36,-2.565l0.441,0l0.414,0.486l-0.288,2.079Zm2.61,0.531l-0.531,0.459l-2.151,0l-0.396,-0.459l0.522,-0.468l2.16,0l0.396,0.468Zm-0.081,-3.141l-0.531,0.468l-1.638,0l-0.405,-0.468l0.531,-0.459l1.638,0l0.405,0.459Z" style="fill:none;"/>
      <path d="M120.926,264.393l-0.549,0.486l-0.45,0l0.441,-3.096l0.522,-0.459l0.405,0.459l-0.369,2.61Zm-0.441,3.141l-0.531,0.459l-0.396,-0.459l0.36,-2.565l0.441,0l0.414,0.486l-0.288,2.079Zm2.61,0.531l-0.531,0.459l-2.151,0l-0.396,-0.459l0.522,-0.468l2.16,0l0.396,0.468Z" style="fill:none;"/>
      <path d="M128.261,261.792l-0.531,0.459l-2.151,0l-0.396,-0.468l0.522,-0.459l2.16,0l0.396,0.468Zm-3.051,2.601l-0.549,0.486l-0.45,0l0.36,-2.565l0.531,-0.459l0.396,0.459l-0.288,2.079Zm-0.441,3.141l-0.531,0.459l-0.396,-0.459l0.36,-2.565l0.441,0l0.414,0.486l-0.288,2.079Zm2.61,0.531l-0.531,0.459l-2.151,0l-0.396,-0.459l0.522,-0.468l2.16,0l0.396,0.468Zm-0.081,-3.141l-0.531,0.468l-1.638,0l-0.405,-0.468l0.531,-0.459l1.638,0l0.405,0.459Z" style="fill:none;"/>
      <path d="M129.215,268.065l-0.531,0.459l-0.396,-0.459l0.432,-3.096l0.45,0l0.414,0.486l-0.369,2.61Zm0.522,-3.672l-0.549,0.486l-0.45,0l0.351,-2.547l0.549,-0.477l0.396,0.459l-0.297,2.079Zm3.069,-2.601l-0.531,0.459l-2.151,0l-0.405,-0.468l0.531,-0.459l2.151,0l0.405,0.468Zm0.108,3.087l-0.459,0l-0.414,-0.486l0.288,-2.079l0.531,-0.459l0.405,0.468l-0.351,2.556Zm-0.018,0.09l-0.432,3.096l-0.531,0.459l-0.396,-0.459l0.369,-2.61l0.549,-0.486l0.441,0Zm-0.531,-0.045l-0.531,0.468l-2.169,0l-0.396,-0.468l0.531,-0.459l2.16,0l0.405,0.459Z" style="fill:none;"/>
      <path d="M137.909,262.575l-0.531,0.468l-0.396,-0.468l0.036,-0.261l0.531,-0.459l0.396,0.459l-0.036,0.261Zm-0.423,-0.792l-0.522,0.468l-2.16,0l-0.396,-0.468l0.531,-0.459l2.151,0l0.396,0.459Zm-3.051,2.61l-0.531,0.468l-0.396,-0.468l0.297,-2.079l0.522,-0.459l0.405,0.459l-0.297,2.079Zm2.61,0.531l-0.522,0.468l-2.169,0l-0.396,-0.468l0.522,-0.459l2.169,0l0.396,0.459Zm0.171,2.61l-0.531,0.459l-0.396,-0.459l0.288,-2.079l0.531,-0.468l0.396,0.468l-0.288,2.079Zm-0.621,0.531l-0.531,0.459l-2.151,0l-0.396,-0.459l0.522,-0.468l2.16,0l0.396,0.468Zm-2.61,-0.531l-0.531,0.459l-0.396,-0.459l0.036,-0.261l0.531,-0.468l0.396,0.468l-0.036,0.261Z" style="fill:none;"/>
      <path d="M142.436,261.792l-0.531,0.459l-2.151,0l-0.396,-0.468l0.522,-0.459l2.16,0l0.396,0.468Zm-3.051,2.601l-0.549,0.486l-0.45,0l0.36,-2.565l0.531,-0.459l0.396,0.459l-0.288,2.079Zm-0.441,3.141l-0.531,0.459l-0.396,-0.459l0.36,-2.565l0.441,0l0.414,0.486l-0.288,2.079Zm2.61,0.531l-0.531,0.459l-2.151,0l-0.396,-0.459l0.522,-0.468l2.16,0l0.396,0.468Zm-0.081,-3.141l-0.531,0.468l-1.638,0l-0.405,-0.468l0.531,-0.459l1.638,0l0.405,0.459Z" style="fill:none;"/>
      <path d="M114.068,264.393l-0.522,0.468l-0.405,-0.468l0.297,-2.079l0.522,-0.459l0.405,0.459l-0.297,2.079Zm-0.162,-2.601l-0.531,0.459l-2.16,0l-0.801,-0.927l3.096,0l0.396,0.468Zm-3.06,2.601l-0.549,0.486l-0.45,0l0.495,-3.492l0.792,0.927l-0.288,2.079Zm2.619,0.531l-0.531,0.468l-2.16,0l-0.405,-0.468l0.531,-0.459l2.169,0l0.396,0.459Zm0.027,3.6l-0.864,0l-1.899,-2.628l0.054,-0.414l0.837,0l1.926,2.655l-0.054,0.387Zm-3.177,-0.459l-0.522,0.459l-0.405,-0.459l0.441,-3.096l0.441,0l0.414,0.486l-0.369,2.61Z" style="fill:rgb(38,38,38);fill-rule:nonzero;"/>
      <path d="M118.811,261.792l-0.531,0.459l-2.151,0l-0.396,-0.468l0.522,-0.459l2.16,0l0.396,0.468Zm-3.051,2.601l-0.549,0.486l-0.45,0l0.36,-2.565l0.531,-0.459l0.396,0.459l-0.288,2.079Zm-0.441,3.141l-0.531,0.459l-0.396,-0.459l0.36,-2.565l0.441,0l0.414,0.486l-0.288,2.079Zm2.61,0.531l-0.531,0.459l-2.151,0l-0.396,-0.459l0.522,-0.468l2.16,0l0.396,0.468Zm-0.081,-3.141l-0.531,0.468l-1.638,0l-0.405,-0.468l0.531,-0.459l1.638,0l0.405,0.459Z" style="fill:rgb(38,38,38);fill-rule:nonzero;"/>
      <path d="M120.926,264.393l-0.549,0.486l-0.45,0l0.441,-3.096l0.522,-0.459l0.405,0.459l-0.369,2.61Zm-0.441,3.141l-0.531,0.459l-0.396,-0.459l0.36,-2.565l0.441,0l0.414,0.486l-0.288,2.079Zm2.61,0.531l-0.531,0.459l-2.151,0l-0.396,-0.459l0.522,-0.468l2.16,0l0.396,0.468Z" style="fill:rgb(38,38,38);fill-rule:nonzero;"/>
      <path d="M128.261,261.792l-0.531,0.459l-2.151,0l-0.396,-0.468l0.522,-0.459l2.16,0l0.396,0.468Zm-3.051,2.601l-0.549,0.486l-0.45,0l0.36,-2.565l0.531,-0.459l0.396,0.459l-0.288,2.079Zm-0.441,3.141l-0.531,0.459l-0.396,-0.459l0.36,-2.565l0.441,0l0.414,0.486l-0.288,2.079Zm2.61,0.531l-0.531,0.459l-2.151,0l-0.396,-0.459l0.522,-0.468l2.16,0l0.396,0.468Zm-0.081,-3.141l-0.531,0.468l-1.638,0l-0.405,-0.468l0.531,-0.459l1.638,0l0.405,0.459Z" style="fill:rgb(38,38,38);fill-rule:nonzero;"/>
      <path d="M129.215,268.065l-0.531,0.459l-0.396,-0.459l0.432,-3.096l0.45,0l0.414,0.486l-0.369,2.61Zm0.522,-3.672l-0.549,0.486l-0.45,0l0.351,-2.547l0.549,-0.477l0.396,0.459l-0.297,2.079Zm3.069,-2.601l-0.531,0.459l-2.151,0l-0.405,-0.468l0.531,-0.459l2.151,0l0.405,0.468Zm0.108,3.087l-0.459,0l-0.414,-0.486l0.288,-2.079l0.531,-0.459l0.405,0.468l-0.351,2.556Zm-0.018,0.09l-0.432,3.096l-0.531,0.459l-0.396,-0.459l0.369,-2.61l0.549,-0.486l0.441,0Zm-0.531,-0.045l-0.531,0.468l-2.169,0l-0.396,-0.468l0.531,-0.459l2.16,0l0.405,0.459Z" style="fill:rgb(38,38,38);fill-rule:nonzero;"/>
      <path d="M137.909,262.575l-0.531,0.468l-0.396,-0.468l0.036,-0.261l0.531,-0.459l0.396,0.459l-0.036,0.261Zm-0.423,-0.792l-0.522,0.468l-2.16,0l-0.396,-0.468l0.531,-0.459l2.151,0l0.396,0.459Zm-3.051,2.61l-0.531,0.468l-0.396,-0.468l0.297,-2.079l0.522,-0.459l0.405,0.459l-0.297,2.079Zm2.61,0.531l-0.522,0.468l-2.169,0l-0.396,-0.468l0.522,-0.459l2.169,0l0.396,0.459Zm0.171,2.61l-0.531,0.459l-0.396,-0.459l0.288,-2.079l0.531,-0.468l0.396,0.468l-0.288,2.079Zm-0.621,0.531l-0.531,0.459l-2.151,0l-0.396,-0.459l0.522,-0.468l2.16,0l0.396,0.468Zm-2.61,-0.531l-0.531,0.459l-0.396,-0.459l0.036,-0.261l0.531,-0.468l0.396,0.468l-0.036,0.261Z" style="fill:rgb(38,38,38);fill-rule:nonzero;"/>
      <path d="M142.436,261.792l-0.531,0.459l-2.151,0l-0.396,-0.468l0.522,-0.459l2.16,0l0.396,0.468Zm-3.051,2.601l-0.549,0.486l-0.45,0l0.36,-2.565l0.531,-0.459l0.396,0.459l-0.288,2.079Zm-0.441,3.141l-0.531,0.459l-0.396,-0.459l0.36,-2.565l0.441,0l0.414,0.486l-0.288,2.079Zm2.61,0.531l-0.531,0.459l-2.151,0l-0.396,-0.459l0.522,-0.468l2.16,0l0.396,0.468Zm-0.081,-3.141l-0.531,0.468l-1.638,0l-0.405,-0.468l0.531,-0.459l1.638,0l0.405,0.459Z" style="fill:rgb(38,38,38);fill-rule:nonzero;"/>
   </g>
   <g transform="matrix(1,0,0,1,-239.5,-263)">
      <g transform="matrix(1,0,0,1.04963,-1,-13.1016)">
         <ellipse cx="285.5" cy="268.287" rx="4.5" ry="4.287" style="fill:rgb(102,102,102);"/>
      </g>
      <g transform="matrix(0.888889,0,0,0.933002,30.7222,18.1875)">
         <ellipse cx="285.5" cy="268.287" rx="4.5" ry="4.287" style="fill:rgb(51,51,51);stroke:rgb(77,77,77);stroke-width:0.55px;"/>
      </g>
      <g transform="matrix(0.777778,0,0,0.816377,62.2444,49.4765)">
         <ellipse cx="285.5" cy="268.287" rx="4.5" ry="4.287"/>
      </g>
   </g>
</svg>