<?xml version="1.0" encoding="UTF-8" standalone="no"?>
<!DOCTYPE svg PUBLIC "-//W3C//DTD SVG 1.1//EN" "http://www.w3.org/Graphics/SVG/1.1/DTD/svg11.dtd">
<svg width="45" height="380" viewBox="0 0 45 380" version="1.1" 
   xmlns="http://www.w3.org/2000/svg" 
   xmlns:xlink="http://www.w3.org/1999/xlink" xml:space="preserve" style="fill-rule:evenodd;clip-rule:evenodd;stroke-linecap:round;stroke-linejoin:round;stroke-miterlimit:1.5;">
   <g id="Panel" transform="matrix(1,0,0,1,3.75,0)">
      <g id="rect9931" transform="matrix(1.13682,0,0,3.78266,-3.8113,-743.338)">
         <rect x="0.054" y="196.512" width="39.584" height="100.458" style="fill:rgb(32,32,32);"/>
      </g>
      <g transform="matrix(1,0,0,1,0.5,6)">
         <g transform="matrix(1,0,0,1,-0.169063,-159.289)">
            <path d="M12.798,222.448l0.063,3.53l6.139,2.013l5.996,-1.857l0.044,-3.586l-6.035,1.887l-6.207,-1.987Z" style="fill:rgb(77,77,77);"/>
         </g>
         <g transform="matrix(1,0,0,1,-0.25,-153.746)">
            <path d="M12.798,222.448l0.063,3.53l6.139,2.013l5.996,-1.857l0.044,-3.586l-6.035,1.887l-6.207,-1.987Z" style="fill:rgb(77,77,77);"/>
         </g>
      </g>
      <g transform="matrix(1,0,0,1,0.419063,41.3938)">
         <g transform="matrix(1,0,0,1,-0.169063,-159.289)">
            <path d="M12.798,222.448l0.063,3.53l6.139,2.013l5.996,-1.857l0.044,-3.586l-6.035,1.887l-6.207,-1.987Z" style="fill:rgb(77,77,77);"/>
         </g>
         <g transform="matrix(1,0,0,1,-0.25,-153.746)">
            <path d="M12.798,222.448l0.063,3.53l6.139,2.013l5.996,-1.857l0.044,-3.586l-6.035,1.887l-6.207,-1.987Z" style="fill:rgb(77,77,77);"/>
         </g>
      </g>
      <g transform="matrix(1,0,0,1,0.419063,79.0499)">
         <g transform="matrix(1,0,0,1,-0.169063,-159.289)">
            <path d="M12.798,222.448l0.063,3.53l6.139,2.013l5.996,-1.857l0.044,-3.586l-6.035,1.887l-6.207,-1.987Z" style="fill:rgb(77,77,77);"/>
         </g>
         <g transform="matrix(1,0,0,1,-0.25,-153.746)">
            <path d="M12.798,222.448l0.063,3.53l6.139,2.013l5.996,-1.857l0.044,-3.586l-6.035,1.887l-6.207,-1.987Z" style="fill:rgb(77,77,77);"/>
         </g>
      </g>
      <g transform="matrix(1,0,0,0.733219,1.5,16.0829)">
         <path d="M17.75,70.101l0,134.974" style="fill:none;stroke:rgb(255,249,249);stroke-width:2.28px;"/>
      </g>
      <g transform="matrix(1.02716,0,0,0.949482,0.783084,-140.082)">
         <path d="M30.635,198.07c0,-3.778 -2.836,-6.846 -6.328,-6.846l-12.657,0c-3.492,0 -6.328,3.068 -6.328,6.846l0,13.692c0,3.778 2.836,6.846 6.328,6.846l12.657,0c3.492,0 6.328,-3.068 6.328,-6.846l0,-13.692Z" style="fill:none;stroke:rgb(255,249,249);stroke-width:2.02px;"/>
      </g>
      <g transform="matrix(1,0,0,1,0.5,149.463)">
         <g transform="matrix(1,0,0,1,-0.169063,-159.289)">
            <path d="M12.798,222.448l0.063,3.53l6.139,2.013l5.996,-1.857l0.044,-3.586l-6.035,1.887l-6.207,-1.987Z" style="fill:rgb(77,77,77);"/>
         </g>
         <g transform="matrix(1,0,0,1,-0.25,-153.746)">
            <path d="M12.798,222.448l0.063,3.53l6.139,2.013l5.996,-1.857l0.044,-3.586l-6.035,1.887l-6.207,-1.987Z" style="fill:rgb(77,77,77);"/>
         </g>
      </g>
      <g transform="matrix(1,0,0,1,0.419063,184.856)">
         <g transform="matrix(1,0,0,1,-0.169063,-159.289)">
            <path d="M12.798,222.448l0.063,3.53l6.139,2.013l5.996,-1.857l0.044,-3.586l-6.035,1.887l-6.207,-1.987Z" style="fill:rgb(77,77,77);"/>
         </g>
         <g transform="matrix(1,0,0,1,-0.25,-153.746)">
            <path d="M12.798,222.448l0.063,3.53l6.139,2.013l5.996,-1.857l0.044,-3.586l-6.035,1.887l-6.207,-1.987Z" style="fill:rgb(77,77,77);"/>
         </g>
      </g>
      <g transform="matrix(1,0,0,1,0.419063,222.513)">
         <g transform="matrix(1,0,0,1,-0.169063,-159.289)">
            <path d="M12.798,222.448l0.063,3.53l6.139,2.013l5.996,-1.857l0.044,-3.586l-6.035,1.887l-6.207,-1.987Z" style="fill:rgb(77,77,77);"/>
         </g>
         <g transform="matrix(1,0,0,1,-0.25,-153.746)">
            <path d="M12.798,222.448l0.063,3.53l6.139,2.013l5.996,-1.857l0.044,-3.586l-6.035,1.887l-6.207,-1.987Z" style="fill:rgb(77,77,77);"/>
         </g>
      </g>
      <g transform="matrix(1,0,0,0.733219,1.5,159.546)">
         <path d="M17.75,70.101l0,134.974" style="fill:none;stroke:rgb(255,249,249);stroke-width:2.28px;"/>
      </g>
      <g transform="matrix(1.02716,0,0,0.949482,0.783084,3.38102)">
         <path d="M30.635,198.07c0,-3.778 -2.836,-6.846 -6.328,-6.846l-12.657,0c-3.492,0 -6.328,3.068 -6.328,6.846l0,13.692c0,3.778 2.836,6.846 6.328,6.846l12.657,0c3.492,0 6.328,-3.068 6.328,-6.846l0,-13.692Z" style="fill:none;stroke:rgb(255,249,249);stroke-width:2.02px;"/>
      </g>
      <g transform="matrix(1,0,0,1,-35.5538,215.076)">
         <circle cx="54.657" cy="94.929" r="6.854"/>
      </g>
      <g id="g8091" transform="matrix(0.0359254,0,0,0.0359254,19.2389,347.46)">
         <path id="path4" d="M210.282,78.87c0,-125.517 -101.752,-227.268 -227.271,-227.268c-125.514,0 -227.267,101.751 -227.267,227.268c0,125.516 101.752,227.268 227.267,227.268c125.519,0 227.271,-101.752 227.271,-227.268l0,0Z" style="fill:rgb(117,117,117);fill-rule:nonzero;stroke:rgb(53,53,53);stroke-width:17px;stroke-linecap:butt;stroke-linejoin:miter;stroke-miterlimit:10;"/>
         <g id="g40" transform="matrix(1,0,0,1,-426.825,-542.575)">
            <path id="polygon6" d="M357.002,759.965l15.391,-24.781l-29.594,-66.614l-61.688,-63.583l12.788,86.322l16.629,35.632l23.179,35.166l23.295,-2.142Z" style="fill:rgb(43,43,43);fill-rule:nonzero;"/>
            <path id="polygon8" d="M460.762,760.17l-15.392,-24.783l29.597,-66.612l61.685,-63.582l-12.787,86.321l-16.63,35.631l-23.175,35.168l-23.298,-2.143Z" style="fill:rgb(38,38,38);fill-rule:nonzero;"/>
            <path id="polygon12" d="M337.948,452.81l71.936,-18.383l0,374.323l-37.568,-73.799l-29.517,-66.381l-28.471,-16.175l-57.105,-81.295l-1.598,-21.58l31.971,-57.547l50.352,-39.163Z" style="fill:rgb(66,66,66);fill-rule:nonzero;"/>
            <path id="polygon14" d="M481.727,452.944l-71.932,-18.382l0,374.325l37.564,-73.801l29.518,-66.379l28.473,-16.178l57.101,-81.295l1.599,-21.579l-31.969,-57.547l-50.354,-39.164Z" style="fill:rgb(51,51,51);fill-rule:nonzero;"/>
            <path id="polyline16" d="M361.886,616.429l47.96,-46.887l0,34.229l-47.96,47.827l0,-35.169" style="fill:rgb(76,76,76);fill-rule:nonzero;"/>
            <path id="polygon18" d="M409.881,603.732l-47.957,47.827l10.469,83.625l37.491,73.566l-0.003,-205.018Z" style="fill:rgb(91,91,91);fill-rule:nonzero;"/>
            <path id="polygon20" d="M409.884,808.75l-37.491,-73.566l37.485,-17.672l0.006,91.238Z" style="fill:rgb(51,51,51);fill-rule:nonzero;"/>
            <path id="polygon22" d="M361.924,651.559l0,-35.169l-34.766,-43.958l-41.119,-33.129l-0.043,25.934l21.582,50.752l54.346,35.57Z" style="fill:white;fill-rule:nonzero;"/>
            <path id="polyline24" d="M457.816,616.448l-47.957,-46.887l0,34.229l47.957,47.826l0,-35.168" style="fill:rgb(45,45,45);fill-rule:nonzero;"/>
            <path id="polygon26" d="M409.804,603.732l47.954,47.827l-10.469,83.625l-37.488,73.566l0.003,-205.018Z" style="fill:rgb(53,53,53);fill-rule:nonzero;"/>
            <path id="polygon28" d="M409.801,808.75l37.488,-73.566l-37.482,-17.672l-0.006,91.238Z" style="fill:rgb(25,25,25);fill-rule:nonzero;"/>
            <path id="polygon30" d="M457.758,651.559l0,-35.168l34.765,-43.958l41.122,-33.13l0.041,25.935l-21.578,50.753l-54.35,35.568Z" style="fill:white;fill-rule:nonzero;"/>
            <path id="polyline32" d="M338.399,452.22l71.425,117.329l-0.154,-135.546" style="fill:rgb(56,56,56);fill-rule:nonzero;"/>
            <path id="polyline34" d="M481.271,452.232l-71.425,117.329l0.154,-135.545" style="fill:rgb(45,45,45);fill-rule:nonzero;"/>
            <path id="polygon36" d="M342.815,668.578l19.143,-16.982l10.448,83.674l-29.591,-66.692Z" style="fill:rgb(51,51,51);fill-rule:nonzero;"/>
            <path id="polygon38" d="M476.975,668.989l-19.144,-16.982l-10.448,83.675l29.592,-66.693Z" style="fill:rgb(28,28,28);fill-rule:nonzero;"/>
         </g>
      </g>
      <g id="g50" transform="matrix(0.0626855,0,0,0.0626855,-6.94088,276.614)">
         <path id="path42" d="M224.699,869.111l27.948,0l26.026,86.945l26.911,-86.945l27.806,0l-36.174,108.69c-3.38,10.021 -9.436,15.027 -18.173,15.027c-8.854,0 -14.971,-5.059 -18.345,-15.181l-35.999,-108.536Z" style="fill:rgb(102,102,102);fill-rule:nonzero;"/>
         <path id="path44" d="M335.484,961.026l0,-91.915l26.211,0l0,91.041c0.464,3.263 3.495,4.893 9.087,4.893l17.824,0c5.357,0 8.328,-1.512 8.912,-4.543l0.175,-0.874l0,-90.517l26.211,0l0,91.74c0,8.038 -0.873,13.747 -2.621,17.125c-4.66,8.972 -12.873,13.455 -24.639,13.455l-33.9,0c-12.118,0 -20.388,-4.601 -24.814,-13.805c-1.632,-3.377 -2.446,-8.911 -2.446,-16.6l0,0Z" style="fill:rgb(102,102,102);fill-rule:nonzero;"/>
         <path id="path46" d="M435.961,961.551l0,-92.439l26.212,0l0,90.342c0,3.73 2.211,5.592 6.64,5.592l46.657,0l-0.175,26.387l-48.754,0c-1.747,0 -3.263,-0.058 -4.543,-0.175c-9.437,-0.813 -16.137,-3.582 -20.096,-8.3c-3.962,-4.72 -5.941,-11.854 -5.941,-21.407l0,0Z" style="fill:rgb(102,102,102);fill-rule:nonzero;"/>
         <path id="path48" d="M516.341,895.497l0,-26.386l78.635,0l0,26.386l-26.386,0l0,95.935l-26.212,0l0,-95.935l-26.037,0Z" style="fill:rgb(102,102,102);fill-rule:nonzero;"/>
      </g>
      <g transform="matrix(1,0,0,1,-35.5538,-3.06023)">
         <circle cx="54.657" cy="94.929" r="6.854"/>
      </g>
      <g transform="matrix(1,0,0,1,-35.5538,-40.4454)">
         <circle cx="54.657" cy="94.929" r="6.854"/>
      </g>
      <g transform="matrix(1,0,0,1,-35.5538,34.0642)">
         <circle cx="54.657" cy="94.929" r="6.854"/>
      </g>
      <g transform="matrix(1,0,0,1,-35.5538,71.0762)">
         <circle cx="54.657" cy="94.929" r="6.854"/>
      </g>
      <g transform="matrix(1,0,0,1,-35.5538,103.092)">
         <circle cx="54.657" cy="94.929" r="6.854"/>
      </g>
      <g transform="matrix(1,0,0,1,-35.4025,140.076)">
         <circle cx="54.657" cy="94.929" r="6.854"/>
      </g>
      <g transform="matrix(1,0,0,1,-35.5538,177.076)">
         <circle cx="54.657" cy="94.929" r="6.854"/>
      </g>
      <g transform="matrix(1.33192,0,0,1.33192,1.37097,32.6096)">
         <g id="text7967">
            <path d="M4.656,-5.299c-0.201,-0.163 -0.403,-0.285 -0.604,-0.363c-0.202,-0.079 -0.397,-0.118 -0.586,-0.118c-0.239,0 -0.434,0.056 -0.585,0.17c-0.151,0.113 -0.227,0.261 -0.227,0.444c0,0.126 0.038,0.229 0.113,0.311c0.076,0.082 0.175,0.153 0.298,0.213c0.123,0.06 0.261,0.112 0.415,0.156c0.155,0.044 0.307,0.091 0.459,0.141c0.604,0.202 1.046,0.471 1.327,0.808c0.28,0.337 0.42,0.776 0.42,1.317c0,0.366 -0.062,0.696 -0.184,0.992c-0.123,0.296 -0.303,0.55 -0.539,0.76c-0.236,0.211 -0.525,0.375 -0.869,0.492c-0.343,0.116 -0.732,0.174 -1.166,0.174c-0.9,0 -1.735,-0.267 -2.503,-0.802l0.793,-1.493c0.277,0.246 0.551,0.428 0.822,0.548c0.271,0.12 0.538,0.179 0.803,0.179c0.302,0 0.527,-0.069 0.675,-0.207c0.148,-0.139 0.222,-0.296 0.222,-0.473c0,-0.107 -0.019,-0.199 -0.056,-0.278c-0.038,-0.079 -0.101,-0.151 -0.189,-0.217c-0.089,-0.067 -0.203,-0.128 -0.345,-0.185c-0.142,-0.056 -0.313,-0.119 -0.515,-0.188c-0.239,-0.076 -0.474,-0.159 -0.704,-0.251c-0.229,-0.091 -0.434,-0.212 -0.613,-0.363c-0.18,-0.152 -0.325,-0.342 -0.435,-0.572c-0.11,-0.23 -0.165,-0.521 -0.165,-0.873c0,-0.353 0.058,-0.673 0.175,-0.959c0.116,-0.287 0.28,-0.532 0.491,-0.737c0.211,-0.204 0.469,-0.363 0.774,-0.477c0.306,-0.113 0.647,-0.17 1.025,-0.17c0.353,0 0.721,0.049 1.105,0.147c0.384,0.097 0.752,0.24 1.105,0.429l-0.737,1.445Z" style="fill:rgb(102,102,102);fill-rule:nonzero;"/>
            <path d="M8.699,-3.854l0.614,0c0.68,0 1.02,-0.295 1.02,-0.887c0,-0.592 -0.34,-0.888 -1.02,-0.888l-0.614,0l0,1.775Zm0,3.854l-1.851,0l0,-7.121l2.946,0c0.8,0 1.412,0.207 1.837,0.623c0.425,0.415 0.638,1.001 0.638,1.757c0,0.755 -0.213,1.341 -0.638,1.756c-0.425,0.416 -1.037,0.624 -1.837,0.624l-1.095,0l0,2.361Z" style="fill:rgb(102,102,102);fill-rule:nonzero;"/>
            <path d="M15.102,-7.121l0,5.553l2.22,0l0,1.568l-4.071,0l0,-7.121l1.851,0Z" style="fill:rgb(102,102,102);fill-rule:nonzero;"/>
            <rect x="18.276" y="-7.121" width="1.851" height="7.121" style="fill:rgb(102,102,102);fill-rule:nonzero;"/>
            <path d="M25.671,-5.554l-2.2,0l0,1.19l2.077,0l0,1.568l-2.077,0l0,1.228l2.2,0l0,1.568l-4.052,0l0,-7.121l4.052,0l0,1.567Z" style="fill:rgb(102,102,102);fill-rule:nonzero;"/>
         </g>
      </g>
   </g>
</svg>