<?xml version="1.0" encoding="utf-8"?>
<!-- Generator: Adobe Illustrator 22.0.1, SVG Export Plug-In . SVG Version: 6.00 Build 0)  -->
<svg version="1.1" baseProfile="tiny" id="Layer_1" xmlns="http://www.w3.org/2000/svg" xmlns:xlink="http://www.w3.org/1999/xlink"
	 x="0px" y="0px" viewBox="0 0 35 35" xml:space="preserve">
<g id="Layer_2_1_">
</g>
<g id="Layer_1_1_">
	<g id="Knob">
		<g>
			<path d="M22.8,32.3l1.6-0.7c0.5-0.2,1.1-0.4,1.7-0.4h0.5c1.2,0,2.4-0.6,3.3-1.4l0,0c0.9-0.9,1.4-2.2,1.4-3.5v-0.2
				c0-0.6,0.1-1.3,0.4-1.9l0.7-1.6c0.2-0.5,0.5-1,0.9-1.5l0.4-0.4c0.9-0.9,1.3-2.1,1.3-3.4l0,0c0-1.3-0.5-2.6-1.4-3.5l-0.2-0.2
				c-0.5-0.5-0.8-1-1.1-1.6l-0.7-1.6c-0.2-0.5-0.4-1.1-0.4-1.7V8.2c0-1.2-0.6-2.4-1.4-3.3l0,0c-0.9-0.9-2.2-1.4-3.5-1.4h-0.2
				c-0.6,0-1.3-0.1-1.9-0.4l-1.6-0.7c-0.5-0.2-1-0.5-1.5-0.9l-0.4-0.4c-0.8-0.6-2-1.1-3.2-1.1l0,0c-1.3,0-2.6,0.5-3.5,1.4l-0.2,0.2
				c-0.5,0.5-1,0.8-1.6,1.1l-1.6,0.7c-0.5,0.2-1.1,0.4-1.7,0.4H8.4C7.2,3.8,6,4.3,5.1,5.2l0,0C4.2,6.1,3.7,7.3,3.7,8.6v0.2
				c0,0.6-0.1,1.3-0.4,1.9l-0.6,1.6c-0.2,0.5-0.5,1-0.9,1.5l-0.4,0.4C0.5,15.1,0,16.3,0,17.5l0,0c0,1.3,0.5,2.6,1.4,3.5l0.2,0.2
				c0.5,0.5,0.8,1,1.1,1.6l0.7,1.6c0.2,0.5,0.4,1.1,0.4,1.7v0.5c0,1.2,0.6,2.4,1.4,3.3l0,0c0.9,0.9,2.2,1.4,3.5,1.4h0.2
				c0.6,0,1.3,0.1,1.9,0.4l1.6,0.7c0.5,0.2,1,0.5,1.5,0.9l0.4,0.4c0.9,0.9,2.1,1.3,3.4,1.3l0,0c1.3,0,2.6-0.5,3.5-1.4l0.2-0.2
				C21.6,32.9,22.2,32.6,22.8,32.3z"/>
		</g>
		<path fill="#FFFFFF" d="M17.7,18.4c1.2,0,1.8-0.4,2.1-0.8V0.7l-0.6-0.3c-0.9-0.5-2.6-0.5-3.5,0l-0.4,0.2v17c0,0.4,0.9,0.8,1.8,0.8
			H17.7z"/>
	</g>
</g>
<g id="Sticky_Gradient_1_" display="none">
	<g display="inline">
		<g>
			<g>
				<path fill="#B3B3B3" d="M17.5,29.8c0.1,0,0.3,0,0.4,0V5.2c-0.1,0-0.3,0-0.4,0c-0.2,0-0.4,0-0.5,0v24.5
					C17.2,29.8,17.4,29.8,17.5,29.8z"/>
				<path fill="#AFAFAF" d="M18.9,29.7V5.3c-0.3,0-0.7,0-1-0.1v24.5C18.2,29.7,18.5,29.7,18.9,29.7z"/>
				<path fill="#A0A0A0" d="M19.9,5.5c-0.3,0-0.7-0.1-1-0.1v24.3c0.4,0,0.7-0.1,1-0.1V5.5z"/>
				<path fill="#A0A0A0" d="M16.1,29.7V5.3c-0.3,0-0.7,0.1-1,0.1v24C15.4,29.6,15.7,29.6,16.1,29.7z"/>
				<path fill="#999999" d="M15.1,29.5v-24c-0.4,0.1-0.7,0.1-1,0.3v23.5C14.4,29.4,14.7,29.4,15.1,29.5z"/>
				<path fill="#999999" d="M20.8,5.7c-0.3-0.1-0.7-0.2-1-0.2v24c0.4,0,0.7-0.1,1-0.2V5.7z"/>
				<path fill="#909091" d="M21.7,29V6c-0.3-0.1-0.6-0.2-0.9-0.3v23.5C21.1,29.2,21.4,29.1,21.7,29z"/>
				<path fill="#909091" d="M14.1,29.3V5.7c-0.4,0.1-0.7,0.2-1,0.4V29C13.5,29,13.8,29.2,14.1,29.3z"/>
				<path fill="#848484" d="M12.2,28.5c0.3,0.1,0.6,0.3,1,0.4V6.1c-0.3,0.1-0.7,0.3-1,0.4V28.5z"/>
				<path fill="#848484" d="M22.7,28.6V6.4c-0.3-0.1-0.7-0.3-1-0.4V29C22.1,28.8,22.4,28.7,22.7,28.6z"/>
				<path fill="#767677" d="M23.7,7c-0.3-0.2-0.6-0.4-1-0.5v22.1c0.3-0.2,0.7-0.4,1-0.5V7z"/>
				<path fill="#767677" d="M11.2,7v20.9c0.3,0.2,0.7,0.4,1,0.5v-22C11.9,6.7,11.6,6.8,11.2,7z"/>
				<path fill="#727272" d="M10.3,7.7v19.7c0.3,0.2,0.6,0.4,0.9,0.6V7C10.9,7.2,10.6,7.4,10.3,7.7z"/>
				<path fill="#727272" d="M24.7,27.4V7.6c-0.3-0.2-0.6-0.4-1-0.6v21C24,27.8,24.3,27.6,24.7,27.4z"/>
				<path fill="#676768" d="M25.6,26.6V8.4c-0.3-0.3-0.7-0.5-1-0.8v19.7C25,27.1,25.3,26.8,25.6,26.6z"/>
				<path fill="#676768" d="M9.3,8.5v18.1c0.3,0.3,0.7,0.6,1,0.8V7.7C10,7.9,9.7,8.2,9.3,8.5z"/>
				<path fill="#5F5F60" d="M8.4,9.5v16c0.3,0.4,0.6,0.7,1,1V8.5C9,8.8,8.7,9.1,8.4,9.5z"/>
				<path fill="#5F5F60" d="M26.6,25.6V9.4c-0.3-0.4-0.6-0.7-1-1v18.2C26,26.3,26.3,25.9,26.6,25.6z"/>
				<path fill="#565656" d="M27.6,24.3V10.7c-0.3-0.4-0.6-0.9-1-1.3v16.2C26.9,25.2,27.3,24.8,27.6,24.3z"/>
				<path fill="#565656" d="M7.4,10.7v13.6c0.3,0.4,0.6,0.9,1,1.3V9.5C8,9.9,7.7,10.3,7.4,10.7z"/>
				<path fill="#494949" d="M6.4,12.4v10.1c0.3,0.6,0.6,1.2,1,1.7V10.7C7.1,11.3,6.7,11.9,6.4,12.4z"/>
				<path fill="#494949" d="M28.5,22.6V12.4c-0.3-0.6-0.6-1.2-1-1.8v13.7C27.9,23.8,28.2,23.2,28.5,22.6z"/>
				<path fill="#3D3D3D" d="M29.5,19.3v-3.6c-0.2-1.1-0.5-2.2-1-3.3v10.1C29,21.6,29.4,20.5,29.5,19.3z"/>
				<path fill="#353535" d="M29.6,17.5c0-0.6,0-1.2-0.1-1.8v3.6C29.5,18.7,29.6,18.1,29.6,17.5z"/>
				<path fill="#353535" d="M5.3,17.5c0,0.6,0,1.1,0.1,1.6v-3.3C5.4,16.4,5.3,16.9,5.3,17.5z"/>
				<path fill="#3D3D3D" d="M5.5,15.9v3.3c0.2,1.2,0.5,2.3,1,3.4V12.4C6,13.5,5.6,14.6,5.5,15.9z"/>
				<path fill="#AFAFAF" d="M17,29.8V5.2c-0.3,0-0.7,0-1,0.1v24.3C16.4,29.7,16.7,29.7,17,29.8z"/>
			</g>
		</g>
	</g>
	<g display="inline">
		<g>
			<path fill="#808285" d="M17.5,29.2c-6.4,0-11.7-5.2-11.7-11.7S11,5.8,17.5,5.8S29.2,11,29.2,17.5C29.2,23.8,24,29.2,17.5,29.2z
				 M17.5,6.5c-6,0-10.8,4.9-10.8,10.8s4.9,10.8,10.8,10.8s10.8-4.9,10.8-10.8S23.6,6.5,17.5,6.5z"/>
		</g>
	</g>
	<g display="inline">
		<g>
			<path fill="#808285" d="M17.5,27.8c-5.6,0-10.3-4.6-10.3-10.3S11.9,7.2,17.5,7.2s10.3,4.6,10.3,10.3S23.2,27.8,17.5,27.8z
				 M17.5,8.1c-5.2,0-9.4,4.2-9.4,9.4s4.2,9.4,9.4,9.4s9.5-4.2,9.5-9.4S22.8,8.1,17.5,8.1z"/>
		</g>
	</g>
	<g display="inline">
		<g>
			<path fill="#808285" d="M17.5,26.4c-4.9,0-8.9-3.9-8.9-8.9s3.9-8.9,8.9-8.9s8.9,3.9,8.9,8.9S22.5,26.4,17.5,26.4z M17.5,9.3
				c-4.5,0-8,3.7-8,8s3.7,8,8,8s8-3.7,8-8S22.1,9.3,17.5,9.3z"/>
		</g>
	</g>
	<g display="inline">
		<g>
			<path fill="#808285" d="M17.5,24.9c-4.1,0-7.4-3.4-7.4-7.4s3.4-7.4,7.4-7.4s7.4,3.4,7.4,7.4S21.6,24.9,17.5,24.9z M17.5,10.8
				c-3.7,0-6.7,3-6.7,6.7s3,6.7,6.7,6.7c3.7,0,6.7-3,6.7-6.7S21.2,10.8,17.5,10.8z"/>
		</g>
	</g>
	<g display="inline">
		<g>
			<path fill="#808285" d="M17.5,23.5c-3.4,0-6.2-2.8-6.2-6.2s2.8-6.2,6.2-6.2s6.2,2.8,6.2,6.2C23.6,20.9,20.9,23.5,17.5,23.5z
				 M17.5,12.1c-3,0-5.3,2.4-5.3,5.3s2.4,5.3,5.3,5.3s5.3-2.4,5.3-5.3S20.5,12.1,17.5,12.1z"/>
		</g>
	</g>
	<g display="inline">
		<g>
			<path fill="#808285" d="M17.5,22.1c-2.6,0-4.6-2.1-4.6-4.6s2.1-4.7,4.6-4.7s4.6,2.1,4.6,4.6S20.1,22.1,17.5,22.1z M17.5,13.5
				c-2.2,0-3.9,1.9-3.9,3.9s1.9,3.9,3.9,3.9c2.2,0,3.9-1.9,3.9-3.9S19.6,13.5,17.5,13.5z"/>
		</g>
	</g>
	<g display="inline">
		<g>
			<path fill="#808285" d="M17.5,20.9c-1.9,0-3.4-1.5-3.4-3.4c0-1.9,1.5-3.4,3.4-3.4c1.9,0,3.4,1.5,3.4,3.4
				C20.9,19.4,19.4,20.9,17.5,20.9z M17.5,14.8c-1.5,0-2.7,1.3-2.7,2.7c0,1.5,1.3,2.7,2.7,2.7c1.5,0,2.7-1.3,2.7-2.7
				C20.2,16,18.9,14.8,17.5,14.8z"/>
		</g>
	</g>
	<g display="inline">
		<g>
			<path fill="#808285" d="M17.5,19.6c-1.1,0-2.1-1-2.1-2.1c0-1.1,1-2.1,2.1-2.1c1.1,0,2.1,1,2.1,2.1C19.6,18.6,18.7,19.6,17.5,19.6
				z M17.5,16.1c-0.7,0-1.4,0.6-1.4,1.4s0.6,1.4,1.4,1.4s1.4-0.6,1.4-1.4S18.2,16.1,17.5,16.1z"/>
		</g>
	</g>
	<g display="inline">
		<g>
			<path fill="#808285" d="M17.5,18.5c-0.6,0-1-0.4-1-1c0-0.5,0.4-1,1-1c0.5,0,1,0.4,1,1C18.5,18,18.1,18.5,17.5,18.5z M17.5,17.2
				c-0.1,0-0.3,0.1-0.3,0.3c0,0.1,0.1,0.3,0.3,0.3c0.1,0,0.3-0.1,0.3-0.3C17.8,17.4,17.7,17.2,17.5,17.2z"/>
		</g>
	</g>
	<path display="inline" fill="#1C1C1C" d="M17.5,6.1c6.3,0,11.4,5.1,11.4,11.4s-5.1,11.4-11.4,11.4S6.2,23.8,6.2,17.5
		S11.2,6.1,17.5,6.1 M17.5,5.1c-6.8,0-12.4,5.5-12.4,12.4s5.5,12.4,12.4,12.4s12.4-5.5,12.4-12.4S24.4,5.1,17.5,5.1L17.5,5.1z"/>
</g>
</svg>
