<?xml version="1.0" encoding="utf-8"?>
<!-- Generator: Adobe Illustrator 22.0.1, SVG Export Plug-In . SVG Version: 6.00 Build 0)  -->
<svg version="1.1" baseProfile="tiny" id="Layer_1" xmlns="http://www.w3.org/2000/svg" xmlns:xlink="http://www.w3.org/1999/xlink"
	 x="0px" y="0px" viewBox="0 0 35 35" xml:space="preserve">
<g id="Knob">
	<g>
		<path fill="#1C1C1C" d="M34.5,17.5c0,9.4-7.6,17-17,17s-17-7.6-17-17s7.6-17,17-17S34.5,8.1,34.5,17.5"/>
	</g>
	<g id="Knob_Turn">
		<g>
			<path fill="#141414" d="M23.6,32.6c-0.1,0-0.2,0-0.3,0l-3.7-0.7c-0.6-0.1-1.3-0.2-2.1-0.2c-0.8,0-1.5,0.1-2.1,0.2l-3.7,0.7
				c-0.1,0-0.2,0-0.3,0c-0.8,0-1.7-0.5-2-1.2l-1.8-3.5c-0.5-1-1.7-2.5-2.6-3.2l-2.8-2.4c-0.7-0.6-1-1.7-0.6-2.6l1.7-4
				c0.4-1.1,0.8-2.9,0.9-4l0.1-3.2c0-0.9,0.8-1.9,1.6-2.2l3.4-1.2C10.4,4.7,12,3.9,13,3.3l3.2-2C16.4,1.1,16.9,1,17.5,1
				c0.5,0,1.1,0.1,1.4,0.4l3.3,2.1c1,0.6,2.6,1.4,3.7,1.8l3.4,1.1c0.9,0.3,1.7,1.3,1.8,2.2l0.4,4c0.1,1.1,0.5,2.9,0.9,4l1.2,3.2
				c0.3,0.8,0,2-0.7,2.6l-2.4,2.1c-0.9,0.8-2,2.2-2.6,3.2l-2.2,3.8C25.3,32.1,24.4,32.6,23.6,32.6L23.6,32.6z"/>
			<path id="Knob_Outline" fill="#333333" d="M17.5,1.5c0.5,0,0.9,0.1,1.2,0.3L22,3.9c1,0.6,2.7,1.4,3.8,1.8l3.4,1.1
				c0.7,0.2,1.4,1.1,1.4,1.8l0.4,4c0.1,1.2,0.5,3,1,4.1l1.2,3.2c0.2,0.6,0,1.6-0.5,2.1l-2.4,2.1c-0.9,0.8-2.1,2.3-2.7,3.3l-2.2,3.8
				c-0.3,0.5-1,0.9-1.7,0.9c-0.1,0-0.2,0-0.2,0l-3.7-0.7c-0.6-0.1-1.3-0.2-2.1-0.2c-0.8,0-1.6,0.1-2.1,0.2l-3.7,0.7
				c-0.1,0-0.1,0-0.2,0c-0.6,0-1.3-0.4-1.6-0.9L8,27.7c-0.6-1.1-1.8-2.6-2.7-3.4L2.5,22C2,21.6,1.8,20.6,2,20l1.7-4
				c0.5-1.1,0.9-3,0.9-4.2l0.1-3.2c0-0.7,0.6-1.5,1.3-1.8l3.4-1.2c1.1-0.4,2.8-1.2,3.8-1.8l3.2-2C16.6,1.6,17,1.5,17.5,1.5
				 M17.5,0.5c-0.6,0-1.2,0.1-1.7,0.4l-3.2,2C11.6,3.5,10,4.3,9,4.6L5.6,5.8c-1,0.4-1.9,1.6-1.9,2.7l-0.1,3.2c0,1.1-0.4,2.8-0.8,3.8
				l-1.7,4c-0.4,1-0.1,2.4,0.8,3.1L4.7,25c0.8,0.7,2,2.1,2.5,3.1L9,31.6c0.4,0.9,1.5,1.5,2.5,1.5c0.1,0,0.3,0,0.4,0l3.7-0.7
				c0.5-0.1,1.3-0.1,2-0.1c0.7,0,1.4,0,2,0.1l3.7,0.7c0.1,0,0.3,0,0.4,0c1,0,2.1-0.6,2.5-1.4l2.2-3.8c0.5-1,1.7-2.3,2.5-3l2.4-2.1
				c0.8-0.7,1.2-2.2,0.8-3.2l-1.2-3.2c-0.4-1-0.8-2.8-0.9-3.9l-0.4-4c-0.1-1.1-1.1-2.3-2.1-2.6L26,4.8c-1-0.3-2.7-1.1-3.6-1.7
				L19.1,1C18.7,0.6,18.1,0.5,17.5,0.5L17.5,0.5z"/>
		</g>
		<g id="Pointer">
			<g>
				<path fill="#F2F2F2" d="M16.9,0.5c0,0.1-0.1,0.2-0.1,0.3v16.5c0,0.4,0.3,0.8,0.6,0.8h0.2c0.4,0,0.6-0.4,0.7-0.8V0.8
					c0-0.1,0-0.2-0.1-0.3c-0.2,0-0.5,0-0.7,0C17.3,0.5,17.1,0.5,16.9,0.5z"/>
			</g>
		</g>
	</g>
</g>
<g id="Top_Layer">
	<g id="Sticky_Gradient_1_">
		<g>
			<g>
				<g>
					<path fill="#B3B3B3" d="M17.5,27.1c0.1,0,0.2,0,0.3,0V7.9c-0.1,0-0.2,0-0.3,0c-0.1,0-0.3,0-0.4,0v19.2
						C17.3,27.1,17.4,27.1,17.5,27.1z"/>
					<path fill="#AFAFAF" d="M18.6,27V8c-0.2,0-0.5,0-0.8-0.1v19.2C18.1,27.1,18.3,27.1,18.6,27z"/>
					<path fill="#A0A0A0" d="M19.3,8.1C19.1,8,18.8,8,18.6,8V27c0.3,0,0.5-0.1,0.8-0.1V8.1z"/>
					<path fill="#A0A0A0" d="M16.4,27V8c-0.2,0-0.5,0.1-0.8,0.1v18.8C15.9,27,16.1,27,16.4,27z"/>
					<path fill="#999999" d="M15.6,26.9V8.1c-0.3,0.1-0.5,0.1-0.8,0.2v18.4C15.1,26.8,15.3,26.9,15.6,26.9z"/>
					<path fill="#999999" d="M20.1,8.3c-0.2-0.1-0.5-0.1-0.8-0.2v18.8c0.3,0,0.5-0.1,0.8-0.2V8.3z"/>
					<path fill="#909091" d="M20.8,26.5v-18c-0.2-0.1-0.5-0.2-0.7-0.2v18.4C20.3,26.7,20.6,26.6,20.8,26.5z"/>
					<path fill="#909091" d="M14.9,26.7V8.3c-0.3,0.1-0.5,0.2-0.8,0.3v17.9C14.3,26.5,14.6,26.7,14.9,26.7z"/>
					<path fill="#848484" d="M13.3,26.1c0.2,0.1,0.5,0.2,0.8,0.3V8.6c-0.2,0.1-0.5,0.2-0.8,0.3V26.1z"/>
					<path fill="#848484" d="M21.6,26.2V8.8c-0.2-0.1-0.5-0.2-0.8-0.3v18C21.1,26.4,21.4,26.3,21.6,26.2z"/>
					<path fill="#767677" d="M22.4,9.2c-0.2-0.1-0.5-0.3-0.8-0.4v17.3c0.2-0.1,0.5-0.3,0.8-0.4V9.2z"/>
					<path fill="#767677" d="M12.6,9.3v16.4c0.2,0.1,0.5,0.3,0.8,0.4V8.8C13.1,9,12.9,9.1,12.6,9.3z"/>
					<path fill="#727272" d="M11.9,9.8v15.4c0.2,0.2,0.5,0.3,0.7,0.5V9.3C12.4,9.5,12.1,9.6,11.9,9.8z"/>
					<path fill="#727272" d="M23.1,25.2V9.8c-0.2-0.2-0.5-0.3-0.8-0.5v16.5C22.6,25.6,22.9,25.4,23.1,25.2z"/>
					<path fill="#676768" d="M23.9,24.6V10.4c-0.2-0.2-0.5-0.4-0.8-0.6v15.5C23.4,25,23.6,24.8,23.9,24.6z"/>
					<path fill="#676768" d="M11.1,10.4v14.2c0.2,0.2,0.5,0.4,0.8,0.6V9.8C11.6,10,11.4,10.2,11.1,10.4z"/>
					<path fill="#5F5F60" d="M10.4,11.2v12.6c0.2,0.3,0.5,0.6,0.8,0.8V10.4C10.8,10.7,10.6,10.9,10.4,11.2z"/>
					<path fill="#5F5F60" d="M24.6,23.8V11.1c-0.2-0.3-0.5-0.5-0.8-0.8v14.2C24.1,24.4,24.4,24.1,24.6,23.8z"/>
					<path fill="#565656" d="M25.4,22.9V12.1c-0.2-0.3-0.5-0.7-0.8-1v12.7C24.9,23.5,25.2,23.2,25.4,22.9z"/>
					<path fill="#565656" d="M9.6,12.2v10.6c0.2,0.3,0.5,0.7,0.8,1V11.2C10.1,11.5,9.8,11.8,9.6,12.2z"/>
					<path fill="#494949" d="M8.8,13.5v7.9C9,22,9.3,22.4,9.6,22.8V12.2C9.3,12.6,9,13.1,8.8,13.5z"/>
					<path fill="#494949" d="M26.2,21.5v-7.9c-0.2-0.5-0.5-0.9-0.8-1.4v10.7C25.7,22.4,25.9,22,26.2,21.5z"/>
					<path fill="#3D3D3D" d="M26.9,18.9v-2.8c-0.1-0.9-0.4-1.8-0.8-2.6v7.9C26.5,20.7,26.8,19.8,26.9,18.9z"/>
					<path fill="#353535" d="M27,17.5c0-0.5,0-1-0.1-1.4v2.8C26.9,18.4,27,18,27,17.5z"/>
					<path fill="#353535" d="M8,17.5c0,0.4,0,0.9,0.1,1.3v-2.6C8,16.6,8,17.1,8,17.5z"/>
					<path fill="#3D3D3D" d="M8.1,16.2v2.6c0.1,0.9,0.4,1.8,0.8,2.7v-7.9C8.5,14.4,8.2,15.3,8.1,16.2z"/>
					<path fill="#AFAFAF" d="M17.1,27.1V7.9c-0.2,0-0.5,0-0.8,0.1V27C16.6,27.1,16.9,27.1,17.1,27.1z"/>
				</g>
				<path fill="#1C1C1C" d="M17.5,8.7c4.9,0,8.8,4,8.8,8.8s-3.9,8.8-8.8,8.8s-8.8-4-8.8-8.8S12.6,8.7,17.5,8.7 M17.5,7.9
					c-5.3,0-9.6,4.3-9.6,9.6s4.3,9.6,9.6,9.6s9.6-4.3,9.6-9.6S22.8,7.9,17.5,7.9L17.5,7.9z"/>
			</g>
		</g>
		<g>
			<g>
				<path fill="#808285" d="M17.5,26.7c-5,0-9.2-4.1-9.2-9.2s4.1-9.2,9.2-9.2s9.2,4.1,9.2,9.2C26.7,22.5,22.6,26.7,17.5,26.7z
					 M17.5,8.9c-4.7,0-8.5,3.9-8.5,8.5s3.9,8.5,8.5,8.5S26,22,26,17.4S22.3,8.9,17.5,8.9z"/>
			</g>
		</g>
		<g>
			<g>
				<path fill="#808285" d="M17.5,25.5c-4.4,0-8-3.6-8-8s3.6-8,8-8s8,3.6,8,8S21.9,25.5,17.5,25.5z M17.5,10.1
					c-4.1,0-7.4,3.3-7.4,7.4s3.3,7.4,7.4,7.4s7.4-3.3,7.4-7.4S21.6,10.1,17.5,10.1z"/>
			</g>
		</g>
		<g>
			<g>
				<path fill="#808285" d="M17.5,24.4c-3.9,0-6.9-3.1-6.9-6.9s3.1-6.9,6.9-6.9s6.9,3.1,6.9,6.9S21.4,24.4,17.5,24.4z M17.5,11.1
					c-3.5,0-6.3,2.9-6.3,6.3s2.9,6.3,6.3,6.3s6.3-2.9,6.3-6.3S21.1,11.1,17.5,11.1z"/>
			</g>
		</g>
		<g>
			<g>
				<path fill="#808285" d="M17.5,23.3c-3.2,0-5.8-2.7-5.8-5.8s2.7-5.8,5.8-5.8s5.8,2.7,5.8,5.8S20.7,23.3,17.5,23.3z M17.5,12.2
					c-2.9,0-5.3,2.3-5.3,5.3s2.3,5.3,5.3,5.3c2.9,0,5.3-2.3,5.3-5.3S20.4,12.2,17.5,12.2z"/>
			</g>
		</g>
		<g>
			<g>
				<path fill="#808285" d="M17.5,22.2c-2.7,0-4.9-2.2-4.9-4.9s2.2-4.9,4.9-4.9c2.7,0,4.9,2.2,4.9,4.9
					C22.3,20.2,20.2,22.2,17.5,22.2z M17.5,13.3c-2.3,0-4.2,1.9-4.2,4.2s1.9,4.2,4.2,4.2c2.3,0,4.2-1.9,4.2-4.2S19.9,13.3,17.5,13.3
					z"/>
			</g>
		</g>
		<g>
			<g>
				<path fill="#808285" d="M17.5,21.1c-2,0-3.6-1.7-3.6-3.6s1.7-3.7,3.6-3.7s3.6,1.7,3.6,3.6S19.5,21.1,17.5,21.1z M17.5,14.4
					c-1.8,0-3.1,1.5-3.1,3.1s1.5,3.1,3.1,3.1c1.8,0,3.1-1.5,3.1-3.1S19.2,14.4,17.5,14.4z"/>
			</g>
		</g>
		<g>
			<g>
				<path fill="#808285" d="M17.5,20.2c-1.5,0-2.7-1.2-2.7-2.7c0-1.5,1.2-2.7,2.7-2.7c1.5,0,2.7,1.2,2.7,2.7
					C20.2,19,19,20.2,17.5,20.2z M17.5,15.4c-1.2,0-2.1,1-2.1,2.1c0,1.2,1,2.1,2.1,2.1c1.2,0,2.1-1,2.1-2.1
					C19.6,16.3,18.6,15.4,17.5,15.4z"/>
			</g>
		</g>
		<g>
			<g>
				<path fill="#808285" d="M17.5,19.2c-0.9,0-1.7-0.8-1.7-1.7c0-0.9,0.8-1.7,1.7-1.7c0.9,0,1.7,0.8,1.7,1.7
					C19.2,18.4,18.4,19.2,17.5,19.2z M17.5,16.4c-0.6,0-1.1,0.4-1.1,1.1c0,0.7,0.4,1.1,1.1,1.1c0.7,0,1.1-0.4,1.1-1.1
					C18.6,16.8,18.1,16.4,17.5,16.4z"/>
			</g>
		</g>
		<g>
			<g>
				<path fill="#808285" d="M17.5,18.3c-0.4,0-0.8-0.3-0.8-0.8s0.3-0.8,0.8-0.8c0.4,0,0.8,0.3,0.8,0.8S18,18.3,17.5,18.3z
					 M17.5,17.3c-0.1,0-0.2,0.1-0.2,0.2c0,0.1,0.1,0.2,0.2,0.2c0.1,0,0.2-0.1,0.2-0.2C17.7,17.4,17.7,17.3,17.5,17.3z"/>
			</g>
		</g>
	</g>
</g>
</svg>
