<?xml version="1.0" standalone="no"?><!-- Generator: Gravit.io --><svg xmlns="http://www.w3.org/2000/svg" xmlns:xlink="http://www.w3.org/1999/xlink" style="isolation:isolate" viewBox="0 0 32 36" width="32" height="36"><defs><clipPath id="_clipPath_ZyGaNorBT4ZdsfdKfDPUK9VOUppzsE9B"><rect width="32" height="36"/></clipPath></defs><g clip-path="url(#_clipPath_ZyGaNorBT4ZdsfdKfDPUK9VOUppzsE9B)"><g style="isolation:isolate" id="Nut"><linearGradient id="_lgradient_4" x1="77.70833333333331%" y1="14.908158470897753%" x2="25.397561863173213%" y2="86.48837454633211%"><stop offset="0%" stop-opacity="1" style="stop-color:rgb(255,255,255)"/><stop offset="98.26086956521739%" stop-opacity="1" style="stop-color:rgb(93,93,93)"/></linearGradient><polygon points="31,26.571,16.077,35.276,1.077,26.705,1,9.429,15.923,0.724,30.923,9.295" fill="url(#_lgradient_4)" vector-effect="non-scaling-stroke" stroke-width="0.5" stroke="rgb(0,0,0)" stroke-linejoin="miter" stroke-linecap="square" stroke-miterlimit="3"/><linearGradient id="_lgradient_5" x1="83.90740740740739%" y1="23.614794066778103%" x2="19.166666666666686%" y2="72.42983685365299%"><stop offset="2.1739130434782608%" stop-opacity="1" style="stop-color:rgb(209,209,209)"/><stop offset="98.69565217391305%" stop-opacity="1" style="stop-color:rgb(116,116,116)"/></linearGradient><polygon points="29.5,25.714,16.069,33.548,2.569,25.834,2.5,10.286,15.931,2.452,29.431,10.166" fill="url(#_lgradient_5)"/></g><g style="isolation:isolate" id="Jack"><linearGradient id="_lgradient_6" x1="21.25%" y1="77.97807017543857%" x2="78.74999999999999%" y2="23%"><stop offset="0.8695652173913043%" stop-opacity="1" style="stop-color:rgb(46,46,46)"/><stop offset="100%" stop-opacity="1" style="stop-color:rgb(116,116,116)"/></linearGradient><path d=" M 3.5 18 C 3.5 11.101 9.101 5.5 16 5.5 C 22.899 5.5 28.5 11.101 28.5 18 C 28.5 24.899 22.899 30.5 16 30.5 C 9.101 30.5 3.5 24.899 3.5 18 Z " fill="url(#_lgradient_6)" vector-effect="non-scaling-stroke" stroke-width="0.5" stroke="rgb(0,0,0)" stroke-linejoin="miter" stroke-linecap="square" stroke-miterlimit="3"/><path d=" M 6 18 C 6 12.481 10.481 8 16 8 C 21.519 8 26 12.481 26 18 C 26 23.519 21.519 28 16 28 C 10.481 28 6 23.519 6 18 Z " fill="rgb(70,70,70)"/><linearGradient id="_lgradient_7" x1="21.969830628087514%" y1="81.39555398729713%" x2="82.8378616796048%" y2="20.527522935779817%"><stop offset="3.91304347826087%" stop-opacity="1" style="stop-color:rgb(93,93,93)"/><stop offset="98.26086956521739%" stop-opacity="1" style="stop-color:rgb(46,46,46)"/></linearGradient><path d=" M 9.5 18 C 9.5 14.413 12.413 11.5 16 11.5 C 19.587 11.5 22.5 14.413 22.5 18 C 22.5 21.587 19.587 24.5 16 24.5 C 12.413 24.5 9.5 21.587 9.5 18 Z " fill="url(#_lgradient_7)"/></g><path d=" M 10.5 18 C 10.5 14.964 12.964 12.5 16 12.5 C 19.036 12.5 21.5 14.964 21.5 18 C 21.5 21.036 19.036 23.5 16 23.5 C 12.964 23.5 10.5 21.036 10.5 18 Z " fill="rgb(0,0,0)"/></g></svg>