<?xml version="1.0" encoding="UTF-8" standalone="no"?>
<!-- Generator: Adobe Illustrator 19.0.0, SVG Export Plug-In . SVG Version: 6.00 Build 0)  -->

<svg
   xmlns:dc="http://purl.org/dc/elements/1.1/"
   xmlns:cc="http://creativecommons.org/ns#"
   xmlns:rdf="http://www.w3.org/1999/02/22-rdf-syntax-ns#"
   xmlns:svg="http://www.w3.org/2000/svg"
   xmlns="http://www.w3.org/2000/svg"
   xmlns:sodipodi="http://sodipodi.sourceforge.net/DTD/sodipodi-0.dtd"
   xmlns:inkscape="http://www.inkscape.org/namespaces/inkscape"
   version="1.1"
   id="Layer_1"
   sodipodi:docname="algo17Dark.svg"
   inkscape:version="0.92.2 5c3e80d, 2017-08-06"
   x="0px"
   y="0px"
   width="42"
   height="70"
   viewBox="0 0 42 70"
   xml:space="preserve"><metadata
     id="metadata32"><rdf:RDF><cc:Work
         rdf:about=""><dc:format>image/svg+xml</dc:format><dc:type
           rdf:resource="http://purl.org/dc/dcmitype/StillImage" /><dc:title></dc:title></cc:Work></rdf:RDF></metadata><defs
     id="defs30" /><style
     type="text/css"
     id="style2">
	.st0{fill:#FFFFFF;}
	.st1{font-family:'AlteDIN1451Mittelschrift';}
	.st2{font-size:10px;}
	.st3{fill:#FF8B00;}
	.st4{fill:none;stroke:#FFFFFF;stroke-width:2;stroke-miterlimit:10;}
</style><sodipodi:namedview
     inkscape:cy="29.295046"
     pagecolor="#ffffff"
     bordercolor="#666666"
     guidetolerance="10"
     inkscape:cx="19.862148"
     borderopacity="1"
     showgrid="false"
     objecttolerance="10"
     id="namedview27"
     inkscape:zoom="15.733334"
     gridtolerance="10"
     inkscape:pageopacity="0"
     inkscape:current-layer="Layer_1"
     inkscape:window-maximized="0"
     inkscape:window-y="1"
     inkscape:window-x="0"
     inkscape:pagecheckerboard="true"
     inkscape:window-height="1156"
     inkscape:window-width="1279"
     inkscape:pageshadow="2" /><g
     id="g312"
     transform="translate(7.5)"
     style="stroke:none;fill:#000000;fill-opacity:1"><g
       id="g310"
       style="stroke:none;fill:#000000;fill-opacity:1"><path
         style="fill:#000000;stroke:none;stroke-width:2;stroke-miterlimit:10;fill-opacity:1"
         d="m 21,48 v 9.700001"
         id="line304"
         inkscape:connector-curvature="0" /><g
         id="g308"
         style="stroke:none;fill:#000000;fill-opacity:1"><path
           style="fill:#000000;stroke:none;fill-opacity:1"
           d="m 17.6,53.7 3.4,3.4 3.4,-3.4 v 2.9 L 21,60 17.6,56.6 Z"
           id="polygon306"
           inkscape:connector-curvature="0" /></g></g></g><path
     style="fill:none;stroke:#000000;stroke-width:2;stroke-miterlimit:10;stroke-opacity:1"
     d="m 6,30 v 6"
     id="line452"
     inkscape:connector-curvature="0" /><path
     style="fill:none;stroke:#000000;stroke-width:2;stroke-miterlimit:10;stroke-opacity:1"
     d="m 21,48 v 4"
     id="line456"
     inkscape:connector-curvature="0" /><path
     style="fill:none;stroke:#000000;stroke-width:2;stroke-miterlimit:10;stroke-opacity:1"
     d="M 21,51 H 36.887827"
     id="line458"
     inkscape:connector-curvature="0" /><path
     inkscape:connector-curvature="0"
     id="path843"
     d="m 28.5,50.464091 v 7.235912"
     style="fill:none;stroke:#000000;stroke-width:2.00000024;stroke-miterlimit:10;stroke-opacity:1" /><path
     inkscape:connector-curvature="0"
     id="path845"
     d="m 36,48 v 4"
     style="fill:none;stroke:#000000;stroke-width:2;stroke-miterlimit:10;stroke-opacity:1" /><g
     style="stroke:none;fill:#000000;fill-opacity:1"
     transform="translate(-15)"
     id="g859"><g
       style="stroke:none;fill:#000000;fill-opacity:1"
       id="g857"><path
         inkscape:connector-curvature="0"
         id="path850"
         d="m 21,48 v 9.700001"
         style="fill:#000000;stroke:none;stroke-width:2;stroke-miterlimit:10;fill-opacity:1" /><g
         style="stroke:none;fill:#000000;fill-opacity:1"
         id="g855"><path
           inkscape:connector-curvature="0"
           id="path853"
           d="m 17.6,53.7 3.4,3.4 3.4,-3.4 v 2.9 L 21,60 17.6,56.6 Z"
           style="fill:#000000;stroke:none;fill-opacity:1" /></g></g></g><path
     style="fill:none;stroke:#000000;stroke-width:2.00000024;stroke-miterlimit:10;stroke-opacity:1"
     d="m 6,47.999998 v 9.700003"
     id="path861"
     inkscape:connector-curvature="0" /><path
     style="fill:#000000;fill-opacity:1"
     d="M 0,36 H 12 V 48 H 0 Z"
     id="path863"
     inkscape:connector-curvature="0" /><g
     aria-label="1"
     transform="translate(4.313,45.5526)"
     style="font-size:10px;font-family:AlteDIN1451Mittelschrift;stroke:none;stroke-opacity:1;fill:#ffffff;fill-opacity:1"
     id="g867"><path
       d="M 1.6796875,0.01953125 V -6.0302734 l -1.015625,0.7421875 v -1.0839844 l 1.015625,-0.7373047 h 1.0253906 v 7.12890625 z"
       style="font-size:10px;font-family:AlteDIN1451Mittelschrift;stroke:none;stroke-opacity:1;fill:#ffffff;fill-opacity:1"
       id="path865"
       inkscape:connector-curvature="0" /></g><path
     style="fill:#000000;fill-opacity:1"
     d="M 0,18 H 12 V 30 H 0 Z"
     id="path871"
     inkscape:connector-curvature="0" /><g
     aria-label="2"
     transform="translate(3.6001,27.5526)"
     style="font-size:10px;font-family:AlteDIN1451Mittelschrift;stroke:none;stroke-opacity:1;fill:#ffffff;fill-opacity:1"
     id="g875"><path
       d="M 0.32714844,0.00488281 V -0.95214844 L 3.1103516,-4.4335937 q 0.1611328,-0.2050782 0.2099609,-0.3759766 0.048828,-0.1708984 0.048828,-0.3320313 0,-0.3710937 -0.2636718,-0.6884765 -0.2636719,-0.3222656 -0.7177735,-0.3222656 -0.4150391,0 -0.7128906,0.2783203 -0.2929688,0.2734375 -0.3271485,0.7519531 H 0.32714844 q 0.004883,-0.8642578 0.59082031,-1.4550781 0.58593745,-0.5957032 1.39160155,-0.5957032 0.8886719,0 1.4794922,0.600586 0.5957031,0.5957031 0.5957031,1.4404297 0,0.7226562 -0.4248047,1.25 l -2.290039,2.8710937 h 2.7148437 v 1.01562501 z"
       style="font-size:10px;font-family:AlteDIN1451Mittelschrift;stroke:none;stroke-opacity:1;fill:#ffffff;fill-opacity:1"
       id="path873"
       inkscape:connector-curvature="0" /></g><path
     style="fill:#000000;fill-opacity:1"
     d="M 15,36 H 27 V 48 H 15 Z"
     id="path879"
     inkscape:connector-curvature="0" /><g
     aria-label="3"
     transform="translate(18.6001,45.5526)"
     style="font-size:10px;font-family:AlteDIN1451Mittelschrift;stroke:none;stroke-opacity:1;fill:#ffffff;fill-opacity:1"
     id="g883"><path
       d="m 1.7675781,-3.2128906 v -0.8984375 h 0.3515625 q 0.5078125,0 0.8007813,-0.2832031 0.2978515,-0.288086 0.2978515,-0.7275391 0,-0.4345703 -0.3076171,-0.7324219 -0.3076172,-0.2978515 -0.7324219,-0.2978515 -0.3222657,0 -0.6103516,0.2148437 -0.2880859,0.2148438 -0.3710937,0.6445313 H 0.17578125 Q 0.234375,-6.0449219 0.80566406,-6.6064453 1.3769531,-7.1728516 2.1386719,-7.1728516 q 0.9521484,0 1.5234375,0.6298829 0.5761718,0.625 0.5761718,1.4013671 0,0.4101563 -0.1611328,0.8007813 -0.1611328,0.3857422 -0.6005859,0.6689453 0.4492188,0.2880859 0.6445312,0.7080078 0.1953125,0.4199219 0.1953125,0.8496094 0,0.9960937 -0.6249999,1.58691405 -0.625,0.59082031 -1.5332032,0.59082031 -0.7226562,0 -1.30371091,-0.46386719 -0.57617188,-0.46875 -0.71777344,-1.36230467 H 1.1572266 q 0.1416015,0.3662109 0.3808593,0.5908203 0.2392578,0.21972656 0.678711,0.21972656 0.4248047,0 0.7519531,-0.29785156 0.3271484,-0.3027344 0.3271484,-0.8300781 0,-0.5322266 -0.3271484,-0.8300782 -0.3222656,-0.3027343 -0.7714844,-0.3027343 z"
       style="font-size:10px;font-family:AlteDIN1451Mittelschrift;stroke:none;stroke-opacity:1;fill:#ffffff;fill-opacity:1"
       id="path881"
       inkscape:connector-curvature="0" /></g><path
     style="fill:#ff8b00;stroke:#000000;stroke-width:0.99999994;stroke-opacity:1"
     d="m 30.5,36.5 h 11 v 11 h -11 z"
     id="path887"
     inkscape:connector-curvature="0" /><g
     aria-label="4"
     transform="translate(33.6001,45.5526)"
     style="font-size:10px;font-family:AlteDIN1451Mittelschrift"
     id="g891"><path
       d="M 0.12695312,-1.0498047 V -2.0117188 L 2.5097656,-7.109375 H 3.6474609 L 1.2402344,-2.0117188 H 3.0957031 V -4.0625 h 1.0205078 v 2.0507812 H 4.6875 v 0.9619141 H 4.1162109 V 0.00488281 H 3.0957031 V -1.0498047 Z"
       style="font-size:10px;font-family:AlteDIN1451Mittelschrift"
       id="path889"
       inkscape:connector-curvature="0" /></g><g
     aria-label="B"
     style="font-style:normal;font-variant:normal;font-weight:normal;font-stretch:normal;font-size:10.66666698px;line-height:1.25;font-family:'Alte DIN 1451 Mittelschrift';-inkscape-font-specification:'Alte DIN 1451 Mittelschrift';letter-spacing:0px;word-spacing:0px;fill:#000000;fill-opacity:1;stroke:none"
     id="text897"><path
       d="m 25.8,68.505208 v -7.588542 h 2.942708 q 1.109375,0 1.677084,0.572917 0.572916,0.567708 0.572916,1.463542 0,0.46875 -0.229166,0.901042 -0.229167,0.432291 -0.890625,0.729166 v 0.02083 q 0.625,0.145833 0.932291,0.661458 0.307292,0.510417 0.307292,1.088542 0,0.984375 -0.630208,1.567708 -0.625,0.583333 -1.479167,0.583333 z m 2.921875,-3.369791 h -1.770833 v 2.286458 h 1.770833 q 0.640625,0 0.9375,-0.34375 0.302083,-0.348958 0.302083,-0.796875 0,-0.447917 -0.302083,-0.796875 -0.296875,-0.348958 -0.9375,-0.348958 z M 28.617708,61.9375 h -1.666666 v 2.177083 h 1.666666 q 0.619792,0 0.921875,-0.317708 0.302084,-0.317708 0.302084,-0.770833 0,-0.437501 -0.302084,-0.760417 Q 29.2375,61.9375 28.617708,61.9375 Z"
       style="fill:#000000;fill-opacity:1"
       id="path995" /></g><g
     aria-label="A"
     style="font-style:normal;font-variant:normal;font-weight:normal;font-stretch:normal;font-size:10.66666698px;line-height:1.25;font-family:'Alte DIN 1451 Mittelschrift';-inkscape-font-specification:'Alte DIN 1451 Mittelschrift';letter-spacing:0px;word-spacing:0px;fill:#000000;fill-opacity:1;stroke:none"
     id="text901"><path
       d="M 2.7,68.5 5.4708334,60.90625 H 6.4187501 L 9.1895835,68.5 H 7.9812501 L 7.3979168,66.786458 H 4.5177084 L 3.9135417,68.5 Z M 4.85625,65.770833 H 7.0541668 Q 6.8145834,65.067708 6.6739584,64.671875 6.5385417,64.270833 6.4343751,63.963542 q -0.098958,-0.307292 -0.203125,-0.625 -0.1041667,-0.317709 -0.2760417,-0.859376 -0.1822917,0.562501 -0.2916667,0.901042 -0.109375,0.333334 -0.2135416,0.645834 -0.098958,0.3125 -0.2343751,0.697916 -0.1302083,0.385417 -0.359375,1.046875 z"
       style="fill:#000000;fill-opacity:1"
       id="path992" /></g></svg>