<svg id="05b47159-67fa-48fd-9ad6-7537adc26740" data-name="svg8" xmlns="http://www.w3.org/2000/svg" xmlns:xlink="http://www.w3.org/1999/xlink" viewBox="0 0 60 380"><defs><linearGradient id="3d2cdb95-0dc4-4d32-b31f-203f064ff88d" x1="0.78" y1="8.02" x2="14.07" y2="8.02" gradientUnits="userSpaceOnUse"><stop offset="0" stop-color="#b5b5b5"/><stop offset="1"/></linearGradient><linearGradient id="4c64b857-a12c-4824-8def-c80315efb0eb" x1="12.94" y1="8.02" x2="1.9" y2="8.02" gradientUnits="userSpaceOnUse"><stop offset="0" stop-color="#bfbfbf"/><stop offset="1" stop-color="#2b2b2b"/></linearGradient><linearGradient id="dec29e9a-d0aa-4f24-a993-fc7e47d1d391" x1="11.89" y1="8.02" x2="2.95" y2="8.02" gradientUnits="userSpaceOnUse"><stop offset="0" stop-color="#363636"/><stop offset="1"/></linearGradient><linearGradient id="00e6998d-7364-4e89-8e0c-eadfba3e14e7" x1="3.5" y1="8.02" x2="11.35" y2="8.02" gradientUnits="userSpaceOnUse"><stop offset="0" stop-color="#212121"/><stop offset="1"/></linearGradient><linearGradient id="e06ea25b-859a-4390-a9ad-a97a531a9896" x1="0.78" y1="370.86" x2="14.07" y2="370.86" xlink:href="#3d2cdb95-0dc4-4d32-b31f-203f064ff88d"/><linearGradient id="5c8d3659-57f8-47a6-883f-8a5754003ca9" x1="12.94" y1="370.86" x2="1.9" y2="370.86" xlink:href="#4c64b857-a12c-4824-8def-c80315efb0eb"/><linearGradient id="cc7313c9-605d-4e39-81d2-f95b39ebf511" x1="11.89" y1="370.86" x2="2.95" y2="370.86" xlink:href="#dec29e9a-d0aa-4f24-a993-fc7e47d1d391"/><linearGradient id="2c800c99-7be8-45e4-8e0c-a9377acb05cc" x1="3.5" y1="370.86" x2="11.35" y2="370.86" xlink:href="#00e6998d-7364-4e89-8e0c-eadfba3e14e7"/><linearGradient id="c09e5657-9b5c-4327-8349-fd9218533e7d" x1="45.92" y1="8.02" x2="59.22" y2="8.02" xlink:href="#3d2cdb95-0dc4-4d32-b31f-203f064ff88d"/><linearGradient id="0cb35bcf-0b4c-41c7-96e2-c55cef157037" x1="58.09" y1="8.02" x2="47.05" y2="8.02" xlink:href="#4c64b857-a12c-4824-8def-c80315efb0eb"/><linearGradient id="a39f1d32-ca7d-4ffb-ab17-6e1ebdf22743" x1="57.04" y1="8.02" x2="48.1" y2="8.02" xlink:href="#dec29e9a-d0aa-4f24-a993-fc7e47d1d391"/><linearGradient id="1e64e120-14bb-4e49-9f46-dc3f5bf9ffb0" x1="48.65" y1="8.02" x2="56.49" y2="8.02" xlink:href="#00e6998d-7364-4e89-8e0c-eadfba3e14e7"/><linearGradient id="4407865f-50b5-449d-8e3b-528959ea8a06" x1="45.92" y1="370.86" x2="59.22" y2="370.86" xlink:href="#3d2cdb95-0dc4-4d32-b31f-203f064ff88d"/><linearGradient id="2416a807-8aba-42ac-89ec-43a813aa1ea9" x1="58.09" y1="370.86" x2="47.05" y2="370.86" xlink:href="#4c64b857-a12c-4824-8def-c80315efb0eb"/><linearGradient id="abfedac3-eaad-4afd-8ecd-eb1d62081dd4" x1="57.04" y1="370.86" x2="48.1" y2="370.86" xlink:href="#dec29e9a-d0aa-4f24-a993-fc7e47d1d391"/><linearGradient id="a60a97f1-10df-4e3d-90d8-264edfbc4840" x1="48.65" y1="370.86" x2="56.49" y2="370.86" xlink:href="#00e6998d-7364-4e89-8e0c-eadfba3e14e7"/></defs><title>Nullovnik 4-Light</title><path id="f2a82f77-9108-4164-bce2-bd68335b3347" data-name="rect817" d="M0,0H60V380H0Z" transform="translate(0 0)" style="fill:#929596"/><circle cx="7.4" cy="9.1" r="6.6" style="fill:#303030"/><circle cx="7.4" cy="8" r="6.6" style="fill:url(#3d2cdb95-0dc4-4d32-b31f-203f064ff88d)"/><circle cx="7.4" cy="8" r="5.5" style="fill:url(#4c64b857-a12c-4824-8def-c80315efb0eb)"/><polygon points="9.7 4.2 5.2 4.2 3 8 5.2 11.9 9.7 11.9 11.9 8 9.7 4.2" style="fill:url(#dec29e9a-d0aa-4f24-a993-fc7e47d1d391)"/><polygon points="9.4 4.6 5.5 4.6 3.5 8 5.5 11.4 9.4 11.4 11.3 8 9.4 4.6" style="fill:url(#00e6998d-7364-4e89-8e0c-eadfba3e14e7)"/><circle cx="7.4" cy="372" r="6.6" style="fill:#303030"/><circle cx="7.4" cy="370.9" r="6.6" style="fill:url(#e06ea25b-859a-4390-a9ad-a97a531a9896)"/><circle cx="7.4" cy="370.9" r="5.5" style="fill:url(#5c8d3659-57f8-47a6-883f-8a5754003ca9)"/><polygon points="9.7 367 5.2 367 3 370.9 5.2 374.7 9.7 374.7 11.9 370.9 9.7 367" style="fill:url(#cc7313c9-605d-4e39-81d2-f95b39ebf511)"/><polygon points="9.4 367.5 5.5 367.5 3.5 370.9 5.5 374.3 9.4 374.3 11.3 370.9 9.4 367.5" style="fill:url(#2c800c99-7be8-45e4-8e0c-a9377acb05cc)"/><circle cx="52.6" cy="9.1" r="6.6" style="fill:#303030"/><circle cx="52.6" cy="8" r="6.6" style="fill:url(#c09e5657-9b5c-4327-8349-fd9218533e7d)"/><circle cx="52.6" cy="8" r="5.5" style="fill:url(#0cb35bcf-0b4c-41c7-96e2-c55cef157037)"/><polygon points="54.8 4.2 50.3 4.2 48.1 8 50.3 11.9 54.8 11.9 57 8 54.8 4.2" style="fill:url(#a39f1d32-ca7d-4ffb-ab17-6e1ebdf22743)"/><polygon points="54.5 4.6 50.6 4.6 48.6 8 50.6 11.4 54.5 11.4 56.5 8 54.5 4.6" style="fill:url(#1e64e120-14bb-4e49-9f46-dc3f5bf9ffb0)"/><circle cx="52.6" cy="372" r="6.6" style="fill:#303030"/><circle cx="52.6" cy="370.9" r="6.6" style="fill:url(#4407865f-50b5-449d-8e3b-528959ea8a06)"/><circle cx="52.6" cy="370.9" r="5.5" style="fill:url(#2416a807-8aba-42ac-89ec-43a813aa1ea9)"/><polygon points="54.8 367 50.3 367 48.1 370.9 50.3 374.7 54.8 374.7 57 370.9 54.8 367" style="fill:url(#abfedac3-eaad-4afd-8ecd-eb1d62081dd4)"/><polygon points="54.5 367.5 50.6 367.5 48.6 370.9 50.6 374.3 54.5 374.3 56.5 370.9 54.5 367.5" style="fill:url(#a60a97f1-10df-4e3d-90d8-264edfbc4840)"/><path d="M23.9,370.5a3,3,0,0,0,1.1-2.4H23.7a1.8,1.8,0,0,1-1.7,1.8h0v-1.8H20.5v6.4H22v-3.2h0a1.8,1.8,0,0,1,1.8,1.8v1.4h1.4v-1.4A3.3,3.3,0,0,0,23.9,370.5Z" transform="translate(0 0)" style="fill:#d9d9d9"/><polygon points="38.2 369.9 36.9 368.6 35.3 370.3 33.6 368.6 33.6 368.6 33.6 368.6 33.6 368.6 32.8 367.8 31.8 368.1 31.5 369.1 34 371.6 31.1 374.5 33.6 374.5 35.3 372.9 36.9 374.5 39.5 374.5 36.5 371.6 38.2 369.9" style="fill:#575757"/><path d="M29.8,366.3a3.2,3.2,0,0,0-3.2,3.2v5h1.8V372h1.4v-1.8H28.4v-.7a1.4,1.4,0,0,1,1.4-1.4,1.5,1.5,0,0,1,1.1.4l.2-1,1-.3h0A3,3,0,0,0,29.8,366.3Z" transform="translate(0 0)" style="fill:#575757"/><path d="M28.9,31.8H25.6a3.7,3.7,0,0,1-3.7-3.7V21.9a3.7,3.7,0,0,1,3.7-3.7h2.1v.9H25.6a2.7,2.7,0,0,0-2.7,2.7V28a2.7,2.7,0,0,0,2.7,2.7h3.3Z" transform="translate(0 0)" style="fill:#282c30"/><rect x="33.6" y="30.6" width="1.6" height="1.3" style="fill:#282c30"/><path d="M33.3,32.4H29.1c-.1,0-.2-.1-.2-.3V30.5c0-.1.1-.2.2-.3h4.2a.3.3,0,0,1,.3.3v1.8C33.6,32.3,33.5,32.4,33.3,32.4Z" transform="translate(0 0)" style="fill:#282c30"/><rect x="35.4" y="30.6" width="0.4" height="1.3" style="fill:#282c30"/><polygon points="37.7 30.4 37.3 30.4 36.1 30.6 36.1 32 37.3 32.2 37.7 32.2 38.1 32 38.1 30.6 37.7 30.4" style="fill:#282c30"/><rect x="37.7" y="14" width="6.1" height="6.37" rx="1.3" ry="1.3" style="fill:#282c30"/><path d="M42.5,18.7h-.4v1.2h-.9V18.7H38.7v-.8l2.1-3.4h1.1l-2,3.3h1.3V16.3h.9v1.4h.4Z" transform="translate(0 0)" style="fill:#929596"/><path d="M36.3,28.4H34.8L30.7,22v6.4H28.9V18.2h1.5l4.1,6.4V18.2h1.8Z" transform="translate(0 0)" style="fill:#282c30"/></svg>