<svg id="6428cf27-0319-49a7-9d43-3d0f596dc306" data-name="svg8" xmlns="http://www.w3.org/2000/svg" xmlns:xlink="http://www.w3.org/1999/xlink" viewBox="0 0 990.5 380"><defs><linearGradient id="4a7553e1-5dc9-4d68-b208-f0d2795a4e87" x1="1.46" y1="8.02" x2="14.75" y2="8.02" gradientUnits="userSpaceOnUse"><stop offset="0" stop-color="#b5b5b5"/><stop offset="1"/></linearGradient><linearGradient id="0b4c1e44-7012-482f-bc26-8a33c54eb3fe" x1="13.63" y1="8.02" x2="2.59" y2="8.02" gradientUnits="userSpaceOnUse"><stop offset="0" stop-color="#bfbfbf"/><stop offset="1" stop-color="#2b2b2b"/></linearGradient><linearGradient id="92611616-9b7d-48fb-888e-4624c7fa1a91" x1="12.58" y1="8.02" x2="3.64" y2="8.02" gradientUnits="userSpaceOnUse"><stop offset="0" stop-color="#363636"/><stop offset="1"/></linearGradient><linearGradient id="89869532-3c1b-4ee1-8c0b-61454829621b" x1="4.18" y1="8.02" x2="12.03" y2="8.02" gradientUnits="userSpaceOnUse"><stop offset="0" stop-color="#212121"/><stop offset="1"/></linearGradient><linearGradient id="e19b896a-6778-4533-a843-424975045102" x1="975.65" y1="8.02" x2="988.95" y2="8.02" xlink:href="#4a7553e1-5dc9-4d68-b208-f0d2795a4e87"/><linearGradient id="b8163bb5-478d-492f-9adc-c244614b5d8c" x1="987.82" y1="8.02" x2="976.78" y2="8.02" xlink:href="#0b4c1e44-7012-482f-bc26-8a33c54eb3fe"/><linearGradient id="ed5d6e1b-3eae-4113-9264-64055095849a" x1="986.77" y1="8.02" x2="977.83" y2="8.02" xlink:href="#92611616-9b7d-48fb-888e-4624c7fa1a91"/><linearGradient id="55e9a0cb-a46b-4619-b1cf-754e1e71e2e1" x1="978.38" y1="8.02" x2="986.22" y2="8.02" xlink:href="#89869532-3c1b-4ee1-8c0b-61454829621b"/><linearGradient id="a0731f5c-e0f0-4f79-9eae-cd7c3fc5975d" x1="1.46" y1="370.86" x2="14.75" y2="370.86" xlink:href="#4a7553e1-5dc9-4d68-b208-f0d2795a4e87"/><linearGradient id="21288c48-72db-4b58-bc83-12cca7c8488d" x1="13.63" y1="370.86" x2="2.59" y2="370.86" xlink:href="#0b4c1e44-7012-482f-bc26-8a33c54eb3fe"/><linearGradient id="f0209153-d63a-4293-b439-2ec4cbe9270b" x1="12.58" y1="370.86" x2="3.64" y2="370.86" xlink:href="#92611616-9b7d-48fb-888e-4624c7fa1a91"/><linearGradient id="764003fa-a427-402a-8936-74dcffca9ba8" x1="4.18" y1="370.86" x2="12.03" y2="370.86" xlink:href="#89869532-3c1b-4ee1-8c0b-61454829621b"/><linearGradient id="32a12de1-55a1-4542-a05b-24978820815f" x1="975.65" y1="370.86" x2="988.95" y2="370.86" xlink:href="#4a7553e1-5dc9-4d68-b208-f0d2795a4e87"/><linearGradient id="9c5b9aea-697d-452a-b88d-062acaf4bcab" x1="987.82" y1="370.86" x2="976.78" y2="370.86" xlink:href="#0b4c1e44-7012-482f-bc26-8a33c54eb3fe"/><linearGradient id="087d0f8c-2507-44da-8dc9-4d20141a5ec6" x1="986.77" y1="370.86" x2="977.83" y2="370.86" xlink:href="#92611616-9b7d-48fb-888e-4624c7fa1a91"/><linearGradient id="f9ff2e98-e287-4373-a17b-7f2bfa030314" x1="978.38" y1="370.86" x2="986.22" y2="370.86" xlink:href="#89869532-3c1b-4ee1-8c0b-61454829621b"/><linearGradient id="44241c6c-588c-4cf9-8d1f-9e618d4399b7" x1="124.7" y1="41.27" x2="124.7" y2="19.69" gradientUnits="userSpaceOnUse"><stop offset="0" stop-color="#141414"/><stop offset="1"/></linearGradient><linearGradient id="46031dd5-ce12-4974-83a0-945bac171702" x1="937.79" y1="90.43" x2="937.79" y2="67.1" xlink:href="#44241c6c-588c-4cf9-8d1f-9e618d4399b7"/></defs><title>Scorovnik-Light</title><g id="479ac685-dc10-4b3b-a4bc-866f0b42abdc" data-name="layer1"><path id="a2ce848b-6059-4bfc-994e-6a10f4b0197b" data-name="rect817" d="M0,0H990.5V380H0Z" transform="translate(0 0)" style="fill:#929596"/></g><rect x="10.1" y="306.9" width="35" height="32.29" rx="9.3" ry="9.3" style="fill:#727475"/><rect x="26.1" y="316.5" width="197.4" height="13.09" style="fill:#727475"/><rect x="836.1" y="60" width="138" height="306.97" rx="9.3" ry="9.3" style="fill:#a1a09d"/><rect x="907.4" y="110.5" width="60.8" height="47.39" rx="6.8" ry="6.8" style="fill:#cccbc7;stroke:#dedcd7;stroke-miterlimit:10"/><rect x="907.4" y="142.9" width="60.8" height="44.98" rx="6.8" ry="6.8" style="fill:#a1a09d;stroke:#dedcd7;stroke-miterlimit:10"/><rect x="10.1" y="299.7" width="35" height="36.77" rx="9.3" ry="9.3" style="fill:#c0c6cf"/><rect x="26.1" y="314.5" width="197.4" height="13.09" style="fill:#c0c6cf"/><path d="M214.1,278.9a9.4,9.4,0,0,1,9.4,9.4v-9.4Z" transform="translate(0 0)" style="fill:#6c6c6e"/><circle cx="42.1" cy="102.2" r="3.6" style="fill:#595d5e"/><circle cx="42.1" cy="129.4" r="3.6" style="fill:#595d5e"/><circle cx="42.1" cy="156.6" r="3.6" style="fill:#595d5e"/><circle cx="42.1" cy="183.7" r="3.6" style="fill:#595d5e"/><circle cx="42.1" cy="210.9" r="3.6" style="fill:#595d5e"/><circle cx="42.1" cy="238.1" r="3.6" style="fill:#595d5e"/><circle cx="42.1" cy="265.3" r="3.6" style="fill:#595d5e"/><rect x="23.2" y="361.4" width="46.5" height="13.36"/><rect x="73.6" y="361.5" width="34.8" height="13.36"/><rect x="112.5" y="361.4" width="51.6" height="13.36" style="fill:#5e6470"/><path d="M223.5,68.2a9.4,9.4,0,0,1-9.4,9.4h9.4Z" transform="translate(0 0)" style="fill:#cccdd1"/><rect x="42.1" y="77.5" width="181.4" height="96.85" style="fill:#cccdd1"/><circle cx="8.1" cy="9.1" r="6.6" style="fill:#303030"/><circle cx="8.1" cy="8" r="6.6" style="fill:url(#4a7553e1-5dc9-4d68-b208-f0d2795a4e87)"/><circle cx="8.1" cy="8" r="5.5" style="fill:url(#0b4c1e44-7012-482f-bc26-8a33c54eb3fe)"/><polygon points="10.3 4.2 5.9 4.2 3.6 8 5.9 11.9 10.3 11.9 12.6 8 10.3 4.2" style="fill:url(#92611616-9b7d-48fb-888e-4624c7fa1a91)"/><polygon points="10.1 4.6 6.1 4.6 4.2 8 6.1 11.4 10.1 11.4 12 8 10.1 4.6" style="fill:url(#89869532-3c1b-4ee1-8c0b-61454829621b)"/><path d="M42.1,174.4H223.5a0,0,0,0,1,0,0V278.9a0,0,0,0,1,0,0H52.2a10.1,10.1,0,0,1-10.1-10.1V174.4A0,0,0,0,1,42.1,174.4Z" style="fill:#6c6c6e"/><circle cx="62" cy="184.9" r="15.9" style="fill:#6c6c6e"/><circle cx="99.3" cy="184.9" r="15.9" style="fill:#6c6c6e"/><circle cx="137.3" cy="184.9" r="15.9" style="fill:#6c6c6e"/><circle cx="174.1" cy="184.9" r="15.9" style="fill:#6c6c6e"/><circle cx="982.3" cy="9.1" r="6.6" style="fill:#303030"/><circle cx="982.3" cy="8" r="6.6" style="fill:url(#e19b896a-6778-4533-a843-424975045102)"/><circle cx="982.3" cy="8" r="5.5" style="fill:url(#b8163bb5-478d-492f-9adc-c244614b5d8c)"/><polygon points="984.5 4.2 980.1 4.2 977.8 8 980.1 11.9 984.5 11.9 986.8 8 984.5 4.2" style="fill:url(#ed5d6e1b-3eae-4113-9264-64055095849a)"/><polygon points="984.3 4.6 980.3 4.6 978.4 8 980.3 11.4 984.3 11.4 986.2 8 984.3 4.6" style="fill:url(#55e9a0cb-a46b-4619-b1cf-754e1e71e2e1)"/><circle cx="8.1" cy="372" r="6.6" style="fill:#303030"/><circle cx="8.1" cy="370.9" r="6.6" style="fill:url(#a0731f5c-e0f0-4f79-9eae-cd7c3fc5975d)"/><circle cx="8.1" cy="370.9" r="5.5" style="fill:url(#21288c48-72db-4b58-bc83-12cca7c8488d)"/><polygon points="10.3 367 5.9 367 3.6 370.9 5.9 374.7 10.3 374.7 12.6 370.9 10.3 367" style="fill:url(#f0209153-d63a-4293-b439-2ec4cbe9270b)"/><polygon points="10.1 367.5 6.1 367.5 4.2 370.9 6.1 374.3 10.1 374.3 12 370.9 10.1 367.5" style="fill:url(#764003fa-a427-402a-8936-74dcffca9ba8)"/><circle cx="982.3" cy="372" r="6.6" style="fill:#303030"/><circle cx="982.3" cy="370.9" r="6.6" style="fill:url(#32a12de1-55a1-4542-a05b-24978820815f)"/><circle cx="982.3" cy="370.9" r="5.5" style="fill:url(#9c5b9aea-697d-452a-b88d-062acaf4bcab)"/><polygon points="984.5 367 980.1 367 977.8 370.9 980.1 374.7 984.5 374.7 986.8 370.9 984.5 367" style="fill:url(#087d0f8c-2507-44da-8dc9-4d20141a5ec6)"/><polygon points="984.3 367.5 980.3 367.5 978.4 370.9 980.3 374.3 984.3 374.3 986.2 370.9 984.3 367.5" style="fill:url(#f9ff2e98-e287-4373-a17b-7f2bfa030314)"/><path d="M32.6,369.7v.5a1.4,1.4,0,0,1-.2.6,1,1,0,0,1-.4.5l-.7.4H29.8l-.7-.3-.5-.5a1.9,1.9,0,0,1-.2-.8v-4a1.4,1.4,0,0,1,.2-.6,1,1,0,0,1,.4-.5l.7-.4h.8a2.5,2.5,0,0,1,1.5.5,1,1,0,0,1,.4.5,1.4,1.4,0,0,1,.2.7v.4H31.3v-.3a1.4,1.4,0,0,0-.2-.6l-.6-.2a.6.6,0,0,0-.6.3.8.8,0,0,0-.2.5v3.7a.8.8,0,0,0,.2.5l.6.2H31c.1-.1.2-.2.2-.3s.1-.2.1-.3v-.4Z" transform="translate(0 0)" style="fill:#fff"/><path d="M33.6,371.8v-7.1h1.3v6.1h2.5v1Z" transform="translate(0 0)" style="fill:#fff"/><path d="M38.2,371.8v-7.1h1.3v3.2h0l1.9-3.2h1.3l-1.8,2.8,2.1,4.3H41.6l-1.4-3.2-.7,1v2.2Z" transform="translate(0 0)" style="fill:#fff"/><path d="M48.2,371.8v-7.1h2.9l.7.4a2.1,2.1,0,0,1,.4.6,1.5,1.5,0,0,1,.1.7v.7c-.1.1-.1.3-.2.4l-.7.4c.3.2.6.3.7.5a2.9,2.9,0,0,1,.2.9v.4a2.3,2.3,0,0,1-.5,1.5,3.1,3.1,0,0,1-1.9.5Zm1.3-6.2v2H50q.8,0,.9-.3a1.3,1.3,0,0,0,0-1.4,1.2,1.2,0,0,0-.9-.3Zm0,2.9v2.3h1.1l.4-.3c0-.1.1-.2.1-.4v-.9a.8.8,0,0,0-.2-.4l-.3-.2H49.5Z" transform="translate(0 0)" style="fill:#fff"/><path d="M53.5,371.8v-7.1h2.9a1.3,1.3,0,0,1,.7.4c.2.1.3.4.4.6a3,3,0,0,1,.2,1c0,.3-.1.6-.1.8l-.3.7a1.8,1.8,0,0,1-.7.5l-1.2.2h-.6v2.8Zm1.3-6.2V368H56c.1,0,.3-.1.3-.2s.1-.2.1-.4a.7.7,0,0,0,.1-.5.6.6,0,0,0-.1-.4c0-.2,0-.3-.1-.4s-.1-.2-.3-.3H54.8Z" transform="translate(0 0)" style="fill:#fff"/><path d="M58.6,371.8v-7.1h1.2l1.7,3.7h0l1.6-3.7h1.3v7.1H63.1v-4.4h0l-1.3,3.1h-.6l-1.3-3.1h0v4.4Z" transform="translate(0 0)" style="fill:#fff"/><rect x="168.1" y="361.4" width="51.2" height="13.36" style="fill:#5e6470"/><path d="M177.2,369.7v.5a1.3,1.3,0,0,1-.1.6,1.2,1.2,0,0,1-.5.5c-.1.2-.4.3-.6.4h-1.5l-.7-.3-.5-.5a1.9,1.9,0,0,1-.2-.8v-4a1.3,1.3,0,0,1,.1-.6,1.2,1.2,0,0,1,.5-.5l.6-.4h.9a2,2,0,0,1,1.4.5,1.2,1.2,0,0,1,.5.5,1.5,1.5,0,0,1,.1.7v.4h-1.3v-.3a.7.7,0,0,0-.2-.6l-.5-.2c-.4,0-.6.1-.7.3a.7.7,0,0,0-.1.5v3.7a.7.7,0,0,0,.1.5l.6.2h.6l.2-.3v-.7Z" transform="translate(0 0)" style="fill:#fff"/><path d="M182.6,364.7l-1.8,7.1h-1.2l-1.8-7.1h1.4l1,4.9h0l1-4.9Z" transform="translate(0 0)" style="fill:#fff"/><path d="M186.5,371.8v-6.2H185v-.9h4.3v.9h-1.5v6.2Z" transform="translate(0 0)" style="fill:#fff"/><path d="M189.8,371.8v-7.1h2.1c1.5,0,2.2.7,2.2,2a3.1,3.1,0,0,1-.2,1.1,2.2,2.2,0,0,1-.9.7l1.4,3.3H193l-1.1-3.1h-.8v3.1Zm1.3-6.2v2.2h1.3l.3-.3a1,1,0,0,0,.1-.3v-.9c0-.2-.1-.3-.1-.4a1.2,1.2,0,0,0-.9-.3Z" transform="translate(0 0)" style="fill:#fff"/><path d="M194.6,371.8l2-7.1h1l2,7.1h-1.3l-.3-1.6h-1.8l-.4,1.6Zm3.1-2.5-.6-2.6h0l-.7,2.6Z" transform="translate(0 0)" style="fill:#fff"/><path d="M200.2,371.8v-7.1h1.2l1.9,4.2h.1v-4.2h1.2v7.1h-1.2l-1.9-4.3h0v4.3Z" transform="translate(0 0)" style="fill:#fff"/><path d="M209.9,366.7h-1.3v-.2c0-.3,0-.5-.2-.6s-.3-.3-.7-.3h-.4l-.3.2c0,.1-.1.2-.1.3v.7c0,.1,0,.2.1.2l.2.2.4.2,1,.3.7.3.4.4a4.2,4.2,0,0,1,.2.6v.6a2.8,2.8,0,0,1-.1.9c-.1.2-.2.5-.4.6a1.3,1.3,0,0,1-.7.5h-1.9c-.2-.1-.5-.2-.6-.4l-.5-.5a1.4,1.4,0,0,1-.2-.7v-.3h1.3v.3c0,.2.1.3.2.5l.7.2h.5l.3-.2a.4.4,0,0,0,.1-.3v-.9a.4.4,0,0,0-.1-.3c0-.1-.1-.1-.2-.2h-.4l-.9-.3a1.9,1.9,0,0,1-1.1-.7,2.1,2.1,0,0,1-.3-1.2,1.7,1.7,0,0,1,.1-.7,1.5,1.5,0,0,1,.4-.6l.7-.4a1.6,1.6,0,0,1,1-.2h.9l.6.4a1.4,1.4,0,0,1,.6,1.1Z" transform="translate(0 0)" style="fill:#fff"/><path d="M210.9,371.8v-7.1h2.8a1,1,0,0,1,.7.4,1.5,1.5,0,0,1,.5.6,3.1,3.1,0,0,1,.1,1,1.9,1.9,0,0,1-.1.8.9.9,0,0,1-.3.7,1.3,1.3,0,0,1-.7.5l-1.1.2h-.7v2.8Zm1.2-6.2V368h1.2a.5.5,0,0,0,.4-.2c0-.1.1-.2.1-.4v-.9c0-.2-.1-.3-.1-.4l-.3-.3h-1.3Z" transform="translate(0 0)" style="fill:#fff"/><path d="M10.7,105.5V96.9h2c1.4,0,2.1.9,2.1,2.6a2.2,2.2,0,0,1-.2,1.2,1.4,1.4,0,0,1-.8.9l1.3,3.9H13.8l-1.1-3.6h-.8v3.6Zm1.2-7.4v2.7h1.2l.3-.3a.5.5,0,0,0,.2-.4V98.9a.8.8,0,0,0-.2-.5c-.1-.2-.4-.3-.8-.3Z" transform="translate(0 0)" style="fill:#fff"/><path d="M19.8,96.9v6.7a2.2,2.2,0,0,1-.1.8l-.4.6-.7.5H17.1l-.7-.5-.4-.6a2.4,2.4,0,0,1-.2-.8V96.9h1.3v6.6a.8.8,0,0,0,.2.7l.5.2a1.1,1.1,0,0,0,.6-.2,1.4,1.4,0,0,0,.2-.7V96.9Z" transform="translate(0 0)" style="fill:#fff"/><path d="M20.9,105.5V96.9h1.2l1.9,5.2h0V96.9h1.2v8.6H24.1l-1.9-5.1h0v5.1Z" transform="translate(0 0)" style="fill:#fff"/><path d="M59.6,88.7l1.9-8.5h1l1.9,8.5H63.2l-.4-1.8H61.2l-.4,1.8Zm3-3L62,82.6h0l-.6,3.1Z" transform="translate(0 0)" style="fill:#fff"/><path d="M97.4,88.7V80.2h2.7l.7.5a1.6,1.6,0,0,1,.4.7,2.2,2.2,0,0,1,.1.8v.9c-.1.2-.1.3-.2.4a.9.9,0,0,1-.6.6,1.7,1.7,0,0,1,.6.6,3.1,3.1,0,0,1,.2,1.1v.5a2.9,2.9,0,0,1-.5,1.7,2.4,2.4,0,0,1-1.8.6Zm1.2-7.4v2.4h.5a1.2,1.2,0,0,0,.9-.3,2,2,0,0,0,.2-.9,1.2,1.2,0,0,0-.3-.9c-.1-.2-.4-.3-.8-.3Zm0,3.4v2.8h1.1l.3-.3a.9.9,0,0,0,.1-.5,1.3,1.3,0,0,0,.1-.6.7.7,0,0,0-.1-.5c0-.2,0-.3-.1-.4l-.3-.3H98.6Z" transform="translate(0 0)" style="fill:#fff"/><path d="M139.5,86.3v.5a1.5,1.5,0,0,1-.1.7,4.3,4.3,0,0,1-.4.7l-.7.4-.7.2h-.7l-.7-.4c-.2-.1-.3-.3-.5-.6a2.2,2.2,0,0,1-.1-.9V82.1a1.9,1.9,0,0,1,.1-.8.9.9,0,0,1,.4-.6l.6-.5h.8a2,2,0,0,1,1.5.6l.4.6a2.2,2.2,0,0,1,.1.8v.5h-1.2v-.4a1.4,1.4,0,0,0-.2-.6.8.8,0,0,0-1.2,0,1.5,1.5,0,0,0-.1.7v4.4a1.3,1.3,0,0,0,.1.6.6.6,0,0,0,.6.3h.5c.1-.1.2-.2.2-.3s.1-.2.1-.4v-.4Z" transform="translate(0 0)" style="fill:#fff"/><path d="M172.1,88.7V80.2H174a2.5,2.5,0,0,1,1.6.5,2.9,2.9,0,0,1,.5,1.7v4a2.1,2.1,0,0,1-.6,1.7,2.2,2.2,0,0,1-1.7.6Zm1.3-7.4v6.3h.5a1,1,0,0,0,.8-.3,1.5,1.5,0,0,0,.2-.8V82.4a1.5,1.5,0,0,0-.2-.8,1,1,0,0,0-.8-.3Z" transform="translate(0 0)" style="fill:#fff"/><path d="M14.7,126.9H13.4v-.3a.8.8,0,0,0-.2-.7.6.6,0,0,0-.6-.3h-.4l-.3.2c-.1.1-.1.2-.1.4s-.1.3-.1.4,0,.3.1.4v.3l.3.3h.3l1,.4.7.4a.9.9,0,0,1,.3.5,1.4,1.4,0,0,1,.2.6,2.8,2.8,0,0,1,.1.9c0,.3-.1.7-.1,1a2,2,0,0,1-.4.8,1.5,1.5,0,0,1-.6.5l-1,.2h-.9c-.2-.2-.5-.3-.6-.5l-.5-.6a2.4,2.4,0,0,1-.2-.8v-.5h1.3v.4a.7.7,0,0,0,.2.6c.1.2.3.3.7.3H13l.3-.3c.1-.1.1-.2.1-.4V130a.4.4,0,0,0-.1-.3l-.2-.2-.4-.2-.9-.4a2.1,2.1,0,0,1-1-.8,2.9,2.9,0,0,1-.3-1.4c0-.3.1-.6.1-.9l.4-.8.7-.5h1.8l.6.5a1.8,1.8,0,0,1,.6,1.3Z" transform="translate(0 0)" style="fill:#fff"/><path d="M16.4,133v-7.4H15v-1.2h4.1v1.2H17.6V133Z" transform="translate(0 0)" style="fill:#fff"/><path d="M19.4,126.5a3,3,0,0,1,.2-1,1.5,1.5,0,0,1,.5-.6l.6-.4h1.5l.7.4c.2.1.3.4.5.6a3.1,3.1,0,0,1,.1,1V131a2.2,2.2,0,0,1-.1.9l-.5.7-.7.4H20.7l-.6-.4a1.8,1.8,0,0,1-.5-.7,2,2,0,0,1-.2-.9Zm1.2,4.5a.9.9,0,0,0,.3.7l.6.2.6-.2a1.4,1.4,0,0,0,.2-.7v-4.5a1.2,1.2,0,0,0-.2-.7l-.6-.2-.6.2a.8.8,0,0,0-.3.7Z" transform="translate(0 0)" style="fill:#fff"/><path d="M24.6,133v-8.6h1.9l.9.2a1.3,1.3,0,0,1,.7.4,3,3,0,0,1,.4.8,4.1,4.1,0,0,1,.1,1.2v1l-.3.8a1.3,1.3,0,0,1-.7.6,2,2,0,0,1-1.1.3h-.6V133Zm1.3-7.4v2.9H27q.3-.2.3-.3a.6.6,0,0,0,.1-.4,1.3,1.3,0,0,0,.1-.6v-.6c-.1-.2-.1-.4-.2-.5l-.2-.3H25.9Z" transform="translate(0 0)" style="fill:#fff"/><path d="M10.7,160.5v-8.6h2c1.4,0,2.1.9,2.1,2.6a2.2,2.2,0,0,1-.2,1.2,1.4,1.4,0,0,1-.8.9l1.3,3.9H13.8l-1.1-3.6h-.8v3.6Zm1.2-7.4v2.7h1.2l.3-.3a.5.5,0,0,0,.2-.4v-1.1a.8.8,0,0,0-.2-.5c-.1-.2-.4-.3-.8-.3Z" transform="translate(0 0)" style="fill:#fff"/><path d="M15.8,160.5v-8.6h3.7v1.2H17.1v2.5h2.1v1.2H17.1v2.5h2.4v1.2Z" transform="translate(0 0)" style="fill:#fff"/><path d="M24.3,154.4H23.1v-.3a1.4,1.4,0,0,0-.2-.7.9.9,0,0,0-.7-.3h-.4l-.3.2c0,.1-.1.2-.1.4v.8a.4.4,0,0,0,.1.3l.2.3h.4l.9.4.7.4.4.5c.1.2.1.4.2.6v.9a3.4,3.4,0,0,1-.1,1,2,2,0,0,1-.4.8,1,1,0,0,1-.6.5l-1,.2h-.9l-.6-.5-.5-.6a2.2,2.2,0,0,1-.1-.8v-.5h1.2v.4a1.4,1.4,0,0,0,.2.6.8.8,0,0,0,.7.3h.5l.2-.3.2-.4v-.5a1.3,1.3,0,0,0-.1-.6v-.3l-.3-.2-.3-.2-.9-.4a2,2,0,0,1-1.1-.8,2.8,2.8,0,0,1-.1-2.3,3,3,0,0,1,.4-.8c.1-.2.4-.3.6-.5h1.8l.7.5a2.1,2.1,0,0,1,.5,1.3Z" transform="translate(0 0)" style="fill:#fff"/><path d="M25.2,160.5v-8.6h3.7v1.2H26.5v2.5h2.1v1.2H26.5v2.5h2.4v1.2Z" transform="translate(0 0)" style="fill:#fff"/><path d="M30.5,160.5v-7.4H29.1v-1.2h4.1v1.2H31.7v7.4Z" transform="translate(0 0)" style="fill:#fff"/><path d="M920,179.1l1.9-8.6H923l1.9,8.6h-1.3l-.3-1.8h-1.7l-.4,1.8Zm3-3-.6-3.1h0l-.6,3.1Z" transform="translate(0 0)" style="fill:#fff"/><path d="M929.5,170.5v6.7a2.4,2.4,0,0,1-.2.8,2.1,2.1,0,0,1-.4.6l-.7.4-.7.2-.8-.2-.6-.4-.5-.6a2.2,2.2,0,0,1-.1-.8v-6.7h1.2v6.6a.8.8,0,0,0,.2.6.9.9,0,0,0,.6.3.5.5,0,0,0,.5-.3c.2-.1.2-.3.2-.6v-6.6Z" transform="translate(0 0)" style="fill:#fff"/><path d="M930.6,179.1v-8.6h1.9a2.1,2.1,0,0,1,1.6.6,2.5,2.5,0,0,1,.5,1.6v4.1a2.1,2.1,0,0,1-.6,1.7,2.2,2.2,0,0,1-1.7.6Zm1.3-7.4V178h.5a1,1,0,0,0,.8-.3,1.9,1.9,0,0,0,.2-.8v-4.2a1.9,1.9,0,0,0-.2-.8l-.8-.2Z" transform="translate(0 0)" style="fill:#fff"/><path d="M935.8,179.1v-8.6h1.3v8.6Z" transform="translate(0 0)" style="fill:#fff"/><path d="M939.1,179.1v-7.4h-1.5v-1.2h4.1v1.2h-1.4v7.4Z" transform="translate(0 0)" style="fill:#fff"/><path d="M942.3,179.1v-8.6h1.2v8.6Z" transform="translate(0 0)" style="fill:#fff"/><path d="M944.7,172.5a2.8,2.8,0,0,1,.1-.9c.2-.3.3-.5.5-.6l.7-.4.7-.2.8.2.6.4a1,1,0,0,1,.5.6,2.9,2.9,0,0,1,.2.9v4.6a2.4,2.4,0,0,1-.2.9,1.8,1.8,0,0,1-.5.7l-.6.4H946l-.7-.4-.5-.7a2.5,2.5,0,0,1-.1-.9Zm1.2,4.6a.8.8,0,0,0,.2.6.9.9,0,0,0,.6.3,1.1,1.1,0,0,0,.9-.9v-4.6a.6.6,0,0,0-.3-.6c-.1-.2-.3-.2-.6-.2a.7.7,0,0,0-.6.2.8.8,0,0,0-.2.6Z" transform="translate(0 0)" style="fill:#fff"/><path d="M949.8,179.1v-8.6H951l1.9,5.2h0v-5.2h1.2v8.6H953l-1.9-5.2h0v5.2Z" transform="translate(0 0)" style="fill:#fff"/><path d="M918.9,206.9h-1.2v-.3a1.4,1.4,0,0,0-.2-.7.8.8,0,0,0-.7-.3h-.4l-.3.3v1.2a.4.4,0,0,0,.1.3l.2.2.4.2.9.4.7.4c.2.1.3.3.4.4s.1.5.2.7v.8a4.1,4.1,0,0,1-.1,1.1l-.3.7a1.3,1.3,0,0,1-.7.6l-1,.2-.8-.2-.7-.4-.5-.7a1.9,1.9,0,0,1-.1-.8v-.4h1.2v.4a1.4,1.4,0,0,0,.2.6.8.8,0,0,0,.7.2h.5l.3-.3V210a.5.5,0,0,1-.1-.3l-.3-.3H917l-.9-.4a2,2,0,0,1-1.1-.9,2.5,2.5,0,0,1-.3-1.3,2.4,2.4,0,0,1,.2-.9,2,2,0,0,1,.4-.8,1.5,1.5,0,0,1,.6-.5l1-.2.8.2.7.4a2.4,2.4,0,0,1,.5,1.4Z" transform="translate(0 0)" style="fill:#6e6e6e"/><path d="M919.8,213v-8.6h3.7v1.2h-2.4v2.5h2.1v1.1h-2.1v2.6h2.4V213Z" transform="translate(0 0)" style="fill:#6e6e6e"/><path d="M924.2,206.4a2.9,2.9,0,0,1,.2-.9,1.8,1.8,0,0,1,.5-.7,1.5,1.5,0,0,1,.7-.3l.7-.2.8.2.6.3a1.8,1.8,0,0,1,.5.7,2.9,2.9,0,0,1,.2.9V211a2.9,2.9,0,0,1-.2.9l.8.6-.7.7-.7-.6a2.1,2.1,0,0,1-1.3.5l-.7-.2a1,1,0,0,1-.7-.4,1,1,0,0,1-.5-.6,2.9,2.9,0,0,1-.2-.9Zm1.3,4.6a.8.8,0,0,0,.2.6.7.7,0,0,0,.6.2h.3l-.6-.5.6-.7.5.4h0v-4.6c0-.3,0-.5-.2-.6a1,1,0,0,0-1.2,0,.8.8,0,0,0-.2.6Z" transform="translate(0 0)" style="fill:#6e6e6e"/><path d="M931.7,213v-8.6h1.2v7.4h2.5V213Z" transform="translate(0 0)" style="fill:#6e6e6e"/><path d="M936.2,213v-8.6h3.7v1.2h-2.5v2.5h2.2v1.1h-2.2v2.6h2.5V213Z" transform="translate(0 0)" style="fill:#6e6e6e"/><path d="M940.6,213v-8.6h1.2l1.9,5.2h0v-5.2h1.2V213h-1.1l-1.9-5.2h-.1V213Z" transform="translate(0 0)" style="fill:#6e6e6e"/><path d="M946,206.4a2.8,2.8,0,0,1,.1-.9l.5-.7a1.5,1.5,0,0,1,.7-.3l.7-.2.8.2c.2,0,.4.2.6.3a1.8,1.8,0,0,1,.5.7,2.9,2.9,0,0,1,.2.9v.5h-1.2v-.5a.6.6,0,0,0-.3-.6c-.1-.2-.3-.2-.6-.2a.7.7,0,0,0-.6.2.8.8,0,0,0-.2.6V211a.8.8,0,0,0,.2.6.7.7,0,0,0,.6.2c.3,0,.5,0,.6-.2a.6.6,0,0,0,.3-.6v-1.7h-1v-1h2.2V211a2.9,2.9,0,0,1-.2.9,1,1,0,0,1-.5.6c-.2.2-.4.4-.6.4l-.8.2-.7-.2a1,1,0,0,1-.7-.4c-.2-.1-.3-.3-.5-.6a2.8,2.8,0,0,1-.1-.9Z" transform="translate(0 0)" style="fill:#6e6e6e"/><path d="M952,213v-7.4h-1.4v-1.2h4.1v1.2h-1.5V213Z" transform="translate(0 0)" style="fill:#6e6e6e"/><path d="M955.2,213v-8.6h1.2v3.7H958v-3.7h1.2V213H958v-3.8h-1.6V213Z" transform="translate(0 0)" style="fill:#6e6e6e"/><path d="M918.3,41h-1.2v-.3a1.4,1.4,0,0,0-.2-.7.9.9,0,0,0-.7-.3h-.4l-.3.2c0,.1-.1.2-.1.4s-.1.2-.1.4.1.3.1.4a.4.4,0,0,0,.1.3.2.2,0,0,0,.2.2l.3.2,1,.4.7.4.4.5c0,.1.1.4.1.6a2.5,2.5,0,0,1,.1.9c0,.3-.1.7-.1,1a3,3,0,0,1-.4.8,1.5,1.5,0,0,1-.6.5l-1,.2-.9-.2c-.2-.1-.5-.2-.6-.4a1.8,1.8,0,0,1-.5-.7,1.9,1.9,0,0,1-.1-.8v-.4h1.2v.4a1.4,1.4,0,0,0,.2.6c.1.2.3.2.7.2h.4q.3-.1.3-.3c.1-.1.1-.2.1-.4s.1-.3.1-.5-.1-.4-.1-.6,0-.3-.1-.3l-.2-.3h-.4l-.8-.4a1.7,1.7,0,0,1-1.1-.9,2.5,2.5,0,0,1-.3-1.3c0-.3.1-.6.1-.9a5.9,5.9,0,0,1,.4-.8,1.8,1.8,0,0,1,.7-.5l.9-.2.9.2.6.4a2,2,0,0,1,.6,1.4Z" transform="translate(0 0)" style="fill:#fff"/><path d="M920,47.1V39.7h-1.4V38.5h4.1v1.2h-1.5v7.4Z" transform="translate(0 0)" style="fill:#fff"/><path d="M923.2,47.1V38.5h3.7v1.2h-2.4v2.5h2.1v1.1h-2.1v2.6h2.4v1.2Z" transform="translate(0 0)" style="fill:#fff"/><path d="M927.7,47.1V38.5h2.7a1.8,1.8,0,0,1,.7.5,1.4,1.4,0,0,1,.5.8,4.1,4.1,0,0,1,.1,1.2,3.1,3.1,0,0,1-.1,1,1.3,1.3,0,0,1-.3.8,1.2,1.2,0,0,1-.6.6,2,2,0,0,1-1.1.2h-.7v3.4Zm1.2-7.4v2.9h1.2l.3-.3a.7.7,0,0,0,.1-.5V40.6a.7.7,0,0,0-.1-.5.3.3,0,0,0-.3-.3h-1.2Z" transform="translate(0 0)" style="fill:#fff"/><path d="M936.6,41h-1.2v-.3a1.4,1.4,0,0,0-.2-.7.9.9,0,0,0-.7-.3h-.4l-.3.2c0,.1-.1.2-.1.4v.8a.4.4,0,0,0,.1.3.2.2,0,0,0,.2.2l.4.2.9.4.7.4a1,1,0,0,1,.4.5c.1.1.1.4.2.6v.9a3.4,3.4,0,0,1-.1,1l-.3.8a1.8,1.8,0,0,1-.7.5l-1,.2-.9-.2-.6-.4a1.8,1.8,0,0,1-.5-.7,1.9,1.9,0,0,1-.1-.8v-.4h1.2v.4a1.4,1.4,0,0,0,.2.6c.1.2.4.2.7.2h.5c.1-.1.2-.2.2-.3l.2-.4V44.1a.5.5,0,0,1-.1-.3l-.3-.3h-.3l-.9-.4a1.7,1.7,0,0,1-1.1-.9,2.5,2.5,0,0,1-.3-1.3,2.9,2.9,0,0,1,.2-.9,2,2,0,0,1,.4-.8,1.5,1.5,0,0,1,.6-.5l1-.2.8.2.7.4a2.4,2.4,0,0,1,.5,1.4Z" transform="translate(0 0)" style="fill:#fff"/><path d="M205.3,233.7v6.7a2.4,2.4,0,0,1-.2.8,2.1,2.1,0,0,1-.4.6l-.6.5h-1.6l-.6-.5a2.1,2.1,0,0,1-.4-.6,2.4,2.4,0,0,1-.2-.8v-6.7h1.2v6.6a.9.9,0,0,0,.3.7l.5.2.5-.2a.9.9,0,0,0,.3-.7v-6.6Z" transform="translate(0 0)" style="fill:#9e9ea1"/><path d="M206.4,242.3v-8.6h1.2l1.9,5.2h0v-5.2h1.2v8.6h-1.1l-1.9-5.1h-.1v5.1Z" transform="translate(0 0)" style="fill:#9e9ea1"/><path d="M211.9,242.3v-8.6h1.2v8.6Z" transform="translate(0 0)" style="fill:#9e9ea1"/><path d="M204.6,190v-8.6h1.1l1.6,4.5h0l1.6-4.5h1.2V190h-1.2v-5.2h0l-1.3,3.7H207l-1.2-3.7h0V190Z" transform="translate(0 0)" style="fill:#fff"/><path d="M10.6,181.5a3,3,0,0,1,.2-1,1.5,1.5,0,0,1,.5-.6l.6-.4h1.5l.7.4c.2.1.3.4.5.6a3,3,0,0,1,.2,1v.4H13.5v-.4a1.2,1.2,0,0,0-.2-.7l-.6-.2-.6.2a.8.8,0,0,0-.3.7V186a.9.9,0,0,0,.3.7l.6.2.6-.2a1.4,1.4,0,0,0,.2-.7v-1.6h-1v-1.1h2.3V186a2,2,0,0,1-.2.9l-.5.7-.7.4H11.9l-.6-.4a1.8,1.8,0,0,1-.5-.7,2,2,0,0,1-.2-.9Z" transform="translate(0 0)" style="fill:#5b5d5e"/><path d="M15.3,188l1.9-8.6h1l2,8.6H18.9l-.3-1.8H16.9l-.4,1.8Zm3-3-.6-3.1h0l-.6,3.1Z" transform="translate(0 0)" style="fill:#5b5d5e"/><path d="M20.9,188v-7.4H19.5v-1.2h4.1v1.2H22.1V188Z" transform="translate(0 0)" style="fill:#5b5d5e"/><path d="M24.1,188v-8.6h3.7v1.2H25.3v2.5h2.2v1.2H25.3v2.5h2.5V188Z" transform="translate(0 0)" style="fill:#5b5d5e"/><path d="M12,215.5v-7.3l-1.3.9v-1.3l1.3-.9h1.2v8.6Z" transform="translate(0 0)" style="fill:#5b5d5e"/><path d="M19.4,206.9l-1.8,8.6H16.5l-1.7-8.6h1.3l1,6h0l1-6Z" transform="translate(0 0)" style="fill:#5b5d5e"/><path d="M19.6,215.6l1.6-8.7h1l-1.6,8.7Z" transform="translate(0 0)" style="fill:#5b5d5e"/><path d="M22.7,209a3,3,0,0,1,.2-1,1.5,1.5,0,0,1,.5-.6l.6-.4h1.5l.7.4a1.5,1.5,0,0,1,.5.6,3,3,0,0,1,.2,1v4.5a2,2,0,0,1-.2.9,1.8,1.8,0,0,1-.5.7l-.7.4H24l-.6-.4a1.8,1.8,0,0,1-.5-.7,2,2,0,0,1-.2-.9Zm1.3,4.5a.8.8,0,0,0,.2.7l.6.2.6-.2a1.4,1.4,0,0,0,.2-.7V209a1.2,1.2,0,0,0-.2-.7l-.6-.2-.6.2c-.2.1-.2.4-.2.7Z" transform="translate(0 0)" style="fill:#5b5d5e"/><path d="M31.9,213.1v.5a2.4,2.4,0,0,1-.2.8,2.1,2.1,0,0,1-.4.6l-.6.4a1.2,1.2,0,0,1-.8.2h-.7l-.7-.3a1.6,1.6,0,0,1-.4-.7c-.2-.2-.2-.5-.2-.9v-4.8a2.5,2.5,0,0,1,.1-.8l.4-.6.7-.4h.8a1.7,1.7,0,0,1,1.4.5,1.6,1.6,0,0,1,.4.7,1.9,1.9,0,0,1,.2.8v.5H30.6V209c0-.3,0-.5-.2-.6a.5.5,0,0,0-.5-.3.6.6,0,0,0-.6.3,1.4,1.4,0,0,0-.2.7v4.4a1.1,1.1,0,0,0,.2.6.6.6,0,0,0,.6.3h.5l.2-.3v-.8Z" transform="translate(0 0)" style="fill:#5b5d5e"/><path d="M33.7,215.5v-7.4H32.3v-1.2h4v1.2H34.9v7.4Z" transform="translate(0 0)" style="fill:#5b5d5e"/><path d="M10.1,243l2-8.6h1L15,243H13.8l-.4-1.8H11.7l-.3,1.8Zm3.1-3-.6-3.1h0l-.7,3.1Z" transform="translate(0 0)" style="fill:#5b5d5e"/><path d="M19.5,240.6v.5a2.2,2.2,0,0,1-.1.8l-.4.6-.7.4a1,1,0,0,1-.7.2h-.7l-.7-.3-.5-.7a2,2,0,0,1-.2-.9v-4.8a3.1,3.1,0,0,1,.2-.8l.4-.6.6-.4h.8a2,2,0,0,1,1.5.5,4.3,4.3,0,0,1,.4.7,1.9,1.9,0,0,1,.1.8v.5H18.3v-.4a.8.8,0,0,0-.2-.6.8.8,0,0,0-1.2,0,1.5,1.5,0,0,0-.1.7V241c0,.2,0,.5.1.6a.6.6,0,0,0,.6.3h.3c.1,0,.2,0,.2-.1l.2-.3c.1-.1.1-.2.1-.4v-.4Z" transform="translate(0 0)" style="fill:#5b5d5e"/><path d="M24.5,240.6v.5a2.4,2.4,0,0,1-.2.8,2.1,2.1,0,0,1-.4.6l-.6.4a1.2,1.2,0,0,1-.8.2h-.7l-.7-.3-.5-.7a2.2,2.2,0,0,1-.1-.9v-4.8a2.5,2.5,0,0,1,.1-.8l.4-.6.7-.4h.8a1.9,1.9,0,0,1,1.4.5,1.6,1.6,0,0,1,.4.7,1.9,1.9,0,0,1,.2.8v.5H23.2v-.4a.8.8,0,0,0-.2-.6.5.5,0,0,0-.5-.3c-.4,0-.6.1-.7.3a1.5,1.5,0,0,0-.1.7V241c0,.2,0,.5.2.6a.5.5,0,0,0,.5.3H23v-.3c.1-.1.1-.2.1-.4v-.4Z" transform="translate(0 0)" style="fill:#5b5d5e"/><path d="M10.7,263v-8.6h1.2v7.4h2.5V263Z" transform="translate(0 0)" style="fill:#5b5d5e"/><path d="M15.1,256.4a2.9,2.9,0,0,1,.2-.9,1.5,1.5,0,0,1,.5-.6c.1-.2.4-.3.6-.4l.8-.2.7.2.7.4c.2.1.3.4.4.6a1.5,1.5,0,0,1,.2.9V261c0,.4,0,.7-.2.9a1.6,1.6,0,0,1-.4.7l-.7.4H16.4l-.6-.4a1.8,1.8,0,0,1-.5-.7,2,2,0,0,1-.2-.9Zm1.2,4.6a.6.6,0,0,0,.3.6.6.6,0,0,0,.6.3.5.5,0,0,0,.5-.3.6.6,0,0,0,.3-.6v-4.6a.6.6,0,0,0-.3-.6c-.1-.2-.3-.2-.5-.2s-.5,0-.6.2a.6.6,0,0,0-.3.6Z" transform="translate(0 0)" style="fill:#5b5d5e"/><path d="M20.2,256.4a2.9,2.9,0,0,1,.2-.9,1.5,1.5,0,0,1,.5-.6l.7-.4.7-.2.8.2.6.4a1.5,1.5,0,0,1,.5.6,2.9,2.9,0,0,1,.2.9V261a2,2,0,0,1-.2.9,1.8,1.8,0,0,1-.5.7l-.6.4H21.6l-.7-.4a1.8,1.8,0,0,1-.5-.7,2,2,0,0,1-.2-.9Zm1.3,4.6a.8.8,0,0,0,.2.6.8.8,0,0,0,1.2,0c.2-.1.2-.3.2-.6v-4.6c0-.3,0-.5-.2-.6a1,1,0,0,0-1.2,0,.8.8,0,0,0-.2.6Z" transform="translate(0 0)" style="fill:#5b5d5e"/><path d="M25.5,263v-8.6h2.7a1.8,1.8,0,0,1,.7.5,1.2,1.2,0,0,1,.4.8,3.7,3.7,0,0,1,.2,1.2c0,.4-.1.7-.1,1a1.3,1.3,0,0,1-.3.8,1.4,1.4,0,0,1-.7.6,1.6,1.6,0,0,1-1.1.3h-.6V263Zm1.2-7.4v2.9h1.2l.3-.3a4.3,4.3,0,0,0,.1-.5v-1.1a.7.7,0,0,0-.1-.5l-.3-.3H26.7Z" transform="translate(0 0)" style="fill:#5b5d5e"/><path d="M10.7,275v-8.6h3.7v1.2H11.9v2.5h2.2v1.2H11.9v2.5h2.5V275Z" transform="translate(0 0)" style="fill:#5b5d5e"/><path d="M15.1,275v-8.6h1.2l1.9,5.2h0v-5.2h1.2V275H18.3l-1.9-5.2h-.1V275Z" transform="translate(0 0)" style="fill:#5b5d5e"/><path d="M20.5,275v-8.6h1.9a2.1,2.1,0,0,1,1.6.6,2.5,2.5,0,0,1,.5,1.6v4.1a2.1,2.1,0,0,1-.6,1.7,2.1,2.1,0,0,1-1.6.6Zm1.3-7.4v6.3h.5a1,1,0,0,0,.8-.3,1.5,1.5,0,0,0,.2-.8v-4.2a1.9,1.9,0,0,0-.2-.8l-.8-.2Z" transform="translate(0 0)" style="fill:#5b5d5e"/><path d="M59.7,14.6V7.1H58.2V6h4.1V7.1H60.9v7.5Z" transform="translate(0 0)" style="fill:#5b5d5e"/><path d="M62.9,14.6V6h3.7V7.1H64.1V9.7h2.1v1.1H64.1v2.6h2.5v1.2Z" transform="translate(0 0)" style="fill:#5b5d5e"/><path d="M67.4,14.6V6h1.1l1.6,4.5h.1L71.7,6h1.2v8.6H71.7V9.3h0l-1.3,3.8h-.6L68.6,9.3h0v5.3Z" transform="translate(0 0)" style="fill:#5b5d5e"/><path d="M74.1,14.6V6h2.7a1.8,1.8,0,0,1,.7.5,2.2,2.2,0,0,1,.5.8c0,.3.1.7.1,1.2a3.1,3.1,0,0,1-.1,1,1.1,1.1,0,0,1-.3.7c-.1.3-.4.5-.6.7l-1.2.2h-.6v3.4Zm1.2-7.5v3h1.2l.3-.3a.9.9,0,0,0,.1-.5V8a.6.6,0,0,0-.1-.4l-.3-.4H75.3Z" transform="translate(0 0)" style="fill:#5b5d5e"/><path d="M78.9,8a2.9,2.9,0,0,1,.2-.9,1.8,1.8,0,0,1,.5-.7l.7-.4h1.4l.7.4a1.8,1.8,0,0,1,.5.7,2.9,2.9,0,0,1,.2.9v4.6a2.9,2.9,0,0,1-.2.9,1.5,1.5,0,0,1-.5.6l-.7.4-.7.2-.7-.2-.7-.4a1.5,1.5,0,0,1-.5-.6,2.9,2.9,0,0,1-.2-.9Zm1.3,4.6c0,.3,0,.5.2.6a1,1,0,0,0,1.2,0c.2-.1.2-.3.2-.6V8a.8.8,0,0,0-.2-.7L81,7.1l-.6.2a.8.8,0,0,0-.2.7Z" transform="translate(0 0)" style="fill:#5b5d5e"/><path d="M112.2,14.6V7.1h-1.4V6h4.1V7.1h-1.5v7.5Z" transform="translate(0 0)" style="fill:#5b5d5e"/><path d="M115.4,14.6V6h2c1.4,0,2.2.8,2.2,2.5a2.8,2.8,0,0,1-.3,1.3c-.1.4-.4.6-.8.9l1.3,3.9h-1.3l-1.1-3.7h-.8v3.7Zm1.2-7.5V9.8h1.3l.3-.2V7.9c0-.2-.1-.3-.1-.4a1,1,0,0,0-.9-.4Z" transform="translate(0 0)" style="fill:#5b5d5e"/><path d="M120,14.6,121.9,6H123l1.9,8.6h-1.3l-.3-1.9h-1.7l-.4,1.9Zm3-3-.6-3.1h0l-.6,3.1Z" transform="translate(0 0)" style="fill:#5b5d5e"/><path d="M125.4,14.6V6h1.2l1.9,5.2h0V6h1.2v8.6h-1.1l-1.9-5.2h0v5.2Z" transform="translate(0 0)" style="fill:#5b5d5e"/><path d="M134.8,8.5h-1.2V8.2a2.4,2.4,0,0,0-.2-.8c-.1-.2-.3-.3-.7-.3h-.4l-.2.3-.2.3v.9c0,.1.1.2.1.3l.2.2.4.2.9.4.7.3.4.5a1.4,1.4,0,0,1,.2.7v.8a3.1,3.1,0,0,1-.1,1,1.5,1.5,0,0,1-.3.8,2,2,0,0,1-.7.6l-1,.2-.8-.2-.7-.4a1.6,1.6,0,0,1-.4-.7,1.9,1.9,0,0,1-.2-.8v-.4h1.2v.3a1.4,1.4,0,0,0,.2.7l.7.2h.5l.3-.2c0-.1.1-.3.1-.4V11.6c0-.2-.1-.3-.1-.4l-.2-.2-.4-.2-.9-.3a2,2,0,0,1-1.1-.9,4.4,4.4,0,0,1-.2-1.3,3.1,3.1,0,0,1,.1-1,2.5,2.5,0,0,1,.4-.7l.6-.5,1-.2.8.2.7.4a1.7,1.7,0,0,1,.5,1.3Z" transform="translate(0 0)" style="fill:#5b5d5e"/><path d="M135.8,14.6V6h2.7a1.8,1.8,0,0,1,.7.5,1.2,1.2,0,0,1,.4.8,3.7,3.7,0,0,1,.2,1.2c0,.4-.1.7-.1,1a1.1,1.1,0,0,1-.3.7,2.3,2.3,0,0,1-.7.7l-1.1.2H137v3.4ZM137,7.1v3h1.2l.3-.3c0-.2.1-.3.1-.5V8c0-.1-.1-.3-.1-.4l-.3-.4H137Z" transform="translate(0 0)" style="fill:#5b5d5e"/><path d="M166,14.7V6.1h1.2v7.4h2.5v1.2Z" transform="translate(0 0)" style="fill:#5b5d5e"/><path d="M170.4,8.1a2.9,2.9,0,0,1,.2-.9,1.8,1.8,0,0,1,.5-.7l.6-.3.8-.2.7.2a1.5,1.5,0,0,1,.7.3l.5.7a2.8,2.8,0,0,1,.1.9v4.6a2.5,2.5,0,0,1-.1.9l-.5.7-.7.4h-1.5l-.6-.4a1.8,1.8,0,0,1-.5-.7,2.4,2.4,0,0,1-.2-.9Zm1.2,4.6a.6.6,0,0,0,.3.6.7.7,0,0,0,.6.3.9.9,0,0,0,.6-.3.8.8,0,0,0,.2-.6V8.1a.8.8,0,0,0-.2-.6.7.7,0,0,0-.6-.2c-.3,0-.4,0-.6.2a.6.6,0,0,0-.3.6Z" transform="translate(0 0)" style="fill:#5b5d5e"/><path d="M175.6,8.1a2.8,2.8,0,0,1,.1-.9l.5-.7a1.5,1.5,0,0,1,.7-.3l.7-.2.8.2.6.3a1.8,1.8,0,0,1,.5.7,2.9,2.9,0,0,1,.2.9v4.6a2.4,2.4,0,0,1-.2.9,1.8,1.8,0,0,1-.5.7l-.6.4h-1.5l-.7-.4-.5-.7a2.5,2.5,0,0,1-.1-.9Zm1.2,4.6a.8.8,0,0,0,.2.6.9.9,0,0,0,.6.3.7.7,0,0,0,.6-.3.6.6,0,0,0,.3-.6V8.1a.6.6,0,0,0-.3-.6c-.2-.2-.3-.2-.6-.2a.7.7,0,0,0-.6.2.8.8,0,0,0-.2.6Z" transform="translate(0 0)" style="fill:#5b5d5e"/><path d="M180.8,14.7V6.1h2.7a1.8,1.8,0,0,1,.7.5,2.2,2.2,0,0,1,.5.8c0,.3.1.7.1,1.2a3.1,3.1,0,0,1-.1,1,1.3,1.3,0,0,1-.3.8,1.7,1.7,0,0,1-.6.6,2.2,2.2,0,0,1-1.2.2H182v3.4ZM182,7.3v2.9h1.2l.3-.3a.7.7,0,0,0,.1-.5V8.2a.7.7,0,0,0-.1-.5q-.1-.3-.3-.3H182Z" transform="translate(0 0)" style="fill:#5b5d5e"/><path d="M189.7,8.6h-1.2V8.3a1.4,1.4,0,0,0-.2-.7.9.9,0,0,0-.7-.3h-.4l-.3.2c0,.1-.1.2-.1.4v.8a.4.4,0,0,0,.1.3.2.2,0,0,0,.2.2l.4.2.9.4.7.4.4.5a1.3,1.3,0,0,1,.1.6,2.5,2.5,0,0,1,.1.9,3.4,3.4,0,0,1-.1,1,3,3,0,0,1-.4.8,1.5,1.5,0,0,1-.6.5l-1,.2-.9-.2-.6-.4a1.8,1.8,0,0,1-.5-.7,1.9,1.9,0,0,1-.1-.8v-.4h1.2v.4a1.4,1.4,0,0,0,.2.6.8.8,0,0,0,.7.3h.5c.1-.1.2-.2.2-.3s.1-.2.1-.4a.9.9,0,0,0,.1-.5,1.1,1.1,0,0,0-.1-.6.4.4,0,0,0-.1-.3l-.2-.3h-.4l-.8-.4a1.7,1.7,0,0,1-1.1-.9,2.5,2.5,0,0,1-.3-1.3,2.9,2.9,0,0,1,.2-.9,1.2,1.2,0,0,1,.4-.8,1,1,0,0,1,.6-.5l.9-.2.9.2.6.4a2,2,0,0,1,.6,1.4Z" transform="translate(0 0)" style="fill:#5b5d5e"/><path d="M82.3,369.7v.5a1.4,1.4,0,0,1-.2.6,1,1,0,0,1-.4.5l-.6.4H79.5l-.7-.3-.4-.5a1.1,1.1,0,0,1-.2-.8v-4a1.3,1.3,0,0,1,.1-.6l.4-.5.7-.4h.8a2.5,2.5,0,0,1,1.5.5,1,1,0,0,1,.4.5,1.4,1.4,0,0,1,.2.7v.4H81v-.3a1.4,1.4,0,0,0-.2-.6.8.8,0,0,0-.6-.2.6.6,0,0,0-.6.3.8.8,0,0,0-.2.5v3.7a.8.8,0,0,0,.2.5l.6.2h.5c.1-.1.2-.2.2-.3s.1-.2.1-.3v-.4Z" transform="translate(0 0)" style="fill:#fff"/><path d="M83.3,371.8v-7.1h1.3v6.1h2.5v1Z" transform="translate(0 0)" style="fill:#fff"/><path d="M87.9,371.8v-7.1h1.3v3.2h0l1.9-3.2h1.3l-1.8,2.8,2.1,4.3H91.4l-1.5-3.2-.7,1v2.2Z" transform="translate(0 0)" style="fill:#fff"/><path d="M96.9,371.8v-6.1l-1.2.8v-1.1l1.2-.7h1.3v7.1Z" transform="translate(0 0)" style="fill:#fff"/><path d="M103.4,364.7l-1.4,2.9h1.1l.5.3a.4.4,0,0,1,.1.3c.1,0,.1.1.1.2a.9.9,0,0,0,.1.5v1.3a.4.4,0,0,0-.1.3c0,.2,0,.2-.1.3a.3.3,0,0,1-.1.2,2,2,0,0,1-.7.6H101c-.2-.2-.5-.3-.6-.6s-.1-.1-.2-.2-.1-.1-.1-.3v-1.8c0-.1.1-.2.1-.3s.1-.2.1-.3l1.7-3.5Zm-.8,4.3a.5.5,0,0,0-.2-.4h-.9a.5.5,0,0,0-.2.4v1.3a.5.5,0,0,0,.2.4h.9a.5.5,0,0,0,.2-.4Z" transform="translate(0 0)" style="fill:#fff"/><path d="M117.2,371.8v-7.1H121v.9h-2.6v2.1h2.2v1h-2.2v2.1H121v1Z" transform="translate(0 0)" style="fill:#fff"/><path d="M121.2,371.8,123,368l-1.7-3.3h1.3l1,2.1,1-2.1h1.3l-1.7,3.3,1.9,3.8h-1.4l-1.1-2.4-1.1,2.4Z" transform="translate(0 0)" style="fill:#fff"/><path d="M127.5,371.8v-6.2H126v-.9h4.2v.9h-1.4v6.2Z" transform="translate(0 0)" style="fill:#fff"/><path d="M137.2,369.7v.5a1.4,1.4,0,0,1-.2.6,1,1,0,0,1-.4.5l-.7.4h-1.5l-.7-.3-.5-.5a1.9,1.9,0,0,1-.2-.8v-4a1.4,1.4,0,0,1,.2-.6,1,1,0,0,1,.4-.5l.7-.4h.8a2.5,2.5,0,0,1,1.5.5,1,1,0,0,1,.4.5,1.4,1.4,0,0,1,.2.7v.4h-1.3v-.3a1.4,1.4,0,0,0-.2-.6l-.6-.2a.6.6,0,0,0-.6.3.8.8,0,0,0-.2.5v3.7a.8.8,0,0,0,.2.5l.6.2h.5c.1-.1.2-.2.2-.3s.1-.2.1-.3v-.4Z" transform="translate(0 0)" style="fill:#fff"/><path d="M138.2,371.8v-7.1h1.3v6.1H142v1Z" transform="translate(0 0)" style="fill:#fff"/><path d="M142.8,371.8v-7.1h1.3v3.2h0l1.9-3.2h1.3l-1.8,2.8,2.1,4.3h-1.4l-1.4-3.2-.7,1v2.2Z" transform="translate(0 0)" style="fill:#fff"/><path d="M151.8,371.8v-6.1l-1.3.8v-1.1l1.3-.7h1.3v7.1Z" transform="translate(0 0)" style="fill:#fff"/><path d="M158.3,364.7l-1.5,2.9H158l.5.3c0,.1.1.2.1.3s.1.1.1.2v.5a1.5,1.5,0,0,1,.1.7,1.3,1.3,0,0,1-.1.6v.3c0,.2-.1.2-.1.3a.3.3,0,0,1-.1.2,2,2,0,0,1-.7.6h-1.9c-.3-.2-.5-.3-.6-.6a.2.2,0,0,1-.2-.2c0-.1-.1-.1-.1-.3v-1.8a.4.4,0,0,1,.1-.3c0-.1.1-.2.1-.3l1.7-3.5Zm-.8,4.3a.5.5,0,0,0-.2-.4h-.9a.5.5,0,0,0-.2.4v1.3a.5.5,0,0,0,.2.4h.9a.5.5,0,0,0,.2-.4Z" transform="translate(0 0)" style="fill:#fff"/><rect x="223.5" y="286.5" width="677.9" height="84.37" rx="9.3" ry="9.3" style="fill:#6b6d6e"/><rect x="887.1" y="304.1" width="86.5" height="66.76" rx="9.3" ry="9.3" style="fill:#5f6566"/><rect x="565.8" y="11.3" width="50.3" height="40" rx="9.3" ry="9.3" style="fill:#6b6d6e"/><rect x="736.5" y="11.3" width="50.3" height="40" rx="9.3" ry="9.3" style="fill:#6b6d6e"/><rect x="396.7" y="11.3" width="50.3" height="40" rx="9.3" ry="9.3" style="fill:#6b6d6e"/><rect x="226.9" y="11.3" width="50.3" height="40" rx="9.3" ry="9.3" style="fill:#6b6d6e"/><path d="M51.4,25.8H198a9.3,9.3,0,0,1,9.3,9.3V64.5a9.3,9.3,0,0,1-9.3,9.3H42.1a0,0,0,0,1,0,0V35.2A9.3,9.3,0,0,1,51.4,25.8Z" style="fill:#6b6a6a"/><path d="M51.4,18.2H198a9.3,9.3,0,0,1,9.3,9.3V41.6a0,0,0,0,1,0,0H42.1a0,0,0,0,1,0,0V27.5A9.3,9.3,0,0,1,51.4,18.2Z" style="fill:#d6d4d4"/><path d="M52.4,19.7H197a8,8,0,0,1,8,8V41.3a0,0,0,0,1,0,0H44.4a0,0,0,0,1,0,0V27.7A8,8,0,0,1,52.4,19.7Z" style="fill:url(#44241c6c-588c-4cf9-8d1f-9e618d4399b7)"/><rect x="906.9" y="73.9" width="61.8" height="52.21" rx="5.1" ry="5.1" style="fill:#8f8e8e"/><path d="M906.9,110.6h61.8a0,0,0,0,1,0,0V121a5.1,5.1,0,0,1-5.1,5.1H912a5.1,5.1,0,0,1-5.1-5.1V110.6A0,0,0,0,1,906.9,110.6Z" style="fill:#edebeb"/><path d="M914.1,66.3h47.4a7.2,7.2,0,0,1,7.2,7.2V90.4a0,0,0,0,1,0,0H906.9a0,0,0,0,1,0,0V73.5A7.2,7.2,0,0,1,914.1,66.3Z" style="fill:#dedbdb"/><path d="M914,67.1h47.7a6.2,6.2,0,0,1,6.2,6.2V90.4a0,0,0,0,1,0,0H907.7a0,0,0,0,1,0,0V73.3A6.2,6.2,0,0,1,914,67.1Z" style="fill:url(#46031dd5-ce12-4974-83a0-945bac171702)"/><rect x="223.5" y="25.8" width="677.9" height="311.86" rx="9.3" ry="9.3" style="fill:#7d7d80"/><rect x="223.5" y="300.2" width="677.9" height="66.76" rx="9.3" ry="9.3" style="fill:#c4c3c0"/><rect x="562.4" y="11.3" width="48.7" height="40" rx="9.3" ry="9.3" style="fill:#7d7d80"/><rect x="733.1" y="11.3" width="48.7" height="40" rx="9.3" ry="9.3" style="fill:#7d7d80"/><rect x="393.3" y="11.3" width="48.7" height="40" rx="9.3" ry="9.3" style="fill:#7d7d80"/><rect x="223.5" y="11.3" width="48.7" height="40" rx="9.3" ry="9.3" style="fill:#7d7d80"/><rect x="878.7" y="300.2" width="94.9" height="66.76" rx="9.3" ry="9.3" style="fill:#c4c3c0"/><path d="M234.6,29.9l2.8-12.8H239l2.8,12.8H240l-.6-2.7h-2.5l-.5,2.7Zm4.5-4.4-.9-4.7h0l-.9,4.7Z" transform="translate(0 0)" style="fill:#fff"/><path d="M405,29.9V17.1h2.7a3.3,3.3,0,0,1,1.5.3l1,.7a2.4,2.4,0,0,1,.6,1.1,3.7,3.7,0,0,1,.2,1.2v.4c0,.4-.1.7-.1.9a1.6,1.6,0,0,1-.3.6,2,2,0,0,1-.9.9,2,2,0,0,1,.9.9,3.4,3.4,0,0,1,.4,1.6v.8a3.3,3.3,0,0,1-.9,2.5,3.3,3.3,0,0,1-2.6.9Zm1.8-11v3.5h.9a1.4,1.4,0,0,0,1.2-.5,2.3,2.3,0,0,0,.3-1.3,2.3,2.3,0,0,0-.3-1.3,1.7,1.7,0,0,0-1.3-.4Zm0,5.1v4.1h.8c.4,0,.7,0,.9-.2a1,1,0,0,0,.5-.4,1.4,1.4,0,0,0,.2-.7V25.1c-.1-.2-.1-.4-.2-.6l-.5-.4h-1.7Z" transform="translate(0 0)" style="fill:#fff"/><polyline points="210.6 311.4 210.6 281.8 174.1 281.8 174.1 265.3" style="fill:none;stroke:#c7c7c7;stroke-miterlimit:10;stroke-width:0.5px"/><line x1="62" y1="311.5" x2="62" y2="265.3" style="fill:none;stroke:#c7c7c7;stroke-miterlimit:10;stroke-width:0.5px"/><polyline points="116.2 311.4 116.2 302.3 62 302.3" style="fill:none;stroke:#c7c7c7;stroke-miterlimit:10;stroke-width:0.5px"/><line x1="137.5" y1="311.5" x2="137.5" y2="265.3" style="fill:none;stroke:#c7c7c7;stroke-miterlimit:10;stroke-width:0.5px"/><polyline points="165.9 311.4 165.9 302.3 116.2 302.3" style="fill:none;stroke:#c7c7c7;stroke-miterlimit:10;stroke-width:0.5px"/><polyline points="181.3 311.4 181.3 295.1 99.3 295.1 99.3 265.3" style="fill:none;stroke:#c7c7c7;stroke-miterlimit:10;stroke-width:0.5px"/><polyline points="196.4 311.4 196.4 287.8 139.8 287.8" style="fill:none;stroke:#c7c7c7;stroke-miterlimit:10;stroke-width:0.5px"/><circle cx="42.1" cy="102.2" r="2.3" style="fill:gray"/><circle cx="42.1" cy="129.4" r="2.3" style="fill:gray"/><circle cx="42.1" cy="156.6" r="2.3" style="fill:gray"/><circle cx="62" cy="302.3" r="2.3" style="fill:#c7c7c7"/><circle cx="116.2" cy="302.3" r="2.3" style="fill:#c7c7c7"/><circle cx="137.5" cy="287.8" r="2.3" style="fill:#c7c7c7"/><line x1="48.5" y1="311.5" x2="91.4" y2="311.5" style="fill:none;stroke:#c7c7c7;stroke-miterlimit:10;stroke-width:2px"/><line x1="107" y1="311.5" x2="125.5" y2="311.5" style="fill:none;stroke:#c7c7c7;stroke-miterlimit:10;stroke-width:2px"/><line x1="129.9" y1="311.5" x2="149.7" y2="311.5" style="fill:none;stroke:#c7c7c7;stroke-miterlimit:10;stroke-width:2px"/><line x1="161.2" y1="311.5" x2="170.6" y2="311.5" style="fill:none;stroke:#c7c7c7;stroke-miterlimit:10;stroke-width:2px"/><line x1="176.6" y1="311.5" x2="186.1" y2="311.5" style="fill:none;stroke:#c7c7c7;stroke-miterlimit:10;stroke-width:2px"/><line x1="191.7" y1="311.5" x2="201.1" y2="311.5" style="fill:none;stroke:#c7c7c7;stroke-miterlimit:10;stroke-width:2px"/><line x1="205.9" y1="311.5" x2="215.4" y2="311.5" style="fill:none;stroke:#c7c7c7;stroke-miterlimit:10;stroke-width:2px"/><path d="M902,317.7V307.6h1.4l2.2,6.1h0v-6.1h1.5v10.1h-1.4l-2.2-6.1h-.1v6.1Z" transform="translate(0 0)" style="fill:#757473"/><path d="M908.3,310a3.6,3.6,0,0,1,.2-1.1,1.6,1.6,0,0,1,.6-.8l.7-.5h1.8l.8.5.6.8a3.6,3.6,0,0,1,.2,1.1v5.3a3.1,3.1,0,0,1-.2,1.1,2.8,2.8,0,0,1-.6.8l-.8.5h-1.8l-.7-.5a1.2,1.2,0,0,1-.6-.8,3.1,3.1,0,0,1-.2-1.1Zm1.4,5.3c0,.4.1.7.3.8a1.1,1.1,0,0,0,.7.3.9.9,0,0,0,.7-.3c.2-.1.3-.4.3-.8V310a1,1,0,0,0-.3-.8.9.9,0,0,0-.7-.3,1.1,1.1,0,0,0-.7.3,1,1,0,0,0-.3.8Z" transform="translate(0 0)" style="fill:#757473"/><path d="M914.5,317.7V307.6h2.3c1.7,0,2.6,1,2.6,3a3.3,3.3,0,0,1-.3,1.5,2.4,2.4,0,0,1-1,1l1.6,4.6h-1.6l-1.3-4.3h-.9v4.3Zm1.4-8.8v3.2h1.5l.3-.3c.1-.1.1-.3.2-.5v-1.3c-.1-.2-.1-.4-.2-.6a1.3,1.3,0,0,0-1-.4Z" transform="translate(0 0)" style="fill:#757473"/><path d="M922.6,317.8l1.9-10.3h1.1l-1.9,10.3Z" transform="translate(0 0)" style="fill:#757473"/><path d="M929,317.7V307.6h2.2a2.4,2.4,0,0,1,1.9.7,2.7,2.7,0,0,1,.6,1.9V315a2.8,2.8,0,0,1-.7,2.1,2.7,2.7,0,0,1-1.9.6Zm1.5-8.8v7.5h.7c.4,0,.7-.1.8-.3a1.5,1.5,0,0,0,.3-1v-4.9a1.2,1.2,0,0,0-.3-.9.9.9,0,0,0-.8-.4Z" transform="translate(0 0)" style="fill:#00ba60"/><path d="M935,310a3.6,3.6,0,0,1,.2-1.1l.6-.8.8-.5h1.7l.8.5a1.6,1.6,0,0,1,.6.8,3.6,3.6,0,0,1,.2,1.1v5.3a3.1,3.1,0,0,1-.2,1.1,1.2,1.2,0,0,1-.6.8l-.8.5h-1.7l-.8-.5a2.8,2.8,0,0,1-.6-.8,3.1,3.1,0,0,1-.2-1.1Zm1.5,5.3c0,.4.1.7.3.8a.9.9,0,0,0,.7.3,1.1,1.1,0,0,0,.7-.3c.2-.1.3-.4.3-.8V310a1,1,0,0,0-.3-.8,1.1,1.1,0,0,0-.7-.3.9.9,0,0,0-.7.3,1,1,0,0,0-.3.8Z" transform="translate(0 0)" style="fill:#00ba60"/><path d="M942,317.7v-8.8h-1.7v-1.3h4.8v1.3h-1.7v8.8Z" transform="translate(0 0)" style="fill:#00ba60"/><path d="M947.8,317.8l1.9-10.3h1.1L949,317.8Z" transform="translate(0 0)" style="fill:#757473"/><path d="M955.2,317.7v-8.8h-1.7v-1.3h4.9v1.3h-1.7v8.8Z" transform="translate(0 0)" style="fill:#f08"/><path d="M959,317.7V307.6h2.3c1.8,0,2.6,1,2.6,3a3.3,3.3,0,0,1-.3,1.5,2.1,2.1,0,0,1-.9,1l1.5,4.6h-1.5l-1.4-4.3h-.8v4.3Zm1.5-8.8v3.2h1.4l.4-.3a4.3,4.3,0,0,0,.1-.5c0-.2.1-.4.1-.7s-.1-.4-.1-.6a1.4,1.4,0,0,0-.2-.6,1.2,1.2,0,0,0-1-.4Z" transform="translate(0 0)" style="fill:#f08"/><path d="M965.1,317.7V307.6h1.5v10.1Z" transform="translate(0 0)" style="fill:#f08"/><path d="M902,337.7V327.6h3.3a2.1,2.1,0,0,1,.8.6,4.1,4.1,0,0,1,.5.9,6.1,6.1,0,0,1,.2,1.5c0,.4-.1.8-.1,1.1a3.6,3.6,0,0,1-.4.9,1.6,1.6,0,0,1-.8.8,2.3,2.3,0,0,1-1.3.3h-.7v3.9Zm1.5-8.8v3.5h1.4l.3-.4c.1-.1.1-.3.2-.5V330a1.4,1.4,0,0,0-.2-.6l-.3-.3-.7-.2Z" transform="translate(0 0)" style="fill:#757473"/><path d="M906.7,337.7l2.2-10.1h1.2l2.3,10.1H911l-.5-2.1h-2l-.4,2.1Zm3.6-3.5-.8-3.7h0l-.7,3.7Z" transform="translate(0 0)" style="fill:#757473"/><path d="M917.8,327.6v7.9a2.8,2.8,0,0,1-.1.9l-.5.7-.8.6h-1.8a2.4,2.4,0,0,1-.8-.6,1.8,1.8,0,0,1-.5-.7,2.9,2.9,0,0,1-.2-.9v-7.9h1.5v7.7a1.5,1.5,0,0,0,.2.8.9.9,0,0,0,.7.3.7.7,0,0,0,.6-.3,1,1,0,0,0,.3-.8v-7.7Z" transform="translate(0 0)" style="fill:#757473"/><path d="M921.3,337.8l1.8-10.3h1.2l-1.9,10.3Z" transform="translate(0 0)" style="fill:#757473"/><path d="M927.6,337.7V327.6H929l2.2,6.1h.1v-6.1h1.4v10.1h-1.3l-2.3-6.1h0v6.1Z" transform="translate(0 0)" style="fill:#00ba60"/><path d="M934,330a2,2,0,0,1,.2-1.1,2.2,2.2,0,0,1,.5-.8l.8-.5h1.8l.8.5a2.2,2.2,0,0,1,.5.8,2,2,0,0,1,.2,1.1v5.3a1.8,1.8,0,0,1-.2,1.1,1.6,1.6,0,0,1-.5.8l-.8.5h-1.8l-.8-.5a1.6,1.6,0,0,1-.5-.8,1.8,1.8,0,0,1-.2-1.1Zm1.4,5.3c0,.4.1.7.3.8a1,1,0,0,0,1.4,0c.2-.1.3-.4.3-.8V330a1,1,0,0,0-.3-.8,1,1,0,0,0-1.4,0,1,1,0,0,0-.3.8Z" transform="translate(0 0)" style="fill:#00ba60"/><path d="M940.1,337.7V327.6h2.4c1.7,0,2.5,1,2.5,3a6.1,6.1,0,0,1-.2,1.5,2.4,2.4,0,0,1-1,1l1.6,4.6h-1.6l-1.3-4.3h-.9v4.3Zm1.5-8.8v3.2H943l.4-.3a.7.7,0,0,0,.1-.5,1.5,1.5,0,0,0,.1-.7,10998156482882.7,10998156482882.7,0,0,0-.2-1.2,1.6,1.6,0,0,0-1.1-.4Z" transform="translate(0 0)" style="fill:#00ba60"/><path d="M948.3,337.8l1.8-10.3h1.2l-1.9,10.3Z" transform="translate(0 0)" style="fill:#757473"/><path d="M954,337.7l2.3-10.1h1.2l2.3,10.1h-1.5l-.4-2.1h-2l-.4,2.1Zm3.6-3.5-.7-3.7h0l-.7,3.7Z" transform="translate(0 0)" style="fill:#f08"/><path d="M965.1,334.8v.7a2.8,2.8,0,0,1-.1.9l-.5.7-.8.5c-.2.2-.5.2-.9.2H962a2,2,0,0,1-.8-.4,1.8,1.8,0,0,1-.5-.7,2.1,2.1,0,0,1-.3-1.2v-5.6a2.9,2.9,0,0,1,.2-.9,2.6,2.6,0,0,1,1.2-1.2l1-.2a2.2,2.2,0,0,1,1.7.7l.5.7a3.4,3.4,0,0,1,.1,1v.6h-1.4V330a.9.9,0,0,0-.3-.7.7.7,0,0,0-.6-.4.7.7,0,0,0-.7.4,1.1,1.1,0,0,0-.2.8v5.2a1.9,1.9,0,0,0,.2.8c.1.2.3.3.7.3h.6c.1-.1.1-.2.2-.4a.7.7,0,0,0,.1-.5v-.5Z" transform="translate(0 0)" style="fill:#f08"/><path d="M971,334.8v.7a2.9,2.9,0,0,1-.2.9,1.8,1.8,0,0,1-.5.7l-.7.5a1.6,1.6,0,0,1-1,.2h-.8l-.8-.4a1.8,1.8,0,0,1-.5-.7,2.1,2.1,0,0,1-.3-1.2v-5.6a2.9,2.9,0,0,1,.2-.9,1.8,1.8,0,0,1,.5-.7l.8-.5.9-.2a2.1,2.1,0,0,1,1.7.7,1.8,1.8,0,0,1,.5.7,3.6,3.6,0,0,1,.2,1v.6h-1.5V330a1.4,1.4,0,0,0-.2-.7,1,1,0,0,0-.7-.4.7.7,0,0,0-.7.4,1.9,1.9,0,0,0-.2.8v5.2a1.9,1.9,0,0,0,.2.8.8.8,0,0,0,.7.3h.6a.5.5,0,0,0,.2-.4.7.7,0,0,0,.1-.5v-.5Z" transform="translate(0 0)" style="fill:#f08"/><path d="M902,357.5V347.3h1.5V356h2.9v1.5Z" transform="translate(0 0)" style="fill:#757473"/><path d="M907.3,357.5V347.3h4.4v1.4h-2.9v3h2.5v1.4h-2.5V356h2.9v1.5Z" transform="translate(0 0)" style="fill:#757473"/><path d="M912.5,349.7a4.3,4.3,0,0,1,.2-1.1l.6-.7.8-.5.9-.2.8.2.8.5a2,2,0,0,1,.6.7,4.3,4.3,0,0,1,.2,1.1v.5h-1.5v-.5a1.1,1.1,0,0,0-.3-.8l-.6-.2-.7.2a1.1,1.1,0,0,0-.3.8v5.4a1,1,0,0,0,.3.8l.7.2.6-.2a1,1,0,0,0,.3-.8v-1.9h-1.1v-1.3h2.6v3.2a3.6,3.6,0,0,1-.2,1.1,2.4,2.4,0,0,1-.6.8l-.8.4-.8.2-.9-.2-.8-.4-.6-.8a3.6,3.6,0,0,1-.2-1.1Z" transform="translate(0 0)" style="fill:#757473"/><path d="M918,357.5l2.3-10.2h1.2l2.3,10.2h-1.5l-.4-2.2h-2l-.4,2.2Zm3.6-3.6-.7-3.6h0l-.7,3.6Z" transform="translate(0 0)" style="fill:#757473"/><path d="M924.7,357.5v-8.8H923v-1.4h4.8v1.4h-1.7v8.8Z" transform="translate(0 0)" style="fill:#757473"/><path d="M928.2,349.7a4.3,4.3,0,0,1,.2-1.1,2,2,0,0,1,.6-.7l.8-.5.8-.2.9.2.8.5.6.7a4.3,4.3,0,0,1,.2,1.1v5.4a3.6,3.6,0,0,1-.2,1.1l-.6.8a2,2,0,0,1-.8.4l-.9.2-.8-.2-.8-.4a2.4,2.4,0,0,1-.6-.8,3.6,3.6,0,0,1-.2-1.1Zm1.5,5.4a1.5,1.5,0,0,0,.2.8l.7.2.7-.2a1,1,0,0,0,.3-.8v-5.4a1.1,1.1,0,0,0-.3-.8l-.7-.2-.7.2a1.9,1.9,0,0,0-.2.8Z" transform="translate(0 0)" style="fill:#757473"/><path d="M936.4,357.6l1.9-10.4h1.1l-1.8,10.4Z" transform="translate(0 0)" style="fill:#757473"/><path d="M947.6,350.3h-1.5v-.4a1.9,1.9,0,0,0-.2-.8.8.8,0,0,0-.8-.4h-.5l-.3.3c-.1.1-.1.3-.2.4v1c0,.1.1.3.1.4l.3.2.4.3,1.1.4a2.9,2.9,0,0,1,.8.4l.5.6a2.4,2.4,0,0,1,.2.8c0,.3.1.6.1,1a5,5,0,0,1-.2,1.2,1.3,1.3,0,0,1-.4.9,1.9,1.9,0,0,1-.8.7l-1.1.2-1-.2-.8-.5a2.2,2.2,0,0,1-.5-.8,1.5,1.5,0,0,1-.2-.9v-.6H944v.5a.9.9,0,0,0,.3.7c.1.2.4.3.8.3h.5c.2,0,.3-.2.4-.3a4.3,4.3,0,0,0,.1-.5V354a4.3,4.3,0,0,0-.1-.5l-.3-.2-.4-.2-1.1-.5a2,2,0,0,1-1.2-1,2.5,2.5,0,0,1-.4-1.6,4.3,4.3,0,0,1,.2-1.1,2.2,2.2,0,0,1,.5-.8,1.3,1.3,0,0,1,.7-.6,2,2,0,0,1,1.1-.3l1,.2.8.6a2.3,2.3,0,0,1,.7,1.5Z" transform="translate(0 0)" style="fill:#1c89ff"/><path d="M949.6,357.5v-8.8h-1.7v-1.4h4.9v1.4h-1.7v8.8Z" transform="translate(0 0)" style="fill:#1c89ff"/><path d="M952,357.5l2.2-10.2h1.2l2.3,10.2h-1.4l-.5-2.2h-2l-.4,2.2Zm3.6-3.6-.8-3.6h0l-.7,3.6Z" transform="translate(0 0)" style="fill:#1c89ff"/><path d="M963.1,354.6v.6a2.9,2.9,0,0,1-.2.9,2.2,2.2,0,0,1-.5.8l-.8.5-.9.2h-.8l-.8-.4a2.2,2.2,0,0,1-.5-.8,1.8,1.8,0,0,1-.3-1.1v-5.6a2.4,2.4,0,0,1,.2-.9,2.2,2.2,0,0,1,.5-.8l.7-.5,1-.2a2.4,2.4,0,0,1,1.7.7,2.2,2.2,0,0,1,.5.8,3,3,0,0,1,.2,1v.5h-1.5v-.4a1.9,1.9,0,0,0-.2-.8.9.9,0,0,0-.7-.3c-.4,0-.6.1-.7.3a2.4,2.4,0,0,0-.2.9v5.2a1.4,1.4,0,0,0,.2.7.8.8,0,0,0,.7.3h.3l.3-.2.2-.3a.7.7,0,0,0,.1-.5v-.5Z" transform="translate(0 0)" style="fill:#1c89ff"/><path d="M968.9,354.6v.6a2.9,2.9,0,0,1-.2.9,2.2,2.2,0,0,1-.5.8l-.7.5-.9.2h-.9l-.8-.4a2.2,2.2,0,0,1-.5-.8,1.8,1.8,0,0,1-.2-1.1v-5.6a2.5,2.5,0,0,1,.1-.9,2.2,2.2,0,0,1,.5-.8l.8-.5.9-.2a2.4,2.4,0,0,1,1.7.7,2.2,2.2,0,0,1,.5.8,3,3,0,0,1,.2,1v.5h-1.5v-.4a1.9,1.9,0,0,0-.2-.8.9.9,0,0,0-.7-.3.8.8,0,0,0-.7.3,2.4,2.4,0,0,0-.2.9v5.2a1.4,1.4,0,0,0,.2.7.8.8,0,0,0,.7.3h.3l.3-.2.2-.3a.7.7,0,0,0,.1-.5v-.5Z" transform="translate(0 0)" style="fill:#1c89ff"/><path d="M896.8,22.4h-4a4.5,4.5,0,0,1-4.4-4.5V10.4A4.4,4.4,0,0,1,892.8,6h2.5V7.1h-2.5a3.3,3.3,0,0,0-3.3,3.3v7.5a3.3,3.3,0,0,0,3.3,3.3h4Z" transform="translate(0 0)" style="fill:#f08"/><rect x="902.6" y="21" width="1.9" height="1.64" style="fill:#f08"/><path d="M902.3,23.2l-5.2-.2a.3.3,0,0,1-.3-.3V20.9l.3-.3,5.2-.2a.5.5,0,0,1,.3.3v2.2A.3.3,0,0,1,902.3,23.2Z" transform="translate(0 0)" style="fill:#f08"/><rect x="904.8" y="21" width="0.5" height="1.64" style="fill:#f08"/><polygon points="907.6 20.7 907.1 20.7 905.7 21 905.7 22.6 907.1 22.8 907.6 22.8 908 22.6 908 21 907.6 20.7" style="fill:#f08"/><path d="M901.3,18.4c-2.6,0-4.3-1.1-4.9-3.6l2.1-.4a2.5,2.5,0,0,0,2.8,1.9c1.1,0,2.4-.5,2.4-1.7s-6.9-.9-6.9-5.3c0-2.4,2.1-3.5,4.2-3.5a4.4,4.4,0,0,1,4.5,2.7l-1.9.9A2.5,2.5,0,0,0,901,7.9c-.8,0-2,.3-2,1.4s6.9.7,6.9,5.3C905.9,17.1,903.6,18.4,901.3,18.4Z" transform="translate(0 0)" style="fill:#f08"/><path d="M913.1,12.5a2.5,2.5,0,0,0-1.8-1c-1.6,0-2,1.2-2,2.4s.4,2.5,2,2.5a2.5,2.5,0,0,0,1.8-1l1.5,1.4a4.2,4.2,0,0,1-3.3,1.6c-2.7,0-4.1-2-4.1-4.5s1.4-4.5,4.1-4.5a4.3,4.3,0,0,1,3.3,1.7Z" transform="translate(0 0)" style="fill:#fff"/><path d="M919.3,18.4c-2.8,0-3.9-1.9-3.9-4.5s1.1-4.5,3.9-4.5,3.9,2,3.9,4.5S922.1,18.4,919.3,18.4Zm0-6.9c-1.5,0-1.7,1.2-1.7,2.4s.2,2.5,1.7,2.5,1.8-1.2,1.8-2.5S920.8,11.5,919.3,11.5Z" transform="translate(0 0)" style="fill:#fff"/><path d="M929.6,11.6l-1-.2a1.4,1.4,0,0,0-1.5,1.4v5.5H925V9.6h1.7v.5a2.5,2.5,0,0,1,1.8-.7,3.2,3.2,0,0,1,1.8.6Z" transform="translate(0 0)" style="fill:#fff"/><path d="M934.9,18.4c-2.8,0-3.9-1.9-3.9-4.5s1.1-4.5,3.9-4.5,3.9,2,3.9,4.5S937.7,18.4,934.9,18.4Zm0-6.9c-1.5,0-1.7,1.2-1.7,2.4s.2,2.5,1.7,2.5,1.7-1.2,1.7-2.5S936.4,11.5,934.9,11.5Z" transform="translate(0 0)" style="fill:#fff"/><path d="M947.8,9.6l-3.4,8.7h-1.7l-3.3-8.7h2.2l1.9,5.7,2-5.7Z" transform="translate(0 0)" style="fill:#fff"/><path d="M956.4,18.3h-2.1V13.4c0-1.1-.3-1.9-1.6-1.9a1.4,1.4,0,0,0-1.4,1.4v5.4h-2.1V9.6h1.7v.5a2.9,2.9,0,0,1,1.8-.7c2.6,0,3.6,1.6,3.6,4Z" transform="translate(0 0)" style="fill:#fff"/><path d="M959.6,8a1.2,1.2,0,0,1-1.2-1.2,1.2,1.2,0,0,1,1.2-1.3,1.3,1.3,0,0,1,1.3,1.3A1.2,1.2,0,0,1,959.6,8Zm1,10.3h-2V9.6h2Z" transform="translate(0 0)" style="fill:#fff"/><path d="M965,18.3h-2V6h2Zm5.3,0H968l-2.9-4.8,2.4-3.9h2.3l-2.6,3.9Z" transform="translate(0 0)" style="fill:#fff"/><path d="M824.4,10.1a4.8,4.8,0,0,0-4.8,4.8,4.7,4.7,0,0,0,4.8,4.8,4.8,4.8,0,0,0,4.8-4.8A4.9,4.9,0,0,0,824.4,10.1Zm0,7.5a2.7,2.7,0,1,1,2.6-2.7A2.7,2.7,0,0,1,824.4,17.6Z" transform="translate(0 0)" style="fill:#e3e3e3"/><path d="M844.5,10.1v.8a4.7,4.7,0,0,0-2.6-.8,4.8,4.8,0,0,0-4.8,4.8,4.8,4.8,0,0,0,7.4,4v.8h2.2V10.1Zm-2.6,7.5a2.7,2.7,0,1,1,2.6-2.7A2.7,2.7,0,0,1,841.9,17.6Z" transform="translate(0 0)" style="fill:#e3e3e3"/><path d="M816.8,13.8a4.9,4.9,0,0,0,1.6-3.7h-2a2.6,2.6,0,0,1-2.5,2.7h0V10.1h-2.2v9.6h2.2V14.9h0a2.7,2.7,0,0,1,2.6,2.7v2.1h2.2V17.6A4.9,4.9,0,0,0,816.8,13.8Z" transform="translate(0 0)" style="fill:#e3e3e3"/><path d="M837.2,11a4.5,4.5,0,0,0-4.6-.4v-.5h-2.2v9.6h2.2V13a2.6,2.6,0,0,1,3.6-.2A5.2,5.2,0,0,1,837.2,11Z" transform="translate(0 0)" style="fill:#e3e3e3"/><path d="M854.9,16.8a2.4,2.4,0,0,1-1.9.8,2.7,2.7,0,0,1-2.6-2.7V10.1h-2.2v4.8a4.8,4.8,0,0,0,4.8,4.8,4.4,4.4,0,0,0,3.4-1.4Z" transform="translate(0 0)" style="fill:#e3e3e3"/><polygon points="874.7 12.9 872.8 11 870.4 13.5 867.9 11 867.9 11 867.9 11 867.9 11 866.7 9.8 865.2 10.2 864.8 11.6 868.5 15.3 864.2 19.7 867.9 19.7 870.4 17.2 872.8 19.7 876.6 19.7 872.3 15.3 874.7 12.9" style="fill:#636363"/><path d="M862.3,7.4a4.9,4.9,0,0,0-4.8,4.8v7.5h2.7V16h2.1V13.3h-2.1V12.2a2.2,2.2,0,0,1,2.1-2.1,2.3,2.3,0,0,1,1.5.6l.5-1.4,1.4-.5h0A4.8,4.8,0,0,0,862.3,7.4Z" transform="translate(0 0)" style="fill:#636363"/><path d="M17.5,313v-8.5h1.2l1.6,4.5h0l1.5-4.5H23V313H21.8v-5.2h0l-1.2,3.7H20l-1.2-3.7h-.1V313Z" transform="translate(0 0)" style="fill:#767a80"/><path d="M24.1,306.5a2.9,2.9,0,0,1,.2-.9,1.8,1.8,0,0,1,.5-.7l.6-.4h1.5l.7.4a1.6,1.6,0,0,1,.4.7,1.5,1.5,0,0,1,.2.9V311c0,.4,0,.7-.2.9a1.6,1.6,0,0,1-.4.7l-.7.4H25.4l-.6-.4a1.8,1.8,0,0,1-.5-.7,2,2,0,0,1-.2-.9Zm1.2,4.5a.9.9,0,0,0,.3.7.8.8,0,0,0,.6.2l.5-.2a.9.9,0,0,0,.3-.7v-4.5a.9.9,0,0,0-.3-.7l-.5-.2a.8.8,0,0,0-.6.2.9.9,0,0,0-.3.7Z" transform="translate(0 0)" style="fill:#767a80"/><path d="M29.3,313v-8.5h1.8a2.1,2.1,0,0,1,1.6.6,2,2,0,0,1,.6,1.6v4a2.4,2.4,0,0,1-.6,1.8,2.9,2.9,0,0,1-1.7.5Zm1.2-7.4v6.3h.6a.8.8,0,0,0,.7-.3c.2-.2.2-.4.2-.8v-4.1a1.1,1.1,0,0,0-.2-.8.8.8,0,0,0-.7-.3Z" transform="translate(0 0)" style="fill:#767a80"/><path d="M34.4,313v-8.5h3.7v1.1H35.6v2.5h2.1v1.2H35.6v2.5h2.5V313Z" transform="translate(0 0)" style="fill:#767a80"/><line x1="42.1" y1="102.2" x2="207.3" y2="102.2" style="fill:none;stroke:gray;stroke-miterlimit:10;stroke-width:0.5px"/><line x1="42.1" y1="129.4" x2="207.3" y2="129.4" style="fill:none;stroke:gray;stroke-miterlimit:10;stroke-width:0.5px"/><line x1="42.1" y1="156.6" x2="207.3" y2="156.6" style="fill:none;stroke:gray;stroke-miterlimit:10;stroke-width:0.5px"/><line x1="42.1" y1="183.7" x2="174.1" y2="183.7" style="fill:none;stroke:#c7c7c7;stroke-miterlimit:10;stroke-width:0.5px"/><line x1="42.1" y1="210.9" x2="207.3" y2="210.9" style="fill:none;stroke:#c7c7c7;stroke-miterlimit:10;stroke-width:0.5px"/><line x1="42.1" y1="238.1" x2="174.1" y2="238.1" style="fill:none;stroke:#c7c7c7;stroke-miterlimit:10;stroke-width:0.5px"/><line x1="42.1" y1="265.3" x2="174.1" y2="265.3" style="fill:none;stroke:#c7c7c7;stroke-miterlimit:10;stroke-width:0.5px"/><path d="M910.7,300.3a9.4,9.4,0,0,1-9.4-9.4v9.4Z" transform="translate(0 0)" style="fill:#a1a09d"/><path d="M910.7,60.1a9.4,9.4,0,0,1-9.4-9.4v9.4Z" transform="translate(0 0)" style="fill:#a1a09d"/><line x1="99.3" y1="342.7" x2="99.3" y2="361.4" style="fill:none;stroke:#5c5c5c;stroke-miterlimit:10;stroke-width:0.5px"/><line x1="62" y1="342.7" x2="62" y2="361.4" style="fill:none;stroke:#5c5c5c;stroke-miterlimit:10;stroke-width:0.5px"/><line x1="137.5" y1="342.7" x2="137.5" y2="361.4" style="fill:none;stroke:#5c5c5c;stroke-miterlimit:10;stroke-width:0.5px"/><line x1="174.1" y1="342.7" x2="174.1" y2="361.4" style="fill:none;stroke:#5c5c5c;stroke-miterlimit:10;stroke-width:0.5px"/><path d="M929.2,230v-6.1l-1,.8v-1.1l1-.8h1.1V230Z" transform="translate(0 0)" style="fill:#fff"/><path d="M928,244.8v-.9l1.9-3.6a.6.6,0,0,0,.1-.4v-1c-.1-.1-.1-.2-.2-.2h-.6a.5.5,0,0,0-.2.4v.6h-1v-.6a1.3,1.3,0,0,1,.1-.6l.3-.5.5-.3h1.3a1,1,0,0,1,.5.4l.3.6c0,.2.1.4.1.7v.4c0,.1-.1.2-.1.4a.4.4,0,0,1-.1.3l-.2.4-1.5,2.9h1.9v1Z" transform="translate(0 0)" style="fill:#fff"/><path d="M929.8,259.7v-1.1h-2.1v-.9l1.5-5.2h1.1l-1.5,5.2h1v-2.1h1v2.1h.5v.9h-.5v1.1Z" transform="translate(0 0)" style="fill:#fff"/><path d="M928,270.3v-.5c0-.2,0-.3.1-.4v-.3c0-.1.1-.1.2-.2a1,1,0,0,1,.5-.4l.6-.2.7.2a1,1,0,0,1,.5.4l.2.2v.3a.8.8,0,0,0,.1.4v1c0,.2-.1.3-.1.4s-.1.2-.2.3-.1.2-.2.3.2.2.2.3l.2.3c0,.2.1.3.1.5v1.2a.8.8,0,0,0-.1.4.4.4,0,0,1-.1.3c0,.1-.1.1-.1.2s-.3.3-.5.5l-.8.2-.7-.2-.5-.5-.2-.2v-.3c-.1-.1-.1-.2-.1-.4v-1.2a.9.9,0,0,1,.1-.5.4.4,0,0,1,.1-.3l.3-.3-.3-.3a.4.4,0,0,1-.1-.3c-.1-.1-.1-.2-.1-.4Zm2-.4c0-.2,0-.3-.1-.4h-.7a.5.5,0,0,0-.2.4v1a.5.5,0,0,0,.2.4h.7c.1-.1.1-.2.1-.4Zm0,2.8a.6.6,0,0,0-.1-.4h-.7a.8.8,0,0,0-.2.4v1.4a.5.5,0,0,0,.2.4h.7c.1-.1.1-.2.1-.4Z" transform="translate(0 0)" style="fill:#fff"/><path d="M927.3,289.9v-6.1l-1,.7v-1.1l1-.7h1.1v7.2Z" transform="translate(0 0)" style="fill:#fff"/><path d="M932.6,282.7l-1.2,3h.5l.5.2c.1,0,.2.2.3.3s.1.1.1.2a.4.4,0,0,1,.1.3,1.1,1.1,0,0,0,.1.5v1.3a.4.4,0,0,0-.1.3.4.4,0,0,1-.1.3c0,.1,0,.2-.1.2s-.3.4-.5.6h-1.5a1.7,1.7,0,0,1-.6-.6.3.3,0,0,1-.1-.2c0-.1-.1-.2-.1-.3v-1.9c0-.1.1-.1.1-.2a.4.4,0,0,1,.1-.3l1.3-3.6Zm-.7,4.4c0-.2,0-.3-.1-.4a.5.5,0,0,0-.4-.2l-.3.2a.5.5,0,0,0-.2.4v1.3a.5.5,0,0,0,.2.4h.7c.1-.1.1-.2.1-.4Z" transform="translate(0 0)" style="fill:#fff"/><ellipse cx="944.5" cy="243.2" rx="2.7" ry="1.6" style="fill:none;stroke:#fff;stroke-miterlimit:10"/><ellipse cx="944.5" cy="227.6" rx="2.7" ry="1.6" style="fill:none;stroke:#fff;stroke-miterlimit:10"/><line x1="947.2" y1="243.2" x2="947.2" y2="235.7" style="fill:none;stroke:#fff;stroke-linecap:round;stroke-miterlimit:10"/><line x1="947.2" y1="259.2" x2="947.2" y2="251.6" style="fill:#96a3b5;stroke:#fff;stroke-linecap:round;stroke-miterlimit:10"/><ellipse cx="944.5" cy="259.2" rx="3.1" ry="1.8" style="fill:#fff"/><ellipse cx="944.5" cy="274.8" rx="3.1" ry="1.8" style="fill:#fff"/><ellipse cx="944.5" cy="289" rx="3.1" ry="1.8" style="fill:#fff"/><line x1="947.2" y1="274.8" x2="947.2" y2="267.3" style="fill:none;stroke:#fff;stroke-linecap:round;stroke-miterlimit:10"/><line x1="947.2" y1="267.3" x2="950" y2="269.5" style="fill:none;stroke:#fff;stroke-linecap:round;stroke-miterlimit:10"/><line x1="947.2" y1="281.5" x2="950" y2="283.7" style="fill:none;stroke:#fff;stroke-linecap:round;stroke-miterlimit:10"/><line x1="947.2" y1="283.6" x2="950" y2="285.8" style="fill:none;stroke:#fff;stroke-linecap:round;stroke-miterlimit:10"/><line x1="947.2" y1="289" x2="947.2" y2="281.5" style="fill:none;stroke:#fff;stroke-linecap:round;stroke-miterlimit:10"/><line x1="97.9" y1="19.7" x2="97.9" y2="41.3" style="fill:none;stroke:#242424;stroke-miterlimit:10"/><line x1="937.8" y1="67.8" x2="937.8" y2="90.4" style="fill:none;stroke:#242424;stroke-miterlimit:10"/><line x1="151.5" y1="19.7" x2="151.5" y2="41.3" style="fill:none;stroke:#242424;stroke-miterlimit:10"/><line x1="97.9" y1="47" x2="97.9" y2="68.6" style="fill:none;stroke:#858383;stroke-miterlimit:10"/><line x1="151.5" y1="47" x2="151.5" y2="68.6" style="fill:none;stroke:#858383;stroke-miterlimit:10"/><line x1="937.8" y1="94.4" x2="937.8" y2="108.4" style="fill:none;stroke:#b5b3b3;stroke-miterlimit:10"/><circle cx="124.7" cy="57.8" r="14.7" style="fill:#2b2b2b"/><path d="M118.1,69.4l6.7-11.6h0l6.6,11.6a13.4,13.4,0,1,0-13.3,0Z" transform="translate(0 0)" style="fill:#f08"/><line x1="124.7" y1="43" x2="124.7" y2="57.8" style="fill:none;stroke:#fff;stroke-miterlimit:10;stroke-width:2px"/><circle cx="70.8" cy="57.8" r="14.7" style="fill:#2b2b2b"/><path d="M64.1,69.4l6.7-11.6h0l6.7,11.6a13.4,13.4,0,1,0-13.4,0Z" transform="translate(0 0)" style="fill:#f08"/><line x1="62" y1="45.9" x2="70.8" y2="57.8" style="fill:none;stroke:#fff;stroke-miterlimit:10;stroke-width:2px"/><circle cx="178.8" cy="57.8" r="14.7" style="fill:#2b2b2b"/><path d="M172.1,69.4l6.7-11.6h0l6.7,11.6a13.4,13.4,0,1,0-13.4,0Z" transform="translate(0 0)" style="fill:#f08"/><line x1="170.8" y1="70.5" x2="178.8" y2="57.8" style="fill:none;stroke:#fff;stroke-miterlimit:10;stroke-width:2px"/><path d="M70.8,57.8" transform="translate(0 0)" style="fill:none;stroke:#fff;stroke-miterlimit:10;stroke-width:2px"/><path d="M63.9,48.6" transform="translate(0 0)" style="fill:none;stroke:#fff;stroke-miterlimit:10;stroke-width:2px"/><path d="M172.4,68.8" transform="translate(0 0)" style="fill:none;stroke:#fff;stroke-miterlimit:10;stroke-width:2px"/><path d="M178.8,58.7" transform="translate(0 0)" style="fill:none;stroke:#fff;stroke-miterlimit:10;stroke-width:2px"/><line x1="62" y1="265.3" x2="62" y2="169" style="fill:none;stroke:#c7c7c7;stroke-miterlimit:10;stroke-width:3px"/><line x1="99.3" y1="265.3" x2="99.3" y2="169" style="fill:none;stroke:#c7c7c7;stroke-miterlimit:10;stroke-width:3px"/><line x1="137.5" y1="265.3" x2="137.5" y2="169" style="fill:none;stroke:#c7c7c7;stroke-miterlimit:10;stroke-width:3px"/><line x1="174.1" y1="265.3" x2="174.1" y2="169" style="fill:none;stroke:#c7c7c7;stroke-miterlimit:10;stroke-width:3px"/><line x1="62" y1="102.2" x2="62" y2="169" style="fill:none;stroke:gray;stroke-miterlimit:10;stroke-width:3px"/><line x1="99.3" y1="102.2" x2="99.3" y2="169" style="fill:none;stroke:gray;stroke-miterlimit:10;stroke-width:3px"/><line x1="137.5" y1="102.2" x2="137.5" y2="169" style="fill:none;stroke:gray;stroke-miterlimit:10;stroke-width:3px"/><line x1="174.1" y1="102.2" x2="174.1" y2="169" style="fill:none;stroke:gray;stroke-miterlimit:10;stroke-width:3px"/><circle cx="207.3" cy="174.4" r="3.6" style="fill:#6c6c6e"/><line x1="207.3" y1="174.4" x2="207.3" y2="102.2" style="fill:none;stroke:gray;stroke-miterlimit:10"/><circle cx="207.3" cy="227.2" r="3.6" style="fill:#535357"/><line x1="207.3" y1="227.2" x2="207.3" y2="210.9" style="fill:none;stroke:gray;stroke-miterlimit:10"/><circle cx="207.3" cy="227.2" r="2.3" style="fill:#cfcfcf"/><path d="M580.2,26.3v.8a2,2,0,0,1-.3,1.1,2.1,2.1,0,0,1-.6,1l-.9.6a2.7,2.7,0,0,1-1.2.3l-1-.2a3.1,3.1,0,0,1-1-.5,2.2,2.2,0,0,1-.7-.9,3.3,3.3,0,0,1-.3-1.5V20a5,5,0,0,1,.2-1.2,3.5,3.5,0,0,1,.6-.9l1-.7,1.2-.2a2.6,2.6,0,0,1,2.1.9,1.8,1.8,0,0,1,.6.9,2.8,2.8,0,0,1,.3,1.3v.7h-1.9v-.6a1.2,1.2,0,0,0-.3-.9.9.9,0,0,0-.8-.4c-.5,0-.8.1-.9.4a1.8,1.8,0,0,0-.3,1.1v6.5a1.2,1.2,0,0,0,.3.9c.2.3.4.4.9.4h.4l.3-.3.3-.3a1.5,1.5,0,0,0,.1-.7v-.6Z" transform="translate(0 0)" style="fill:#fff"/><path d="M744.9,29.9V17.1h2.7a3,3,0,0,1,2.4.9,3.2,3.2,0,0,1,.8,2.4v6a4.1,4.1,0,0,1-.8,2.7,3.5,3.5,0,0,1-2.6.8Zm1.8-11v9.3h.9a1.4,1.4,0,0,0,1.1-.4,1.7,1.7,0,0,0,.3-1.2V20.4a1.6,1.6,0,0,0-.3-1.1,1.2,1.2,0,0,0-1.1-.4Z" transform="translate(0 0)" style="fill:#fff"/><line x1="905.1" y1="219.2" x2="969" y2="219.2" style="fill:none;stroke:#82817f;stroke-miterlimit:10"/><line x1="905.1" y1="234.1" x2="969" y2="234.1" style="fill:none;stroke:#82817f;stroke-miterlimit:10"/><line x1="905.1" y1="249" x2="969" y2="249" style="fill:none;stroke:#82817f;stroke-miterlimit:10"/><line x1="905.1" y1="263.8" x2="969" y2="263.8" style="fill:none;stroke:#82817f;stroke-miterlimit:10"/><line x1="905.1" y1="278.7" x2="969" y2="278.7" style="fill:none;stroke:#82817f;stroke-miterlimit:10"/><line x1="905.1" y1="293.6" x2="969" y2="293.6" style="fill:none;stroke:#82817f;stroke-miterlimit:10"/><path d="M918.3,98.5h-1.2v-.2a1.9,1.9,0,0,0-.2-.8.9.9,0,0,0-.7-.3h-.4l-.3.3c0,.1-.1.2-.1.3v.4c0,.2.1.3.1.5a.4.4,0,0,0,.1.3l.2.2.3.2,1,.4.7.3.4.5c0,.2.1.4.1.7a1.9,1.9,0,0,1,.1.8c0,.4-.1.7-.1,1a2,2,0,0,1-.4.8,1.5,1.5,0,0,1-.6.5,1.6,1.6,0,0,1-1,.2h-.9a4.3,4.3,0,0,1-1.1-1.1,1.9,1.9,0,0,1-.1-.8v-.5h1.2v.4a.8.8,0,0,0,.2.6c.1.2.3.3.7.3h.4c.2,0,.3-.1.3-.2a.8.8,0,0,0,.1-.4c0-.2.1-.4.1-.6a4.3,4.3,0,0,0-.1-.5c0-.2,0-.3-.1-.4l-.2-.2-.4-.2-.8-.3a2.1,2.1,0,0,1-1.1-.9,2.9,2.9,0,0,1-.3-1.4c0-.3.1-.6.1-.9a4.3,4.3,0,0,1,.4-.7,1.8,1.8,0,0,1,.7-.5,2.1,2.1,0,0,1,1.8,0l.6.4a1.8,1.8,0,0,1,.6,1.3Z" transform="translate(0 0)" style="fill:#fff"/><path d="M920,104.7V97.2h-1.4V96.1h4.1v1.1h-1.5v7.5Z" transform="translate(0 0)" style="fill:#fff"/><path d="M923.2,104.7V96.1h3.7v1.1h-2.4v2.5h2.1v1.2h-2.1v2.5h2.4v1.3Z" transform="translate(0 0)" style="fill:#fff"/><path d="M927.7,104.7V96.1h2.7a1.2,1.2,0,0,1,.7.5,1.4,1.4,0,0,1,.5.8,4.1,4.1,0,0,1,.1,1.2,3.1,3.1,0,0,1-.1,1,1.1,1.1,0,0,1-.3.7,1.3,1.3,0,0,1-.6.7l-1.1.2h-.7v3.4Zm1.2-7.5v2.9h1.2q.1,0,.3-.3c.1-.1.1-.2.1-.4V98.1a.9.9,0,0,0-.1-.5l-.3-.3h-1.2Z" transform="translate(0 0)" style="fill:#fff"/><path d="M944.2,104.7V96.1h1.2l1.9,5.1h0V96.1h1.2v8.6h-1.2l-1.8-5.2h-.1v5.2Z" transform="translate(0 0)" style="fill:#fff"/><path d="M949.5,98.1a2,2,0,0,1,.2-.9l.5-.7.7-.4h1.5l.6.4a1.8,1.8,0,0,1,.5.7,2,2,0,0,1,.2.9v4.5a3,3,0,0,1-.2,1l-.5.6-.6.4h-1.5l-.7-.4-.5-.6a3,3,0,0,1-.2-1Zm1.3,4.5a1.2,1.2,0,0,0,.2.7l.6.2.6-.2a.8.8,0,0,0,.3-.7V98.1a.9.9,0,0,0-.3-.7l-.6-.2-.6.2a1.4,1.4,0,0,0-.2.7Z" transform="translate(0 0)" style="fill:#fff"/><path d="M955.4,104.7V97.2H954V96.1h4.1v1.1h-1.4v7.5Z" transform="translate(0 0)" style="fill:#fff"/><path d="M958.6,104.7V96.1h3.7v1.1h-2.4v2.5H962v1.2h-2.1v2.5h2.4v1.3Z" transform="translate(0 0)" style="fill:#fff"/><path d="M921.2,122.8v-8.6h3.7v1.2h-2.4v2.5h2.1v1.2h-2.1v2.5h2.4v1.2Z" transform="translate(0 0)" style="fill:#999898"/><path d="M925.7,122.8v-8.6h1.8a2,2,0,0,1,1.6.6,2.1,2.1,0,0,1,.6,1.6v4.1a2.4,2.4,0,0,1-.6,1.8,2.9,2.9,0,0,1-1.7.5Zm1.2-7.4v6.3h.6a.8.8,0,0,0,.7-.3,1,1,0,0,0,.3-.8v-4.2a1.2,1.2,0,0,0-.2-.7,1,1,0,0,0-.8-.3Z" transform="translate(0 0)" style="fill:#999898"/><path d="M930.9,122.8v-8.6h1.2v8.6Z" transform="translate(0 0)" style="fill:#999898"/><path d="M934.1,122.8v-7.4h-1.4v-1.2h4.1v1.2h-1.4v7.4Z" transform="translate(0 0)" style="fill:#999898"/><path d="M939.6,122.8v-8.6h1.3v8.6Z" transform="translate(0 0)" style="fill:#999898"/><path d="M942,122.8v-8.6h1.2l1.8,5.2h.1v-5.2h1.2v8.6h-1.2l-1.8-5.1h-.1v5.1Z" transform="translate(0 0)" style="fill:#999898"/><path d="M947.4,122.8v-8.6h3.7v1.2h-2.4V118h2.1v1.2h-2.1v3.6Z" transform="translate(0 0)" style="fill:#999898"/><path d="M951.8,116.3a3,3,0,0,1,.2-1,1.5,1.5,0,0,1,.5-.6l.6-.4h1.5l.7.4a1.5,1.5,0,0,1,.5.6,3,3,0,0,1,.2,1v4.5a2,2,0,0,1-.2.9,1.8,1.8,0,0,1-.5.7l-.7.4h-1.5l-.6-.4a1.8,1.8,0,0,1-.5-.7,2,2,0,0,1-.2-.9Zm1.3,4.5a.8.8,0,0,0,.2.7l.6.2.6-.2a1.4,1.4,0,0,0,.2-.7v-4.5a1.2,1.2,0,0,0-.2-.7l-.6-.2-.6.2c-.2.1-.2.4-.2.7Z" transform="translate(0 0)" style="fill:#999898"/><rect x="198.2" y="201.8" width="18.2" height="18.17" rx="3.9" ry="3.9" style="fill:#838385"/><path d="M238.7,47.5V39.7l-1.3,1V39.3l1.3-1h1.4v9.2Z" transform="translate(0 0)" style="fill:#fff"/><path d="M257,47.5V46.3l2.4-4.5a1.4,1.4,0,0,0,.2-.6c0-.2.1-.4.1-.6v-.4a.4.4,0,0,1-.1-.3l-.2-.3H259l-.5.2a.7.7,0,0,0-.1.5V41H257v-.8a2.4,2.4,0,0,1,.2-.8,2.1,2.1,0,0,1,.4-.6l.6-.4.8-.2.9.2a1,1,0,0,1,.6.5,2,2,0,0,1,.4.8c0,.2.1.5.1.8v.6c0,.2-.1.3-.1.4s-.1.3-.1.5l-.3.5-1.9,3.7H261v1.3Z" transform="translate(0 0)" style="fill:#fff"/><path d="M278.5,42.2l.8-.2c.2,0,.2-.3.2-.6V40.2a.7.7,0,0,0-.1-.5l-.5-.2a.5.5,0,0,0-.5.3.5.5,0,0,0-.2.4v.7h-1.3v-.7a1.9,1.9,0,0,1,.2-.8l.4-.6.6-.4.8-.2.9.2.6.5c0,.1.1.2.2.3s.1.2.1.3a4.4,4.4,0,0,1,.2,1.3,1.9,1.9,0,0,1-.1.8.7.7,0,0,1-.1.5c0,.1-.1.3-.2.3l-.5.4.5.3.3.4v.6a1.9,1.9,0,0,1,.1.8,1.5,1.5,0,0,1-.1.7v.5c0,.2-.1.3-.1.4l-.2.3-.6.6-1,.2h-.7l-.6-.3-.5-.6a3,3,0,0,1-.2-1v-.7h1.3v.7a.8.8,0,0,0,.2.5l.5.2.5-.2a.7.7,0,0,0,.1-.5V44.2c0-.3,0-.6-.2-.7h-.8Z" transform="translate(0 0)" style="fill:#fff"/><path d="M299.1,47.5V46.2h-2.6V44.9l1.9-6.6h1.4l-2,6.6h1.3V42.3h1.3v2.6h.7v1.3h-.7v1.3Z" transform="translate(0 0)" style="fill:#fff"/><path d="M320.6,38.3v1.2H318V42l.5-.3h.6a1.5,1.5,0,0,1,1.1.4,1.6,1.6,0,0,1,.4,1.2v2.4a1.5,1.5,0,0,1-.2.9,2.1,2.1,0,0,1-.4.6l-.6.4h-1.5a.9.9,0,0,1-.6-.4l-.5-.6a2.8,2.8,0,0,1-.1-.9v-.4H318v.4c0,.2,0,.4.2.5l.5.2.4-.2a.8.8,0,0,0,.2-.5V43.4a.8.8,0,0,0-.2-.4.4.4,0,0,0-.4-.2h-.3c-.1.1-.2.1-.2.2a.1.1,0,0,0-.1.1v.2h-1.2v-5Z" transform="translate(0 0)" style="fill:#fff"/><path d="M340,38.3l-1.5,3.9h.6a.7.7,0,0,1,.6.2,1,1,0,0,1,.5.4,2060421367433.6,2060421367433.6,0,0,1,.2.6,1.3,1.3,0,0,1,.1.6v1.7a.9.9,0,0,1-.1.5.4.4,0,0,1-.1.3c0,.1-.1.2-.1.3a2.3,2.3,0,0,1-.7.7l-1,.2-1-.2a2.3,2.3,0,0,1-.7-.7c0-.1-.1-.2-.1-.3a.4.4,0,0,1-.1-.3.9.9,0,0,0-.1-.5V44.1a.9.9,0,0,0,.1-.5.4.4,0,0,1,.1-.3.8.8,0,0,1,.1-.4l1.7-4.6Zm-.8,5.6c0-.2-.1-.3-.2-.5h-.9a.6.6,0,0,0-.2.5v1.7c0,.2,0,.4.2.5l.4.2.5-.2a.8.8,0,0,0,.2-.5Z" transform="translate(0 0)" style="fill:#fff"/><path d="M356.7,47.5l2.3-8h-1.4v1.1h-1.2V38.3h4v1.3l-2.3,7.9Z" transform="translate(0 0)" style="fill:#fff"/><path d="M376.3,40.7v-.6a4.3,4.3,0,0,1,.1-.5c0-.1.1-.2.2-.3a.5.5,0,0,1,.2-.4,1.5,1.5,0,0,1,.6-.5l.9-.2.8.2a1.8,1.8,0,0,1,.7.5c0,.1.1.2.2.4s.1.2.1.3a.7.7,0,0,1,.1.5v1.3a.7.7,0,0,1-.1.5.5.5,0,0,1-.2.4c0,.1-.2.3-.3.4s.3.2.3.3.2.3.2.5.1.3.1.6v2.1l-.2.3c0,.1-.1.2-.1.3l-.7.6-.9.2-1-.2-.7-.6c0-.1-.1-.2-.1-.3a.4.4,0,0,1-.1-.3.9.9,0,0,1-.1-.5V44.1c0-.3,0-.5.1-.6s.1-.3.2-.5l.3-.3-.3-.4a.5.5,0,0,1-.2-.4.7.7,0,0,1-.1-.5Zm2.6-.5c0-.2-.1-.3-.2-.5l-.4-.2-.5.2c-.1.2-.2.3-.2.5v1.3a.8.8,0,0,0,.2.5l.5.2.4-.2a.8.8,0,0,0,.2-.5Zm0,3.6a.5.5,0,0,0-.2-.4.4.4,0,0,0-.4-.2c-.2,0-.4,0-.5.2a.5.5,0,0,0-.2.4v1.8a.8.8,0,0,0,.2.5l.5.2.4-.2a.8.8,0,0,0,.2-.5Z" transform="translate(0 0)" style="fill:#fff"/><path d="M407.7,47.5V39.7l-1.4,1V39.3l1.4-1H409v9.2Z" transform="translate(0 0)" style="fill:#fff"/><path d="M426,47.5V46.3l2.4-4.5a1.4,1.4,0,0,0,.2-.6v-1a.4.4,0,0,0-.1-.3c0-.1-.1-.2-.2-.3H428l-.5.2a.8.8,0,0,0-.2.5V41H426v-.8a2.2,2.2,0,0,1,.1-.8l.5-.6a.9.9,0,0,1,.6-.4l.8-.2.9.2.6.5.3.8a1.9,1.9,0,0,1,.1.8v1l-.2.5a1.7,1.7,0,0,1-.2.5l-2,3.7h2.4v1.3Z" transform="translate(0 0)" style="fill:#fff"/><path d="M447.4,42.2l.9-.2c.1,0,.2-.3.2-.6V40.2a.8.8,0,0,0-.2-.5l-.5-.2a.5.5,0,0,0-.5.3c-.1.1-.1.2-.1.4v.7h-1.3v-.7a1.9,1.9,0,0,1,.1-.8l.4-.6.7-.4.8-.2.9.2.5.5c.1.1.2.2.2.3l.2.3a4.9,4.9,0,0,1,.1,1.3v.8a4.3,4.3,0,0,1-.1.5c-.1.1-.2.3-.3.3l-.4.4.5.3c.1.1.1.3.2.4a1.3,1.3,0,0,1,.1.6v1.5a.7.7,0,0,1-.1.5c0,.2,0,.3-.1.4s-.1.2-.1.3l-.7.6-1,.2h-.6l-.7-.3-.5-.6a3.1,3.1,0,0,1-.1-1v-.7h1.3v.7c0,.2,0,.4.2.5l.4.2.5-.2a.8.8,0,0,0,.2-.5V44.2a1.2,1.2,0,0,0-.2-.7h-.9Z" transform="translate(0 0)" style="fill:#fff"/><path d="M468,47.5V46.2h-2.6V44.9l1.9-6.6h1.4l-2,6.6H468V42.3h1.4v2.6h.6v1.3h-.6v1.3Z" transform="translate(0 0)" style="fill:#fff"/><path d="M489.6,38.3v1.2h-2.7V42l.5-.3h.6a1.2,1.2,0,0,1,1.1.4,1.7,1.7,0,0,1,.5,1.2v2.4a2.9,2.9,0,0,1-.2.9l-.4.6-.7.4h-1.5l-.6-.4a2.1,2.1,0,0,1-.4-.6,2.9,2.9,0,0,1-.2-.9v-.4h1.3v.4a.8.8,0,0,0,.2.5l.5.2.5-.2a.7.7,0,0,0,.1-.5V43.4a.6.6,0,0,0-.1-.4.6.6,0,0,0-.5-.2h-.3l-.2.2H487a.3.3,0,0,1-.1.2h-1.1v-5Z" transform="translate(0 0)" style="fill:#fff"/><path d="M509,38.3l-1.6,3.9h.6a.8.8,0,0,1,.7.2l.4.4c.1.1.2.2.2.3s.1.2.1.3v2.8c0,.1-.1.2-.1.3l-.2.3a1.6,1.6,0,0,1-.7.7l-.9.2-1-.2a2.3,2.3,0,0,1-.7-.7l-.2-.3a.4.4,0,0,0-.1-.3V43.6c0-.1.1-.2.1-.3s.1-.2.1-.4l1.8-4.6Zm-.9,5.6c0-.2-.1-.3-.2-.5H507c-.1.2-.2.3-.2.5v1.7a.8.8,0,0,0,.2.5l.5.2.4-.2a.8.8,0,0,0,.2-.5Z" transform="translate(0 0)" style="fill:#fff"/><path d="M525.7,47.5l2.3-8h-1.5v1.1h-1.1V38.3h3.9v1.3l-2.2,7.9Z" transform="translate(0 0)" style="fill:#fff"/><path d="M545.2,40.7c0-.2,0-.5.1-.6v-.5l.2-.3.2-.4a1.8,1.8,0,0,1,.7-.5l.8-.2.9.2.6.5a.5.5,0,0,1,.2.4l.2.3a4.3,4.3,0,0,1,.1.5v1.3a4.3,4.3,0,0,1-.1.5c-.1.2-.1.3-.2.4s-.2.3-.4.4l.4.3.2.5a3.5,3.5,0,0,1,.1.6v1.6c0,.2-.1.3-.1.5s-.1.2-.1.3l-.2.3a1.7,1.7,0,0,1-.6.6l-1,.2-1-.2-.6-.6-.2-.3c0-.1-.1-.2-.1-.3v-.5a1.7,1.7,0,0,1-.1-.7v-.9a1.8,1.8,0,0,0,.1-.6l.2-.5.4-.3-.4-.4c-.1-.1-.1-.2-.2-.4a1.1,1.1,0,0,0-.1-.5Zm2.7-.5c0-.2-.1-.3-.2-.5l-.5-.2a.5.5,0,0,0-.4.2.6.6,0,0,0-.2.5v1.3c0,.2,0,.4.2.5a.5.5,0,0,0,.4.2l.5-.2a.8.8,0,0,0,.2-.5Zm0,3.6a.5.5,0,0,0-.2-.4.6.6,0,0,0-.5-.2c-.2,0-.3,0-.4.2s-.2.2-.2.4v1.8c0,.2,0,.4.2.5l.4.2.5-.2a.8.8,0,0,0,.2-.5Z" transform="translate(0 0)" style="fill:#fff"/><path d="M578.3,47.5V39.7l-1.3,1V39.3l1.3-1h1.3v9.2Z" transform="translate(0 0)" style="fill:#fff"/><path d="M596.6,47.5V46.3l2.4-4.5a1.4,1.4,0,0,0,.2-.6V39.9c-.1-.1-.2-.2-.2-.3h-.4l-.5.2a.8.8,0,0,0-.2.5V41h-1.3v-.8a2.4,2.4,0,0,1,.2-.8l.4-.6.6-.4.8-.2.9.2.6.5a1.1,1.1,0,0,1,.3.8,1.9,1.9,0,0,1,.2.8c0,.3,0,.5-.1.6v.4c0,.2-.1.3-.1.5l-.3.5-1.9,3.7h2.4v1.3Z" transform="translate(0 0)" style="fill:#fff"/><path d="M618.1,42.2a1.5,1.5,0,0,0,.8-.2c.1,0,.2-.3.2-.6V40.2a.8.8,0,0,0-.2-.5.5.5,0,0,0-.4-.2.5.5,0,0,0-.5.3.5.5,0,0,0-.2.4v.7h-1.3v-.7a1.9,1.9,0,0,1,.1-.8l.5-.6c.1-.2.4-.3.6-.4l.8-.2.9.2.5.5.3.3c0,.1.1.2.1.3a4.9,4.9,0,0,1,.1,1.3v.8a.7.7,0,0,1-.1.5c0,.1-.1.3-.2.3l-.5.4.5.3a.8.8,0,0,1,.2.4,1.3,1.3,0,0,1,.1.6v2l-.2.4c0,.1-.1.2-.1.3l-.7.6a2.2,2.2,0,0,1-1,.2h-.6l-.7-.3-.4-.6a1.6,1.6,0,0,1-.2-1v-.7h1.3v.7a.8.8,0,0,0,.2.5l.5.2a.5.5,0,0,0,.4-.2.8.8,0,0,0,.2-.5V44.2a1.2,1.2,0,0,0-.2-.7h-.8Z" transform="translate(0 0)" style="fill:#fff"/><path d="M638.7,47.5V46.2H636V44.9l1.9-6.6h1.4l-1.9,6.6h1.3V42.3H640v2.6h.6v1.3H640v1.3Z" transform="translate(0 0)" style="fill:#fff"/><path d="M660.2,38.3v1.2h-2.6V42l.4-.3h.7a1.5,1.5,0,0,1,1.1.4,2.1,2.1,0,0,1,.4,1.2v2.4a2.9,2.9,0,0,1-.2.9l-.4.6-.6.4h-1.5l-.7-.4-.4-.6a2.9,2.9,0,0,1-.2-.9v-.4h1.4v.4a.7.7,0,0,0,.1.5l.5.2.5-.2a.8.8,0,0,0,.2-.5V43.4a.8.8,0,0,0-.2-.4c-.1-.2-.3-.2-.5-.2h-.3c0,.1-.1.1-.1.2h-.2v.2h-1.2v-5Z" transform="translate(0 0)" style="fill:#fff"/><path d="M679.6,38.3l-1.5,3.9h.6a.7.7,0,0,1,.6.2,1,1,0,0,1,.5.4c0,.1.1.2.1.3s.1.2.1.3v.6a2.8,2.8,0,0,1,.1.9,1.9,1.9,0,0,1-.1.8v.5c0,.1-.1.2-.1.3s-.1.2-.1.3a2.3,2.3,0,0,1-.7.7l-1,.2-1-.2a2.3,2.3,0,0,1-.7-.7,883037728868.9,883037728868.9,0,0,1-.2-.6.9.9,0,0,1-.1-.5V44.1a.9.9,0,0,1,.1-.5v-.3l.2-.4,1.7-4.6Zm-.9,5.6a.6.6,0,0,0-.2-.5h-.9c-.1.2-.2.3-.2.5v1.7a.8.8,0,0,0,.2.5l.5.2.4-.2c.2-.1.2-.3.2-.5Z" transform="translate(0 0)" style="fill:#fff"/><path d="M696.3,47.5l2.3-8h-1.4v1.1H696V38.3h3.9v1.3l-2.2,7.9Z" transform="translate(0 0)" style="fill:#fff"/><path d="M715.9,40.7v-.6a.7.7,0,0,1,.1-.5c0-.1.1-.2.1-.3s.2-.3.2-.4a1.8,1.8,0,0,1,.7-.5l.8-.2.9.2a1.5,1.5,0,0,1,.6.5.5.5,0,0,1,.2.4c.1.1.2.2.2.3a4.3,4.3,0,0,1,.1.5v1.3a.7.7,0,0,1-.1.5.5.5,0,0,1-.2.4l-.4.4.4.3c.1.2.2.3.2.5s.1.3.1.6v1.6a.9.9,0,0,1-.1.5.4.4,0,0,1-.1.3c0,.1-.1.2-.2.3a1.7,1.7,0,0,1-.6.6l-1,.2-1-.2-.6-.6-.2-.3a.4.4,0,0,0-.1-.3V43.5c.1-.2.2-.3.2-.5l.4-.3-.4-.4-.2-.4V40.7Zm2.6-.5c0-.2-.1-.3-.2-.5l-.5-.2-.4.2a.6.6,0,0,0-.2.5v1.3c0,.2,0,.4.2.5l.4.2.5-.2a.8.8,0,0,0,.2-.5Zm0,3.6a.5.5,0,0,0-.2-.4c-.1-.2-.3-.2-.5-.2a.4.4,0,0,0-.4.2c-.2.1-.2.2-.2.4v1.8c0,.2,0,.4.2.5l.4.2.5-.2a.8.8,0,0,0,.2-.5Z" transform="translate(0 0)" style="fill:#fff"/><path d="M747.5,47.5V39.7l-1.3,1V39.3l1.3-1h1.4v9.2Z" transform="translate(0 0)" style="fill:#fff"/><path d="M765.9,47.5V46.3l2.3-4.5c.2-.2.2-.4.3-.6v-1c0-.1-.1-.2-.1-.3s-.1-.2-.2-.3h-.4l-.4.2c-.2.1-.2.3-.2.5V41h-1.3v-.8a2.2,2.2,0,0,1,.1-.8l.4-.6.7-.4.7-.2.9.2a1,1,0,0,1,.6.5,2,2,0,0,1,.4.8,1.9,1.9,0,0,1,.1.8v.6c0,.2,0,.3-.1.4a.9.9,0,0,1-.1.5c-.1.1-.1.3-.2.5l-2,3.7h2.4v1.3Z" transform="translate(0 0)" style="fill:#fff"/><path d="M787.3,42.2a1.3,1.3,0,0,0,.8-.2c.2,0,.3-.3.3-.6V40.2a.8.8,0,0,0-.2-.5l-.5-.2a.5.5,0,0,0-.5.3c-.1.1-.1.2-.1.4v.7h-1.4v-.7a1.9,1.9,0,0,1,.2-.8l.4-.6.6-.4.8-.2.9.2c.3.2.5.3.6.5l.2.3.2.3c0,.3.1.8.1,1.3v.8a1.1,1.1,0,0,0-.1.5c-.1.1-.2.3-.3.3l-.4.4.4.3.3.4c0,.2.1.4.1.6v1.5a1.1,1.1,0,0,0-.1.5c0,.2-.1.3-.1.4s-.1.2-.2.3a1.7,1.7,0,0,1-.6.6l-1,.2H787l-.6-.3-.5-.6a3,3,0,0,1-.2-1v-.7h1.4v.7a.7.7,0,0,0,.1.5l.5.2.5-.2a.8.8,0,0,0,.2-.5V44.2a.8.8,0,0,0-.3-.7c0-.1-.1-.1-.3-.1h-.5Z" transform="translate(0 0)" style="fill:#fff"/><path d="M807.9,47.5V46.2h-2.6V44.9l1.9-6.6h1.4l-2,6.6h1.3V42.3h1.3v2.6h.7v1.3h-.7v1.3Z" transform="translate(0 0)" style="fill:#fff"/><path d="M829.4,38.3v1.2h-2.6V42l.5-.3h.6a1.4,1.4,0,0,1,1.1.4,1.6,1.6,0,0,1,.4,1.2v2.4a2.8,2.8,0,0,1-.1.9l-.5.6c-.1.2-.4.3-.6.4h-1.5l-.6-.4-.5-.6a2.8,2.8,0,0,1-.1-.9v-.4h1.3v.4a.8.8,0,0,0,.2.5l.5.2a.5.5,0,0,0,.4-.2.8.8,0,0,0,.2-.5V43.4a.8.8,0,0,0-.2-.4c-.1-.2-.2-.2-.4-.2h-.3l-.2.2a.1.1,0,0,0-.1.1v.2h-1.2v-5Z" transform="translate(0 0)" style="fill:#fff"/><path d="M848.8,38.3l-1.5,3.9h.6a1,1,0,0,1,.7.2l.4.4.2.3a.4.4,0,0,0,.1.3v2.8a.4.4,0,0,0-.1.3l-.2.3a2.3,2.3,0,0,1-.7.7l-1,.2-.9-.2a1.6,1.6,0,0,1-.7-.7c-.1-.1-.2-.2-.2-.3s-.1-.2-.1-.3V43.6a.4.4,0,0,1,.1-.3c0-.1.1-.2.1-.4l1.7-4.6Zm-.8,5.6c0-.2-.1-.3-.2-.5h-.9a.6.6,0,0,0-.2.5v1.7c0,.2,0,.4.2.5l.4.2.5-.2a.8.8,0,0,0,.2-.5Z" transform="translate(0 0)" style="fill:#fff"/><path d="M865.5,47.5l2.4-8h-1.5v1.1h-1.2V38.3h4v1.3l-2.3,7.9Z" transform="translate(0 0)" style="fill:#fff"/><path d="M885.1,40.7v-.6a4.3,4.3,0,0,1,.1-.5l.2-.3a.5.5,0,0,1,.2-.4l.6-.5.9-.2.8.2a1.8,1.8,0,0,1,.7.5c.1.1.1.2.2.4l.2.3v.5c.1.1.1.4.1.6a1.5,1.5,0,0,1-.1.7v.5c-.1.2-.1.3-.2.4l-.4.4.4.3.2.5v.6a2.2,2.2,0,0,1,.1.9,1.7,1.7,0,0,1-.1.7v.5c0,.1-.1.2-.1.3l-.2.3-.6.6-1,.2-1-.2a1.7,1.7,0,0,1-.6-.6c-.1-.1-.2-.2-.2-.3a.4.4,0,0,1-.1-.3c0-.2-.1-.3-.1-.5V44.1a3.5,3.5,0,0,1,.1-.6c0-.2.1-.3.2-.5l.4-.3-.4-.4a.5.5,0,0,1-.2-.4,4.3,4.3,0,0,1-.1-.5Zm2.6-.5a.6.6,0,0,0-.2-.5l-.4-.2-.5.2c-.1.2-.2.3-.2.5v1.3a.8.8,0,0,0,.2.5l.5.2.4-.2c.2-.1.2-.3.2-.5Zm0,3.6c0-.2,0-.3-.2-.4s-.2-.2-.4-.2a.6.6,0,0,0-.5.2.5.5,0,0,0-.2.4v1.8a.8.8,0,0,0,.2.5l.5.2.4-.2c.2-.1.2-.3.2-.5Z" transform="translate(0 0)" style="fill:#fff"/><path d="M47.9,324.9l2-7.2H51l2,7.2H51.7l-.3-1.5H49.6l-.4,1.5Zm3.2-2.5-.6-2.6h0l-.7,2.6Z" transform="translate(0 0)" style="fill:#767a80"/><path d="M56.4,322v-2.2h1V322h2.7v.8H57.4v2.1h-1v-2.1H53.7V322Z" transform="translate(0 0)" style="fill:#767a80"/><path d="M61.3,324.9v-7.2h1.9a2,2,0,0,1,1.1.2l.7.4a1,1,0,0,1,.4.5,2,2,0,0,1,.1.7v.3a.7.7,0,0,1-.1.5c0,.1-.1.2-.1.3a1.8,1.8,0,0,1-.7.5,1.8,1.8,0,0,1,.7.5,3,3,0,0,1,.2,1v.4a1.7,1.7,0,0,1-.6,1.4,2.4,2.4,0,0,1-1.8.5Zm1.3-6.2v2h.6a1.2,1.2,0,0,0,.9-.3,1.4,1.4,0,0,0,.2-.7,1,1,0,0,0-.3-.8,1.4,1.4,0,0,0-.9-.2Zm0,2.9v2.3h1.2l.3-.2a.8.8,0,0,0,.1-.4.9.9,0,0,0,.1-.5.7.7,0,0,0-.1-.5.4.4,0,0,0-.1-.3l-.4-.3H62.6Z" transform="translate(0 0)" style="fill:#767a80"/><path d="M69.4,322v-2.2h1V322h2.7v.8H70.4v2.1h-1v-2.1H66.7V322Z" transform="translate(0 0)" style="fill:#767a80"/><path d="M78.5,322.9v.4a1.9,1.9,0,0,1-.2.7l-.4.5-.7.4H75.6a.9.9,0,0,1-.6-.3l-.5-.5a1.1,1.1,0,0,1-.2-.8v-4a1.7,1.7,0,0,1,.1-.7l.4-.5.7-.3.9-.2a2.5,2.5,0,0,1,1.5.5l.4.6a1.4,1.4,0,0,1,.2.7v.4H77.2v-.4a.5.5,0,0,0-.3-.5c-.1-.2-.3-.2-.5-.2a1,1,0,0,0-.7.2,1.3,1.3,0,0,0-.1.6v3.7a.7.7,0,0,0,.1.5.7.7,0,0,0,.6.3h.6l.2-.2c0-.1.1-.2.1-.4v-.3Z" transform="translate(0 0)" style="fill:#767a80"/><path d="M82.2,322v-2.2h1V322h2.7v.8H83.2v2.1h-1v-2.1H79.5V322Z" transform="translate(0 0)" style="fill:#767a80"/><path d="M87.1,324.9v-7.2h2a2.9,2.9,0,0,1,1.7.5,2,2,0,0,1,.5,1.4V323a2,2,0,0,1-.6,1.5,3,3,0,0,1-1.8.4Zm1.3-6.2V324H89c.4,0,.7-.1.8-.3s.2-.3.2-.6v-3.5a.8.8,0,0,0-.2-.7,1.3,1.3,0,0,0-.8-.2Z" transform="translate(0 0)" style="fill:#767a80"/><path d="M97.6,325l1.7-7.4h1L98.6,325Z" transform="translate(0 0)" style="fill:#767a80"/><path d="M153.3,325l1.7-7.4h1l-1.6,7.4Z" transform="translate(0 0)" style="fill:#767a80"/><path d="M163.1,324.9l2.2-7.7h1.2l2.1,7.7h-1.4l-.4-1.6h-1.9l-.4,1.6Zm3.5-2.7-.7-2.8h0l-.7,2.8Z" transform="translate(0 0)" style="fill:#f08"/><path d="M106.5,324.9l2.2-7.7h1.1l2.2,7.7h-1.4l-.4-1.6h-1.9l-.4,1.6Zm3.4-2.7-.6-2.8h-.1l-.6,2.8Z" transform="translate(0 0)" style="fill:#00ba60"/><path d="M115.6,321.8v-2.4h1v2.4h2.9v.8h-2.9v2.3h-1v-2.3h-2.9v-.8Z" transform="translate(0 0)" style="fill:#00ba60"/><path d="M120.8,324.9v-7.7h2l1.2.2.8.4a2.1,2.1,0,0,1,.4.6,2.2,2.2,0,0,1,.1.8v.2a1.1,1.1,0,0,1-.1.6c0,.1-.1.2-.1.4l-.7.5a1.8,1.8,0,0,1,.7.5,3,3,0,0,1,.2,1v.4a2.1,2.1,0,0,1-.6,1.6,2.8,2.8,0,0,1-2,.5Zm1.4-6.7v2.2h.6a1.3,1.3,0,0,0,1-.3,1.9,1.9,0,0,0,.2-.8,1,1,0,0,0-.3-.8c-.1-.2-.5-.3-.9-.3Zm0,3.2v2.4h1.3l.3-.2c.1-.2.2-.3.2-.5v-1c-.1-.1-.1-.3-.2-.4l-.4-.2h-1.2Z" transform="translate(0 0)" style="fill:#00ba60"/><path d="M135.1,322.7v.5a1.4,1.4,0,0,1-.2.7,2.1,2.1,0,0,1-.4.6l-.7.4h-1.7a.9.9,0,0,1-.7-.3c-.3-.1-.4-.3-.6-.5a2.9,2.9,0,0,1-.2-.9v-4.3a1.9,1.9,0,0,1,.2-.7l.4-.6.8-.3.9-.2a2.8,2.8,0,0,1,1.6.5l.4.6a2.4,2.4,0,0,1,.2.8v.4h-1.4V319a.8.8,0,0,0-.2-.5.9.9,0,0,0-.6-.3c-.4,0-.6.1-.7.3a1.4,1.4,0,0,0-.2.6v4a1.4,1.4,0,0,0,.2.6.8.8,0,0,0,.6.2h.3l.3-.2a.2.2,0,0,0,.2-.2c.1-.1.1-.2.1-.4v-.4Z" transform="translate(0 0)" style="fill:#00ba60"/><path d="M139.1,321.8v-2.4h1.1v2.4h2.9v.8h-2.9v2.3h-1.1v-2.3h-2.9v-.8Z" transform="translate(0 0)" style="fill:#00ba60"/><path d="M144.4,324.9v-7.7h2a3,3,0,0,1,1.8.5,1.8,1.8,0,0,1,.7,1.5v3.6a2,2,0,0,1-.7,1.6,2.7,2.7,0,0,1-1.9.5Zm1.4-6.7v5.7h.6a1.3,1.3,0,0,0,.8-.2,1,1,0,0,0,.3-.8v-3.7a1.4,1.4,0,0,0-.2-.7,1.2,1.2,0,0,0-.9-.3Z" transform="translate(0 0)" style="fill:#00ba60"/><path d="M179.1,324.9v-7.7h2l1.1.2a1.5,1.5,0,0,1,.8.4c.2.2.4.4.4.6a2.4,2.4,0,0,1,.2.8v.2c0,.3-.1.4-.1.6s-.1.2-.2.4-.4.3-.7.5a1.3,1.3,0,0,1,.7.5,1.7,1.7,0,0,1,.3,1v.4a2.1,2.1,0,0,1-.6,1.6,3,3,0,0,1-2,.5Zm1.4-6.7v2.2h.6q.8,0,.9-.3a1.1,1.1,0,0,0,.3-.8,1,1,0,0,0-.3-.8,1.3,1.3,0,0,0-1-.3Zm0,3.2v2.4h1.2a.5.5,0,0,0,.4-.2.9.9,0,0,0,.1-.5.7.7,0,0,0,.1-.5.9.9,0,0,0-.1-.5c0-.1-.1-.3-.1-.4l-.4-.2h-1.2Z" transform="translate(0 0)" style="fill:#f08"/><path d="M198.7,322.7v.5a1.4,1.4,0,0,1-.2.7,2.1,2.1,0,0,1-.4.6l-.7.4h-1.7a.9.9,0,0,1-.7-.3c-.3-.1-.4-.3-.6-.5a2.9,2.9,0,0,1-.2-.9v-4.3a1.9,1.9,0,0,1,.2-.7,2.1,2.1,0,0,1,.4-.6l.8-.3.9-.2a2.8,2.8,0,0,1,1.6.5,2.1,2.1,0,0,1,.4.6,2.4,2.4,0,0,1,.2.8v.4h-1.4V319a.8.8,0,0,0-.2-.5.9.9,0,0,0-.6-.3c-.4,0-.6.1-.7.3a1.4,1.4,0,0,0-.2.6v4a1.4,1.4,0,0,0,.2.6.8.8,0,0,0,.6.2h.3l.3-.2a.2.2,0,0,0,.2-.2c.1-.1.1-.2.1-.4v-.4Z" transform="translate(0 0)" style="fill:#f08"/><path d="M209.2,324.9v-7.7h2a3,3,0,0,1,1.8.5,2,2,0,0,1,.6,1.5v3.6a2,2,0,0,1-.6,1.6,2.9,2.9,0,0,1-1.9.5Zm1.3-6.7v5.7h.7a1.3,1.3,0,0,0,.8-.2,1,1,0,0,0,.3-.8v-3.7a.9.9,0,0,0-.3-.7c-.1-.2-.4-.3-.8-.3Z" transform="translate(0 0)" style="fill:#f08"/><circle cx="901.5" cy="209.4" r="3.6" style="fill:#a1a09d"/><line x1="901.5" y1="209.4" x2="912" y2="209.4" style="fill:none;stroke:gray;stroke-miterlimit:10"/><circle cx="901.5" cy="209.4" r="2.3" style="fill:#d4d4d4"/><circle cx="901.5" cy="43.1" r="3.6" style="fill:#929596"/><line x1="901.5" y1="43.1" x2="912" y2="43.1" style="fill:none;stroke:gray;stroke-miterlimit:10"/><circle cx="901.5" cy="43.1" r="2.3" style="fill:#fff"/><circle cx="207.3" cy="174.4" r="2.3" style="fill:#fff"/><circle cx="42.1" cy="183.7" r="2.3" style="fill:#c7c7c7"/><circle cx="42.1" cy="210.9" r="2.3" style="fill:#c7c7c7"/><circle cx="42.1" cy="238.1" r="2.3" style="fill:#c7c7c7"/><circle cx="42.1" cy="265.3" r="2.3" style="fill:#c7c7c7"/></svg>