<?xml version="1.0" encoding="UTF-8" standalone="no"?>
<svg
   xmlns:dc="http://purl.org/dc/elements/1.1/"
   xmlns:cc="http://creativecommons.org/ns#"
   xmlns:rdf="http://www.w3.org/1999/02/22-rdf-syntax-ns#"
   xmlns:svg="http://www.w3.org/2000/svg"
   xmlns="http://www.w3.org/2000/svg"
   xmlns:xlink="http://www.w3.org/1999/xlink"
   xmlns:sodipodi="http://sodipodi.sourceforge.net/DTD/sodipodi-0.dtd"
   xmlns:inkscape="http://www.inkscape.org/namespaces/inkscape"
   width="28"
   height="28"
   viewBox="0 0 7.4083333 7.4083333"
   version="1.1"
   id="svg1353"
   sodipodi:docname="RoundMediumBlackKnobNoMarkEffects.svg"
   inkscape:version="0.92.3 (2405546, 2018-03-11)">
  <metadata
     id="metadata1357">
    <rdf:RDF>
      <cc:Work
         rdf:about="">
        <dc:format>image/svg+xml</dc:format>
        <dc:type
           rdf:resource="http://purl.org/dc/dcmitype/StillImage" />
        <dc:title></dc:title>
      </cc:Work>
    </rdf:RDF>
  </metadata>
  <sodipodi:namedview
     pagecolor="#ffffff"
     bordercolor="#666666"
     borderopacity="1"
     objecttolerance="10"
     gridtolerance="10"
     guidetolerance="10"
     inkscape:pageopacity="0"
     inkscape:pageshadow="2"
     inkscape:window-width="1920"
     inkscape:window-height="1018"
     id="namedview1355"
     showgrid="false"
     inkscape:snap-object-midpoints="true"
     inkscape:snap-global="false"
     inkscape:zoom="23.638889"
     inkscape:cx="18"
     inkscape:cy="18"
     inkscape:window-x="1912"
     inkscape:window-y="-8"
     inkscape:window-maximized="1"
     inkscape:current-layer="svg1353" />
  <defs
     id="defs1337">
    <linearGradient
       id="a">
      <stop
         offset="0"
         stop-color="#fff"
         id="stop1328" />
      <stop
         offset="1"
         stop-color="#fff"
         stop-opacity="0"
         id="stop1330" />
    </linearGradient>
    <linearGradient
       xlink:href="#a"
       id="b"
       x1="18"
       y1="3"
       x2="28"
       y2="7"
       gradientUnits="userSpaceOnUse"
       gradientTransform="matrix(0.1434834,0.1434834,-0.1434834,0.1434834,3.7131652,-1.4402581)" />
    <linearGradient
       gradientTransform="matrix(-0.1434834,-0.1434834,-0.1434834,0.1434834,8.8786567,3.7247936)"
       xlink:href="#a"
       id="c"
       x1="18"
       y1="3"
       x2="28"
       y2="7"
       gradientUnits="userSpaceOnUse" />
    <linearGradient
       xlink:href="#a"
       id="d"
       gradientUnits="userSpaceOnUse"
       x1="18"
       y1="3"
       x2="28"
       y2="7"
       gradientTransform="matrix(0.09681812,0.09681812,0.09681812,-0.09681812,0.21837608,3.7346585)" />
    <linearGradient
       xlink:href="#a"
       id="e"
       gradientUnits="userSpaceOnUse"
       gradientTransform="matrix(-0.09681542,-0.09681542,0.09681542,-0.09681542,3.7034466,7.2196771)"
       x1="18"
       y1="3"
       x2="28"
       y2="7" />
  </defs>
  <path
     d="M 5.9822119,1.456098 5.7695694,1.6687404 A 2.9081947,2.9081947 0 0 1 6.6187042,3.808078 l 0.2981584,0.00833 A 3.2089164,3.2089164 0 0 0 5.9822119,1.456098 Z"
     id="path1339"
     inkscape:connector-curvature="0"
     style="fill:url(#b);stroke-width:0.26458004" />
  <path
     d="M 5.9827407,1.4557841 5.7701566,1.6683681 A 2.9082249,2.9082249 0 0 0 3.630758,0.81965867 L 3.622088,0.5213901 a 3.2088642,3.2088642 0 0 1 2.360657,0.934394 z"
     id="path1341"
     inkscape:connector-curvature="0"
     style="fill:url(#c);stroke-width:0.99999994" />
  <path
     d="M 2.1727467,5.2657404 2.3162311,5.1222558 a 1.9623588,1.9623588 0 0 0 1.4435582,0.5729696 l 0.00562,0.201188 A 2.1652766,2.1652766 0 0 1 2.1727467,5.2657404 Z"
     id="path1343"
     inkscape:connector-curvature="0"
     style="fill:url(#d);stroke-width:0.17853032" />
  <path
     d="M 2.1724325,5.2656579 2.3158735,5.1222168 A 1.9623248,1.9623248 0 0 1 1.7432068,3.6786577 l -0.2012567,-0.00585 a 2.1651811,2.1651811 0 0 0 0.6304824,1.5928549 z"
     id="path1345"
     inkscape:connector-curvature="0"
     style="fill:url(#e);stroke-width:0.67474997" />
  <path
     d="M 3.7125408,3.7177858 5.3246424,2.5804185 A 1.9756296,1.9756296 0 0 0 4.8215316,2.0834434 Z"
     id="path1347"
     inkscape:connector-curvature="0"
     style="fill:#b1b1b1;stroke-width:0.99999994" />
  <path
     d="M 3.7125408,3.7246883 4.026985,5.6673397 A 1.9756296,1.9756296 0 0 0 5.6559591,4.0667422 Z m 0,0 L 3.3980967,1.782804 A 1.9756296,1.9756296 0 0 0 1.7706565,3.3834014 Z"
     id="path1349"
     inkscape:connector-curvature="0"
     style="fill:#3c3c3c;stroke-width:0.99999994" />
  <path
     d="M 3.7125408,3.7246883 2.1012064,4.8628228 a 1.9756296,1.9756296 0 0 0 0.5031105,0.4969751 z"
     id="path1351"
     inkscape:connector-curvature="0"
     style="fill:#b1b1b1;stroke-width:0.99999994" />
</svg>
