<?xml version="1.0" encoding="UTF-8" standalone="no"?>
<!-- Created with Inkscape (http://www.inkscape.org/) -->

<svg
   xmlns:dc="http://purl.org/dc/elements/1.1/"
   xmlns:cc="http://creativecommons.org/ns#"
   xmlns:rdf="http://www.w3.org/1999/02/22-rdf-syntax-ns#"
   xmlns:svg="http://www.w3.org/2000/svg"
   xmlns="http://www.w3.org/2000/svg"
   xmlns:xlink="http://www.w3.org/1999/xlink"
   xmlns:sodipodi="http://sodipodi.sourceforge.net/DTD/sodipodi-0.dtd"
   xmlns:inkscape="http://www.inkscape.org/namespaces/inkscape"
   width="60"
   height="380"
   viewBox="0 0 15.875001 100.54167"
   version="1.1"
   id="svg8"
   inkscape:version="0.91 r13725"
   sodipodi:docname="Bandana4HP.svg">
  <defs
     id="defs2">
    <inkscape:perspective
       id="perspective4197"
       inkscape:persp3d-origin="240.00001 : 126.66667 : 1"
       inkscape:vp_z="480.00002 : 190 : 1"
       inkscape:vp_y="0 : 1000 : 0"
       inkscape:vp_x="0 : 190 : 1"
       sodipodi:type="inkscape:persp3d" />
    <linearGradient
       id="linearGradient4189"
       inkscape:collect="always">
      <stop
         id="stop4191"
         offset="0"
         style="stop-color:#ffffff;stop-opacity:1" />
      <stop
         id="stop4193"
         offset="1"
         style="stop-color:#000000;stop-opacity:0;" />
    </linearGradient>
    <linearGradient
       id="linearGradient5349"
       inkscape:collect="always">
      <stop
         id="stop5351"
         offset="0"
         style="stop-color:#fdfdfd;stop-opacity:1;" />
      <stop
         id="stop5353"
         offset="1"
         style="stop-color:#fdfdfd;stop-opacity:1" />
    </linearGradient>
    <radialGradient
       gradientUnits="userSpaceOnUse"
       gradientTransform="matrix(0.42180436,0,0,0.0267339,-117.37069,272.32424)"
       r="69.826797"
       fy="856.052"
       fx="285.49445"
       cy="856.052"
       cx="285.49445"
       id="radialGradient5357"
       xlink:href="#linearGradient5349"
       inkscape:collect="always" />
    <linearGradient
       gradientUnits="userSpaceOnUse"
       y2="832.53247"
       x2="279.91516"
       y1="830.88361"
       x1="268.96658"
       id="linearGradient4195"
       xlink:href="#linearGradient4189"
       inkscape:collect="always"
       gradientTransform="matrix(0.26458334,0,0,0.26458334,-75.483235,72.473327)" />
    <clipPath
       clipPathUnits="userSpaceOnUse"
       id="clipPath5924">
      <rect
         style="opacity:1;fill:#111bff;fill-opacity:1;stroke:none;stroke-width:0.30000001;stroke-miterlimit:10;stroke-dasharray:none;stroke-opacity:1"
         id="rect5926"
         width="20.550829"
         height="14.907611"
         x="1.6366985"
         y="287.56183"
         rx="0"
         ry="0" />
    </clipPath>
    <clipPath
       clipPathUnits="userSpaceOnUse"
       id="clipPath5928">
      <rect
         style="opacity:1;fill:#111bff;fill-opacity:1;stroke:none;stroke-width:0.30000001;stroke-miterlimit:10;stroke-dasharray:none;stroke-opacity:1"
         id="rect5930"
         width="15.86595"
         height="14.907611"
         x="0.0090512317"
         y="287.56183"
         rx="0"
         ry="0" />
    </clipPath>
    <clipPath
       clipPathUnits="userSpaceOnUse"
       id="clipPath5932">
      <rect
         style="opacity:1;fill:#111bff;fill-opacity:1;stroke:none;stroke-width:0.30000001;stroke-miterlimit:10;stroke-dasharray:none;stroke-opacity:1"
         id="rect5934"
         width="15.86595"
         height="14.907611"
         x="0.0090512317"
         y="287.56183"
         rx="0"
         ry="0" />
    </clipPath>
    <clipPath
       clipPathUnits="userSpaceOnUse"
       id="clipPath5936">
      <rect
         style="opacity:1;fill:#111bff;fill-opacity:1;stroke:none;stroke-width:0.30000001;stroke-miterlimit:10;stroke-dasharray:none;stroke-opacity:1"
         id="rect5938"
         width="66.538155"
         height="62.5191"
         x="282.25021"
         y="-27.441273"
         rx="0"
         ry="0" />
    </clipPath>
    <clipPath
       clipPathUnits="userSpaceOnUse"
       id="clipPath5940">
      <rect
         style="opacity:1;fill:#111bff;fill-opacity:1;stroke:none;stroke-width:0.30000001;stroke-miterlimit:10;stroke-dasharray:none;stroke-opacity:1"
         id="rect5942"
         width="15.86595"
         height="14.907611"
         x="0.0090512317"
         y="287.56183"
         rx="0"
         ry="0" />
    </clipPath>
    <clipPath
       clipPathUnits="userSpaceOnUse"
       id="clipPath5944">
      <rect
         style="opacity:1;fill:#111bff;fill-opacity:1;stroke:none;stroke-width:0.30000001;stroke-miterlimit:10;stroke-dasharray:none;stroke-opacity:1"
         id="rect5946"
         width="15.86595"
         height="14.907611"
         x="0.0090512317"
         y="287.56183"
         rx="0"
         ry="0" />
    </clipPath>
  </defs>
  <sodipodi:namedview
     id="base"
     pagecolor="#ffffff"
     bordercolor="#666666"
     borderopacity="1.0"
     inkscape:pageopacity="0.0"
     inkscape:pageshadow="2"
     inkscape:zoom="3.1236842"
     inkscape:cx="2.9826413"
     inkscape:cy="266.47486"
     inkscape:document-units="mm"
     inkscape:current-layer="layer1"
     showgrid="false"
     units="px"
     inkscape:snap-bbox="true"
     inkscape:snap-page="true"
     inkscape:bbox-nodes="true"
     inkscape:snap-bbox-edge-midpoints="true"
     inkscape:window-width="1081"
     inkscape:window-height="1353"
     inkscape:window-x="1240"
     inkscape:window-y="33"
     inkscape:window-maximized="0"
     inkscape:showpageshadow="false"
     borderlayer="true"
     inkscape:snap-global="true" />
  <metadata
     id="metadata5">
    <rdf:RDF>
      <cc:Work
         rdf:about="">
        <dc:format>image/svg+xml</dc:format>
        <dc:type
           rdf:resource="http://purl.org/dc/dcmitype/StillImage" />
        <dc:title></dc:title>
      </cc:Work>
    </rdf:RDF>
  </metadata>
  <g
     inkscape:label="Layer 1"
     inkscape:groupmode="layer"
     id="layer1"
     transform="translate(0,-196.45832)"
     style="display:inline">
    <path
       style="opacity:1;fill:#000000;fill-opacity:1;fill-rule:evenodd;stroke:none;stroke-width:0.48607069;stroke-linecap:butt;stroke-linejoin:round;stroke-miterlimit:4;stroke-dasharray:none;stroke-dashoffset:0;stroke-opacity:1;paint-order:normal"
       d="m 0,196.45831 15.875001,0 0,100.54168 -15.875001,0 z"
       id="rect817"
       inkscape:connector-curvature="0" />
    <flowRoot
       transform="matrix(0.26458334,0,0,0.26458334,-58.459936,293.81811)"
       style="font-style:normal;font-variant:normal;font-weight:normal;font-stretch:normal;font-size:10px;line-height:125%;font-family:'Trajan Pro 3';-inkscape-font-specification:'Trajan Pro 3, ';letter-spacing:0px;word-spacing:0px;fill:#000000;fill-opacity:1;stroke:none;stroke-width:1px;stroke-linecap:butt;stroke-linejoin:miter;stroke-opacity:1"
       id="flowRoot4136"
       xml:space="preserve"><flowRegion
         id="flowRegion4138"><rect
           style="font-style:normal;font-variant:normal;font-weight:normal;font-stretch:normal;font-family:'Trajan Pro 3';-inkscape-font-specification:'Trajan Pro 3, '"
           y="51.42857"
           x="91.428574"
           height="117.14286"
           width="388.57144"
           id="rect4140" /></flowRegion><flowPara
         id="flowPara4142" /></flowRoot>    <flowRoot
       transform="matrix(0.26458334,0,0,0.26458334,-58.459936,115.92228)"
       style="font-style:normal;font-weight:normal;font-size:10px;line-height:125%;font-family:sans-serif;letter-spacing:0px;word-spacing:0px;fill:#000000;fill-opacity:1;stroke:none;stroke-width:1px;stroke-linecap:butt;stroke-linejoin:miter;stroke-opacity:1"
       id="flowRoot5341"
       xml:space="preserve"><flowRegion
         id="flowRegion5343"><rect
           y="35.537983"
           x="323.24881"
           height="72.478447"
           width="7.8286824"
           id="rect5345" /></flowRegion><flowPara
         id="flowPara5347" /></flowRoot>    <g
       id="layer2"
       inkscape:label="Layer 2"
       transform="matrix(0.26458334,0,0,0.26458334,-59.404877,294.76305)" />
    <path
       style="opacity:1;fill:url(#radialGradient5357);fill-opacity:1;stroke:#8b8b8b;stroke-width:0.39687502;stroke-linejoin:miter;stroke-miterlimit:4;stroke-dasharray:none;stroke-opacity:1"
       d="m 20.094988,295.06553 -17.0428228,-0.12503 -14.4172472,0.12503 -0.878733,-3.46985 c 4.809927,-1.00484 10.7504003,-1.72449 16.1711726,-1.71947 5.7152827,0.005 9.8861174,0.46573 17.0463624,1.84449 z"
       id="path5329"
       inkscape:connector-curvature="0"
       sodipodi:nodetypes="ccccacc"
       clip-path="url(#clipPath5944)" />
    <path
       sodipodi:nodetypes="ccccc"
       inkscape:connector-curvature="0"
       id="rect5381"
       d="m -15.62179,292.12562 c 10.9044163,-1.20984 21.5456674,-0.98968 31.749998,0.12269 l -0.03339,3.29649 -31.716608,0 z"
       style="opacity:1;fill:#000000;fill-opacity:1;stroke:none;stroke-width:1.00699997;stroke-linejoin:miter;stroke-miterlimit:4;stroke-dasharray:none;stroke-opacity:1"
       clip-path="url(#clipPath5940)" />
    <g
       transform="matrix(0.23844891,0,0,0.23844891,-67.293205,294.10517)"
       id="g5348"
       clip-path="url(#clipPath5936)">
      <path
         style="fill:#000000;fill-opacity:1;fill-rule:evenodd;stroke:none;stroke-width:1px;stroke-linecap:butt;stroke-linejoin:miter;stroke-opacity:1"
         d="m 291.23228,-10.52707 6.43066,-3.03395 5.95249,-0.742 4.22115,0.51115 5.88653,2.16005 4.68284,4.36955 z"
         id="path4179"
         inkscape:connector-curvature="0" />
      <g
         inkscape:label="Back"
         id="layer2-0"
         transform="translate(109.83831,-148.57805)">
        <g
           inkscape:label="Back"
           id="layer2-5"
           transform="matrix(0.09824765,0,0,0.06980857,176.35705,132.53479)"
           style="stroke:#ffffff;stroke-opacity:1">
          <g
             id="g2838"
             style="stroke:#ffffff;stroke-opacity:1" />
          <g
             id="g2852"
             style="stroke:#ffffff;stroke-opacity:1">
            <path
               d="m 2.1174,188.81 18.113,36.226 65.551,31.913 90.564,13.8 94.877,-11.213 60.376,-31.913 14.663,-30.188 -14.663,-37.951 0.32345,67.923 -33.099,-64.473 -25.876,96.602 -58.651,-80.214 -40.538,91.427 -40.538,-75.902 -46.576,61.239 -17.098,-92.852 -49.316,62.663 6.0376,-89.702 44.241,27.296 63.574,32.218 79.999,-16.819 86.467,-15.957 31.051,-3.6657 -33.27949,-62.050611 1.366,64.853611 -64.689,-74.392 -20.7,91.427 -69.001,-66.198 -75.902,50.026 15.35717,-82.554584 -59.34617,55.816584 24.151,-56.064 34.501,0 81.077,-37.088 -18.975,69.864 89.702,-24.151 62.101,7.7627 -66.314,-54.334 4.2124,46.571 -70.726,-45.713 66.414,-1.725 -53.476,-15.525 -12.938,16.388 -49.164,-6.9001 -66.414,44.851 -33.333,49.416 9.1828,6.6475 -23.288,52.614 z"
               style="color:#000000;fill:none;stroke:#ffffff;stroke-width:2.89188218;stroke-linejoin:bevel;stroke-miterlimit:4;stroke-dasharray:none;stroke-opacity:1"
               sodipodi:nodetypes="ccccccccccccccccccccccccccccccccccccccccccccccccc"
               id="path3614"
               inkscape:connector-curvature="0" />
            <path
               d="M 133.17,195.51 146.16,114.634 84.75317,79.116604 116.834,34.42 l 28.463,-4.3126 32.776,-5.1751 41.401,6.9001 12.938,10.35 47.438,20.7 18.975,34.501 30.188,30.188 2.8032,31.913"
               style="color:#000000;fill:none;stroke:#ffffff;stroke-width:2.89188218;stroke-linejoin:bevel;stroke-miterlimit:4;stroke-dasharray:none;stroke-opacity:1"
               sodipodi:nodetypes="cccccccccccc"
               id="path3616"
               inkscape:connector-curvature="0" />
            <path
               d="M 329.01,126.71 279.85,62.88 220.08,31.83"
               style="color:#000000;fill:none;stroke:#ffffff;stroke-width:2;stroke-linejoin:bevel;stroke-opacity:1"
               sodipodi:nodetypes="ccc"
               id="path3618"
               inkscape:connector-curvature="0" />
            <path
               d="M 1.9262189,188.1862 16.108581,129.83899"
               style="color:#000000;fill:none;stroke:#ffffff;stroke-width:2;stroke-linejoin:bevel;stroke-opacity:1"
               id="path3620"
               inkscape:connector-curvature="0"
               sodipodi:nodetypes="cc" />
          </g>
        </g>
      </g>
      <path
         style="fill:none;fill-rule:evenodd;stroke:#ffffff;stroke-width:0.2;stroke-linecap:butt;stroke-linejoin:miter;stroke-miterlimit:4;stroke-dasharray:none;stroke-opacity:1"
         d="m 320.18675,-2.24965 -1.66538,-4.93018"
         id="path4177"
         inkscape:connector-curvature="0" />
      <ellipse
         style="opacity:0;fill:#000000;fill-opacity:1;stroke:none;stroke-width:0.2;stroke-miterlimit:4;stroke-dasharray:none;stroke-opacity:1"
         id="path4183"
         cx="308.89188"
         cy="-0.40290931"
         rx="12.102836"
         ry="4.2211528" />
    </g>
    <ellipse
       ry="1.0121423"
       rx="2.800842"
       cy="292.74753"
       cx="-4.2231741"
       id="path4187"
       style="opacity:0;fill:url(#linearGradient4195);fill-opacity:1;stroke:none;stroke-width:0.2;stroke-miterlimit:4;stroke-dasharray:none;stroke-opacity:1"
       clip-path="url(#clipPath5932)" />
    <path
       sodipodi:nodetypes="cccccccccc"
       inkscape:connector-curvature="0"
       id="path4209"
       d="m -12.795448,292.21929 3.1484694,-1.34092 1.3291208,0.4179 1.1077655,-0.7832 2.2155227,0.29151 0.932852,-0.34981 3.0239299,0.97939 -1.0416184,0.47818 -9.5034349,0.29152 z"
       style="fill:#000000;fill-opacity:1;fill-rule:evenodd;stroke:none;stroke-width:1px;stroke-linecap:butt;stroke-linejoin:miter;stroke-opacity:1"
       clip-path="url(#clipPath5928)" />
    <g
       style="font-size:1.98437524px;opacity:1;fill:#ffffff;fill-opacity:1;stroke:none;stroke-width:0.2;stroke-miterlimit:10;stroke-dasharray:none;stroke-opacity:1"
       id="text6429"
       transform="matrix(0.77203451,0,0,1,-1.2545365,0)"
       clip-path="url(#clipPath5924)">
      <path
         d="m 2.8350986,295.53399 0,0.16859 q -0.075577,-0.0387 -0.1569672,-0.0581 -0.08139,-0.0194 -0.1685944,-0.0194 -0.1327438,0 -0.1996002,0.0407 -0.065888,0.0407 -0.065888,0.12209 0,0.062 0.047478,0.0979 0.047478,0.0349 0.1908798,0.0669 l 0.061043,0.0136 q 0.1899109,0.0407 0.2693634,0.11531 0.080421,0.0736 0.080421,0.20638 0,0.15115 -0.1201477,0.23933 -0.1191788,0.0882 -0.3284684,0.0882 -0.087204,0 -0.1821594,-0.0174 -0.093987,-0.0165 -0.1986313,-0.0504 l 0,-0.18409 q 0.098831,0.0514 0.1947555,0.0775 0.095924,0.0252 0.189911,0.0252 0.1259613,0 0.1937866,-0.0426 0.067825,-0.0436 0.067825,-0.12209 0,-0.0727 -0.049416,-0.11142 -0.048447,-0.0388 -0.2141342,-0.0746 l -0.062012,-0.0145 q -0.1656876,-0.0349 -0.2393265,-0.10658 -0.073639,-0.0727 -0.073639,-0.19863 0,-0.15309 0.1085206,-0.23642 0.1085205,-0.0833 0.3081207,-0.0833 0.098831,0 0.1860352,0.0145 0.087204,0.0145 0.1608429,0.0436 z"
         id="path6460"
         inkscape:connector-curvature="0" />
      <path
         d="m 4.8621069,295.62701 q -0.1434021,0 -0.2267304,0.11239 -0.083328,0.11143 -0.083328,0.30619 0,0.19475 0.082359,0.30715 0.083328,0.11142 0.2276993,0.11142 0.1424332,0 0.2257614,-0.11239 0.083328,-0.1124 0.083328,-0.30618 0,-0.19282 -0.083328,-0.30522 -0.083328,-0.11336 -0.2257614,-0.11336 z m 0,-0.15116 q 0.2325439,0 0.3652878,0.15116 0.1327438,0.15115 0.1327438,0.41858 0,0.26645 -0.1327438,0.41857 -0.1327439,0.15116 -0.3652878,0.15116 -0.2335129,0 -0.3662568,-0.15116 -0.1317749,-0.15212 -0.1317749,-0.41857 0,-0.26743 0.1317749,-0.41858 0.1327439,-0.15116 0.3662568,-0.15116 z"
         id="path6462"
         inkscape:connector-curvature="0" />
      <path
         d="m 6.8997734,296.15895 0,-0.65694 0.1782837,0 0,0.65016 q 0,0.15406 0.060074,0.23157 0.060074,0.0765 0.1802215,0.0765 0.1443711,0 0.2276993,-0.092 0.084297,-0.0921 0.084297,-0.25095 l 0,-0.61528 0.1782837,0 0,1.08521 -0.1782837,0 0,-0.16666 q -0.064919,0.0988 -0.1511536,0.14728 -0.085266,0.0475 -0.1986313,0.0475 -0.1870041,0 -0.2838974,-0.11627 -0.096893,-0.11628 -0.096893,-0.3401 z"
         id="path6464"
         inkscape:connector-curvature="0" />
      <path
         d="m 9.6176312,295.19389 0,0.30812 0.3672257,0 0,0.13856 -0.3672257,0 0,0.58911 q 0,0.13275 0.035851,0.17054 0.036819,0.0378 0.1482468,0.0378 l 0.1831283,0 0,0.14922 -0.1831283,0 q -0.2063828,0 -0.2848664,-0.0765 -0.078484,-0.0775 -0.078484,-0.28099 l 0,-0.58911 -0.130806,0 0,-0.13856 0.130806,0 0,-0.30812 0.1792526,0 z"
         id="path6466"
         inkscape:connector-curvature="0" />
      <path
         d="m 12.385873,295.93222 0,0.655 -0.178284,0 0,-0.64919 q 0,-0.15406 -0.06007,-0.2306 -0.06007,-0.0765 -0.180222,-0.0765 -0.144371,0 -0.227699,0.0921 -0.08333,0.092 -0.08333,0.25095 l 0,0.61334 -0.179252,0 0,-1.50766 0.179252,0 0,0.59105 q 0.06395,-0.0979 0.150185,-0.14631 0.0872,-0.0485 0.200569,-0.0485 0.187004,0 0.282929,0.11627 0.09592,0.11531 0.09592,0.3401 z"
         id="path6468"
         inkscape:connector-curvature="0" />
      <path
         d="m 14.179368,296.42444 0,0.57554 -0.179252,0 0,-1.49797 0.179252,0 0,0.16472 q 0.0562,-0.0969 0.141465,-0.1434 0.08624,-0.0475 0.205413,-0.0475 0.197663,0 0.320717,0.15697 0.124024,0.15697 0.124024,0.41277 0,0.25579 -0.124024,0.41276 -0.123054,0.15697 -0.320717,0.15697 -0.119178,0 -0.205413,-0.0465 -0.08527,-0.0475 -0.141465,-0.14437 z m 0.606552,-0.37885 q 0,-0.1967 -0.08139,-0.30813 -0.08042,-0.11239 -0.221886,-0.11239 -0.141464,0 -0.222854,0.11239 -0.08042,0.11143 -0.08042,0.30813 0,0.19669 0.08042,0.30909 0.08139,0.11142 0.222854,0.11142 0.141465,0 0.221886,-0.11142 0.08139,-0.1124 0.08139,-0.30909 z"
         id="path6470"
         inkscape:connector-curvature="0" />
      <path
         d="m 16.950518,295.62701 q -0.143402,0 -0.22673,0.11239 -0.08333,0.11143 -0.08333,0.30619 0,0.19475 0.08236,0.30715 0.08333,0.11142 0.227699,0.11142 0.142433,0 0.225761,-0.11239 0.08333,-0.1124 0.08333,-0.30618 0,-0.19282 -0.08333,-0.30522 -0.08333,-0.11336 -0.225761,-0.11336 z m 0,-0.15116 q 0.232544,0 0.365288,0.15116 0.132744,0.15115 0.132744,0.41858 0,0.26645 -0.132744,0.41857 -0.132744,0.15116 -0.365288,0.15116 -0.233513,0 -0.366257,-0.15116 -0.131775,-0.15212 -0.131775,-0.41857 0,-0.26743 0.131775,-0.41858 0.132744,-0.15116 0.366257,-0.15116 z"
         id="path6472"
         inkscape:connector-curvature="0" />
      <path
         d="m 19.006594,295.07956 0.178284,0 0,1.50766 -0.178284,0 0,-1.50766 z"
         id="path6474"
         inkscape:connector-curvature="0" />
      <path
         d="m 21.748675,296.00005 0,0.0872 -0.819718,0 q 0.01163,0.1841 0.110459,0.28099 0.0998,0.0959 0.277115,0.0959 0.102706,0 0.198631,-0.0252 0.09689,-0.0252 0.191849,-0.0756 l 0,0.16859 q -0.09593,0.0407 -0.196694,0.062 -0.100769,0.0213 -0.204445,0.0213 -0.259674,0 -0.411796,-0.15116 -0.151154,-0.15115 -0.151154,-0.40889 0,-0.26645 0.143402,-0.42245 0.144371,-0.15697 0.388542,-0.15697 0.218979,0 0.34591,0.14147 0.127899,0.14049 0.127899,0.38273 z m -0.178284,-0.0523 q -0.0019,-0.14631 -0.08236,-0.23351 -0.07945,-0.0872 -0.211228,-0.0872 -0.149215,0 -0.239326,0.0843 -0.08914,0.0843 -0.102707,0.23739 l 0.63562,-9.7e-4 z"
         id="path6476"
         inkscape:connector-curvature="0" />
    </g>
    <flowRoot
       xml:space="preserve"
       id="flowRoot6030"
       style="font-size:7.5px;opacity:1;fill:#ffffff;fill-opacity:1;stroke:#9f9f9f;stroke-width:1.77165353;stroke-miterlimit:4;stroke-dasharray:none;stroke-opacity:1"><flowRegion
         id="flowRegion6032"><rect
           id="rect6034"
           width="7.9155955"
           height="17.98999"
           x="-7.9155955"
           y="209.8147" /></flowRegion><flowPara
         id="flowPara6036" /></flowRoot>    <g
       id="text6391"
       style="font-size:4.63020849px;opacity:1;fill:#ffffff;fill-opacity:1;stroke:#ffffff;stroke-width:0.11599169;stroke-miterlimit:10;stroke-dasharray:none;stroke-opacity:1"
       transform="matrix(0.68431627,0,0,0.68431627,-0.59901479,61.497956)">
      <g
         style="font-size:5.79958487px;opacity:1;fill:#fc00d8;fill-opacity:1;stroke:#ffffff;stroke-width:0.1159917;stroke-miterlimit:10;stroke-dasharray:none;stroke-opacity:1"
         id="text5119" />
      <g
         style="font-size:4.83298731px;opacity:1;fill:#ffffff;fill-opacity:1;stroke:#ffffff;stroke-width:0.11599169;stroke-miterlimit:10;stroke-dasharray:none;stroke-opacity:1"
         id="text5123">
        <path
           d="m 2.6952694,200.80172 0,1.29084 0.7645937,0 q 0.3846567,0 0.5687255,-0.15811 0.1864287,-0.16047 0.1864287,-0.48849 0,-0.33038 -0.1864287,-0.48613 -0.1840688,-0.15811 -0.5687255,-0.15811 l -0.7645937,0 z m 0,-1.44895 0,1.06193 0.7055972,0 q 0.3492589,0 0.5191686,-0.12979 0.1722696,-0.13215 0.1722696,-0.40117 0,-0.26667 -0.1722696,-0.39882 -0.1699097,-0.13215 -0.5191686,-0.13215 l -0.7055972,0 z m -0.4766912,-0.39174 1.2176863,0 q 0.545127,0 0.8401091,0.22655 0.2949821,0.22654 0.2949821,0.64424 0,0.3233 -0.1510308,0.51445 -0.1510309,0.19115 -0.4436531,0.23834 0.3516187,0.0755 0.5451269,0.31622 0.1958682,0.23835 0.1958682,0.59705 0,0.47197 -0.3209406,0.72919 -0.3209405,0.25723 -0.9132647,0.25723 l -1.2648834,0 0,-3.52327 z"
           style="font-size:4.83298731px;fill:#ffffff;fill-opacity:1;stroke-width:0.11599169;stroke-miterlimit:10;stroke-dasharray:none"
           id="path5908"
           inkscape:connector-curvature="0" />
        <path
           d="m 6.714106,201.1557 q -0.5262482,0 -0.7291959,0.12035 -0.2029477,0.12035 -0.2029477,0.41062 0,0.23126 0.1510309,0.36813 0.1533907,0.13452 0.4153348,0.13452 0.3610582,0 0.578165,-0.25487 0.2194667,-0.25722 0.2194667,-0.682 l 0,-0.0968 -0.4318538,0 z m 0.8660675,-0.17935 0,1.50795 -0.4342137,0 0,-0.40118 q -0.148671,0.24071 -0.3704975,0.35634 -0.2218266,0.11327 -0.5427672,0.11327 -0.4058954,0 -0.6466008,-0.22654 -0.2383456,-0.22891 -0.2383456,-0.6112 0,-0.44602 0.297342,-0.67256 0.2997019,-0.22655 0.892026,-0.22655 l 0.6088431,0 0,-0.0425 q 0,-0.2997 -0.198228,-0.46253 -0.1958681,-0.16519 -0.5522065,-0.16519 -0.2265463,0 -0.4412933,0.0543 -0.214747,0.0543 -0.412975,0.16283 l 0,-0.40118 q 0.2383456,-0.092 0.462532,-0.13687 0.2241864,-0.0472 0.4365735,-0.0472 0.5734453,0 0.8566282,0.29734 0.2831828,0.29735 0.2831828,0.90147 z"
           style="font-size:4.83298731px;fill:#ffffff;fill-opacity:1;stroke-width:0.11599169;stroke-miterlimit:10;stroke-dasharray:none"
           id="path5910"
           inkscape:connector-curvature="0" />
        <path
           d="m 10.683386,200.88904 0,1.59526 -0.434214,0 0,-1.58111 q 0,-0.37521 -0.146311,-0.56164 -0.1463114,-0.18643 -0.4389337,-0.18643 -0.3516187,0 -0.5545664,0.22419 -0.2029477,0.22418 -0.2029477,0.6112 l 0,1.49379 -0.4365736,0 0,-2.64304 0.4365736,0 0,0.41061 q 0.1557505,-0.23834 0.3657778,-0.35633 0.2123872,-0.118 0.4884904,-0.118 0.4554526,0 0.6890786,0.28319 0.233626,0.28082 0.233626,0.82831 z"
           style="font-size:4.83298731px;fill:#ffffff;fill-opacity:1;stroke-width:0.11599169;stroke-miterlimit:10;stroke-dasharray:none"
           id="path5912"
           inkscape:connector-curvature="0" />
        <path
           d="m 13.293387,200.24243 0,-1.43007 0.434214,0 0,3.67194 -0.434214,0 0,-0.39646 q -0.136872,0.23599 -0.346899,0.35162 -0.207667,0.11327 -0.50029,0.11327 -0.479051,0 -0.781112,-0.38229 -0.299702,-0.3823 -0.299702,-1.0053 0,-0.623 0.299702,-1.0053 0.302061,-0.3823 0.781112,-0.3823 0.292623,0 0.50029,0.11564 0.210027,0.11327 0.346899,0.34925 z m -1.47963,0.92271 q 0,0.47905 0.195868,0.75279 0.198228,0.27139 0.542767,0.27139 0.344539,0 0.542767,-0.27139 0.198228,-0.27374 0.198228,-0.75279 0,-0.47905 -0.198228,-0.75044 -0.198228,-0.27374 -0.542767,-0.27374 -0.344539,0 -0.542767,0.27374 -0.195868,0.27139 -0.195868,0.75044 z"
           style="font-size:4.83298731px;fill:#ffffff;fill-opacity:1;stroke-width:0.11599169;stroke-miterlimit:10;stroke-dasharray:none"
           id="path5914"
           inkscape:connector-curvature="0" />
        <path
           d="m 15.823154,201.1557 q -0.526249,0 -0.729196,0.12035 -0.202948,0.12035 -0.202948,0.41062 0,0.23126 0.151031,0.36813 0.153391,0.13452 0.415335,0.13452 0.361058,0 0.578165,-0.25487 0.219466,-0.25722 0.219466,-0.682 l 0,-0.0968 -0.431853,0 z m 0.866067,-0.17935 0,1.50795 -0.434214,0 0,-0.40118 q -0.148671,0.24071 -0.370497,0.35634 -0.221827,0.11327 -0.542767,0.11327 -0.405896,0 -0.646601,-0.22654 -0.238346,-0.22891 -0.238346,-0.6112 0,-0.44602 0.297342,-0.67256 0.299702,-0.22655 0.892026,-0.22655 l 0.608843,0 0,-0.0425 q 0,-0.2997 -0.198228,-0.46253 -0.195868,-0.16519 -0.552206,-0.16519 -0.226546,0 -0.441293,0.0543 -0.214747,0.0543 -0.412975,0.16283 l 0,-0.40118 q 0.238345,-0.092 0.462532,-0.13687 0.224186,-0.0472 0.436573,-0.0472 0.573445,0 0.856628,0.29734 0.283183,0.29735 0.283183,0.90147 z"
           style="font-size:4.83298731px;fill:#ffffff;fill-opacity:1;stroke-width:0.11599169;stroke-miterlimit:10;stroke-dasharray:none"
           id="path5916"
           inkscape:connector-curvature="0" />
        <path
           d="m 19.792433,200.88904 0,1.59526 -0.434213,0 0,-1.58111 q 0,-0.37521 -0.146311,-0.56164 -0.146312,-0.18643 -0.438934,-0.18643 -0.351619,0 -0.554566,0.22419 -0.202948,0.22418 -0.202948,0.6112 l 0,1.49379 -0.436573,0 0,-2.64304 0.436573,0 0,0.41061 q 0.155751,-0.23834 0.365778,-0.35633 0.212387,-0.118 0.48849,-0.118 0.455453,0 0.689079,0.28319 0.233625,0.28082 0.233625,0.82831 z"
           style="font-size:4.83298731px;fill:#ffffff;fill-opacity:1;stroke-width:0.11599169;stroke-miterlimit:10;stroke-dasharray:none"
           id="path5918"
           inkscape:connector-curvature="0" />
        <path
           d="m 21.864389,201.1557 q -0.526249,0 -0.729196,0.12035 -0.202948,0.12035 -0.202948,0.41062 0,0.23126 0.151031,0.36813 0.153391,0.13452 0.415335,0.13452 0.361058,0 0.578165,-0.25487 0.219466,-0.25722 0.219466,-0.682 l 0,-0.0968 -0.431853,0 z m 0.866067,-0.17935 0,1.50795 -0.434214,0 0,-0.40118 q -0.148671,0.24071 -0.370497,0.35634 -0.221827,0.11327 -0.542767,0.11327 -0.405896,0 -0.646601,-0.22654 -0.238346,-0.22891 -0.238346,-0.6112 0,-0.44602 0.297342,-0.67256 0.299702,-0.22655 0.892026,-0.22655 l 0.608843,0 0,-0.0425 q 0,-0.2997 -0.198228,-0.46253 -0.195868,-0.16519 -0.552206,-0.16519 -0.226546,0 -0.441293,0.0543 -0.214747,0.0543 -0.412975,0.16283 l 0,-0.40118 q 0.238345,-0.092 0.462532,-0.13687 0.224186,-0.0472 0.436573,-0.0472 0.573445,0 0.856628,0.29734 0.283183,0.29735 0.283183,0.90147 z"
           style="font-size:4.83298731px;fill:#ffffff;fill-opacity:1;stroke-width:0.11599169;stroke-miterlimit:10;stroke-dasharray:none"
           id="path5920"
           inkscape:connector-curvature="0" />
      </g>
    </g>
    <g
       id="text6395"
       style="font-size:4.63020849px;opacity:1;fill:#ffffff;fill-opacity:1;stroke:none;stroke-width:0.2;stroke-miterlimit:10;stroke-dasharray:none;stroke-opacity:1"
       transform="translate(-0.57461034,-2.1166668)">
      <g
         style="font-size:3.30729175px;opacity:1;fill:#dd0000;fill-opacity:1;stroke:#ffffff;stroke-width:0.07937501;stroke-miterlimit:10;stroke-dasharray:none;stroke-opacity:1"
         id="text5203">
        <path
           d="m 1.9936127,203.97444 q -0.2131653,0 -0.3391266,0.15891 -0.1249924,0.1589 -0.1249924,0.43311 0,0.27324 0.1249924,0.43214 0.1259613,0.15891 0.3391266,0.15891 0.2131653,0 0.3371887,-0.15891 0.1249924,-0.1589 0.1249924,-0.43214 0,-0.27421 -0.1249924,-0.43311 -0.1240234,-0.15891 -0.3371887,-0.15891 z m 0.2742081,1.28771 0.2577362,0.28196 -0.2364197,0 -0.2141342,-0.23157 q -0.031975,0.002 -0.049416,0.003 -0.016472,9.7e-4 -0.031975,9.7e-4 -0.305214,0 -0.4883423,-0.20347 -0.1821595,-0.20445 -0.1821595,-0.54648 0,-0.343 0.1821595,-0.54648 0.1831283,-0.20444 0.4883423,-0.20444 0.304245,0 0.4864044,0.20444 0.1821595,0.20348 0.1821595,0.54648 0,0.25192 -0.101738,0.43117 -0.1007691,0.17926 -0.2926178,0.26452 z"
           style="font-size:1.98437512px;fill:#ffffff;fill-opacity:1;stroke:none;stroke-width:0.07937501"
           id="path5880"
           inkscape:connector-curvature="0" />
        <path
           d="m 2.9421983,204.86005 0,-0.65694 0.1782837,0 0,0.65015 q 0,0.15406 0.060074,0.23158 0.060074,0.0765 0.1802216,0.0765 0.1443711,0 0.2276993,-0.092 0.084297,-0.0921 0.084297,-0.25096 l 0,-0.61527 0.1782837,0 0,1.0852 -0.1782837,0 0,-0.16665 q -0.064919,0.0988 -0.1511536,0.14728 -0.085266,0.0475 -0.1986313,0.0475 -0.1870041,0 -0.2838974,-0.11627 -0.096893,-0.11627 -0.096893,-0.34009 z"
           style="font-size:1.98437512px;fill:#ffffff;fill-opacity:1;stroke:none;stroke-width:0.07937501"
           id="path5882"
           inkscape:connector-curvature="0" />
        <path
           d="m 4.7134082,204.74281 q -0.2160721,0 -0.2994004,0.0494 -0.083328,0.0494 -0.083328,0.1686 0,0.0949 0.062012,0.15115 0.062981,0.0552 0.1705322,0.0552 0.1482468,0 0.2373886,-0.10465 0.090111,-0.10561 0.090111,-0.28002 l 0,-0.0397 -0.1773147,0 z m 0.3555984,-0.0736 0,0.61914 -0.1782837,0 0,-0.16471 q -0.061043,0.0988 -0.1521225,0.14631 -0.09108,0.0465 -0.2228546,0.0465 -0.1666565,0 -0.2654877,-0.093 -0.097862,-0.094 -0.097862,-0.25096 0,-0.18313 0.1220855,-0.27614 0.1230545,-0.093 0.3662568,-0.093 l 0.2499847,0 0,-0.0174 q 0,-0.12306 -0.08139,-0.18991 -0.080421,-0.0678 -0.2267303,-0.0678 -0.093018,0 -0.1811905,0.0223 -0.088173,0.0223 -0.1695633,0.0668 l 0,-0.16471 q 0.097862,-0.0378 0.1899109,-0.0562 0.092049,-0.0194 0.1792526,-0.0194 0.2354508,0 0.3517227,0.12208 0.116272,0.12209 0.116272,0.37014 z"
           style="font-size:1.98437512px;fill:#ffffff;fill-opacity:1;stroke:none;stroke-width:0.07937501"
           id="path5884"
           inkscape:connector-curvature="0" />
        <path
           d="m 6.1551809,204.36783 0,-0.58718 0.1782837,0 0,1.50766 -0.1782837,0 0,-0.16278 q -0.056198,0.0969 -0.1424332,0.14438 -0.085266,0.0465 -0.2054138,0.0465 -0.1966935,0 -0.3207169,-0.15696 -0.1230545,-0.15697 -0.1230545,-0.41277 0,-0.2558 0.1230545,-0.41276 0.1240234,-0.15697 0.3207169,-0.15697 0.1201477,0 0.2054138,0.0475 0.086235,0.0465 0.1424332,0.1434 z m -0.6075211,0.37885 q 0,0.19669 0.080421,0.30909 0.08139,0.11143 0.2228547,0.11143 0.1414642,0 0.2228546,-0.11143 0.08139,-0.1124 0.08139,-0.30909 0,-0.19669 -0.08139,-0.30812 -0.08139,-0.1124 -0.2228546,-0.1124 -0.1414643,0 -0.2228547,0.1124 -0.080421,0.11143 -0.080421,0.30812 z"
           style="font-size:1.98437512px;fill:#ffffff;fill-opacity:1;stroke:none;stroke-width:0.07937501"
           id="path5886"
           inkscape:connector-curvature="0" />
        <path
           d="m 7.5359105,204.00254 0,0.54357 0.246109,0 q 0.1366196,0 0.2112275,-0.0707 0.074608,-0.0707 0.074608,-0.20154 0,-0.12984 -0.074608,-0.20057 -0.074608,-0.0707 -0.2112275,-0.0707 l -0.246109,0 z m -0.1957245,-0.16084 0.4418335,0 q 0.2432023,0 0.3672257,0.11046 0.1249924,0.10949 0.1249924,0.32168 0,0.21414 -0.1249924,0.32363 -0.1240234,0.10948 -0.3672257,0.10948 l -0.246109,0 0,0.58136 -0.1957245,0 0,-1.44661 z"
           style="font-size:1.98437512px;fill:#ffffff;fill-opacity:1;stroke:none;stroke-width:0.07937501"
           id="path5888"
           inkscape:connector-curvature="0" />
        <path
           d="m 8.8807897,204.3281 q -0.1434021,0 -0.2267304,0.1124 -0.083328,0.11143 -0.083328,0.30618 0,0.19476 0.082359,0.30715 0.083328,0.11143 0.2276993,0.11143 0.1424331,0 0.2257614,-0.1124 0.083328,-0.11239 0.083328,-0.30618 0,-0.19282 -0.083328,-0.30521 -0.083328,-0.11337 -0.2257614,-0.11337 z m 0,-0.15115 q 0.2325439,0 0.3652878,0.15115 0.1327438,0.15116 0.1327438,0.41858 0,0.26646 -0.1327438,0.41858 -0.1327439,0.15115 -0.3652878,0.15115 -0.2335129,0 -0.3662568,-0.15115 -0.1317749,-0.15212 -0.1317749,-0.41858 0,-0.26742 0.1317749,-0.41858 0.1327439,-0.15115 0.3662568,-0.15115 z"
           style="font-size:1.98437512px;fill:#ffffff;fill-opacity:1;stroke:none;stroke-width:0.07937501"
           id="path5890"
           inkscape:connector-curvature="0" />
        <path
           d="m 9.6733774,203.78065 0.1782837,0 0,1.50766 -0.1782837,0 0,-1.50766 z"
           style="font-size:1.98437512px;fill:#ffffff;fill-opacity:1;stroke:none;stroke-width:0.07937501"
           id="path5892"
           inkscape:connector-curvature="0" />
        <path
           d="m 10.716918,204.74281 q -0.216072,0 -0.2994,0.0494 -0.08333,0.0494 -0.08333,0.1686 0,0.0949 0.06201,0.15115 0.06298,0.0552 0.170532,0.0552 0.148247,0 0.237388,-0.10465 0.09011,-0.10561 0.09011,-0.28002 l 0,-0.0397 -0.177315,0 z m 0.355599,-0.0736 0,0.61914 -0.178284,0 0,-0.16471 q -0.06104,0.0988 -0.152122,0.14631 -0.09108,0.0465 -0.222855,0.0465 -0.166656,0 -0.265488,-0.093 -0.09786,-0.094 -0.09786,-0.25096 0,-0.18313 0.122086,-0.27614 0.123054,-0.093 0.366256,-0.093 l 0.249985,0 0,-0.0174 q 0,-0.12306 -0.08139,-0.18991 -0.08042,-0.0678 -0.226731,-0.0678 -0.09302,0 -0.18119,0.0223 -0.08817,0.0223 -0.169563,0.0668 l 0,-0.16471 q 0.09786,-0.0378 0.189911,-0.0562 0.09205,-0.0194 0.179252,-0.0194 0.235451,0 0.351723,0.12208 0.116272,0.12209 0.116272,0.37014 z"
           style="font-size:1.98437512px;fill:#ffffff;fill-opacity:1;stroke:none;stroke-width:0.07937501"
           id="path5894"
           inkscape:connector-curvature="0" />
        <path
           d="m 12.073425,204.36977 q -0.03004,-0.0174 -0.06589,-0.0252 -0.03488,-0.009 -0.07751,-0.009 -0.151154,0 -0.232544,0.0988 -0.08042,0.0979 -0.08042,0.28196 l 0,0.57167 -0.179252,0 0,-1.0852 0.179252,0 0,0.16859 q 0.0562,-0.0988 0.146309,-0.1463 0.09011,-0.0485 0.218979,-0.0485 0.01841,0 0.04069,0.003 0.02229,0.002 0.04942,0.007 l 9.69e-4,0.18313 z"
           style="font-size:1.98437512px;fill:#ffffff;fill-opacity:1;stroke:none;stroke-width:0.07937501"
           id="path5896"
           inkscape:connector-curvature="0" />
        <path
           d="m 12.262367,204.20311 0.178283,0 0,1.0852 -0.178283,0 0,-1.0852 z m 0,-0.42246 0.178283,0 0,0.22577 -0.178283,0 0,-0.22577 z"
           style="font-size:1.98437512px;fill:#ffffff;fill-opacity:1;stroke:none;stroke-width:0.07937501"
           id="path5898"
           inkscape:connector-curvature="0" />
        <path
           d="m 12.735206,204.20311 0.846848,0 0,0.16278 -0.670502,0.77999 0.670502,0 0,0.14243 -0.871071,0 0,-0.16278 0.670501,-0.77999 -0.646278,0 0,-0.14243 z"
           style="font-size:1.98437512px;fill:#ffffff;fill-opacity:1;stroke:none;stroke-width:0.07937501"
           id="path5900"
           inkscape:connector-curvature="0" />
        <path
           d="m 14.783531,204.70114 0,0.0872 -0.819718,0 q 0.01163,0.18409 0.110459,0.28099 0.0998,0.0959 0.277114,0.0959 0.102707,0 0.198632,-0.0252 0.09689,-0.0252 0.191849,-0.0756 l 0,0.1686 q -0.09592,0.0407 -0.196694,0.062 -0.100769,0.0213 -0.204445,0.0213 -0.259674,0 -0.411796,-0.15115 -0.151154,-0.15115 -0.151154,-0.40889 0,-0.26646 0.143402,-0.42245 0.144371,-0.15697 0.388542,-0.15697 0.218979,0 0.345909,0.14146 0.1279,0.1405 0.1279,0.38273 z m -0.178284,-0.0523 q -0.0019,-0.14631 -0.08236,-0.23351 -0.07945,-0.0872 -0.211228,-0.0872 -0.149215,0 -0.239326,0.0843 -0.08914,0.0843 -0.102707,0.23739 l 0.63562,-9.7e-4 z"
           style="font-size:1.98437512px;fill:#ffffff;fill-opacity:1;stroke:none;stroke-width:0.07937501"
           id="path5902"
           inkscape:connector-curvature="0" />
        <path
           d="m 15.70111,204.36977 q -0.03004,-0.0174 -0.06589,-0.0252 -0.03488,-0.009 -0.07752,-0.009 -0.151153,0 -0.232544,0.0988 -0.08042,0.0979 -0.08042,0.28196 l 0,0.57167 -0.179253,0 0,-1.0852 0.179253,0 0,0.16859 q 0.0562,-0.0988 0.146309,-0.1463 0.09011,-0.0485 0.218979,-0.0485 0.01841,0 0.0407,0.003 0.02229,0.002 0.04941,0.007 l 9.69e-4,0.18313 z"
           style="font-size:1.98437512px;fill:#ffffff;fill-opacity:1;stroke:none;stroke-width:0.07937501"
           id="path5904"
           inkscape:connector-curvature="0" />
      </g>
    </g>
    <g
       style="font-size:2.64583373px;opacity:1;fill:#ffffff;fill-opacity:1;stroke:none;stroke-width:0.05291667;stroke-miterlimit:4;stroke-dasharray:none;stroke-opacity:1"
       id="text6536"
       transform="translate(-0.13039149,-1.1002393)">
      <path
         d="m 1.7633636,214.97071 0.2609661,0 0,1.92883 -0.2609661,0 0,-1.92883 z"
         style="font-size:2.64583373px;fill:#ffffff;fill-opacity:1;stroke:none;stroke-width:0.05291667;stroke-miterlimit:4;stroke-dasharray:none"
         id="path6648"
         inkscape:connector-curvature="0" />
      <path
         d="m 2.5436779,214.97071 0.3513998,0 0.8552451,1.6136 0,-1.6136 0.2532145,0 0,1.92883 -0.3513998,0 -0.855245,-1.6136 0,1.6136 -0.2532146,0 0,-1.92883 z"
         style="font-size:2.64583373px;fill:#ffffff;fill-opacity:1;stroke:none;stroke-width:0.05291667;stroke-miterlimit:4;stroke-dasharray:none"
         id="path6650"
         inkscape:connector-curvature="0" />
    </g>
    <g
       style="font-size:2.64583373px;opacity:1;fill:#ffffff;fill-opacity:1;stroke:none;stroke-width:0.2;stroke-miterlimit:4;stroke-dasharray:none;stroke-opacity:1"
       id="text6540"
       transform="translate(-0.13039149,-1.1002393)">
      <path
         d="m 1.7633636,235.74374 0.2609661,0 0,1.92882 -0.2609661,0 0,-1.92882 z"
         id="path6643"
         inkscape:connector-curvature="0" />
      <path
         d="m 2.5436779,235.74374 0.3513998,0 0.8552451,1.6136 0,-1.6136 0.2532145,0 0,1.92882 -0.3513998,0 -0.855245,-1.6136 0,1.6136 -0.2532146,0 0,-1.92882 z"
         id="path6645"
         inkscape:connector-curvature="0" />
    </g>
    <g
       style="font-size:2.64583373px;opacity:1;fill:#ffffff;fill-opacity:1;stroke:none;stroke-width:0.2;stroke-miterlimit:4;stroke-dasharray:none;stroke-opacity:1"
       id="text6544"
       transform="translate(-0.13039149,-0.57107251)">
      <path
         d="m 1.7633636,255.45848 0.2609661,0 0,1.92882 -0.2609661,0 0,-1.92882 z"
         id="path6638"
         inkscape:connector-curvature="0" />
      <path
         d="m 2.5436779,255.45848 0.3513998,0 0.8552451,1.61359 0,-1.61359 0.2532145,0 0,1.92882 -0.3513998,0 -0.855245,-1.6136 0,1.6136 -0.2532146,0 0,-1.92882 z"
         id="path6640"
         inkscape:connector-curvature="0" />
    </g>
    <g
       style="font-size:2.64583373px;opacity:1;fill:#ffffff;fill-opacity:1;stroke:none;stroke-width:0.2;stroke-miterlimit:4;stroke-dasharray:none;stroke-opacity:1"
       id="text6548"
       transform="translate(-0.13039149,-0.04190576)">
      <path
         d="m 1.7633636,275.70234 0.2609661,0 0,1.92882 -0.2609661,0 0,-1.92882 z"
         id="path6633"
         inkscape:connector-curvature="0" />
      <path
         d="m 2.5436779,275.70234 0.3513998,0 0.8552451,1.6136 0,-1.6136 0.2532145,0 0,1.92882 -0.3513998,0 -0.855245,-1.61359 0,1.61359 -0.2532146,0 0,-1.92882 z"
         id="path6635"
         inkscape:connector-curvature="0" />
    </g>
    <g
       style="font-size:2.64583373px;opacity:1;fill:#ffffff;fill-opacity:1;stroke:none;stroke-width:0.2;stroke-miterlimit:4;stroke-dasharray:none;stroke-opacity:1"
       id="text6552"
       transform="translate(-1.1641067,-0.57107215)">
      <path
         d="m 8.5858732,223.30652 0,0.27518 q -0.1317749,-0.12273 -0.2816366,-0.18345 -0.1485697,-0.0607 -0.3165182,-0.0607 -0.3307292,0 -0.5064291,0.20283 -0.1756999,0.20154 -0.1756999,0.58394 0,0.38112 0.1756999,0.58395 0.1756999,0.20153 0.5064291,0.20153 0.1679485,0 0.3165182,-0.0607 0.1498617,-0.0607 0.2816366,-0.18346 l 0,0.2726 q -0.1369425,0.093 -0.29068,0.13952 -0.1524454,0.0465 -0.3229777,0.0465 -0.4379578,0 -0.6898805,-0.26742 -0.2519226,-0.26872 -0.2519226,-0.73252 0,-0.46508 0.2519226,-0.73251 0.2519227,-0.26872 0.6898805,-0.26872 0.1731161,0 0.3255616,0.0465 0.1537374,0.0452 0.2880961,0.13694 z"
         id="path6628"
         inkscape:connector-curvature="0" />
      <path
         d="m 9.4889191,225.08678 -0.7363893,-1.92883 0.2725932,0 0.6110739,1.62394 0.6123661,-1.62394 0.271301,0 -0.7350973,1.92883 -0.2958476,0 z"
         id="path6630"
         inkscape:connector-curvature="0" />
    </g>
    <g
       style="font-size:2.64583373px;opacity:1;fill:#ffffff;fill-opacity:1;stroke:none;stroke-width:0.2;stroke-miterlimit:4;stroke-dasharray:none;stroke-opacity:1"
       id="text6556"
       transform="translate(-1.1641067,-0.57107215)">
      <path
         d="m 8.5858732,244.57319 0,0.27517 q -0.1317749,-0.12273 -0.2816366,-0.18345 -0.1485697,-0.0607 -0.3165182,-0.0607 -0.3307292,0 -0.5064291,0.20283 -0.1756999,0.20154 -0.1756999,0.58395 0,0.38111 0.1756999,0.58394 0.1756999,0.20154 0.5064291,0.20154 0.1679485,0 0.3165182,-0.0607 0.1498617,-0.0607 0.2816366,-0.18345 l 0,0.27259 q -0.1369425,0.093 -0.29068,0.13953 -0.1524454,0.0465 -0.3229777,0.0465 -0.4379578,0 -0.6898805,-0.26742 -0.2519226,-0.26872 -0.2519226,-0.73251 0,-0.46509 0.2519226,-0.73252 0.2519227,-0.26872 0.6898805,-0.26872 0.1731161,0 0.3255616,0.0465 0.1537374,0.0452 0.2880961,0.13695 z"
         id="path6623"
         inkscape:connector-curvature="0" />
      <path
         d="m 9.4889191,246.35344 -0.7363893,-1.92882 0.2725932,0 0.6110739,1.62393 0.6123661,-1.62393 0.271301,0 -0.7350973,1.92882 -0.2958476,0 z"
         id="path6625"
         inkscape:connector-curvature="0" />
    </g>
    <g
       style="font-size:2.64583373px;opacity:1;fill:#ffffff;fill-opacity:1;stroke:none;stroke-width:0.2;stroke-miterlimit:4;stroke-dasharray:none;stroke-opacity:1"
       id="text6560"
       transform="translate(-1.1641067,-0.57107215)">
      <path
         d="m 8.5858732,264.78164 0,0.27517 q -0.1317749,-0.12273 -0.2816366,-0.18345 -0.1485697,-0.0607 -0.3165182,-0.0607 -0.3307292,0 -0.5064291,0.20283 -0.1756999,0.20154 -0.1756999,0.58395 0,0.38111 0.1756999,0.58394 0.1756999,0.20154 0.5064291,0.20154 0.1679485,0 0.3165182,-0.0607 0.1498617,-0.0607 0.2816366,-0.18345 l 0,0.27259 q -0.1369425,0.093 -0.29068,0.13953 -0.1524454,0.0465 -0.3229777,0.0465 -0.4379578,0 -0.6898805,-0.26743 -0.2519226,-0.26872 -0.2519226,-0.73251 0,-0.46509 0.2519226,-0.73252 0.2519227,-0.26872 0.6898805,-0.26872 0.1731161,0 0.3255616,0.0465 0.1537374,0.0452 0.2880961,0.13695 z"
         id="path6618"
         inkscape:connector-curvature="0" />
      <path
         d="m 9.4889191,266.56189 -0.7363893,-1.92882 0.2725932,0 0.6110739,1.62393 0.6123661,-1.62393 0.271301,0 -0.7350973,1.92882 -0.2958476,0 z"
         id="path6620"
         inkscape:connector-curvature="0" />
    </g>
    <g
       style="font-size:2.64583373px;opacity:1;fill:#ffffff;fill-opacity:1;stroke:none;stroke-width:0.2;stroke-miterlimit:4;stroke-dasharray:none;stroke-opacity:1"
       id="text6564"
       transform="translate(-1.1641067,1.5455947)">
      <path
         d="m 8.5858732,283.40249 0,0.27517 q -0.1317749,-0.12273 -0.2816366,-0.18345 -0.1485697,-0.0607 -0.3165182,-0.0607 -0.3307292,0 -0.5064291,0.20283 -0.1756999,0.20154 -0.1756999,0.58395 0,0.38111 0.1756999,0.58394 0.1756999,0.20154 0.5064291,0.20154 0.1679485,0 0.3165182,-0.0607 0.1498617,-0.0607 0.2816366,-0.18345 l 0,0.27259 q -0.1369425,0.093 -0.29068,0.13953 -0.1524454,0.0465 -0.3229777,0.0465 -0.4379578,0 -0.6898805,-0.26742 -0.2519226,-0.26872 -0.2519226,-0.73251 0,-0.46509 0.2519226,-0.73252 0.2519227,-0.26872 0.6898805,-0.26872 0.1731161,0 0.3255616,0.0465 0.1537374,0.0452 0.2880961,0.13695 z"
         id="path6613"
         inkscape:connector-curvature="0" />
      <path
         d="m 9.4889191,285.18274 -0.7363893,-1.92882 0.2725932,0 0.6110739,1.62393 0.6123661,-1.62393 0.271301,0 -0.7350973,1.92882 -0.2958476,0 z"
         id="path6615"
         inkscape:connector-curvature="0" />
    </g>
  </g>
  <g
     inkscape:groupmode="layer"
     id="layer3"
     inkscape:label="widgets"
     style="display:none">
    <rect
       style="display:inline;opacity:1;fill:#ff0200;fill-opacity:1;stroke:none;stroke-width:1;stroke-miterlimit:4;stroke-dasharray:none;stroke-opacity:1"
       id="rect5091"
       width="5.6426449"
       height="5.5571499"
       x="22.004379"
       y="51.120346" />
    <rect
       style="display:inline;opacity:1;fill:#00ff00;fill-opacity:1;stroke:none;stroke-width:1;stroke-miterlimit:4;stroke-dasharray:none;stroke-opacity:1"
       id="rect5093"
       width="5.2151713"
       height="5.2151713"
       x="22.084158"
       y="45.009415" />
    <rect
       style="display:inline;opacity:1;fill:#0000ff;fill-opacity:1;stroke:none;stroke-width:1;stroke-miterlimit:4;stroke-dasharray:none;stroke-opacity:1"
       id="rect4969"
       width="5.3861609"
       height="5.3861609"
       x="22.38339"
       y="83.223175" />
    <rect
       style="display:inline;opacity:1;fill:#00ff00;fill-opacity:1;stroke:none;stroke-width:1;stroke-miterlimit:4;stroke-dasharray:none;stroke-opacity:1"
       id="rect4975"
       width="5.3546834"
       height="5.5909305"
       x="2.3290534"
       y="75.108711" />
    <rect
       style="display:inline;opacity:1;fill:#00ff00;fill-opacity:1;stroke:none;stroke-width:1;stroke-miterlimit:4;stroke-dasharray:none;stroke-opacity:1"
       id="rect4979"
       width="5.5571499"
       height="5.5571499"
       x="2.4403408"
       y="44.95977" />
    <rect
       style="display:inline;opacity:1;fill:#00ff00;fill-opacity:1;stroke:none;stroke-width:1;stroke-miterlimit:4;stroke-dasharray:none;stroke-opacity:1"
       id="rect4981"
       width="5.7281394"
       height="5.7281394"
       x="11.818956"
       y="44.461246" />
    <rect
       style="display:inline;opacity:1;fill:#00ff00;fill-opacity:1;stroke:none;stroke-width:1;stroke-miterlimit:4;stroke-dasharray:none;stroke-opacity:1"
       id="rect4983"
       width="5.8136339"
       height="5.8136339"
       x="21.57119"
       y="27.209215" />
    <rect
       style="display:inline;opacity:1;fill:#00ff00;fill-opacity:1;stroke:none;stroke-width:1;stroke-miterlimit:4;stroke-dasharray:none;stroke-opacity:1"
       id="rect4989"
       width="5.5571499"
       height="5.5571499"
       x="12.466015"
       y="27.43049" />
    <rect
       style="display:inline;opacity:1;fill:#00ff00;fill-opacity:1;stroke:none;stroke-width:1;stroke-miterlimit:4;stroke-dasharray:none;stroke-opacity:1"
       id="rect4991"
       width="5.3006663"
       height="5.3006663"
       x="2.3290534"
       y="17.041332" />
    <rect
       style="display:inline;opacity:1;fill:#00ff00;fill-opacity:1;stroke:none;stroke-width:1;stroke-miterlimit:4;stroke-dasharray:none;stroke-opacity:1"
       id="rect5041"
       width="5.7281394"
       height="5.7281394"
       x="2.7565265"
       y="27.470434" />
    <rect
       style="display:inline;opacity:1;fill:#ff0000;fill-opacity:1;stroke:none;stroke-width:1;stroke-miterlimit:4;stroke-dasharray:none;stroke-opacity:1"
       id="rect5043"
       width="5.7281394"
       height="5.7281394"
       x="2.7565265"
       y="34.256905" />
    <rect
       style="display:inline;opacity:1;fill:#ff0000;fill-opacity:1;stroke:none;stroke-width:1;stroke-miterlimit:4;stroke-dasharray:none;stroke-opacity:1"
       id="rect5045"
       width="5.0441828"
       height="5.3861609"
       x="12.722499"
       y="34.045975" />
    <rect
       style="display:inline;opacity:1;fill:#ff0000;fill-opacity:1;stroke:none;stroke-width:1;stroke-miterlimit:4;stroke-dasharray:none;stroke-opacity:1"
       id="rect5047"
       width="5.3861609"
       height="5.3861609"
       x="21.784927"
       y="34.081181" />
    <rect
       style="display:inline;opacity:1;fill:#ff0000;fill-opacity:1;stroke:none;stroke-width:1;stroke-miterlimit:4;stroke-dasharray:none;stroke-opacity:1"
       id="rect5049"
       width="5.4716558"
       height="5.4716558"
       x="12.20437"
       y="51.205566" />
    <rect
       style="display:inline;opacity:1;fill:#ff0000;fill-opacity:1;stroke:none;stroke-width:1;stroke-miterlimit:4;stroke-dasharray:none;stroke-opacity:1"
       id="rect5053"
       width="5.3006663"
       height="5.4716558"
       x="12.046068"
       y="77.941887" />
    <rect
       style="display:inline;opacity:1;fill:#00ff00;fill-opacity:1;stroke:none;stroke-width:1;stroke-miterlimit:4;stroke-dasharray:none;stroke-opacity:1"
       id="rect4923"
       width="5.6426449"
       height="5.4586453"
       x="2.3290534"
       y="83.479645" />
    <rect
       style="display:inline;opacity:1;fill:#ff0000;fill-opacity:1;stroke:none;stroke-width:1;stroke-miterlimit:4;stroke-dasharray:none;stroke-opacity:1"
       id="rect4945"
       width="5.2151713"
       height="5.2151713"
       x="10.15766"
       y="17.126818" />
    <rect
       style="display:inline;opacity:1;fill:#0000ff;fill-opacity:1;stroke:none;stroke-width:1;stroke-miterlimit:4;stroke-dasharray:none;stroke-opacity:1"
       id="rect4947"
       width="5.6302543"
       height="5.4716554"
       x="22.38339"
       y="74.894981" />
    <rect
       style="display:inline;opacity:1;fill:#00ff00;fill-opacity:1;stroke:none;stroke-width:1;stroke-miterlimit:4;stroke-dasharray:none;stroke-opacity:1"
       id="rect5332"
       width="5.4716558"
       height="5.4716558"
       x="2.2228601"
       y="10.316954" />
  </g>
</svg>
