<?xml version="1.0" encoding="UTF-8" standalone="no"?>
<svg
   xmlns:dc="http://purl.org/dc/elements/1.1/"
   xmlns:cc="http://creativecommons.org/ns#"
   xmlns:rdf="http://www.w3.org/1999/02/22-rdf-syntax-ns#"
   xmlns:svg="http://www.w3.org/2000/svg"
   xmlns="http://www.w3.org/2000/svg"
   id="svg50"
   height="379.42913385826773"
   width="90.0"
   version="1.1">
  <metadata
     id="metadata56">
    <rdf:RDF>
      <cc:Work
         rdf:about="">
        <dc:format>image/svg+xml</dc:format>
        <dc:type
           rdf:resource="http://purl.org/dc/dcmitype/StillImage" />
      </cc:Work>
    </rdf:RDF>
  </metadata>
  <defs
     id="defs54" />
  <g
     id="g48"
     transform="scale(2.9527559)">
    <path
       id="rect2"
       d="M 0,0 H 30.48 V 128.5 H 0 Z"
       style="fill:#fffff0;stroke:#4d4d00;stroke-width:1" />
    <g
       id="text4"
       style="font-weight:bold;font-size:4.06400013px;font-family:'Proxima Nova';dominant-baseline:alphabetic;text-anchor:middle;fill:#4d4d00"
       aria-label="RANGER">
      <path
         id="path59"
         style="font-weight:bold;font-size:4.06400013px;font-family:'Proxima Nova';dominant-baseline:alphabetic;text-anchor:middle;fill:#4d4d00"
         d="m 8.9083828,9 h 0.662432 l -0.6096,-1.032256 c 0.292608,-0.069088 0.593344,-0.32512 0.593344,-0.8046721 0,-0.503936 -0.34544,-0.87376 -0.910336,-0.87376 H 7.3762548 V 9 h 0.577088 V 8.036832 h 0.422656 z m 0.056896,-1.8369281 c 0,0.227584 -0.174752,0.3657601 -0.4064,0.3657601 H 7.9533428 V 6.7973119 h 0.605536 c 0.231648,0 0.4064,0.138176 0.4064,0.36576 z" />
      <path
         id="path61"
         style="font-weight:bold;font-size:4.06400013px;font-family:'Proxima Nova';dominant-baseline:alphabetic;text-anchor:middle;fill:#4d4d00"
         d="M 11.857132,9 H 12.5155 L 11.471052,6.2893119 H 10.74766 L 9.6991483,9 h 0.6583677 l 0.170688,-0.459232 h 1.162304 z M 11.109356,6.8663999 11.532012,8.032768 H 10.6867 Z" />
      <path
         id="path63"
         style="font-weight:bold;font-size:4.06400013px;font-family:'Proxima Nova';dominant-baseline:alphabetic;text-anchor:middle;fill:#4d4d00"
         d="m 14.635257,9 h 0.556768 V 6.2893119 H 14.614937 V 7.992128 L 13.359161,6.2893119 H 12.765817 V 9 h 0.577088 V 7.2321599 Z" />
      <path
         id="path65"
         style="font-weight:bold;font-size:4.06400013px;font-family:'Proxima Nova';dominant-baseline:alphabetic;text-anchor:middle;fill:#4d4d00"
         d="m 15.596457,7.646688 c 0,0.85344 0.65024,1.406144 1.44272,1.406144 0.491744,0 0.877824,-0.2032 1.154176,-0.512064 V 7.500384 H 16.901001 V 8.00432 h 0.715264 v 0.32512 c -0.109728,0.1016 -0.337312,0.207264 -0.577088,0.207264 -0.491744,0 -0.849376,-0.377952 -0.849376,-0.890016 0,-0.5120641 0.357632,-0.8900161 0.849376,-0.8900161 0.288544,0 0.520192,0.16256 0.642112,0.353568 l 0.479552,-0.260096 c -0.2032,-0.321056 -0.556768,-0.605536 -1.121664,-0.605536 -0.79248,0 -1.44272,0.544576 -1.44272,1.4020801 z" />
      <path
         id="path67"
         style="font-weight:bold;font-size:4.06400013px;font-family:'Proxima Nova';dominant-baseline:alphabetic;text-anchor:middle;fill:#4d4d00"
         d="m 18.655443,9 h 1.918208 V 8.492 h -1.34112 V 7.878336 h 1.312672 V 7.3703359 h -1.312672 v -0.573024 h 1.34112 v -0.508 h -1.918208 z" />
      <path
         id="path69"
         style="font-weight:bold;font-size:4.06400013px;font-family:'Proxima Nova';dominant-baseline:alphabetic;text-anchor:middle;fill:#4d4d00"
         d="m 22.560883,9 h 0.662432 l -0.6096,-1.032256 c 0.292608,-0.069088 0.593344,-0.32512 0.593344,-0.8046721 0,-0.503936 -0.34544,-0.87376 -0.910336,-0.87376 H 21.028755 V 9 h 0.577088 V 8.036832 h 0.422656 z m 0.0569,-1.8369281 c 0,0.227584 -0.174752,0.3657601 -0.4064,0.3657601 H 21.605843 V 6.7973119 h 0.605536 c 0.231648,0 0.4064,0.138176 0.4064,0.36576 z" />
    </g>
    <g
       id="text6"
       style="font-weight:bold;font-size:4.06400013px;font-family:'Proxima Nova';dominant-baseline:hanging;text-anchor:middle;fill:#4d4d00"
       aria-label="DHE">
      <path
         id="path72"
         style="font-weight:bold;font-size:4.06400013px;font-family:'Proxima Nova';dominant-baseline:hanging;text-anchor:middle;fill:#4d4d00"
         d="m 11.376755,122.06845 h 1.068832 c 0.849376,0 1.438656,-0.53645 1.438656,-1.35331 0,-0.81687 -0.58928,-1.35738 -1.438656,-1.35738 h -1.068832 z m 0.577088,-0.508 v -1.69469 h 0.491744 c 0.556768,0 0.849376,0.36982 0.849376,0.84938 0,0.45923 -0.312928,0.84531 -0.849376,0.84531 z" />
      <path
         id="path74"
         style="font-weight:bold;font-size:4.06400013px;font-family:'Proxima Nova';dominant-baseline:hanging;text-anchor:middle;fill:#4d4d00"
         d="m 16.155003,122.06845 h 0.581152 v -2.71069 h -0.581152 v 1.06477 h -1.28016 v -1.06477 h -0.577088 v 2.71069 h 0.577088 v -1.13792 h 1.28016 z" />
      <path
         id="path76"
         style="font-weight:bold;font-size:4.06400013px;font-family:'Proxima Nova';dominant-baseline:hanging;text-anchor:middle;fill:#4d4d00"
         d="m 17.26638,122.06845 h 1.918208 v -0.508 h -1.34112 v -0.61367 h 1.312672 v -0.508 h -1.312672 v -0.57302 h 1.34112 v -0.508 H 17.26638 Z" />
    </g>
    <g
       id="text8"
       style="font-weight:bold;font-size:2.37066674px;font-family:'Proxima Nova';dominant-baseline:alphabetic;text-anchor:middle;fill:#4d4d00"
       aria-label="LEVEL">
      <path
         id="path79"
         style="font-weight:bold;font-size:2.37066674px;font-family:'Proxima Nova';dominant-baseline:alphabetic;text-anchor:middle;fill:#4d4d00"
         d="M 5.7627538,18 H 6.7679165 V 17.703667 H 6.0993884 V 16.418765 H 5.7627538 Z" />
      <path
         id="path81"
         style="font-weight:bold;font-size:2.37066674px;font-family:'Proxima Nova';dominant-baseline:alphabetic;text-anchor:middle;fill:#4d4d00"
         d="m 7.0036496,18 h 1.1189547 v -0.296333 h -0.78232 V 17.345696 H 8.1060097 V 17.049363 H 7.3402843 v -0.334264 h 0.78232 V 16.418765 H 7.0036496 Z" />
      <path
         id="path83"
         style="font-weight:bold;font-size:2.37066674px;font-family:'Proxima Nova';dominant-baseline:alphabetic;text-anchor:middle;fill:#4d4d00"
         d="M 8.8313965,18 H 9.2533752 L 9.8626365,16.418765 H 9.4785885 L 9.0423858,17.634917 8.6038125,16.418765 h -0.384048 z" />
      <path
         id="path85"
         style="font-weight:bold;font-size:2.37066674px;font-family:'Proxima Nova';dominant-baseline:alphabetic;text-anchor:middle;fill:#4d4d00"
         d="m 10.008655,18 h 1.118955 v -0.296333 h -0.78232 v -0.357971 h 0.765725 V 17.049363 H 10.34529 v -0.334264 h 0.78232 v -0.296334 h -1.118955 z" />
      <path
         id="path87"
         style="font-weight:bold;font-size:2.37066674px;font-family:'Proxima Nova';dominant-baseline:alphabetic;text-anchor:middle;fill:#4d4d00"
         d="M 11.393087,18 H 12.39825 V 17.703667 H 11.729722 V 16.418765 H 11.393087 Z" />
    </g>
    <path
       id="rect10"
       d="m 17.063095,16.044556 h 8.75 c 0.554,0 1,0.446 1,1 V 28.375 c 0,0.554 -0.446,1 -1,1 h -8.75 c -0.554,0 -1,-0.446 -1,-1 V 17.044556 c 0,-0.554 0.446,-1 1,-1 z"
       style="fill:#4d4d00;stroke:#4d4d00;stroke-width:0.34999999" />
    <g
       id="text12"
       style="font-weight:bold;font-size:2.37066674px;font-family:'Proxima Nova';dominant-baseline:alphabetic;text-anchor:middle;fill:#fffff0"
       aria-label="OUT">
      <path
         id="path91"
         style="font-weight:bold;font-size:2.37066674px;font-family:'Proxima Nova';dominant-baseline:alphabetic;text-anchor:middle;fill:#fffff0"
         d="m 19.053112,18.010567 c 0,0.476504 0.348488,0.81788 0.824992,0.81788 0.478874,0 0.827362,-0.341376 0.827362,-0.81788 0,-0.476504 -0.348488,-0.81788 -0.827362,-0.81788 -0.476504,0 -0.824992,0.341376 -0.824992,0.81788 z m 1.306237,0 c 0,0.293963 -0.189653,0.519176 -0.481245,0.519176 -0.291592,0 -0.478875,-0.225213 -0.478875,-0.519176 0,-0.296333 0.187283,-0.519176 0.478875,-0.519176 0.291592,0 0.481245,0.222843 0.481245,0.519176 z" />
      <path
         id="path93"
         style="font-weight:bold;font-size:2.37066674px;font-family:'Proxima Nova';dominant-baseline:alphabetic;text-anchor:middle;fill:#fffff0"
         d="m 20.944015,18.169402 c 0,0.388789 0.232325,0.659045 0.713571,0.659045 0.481245,0 0.71357,-0.267885 0.71357,-0.661416 V 17.218765 H 22.02741 v 0.938784 c 0,0.220472 -0.125646,0.372194 -0.369824,0.372194 -0.244179,0 -0.372195,-0.151722 -0.372195,-0.372194 v -0.938784 h -0.341376 z" />
      <path
         id="path95"
         style="font-weight:bold;font-size:2.37066674px;font-family:'Proxima Nova';dominant-baseline:alphabetic;text-anchor:middle;fill:#fffff0"
         d="m 23.045426,18.799999 h 0.339005 v -1.284901 h 0.459909 v -0.296333 h -1.261194 v 0.296333 h 0.46228 z" />
    </g>
    <g
       id="text14"
       style="font-weight:bold;font-size:2.37066674px;font-family:'Proxima Nova';dominant-baseline:alphabetic;text-anchor:middle;fill:#4d4d00"
       aria-label="CV">
      <path
         id="path98"
         style="font-weight:bold;font-size:2.37066674px;font-family:'Proxima Nova';dominant-baseline:alphabetic;text-anchor:middle;fill:#4d4d00"
         d="m 8.3435208,34.828447 c 0.3484881,0 0.5476241,-0.192024 0.6614161,-0.388789 L 8.7157155,34.299789 c -0.066379,0.130386 -0.2086187,0.229954 -0.3721947,0.229954 -0.2868506,0 -0.4954693,-0.220472 -0.4954693,-0.519176 0,-0.298704 0.2086187,-0.519176 0.4954693,-0.519176 0.163576,0 0.3058161,0.101939 0.3721947,0.229955 l 0.2892214,-0.14224 c -0.1114214,-0.196765 -0.312928,-0.386419 -0.6614161,-0.386419 -0.4741333,0 -0.8415866,0.331894 -0.8415866,0.81788 0,0.485987 0.3674533,0.81788 0.8415866,0.81788 z" />
      <path
         id="path100"
         style="font-weight:bold;font-size:2.37066674px;font-family:'Proxima Nova';dominant-baseline:alphabetic;text-anchor:middle;fill:#4d4d00"
         d="m 9.6416831,34.799999 h 0.4219789 l 0.609261,-1.581234 H 10.288875 L 9.8526724,34.434917 9.4140991,33.218765 h -0.384048 z" />
    </g>
    <g
       id="text18"
       style="font-weight:bold;font-size:3.0480001px;font-family:'Proxima Nova';dominant-baseline:alphabetic;text-anchor:middle;fill:#4d4d00"
       aria-label="-  +">
      <path
         id="path103"
         style="font-size:larger"
         d="m 19.140379,34.812371 h 0.877824 V 34.41735 h -0.877824 z" />
      <path
         id="path105"
         style="font-size:larger"
         d="m 23.085101,34.410035 h 0.654711 v -0.28895 H 23.085101 V 33.407853 H 22.76689 v 0.713232 h -0.658368 v 0.28895 h 0.658368 v 0.742493 h 0.318211 z" />
    </g>
    <path
       id="line20"
       d="M 0,48 H 30.48"
       style="stroke:#4d4d00;stroke-width:0.34999999" />
    <g
       id="text22"
       style="font-weight:bold;font-size:2.37066674px;font-family:'Proxima Nova';dominant-baseline:alphabetic;text-anchor:middle;fill:#4d4d00"
       aria-label="LIMIT">
      <path
         id="path109"
         style="font-weight:bold;font-size:2.37066674px;font-family:'Proxima Nova';dominant-baseline:alphabetic;text-anchor:middle;fill:#4d4d00"
         d="M 6.2257746,54 H 7.2309373 V 53.703667 H 6.5624093 V 52.418765 H 6.2257746 Z" />
      <path
         id="path111"
         style="font-weight:bold;font-size:2.37066674px;font-family:'Proxima Nova';dominant-baseline:alphabetic;text-anchor:middle;fill:#4d4d00"
         d="M 7.4666705,54 H 7.8033052 V 52.418765 H 7.4666705 Z" />
      <path
         id="path113"
         style="font-weight:bold;font-size:2.37066674px;font-family:'Proxima Nova';dominant-baseline:alphabetic;text-anchor:middle;fill:#4d4d00"
         d="M 9.4898864,54 H 9.8288918 V 52.418765 H 9.3547584 l -0.384048,0.955379 -0.384048,-0.955379 H 8.1148997 V 54 H 8.4515344 V 52.892899 L 8.8972197,54 h 0.1469814 l 0.4456853,-1.107101 z" />
      <path
         id="path115"
         style="font-weight:bold;font-size:2.37066674px;font-family:'Proxima Nova';dominant-baseline:alphabetic;text-anchor:middle;fill:#4d4d00"
         d="m 10.142931,54 h 0.336635 v -1.581235 h -0.336635 z" />
      <path
         id="path117"
         style="font-weight:bold;font-size:2.37066674px;font-family:'Proxima Nova';dominant-baseline:alphabetic;text-anchor:middle;fill:#4d4d00"
         d="m 11.156243,54 h 0.339005 v -1.284901 h 0.45991 v -0.296334 h -1.261195 v 0.296334 h 0.46228 z" />
    </g>
    <g
       id="text24"
       style="font-weight:bold;font-size:2.37066674px;font-family:'Proxima Nova';dominant-baseline:hanging;text-anchor:middle;fill:#4d4d00"
       aria-label="BI">
      <path
         id="path120"
         style="font-weight:bold;font-size:2.37066674px;font-family:'Proxima Nova';dominant-baseline:hanging;text-anchor:middle;fill:#4d4d00"
         d="m 20.485624,65.498261 h 0.858182 c 0.301074,0 0.459909,-0.189653 0.459909,-0.42672 0,-0.199136 -0.135128,-0.362712 -0.303445,-0.388789 0.149352,-0.03082 0.272626,-0.163576 0.272626,-0.362712 0,-0.210989 -0.154093,-0.403013 -0.455168,-0.403013 h -0.832104 z m 0.336635,-0.948266 v -0.343747 h 0.421979 c 0.113792,0 0.184912,0.07349 0.184912,0.173059 0,0.09957 -0.07112,0.170688 -0.184912,0.170688 z m 0,0.656674 v -0.367453 h 0.433832 c 0.132757,0 0.203877,0.08534 0.203877,0.184912 0,0.113792 -0.07586,0.182541 -0.203877,0.182541 z" />
      <path
         id="path122"
         style="font-weight:bold;font-size:2.37066674px;font-family:'Proxima Nova';dominant-baseline:hanging;text-anchor:middle;fill:#4d4d00"
         d="m 22.055265,65.498261 h 0.336634 v -1.581234 h -0.336634 z" />
    </g>
    <g
       id="text26"
       style="font-weight:bold;font-size:2.37066674px;font-family:'Proxima Nova';dominant-baseline:alphabetic;text-anchor:middle;fill:#4d4d00"
       aria-label="UNI">
      <path
         id="path125"
         style="font-weight:bold;font-size:2.37066674px;font-family:'Proxima Nova';dominant-baseline:alphabetic;text-anchor:middle;fill:#4d4d00"
         d="m 19.538747,55.369403 c 0,0.388789 0.232325,0.659045 0.71357,0.659045 0.481246,0 0.713571,-0.267885 0.713571,-0.661416 v -0.948267 h -0.343747 v 0.938784 c 0,0.220472 -0.125645,0.372195 -0.369824,0.372195 -0.244178,0 -0.372194,-0.151723 -0.372194,-0.372195 v -0.938784 h -0.341376 z" />
      <path
         id="path127"
         style="font-weight:bold;font-size:2.37066674px;font-family:'Proxima Nova';dominant-baseline:alphabetic;text-anchor:middle;fill:#4d4d00"
         d="m 22.365581,56 h 0.324782 v -1.581235 h -0.336635 v 0.99331 l -0.732536,-0.99331 H 21.275075 V 56 h 0.336634 v -1.03124 z" />
      <path
         id="path129"
         style="font-weight:bold;font-size:2.37066674px;font-family:'Proxima Nova';dominant-baseline:alphabetic;text-anchor:middle;fill:#4d4d00"
         d="m 23.002142,56 h 0.336635 v -1.581235 h -0.336635 z" />
    </g>
    <g
       id="text28"
       style="font-weight:bold;font-size:2.37066674px;font-family:'Proxima Nova';dominant-baseline:alphabetic;text-anchor:middle;fill:#4d4d00"
       aria-label="CV">
      <path
         id="path132"
         style="font-weight:bold;font-size:2.37066674px;font-family:'Proxima Nova';dominant-baseline:alphabetic;text-anchor:middle;fill:#4d4d00"
         d="m 8.3435208,70.828451 c 0.3484881,0 0.5476241,-0.192024 0.6614161,-0.388789 l -0.2892214,-0.13987 c -0.066379,0.130387 -0.2086187,0.229955 -0.3721947,0.229955 -0.2868506,0 -0.4954693,-0.220472 -0.4954693,-0.519176 0,-0.298704 0.2086187,-0.519176 0.4954693,-0.519176 0.163576,0 0.3058161,0.101939 0.3721947,0.229955 l 0.2892214,-0.14224 c -0.1114214,-0.196766 -0.312928,-0.386419 -0.6614161,-0.386419 -0.4741333,0 -0.8415866,0.331893 -0.8415866,0.81788 0,0.485987 0.3674533,0.81788 0.8415866,0.81788 z" />
      <path
         id="path134"
         style="font-weight:bold;font-size:2.37066674px;font-family:'Proxima Nova';dominant-baseline:alphabetic;text-anchor:middle;fill:#4d4d00"
         d="m 9.6416831,70.800003 h 0.4219789 l 0.609261,-1.581235 H 10.288875 L 9.8526724,70.43492 9.4140991,69.218768 h -0.384048 z" />
    </g>
    <g
       id="text32"
       style="font-weight:bold;font-size:3.0480001px;font-family:'Proxima Nova';dominant-baseline:alphabetic;text-anchor:middle;fill:#4d4d00"
       aria-label="-  +">
      <path
         id="path137"
         style="font-size:larger"
         d="m 19.140379,70.812371 h 0.877824 V 70.41735 h -0.877824 z" />
      <path
         id="path139"
         style="font-size:larger"
         d="m 23.085101,70.410035 h 0.654711 v -0.28895 H 23.085101 V 69.407853 H 22.76689 v 0.713232 h -0.658368 v 0.28895 h 0.658368 v 0.742493 h 0.318211 z" />
    </g>
    <path
       id="line34"
       d="M 0,84 H 30.48"
       style="stroke:#4d4d00;stroke-width:0.34999999" />
    <g
       id="text36"
       style="font-weight:bold;font-size:2.37066674px;font-family:'Proxima Nova';dominant-baseline:alphabetic;text-anchor:middle;fill:#4d4d00"
       aria-label="LIMIT">
      <path
         id="path143"
         style="font-weight:bold;font-size:2.37066674px;font-family:'Proxima Nova';dominant-baseline:alphabetic;text-anchor:middle;fill:#4d4d00"
         d="M 6.2257746,90 H 7.2309373 V 89.703667 H 6.5624093 V 88.418765 H 6.2257746 Z" />
      <path
         id="path145"
         style="font-weight:bold;font-size:2.37066674px;font-family:'Proxima Nova';dominant-baseline:alphabetic;text-anchor:middle;fill:#4d4d00"
         d="M 7.4666705,90 H 7.8033052 V 88.418765 H 7.4666705 Z" />
      <path
         id="path147"
         style="font-weight:bold;font-size:2.37066674px;font-family:'Proxima Nova';dominant-baseline:alphabetic;text-anchor:middle;fill:#4d4d00"
         d="M 9.4898864,90 H 9.8288918 V 88.418765 H 9.3547584 l -0.384048,0.955379 -0.384048,-0.955379 H 8.1148997 V 90 H 8.4515344 V 88.892899 L 8.8972197,90 h 0.1469814 l 0.4456853,-1.107101 z" />
      <path
         id="path149"
         style="font-weight:bold;font-size:2.37066674px;font-family:'Proxima Nova';dominant-baseline:alphabetic;text-anchor:middle;fill:#4d4d00"
         d="m 10.142931,90 h 0.336635 v -1.581235 h -0.336635 z" />
      <path
         id="path151"
         style="font-weight:bold;font-size:2.37066674px;font-family:'Proxima Nova';dominant-baseline:alphabetic;text-anchor:middle;fill:#4d4d00"
         d="m 11.156243,90 h 0.339005 v -1.284901 h 0.45991 v -0.296334 h -1.261195 v 0.296334 h 0.46228 z" />
    </g>
    <g
       id="text38"
       style="font-weight:bold;font-size:2.37066674px;font-family:'Proxima Nova';dominant-baseline:hanging;text-anchor:middle;fill:#4d4d00"
       aria-label="BI">
      <path
         id="path154"
         style="font-weight:bold;font-size:2.37066674px;font-family:'Proxima Nova';dominant-baseline:hanging;text-anchor:middle;fill:#4d4d00"
         d="m 20.485624,101.49826 h 0.858182 c 0.301074,0 0.459909,-0.18965 0.459909,-0.42672 0,-0.19913 -0.135128,-0.36271 -0.303445,-0.38879 0.149352,-0.0308 0.272626,-0.16357 0.272626,-0.36271 0,-0.21099 -0.154093,-0.403013 -0.455168,-0.403013 h -0.832104 z m 0.336635,-0.94827 v -0.34374 h 0.421979 c 0.113792,0 0.184912,0.0735 0.184912,0.17306 0,0.0996 -0.07112,0.17068 -0.184912,0.17068 z m 0,0.65668 v -0.36745 h 0.433832 c 0.132757,0 0.203877,0.0853 0.203877,0.18491 0,0.11379 -0.07586,0.18254 -0.203877,0.18254 z" />
      <path
         id="path156"
         style="font-weight:bold;font-size:2.37066674px;font-family:'Proxima Nova';dominant-baseline:hanging;text-anchor:middle;fill:#4d4d00"
         d="m 22.055265,101.49826 h 0.336634 v -1.581233 h -0.336634 z" />
    </g>
    <g
       id="text40"
       style="font-weight:bold;font-size:2.37066674px;font-family:'Proxima Nova';dominant-baseline:alphabetic;text-anchor:middle;fill:#4d4d00"
       aria-label="UNI">
      <path
         id="path159"
         style="font-weight:bold;font-size:2.37066674px;font-family:'Proxima Nova';dominant-baseline:alphabetic;text-anchor:middle;fill:#4d4d00"
         d="m 19.538747,91.369403 c 0,0.388789 0.232325,0.659045 0.71357,0.659045 0.481246,0 0.713571,-0.267885 0.713571,-0.661416 v -0.948267 h -0.343747 v 0.938784 c 0,0.220472 -0.125645,0.372195 -0.369824,0.372195 -0.244178,0 -0.372194,-0.151723 -0.372194,-0.372195 v -0.938784 h -0.341376 z" />
      <path
         id="path161"
         style="font-weight:bold;font-size:2.37066674px;font-family:'Proxima Nova';dominant-baseline:alphabetic;text-anchor:middle;fill:#4d4d00"
         d="m 22.365581,92 h 0.324782 v -1.581235 h -0.336635 v 0.99331 l -0.732536,-0.99331 H 21.275075 V 92 h 0.336634 v -1.03124 z" />
      <path
         id="path163"
         style="font-weight:bold;font-size:2.37066674px;font-family:'Proxima Nova';dominant-baseline:alphabetic;text-anchor:middle;fill:#4d4d00"
         d="m 23.002142,92 h 0.336635 v -1.581235 h -0.336635 z" />
    </g>
    <g
       id="text42"
       style="font-weight:bold;font-size:2.37066674px;font-family:'Proxima Nova';dominant-baseline:alphabetic;text-anchor:middle;fill:#4d4d00"
       aria-label="CV">
      <path
         id="path166"
         style="font-weight:bold;font-size:2.37066674px;font-family:'Proxima Nova';dominant-baseline:alphabetic;text-anchor:middle;fill:#4d4d00"
         d="m 8.3435208,106.82845 c 0.3484881,0 0.5476241,-0.19202 0.6614161,-0.38879 l -0.2892214,-0.13987 c -0.066379,0.13039 -0.2086187,0.22996 -0.3721947,0.22996 -0.2868506,0 -0.4954693,-0.22047 -0.4954693,-0.51918 0,-0.2987 0.2086187,-0.51917 0.4954693,-0.51917 0.163576,0 0.3058161,0.10193 0.3721947,0.22995 l 0.2892214,-0.14224 c -0.1114214,-0.19677 -0.312928,-0.38642 -0.6614161,-0.38642 -0.4741333,0 -0.8415866,0.33189 -0.8415866,0.81788 0,0.48599 0.3674533,0.81788 0.8415866,0.81788 z" />
      <path
         id="path168"
         style="font-weight:bold;font-size:2.37066674px;font-family:'Proxima Nova';dominant-baseline:alphabetic;text-anchor:middle;fill:#4d4d00"
         d="m 9.6416831,106.8 h 0.4219789 l 0.609261,-1.58123 h -0.384048 l -0.4362026,1.21615 -0.4385733,-1.21615 h -0.384048 z" />
    </g>
    <g
       id="text46"
       style="font-weight:bold;font-size:3.0480001px;font-family:'Proxima Nova';dominant-baseline:alphabetic;text-anchor:middle;fill:#4d4d00"
       aria-label="-  +">
      <path
         id="path171"
         style="font-size:larger"
         d="m 19.140379,106.81237 h 0.877824 v -0.39502 h -0.877824 z" />
      <path
         id="path173"
         style="font-size:larger"
         d="m 23.085101,106.41004 h 0.654711 v -0.28896 h -0.654711 v -0.71323 H 22.76689 v 0.71323 h -0.658368 v 0.28896 h 0.658368 v 0.74249 h 0.318211 z" />
    </g>
  </g>
</svg>
