<?xml version="1.0" encoding="UTF-8" standalone="no"?>
<!-- Created with Inkscape (http://www.inkscape.org/) -->

<svg
   xmlns:dc="http://purl.org/dc/elements/1.1/"
   xmlns:cc="http://creativecommons.org/ns#"
   xmlns:rdf="http://www.w3.org/1999/02/22-rdf-syntax-ns#"
   xmlns:svg="http://www.w3.org/2000/svg"
   xmlns="http://www.w3.org/2000/svg"
   xmlns:sodipodi="http://sodipodi.sourceforge.net/DTD/sodipodi-0.dtd"
   xmlns:inkscape="http://www.inkscape.org/namespaces/inkscape"
   width="135"
   height="379.99997"
   viewBox="0 0 35.71875 100.54166"
   version="1.1"
   id="svg85367"
   inkscape:version="0.92.2 (5c3e80d, 2017-08-06)"
   sodipodi:docname="NEWS.svg">
  <defs
     id="defs85361" />
  <sodipodi:namedview
     id="base"
     pagecolor="#ffffff"
     bordercolor="#666666"
     borderopacity="1.0"
     inkscape:pageopacity="0.0"
     inkscape:pageshadow="2"
     inkscape:zoom="2.0000001"
     inkscape:cx="127.78608"
     inkscape:cy="113.30665"
     inkscape:document-units="mm"
     inkscape:current-layer="layer3"
     showgrid="false"
     fit-margin-top="0"
     fit-margin-left="0"
     fit-margin-right="0"
     fit-margin-bottom="0"
     units="px"
     inkscape:window-width="1366"
     inkscape:window-height="721"
     inkscape:window-x="-4"
     inkscape:window-y="24"
     inkscape:window-maximized="1"
     inkscape:snap-bbox="true"
     inkscape:bbox-nodes="true"
     inkscape:object-nodes="true"
     inkscape:snap-page="false"
     inkscape:object-paths="false"
     inkscape:snap-bbox-edge-midpoints="true"
     inkscape:bbox-paths="false"
     inkscape:snap-bbox-midpoints="true"
     inkscape:snap-intersection-paths="false"
     inkscape:snap-smooth-nodes="false"
     inkscape:snap-midpoints="false"
     inkscape:snap-object-midpoints="true"
     inkscape:snap-center="false"
     inkscape:snap-others="true"
     inkscape:snap-global="false"
     inkscape:snap-to-guides="true" />
  <metadata
     id="metadata85364">
    <rdf:RDF>
      <cc:Work
         rdf:about="">
        <dc:format>image/svg+xml</dc:format>
        <dc:type
           rdf:resource="http://purl.org/dc/dcmitype/StillImage" />
        <dc:title />
      </cc:Work>
    </rdf:RDF>
  </metadata>
  <g
     inkscape:groupmode="layer"
     id="layer4"
     inkscape:label="plate"
     style="display:inline"
     sodipodi:insensitive="true">
    <path
       inkscape:connector-curvature="0"
       id="path65292-2"
       d="M 0.05024939,0.11721047 H 35.757569 V 100.51333 H 0.05024939 Z m 0,0"
       style="fill:#4d4d4d;fill-opacity:1;fill-rule:nonzero;stroke:none;stroke-width:0.29317257" />
  </g>
  <g
     inkscape:groupmode="layer"
     id="layer3"
     inkscape:label="decs"
     style="display:inline">
    <rect
       style="fill:#808080;stroke-width:0.25390878"
       id="rect3911"
       width="25.857349"
       height="5.7701693"
       x="57.005627"
       y="79.830482"
       ry="2.7559016" />
    <rect
       ry="2.7559016"
       y="87.164787"
       x="57.005627"
       height="5.7701693"
       width="25.857349"
       id="rect4212"
       style="fill:#808080;stroke-width:0.25390878" />
    <rect
       transform="rotate(90)"
       ry="2.7813048"
       y="-75.969711"
       x="8.0693913"
       height="5.8233562"
       width="84.900002"
       id="rect3923"
       style="fill:#c83737;stroke-width:0.46220216" />
    <rect
       style="fill:#808080;stroke-width:0.25390878"
       id="rect4214"
       width="25.857349"
       height="5.7701693"
       x="57.005627"
       y="14.216565"
       ry="2.7559016" />
    <rect
       ry="2.7559016"
       y="7.1272626"
       x="57.005627"
       height="5.7701693"
       width="25.857349"
       id="rect4216"
       style="fill:#808080;stroke-width:0.25390878" />
    <rect
       style="fill:#0088aa;stroke-width:0.46220213"
       id="rect3921"
       width="84.900002"
       height="5.8233562"
       x="7.1113925"
       y="-69.404716"
       ry="2.7813048"
       transform="rotate(90)" />
    <path
       sodipodi:nodetypes="cssssssssc"
       inkscape:connector-curvature="0"
       id="path60"
       d="m 59.72444,87.166446 10.770936,0.01654 c 0.412423,6.33e-4 3.335597,-0.0456 3.764625,1.267619 l 0.921921,2.821932 c 0.47413,1.451284 -2.461853,1.664509 -2.830314,1.664495 L 59.72444,92.936561 c -1.52677,-5.7e-5 -2.755902,-1.229083 -2.755902,-2.755853 v -0.258366 c 0,-1.526769 1.229203,-2.770667 2.755902,-2.755901 z"
       style="fill:#c83737;fill-opacity:1;stroke-width:0.25390878" />
    <rect
       transform="rotate(90)"
       ry="2.7813048"
       y="-82.81971"
       x="8.0693913"
       height="5.8233562"
       width="90.886841"
       id="rect5240"
       style="fill:#808080;fill-opacity:1;stroke-width:0.478221" />
    <path
       sodipodi:nodetypes="cssssssssc"
       inkscape:connector-curvature="0"
       id="path65"
       d="m 80.076546,19.983865 -10.787761,0.01653 c -0.421076,6.46e-4 -0.08769,-0.663435 -0.06832,-2.044833 l 0.03376,-2.408105 c 0.0214,-1.526628 0.175156,-1.299483 0.551345,-1.300694 l 10.270973,-0.03307 c 1.5588,-0.005 2.813732,1.229132 2.813732,2.755902 v 0.258366 c 0,1.526769 -1.254998,2.770667 -2.813732,2.755901 z"
       style="fill:#0088aa;fill-opacity:1;stroke-width:0.25655898" />
    <g
       aria-label="STEP"
       style="font-style:normal;font-variant:normal;font-weight:bold;font-stretch:normal;font-size:3.52777767px;line-height:1.25;font-family:'DejaVu Sans';-inkscape-font-specification:'DejaVu Sans, Bold';font-variant-ligatures:normal;font-variant-caps:normal;font-variant-numeric:normal;font-feature-settings:normal;text-align:start;letter-spacing:0px;word-spacing:0px;writing-mode:lr-tb;text-anchor:start;fill:#f2f2f2;fill-opacity:1;stroke:none;stroke-width:0.26458332"
       id="text4043"
       transform="translate(53.744907,-0.5595413)">
      <path
         d="m 12.473953,16.456269 v 0.544325 q -0.211874,-0.09474 -0.413412,-0.142971 -0.201538,-0.04823 -0.380683,-0.04823 -0.237711,0 -0.351399,0.06546 -0.113688,0.06546 -0.113688,0.203261 0,0.103353 0.07579,0.161919 0.07751,0.05684 0.279052,0.09819 l 0.282498,0.05684 q 0.428915,0.08613 0.609782,0.261827 0.180868,0.1757 0.180868,0.499539 0,0.425469 -0.253215,0.633897 -0.251492,0.206706 -0.769979,0.206706 -0.244602,0 -0.490926,-0.04651 -0.246324,-0.04651 -0.492649,-0.137804 V 18.25289 q 0.246325,0.130914 0.475424,0.198093 0.230821,0.06546 0.444417,0.06546 0.217041,0 0.332452,-0.07235 0.11541,-0.07235 0.11541,-0.206706 0,-0.120578 -0.07924,-0.186035 -0.07751,-0.06546 -0.311781,-0.117133 l -0.25666,-0.05684 q -0.38585,-0.08268 -0.564995,-0.26355 -0.177423,-0.180867 -0.177423,-0.487481 0,-0.384128 0.248047,-0.590834 0.248047,-0.206706 0.713135,-0.206706 0.211873,0 0.435805,0.03273 0.223931,0.03101 0.463365,0.09474 z"
         id="path62"
         inkscape:connector-curvature="0" />
      <path
         d="m 12.920093,16.375309 h 2.370225 v 0.501262 h -0.852661 v 2.070502 h -0.663181 v -2.070502 h -0.854383 z"
         id="path64"
         inkscape:connector-curvature="0" />
      <path
         d="m 15.631383,16.375309 h 1.789727 v 0.501262 h -1.126546 v 0.478868 H 17.35393 V 17.8567 h -1.059366 v 0.589112 h 1.164442 v 0.501261 h -1.827623 z"
         id="path66"
         inkscape:connector-curvature="0" />
      <path
         d="m 18.042949,16.375309 h 1.100708 q 0.490927,0 0.752754,0.218764 0.26355,0.217041 0.26355,0.620117 0,0.404799 -0.26355,0.623562 -0.261827,0.217041 -0.752754,0.217041 H 18.70613 v 0.89228 H 18.042949 Z M 18.70613,16.8559 v 0.718302 h 0.366903 q 0.192925,0 0.298001,-0.09302 0.105075,-0.09474 0.105075,-0.266995 0,-0.172255 -0.105075,-0.265272 -0.105076,-0.09302 -0.298001,-0.09302 z"
         id="path68"
         inkscape:connector-curvature="0" />
    </g>
    <rect
       ry="2.7559016"
       y="87.164787"
       x="68.018898"
       height="5.7701693"
       width="14.856998"
       id="rect5230"
       style="fill:#c83737;fill-opacity:1;stroke-width:0.19246477" />
    <g
       aria-label="COUNT"
       style="font-style:normal;font-variant:normal;font-weight:bold;font-stretch:normal;font-size:3.52777767px;line-height:1.25;font-family:'DejaVu Sans';-inkscape-font-specification:'DejaVu Sans, Bold';font-variant-ligatures:normal;font-variant-caps:normal;font-variant-numeric:normal;font-feature-settings:normal;text-align:start;letter-spacing:0px;word-spacing:0px;writing-mode:lr-tb;text-anchor:start;fill:#f2f2f2;fill-opacity:1;stroke:none;stroke-width:0.26458332"
       id="text4033"
       transform="translate(53.989226,-0.56126601)">
      <path
         d="m 11.295772,91.754045 q -0.18259,0.09474 -0.380683,0.142972 -0.198093,0.04823 -0.413411,0.04823 -0.6425104,0 -1.0180258,-0.35829 -0.3755154,-0.360012 -0.3755154,-0.974962 0,-0.616672 0.3755154,-0.974962 0.3755154,-0.360012 1.0180258,-0.360012 0.215318,0 0.413411,0.04823 0.198093,0.04823 0.380683,0.142971 v 0.532268 q -0.184312,-0.125746 -0.363457,-0.184313 -0.179145,-0.05857 -0.377238,-0.05857 -0.354845,0 -0.5581056,0.227376 -0.2032606,0.227376 -0.2032606,0.627007 0,0.397909 0.2032606,0.625285 0.2032606,0.227376 0.5581056,0.227376 0.198093,0 0.377238,-0.05857 0.179145,-0.05857 0.363457,-0.184313 z"
         id="path40"
         inkscape:connector-curvature="0" />
      <path
         d="m 13.021765,89.757613 q -0.303168,0 -0.470255,0.223931 -0.167087,0.223931 -0.167087,0.630452 0,0.404799 0.167087,0.62873 0.167087,0.223931 0.470255,0.223931 0.304891,0 0.471978,-0.223931 0.167087,-0.223931 0.167087,-0.62873 0,-0.406521 -0.167087,-0.630452 -0.167087,-0.223931 -0.471978,-0.223931 z m 0,-0.480591 q 0.620117,0 0.971517,0.354845 0.3514,0.354844 0.3514,0.980129 0,0.623562 -0.3514,0.978407 -0.3514,0.354845 -0.971517,0.354845 -0.618394,0 -0.971517,-0.354845 -0.351399,-0.354845 -0.351399,-0.978407 0,-0.625285 0.351399,-0.980129 0.353123,-0.354845 0.971517,-0.354845 z"
         id="path42"
         inkscape:connector-curvature="0" />
      <path
         d="m 14.844221,89.32353 h 0.663181 v 1.541681 q 0,0.318671 0.103353,0.456475 0.105075,0.136081 0.341064,0.136081 0.237712,0 0.341065,-0.136081 0.105075,-0.137804 0.105075,-0.456475 V 89.32353 h 0.663181 v 1.541681 q 0,0.546047 -0.273885,0.813042 -0.273885,0.266995 -0.835436,0.266995 -0.559828,0 -0.833713,-0.266995 -0.273885,-0.266995 -0.273885,-0.813042 z"
         id="path44"
         inkscape:connector-curvature="0" />
      <path
         d="m 17.71054,89.32353 h 0.740695 l 0.935343,1.763889 V 89.32353 h 0.62873 v 2.571764 H 19.274613 L 18.33927,90.131405 v 1.763889 h -0.62873 z"
         id="path46"
         inkscape:connector-curvature="0" />
      <path
         d="m 20.359819,89.32353 h 2.370225 v 0.501262 h -0.852661 v 2.070502 h -0.663181 v -2.070502 h -0.854383 z"
         id="path48"
         inkscape:connector-curvature="0" />
    </g>
    <g
       aria-label="automaton"
       style="font-style:normal;font-variant:normal;font-weight:bold;font-stretch:normal;font-size:2.82222223px;line-height:1.25;font-family:'DejaVu Sans';-inkscape-font-specification:'DejaVu Sans, Bold';font-variant-ligatures:normal;font-variant-caps:normal;font-variant-numeric:normal;font-feature-settings:normal;text-align:start;letter-spacing:0px;word-spacing:0px;writing-mode:lr-tb;text-anchor:start;fill:#f2f2f2;fill-opacity:1;stroke:none;stroke-width:0.26458332"
       id="text4051"
       transform="translate(54.281362,-0.56126601)">
      <path
         d="m 8.3881645,5.4986884 q -0.1543402,0 -0.2328884,0.052366 -0.07717,0.052365 -0.07717,0.1543402 0,0.093707 0.062012,0.1474501 0.06339,0.052366 0.1750108,0.052366 0.1391819,0 0.2342665,-0.099219 0.095085,-0.1005968 0.095085,-0.2508029 v -0.0565 z M 9.1419514,5.3126533 V 6.1932197 H 8.6444797 V 5.9644653 Q 8.5452607,6.1050252 8.4212375,6.169793 8.297214,6.233183 8.1194471,6.233183 7.8796684,6.233183 7.7294623,6.0940011 7.5806342,5.953441 7.5806342,5.7301988 q 0,-0.2714735 0.1860351,-0.398253 0.1874132,-0.1267795 0.5870443,-0.1267795 h 0.2907661 v -0.038585 q 0,-0.1171332 -0.092329,-0.1708767 -0.092329,-0.055122 -0.28801,-0.055122 -0.1584744,0 -0.2949002,0.031695 -0.1364257,0.031695 -0.253559,0.095085 V 4.691158 Q 7.8741559,4.652573 8.0340083,4.63328 8.1938608,4.612609 8.3537132,4.612609 q 0.4175456,0 0.6022027,0.1653646 0.1860351,0.1639866 0.1860355,0.5346797 z"
         id="path80"
         inkscape:connector-curvature="0" />
      <path
         d="M 9.5870578,5.592395 V 4.6498169 h 0.4960942 v 0.1543403 q 0,0.1254014 -0.0014,0.3155707 -0.0014,0.1887912 -0.0014,0.252181 0,0.1860352 0.0096,0.2687174 0.0096,0.081304 0.03307,0.1185113 0.03032,0.048231 0.07855,0.074414 0.04961,0.026183 0.112999,0.026183 0.15434,0 0.242535,-0.1185113 0.08819,-0.1185113 0.08819,-0.3293511 V 4.6498169 h 0.493338 V 6.1932197 H 10.645391 V 5.9699775 q -0.111621,0.1350477 -0.237022,0.1998155 -0.124024,0.06339 -0.27423,0.06339 -0.2673395,0 -0.4078994,-0.1639866 Q 9.5870578,5.9052097 9.5870578,5.592395 Z"
         id="path82"
         inkscape:connector-curvature="0" />
      <path
         d="m 12.154343,4.2116007 v 0.4382162 h 0.508496 v 0.3527778 h -0.508496 v 0.6545681 q 0,0.107487 0.04272,0.1460721 0.04272,0.037207 0.169499,0.037207 h 0.253559 v 0.3527778 h -0.423058 q -0.292144,0 -0.414789,-0.1212674 Q 11.661005,5.9493069 11.661005,5.6571628 V 5.0025947 H 11.415714 V 4.6498169 h 0.245291 V 4.2116007 Z"
         id="path84"
         inkscape:connector-curvature="0" />
      <path
         d="m 13.700502,4.9653876 q -0.163987,0 -0.250803,0.1185113 -0.08544,0.1171333 -0.08544,0.3389974 0,0.2218642 0.08544,0.3403754 0.08682,0.1171333 0.250803,0.1171333 0.16123,0 0.246669,-0.1171333 0.08544,-0.1185112 0.08544,-0.3403754 0,-0.2218641 -0.08544,-0.3389974 -0.08544,-0.1185113 -0.246669,-0.1185113 z m 0,-0.3527778 q 0.398253,0 0.621495,0.214974 0.22462,0.214974 0.22462,0.5953125 0,0.3803386 -0.22462,0.5953125 -0.223242,0.214974 -0.621495,0.214974 -0.399631,0 -0.62563,-0.214974 -0.22462,-0.2149739 -0.22462,-0.5953125 0,-0.3803385 0.22462,-0.5953125 0.225999,-0.214974 0.62563,-0.214974 z"
         id="path86"
         inkscape:connector-curvature="0" />
      <path
         d="m 16.336689,4.906132 q 0.09371,-0.143316 0.221864,-0.2177301 0.129536,-0.075792 0.283876,-0.075792 0.265961,0 0.405143,0.1639866 0.139182,0.1639865 0.139182,0.4768012 v 0.939822 H 16.89066 V 5.3884454 q 0.0014,-0.017914 0.0014,-0.037207 0.0014,-0.019293 0.0014,-0.055122 0,-0.1639866 -0.04823,-0.2370226 -0.04823,-0.074414 -0.155718,-0.074414 -0.14056,0 -0.21773,0.1157552 -0.07579,0.1157552 -0.07855,0.3348633 v 0.757921 H 15.897095 V 5.3884454 q 0,-0.2563152 -0.0441,-0.3293512 -0.0441,-0.074414 -0.157097,-0.074414 -0.141938,0 -0.219108,0.1171332 -0.07717,0.1157552 -0.07717,0.3321072 V 6.1932197 H 14.903529 V 4.6498169 h 0.496094 v 0.2259982 q 0.09095,-0.1309136 0.208084,-0.1970594 0.118511,-0.066146 0.260449,-0.066146 0.159853,0 0.282498,0.07717 0.122645,0.07717 0.186035,0.2163523 z"
         id="path88"
         inkscape:connector-curvature="0" />
      <path
         d="m 18.54155,5.4986884 q -0.154341,0 -0.232889,0.052366 -0.07717,0.052365 -0.07717,0.1543402 0,0.093707 0.06201,0.1474501 0.06339,0.052366 0.175011,0.052366 0.139182,0 0.234266,-0.099219 0.09509,-0.1005968 0.09509,-0.2508029 v -0.0565 z M 19.295337,5.3126533 V 6.1932197 H 18.797865 V 5.9644653 q -0.09922,0.1405599 -0.223242,0.2053277 -0.124024,0.06339 -0.301791,0.06339 -0.239778,0 -0.389985,-0.1391819 -0.148828,-0.1405599 -0.148828,-0.3638021 0,-0.2714735 0.186035,-0.398253 0.187414,-0.1267795 0.587045,-0.1267795 h 0.290766 v -0.038585 q 0,-0.1171332 -0.09233,-0.1708767 -0.09233,-0.055122 -0.28801,-0.055122 -0.158474,0 -0.2949,0.031695 -0.136426,0.031695 -0.253559,0.095085 V 4.691158 q 0.158474,-0.038585 0.318327,-0.057878 0.159852,-0.020671 0.319705,-0.020671 0.417545,0 0.602202,0.1653646 0.186036,0.1639866 0.186036,0.5346789 z"
         id="path90"
         inkscape:connector-curvature="0" />
      <path
         d="m 20.295793,4.2116007 v 0.4382162 h 0.508496 v 0.3527778 h -0.508496 v 0.6545681 q 0,0.107487 0.04272,0.1460721 0.04272,0.037207 0.169499,0.037207 h 0.253559 v 0.3527778 h -0.423058 q -0.292144,0 -0.414789,-0.1212674 Q 19.802455,5.9493069 19.802455,5.6571628 V 5.0025947 h -0.24529 V 4.6498169 h 0.24529 V 4.2116007 Z"
         id="path92"
         inkscape:connector-curvature="0" />
      <path
         d="m 21.841952,4.9653876 q -0.163987,0 -0.250803,0.1185113 -0.08544,0.1171333 -0.08544,0.3389974 0,0.2218642 0.08544,0.3403754 0.08682,0.1171333 0.250803,0.1171333 0.16123,0 0.246669,-0.1171333 0.08544,-0.1185112 0.08544,-0.3403754 0,-0.2218641 -0.08544,-0.3389974 -0.08544,-0.1185113 -0.246669,-0.1185113 z m 0,-0.3527778 q 0.398253,0 0.621495,0.214974 0.22462,0.214974 0.22462,0.5953125 0,0.3803386 -0.22462,0.5953125 -0.223242,0.214974 -0.621495,0.214974 -0.399631,0 -0.62563,-0.214974 -0.22462,-0.2149739 -0.22462,-0.5953125 0,-0.3803385 0.22462,-0.5953125 0.225999,-0.214974 0.62563,-0.214974 z"
         id="path94"
         inkscape:connector-curvature="0" />
      <path
         d="M 24.599405,5.2533976 V 6.1932197 H 24.103312 V 6.0402574 5.4738837 q 0,-0.1998155 -0.0096,-0.2756076 -0.0083,-0.075792 -0.03032,-0.1116211 -0.02894,-0.048231 -0.07855,-0.074414 -0.04961,-0.027561 -0.112999,-0.027561 -0.15434,0 -0.242534,0.1198893 -0.08819,0.1185113 -0.08819,0.3293511 V 6.1932197 H 23.047734 V 4.6498169 h 0.493338 v 0.2259982 q 0.111621,-0.1350477 0.237023,-0.1984375 0.125401,-0.064768 0.276985,-0.064768 0.26734,0 0.405144,0.1639866 0.139181,0.1639865 0.139181,0.4768014 z"
         id="path96"
         inkscape:connector-curvature="0" />
    </g>
    <g
       aria-label="qwelk"
       style="font-style:normal;font-variant:normal;font-weight:bold;font-stretch:normal;font-size:2.82222223px;line-height:1.25;font-family:'DejaVu Sans';-inkscape-font-specification:'DejaVu Sans, Bold';font-variant-ligatures:normal;font-variant-caps:normal;font-variant-numeric:normal;font-feature-settings:normal;text-align:start;letter-spacing:0px;word-spacing:0px;writing-mode:lr-tb;text-anchor:start;fill:#f2f2f2;fill-opacity:1;stroke:none;stroke-width:0.26458332"
       id="text4057"
       transform="translate(54.281362,1.5554007)">
      <path
         d="m 11.498968,95.707734 q -0.157097,0 -0.241157,0.115755 -0.08268,0.115755 -0.08268,0.336241 0,0.220486 0.08268,0.336242 0.08406,0.115755 0.241157,0.115755 0.158474,0 0.241156,-0.115755 0.08406,-0.115756 0.08406,-0.336242 0,-0.220486 -0.08406,-0.336241 -0.08268,-0.115755 -0.241156,-0.115755 z m 0.325217,0.999078 q -0.101975,0.136425 -0.224621,0.199815 -0.122645,0.06339 -0.283875,0.06339 -0.285254,0 -0.468533,-0.225998 -0.18328,-0.227377 -0.18328,-0.584289 0,-0.356912 0.18328,-0.581532 0.183279,-0.225998 0.468533,-0.225998 0.16123,0 0.283875,0.06339 0.122646,0.06339 0.224621,0.199815 v -0.228754 h 0.496093 v 2.130447 h -0.496093 z"
         id="path29"
         inkscape:connector-curvature="0" />
      <path
         d="m 12.659276,95.386651 h 0.479557 l 0.259071,1.063845 0.26045,-1.063845 h 0.412033 l 0.259071,1.052821 0.260449,-1.052821 h 0.479558 l -0.406522,1.543403 h -0.538812 l -0.26045,-1.06109 -0.259071,1.06109 h -0.538813 z"
         id="path31"
         inkscape:connector-curvature="0" />
      <path
         d="m 16.944975,96.154218 v 0.14056 h -1.153418 q 0.01791,0.173633 0.125401,0.260449 0.107487,0.08682 0.300413,0.08682 0.155718,0 0.318326,-0.04548 0.163987,-0.04685 0.336242,-0.140559 v 0.380338 q -0.175011,0.06615 -0.350022,0.09922 -0.175011,0.03445 -0.350022,0.03445 -0.418923,0 -0.651812,-0.212218 -0.23151,-0.213596 -0.23151,-0.598069 0,-0.377582 0.227376,-0.593934 0.228754,-0.216352 0.628386,-0.216352 0.363802,0 0.581532,0.219108 0.219108,0.219108 0.219108,0.585667 z m -0.507118,-0.163986 q 0,-0.14056 -0.08268,-0.225999 -0.0813,-0.08682 -0.213596,-0.08682 -0.143315,0 -0.232888,0.0813 -0.08957,0.07993 -0.111621,0.231511 z"
         id="path33"
         inkscape:connector-curvature="0" />
      <path
         d="m 17.317045,94.785826 h 0.493338 v 2.144228 h -0.493338 z"
         id="path35"
         inkscape:connector-curvature="0" />
      <path
         d="m 18.287184,94.785826 h 0.493338 v 1.167199 l 0.567751,-0.566374 h 0.573264 l -0.753787,0.708312 0.813043,0.835091 H 19.382724 L 18.780522,96.28651 v 0.643544 h -0.493338 z"
         id="path37"
         inkscape:connector-curvature="0" />
    </g>
    <path
       style="fill:#0088aa;fill-opacity:1;stroke-width:0.25390878"
       d="m 80.108771,12.891676 -10.903229,-1e-6 c -0.412424,0 0.179933,-0.498544 -0.75499,-1.515666 L 65.439594,8.1003257 C 64.406381,6.9762711 65.777633,7.1186811 69.92437,7.1194992 l 10.184401,0.00201 c 1.52677,3.012e-4 2.755902,1.229132 2.755902,2.7559027 v 0.2583661 c 0,1.526769 -1.229204,2.770667 -2.755902,2.755901 z"
       id="path81"
       inkscape:connector-curvature="0"
       sodipodi:nodetypes="cssssssssc" />
    <g
       aria-label="SCAN"
       style="font-style:normal;font-variant:normal;font-weight:bold;font-stretch:normal;font-size:3.52777767px;line-height:1.25;font-family:'DejaVu Sans';-inkscape-font-specification:'DejaVu Sans, Bold';font-variant-ligatures:normal;font-variant-caps:normal;font-variant-numeric:normal;font-feature-settings:normal;text-align:start;letter-spacing:0px;word-spacing:0px;writing-mode:lr-tb;text-anchor:start;fill:#f2f2f2;fill-opacity:1;stroke:none;stroke-width:0.26458332"
       id="text4039"
       transform="translate(53.741763,-0.56126601)">
      <path
         d="m 12.660892,9.3669689 v 0.544325 q -0.211873,-0.09474 -0.413411,-0.1429714 -0.201538,-0.048231 -0.380683,-0.048231 -0.237712,0 -0.3514,0.065457 -0.113688,0.065457 -0.113688,0.2032606 0,0.1033529 0.07579,0.1619199 0.07751,0.05684 0.279053,0.09818 l 0.282497,0.05684 q 0.428915,0.08613 0.609782,0.261827 0.180868,0.175699 0.180868,0.499538 0,0.425471 -0.253215,0.633898 -0.251492,0.206707 -0.769979,0.206707 -0.244601,0 -0.490926,-0.04651 -0.246324,-0.04651 -0.492648,-0.137804 v -0.559828 q 0.246324,0.130914 0.475423,0.198093 0.230821,0.06546 0.444417,0.06546 0.217041,0 0.332452,-0.07235 0.115411,-0.07235 0.115411,-0.206706 0,-0.120578 -0.07924,-0.186035 -0.07751,-0.06546 -0.311781,-0.117134 l -0.256659,-0.05684 q -0.385851,-0.08268 -0.564996,-0.26355 -0.177422,-0.180869 -0.177422,-0.487482 0,-0.3841277 0.248046,-0.5908334 0.248047,-0.2067058 0.713135,-0.2067058 0.211874,0 0.435805,0.032728 0.223931,0.031006 0.463365,0.09474 z"
         id="path71"
         inkscape:connector-curvature="0" />
      <path
         d="m 15.453142,11.716524 q -0.18259,0.09474 -0.380683,0.142971 -0.198093,0.04823 -0.413411,0.04823 -0.642511,0 -1.018026,-0.35829 -0.375516,-0.360013 -0.375516,-0.974962 0,-0.6166723 0.375516,-0.9749622 0.375515,-0.3600125 1.018026,-0.3600125 0.215318,0 0.413411,0.048231 0.198093,0.048231 0.380683,0.1429714 V 9.962968 q -0.184313,-0.125746 -0.363458,-0.1843126 -0.179145,-0.058567 -0.377238,-0.058567 -0.354844,0 -0.558105,0.2273763 -0.203261,0.2273763 -0.203261,0.6270073 0,0.397908 0.203261,0.625285 0.203261,0.227376 0.558105,0.227376 0.198093,0 0.377238,-0.05857 0.179145,-0.05857 0.363458,-0.184312 z"
         id="path73"
         inkscape:connector-curvature="0" />
      <path
         d="m 17.564985,11.38924 h -1.036973 l -0.163642,0.468533 h -0.666626 l 0.952569,-2.5717639 h 0.790649 l 0.952569,2.5717639 h -0.666626 z m -0.871609,-0.477146 h 0.704522 l -0.3514,-1.0231932 z"
         id="path75"
         inkscape:connector-curvature="0" />
      <path
         d="m 18.732873,9.2860091 h 0.740695 l 0.935344,1.7638889 V 9.2860091 h 0.62873 v 2.5717639 h -0.740696 l -0.935343,-1.763889 v 1.763889 h -0.62873 z"
         id="path77"
         inkscape:connector-curvature="0" />
    </g>
    <path
       style="fill:#c83737;fill-opacity:1;stroke-width:0.25390878"
       d="m 59.714753,79.830481 10.531158,0.0083 c 0.412423,3.24e-4 0.120768,0.638631 0.101799,2.020029 l -0.03307,2.408105 c -0.02096,1.526628 0.589123,1.333767 0.220663,1.333767 l -10.820552,-3e-6 c -1.52677,0 -2.755902,-1.229132 -2.755902,-2.755902 v -0.258366 c 0,-1.526769 1.229204,-2.770667 2.755902,-2.755901 z"
       id="rect57"
       inkscape:connector-curvature="0"
       sodipodi:nodetypes="cssssssssc" />
    <rect
       style="fill:#c83737;fill-opacity:1;stroke-width:0.19246477"
       id="rect5228"
       width="14.856998"
       height="5.7701693"
       x="68.018898"
       y="79.822594"
       ry="2.7559016" />
    <g
       aria-label="VALUE"
       style="font-style:normal;font-variant:normal;font-weight:bold;font-stretch:normal;font-size:3.52777767px;line-height:1.25;font-family:'DejaVu Sans';-inkscape-font-specification:'DejaVu Sans, Bold';font-variant-ligatures:normal;font-variant-caps:normal;font-variant-numeric:normal;font-feature-settings:normal;text-align:start;letter-spacing:0px;word-spacing:0px;writing-mode:lr-tb;text-anchor:start;fill:#f2f2f2;fill-opacity:1;stroke:none;stroke-width:0.26458332"
       id="text4029"
       transform="translate(53.347577,-0.56126343)">
      <path
         d="m 9.7497856,81.965971 h 0.6666264 l 0.682128,1.898248 0.680407,-1.898248 h 0.666626 l -0.952569,2.571764 h -0.790649 z"
         style="font-style:normal;font-variant:normal;font-weight:bold;font-stretch:normal;font-size:3.52777767px;font-family:'DejaVu Sans';-inkscape-font-specification:'DejaVu Sans, Bold';font-variant-ligatures:normal;font-variant-caps:normal;font-variant-numeric:normal;font-feature-settings:normal;text-align:start;writing-mode:lr-tb;text-anchor:start;fill:#f2f2f2;stroke-width:0.26458332"
         id="path51"
         inkscape:connector-curvature="0" />
      <path
         d="m 14.104386,84.069202 h -1.036974 l -0.163642,0.468533 h -0.666626 l 0.952569,-2.571764 h 0.79065 l 0.952569,2.571764 h -0.666626 z m -0.871609,-0.477146 h 0.704522 l -0.3514,-1.023193 z"
         style="font-style:normal;font-variant:normal;font-weight:bold;font-stretch:normal;font-size:3.52777767px;font-family:'DejaVu Sans';-inkscape-font-specification:'DejaVu Sans, Bold';font-variant-ligatures:normal;font-variant-caps:normal;font-variant-numeric:normal;font-feature-settings:normal;text-align:start;writing-mode:lr-tb;text-anchor:start;fill:#f2f2f2;stroke-width:0.26458332"
         id="path53"
         inkscape:connector-curvature="0" />
      <path
         d="m 15.272274,81.965971 h 0.663181 v 2.070503 h 1.164442 v 0.501261 h -1.827623 z"
         style="font-style:normal;font-variant:normal;font-weight:bold;font-stretch:normal;font-size:3.52777767px;font-family:'DejaVu Sans';-inkscape-font-specification:'DejaVu Sans, Bold';font-variant-ligatures:normal;font-variant-caps:normal;font-variant-numeric:normal;font-feature-settings:normal;text-align:start;writing-mode:lr-tb;text-anchor:start;fill:#f2f2f2;stroke-width:0.26458332"
         id="path55"
         inkscape:connector-curvature="0" />
      <path
         d="m 17.394452,81.965971 h 0.663181 v 1.54168 q 0,0.318672 0.103353,0.456476 0.105075,0.136081 0.341065,0.136081 0.237711,0 0.341064,-0.136081 0.105075,-0.137804 0.105075,-0.456476 v -1.54168 h 0.663181 v 1.54168 q 0,0.546048 -0.273885,0.813043 -0.273885,0.266995 -0.835435,0.266995 -0.559828,0 -0.833714,-0.266995 -0.273885,-0.266995 -0.273885,-0.813043 z"
         style="font-style:normal;font-variant:normal;font-weight:bold;font-stretch:normal;font-size:3.52777767px;font-family:'DejaVu Sans';-inkscape-font-specification:'DejaVu Sans, Bold';font-variant-ligatures:normal;font-variant-caps:normal;font-variant-numeric:normal;font-feature-settings:normal;text-align:start;writing-mode:lr-tb;text-anchor:start;fill:#f2f2f2;stroke-width:0.26458332"
         id="path57"
         inkscape:connector-curvature="0" />
      <path
         d="m 20.260772,81.965971 h 1.789727 v 0.501262 h -1.126547 v 0.478868 h 1.059367 v 0.501261 h -1.059367 v 0.589112 h 1.164443 v 0.501261 h -1.827623 z"
         style="font-style:normal;font-variant:normal;font-weight:bold;font-stretch:normal;font-size:3.52777767px;font-family:'DejaVu Sans';-inkscape-font-specification:'DejaVu Sans, Bold';font-variant-ligatures:normal;font-variant-caps:normal;font-variant-numeric:normal;font-feature-settings:normal;text-align:start;writing-mode:lr-tb;text-anchor:start;fill:#f2f2f2;stroke-width:0.26458332"
         id="path59"
         inkscape:connector-curvature="0" />
    </g>
    <rect
       style="fill:#808080;fill-opacity:1;stroke-width:0.478221"
       id="rect5226"
       width="90.886841"
       height="5.8233562"
       x="8.0693913"
       y="-62.740559"
       ry="2.7813048"
       transform="rotate(90)" />
    <g
       aria-label="RULE"
       transform="rotate(-90,26.860046,-27.421312)"
       style="font-style:normal;font-variant:normal;font-weight:bold;font-stretch:normal;font-size:3.88055563px;line-height:1.25;font-family:sans-serif;-inkscape-font-specification:'sans-serif, Bold';font-variant-ligatures:normal;font-variant-caps:normal;font-variant-numeric:normal;font-feature-settings:normal;text-align:start;letter-spacing:0px;word-spacing:0px;writing-mode:lr-tb;text-anchor:start;fill:#f2f2f2;fill-opacity:1;stroke:none;stroke-width:0.26458332"
       id="text5236">
      <path
         d="m -89.899334,4.9374248 q 0,-0.1061089 -0.04358,-0.181901 -0.04358,-0.075792 -0.149689,-0.1193726 -0.0739,-0.030317 -0.172427,-0.036001 -0.09853,-0.00758 -0.229271,-0.00758 h -0.263378 v 0.7598159 h 0.223587 q 0.174322,0 0.291799,-0.017053 0.117478,-0.017053 0.19706,-0.077687 0.07579,-0.058739 0.109898,-0.1288465 0.036,-0.072002 0.036,-0.1913751 z m 1.134986,1.957331 H -89.65301 L -90.4223,5.8601936 h -0.33538 v 1.0345622 h -0.723814 v -2.821361 h 1.220252 q 0.250114,0 0.430121,0.028422 0.180006,0.028422 0.337274,0.1231621 0.159164,0.09474 0.252009,0.2463244 0.09474,0.1496894 0.09474,0.3770657 0,0.3126424 -0.1459,0.5097019 -0.144005,0.1970594 -0.413066,0.3278008 z"
         style="font-style:normal;font-variant:normal;font-weight:bold;font-stretch:normal;font-size:3.88055563px;font-family:sans-serif;-inkscape-font-specification:'sans-serif, Bold';font-variant-ligatures:normal;font-variant-caps:normal;font-variant-numeric:normal;font-feature-settings:normal;text-align:start;writing-mode:lr-tb;text-anchor:start;fill:#f2f2f2;fill-opacity:1;stroke-width:0.26458332"
         id="path5259"
         inkscape:connector-curvature="0" />
      <path
         d="m -85.971409,5.8734573 q 0,0.5229655 -0.318327,0.8015014 -0.318326,0.278536 -0.937927,0.278536 -0.6196,0 -0.937927,-0.278536 -0.316432,-0.2785359 -0.316432,-0.7996066 V 4.0733948 h 0.731394 v 1.7602716 q 0,0.2936944 0.123162,0.4376994 0.123162,0.144005 0.399803,0.144005 0.272852,0 0.397909,-0.1383206 0.126952,-0.1383206 0.126952,-0.4433838 V 4.0733948 h 0.731393 z"
         style="font-style:normal;font-variant:normal;font-weight:bold;font-stretch:normal;font-size:3.88055563px;font-family:sans-serif;-inkscape-font-specification:'sans-serif, Bold';font-variant-ligatures:normal;font-variant-caps:normal;font-variant-numeric:normal;font-feature-settings:normal;text-align:start;writing-mode:lr-tb;text-anchor:start;fill:#f2f2f2;fill-opacity:1;stroke-width:0.26458332"
         id="path5261"
         inkscape:connector-curvature="0" />
      <path
         d="m -83.254262,6.8947558 h -2.035018 v -2.821361 h 0.727605 v 2.2756579 h 1.307413 z"
         style="font-style:normal;font-variant:normal;font-weight:bold;font-stretch:normal;font-size:3.88055563px;font-family:sans-serif;-inkscape-font-specification:'sans-serif, Bold';font-variant-ligatures:normal;font-variant-caps:normal;font-variant-numeric:normal;font-feature-settings:normal;text-align:start;writing-mode:lr-tb;text-anchor:start;fill:#f2f2f2;fill-opacity:1;stroke-width:0.26458332"
         id="path5263"
         inkscape:connector-curvature="0" />
      <path
         d="m -80.777755,6.8947558 h -2.040702 v -2.821361 h 2.040702 V 4.619098 h -1.316888 v 0.4869642 h 1.222148 v 0.5457032 h -1.222148 v 0.6972873 h 1.316888 z"
         style="font-style:normal;font-variant:normal;font-weight:bold;font-stretch:normal;font-size:3.88055563px;font-family:sans-serif;-inkscape-font-specification:'sans-serif, Bold';font-variant-ligatures:normal;font-variant-caps:normal;font-variant-numeric:normal;font-feature-settings:normal;text-align:start;writing-mode:lr-tb;text-anchor:start;fill:#f2f2f2;fill-opacity:1;stroke-width:0.26458332"
         id="path5265"
         inkscape:connector-curvature="0" />
    </g>
    <rect
       ry="2.7559016"
       y="93.348228"
       x="57.261303"
       height="5.7701693"
       width="25.26"
       id="rect5238"
       style="fill:#808080;fill-opacity:1;stroke-width:0.25095877" />
    <g
       aria-label="GATE"
       style="font-style:normal;font-variant:normal;font-weight:bold;font-stretch:normal;font-size:3.88055563px;line-height:1.25;font-family:sans-serif;-inkscape-font-specification:'sans-serif, Bold';font-variant-ligatures:normal;font-variant-caps:normal;font-variant-numeric:normal;font-feature-settings:normal;text-align:start;letter-spacing:0px;word-spacing:0px;writing-mode:lr-tb;text-anchor:start;fill:#f2f2f2;fill-opacity:1;stroke:none;stroke-width:0.26458332"
       id="text5246"
       transform="translate(54.281362,-0.56126601)">
      <path
         d="m 12.763945,98.042303 q -0.18948,0.0739 -0.502122,0.147795 -0.312643,0.072 -0.62339,0.072 -0.720025,0 -1.127408,-0.390329 -0.407383,-0.392224 -0.407383,-1.081932 0,-0.657497 0.411173,-1.059195 0.411172,-0.403593 1.146355,-0.403593 0.278536,0 0.530545,0.05116 0.252009,0.04927 0.560861,0.198954 v 0.661286 H 12.6711 q -0.05305,-0.03979 -0.155374,-0.111793 -0.102319,-0.0739 -0.197059,-0.125057 -0.109899,-0.06063 -0.257694,-0.104214 -0.145899,-0.04358 -0.310747,-0.04358 -0.19327,0 -0.350539,0.05684 -0.157268,0.05684 -0.282325,0.174322 -0.119373,0.113688 -0.18948,0.289905 -0.06821,0.174322 -0.06821,0.403593 0,0.468016 0.248219,0.716235 0.248219,0.248219 0.733288,0.248219 0.04169,0 0.09095,-0.0019 0.05116,-0.0019 0.09285,-0.0057 v -0.553282 h -0.562756 v -0.53244 h 1.301729 z"
         id="path5250"
         inkscape:connector-curvature="0" />
      <path
         d="m 16.021111,98.203362 h -0.752237 l -0.195165,-0.570336 h -1.045931 l -0.195164,0.570336 h -0.733289 l 1.042142,-2.821361 h 0.837502 z m -1.123618,-1.087617 -0.346749,-1.011825 -0.346749,1.011825 z"
         id="path5252"
         inkscape:connector-curvature="0" />
      <path
         d="M 18.637833,95.927704 H 17.75675 v 2.275658 h -0.727604 v -2.275658 h -0.881084 v -0.545703 h 2.489771 z"
         id="path5254"
         inkscape:connector-curvature="0" />
      <path
         d="m 21.116235,98.203362 h -2.040703 v -2.821361 h 2.040703 v 0.545703 h -1.316888 v 0.486964 h 1.222148 v 0.545703 h -1.222148 v 0.697287 h 1.316888 z"
         id="path5256"
         inkscape:connector-curvature="0" />
    </g>
    <path
       style="fill:#1a1a1a;fill-opacity:1;stroke-width:0.90037179"
       d="m 33.423352,30.458251 10e-7,50.666816 c 0,3.277792 -2.623847,5.916592 -5.883065,5.916592 H 8.0830647 C 4.8238469,87.041659 2.2,84.402859 2.2,81.125067 V 30.458251 c 0,-3.277792 2.6238469,-5.916592 5.8830647,-5.916592 H 27.540287 c 3.259218,0 5.883065,2.6388 5.883065,5.916592 z"
       id="rect4570"
       inkscape:connector-curvature="0" />
    <rect
       style="fill:#0088aa;fill-opacity:1;stroke:#37c8c8;stroke-width:0;stroke-linecap:butt;stroke-linejoin:round;stroke-miterlimit:4;stroke-dasharray:none;stroke-opacity:1;paint-order:fill markers stroke"
       id="rect878"
       width="5.999999"
       height="15.227999"
       x="10.6"
       y="8.2331276"
       ry="3.5613866" />
    <rect
       ry="3.5613866"
       y="8.2331276"
       x="18.5"
       height="15.227999"
       width="5.999999"
       id="rect879"
       style="fill:#0088aa;fill-opacity:1;stroke:#37c8c8;stroke-width:0;stroke-linecap:butt;stroke-linejoin:round;stroke-miterlimit:4;stroke-dasharray:none;stroke-opacity:1;paint-order:fill markers stroke" />
    <rect
       style="fill:#0088aa;fill-opacity:1;stroke:#37c8c8;stroke-width:0;stroke-linecap:butt;stroke-linejoin:round;stroke-miterlimit:4;stroke-dasharray:none;stroke-opacity:1;paint-order:fill markers stroke"
       id="rect881"
       width="5.999999"
       height="15.227999"
       x="26.300001"
       y="8.2331276"
       ry="3.5613866" />
    <rect
       ry="2.9999995"
       y="4.3799067"
       x="2.5870006"
       height="19.127998"
       width="5.999999"
       id="rect883"
       style="fill:#0088aa;fill-opacity:1;stroke:#37c8c8;stroke-width:0;stroke-linecap:butt;stroke-linejoin:round;stroke-miterlimit:4;stroke-dasharray:none;stroke-opacity:1;paint-order:fill markers stroke" />
    <rect
       ry="1.9294349"
       y="88.251656"
       x="29.017"
       height="8.249999"
       width="5.3999991"
       id="rect885"
       style="fill:#0088aa;fill-opacity:1;stroke:#37c8c8;stroke-width:0;stroke-linecap:butt;stroke-linejoin:round;stroke-miterlimit:4;stroke-dasharray:none;stroke-opacity:1;paint-order:fill markers stroke" />
  </g>
  <g
     inkscape:groupmode="layer"
     id="layer1"
     inkscape:label="text"
     style="display:inline">
    <text
       xml:space="preserve"
       style="font-style:normal;font-variant:normal;font-weight:normal;font-stretch:normal;font-size:3.52777767px;line-height:1.25;font-family:Calibri;-inkscape-font-specification:'Calibri, Normal';font-variant-ligatures:normal;font-variant-caps:normal;font-variant-numeric:normal;font-feature-settings:normal;text-align:start;letter-spacing:0px;word-spacing:0px;writing-mode:lr-tb;text-anchor:start;display:inline;fill:#f2f2f2;fill-opacity:1;stroke:none;stroke-width:0.26458332"
       x="4.0838528"
       y="16.785194"
       id="text889"><tspan
         sodipodi:role="line"
         id="tspan962"
         x="4.0838528"
         y="16.785194">in</tspan></text>
    <text
       id="text911"
       y="7.9075785"
       x="2.8818789"
       style="font-style:normal;font-variant:normal;font-weight:normal;font-stretch:normal;font-size:2.82222223px;line-height:1.25;font-family:Calibri;-inkscape-font-specification:'Calibri, Normal';font-variant-ligatures:normal;font-variant-caps:normal;font-variant-numeric:normal;font-feature-settings:normal;text-align:start;letter-spacing:0px;word-spacing:0px;writing-mode:lr-tb;text-anchor:start;display:inline;fill:#f2f2f2;fill-opacity:1;stroke:none;stroke-width:0.26458332"
       xml:space="preserve"><tspan
         sodipodi:role="line"
         id="tspan964"
         x="2.8818789"
         y="7.9075785">hold</tspan></text>
    <text
       xml:space="preserve"
       style="font-style:normal;font-variant:normal;font-weight:normal;font-stretch:normal;font-size:3.52777767px;line-height:1.25;font-family:Calibri;-inkscape-font-specification:'Calibri, Normal';font-variant-ligatures:normal;font-variant-caps:normal;font-variant-numeric:normal;font-feature-settings:normal;text-align:start;letter-spacing:0px;word-spacing:0px;writing-mode:lr-tb;text-anchor:start;display:inline;fill:#f2f2f2;fill-opacity:1;stroke:none;stroke-width:0.26458332"
       x="12.803754"
       y="16.708931"
       id="text932"><tspan
         sodipodi:role="line"
         id="tspan960"
         x="12.803754"
         y="16.708931">o</tspan></text>
    <text
       id="text938"
       y="16.762341"
       x="19.520901"
       style="font-style:normal;font-variant:normal;font-weight:normal;font-stretch:normal;font-size:3.52777767px;line-height:1.25;font-family:Calibri;-inkscape-font-specification:'Calibri, Normal';font-variant-ligatures:normal;font-variant-caps:normal;font-variant-numeric:normal;font-feature-settings:normal;text-align:start;letter-spacing:0px;word-spacing:0px;writing-mode:lr-tb;text-anchor:start;display:inline;fill:#f2f2f2;fill-opacity:1;stroke:none;stroke-width:0.26458332"
       xml:space="preserve"><tspan
         sodipodi:role="line"
         id="tspan958"
         x="19.520901"
         y="16.762341">int</tspan></text>
    <text
       xml:space="preserve"
       style="font-style:normal;font-variant:normal;font-weight:normal;font-stretch:normal;font-size:2.82222223px;line-height:1.25;font-family:Calibri;-inkscape-font-specification:'Calibri, Normal';font-variant-ligatures:normal;font-variant-caps:normal;font-variant-numeric:normal;font-feature-settings:normal;text-align:start;letter-spacing:0px;word-spacing:0px;writing-mode:lr-tb;text-anchor:start;display:inline;fill:#f2f2f2;fill-opacity:1;stroke:none;stroke-width:0.26458332"
       x="26.495939"
       y="16.539991"
       id="text944"><tspan
         sodipodi:role="line"
         id="tspan956"
         x="26.495939"
         y="16.539991">wrap</tspan></text>
    <text
       id="text952"
       y="90.223923"
       x="30.927711"
       style="font-style:normal;font-variant:normal;font-weight:normal;font-stretch:normal;font-size:3.52777767px;line-height:1.25;font-family:Calibri;-inkscape-font-specification:'Calibri, Normal';font-variant-ligatures:normal;font-variant-caps:normal;font-variant-numeric:normal;font-feature-settings:normal;text-align:start;letter-spacing:0px;word-spacing:0px;writing-mode:lr-tb;text-anchor:start;display:inline;fill:#f2f2f2;fill-opacity:1;stroke:none;stroke-width:0.26458332"
       xml:space="preserve"><tspan
         sodipodi:role="line"
         id="tspan954"
         x="30.927711"
         y="90.223923">s</tspan></text>
    <g
       aria-label="in"
       style="font-style:normal;font-variant:normal;font-weight:normal;font-stretch:normal;font-size:3.52777767px;line-height:1.25;font-family:Calibri;-inkscape-font-specification:'Calibri, Normal';font-variant-ligatures:normal;font-variant-caps:normal;font-variant-numeric:normal;font-feature-settings:normal;text-align:start;letter-spacing:0px;word-spacing:0px;writing-mode:lr-tb;text-anchor:start;display:inline;fill:#f2f2f2;fill-opacity:1;stroke:none;stroke-width:0.26458332"
       id="text898"
       transform="translate(0,-0.23095041)">
      <path
         d="m 4.6316229,16.973259 q 0,0.01378 -0.00689,0.02412 -0.00689,0.0086 -0.022393,0.0155 -0.015503,0.0069 -0.043064,0.01033 -0.027561,0.0034 -0.070624,0.0034 -0.041341,0 -0.068902,-0.0034 -0.027561,-0.0034 -0.044786,-0.01033 -0.015503,-0.0069 -0.022393,-0.0155 -0.00517,-0.01034 -0.00517,-0.02412 v -1.550293 q 0,-0.01206 0.00517,-0.02239 0.00689,-0.01033 0.022393,-0.01722 0.017225,-0.0069 0.044786,-0.01033 0.027561,-0.0034 0.068902,-0.0034 0.043064,0 0.070624,0.0034 0.027561,0.0034 0.043064,0.01033 0.015503,0.0069 0.022393,0.01722 0.00689,0.01034 0.00689,0.02239 z m 0.032728,-2.073947 q 0,0.09991 -0.037896,0.136081 -0.037896,0.03617 -0.1395264,0.03617 -0.099908,0 -0.1378038,-0.03445 -0.036174,-0.03617 -0.036174,-0.134359 0,-0.09991 0.037896,-0.136081 0.037896,-0.03617 0.1395263,-0.03617 0.099908,0 0.1360813,0.03617 0.037896,0.03445 0.037896,0.132636 z"
         id="path920"
         inkscape:connector-curvature="0" />
      <path
         d="m 6.4954195,16.973259 q 0,0.01378 -0.00689,0.02412 -0.00689,0.0086 -0.022393,0.0155 -0.015503,0.0069 -0.043064,0.01033 -0.027561,0.0034 -0.068902,0.0034 -0.043064,0 -0.070624,-0.0034 -0.027561,-0.0034 -0.043064,-0.01033 -0.015503,-0.0069 -0.022393,-0.0155 -0.00689,-0.01034 -0.00689,-0.02412 v -0.907782 q 0,-0.132636 -0.020671,-0.213596 -0.020671,-0.08096 -0.060289,-0.139527 -0.039619,-0.05857 -0.1033528,-0.08957 -0.062012,-0.03101 -0.144694,-0.03101 -0.106798,0 -0.2135959,0.07579 -0.106798,0.07579 -0.2239312,0.222209 v 1.083482 q 0,0.01378 -0.00689,0.02412 -0.00689,0.0086 -0.022393,0.0155 -0.015503,0.0069 -0.043064,0.01033 -0.027561,0.0034 -0.070625,0.0034 -0.041341,0 -0.068902,-0.0034 -0.027561,-0.0034 -0.044786,-0.01033 -0.015503,-0.0069 -0.022393,-0.0155 -0.00517,-0.01034 -0.00517,-0.02412 v -1.550293 q 0,-0.01378 0.00517,-0.02239 0.00517,-0.01033 0.020671,-0.01722 0.015503,-0.0086 0.039619,-0.01033 0.024116,-0.0034 0.063734,-0.0034 0.037896,0 0.062012,0.0034 0.025838,0.0017 0.039619,0.01033 0.01378,0.0069 0.018948,0.01722 0.00689,0.0086 0.00689,0.02239 v 0.204984 q 0.1309136,-0.146417 0.2601047,-0.213596 0.1309136,-0.0689 0.2635498,-0.0689 0.1550293,0 0.2601047,0.0534 0.1067979,0.05168 0.1722548,0.139526 0.065457,0.08785 0.093018,0.206706 0.029283,0.117133 0.029283,0.282498 z"
         id="path922"
         inkscape:connector-curvature="0" />
    </g>
    <g
       aria-label="hold"
       style="font-style:normal;font-variant:normal;font-weight:normal;font-stretch:normal;font-size:2.82222223px;line-height:1.25;font-family:Calibri;-inkscape-font-specification:'Calibri, Normal';font-variant-ligatures:normal;font-variant-caps:normal;font-variant-numeric:normal;font-feature-settings:normal;text-align:start;letter-spacing:0px;word-spacing:0px;writing-mode:lr-tb;text-anchor:start;display:inline;fill:#f2f2f2;fill-opacity:1;stroke:none;stroke-width:0.26458332"
       id="text902">
      <path
         d="m 4.1606983,7.8731275 q 0,0.011024 -0.00551,0.019293 -0.00551,0.00689 -0.017914,0.012402 -0.012402,0.00551 -0.034451,0.00827 -0.022049,0.00276 -0.055121,0.00276 -0.034451,0 -0.0565,-0.00276 -0.022049,-0.00276 -0.034451,-0.00827 -0.012402,-0.00551 -0.017914,-0.012402 -0.00551,-0.00827 -0.00551,-0.019293 V 7.1469014 q 0,-0.106109 -0.016536,-0.1708768 -0.016536,-0.064768 -0.048231,-0.111621 -0.031695,-0.046853 -0.082682,-0.071658 -0.049609,-0.024805 -0.1157552,-0.024805 -0.085438,0 -0.1708767,0.060634 -0.085438,0.060634 -0.179145,0.1777669 v 0.866786 q 0,0.011024 -0.00551,0.019293 -0.00551,0.00689 -0.017914,0.012402 -0.012402,0.00551 -0.034451,0.00827 -0.022049,0.00276 -0.0565,0.00276 -0.033073,0 -0.055121,-0.00276 -0.022049,-0.00276 -0.035829,-0.00827 -0.012402,-0.00551 -0.017914,-0.012402 -0.00413,-0.00827 -0.00413,-0.019293 v -1.841059 q 0,-0.011024 0.00413,-0.019293 0.00551,-0.00827 0.017914,-0.01378 0.01378,-0.00551 0.035829,-0.00827 0.022049,-0.00276 0.055121,-0.00276 0.034451,0 0.0565,0.00276 0.022049,0.00276 0.034451,0.00827 0.012402,0.00551 0.017914,0.01378 0.00551,0.00827 0.00551,0.019293 v 0.7427626 q 0.097841,-0.1033529 0.1970595,-0.1529623 0.099219,-0.050987 0.1998155,-0.050987 0.1240234,0 0.2080838,0.042719 0.085438,0.041341 0.1378038,0.1116211 0.052365,0.07028 0.074414,0.1653646 0.023427,0.093707 0.023427,0.2273763 z"
         style=""
         id="path925" />
      <path
         d="m 5.7289058,7.2392299 q 0,0.1515842 -0.039963,0.2797418 -0.039963,0.1267795 -0.1198893,0.2191081 -0.078548,0.092328 -0.1984375,0.144694 -0.1185113,0.050987 -0.2756077,0.050987 -0.1529622,0 -0.2673394,-0.045475 Q 4.7146697,7.8428107 4.6388776,7.7559943 4.5630855,7.6691779 4.5258785,7.5451544 4.4886714,7.421131 4.4886714,7.2640346 q 0,-0.1515842 0.038585,-0.2783637 0.039963,-0.1281575 0.1185113,-0.2204861 0.079926,-0.092329 0.1984375,-0.143316 0.1185113,-0.050987 0.2769857,-0.050987 0.1529622,0 0.2659613,0.045475 0.1143772,0.045475 0.1901693,0.1322916 0.075792,0.086816 0.1129991,0.2108399 0.038585,0.1240234 0.038585,0.2797417 z m -0.2397786,0.015159 q 0,-0.1005968 -0.019293,-0.1901693 -0.017915,-0.089573 -0.060634,-0.1570964 -0.042719,-0.067524 -0.1157552,-0.1061089 -0.073036,-0.039963 -0.181901,-0.039963 -0.1005968,0 -0.1736328,0.035829 -0.071658,0.035829 -0.1185113,0.1019748 -0.046853,0.064768 -0.07028,0.1543403 -0.022049,0.089573 -0.022049,0.1956814 0,0.1019748 0.017915,0.1915473 0.019293,0.089573 0.062012,0.1570964 0.044097,0.066146 0.1171333,0.1061089 0.073036,0.038585 0.181901,0.038585 0.099219,0 0.1722548,-0.035829 0.073036,-0.035829 0.1198893,-0.1005968 0.046853,-0.064768 0.068902,-0.1543403 0.022049,-0.089573 0.022049,-0.1970594 z"
         style=""
         id="path927" />
      <path
         d="m 6.2911453,7.8731275 q 0,0.011024 -0.00551,0.019293 -0.00551,0.00689 -0.017914,0.012402 -0.012402,0.00551 -0.034451,0.00827 -0.022049,0.00276 -0.0565,0.00276 -0.033073,0 -0.055122,-0.00276 -0.022049,-0.00276 -0.035829,-0.00827 -0.012402,-0.00551 -0.017915,-0.012402 -0.00413,-0.00827 -0.00413,-0.019293 v -1.841059 q 0,-0.011024 0.00413,-0.019293 0.00551,-0.00827 0.017915,-0.01378 0.01378,-0.00551 0.035829,-0.00827 0.022049,-0.00276 0.055122,-0.00276 0.034451,0 0.0565,0.00276 0.022049,0.00276 0.034451,0.00827 0.012402,0.00551 0.017914,0.01378 0.00551,0.00827 0.00551,0.019293 z"
         style=""
         id="path929" />
      <path
         d="m 7.7766704,7.8731275 q 0,0.011024 -0.00551,0.019293 -0.00413,0.00827 -0.016536,0.01378 -0.011024,0.00413 -0.030317,0.00689 -0.019293,0.00276 -0.046853,0.00276 -0.028939,0 -0.048231,-0.00276 -0.019292,-0.00276 -0.031695,-0.00689 -0.012402,-0.00551 -0.017914,-0.01378 -0.00551,-0.00827 -0.00551,-0.019293 V 7.709141 q -0.097841,0.1061089 -0.2039496,0.1653646 -0.1047309,0.059256 -0.2301324,0.059256 -0.1364258,0 -0.2328885,-0.052366 Q 6.8106657,7.8276523 6.750032,7.7380798 6.6907763,7.6471292 6.6632156,7.5258619 6.6356548,7.4032165 6.6356548,7.2681687 q 0,-0.1598524 0.034451,-0.2880099 0.034451,-0.1295356 0.1019748,-0.2204862 0.067524,-0.09095 0.1667426,-0.1391818 0.1005968,-0.049609 0.2315104,-0.049609 0.108865,0 0.1984375,0.048231 0.09095,0.046853 0.179145,0.1391818 v -0.720714 q 0,-0.00965 0.00413,-0.017914 0.00551,-0.00965 0.019292,-0.01378 0.01378,-0.00551 0.034451,-0.00827 0.022049,-0.00413 0.055121,-0.00413 0.034451,0 0.0565,0.00413 0.022049,0.00276 0.034451,0.00827 0.012402,0.00413 0.017914,0.01378 0.00689,0.00827 0.00689,0.017914 z M 7.5479161,7.0008293 Q 7.4555875,6.8864522 7.3687711,6.8271965 7.2833328,6.7665628 7.1896262,6.7665628 q -0.086817,0 -0.1474501,0.041341 -0.060634,0.041341 -0.099219,0.108865 -0.037207,0.067524 -0.055121,0.1529622 -0.016536,0.085438 -0.016536,0.1736329 0,0.093707 0.01378,0.183279 0.015158,0.089573 0.050987,0.1598525 0.035829,0.068902 0.095085,0.1116211 0.059256,0.041341 0.1488281,0.041341 0.045475,0 0.086816,-0.012402 0.042719,-0.012402 0.086816,-0.041341 0.044097,-0.028939 0.092329,-0.074414 0.048231,-0.046853 0.1019748,-0.1143772 z"
         style=""
         id="path931" />
    </g>
    <g
       aria-label="o"
       style="font-style:normal;font-variant:normal;font-weight:normal;font-stretch:normal;font-size:3.52777767px;line-height:1.25;font-family:Calibri;-inkscape-font-specification:'Calibri, Normal';font-variant-ligatures:normal;font-variant-caps:normal;font-variant-numeric:normal;font-feature-settings:normal;text-align:start;letter-spacing:0px;word-spacing:0px;writing-mode:lr-tb;text-anchor:start;display:inline;fill:#f2f2f2;fill-opacity:1;stroke:none;stroke-width:0.26458332"
       id="text906"
       transform="translate(0,-0.37641466)">
      <path
         d="m 14.509076,16.200268 q 0,0.18948 -0.04995,0.349677 -0.04995,0.158475 -0.149861,0.273885 -0.09819,0.115411 -0.248047,0.180868 -0.148139,0.06373 -0.34451,0.06373 -0.191203,0 -0.334174,-0.05684 -0.141249,-0.05684 -0.235989,-0.165365 -0.09474,-0.10852 -0.141249,-0.263549 -0.04651,-0.15503 -0.04651,-0.3514 0,-0.18948 0.04823,-0.347955 0.04995,-0.160197 0.14814,-0.275607 0.09991,-0.115411 0.248046,-0.179145 0.14814,-0.06373 0.346233,-0.06373 0.191202,0 0.332451,0.05684 0.142972,0.05685 0.237712,0.165365 0.09474,0.108521 0.141249,0.26355 0.04823,0.155029 0.04823,0.349677 z m -0.299723,0.01895 q 0,-0.125746 -0.02412,-0.237712 -0.02239,-0.111965 -0.07579,-0.19637 -0.0534,-0.0844 -0.144694,-0.132636 -0.0913,-0.04995 -0.227376,-0.04995 -0.125746,0 -0.217041,0.04479 -0.08957,0.04479 -0.148139,0.127469 -0.05857,0.08096 -0.08785,0.192925 -0.02756,0.111966 -0.02756,0.244602 0,0.127468 0.02239,0.239434 0.02412,0.111966 0.07752,0.19637 0.05512,0.08268 0.146416,0.132637 0.0913,0.04823 0.227377,0.04823 0.124023,0 0.215318,-0.04479 0.0913,-0.04479 0.149862,-0.125746 0.05857,-0.08096 0.08613,-0.192926 0.02756,-0.111965 0.02756,-0.246324 z"
         id="path934"
         inkscape:connector-curvature="0" />
    </g>
    <g
       aria-label="int"
       style="font-style:normal;font-variant:normal;font-weight:normal;font-stretch:normal;font-size:3.52777767px;line-height:1.25;font-family:Calibri;-inkscape-font-specification:'Calibri, Normal';font-variant-ligatures:normal;font-variant-caps:normal;font-variant-numeric:normal;font-feature-settings:normal;text-align:start;letter-spacing:0px;word-spacing:0px;writing-mode:lr-tb;text-anchor:start;display:inline;fill:#f2f2f2;fill-opacity:1;stroke:none;stroke-width:0.26458332"
       id="text910"
       transform="translate(0.16871114,-0.27336341)">
      <path
         d="m 19.89996,16.99264 q 0,0.01378 -0.0069,0.02412 -0.0069,0.0086 -0.02239,0.0155 -0.0155,0.0069 -0.04306,0.01034 -0.02756,0.0034 -0.07062,0.0034 -0.04134,0 -0.0689,-0.0034 -0.02756,-0.0034 -0.04479,-0.01034 -0.0155,-0.0069 -0.02239,-0.0155 -0.0052,-0.01034 -0.0052,-0.02412 v -1.550293 q 0,-0.01206 0.0052,-0.02239 0.0069,-0.01034 0.02239,-0.01723 0.01722,-0.0069 0.04479,-0.01033 0.02756,-0.0034 0.0689,-0.0034 0.04306,0 0.07062,0.0034 0.02756,0.0034 0.04306,0.01033 0.0155,0.0069 0.02239,0.01723 0.0069,0.01033 0.0069,0.02239 z m 0.03273,-2.073947 q 0,0.09991 -0.0379,0.136081 -0.0379,0.03617 -0.139527,0.03617 -0.09991,0 -0.137804,-0.03445 -0.03617,-0.03617 -0.03617,-0.134358 0,-0.09991 0.0379,-0.136082 0.0379,-0.03617 0.139526,-0.03617 0.09991,0 0.136082,0.03617 0.0379,0.03445 0.0379,0.132637 z"
         id="path937"
         inkscape:connector-curvature="0" />
      <path
         d="m 21.763757,16.99264 q 0,0.01378 -0.0069,0.02412 -0.0069,0.0086 -0.02239,0.0155 -0.0155,0.0069 -0.04306,0.01034 -0.02756,0.0034 -0.0689,0.0034 -0.04306,0 -0.07062,-0.0034 -0.02756,-0.0034 -0.04306,-0.01034 -0.0155,-0.0069 -0.02239,-0.0155 -0.0069,-0.01034 -0.0069,-0.02412 v -0.907783 q 0,-0.132636 -0.02067,-0.213596 -0.02067,-0.08096 -0.06029,-0.139526 -0.03962,-0.05857 -0.103353,-0.08957 -0.06201,-0.03101 -0.144694,-0.03101 -0.106798,0 -0.213596,0.07579 -0.106798,0.07579 -0.223931,0.222208 v 1.083483 q 0,0.01378 -0.0069,0.02412 -0.0069,0.0086 -0.02239,0.0155 -0.0155,0.0069 -0.04306,0.01034 -0.02756,0.0034 -0.07062,0.0034 -0.04134,0 -0.0689,-0.0034 -0.02756,-0.0034 -0.04479,-0.01034 -0.0155,-0.0069 -0.02239,-0.0155 -0.0052,-0.01034 -0.0052,-0.02412 v -1.550293 q 0,-0.01378 0.0052,-0.02239 0.0052,-0.01034 0.02067,-0.01723 0.0155,-0.0086 0.03962,-0.01033 0.02412,-0.0034 0.06373,-0.0034 0.0379,0 0.06201,0.0034 0.02584,0.0017 0.03962,0.01033 0.01378,0.0069 0.01895,0.01723 0.0069,0.0086 0.0069,0.02239 v 0.204983 q 0.130914,-0.146416 0.260105,-0.213596 0.130913,-0.0689 0.263549,-0.0689 0.15503,0 0.260105,0.0534 0.106798,0.05168 0.172255,0.139527 0.06546,0.08785 0.09302,0.206705 0.02928,0.117134 0.02928,0.282498 z"
         id="path939"
         inkscape:connector-curvature="0" />
      <path
         d="m 23.053945,16.878952 q 0,0.04995 -0.0069,0.07924 -0.0069,0.02928 -0.02067,0.04306 -0.01378,0.01378 -0.04134,0.02584 -0.02756,0.01206 -0.06373,0.01895 -0.03445,0.0086 -0.07407,0.01378 -0.03962,0.0052 -0.07924,0.0052 -0.120578,0 -0.206706,-0.03101 -0.08613,-0.03273 -0.141249,-0.09646 -0.05512,-0.06546 -0.08096,-0.163642 -0.02412,-0.09991 -0.02412,-0.234266 v -0.90606 h -0.217041 q -0.02584,0 -0.04134,-0.02756 -0.0155,-0.02756 -0.0155,-0.08957 0,-0.03273 0.0034,-0.05512 0.0052,-0.02239 0.01206,-0.03617 0.0069,-0.0155 0.01722,-0.02067 0.01206,-0.0069 0.02584,-0.0069 h 0.215318 v -0.368625 q 0,-0.01206 0.0052,-0.02239 0.0069,-0.01033 0.02239,-0.01722 0.01722,-0.0086 0.04479,-0.01206 0.02756,-0.0034 0.0689,-0.0034 0.04306,0 0.07062,0.0034 0.02756,0.0034 0.04306,0.01206 0.0155,0.0069 0.02239,0.01722 0.0069,0.01034 0.0069,0.02239 v 0.368625 h 0.397909 q 0.01378,0 0.02412,0.0069 0.01034,0.0052 0.01722,0.02067 0.0086,0.01378 0.01206,0.03617 0.0034,0.02239 0.0034,0.05512 0,0.06201 -0.0155,0.08957 -0.0155,0.02756 -0.04134,0.02756 h -0.397909 v 0.864719 q 0,0.160197 0.04651,0.242879 0.04823,0.08096 0.170532,0.08096 0.03962,0 0.07062,-0.0069 0.03101,-0.0086 0.05512,-0.01723 0.02412,-0.0086 0.04134,-0.0155 0.01722,-0.0086 0.03101,-0.0086 0.0086,0 0.0155,0.0052 0.0086,0.0034 0.01206,0.0155 0.0052,0.01206 0.0086,0.03273 0.0034,0.02067 0.0034,0.05168 z"
         id="path941"
         inkscape:connector-curvature="0" />
    </g>
    <g
       aria-label="wrap"
       style="font-style:normal;font-variant:normal;font-weight:normal;font-stretch:normal;font-size:2.82222223px;line-height:1.25;font-family:Calibri;-inkscape-font-specification:'Calibri, Normal';font-variant-ligatures:normal;font-variant-caps:normal;font-variant-numeric:normal;font-feature-settings:normal;text-align:start;letter-spacing:0px;word-spacing:0px;writing-mode:lr-tb;text-anchor:start;display:inline;fill:#f2f2f2;fill-opacity:1;stroke:none;stroke-width:0.26458332"
       id="text914"
       transform="translate(0,-0.23112941)">
      <path
         d="m 28.441729,15.493679 q 0,0.0096 -0.0028,0.02343 -0.0028,0.01378 -0.0096,0.03445 l -0.36518,1.178223 q -0.0041,0.01516 -0.01378,0.02481 -0.0083,0.0096 -0.0248,0.01516 -0.01516,0.0055 -0.04272,0.0069 -0.02756,0.0028 -0.0689,0.0028 -0.04272,0 -0.07166,-0.0028 -0.02894,-0.0028 -0.04685,-0.0083 -0.01654,-0.0055 -0.0248,-0.01516 -0.0083,-0.0096 -0.0124,-0.02343 l -0.260449,-0.899859 -0.0028,-0.0124 -0.0028,0.0124 -0.241157,0.899859 q -0.0041,0.01516 -0.01378,0.02481 -0.0083,0.0096 -0.02618,0.01516 -0.01791,0.0055 -0.04685,0.0069 -0.02756,0.0028 -0.0689,0.0028 -0.04272,0 -0.07028,-0.0028 -0.02618,-0.0028 -0.0441,-0.0083 -0.01654,-0.0055 -0.02481,-0.01516 -0.0083,-0.0096 -0.0124,-0.02343 l -0.362424,-1.178223 q -0.0069,-0.02067 -0.0096,-0.03445 -0.0028,-0.01378 -0.0028,-0.02343 0,-0.0124 0.0055,-0.01929 0.0055,-0.0083 0.01791,-0.0124 0.01378,-0.0055 0.03583,-0.0069 0.02205,-0.0014 0.05374,-0.0014 0.03859,0 0.06201,0.0028 0.02343,0.0014 0.03583,0.0069 0.0124,0.0041 0.01792,0.01378 0.0055,0.0083 0.0096,0.02067 l 0.299034,1.022504 0.0028,0.0124 0.0028,-0.0124 0.27423,-1.022504 q 0.0028,-0.0124 0.0083,-0.02067 0.0069,-0.0096 0.01929,-0.01378 0.0124,-0.0055 0.03307,-0.0069 0.02205,-0.0028 0.0565,-0.0028 0.03307,0 0.05374,0.0028 0.02205,0.0014 0.03445,0.0069 0.0124,0.0041 0.01791,0.0124 0.0055,0.0083 0.0083,0.01929 l 0.296279,1.02526 0.0028,0.0124 0.0014,-0.0124 0.2949,-1.022504 q 0.0028,-0.0124 0.0083,-0.02067 0.0069,-0.0096 0.01929,-0.01378 0.01378,-0.0055 0.03583,-0.0069 0.02343,-0.0028 0.05926,-0.0028 0.03307,0 0.05237,0.0014 0.02067,0.0014 0.03169,0.0069 0.0124,0.0055 0.01654,0.0124 0.0055,0.0069 0.0055,0.01929 z"
         id="path944"
         inkscape:connector-curvature="0" />
      <path
         d="m 29.449075,15.577739 q 0,0.03032 -0.0014,0.05099 -0.0014,0.02067 -0.0055,0.03307 -0.0041,0.01103 -0.01102,0.01792 -0.0055,0.0055 -0.01654,0.0055 -0.01102,0 -0.02756,-0.0055 -0.01516,-0.0069 -0.03583,-0.0124 -0.01929,-0.0069 -0.0441,-0.0124 -0.0248,-0.0055 -0.05374,-0.0055 -0.03445,0 -0.06752,0.01378 -0.03307,0.01378 -0.07028,0.04548 -0.03583,0.03169 -0.07579,0.08406 -0.03996,0.05237 -0.0882,0.128158 v 0.815798 q 0,0.01102 -0.0055,0.01929 -0.0055,0.0069 -0.01791,0.0124 -0.0124,0.0055 -0.03445,0.0083 -0.02205,0.0028 -0.0565,0.0028 -0.03307,0 -0.05512,-0.0028 -0.02205,-0.0028 -0.03583,-0.0083 -0.0124,-0.0055 -0.01792,-0.0124 -0.0041,-0.0083 -0.0041,-0.01929 v -1.240234 q 0,-0.01103 0.0041,-0.01792 0.0041,-0.0083 0.01654,-0.01378 0.0124,-0.0069 0.03169,-0.0083 0.01929,-0.0028 0.05099,-0.0028 0.03032,0 0.04961,0.0028 0.02067,0.0014 0.03169,0.0083 0.01102,0.0055 0.01516,0.01378 0.0055,0.0069 0.0055,0.01792 v 0.180523 q 0.05099,-0.07441 0.09508,-0.121268 0.04548,-0.04685 0.08544,-0.07304 0.03996,-0.02756 0.07855,-0.03721 0.03996,-0.01102 0.07993,-0.01102 0.01791,0 0.03996,0.0028 0.02343,0.0014 0.04823,0.0069 0.0248,0.0055 0.0441,0.0124 0.02067,0.0069 0.02894,0.01378 0.0083,0.0069 0.01102,0.01378 0.0028,0.0055 0.0041,0.01516 0.0028,0.0096 0.0028,0.02894 0.0014,0.01791 0.0014,0.04961 z"
         id="path946"
         inkscape:connector-curvature="0" />
      <path
         d="m 30.590091,16.738047 q 0,0.01654 -0.01103,0.0248 -0.01102,0.0083 -0.03032,0.0124 -0.01929,0.0041 -0.0565,0.0041 -0.03583,0 -0.05788,-0.0041 -0.02067,-0.0041 -0.03032,-0.0124 -0.0096,-0.0083 -0.0096,-0.0248 v -0.124023 q -0.0813,0.08682 -0.181901,0.135047 -0.09922,0.04823 -0.21084,0.04823 -0.09784,0 -0.177766,-0.02618 -0.07855,-0.02481 -0.135048,-0.07304 -0.05512,-0.04823 -0.08682,-0.118511 -0.03032,-0.07028 -0.03032,-0.159853 0,-0.104731 0.04272,-0.181901 0.04272,-0.07717 0.122645,-0.128157 0.07993,-0.05099 0.195682,-0.07579 0.115755,-0.02618 0.260449,-0.02618 h 0.170877 v -0.09646 q 0,-0.07166 -0.01516,-0.126779 -0.01516,-0.05512 -0.04961,-0.09095 -0.03307,-0.03721 -0.08682,-0.05512 -0.05374,-0.01929 -0.132291,-0.01929 -0.08406,0 -0.151585,0.02067 -0.06614,0.01929 -0.117133,0.0441 -0.04961,0.02343 -0.08406,0.0441 -0.03307,0.01929 -0.04961,0.01929 -0.01102,0 -0.01929,-0.0055 -0.0083,-0.0055 -0.01516,-0.01654 -0.0055,-0.01102 -0.0083,-0.02756 -0.0028,-0.01791 -0.0028,-0.03858 0,-0.03445 0.0041,-0.05374 0.0055,-0.02067 0.02343,-0.03858 0.01929,-0.01792 0.06477,-0.04134 0.04547,-0.0248 0.104731,-0.0441 0.05926,-0.02067 0.129535,-0.03307 0.07028,-0.01378 0.141938,-0.01378 0.13367,0 0.227377,0.03032 0.09371,0.03032 0.151584,0.08957 0.05788,0.05788 0.08406,0.144694 0.02618,0.08682 0.02618,0.202572 z m -0.225998,-0.566374 h -0.194304 q -0.09371,0 -0.162608,0.01654 -0.0689,0.01516 -0.114378,0.04685 -0.04547,0.03032 -0.06752,0.07441 -0.02067,0.04272 -0.02067,0.09922 0,0.09646 0.06063,0.15434 0.06201,0.0565 0.172254,0.0565 0.08957,0 0.165365,-0.04547 0.07717,-0.04548 0.161231,-0.139182 z"
         id="path948"
         inkscape:connector-curvature="0" />
      <path
         d="m 32.147274,16.097259 q 0,0.162609 -0.03583,0.292144 -0.03445,0.129536 -0.103353,0.220487 -0.06752,0.08957 -0.16812,0.139181 -0.100597,0.04823 -0.230133,0.04823 -0.05512,0 -0.101975,-0.01103 -0.04685,-0.01102 -0.09233,-0.03445 -0.0441,-0.02343 -0.08819,-0.05926 -0.0441,-0.03583 -0.09371,-0.08406 v 0.620117 q 0,0.01102 -0.0055,0.01929 -0.0055,0.0083 -0.01791,0.01378 -0.0124,0.0055 -0.03445,0.0083 -0.02205,0.0028 -0.0565,0.0028 -0.03307,0 -0.05512,-0.0028 -0.02205,-0.0028 -0.03583,-0.0083 -0.0124,-0.0055 -0.01791,-0.01378 -0.0041,-0.0083 -0.0041,-0.01929 v -1.732194 q 0,-0.0124 0.0041,-0.01929 0.0041,-0.0083 0.01654,-0.01378 0.0124,-0.0055 0.03169,-0.0069 0.01929,-0.0028 0.04685,-0.0028 0.02894,0 0.04685,0.0028 0.01929,0.0014 0.03169,0.0069 0.0124,0.0055 0.01654,0.01378 0.0055,0.0069 0.0055,0.01929 v 0.166742 q 0.0565,-0.05788 0.108865,-0.100596 0.05237,-0.04272 0.104731,-0.07028 0.05374,-0.02894 0.108865,-0.04272 0.0565,-0.01516 0.118511,-0.01516 0.135048,0 0.230133,0.05236 0.09508,0.05237 0.15434,0.143316 0.06063,0.09095 0.08819,0.212218 0.02756,0.11989 0.02756,0.254937 z m -0.239778,0.02618 q 0,-0.09509 -0.01516,-0.183279 -0.01378,-0.08957 -0.04961,-0.158474 -0.03445,-0.0689 -0.09371,-0.110243 -0.05926,-0.04134 -0.14745,-0.04134 -0.0441,0 -0.08682,0.01378 -0.04272,0.0124 -0.08682,0.04134 -0.0441,0.02756 -0.09233,0.07441 -0.04823,0.04548 -0.101975,0.112999 v 0.493338 q 0.09371,0.114377 0.177767,0.175011 0.08406,0.06063 0.176389,0.06063 0.08544,0 0.146072,-0.04134 0.06201,-0.04134 0.09922,-0.110243 0.03858,-0.0689 0.0565,-0.15434 0.01791,-0.08544 0.01791,-0.172255 z"
         id="path950"
         inkscape:connector-curvature="0" />
    </g>
    <g
       aria-label="s"
       style="font-style:normal;font-variant:normal;font-weight:normal;font-stretch:normal;font-size:3.52777767px;line-height:1.25;font-family:Calibri;-inkscape-font-specification:'Calibri, Normal';font-variant-ligatures:normal;font-variant-caps:normal;font-variant-numeric:normal;font-feature-settings:normal;text-align:start;letter-spacing:0px;word-spacing:0px;writing-mode:lr-tb;text-anchor:start;display:inline;fill:#f2f2f2;fill-opacity:1;stroke:none;stroke-width:0.26458332"
       id="text918"
       transform="translate(0,-0.10000264)">
      <path
         d="m 32.164501,89.858841 q 0,0.118856 -0.04479,0.211873 -0.04306,0.09302 -0.124023,0.156752 -0.08096,0.06373 -0.192925,0.09646 -0.111966,0.03273 -0.246325,0.03273 -0.08268,0 -0.158474,-0.01378 -0.07407,-0.01206 -0.134359,-0.03101 -0.05857,-0.02067 -0.09991,-0.04134 -0.04134,-0.02239 -0.06029,-0.03962 -0.01895,-0.01723 -0.02756,-0.04823 -0.0086,-0.03101 -0.0086,-0.08441 0,-0.03273 0.0034,-0.05512 0.0034,-0.02239 0.0086,-0.03617 0.0052,-0.01378 0.01378,-0.01895 0.01034,-0.0069 0.02239,-0.0069 0.01895,0 0.05512,0.02412 0.0379,0.02239 0.09129,0.04995 0.05512,0.02756 0.129191,0.05168 0.07407,0.02239 0.170532,0.02239 0.07235,0 0.130914,-0.0155 0.05857,-0.0155 0.10163,-0.04479 0.04306,-0.03101 0.06546,-0.07751 0.02411,-0.04651 0.02411,-0.110243 0,-0.06546 -0.03445,-0.110243 -0.03273,-0.04479 -0.08785,-0.07924 -0.05512,-0.03445 -0.124024,-0.06029 -0.0689,-0.02756 -0.142971,-0.05684 -0.07235,-0.02928 -0.142972,-0.06546 -0.0689,-0.0379 -0.124023,-0.0913 -0.05512,-0.0534 -0.08957,-0.127469 -0.03273,-0.07407 -0.03273,-0.177422 0,-0.0913 0.03445,-0.173978 0.03617,-0.0844 0.106798,-0.146416 0.07062,-0.06373 0.1757,-0.10163 0.106798,-0.0379 0.248047,-0.0379 0.06201,0 0.124023,0.01033 0.06201,0.01033 0.111966,0.02584 0.04995,0.0155 0.0844,0.03445 0.03617,0.01723 0.0534,0.03101 0.01895,0.01378 0.02412,0.02412 0.0069,0.01034 0.0086,0.02412 0.0034,0.01206 0.0052,0.03101 0.0034,0.01895 0.0034,0.04651 0,0.02928 -0.0034,0.05168 -0.0017,0.02067 -0.0086,0.03445 -0.0052,0.01378 -0.01378,0.02067 -0.0086,0.0052 -0.01895,0.0052 -0.0155,0 -0.04479,-0.01895 -0.02928,-0.01895 -0.07579,-0.03962 -0.04651,-0.02239 -0.110243,-0.04134 -0.06201,-0.01895 -0.142972,-0.01895 -0.07235,0 -0.127468,0.01723 -0.05512,0.0155 -0.09129,0.04651 -0.03445,0.02928 -0.0534,0.07062 -0.01723,0.04134 -0.01723,0.08957 0,0.06718 0.03445,0.113688 0.03445,0.04479 0.08957,0.07924 0.05512,0.03445 0.125746,0.06201 0.07062,0.02756 0.142971,0.05684 0.07407,0.02928 0.144694,0.06546 0.07235,0.03617 0.127469,0.08785 0.05512,0.05168 0.08785,0.124023 0.03445,0.07235 0.03445,0.172255 z"
         id="path953"
         inkscape:connector-curvature="0" />
    </g>
    <text
       id="text968"
       y="4.4410381"
       x="12.523121"
       style="font-style:italic;font-variant:normal;font-weight:bold;font-stretch:normal;font-size:3.52777767px;line-height:1.25;font-family:Calibri;-inkscape-font-specification:'Calibri, Bold Italic';font-variant-ligatures:normal;font-variant-caps:normal;font-variant-numeric:normal;font-feature-settings:normal;text-align:start;letter-spacing:0px;word-spacing:0px;writing-mode:lr-tb;text-anchor:start;display:inline;fill:#f2f2f2;fill-opacity:1;stroke:none;stroke-width:0.26458332"
       xml:space="preserve"><tspan
         sodipodi:role="line"
         id="tspan970"
         x="12.523121"
         y="4.4410381">N.E.W.S</tspan></text>
    <g
       aria-label="N.E.W.S"
       style="font-style:italic;font-variant:normal;font-weight:bold;font-stretch:normal;font-size:3.52777767px;line-height:1.25;font-family:Calibri;-inkscape-font-specification:'Calibri, Bold Italic';font-variant-ligatures:normal;font-variant-caps:normal;font-variant-numeric:normal;font-feature-settings:normal;text-align:start;letter-spacing:0px;word-spacing:0px;writing-mode:lr-tb;text-anchor:start;display:inline;fill:#f2f2f2;fill-opacity:1;stroke:none;stroke-width:0.26458332"
       id="text974"
       transform="translate(0,1.2003924)">
      <path
         d="m 14.464432,3.0821725 q -0.0069,0.039619 -0.02756,0.070624 -0.01895,0.031006 -0.04651,0.051676 -0.02584,0.020671 -0.05857,0.031006 -0.03101,0.00861 -0.06546,0.00861 h -0.192925 q -0.06201,0 -0.101631,-0.012058 -0.03962,-0.012058 -0.0689,-0.043064 -0.02756,-0.031006 -0.04995,-0.084405 -0.02239,-0.053399 -0.04651,-0.1360813 L 13.477412,1.9728517 q -0.0379,-0.1154107 -0.07062,-0.2325439 -0.03101,-0.1171332 -0.06029,-0.2325439 h -0.0034 q -0.01723,0.1360812 -0.03962,0.2687174 -0.02239,0.1309136 -0.04995,0.2635498 l -0.227376,1.138604 q -0.0034,0.017225 -0.01723,0.031006 -0.01206,0.01378 -0.0379,0.022393 -0.02584,0.00861 -0.06718,0.01378 -0.03962,0.00517 -0.09991,0.00517 -0.06029,0 -0.09991,-0.00517 -0.0379,-0.00517 -0.05857,-0.01378 -0.02067,-0.00861 -0.02756,-0.022393 -0.0052,-0.01378 0,-0.031006 L 13.01925,1.1735896 q 0.0155,-0.08096 0.07062,-0.1205783 0.05512,-0.041341 0.124024,-0.041341 h 0.235989 q 0.05684,0 0.09646,0.01378 0.04134,0.012058 0.0689,0.041341 0.02928,0.027561 0.04995,0.072347 0.02239,0.044786 0.04134,0.110243 l 0.332452,1.0042453 q 0.03273,0.096463 0.05857,0.1912028 0.02756,0.09474 0.05685,0.1894803 h 0.0034 q 0.01895,-0.1240235 0.04134,-0.2549371 0.02412,-0.1326362 0.04823,-0.2566596 l 0.211873,-1.0507541 q 0.0034,-0.017226 0.0155,-0.029283 0.01206,-0.01378 0.03617,-0.020671 0.02584,-0.00861 0.06546,-0.012058 0.03962,-0.00517 0.09991,-0.00517 0.06029,0 0.09991,0.00517 0.03962,0.00345 0.06029,0.012058 0.02067,0.00689 0.02756,0.020671 0.0069,0.012058 0.0034,0.029283 z"
         id="path976"
         inkscape:connector-curvature="0" />
      <path
         d="m 15.461787,2.8995824 q 0,0.025838 -0.0052,0.067179 -0.0052,0.041341 -0.01723,0.086127 -0.01033,0.043064 -0.02928,0.084405 -0.01723,0.039619 -0.04479,0.067179 -0.02584,0.025838 -0.07924,0.041341 -0.05168,0.017226 -0.137804,0.017226 -0.06373,0 -0.106797,-0.010335 -0.04134,-0.010335 -0.06718,-0.031006 -0.02412,-0.020671 -0.03445,-0.051676 -0.01033,-0.032728 -0.01033,-0.075792 0,-0.027561 0.0052,-0.068902 0.0069,-0.041341 0.01722,-0.084405 0.01206,-0.044786 0.02928,-0.084405 0.01895,-0.039619 0.04651,-0.065457 0.02756,-0.027561 0.07752,-0.043064 0.04995,-0.017225 0.139526,-0.017225 0.06718,0 0.110243,0.012058 0.04306,0.012058 0.06718,0.034451 0.02412,0.020671 0.03101,0.053399 0.0086,0.031006 0.0086,0.068902 z"
         id="path978"
         inkscape:connector-curvature="0" />
      <path
         d="m 17.601191,1.0771269 q 0,0.010335 -0.0034,0.036173 -0.0017,0.025838 -0.0069,0.058567 -0.0052,0.031006 -0.01378,0.065457 -0.0086,0.034451 -0.02239,0.063734 -0.01206,0.027561 -0.03101,0.046509 -0.01723,0.018948 -0.0379,0.018948 H 16.689964 L 16.579721,1.91084 h 0.675238 q 0.02412,0 0.03445,0.017225 0.01034,0.017226 0.01034,0.048231 0,0.012058 -0.0034,0.037896 -0.0017,0.024116 -0.0069,0.056844 -0.0052,0.031006 -0.01378,0.063734 -0.0086,0.032728 -0.02239,0.060289 -0.01206,0.027561 -0.02928,0.044786 -0.01723,0.017225 -0.0379,0.017225 h -0.673558 l -0.127468,0.628732 h 0.806152 q 0.02067,0 0.03101,0.018948 0.01033,0.017225 0.01033,0.051677 0,0.012058 -0.0017,0.037896 -0.0017,0.025838 -0.0086,0.058567 -0.0052,0.031006 -0.01378,0.063734 -0.0086,0.032728 -0.02239,0.062012 -0.01206,0.027561 -0.02928,0.044786 -0.01722,0.017225 -0.03962,0.017225 h -1.119656 q -0.02756,0 -0.04995,-0.00689 -0.02239,-0.00861 -0.0379,-0.025838 -0.01378,-0.018948 -0.01895,-0.044786 -0.0052,-0.027561 0.0017,-0.065457 L 16.28172,1.1546416 q 0.0155,-0.075792 0.06201,-0.1085205 0.04651,-0.034451 0.103352,-0.034451 h 1.109321 q 0.04479,0 0.04479,0.065457 z"
         id="path980"
         inkscape:connector-curvature="0" />
      <path
         d="m 18.128291,2.8995824 q 0,0.025838 -0.0052,0.067179 -0.0052,0.041341 -0.01722,0.086127 -0.01034,0.043064 -0.02928,0.084405 -0.01723,0.039619 -0.04479,0.067179 -0.02584,0.025838 -0.07924,0.041341 -0.05168,0.017226 -0.137804,0.017226 -0.06373,0 -0.106798,-0.010335 -0.04134,-0.010335 -0.06718,-0.031006 -0.02412,-0.020671 -0.03445,-0.051676 -0.01034,-0.032728 -0.01034,-0.075792 0,-0.027561 0.0052,-0.068902 0.0069,-0.041341 0.01723,-0.084405 0.01206,-0.044786 0.02928,-0.084405 0.01895,-0.039619 0.04651,-0.065457 0.02756,-0.027561 0.07751,-0.043064 0.04995,-0.017225 0.139526,-0.017225 0.06718,0 0.110243,0.012058 0.04306,0.012058 0.06718,0.034451 0.02412,0.020671 0.03101,0.053399 0.0086,0.031006 0.0086,0.068902 z"
         id="path982"
         inkscape:connector-curvature="0" />
      <path
         d="m 20.760344,3.1286812 q -0.01723,0.041341 -0.03962,0.067179 -0.02239,0.024116 -0.06029,0.036173 -0.0379,0.012058 -0.09646,0.015503 -0.05685,0.00345 -0.144694,0.00345 -0.09302,0 -0.151585,-0.00345 -0.05684,-0.00345 -0.08957,-0.01378 -0.03101,-0.012058 -0.04306,-0.034451 -0.01206,-0.022393 -0.01378,-0.058567 L 20.040319,1.712747 h -0.0034 l -0.618395,1.4159342 q -0.01722,0.041341 -0.0379,0.067179 -0.01895,0.024116 -0.05168,0.036173 -0.03273,0.012058 -0.08957,0.015503 -0.05684,0.00345 -0.146416,0.00345 -0.103353,0 -0.165365,-0.00345 -0.06201,-0.00345 -0.09646,-0.015503 -0.03273,-0.012058 -0.04479,-0.037896 -0.01034,-0.025838 -0.01206,-0.070625 L 18.653668,1.1632543 q -0.0017,-0.055122 0.0017,-0.08785 0.0052,-0.032728 0.02928,-0.048231 0.02412,-0.017225 0.07062,-0.020671 0.04823,-0.00517 0.134359,-0.00517 0.07062,0 0.118856,0.00517 0.04823,0.00345 0.07062,0.015503 0.02412,0.010335 0.02928,0.029283 0.0069,0.018948 0.0069,0.049954 l 0.04479,1.7001546 h 0.0034 l 0.752754,-1.698432 q 0.01378,-0.032729 0.02928,-0.051677 0.01722,-0.020671 0.04651,-0.031006 0.02928,-0.012058 0.07579,-0.015503 0.04823,-0.00345 0.127468,-0.00345 0.07924,0 0.125746,0.00345 0.04651,0.00345 0.07062,0.015503 0.02412,0.010335 0.03101,0.031006 0.0069,0.020671 0.0086,0.055122 l 0.08613,1.694987 h 0.0034 l 0.732083,-1.7191026 q 0.0086,-0.024116 0.02239,-0.039619 0.0155,-0.017225 0.04306,-0.025838 0.02928,-0.00861 0.07751,-0.012058 0.04823,-0.00345 0.124023,-0.00345 0.07407,0 0.115411,0.00689 0.04306,0.00517 0.05857,0.024116 0.0155,0.018948 0.0052,0.056844 -0.01033,0.036174 -0.03617,0.096463 z"
         id="path984"
         inkscape:connector-curvature="0" />
      <path
         d="m 21.828324,2.8995824 q 0,0.025838 -0.0052,0.067179 -0.0052,0.041341 -0.01722,0.086127 -0.01034,0.043064 -0.02928,0.084405 -0.01722,0.039619 -0.04479,0.067179 -0.02584,0.025838 -0.07924,0.041341 -0.05168,0.017226 -0.137804,0.017226 -0.06373,0 -0.106798,-0.010335 -0.04134,-0.010335 -0.06718,-0.031006 -0.02412,-0.020671 -0.03445,-0.051676 -0.01033,-0.032728 -0.01033,-0.075792 0,-0.027561 0.0052,-0.068902 0.0069,-0.041341 0.01723,-0.084405 0.01206,-0.044786 0.02928,-0.084405 0.01895,-0.039619 0.04651,-0.065457 0.02756,-0.027561 0.07751,-0.043064 0.04995,-0.017225 0.139527,-0.017225 0.06718,0 0.110243,0.012058 0.04306,0.012058 0.06718,0.034451 0.02412,0.020671 0.03101,0.053399 0.0086,0.031006 0.0086,0.068902 z"
         id="path986"
         inkscape:connector-curvature="0" />
      <path
         d="m 23.80064,1.1822023 q 0,0.01378 -0.0034,0.039619 -0.0017,0.025838 -0.0069,0.056844 -0.0052,0.031006 -0.01378,0.063734 -0.0069,0.031006 -0.01895,0.058567 -0.01034,0.025838 -0.02412,0.043064 -0.01378,0.017226 -0.02928,0.017226 -0.02412,0 -0.06029,-0.020671 -0.03617,-0.022393 -0.08957,-0.046509 -0.05168,-0.025838 -0.122301,-0.046509 -0.07062,-0.022393 -0.160197,-0.022393 -0.09302,0 -0.158474,0.025838 -0.06374,0.025838 -0.105076,0.068902 -0.04134,0.041341 -0.06201,0.09474 -0.01895,0.051676 -0.01895,0.1050754 0,0.062012 0.03101,0.110243 0.03101,0.046509 0.08268,0.08785 0.05168,0.039619 0.117133,0.077515 0.06718,0.037896 0.134359,0.079237 0.0689,0.041341 0.134358,0.091295 0.06718,0.048231 0.118856,0.1136882 0.05168,0.063734 0.08268,0.1481391 0.03101,0.082682 0.03101,0.1912028 0,0.1619194 -0.06546,0.3014458 -0.06546,0.1378038 -0.186035,0.2411567 -0.118856,0.1016303 -0.289388,0.1601969 -0.168809,0.058567 -0.375515,0.058567 -0.111966,0 -0.206706,-0.018948 -0.09474,-0.017225 -0.16881,-0.043064 -0.07235,-0.025838 -0.1223,-0.053399 -0.04995,-0.029283 -0.07407,-0.055121 -0.02412,-0.025838 -0.02412,-0.077515 0,-0.01378 0.0034,-0.041341 0.0034,-0.027561 0.0086,-0.058567 0.0069,-0.032728 0.0155,-0.065457 0.0086,-0.034451 0.02067,-0.062012 0.01206,-0.027561 0.02584,-0.044786 0.0155,-0.017225 0.03273,-0.017225 0.02928,0 0.0689,0.027561 0.04134,0.025838 0.101631,0.058567 0.06029,0.031006 0.142971,0.058567 0.08268,0.027561 0.198093,0.027561 0.10163,0 0.177422,-0.025838 0.07752,-0.025838 0.129191,-0.070624 0.05168,-0.044786 0.07751,-0.1033529 0.02756,-0.060289 0.02756,-0.1309136 0,-0.063734 -0.03101,-0.1119656 -0.03101,-0.048231 -0.08268,-0.08785 -0.04995,-0.041341 -0.115411,-0.077515 -0.06373,-0.036173 -0.130914,-0.077515 -0.06718,-0.041341 -0.132636,-0.089572 -0.06373,-0.048231 -0.11541,-0.1119656 -0.04995,-0.065457 -0.08096,-0.1498617 -0.03101,-0.084405 -0.03101,-0.1963704 0,-0.1550293 0.06201,-0.2859429 0.06201,-0.1309137 0.172254,-0.2239312 0.110244,-0.09474 0.26355,-0.1464166 0.153307,-0.053399 0.33762,-0.053399 0.08613,0 0.163642,0.0137804 0.07751,0.0120578 0.141249,0.0327284 0.06373,0.018948 0.10852,0.043064 0.04479,0.024116 0.06201,0.041341 0.01722,0.015503 0.02412,0.034451 0.0086,0.017225 0.0086,0.044786 z"
         id="path988"
         inkscape:connector-curvature="0" />
    </g>
    <text
       id="text993"
       y="90.339432"
       x="1.6864539"
       style="font-style:normal;font-variant:normal;font-weight:normal;font-stretch:normal;font-size:3.52777767px;line-height:1.25;font-family:Calibri;-inkscape-font-specification:'Calibri, Normal';font-variant-ligatures:normal;font-variant-caps:normal;font-variant-numeric:normal;font-feature-settings:normal;text-align:start;letter-spacing:0px;word-spacing:0px;writing-mode:lr-tb;text-anchor:start;display:inline;fill:#f2f2f2;fill-opacity:1;stroke:none;stroke-width:0.26458332"
       xml:space="preserve"><tspan
         sodipodi:role="line"
         id="tspan995"
         x="1.6864539"
         y="90.339432">bi</tspan></text>
    <text
       xml:space="preserve"
       style="font-style:normal;font-variant:normal;font-weight:normal;font-stretch:normal;font-size:3.52777767px;line-height:1.25;font-family:Calibri;-inkscape-font-specification:'Calibri, Normal';font-variant-ligatures:normal;font-variant-caps:normal;font-variant-numeric:normal;font-feature-settings:normal;text-align:start;letter-spacing:0px;word-spacing:0px;writing-mode:lr-tb;text-anchor:start;display:inline;fill:#f2f2f2;fill-opacity:1;stroke:none;stroke-width:0.26458332"
       x="7.1364717"
       y="90.361824"
       id="text999"><tspan
         sodipodi:role="line"
         id="tspan1001"
         x="7.1364717"
         y="90.361824">m</tspan></text>
    <text
       id="text1005"
       y="89.912918"
       x="13.008705"
       style="font-style:normal;font-variant:normal;font-weight:normal;font-stretch:normal;font-size:3.52777767px;line-height:1.25;font-family:Calibri;-inkscape-font-specification:'Calibri, Normal';font-variant-ligatures:normal;font-variant-caps:normal;font-variant-numeric:normal;font-feature-settings:normal;text-align:start;letter-spacing:0px;word-spacing:0px;writing-mode:lr-tb;text-anchor:start;display:inline;fill:#f2f2f2;fill-opacity:1;stroke:none;stroke-width:0.26458332"
       xml:space="preserve"><tspan
         sodipodi:role="line"
         id="tspan1007"
         x="13.008705"
         y="89.912918">g</tspan></text>
    <text
       xml:space="preserve"
       style="font-style:normal;font-variant:normal;font-weight:normal;font-stretch:normal;font-size:3.52777767px;line-height:1.25;font-family:Calibri;-inkscape-font-specification:'Calibri, Normal';font-variant-ligatures:normal;font-variant-caps:normal;font-variant-numeric:normal;font-feature-settings:normal;text-align:start;letter-spacing:0px;word-spacing:0px;writing-mode:lr-tb;text-anchor:start;display:inline;fill:#f2f2f2;fill-opacity:1;stroke:none;stroke-width:0.26458332"
       x="18.536453"
       y="90.361824"
       id="text1011"><tspan
         sodipodi:role="line"
         id="tspan1013"
         x="18.536453"
         y="90.361824">r</tspan></text>
    <text
       id="text1017"
       y="90.339432"
       x="23.653971"
       style="font-style:normal;font-variant:normal;font-weight:normal;font-stretch:normal;font-size:3.52777767px;line-height:1.25;font-family:Calibri;-inkscape-font-specification:'Calibri, Normal';font-variant-ligatures:normal;font-variant-caps:normal;font-variant-numeric:normal;font-feature-settings:normal;text-align:start;letter-spacing:0px;word-spacing:0px;writing-mode:lr-tb;text-anchor:start;display:inline;fill:#f2f2f2;fill-opacity:1;stroke:none;stroke-width:0.26458332"
       xml:space="preserve"><tspan
         sodipodi:role="line"
         id="tspan1019"
         x="23.653971"
         y="90.339432">c</tspan></text>
    <g
       aria-label="bi"
       style="font-style:normal;font-variant:normal;font-weight:normal;font-stretch:normal;font-size:3.52777767px;line-height:1.25;font-family:Calibri;-inkscape-font-specification:'Calibri, Normal';font-variant-ligatures:normal;font-variant-caps:normal;font-variant-numeric:normal;font-feature-settings:normal;text-align:start;letter-spacing:0px;word-spacing:0px;writing-mode:lr-tb;text-anchor:start;display:inline;fill:#f2f2f2;fill-opacity:1;stroke:none;stroke-width:0.26458332"
       id="text1023"
       transform="translate(0.1161431)">
      <path
         d="m 3.2601302,89.500551 q 0,0.201538 -0.044786,0.363458 -0.043064,0.160197 -0.1291911,0.273885 -0.084405,0.113688 -0.2084283,0.173977 -0.1240234,0.06029 -0.2842203,0.06029 -0.07407,0 -0.1378038,-0.0155 -0.062012,-0.01378 -0.1223009,-0.04651 -0.060289,-0.03273 -0.1205784,-0.08268 -0.060289,-0.04995 -0.1274685,-0.120578 v 0.18948 q 0,0.01378 -0.00689,0.02412 -0.00689,0.01034 -0.022393,0.01723 -0.015503,0.0052 -0.039619,0.0086 -0.022393,0.0034 -0.058567,0.0034 -0.034451,0 -0.058567,-0.0034 -0.024116,-0.0034 -0.039619,-0.0086 -0.015503,-0.0069 -0.020671,-0.01723 -0.00517,-0.01034 -0.00517,-0.02412 v -2.301324 q 0,-0.01378 0.00517,-0.02411 0.00689,-0.01034 0.022393,-0.01723 0.017225,-0.0069 0.044786,-0.01033 0.027561,-0.0034 0.068902,-0.0034 0.043064,0 0.070624,0.0034 0.027561,0.0034 0.043064,0.01033 0.015503,0.0069 0.022393,0.01723 0.00689,0.01033 0.00689,0.02411 v 0.928454 q 0.068902,-0.07062 0.1326362,-0.118856 0.065457,-0.04823 0.1274685,-0.07752 0.062012,-0.03101 0.1240235,-0.04479 0.062012,-0.01378 0.1309136,-0.01378 0.1688096,0 0.2876654,0.06718 0.1205784,0.06718 0.1946479,0.180867 0.075792,0.111966 0.1102431,0.26355 0.034451,0.151584 0.034451,0.320394 z m -0.2997233,0.03273 q 0,-0.118855 -0.018948,-0.230821 -0.017226,-0.111966 -0.062012,-0.198093 -0.044786,-0.08613 -0.1188558,-0.137804 -0.07407,-0.0534 -0.1843126,-0.0534 -0.055121,0 -0.1085205,0.0155 -0.053399,0.0155 -0.1085205,0.05168 -0.055121,0.03617 -0.1154107,0.09302 -0.058567,0.05684 -0.125746,0.142972 v 0.618394 q 0.1171333,0.142972 0.2239312,0.218764 0.106798,0.07407 0.2222087,0.07407 0.1067979,0 0.18259,-0.05168 0.075792,-0.05168 0.1223009,-0.136081 0.048231,-0.08613 0.068902,-0.191203 0.022393,-0.106798 0.022393,-0.215319 z"
         id="path1041"
         inkscape:connector-curvature="0" />
      <path
         d="m 3.9715424,90.296368 q 0,0.01378 -0.00689,0.02412 -0.00689,0.0086 -0.022393,0.0155 -0.015503,0.0069 -0.043064,0.01033 -0.027561,0.0034 -0.070625,0.0034 -0.041341,0 -0.068902,-0.0034 -0.027561,-0.0034 -0.044786,-0.01033 -0.015503,-0.0069 -0.022393,-0.0155 -0.00517,-0.01034 -0.00517,-0.02412 v -1.550293 q 0,-0.01206 0.00517,-0.02239 0.00689,-0.01033 0.022393,-0.01722 0.017226,-0.0069 0.044786,-0.01034 0.027561,-0.0034 0.068902,-0.0034 0.043064,0 0.070625,0.0034 0.027561,0.0034 0.043064,0.01034 0.015503,0.0069 0.022393,0.01722 0.00689,0.01033 0.00689,0.02239 z m 0.032728,-2.073947 q 0,0.09991 -0.037896,0.136081 -0.037896,0.03617 -0.1395263,0.03617 -0.099908,0 -0.1378038,-0.03445 -0.036173,-0.03617 -0.036173,-0.134358 0,-0.09991 0.037896,-0.136082 0.037896,-0.03617 0.1395264,-0.03617 0.099908,0 0.1360812,0.03617 0.037896,0.03445 0.037896,0.132637 z"
         id="path1043"
         inkscape:connector-curvature="0" />
    </g>
    <g
       aria-label="m"
       style="font-style:normal;font-variant:normal;font-weight:normal;font-stretch:normal;font-size:3.52777767px;line-height:1.25;font-family:Calibri;-inkscape-font-specification:'Calibri, Normal';font-variant-ligatures:normal;font-variant-caps:normal;font-variant-numeric:normal;font-feature-settings:normal;text-align:start;letter-spacing:0px;word-spacing:0px;writing-mode:lr-tb;text-anchor:start;display:inline;fill:#f2f2f2;fill-opacity:1;stroke:none;stroke-width:0.26458332"
       id="text1027"
       transform="translate(-0.916131)">
      <path
         d="m 10.615754,90.31876 q 0,0.01378 -0.0069,0.02412 -0.0069,0.0086 -0.02239,0.0155 -0.0155,0.0069 -0.04306,0.01033 -0.02756,0.0034 -0.0689,0.0034 -0.04306,0 -0.07063,-0.0034 -0.02756,-0.0034 -0.04479,-0.01033 -0.0155,-0.0069 -0.02239,-0.0155 -0.0069,-0.01033 -0.0069,-0.02412 v -0.942233 q 0,-0.09819 -0.01723,-0.179145 -0.01722,-0.08096 -0.05512,-0.139527 -0.0379,-0.05857 -0.09646,-0.08957 -0.05857,-0.03101 -0.137804,-0.03101 -0.098185,0 -0.1980927,0.07579 -0.098185,0.07579 -0.217041,0.222209 v 1.083482 q 0,0.01378 -0.00689,0.02412 -0.00689,0.0086 -0.024116,0.0155 -0.015503,0.0069 -0.043064,0.01033 -0.027561,0.0034 -0.068902,0.0034 -0.039619,0 -0.068902,-0.0034 -0.027561,-0.0034 -0.044786,-0.01033 -0.015503,-0.0069 -0.022393,-0.0155 -0.00517,-0.01033 -0.00517,-0.02412 v -0.942233 q 0,-0.09819 -0.018948,-0.179145 -0.018948,-0.08096 -0.056844,-0.139527 -0.037896,-0.05857 -0.096463,-0.08957 -0.056844,-0.03101 -0.1360813,-0.03101 -0.098185,0 -0.198093,0.07579 -0.099908,0.07579 -0.217041,0.222209 v 1.083482 q 0,0.01378 -0.00689,0.02412 -0.00689,0.0086 -0.022393,0.0155 -0.015503,0.0069 -0.043064,0.01033 -0.027561,0.0034 -0.070624,0.0034 -0.041341,0 -0.068902,-0.0034 -0.027561,-0.0034 -0.044786,-0.01033 -0.015503,-0.0069 -0.022393,-0.0155 -0.00517,-0.01033 -0.00517,-0.02412 v -1.550293 q 0,-0.01378 0.00517,-0.02239 0.00517,-0.01033 0.020671,-0.01722 0.015503,-0.0086 0.039619,-0.01033 0.024116,-0.0034 0.063734,-0.0034 0.037896,0 0.062012,0.0034 0.025838,0.0017 0.039619,0.01033 0.01378,0.0069 0.018948,0.01722 0.00689,0.0086 0.00689,0.02239 v 0.204984 q 0.1309136,-0.146417 0.2532145,-0.213596 0.1240234,-0.0689 0.2497694,-0.0689 0.096463,0 0.1722548,0.02239 0.077515,0.02239 0.1360812,0.06373 0.058567,0.03962 0.099908,0.09646 0.041341,0.05512 0.068902,0.124023 0.077515,-0.08441 0.1464166,-0.142971 0.070624,-0.05857 0.1343587,-0.09474 0.065457,-0.03617 0.125746,-0.05168 0.062012,-0.01723 0.1240228,-0.01723 0.149862,0 0.251492,0.0534 0.101631,0.05168 0.163642,0.139526 0.06373,0.08785 0.08957,0.206706 0.02756,0.117133 0.02756,0.248047 z"
         id="path1046"
         inkscape:connector-curvature="0" />
    </g>
    <g
       aria-label="g"
       style="font-style:normal;font-variant:normal;font-weight:normal;font-stretch:normal;font-size:3.52777767px;line-height:1.25;font-family:Calibri;-inkscape-font-specification:'Calibri, Normal';font-variant-ligatures:normal;font-variant-caps:normal;font-variant-numeric:normal;font-feature-settings:normal;text-align:start;letter-spacing:0px;word-spacing:0px;writing-mode:lr-tb;text-anchor:start;display:inline;fill:#f2f2f2;fill-opacity:1;stroke:none;stroke-width:0.26458332"
       id="text1031"
       transform="translate(-2.5845175,0.16949059)">
      <path
         d="m 17.152133,88.220699 q 0,0.06029 -0.01722,0.08785 -0.0155,0.02584 -0.04134,0.02584 h -0.222208 q 0.06029,0.06201 0.08441,0.137804 0.02411,0.07407 0.02411,0.155029 0,0.134359 -0.04306,0.237712 -0.04306,0.103353 -0.124024,0.1757 -0.07924,0.07062 -0.18948,0.10852 -0.110243,0.0379 -0.244602,0.0379 -0.09474,0 -0.180867,-0.02412 -0.08441,-0.02584 -0.130914,-0.06373 -0.03101,0.03101 -0.05168,0.07062 -0.01895,0.03962 -0.01895,0.0913 0,0.06029 0.05512,0.09991 0.05684,0.03962 0.149862,0.04306 l 0.404798,0.01723 q 0.115411,0.0034 0.211874,0.03273 0.09646,0.02756 0.167087,0.08096 0.07062,0.05168 0.110243,0.129191 0.03962,0.07579 0.03962,0.177422 0,0.106798 -0.04479,0.203261 -0.04479,0.09646 -0.137803,0.16881 -0.0913,0.07407 -0.234267,0.11541 -0.142971,0.04306 -0.337619,0.04306 -0.187758,0 -0.320394,-0.03273 -0.130914,-0.03101 -0.215319,-0.08613 -0.0844,-0.05512 -0.122301,-0.132636 -0.0379,-0.07579 -0.0379,-0.165365 0,-0.05684 0.01378,-0.110243 0.01378,-0.0534 0.04134,-0.10163 0.02928,-0.04823 0.07062,-0.0913 0.04306,-0.04479 0.09819,-0.08785 -0.08441,-0.04306 -0.125746,-0.10852 -0.03962,-0.06546 -0.03962,-0.141249 0,-0.105076 0.04306,-0.187758 0.04306,-0.08268 0.106798,-0.148139 -0.0534,-0.06373 -0.08441,-0.142972 -0.03101,-0.08096 -0.03101,-0.194647 0,-0.132637 0.04479,-0.237712 0.04479,-0.105075 0.124024,-0.177422 0.07924,-0.07235 0.18948,-0.110243 0.111966,-0.03962 0.242879,-0.03962 0.07062,0 0.130914,0.0086 0.06201,0.0069 0.11541,0.02067 h 0.468533 q 0.02928,0 0.04306,0.02928 0.0155,0.02756 0.0155,0.08613 z m -0.444417,0.408244 q 0,-0.158475 -0.08785,-0.246325 -0.08613,-0.08957 -0.246325,-0.08957 -0.08268,0 -0.144694,0.02756 -0.06029,0.02756 -0.10163,0.07579 -0.03962,0.04823 -0.06029,0.111965 -0.01895,0.06201 -0.01895,0.130914 0,0.153307 0.08613,0.241157 0.08785,0.08785 0.244602,0.08785 0.08441,0 0.146417,-0.02584 0.06201,-0.02756 0.10163,-0.07407 0.04134,-0.04823 0.06029,-0.110243 0.02067,-0.06201 0.02067,-0.129191 z m 0.142971,1.228176 q 0,-0.09991 -0.08268,-0.153307 -0.08096,-0.05512 -0.220486,-0.05857 l -0.401354,-0.01378 q -0.05512,0.04306 -0.09129,0.08268 -0.03445,0.0379 -0.05512,0.07235 -0.02067,0.03617 -0.02928,0.07062 -0.0069,0.03445 -0.0069,0.07063 0,0.111965 0.113688,0.168809 0.113688,0.05857 0.316949,0.05857 0.129191,0 0.215319,-0.02584 0.08785,-0.02412 0.141248,-0.06546 0.0534,-0.04134 0.07579,-0.09474 0.02412,-0.0534 0.02412,-0.111966 z"
         id="path1049"
         inkscape:connector-curvature="0" />
    </g>
    <g
       aria-label="r"
       style="font-style:normal;font-variant:normal;font-weight:normal;font-stretch:normal;font-size:3.52777767px;line-height:1.25;font-family:Calibri;-inkscape-font-specification:'Calibri, Normal';font-variant-ligatures:normal;font-variant-caps:normal;font-variant-numeric:normal;font-feature-settings:normal;text-align:start;letter-spacing:0px;word-spacing:0px;writing-mode:lr-tb;text-anchor:start;display:inline;fill:#f2f2f2;fill-opacity:1;stroke:none;stroke-width:0.26458332"
       id="text1035"
       transform="translate(-2.613004)">
      <path
         d="m 22.319087,88.870098 q 0,0.0379 -0.0017,0.06373 -0.0017,0.02584 -0.0069,0.04134 -0.0052,0.01378 -0.01378,0.02239 -0.0069,0.0069 -0.02067,0.0069 -0.01378,0 -0.03445,-0.0069 -0.01895,-0.0086 -0.04479,-0.0155 -0.02412,-0.0086 -0.05512,-0.0155 -0.03101,-0.0069 -0.06718,-0.0069 -0.04306,0 -0.08441,0.01723 -0.04134,0.01723 -0.08785,0.05684 -0.04479,0.03962 -0.09474,0.105075 -0.04995,0.06546 -0.110243,0.160197 v 1.019748 q 0,0.01378 -0.0069,0.02412 -0.0069,0.0086 -0.02239,0.0155 -0.0155,0.0069 -0.04306,0.01033 -0.02756,0.0034 -0.07062,0.0034 -0.04134,0 -0.0689,-0.0034 -0.02756,-0.0034 -0.04479,-0.01033 -0.0155,-0.0069 -0.02239,-0.0155 -0.0052,-0.01033 -0.0052,-0.02412 v -1.550293 q 0,-0.01378 0.0052,-0.02239 0.0052,-0.01033 0.02067,-0.01722 0.0155,-0.0086 0.03962,-0.01033 0.02411,-0.0034 0.06373,-0.0034 0.0379,0 0.06201,0.0034 0.02584,0.0017 0.03962,0.01033 0.01378,0.0069 0.01895,0.01722 0.0069,0.0086 0.0069,0.02239 v 0.225654 q 0.06374,-0.09302 0.118856,-0.151584 0.05684,-0.05857 0.106798,-0.09129 0.04995,-0.03445 0.09819,-0.04651 0.04995,-0.01378 0.09991,-0.01378 0.02239,0 0.04995,0.0034 0.02928,0.0017 0.06029,0.0086 0.03101,0.0069 0.05512,0.0155 0.02584,0.0086 0.03617,0.01722 0.01034,0.0086 0.01378,0.01723 0.0034,0.0069 0.0052,0.01895 0.0034,0.01206 0.0034,0.03617 0.0017,0.02239 0.0017,0.06201 z"
         id="path1052"
         inkscape:connector-curvature="0" />
    </g>
    <g
       aria-label="c"
       style="font-style:normal;font-variant:normal;font-weight:normal;font-stretch:normal;font-size:3.52777767px;line-height:1.25;font-family:Calibri;-inkscape-font-specification:'Calibri, Normal';font-variant-ligatures:normal;font-variant-caps:normal;font-variant-numeric:normal;font-feature-settings:normal;text-align:start;letter-spacing:0px;word-spacing:0px;writing-mode:lr-tb;text-anchor:start;display:inline;fill:#f2f2f2;fill-opacity:1;stroke:none;stroke-width:0.26458332"
       id="text1039"
       transform="translate(-1.1996732)">
      <path
         d="m 26.231682,90.060379 q 0,0.02928 -0.0017,0.05168 -0.0017,0.02067 -0.0069,0.03617 -0.0034,0.01378 -0.01033,0.02584 -0.0052,0.01034 -0.02756,0.03273 -0.02067,0.02067 -0.07235,0.0534 -0.05168,0.03101 -0.117133,0.05684 -0.06373,0.02412 -0.139527,0.03962 -0.07579,0.0155 -0.156752,0.0155 -0.167087,0 -0.296278,-0.05512 -0.129191,-0.05512 -0.217041,-0.160197 -0.08613,-0.106798 -0.132636,-0.260105 -0.04479,-0.155029 -0.04479,-0.356567 0,-0.229099 0.05512,-0.392741 0.05684,-0.165365 0.153307,-0.27044 0.09819,-0.105076 0.229099,-0.15503 0.132636,-0.05168 0.285943,-0.05168 0.07407,0 0.142971,0.01378 0.07062,0.01378 0.129191,0.03617 0.05857,0.02239 0.103353,0.05168 0.04651,0.02928 0.06718,0.04995 0.02067,0.02067 0.02756,0.03273 0.0086,0.01206 0.01378,0.02928 0.0052,0.0155 0.0069,0.03617 0.0017,0.02067 0.0017,0.05168 0,0.06718 -0.0155,0.09474 -0.0155,0.02584 -0.0379,0.02584 -0.02584,0 -0.06029,-0.02756 -0.03273,-0.02928 -0.08441,-0.06373 -0.05168,-0.03445 -0.125746,-0.06201 -0.07235,-0.02928 -0.172254,-0.02928 -0.204984,0 -0.315227,0.158475 -0.10852,0.156751 -0.10852,0.456475 0,0.149861 0.02756,0.26355 0.02928,0.111965 0.08441,0.187757 0.05512,0.07579 0.134358,0.113688 0.08096,0.03617 0.184313,0.03617 0.09819,0 0.172255,-0.03101 0.07407,-0.03101 0.127468,-0.06718 0.05512,-0.0379 0.09129,-0.06718 0.0379,-0.03101 0.05857,-0.03101 0.01206,0 0.02067,0.0069 0.0086,0.0069 0.01378,0.02411 0.0069,0.0155 0.0086,0.04134 0.0034,0.02412 0.0034,0.05857 z"
         id="path1055"
         inkscape:connector-curvature="0" />
    </g>
  </g>
</svg>
