<?xml version="1.0" encoding="UTF-8" standalone="no"?>
<!-- Created with Inkscape (http://www.inkscape.org/) -->

<svg
   xmlns:dc="http://purl.org/dc/elements/1.1/"
   xmlns:cc="http://creativecommons.org/ns#"
   xmlns:rdf="http://www.w3.org/1999/02/22-rdf-syntax-ns#"
   xmlns:svg="http://www.w3.org/2000/svg"
   xmlns="http://www.w3.org/2000/svg"
   xmlns:xlink="http://www.w3.org/1999/xlink"
   xmlns:sodipodi="http://sodipodi.sourceforge.net/DTD/sodipodi-0.dtd"
   xmlns:inkscape="http://www.inkscape.org/namespaces/inkscape"
   width="120"
   height="380"
   viewBox="0 0 31.750001 100.54167"
   version="1.1"
   id="svg8"
   inkscape:version="0.91 r13725"
   sodipodi:docname="Lambs.svg">
  <defs
     id="defs2">
    <inkscape:perspective
       id="perspective4197"
       inkscape:persp3d-origin="240 : 126.66667 : 1"
       inkscape:vp_z="480 : 190 : 1"
       inkscape:vp_y="0 : 1000 : 0"
       inkscape:vp_x="0 : 190 : 1"
       sodipodi:type="inkscape:persp3d" />
    <linearGradient
       id="linearGradient4189"
       inkscape:collect="always">
      <stop
         id="stop4191"
         offset="0"
         style="stop-color:#ffffff;stop-opacity:1" />
      <stop
         id="stop4193"
         offset="1"
         style="stop-color:#000000;stop-opacity:0;" />
    </linearGradient>
    <linearGradient
       id="linearGradient5349"
       inkscape:collect="always">
      <stop
         id="stop5351"
         offset="0"
         style="stop-color:#fdfdfd;stop-opacity:1;" />
      <stop
         id="stop5353"
         offset="1"
         style="stop-color:#fdfdfd;stop-opacity:1" />
    </linearGradient>
    <radialGradient
       gradientUnits="userSpaceOnUse"
       gradientTransform="matrix(0.42180436,0,0,0.0267339,-105.98218,272.19192)"
       r="69.826797"
       fy="856.052"
       fx="285.49445"
       cy="856.052"
       cx="285.49445"
       id="radialGradient5357"
       xlink:href="#linearGradient5349"
       inkscape:collect="always" />
    <linearGradient
       gradientUnits="userSpaceOnUse"
       y2="832.53247"
       x2="279.91517"
       y1="830.88361"
       x1="268.96658"
       id="linearGradient4195"
       xlink:href="#linearGradient4189"
       inkscape:collect="always"
       gradientTransform="matrix(0.26458334,0,0,0.26458334,-59.861442,72.341009)" />
  </defs>
  <sodipodi:namedview
     id="base"
     pagecolor="#ffffff"
     bordercolor="#666666"
     borderopacity="1.0"
     inkscape:pageopacity="0.0"
     inkscape:pageshadow="2"
     inkscape:zoom="2.1157895"
     inkscape:cx="-23.73134"
     inkscape:cy="190"
     inkscape:document-units="mm"
     inkscape:current-layer="layer1"
     showgrid="false"
     units="px"
     inkscape:snap-bbox="true"
     inkscape:snap-page="true"
     inkscape:bbox-nodes="true"
     inkscape:snap-bbox-edge-midpoints="true"
     inkscape:window-width="1106"
     inkscape:window-height="1006"
     inkscape:window-x="536"
     inkscape:window-y="43"
     inkscape:window-maximized="0"
     inkscape:showpageshadow="false"
     borderlayer="true"
     inkscape:snap-global="false" />
  <metadata
     id="metadata5">
    <rdf:RDF>
      <cc:Work
         rdf:about="">
        <dc:format>image/svg+xml</dc:format>
        <dc:type
           rdf:resource="http://purl.org/dc/dcmitype/StillImage" />
        <dc:title />
      </cc:Work>
    </rdf:RDF>
  </metadata>
  <g
     inkscape:label="Layer 1"
     inkscape:groupmode="layer"
     id="layer1"
     transform="translate(0,-196.45832)"
     style="display:inline">
    <path
       style="opacity:1;fill:#000000;fill-opacity:1;fill-rule:evenodd;stroke:none;stroke-width:0.48607069;stroke-linecap:butt;stroke-linejoin:round;stroke-miterlimit:4;stroke-dasharray:none;stroke-dashoffset:0;stroke-opacity:1;paint-order:normal"
       d="m 0,196.45831 31.750001,0 0,100.54168 -31.750001,0 z"
       id="rect817"
       inkscape:connector-curvature="0" />
    <path
       style="opacity:1;fill:url(#radialGradient5357);fill-opacity:1;stroke:#8b8b8b;stroke-width:0.39687501;stroke-linejoin:miter;stroke-miterlimit:4;stroke-dasharray:none;stroke-opacity:1"
       d="m 31.483446,294.93321 -17.042828,-0.12503 -14.4172474,0.12503 -0.87873195,-3.46985 c 4.80992545,-1.00484 10.75039865,-1.72449 16.17117335,-1.71947 5.715286,0.005 9.886121,0.46573 17.046366,1.84449 z"
       id="path5329"
       inkscape:connector-curvature="0"
       sodipodi:nodetypes="ccccacc" />
    <g
       transform="matrix(0.26458334,0,0,0.26458334,-58.459936,293.81811)"
       style="font-style:normal;font-variant:normal;font-weight:normal;font-stretch:normal;font-size:10px;line-height:125%;font-family:'Trajan Pro 3';-inkscape-font-specification:'Trajan Pro 3, ';letter-spacing:0px;word-spacing:0px;fill:#000000;fill-opacity:1;stroke:none;stroke-width:1px;stroke-linecap:butt;stroke-linejoin:miter;stroke-opacity:1"
       id="flowRoot4136" />
    <g
       transform="matrix(0.26458334,0,0,0.26458334,-58.459936,115.92228)"
       style="font-style:normal;font-weight:normal;font-size:10px;line-height:125%;font-family:sans-serif;letter-spacing:0px;word-spacing:0px;fill:#000000;fill-opacity:1;stroke:none;stroke-width:1px;stroke-linecap:butt;stroke-linejoin:miter;stroke-opacity:1"
       id="flowRoot5341" />
    <path
       sodipodi:nodetypes="ccccc"
       inkscape:connector-curvature="0"
       id="rect5381"
       d="M -1.0865176e-6,291.9933 C 10.904412,290.78346 21.545669,291.00362 31.750002,292.11599 l -0.03339,3.29649 -31.7166130865176,0 z"
       style="opacity:1;fill:#000000;fill-opacity:1;stroke:none;stroke-width:1.00699997;stroke-linejoin:miter;stroke-miterlimit:4;stroke-dasharray:none;stroke-opacity:1" />
    <g
       transform="matrix(0.23844891,0,0,0.23844891,-51.671412,293.97285)"
       id="g5348">
      <path
         style="fill:#000000;fill-opacity:1;fill-rule:evenodd;stroke:none;stroke-width:1px;stroke-linecap:butt;stroke-linejoin:miter;stroke-opacity:1"
         d="m 291.23228,-10.52707 6.43066,-3.03395 5.95249,-0.742 4.22115,0.51115 5.88653,2.16005 4.68284,4.36955 z"
         id="path4179"
         inkscape:connector-curvature="0" />
      <g
         inkscape:label="Back"
         id="layer2-0"
         transform="translate(109.83831,-148.57805)">
        <g
           inkscape:label="Back"
           id="layer2-5"
           transform="matrix(0.09824765,0,0,0.06980857,176.35705,132.53479)"
           style="stroke:#ffffff;stroke-opacity:1">
          <g
             id="g2838"
             style="stroke:#ffffff;stroke-opacity:1" />
          <g
             id="g2852"
             style="stroke:#ffffff;stroke-opacity:1">
            <path
               d="m 2.1174,188.81 18.113,36.226 65.551,31.913 90.564,13.8 94.877,-11.213 60.376,-31.913 14.663,-30.188 -14.663,-37.951 0.32345,67.923 -33.099,-64.473 -25.876,96.602 -58.651,-80.214 -40.538,91.427 -40.538,-75.902 -46.576,61.239 -17.098,-92.852 -49.316,62.663 6.0376,-89.702 44.241,27.296 63.574,32.218 79.999,-16.819 86.467,-15.957 31.051,-3.6657 -33.27949,-62.050611 1.366,64.853611 -64.689,-74.392 -20.7,91.427 -69.001,-66.198 -75.902,50.026 15.35717,-82.554584 -59.34617,55.816584 24.151,-56.064 34.501,0 81.077,-37.088 -18.975,69.864 89.702,-24.151 62.101,7.7627 -66.314,-54.334 4.2124,46.571 -70.726,-45.713 66.414,-1.725 -53.476,-15.525 -12.938,16.388 -49.164,-6.9001 -66.414,44.851 -33.333,49.416 9.1828,6.6475 -23.288,52.614 z"
               style="color:#000000;fill:none;stroke:#ffffff;stroke-width:2.89188218;stroke-linejoin:bevel;stroke-miterlimit:4;stroke-dasharray:none;stroke-opacity:1"
               sodipodi:nodetypes="ccccccccccccccccccccccccccccccccccccccccccccccccc"
               id="path3614"
               inkscape:connector-curvature="0" />
            <path
               d="M 133.17,195.51 146.16,114.634 84.75317,79.116604 116.834,34.42 l 28.463,-4.3126 32.776,-5.1751 41.401,6.9001 12.938,10.35 47.438,20.7 18.975,34.501 30.188,30.188 2.8032,31.913"
               style="color:#000000;fill:none;stroke:#ffffff;stroke-width:2.89188218;stroke-linejoin:bevel;stroke-miterlimit:4;stroke-dasharray:none;stroke-opacity:1"
               sodipodi:nodetypes="cccccccccccc"
               id="path3616"
               inkscape:connector-curvature="0" />
            <path
               d="M 329.01,126.71 279.85,62.88 220.08,31.83"
               style="color:#000000;fill:none;stroke:#ffffff;stroke-width:2;stroke-linejoin:bevel;stroke-opacity:1"
               sodipodi:nodetypes="ccc"
               id="path3618"
               inkscape:connector-curvature="0" />
            <path
               d="M 1.9262189,188.1862 16.108581,129.83899"
               style="color:#000000;fill:none;stroke:#ffffff;stroke-width:2;stroke-linejoin:bevel;stroke-opacity:1"
               id="path3620"
               inkscape:connector-curvature="0"
               sodipodi:nodetypes="cc" />
          </g>
        </g>
      </g>
      <path
         style="fill:none;fill-rule:evenodd;stroke:#ffffff;stroke-width:0.2;stroke-linecap:butt;stroke-linejoin:miter;stroke-miterlimit:4;stroke-dasharray:none;stroke-opacity:1"
         d="m 320.18675,-2.24965 -1.66538,-4.93018"
         id="path4177"
         inkscape:connector-curvature="0" />
      <path
         style="opacity:0;fill:#000000;fill-opacity:1;stroke:none;stroke-width:0.2;stroke-miterlimit:4;stroke-dasharray:none;stroke-opacity:1"
         d="m 320.99471,-0.40290931 a 12.102836,4.2211528 0 0 1 -12.10283,4.22115281 12.102836,4.2211528 0 0 1 -12.10284,-4.22115281 12.102836,4.2211528 0 0 1 12.10284,-4.22115279 12.102836,4.2211528 0 0 1 12.10283,4.22115279 z"
         id="path4183" />
    </g>
    <path
       style="opacity:0;fill:url(#linearGradient4195);fill-opacity:1;stroke:none;stroke-width:0.2;stroke-miterlimit:4;stroke-dasharray:none;stroke-opacity:1"
       d="m 14.199453,292.6152 a 2.800842,1.0121423 0 0 1 -2.800842,1.01215 2.800842,1.0121423 0 0 1 -2.800842,-1.01215 2.800842,1.0121423 0 0 1 2.800842,-1.01214 2.800842,1.0121423 0 0 1 2.800842,1.01214 z"
       id="path4187" />
    <path
       sodipodi:nodetypes="cccccccccc"
       inkscape:connector-curvature="0"
       id="path4209"
       d="m 2.826339,292.08697 3.148468,-1.34092 1.3291208,0.4179 1.1077655,-0.7832 2.2155227,0.29151 0.932852,-0.34981 3.023931,0.97939 -1.041619,0.47818 -9.5034344,0.29152 z"
       style="fill:#000000;fill-opacity:1;fill-rule:evenodd;stroke:none;stroke-width:1px;stroke-linecap:butt;stroke-linejoin:miter;stroke-opacity:1" />
    <g
       id="layer2"
       inkscape:label="Layer 2"
       transform="matrix(0.26458334,0,0,0.26458334,-59.404877,294.76305)" />
    <g
       id="flowRoot4144"
       style="font-style:normal;font-weight:normal;font-size:10px;line-height:125%;font-family:sans-serif;letter-spacing:0px;word-spacing:0px;fill:#000000;fill-opacity:1;stroke:none;stroke-width:1px;stroke-linecap:butt;stroke-linejoin:miter;stroke-opacity:1"
       transform="matrix(0.26458334,0,0,0.26458334,-45.946934,278.43557)">
      <path
         inkscape:connector-curvature="0"
         id="path5362"
         style="font-style:normal;font-variant:normal;font-weight:normal;font-stretch:normal;font-size:7.5px;font-family:Geneva;-inkscape-font-specification:Geneva;fill:#ffffff;fill-opacity:1"
         d="m 186.15283,66.994991 0.68115,0 0,0.01465 q 0,0.263672 0.20142,0.439453 0.20142,0.172119 0.68115,0.172119 0.42115,0 0.68116,-0.205078 0.26367,-0.205078 0.26367,-0.483398 0,-0.377198 -0.5127,-0.534668 l -0.3479,-0.106202 -0.23071,-0.07324 -0.47241,-0.146484 q -0.80933,-0.296631 -0.80933,-0.985108 0,-0.483398 0.39185,-0.849609 0.39184,-0.366211 1.16455,-0.366211 0.76172,0 1.08398,0.314942 0.32227,0.311279 0.32227,0.692138 l 0,0.01465 -0.68482,0 0,-0.01465 q 0,-0.205078 -0.20874,-0.322265 -0.20508,-0.117188 -0.54931,-0.117188 -0.41016,0 -0.62989,0.172119 -0.21606,0.168457 -0.21606,0.417481 0,0.190429 0.13916,0.311279 0.14282,0.117187 0.47607,0.212402 l 0.32959,0.09155 0.23804,0.06958 q 0.49805,0.142822 0.6189,0.201416 0.12451,0.05859 0.24902,0.150147 0.17212,0.131836 0.25268,0.318603 0.0842,0.186768 0.0842,0.435791 0,0.578613 -0.41748,0.974121 -0.41382,0.395508 -1.21216,0.395508 -0.50537,0 -0.83862,-0.150146 -0.33325,-0.150147 -0.531,-0.413819 -0.19776,-0.267334 -0.19776,-0.615234 l 0,-0.01465 z" />
      <path
         inkscape:connector-curvature="0"
         id="path5364"
         style="font-style:normal;font-variant:normal;font-weight:normal;font-stretch:normal;font-size:7.5px;font-family:Geneva;-inkscape-font-specification:Geneva;fill:#ffffff;fill-opacity:1"
         d="m 199.4646,68.188839 q -0.802,0 -1.36963,-0.541992 -0.56396,-0.545654 -0.56396,-1.618652 0,-1.069336 0.56396,-1.611329 0.56763,-0.545654 1.36963,-0.545654 0.79834,0 1.3623,0.545654 0.56763,0.541993 0.56763,1.611329 0,1.072998 -0.56763,1.618652 -0.56396,0.541992 -1.3623,0.541992 z m 0,-0.567627 q 0.54932,0 0.88257,-0.435791 0.33691,-0.439453 0.33691,-1.157226 0,-0.714112 -0.33691,-1.149903 -0.33325,-0.439453 -0.88257,-0.439453 -0.55298,0 -0.88989,0.439453 -0.33325,0.435791 -0.33325,1.149903 0,0.717773 0.33325,1.157226 0.33691,0.435791 0.88989,0.435791 z" />
      <path
         inkscape:connector-curvature="0"
         id="path5366"
         style="font-style:normal;font-variant:normal;font-weight:normal;font-stretch:normal;font-size:7.5px;font-family:Geneva;-inkscape-font-specification:Geneva;fill:#ffffff;fill-opacity:1"
         d="m 212.39917,63.984738 0.68115,0 0,4.090576 -0.68115,0 0,-0.714112 q -0.2124,0.32959 -0.41748,0.494385 -0.20508,0.164795 -0.42114,0.249024 -0.21607,0.08423 -0.47242,0.08423 -0.56762,0 -0.96313,-0.318603 -0.39551,-0.322266 -0.39551,-1.292725 l 0,-2.592773 0.68115,0 0,2.307128 q 0,0.897217 0.23804,1.083985 0.23804,0.186767 0.5896,0.186767 0.30396,0 0.57129,-0.175781 0.271,-0.179443 0.42847,-0.498047 0.16113,-0.322265 0.16113,-0.893554 l 0,-2.010498 z" />
      <path
         inkscape:connector-curvature="0"
         id="path5368"
         style="font-style:normal;font-variant:normal;font-weight:normal;font-stretch:normal;font-size:7.5px;font-family:Geneva;-inkscape-font-specification:Geneva;fill:#ffffff;fill-opacity:1"
         d="m 224.18018,67.4967 0,0.571289 q -0.49805,0.12085 -0.76172,0.12085 -0.38086,0 -0.68848,-0.153809 -0.30395,-0.153808 -0.46509,-0.446777 -0.15747,-0.292969 -0.15747,-0.933838 l 0,-2.102051 -0.71045,0 0,-0.567626 0.71045,0 0,-0.966797 0.68115,0 0,0.966797 1.19385,0 0,0.567626 -1.19385,0 0,1.907959 q 0,0.541993 0.0842,0.754395 0.0842,0.20874 0.26367,0.307617 0.18311,0.09888 0.4358,0.09888 0.20141,0 0.60791,-0.124512 z" />
      <path
         inkscape:connector-curvature="0"
         id="path5370"
         style="font-style:normal;font-variant:normal;font-weight:normal;font-stretch:normal;font-size:7.5px;font-family:Geneva;-inkscape-font-specification:Geneva;fill:#ffffff;fill-opacity:1"
         d="m 233.19995,68.075314 -0.68115,0 0,-5.910645 0.68115,0 0,2.526856 q 0.21607,-0.333252 0.41748,-0.494385 0.20508,-0.161133 0.42481,-0.241699 0.22338,-0.08423 0.49438,-0.08423 0.38452,0 0.68848,0.157471 0.30761,0.157471 0.47607,0.465088 0.16846,0.303955 0.16846,0.977783 l 0,2.60376 -0.68115,0 0,-2.310791 q 0,-0.549317 -0.0733,-0.776368 -0.0732,-0.230712 -0.27832,-0.358886 -0.20507,-0.131836 -0.46875,-0.131836 -0.30029,0 -0.57129,0.175781 -0.27099,0.175781 -0.43579,0.490723 -0.16113,0.314941 -0.16113,0.900879 l 0,2.010498 z" />
      <path
         inkscape:connector-curvature="0"
         id="path5372"
         style="font-style:normal;font-variant:normal;font-weight:normal;font-stretch:normal;font-size:7.5px;font-family:Geneva;-inkscape-font-specification:Geneva;fill:#ffffff;fill-opacity:1"
         d="m 245.03955,69.664669 -0.68115,0 0,-5.679931 0.68115,0 0,0.710449 q 0.2124,-0.362549 0.40283,-0.512696 0.19409,-0.150146 0.43579,-0.230712 0.2417,-0.08057 0.49805,-0.08057 0.46875,0 0.85693,0.256348 0.38819,0.252685 0.60059,0.758056 0.21606,0.505372 0.21606,1.135254 0,0.933838 -0.45043,1.552735 -0.44678,0.615234 -1.25611,0.615234 -0.26001,0 -0.49438,-0.0769 -0.23072,-0.07324 -0.41016,-0.219727 -0.17944,-0.150146 -0.39917,-0.531006 l 0,2.303467 z m 0,-3.632812 q 0,0.6958 0.30029,1.142578 0.3003,0.446777 0.84595,0.446777 0.49805,0 0.82764,-0.395508 0.32959,-0.395508 0.32959,-1.182861 0,-0.919189 -0.3479,-1.274414 -0.3479,-0.358887 -0.79468,-0.358887 -0.32227,0 -0.60425,0.197754 -0.27832,0.194092 -0.41748,0.582275 -0.13916,0.384522 -0.13916,0.842286 z" />
      <path
         inkscape:connector-curvature="0"
         id="path5374"
         style="font-style:normal;font-variant:normal;font-weight:normal;font-stretch:normal;font-size:7.5px;font-family:Geneva;-inkscape-font-specification:Geneva;fill:#ffffff;fill-opacity:1"
         d="m 258.17554,68.188839 q -0.802,0 -1.36963,-0.541992 -0.56397,-0.545654 -0.56397,-1.618652 0,-1.069336 0.56397,-1.611329 0.56763,-0.545654 1.36963,-0.545654 0.79834,0 1.3623,0.545654 0.56763,0.541993 0.56763,1.611329 0,1.072998 -0.56763,1.618652 -0.56396,0.541992 -1.3623,0.541992 z m 0,-0.567627 q 0.54931,0 0.88257,-0.435791 0.33691,-0.439453 0.33691,-1.157226 0,-0.714112 -0.33691,-1.149903 -0.33326,-0.439453 -0.88257,-0.439453 -0.55298,0 -0.8899,0.439453 -0.33325,0.435791 -0.33325,1.149903 0,0.717773 0.33325,1.157226 0.33692,0.435791 0.8899,0.435791 z" />
      <path
         inkscape:connector-curvature="0"
         id="path5376"
         style="font-style:normal;font-variant:normal;font-weight:normal;font-stretch:normal;font-size:7.5px;font-family:Geneva;-inkscape-font-specification:Geneva;fill:#ffffff;fill-opacity:1"
         d="m 269.17651,68.075314 -0.68115,0 0,-5.910645 0.68115,0 0,5.910645 z" />
      <path
         inkscape:connector-curvature="0"
         id="path5378"
         style="font-style:normal;font-variant:normal;font-weight:normal;font-stretch:normal;font-size:7.5px;font-family:Geneva;-inkscape-font-specification:Geneva;fill:#ffffff;fill-opacity:1"
         d="m 280.45581,67.024288 0.68115,0 0,0.03662 q 0,0.270996 -0.21606,0.552979 -0.21607,0.281982 -0.57129,0.428467 -0.35523,0.146484 -0.81665,0.146484 -0.93384,0 -1.44287,-0.604248 -0.50537,-0.604248 -0.50537,-1.5271 0,-0.944824 0.53466,-1.56372 0.53833,-0.622559 1.38428,-0.622559 0.46509,0 0.84229,0.201416 0.37719,0.201416 0.59692,0.629883 0.21973,0.424805 0.21973,1.186523 l 0,0.227051 -2.90406,0 q 0,0.655518 0.35157,1.080322 0.35522,0.424805 0.98144,0.424805 0.45044,0 0.65552,-0.172119 0.20874,-0.175781 0.20874,-0.388184 l 0,-0.03662 z m -2.15332,-1.420898 2.20825,0 0,-0.08057 q 0,-0.285644 -0.13916,-0.552978 -0.1355,-0.270996 -0.3772,-0.39917 -0.24169,-0.131836 -0.56396,-0.131836 -0.38086,0 -0.70313,0.307617 -0.32226,0.303955 -0.4248,0.856934 z" />
    </g>
    <path
       style="opacity:0;fill:#ffffff;fill-opacity:1;stroke:#ffffff;stroke-width:0.82020831;stroke-miterlimit:4;stroke-dasharray:none;stroke-opacity:1"
       d="M 31.120041,284.67252 A 15.56002,2.6503332 0 0 1 15.56002,287.32286 15.56002,2.6503332 0 0 1 0,284.67252 a 15.56002,2.6503332 0 0 1 15.56002,-2.65033 15.56002,2.6503332 0 0 1 15.560021,2.65033 z"
       id="path5422"
       inkscape:connector-curvature="0" />
    <g
       style="font-size:7.5px;opacity:1;fill:#ffffff;fill-opacity:1;stroke:#9f9f9f;stroke-width:1.77165353;stroke-miterlimit:4;stroke-dasharray:none;stroke-opacity:1"
       id="flowRoot6030" />
    <path
       style="opacity:1;fill:#606060;fill-opacity:1;stroke:none;stroke-width:1.53299999;stroke-miterlimit:10;stroke-dasharray:none;stroke-opacity:1"
       d="m 2.7367654,277.48462 26.2764706,0 c 0.948726,0 1.712502,0.74053 1.712502,1.66037 l 0,8.2933 c 0,0.91984 -0.763776,1.66037 -1.712502,1.66037 l -26.2764706,0 c -0.9487263,0 -1.7125024,-0.74053 -1.7125024,-1.66037 l 0,-8.2933 c 0,-0.91984 0.7637761,-1.66037 1.7125024,-1.66037 z"
       id="rect4370" />
    <g
       style="font-size:2.64583349px;opacity:1;fill:#ffffff;fill-opacity:1;stroke:none;stroke-width:1.53299999;stroke-miterlimit:10;stroke-dasharray:none;stroke-opacity:1"
       id="text4352">
      <g
         style="font-size:2.64583349px;opacity:1;fill:#ffffff;fill-opacity:1;stroke:none;stroke-width:1.53299999;stroke-miterlimit:10;stroke-dasharray:none;stroke-opacity:1"
         id="text4744">
        <path
           d="m 2.1469074,287.55064 0.4263306,0 0,-1.47149 -0.463796,0.093 0,-0.23771 0.4612122,-0.093 0.260966,0 0,1.7092 0.4263306,0 0,0.21962 -1.1110434,0 0,-0.21962 z"
           style=""
           id="path4856" />
        <path
           d="m 3.632605,286.93956 0.69634,0 0,0.21188 -0.69634,0 0,-0.21188 z"
           style=""
           id="path4858" />
        <path
           d="m 4.8870503,286.84913 0,0.70668 0.4185792,0 q 0.2105814,0 0.3113505,-0.0866 0.102061,-0.0879 0.102061,-0.26743 0,-0.18086 -0.102061,-0.26613 -0.1007691,-0.0866 -0.3113505,-0.0866 l -0.4185792,0 z m 0,-0.79323 0,0.58136 0.3862814,0 q 0.1912028,0 0.2842204,-0.0711 0.09431,-0.0723 0.09431,-0.21962 0,-0.14599 -0.09431,-0.21834 -0.093018,-0.0723 -0.2842204,-0.0723 l -0.3862814,0 z m -0.260966,-0.21446 0.6666261,0 q 0.2984314,0 0.4599202,0.12402 0.1614889,0.12403 0.1614889,0.3527 0,0.17699 -0.082682,0.28163 -0.082682,0.10465 -0.2428792,0.13049 0.1924947,0.0413 0.2984314,0.17311 0.1072286,0.13048 0.1072286,0.32685 0,0.25839 -0.1756999,0.39921 -0.1756999,0.14081 -0.4999695,0.14081 l -0.6924643,0 0,-1.92882 z"
           style=""
           id="path4860" />
        <path
           d="m 6.4399274,285.84144 0.260966,0 0,1.92882 -0.260966,0 0,-1.92882 z"
           style=""
           id="path4862" />
        <path
           d="m 6.9528158,285.84144 1.6316834,0 0,0.21963 -0.6847128,0 0,1.70919 -0.2622579,0 0,-1.70919 -0.6847127,0 0,-0.21963 z"
           style=""
           id="path4864" />
      </g>
    </g>
    <g
       style="font-size:2.64583349px;opacity:1;fill:#ffffff;fill-opacity:1;stroke:none;stroke-width:1.53299999;stroke-miterlimit:10;stroke-dasharray:none;stroke-opacity:1"
       id="text4362">
      <path
         d="m 17.794648,285.76667 0.262258,0 0,1.17177 q 0,0.31005 0.112396,0.447 0.112396,0.13565 0.364319,0.13565 0.250631,0 0.363027,-0.13565 0.112396,-0.13695 0.112396,-0.447 l 0,-1.17177 0.262258,0 0,1.20406 q 0,0.37724 -0.187327,0.56974 -0.186035,0.19249 -0.550354,0.19249 -0.365611,0 -0.552938,-0.19249 -0.186035,-0.1925 -0.186035,-0.56974 l 0,-1.20406 z"
         style=""
         id="path4643" />
      <path
         d="m 19.762228,285.76667 0.3514,0 0.855245,1.6136 0,-1.6136 0.253214,0 0,1.92883 -0.351399,0 -0.855245,-1.6136 0,1.6136 -0.253215,0 0,-1.92883 z"
         style=""
         id="path4645" />
      <path
         d="m 21.741436,285.76667 0.260966,0 0,1.92883 -0.260966,0 0,-1.92883 z"
         style=""
         id="path4647" />
    </g>
    <g
       style="font-size:2.64583349px;opacity:1;fill:#ffffff;fill-opacity:1;stroke:none;stroke-width:1.53299999;stroke-miterlimit:10;stroke-dasharray:none;stroke-opacity:1"
       id="text4366">
      <path
         d="m 25.796288,286.81181 0,0.70667 0.418579,0 q 0.210582,0 0.311351,-0.0865 0.102061,-0.0879 0.102061,-0.26743 0,-0.18087 -0.102061,-0.26613 -0.100769,-0.0866 -0.311351,-0.0866 l -0.418579,0 z m 0,-0.79324 0,0.58136 0.386282,0 q 0.191202,0 0.28422,-0.071 0.09431,-0.0724 0.09431,-0.21963 0,-0.14598 -0.09431,-0.21833 -0.09302,-0.0723 -0.28422,-0.0723 l -0.386282,0 z m -0.260966,-0.21445 0.666626,0 q 0.298432,0 0.45992,0.12402 0.161489,0.12402 0.161489,0.35269 0,0.17699 -0.08268,0.28164 -0.08268,0.10464 -0.242879,0.13048 0.192495,0.0413 0.298431,0.17312 0.107229,0.13048 0.107229,0.32685 0,0.25838 -0.1757,0.3992 -0.1757,0.14082 -0.49997,0.14082 l -0.692464,0 0,-1.92882 z"
         style=""
         id="path4638" />
      <path
         d="m 27.349165,285.80412 0.260966,0 0,1.92882 -0.260966,0 0,-1.92882 z"
         style=""
         id="path4640" />
    </g>
    <g
       style="font-size:2.64583349px;opacity:1;fill:#ffffff;fill-opacity:1;stroke:none;stroke-width:1.53299999;stroke-miterlimit:10;stroke-dasharray:none;stroke-opacity:1"
       id="text4380"
       transform="translate(1.0583334,3.8628485)">
      <path
         d="m 9.3033924,211.18028 1.1084596,0 0,0.21962 -0.8474936,0 0,0.56844 0.7648116,0 0,0.21963 -0.7648116,0 0,0.92113 -0.260966,0 0,-1.92882 z"
         id="path4616"
         inkscape:connector-curvature="0" />
      <path
         d="m 11.737353,212.20476 q 0.08397,0.0284 0.16278,0.12144 0.0801,0.093 0.160197,0.2558 l 0.264842,0.5271 -0.280345,0 -0.246755,-0.4948 q -0.0956,-0.19379 -0.186035,-0.25709 -0.08914,-0.0633 -0.244171,-0.0633 l -0.28422,0 0,0.8152 -0.260966,0 0,-1.92882 0.589111,0 q 0.330729,0 0.49351,0.13823 0.162781,0.13824 0.162781,0.41729 0,0.18216 -0.08527,0.30231 -0.08398,0.12014 -0.245463,0.16665 z m -0.653707,-0.81003 0,0.68472 0.328145,0 q 0.188619,0 0.28422,-0.0866 0.09689,-0.0878 0.09689,-0.25709 0,-0.16924 -0.09689,-0.25451 -0.0956,-0.0866 -0.28422,-0.0866 l -0.328145,0 z"
         id="path4618"
         inkscape:connector-curvature="0" />
      <path
         d="m 12.662361,211.18028 1.219564,0 0,0.21962 -0.958598,0 0,0.57103 0.918548,0 0,0.21962 -0.918548,0 0,0.69893 0.981852,0 0,0.21962 -1.242818,0 0,-1.92882 z"
         id="path4620"
         inkscape:connector-curvature="0" />
      <path
         d="m 14.33151,211.18028 1.219563,0 0,0.21962 -0.958597,0 0,0.57103 0.918548,0 0,0.21962 -0.918548,0 0,0.69893 0.981852,0 0,0.21962 -1.242818,0 0,-1.92882 z"
         id="path4622"
         inkscape:connector-curvature="0" />
      <path
         d="m 15.889554,211.18028 1.515412,0 0,0.19895 -1.219564,1.51025 1.249278,0 0,0.21962 -1.57484,0 0,-0.19895 1.219564,-1.51025 -1.18985,0 0,-0.21962 z"
         id="path4624"
         inkscape:connector-curvature="0" />
      <path
         d="m 17.814502,211.18028 1.219564,0 0,0.21962 -0.958598,0 0,0.57103 0.918548,0 0,0.21962 -0.918548,0 0,0.69893 0.981852,0 0,0.21962 -1.242818,0 0,-1.92882 z"
         id="path4626"
         inkscape:connector-curvature="0" />
    </g>
    <g
       style="font-size:2.64583349px;opacity:1;fill:#ffffff;fill-opacity:1;stroke:none;stroke-width:1.53299999;stroke-miterlimit:10;stroke-dasharray:none;stroke-opacity:1"
       id="text4388"
       transform="translate(2.1166667,-0.94377671)">
      <path
         d="m 19.782267,274.18101 0.260966,0 0,1.7092 0.939219,0 0,0.21962 -1.200185,0 0,-1.92882 z"
         id="path4594"
         inkscape:connector-curvature="0" />
      <path
         d="m 21.255045,274.18101 1.219564,0 0,0.21962 -0.958598,0 0,0.57103 0.918549,0 0,0.21962 -0.918549,0 0,0.69893 0.981852,0 0,0.21962 -1.242818,0 0,-1.92882 z"
         id="path4596"
         inkscape:connector-curvature="0" />
      <path
         d="m 23.42158,276.10983 -0.73639,-1.92882 0.272594,0 0.611073,1.62393 0.612366,-1.62393 0.271301,0 -0.735097,1.92882 -0.295847,0 z"
         id="path4598"
         inkscape:connector-curvature="0" />
      <path
         d="m 24.732869,274.18101 1.219564,0 0,0.21962 -0.958598,0 0,0.57103 0.918549,0 0,0.21962 -0.918549,0 0,0.69893 0.981852,0 0,0.21962 -1.242818,0 0,-1.92882 z"
         id="path4600"
         inkscape:connector-curvature="0" />
      <path
         d="m 26.402018,274.18101 0.260966,0 0,1.7092 0.939219,0 0,0.21962 -1.200185,0 0,-1.92882 z"
         id="path4602"
         inkscape:connector-curvature="0" />
    </g>
    <g
       style="font-size:2.64583349px;opacity:1;fill:#ffffff;fill-opacity:1;stroke:none;stroke-width:1.53299999;stroke-miterlimit:10;stroke-dasharray:none;stroke-opacity:1"
       id="text4392"
       transform="translate(-1.0583334,4.7625003)">
      <path
         d="m 3.1790013,227.36934 -0.7363892,-1.92882 0.2725932,0 0.6110738,1.62393 0.6123658,-1.62393 0.2713013,0 -0.7350973,1.92882 -0.2958476,0 z"
         id="path4583"
         inkscape:connector-curvature="0" />
      <path
         d="m 4.9024105,225.44052 0.2196248,0 -0.6717936,2.17428 -0.2196249,0 0.6717937,-2.17428 z"
         id="path4585"
         inkscape:connector-curvature="0" />
      <path
         d="m 6.1671913,225.61751 q -0.2842204,0 -0.4521688,0.21187 -0.1666565,0.21187 -0.1666565,0.57749 0,0.36431 0.1666565,0.57619 0.1679484,0.21187 0.4521688,0.21187 0.2842204,0 0.449585,-0.21187 0.1666565,-0.21188 0.1666565,-0.57619 0,-0.36562 -0.1666565,-0.57749 -0.1653646,-0.21187 -0.449585,-0.21187 z m 0,-0.21188 q 0.40566,0 0.6485393,0.2726 0.2428792,0.2713 0.2428792,0.72864 0,0.45604 -0.2428792,0.72863 -0.2428793,0.2713 -0.6485393,0.2713 -0.4069519,0 -0.6511231,-0.2713 -0.2428792,-0.2713 -0.2428792,-0.72863 0,-0.45734 0.2428792,-0.72864 0.2441712,-0.2726 0.6511231,-0.2726 z"
         id="path4587"
         inkscape:connector-curvature="0" />
      <path
         d="m 8.9112098,225.58909 0,0.27517 q -0.1317749,-0.12273 -0.2816366,-0.18345 -0.1485698,-0.0607 -0.3165182,-0.0607 -0.3307292,0 -0.506429,0.20283 -0.1756999,0.20154 -0.1756999,0.58395 0,0.38111 0.1756999,0.58394 0.1756998,0.20154 0.506429,0.20154 0.1679484,0 0.3165182,-0.0607 0.1498617,-0.0607 0.2816366,-0.18345 l 0,0.27259 q -0.1369426,0.093 -0.29068,0.13953 -0.1524455,0.0465 -0.3229777,0.0465 -0.4379578,0 -0.6898804,-0.26742 -0.2519226,-0.26872 -0.2519226,-0.73251 0,-0.46509 0.2519226,-0.73252 0.2519226,-0.26872 0.6898804,-0.26872 0.1731161,0 0.3255615,0.0465 0.1537374,0.0452 0.2880962,0.13695 z"
         id="path4589"
         inkscape:connector-curvature="0" />
      <path
         d="m 9.0494444,225.44052 1.6316836,0 0,0.21962 -0.6847129,0 0,1.7092 -0.2622579,0 0,-1.7092 -0.6847128,0 0,-0.21962 z"
         id="path4591"
         inkscape:connector-curvature="0" />
    </g>
    <g
       style="font-size:2.64583349px;opacity:1;fill:#ffffff;fill-opacity:1;stroke:none;stroke-width:1.53299999;stroke-miterlimit:10;stroke-dasharray:none;stroke-opacity:1"
       id="text4396"
       transform="translate(-0.27956794,0)">
      <path
         d="m 12.803351,230.16816 1.108459,0 0,0.21962 -0.847493,0 0,0.56845 0.764811,0 0,0.21962 -0.764811,0 0,0.92113 -0.260966,0 0,-1.92882 z"
         id="path4564"
         inkscape:connector-curvature="0" />
      <path
         d="m 15.237311,231.19265 q 0.08397,0.0284 0.162781,0.12143 0.0801,0.093 0.160197,0.2558 l 0.264841,0.5271 -0.280344,0 -0.246755,-0.4948 q -0.0956,-0.19379 -0.186035,-0.25709 -0.08914,-0.0633 -0.244172,-0.0633 l -0.28422,0 0,0.81519 -0.260966,0 0,-1.92882 0.589111,0 q 0.33073,0 0.49351,0.13823 0.162781,0.13824 0.162781,0.41729 0,0.18216 -0.08527,0.30231 -0.08397,0.12015 -0.245463,0.16666 z m -0.653707,-0.81003 0,0.68471 0.328145,0 q 0.188619,0 0.284221,-0.0866 0.09689,-0.0879 0.09689,-0.25709 0,-0.16924 -0.09689,-0.25451 -0.0956,-0.0865 -0.284221,-0.0865 l -0.328145,0 z"
         id="path4566"
         inkscape:connector-curvature="0" />
      <path
         d="m 16.162319,230.16816 1.219564,0 0,0.21962 -0.958598,0 0,0.57103 0.918549,0 0,0.21962 -0.918549,0 0,0.69893 0.981852,0 0,0.21962 -1.242818,0 0,-1.92882 z"
         id="path4568"
         inkscape:connector-curvature="0" />
      <path
         d="m 18.614366,230.3802 q -0.28422,0 -0.452169,0.21187 -0.166656,0.21188 -0.166656,0.57749 0,0.36432 0.166656,0.57619 0.167949,0.21187 0.452169,0.21187 0.28422,0 0.449585,-0.21187 0.166656,-0.21187 0.166656,-0.57619 0,-0.36561 -0.166656,-0.57749 -0.165365,-0.21187 -0.449585,-0.21187 z m 0.365611,1.71695 0.343648,0.37595 -0.315226,0 -0.285512,-0.30877 q -0.04263,0.003 -0.06589,0.004 -0.02196,0.001 -0.04263,0.001 -0.406952,0 -0.651123,-0.2713 -0.242879,-0.2726 -0.242879,-0.72864 0,-0.45734 0.242879,-0.72864 0.244171,-0.27259 0.651123,-0.27259 0.40566,0 0.648539,0.27259 0.24288,0.2713 0.24288,0.72864 0,0.3359 -0.135651,0.5749 -0.134359,0.239 -0.390157,0.35269 z"
         id="path4570"
         inkscape:connector-curvature="0" />
    </g>
    <g
       style="font-size:2.64583349px;opacity:1;fill:#ffffff;fill-opacity:1;stroke:none;stroke-width:1.53299999;stroke-miterlimit:10;stroke-dasharray:none;stroke-opacity:1"
       id="text4408"
       transform="translate(2.6243781,3.1750002)">
      <path
         d="m 7.7804134,257.61239 0,0.2545 q -0.1485698,-0.0711 -0.2803447,-0.10593 -0.1317749,-0.0349 -0.2545064,-0.0349 -0.2131653,0 -0.3294373,0.0827 -0.1149801,0.0827 -0.1149801,0.23512 0,0.1279 0.076223,0.19379 0.077515,0.0646 0.2919718,0.10465 l 0.1576132,0.0323 q 0.2919718,0.0556 0.4302063,0.19637 0.1395264,0.13953 0.1395264,0.37466 0,0.28034 -0.188619,0.42504 -0.1873271,0.14469 -0.5503541,0.14469 -0.1369425,0 -0.2919718,-0.031 -0.1537374,-0.031 -0.319102,-0.0917 l 0,-0.26872 q 0.158905,0.0891 0.3113505,0.13436 0.1524455,0.0452 0.2997233,0.0452 0.2235006,0 0.3449403,-0.0879 0.1214396,-0.0879 0.1214396,-0.25063 0,-0.14211 -0.08785,-0.22221 -0.086558,-0.0801 -0.2855123,-0.12015 l -0.158905,-0.031 q -0.2919719,-0.0581 -0.4224549,-0.18216 -0.130483,-0.12402 -0.130483,-0.34494 0,-0.25579 0.1795756,-0.40307 0.1808676,-0.14728 0.4973857,-0.14728 0.1356507,0 0.276469,0.0245 0.1408183,0.0245 0.2880961,0.0736 z"
         id="path4521"
         inkscape:connector-curvature="0" />
      <path
         d="m 8.308805,257.54908 0.3888652,0 0.492218,1.31258 0.4948019,-1.31258 0.3888649,0 0,1.92883 -0.2545062,0 0,-1.6937 -0.4973857,1.32292 -0.2622579,0 -0.4973857,-1.32292 0,1.6937 -0.2532145,0 0,-1.92883 z"
         id="path4523"
         inkscape:connector-curvature="0" />
      <path
         d="m 11.370634,257.72607 q -0.28422,0 -0.452169,0.21188 -0.166656,0.21187 -0.166656,0.57748 0,0.36432 0.166656,0.57619 0.167949,0.21188 0.452169,0.21188 0.28422,0 0.449585,-0.21188 0.166656,-0.21187 0.166656,-0.57619 0,-0.36561 -0.166656,-0.57748 -0.165365,-0.21188 -0.449585,-0.21188 z m 0,-0.21187 q 0.40566,0 0.648539,0.27259 0.242879,0.27131 0.242879,0.72864 0,0.45605 -0.242879,0.72864 -0.242879,0.2713 -0.648539,0.2713 -0.406952,0 -0.651123,-0.2713 -0.242879,-0.2713 -0.242879,-0.72864 0,-0.45733 0.242879,-0.72864 0.244171,-0.27259 0.651123,-0.27259 z"
         id="path4525"
         inkscape:connector-curvature="0" />
      <path
         d="m 13.453194,257.72607 q -0.28422,0 -0.452169,0.21188 -0.166656,0.21187 -0.166656,0.57748 0,0.36432 0.166656,0.57619 0.167949,0.21188 0.452169,0.21188 0.284221,0 0.449585,-0.21188 0.166657,-0.21187 0.166657,-0.57619 0,-0.36561 -0.166657,-0.57748 -0.165364,-0.21188 -0.449585,-0.21188 z m 0,-0.21187 q 0.40566,0 0.648539,0.27259 0.24288,0.27131 0.24288,0.72864 0,0.45605 -0.24288,0.72864 -0.242879,0.2713 -0.648539,0.2713 -0.406952,0 -0.651123,-0.2713 -0.242879,-0.2713 -0.242879,-0.72864 0,-0.45733 0.242879,-0.72864 0.244171,-0.27259 0.651123,-0.27259 z"
         id="path4527"
         inkscape:connector-curvature="0" />
      <path
         d="m 14.485431,257.54908 1.631683,0 0,0.21963 -0.684713,0 0,1.7092 -0.262258,0 0,-1.7092 -0.684712,0 0,-0.21963 z"
         id="path4529"
         inkscape:connector-curvature="0" />
      <path
         d="m 16.375497,257.54908 0.260966,0 0,0.79065 0.948262,0 0,-0.79065 0.260966,0 0,1.92883 -0.260966,0 0,-0.91855 -0.948262,0 0,0.91855 -0.260966,0 0,-1.92883 z"
         id="path4531"
         inkscape:connector-curvature="0" />
    </g>
    <g
       style="font-size:2.64583349px;opacity:1;fill:#ffffff;fill-opacity:1;stroke:none;stroke-width:1.53299999;stroke-miterlimit:10;stroke-dasharray:none;stroke-opacity:1"
       id="text4412"
       transform="translate(3.43162,5.7943093)">
      <path
         d="m 18.836908,231.42637 1.10846,0 0,0.21963 -0.847494,0 0,0.56844 0.764812,0 0,0.21962 -0.764812,0 0,0.92113 -0.260966,0 0,-1.92882 z"
         id="path4516"
         inkscape:connector-curvature="0" />
      <path
         d="m 20.356196,231.42637 0.388865,0 0.492218,1.31258 0.494802,-1.31258 0.388865,0 0,1.92882 -0.254507,0 0,-1.69369 -0.497385,1.32292 -0.262258,0 -0.497386,-1.32292 0,1.69369 -0.253214,0 0,-1.92882 z"
         id="path4518"
         inkscape:connector-curvature="0" />
    </g>
    <g
       style="font-size:1.984375px;opacity:1;fill:#ffffff;fill-opacity:1;stroke:none;stroke-width:1.53299999;stroke-miterlimit:10;stroke-dasharray:none;stroke-opacity:1"
       id="text4732"
       transform="translate(-0.52916669,0)">
      <path
         d="m 1.9174714,197.59076 0.4566905,0 0,2.9911 1.6436336,0 0,0.38434 -2.1003241,0 0,-3.37544 z"
         style="font-size:4.63020849px"
         id="path4806"
         inkscape:connector-curvature="0" />
      <path
         d="m 5.6275163,199.69335 q -0.5041682,0 -0.6986008,0.1153 -0.1944326,0.1153 -0.1944326,0.39339 0,0.22156 0.1446941,0.35269 0.1469548,0.12887 0.3979085,0.12887 0.3459091,0 0.5539068,-0.24417 0.2102585,-0.24644 0.2102585,-0.65339 l 0,-0.0927 -0.4137345,0 z m 0.8297298,-0.17183 0,1.44468 -0.4159953,0 0,-0.38434 q -0.1424332,0.2306 -0.3549525,0.34139 -0.2125194,0.10852 -0.5199941,0.10852 -0.3888652,0 -0.6194713,-0.21704 -0.2283452,-0.21931 -0.2283452,-0.58556 0,-0.4273 0.2848663,-0.64434 0.2871272,-0.21704 0.854599,-0.21704 l 0.5832978,0 0,-0.0407 q 0,-0.28713 -0.1899109,-0.44313 -0.1876501,-0.15825 -0.5290375,-0.15825 -0.217041,0 -0.4227778,0.052 -0.2057368,0.052 -0.3956477,0.156 l 0,-0.38434 q 0.2283452,-0.0882 0.4431254,-0.13113 0.2147802,-0.0452 0.4182561,-0.0452 0.5493851,0 0.8206864,0.28487 0.2713013,0.28487 0.2713013,0.86364 z"
         style="font-size:4.63020849px"
         id="path4808"
         inkscape:connector-curvature="0" />
      <path
         d="m 9.296866,198.92014 q 0.1559983,-0.28035 0.3730393,-0.41374 0.217041,-0.13339 0.5109507,-0.13339 0.395648,0 0.610428,0.27809 0.21478,0.27582 0.21478,0.78677 l 0,1.52833 -0.418256,0 0,-1.51476 q 0,-0.364 -0.128868,-0.54035 -0.128868,-0.17634 -0.393387,-0.17634 -0.3233007,0 -0.5109508,0.21478 -0.18765,0.21478 -0.18765,0.58556 l 0,1.43111 -0.4182562,0 0,-1.51476 q 0,-0.36626 -0.1288681,-0.54035 -0.1288681,-0.17634 -0.3979085,-0.17634 -0.318779,0 -0.5064291,0.21704 -0.18765,0.21478 -0.18765,0.5833 l 0,1.43111 -0.4182561,0 0,-2.53214 0.4182561,0 0,0.39338 q 0.1424332,-0.23286 0.3413874,-0.34364 0.1989543,-0.11079 0.4725164,-0.11079 0.275823,0 0.4679947,0.14018 0.1944326,0.14017 0.2871272,0.40695 z"
         style="font-size:4.63020849px"
         id="path4810"
         inkscape:connector-curvature="0" />
      <path
         d="m 13.64673,199.70239 q 0,-0.45895 -0.189911,-0.71895 -0.18765,-0.26226 -0.517733,-0.26226 -0.330084,0 -0.519995,0.26226 -0.18765,0.26 -0.18765,0.71895 0,0.45895 0.18765,0.72121 0.189911,0.26 0.519995,0.26 0.330083,0 0.517733,-0.26 0.189911,-0.26226 0.189911,-0.72121 z m -1.415289,-0.88399 q 0.131129,-0.22608 0.330084,-0.3346 0.201215,-0.11079 0.479299,-0.11079 0.461212,0 0.748339,0.36626 0.289388,0.36626 0.289388,0.96312 0,0.59686 -0.289388,0.96312 -0.287127,0.36626 -0.748339,0.36626 -0.278084,0 -0.479299,-0.10852 -0.198955,-0.11079 -0.330084,-0.33687 l 0,0.37982 -0.418256,0 0,-3.51787 0.418256,0 0,1.37007 z"
         style="font-size:4.63020849px"
         id="path4812"
         inkscape:connector-curvature="0" />
      <path
         d="m 16.382351,198.50866 0,0.39339 q -0.176346,-0.0904 -0.366257,-0.13565 -0.18991,-0.0452 -0.393386,-0.0452 -0.309736,0 -0.465734,0.095 -0.153738,0.095 -0.153738,0.28487 0,0.14469 0.110782,0.22834 0.110781,0.0814 0.445386,0.156 l 0.142433,0.0316 q 0.443126,0.095 0.628515,0.26904 0.18765,0.17183 0.18765,0.48156 0,0.35269 -0.280345,0.55843 -0.278084,0.20574 -0.766426,0.20574 -0.203476,0 -0.425039,-0.0407 -0.219302,-0.0384 -0.463473,-0.11756 l 0,-0.42956 q 0.230606,0.11982 0.45443,0.18086 0.223824,0.0588 0.443125,0.0588 0.29391,0 0.452169,-0.0995 0.158259,-0.10174 0.158259,-0.28487 0,-0.16956 -0.115303,-0.25999 -0.113042,-0.0904 -0.499646,-0.17409 l -0.144694,-0.0339 q -0.386605,-0.0814 -0.558429,-0.24869 -0.171824,-0.16957 -0.171824,-0.46348 0,-0.35721 0.253215,-0.55164 0.253214,-0.19444 0.718948,-0.19444 0.230606,0 0.434082,0.0339 0.203476,0.0339 0.3753,0.10173 z"
         style="font-size:4.63020849px"
         id="path4814"
         inkscape:connector-curvature="0" />
    </g>
    <g
       style="font-size:2.64583349px;opacity:1;fill:#ffffff;fill-opacity:1;stroke:none;stroke-width:1.53299999;stroke-miterlimit:10;stroke-dasharray:none;stroke-opacity:1"
       id="text4736"
       transform="translate(0,4.1708785)">
      <path
         d="m 2.4018881,210.97048 0,0.25451 q -0.1485697,-0.0711 -0.2803446,-0.10594 -0.1317749,-0.0349 -0.2545065,-0.0349 -0.2131653,0 -0.3294372,0.0827 -0.1149801,0.0827 -0.1149801,0.23513 0,0.1279 0.076223,0.19378 0.077515,0.0646 0.2919719,0.10465 l 0.1576131,0.0323 q 0.2919719,0.0556 0.4302063,0.19637 0.1395264,0.13952 0.1395264,0.37465 0,0.28035 -0.188619,0.42504 -0.1873271,0.14469 -0.550354,0.14469 -0.1369426,0 -0.2919719,-0.031 -0.1537374,-0.031 -0.319102,-0.0917 l 0,-0.26872 q 0.1589051,0.0891 0.3113506,0.13436 0.1524455,0.0452 0.2997233,0.0452 0.2235006,0 0.3449402,-0.0879 0.1214396,-0.0878 0.1214396,-0.25063 0,-0.14211 -0.08785,-0.22221 -0.086558,-0.0801 -0.2855123,-0.12015 l -0.1589051,-0.031 q -0.2919718,-0.0581 -0.4224548,-0.18216 -0.130483,-0.12403 -0.130483,-0.34494 0,-0.2558 0.1795756,-0.40308 0.1808675,-0.14728 0.4973857,-0.14728 0.1356506,0 0.2764689,0.0246 0.1408183,0.0246 0.2880961,0.0736 z"
         id="path4797"
         inkscape:connector-curvature="0" />
      <path
         d="m 2.665438,210.90718 0.2803447,0 0.5348511,0.79323 0.5309754,-0.79323 0.2803446,0 -0.6821289,1.01027 0,0.91855 -0.2622579,0 0,-0.91855 -0.682129,-1.01027 z"
         id="path4799"
         inkscape:connector-curvature="0" />
      <path
         d="m 4.5477522,210.90718 0.3513997,0 0.855245,1.61359 0,-1.61359 0.2532146,0 0,1.92882 -0.3513998,0 -0.855245,-1.6136 0,1.6136 -0.2532145,0 0,-1.92882 z"
         id="path4801"
         inkscape:connector-curvature="0" />
      <path
         d="m 7.9713163,211.05575 0,0.27517 q -0.1317749,-0.12273 -0.2816366,-0.18345 -0.1485697,-0.0607 -0.3165182,-0.0607 -0.3307291,0 -0.506429,0.20283 -0.1756999,0.20154 -0.1756999,0.58394 0,0.38112 0.1756999,0.58395 0.1756999,0.20154 0.506429,0.20154 0.1679485,0 0.3165182,-0.0607 0.1498617,-0.0607 0.2816366,-0.18345 l 0,0.27259 q -0.1369426,0.093 -0.29068,0.13953 -0.1524455,0.0465 -0.3229777,0.0465 -0.4379578,0 -0.6898804,-0.26742 -0.2519226,-0.26872 -0.2519226,-0.73252 0,-0.46508 0.2519226,-0.73251 0.2519226,-0.26872 0.6898804,-0.26872 0.1731161,0 0.3255616,0.0465 0.1537373,0.0452 0.2880961,0.13695 z"
         id="path4803"
         inkscape:connector-curvature="0" />
    </g>
    <g
       style="font-size:2.64583349px;opacity:1;fill:#ffffff;fill-opacity:1;stroke:none;stroke-width:1.53299999;stroke-miterlimit:10;stroke-dasharray:none;stroke-opacity:1"
       id="text4740"
       transform="translate(-1.0583334,-0.52916671)">
      <path
         d="m 3.2097246,274.77409 0,0.70667 0.4185791,0 q 0.2105815,0 0.3113506,-0.0865 0.1020609,-0.0879 0.1020609,-0.26743 0,-0.18087 -0.1020609,-0.26613 -0.1007691,-0.0866 -0.3113506,-0.0866 l -0.4185791,0 z m 0,-0.79323 0,0.58136 0.3862814,0 q 0.1912028,0 0.2842204,-0.0711 0.094309,-0.0723 0.094309,-0.21962 0,-0.14599 -0.094309,-0.21834 -0.093018,-0.0723 -0.2842204,-0.0723 l -0.3862814,0 z m -0.260966,-0.21446 0.666626,0 q 0.2984314,0 0.4599203,0.12402 0.1614889,0.12402 0.1614889,0.35269 0,0.17699 -0.082682,0.28164 -0.082682,0.10464 -0.2428793,0.13048 0.1924947,0.0413 0.2984314,0.17312 0.1072286,0.13048 0.1072286,0.32685 0,0.25838 -0.1756998,0.3992 -0.1756999,0.14082 -0.4999695,0.14082 l -0.6924643,0 0,-1.92882 z"
         id="path4788"
         inkscape:connector-curvature="0" />
      <path
         d="m 5.407265,274.02349 -0.3539835,0.95989 0.709259,0 -0.3552755,-0.95989 z m -0.1472778,-0.25709 0.2958476,0 0.7350973,1.92882 -0.2713013,0 -0.1756999,-0.4948 -0.869456,0 -0.1756999,0.4948 -0.275177,0 0.7363892,-1.92882 z"
         id="path4790"
         inkscape:connector-curvature="0" />
      <path
         d="m 6.5712767,273.7664 0.3513997,0 0.855245,1.61359 0,-1.61359 0.2532146,0 0,1.92882 -0.3513998,0 -0.855245,-1.6136 0,1.6136 -0.2532145,0 0,-1.92882 z"
         id="path4792"
         inkscape:connector-curvature="0" />
      <path
         d="m 8.5504842,273.7664 0.260966,0 0,0.81519 0.8655803,-0.81519 0.3358965,0 -0.9573056,0.89917 1.0257776,1.02965 -0.3436487,0 -0.9263001,-0.92888 0,0.92888 -0.260966,0 0,-1.92882 z"
         id="path4794"
         inkscape:connector-curvature="0" />
    </g>
    <g
       style="font-size:2.64583349px;opacity:1;fill:#ffffff;fill-opacity:1;stroke:none;stroke-width:1.53299999;stroke-miterlimit:10;stroke-dasharray:none;stroke-opacity:1"
       id="text4748">
      <path
         d="m 11.704013,285.79485 0,0.25451 q -0.14857,-0.0711 -0.280345,-0.10594 -0.131775,-0.0349 -0.254506,-0.0349 -0.213166,0 -0.329438,0.0827 -0.11498,0.0827 -0.11498,0.23513 0,0.1279 0.07622,0.19379 0.07752,0.0646 0.291972,0.10464 l 0.157613,0.0323 q 0.291972,0.0556 0.430206,0.19637 0.139527,0.13952 0.139527,0.37465 0,0.28035 -0.188619,0.42504 -0.187327,0.1447 -0.550354,0.1447 -0.136943,0 -0.291972,-0.031 -0.153738,-0.031 -0.319102,-0.0917 l 0,-0.26871 q 0.158905,0.0891 0.31135,0.13436 0.152446,0.0452 0.299724,0.0452 0.2235,0 0.34494,-0.0879 0.121439,-0.0878 0.121439,-0.25063 0,-0.14211 -0.08785,-0.22221 -0.08656,-0.0801 -0.285512,-0.12015 l -0.158905,-0.031 q -0.291972,-0.0581 -0.422455,-0.18216 -0.130483,-0.12402 -0.130483,-0.34494 0,-0.2558 0.179576,-0.40308 0.180867,-0.14727 0.497386,-0.14727 0.13565,0 0.276469,0.0245 0.140818,0.0246 0.288096,0.0736 z"
         style=""
         id="path4781" />
      <path
         d="m 12.20269,285.73155 0.262258,0 0,1.17176 q 0,0.31006 0.112396,0.447 0.112397,0.13565 0.364319,0.13565 0.250631,0 0.363027,-0.13565 0.112397,-0.13694 0.112397,-0.447 l 0,-1.17176 0.262257,0 0,1.20406 q 0,0.37724 -0.187327,0.56973 -0.186035,0.1925 -0.550354,0.1925 -0.36561,0 -0.552938,-0.1925 -0.186035,-0.19249 -0.186035,-0.56973 l 0,-1.20406 z"
         style=""
         id="path4783" />
      <path
         d="m 14.431236,286.73924 0,0.70667 0.41858,0 q 0.210581,0 0.31135,-0.0866 0.102061,-0.0879 0.102061,-0.26742 0,-0.18087 -0.102061,-0.26613 -0.100769,-0.0866 -0.31135,-0.0866 l -0.41858,0 z m 0,-0.79324 0,0.58136 0.386282,0 q 0.191203,0 0.28422,-0.0711 0.09431,-0.0723 0.09431,-0.21963 0,-0.14598 -0.09431,-0.21833 -0.09302,-0.0723 -0.28422,-0.0723 l -0.386282,0 z m -0.260966,-0.21445 0.666626,0 q 0.298432,0 0.459921,0.12402 0.161489,0.12402 0.161489,0.35269 0,0.17699 -0.08268,0.28164 -0.08268,0.10464 -0.242879,0.13048 0.192495,0.0413 0.298431,0.17312 0.107229,0.13048 0.107229,0.32685 0,0.25838 -0.1757,0.3992 -0.1757,0.14082 -0.499969,0.14082 l -0.692465,0 0,-1.92882 z"
         style=""
         id="path4785" />
    </g>
    <g
       style="font-size:2.64583349px;text-align:center;text-anchor:middle;fill:#ffffff;fill-opacity:1;stroke:none;stroke-width:0.37500003;stroke-miterlimit:4;stroke-dasharray:none;stroke-opacity:1"
       id="text4524"
       transform="translate(0.59629971,-19.257981)">
      <path
         d="m 22.232492,223.13072 0,0.70667 0.418579,0 q 0.210581,0 0.31135,-0.0866 0.102061,-0.0879 0.102061,-0.26742 0,-0.18087 -0.102061,-0.26614 -0.100769,-0.0866 -0.31135,-0.0866 l -0.418579,0 z m 0,-0.79324 0,0.58136 0.386281,0 q 0.191203,0 0.28422,-0.071 0.09431,-0.0724 0.09431,-0.21963 0,-0.14598 -0.09431,-0.21833 -0.09302,-0.0724 -0.28422,-0.0724 l -0.386281,0 z m -0.260966,-0.21445 0.666626,0 q 0.298431,0 0.45992,0.12402 0.161489,0.12402 0.161489,0.35269 0,0.17699 -0.08268,0.28164 -0.08268,0.10464 -0.242879,0.13048 0.192495,0.0413 0.298432,0.17312 0.107228,0.13048 0.107228,0.32685 0,0.25838 -0.1757,0.3992 -0.1757,0.14082 -0.499969,0.14082 l -0.692464,0 0,-1.92882 z"
         style="fill:#ffffff;fill-opacity:1;stroke:none;stroke-width:0.37500003"
         id="path4559"
         inkscape:connector-curvature="0" />
      <path
         d="m 24.430032,222.38012 -0.353984,0.95989 0.70926,0 -0.355276,-0.95989 z m -0.147278,-0.25709 0.295848,0 0.735097,1.92882 -0.271301,0 -0.1757,-0.4948 -0.869456,0 -0.1757,0.4948 -0.275177,0 0.736389,-1.92882 z"
         style="fill:#ffffff;fill-opacity:1;stroke:none;stroke-width:0.37500003"
         id="path4561"
         inkscape:connector-curvature="0" />
      <path
         d="m 25.594044,222.12303 0.351399,0 0.855245,1.61359 0,-1.61359 0.253215,0 0,1.92882 -0.3514,0 -0.855245,-1.6136 0,1.6136 -0.253214,0 0,-1.92882 z"
         style="fill:#ffffff;fill-opacity:1;stroke:none;stroke-width:0.37500003"
         id="path4563"
         inkscape:connector-curvature="0" />
      <path
         d="m 27.573251,222.12303 0.260966,0 0,0.81519 0.86558,-0.81519 0.335897,0 -0.957306,0.89917 1.025778,1.02965 -0.343649,0 -0.9263,-0.92888 0,0.92888 -0.260966,0 0,-1.92882 z"
         style="fill:#ffffff;fill-opacity:1;stroke:none;stroke-width:0.37500003"
         id="path4565"
         inkscape:connector-curvature="0" />
    </g>
    <g
       transform="matrix(0,1,-1,0,0,0)"
       style="font-size:1.98437512px;text-align:center;text-anchor:middle;fill:#00ff00;fill-opacity:1;stroke:none;stroke-width:1.41732287;stroke-miterlimit:4;stroke-dasharray:none;stroke-opacity:1"
       id="text4528">
      <path
         d="m 215.70587,-23.364592 -0.26549,0.719918 0.53195,0 -0.26646,-0.719918 z m -0.11046,-0.192817 0.22189,0 0.55132,1.446617 -0.20347,0 -0.13178,-0.371102 -0.65209,0 -0.13178,0.371102 -0.20638,0 0.55229,-1.446617 z"
         style=""
         id="path4569" />
      <path
         d="m 216.7746,-23.396566 0,1.124931 0.23642,0 q 0.2994,0 0.43796,-0.135651 0.13953,-0.13565 0.13953,-0.428268 0,-0.29068 -0.13953,-0.425362 -0.13856,-0.13565 -0.43796,-0.13565 l -0.23642,0 z m -0.19572,-0.160843 0.40211,0 q 0.42051,0 0.61721,0.175377 0.19669,0.174407 0.19669,0.546478 0,0.374008 -0.19766,0.549385 -0.19766,0.175377 -0.61624,0.175377 l -0.40211,0 0,-1.446617 z"
         style=""
         id="path4571" />
      <path
         d="m 218.30164,-23.396566 0,1.124931 0.23642,0 q 0.2994,0 0.43796,-0.135651 0.13953,-0.13565 0.13953,-0.428268 0,-0.29068 -0.13953,-0.425362 -0.13856,-0.13565 -0.43796,-0.13565 l -0.23642,0 z m -0.19572,-0.160843 0.40211,0 q 0.42051,0 0.61721,0.175377 0.19669,0.174407 0.19669,0.546478 0,0.374008 -0.19766,0.549385 -0.19766,0.175377 -0.61624,0.175377 l -0.40211,0 0,-1.446617 z"
         style=""
         id="path4573" />
    </g>
    <g
       transform="matrix(0,1,-1,0,0,0)"
       style="font-size:1.984375px;text-align:center;text-anchor:middle;fill:#ffff00;fill-opacity:1;stroke:none;stroke-width:1.41732287;stroke-miterlimit:4;stroke-dasharray:none;stroke-opacity:1"
       id="text4532">
      <path
         d="m 215.23885,-26.424364 0,0.543571 0.24611,0 q 0.13662,0 0.21123,-0.07073 0.0746,-0.07073 0.0746,-0.201538 0,-0.129837 -0.0746,-0.200569 -0.0746,-0.07073 -0.21123,-0.07073 l -0.24611,0 z m -0.19572,-0.160843 0.44183,0 q 0.2432,0 0.36723,0.110458 0.12499,0.10949 0.12499,0.321686 0,0.214134 -0.12499,0.323624 -0.12403,0.109489 -0.36723,0.109489 l -0.24611,0 0,0.58136 -0.19572,0 0,-1.446617 z"
         style=""
         id="path4576" />
      <path
         d="m 216.11186,-26.585207 0.19766,0 0.30425,1.222794 0.30328,-1.222794 0.21994,0 0.30425,1.222794 0.30327,-1.222794 0.19864,0 -0.36335,1.446617 -0.24611,0 -0.30522,-1.255737 -0.30812,1.255737 -0.24611,0 -0.36238,-1.446617 z"
         style=""
         id="path4578" />
      <path
         d="m 218.20185,-26.585207 0.29165,0 0.36916,0.984436 0.3711,-0.984436 0.29165,0 0,1.446617 -0.19088,0 0,-1.270271 -0.37304,0.992187 -0.19669,0 -0.37304,-0.992187 0,1.270271 -0.18991,0 0,-1.446617 z"
         style=""
         id="path4580" />
    </g>
    <g
       transform="matrix(0,1,-1,0,0,0)"
       style="font-size:1.984375px;text-align:center;text-anchor:middle;fill:#ff0000;fill-opacity:1;stroke:none;stroke-width:1.41732287;stroke-miterlimit:4;stroke-dasharray:none;stroke-opacity:1"
       id="text4540">
      <path
         d="m 215.04312,-29.843126 0.19766,0 0.30425,1.222793 0.30327,-1.222793 0.21995,0 0.30425,1.222793 0.30327,-1.222793 0.19863,0 -0.36335,1.446617 -0.2461,0 -0.30522,-1.255737 -0.30812,1.255737 -0.24611,0 -0.36238,-1.446617 z"
         style=""
         id="path4584" />
      <path
         d="m 217.13311,-29.843126 0.29165,0 0.36916,0.984436 0.3711,-0.984436 0.29165,0 0,1.446617 -0.19088,0 0,-1.270271 -0.37304,0.992187 -0.19669,0 -0.37304,-0.992187 0,1.270271 -0.18991,0 0,-1.446617 z"
         style=""
         id="path4586" />
      <path
         d="m 219.32581,-29.650309 -0.26549,0.719918 0.53194,0 -0.26645,-0.719918 z m -0.11046,-0.192817 0.22188,0 0.55133,1.446617 -0.20348,0 -0.13177,-0.371102 -0.6521,0 -0.13177,0.371102 -0.20638,0 0.55229,-1.446617 z"
         style=""
         id="path4588" />
      <path
         d="m 220.39454,-29.682283 0,0.543571 0.24611,0 q 0.13662,0 0.21123,-0.07073 0.0746,-0.07073 0.0746,-0.201538 0,-0.129837 -0.0746,-0.200569 -0.0746,-0.07073 -0.21123,-0.07073 l -0.24611,0 z m -0.19573,-0.160843 0.44184,0 q 0.2432,0 0.36722,0.110458 0.125,0.10949 0.125,0.321686 0,0.214134 -0.125,0.323624 -0.12402,0.109489 -0.36722,0.109489 l -0.24611,0 0,0.58136 -0.19573,0 0,-1.446617 z"
         style=""
         id="path4590" />
    </g>
    <g
       style="font-style:normal;font-variant:normal;font-weight:normal;font-stretch:normal;font-size:1.984375px;font-family:sans-serif;-inkscape-font-specification:sans-serif;fill:#ffffff;fill-opacity:1;stroke:none;stroke-width:0.30000001;stroke-miterlimit:4;stroke-dasharray:none;stroke-opacity:1"
       id="text11257">
      <path
         d="m 1.3883047,202.87622 0.1782837,0 0.2228546,0.84685 0.2218857,-0.84685 0.2102585,0 0.2228546,0.84685 0.2218857,-0.84685 0.1782837,0 -0.2838974,1.08521 -0.2102585,0 -0.2335129,-0.88948 -0.2344818,0.88948 -0.2102585,0 -0.2838974,-1.08521 z"
         style=""
         id="path11262" />
      <path
         d="m 3.6090994,203.41592 q -0.2160721,0 -0.2994003,0.0494 -0.083328,0.0494 -0.083328,0.1686 0,0.095 0.062012,0.15115 0.062981,0.0552 0.1705323,0.0552 0.1482467,0 0.2373886,-0.10465 0.090111,-0.10561 0.090111,-0.28002 l 0,-0.0397 -0.1773147,0 z m 0.3555984,-0.0736 0,0.61915 -0.1782837,0 0,-0.16472 q -0.061043,0.0988 -0.1521225,0.14631 -0.09108,0.0465 -0.2228546,0.0465 -0.1666565,0 -0.2654876,-0.093 -0.097862,-0.094 -0.097862,-0.25096 0,-0.18312 0.1220856,-0.27614 0.1230545,-0.093 0.3662567,-0.093 l 0.2499847,0 0,-0.0174 q 0,-0.12306 -0.08139,-0.18991 -0.080422,-0.0678 -0.2267304,-0.0678 -0.093018,0 -0.1811905,0.0223 -0.088173,0.0223 -0.1695633,0.0668 l 0,-0.16471 q 0.097862,-0.0378 0.1899109,-0.0562 0.092049,-0.0194 0.1792526,-0.0194 0.2354508,0 0.3517228,0.12209 0.1162719,0.12208 0.1162719,0.37013 z"
         style=""
         id="path11264" />
      <path
         d="m 4.208869,202.87622 0.1889419,0 0.3391266,0.9108 0.3391266,-0.9108 0.188942,0 -0.4069519,1.08521 -0.2422333,0 -0.4069519,-1.08521 z"
         style=""
         id="path11266" />
      <path
         d="m 6.439353,203.37425 0,0.0872 -0.8197174,0 q 0.011627,0.18409 0.1104584,0.28099 0.0998,0.0959 0.2771148,0.0959 0.1027069,0 0.1986313,-0.0252 0.096893,-0.0252 0.1918488,-0.0756 l 0,0.1686 q -0.095924,0.0407 -0.1966935,0.062 -0.100769,0.0213 -0.2044448,0.0213 -0.2596741,0 -0.4117966,-0.15115 -0.1511536,-0.15115 -0.1511536,-0.40889 0,-0.26646 0.1434021,-0.42245 0.1443711,-0.15697 0.3885422,-0.15697 0.2189789,0 0.3459091,0.14146 0.1278992,0.1405 0.1278992,0.38273 z m -0.1782837,-0.0523 q -0.00194,-0.14631 -0.082359,-0.23351 -0.079452,-0.0872 -0.2112274,-0.0872 -0.1492157,0 -0.2393265,0.0843 -0.089142,0.0843 -0.1027069,0.23739 l 0.6356201,-9.7e-4 z"
         style=""
         id="path11268" />
      <path
         d="m 6.9044409,202.5681 0,0.30812 0.3672256,0 0,0.13856 -0.3672256,0 0,0.58911 q 0,0.13274 0.035851,0.17053 0.036819,0.0378 0.1482468,0.0378 l 0.1831283,0 0,0.14922 -0.1831283,0 q -0.2063828,0 -0.2848664,-0.0765 -0.078483,-0.0775 -0.078483,-0.28099 l 0,-0.58911 -0.130806,0 0,-0.13856 0.130806,0 0,-0.30812 0.1792526,0 z"
         style=""
         id="path11270" />
      <path
         d="m 8.0003042,203.41592 q -0.2160721,0 -0.2994003,0.0494 -0.083328,0.0494 -0.083328,0.1686 0,0.095 0.062012,0.15115 0.062981,0.0552 0.1705322,0.0552 0.1482468,0 0.2373886,-0.10465 0.090111,-0.10561 0.090111,-0.28002 l 0,-0.0397 -0.1773148,0 z m 0.3555985,-0.0736 0,0.61915 -0.1782837,0 0,-0.16472 q -0.061043,0.0988 -0.1521225,0.14631 -0.09108,0.0465 -0.2228546,0.0465 -0.1666565,0 -0.2654877,-0.093 -0.097862,-0.094 -0.097862,-0.25096 0,-0.18312 0.1220855,-0.27614 0.1230545,-0.093 0.3662567,-0.093 l 0.2499848,0 0,-0.0174 q 0,-0.12306 -0.08139,-0.18991 -0.080421,-0.0678 -0.2267303,-0.0678 -0.093018,0 -0.1811905,0.0223 -0.088173,0.0223 -0.1695633,0.0668 l 0,-0.16471 q 0.097862,-0.0378 0.1899109,-0.0562 0.092049,-0.0194 0.1792526,-0.0194 0.2354507,0 0.3517227,0.12209 0.116272,0.12208 0.116272,0.37013 z"
         style=""
         id="path11272" />
      <path
         d="m 9.5069952,203.41979 q 0,-0.19669 -0.08139,-0.30812 -0.080421,-0.11239 -0.2218857,-0.11239 -0.1414642,0 -0.2228546,0.11239 -0.080421,0.11143 -0.080421,0.30812 0,0.1967 0.080421,0.30909 0.08139,0.11143 0.2228546,0.11143 0.1414643,0 0.2218857,-0.11143 0.08139,-0.11239 0.08139,-0.30909 z m -0.6065521,-0.37885 q 0.056198,-0.0969 0.1414642,-0.1434 0.086235,-0.0475 0.2054138,-0.0475 0.1976624,0 0.3207169,0.15697 0.1240234,0.15696 0.1240234,0.41276 0,0.2558 -0.1240234,0.41277 -0.1230545,0.15696 -0.3207169,0.15696 -0.1191787,0 -0.2054138,-0.0465 -0.085266,-0.0475 -0.1414642,-0.14437 l 0,0.16278 -0.1792526,0 0,-1.50766 0.1792526,0 0,0.58717 z"
         style=""
         id="path11274" />
      <path
         d="m 9.987586,202.45377 0.178284,0 0,1.50766 -0.178284,0 0,-1.50766 z"
         style=""
         id="path11276" />
      <path
         d="m 11.466178,203.37425 0,0.0872 -0.819717,0 q 0.01163,0.18409 0.110458,0.28099 0.0998,0.0959 0.277115,0.0959 0.102707,0 0.198631,-0.0252 0.09689,-0.0252 0.191849,-0.0756 l 0,0.1686 q -0.09593,0.0407 -0.196694,0.062 -0.100769,0.0213 -0.204444,0.0213 -0.259675,0 -0.411797,-0.15115 -0.151154,-0.15115 -0.151154,-0.40889 0,-0.26646 0.143402,-0.42245 0.144372,-0.15697 0.388543,-0.15697 0.218979,0 0.345909,0.14146 0.127899,0.1405 0.127899,0.38273 z m -0.178284,-0.0523 q -0.0019,-0.14631 -0.08236,-0.23351 -0.07945,-0.0872 -0.211227,-0.0872 -0.149216,0 -0.239327,0.0843 -0.08914,0.0843 -0.102707,0.23739 l 0.63562,-9.7e-4 z"
         style=""
         id="path11278" />
      <path
         d="m 12.807181,203.00121 q -0.143402,0 -0.22673,0.1124 -0.08333,0.11143 -0.08333,0.30618 0,0.19476 0.08236,0.30715 0.08333,0.11143 0.227699,0.11143 0.142434,0 0.225762,-0.11239 0.08333,-0.1124 0.08333,-0.30619 0,-0.19282 -0.08333,-0.30521 -0.08333,-0.11337 -0.225762,-0.11337 z m 0,-0.15115 q 0.232544,0 0.365288,0.15115 0.132744,0.15116 0.132744,0.41858 0,0.26646 -0.132744,0.41858 -0.132744,0.15115 -0.365288,0.15115 -0.233513,0 -0.366256,-0.15115 -0.131775,-0.15212 -0.131775,-0.41858 0,-0.26742 0.131775,-0.41858 0.132743,-0.15115 0.366256,-0.15115 z"
         style=""
         id="path11280" />
      <path
         d="m 14.291587,202.9082 0,0.16859 q -0.07558,-0.0388 -0.156967,-0.0581 -0.08139,-0.0194 -0.168595,-0.0194 -0.132743,0 -0.1996,0.0407 -0.06589,0.0407 -0.06589,0.12209 0,0.062 0.04748,0.0979 0.04748,0.0349 0.19088,0.0669 l 0.06104,0.0136 q 0.189911,0.0407 0.269363,0.1153 0.08042,0.0736 0.08042,0.20639 0,0.15115 -0.120148,0.23932 -0.119179,0.0882 -0.328468,0.0882 -0.0872,0 -0.18216,-0.0174 -0.09399,-0.0165 -0.198631,-0.0504 l 0,-0.1841 q 0.09883,0.0514 0.194756,0.0775 0.09592,0.0252 0.189911,0.0252 0.125961,0 0.193786,-0.0426 0.06783,-0.0436 0.06783,-0.12209 0,-0.0727 -0.04942,-0.11143 -0.04845,-0.0387 -0.214134,-0.0746 l -0.06201,-0.0145 q -0.165688,-0.0349 -0.239326,-0.10658 -0.07364,-0.0727 -0.07364,-0.19863 0,-0.15309 0.10852,-0.23642 0.108521,-0.0833 0.308121,-0.0833 0.09883,0 0.186035,0.0145 0.0872,0.0145 0.160843,0.0436 z"
         style=""
         id="path11282" />
      <path
         d="m 15.415549,202.91788 0,0.16666 q -0.07558,-0.0417 -0.152122,-0.062 -0.07558,-0.0213 -0.153092,-0.0213 -0.173439,0 -0.269363,0.11046 -0.09592,0.10949 -0.09592,0.30812 0,0.19863 0.09592,0.30909 0.09592,0.10949 0.269363,0.10949 0.07752,0 0.153092,-0.0204 0.07654,-0.0213 0.152122,-0.063 l 0,0.16472 q -0.07461,0.0349 -0.155029,0.0523 -0.07945,0.0174 -0.169563,0.0174 -0.24514,0 -0.389511,-0.15406 -0.144371,-0.15406 -0.144371,-0.41567 0,-0.26549 0.14534,-0.41761 0.146308,-0.15212 0.400169,-0.15212 0.08236,0 0.160843,0.0174 0.07848,0.0165 0.152122,0.0504 z"
         style=""
         id="path11284" />
      <path
         d="m 15.72367,202.87622 0.178284,0 0,1.08521 -0.178284,0 0,-1.08521 z m 0,-0.42245 0.178284,0 0,0.22576 -0.178284,0 0,-0.22576 z"
         style=""
         id="path11286" />
      <path
         d="m 16.274024,202.45377 0.178284,0 0,1.50766 -0.178284,0 0,-1.50766 z"
         style=""
         id="path11288" />
      <path
         d="m 16.824378,202.45377 0.178284,0 0,1.50766 -0.178284,0 0,-1.50766 z"
         style=""
         id="path11290" />
      <path
         d="m 17.867919,203.41592 q -0.216072,0 -0.2994,0.0494 -0.08333,0.0494 -0.08333,0.1686 0,0.095 0.06201,0.15115 0.06298,0.0552 0.170532,0.0552 0.148247,0 0.237389,-0.10465 0.09011,-0.10561 0.09011,-0.28002 l 0,-0.0397 -0.177315,0 z m 0.355598,-0.0736 0,0.61915 -0.178283,0 0,-0.16472 q -0.06104,0.0988 -0.152123,0.14631 -0.09108,0.0465 -0.222854,0.0465 -0.166657,0 -0.265488,-0.093 -0.09786,-0.094 -0.09786,-0.25096 0,-0.18312 0.122085,-0.27614 0.123055,-0.093 0.366257,-0.093 l 0.249985,0 0,-0.0174 q 0,-0.12306 -0.08139,-0.18991 -0.08042,-0.0678 -0.22673,-0.0678 -0.09302,0 -0.18119,0.0223 -0.08817,0.0223 -0.169564,0.0668 l 0,-0.16471 q 0.09786,-0.0378 0.189911,-0.0562 0.09205,-0.0194 0.179253,-0.0194 0.23545,0 0.351722,0.12209 0.116272,0.12208 0.116272,0.37013 z"
         style=""
         id="path11292" />
      <path
         d="m 18.771934,202.5681 0,0.30812 0.367225,0 0,0.13856 -0.367225,0 0,0.58911 q 0,0.13274 0.03585,0.17053 0.03682,0.0378 0.148247,0.0378 l 0.183128,0 0,0.14922 -0.183128,0 q -0.206383,0 -0.284866,-0.0765 -0.07848,-0.0775 -0.07848,-0.28099 l 0,-0.58911 -0.130806,0 0,-0.13856 0.130806,0 0,-0.30812 0.179253,0 z"
         style=""
         id="path11294" />
      <path
         d="m 19.795127,203.00121 q -0.143402,0 -0.22673,0.1124 -0.08333,0.11143 -0.08333,0.30618 0,0.19476 0.08236,0.30715 0.08333,0.11143 0.227699,0.11143 0.142433,0 0.225761,-0.11239 0.08333,-0.1124 0.08333,-0.30619 0,-0.19282 -0.08333,-0.30521 -0.08333,-0.11337 -0.225761,-0.11337 z m 0,-0.15115 q 0.232544,0 0.365288,0.15115 0.132744,0.15116 0.132744,0.41858 0,0.26646 -0.132744,0.41858 -0.132744,0.15115 -0.365288,0.15115 -0.233513,0 -0.366257,-0.15115 -0.131775,-0.15212 -0.131775,-0.41858 0,-0.26742 0.131775,-0.41858 0.132744,-0.15115 0.366257,-0.15115 z"
         style=""
         id="path11296" />
      <path
         d="m 21.216552,203.04288 q -0.03004,-0.0174 -0.06589,-0.0252 -0.03488,-0.009 -0.07751,-0.009 -0.151154,0 -0.232544,0.0988 -0.08042,0.0979 -0.08042,0.28196 l 0,0.57167 -0.179252,0 0,-1.08521 0.179252,0 0,0.1686 q 0.0562,-0.0988 0.146309,-0.14631 0.09011,-0.0484 0.218979,-0.0484 0.01841,0 0.0407,0.003 0.02229,0.002 0.04942,0.007 l 9.69e-4,0.18313 z"
         style=""
         id="path11298" />
    </g>
    <g
       style="font-style:normal;font-variant:normal;font-weight:normal;font-stretch:normal;font-size:2.64583349px;font-family:sans-serif;-inkscape-font-specification:sans-serif;fill:#ffffff;fill-opacity:1;stroke:none;stroke-width:0.30000001;stroke-miterlimit:4;stroke-dasharray:none;stroke-opacity:1"
       id="text13470"
       transform="translate(-1.0583334,0.52916669)">
      <path
         d="m 13.693609,245.32462 q 0.08397,0.0284 0.162781,0.12144 0.0801,0.093 0.160197,0.2558 l 0.264842,0.5271 -0.280345,0 -0.246755,-0.4948 q -0.0956,-0.19379 -0.186035,-0.25709 -0.08914,-0.0633 -0.244171,-0.0633 l -0.284221,0 0,0.8152 -0.260966,0 0,-1.92882 0.589112,0 q 0.330729,0 0.49351,0.13823 0.16278,0.13823 0.16278,0.41729 0,0.18216 -0.08527,0.3023 -0.08397,0.12015 -0.245463,0.16666 z m -0.653707,-0.81003 0,0.68472 0.328146,0 q 0.188619,0 0.28422,-0.0866 0.09689,-0.0879 0.09689,-0.25709 0,-0.16924 -0.09689,-0.25451 -0.0956,-0.0866 -0.28422,-0.0866 l -0.328146,0 z"
         id="path13479"
         inkscape:connector-curvature="0" />
      <path
         d="m 15.401516,244.47713 q -0.284221,0 -0.452169,0.21187 -0.166657,0.21187 -0.166657,0.57748 0,0.36432 0.166657,0.5762 0.167948,0.21187 0.452169,0.21187 0.28422,0 0.449585,-0.21187 0.166656,-0.21188 0.166656,-0.5762 0,-0.36561 -0.166656,-0.57748 -0.165365,-0.21187 -0.449585,-0.21187 z m 0,-0.21188 q 0.40566,0 0.648539,0.2726 0.242879,0.2713 0.242879,0.72863 0,0.45605 -0.242879,0.72864 -0.242879,0.2713 -0.648539,0.2713 -0.406952,0 -0.651124,-0.2713 -0.242879,-0.2713 -0.242879,-0.72864 0,-0.45733 0.242879,-0.72863 0.244172,-0.2726 0.651124,-0.2726 z"
         id="path13481"
         inkscape:connector-curvature="0" />
      <path
         d="m 16.529354,244.30014 0.26355,0 0.40566,1.63039 0.404368,-1.63039 0.293263,0 0.40566,1.63039 0.404369,-1.63039 0.264841,0 -0.484466,1.92882 -0.328146,0 -0.406952,-1.67432 -0.410827,1.67432 -0.328146,0 -0.483174,-1.92882 z"
         id="path13483"
         inkscape:connector-curvature="0" />
    </g>
    <g
       style="font-style:normal;font-variant:normal;font-weight:normal;font-stretch:normal;font-size:2.64583349px;font-family:sans-serif;-inkscape-font-specification:sans-serif;fill:#ffffff;fill-opacity:1;stroke:none;stroke-width:0.30000001;stroke-miterlimit:4;stroke-dasharray:none;stroke-opacity:1"
       id="text13474"
       transform="translate(-1.0583334,1.0583334)">
      <path
         d="m 11.895915,251.07644 0,0.27517 q -0.131774,-0.12273 -0.281636,-0.18345 -0.14857,-0.0607 -0.316518,-0.0607 -0.330729,0 -0.506429,0.20283 -0.1757,0.20154 -0.1757,0.58395 0,0.38111 0.1757,0.58394 0.1757,0.20154 0.506429,0.20154 0.167948,0 0.316518,-0.0607 0.149862,-0.0607 0.281636,-0.18345 l 0,0.27259 q -0.136942,0.093 -0.290679,0.13953 -0.152446,0.0465 -0.322978,0.0465 -0.437958,0 -0.689881,-0.26742 -0.251922,-0.26872 -0.251922,-0.73251 0,-0.46509 0.251922,-0.73252 0.251923,-0.26872 0.689881,-0.26872 0.173116,0 0.325561,0.0465 0.153738,0.0452 0.288096,0.13695 z"
         id="path13486"
         inkscape:connector-curvature="0" />
      <path
         d="m 13.084473,251.10486 q -0.28422,0 -0.452168,0.21187 -0.166657,0.21188 -0.166657,0.57749 0,0.36431 0.166657,0.57619 0.167948,0.21187 0.452168,0.21187 0.284221,0 0.449585,-0.21187 0.166657,-0.21188 0.166657,-0.57619 0,-0.36561 -0.166657,-0.57749 -0.165364,-0.21187 -0.449585,-0.21187 z m 0,-0.21188 q 0.40566,0 0.64854,0.2726 0.242879,0.2713 0.242879,0.72864 0,0.45604 -0.242879,0.72863 -0.24288,0.2713 -0.64854,0.2713 -0.406951,0 -0.651123,-0.2713 -0.242879,-0.2713 -0.242879,-0.72863 0,-0.45734 0.242879,-0.72864 0.244172,-0.2726 0.651123,-0.2726 z"
         id="path13488"
         inkscape:connector-curvature="0" />
      <path
         d="m 14.384136,250.92787 0.260966,0 0,1.70919 0.939219,0 0,0.21963 -1.200185,0 0,-1.92882 z"
         id="path13490"
         inkscape:connector-curvature="0" />
      <path
         d="m 15.700593,250.92787 0.262258,0 0,1.17176 q 0,0.31006 0.112396,0.447 0.112397,0.13565 0.364319,0.13565 0.250631,0 0.363027,-0.13565 0.112396,-0.13694 0.112396,-0.447 l 0,-1.17176 0.262258,0 0,1.20406 q 0,0.37724 -0.187327,0.56973 -0.186035,0.19249 -0.550354,0.19249 -0.365611,0 -0.552938,-0.19249 -0.186035,-0.19249 -0.186035,-0.56973 l 0,-1.20406 z"
         id="path13492"
         inkscape:connector-curvature="0" />
      <path
         d="m 17.670757,250.92787 0.388865,0 0.492219,1.31258 0.494801,-1.31258 0.388866,0 0,1.92882 -0.254507,0 0,-1.6937 -0.497386,1.32292 -0.262257,0 -0.497386,-1.32292 0,1.6937 -0.253215,0 0,-1.92882 z"
         id="path13494"
         inkscape:connector-curvature="0" />
      <path
         d="m 19.949688,250.92787 0.3514,0 0.855245,1.61359 0,-1.61359 0.253214,0 0,1.92882 -0.351399,0 -0.855245,-1.6136 0,1.6136 -0.253215,0 0,-1.92882 z"
         id="path13496"
         inkscape:connector-curvature="0" />
    </g>
  </g>
  <g
     inkscape:groupmode="layer"
     id="layer3"
     inkscape:label="widgets"
     style="display:none">
    <rect
       style="display:inline;opacity:1;fill:#ff0200;fill-opacity:1;stroke:none;stroke-width:1;stroke-miterlimit:4;stroke-dasharray:none;stroke-opacity:1"
       id="rect5091"
       width="5.6426449"
       height="5.5571499"
       x="22.004379"
       y="51.120346" />
    <rect
       style="display:inline;opacity:1;fill:#00ff00;fill-opacity:1;stroke:none;stroke-width:1;stroke-miterlimit:4;stroke-dasharray:none;stroke-opacity:1"
       id="rect5093"
       width="5.2151713"
       height="5.2151713"
       x="22.084158"
       y="45.009415" />
    <rect
       style="display:inline;opacity:1;fill:#0000ff;fill-opacity:1;stroke:none;stroke-width:1;stroke-miterlimit:4;stroke-dasharray:none;stroke-opacity:1"
       id="rect4969"
       width="5.3861609"
       height="5.3861609"
       x="22.38339"
       y="83.223175" />
    <rect
       style="display:inline;opacity:1;fill:#00ff00;fill-opacity:1;stroke:none;stroke-width:1;stroke-miterlimit:4;stroke-dasharray:none;stroke-opacity:1"
       id="rect4975"
       width="5.3546834"
       height="5.5909305"
       x="2.3290534"
       y="75.108711" />
    <rect
       style="display:inline;opacity:1;fill:#00ff00;fill-opacity:1;stroke:none;stroke-width:1;stroke-miterlimit:4;stroke-dasharray:none;stroke-opacity:1"
       id="rect4979"
       width="5.5571499"
       height="5.5571499"
       x="2.4403408"
       y="44.95977" />
    <rect
       style="display:inline;opacity:1;fill:#00ff00;fill-opacity:1;stroke:none;stroke-width:1;stroke-miterlimit:4;stroke-dasharray:none;stroke-opacity:1"
       id="rect4981"
       width="5.7281394"
       height="5.7281394"
       x="11.818956"
       y="44.461246" />
    <rect
       style="display:inline;opacity:1;fill:#00ff00;fill-opacity:1;stroke:none;stroke-width:1;stroke-miterlimit:4;stroke-dasharray:none;stroke-opacity:1"
       id="rect4983"
       width="5.8136339"
       height="5.8136339"
       x="21.57119"
       y="27.209215" />
    <rect
       style="display:inline;opacity:1;fill:#00ff00;fill-opacity:1;stroke:none;stroke-width:1;stroke-miterlimit:4;stroke-dasharray:none;stroke-opacity:1"
       id="rect4989"
       width="5.5571499"
       height="5.5571499"
       x="12.466015"
       y="27.43049" />
    <rect
       style="display:inline;opacity:1;fill:#00ff00;fill-opacity:1;stroke:none;stroke-width:1;stroke-miterlimit:4;stroke-dasharray:none;stroke-opacity:1"
       id="rect4991"
       width="5.3006663"
       height="5.3006663"
       x="2.3290534"
       y="17.041332" />
    <rect
       style="display:inline;opacity:1;fill:#00ff00;fill-opacity:1;stroke:none;stroke-width:1;stroke-miterlimit:4;stroke-dasharray:none;stroke-opacity:1"
       id="rect5041"
       width="5.7281394"
       height="5.7281394"
       x="2.7565265"
       y="27.470434" />
    <rect
       style="display:inline;opacity:1;fill:#ff0000;fill-opacity:1;stroke:none;stroke-width:1;stroke-miterlimit:4;stroke-dasharray:none;stroke-opacity:1"
       id="rect5043"
       width="5.7281394"
       height="5.7281394"
       x="2.7565265"
       y="34.256905" />
    <rect
       style="display:inline;opacity:1;fill:#ff0000;fill-opacity:1;stroke:none;stroke-width:1;stroke-miterlimit:4;stroke-dasharray:none;stroke-opacity:1"
       id="rect5045"
       width="5.0441828"
       height="5.3861609"
       x="12.722499"
       y="34.045975" />
    <rect
       style="display:inline;opacity:1;fill:#ff0000;fill-opacity:1;stroke:none;stroke-width:1;stroke-miterlimit:4;stroke-dasharray:none;stroke-opacity:1"
       id="rect5047"
       width="5.3861609"
       height="5.3861609"
       x="21.784927"
       y="34.081181" />
    <rect
       style="display:inline;opacity:1;fill:#ff0000;fill-opacity:1;stroke:none;stroke-width:1;stroke-miterlimit:4;stroke-dasharray:none;stroke-opacity:1"
       id="rect5049"
       width="5.4716558"
       height="5.4716558"
       x="12.20437"
       y="51.205566" />
    <rect
       style="display:inline;opacity:1;fill:#ff0000;fill-opacity:1;stroke:none;stroke-width:1;stroke-miterlimit:4;stroke-dasharray:none;stroke-opacity:1"
       id="rect5053"
       width="5.3006663"
       height="5.4716558"
       x="12.046068"
       y="77.941887" />
    <rect
       style="display:inline;opacity:1;fill:#00ff00;fill-opacity:1;stroke:none;stroke-width:1;stroke-miterlimit:4;stroke-dasharray:none;stroke-opacity:1"
       id="rect4923"
       width="5.6426449"
       height="5.4586453"
       x="2.3290534"
       y="83.479645" />
    <rect
       style="display:inline;opacity:1;fill:#ff0000;fill-opacity:1;stroke:none;stroke-width:1;stroke-miterlimit:4;stroke-dasharray:none;stroke-opacity:1"
       id="rect4945"
       width="5.2151713"
       height="5.2151713"
       x="10.15766"
       y="17.126818" />
    <rect
       style="display:inline;opacity:1;fill:#0000ff;fill-opacity:1;stroke:none;stroke-width:1;stroke-miterlimit:4;stroke-dasharray:none;stroke-opacity:1"
       id="rect4947"
       width="5.6302543"
       height="5.4716554"
       x="22.38339"
       y="74.894981" />
    <rect
       style="display:inline;opacity:1;fill:#00ff00;fill-opacity:1;stroke:none;stroke-width:1;stroke-miterlimit:4;stroke-dasharray:none;stroke-opacity:1"
       id="rect5332"
       width="5.4716558"
       height="5.4716558"
       x="2.2228601"
       y="10.316954" />
  </g>
</svg>
