<svg xmlns="http://www.w3.org/2000/svg" width="300" height="380" viewBox="0 0 79.375 100.542"><path d="M0-.001h79.375v100.542H0zm0 0" fill="#dcdcdc"/><rect rx="2.34" ry="2.34" y="43.181" x="2.117" height="23.056" width="10.837" fill="#ccc" paint-order="stroke markers fill"/><rect rx="2.34" ry="2.34" y="71.345" x="2.117" height="21.342" width="75.142" fill="#999" paint-order="stroke markers fill"/><g word-spacing="0" letter-spacing="0" font-weight="400" fill="#333"><g style="line-height:1.25"><path aria-label="♫" font-size="3.528" d="M50.14 96.87l-1.63.115v-2.06q0-.23.065-.333.063-.104.22-.147.153-.043.347-.002.224.047.357.19.133.146.133.33 0 .186-.158.286-.158.103-.407.05-.082-.018-.144-.044-.063-.027-.205-.11v1.345l1.22-.085v-1.554q0-.225.065-.337.065-.11.225-.151.16-.04.348 0 .224.047.355.19.129.14.129.325 0 .195-.156.294-.156.1-.407.047-.16-.034-.357-.16z" style="-inkscape-font-specification:'Arial, Normal';font-variant-ligatures:normal;font-variant-caps:normal;font-variant-numeric:normal;font-feature-settings:normal;text-align:start" font-family="Arial"/></g><g style="line-height:1.25"><path font-size="3.528" aria-label="IMPROMPT" style="-inkscape-font-specification:'Sniglet, Normal';font-variant-ligatures:normal;font-variant-caps:normal;font-variant-numeric:normal;font-feature-settings:normal;text-align:start" d="M32.122 96.698q-.007-.127-.01-.265 0-.137-.004-.296-.004-.159-.004-.342v-.417q0-.25.004-.426.003-.18.02-.293.018-.113.054-.166.038-.053.102-.053.032 0 .06.007.028.007.05.032.02.02.035.067.017.042.02.113.008.127.01.225l.008.198q.004.095.004.201v.536q0 .145-.004.286l-.007.286q-.003.144-.01.303-.004.085-.018.13-.014.047-.035.071-.021.025-.05.028-.028.007-.063.007-.064 0-.11-.042-.045-.046-.052-.19zm1.753-.381q-.162-.357-.29-.688-.122-.335-.21-.596-.082.437-.138.882-.053.444-.138.85-.02.092-.077.123-.057.028-.096.028-.063 0-.102-.038-.035-.04-.035-.1 0-.08.018-.246.02-.17.049-.381.032-.212.07-.445l.078-.448q.042-.218.078-.395.039-.176.067-.271.046-.163.187-.163.084 0 .144.085.06.081.127.254.07.17.166.43.099.262.254.614.152-.352.244-.61l.158-.43q.067-.173.127-.254.06-.085.149-.085.08 0 .123.042.042.039.063.12.025.099.06.275.036.173.075.388.042.212.08.445.04.233.07.444.033.212.05.385.02.17.02.261 0 .056-.037.092-.04.031-.1.031-.038 0-.094-.028-.057-.032-.078-.123-.042-.201-.077-.417l-.064-.433-.056-.441q-.028-.223-.06-.441-.046.14-.106.31-.06.17-.127.342-.067.17-.138.335-.07.166-.137.3-.025.046-.067.07-.04.022-.081.022-.046 0-.09-.021-.037-.025-.06-.074zm2.005.377q0 .085-.017.13-.014.047-.04.071-.02.025-.052.029-.028.007-.056.007-.096 0-.127-.043-.03-.042-.04-.19-.006-.078-.01-.226l-.007-.353q0-.204-.003-.451v-.522q0-.131.03-.265.033-.134.12-.243.093-.11.25-.177.164-.067.42-.067.18 0 .344.039.162.039.286.134.123.095.197.254.074.159.074.395 0 .247-.081.41-.081.162-.23.257-.147.095-.352.134-.205.039-.448.039h-.12q-.06 0-.134-.007zm1.016-1.485q0-.236-.134-.356-.13-.12-.437-.12-.117 0-.201.021-.081.018-.134.067-.053.046-.081.127-.025.081-.025.205v.275q0 .151.003.286.082.004.18.004h.19q.107 0 .22-.015.116-.014.208-.063.09-.053.15-.152.06-.102.06-.278zm1.452.84l-.103.007h-.222q-.06 0-.134-.007v.716q0 .113-.056.14-.053.026-.135.026-.042 0-.067-.007-.024-.004-.042-.018-.014-.018-.025-.05-.007-.031-.01-.088-.007-.063-.01-.183l-.008-.318q0-.194-.003-.469v-.652q0-.145.035-.279.035-.138.127-.24.092-.106.247-.17.159-.063.402-.063.173 0 .335.039.166.039.293.134.127.095.205.258.077.162.077.405 0 .325-.14.505-.138.176-.382.25l.473.65q.063.084.063.172 0 .07-.05.11-.045.042-.115.042-.078 0-.135-.042-.056-.046-.105-.117zm.553-.822q0-.244-.148-.36-.144-.12-.462-.12-.116 0-.194.021-.077.018-.123.07-.046.054-.067.149-.018.091-.018.236v.24q0 .138.003.25.082.005.18.005h.19q.1 0 .209-.011.113-.014.208-.064.095-.052.159-.148.063-.099.063-.268zm1.61 1.725q-.212 0-.4-.085-.182-.085-.32-.243-.138-.163-.22-.395-.076-.233-.076-.53 0-.278.067-.511.07-.233.204-.402.138-.17.339-.261.2-.096.466-.096.215 0 .409.078.194.078.339.233.148.155.232.388.085.233.085.543 0 .258-.07.49-.067.233-.21.41-.136.173-.348.278-.212.103-.497.103zm.007-.332q.194 0 .338-.077.145-.082.24-.212.096-.13.14-.3.047-.173.047-.353 0-.218-.06-.388-.056-.173-.155-.29-.1-.115-.23-.175-.13-.064-.278-.064-.176 0-.31.074-.13.074-.223.201-.088.127-.134.3-.045.17-.045.363 0 .209.052.381.053.17.142.29.09.12.215.187.123.063.26.063zm2.384-.303q-.163-.357-.29-.688-.123-.335-.211-.596-.081.437-.138.882-.053.444-.137.85-.022.092-.078.123-.057.028-.095.028-.064 0-.103-.038-.035-.04-.035-.1 0-.08.018-.246.02-.17.05-.381.03-.212.07-.445.038-.232.077-.448l.078-.395q.039-.176.067-.271.046-.163.187-.163.085 0 .145.085.06.081.127.254.07.17.165.43.1.262.254.614.152-.352.244-.61l.158-.43q.068-.173.127-.254.06-.085.149-.085.08 0 .123.042.042.039.064.12.024.099.06.275.035.173.074.388.042.212.08.445.04.233.07.444.033.212.05.385.02.17.02.261 0 .056-.037.092-.04.031-.1.031-.037 0-.094-.028-.056-.032-.078-.123-.042-.201-.077-.417l-.064-.433-.056-.441q-.028-.223-.06-.441-.046.14-.106.31-.06.17-.127.342-.067.17-.137.335-.071.166-.138.3-.025.046-.067.07-.04.022-.081.022-.046 0-.088-.021-.04-.025-.06-.074zm2.005.377q0 .085-.018.13-.014.047-.04.071-.02.025-.052.029-.028.007-.056.007-.096 0-.127-.043-.028-.042-.04-.19-.006-.078-.01-.226l-.007-.353q0-.204-.003-.451v-.522q0-.131.032-.265.03-.134.12-.243.09-.11.25-.177.162-.067.42-.067.18 0 .342.039.162.039.286.134.123.095.197.254.074.159.074.395 0 .247-.08.41-.082.162-.23.257-.148.095-.353.134-.205.039-.448.039h-.12q-.06 0-.134-.007zm1.016-1.485q0-.236-.135-.356-.13-.12-.437-.12-.116 0-.201.021-.081.018-.134.067-.053.046-.081.127-.025.081-.025.205v.275q0 .151.004.286.08.004.18.004h.19q.106 0 .219-.015.116-.014.208-.063.092-.053.152-.152.06-.102.06-.278zm1.974-.437q-.1.007-.212.01l-.243.007.007.18.007.166q.003.085.003.176.004.092.004.205v.307q0 .144-.004.293l-.007.292q-.003.149-.01.307-.004.085-.018.13-.01.047-.032.072-.02.024-.05.028-.027.007-.063.007-.063 0-.11-.043-.041-.045-.05-.19-.006-.127-.01-.268l-.002-.304q-.004-.162-.004-.349v-.758q.004-.145.01-.25h-.144q-.148 0-.254-.005-.102-.004-.17-.017-.066-.018-.098-.053-.028-.036-.028-.1 0-.03.007-.055.007-.029.03-.05.026-.025.068-.039.046-.014.117-.02l.12-.008.106-.007q.053-.004.109-.004h.13q.209 0 .392.004.187.004.395.014.085.007.13.021.047.011.07.032.026.021.03.05.007.028.007.063 0 .064-.046.106-.043.042-.187.05z" font-family="Sniglet"/></g></g><path d="M26.363 13.688h2.778" fill="none" stroke="#000" stroke-width=".132"/><g style="line-height:1.25;-inkscape-font-specification:'Sniglet, Normal';font-variant-ligatures:normal;font-variant-caps:normal;font-variant-numeric:normal;font-feature-settings:normal;text-align:start"><path word-spacing="0" letter-spacing="0" font-size="4.233" font-weight="400" aria-label="BIG-BUTTON-SEQ" style="-inkscape-font-specification:'Sniglet, Normal';font-variant-ligatures:normal;font-variant-caps:normal;font-variant-numeric:normal;font-feature-settings:normal;text-align:start" d="M26.083 6.403q-.237 0-.38-.038-.145-.038-.225-.105-.076-.072-.106-.174-.025-.102-.038-.229-.013-.148-.021-.389-.004-.246-.004-.508v-.267q.004-.144.004-.28l.008-.257q.004-.119.013-.204.013-.13.042-.237.03-.105.11-.182.085-.076.233-.114.153-.042.402-.042.568 0 .847.211.284.208.284.593 0 .199-.09.368-.084.17-.296.254.119.022.216.09.098.067.165.164.072.093.106.212.038.114.038.233 0 .152-.063.313-.064.157-.216.288-.152.131-.406.216-.25.085-.623.085zm.885-.914q0-.152-.072-.245-.068-.094-.178-.14-.11-.05-.245-.068-.136-.017-.271-.017h-.22q-.115 0-.212.004l-.01.182-.007.178v.23q0 .114.017.19t.063.123q.047.047.132.068.088.017.224.017.372 0 .576-.132.203-.13.203-.39zm-.783-1.71q-.14 0-.23.025-.083.021-.13.06-.042.038-.06.093-.012.055-.012.118v.593q.06.004.123.004h.127q.152 0 .296-.021.148-.022.267-.072.118-.051.19-.14.072-.089.072-.229 0-.19-.156-.309-.153-.122-.487-.122zm1.65 2.362q-.008-.152-.012-.317 0-.166-.004-.356-.004-.19-.004-.41v-.5q0-.3.004-.512.004-.216.025-.352.022-.135.064-.199.046-.063.123-.063.038 0 .072.008.034.008.059.038.025.025.042.08.02.051.026.136.008.152.012.27l.009.238q.004.114.004.241v.643q0 .174-.004.343l-.01.343q-.003.174-.011.364-.005.102-.022.157-.016.055-.042.085-.025.03-.06.034-.033.008-.075.008-.077 0-.132-.051-.055-.055-.063-.229zm2.262-2.735q.14 0 .288.026.148.025.27.076.124.047.204.118.08.072.08.166 0 .097-.05.148-.051.05-.127.05-.072 0-.136-.025l-.135-.055q-.076-.03-.182-.055t-.267-.025q-.178 0-.334.084-.153.08-.271.229-.12.144-.187.343-.067.199-.067.432 0 .283.072.49.072.208.186.344.118.135.262.203.149.063.297.063.24 0 .38-.067.145-.072.23-.182.004-.09.004-.212V5.29q0-.055-.01-.084-.007-.034-.041-.051-.034-.017-.102-.021-.063-.004-.173-.004-.136 0-.22-.034-.085-.038-.085-.157 0-.085.042-.135.047-.055.186-.064h.08q.06-.004.124-.004h.232q.127 0 .204.025.076.022.135.102.03.042.034.148.008.106.008.246v1.092q0 .114-.063.17-.06.054-.14.054-.097 0-.16-.05-.06-.047-.06-.153v-.165q-.11.127-.262.182-.15.055-.377.055-.233 0-.457-.093-.225-.093-.398-.275-.174-.186-.284-.462-.106-.279-.106-.647 0-.369.106-.656.11-.288.296-.487.187-.204.436-.31.25-.105.538-.105zm2.81 1.939l-.45.017q-.253.004-.6.004-.144 0-.245-.004-.102-.004-.165-.021-.064-.021-.094-.064-.03-.042-.03-.118 0-.038.01-.068.008-.034.037-.06.03-.025.08-.041.056-.022.14-.03l.11-.008q.05-.004.098-.004.047-.004.097-.004h.127q.229 0 .44.004.212 0 .44.013.102.008.158.025.055.013.084.038.03.026.034.06.009.033.009.076 0 .076-.055.127-.051.05-.225.059zm1.395 1.058q-.237 0-.381-.038-.144-.038-.225-.105-.076-.072-.105-.174-.026-.102-.038-.229-.013-.148-.022-.389-.004-.246-.004-.508v-.267q.004-.144.004-.28l.009-.257q.004-.119.013-.204.012-.13.042-.237.03-.105.11-.182.085-.076.233-.114.152-.042.402-.042.567 0 .847.211.283.208.283.593 0 .199-.09.368-.083.17-.295.254.119.022.216.09.097.067.165.164.072.093.106.212.038.114.038.233 0 .152-.064.313-.063.157-.215.288-.153.131-.407.216-.25.085-.622.085zm.885-.914q0-.152-.072-.245-.068-.094-.178-.14-.11-.05-.246-.068-.135-.017-.27-.017h-.22q-.115 0-.212.004l-.01.182-.007.178v.23q0 .114.016.19.017.076.064.123t.13.068q.09.017.226.017.372 0 .575-.132.204-.13.204-.39zm-.784-1.71q-.14 0-.228.025-.085.021-.131.06-.043.038-.06.093-.012.055-.012.118v.593q.059.004.122.004h.127q.153 0 .297-.021.148-.022.266-.072.119-.051.19-.14.073-.089.073-.229 0-.19-.157-.309-.152-.122-.487-.122zm2.608 2.696q-.482 0-.707-.262-.09-.102-.152-.258-.06-.161-.097-.415-.034-.254-.051-.627-.013-.376-.013-.914 0-.174.009-.284.008-.114.033-.177.026-.068.064-.094.042-.025.106-.025.123 0 .173.11.05.11.05.381 0 .093-.003.165v.148q0 .072-.004.161V4.6q0 .423.025.703.03.28.097.449.068.165.183.232.118.068.292.068.182 0 .3-.072.123-.076.195-.25.072-.177.102-.47.033-.292.033-.728 0-.19-.004-.326v-.245q0-.157.009-.263.012-.105.034-.165.025-.063.067-.089.043-.025.106-.025.064 0 .106.025.042.026.068.09.025.063.034.177.008.11.008.288 0 .745-.047 1.228-.046.478-.165.757-.118.276-.326.386-.203.105-.525.105zm3.214-2.645q-.118.008-.253.012l-.292.008.008.216.009.2q.004.1.004.21.004.111.004.246v.369q0 .173-.004.351l-.01.351q-.003.178-.011.369-.005.101-.022.156-.012.055-.038.085-.025.03-.06.034-.033.008-.075.008-.076 0-.131-.05-.051-.056-.06-.23-.008-.152-.012-.321 0-.17-.004-.364-.005-.195-.005-.42v-.909q.005-.174.013-.301h-.174q-.177 0-.304-.004-.123-.004-.204-.021-.08-.021-.118-.064-.034-.042-.034-.118 0-.038.009-.068.008-.034.038-.06.03-.029.08-.046.055-.017.14-.025l.144-.008.127-.008q.063-.004.13-.004h.158q.25 0 .47.004.224.004.474.017.1.008.156.025.055.013.085.038.03.026.034.06.008.033.008.076 0 .076-.055.127-.05.05-.224.059zm2.308 0q-.12.008-.254.012l-.293.008.009.216.008.2q.005.1.005.21.004.111.004.246v.369q0 .173-.004.351l-.01.351q-.003.178-.012.369-.004.101-.02.156-.013.055-.04.085-.024.03-.058.034-.034.008-.076.008-.076 0-.131-.05-.051-.056-.06-.23-.008-.152-.012-.321 0-.17-.005-.364-.004-.195-.004-.42v-.909q.004-.174.013-.301h-.174q-.178 0-.305-.004-.122-.004-.203-.021-.08-.021-.118-.064-.034-.042-.034-.118 0-.038.008-.068.009-.034.038-.06.03-.029.08-.046.056-.017.14-.025l.145-.008.127-.008q.063-.004.13-.004h.157q.25 0 .47.004.225.004.474.017.102.008.157.025.055.013.085.038.03.026.034.06.008.033.008.076 0 .076-.055.127-.05.05-.224.059zm1.579 2.616q-.254 0-.478-.102-.22-.101-.385-.292-.165-.195-.263-.474-.093-.28-.093-.635 0-.334.08-.614.085-.28.246-.482.165-.204.406-.314.242-.114.56-.114.257 0 .49.093.233.093.407.28.177.186.28.465.1.28.1.652 0 .31-.084.589-.08.279-.25.49-.165.208-.42.335-.253.123-.596.123zm.009-.398q.233 0 .406-.093.174-.098.288-.254.114-.157.17-.36.054-.207.054-.423 0-.263-.072-.466-.067-.207-.186-.347-.118-.14-.275-.212-.157-.076-.334-.076-.212 0-.373.089-.157.089-.267.241-.106.153-.16.36-.056.203-.056.436 0 .25.064.457.063.203.17.347.11.144.257.225.149.076.314.076zm3.444.157q-.136-.187-.26-.369l-.257-.406q-.135-.22-.313-.487-.174-.27-.42-.63v.57q0 .25-.004.466l-.008.407q-.004.19-.013.38-.004.102-.02.157-.014.055-.04.085-.024.03-.06.034-.028.008-.07.008-.076 0-.127-.05-.051-.056-.06-.23-.02-.465-.025-.93v-.97q0-.284.004-.445.009-.16.03-.24.025-.081.063-.103.043-.02.11-.02.068 0 .178.105.11.102.242.271.13.17.279.39.152.22.3.452.149.233.284.462l.254.415q-.004-.2-.004-.436v-.534q0-.334.004-.55.004-.22.02-.347.023-.127.065-.178.042-.05.118-.05.072 0 .127.046.055.046.064.216l.013.27.008.238q.004.114.004.241v.644q0 .173-.004.342l-.008.343q-.005.174-.013.364-.004.102-.021.157-.013.055-.038.085-.026.03-.06.034-.03.008-.072.008-.072 0-.122-.043-.051-.042-.15-.173zm2.408-.86l-.45.017q-.253.004-.6.004-.144 0-.246-.004-.101-.004-.165-.021-.063-.021-.093-.064-.03-.042-.03-.118 0-.038.009-.068.008-.034.038-.06.03-.025.08-.041.055-.022.14-.03l.11-.008q.05-.004.098-.004.046-.004.097-.004h.127q.229 0 .44.004.212 0 .44.013.102.008.157.025.055.013.085.038.03.026.034.06.008.033.008.076 0 .076-.055.127-.05.05-.224.059zm1.652-1.93q.12 0 .272.021.156.017.292.068.135.046.228.127.093.076.093.19 0 .068-.038.114-.038.047-.122.047-.064 0-.132-.025-.063-.026-.148-.051-.08-.03-.19-.055-.106-.026-.25-.026-.28 0-.415.102-.131.097-.131.271 0 .119.06.199.058.08.156.14.1.055.224.093.127.038.258.072.148.038.292.093.149.055.263.144.114.089.182.224.072.136.072.343 0 .216-.08.39-.081.169-.22.292-.14.118-.335.186-.195.063-.423.063-.127 0-.297-.025-.17-.021-.322-.076-.152-.06-.258-.153-.106-.097-.106-.237 0-.084.043-.135.046-.05.135-.05.072 0 .119.029.046.025.08.059.127.11.288.148.16.038.33.038.098 0 .203-.012.11-.017.2-.064.088-.047.148-.131.059-.09.059-.237 0-.136-.055-.22-.051-.09-.14-.149-.09-.059-.212-.097-.118-.038-.258-.076-.156-.042-.31-.093-.151-.051-.27-.136-.12-.089-.194-.22-.072-.135-.072-.343 0-.207.076-.364.076-.156.207-.262.13-.106.31-.161.18-.055.389-.055zm1.457 2.345q-.008-.135-.017-.368-.008-.233-.008-.479v-.287l.008-.31q.009-.313.038-.49.034-.178.127-.267.098-.09.27-.11.175-.022.463-.022h.089q.088 0 .21.004.124 0 .255.004l.225.008q.093.008.148.026.059.013.089.038.03.021.038.055.008.03.008.068 0 .097-.055.144-.055.042-.224.055-.085.008-.25.012h-.33q-.17 0-.305.004h-.17q-.11.004-.156.051-.042.042-.042.208l.004.186q.008.144.008.406h.352q.224 0 .364.008.144.004.22.026.08.02.11.067t.03.123q0 .038-.01.072-.003.03-.033.055-.03.021-.084.038-.055.013-.157.021-.123.008-.233.013h-.567v.517l.008.143q.005.068.017.115.017.046.055.076.043.03.119.042.08.013.212.013h.91q.148 0 .186.055.038.055.038.148 0 .076-.034.119-.034.038-.165.055-.127.02-.385.025-.254.004-.703.004-.19 0-.313-.034t-.2-.114q-.075-.08-.113-.208-.034-.13-.047-.317zm3.35.686q-.254 0-.478-.102-.22-.101-.386-.292-.165-.195-.262-.474-.093-.28-.093-.635 0-.334.08-.614.085-.28.246-.482.165-.204.406-.314.24-.114.559-.114.258 0 .49.093.234.093.407.28.178.186.28.465.1.28.1.652 0 .305-.08.576-.075.27-.236.482l.24.2q.048.038.086.097.042.055.042.127 0 .085-.068.135-.067.051-.16.051-.12 0-.25-.118l-.22-.19q-.144.084-.318.13-.173.047-.385.047zm.008-.398q.233 0 .407-.093.173-.098.288-.254.114-.157.169-.36.055-.207.055-.423 0-.263-.072-.466-.068-.207-.186-.347-.12-.14-.275-.212-.157-.076-.335-.076-.211 0-.372.089-.157.089-.267.241-.106.153-.16.36-.056.203-.056.436 0 .25.064.457.063.203.169.347.11.144.258.225.148.076.313.076z" font-family="Sniglet"/></g><g style="line-height:1.25"><path word-spacing="0" letter-spacing="0" font-size="2.822" font-weight="400" aria-label="RND" style="-inkscape-font-specification:'Sniglet, Normal';font-variant-ligatures:normal;font-variant-caps:normal;font-variant-numeric:normal;font-feature-settings:normal;text-align:start" d="M5.894 21.19l-.082.006h-.177q-.048 0-.108-.006v.573q0 .09-.045.113-.042.02-.107.02-.034 0-.054-.006-.02-.003-.034-.014-.01-.014-.02-.04-.005-.025-.008-.07-.005-.05-.008-.147l-.006-.254q0-.155-.003-.375v-.522q0-.116.028-.223.03-.11.102-.192.073-.085.198-.136.127-.05.321-.05.14 0 .268.03.133.031.235.108.101.076.163.206t.062.324q0 .26-.112.404-.11.141-.305.2l.378.52q.05.067.05.138 0 .056-.039.087-.036.034-.093.034-.062 0-.107-.034-.045-.036-.085-.093zm.443-.657q0-.195-.118-.288-.116-.096-.37-.096-.093 0-.155.017-.062.014-.099.056-.037.042-.054.12-.014.072-.014.188v.192q0 .11.003.2.065.003.144.003h.152q.08 0 .167-.008.09-.01.166-.05.077-.043.127-.12.051-.078.051-.214zm1.65 1.22q-.09-.125-.173-.247l-.172-.27q-.09-.147-.21-.325-.115-.18-.279-.42v.38q0 .167-.002.31l-.006.272q-.003.127-.009.254-.002.067-.014.104-.008.037-.025.057-.017.02-.04.022-.02.006-.048.006-.05 0-.084-.034-.034-.036-.04-.152-.014-.31-.017-.62v-.647q0-.19.003-.297.006-.107.02-.16.017-.054.042-.068.028-.014.074-.014.045 0 .118.07.074.068.161.181.088.113.186.26.102.146.2.302.1.155.19.307l.17.277q-.004-.133-.004-.29v-.357q0-.222.003-.366.003-.147.014-.232.014-.085.043-.118.028-.034.08-.034.047 0 .083.03.037.032.043.145l.008.18.006.158q.002.077.002.161v.43q0 .115-.002.228l-.006.228-.008.243q-.003.068-.015.105-.008.036-.025.056-.017.02-.04.023-.02.006-.047.006-.048 0-.082-.029-.034-.028-.099-.115zm1.24-1.863q.291 0 .466.087.175.087.268.231.093.144.121.328.032.183.032.372 0 .206-.054.39-.05.183-.16.321-.108.136-.278.218-.169.08-.403.08-.186 0-.3-.03-.11-.025-.17-.079-.06-.053-.08-.135-.02-.082-.02-.192v-1.06q0-.122.02-.22.022-.1.084-.168.062-.07.175-.107.116-.037.3-.037zm.012 1.743q.175 0 .287-.062.116-.065.184-.169.068-.104.093-.237.028-.133.028-.27 0-.128-.02-.255-.02-.13-.08-.234-.063-.105-.179-.17-.116-.065-.308-.065-.175 0-.242.051-.068.051-.068.156v1.08q0 .088.062.133.065.042.243.042z" font-family="Sniglet"/></g><g style="line-height:1.25"><path word-spacing="0" letter-spacing="0" font-size="2.822" font-weight="400" aria-label="CHAN" style="-inkscape-font-specification:'Sniglet, Normal';font-variant-ligatures:normal;font-variant-caps:normal;font-variant-numeric:normal;font-feature-settings:normal;text-align:start" d="M17.467 19.894q.093 0 .187.017.096.014.172.048.076.031.124.08.05.044.05.107 0 .064-.033.098-.034.034-.085.034-.048 0-.084-.014l-.085-.037q-.045-.02-.11-.033-.065-.017-.172-.017-.108 0-.206.056-.096.054-.17.152-.07.096-.113.23-.042.132-.042.287 0 .192.048.33.05.138.13.23.08.086.178.131.101.043.203.043.121 0 .203-.026.082-.025.138-.056.06-.03.102-.057.042-.025.082-.025.048 0 .076.028.028.026.028.093 0 .057-.045.116-.042.057-.127.104-.082.046-.197.077-.116.028-.26.028-.158 0-.316-.062-.155-.062-.28-.184-.12-.124-.197-.307-.076-.187-.076-.432 0-.246.067-.438.07-.19.19-.324.12-.136.28-.206.16-.07.34-.07zm1.986 1.824l-.01-.32q-.004-.169-.004-.389l-.192.006h-.44q-.105 0-.186-.003l-.006.344q-.003.164-.01.36-.004.067-.015.103-.009.037-.026.057-.017.02-.04.022-.02.006-.047.006-.05 0-.085-.034-.034-.036-.04-.152-.005-.102-.008-.212 0-.11-.003-.237t-.003-.273v-.333q0-.2.003-.342.003-.144.014-.234.014-.09.043-.133.028-.042.08-.042.047 0 .083.03.037.032.043.145l.008.175.006.152q.003.074.003.153v.175q.211-.008.414-.008.1 0 .198.003l.206.008v-.082q0-.2.003-.342.003-.144.014-.234.014-.09.042-.133.028-.042.08-.042.047 0 .084.031.037.031.042.144l.01.18.004.16q.003.075.003.16v.43q0 .114-.003.227l-.005.23q-.003.114-.009.241-.003.068-.014.105-.008.037-.025.056-.017.02-.04.023-.02.006-.048.006-.05 0-.084-.034-.034-.037-.04-.152zm1.788.031q-.029-.068-.062-.156l-.068-.189-.178.006h-.41q-.098 0-.18-.003l-.065.187q-.03.087-.059.155-.056.144-.164.144-.04 0-.076-.026-.034-.025-.034-.073 0-.048.017-.124.017-.08.042-.167l.06-.183q.03-.096.06-.178.027-.09.078-.229l.113-.293.118-.3q.06-.149.108-.259.011-.028.028-.062.017-.037.04-.068.025-.03.053-.053.031-.023.068-.023.036 0 .068.025.03.023.053.057.026.034.042.07.02.037.032.065.045.113.101.26.06.147.116.296.06.15.11.285.05.136.082.23.025.081.056.174.034.093.062.183.028.09.045.17.02.076.02.124t-.037.073q-.033.026-.073.026-.05 0-.093-.034-.042-.037-.073-.11zm-.5-.62l.136.002q.067 0 .135.003l-.068-.198-.065-.189-.053-.166-.04-.139q-.01-.036-.025-.06-.014-.022-.037-.022-.022 0-.037.026-.014.022-.025.06-.034.115-.096.301l-.127.387q.076-.003.153-.003.076-.003.15-.003zm2.094.631q-.09-.124-.172-.246l-.172-.27q-.09-.147-.21-.325-.115-.18-.279-.42v.38q0 .167-.002.31l-.006.272q-.003.127-.009.254-.002.067-.014.104-.008.037-.025.057-.017.02-.04.022-.02.006-.048.006-.05 0-.084-.034-.034-.036-.04-.152-.014-.31-.017-.62v-.647q0-.19.003-.297.006-.107.02-.16.017-.054.042-.068.028-.014.074-.014.045 0 .118.07.073.068.161.18.087.114.186.26.102.147.2.302.1.156.19.308l.17.277q-.004-.133-.004-.29v-.357q0-.223.003-.366.003-.147.014-.232.014-.085.042-.118.03-.034.08-.034.047 0 .084.03.037.032.042.145l.01.18.005.158q.002.076.002.161v.43q0 .115-.002.228l-.006.228q-.003.116-.009.243-.002.068-.014.104-.008.037-.025.057-.017.02-.04.023-.02.006-.048.006-.047 0-.08-.029-.035-.028-.1-.115z" font-family="Sniglet"/></g><g style="line-height:1.25"><path word-spacing="0" letter-spacing="0" font-size="2.822" font-weight="400" aria-label="LEN" style="-inkscape-font-specification:'Sniglet, Normal';font-variant-ligatures:normal;font-variant-caps:normal;font-variant-numeric:normal;font-feature-settings:normal;text-align:start" d="M46.454 21.013v.16q0 .068-.004.13l-.002.124-.006.139.305-.037.172-.023q.065-.008.099-.01.036-.004.084-.004.125 0 .125.12 0 .049-.051.083-.048.034-.124.06-.074.022-.167.04-.09.013-.178.019-.084.008-.155.01l-.096.004q-.101 0-.158-.014-.056-.011-.085-.073-.028-.065-.036-.195-.006-.13-.006-.367v-.406q0-.178.003-.32.003-.14.003-.25.003-.11.008-.2.006-.117.04-.15.034-.037.084-.037.029 0 .048.006.023.003.04.023t.025.056q.012.037.014.104.012.249.015.49.002.244.002.518zm1.013.358q-.006-.09-.012-.246-.005-.155-.005-.318v-.192l.005-.206q.006-.21.026-.328.022-.118.085-.178.064-.06.18-.073.116-.014.308-.014h.059q.06 0 .14.003.083 0 .17.003l.15.006q.062.006.099.017.04.008.06.025.019.014.025.037.005.02.005.045 0 .065-.037.096-.036.028-.15.037-.056.006-.166.008h-.22q-.113 0-.203.003h-.113q-.073.003-.104.034-.03.028-.03.138l.004.124q.006.096.006.27h.234q.15 0 .243.007.096.003.147.017.053.014.073.045.02.03.02.082 0 .026-.006.048-.003.02-.022.037-.02.014-.057.025-.037.008-.104.014-.082.006-.156.008h-.378v.345l.006.096q.003.045.01.076.012.03.038.05.028.02.079.029.053.008.14.008h.608q.099 0 .124.037.025.036.025.098 0 .05-.022.08-.023.025-.11.036-.085.014-.257.017-.17.003-.47.003-.126 0-.207-.023-.082-.022-.133-.076-.05-.053-.076-.138-.023-.088-.031-.212zm2.677.296q-.09-.124-.172-.245-.08-.124-.172-.271-.09-.147-.21-.325-.115-.18-.28-.42v.38l-.001.31-.006.272q-.003.127-.01.254-.001.068-.013.105-.008.036-.025.056-.017.02-.04.023-.02.006-.048.006-.05 0-.084-.034-.034-.037-.04-.153-.014-.31-.017-.62v-.647q0-.19.003-.296.006-.107.02-.161.017-.054.042-.068.028-.014.074-.014.045 0 .118.07.074.068.16.18.088.114.187.26.102.148.2.303.1.155.19.307l.17.277q-.004-.133-.004-.29v-.356q0-.223.003-.367.003-.147.014-.232.014-.084.042-.118.029-.034.08-.034.047 0 .084.03.037.032.043.145l.008.18.006.159q.002.076.002.16v.429q0 .116-.002.23l-.006.228-.008.242q-.003.068-.015.105-.008.037-.025.056-.017.02-.04.023-.02.006-.047.006-.048 0-.082-.028-.034-.03-.1-.116z" font-family="Sniglet"/></g><g style="line-height:1.25"><path word-spacing="0" letter-spacing="0" font-size="2.822" font-weight="400" aria-label="BANK" style="-inkscape-font-specification:'Sniglet, Normal';font-variant-ligatures:normal;font-variant-caps:normal;font-variant-numeric:normal;font-feature-settings:normal;text-align:start" d="M31.582 27.353q-.158 0-.254-.025-.096-.026-.15-.07-.05-.049-.07-.116-.017-.068-.026-.153-.008-.099-.014-.26-.002-.163-.002-.338v-.178l.002-.186.006-.172q.003-.08.008-.136.01-.087.03-.158.02-.07.072-.12.056-.052.155-.077.102-.029.268-.029.38 0 .565.141.19.14.19.396 0 .132-.06.245-.057.113-.198.17.08.014.144.06.065.044.11.11.048.061.07.14.026.076.026.155 0 .102-.042.21-.043.103-.144.191-.102.087-.27.144-.168.056-.416.056zm.59-.61q0-.1-.048-.163-.045-.062-.119-.093-.073-.034-.163-.045-.09-.012-.18-.012h-.148q-.076 0-.14.003l-.007.122-.005.118v.153q0 .076.011.127.011.05.043.082.03.03.087.045.06.011.15.011.248 0 .383-.087.136-.088.136-.26zm-.522-1.14q-.093 0-.153.017-.056.014-.087.04-.028.025-.04.062-.008.037-.008.08v.394q.04.003.082.003h.084q.102 0 .198-.014.1-.014.178-.048.08-.034.127-.093.048-.06.048-.152 0-.127-.105-.207-.1-.08-.324-.08zm2.241 1.606q-.029-.067-.062-.155l-.068-.189-.178.006h-.41q-.098 0-.18-.003l-.065.186q-.03.088-.059.156-.056.143-.164.143-.04 0-.076-.025-.034-.025-.034-.073 0-.048.017-.125.017-.079.042-.166l.06-.183q.03-.096.06-.178.027-.09.078-.229l.113-.293.118-.3q.06-.15.108-.26.011-.027.028-.06.017-.038.04-.069.025-.03.053-.054.031-.022.068-.022.036 0 .068.025.03.023.053.057.026.034.042.07.02.037.031.065.046.113.102.26.06.147.116.296.06.15.11.285.05.136.082.23.025.081.056.174.034.093.062.183.028.09.045.17.02.076.02.124t-.037.073q-.033.025-.073.025-.05 0-.093-.033-.042-.037-.073-.11zm-.5-.62l.136.002q.067 0 .135.003l-.068-.197-.065-.19-.053-.166-.04-.138q-.01-.037-.025-.06-.014-.022-.037-.022-.022 0-.037.026-.014.022-.025.06-.034.115-.096.301l-.127.386q.076-.003.153-.003.076-.003.15-.003zm2.094.632q-.09-.125-.172-.246l-.172-.27q-.09-.148-.21-.325-.115-.18-.279-.42v.38q0 .167-.003.31l-.005.271q-.003.127-.009.254-.002.068-.014.105-.008.037-.025.056-.017.02-.04.023-.02.006-.048.006-.05 0-.084-.034-.034-.037-.04-.152-.014-.31-.017-.62v-.647q0-.19.003-.297.006-.107.02-.16.017-.054.042-.068.028-.014.074-.014.045 0 .118.07.073.068.161.18.087.114.186.26.102.147.2.302.1.156.19.308l.17.277q-.004-.133-.004-.29v-.357q0-.223.003-.367.003-.146.014-.23.014-.086.042-.12.03-.033.08-.033.047 0 .084.03.037.032.042.144l.01.181.005.158q.002.076.002.161v.43q0 .115-.002.228l-.006.228q-.003.116-.009.243-.002.068-.014.104-.008.037-.025.057-.017.02-.04.022-.02.006-.048.006-.047 0-.08-.028-.035-.028-.1-.116zm.677-.043q-.006-.1-.009-.21 0-.11-.003-.238-.002-.127-.002-.274v-.333q0-.2.002-.342.003-.144.015-.234.014-.09.042-.133.028-.042.08-.042.047 0 .084.031.036.031.042.144.006.102.008.18l.006.16q.003.075.003.16v.334l.604-.692q.118-.135.183-.178.065-.045.113-.045.057 0 .082.028.028.03.028.071 0 .017-.005.034-.006.017-.026.048-.017.028-.053.073-.037.043-.1.11l-.39.426.617.881q.022.031.033.065.015.034.015.065 0 .053-.03.087-.03.037-.103.037-.06 0-.107-.034-.045-.03-.085-.093l-.536-.793-.243.265-.006.215q-.002.107-.008.226-.003.067-.014.104-.009.037-.026.056-.016.02-.039.023-.02.006-.048.006-.05 0-.085-.034-.034-.037-.04-.152z" font-family="Sniglet"/></g><g style="line-height:1.25"><path word-spacing="0" letter-spacing="0" font-size="2.822" font-weight="400" aria-label="CLEAR" style="-inkscape-font-specification:'Sniglet, Normal';font-variant-ligatures:normal;font-variant-caps:normal;font-variant-numeric:normal;font-feature-settings:normal;text-align:start" d="M68.851 45.14q.092 0 .185.017.096.014.173.048.076.03.124.08.05.044.05.106 0 .065-.033.1-.034.033-.085.033-.048 0-.085-.015l-.084-.036q-.045-.02-.11-.034-.065-.017-.172-.017-.108 0-.206.056-.096.054-.17.153-.07.096-.113.228-.042.133-.042.288 0 .192.048.33.05.14.13.23.08.086.178.132.101.042.203.042.121 0 .203-.025.082-.026.138-.057.06-.03.102-.056.042-.026.082-.026.048 0 .076.028.028.026.028.094 0 .056-.045.115-.042.057-.127.105-.082.045-.198.076-.115.028-.26.028-.157 0-.315-.062-.156-.062-.28-.183-.12-.125-.197-.308-.077-.186-.077-.432 0-.245.068-.437.07-.192.19-.325.12-.135.28-.206.16-.07.34-.07zm1.152 1.21v.161q0 .068-.002.13 0 .062-.003.124l-.006.14.305-.038.172-.023.1-.01q.036-.004.084-.004.124 0 .124.121 0 .048-.05.082-.049.034-.125.06-.074.022-.167.04-.09.013-.177.02-.085.007-.156.01l-.096.003q-.1 0-.158-.014-.056-.01-.084-.073-.029-.065-.037-.195-.006-.13-.006-.367v-.406q0-.178.003-.32.003-.14.003-.25.003-.11.008-.2.006-.117.04-.15.034-.037.085-.037.028 0 .048.006.022.003.04.022.016.02.024.057.012.037.015.104.01.25.014.491.003.243.003.517zm1.014.36q-.006-.09-.01-.247-.007-.155-.007-.319v-.192l.006-.206q.005-.208.025-.327.023-.118.085-.178.065-.059.18-.073.116-.014.308-.014h.06q.06 0 .14.003.082 0 .17.003l.15.006q.061.006.098.017.04.008.06.025.02.014.025.037.005.02.005.045 0 .065-.036.096-.037.028-.15.037-.056.006-.166.008h-.22q-.113 0-.204.003h-.113q-.073.003-.104.034-.028.028-.028.138l.002.124q.006.096.006.271h.234q.15 0 .243.006.096.003.147.017.053.014.073.045.02.031.02.082 0 .025-.006.048-.002.02-.022.037-.02.014-.057.025-.036.008-.104.014-.082.006-.155.008h-.379v.344l.006.096q.003.046.011.077.012.03.037.05.028.02.08.03.053.007.14.007h.607q.1 0 .124.036.026.037.026.1 0 .05-.023.078-.023.025-.11.037-.085.014-.257.017-.17.003-.468.003-.127 0-.21-.023-.08-.023-.132-.076-.05-.054-.076-.138-.023-.088-.03-.212zm2.742.283l-.062-.154q-.03-.09-.068-.19l-.178.007h-.409q-.099 0-.18-.003l-.065.186q-.03.087-.06.155-.056.144-.163.144-.04 0-.077-.025-.033-.026-.033-.074t.017-.124q.016-.079.042-.166.028-.09.06-.184.03-.096.058-.178.03-.09.08-.228l.112-.294.12-.299q.06-.15.106-.26.011-.028.028-.062.017-.036.04-.067.025-.03.053-.054.031-.023.068-.023.037 0 .068.026.03.022.054.056.025.034.042.07.02.037.03.066.046.112.102.26.06.146.116.296.06.15.11.285.051.135.082.228l.057.175q.033.093.062.184.028.09.045.17.02.075.02.123t-.037.074q-.034.025-.074.025-.05 0-.093-.034-.042-.037-.073-.11zm-.5-.62q.068 0 .136.003.068 0 .135.003l-.067-.198-.065-.189q-.028-.09-.054-.166-.022-.08-.04-.138-.01-.037-.025-.06-.014-.022-.036-.022-.023 0-.037.025-.014.023-.026.06-.033.115-.096.301-.059.184-.127.387.077-.003.153-.003.076-.003.15-.003zm1.63.07l-.083.007h-.178q-.048 0-.107-.006v.572q0 .09-.045.113-.043.02-.108.02-.034 0-.053-.006-.02-.003-.034-.014-.01-.014-.02-.04-.006-.025-.008-.07-.006-.05-.009-.147l-.006-.254-.002-.375v-.522q0-.116.028-.223.028-.11.101-.192.074-.085.198-.136.127-.05.322-.05.138 0 .268.03.133.032.234.108.102.076.164.206.062.13.062.324 0 .26-.113.404-.11.141-.305.2l.378.52q.051.067.051.138 0 .056-.04.087-.036.034-.092.034-.063 0-.108-.034-.045-.036-.084-.093zm.442-.657q0-.195-.119-.288-.116-.096-.37-.096-.093 0-.155.017-.062.014-.099.056-.036.043-.053.12-.014.072-.014.188v.192q0 .11.002.2.065.003.144.003h.153q.08 0 .166-.008.09-.01.167-.05.076-.043.127-.119.05-.079.05-.215z" font-family="Sniglet"/></g><g style="line-height:1.25"><path word-spacing="0" letter-spacing="0" font-size="2.822" font-weight="400" aria-label="DEL" style="-inkscape-font-specification:'Sniglet, Normal';font-variant-ligatures:normal;font-variant-caps:normal;font-variant-numeric:normal;font-feature-settings:normal;text-align:start" d="M46.595 33.112q.29 0 .465.088.175.087.268.231.094.144.122.327.03.184.03.373 0 .206-.053.39-.05.183-.16.321-.108.136-.277.217-.17.08-.404.08-.186 0-.3-.029-.11-.025-.171-.079-.06-.053-.08-.135-.02-.082-.02-.192v-1.06q0-.123.02-.22.023-.1.086-.168.062-.07.175-.107.115-.037.299-.037zm.01 1.744q.176 0 .289-.062.116-.065.183-.17.068-.104.093-.236.029-.133.029-.27 0-.128-.02-.255-.02-.13-.082-.235-.062-.104-.178-.169-.115-.065-.307-.065-.175 0-.243.051-.068.05-.068.155v1.081q0 .088.062.133.065.042.243.042zm1.175-.178q-.005-.09-.01-.245-.006-.155-.006-.32v-.19l.005-.207q.006-.209.026-.327.022-.119.084-.178.065-.06.18-.074.117-.014.308-.014h.06q.059 0 .14.003.083 0 .17.003l.15.006q.062.006.099.017.039.008.059.026.02.014.025.036.006.02.006.046 0 .064-.037.095-.037.03-.15.037-.056.006-.166.008h-.22q-.113 0-.203.003h-.113q-.074.003-.105.034-.028.028-.028.138l.003.124q.006.096.006.271h.234q.15 0 .242.006.096.003.147.017.054.014.074.046.02.03.02.081 0 .026-.006.048-.003.02-.023.037-.02.014-.056.026-.037.008-.105.014-.082.006-.155.008h-.378v.343l.006.097q.002.045.01.076.012.031.038.05.028.02.079.03.053.007.14.007h.607q.1 0 .125.037.025.037.025.1 0 .05-.023.078-.022.025-.11.036-.084.014-.256.017-.17.003-.47.003-.126 0-.208-.022-.082-.023-.132-.077-.051-.053-.077-.138-.022-.087-.03-.212zm1.842-.358v.16q0 .07-.003.13 0 .063-.002.125l-.006.138q.195-.022.305-.037l.172-.022.099-.01q.036-.004.084-.004.125 0 .125.12 0 .05-.051.083-.048.034-.124.06-.074.022-.167.04-.09.013-.178.02l-.155.01-.096.003q-.102 0-.158-.015-.056-.01-.085-.073-.028-.065-.036-.195-.006-.13-.006-.367v-.406q0-.178.003-.319.003-.14.003-.25.002-.11.008-.2.006-.117.04-.15.034-.038.084-.038.029 0 .048.006.023.003.04.023t.025.056q.012.037.014.105.012.248.014.49.003.243.003.517z" font-family="Sniglet"/></g><g style="line-height:1.25"><path word-spacing="0" letter-spacing="0" font-size="2.822" font-weight="400" aria-label="FILL" style="-inkscape-font-specification:'Sniglet, Normal';font-variant-ligatures:normal;font-variant-caps:normal;font-variant-numeric:normal;font-feature-settings:normal;text-align:start" d="M58.263 45.831q0-.237.016-.37.017-.136.07-.203.054-.068.153-.082.099-.017.26-.017h.163q.074 0 .14.003.072 0 .14.003l.152.006q.068.006.105.017.036.008.056.025.02.017.023.04.005.022.005.05 0 .051-.036.085-.034.034-.15.04l-.138.006-.15.006q-.082 0-.186.003h-.251q-.051 0-.07.036-.02.034-.02.088v.085q.002.042.002.093.003.05.003.115.003.063.003.147.104 0 .18.003.08 0 .136.003.06 0 .104.003l.088.006q.115.006.15.04.036.034.036.084 0 .03-.006.051-.002.023-.022.04-.02.017-.057.028-.036.011-.104.017l-.088.006q-.04 0-.095.003h-.322q-.003.17-.003.347.003.175-.01.361-.004.11-.038.136-.031.022-.096.022-.062 0-.093-.025-.031-.028-.037-.13-.005-.09-.008-.198 0-.11-.003-.248-.003-.14-.003-.316v-.406zm1.563 1.137q-.006-.102-.01-.212l-.001-.237q-.003-.127-.003-.273v-.333q0-.2.003-.342.002-.144.016-.234.015-.09.043-.133.03-.042.082-.042.025 0 .048.006.022.006.04.025.016.017.027.054.014.034.017.09l.009.18.005.16q.003.075.003.16v.43q0 .114-.003.227l-.005.23q-.003.115-.01.242-.002.067-.013.104-.011.037-.028.056-.017.02-.04.023-.022.006-.05.006-.051 0-.088-.034-.037-.037-.042-.152zm.929-.612v.16q0 .068-.003.13 0 .062-.003.124l-.005.14.304-.038.173-.023q.064-.008.098-.01.037-.004.085-.004.124 0 .124.122 0 .048-.05.081-.05.034-.125.06-.073.022-.166.04-.09.013-.178.02-.085.007-.155.01l-.096.003q-.102 0-.158-.014-.057-.01-.085-.073-.028-.065-.037-.195-.005-.13-.005-.367v-.406q0-.178.002-.32.003-.14.003-.25.003-.11.009-.2.005-.116.04-.15.033-.037.084-.037.028 0 .048.006.023.003.04.023.016.02.025.056.01.037.014.104.01.25.014.491.003.243.003.517zm1.278 0v.16q0 .068-.002.13 0 .062-.003.124l-.006.14.305-.038.172-.023q.065-.008.1-.01.036-.004.084-.004.124 0 .124.122 0 .048-.05.081-.05.034-.125.06-.073.022-.167.04-.09.013-.177.02-.085.007-.156.01l-.096.003q-.101 0-.158-.014-.056-.01-.084-.073-.028-.065-.037-.195-.006-.13-.006-.367v-.406q0-.178.003-.32.003-.14.003-.25.003-.11.009-.2.005-.116.04-.15.033-.037.084-.037.028 0 .048.006.022.003.04.023.016.02.025.056.01.037.014.104.01.25.014.491.003.243.003.517z" font-family="Sniglet"/></g><g style="line-height:1.25"><path word-spacing="0" letter-spacing="0" font-size="2.822" font-weight="400" aria-label="RESET" style="-inkscape-font-specification:'Sniglet, Normal';font-variant-ligatures:normal;font-variant-caps:normal;font-variant-numeric:normal;font-feature-settings:normal;text-align:start" d="M4.49 46.317l-.081.006H4.23q-.048 0-.107-.006v.573q0 .09-.045.113-.042.02-.107.02-.034 0-.054-.006-.02-.003-.034-.015-.011-.014-.02-.04-.005-.024-.008-.07-.006-.05-.008-.146l-.006-.254q0-.156-.003-.376v-.522q0-.116.028-.223.029-.11.102-.192.073-.084.197-.135.127-.05.322-.05.139 0 .268.03.133.031.235.107.1.076.163.206.062.13.062.325 0 .26-.113.403-.11.142-.304.2l.378.52q.05.068.05.138 0 .057-.04.088-.036.034-.092.034-.062 0-.107-.034-.045-.037-.085-.093zm.444-.658q0-.194-.118-.288-.116-.096-.37-.096-.093 0-.155.017-.062.014-.1.057-.036.042-.053.118-.014.074-.014.19v.191q0 .11.003.2.065.004.144.004h.152q.08 0 .167-.008.09-.012.166-.05.077-.043.127-.12.05-.079.05-.214zm.548.923l-.011-.245q-.006-.156-.006-.32v-.19l.006-.207q.005-.209.025-.328.023-.118.085-.177.065-.06.18-.074.116-.014.308-.014h.06q.059 0 .14.003.082 0 .17.003l.15.006q.062.006.098.017.04.008.06.025.02.015.025.037.006.02.006.045 0 .065-.037.096-.037.03-.15.037-.056.006-.166.008h-.22q-.113 0-.204.003h-.112q-.074.003-.105.034-.028.028-.028.138l.003.124q.005.096.005.271h.235q.15 0 .242.006.096.003.147.017.054.014.073.045.02.031.02.082 0 .026-.005.048-.003.02-.023.037-.02.014-.057.025-.036.008-.104.014-.082.006-.155.008h-.378v.345q.002.06.005.096.003.045.012.076.01.03.036.05.028.02.08.03.053.007.14.007h.607q.099 0 .124.037.026.036.026.098 0 .051-.023.08-.022.025-.11.036-.085.014-.257.017-.17.003-.468.003-.127 0-.21-.023-.08-.022-.132-.076-.05-.053-.076-.138-.022-.088-.03-.212zm2.22-1.564q.08 0 .18.015.106.011.196.045.09.031.153.085.062.05.062.127 0 .045-.026.076-.025.03-.082.03-.042 0-.087-.016-.042-.017-.1-.034-.053-.02-.126-.037-.07-.017-.166-.017-.187 0-.277.068-.088.065-.088.18 0 .08.04.133.04.054.104.094.068.036.15.062.085.025.172.048.099.025.195.062.099.036.175.096.076.06.12.15.049.09.049.228 0 .144-.053.26-.054.112-.147.194-.093.08-.223.124-.13.043-.282.043-.085 0-.198-.017-.113-.014-.214-.05-.102-.04-.173-.103-.07-.065-.07-.158 0-.056.028-.09.03-.034.09-.034.048 0 .08.02.03.017.053.04.085.073.192.098.107.026.22.026.065 0 .136-.008.073-.012.132-.043.06-.03.099-.087.04-.06.04-.158 0-.09-.037-.147-.034-.06-.093-.099-.06-.04-.141-.065-.08-.025-.173-.05-.104-.029-.206-.063-.101-.033-.18-.09-.08-.06-.13-.147-.048-.09-.048-.228t.05-.243q.052-.104.14-.175.087-.07.205-.107.12-.037.26-.037zm.972 1.564q-.006-.09-.012-.245-.005-.156-.005-.32v-.19l.005-.207q.006-.209.026-.328.022-.118.084-.177.065-.06.18-.074.117-.014.309-.014h.059q.06 0 .14.003.083 0 .17.003l.15.006q.062.006.099.017.04.008.059.025.02.015.025.037.006.02.006.045 0 .065-.037.096-.036.03-.15.037-.056.006-.166.008h-.22q-.113 0-.203.003H9.08q-.073.003-.104.034-.03.028-.03.138l.004.124q.006.096.006.271h.234q.15 0 .243.006.096.003.147.017.053.014.073.045.02.031.02.082 0 .026-.006.048-.003.02-.023.037-.02.014-.056.025-.037.008-.104.014-.082.006-.156.008H8.95v.345l.006.096q.003.045.01.076.012.03.038.05.028.02.079.03.053.007.14.007h.608q.098 0 .124.037.025.036.025.098 0 .051-.022.08-.023.025-.11.036-.085.014-.257.017-.17.003-.47.003-.126 0-.208-.023-.081-.022-.132-.076-.051-.053-.076-.138-.023-.088-.031-.212zm2.657-1.287q-.08.006-.17.008l-.194.006.006.144.005.133q.003.068.003.141.003.073.003.164v.245q0 .116-.003.234l-.006.235q-.002.118-.008.245-.003.068-.014.105-.01.036-.026.056-.017.02-.04.023-.022.006-.05.006-.05 0-.087-.034-.034-.037-.04-.153-.006-.1-.008-.214 0-.113-.003-.243t-.003-.28v-.606q.003-.116.008-.2h-.115q-.12 0-.203-.003-.082-.003-.136-.015-.054-.014-.08-.042-.021-.028-.021-.079 0-.025.005-.045.006-.023.026-.04.02-.02.053-.03.037-.012.093-.017l.096-.006.085-.006q.042-.003.087-.003h.105q.166 0 .313.003.15.003.316.01.068.007.105.018.036.008.056.025.02.017.023.04.005.022.005.05 0 .051-.036.085-.034.034-.15.04z" font-family="Sniglet"/></g><path d="M24.13 60.978h2.514" fill="none" stroke="#000" stroke-width=".132"/><g style="line-height:1.25"><path d="M66.51 75.221q.093 0 .186.017.096.014.172.048.076.031.124.08.05.044.05.106 0 .065-.033.1-.034.033-.085.033-.048 0-.084-.014l-.085-.037q-.045-.02-.11-.034-.065-.017-.172-.017-.107 0-.206.057-.096.053-.17.152-.07.096-.112.229-.043.132-.043.288 0 .192.048.33.051.138.13.229.079.087.178.132.101.042.203.042.121 0 .203-.025.082-.025.138-.056.06-.031.102-.057.042-.025.082-.025.048 0 .076.028.028.025.028.093 0 .057-.045.116-.042.056-.127.104-.082.045-.197.076-.116.029-.26.029-.158 0-.316-.062-.155-.062-.28-.184-.12-.124-.197-.307-.076-.187-.076-.432 0-.246.067-.438.071-.192.19-.324.12-.136.279-.206.16-.07.341-.07zm1.64 1.885q-.036.068-.067.1-.028.03-.073.03t-.08-.03q-.033-.032-.073-.097-.05-.084-.115-.234-.062-.15-.127-.325-.065-.177-.127-.366-.062-.19-.113-.356-.048-.167-.08-.29-.027-.128-.027-.181 0-.057.022-.085.023-.028.088-.028.036 0 .062.02.028.016.07.101.034.065.074.17.04.104.082.23.045.128.09.269l.09.277.085.265.073.228.076-.231.088-.265.09-.277q.045-.141.09-.265l.085-.229q.04-.104.07-.172.04-.082.068-.101.031-.02.063-.02.064 0 .087.034.025.03.025.093 0 .056-.017.135-.016.08-.059.212-.04.13-.107.324l-.167.477q-.025.077-.059.158-.03.082-.065.161-.03.077-.062.147-.03.07-.06.121zm2.17.142q-.17 0-.32-.068-.146-.068-.256-.195-.11-.13-.175-.316-.062-.186-.062-.423 0-.223.053-.41.057-.186.164-.321.11-.136.271-.21.16-.075.373-.075.172 0 .327.062.155.062.27.186.12.124.187.31.068.187.068.435 0 .206-.057.392-.053.187-.166.328-.11.138-.28.223-.169.082-.397.082zm.005-.266q.155 0 .271-.062.116-.065.192-.17.076-.104.113-.24.037-.137.037-.281 0-.175-.048-.31-.046-.139-.125-.232t-.183-.141q-.104-.051-.223-.051-.141 0-.248.06-.105.058-.178.16-.07.102-.107.24-.037.135-.037.29 0 .167.042.305.043.136.113.232.074.096.172.15.1.05.21.05zm1.859.285q-.322 0-.472-.175-.059-.067-.101-.172-.04-.107-.065-.276-.023-.17-.034-.418-.008-.251-.008-.61 0-.115.006-.189.006-.076.023-.118.016-.045.042-.062.028-.017.07-.017.082 0 .116.073t.034.254q0 .062-.003.11v.099q0 .048-.003.107v.144q0 .282.017.469.02.186.065.299.045.11.121.155.08.045.195.045.121 0 .2-.048.082-.05.13-.166.048-.119.068-.314.022-.194.022-.485 0-.127-.003-.217v-.164q0-.105.006-.175.008-.07.023-.11.017-.042.045-.06.028-.016.07-.016.043 0 .071.017.029.017.046.059.016.042.022.118.006.074.006.192 0 .497-.03.819-.032.319-.11.505-.08.183-.218.257-.136.07-.35.07zm2.143-1.764q-.08.006-.17.009l-.194.006.006.143.006.133q.003.068.003.141.003.074.003.164v.245q0 .116-.003.235l-.006.234-.008.245q-.003.068-.014.105-.008.037-.026.056-.017.02-.04.023-.022.006-.05.006-.051 0-.088-.034-.034-.037-.04-.153-.005-.101-.007-.214 0-.113-.003-.243t-.003-.28V75.718q.003-.116.008-.2h-.116q-.118 0-.203-.003-.082-.003-.136-.014-.053-.015-.079-.043-.022-.028-.022-.079 0-.025.006-.045.006-.023.025-.04.02-.02.054-.03.037-.012.093-.017l.096-.006.085-.006q.042-.003.087-.003h.104q.167 0 .314.003.15.003.316.012.068.005.104.017.037.008.057.025.02.017.022.04.006.022.006.05 0 .051-.036.085-.034.034-.15.04z" style="-inkscape-font-specification:'Sniglet, Normal';font-variant-ligatures:normal;font-variant-caps:normal;font-variant-numeric:normal;font-feature-settings:normal;text-align:start" aria-label="CV OUT" font-weight="400" font-size="2.822" font-family="Sniglet" letter-spacing="0" word-spacing="0" stroke-width=".265"/></g><g style="line-height:1.25"><path d="M69.603 30.785q.094 0 .187.017.096.014.172.048.076.03.124.079.05.045.05.107 0 .065-.033.099-.034.034-.085.034-.048 0-.084-.014l-.085-.037q-.045-.02-.11-.034-.065-.017-.172-.017-.108 0-.206.057-.096.053-.17.152-.07.096-.113.229-.042.132-.042.287 0 .192.048.33.05.139.13.23.079.087.178.132.101.042.203.042.121 0 .203-.025.082-.026.138-.057.06-.03.102-.056.042-.025.082-.025.048 0 .076.028.028.025.028.093 0 .056-.045.116-.042.056-.127.104-.082.045-.197.076-.116.028-.26.028-.158 0-.316-.062-.155-.062-.28-.183-.12-.124-.197-.308-.076-.186-.076-.432 0-.245.067-.437.071-.192.19-.325.12-.135.279-.206.16-.07.341-.07zm1.642 1.885q-.037.068-.068.099-.028.031-.073.031t-.08-.031q-.033-.031-.073-.096-.05-.085-.115-.234-.062-.15-.127-.325-.065-.178-.127-.367t-.113-.355q-.048-.167-.08-.291-.028-.127-.028-.18 0-.057.023-.085.023-.029.088-.029.036 0 .062.02.028.017.07.102.034.065.074.17.04.104.081.23.046.128.09.269l.091.276.085.266.073.228.076-.231.088-.266.09-.276q.045-.141.09-.265l.085-.229q.04-.104.07-.172.04-.082.068-.102.031-.02.062-.02.065 0 .088.034.025.031.025.093 0 .057-.017.136-.017.079-.059.212-.04.13-.107.324l-.167.477q-.025.076-.059.158-.03.082-.065.161-.03.076-.062.147-.03.07-.06.121zm1.455-.062q-.006-.102-.008-.212 0-.11-.003-.237t-.003-.273v-.333q0-.2.003-.342.003-.144.016-.234.015-.09.043-.133.03-.042.082-.042.025 0 .048.005.022.006.039.026.017.017.028.053.014.034.017.09.006.102.008.181l.006.158q.003.077.003.161v.429q0 .116-.003.229l-.006.229-.008.242q-.003.068-.014.105-.011.036-.028.056-.017.02-.04.023-.022.005-.05.005-.051 0-.088-.034-.037-.036-.042-.152zm1.764.042q-.09-.124-.172-.245-.08-.124-.172-.271-.09-.147-.21-.325-.115-.18-.279-.42v.38q0 .167-.003.311l-.006.271-.008.254q-.003.068-.014.105-.008.036-.025.056-.017.02-.04.023-.02.005-.048.005-.05 0-.084-.034-.034-.036-.04-.152-.014-.31-.017-.62v-.647q0-.19.003-.296.006-.108.02-.161.017-.054.042-.068.028-.014.074-.014.045 0 .118.07.073.068.161.181.087.113.186.26.102.146.2.302.1.155.19.307l.169.277q-.003-.133-.003-.29v-.356q0-.223.003-.367.003-.147.014-.232.014-.084.042-.118.029-.034.08-.034.047 0 .084.03.037.032.042.145.006.101.008.18l.006.158q.003.077.003.161v.429q0 .116-.003.229l-.006.229-.008.242q-.003.068-.014.105-.008.036-.025.056-.017.02-.04.023-.02.005-.048.005-.048 0-.081-.028-.034-.028-.1-.116z" style="-inkscape-font-specification:'Sniglet, Normal';font-variant-ligatures:normal;font-variant-caps:normal;font-variant-numeric:normal;font-feature-settings:normal;text-align:start" aria-label="CV IN" font-weight="400" font-size="2.822" font-family="Sniglet" letter-spacing="0" word-spacing="0" stroke-width=".265"/></g><g style="line-height:1.25"><path d="M58.733 2.802q-.101 0-.169.022-.068.02-.113.054t-.073.07l-.051.071q-.023.034-.05.057-.026.02-.066.02-.067 0-.096-.035-.025-.036-.025-.096 0-.124.093-.231.028-.034.076-.07.051-.04.119-.071.07-.031.16-.05.094-.023.21-.023.307 0 .476.15.17.149.17.42 0 .053-.011.118-.009.065-.037.136-.026.07-.074.146-.048.077-.127.156-.07.07-.15.13-.078.059-.163.118l-.178.127q-.09.065-.183.15.09.048.195.062.104.014.234.014.121 0 .195-.006.073-.006.118-.014l.07-.014q.026-.006.054-.006.105 0 .105.096 0 .085-.07.13-.071.045-.17.068-.099.02-.203.022-.105.006-.172.006-.037 0-.105-.006-.065-.002-.141-.014-.076-.011-.155-.03-.076-.023-.141-.057-.062-.037-.102-.088-.04-.053-.04-.127 0-.099.071-.186.074-.09.18-.175.108-.087.232-.172.124-.088.232-.178.107-.093.177-.192.074-.099.074-.214 0-.144-.099-.215-.096-.073-.277-.073z" style="-inkscape-font-specification:'Sniglet, Normal';font-variant-ligatures:normal;font-variant-caps:normal;font-variant-numeric:normal;font-feature-settings:normal;text-align:start" font-size="2.822" font-family="Sniglet" aria-label="2" font-weight="400" letter-spacing="0" word-spacing="0"/></g><path style="line-height:1.25;-inkscape-font-specification:'Sniglet, Normal';font-variant-ligatures:normal;font-variant-caps:normal;font-variant-numeric:normal;font-feature-settings:normal;text-align:start" d="M7.503 82.59q-.006-.102-.009-.212 0-.11-.003-.237t-.003-.274v-.687l-.169.088q-.07.045-.113.053-.04.009-.087.009-.043 0-.076-.037-.032-.037-.032-.088 0-.05.034-.087.037-.04.085-.07.062-.043.133-.085.073-.043.14-.076.069-.037.125-.057.06-.022.099-.022.02 0 .04.005.022.006.039.023.02.017.03.053.015.034.018.093l.008.178.006.15q.003.07.003.15v.426q0 .115-.003.228l-.006.229-.008.242q-.003.068-.014.105-.009.037-.026.056-.017.02-.04.023-.019.006-.047.006-.051 0-.085-.034-.034-.037-.04-.153zm10.735-1.53q-.101 0-.169.022-.068.02-.113.054t-.073.07l-.051.071q-.023.034-.05.056-.026.02-.066.02-.068 0-.096-.034-.025-.036-.025-.096 0-.124.093-.231.028-.034.076-.07.051-.04.119-.071.07-.031.16-.051.094-.023.21-.023.307 0 .476.15.17.15.17.42 0 .054-.012.12-.008.064-.036.135-.026.07-.074.146-.048.076-.127.156-.07.07-.15.13-.078.059-.163.118l-.178.127q-.09.065-.183.15.09.047.195.062.104.014.234.014.121 0 .195-.006.073-.006.118-.014l.07-.014q.026-.006.054-.006.105 0 .105.096 0 .085-.07.13-.071.045-.17.068-.099.02-.203.022-.105.006-.173.006-.036 0-.104-.006-.065-.002-.141-.014-.076-.011-.155-.03-.077-.023-.141-.057-.063-.037-.102-.088-.04-.053-.04-.127 0-.099.071-.186.073-.09.18-.175.108-.087.232-.172.124-.088.231-.178.108-.093.178-.192.074-.099.074-.214 0-.144-.1-.215-.095-.073-.276-.073zm10.182.011q-.09 0-.132-.045-.042-.048-.042-.096 0-.05.048-.082.048-.034.127-.05.079-.02.18-.026.102-.009.207-.009.087 0 .194.009.108.005.2.034.094.025.156.079.062.05.062.14 0 .071-.054.148-.053.076-.124.143-.07.068-.14.122l-.1.073q.3 0 .435.15t.135.429q0 .175-.065.305-.062.13-.169.217-.104.085-.243.127-.135.042-.279.042-.118 0-.234-.02-.113-.02-.203-.067-.09-.051-.147-.133-.054-.085-.054-.209 0-.13.141-.13.043 0 .065.023.026.02.043.05.02.029.04.066.019.036.056.067.039.029.101.051.065.02.17.02.081 0 .16-.017.08-.02.141-.062.063-.042.1-.113.039-.073.039-.18 0-.21-.088-.297-.084-.087-.24-.087-.04 0-.073.014-.034.011-.068.028l-.07.028q-.037.011-.082.011-.045 0-.08-.039-.033-.042-.033-.107 0-.045.042-.105.045-.059.122-.135.079-.076.189-.167.11-.093.245-.2h-.067q-.037 0-.077.003h-.347q-.101-.003-.186-.003zm11.485 1.109q-.003.107-.003.234t-.009.237q-.005.085-.04.11-.03.023-.087.023-.05 0-.079-.02-.025-.017-.04-.076-.01-.062-.013-.178-.003-.118-.003-.316-.093 0-.178.003-.085.003-.164.003-.118 0-.217-.006-.096-.005-.166-.02-.068-.016-.108-.045-.036-.028-.036-.073 0-.062.05-.155.051-.096.127-.206.077-.11.161-.223l.161-.215.096-.124q.065-.082.138-.16.074-.083.147-.142.074-.06.124-.06.048 0 .085.032.037.03.042.144.012.163.014.344.003.178.003.353v.28q.08.005.127.013.048.009.074.026.025.014.033.036.009.023.009.057 0 .07-.065.096-.065.022-.183.028zm-.277-.923l-.212.257-.146.18q-.06.077-.105.13l-.076.096q.13-.005.265-.005.139-.003.274-.003zm10.434-.468q.099 0 .195.005.095.006.169.023.076.014.121.045.048.028.048.076 0 .054-.042.093-.04.04-.172.04-.167 0-.266.003-.096 0-.155.003-.056.002-.09.005l-.076.006q-.04.003-.062.014-.02.008-.031.034-.009.022-.012.065-.003.04-.003.101v.076q.003.031.003.068.212.009.39.037.18.028.31.099.133.067.206.189.074.121.074.319 0 .2-.054.333-.054.13-.144.211-.087.08-.206.113-.116.031-.24.031-.107 0-.226-.02-.118-.022-.22-.079-.101-.056-.17-.152-.064-.099-.064-.248 0-.088.042-.133.045-.045.102-.045.048 0 .09.034.043.03.045.115.003.085.04.139.037.053.093.084.056.031.127.043.07.011.144.011.178 0 .268-.102.09-.101.09-.316 0-.138-.065-.217-.062-.082-.16-.121-.096-.043-.212-.054-.116-.014-.22-.017l-.178-.005q-.073-.006-.09-.029-.02-.028-.031-.07-.012-.045-.017-.093-.006-.048-.009-.093v-.088q0-.164.031-.268.031-.105.107-.164.077-.059.2-.079.128-.022.32-.022zm9.866 1.185q0-.237.082-.451.082-.218.203-.381.122-.167.257-.263.136-.099.243-.099.045 0 .09.023.048.02.048.065 0 .04-.045.087l-.141.141q-.05.051-.11.116-.057.065-.11.138-.054.074-.096.153t-.062.155q.096-.085.214-.116.119-.03.21-.03.112 0 .216.042.105.04.184.12.079.08.124.201.048.119.048.277 0 .138-.045.254-.045.113-.13.197-.082.082-.2.13-.116.045-.26.045-.141 0-.274-.033-.13-.037-.228-.127-.1-.09-.158-.246-.06-.155-.06-.398zm.322.164q0 .186.096.282.099.096.294.096.07 0 .135-.02t.116-.065q.05-.048.079-.124.03-.076.03-.189 0-.07-.027-.133-.026-.062-.077-.107-.048-.048-.115-.073-.068-.028-.147-.028-.18 0-.282.098-.102.1-.102.263z" font-weight="400" font-size="2.822" font-family="Sniglet" letter-spacing="0" word-spacing="0"/><g style="line-height:1.25"><path d="M58.53 32.309q-.13-.285-.23-.55-.1-.268-.17-.477-.065.35-.11.705-.043.356-.11.68-.017.074-.062.1-.046.022-.077.022-.05 0-.082-.031-.028-.031-.028-.08 0-.064.014-.197l.04-.305q.025-.169.056-.355.031-.187.062-.359l.063-.316q.03-.14.053-.217.037-.13.15-.13.067 0 .115.068.048.065.102.203.056.135.133.344.079.21.203.491.121-.282.195-.488.076-.209.127-.344.053-.138.101-.203.048-.068.119-.068.065 0 .099.034.033.03.05.096.02.079.048.22.029.138.06.31.033.17.064.356.032.186.057.356.025.169.04.307.016.136.016.209 0 .045-.03.073-.032.026-.08.026-.03 0-.076-.023-.045-.025-.062-.099-.034-.16-.062-.333l-.05-.347-.046-.353q-.023-.177-.048-.352-.037.113-.085.248-.048.136-.101.274-.054.135-.11.268-.057.133-.11.24-.02.036-.054.056-.031.017-.065.017-.037 0-.07-.017-.032-.02-.048-.059zm1.34.051q-.006-.09-.012-.246-.006-.155-.006-.319v-.192l.006-.206q.005-.208.025-.327.023-.119.085-.178.065-.06.18-.073.116-.014.308-.014h.06q.059 0 .14.003l.17.002.15.006q.062.006.098.017.04.008.06.025.02.014.025.037.006.02.006.045 0 .065-.037.096-.037.028-.15.037-.056.005-.166.008h-.22q-.113 0-.204.003h-.112q-.074.003-.105.034-.028.028-.028.138l.003.124q.005.096.005.271h.235q.15 0 .242.006.096.003.147.017.054.014.073.045.02.031.02.082 0 .025-.005.048-.003.02-.023.037-.02.014-.056.025-.037.008-.105.014-.082.006-.155.009h-.378v.343l.005.097q.003.045.012.076.01.031.036.05.029.02.08.029.053.009.14.009h.607q.099 0 .124.036.026.037.026.099 0 .05-.023.079-.022.025-.11.037-.085.014-.257.017-.169.002-.468.002-.127 0-.209-.022-.082-.023-.133-.076-.05-.054-.076-.139-.022-.087-.03-.211zm2.315-.051q-.13-.285-.231-.55-.1-.268-.17-.477-.065.35-.11.705-.042.356-.11.68-.017.074-.062.1-.045.022-.076.022-.05 0-.082-.031-.028-.031-.028-.08 0-.064.014-.197l.04-.305q.025-.169.056-.355.03-.187.062-.359l.062-.316q.031-.14.054-.217.036-.13.15-.13.067 0 .115.068.048.065.102.203.056.135.132.344.08.21.203.491.122-.282.195-.488.076-.209.127-.344.054-.138.102-.203.048-.068.118-.068.065 0 .1.034.033.03.05.096.02.079.048.22.028.138.06.31.033.17.064.356.031.186.056.356.026.169.04.307.017.136.017.209 0 .045-.031.073-.031.026-.08.026-.03 0-.075-.023-.046-.025-.062-.099-.034-.16-.063-.333l-.05-.347-.045-.353q-.023-.177-.048-.352-.037.113-.085.248-.048.136-.102.274-.053.135-.11.268-.056.133-.11.24-.02.036-.053.056-.032.017-.065.017-.037 0-.07-.017-.032-.02-.049-.059z" style="-inkscape-font-specification:'Sniglet, Normal';font-variant-ligatures:normal;font-variant-caps:normal;font-variant-numeric:normal;font-feature-settings:normal;text-align:start" aria-label="MEM" font-weight="400" font-size="2.822" font-family="Sniglet" letter-spacing="0" word-spacing="0" stroke-width=".265"/></g><rect rx="2.34" ry="2.34" y="31.585" x="14.283" height="23.056" width="10.837" fill="#ccc" paint-order="stroke markers fill"/><g style="line-height:1.25"><path word-spacing="0" letter-spacing="0" font-size="2.822" font-weight="400" aria-label="CLK" style="-inkscape-font-specification:'Sniglet, Normal';font-variant-ligatures:normal;font-variant-caps:normal;font-variant-numeric:normal;font-feature-settings:normal;text-align:start" d="M18.346 33.104q.092 0 .185.017.096.014.173.048.076.03.124.08.05.044.05.106 0 .065-.033.1-.034.033-.085.033-.048 0-.085-.014-.036-.017-.084-.037-.045-.02-.11-.034-.065-.017-.172-.017-.108 0-.207.057-.095.053-.17.152-.07.096-.112.23-.042.131-.042.287 0 .191.048.33.05.138.13.228.079.088.178.133.1.042.203.042.12 0 .203-.025.082-.026.138-.057.06-.03.102-.056.042-.025.082-.025.048 0 .076.028.028.025.028.093 0 .056-.045.116-.042.056-.127.104-.082.045-.198.076-.115.028-.26.028-.157 0-.315-.062-.156-.062-.28-.183-.121-.124-.197-.308-.077-.186-.077-.43 0-.247.068-.439.07-.192.19-.324.12-.136.279-.207.16-.07.34-.07zm1.152 1.211v.16q0 .068-.002.13 0 .063-.003.125l-.006.138.305-.037.172-.022.099-.012q.037-.003.085-.003.124 0 .124.122 0 .048-.051.081-.048.034-.124.06-.074.022-.167.04-.09.013-.178.02-.084.007-.155.01l-.096.003q-.101 0-.158-.014-.056-.01-.084-.073-.03-.065-.037-.195-.006-.13-.006-.367v-.406q0-.178.003-.32.003-.14.003-.25.003-.11.008-.2.006-.116.04-.15.034-.037.085-.037.028 0 .048.006.022.003.04.023.016.02.024.056.012.037.015.105.01.248.014.49.002.243.002.517zm1.01.612l-.007-.212q0-.11-.003-.237t-.003-.273v-.333q0-.2.003-.342.003-.144.014-.234.014-.09.042-.133.028-.042.08-.042.047 0 .084.031.037.031.042.144l.009.18.005.16q.003.075.003.16v.332l.604-.69q.119-.136.184-.179.064-.045.112-.045.057 0 .082.028.029.028.029.07 0 .018-.006.035-.006.017-.025.048-.017.028-.054.073l-.1.11-.391.426.618.88q.022.032.034.066.014.034.014.065 0 .053-.031.087-.028.037-.102.037-.06 0-.107-.034-.045-.03-.085-.093l-.536-.793-.243.265-.005.215q-.003.107-.01.225-.002.068-.013.105-.008.037-.025.056-.017.02-.04.023-.02.006-.048.006-.05 0-.084-.034-.034-.037-.04-.152z" font-family="Sniglet"/></g><g style="line-height:1.25"><path d="M66.549 86.269q.093 0 .192.017t.18.05q.082.032.136.08.054.048.054.11 0 .065-.034.098-.034.034-.085.034-.048 0-.09-.017l-.09-.036q-.051-.02-.122-.037-.07-.017-.178-.017-.118 0-.223.056-.101.054-.18.153-.08.096-.124.228-.046.133-.046.288 0 .19.048.328t.125.228q.079.09.174.136.1.042.198.042.16 0 .254-.045.096-.048.152-.121.003-.06.003-.142v-.177q0-.037-.005-.057-.006-.022-.029-.034-.022-.01-.067-.014-.043-.003-.116-.003-.09 0-.147-.022-.056-.026-.056-.105 0-.056.028-.09.031-.037.124-.042h.054q.04-.003.082-.003h.155q.085 0 .135.017.051.014.09.068.02.028.023.098.006.071.006.164v.728q0 .076-.043.113-.039.037-.093.037-.065 0-.107-.034-.04-.031-.04-.102v-.11q-.073.085-.174.122-.1.036-.252.036-.155 0-.304-.062-.15-.062-.266-.183-.115-.124-.189-.308-.07-.186-.07-.432 0-.245.07-.437.074-.192.198-.325.124-.135.29-.206.167-.07.359-.07zm2.113 1.854l-.062-.155q-.031-.09-.068-.19l-.177.006h-.41q-.098 0-.18-.003l-.065.187q-.031.087-.06.155-.056.144-.163.144-.04 0-.076-.025-.034-.026-.034-.074t.017-.124q.017-.08.042-.167.028-.09.06-.183.03-.096.059-.178.028-.09.079-.228.053-.142.112-.294l.119-.3q.06-.149.107-.259l.028-.062q.017-.036.04-.068.025-.03.054-.053.03-.023.067-.023.037 0 .068.026.031.022.054.056.025.034.042.07.02.037.031.066l.102.26q.059.146.115.296.06.15.11.285.051.135.082.228l.057.175q.034.093.062.184.028.09.045.169.02.076.02.124t-.037.074q-.034.025-.073.025-.051 0-.093-.034-.043-.037-.074-.11zm-.5-.62l.136.002q.068 0 .136.003l-.068-.198-.065-.189q-.028-.09-.054-.166l-.04-.139q-.01-.036-.025-.059-.014-.023-.036-.023-.023 0-.037.026-.014.022-.025.06-.034.115-.096.301l-.127.387q.076-.003.152-.003.076-.003.15-.003zm1.876-.952q-.079.006-.17.009l-.194.005.006.144.005.133q.003.067.003.14.003.074.003.165v.245q0 .116-.003.234l-.005.235q-.003.118-.009.245-.003.068-.014.104-.009.037-.025.057-.017.02-.04.023-.023.005-.05.005-.052 0-.088-.034-.034-.036-.04-.152-.005-.102-.008-.215 0-.113-.003-.242-.003-.13-.003-.28V86.766q.003-.116.009-.2h-.116q-.119 0-.203-.004-.082-.003-.136-.014-.053-.014-.079-.042-.022-.028-.022-.08 0-.025.005-.044.006-.023.026-.04.02-.02.053-.03.037-.012.093-.018l.096-.005.085-.006q.042-.003.088-.003h.104q.166 0 .313.003.15.003.316.011.068.006.105.017.036.009.056.026.02.017.023.04.005.022.005.05 0 .05-.036.085-.034.033-.15.04zm.402 1.287q-.006-.09-.011-.246-.006-.155-.006-.318v-.192l.006-.206q.005-.21.025-.328.023-.118.085-.178.065-.059.18-.073.116-.014.308-.014h.06q.059 0 .14.003.082 0 .17.003l.15.005q.061.006.098.017.04.009.06.025.02.015.025.037.005.02.005.045 0 .065-.036.096-.037.028-.15.037-.056.006-.166.008h-.22q-.113 0-.204.003h-.113q-.073.003-.104.034-.028.028-.028.138l.003.125q.005.096.005.27h.234q.15 0 .243.006.096.003.147.017.054.014.073.045.02.031.02.082 0 .025-.006.048-.002.02-.022.037-.02.014-.057.025-.036.009-.104.014-.082.006-.155.009h-.378v.344q.002.06.005.096.003.045.011.076.012.031.037.051.028.02.08.028.053.009.14.009h.607q.099 0 .124.036.026.037.026.1 0 .05-.023.078-.022.026-.11.037-.085.014-.257.017-.17.003-.468.003-.127 0-.21-.023-.081-.023-.132-.076-.05-.054-.076-.138-.023-.088-.031-.212z" style="-inkscape-font-specification:'Sniglet, Normal';font-variant-ligatures:normal;font-variant-caps:normal;font-variant-numeric:normal;font-feature-settings:normal;text-align:start" aria-label="GATE" font-weight="400" font-size="2.822" font-family="Sniglet" letter-spacing="0" word-spacing="0" stroke-width=".265"/></g><g style="line-height:1.25"><path d="M64.454 80.65q.079 0 .18.015.105.01.195.045.09.03.153.084.062.051.062.127 0 .046-.026.077-.025.03-.082.03-.042 0-.087-.016-.042-.017-.099-.034-.053-.02-.127-.037-.07-.017-.166-.017-.187 0-.277.068-.087.065-.087.18 0 .08.04.133.039.054.104.093.067.037.15.062.084.026.171.048.1.026.195.063.099.036.175.096.076.059.121.15.048.09.048.228 0 .144-.053.26-.054.112-.147.194-.093.08-.223.124-.13.043-.282.043-.085 0-.198-.017-.113-.014-.214-.051-.102-.04-.172-.102-.071-.065-.071-.158 0-.056.028-.09.031-.034.09-.034.049 0 .08.02.03.017.053.04.085.073.192.098.107.025.22.025.065 0 .136-.008.073-.011.132-.042.06-.031.1-.088.039-.06.039-.158 0-.09-.037-.147-.034-.059-.093-.098-.06-.04-.141-.065-.08-.026-.172-.051-.105-.028-.206-.062-.102-.034-.181-.09-.08-.06-.13-.147-.048-.09-.048-.229 0-.138.05-.243.052-.104.14-.175.087-.07.205-.107.122-.037.26-.037zm1.321.794q-.076-.11-.136-.232-.056-.124-.056-.27 0-.108.037-.187.036-.082.101-.136.065-.056.153-.084.09-.028.191-.028.13 0 .212.042.085.04.13.107.048.065.065.147.02.082.02.16 0 .1-.026.173-.025.073-.07.133-.045.059-.113.112-.065.054-.144.11l.398.664.14-.167.038-.048q.022-.028.045-.05.025-.026.05-.043.029-.017.063-.017.042 0 .076.031.037.028.037.08 0 .053-.037.098-.037.042-.07.085l-.088.104-.124.144.127.2q.02.031.03.065.015.034.015.065 0 .051-.04.085-.036.037-.076.037-.031 0-.065-.026-.034-.025-.082-.096l-.098-.144q-.136.116-.269.175-.13.062-.285.062-.104 0-.214-.03-.107-.032-.195-.105-.087-.07-.144-.184-.056-.115-.056-.285 0-.138.036-.248.04-.11.102-.197.065-.09.147-.164.084-.074.175-.138zm.158 1.089q.124 0 .217-.05.096-.052.192-.13-.11-.17-.22-.345l-.215-.344q-.14.115-.237.24-.096.124-.096.29 0 .093.029.158.03.062.081.105.051.04.116.059.065.017.133.017zm-.068-1.575q0 .065.034.138.037.071.113.19.082-.06.144-.15.065-.09.065-.198 0-.096-.054-.146-.05-.051-.118-.051-.085 0-.136.068-.048.067-.048.15zm2.455 1.51l-.012-.319q-.002-.17-.002-.39l-.192.006h-.44q-.105 0-.187-.003l-.006.345q-.002.163-.01.358-.004.068-.015.105-.008.036-.025.056-.017.02-.04.023-.02.005-.048.005-.05 0-.084-.034-.034-.036-.04-.152-.006-.102-.008-.212 0-.11-.003-.237t-.003-.274v-.333q0-.2.003-.341.003-.144.014-.234.014-.09.042-.133.028-.042.08-.042.047 0 .084.03.037.032.042.145.006.096.009.175l.005.152q.003.073.003.152v.175q.212-.008.415-.008.099 0 .198.003l.206.008v-.082q0-.2.002-.341.003-.144.014-.234.015-.09.043-.133.028-.042.079-.042.048 0 .084.03.037.032.043.145l.008.18.006.158q.003.077.003.161v.429q0 .116-.003.229l-.006.228-.008.243q-.003.068-.014.105-.009.036-.026.056-.017.02-.04.023-.019.005-.047.005-.051 0-.085-.034-.034-.036-.04-.152z" style="-inkscape-font-specification:'Sniglet, Normal';font-variant-ligatures:normal;font-variant-caps:normal;font-variant-numeric:normal;font-feature-settings:normal;text-align:start" aria-label="S&amp;H" font-weight="400" font-size="2.822" font-family="Sniglet" letter-spacing="0" word-spacing="0" stroke-width=".265"/></g><g style="line-height:1.25"><path d="M70.74 22.347q.078 0 .18.014.104.011.195.045.09.031.152.085.062.05.062.127 0 .045-.025.076-.026.031-.082.031-.043 0-.088-.017-.042-.017-.099-.034-.053-.02-.127-.036-.07-.017-.166-.017-.186 0-.277.068-.087.064-.087.18 0 .08.04.133.039.053.104.093.068.037.15.062.084.025.172.048.098.025.194.062.1.037.175.096.076.06.122.15.048.09.048.228 0 .144-.054.26-.054.113-.147.195-.093.079-.223.124-.13.042-.282.042-.085 0-.197-.017-.113-.014-.215-.05-.102-.04-.172-.102-.07-.065-.07-.158 0-.057.028-.09.03-.034.09-.034.048 0 .079.02.03.016.053.039.085.073.192.099.108.025.22.025.065 0 .136-.009.073-.01.133-.042.059-.03.098-.087.04-.06.04-.158 0-.09-.037-.147-.034-.06-.093-.099-.06-.04-.141-.065-.079-.025-.172-.05-.105-.029-.206-.063-.102-.034-.18-.09-.08-.06-.13-.147-.049-.09-.049-.228 0-.139.051-.243.051-.105.138-.175.088-.07.207-.107.12-.037.26-.037zm2.051.277q-.079.005-.17.008l-.194.006.006.144.005.132q.003.068.003.141.003.074.003.164v.246q0 .115-.003.234l-.006.234q-.002.119-.008.246-.003.067-.014.104-.009.037-.026.057-.017.02-.04.022-.022.006-.05.006-.05 0-.087-.034-.034-.037-.04-.153-.006-.101-.008-.214 0-.113-.003-.243t-.003-.28v-.605q.003-.117.008-.201h-.115q-.119 0-.203-.003-.082-.003-.136-.014-.054-.014-.079-.043-.023-.028-.023-.079 0-.025.006-.045.006-.022.025-.04.02-.019.054-.03.037-.012.093-.017l.096-.006.085-.005q.042-.003.087-.003h.105q.166 0 .313.003.15.002.316.01.068.006.105.018.036.008.056.025.02.017.023.04.005.022.005.05 0 .051-.037.085-.033.034-.15.04zm.402 1.286q-.006-.09-.011-.245-.006-.155-.006-.319v-.192l.006-.206q.005-.209.025-.327.023-.119.085-.178.065-.06.18-.073.116-.014.308-.014h.06l.14.002q.082 0 .17.003l.15.006q.061.005.098.017.04.008.06.025.019.014.025.037.005.02.005.045 0 .065-.036.096-.037.028-.15.037-.056.005-.167.008h-.22q-.113 0-.203.003H73.6q-.073.003-.104.034-.028.028-.028.138l.002.124q.006.096.006.271h.234q.15 0 .243.006.096.003.147.017.053.014.073.045.02.03.02.082 0 .025-.006.048-.003.02-.022.036-.02.014-.057.026-.036.008-.104.014l-.155.008h-.379v.345l.006.096q.003.045.011.076.012.03.037.05.028.02.079.029.054.008.141.008h.607q.099 0 .124.037.025.037.025.099 0 .05-.022.079-.023.025-.11.036-.085.015-.257.017-.17.003-.468.003-.127 0-.21-.022-.081-.023-.132-.077-.05-.053-.076-.138-.023-.087-.031-.212zm1.842.252q0 .067-.014.104-.012.037-.032.057-.016.02-.042.022-.022.006-.045.006-.076 0-.102-.034-.022-.034-.03-.152-.006-.063-.01-.181l-.005-.282q0-.164-.003-.362v-.417q0-.105.026-.212.025-.107.096-.195.073-.087.2-.14.13-.054.336-.054.144 0 .274.03.13.032.228.108.1.076.158.203.06.127.06.316 0 .198-.065.328t-.184.206q-.118.076-.282.107-.164.03-.358.03h-.096q-.048 0-.107-.005zm.812-1.188q0-.19-.107-.285-.104-.096-.35-.096-.093 0-.16.017-.066.014-.108.053-.042.037-.065.102-.02.065-.02.163v.22q0 .122.003.23.065.002.144.002h.153q.084 0 .175-.011.093-.012.166-.051.073-.042.121-.122.048-.081.048-.222z" style="-inkscape-font-specification:'Sniglet, Normal';font-variant-ligatures:normal;font-variant-caps:normal;font-variant-numeric:normal;font-feature-settings:normal;text-align:start" aria-label="STEP" font-weight="400" font-size="2.822" font-family="Sniglet" letter-spacing="0" word-spacing="0" stroke-width=".265"/></g><g style="line-height:1.25"><path d="M57.447 23.553v.16q0 .068-.004.13l-.002.124-.006.139.305-.037.172-.023q.065-.008.1-.01.035-.004.083-.004.125 0 .125.12 0 .049-.05.083-.049.034-.125.06-.074.022-.167.04-.09.013-.178.019-.084.008-.155.01l-.096.004q-.1 0-.158-.014-.056-.011-.085-.073-.028-.065-.036-.195-.006-.13-.006-.367v-.406q0-.178.003-.32.003-.14.003-.25.003-.11.008-.2.006-.117.04-.15.034-.037.084-.037.03 0 .048.006.023.003.04.023t.025.056q.012.037.014.104.012.249.015.49.002.244.002.518zm1.013.358q-.006-.09-.012-.246-.005-.155-.005-.318v-.192l.005-.206q.006-.21.026-.328.022-.118.085-.178.064-.06.18-.073.116-.014.308-.014h.06q.06 0 .14.003.082 0 .17.003l.15.006q.061.006.098.017.04.008.06.025.02.014.025.037.005.02.005.045 0 .065-.037.096-.036.028-.15.037-.056.006-.166.008h-.22q-.113 0-.203.003h-.113q-.073.003-.104.034-.029.028-.029.138l.003.124q.006.096.006.27h.234q.15 0 .243.007.096.003.147.017.053.014.073.045.02.03.02.082 0 .026-.006.048-.003.02-.022.037-.02.014-.057.025-.037.008-.104.014-.082.006-.156.008h-.378v.345l.006.096q.003.045.011.076.011.03.037.05.028.02.08.029.052.008.14.008h.607q.1 0 .124.037.025.036.025.098 0 .05-.022.08-.023.025-.11.036-.085.014-.257.017-.17.003-.469.003-.127 0-.208-.023-.082-.022-.133-.076-.05-.053-.076-.138-.023-.088-.03-.212zm2.677.296q-.09-.124-.172-.245-.08-.124-.172-.271-.09-.147-.21-.325-.115-.18-.279-.42v.38q0 .167-.002.31l-.006.272q-.003.127-.009.254-.002.068-.014.105-.008.036-.025.056-.017.02-.04.023-.02.006-.048.006-.05 0-.084-.034-.034-.037-.04-.153-.014-.31-.017-.62v-.647q0-.19.003-.296.006-.107.02-.161.017-.054.042-.068.028-.014.074-.014.045 0 .118.07.074.068.161.18.087.114.186.26.102.148.2.303.1.155.19.307l.17.277q-.004-.133-.004-.29v-.356q0-.223.003-.367.003-.147.014-.232.014-.084.042-.118.03-.034.08-.034.047 0 .084.03.037.032.043.145l.008.18.006.159q.002.076.002.16v.429q0 .116-.002.23l-.006.228-.008.242q-.003.068-.015.105-.008.037-.025.056-.017.02-.04.023-.02.006-.047.006-.048 0-.082-.028-.034-.03-.1-.116z" style="-inkscape-font-specification:'Sniglet, Normal';font-variant-ligatures:normal;font-variant-caps:normal;font-variant-numeric:normal;font-feature-settings:normal;text-align:start" aria-label="LEN" font-weight="400" font-size="2.822" letter-spacing="0" word-spacing="0" font-family="Sniglet"/></g><g style="line-height:1.25"><path d="M45.99 55.122q.08 0 .182.014.104.011.194.045.09.031.153.085.062.05.062.127 0 .045-.026.076-.025.031-.082.031-.042 0-.087-.017-.042-.017-.099-.034-.053-.02-.127-.036-.07-.017-.166-.017-.187 0-.277.067-.087.065-.087.181 0 .079.04.133.039.053.104.093.067.036.15.062.084.025.171.048.1.025.195.062.099.037.175.096.076.06.121.15.048.09.048.228 0 .144-.053.26-.054.113-.147.194-.093.08-.223.125-.13.042-.282.042-.085 0-.198-.017-.113-.014-.214-.05-.102-.04-.172-.102-.071-.065-.071-.158 0-.057.028-.09.031-.035.09-.035.049 0 .08.02.03.017.053.04.085.073.192.098.107.026.22.026.065 0 .136-.009.073-.011.132-.042.06-.031.1-.087.039-.06.039-.159 0-.09-.037-.146-.034-.06-.093-.1-.06-.039-.141-.064-.08-.025-.172-.05-.105-.029-.206-.063-.102-.034-.181-.09-.08-.06-.13-.147-.048-.09-.048-.229 0-.138.05-.242.052-.105.14-.175.087-.07.205-.107.122-.037.26-.037zm2.073 1.86q-.09-.124-.173-.246l-.172-.27q-.09-.148-.209-.325-.115-.18-.28-.42v.38q0 .167-.002.31l-.005.272q-.003.127-.009.254-.003.067-.014.104-.009.037-.025.056-.017.02-.04.023-.02.006-.048.006-.05 0-.085-.034-.033-.037-.04-.153-.013-.31-.016-.62v-.647q0-.189.003-.296.005-.107.02-.161.016-.054.042-.068.028-.014.073-.014t.119.07q.073.068.16.181.088.113.187.26.101.147.2.302t.19.308l.169.276q-.003-.133-.003-.29v-.356q0-.223.003-.367.002-.147.014-.231.014-.085.042-.119.028-.034.08-.034.047 0 .084.031.036.031.042.144l.009.18.005.159q.003.076.003.16v.43q0 .115-.003.228l-.005.229q-.003.116-.009.243-.003.067-.014.104-.008.037-.025.056-.017.02-.04.023-.02.006-.048.006-.048 0-.082-.029-.034-.028-.098-.115zm1.845-.012q-.028-.067-.062-.155-.031-.09-.068-.189l-.178.006h-.409q-.099 0-.18-.003-.034.099-.066.186-.03.088-.059.155-.056.144-.163.144-.04 0-.077-.025-.034-.025-.034-.073 0-.048.017-.125.017-.079.043-.166l.059-.184q.031-.096.06-.177.027-.09.078-.229l.113-.293.119-.3q.059-.15.107-.26.011-.028.028-.061.017-.037.04-.068.025-.031.053-.054.031-.022.068-.022.037 0 .068.025.03.023.053.057.026.033.043.07.02.037.03.065.046.113.102.26.06.146.116.296.06.15.11.285.05.135.082.229l.056.175q.034.093.062.183.029.09.046.17.02.076.02.124t-.037.073q-.034.025-.074.025-.05 0-.093-.034-.042-.036-.073-.11zm-.5-.62l.136.002q.068 0 .135.003l-.067-.197-.065-.19-.054-.166-.04-.138q-.01-.037-.025-.06-.014-.022-.037-.022-.022 0-.036.025-.014.023-.026.06-.034.115-.096.301-.059.184-.127.387.077-.003.153-.003l.15-.002zm1.259.587q0 .067-.014.104-.012.037-.031.056-.017.02-.043.023-.022.006-.045.006-.076 0-.102-.034-.022-.034-.03-.153-.006-.062-.01-.18l-.005-.283-.002-.36v-.418q0-.105.025-.212t.096-.195q.073-.087.2-.141.13-.054.336-.054.144 0 .274.031.13.031.228.108.1.076.159.203t.059.316q0 .198-.065.327-.065.13-.184.206-.118.077-.282.108-.163.03-.358.03h-.096q-.048 0-.107-.005zm.813-1.189q0-.189-.108-.285-.104-.096-.35-.096-.093 0-.16.017-.065.014-.108.054-.042.037-.065.102-.02.064-.02.163v.22q0 .122.003.229.065.003.144.003h.153q.084 0 .175-.012.093-.01.166-.05.074-.043.122-.122.047-.082.047-.223z" style="-inkscape-font-specification:'Sniglet, Normal';font-variant-ligatures:normal;font-variant-caps:normal;font-variant-numeric:normal;font-feature-settings:normal;text-align:start" aria-label="SNAP" font-weight="400" font-size="2.822" font-family="Sniglet" letter-spacing="0" word-spacing="0" stroke-width=".265"/></g><path d="M41.923 60.978h2.778m21.221-42.37v2.01m-5.475 20.646v2.011m0 12.671v.952m11.349-2.011v2.011m-64.3-.952v.952M19.618 44.04v.952m14.706-8.625v.952m13.918 6.721v.952" fill="none" stroke="#000" stroke-width=".132"/></svg>