<?xml version="1.0" encoding="UTF-8" standalone="no"?>
<svg
   xmlns:dc="http://purl.org/dc/elements/1.1/"
   xmlns:cc="http://creativecommons.org/ns#"
   xmlns:rdf="http://www.w3.org/1999/02/22-rdf-syntax-ns#"
   xmlns:svg="http://www.w3.org/2000/svg"
   xmlns="http://www.w3.org/2000/svg"
   xmlns:sodipodi="http://sodipodi.sourceforge.net/DTD/sodipodi-0.dtd"
   xmlns:inkscape="http://www.inkscape.org/namespaces/inkscape"
   id="svg8"
   width="89.99999"
   height="380.00004"
   viewBox="0 0 89.99999 380.00004"
   version="1.1"
   sodipodi:docname="dBizBlank1.svg"
   inkscape:version="0.92.2 (5c3e80d, 2017-08-06)">
  <metadata
     id="metadata29">
    <rdf:RDF>
      <cc:Work
         rdf:about="">
        <dc:format>image/svg+xml</dc:format>
        <dc:type
           rdf:resource="http://purl.org/dc/dcmitype/StillImage" />
      </cc:Work>
    </rdf:RDF>
  </metadata>
  <defs
     id="defs27">
    <clipPath
       id="clipPath837"
       clipPathUnits="userSpaceOnUse">
      <path
         inkscape:connector-curvature="0"
         id="path835"
         d="M 0,842 H 595 V 0 H 0 Z" />
    </clipPath>
    <clipPath
       id="clipPath13703"
       clipPathUnits="userSpaceOnUse">
      <path
         inkscape:connector-curvature="0"
         id="path13701"
         d="M 0,1020.448 H 935.433 V 0 H 0 Z" />
    </clipPath>
  </defs>
  <sodipodi:namedview
     pagecolor="#ffffff"
     bordercolor="#666666"
     borderopacity="1"
     objecttolerance="10"
     gridtolerance="10"
     guidetolerance="10"
     inkscape:pageopacity="0"
     inkscape:pageshadow="2"
     inkscape:window-width="978"
     inkscape:window-height="774"
     id="namedview25"
     showgrid="false"
     inkscape:zoom="2.9827695"
     inkscape:cx="45.549409"
     inkscape:cy="64.413894"
     inkscape:window-x="2545"
     inkscape:window-y="82"
     inkscape:window-maximized="0"
     inkscape:current-layer="g13693" />
  <title
     id="title2">BlankPanel1</title>
  <g
     transform="matrix(1.3333333,0,0,-1.3333333,-826.22953,717.78288)"
     inkscape:label="1"
     id="g827">
    <g
       id="g831">
      <g
         transform="translate(619.08227,-482.18084)"
         inkscape:label="02"
         id="g13693">
        <path
           inkscape:connector-curvature="0"
           id="path13695"
           style="fill:#091942;fill-opacity:1;fill-rule:evenodd;stroke:none;stroke-width:0.22436777"
           d="M 0,735.3352 H 68.666843 V 1020.448 H 0 Z" />
        <g
           id="g13697">
          <g
             clip-path="url(#clipPath13703)"
             id="g13699">
            <g
               transform="translate(9.313,970.1904)"
               id="g13705">
              <path
                 inkscape:connector-curvature="0"
                 id="path13707"
                 style="fill:#f0eadf;fill-opacity:1;fill-rule:evenodd;stroke:none"
                 d="m 0,0 v -18.758 c -3.324,0.956 -6.525,2.668 -9.313,4.98 V 1.229 C -5.983,0.263 -2.888,-0.113 0,0 M 0,8.762 V 2.169 C -3.116,1.717 -6.269,1.916 -9.313,2.959 V 9.228 C -6.222,8.465 -3.086,8.365 0,8.762 m 0,7.973 C -2.979,15.078 -6.299,14.195 -9.313,11.98 V 11.279 C -5.886,11.024 -2.808,11.195 0,11.695 Z M 0,37.242 V 20.573 c -2.709,-2.324 -5.844,-4.127 -9.313,-5.522 v 19.396 c 3.145,1.18 6.155,2.346 9.313,2.795 m 0,6.405 c -3.047,-0.884 -6.148,-1.779 -9.313,-2.344 v -3.602 c 2.772,1.26 5.763,2.629 9.313,2.744 z m 0,6.611 V 47.342 C -3.051,45.978 -5.595,44.066 -8.825,43.49 -8.987,43.461 -9.15,43.436 -9.313,43.413 v 6.845 z m 0,-71.452 c -3.258,1.048 -6.435,2.737 -9.313,4.949 v -9.395 c 2.88,-1.534 6.042,-2.599 9.313,-3.155 z M 0,20.573 C 4.315,24.275 7.546,29.3 9.313,36.113 5.937,37.461 2.905,37.655 0,37.242 Z M 11.527,3.414 V -18.799 C 7.816,-19.954 3.827,-19.858 0,-18.758 V 0 c 4.271,0.168 8.087,1.409 11.527,3.414 m 0,9.041 C 7.906,10.625 3.995,9.276 0,8.762 V 2.169 C 4.01,2.75 7.957,4.412 11.527,6.754 Z m 0,20.494 V 16.131 C 8.153,14.081 4.41,12.481 0,11.695 v 5.04 c 0.99,0.552 1.943,1.188 2.834,1.989 4.145,3.721 5.421,9.617 8.693,14.225 m 0,13.334 V 36.834 C 8.59,38.342 5.366,39.943 2.403,40.329 1.573,40.437 0.773,40.47 0,40.445 v 3.202 c 3.929,1.14 7.767,2.262 11.527,2.636 m 0,3.975 V 49.271 C 8.621,49.443 5.592,49.15 2.403,48.232 1.558,47.989 0.763,47.683 0,47.342 v 2.916 z m 0,-72.276 C 7.811,-22.773 3.849,-22.432 0,-21.194 v -7.601 c 3.784,-0.643 7.714,-0.604 11.527,0.176 z m 0,58.852 0.377,-0.193 c 2.792,-1.437 6.225,-5.125 8.204,-5.271 4.407,-0.324 7.388,5.696 11.227,7.377 -3.974,2.979 -8.72,6.493 -13.818,7.378 -1.976,0.344 -3.972,0.358 -5.99,0.158 z m 0,-20.703 c 3.92,2.381 7.343,5.369 10.739,8.389 -2.633,3.987 -5.662,7.494 -9.931,9.486 -0.283,-0.343 -0.552,-0.696 -0.808,-1.057 z m 0,-9.377 c 6.007,3.939 10.948,9.799 13.33,15.659 -3.403,-3.611 -8.059,-7.294 -13.33,-9.958 z m 0,-25.553 V 3.414 c 8.708,5.073 15.016,15.027 20.239,24.796 8.925,5.774 22.088,4.95 29.366,-2.108 1.911,-1.855 5.639,-7.239 6.047,-11.066 C 67.959,7.694 62.04,0.102 55.95,0.808 50.031,1.495 45.657,14.074 53.357,15.563 56.279,16.127 55.931,13.228 58.54,14.508 54.883,22.874 45.665,18.402 46.882,8.185 48.915,-8.88 71.82,-1.883 69.336,15.036 68.673,19.563 64.346,25.184 61.132,28.21 55.951,33.085 48.294,36.345 39.973,35.06 33.071,33.995 28.46,26.693 21.834,28.21 31.223,32.994 36.893,43.49 49.04,43.49 62.359,43.49 76.125,34.113 77.975,20.832 79.682,8.54 73.429,0.272 68.041,-3.407 63.406,-6.576 54.966,-8.964 48.608,-7.624 c -11.713,2.475 -18.716,16.972 -9.5,26.875 1.472,1.58 5.096,1.309 4.749,4.215 -1.853,2.82 -5.193,-0.19 -6.044,-1.053 -2.704,-2.746 -3.214,-7.696 -4.751,-11.067 -1.047,-2.3 -3.334,-4.102 -4.749,-6.85 -2.699,-5.236 -4.389,-12.172 -6.909,-15.808 -2.715,-3.917 -6.156,-6.329 -9.877,-7.487 M 82.282,43.029 V -6.099 C 77.513,-13.288 70.12,-18.159 59.829,-18.108 48.038,-18.052 35.64,-11.548 34.791,-0.245 48.337,-19.834 83.604,-10.23 80.131,20.306 75.996,41.018 51.079,53.178 33.062,40.855 26.327,44.95 19.379,48.807 11.527,49.271 v 0.987 h 62.542 l 0.451,-0.247 c 0.458,-0.207 0.9,-0.437 1.33,-0.692 0.504,-0.252 1.011,-0.494 1.52,-0.724 l -0.615,0.139 c 2.102,-1.479 3.948,-3.421 5.527,-5.705 m 0,7.229 v -1.123 c -1.801,0.078 -3.534,0.483 -5.217,1.123 z M 31.766,3.97 c -5.149,-9.632 -7.085,-20.618 -16.409,-24.768 -1.235,-0.55 -2.517,-0.952 -3.83,-1.22 v -6.601 c 4.631,0.948 9.088,2.991 12.899,6.241 7.162,6.11 9.081,13.354 7.34,26.348 m 50.516,45.165 v 1.123 h 5.217 c -1.156,-1.111 -3.084,-1.133 -4.515,-1.137 -0.235,-0.001 -0.469,0.004 -0.702,0.014 m 0,-55.234 v 49.128 c 8.615,-12.464 9.261,-35.17 0,-49.128" />
            </g>
            <g
               transform="translate(0.3745,797.7559)"
               id="g13717">
              <path
                 inkscape:connector-curvature="0"
                 id="path13719"
                 style="fill:#f0eadf;fill-opacity:1;fill-rule:evenodd;stroke:none"
                 d="m 0,0 v -9.305 c -0.125,0.064 -0.25,0.129 -0.375,0.195 V 0.284 C -0.25,0.188 -0.125,0.094 0,0 M 0,17.655 V 2.447 c -0.125,0.1 -0.25,0.201 -0.375,0.304 V 17.758 C -0.249,17.722 -0.125,17.689 0,17.655 m 0,8.015 v -6.303 c -0.125,0.04 -0.25,0.078 -0.375,0.121 v 6.269 C -0.25,25.726 -0.125,25.699 0,25.67 m 0,3.107 v -0.994 c -0.125,0.009 -0.249,0.016 -0.375,0.025 v 0.702 c 0.125,0.091 0.25,0.18 0.375,0.267 m 0,22.34 V 31.733 L -0.375,31.58 V 50.976 Z M 0,57.9 v -3.5 l -0.375,-0.17 v 3.602 z M 0,73.687 V 59.999 c -0.124,-0.02 -0.25,-0.04 -0.375,-0.058 V 73.64 c 0.125,0.017 0.25,0.032 0.375,0.047 m 0,5.853 v -3.722 l -0.375,-0.065 v 3.617 z m 0,22.626 V 82.76 l -0.375,-0.14 v 19.398 z m 0,3.565 v -0.336 c -0.124,-0.098 -0.249,-0.194 -0.375,-0.287 v 0.653 z m 0,8.2 v -6.225 c -0.125,0.033 -0.25,0.065 -0.375,0.097 v 6.261 c 0.125,-0.043 0.25,-0.087 0.375,-0.133 m 0,16.524 v -14.768 c -0.125,0.038 -0.25,0.075 -0.375,0.111 v 14.976 c 0.126,-0.105 0.251,-0.211 0.375,-0.319 m -0.375,2.788 c 0.126,-0.097 0.251,-0.195 0.375,-0.294 v 9.5 c -0.124,0.069 -0.249,0.137 -0.375,0.204 z M 0,105.395 v 0.336 l 0.375,-0.033 C 0.251,105.594 0.126,105.493 0,105.395 M 2.59,-1.746 v -8.739 C 1.707,-10.133 0.842,-9.738 0,-9.305 V 0 c 0.841,-0.627 1.706,-1.21 2.59,-1.746 m 0,18.786 V 0.615 C 1.697,1.171 0.832,1.782 0,2.447 V 17.655 C 0.879,17.41 1.743,17.205 2.59,17.04 m 0,8.185 V 18.74 C 1.721,18.887 0.856,19.095 0,19.367 v 6.303 c 0.861,-0.197 1.725,-0.346 2.59,-0.445 m 0,5.069 V 27.692 C 1.75,27.695 0.886,27.725 0,27.783 v 0.994 c 0.847,0.587 1.715,1.077 2.59,1.517 m 0,21.779 V 32.917 C 1.75,32.494 0.887,32.1 0,31.733 v 19.384 c 0.871,0.327 1.732,0.651 2.59,0.956 m 0,6.379 V 55.519 C 1.7,55.166 0.839,54.781 0,54.4 v 3.5 c 0.868,0.163 1.731,0.349 2.59,0.552 m 0,15.334 V 60.736 C 1.799,60.425 0.98,60.174 0.113,60.019 L 0,59.999 v 13.688 c 0.844,0.094 1.709,0.122 2.59,0.099 m 0,6.848 V 76.169 C 1.722,76.082 0.859,75.962 0,75.818 v 3.722 c 0.88,0.398 1.74,0.778 2.59,1.094 m 0,22.45 V 83.697 C 1.712,83.396 0.851,83.079 0,82.76 v 19.406 c 0.845,0.329 1.709,0.635 2.59,0.918 m 0,9.66 v -5.896 c -0.858,0.34 -1.722,0.626 -2.59,0.858 v 6.225 c 0.874,-0.325 1.739,-0.718 2.59,-1.187 m 0,15.148 V 114.801 C 1.711,115.136 0.849,115.43 0,115.687 v 14.768 c 0.915,-0.791 1.781,-1.647 2.59,-2.563 M 0,132.949 c 0.896,-0.713 1.762,-1.475 2.59,-2.286 v 10.162 C 1.759,141.412 0.894,141.953 0,142.449 Z M 5.112,-3.122 v -8.245 c -0.854,0.258 -1.696,0.552 -2.522,0.882 v 8.739 c 0.826,-0.5 1.668,-0.96 2.522,-1.376 m 0,19.783 V -0.77 C 4.252,-0.358 3.41,0.105 2.59,0.615 V 17.04 c 0.857,-0.166 1.698,-0.292 2.522,-0.379 m 0,8.403 V 18.485 C 4.27,18.516 3.427,18.6 2.59,18.74 v 6.485 c 0.841,-0.097 1.682,-0.15 2.522,-0.161 m 0,6.392 V 27.767 C 4.294,27.715 3.453,27.689 2.59,27.692 v 2.602 c 0.838,0.421 1.682,0.795 2.522,1.162 m 0,21.45 V 34.321 C 4.298,33.82 3.457,33.353 2.59,32.917 v 19.156 c 0.843,0.301 1.681,0.583 2.522,0.833 m 0,6.187 V 56.374 C 4.242,56.135 3.403,55.84 2.59,55.519 v 2.933 c 0.846,0.2 1.686,0.416 2.522,0.641 m 0,14.51 V 61.917 C 4.283,61.484 3.452,61.074 2.59,60.736 v 13.05 c 0.828,-0.022 1.671,-0.088 2.522,-0.183 m 0,7.743 V 76.327 C 4.268,76.308 3.427,76.254 2.59,76.169 v 4.465 c 0.847,0.314 1.683,0.566 2.522,0.712 m 0,4.006 C 2.553,89.921 1.519,98.123 4.259,103.59 3.696,103.43 3.14,103.261 2.59,103.084 V 83.697 c 0.825,0.283 1.664,0.553 2.522,0.799 z m 0,13.417 v -8.08 c -0.224,0.856 -0.371,1.803 -0.419,2.889 -0.085,1.902 0.07,3.63 0.419,5.191 m 0,12.331 v -5.432 c -0.833,0.451 -1.674,0.843 -2.522,1.18 v 5.896 c 0.855,-0.471 1.697,-1.017 2.522,-1.644 m 0,13.436 v -10.905 c -0.643,0.377 -1.337,0.707 -2.146,1.024 -0.126,0.05 -0.251,0.098 -0.376,0.146 v 13.091 c 0.922,-1.045 1.767,-2.166 2.522,-3.356 m -2.522,6.127 c 0.887,-0.868 1.73,-1.789 2.522,-2.76 v 10.911 c -0.799,0.719 -1.641,1.391 -2.522,2.011 z m 2.522,-24.995 c 0.293,-0.158 0.585,-0.324 0.876,-0.497 0.263,1.61 1.43,2.121 2.158,3.162 -0.979,1.057 -1.993,1.976 -3.034,2.767 z m 0,-21.172 c 0.147,0.042 0.295,0.083 0.443,0.124 -0.152,0.231 -0.3,0.476 -0.443,0.732 z M 8.938,-4.665 v -7.601 c -1.296,0.22 -2.575,0.522 -3.826,0.899 v 8.245 c 1.254,-0.61 2.534,-1.127 3.826,-1.543 m 0,21.194 V -2.229 c -1.3,0.374 -2.581,0.863 -3.826,1.459 v 17.431 c 1.315,-0.14 2.59,-0.18 3.826,-0.132 m 0,8.762 V 18.698 C 7.666,18.514 6.387,18.439 5.112,18.485 v 6.579 c 1.28,-0.016 2.557,0.064 3.826,0.227 m 0,7.974 v -5.04 C 7.716,28.007 6.443,27.852 5.112,27.767 v 3.689 c 1.304,0.569 2.594,1.123 3.826,1.809 m 0,20.506 V 37.102 C 7.743,36.077 6.465,35.153 5.112,34.321 v 18.585 c 1.264,0.376 2.533,0.681 3.826,0.865 m 0,6.405 V 56.975 C 7.588,56.931 6.319,56.705 5.112,56.374 v 2.719 c 1.285,0.347 2.56,0.716 3.826,1.083 m 0,12.858 V 63.871 C 7.599,63.272 6.357,62.568 5.112,61.917 v 11.686 c 1.26,-0.142 2.54,-0.347 3.826,-0.569 m 0,8.065 v -4.953 c -0.119,0.016 -0.239,0.03 -0.358,0.042 -1.165,0.123 -2.32,0.164 -3.468,0.139 v 5.019 c 0.72,0.124 1.442,0.171 2.172,0.111 0.582,-0.047 1.129,-0.177 1.654,-0.358 m 0,24.716 V 83.679 c -1.588,2.457 -3.105,4.259 -3.826,7.01 v 8.08 c 0.659,2.94 2.018,5.282 3.826,7.046 m 0,7.421 v -2.724 c -1.43,1.409 -2.525,2.358 -3.826,3.119 v 10.905 c 2.093,-3.301 3.482,-7.129 3.826,-11.3 m -3.826,14.667 c 1.468,-1.799 2.761,-3.767 3.826,-5.876 v 12.472 c -1.111,1.588 -2.398,3.029 -3.826,4.315 z m 3.826,-17.391 v 2.724 c 0.076,-0.916 0.102,-1.848 0.073,-2.796 z m 0,-73.41 c 4.316,3.702 7.547,8.727 9.313,15.54 -3.376,1.348 -6.407,1.542 -9.313,1.129 z m 11.528,-42.59 v -6.602 c -3.813,-0.781 -7.744,-0.819 -11.528,-0.176 v 7.601 c 3.85,-1.238 7.811,-1.579 11.528,-0.823 m 0,25.431 V -2.27 C 16.754,-3.425 12.765,-3.329 8.938,-2.229 v 18.758 c 4.271,0.168 8.087,1.409 11.528,3.414 m 0,9.041 C 16.845,27.153 12.934,25.806 8.938,25.291 v -6.593 c 4.01,0.581 7.958,2.243 11.528,4.585 z m 0,20.494 V 32.66 C 17.092,30.61 13.349,29.01 8.938,28.225 v 5.04 c 0.99,0.55 1.943,1.187 2.834,1.987 4.146,3.722 5.421,9.618 8.694,14.226 m 0,13.334 v -9.449 c -2.938,1.508 -6.161,3.11 -9.124,3.494 -0.831,0.109 -1.63,0.142 -2.404,0.118 v 3.201 c 3.93,1.14 7.767,2.262 11.528,2.636 m 0,9.084 V 65.8 C 17.56,65.972 14.53,65.68 11.342,64.762 10.496,64.519 9.702,64.212 8.938,63.871 v 9.163 c 3.918,-0.677 7.895,-1.507 11.528,-1.138 m 0,5.989 v -3.507 c -0.642,-0.163 -1.294,-0.274 -1.955,-0.298 -2.874,-0.103 -6.198,1.617 -9.573,2.066 v 4.953 c 2.086,-0.722 3.833,-2.269 6.118,-2.802 1.911,-0.446 3.705,-0.552 5.41,-0.412 m 0,16.43 c -4.377,-3.749 -7.953,-8.592 -8.863,-12.33 3.159,-0.903 6.103,-1.098 8.863,-0.797 z m 0,15.616 V 98.12 C 15.521,94.632 11.819,89.243 9.011,83.565 l -0.073,0.114 v 22.136 c 3.002,2.93 7.234,4.269 11.528,4.116 M 8.938,122.027 c 1.625,-3.218 2.719,-6.764 3.095,-10.533 2.242,3.132 1.614,9.944 0.864,13.7 -0.698,3.497 -2.075,6.613 -3.959,9.305 z M 20.466,98.12 c 3.961,2.793 8.718,4.367 14.454,3.889 -3.206,5.009 -8.88,7.721 -14.454,7.922 z m 0,-16.932 v 13.127 c 7.801,6.681 18.148,9.885 20.501,-2.844 C 35.2,87.319 28.638,82.077 20.466,81.188 m 0,-27.825 v 9.449 c 2.017,0.201 4.013,0.186 5.989,-0.158 5.099,-0.885 9.845,-4.399 13.818,-7.378 -3.839,-1.681 -6.819,-7.701 -11.226,-7.377 -1.98,0.146 -5.412,3.834 -8.205,5.271 z m 0,-20.703 c 3.92,2.381 7.343,5.368 10.739,8.389 -2.634,3.987 -5.663,7.493 -9.932,9.486 -0.283,-0.343 -0.551,-0.696 -0.807,-1.057 z m 0,-9.377 v 5.701 c 5.27,2.664 9.927,6.347 13.33,9.958 -2.382,-5.86 -7.323,-11.72 -13.33,-15.659 m 0,-35.373 v 6.602 c 1.312,0.267 2.594,0.67 3.829,1.219 9.325,4.15 11.261,15.136 16.41,24.768 C 42.446,7.504 40.526,0.261 33.364,-5.849 29.554,-9.099 25.097,-11.142 20.466,-12.09 M 70.979,7.164 V -1.503 C 70.256,-1.551 69.522,-1.583 68.768,-1.58 56.976,-1.522 44.579,4.981 43.729,16.284 50.103,7.066 61.286,4.314 70.979,7.164 m 0,34.48 c -0.33,0.39 -0.637,0.724 -0.909,0.987 -7.277,7.058 -20.441,7.882 -29.365,2.108 C 35.481,34.97 29.174,25.017 20.466,19.943 V -2.27 c 3.721,1.158 7.161,3.57 9.876,7.487 2.521,3.637 4.21,10.572 6.909,15.808 1.416,2.747 3.702,4.55 4.749,6.85 1.538,3.371 2.048,8.321 4.751,11.067 0.851,0.864 4.191,3.872 6.045,1.053 0.347,-2.906 -3.277,-2.635 -4.749,-4.215 -9.216,-9.903 -2.214,-24.401 9.5,-26.875 4.136,-0.872 9.154,-0.165 13.432,1.308 v 6.107 c -6.141,-3.22 -14.005,-1.283 -15.158,8.394 -1.218,10.217 8.001,14.689 11.658,6.323 -2.61,-1.28 -2.261,1.619 -5.183,1.055 -7.7,-1.488 -3.327,-14.068 2.592,-14.755 2.147,-0.249 4.273,0.534 6.091,1.974 z m 0,15.455 V 43.844 c -0.31,0.318 -0.614,0.617 -0.909,0.895 -5.18,4.875 -12.837,8.135 -21.158,6.85 -6.902,-1.065 -11.513,-8.367 -18.14,-6.85 9.389,4.784 15.06,15.28 27.207,15.28 4.436,0 8.921,-1.041 13,-2.92 m 0,17.757 C 63.158,80.604 55.41,86.351 46.58,87.254 37.476,88.186 30.55,78.712 20.466,77.885 v -3.507 c 2.407,0.612 4.666,1.969 6.681,2.338 6.355,1.162 12.728,0.978 18.569,0 6.762,-1.133 11.176,-5.109 17.997,-7.332 -1.293,0.063 -2.596,0.117 -3.903,0.163 -9.786,5.098 -20.531,7.649 -31.798,5.061 C 25.628,74.06 23.5,72.315 21.102,71.974 20.891,71.943 20.679,71.917 20.466,71.896 V 65.8 C 28.317,65.336 35.265,61.479 42,57.385 c 9.088,6.216 19.932,6.199 28.979,2 z m 0,11.058 V 77.16 c -0.934,0.756 -1.868,1.493 -2.807,2.191 -7.731,5.749 -14.712,9.273 -23.318,10.538 5.09,2.455 9.572,3.963 14.681,2.635 4.343,-1.129 8.041,-3.647 11.444,-6.61 m 0,-8.754 c 6.568,-5.315 13.107,-11.542 20.944,-11.51 1.765,0.006 4.288,0.038 5.181,2.108 -3.702,3.172 -7.448,2.353 -11.227,4.742 -5.117,3.235 -9.658,8.853 -14.898,13.414 z m 0,-57.849 c 3.34,2.643 5.644,7.501 5.138,12.254 -0.35,3.284 -3.144,7.715 -5.138,10.079 z m 0,-9.098 c 2.297,0.79 4.381,1.802 6,2.909 5.388,3.68 11.641,11.947 9.934,24.239 -1.233,8.857 -7.767,15.977 -15.934,19.738 V 43.844 C 74.047,40.69 77.672,35.677 78.274,31.565 79.35,24.241 75.667,18.778 70.979,16.32 Z m 0,-11.716 v 8.667 c 10.907,3.205 19.929,13.503 18.09,29.671 -2.048,10.264 -9.203,18.425 -18.09,22.55 v 15.471 c 4.085,-3.002 8.19,-6.003 12.479,-8.316 0.458,-0.207 0.901,-0.436 1.331,-0.692 0.503,-0.252 1.01,-0.494 1.52,-0.724 l -0.616,0.14 c 19.05,-13.4 17.105,-64.648 -14.714,-66.767" />
            </g>
          </g>
        </g>
        <g
           aria-label="dBiz"
           transform="matrix(1,0,0,-1,-0.75433252,12.320764)"
           inkscape:transform-center-x="8.9605786"
           inkscape:transform-center-y="-31.859756"
           style="font-style:normal;font-variant:normal;font-weight:normal;font-stretch:normal;font-size:39.36394882px;line-height:1.25;font-family:'DejaVu Math TeX Gyre';-inkscape-font-specification:'DejaVu Math TeX Gyre';letter-spacing:0px;word-spacing:0px;fill:#f0eadf;fill-opacity:1;stroke:none;stroke-width:2.4602468"
           id="text4528">
          <path
             d="m 11.916845,-740.48511 v -9.84099 h -1.230123 v 9.84099 z m -6.150617,3.69037 -2.4602468,-2.46025 v -12.30123 l 2.4602468,-2.46025 h 6.150617 v -7.38074 h 7.38074 v 24.60247 z"
             style="font-style:normal;font-variant:normal;font-weight:normal;font-stretch:normal;font-family:'High Volume';-inkscape-font-specification:'High Volume';fill:#f0eadf;fill-opacity:1;stroke-width:2.4602468"
             id="path15486"
             inkscape:connector-curvature="0" />
          <path
             d="m 31.598819,-751.55622 v -4.92049 h -1.230123 v 4.92049 z m -9.840987,14.76148 v -7.38074 h -1.230123 v -17.22173 H 38.97956 l 2.460246,2.46025 v 7.38074 l -2.460246,2.46025 2.460246,2.46024 v 1.23013 h -0.615061 v 6.76568 l -0.615062,0.61506 v -4.9205 H 38.97956 v 6.15062 h -0.615062 v -13.53136 h -1.230124 v 13.53136 h -0.615061 v -8.61086 h -1.230124 v 8.61086 h -0.615061 v -11.07111 h -1.230124 v 11.07111 h -0.615061 v -7.38074 h -1.230124 v -2.46025 h -1.230123 v 4.9205 h 1.230123 v 4.92049 h -0.615062 v -2.46025 h -1.230123 v 2.46025 h -0.615062 v -2.46025 h -1.230123 v 2.46025 h -0.615062 v -8.61086 h -1.230123 v 8.61086 h -0.615062 v -12.30123 h -1.230123 v 12.30123 h -0.615062 v -4.92049 h -1.230123 v 4.92049 z"
             style="font-style:normal;font-variant:normal;font-weight:normal;font-stretch:normal;font-family:'High Volume';-inkscape-font-specification:'High Volume';fill:#f0eadf;fill-opacity:1;stroke-width:2.4602468"
             id="path15488"
             inkscape:connector-curvature="0" />
          <path
             d="m 42.66993,-736.79474 v -17.22173 h 7.38074 v 17.22173 z m 0,-18.45185 v -6.15062 h 7.38074 v 6.15062 z"
             style="font-style:normal;font-variant:normal;font-weight:normal;font-stretch:normal;font-family:'High Volume';-inkscape-font-specification:'High Volume';fill:#f0eadf;fill-opacity:1;stroke-width:2.4602468"
             id="path15490"
             inkscape:connector-curvature="0" />
          <path
             d="m 51.280793,-736.79474 v -8.61086 l 2.460247,-2.46025 h 6.150617 v -2.46025 h -1.230124 v 1.23013 h -7.38074 v -2.46025 l 2.460247,-2.46025 h 13.531357 v 7.38074 l -2.460247,2.46025 h -6.150617 v 3.69037 h 1.230124 v -2.46025 h 7.38074 v 3.69037 l -2.460247,2.46025 z"
             style="font-style:normal;font-variant:normal;font-weight:normal;font-stretch:normal;font-family:'High Volume';-inkscape-font-specification:'High Volume';fill:#f0eadf;fill-opacity:1;stroke-width:2.4602468"
             id="path15492"
             inkscape:connector-curvature="0" />
        </g>
      </g>
    </g>
  </g>
</svg>
