<?xml version="1.0" encoding="UTF-8" standalone="no"?>
<!-- Created with Inkscape (http://www.inkscape.org/) -->

<svg
   xmlns:dc="http://purl.org/dc/elements/1.1/"
   xmlns:cc="http://creativecommons.org/ns#"
   xmlns:rdf="http://www.w3.org/1999/02/22-rdf-syntax-ns#"
   xmlns:svg="http://www.w3.org/2000/svg"
   xmlns="http://www.w3.org/2000/svg"
   xmlns:sodipodi="http://sodipodi.sourceforge.net/DTD/sodipodi-0.dtd"
   xmlns:inkscape="http://www.inkscape.org/namespaces/inkscape"
   width="510"
   height="380"
   viewBox="0 0 134.9375 100.54167"
   version="1.1"
   id="svg1176"
   inkscape:version="0.92.2 (5c3e80d, 2017-08-06)"
   sodipodi:docname="PvC64.svg">
  <defs
     id="defs1170" />
  <sodipodi:namedview
     id="base"
     pagecolor="#ffffff"
     bordercolor="#666666"
     borderopacity="1.0"
     inkscape:pageopacity="0.0"
     inkscape:pageshadow="2"
     inkscape:zoom="1"
     inkscape:cx="306.8876"
     inkscape:cy="319.69914"
     inkscape:document-units="px"
     inkscape:current-layer="layer1"
     showgrid="false"
     units="px"
     inkscape:showpageshadow="false"
     inkscape:pagecheckerboard="true"
     inkscape:window-width="1900"
     inkscape:window-height="889"
     inkscape:window-x="-1"
     inkscape:window-y="122"
     inkscape:window-maximized="0"
     showguides="true"
     inkscape:guide-bbox="true">
    <sodipodi:guide
       position="67.468751,93.364845"
       orientation="1,0"
       id="guide826"
       inkscape:locked="false" />
    <sodipodi:guide
       position="88.635414,85.725001"
       orientation="0,1"
       id="guide5547"
       inkscape:locked="false" />
  </sodipodi:namedview>
  <metadata
     id="metadata1173">
    <rdf:RDF>
      <cc:Work
         rdf:about="">
        <dc:format>image/svg+xml</dc:format>
        <dc:type
           rdf:resource="http://purl.org/dc/dcmitype/StillImage" />
        <dc:title />
      </cc:Work>
    </rdf:RDF>
  </metadata>
  <g
     inkscape:label="Ebene 1"
     inkscape:groupmode="layer"
     id="layer1"
     transform="translate(0,-196.45832)">
    <rect
       style="opacity:1;fill:#0000aa;fill-opacity:1;stroke:none;stroke-width:0.17248721;stroke-linecap:butt;stroke-linejoin:miter;stroke-miterlimit:4;stroke-dasharray:none;stroke-opacity:1;paint-order:normal"
       id="rect1723"
       width="134.9375"
       height="100.54166"
       x="0"
       y="196.45833" />
    <rect
       style="opacity:1;fill:#0088ff;fill-opacity:1;stroke:none;stroke-width:0.8142733;stroke-linecap:butt;stroke-linejoin:miter;stroke-miterlimit:4;stroke-dasharray:none;stroke-opacity:1;paint-order:normal"
       id="rect875"
       width="134.9375"
       height="13.758333"
       x="0"
       y="283.24167" />
    <rect
       y="196.45822"
       x="0"
       height="13.758333"
       width="134.9375"
       id="rect877"
       style="opacity:1;fill:#0088ff;fill-opacity:1;stroke:none;stroke-width:0.8142733;stroke-linecap:butt;stroke-linejoin:miter;stroke-miterlimit:4;stroke-dasharray:none;stroke-opacity:1;paint-order:normal" />
    <rect
       style="opacity:1;fill:#0088ff;fill-opacity:1;stroke:none;stroke-width:0.6164605;stroke-linecap:butt;stroke-linejoin:miter;stroke-miterlimit:4;stroke-dasharray:none;stroke-opacity:1;paint-order:normal"
       id="rect4504"
       width="100.54167"
       height="10.583334"
       x="196.4583"
       y="-10.583334"
       transform="rotate(90)" />
    <rect
       transform="rotate(90)"
       y="-134.93753"
       x="196.45831"
       height="10.583334"
       width="100.54166"
       id="rect839"
       style="opacity:1;fill:#0088ff;fill-opacity:1;stroke:none;stroke-width:0.6164605;stroke-linecap:butt;stroke-linejoin:miter;stroke-miterlimit:4;stroke-dasharray:none;stroke-opacity:1;paint-order:normal" />
    <text
       xml:space="preserve"
       style="font-style:normal;font-variant:normal;font-weight:normal;font-stretch:normal;font-size:2.82222223px;line-height:1.25;font-family:'C64 Pro Mono';-inkscape-font-specification:'C64 Pro Mono, Normal';font-variant-ligatures:normal;font-variant-caps:normal;font-variant-numeric:normal;font-feature-settings:normal;text-align:start;letter-spacing:0px;word-spacing:0px;writing-mode:lr-tb;text-anchor:start;display:none;fill:#0088ff;fill-opacity:1;stroke:none;stroke-width:0.26458335"
       x="11.127965"
       y="215.85936"
       id="text885"><tspan
         sodipodi:role="line"
         id="tspan5573"
         x="11.127965"
         y="215.85936">        **** PVC 64 BASIC V2 ****</tspan><tspan
         sodipodi:role="line"
         id="tspan5575"
         x="11.127965"
         y="219.38713" /><tspan
         sodipodi:role="line"
         id="tspan5577"
         x="11.127965"
         y="222.91492"> 64K RAM SYSTEM  38911 BASIC BYTES FREE</tspan><tspan
         sodipodi:role="line"
         id="tspan5579"
         x="11.127965"
         y="226.44269" /><tspan
         sodipodi:role="line"
         id="tspan5581"
         x="11.127965"
         y="229.97047">READY.</tspan><tspan
         sodipodi:role="line"
         id="tspan5583"
         x="11.127965"
         y="233.49825">█</tspan></text>
    <g
       aria-label="        **** PVC 64 BASIC V2 ****   64K RAM SYSTEM  38911 BASIC BYTES FREE  READY. █"
       style="font-style:normal;font-variant:normal;font-weight:normal;font-stretch:normal;font-size:2.82222223px;line-height:1.25;font-family:'C64 Pro Mono';-inkscape-font-specification:'C64 Pro Mono, Normal';font-variant-ligatures:normal;font-variant-caps:normal;font-variant-numeric:normal;font-feature-settings:normal;text-align:start;letter-spacing:0px;word-spacing:0px;writing-mode:lr-tb;text-anchor:start;fill:#0088ff;fill-opacity:1;stroke:none;stroke-width:0.26458335"
       id="text5597">
      <path
         d="m 34.058521,215.50658 v -0.35278 h 0.352777 v -0.35277 h -0.705555 v -0.35278 h 0.705555 v -0.35278 h -0.352777 v -0.35278 h 0.705555 v 0.35278 h 0.705556 v -0.35278 h 0.705555 v 0.35278 H 35.82241 v 0.35278 h 0.705555 v 0.35278 H 35.82241 v 0.35277 h 0.352777 v 0.35278 h -0.705555 v -0.35278 h -0.705556 v 0.35278 z"
         id="path5599"
         inkscape:connector-curvature="0" />
      <path
         d="m 36.880742,215.50658 v -0.35278 h 0.352778 v -0.35277 h -0.705555 v -0.35278 h 0.705555 v -0.35278 h -0.352778 v -0.35278 h 0.705556 v 0.35278 h 0.705555 v -0.35278 h 0.705556 v 0.35278 h -0.352778 v 0.35278 h 0.705556 v 0.35278 h -0.705556 v 0.35277 h 0.352778 v 0.35278 h -0.705556 v -0.35278 h -0.705555 v 0.35278 z"
         id="path5601"
         inkscape:connector-curvature="0" />
      <path
         d="m 39.702964,215.50658 v -0.35278 h 0.352778 v -0.35277 h -0.705556 v -0.35278 h 0.705556 v -0.35278 h -0.352778 v -0.35278 h 0.705556 v 0.35278 h 0.705555 v -0.35278 h 0.705556 v 0.35278 h -0.352778 v 0.35278 h 0.705556 v 0.35278 h -0.705556 v 0.35277 h 0.352778 v 0.35278 H 41.114075 V 215.1538 H 40.40852 v 0.35278 z"
         id="path5603"
         inkscape:connector-curvature="0" />
      <path
         d="m 42.525188,215.50658 v -0.35278 h 0.352778 v -0.35277 H 42.17241 v -0.35278 h 0.705556 v -0.35278 h -0.352778 v -0.35278 h 0.705555 v 0.35278 h 0.705556 v -0.35278 h 0.705555 v 0.35278 h -0.352777 v 0.35278 h 0.705555 v 0.35278 h -0.705555 v 0.35277 h 0.352777 v 0.35278 h -0.705555 v -0.35278 h -0.705556 v 0.35278 z"
         id="path5605"
         inkscape:connector-curvature="0" />
      <path
         d="m 48.169631,215.85936 v -2.46944 h 1.763889 v 0.35277 h 0.352778 v 0.70556 H 49.93352 v 0.35278 h -1.058333 v 1.05833 z m 0.705556,-1.41111 h 0.705555 v -0.70556 h -0.705555 z"
         id="path5607"
         inkscape:connector-curvature="0" />
      <path
         d="m 51.697411,215.85936 v -0.35278 h -0.352778 v -0.35278 h -0.352778 v -1.76388 h 0.705556 v 1.76388 h 0.705555 v -1.76388 h 0.705556 v 1.76388 h -0.352778 v 0.35278 h -0.352778 v 0.35278 z"
         id="path5609"
         inkscape:connector-curvature="0" />
      <path
         d="m 54.166853,215.85936 v -0.35278 h -0.352778 v -1.76389 h 0.352778 v -0.35277 h 1.411111 v 0.35277 h 0.352777 v 0.35278 h -0.705555 v -0.35278 H 54.51963 v 1.76389 h 0.705556 v -0.35278 h 0.705555 v 0.35278 h -0.352777 v 0.35278 z"
         id="path5611"
         inkscape:connector-curvature="0" />
      <path
         d="m 60.164078,215.50658 h 0.705555 v -0.70555 h -0.705555 z m -0.352778,0.35278 v -0.35278 h -0.352778 v -1.76389 H 59.8113 v -0.35277 h 1.411111 v 0.35277 h 0.352778 v 0.35278 h -0.705556 v -0.35278 h -0.705555 v 0.70556 h 1.058333 v 0.35278 h 0.352778 v 0.70555 h -0.352778 v 0.35278 z"
         id="path5613"
         inkscape:connector-curvature="0" />
      <path
         d="m 63.691853,215.85936 v -0.70556 h -1.411111 v -0.70555 h 0.705556 v 0.35278 h 0.705555 v -0.35278 h -0.705555 v -0.35278 h 0.352777 v -0.35278 h 0.352778 v -0.35277 h 0.705556 v 1.41111 h 0.352777 v 0.35277 h -0.352777 v 0.70556 z"
         id="path5615"
         inkscape:connector-curvature="0" />
      <path
         d="m 67.925186,215.85936 v -2.46944 h 1.763888 v 0.35277 h 0.352778 v 0.70556 h -0.352778 v 0.35278 h 0.352778 v 0.70555 h -0.352778 v 0.35278 z m 0.705555,-0.35278 h 0.705556 v -0.70555 h -0.705556 z m 0,-1.05833 h 0.705556 v -0.70556 h -0.705556 z"
         id="path5617"
         inkscape:connector-curvature="0" />
      <path
         d="m 70.747409,215.85936 v -1.76389 h 0.352778 v -0.35278 h 0.352778 v -0.35277 h 0.705555 v 0.35277 h 0.352778 v 0.35278 h 0.352778 v 1.76389 H 72.15852 v -1.05833 h -0.705555 v 1.05833 z m 0.705556,-1.41111 h 0.705555 v -0.35278 h -0.705555 z"
         id="path5619"
         inkscape:connector-curvature="0" />
      <path
         d="m 73.922411,215.85936 v -0.35278 h -0.352778 v -0.35278 h 0.705555 v 0.35278 h 0.705556 v -0.70555 h -1.058333 v -0.35278 h -0.352778 v -0.70556 h 0.352778 v -0.35277 h 1.411111 v 0.35277 H 75.6863 v 0.35278 h -0.705556 v -0.35278 h -0.705556 v 0.70556 h 1.058334 v 0.35278 H 75.6863 v 0.70555 h -0.352778 v 0.35278 z"
         id="path5621"
         inkscape:connector-curvature="0" />
      <path
         d="m 78.155742,213.38992 v 0.35277 h -0.352778 v 1.76389 h 0.352778 v 0.35278 H 76.74463 v -0.35278 h 0.352778 v -1.76389 H 76.74463 v -0.35277 z"
         id="path5623"
         inkscape:connector-curvature="0" />
      <path
         d="m 79.566858,215.85936 v -0.35278 H 79.21408 v -1.76389 h 0.352778 v -0.35277 h 1.411111 v 0.35277 h 0.352778 v 0.35278 h -0.705556 v -0.35278 h -0.705555 v 1.76389 h 0.705555 v -0.35278 h 0.705556 v 0.35278 h -0.352778 v 0.35278 z"
         id="path5625"
         inkscape:connector-curvature="0" />
      <path
         d="m 85.564075,215.85936 v -0.35278 H 85.211298 V 215.1538 H 84.85852 v -1.76388 h 0.705555 v 1.76388 h 0.705556 v -1.76388 h 0.705556 v 1.76388 h -0.352778 v 0.35278 h -0.352778 v 0.35278 z"
         id="path5627"
         inkscape:connector-curvature="0" />
      <path
         d="m 87.68074,215.85936 v -0.70556 h 0.352777 v -0.35277 h 0.705556 v -0.35278 h 0.352778 v -0.70556 h -0.705556 v 0.35278 H 87.68074 v -0.35278 h 0.352777 v -0.35277 h 1.411112 v 0.35277 h 0.352777 v 0.70556 h -0.352777 v 0.35278 h -0.705556 v 0.35277 l -0.352778,-10e-4 v 0.35415 h 1.411111 v 0.35278 z"
         id="path5629"
         inkscape:connector-curvature="0" />
      <path
         d="m 93.325187,215.50658 v -0.35278 h 0.352778 v -0.35277 h -0.705556 v -0.35278 h 0.705556 v -0.35278 h -0.352778 v -0.35278 h 0.705556 v 0.35278 h 0.705555 v -0.35278 h 0.705556 v 0.35278 h -0.352778 v 0.35278 h 0.705555 v 0.35278 h -0.705555 v 0.35277 h 0.352778 v 0.35278 h -0.705556 v -0.35278 h -0.705555 v 0.35278 z"
         id="path5631"
         inkscape:connector-curvature="0" />
      <path
         d="m 96.147407,215.50658 v -0.35278 h 0.352778 v -0.35277 h -0.705556 v -0.35278 h 0.705556 v -0.35278 h -0.352778 v -0.35278 h 0.705555 v 0.35278 h 0.705556 v -0.35278 h 0.705556 v 0.35278 h -0.352778 v 0.35278 h 0.705555 v 0.35278 h -0.705555 v 0.35277 h 0.352778 v 0.35278 h -0.705556 v -0.35278 h -0.705556 v 0.35278 z"
         id="path5633"
         inkscape:connector-curvature="0" />
      <path
         d="m 98.969634,215.50658 v -0.35278 h 0.352778 v -0.35277 h -0.705555 v -0.35278 h 0.705555 v -0.35278 h -0.352778 v -0.35278 h 0.705556 v 0.35278 h 0.70556 v -0.35278 h 0.70555 v 0.35278 h -0.35278 v 0.35278 h 0.70556 v 0.35278 h -0.70556 v 0.35277 h 0.35278 v 0.35278 h -0.70555 v -0.35278 h -0.70556 v 0.35278 z"
         id="path5635"
         inkscape:connector-curvature="0" />
      <path
         d="m 101.79185,215.50658 v -0.35278 h 0.35278 v -0.35277 h -0.70555 v -0.35278 h 0.70555 v -0.35278 h -0.35278 v -0.35278 h 0.70556 v 0.35278 h 0.70556 v -0.35278 h 0.70555 v 0.35278 h -0.35278 v 0.35278 h 0.70556 v 0.35278 h -0.70556 v 0.35277 h 0.35278 v 0.35278 h -0.70555 v -0.35278 h -0.70556 v 0.35278 z"
         id="path5637"
         inkscape:connector-curvature="0" />
      <path
         d="m 15.008521,222.56214 h 0.705555 v -0.70556 h -0.705555 z m -0.352778,0.35278 v -0.35278 h -0.352778 v -1.76389 h 0.352778 v -0.35278 h 1.411111 v 0.35278 h 0.352778 v 0.35278 h -0.705556 v -0.35278 h -0.705555 v 0.70555 h 1.058333 v 0.35278 h 0.352778 v 0.70556 h -0.352778 v 0.35278 z"
         id="path5639"
         inkscape:connector-curvature="0" />
      <path
         d="m 18.536298,222.91492 v -0.70556 h -1.411111 v -0.70556 h 0.705556 v 0.35278 h 0.705555 v -0.35278 h -0.705555 v -0.35277 h 0.352778 v -0.35278 h 0.352777 v -0.35278 h 0.705556 v 1.41111 h 0.352778 v 0.35278 h -0.352778 v 0.70556 z"
         id="path5641"
         inkscape:connector-curvature="0" />
      <path
         d="m 19.94741,222.91492 v -2.46945 h 0.705555 v 0.70556 h 0.352778 v -0.35278 h 0.352778 v -0.35278 h 0.705556 v 0.35278 h -0.352778 v 0.35278 h -0.352778 v 0.35277 h -0.352778 v 0.35278 h 0.352778 v 0.35278 h 0.352778 v 0.35278 h 0.352778 v 0.35278 h -0.705556 v -0.35278 h -0.352778 v -0.35278 h -0.352778 v 0.70556 z"
         id="path5643"
         inkscape:connector-curvature="0" />
      <path
         d="m 25.591853,222.91492 v -2.46945 h 1.763889 v 0.35278 h 0.352778 v 0.70555 h -0.352778 v 0.35278 h -0.352777 v 0.35278 h 0.352777 v 0.35278 h 0.352778 v 0.35278 h -0.705555 v -0.35278 h -0.352778 v -0.35278 h -0.352778 v 0.70556 z m 0.705556,-1.41112 h 0.705556 v -0.70555 h -0.705556 z"
         id="path5645"
         inkscape:connector-curvature="0" />
      <path
         d="m 28.414077,222.91492 v -1.76389 h 0.352778 v -0.35278 h 0.352778 v -0.35278 h 0.705555 v 0.35278 h 0.352778 v 0.35278 h 0.352778 v 1.76389 h -0.705556 v -1.05834 h -0.705555 v 1.05834 z m 0.705556,-1.41112 h 0.705555 v -0.35277 h -0.705555 z"
         id="path5647"
         inkscape:connector-curvature="0" />
      <path
         d="m 31.236299,222.91492 v -2.46945 h 0.705555 v 0.35278 h 0.352778 v 0.35278 h 0.352778 v -0.35278 h 0.352778 v -0.35278 h 0.705555 v 2.46945 H 33.000188 V 221.5038 H 32.64741 v 0.35278 h -0.352778 v -0.35278 h -0.352778 v 1.41112 z"
         id="path5649"
         inkscape:connector-curvature="0" />
      <path
         d="m 37.23352,222.91492 v -0.35278 h -0.352778 v -0.35278 h 0.705556 v 0.35278 h 0.705555 v -0.70556 H 37.23352 v -0.35278 h -0.352778 v -0.70555 h 0.352778 v -0.35278 h 1.411111 v 0.35278 h 0.352778 v 0.35278 h -0.705556 v -0.35278 h -0.705555 v 0.70555 h 1.058333 v 0.35278 h 0.352778 v 0.70556 h -0.352778 v 0.35278 z"
         id="path5651"
         inkscape:connector-curvature="0" />
      <path
         d="m 40.40852,222.91492 v -1.05834 h -0.352778 v -0.35278 h -0.352778 v -1.05833 h 0.705556 v 1.05833 h 0.705555 v -1.05833 h 0.705556 v 1.05833 h -0.352778 v 0.35278 h -0.352778 v 1.05834 z"
         id="path5653"
         inkscape:connector-curvature="0" />
      <path
         d="m 42.877966,222.91492 v -0.35278 h -0.352778 v -0.35278 h 0.705555 v 0.35278 h 0.705556 v -0.70556 h -1.058333 v -0.35278 h -0.352778 v -0.70555 h 0.352778 v -0.35278 h 1.411111 v 0.35278 h 0.352777 v 0.35278 h -0.705555 v -0.35278 h -0.705556 v 0.70555 h 1.058334 v 0.35278 h 0.352777 v 0.70556 h -0.352777 v 0.35278 z"
         id="path5655"
         inkscape:connector-curvature="0" />
      <path
         d="m 46.052967,222.91492 v -2.11667 h -0.705556 v -0.35278 h 2.116667 v 0.35278 h -0.705555 v 2.11667 z"
         id="path5657"
         inkscape:connector-curvature="0" />
      <path
         d="m 50.286298,220.44547 v 0.35278 h -1.411111 v 0.70555 h 0.705555 v 0.35278 h -0.705555 v 0.70556 h 1.411111 v 0.35278 h -2.116667 v -2.46945 z"
         id="path5659"
         inkscape:connector-curvature="0" />
      <path
         d="m 50.991855,222.91492 v -2.46945 h 0.705556 v 0.35278 h 0.352777 v 0.35278 h 0.352778 v -0.35278 h 0.352778 v -0.35278 h 0.705555 v 2.46945 h -0.705555 v -1.41112 h -0.352778 v 0.35278 h -0.352778 v -0.35278 h -0.352777 v 1.41112 z"
         id="path5661"
         inkscape:connector-curvature="0" />
      <path
         d="m 59.8113,222.91492 v -0.35278 h -0.352778 v -0.35278 h 0.705556 v 0.35278 h 0.705555 v -0.70556 h -0.705555 v -0.35278 h 0.705555 v -0.70555 h -0.705555 v 0.35278 h -0.705556 v -0.35278 H 59.8113 v -0.35278 h 1.411111 v 0.35278 h 0.352778 v 0.70555 h -0.352778 v 0.35278 h 0.352778 v 0.70556 h -0.352778 v 0.35278 z"
         id="path5663"
         inkscape:connector-curvature="0" />
      <path
         d="m 62.63352,222.91492 v -0.35278 h -0.352778 v -0.70556 h 0.352778 v -0.35278 h -0.352778 v -0.70555 h 0.352778 v -0.35278 h 1.411111 v 0.35278 h 0.352778 v 0.70555 h -0.352778 v 0.35278 h 0.352778 v 0.70556 h -0.352778 v 0.35278 z m 0.352778,-1.41112 h 0.705555 v -0.70555 h -0.705555 z m 0,1.05834 h 0.705555 v -0.70556 h -0.705555 z"
         id="path5665"
         inkscape:connector-curvature="0" />
      <path
         d="m 65.455743,222.91492 v -0.35278 h -0.352777 v -0.35278 h 0.705555 v 0.35278 h 0.705556 v -0.70556 h -1.058334 v -0.35278 h -0.352777 v -0.70555 h 0.352777 v -0.35278 h 1.411112 v 0.35278 h 0.352777 v 1.76389 h -0.352777 v 0.35278 z m 0.352778,-1.41112 h 0.705556 v -0.70555 h -0.705556 z"
         id="path5667"
         inkscape:connector-curvature="0" />
      <path
         d="m 67.925186,222.91492 v -0.35278 h 0.705555 v -1.05834 h -0.352778 v -0.35277 h 0.352778 v -0.70556 h 0.705556 v 2.11667 h 0.705555 v 0.35278 z"
         id="path5669"
         inkscape:connector-curvature="0" />
      <path
         d="m 70.747409,222.91492 v -0.35278 h 0.705556 v -1.05834 h -0.352778 v -0.35277 h 0.352778 v -0.70556 h 0.705555 v 2.11667 h 0.705556 v 0.35278 z"
         id="path5671"
         inkscape:connector-curvature="0" />
      <path
         d="m 76.391853,222.91492 v -2.46945 h 1.763889 v 0.35278 h 0.352777 v 0.70555 h -0.352777 v 0.35278 h 0.352777 v 0.70556 h -0.352777 v 0.35278 z m 0.705555,-0.35278 h 0.705556 v -0.70556 h -0.705556 z m 0,-1.05834 h 0.705556 v -0.70555 h -0.705556 z"
         id="path5673"
         inkscape:connector-curvature="0" />
      <path
         d="m 79.21408,222.91492 v -1.76389 h 0.352778 v -0.35278 h 0.352778 v -0.35278 h 0.705555 v 0.35278 h 0.352778 v 0.35278 h 0.352778 v 1.76389 h -0.705556 v -1.05834 h -0.705555 v 1.05834 z m 0.705556,-1.41112 h 0.705555 v -0.35277 h -0.705555 z"
         id="path5675"
         inkscape:connector-curvature="0" />
      <path
         d="m 82.389078,222.91492 v -0.35278 H 82.0363 v -0.35278 h 0.705556 v 0.35278 h 0.705555 v -0.70556 H 82.389078 V 221.5038 H 82.0363 v -0.70555 h 0.352778 v -0.35278 h 1.411111 v 0.35278 h 0.352778 v 0.35278 h -0.705556 v -0.35278 h -0.705555 v 0.70555 h 1.058333 v 0.35278 h 0.352778 v 0.70556 h -0.352778 v 0.35278 z"
         id="path5677"
         inkscape:connector-curvature="0" />
      <path
         d="m 86.622409,220.44547 v 0.35278 h -0.352778 v 1.76389 h 0.352778 v 0.35278 h -1.411111 v -0.35278 h 0.352777 v -1.76389 h -0.352777 v -0.35278 z"
         id="path5679"
         inkscape:connector-curvature="0" />
      <path
         d="m 88.033517,222.91492 v -0.35278 H 87.68074 v -1.76389 h 0.352777 v -0.35278 h 1.411112 v 0.35278 h 0.352777 v 0.35278 h -0.705555 v -0.35278 h -0.705556 v 1.76389 h 0.705556 v -0.35278 h 0.705555 v 0.35278 h -0.352777 v 0.35278 z"
         id="path5681"
         inkscape:connector-curvature="0" />
      <path
         d="m 93.325187,222.91492 v -2.46945 h 1.763889 v 0.35278 h 0.352778 v 0.70555 h -0.352778 v 0.35278 h 0.352778 v 0.70556 h -0.352778 v 0.35278 z m 0.705556,-0.35278 h 0.705555 v -0.70556 h -0.705555 z m 0,-1.05834 h 0.705555 v -0.70555 h -0.705555 z"
         id="path5683"
         inkscape:connector-curvature="0" />
      <path
         d="m 96.852962,222.91492 v -1.05834 h -0.352777 v -0.35278 h -0.352778 v -1.05833 h 0.705555 v 1.05833 h 0.705556 v -1.05833 h 0.705556 v 1.05833 h -0.352778 v 0.35278 h -0.352778 v 1.05834 z"
         id="path5685"
         inkscape:connector-curvature="0" />
      <path
         d="m 99.67519,222.91492 v -2.11667 h -0.705556 v -0.35278 h 2.116666 v 0.35278 h -0.70555 v 2.11667 z"
         id="path5687"
         inkscape:connector-curvature="0" />
      <path
         d="m 103.90852,220.44547 v 0.35278 h -1.41111 v 0.70555 h 0.70556 v 0.35278 h -0.70556 v 0.70556 h 1.41111 v 0.35278 h -2.11667 v -2.46945 z"
         id="path5689"
         inkscape:connector-curvature="0" />
      <path
         d="m 104.96685,222.91492 v -0.35278 h -0.35278 v -0.35278 h 0.70556 v 0.35278 h 0.70556 v -0.70556 h -1.05834 v -0.35278 h -0.35278 v -0.70555 h 0.35278 v -0.35278 h 1.41111 v 0.35278 h 0.35278 v 0.35278 h -0.70555 v -0.35278 h -0.70556 v 0.70555 h 1.05833 v 0.35278 h 0.35278 v 0.70556 h -0.35278 v 0.35278 z"
         id="path5691"
         inkscape:connector-curvature="0" />
      <path
         d="m 110.25852,222.91492 v -2.46945 h 2.11667 v 0.35278 h -1.41111 v 0.70555 h 0.70555 v 0.35278 h -0.70555 v 1.05834 z"
         id="path5693"
         inkscape:connector-curvature="0" />
      <path
         d="m 113.08074,222.91492 v -2.46945 h 1.76389 v 0.35278 h 0.35278 v 0.70555 h -0.35278 v 0.35278 h -0.35278 v 0.35278 h 0.35278 v 0.35278 h 0.35278 v 0.35278 h -0.70556 v -0.35278 h -0.35278 v -0.35278 h -0.35277 v 0.70556 z m 0.70556,-1.41112 h 0.70555 v -0.70555 h -0.70555 z"
         id="path5695"
         inkscape:connector-curvature="0" />
      <path
         d="m 118.01964,220.44547 v 0.35278 h -1.41112 v 0.70555 h 0.70556 v 0.35278 h -0.70556 v 0.70556 h 1.41112 v 0.35278 h -2.11667 v -2.46945 z"
         id="path5697"
         inkscape:connector-curvature="0" />
      <path
         d="m 120.84186,220.44547 v 0.35278 h -1.41112 v 0.70555 h 0.70556 v 0.35278 h -0.70556 v 0.70556 h 1.41112 v 0.35278 h -2.11667 v -2.46945 z"
         id="path5699"
         inkscape:connector-curvature="0" />
      <path
         d="m 11.480743,229.97047 v -2.46944 h 1.763889 v 0.35277 h 0.352777 v 0.70556 h -0.352777 v 0.35278 h -0.352778 v 0.35278 h 0.352778 v 0.35277 h 0.352777 v 0.35278 h -0.705555 v -0.35278 h -0.352778 v -0.35277 h -0.352778 v 0.70555 z m 0.705555,-1.41111 h 0.705556 v -0.70556 h -0.705556 z"
         id="path5701"
         inkscape:connector-curvature="0" />
      <path
         d="m 16.419632,227.50103 v 0.35277 h -1.411111 v 0.70556 h 0.705555 v 0.35278 h -0.705555 v 0.70555 h 1.411111 v 0.35278 h -2.116667 v -2.46944 z"
         id="path5703"
         inkscape:connector-curvature="0" />
      <path
         d="m 17.125187,229.97047 v -1.76389 h 0.352778 v -0.35278 h 0.352778 v -0.35277 h 0.705555 v 0.35277 h 0.352778 v 0.35278 h 0.352778 v 1.76389 h -0.705556 v -1.05833 h -0.705555 v 1.05833 z m 0.705556,-1.41111 h 0.705555 v -0.35278 h -0.705555 z"
         id="path5705"
         inkscape:connector-curvature="0" />
      <path
         d="m 19.94741,229.97047 v -2.46944 h 1.411111 v 0.35277 h 0.352778 v 0.35278 h 0.352778 v 1.05834 h -0.352778 v 0.35277 h -0.352778 v 0.35278 z m 0.705555,-0.35278 h 0.352778 v -0.35277 h 0.352778 v -1.05834 h -0.352778 v -0.35278 h -0.352778 z"
         id="path5707"
         inkscape:connector-curvature="0" />
      <path
         d="m 23.475187,229.97047 v -1.05833 h -0.352778 v -0.35278 h -0.352777 v -1.05833 h 0.705555 v 1.05833 h 0.705556 v -1.05833 h 0.705555 v 1.05833 h -0.352777 v 0.35278 h -0.352778 v 1.05833 z"
         id="path5709"
         inkscape:connector-curvature="0" />
      <path
         d="m 26.297409,229.97047 v -0.70555 h 0.705556 v 0.70555 z"
         id="path5711"
         inkscape:connector-curvature="0" />
      <path
         d="m 11.127965,233.85103 v -2.82223 h 2.822222 v 2.82223 z"
         id="path5713"
         inkscape:connector-curvature="0" />
    </g>
  </g>
</svg>
