<?xml version="1.0" encoding="UTF-8" standalone="no"?>
<!-- Created with Inkscape (http://www.inkscape.org/) -->

<svg
   xmlns:dc="http://purl.org/dc/elements/1.1/"
   xmlns:cc="http://creativecommons.org/ns#"
   xmlns:rdf="http://www.w3.org/1999/02/22-rdf-syntax-ns#"
   xmlns:svg="http://www.w3.org/2000/svg"
   xmlns="http://www.w3.org/2000/svg"
   xmlns:sodipodi="http://sodipodi.sourceforge.net/DTD/sodipodi-0.dtd"
   xmlns:inkscape="http://www.inkscape.org/namespaces/inkscape"
   width="30"
   height="380"
   viewBox="0 0 7.9375003 100.54167"
   version="1.1"
   id="svg8"
   inkscape:version="0.92.2 (5c3e80d, 2017-08-06)"
   sodipodi:docname="TaHaSaHaN.svg">
  <defs
     id="defs2" />
  <sodipodi:namedview
     id="base"
     pagecolor="#b3b1b0"
     bordercolor="#666666"
     borderopacity="1.0"
     inkscape:pageopacity="0.68235294"
     inkscape:pageshadow="2"
     inkscape:zoom="2.8284271"
     inkscape:cx="45.274279"
     inkscape:cy="170.52549"
     inkscape:document-units="px"
     inkscape:current-layer="g1796"
     showgrid="false"
     units="px"
     inkscape:snap-bbox="true"
     inkscape:snap-page="true"
     inkscape:bbox-nodes="true"
     inkscape:snap-bbox-edge-midpoints="true"
     inkscape:window-width="1730"
     inkscape:window-height="900"
     inkscape:window-x="18"
     inkscape:window-y="54"
     inkscape:window-maximized="0"
     inkscape:showpageshadow="false"
     showborder="true"
     inkscape:pagecheckerboard="true"
     showguides="true"
     inkscape:guide-bbox="true">
    <inkscape:grid
       type="xygrid"
       id="grid853" />
    <sodipodi:guide
       position="3.9697837,87.892312"
       orientation="1,0"
       id="guide831"
       inkscape:locked="false" />
  </sodipodi:namedview>
  <metadata
     id="metadata5">
    <rdf:RDF>
      <cc:Work
         rdf:about="">
        <dc:format>image/svg+xml</dc:format>
        <dc:type
           rdf:resource="http://purl.org/dc/dcmitype/StillImage" />
        <dc:title />
      </cc:Work>
    </rdf:RDF>
  </metadata>
  <g
     style="display:inline"
     transform="translate(0,-196.45832)"
     id="g1796"
     inkscape:label="single">
    <rect
       style="display:none;opacity:1;fill:#000000;fill-opacity:1;stroke:none;stroke-width:0;stroke-linecap:square;stroke-linejoin:round;stroke-miterlimit:1.29999995;stroke-dasharray:none;stroke-opacity:1;paint-order:stroke markers fill"
       id="rect864"
       width="5.8208337"
       height="5.8208337"
       x="1.0583334"
       y="285.35834"
       rx="2.9104168"
       ry="2.9104168" />
    <rect
       ry="2.9104168"
       rx="2.9104168"
       y="254.13718"
       x="1.0583334"
       height="5.8208337"
       width="5.8208337"
       id="rect866"
       style="display:none;opacity:1;fill:#000000;fill-opacity:1;stroke:none;stroke-width:0;stroke-linecap:square;stroke-linejoin:round;stroke-miterlimit:1.29999995;stroke-dasharray:none;stroke-opacity:1;paint-order:stroke markers fill" />
    <rect
       style="display:none;opacity:1;fill:#000000;fill-opacity:1;stroke:none;stroke-width:0;stroke-linecap:square;stroke-linejoin:round;stroke-miterlimit:1.29999995;stroke-dasharray:none;stroke-opacity:1;paint-order:stroke markers fill"
       id="rect868"
       width="5.8208337"
       height="5.8208337"
       x="1.0583334"
       y="243.02501"
       rx="2.9104168"
       ry="2.9104168" />
    <rect
       ry="2.9104168"
       rx="2.9104168"
       y="231.38332"
       x="1.0583334"
       height="5.8208337"
       width="5.8208337"
       id="rect870"
       style="display:none;opacity:1;fill:#000000;fill-opacity:1;stroke:none;stroke-width:0;stroke-linecap:square;stroke-linejoin:round;stroke-miterlimit:1.29999995;stroke-dasharray:none;stroke-opacity:1;paint-order:stroke markers fill" />
    <rect
       style="display:none;opacity:1;fill:#000000;fill-opacity:1;stroke:none;stroke-width:0;stroke-linecap:square;stroke-linejoin:round;stroke-miterlimit:1.29999995;stroke-dasharray:none;stroke-opacity:1;paint-order:stroke markers fill"
       id="rect880"
       width="5.8208337"
       height="5.8208337"
       x="1.0583334"
       y="202.2791"
       rx="2.9104168"
       ry="2.9104168" />
    <rect
       ry="2.9104168"
       rx="2.9104168"
       y="213.3916"
       x="1.0583334"
       height="5.8208337"
       width="5.8208337"
       id="rect882"
       style="display:none;opacity:1;fill:#000000;fill-opacity:1;stroke:none;stroke-width:0;stroke-linecap:square;stroke-linejoin:round;stroke-miterlimit:1.29999995;stroke-dasharray:none;stroke-opacity:1;paint-order:stroke markers fill" />
    <rect
       style="display:none;opacity:1;fill:#000000;fill-opacity:1;stroke:none;stroke-width:0;stroke-linecap:square;stroke-linejoin:round;stroke-miterlimit:1.29999995;stroke-dasharray:none;stroke-opacity:1;paint-order:stroke markers fill"
       id="rect914"
       width="5.8208337"
       height="5.8208337"
       x="1.0583334"
       y="271.07047"
       rx="2.9104168"
       ry="2.9104168" />
    <rect
       ry="2.9104168"
       rx="2.9104168"
       y="264.72046"
       x="1.0583334"
       height="5.8208337"
       width="5.8208337"
       id="rect916"
       style="display:none;opacity:1;fill:#000000;fill-opacity:1;stroke:none;stroke-width:0;stroke-linecap:square;stroke-linejoin:round;stroke-miterlimit:1.29999995;stroke-dasharray:none;stroke-opacity:1;paint-order:stroke markers fill" />
    <path
       inkscape:connector-curvature="0"
       id="path1790"
       transform="matrix(0.26458335,0,0,0.26458335,0,196.45832)"
       d="m 0,365 v 15 h 30 v -15 z m 7.5,4.25 h 15 c 1.8005,0 3.25,1.4495 3.25,3.25 0,1.8005 -1.4495,3.25 -3.25,3.25 h -15 c -1.8005,0 -3.25,-1.4495 -3.25,-3.25 0,-1.8005 1.4495,-3.25 3.25,-3.25 z"
       style="opacity:1;vector-effect:none;fill:#808080;fill-opacity:1;fill-rule:evenodd;stroke:none;stroke-width:0.21073182;stroke-linecap:butt;stroke-linejoin:round;stroke-miterlimit:4;stroke-dasharray:none;stroke-dashoffset:0;stroke-opacity:1;paint-order:normal" />
    <path
       inkscape:connector-curvature="0"
       id="path1792"
       d="m 0,200.42707 h 7.9375004 v 92.60417 H 0 Z"
       style="opacity:1;vector-effect:none;fill:#808080;fill-opacity:1;fill-rule:evenodd;stroke:none;stroke-width:0.2693277;stroke-linecap:butt;stroke-linejoin:round;stroke-miterlimit:4;stroke-dasharray:none;stroke-dashoffset:0;stroke-opacity:1;paint-order:normal" />
    <path
       style="opacity:1;vector-effect:none;fill:#808080;fill-opacity:1;fill-rule:evenodd;stroke:none;stroke-width:0.05575613;stroke-linecap:butt;stroke-linejoin:round;stroke-miterlimit:4;stroke-dasharray:none;stroke-dashoffset:0;stroke-opacity:1;paint-order:normal"
       d="m 0,196.45832 v 3.96875 h 7.9375005 v -3.96875 z m 1.9843751,1.12448 h 3.9687503 c 0.4763823,0 0.8598959,0.38351 0.8598959,0.8599 0,0.47638 -0.3835136,0.85989 -0.8598959,0.85989 H 1.9843751 c -0.4763823,0 -0.8598959,-0.38351 -0.8598959,-0.85989 0,-0.47639 0.3835136,-0.8599 0.8598959,-0.8599 z"
       id="path1794"
       inkscape:connector-curvature="0" />
    <path
       style="opacity:1;vector-effect:none;fill:#696969;fill-opacity:1;fill-rule:evenodd;stroke:none;stroke-width:0.26778427;stroke-linecap:butt;stroke-linejoin:round;stroke-miterlimit:4;stroke-dasharray:none;stroke-dashoffset:0;stroke-opacity:1;paint-order:normal"
       d="m 0,200.95623 h 7.9375003 v 91.54584 H 0 Z"
       id="path1808"
       inkscape:connector-curvature="0" />
    <rect
       style="opacity:1;fill:#000000;fill-opacity:0.25490196;stroke:#c0c0c0;stroke-width:0.26458335;stroke-linecap:square;stroke-linejoin:round;stroke-miterlimit:1.29999995;stroke-dasharray:none;stroke-opacity:0.25490196;paint-order:stroke markers fill"
       id="rect999"
       width="7.1437502"
       height="33.602085"
       x="0.39687502"
       y="227.68349"
       rx="0.79375005"
       ry="0.79375005" />
    <rect
       ry="0.79375005"
       rx="0.79375005"
       y="281.78644"
       x="0.39687502"
       height="10.31875"
       width="7.1437502"
       id="rect912"
       style="opacity:1;fill:#000000;fill-opacity:0.25490196;stroke:#c0c0c0;stroke-width:0.26458335;stroke-linecap:square;stroke-linejoin:round;stroke-miterlimit:1.29999995;stroke-dasharray:none;stroke-opacity:0.25490196;paint-order:stroke markers fill" />
    <rect
       ry="1.4552084"
       rx="1.4552084"
       y="277.28867"
       x="0.9270758"
       height="2.9104168"
       width="6.0854168"
       id="rect923"
       style="display:inline;opacity:1;fill:#b22222;fill-opacity:1;stroke:none;stroke-width:0.26458335;stroke-linecap:butt;stroke-linejoin:miter;stroke-miterlimit:4;stroke-dasharray:none;stroke-opacity:1;paint-order:normal" />
    <rect
       ry="0.79375005"
       rx="0.79375005"
       y="201.35335"
       x="0.39687502"
       height="21.431252"
       width="7.1437502"
       id="rect1001"
       style="opacity:1;fill:#c0c0c0;fill-opacity:0.25490196;stroke:#000000;stroke-width:0.26458335;stroke-linecap:square;stroke-linejoin:round;stroke-miterlimit:1.29999995;stroke-dasharray:none;stroke-opacity:0.25490196;paint-order:stroke markers fill" />
    <text
       xml:space="preserve"
       style="font-style:normal;font-variant:normal;font-weight:normal;font-stretch:normal;font-size:2.11666679px;line-height:1.25;font-family:'DejaVu Sans Mono';-inkscape-font-specification:'DejaVu Sans Mono, Normal';font-variant-ligatures:normal;font-variant-caps:normal;font-variant-numeric:normal;font-feature-settings:normal;text-align:center;letter-spacing:0px;word-spacing:0px;writing-mode:lr-tb;text-anchor:middle;display:none;fill:#000000;fill-opacity:1;stroke:#ffffff;stroke-width:0.00026458;stroke-miterlimit:4;stroke-dasharray:none;stroke-opacity:1"
       x="4.0018625"
       y="210.71573"
       id="text821"><tspan
         sodipodi:role="line"
         id="tspan908"
         x="4.0018625"
         y="210.71573">IN</tspan></text>
    <text
       id="text827"
       y="221.82822"
       x="4.0018625"
       style="font-style:normal;font-variant:normal;font-weight:normal;font-stretch:normal;font-size:2.11666679px;line-height:1.25;font-family:'DejaVu Sans Mono';-inkscape-font-specification:'DejaVu Sans Mono, Normal';font-variant-ligatures:normal;font-variant-caps:normal;font-variant-numeric:normal;font-feature-settings:normal;text-align:center;letter-spacing:0px;word-spacing:0px;writing-mode:lr-tb;text-anchor:middle;display:none;fill:#000000;fill-opacity:1;stroke:#ffffff;stroke-width:0.00026458;stroke-miterlimit:4;stroke-dasharray:none;stroke-opacity:1"
       xml:space="preserve"><tspan
         sodipodi:role="line"
         id="tspan910"
         x="4.0018625"
         y="221.82822">TRG</tspan></text>
    <text
       xml:space="preserve"
       style="font-style:normal;font-variant:normal;font-weight:normal;font-stretch:normal;font-size:2.11666679px;line-height:1.25;font-family:'DejaVu Sans Mono';-inkscape-font-specification:'DejaVu Sans Mono, Normal';font-variant-ligatures:normal;font-variant-caps:normal;font-variant-numeric:normal;font-feature-settings:normal;text-align:center;letter-spacing:0px;word-spacing:0px;writing-mode:lr-tb;text-anchor:middle;display:none;fill:#000000;fill-opacity:1;stroke:#000000;stroke-width:0.00026458;stroke-miterlimit:4;stroke-dasharray:none;stroke-opacity:1"
       x="3.9346828"
       y="279.53754"
       id="text837"><tspan
         sodipodi:role="line"
         id="tspan904"
         x="3.9346828"
         y="279.53754">MIX</tspan></text>
    <text
       id="text847"
       y="284.30023"
       x="3.9346828"
       style="font-style:normal;font-variant:normal;font-weight:normal;font-stretch:normal;font-size:2.11666679px;line-height:1.25;font-family:'DejaVu Sans Mono';-inkscape-font-specification:'DejaVu Sans Mono, Normal';font-variant-ligatures:normal;font-variant-caps:normal;font-variant-numeric:normal;font-feature-settings:normal;text-align:center;letter-spacing:0px;word-spacing:0px;writing-mode:lr-tb;text-anchor:middle;display:none;fill:#fffafa;fill-opacity:1;stroke:#000000;stroke-width:0.00026458;stroke-miterlimit:4;stroke-dasharray:none;stroke-opacity:1"
       xml:space="preserve"><tspan
         sodipodi:role="line"
         id="tspan918"
         x="3.9346828"
         y="284.30023">OUT</tspan></text>
    <text
       xml:space="preserve"
       style="font-style:normal;font-variant:normal;font-weight:normal;font-stretch:normal;font-size:2.11666679px;line-height:1.25;font-family:'DejaVu Sans Mono';-inkscape-font-specification:'DejaVu Sans Mono, Normal';font-variant-ligatures:normal;font-variant-caps:normal;font-variant-numeric:normal;font-feature-settings:normal;text-align:center;letter-spacing:0px;word-spacing:0px;writing-mode:lr-tb;text-anchor:middle;display:none;fill:#fffafa;fill-opacity:1;stroke:#000000;stroke-width:0.00026458;stroke-miterlimit:4;stroke-dasharray:none;stroke-opacity:1"
       x="4.0018625"
       y="241.40732"
       id="text855"><tspan
         sodipodi:role="line"
         id="tspan865"
         x="4.0018625"
         y="241.40732">SNH</tspan></text>
    <text
       id="text861"
       y="230.32512"
       x="4.0018616"
       style="font-style:normal;font-variant:normal;font-weight:normal;font-stretch:normal;font-size:2.11666679px;line-height:1.25;font-family:'DejaVu Sans Mono';-inkscape-font-specification:'DejaVu Sans Mono, Normal';font-variant-ligatures:normal;font-variant-caps:normal;font-variant-numeric:normal;font-feature-settings:normal;text-align:center;letter-spacing:0px;word-spacing:0px;writing-mode:lr-tb;text-anchor:middle;display:none;fill:#fffafa;fill-opacity:1;stroke:#000000;stroke-width:0.00026458;stroke-miterlimit:4;stroke-dasharray:none;stroke-opacity:1"
       xml:space="preserve"><tspan
         sodipodi:role="line"
         id="tspan863"
         x="4.0018616"
         y="230.32512">TNH</tspan></text>
    <text
       id="text875"
       y="252.51945"
       x="4.0018625"
       style="font-style:normal;font-variant:normal;font-weight:normal;font-stretch:normal;font-size:2.11666679px;line-height:1.25;font-family:'DejaVu Sans Mono';-inkscape-font-specification:'DejaVu Sans Mono, Normal';font-variant-ligatures:normal;font-variant-caps:normal;font-variant-numeric:normal;font-feature-settings:normal;text-align:center;letter-spacing:0px;word-spacing:0px;writing-mode:lr-tb;text-anchor:middle;display:none;fill:#fffafa;fill-opacity:1;stroke:#000000;stroke-width:0.00026458;stroke-miterlimit:4;stroke-dasharray:none;stroke-opacity:1"
       xml:space="preserve"><tspan
         sodipodi:role="line"
         id="tspan906"
         x="4.0018625"
         y="252.51945">NOI</tspan></text>
    <g
       aria-label="IN"
       style="font-style:normal;font-variant:normal;font-weight:normal;font-stretch:normal;font-size:2.11666679px;line-height:1.25;font-family:'DejaVu Sans Mono';-inkscape-font-specification:'DejaVu Sans Mono, Normal';font-variant-ligatures:normal;font-variant-caps:normal;font-variant-numeric:normal;font-feature-settings:normal;text-align:center;letter-spacing:0px;word-spacing:0px;writing-mode:lr-tb;text-anchor:middle;display:inline;fill:#000000;fill-opacity:1;stroke:#ffffff;stroke-width:0.00026458;stroke-miterlimit:4;stroke-dasharray:none;stroke-opacity:1"
       id="text997">
      <path
         d="m 2.9362944,209.17267 h 0.8567953 v 0.1757 H 3.4695952 v 1.19166 h 0.3234945 v 0.1757 H 2.9362944 v -0.1757 h 0.3234945 v -1.19166 H 2.9362944 Z"
         id="path1023"
         inkscape:connector-curvature="0" />
      <path
         d="m 4.145523,209.17267 h 0.2645833 l 0.5208985,1.27021 v -1.27021 h 0.2015381 v 1.54306 H 4.8679595 l -0.5208984,-1.27021 v 1.27021 H 4.145523 Z"
         id="path1025"
         inkscape:connector-curvature="0" />
    </g>
    <g
       aria-label="TRG"
       style="font-style:normal;font-variant:normal;font-weight:normal;font-stretch:normal;font-size:2.11666679px;line-height:1.25;font-family:'DejaVu Sans Mono';-inkscape-font-specification:'DejaVu Sans Mono, Normal';font-variant-ligatures:normal;font-variant-caps:normal;font-variant-numeric:normal;font-feature-settings:normal;text-align:center;letter-spacing:0px;word-spacing:0px;writing-mode:lr-tb;text-anchor:middle;display:inline;fill:#000000;fill-opacity:1;stroke:#ffffff;stroke-width:0.00026458;stroke-miterlimit:4;stroke-dasharray:none;stroke-opacity:1"
       id="text1001">
      <path
         d="m 2.1404773,220.28516 h 1.1771892 v 0.1757 H 2.8350086 v 1.36736 H 2.6252023 v -1.36736 h -0.484725 z"
         id="path1028"
         inkscape:connector-curvature="0" />
      <path
         d="m 4.1506906,221.09958 q 0.080615,0.0207 0.1374593,0.0786 0.056844,0.0568 0.1415935,0.22841 l 0.2098063,0.42168 H 4.415274 l -0.1839681,-0.38964 q -0.079582,-0.1664 -0.1436605,-0.21394 -0.063045,-0.0486 -0.1653646,-0.0486 H 3.7228097 v 0.65216 H 3.5130034 v -1.54306 h 0.4299479 q 0.2542481,0 0.3896404,0.11472 0.1353922,0.11472 0.1353922,0.33176 0,0.15296 -0.083716,0.25012 -0.082682,0.0961 -0.2335775,0.11782 z m -0.4278809,-0.64286 v 0.54777 h 0.2284099 q 0.1498616,0 0.2232422,-0.0672 0.073381,-0.0672 0.073381,-0.20567 0,-0.13332 -0.078548,-0.2036 -0.077515,-0.0713 -0.2263428,-0.0713 z"
         id="path1030"
         inkscape:connector-curvature="0" />
      <path
         d="m 5.7795318,221.70109 q -0.083716,0.0775 -0.1891357,0.11782 -0.1043864,0.0393 -0.2263428,0.0393 -0.2935222,0 -0.4568197,-0.20981 -0.1632976,-0.21084 -0.1632976,-0.59014 0,-0.37827 0.1653646,-0.58911 0.1653646,-0.21188 0.4599203,-0.21188 0.097152,0 0.1860352,0.0279 0.088883,0.0269 0.1715658,0.0827 v 0.21394 q -0.083716,-0.0796 -0.1715658,-0.11679 -0.08785,-0.0382 -0.1860352,-0.0382 -0.2036051,0 -0.3059245,0.15813 -0.1012858,0.1571 -0.1012858,0.47336 0,0.32143 0.098185,0.47645 0.099219,0.154 0.3038575,0.154 0.069246,0 0.1209228,-0.0155 0.05271,-0.0165 0.095085,-0.0507 V 221.2081 H 5.355785 v -0.17157 h 0.4237468 z"
         id="path1032"
         inkscape:connector-curvature="0" />
    </g>
    <g
       aria-label="MIX"
       style="font-style:normal;font-variant:normal;font-weight:normal;font-stretch:normal;font-size:2.11666679px;line-height:1.25;font-family:'DejaVu Sans Mono';-inkscape-font-specification:'DejaVu Sans Mono, Normal';font-variant-ligatures:normal;font-variant-caps:normal;font-variant-numeric:normal;font-feature-settings:normal;text-align:center;letter-spacing:0px;word-spacing:0px;writing-mode:lr-tb;text-anchor:middle;display:inline;fill:#000000;fill-opacity:1;stroke:#000000;stroke-width:0.00026458;stroke-miterlimit:4;stroke-dasharray:none;stroke-opacity:1"
       id="text1005">
      <path
         d="M 2.1136053,277.99448 H 2.392658 l 0.2666504,0.78548 0.2687175,-0.78548 h 0.2800863 v 1.54306 H 3.0148423 v -1.36323 L 2.7399237,278.9877 H 2.5817938 l -0.2759522,-0.81339 v 1.36323 H 2.1136053 Z"
         id="path1035"
         inkscape:connector-curvature="0" />
      <path
         d="m 3.5057684,277.99448 h 0.8567953 v 0.1757 H 4.0390692 v 1.19166 h 0.3234945 v 0.1757 H 3.5057684 v -0.1757 h 0.3234945 v -1.19166 H 3.5057684 Z"
         id="path1037"
         inkscape:connector-curvature="0" />
      <path
         d="m 4.6602199,277.99448 h 0.2242757 l 0.3389975,0.58187 0.3451985,-0.58187 h 0.2242758 l -0.4619874,0.72554 0.4950603,0.81752 H 5.6017646 l -0.3782715,-0.66456 -0.4082439,0.66456 H 4.58994 l 0.5167643,-0.81752 z"
         id="path1039"
         inkscape:connector-curvature="0" />
    </g>
    <g
       aria-label="OUT"
       style="font-style:normal;font-variant:normal;font-weight:normal;font-stretch:normal;font-size:2.11666679px;line-height:1.25;font-family:'DejaVu Sans Mono';-inkscape-font-specification:'DejaVu Sans Mono, Normal';font-variant-ligatures:normal;font-variant-caps:normal;font-variant-numeric:normal;font-feature-settings:normal;text-align:center;letter-spacing:0px;word-spacing:0px;writing-mode:lr-tb;text-anchor:middle;display:inline;fill:#fffafa;fill-opacity:1;stroke:#000000;stroke-width:0.00026458;stroke-miterlimit:4;stroke-dasharray:none;stroke-opacity:1"
       id="text1009">
      <path
         d="m 2.9600653,283.53025 q 0,-0.34003 -0.07028,-0.48576 -0.069246,-0.14572 -0.2284098,-0.14572 -0.1581299,0 -0.2284099,0.14572 -0.069246,0.14573 -0.069246,0.48576 0,0.339 0.069246,0.48473 0.07028,0.14573 0.2284099,0.14573 0.1591634,0 0.2284098,-0.1447 0.07028,-0.14573 0.07028,-0.48576 z m 0.2180745,0 q 0,0.40308 -0.1281575,0.60152 -0.1271241,0.19843 -0.3886068,0.19843 -0.2614828,0 -0.3886068,-0.1974 -0.127124,-0.1974 -0.127124,-0.60255 0,-0.40411 0.127124,-0.60254 0.1281575,-0.19844 0.3886068,-0.19844 0.2614827,0 0.3886068,0.19844 0.1281575,0.19843 0.1281575,0.60254 z"
         id="path1042"
         inkscape:connector-curvature="0" />
      <path
         d="m 3.4499578,283.70802 v -0.95085 h 0.2098064 v 1.04593 q 0,0.11266 0.0062,0.16124 0.0062,0.0475 0.021704,0.0734 0.033073,0.061 0.095085,0.092 0.063045,0.031 0.1519287,0.031 0.089917,0 0.1519287,-0.031 0.062012,-0.031 0.096118,-0.092 0.015503,-0.0258 0.021704,-0.0734 0.0062,-0.0476 0.0062,-0.15917 v -1.048 h 0.2087728 v 0.95085 q 0,0.23668 -0.029972,0.33693 -0.028939,0.0992 -0.1012858,0.16433 -0.068213,0.061 -0.1560628,0.091 -0.08785,0.03 -0.197404,0.03 -0.1085205,0 -0.1963705,-0.03 -0.08785,-0.03 -0.1570963,-0.091 -0.071314,-0.0641 -0.1012858,-0.16536 -0.029972,-0.10232 -0.029972,-0.3359 z"
         id="path1044"
         inkscape:connector-curvature="0" />
      <path
         d="m 4.6199123,282.75717 h 1.1771892 v 0.1757 H 5.3144436 v 1.36736 H 5.1046373 v -1.36736 h -0.484725 z"
         id="path1046"
         inkscape:connector-curvature="0" />
    </g>
    <g
       aria-label="SNH"
       style="font-style:normal;font-variant:normal;font-weight:normal;font-stretch:normal;font-size:2.11666679px;line-height:1.25;font-family:'DejaVu Sans Mono';-inkscape-font-specification:'DejaVu Sans Mono, Normal';font-variant-ligatures:normal;font-variant-caps:normal;font-variant-numeric:normal;font-feature-settings:normal;text-align:center;letter-spacing:0px;word-spacing:0px;writing-mode:lr-tb;text-anchor:middle;display:inline;fill:#fffafa;fill-opacity:1;stroke:#000000;stroke-width:0.00026458;stroke-miterlimit:4;stroke-dasharray:none;stroke-opacity:1"
       id="text1013"
       transform="translate(0,0.52916669)">
      <path
         d="m 3.1378325,239.91697 v 0.21187 q -0.095085,-0.061 -0.1912028,-0.092 -0.095085,-0.031 -0.1922363,-0.031 -0.1477946,0 -0.2335775,0.0692 -0.085783,0.0682 -0.085783,0.185 0,0.10232 0.055811,0.15606 0.056844,0.0538 0.2108398,0.0899 l 0.1095541,0.0248 q 0.217041,0.0506 0.3162597,0.15916 0.099219,0.10852 0.099219,0.29559 0,0.22014 -0.1364258,0.3359 -0.1364258,0.11575 -0.396875,0.11575 -0.1085205,0 -0.2180746,-0.0238 -0.109554,-0.0227 -0.2201416,-0.0693 v -0.22221 q 0.1188558,0.0754 0.2242757,0.11059 0.1064535,0.0351 0.2139405,0.0351 0.1581299,0 0.2459798,-0.0703 0.08785,-0.0713 0.08785,-0.19844 0,-0.11575 -0.060978,-0.17673 -0.059945,-0.061 -0.2098064,-0.0941 L 2.64484,240.70221 q -0.2149739,-0.0486 -0.3121256,-0.14676 -0.097152,-0.0982 -0.097152,-0.26355 0,-0.20671 0.1384928,-0.33073 0.1395264,-0.12506 0.3700033,-0.12506 0.088883,0 0.1870687,0.0207 0.098185,0.0196 0.2067057,0.0599 z"
         id="path1049"
         inkscape:connector-curvature="0" />
      <path
         d="m 3.5088693,239.86426 h 0.2645833 l 0.5208985,1.27021 v -1.27021 h 0.2015381 v 1.54306 H 4.2313059 l -0.5208985,-1.27021 v 1.27021 H 3.5088693 Z"
         id="path1051"
         inkscape:connector-curvature="0" />
      <path
         d="m 4.7801096,239.86426 h 0.2098063 v 0.63252 h 0.5715414 v -0.63252 h 0.2098063 v 1.54306 H 5.5614573 v -0.73484 H 4.9899159 v 0.73484 H 4.7801096 Z"
         id="path1053"
         inkscape:connector-curvature="0" />
    </g>
    <g
       aria-label="TNH"
       style="font-style:normal;font-variant:normal;font-weight:normal;font-stretch:normal;font-size:2.11666679px;line-height:1.25;font-family:'DejaVu Sans Mono';-inkscape-font-specification:'DejaVu Sans Mono, Normal';font-variant-ligatures:normal;font-variant-caps:normal;font-variant-numeric:normal;font-feature-settings:normal;text-align:center;letter-spacing:0px;word-spacing:0px;writing-mode:lr-tb;text-anchor:middle;display:inline;fill:#fffafa;fill-opacity:1;stroke:#000000;stroke-width:0.00026458;stroke-miterlimit:4;stroke-dasharray:none;stroke-opacity:1"
       id="text1017">
      <path
         d="m 2.1404764,228.78206 h 1.1771892 v 0.1757 H 2.8350077 v 1.36736 H 2.6252013 v -1.36736 H 2.1404764 Z"
         id="path1056"
         inkscape:connector-curvature="0" />
      <path
         d="m 3.5088683,228.78206 h 0.2645834 l 0.5208985,1.27021 v -1.27021 h 0.201538 v 1.54306 H 4.2313049 l -0.5208985,-1.27021 v 1.27021 H 3.5088683 Z"
         id="path1058"
         inkscape:connector-curvature="0" />
      <path
         d="m 4.7801086,228.78206 h 0.2098063 v 0.63252 h 0.5715414 v -0.63252 h 0.2098063 v 1.54306 H 5.5614563 v -0.73484 H 4.9899149 v 0.73484 H 4.7801086 Z"
         id="path1060"
         inkscape:connector-curvature="0" />
    </g>
    <g
       aria-label="NOI"
       style="font-style:normal;font-variant:normal;font-weight:normal;font-stretch:normal;font-size:2.11666679px;line-height:1.25;font-family:'DejaVu Sans Mono';-inkscape-font-specification:'DejaVu Sans Mono, Normal';font-variant-ligatures:normal;font-variant-caps:normal;font-variant-numeric:normal;font-feature-settings:normal;text-align:center;letter-spacing:0px;word-spacing:0px;writing-mode:lr-tb;text-anchor:middle;display:inline;fill:#fffafa;fill-opacity:1;stroke:#000000;stroke-width:0.00026458;stroke-miterlimit:4;stroke-dasharray:none;stroke-opacity:1"
       id="text1021"
       transform="translate(0,1.0583334)">
      <path
         d="m 2.235562,250.9764 h 0.2645833 l 0.5208985,1.2702 v -1.2702 h 0.2015381 v 1.54305 H 2.9579985 l -0.5208984,-1.2702 v 1.2702 H 2.235562 Z"
         id="path1063"
         inkscape:connector-curvature="0" />
      <path
         d="m 4.3005523,251.74948 q 0,-0.34003 -0.07028,-0.48576 -0.069246,-0.14573 -0.2284098,-0.14573 -0.1581299,0 -0.2284099,0.14573 -0.069246,0.14573 -0.069246,0.48576 0,0.33899 0.069246,0.48472 0.07028,0.14573 0.2284099,0.14573 0.1591634,0 0.2284098,-0.1447 0.07028,-0.14572 0.07028,-0.48575 z m 0.2180745,0 q 0,0.40307 -0.1281575,0.60151 -0.1271241,0.19844 -0.3886068,0.19844 -0.2614828,0 -0.3886068,-0.19741 -0.127124,-0.1974 -0.127124,-0.60254 0,-0.40411 0.127124,-0.60255 0.1281575,-0.19844 0.3886068,-0.19844 0.2614827,0 0.3886068,0.19844 0.1281575,0.19844 0.1281575,0.60255 z"
         id="path1065"
         inkscape:connector-curvature="0" />
      <path
         d="m 4.8462554,250.9764 h 0.8567953 v 0.1757 H 5.3795562 v 1.19166 h 0.3234945 v 0.17569 H 4.8462554 v -0.17569 H 5.1697499 V 251.1521 H 4.8462554 Z"
         id="path1067"
         inkscape:connector-curvature="0" />
    </g>
  </g>
</svg>
