<?xml version="1.0" encoding="UTF-8" standalone="no"?>
<!-- Created with Inkscape (http://www.inkscape.org/) -->

<svg
   xmlns:dc="http://purl.org/dc/elements/1.1/"
   xmlns:cc="http://creativecommons.org/ns#"
   xmlns:rdf="http://www.w3.org/1999/02/22-rdf-syntax-ns#"
   xmlns:svg="http://www.w3.org/2000/svg"
   xmlns="http://www.w3.org/2000/svg"
   xmlns:sodipodi="http://sodipodi.sourceforge.net/DTD/sodipodi-0.dtd"
   xmlns:inkscape="http://www.inkscape.org/namespaces/inkscape"
   width="8.3556204mm"
   height="8.3556299mm"
   viewBox="0 0 8.3556203 8.3556298"
   version="1.1"
   id="svg15246"
   sodipodi:docname="ZZC-PJ301M.svg"
   inkscape:version="0.92.3 (2405546, 2018-03-11)">
  <defs
     id="defs15240">
    <clipPath
       id="clip89">
      <rect
         y="0"
         x="0"
         width="18"
         height="19"
         id="rect4864" />
    </clipPath>
    <clipPath
       id="clip90">
      <path
         inkscape:connector-curvature="0"
         d="m 0.898438,0.128906 h 16.25 v 17.882813 h -16.25 z m 0,0"
         id="path4861" />
    </clipPath>
    <mask
       id="mask44">
      <g
         style="filter:url(#alpha)"
         id="g4858"
         transform="matrix(0.26458333,0,0,0.26458333,89.358789,128.57765)">
        <rect
           x="0"
           y="0"
           width="3052.8701"
           height="3351.5"
           style="fill:#000000;fill-opacity:0.14999402;stroke:none"
           id="rect4856" />
      </g>
    </mask>
    <filter
       id="alpha"
       filterUnits="objectBoundingBox"
       x="0"
       y="0"
       width="1"
       height="1">
      <feColorMatrix
         type="matrix"
         in="SourceGraphic"
         values="0 0 0 0 1 0 0 0 0 1 0 0 0 0 1 0 0 0 1 0"
         id="feColorMatrix4149" />
    </filter>
    <clipPath
       id="clipPath17821">
      <rect
         y="0"
         x="0"
         width="18"
         height="19"
         id="rect17819" />
    </clipPath>
    <clipPath
       id="clipPath17825">
      <path
         inkscape:connector-curvature="0"
         d="m 0.898438,0.128906 h 16.25 v 17.882813 h -16.25 z m 0,0"
         id="path17823" />
    </clipPath>
    <clipPath
       id="clip87">
      <rect
         y="0"
         x="0"
         width="24"
         height="26"
         id="rect4848" />
    </clipPath>
    <clipPath
       id="clip88">
      <path
         inkscape:connector-curvature="0"
         d="m 0.683594,0.921875 h 22.679687 v 24.9375 H 0.683594 Z m 0,0"
         id="path4845" />
    </clipPath>
    <mask
       id="mask43">
      <g
         style="filter:url(#alpha)"
         id="g4842"
         transform="matrix(0.26458333,0,0,0.26458333,89.358789,128.57765)">
        <rect
           x="0"
           y="0"
           width="3052.8701"
           height="3351.5"
           style="fill:#000000;fill-opacity:0.14999402;stroke:none"
           id="rect4840" />
      </g>
    </mask>
    <filter
       id="filter17836"
       filterUnits="objectBoundingBox"
       x="0"
       y="0"
       width="1"
       height="1">
      <feColorMatrix
         type="matrix"
         in="SourceGraphic"
         values="0 0 0 0 1 0 0 0 0 1 0 0 0 0 1 0 0 0 1 0"
         id="feColorMatrix17834" />
    </filter>
    <clipPath
       id="clipPath17840">
      <rect
         y="0"
         x="0"
         width="24"
         height="26"
         id="rect17838" />
    </clipPath>
    <clipPath
       id="clipPath17844">
      <path
         inkscape:connector-curvature="0"
         d="m 0.683594,0.921875 h 22.679687 v 24.9375 H 0.683594 Z m 0,0"
         id="path17842" />
    </clipPath>
  </defs>
  <sodipodi:namedview
     id="base"
     pagecolor="#ffffff"
     bordercolor="#666666"
     borderopacity="1.0"
     inkscape:pageopacity="0.0"
     inkscape:pageshadow="2"
     inkscape:zoom="22.627417"
     inkscape:cx="15.871759"
     inkscape:cy="13.865006"
     inkscape:document-units="mm"
     inkscape:current-layer="layer1"
     showgrid="true"
     inkscape:window-width="2099"
     inkscape:window-height="1380"
     inkscape:window-x="968"
     inkscape:window-y="216"
     inkscape:window-maximized="0"
     units="px"
     fit-margin-top="0"
     fit-margin-left="0"
     fit-margin-right="0"
     fit-margin-bottom="0"
     inkscape:snap-global="false">
    <inkscape:grid
       type="xygrid"
       id="grid882" />
  </sodipodi:namedview>
  <metadata
     id="metadata15243">
    <rdf:RDF>
      <cc:Work
         rdf:about="">
        <dc:format>image/svg+xml</dc:format>
        <dc:type
           rdf:resource="http://purl.org/dc/dcmitype/StillImage" />
        <dc:title />
      </cc:Work>
    </rdf:RDF>
  </metadata>
  <g
     inkscape:label="Layer 1"
     inkscape:groupmode="layer"
     id="layer1"
     transform="translate(-88.611154,-119.19859)">
    <path
       style="fill:#2b2c2c;fill-opacity:1;fill-rule:nonzero;stroke:#000000;stroke-width:0.24963233;stroke-miterlimit:4;stroke-dasharray:none;stroke-opacity:1"
       d="m 92.788954,127.42325 c -2.231891,0 -4.046851,-1.81495 -4.046851,-4.04686 0,-2.23188 1.81496,-4.04684 4.046851,-4.04684 2.231888,0 4.046857,1.81496 4.046857,4.04684 0,2.23191 -1.814969,4.04686 -4.046857,4.04686"
       id="path7255-4"
       inkscape:connector-curvature="0" />
    <path
       style="fill:#515454;fill-opacity:1;fill-rule:nonzero;stroke:#000000;stroke-width:0.63683665;stroke-miterlimit:4;stroke-dasharray:none;stroke-opacity:1"
       d="m 92.788954,125.94111 c -1.414333,0 -2.564701,-1.15038 -2.564701,-2.56472 0,-1.41432 1.150368,-2.56467 2.564701,-2.56467 1.41433,0 2.564685,1.15035 2.564685,2.56467 0,1.41434 -1.150355,2.56472 -2.564685,2.56472"
       id="path7261-7"
       inkscape:connector-curvature="0" />
    <path
       style="fill:#000000;fill-opacity:1;fill-rule:nonzero;stroke:none;stroke-width:0.35225895"
       d="m 94.586027,123.37639 c 0,0.99212 -0.80497,1.7971 -1.797073,1.7971 -0.992106,0 -1.797076,-0.80498 -1.797076,-1.7971 0,-0.99209 0.80497,-1.79703 1.797076,-1.79703 0.992103,0 1.797073,0.80494 1.797073,1.79703"
       id="path7265-4"
       inkscape:connector-curvature="0" />
  </g>
</svg>
