<?xml version="1.0" encoding="UTF-8" standalone="no"?>
<svg
   xmlns:osb="http://www.openswatchbook.org/uri/2009/osb"
   xmlns:dc="http://purl.org/dc/elements/1.1/"
   xmlns:cc="http://creativecommons.org/ns#"
   xmlns:rdf="http://www.w3.org/1999/02/22-rdf-syntax-ns#"
   xmlns:svg="http://www.w3.org/2000/svg"
   xmlns="http://www.w3.org/2000/svg"
   xmlns:sodipodi="http://sodipodi.sourceforge.net/DTD/sodipodi-0.dtd"
   xmlns:inkscape="http://www.inkscape.org/namespaces/inkscape"
   id="svg12553"
   version="1.1"
   viewBox="0 0 35.71875 100.54166"
   height="380"
   width="135"
   sodipodi:docname="BARtemp.svg"
   inkscape:version="0.92.2 (5c3e80d, 2017-08-06)">
  <sodipodi:namedview
     pagecolor="#ffffff"
     bordercolor="#666666"
     borderopacity="1"
     objecttolerance="10"
     gridtolerance="10"
     guidetolerance="10"
     inkscape:pageopacity="0"
     inkscape:pageshadow="2"
     inkscape:window-width="1920"
     inkscape:window-height="1017"
     id="namedview118"
     showgrid="true"
     inkscape:zoom="2.227451"
     inkscape:cx="-139.58016"
     inkscape:cy="71.412555"
     inkscape:window-x="-8"
     inkscape:window-y="-8"
     inkscape:window-maximized="1"
     inkscape:current-layer="svg12553"
     inkscape:snap-to-guides="false"
     inkscape:snap-grids="false">
    <inkscape:grid
       type="xygrid"
       id="grid929" />
  </sodipodi:namedview>
  <defs
     id="defs12547">
    <linearGradient
       id="linearGradient4708"
       osb:paint="solid">
      <stop
         style="stop-color:#ececec;stop-opacity:1;"
         offset="0"
         id="stop4706" />
    </linearGradient>
    <filter
       style="color-interpolation-filters:sRGB"
       inkscape:label="Opacity"
       id="filter4696">
      <feColorMatrix
         in="SourceGraphic"
         values="0 0 0 0 1 0 0 0 0 0 0 0 0 0 0 1 0 0 0 0 0 "
         result="colormatrix"
         id="feColorMatrix4692" />
      <feBlend
         in2="BackgroundImage"
         mode="multiply"
         result="fbSourceGraphic"
         id="feBlend4694" />
      <feColorMatrix
         result="fbSourceGraphicAlpha"
         in="fbSourceGraphic"
         values="0 0 0 -1 0 0 0 0 -1 0 0 0 0 -1 0 0 0 0 1 0"
         id="feColorMatrix4762" />
      <feColorMatrix
         id="feColorMatrix4764"
         values="1 0 0 0 0 0 1 0 0 0 0 0 1 0 0 0 0 0 5 -1 "
         result="colormatrix"
         in="fbSourceGraphic" />
      <feComposite
         in2="colormatrix"
         id="feComposite4766"
         operator="arithmetic"
         k2="0.3"
         result="composite"
         k1="0"
         k3="0"
         k4="0" />
    </filter>
  </defs>
  <metadata
     id="metadata12550">
    <rdf:RDF>
      <cc:Work
         rdf:about="">
        <dc:format>image/svg+xml</dc:format>
        <dc:type
           rdf:resource="http://purl.org/dc/dcmitype/StillImage" />
        <dc:title />
      </cc:Work>
    </rdf:RDF>
  </metadata>
  <g
     transform="matrix(0.29972491,0,0,1.0012215,-7.9971607,-161.56849)"
     id="layer1">
    <path
       style="fill:#e6e6e6;fill-opacity:1;fill-rule:nonzero;stroke:none;stroke-width:0.32258889"
       d="M 26.616839,161.37987 H 145.85344 v 100.3961 H 26.616839 Z m 0,0"
       id="path33453"
       inkscape:connector-curvature="0" />
  </g>
  <path
     style="opacity:0.11000001;fill:#000000;stroke-width:0.20891315"
     d="m 15.838804,-0.12892114 c 4.280271,0.08516867 10.617286,1.01637919 11.446268,6.11438594 0.748023,4.4135402 1.274814,8.8729082 1.375645,13.3513842 -1.603798,-1.870952 -3.243385,-1.100104 -1.865441,1.168518 0.777516,3.9763 1.412721,7.985219 1.906592,11.986596 0.72223,-0.46094 0.362959,-2.210676 0.853294,0.329422 2.218327,11.093916 2.979505,22.408827 4.394837,33.619784 0.244675,1.804315 0.472923,8.055602 -0.564164,3.35487 -0.09153,0.143019 0.258505,4.487637 -1.818254,5.479768 -0.857649,3.184745 -2.718376,6.060222 -3.561742,9.136595 -3.197206,0.293247 -3.817361,3.795037 -2.109551,5.827528 -1.697895,1.688525 -1.137467,5.292157 1.409362,2.790489 3.304486,-3.180887 11.250045,0.624166 6.755732,4.556308 -1.767653,0.449294 -6.340938,1.354744 -6.543682,0.282422 0.408487,-1.667937 -0.666318,-5.735439 -0.594104,-1.787016 0.957487,2.357323 -1.416513,1.534243 -0.54231,3.603198 -0.0062,3.975199 -5.801229,3.279759 -4.417405,-0.692583 0.951573,-1.853689 -2.085441,-3.231869 -1.419638,-1.798535 1.747265,1.297459 -2.307824,0.583714 -1.069129,-1.324962 0.997922,-1.046811 3.255472,-0.879749 1.952908,-3.272026 -1.514802,-1.15373 -2.247576,-2.097479 0.544373,-2.305987 3.183311,-0.7481 -0.0103,-7.113997 -2.454341,-3.226838 0.573447,2.759786 -2.187048,-1.844095 -4.180002,-1.308506 -1.552441,-0.143216 -5.8117986,-3.113215 -3.815905,-2.422195 0.945615,-2.103349 2.80738,0.419179 4.602399,-0.675836 2.166013,0.372948 8.015222,1.438086 7.596514,-1.305837 -1.369542,-0.758333 -0.154745,-2.650711 -0.798742,-4.367421 0.79108,0.839748 -0.185703,-3.363927 -1.297076,-3.451264 -1.01576,-1.4112 -1.897553,-1.427845 -1.512183,-2.275236 -1.8293,-2.26749 -3.607241,-8.198113 -4.925166,-8.610807 0.97743,-0.01096 -2.515803,-1.596625 -0.910388,-3.152828 0.129229,-1.67252 -0.515618,-4.9388 -1.158155,-1.392124 1.033021,1.414016 0.685073,2.643469 -1.040833,3.028657 2.216702,-1.133288 -1.700256,2.238195 0.815187,0.651917 -2.673211,3.255284 -2.470294,6.559952 -3.3728216,10.52461 0.329344,3.760784 -2.1625672,5.021164 -2.111858,4.905015 C 6.6215364,72.808495 6.3021389,68.287846 5.5892802,63.847382 4.8775845,58.283969 4.2741989,52.707332 3.7103094,47.127199 3.7101696,48.743609 4.7332303,51.033461 4.3711625,48.063025 4.1054336,42.356286 3.2573917,36.683895 3.0103786,30.991607 2.218382,27.913145 2.6157992,23.303182 1.8984452,21.088832 -0.79925415,21.56188 1.8110159,28.818194 0.48096695,24.055061 -0.72530875,18.820292 -1.0744881,13.44573 -1.7880572,8.1338109 -0.4578498,3.2569171 5.1396662,1.5429443 9.5021364,0.51727629 11.5879,0.10171899 13.713999,-0.08826815 15.838804,-0.12892114 Z M 13.364127,17.322788 c 1.387292,0.200714 0.287141,-0.45887 0,0 z m 15.58666,16.538115 c 0.485887,0.276517 -0.460412,-1.252065 0,0 z M 4.5988164,50.904701 c 0.8783937,0.168686 -0.7310092,-0.767485 0,0 z m 0.2340669,1.03091 c 0.4494047,-0.191929 -0.6190686,-1.256063 0,0 z m 8.2662857,-1.133517 c 0.951367,0.432311 0.230309,-0.52813 0,0 z m -1.033241,0.628849 c 0.644627,0.84039 0.394958,-0.940703 0,0 z m 0.879693,0.314692 c 0.81606,0.809586 0.692911,-0.975142 0,0 z m 1.209771,0.158926 c 0.351709,0.861206 0.416522,-1.067436 0,0 z m -1.485089,1.340501 c 0.332068,2.128699 0.300715,-2.722564 0,0 z m 0.737801,-0.295077 c 0.333092,0.490786 0.645443,-1.022892 0,0 z m 0.337352,0.728008 c 0.978696,0.487446 -0.06855,-1.291783 0,0 z M 13.08865,54.67438 c 1.108366,1.650809 0.831503,-2.04132 0,0 z m 0.04648,1.256964 c 1.011533,0.753084 0.611903,-0.880145 0,0 z m -1.130038,3.713674 c 0.644637,0.840393 0.394962,-0.94071 0,0 z m 0.672287,0.339722 c 0.644636,0.840394 0.394966,-0.940707 0,0 z m 2.041012,1.219282 c 1.315856,1.614916 1.382189,-0.421524 0,0 z m 18.262391,6.049591 c 0.485884,0.276539 -0.460401,-1.252066 0,0 z m 0.06416,1.057557 c 0.522768,1.084435 -0.01004,-1.617821 0,0 z M 7.4596492,75.498291 c 0.3218002,-0.46935 -0.4404603,-1.197323 0,0 z M 23.394589,74.683944 c 0.179212,0.805748 0.494628,-0.853961 0,0 z m 6.90004,2.035255 c -0.370562,1.892063 0.986875,-1.970485 0,0 z M 17.81598,85.563005 c 1.039053,0.709978 0.912578,-1.236464 0,0 z m 4.491077,6.66094 c 1.593736,0.0473 1.631305,-0.496876 0,0 z m 0.766773,1.161523 c 1.659261,0.22651 0.374221,-0.468813 0,0 z m 2.372238,2.216948 c 2.440023,0.266432 0.08815,-1.546268 0,0 z m -5.181873,0.45625 c 1.35799,0.635466 2.200519,-1.096255 0,0 z m 5.539357,0.575314 c 1.198794,0.739423 1.15887,-0.871214 0,0 z m 0.215719,0.66997 c 0.619451,0.718925 0.557024,-0.913362 0,0 z m -2.789233,0.314629 c 1.815323,0.818943 2.39449,-0.544574 0,0 z m 5.116202,-0.233048 c 1.208883,1.474375 8.713491,-1.370521 3.629504,-0.637162 -1.22716,0.04453 -2.492457,0.128585 -3.629504,0.637162 z m -5.544799,1.153311 c 0.995028,0.242737 0.937867,-0.966399 0,0 z m 1.87555,-0.151728 c 1.197368,1.496255 0.653864,-0.111522 0,0 z m -0.557253,0.468205 c 0.969102,0.890724 0.916017,-0.04761 0,0 z m -1.547677,1.270141 c 0.978388,3.09813 0.267047,-2.793866 0,0 z m 1.951138,0.88877 c 0.527238,0.35582 1.354909,-2.897173 0,0 z M 1.1241963,27.499955 c 0.1074084,1.918653 -0.34652325,-1.895824 0,0 z M 14.083677,62.919223 c 2.296539,1.069358 1.266169,2.228356 0,0 z m 2.359215,1.240516 c -0.703136,0.93091 -0.407876,-0.752499 0,0 z m 2.415255,5.192091 c -0.418478,0.544077 -0.450763,-0.727752 0,0 z m 3.789365,6.988072 c -0.182087,1.589728 -0.426341,-1.060392 0,0 z m -0.644465,0.511207 c -0.10942,1.809155 -0.481024,-1.590265 0,0 z M 8.1346068,78.26163 c 0.3543867,2.741198 -0.9050379,-0.68577 0,0 z m 1.335103,1.087854 c 0.9564992,1.395163 -0.7138038,-0.105356 0,0 z M 8.852898,79.617637 c 1.1152174,2.220912 -1.4781277,0.348171 0,0 z m 13.793729,-1.266136 c -0.01567,1.170975 -0.293832,-1.133713 0,0 z m -0.617399,0.179727 c -0.0407,1.177481 -0.224116,-1.380571 0,0 z M 10.654241,80.88544 c -0.7916496,0.516259 -0.8618296,-0.677819 0,0 z m -0.9402016,0.306938 c 1.5654366,0.70108 1.8354716,1.918135 0.268023,1.435307 -0.470372,0.211974 -0.397557,-1.954291 -0.268023,-1.435307 z m 1.7831596,0.398555 c -0.426194,0.969628 -0.607424,-0.819732 0,0 z"
     id="path869"
     inkscape:connector-curvature="0" />
  <rect
     style="opacity:1;fill:#000000;fill-opacity:1;fill-rule:evenodd;stroke:#7c7c7c;stroke-width:0.29826641;stroke-linecap:butt;stroke-linejoin:miter;stroke-miterlimit:0;stroke-dasharray:none;stroke-dashoffset:0;stroke-opacity:1"
     id="rect833"
     width="34.066406"
     height="61.756344"
     x="0.81645578"
     y="6.5897183"
     ry="0" />
  <text
     xml:space="preserve"
     style="font-style:normal;font-variant:normal;font-weight:normal;font-stretch:normal;font-size:2.82222223px;line-height:125%;font-family:Sudo;-inkscape-font-specification:'Sudo, Normal';font-variant-ligatures:normal;font-variant-caps:normal;font-variant-numeric:normal;font-feature-settings:normal;text-align:start;letter-spacing:0px;word-spacing:0px;writing-mode:lr-tb;text-anchor:start;fill:#000000;fill-opacity:1;stroke:none;stroke-width:0.26458332px;stroke-linecap:butt;stroke-linejoin:miter;stroke-opacity:1"
     x="69.335617"
     y="97.895828"
     id="text4860"><tspan
       sodipodi:role="line"
       id="tspan4858"
       x="69.335617"
       y="100.54166"
       style="stroke-width:0.26458332px" /></text>
  <flowRoot
     xml:space="preserve"
     id="flowRoot1009"
     style="font-style:normal;font-variant:normal;font-weight:normal;font-stretch:normal;font-size:10.66666698px;line-height:125%;font-family:Sudo;-inkscape-font-specification:'Sudo, Normal';font-variant-ligatures:normal;font-variant-caps:normal;font-variant-numeric:normal;font-feature-settings:normal;text-align:start;letter-spacing:0px;word-spacing:0px;writing-mode:lr-tb;text-anchor:start;fill:#000000;fill-opacity:1;stroke:none;stroke-width:1px;stroke-linecap:butt;stroke-linejoin:miter;stroke-opacity:1"><flowRegion
       id="flowRegion1011"><rect
         id="rect1013"
         width="428.17667"
         height="304.19095"
         x="181.82332"
         y="40" /></flowRegion><flowPara
       id="flowPara1015" /></flowRoot>  <text
     xml:space="preserve"
     style="font-style:normal;font-variant:normal;font-weight:normal;font-stretch:normal;font-size:2.82222223px;line-height:125%;font-family:'DejaVu Sans Mono';-inkscape-font-specification:'DejaVu Sans Mono, Normal';font-variant-ligatures:normal;font-variant-caps:normal;font-variant-numeric:normal;font-feature-settings:normal;text-align:start;letter-spacing:0px;word-spacing:0px;writing-mode:lr-tb;text-anchor:start;fill:#ffe900;fill-opacity:1;stroke:none;stroke-width:0.26458332;stroke-linecap:butt;stroke-linejoin:miter;stroke-miterlimit:4;stroke-dasharray:none;stroke-opacity:1"
     x="3.3216515"
     y="55.182522"
     id="text846"><tspan
       sodipodi:role="line"
       id="tspan844"
       x="3.3216515"
       y="55.182522"
       style="font-style:normal;font-variant:normal;font-weight:normal;font-stretch:normal;font-size:2.82222223px;font-family:'DejaVu Sans Mono';-inkscape-font-specification:'DejaVu Sans Mono, Normal';font-variant-ligatures:normal;font-variant-caps:normal;font-variant-numeric:normal;font-feature-settings:normal;text-align:start;writing-mode:lr-tb;text-anchor:start;fill:#ffe900;fill-opacity:1;stroke:none;stroke-width:0.26458332;stroke-miterlimit:4;stroke-dasharray:none;stroke-opacity:1">T<tspan
   style="font-style:normal;font-variant:normal;font-weight:normal;font-stretch:normal;font-size:2.11666656px;font-family:'DejaVu Sans Mono';-inkscape-font-specification:'DejaVu Sans Mono, Normal';font-variant-ligatures:normal;font-variant-caps:normal;font-variant-numeric:normal;font-feature-settings:normal;text-align:start;writing-mode:lr-tb;text-anchor:start;fill:#ffe900;fill-opacity:1"
   id="tspan849">dB</tspan></tspan></text>
  <text
     xml:space="preserve"
     style="font-style:normal;font-variant:normal;font-weight:normal;font-stretch:normal;font-size:2.82222223px;line-height:125%;font-family:'DejaVu Sans Mono';-inkscape-font-specification:'DejaVu Sans Mono, Normal';font-variant-ligatures:normal;font-variant-caps:normal;font-variant-numeric:normal;font-feature-settings:normal;text-align:start;letter-spacing:0px;word-spacing:0px;writing-mode:lr-tb;text-anchor:start;fill:#ffe900;fill-opacity:1;stroke:none;stroke-width:0.26458332;stroke-linecap:butt;stroke-linejoin:miter;stroke-miterlimit:4;stroke-dasharray:none;stroke-opacity:1"
     x="15.866482"
     y="55.182522"
     id="text846-6"><tspan
       sodipodi:role="line"
       id="tspan844-4"
       x="15.866482"
       y="55.182522"
       style="font-style:normal;font-variant:normal;font-weight:normal;font-stretch:normal;font-size:2.82222223px;font-family:'DejaVu Sans Mono';-inkscape-font-specification:'DejaVu Sans Mono, Normal';font-variant-ligatures:normal;font-variant-caps:normal;font-variant-numeric:normal;font-feature-settings:normal;text-align:start;writing-mode:lr-tb;text-anchor:start;fill:#ffe900;fill-opacity:1;stroke:none;stroke-width:0.26458332;stroke-miterlimit:4;stroke-dasharray:none;stroke-opacity:1">R</tspan></text>
  <text
     xml:space="preserve"
     style="font-style:normal;font-variant:normal;font-weight:normal;font-stretch:normal;font-size:2.82222223px;line-height:125%;font-family:'DejaVu Sans Mono';-inkscape-font-specification:'DejaVu Sans Mono, Normal';font-variant-ligatures:normal;font-variant-caps:normal;font-variant-numeric:normal;font-feature-settings:normal;text-align:start;letter-spacing:0px;word-spacing:0px;writing-mode:lr-tb;text-anchor:start;fill:#ffe900;fill-opacity:1;stroke:none;stroke-width:0.26458332;stroke-linecap:butt;stroke-linejoin:miter;stroke-miterlimit:4;stroke-dasharray:none;stroke-opacity:1"
     x="24.96312"
     y="55.182522"
     id="text846-6-1"><tspan
       sodipodi:role="line"
       id="tspan844-4-4"
       x="24.96312"
       y="55.182522"
       style="font-style:normal;font-variant:normal;font-weight:normal;font-stretch:normal;font-size:2.82222223px;font-family:'DejaVu Sans Mono';-inkscape-font-specification:'DejaVu Sans Mono, Normal';font-variant-ligatures:normal;font-variant-caps:normal;font-variant-numeric:normal;font-feature-settings:normal;text-align:start;writing-mode:lr-tb;text-anchor:start;fill:#ffe900;fill-opacity:1;stroke:none;stroke-width:0.26458332;stroke-miterlimit:4;stroke-dasharray:none;stroke-opacity:1">A/R<tspan
   style="font-style:normal;font-variant:normal;font-weight:normal;font-stretch:normal;font-size:2.11666656px;font-family:'DejaVu Sans Mono';-inkscape-font-specification:'DejaVu Sans Mono, Normal';font-variant-ligatures:normal;font-variant-caps:normal;font-variant-numeric:normal;font-feature-settings:normal;text-align:start;writing-mode:lr-tb;text-anchor:start;fill:#ffe900;fill-opacity:1"
   id="tspan851">ms</tspan></tspan></text>
  <text
     xml:space="preserve"
     style="font-style:normal;font-variant:normal;font-weight:normal;font-stretch:normal;font-size:2.82222223px;line-height:125%;font-family:'DejaVu Sans Mono';-inkscape-font-specification:'DejaVu Sans Mono, Normal';font-variant-ligatures:normal;font-variant-caps:normal;font-variant-numeric:normal;font-feature-settings:normal;text-align:start;letter-spacing:0px;word-spacing:0px;writing-mode:lr-tb;text-anchor:start;fill:#ffe900;fill-opacity:1;stroke:none;stroke-width:0.26458332;stroke-linecap:butt;stroke-linejoin:miter;stroke-miterlimit:4;stroke-dasharray:none;stroke-opacity:1"
     x="2.7779427"
     y="63.538124"
     id="text846-3"><tspan
       sodipodi:role="line"
       id="tspan844-5"
       x="2.7779427"
       y="63.538124"
       style="font-style:normal;font-variant:normal;font-weight:normal;font-stretch:normal;font-size:2.82222223px;font-family:'DejaVu Sans Mono';-inkscape-font-specification:'DejaVu Sans Mono, Normal';font-variant-ligatures:normal;font-variant-caps:normal;font-variant-numeric:normal;font-feature-settings:normal;text-align:start;writing-mode:lr-tb;text-anchor:start;fill:#ffe900;fill-opacity:1;stroke:none;stroke-width:0.26458332;stroke-miterlimit:4;stroke-dasharray:none;stroke-opacity:1">K<tspan
   style="font-style:normal;font-variant:normal;font-weight:normal;font-stretch:normal;font-size:2.11666656px;font-family:'DejaVu Sans Mono';-inkscape-font-specification:'DejaVu Sans Mono, Normal';font-variant-ligatures:normal;font-variant-caps:normal;font-variant-numeric:normal;font-feature-settings:normal;text-align:start;writing-mode:lr-tb;text-anchor:start;fill:#ffe900;fill-opacity:1"
   id="tspan853">dB</tspan></tspan></text>
  <text
     xml:space="preserve"
     style="font-style:normal;font-variant:normal;font-weight:normal;font-stretch:normal;font-size:2.82222223px;line-height:125%;font-family:'DejaVu Sans Mono';-inkscape-font-specification:'DejaVu Sans Mono, Normal';font-variant-ligatures:normal;font-variant-caps:normal;font-variant-numeric:normal;font-feature-settings:normal;text-align:start;letter-spacing:0px;word-spacing:0px;writing-mode:lr-tb;text-anchor:start;fill:#ffe900;fill-opacity:1;stroke:none;stroke-width:0.26458332;stroke-linecap:butt;stroke-linejoin:miter;stroke-miterlimit:4;stroke-dasharray:none;stroke-opacity:1"
     x="11.333719"
     y="63.536057"
     id="text846-3-9"
     inkscape:transform-center-x="6.5330655"><tspan
       sodipodi:role="line"
       id="tspan844-5-3"
       x="11.333719"
       y="63.536057"
       style="font-style:normal;font-variant:normal;font-weight:normal;font-stretch:normal;font-size:2.82222223px;font-family:'DejaVu Sans Mono';-inkscape-font-specification:'DejaVu Sans Mono, Normal';font-variant-ligatures:normal;font-variant-caps:normal;font-variant-numeric:normal;font-feature-settings:normal;text-align:start;writing-mode:lr-tb;text-anchor:start;fill:#ffe900;fill-opacity:1;stroke:none;stroke-width:0.26458332;stroke-miterlimit:4;stroke-dasharray:none;stroke-opacity:1">G<tspan
   style="font-style:normal;font-variant:normal;font-weight:normal;font-stretch:normal;font-size:2.11666656px;font-family:'DejaVu Sans Mono';-inkscape-font-specification:'DejaVu Sans Mono, Normal';font-variant-ligatures:normal;font-variant-caps:normal;font-variant-numeric:normal;font-feature-settings:normal;text-align:start;writing-mode:lr-tb;text-anchor:start;fill:#ffe900;fill-opacity:1"
   id="tspan855">dB</tspan></tspan></text>
  <text
     xml:space="preserve"
     style="font-style:normal;font-variant:normal;font-weight:normal;font-stretch:normal;font-size:2.82222223px;line-height:125%;font-family:'DejaVu Sans Mono';-inkscape-font-specification:'DejaVu Sans Mono, Normal';font-variant-ligatures:normal;font-variant-caps:normal;font-variant-numeric:normal;font-feature-settings:normal;text-align:start;letter-spacing:0px;word-spacing:0px;writing-mode:lr-tb;text-anchor:start;fill:#ffe900;fill-opacity:1;stroke:none;stroke-width:0.26458332;stroke-linecap:butt;stroke-linejoin:miter;stroke-miterlimit:4;stroke-dasharray:none;stroke-opacity:1"
     x="21.201097"
     y="63.538124"
     id="text846-3-9-4"
     inkscape:transform-center-x="6.5330655"><tspan
       sodipodi:role="line"
       id="tspan844-5-3-9"
       x="21.201097"
       y="63.538124"
       style="font-style:normal;font-variant:normal;font-weight:normal;font-stretch:normal;font-size:2.82222223px;font-family:'DejaVu Sans Mono';-inkscape-font-specification:'DejaVu Sans Mono, Normal';font-variant-ligatures:normal;font-variant-caps:normal;font-variant-numeric:normal;font-feature-settings:normal;text-align:start;writing-mode:lr-tb;text-anchor:start;fill:#ffe900;fill-opacity:1;stroke:none;stroke-width:0.26458332;stroke-miterlimit:4;stroke-dasharray:none;stroke-opacity:1">M</tspan></text>
  <text
     xml:space="preserve"
     style="font-style:normal;font-variant:normal;font-weight:normal;font-stretch:normal;font-size:2.82222223px;line-height:125%;font-family:'DejaVu Sans Mono';-inkscape-font-specification:'DejaVu Sans Mono, Normal';font-variant-ligatures:normal;font-variant-caps:normal;font-variant-numeric:normal;font-feature-settings:normal;text-align:start;letter-spacing:0px;word-spacing:0px;writing-mode:lr-tb;text-anchor:start;fill:#ffe900;fill-opacity:1;stroke:none;stroke-width:0.26458332;stroke-linecap:butt;stroke-linejoin:miter;stroke-miterlimit:4;stroke-dasharray:none;stroke-opacity:1"
     x="29.9629"
     y="63.538124"
     id="text846-3-9-4-6-7"
     inkscape:transform-center-x="6.5330655"><tspan
       sodipodi:role="line"
       id="tspan844-5-3-9-3-8"
       x="29.9629"
       y="63.538124"
       style="font-style:normal;font-variant:normal;font-weight:normal;font-stretch:normal;font-size:2.82222223px;font-family:'DejaVu Sans Mono';-inkscape-font-specification:'DejaVu Sans Mono, Normal';font-variant-ligatures:normal;font-variant-caps:normal;font-variant-numeric:normal;font-feature-settings:normal;text-align:start;writing-mode:lr-tb;text-anchor:start;fill:#ffe900;fill-opacity:1;stroke:none;stroke-width:0.26458332;stroke-miterlimit:4;stroke-dasharray:none;stroke-opacity:1">L%</tspan></text>
  <text
     xml:space="preserve"
     style="font-style:normal;font-variant:normal;font-weight:normal;font-stretch:normal;font-size:4.23333311px;line-height:125%;font-family:'DejaVu Sans Mono';-inkscape-font-specification:'DejaVu Sans Mono, Normal';font-variant-ligatures:normal;font-variant-caps:normal;font-variant-numeric:normal;font-feature-settings:normal;text-align:start;letter-spacing:0px;word-spacing:0px;writing-mode:lr-tb;text-anchor:start;fill:#000000;fill-opacity:1;stroke:none;stroke-width:0.26458332px;stroke-linecap:butt;stroke-linejoin:miter;stroke-opacity:1"
     x="11.591643"
     y="98.964874"
     id="text977"
     inkscape:transform-center-x="-1.5441791"
     inkscape:transform-center-y="0.35634903"><tspan
       sodipodi:role="line"
       id="tspan975"
       x="11.591643"
       y="98.964874"
       style="font-style:normal;font-variant:normal;font-weight:normal;font-stretch:normal;font-size:4.23333311px;font-family:'DejaVu Sans Mono';-inkscape-font-specification:'DejaVu Sans Mono, Normal';font-variant-ligatures:normal;font-variant-caps:normal;font-variant-numeric:normal;font-feature-settings:normal;text-align:start;writing-mode:lr-tb;text-anchor:start;stroke-width:0.26458332px">bId°°</tspan></text>
  <text
     xml:space="preserve"
     style="font-style:normal;font-variant:normal;font-weight:normal;font-stretch:normal;font-size:4.23333311px;line-height:125%;font-family:'DejaVu Sans Mono';-inkscape-font-specification:'DejaVu Sans Mono, Normal';font-variant-ligatures:normal;font-variant-caps:normal;font-variant-numeric:normal;font-feature-settings:normal;text-align:start;letter-spacing:0px;word-spacing:0px;writing-mode:lr-tb;text-anchor:start;fill:#000000;fill-opacity:1;stroke:none;stroke-width:0.26458332px;stroke-linecap:butt;stroke-linejoin:miter;stroke-opacity:1"
     x="13.829232"
     y="5.6675167"
     id="text977-5"><tspan
       sodipodi:role="line"
       id="tspan975-3"
       x="13.829232"
       y="5.6675167"
       style="font-style:normal;font-variant:normal;font-weight:normal;font-stretch:normal;font-size:4.23333311px;font-family:'DejaVu Sans Mono';-inkscape-font-specification:'DejaVu Sans Mono, Normal';font-variant-ligatures:normal;font-variant-caps:normal;font-variant-numeric:normal;font-feature-settings:normal;text-align:start;writing-mode:lr-tb;text-anchor:start;stroke-width:0.26458332px">baR</tspan></text>
  <g
     id="g927"
     transform="translate(0.67193815,0.27854712)">
    <rect
       ry="1.1370114"
       y="83.550049"
       x="23.616581"
       height="10.377027"
       width="9.4563351"
       id="rect998"
       style="opacity:1;fill:#cd1f00;fill-opacity:1;fill-rule:evenodd;stroke:#cd1f00;stroke-width:0.83921981;stroke-linecap:butt;stroke-linejoin:round;stroke-miterlimit:4;stroke-dasharray:none;stroke-dashoffset:0;stroke-opacity:1" />
    <text
       transform="rotate(-179.84442)"
       id="text1002"
       y="-91.266518"
       x="-25.791164"
       style="font-style:normal;font-variant:normal;font-weight:normal;font-stretch:normal;font-size:2.82222223px;line-height:125%;font-family:'DejaVu Sans Mono';-inkscape-font-specification:'DejaVu Sans Mono, Normal';font-variant-ligatures:normal;font-variant-caps:normal;font-variant-numeric:normal;font-feature-settings:normal;text-align:start;letter-spacing:0px;word-spacing:0px;writing-mode:tb-rl;text-anchor:start;fill:#000000;fill-opacity:1;stroke:#ffffff;stroke-width:0.13229166;stroke-linecap:butt;stroke-linejoin:miter;stroke-miterlimit:4;stroke-dasharray:none;stroke-opacity:1"
       xml:space="preserve"><tspan
         id="tspan868"
         style="font-style:normal;font-variant:normal;font-weight:normal;font-stretch:normal;font-size:2.82222223px;font-family:'DejaVu Sans Mono';-inkscape-font-specification:'DejaVu Sans Mono, Normal';font-variant-ligatures:normal;font-variant-caps:normal;font-variant-numeric:normal;font-feature-settings:normal;text-align:start;writing-mode:tb-rl;text-anchor:start;fill:#ffffff;fill-opacity:1;stroke:#ffffff;stroke-width:0.13229166;stroke-miterlimit:4;stroke-dasharray:none;stroke-opacity:1"
         y="-25.791164"
         x="-91.266518"
         sodipodi:role="line">OUT</tspan></text>
  </g>
  <g
     id="g922"
     transform="translate(38.399447,-2.1174183)">
    <rect
       ry="1.1370114"
       y="85.946014"
       x="-25.222281"
       height="10.377027"
       width="9.4563351"
       id="rect998-0"
       style="opacity:1;fill:#000000;fill-opacity:1;fill-rule:evenodd;stroke:#000100;stroke-width:0.83921981;stroke-linecap:butt;stroke-linejoin:round;stroke-miterlimit:4;stroke-dasharray:none;stroke-dashoffset:0;stroke-opacity:1" />
    <text
       transform="rotate(-179.84442)"
       id="text1002-0"
       y="-92.882889"
       x="23.043489"
       style="font-style:normal;font-variant:normal;font-weight:normal;font-stretch:normal;font-size:2.82222223px;line-height:125%;font-family:'DejaVu Sans Mono';-inkscape-font-specification:'DejaVu Sans Mono, Normal';font-variant-ligatures:normal;font-variant-caps:normal;font-variant-numeric:normal;font-feature-settings:normal;text-align:start;letter-spacing:0px;word-spacing:0px;writing-mode:tb-rl;text-anchor:start;fill:#000000;fill-opacity:1;stroke:#ffffff;stroke-width:0.13229166;stroke-linecap:butt;stroke-linejoin:miter;stroke-miterlimit:4;stroke-dasharray:none;stroke-opacity:1"
       xml:space="preserve"><tspan
         id="tspan868-3"
         style="font-style:normal;font-variant:normal;font-weight:normal;font-stretch:normal;font-size:2.82222223px;font-family:'DejaVu Sans Mono';-inkscape-font-specification:'DejaVu Sans Mono, Normal';font-variant-ligatures:normal;font-variant-caps:normal;font-variant-numeric:normal;font-feature-settings:normal;text-align:start;writing-mode:tb-rl;text-anchor:start;fill:#ffffff;fill-opacity:1;stroke:#ffffff;stroke-width:0.13229166;stroke-miterlimit:4;stroke-dasharray:none;stroke-opacity:1"
         y="23.043489"
         x="-92.882889"
         sodipodi:role="line">SC</tspan></text>
  </g>
  <g
     id="g917"
     transform="translate(19.476811,11.237347)">
    <rect
       ry="1.1370114"
       y="72.591248"
       x="-17.410999"
       height="10.377027"
       width="9.4563351"
       id="rect998-0-2"
       style="opacity:1;fill:#000000;fill-opacity:1;fill-rule:evenodd;stroke:#000100;stroke-width:0.83921981;stroke-linecap:butt;stroke-linejoin:round;stroke-miterlimit:4;stroke-dasharray:none;stroke-dashoffset:0;stroke-opacity:1" />
    <text
       transform="rotate(-179.84442)"
       id="text1002-0-2"
       y="-79.564148"
       x="15.268346"
       style="font-style:normal;font-variant:normal;font-weight:normal;font-stretch:normal;font-size:2.82222223px;line-height:125%;font-family:'DejaVu Sans Mono';-inkscape-font-specification:'DejaVu Sans Mono, Normal';font-variant-ligatures:normal;font-variant-caps:normal;font-variant-numeric:normal;font-feature-settings:normal;text-align:start;letter-spacing:0px;word-spacing:0px;writing-mode:tb-rl;text-anchor:start;fill:#000000;fill-opacity:1;stroke:#ffffff;stroke-width:0.13229166;stroke-linecap:butt;stroke-linejoin:miter;stroke-miterlimit:4;stroke-dasharray:none;stroke-opacity:1"
       xml:space="preserve"><tspan
         id="tspan868-3-6"
         style="font-style:normal;font-variant:normal;font-weight:normal;font-stretch:normal;font-size:2.82222223px;font-family:'DejaVu Sans Mono';-inkscape-font-specification:'DejaVu Sans Mono, Normal';font-variant-ligatures:normal;font-variant-caps:normal;font-variant-numeric:normal;font-feature-settings:normal;text-align:start;writing-mode:tb-rl;text-anchor:start;fill:#ffffff;fill-opacity:1;stroke:#ffffff;stroke-width:0.13229166;stroke-miterlimit:4;stroke-dasharray:none;stroke-opacity:1"
         y="15.268346"
         x="-79.564148"
         sodipodi:role="line">IN</tspan></text>
  </g>
</svg>
