<?xml version="1.0" encoding="UTF-8" standalone="no"?>
<svg
   xmlns:osb="http://www.openswatchbook.org/uri/2009/osb"
   xmlns:dc="http://purl.org/dc/elements/1.1/"
   xmlns:cc="http://creativecommons.org/ns#"
   xmlns:rdf="http://www.w3.org/1999/02/22-rdf-syntax-ns#"
   xmlns:svg="http://www.w3.org/2000/svg"
   xmlns="http://www.w3.org/2000/svg"
   width="195"
   height="380"
   viewBox="0 0 51.59375 100.54166"
   version="1.1"
   id="svg12553">
  <defs
     id="defs12547">
    <linearGradient
       osb:paint="solid"
       id="linearGradient4708">
      <stop
         id="stop4706"
         offset="0"
         style="stop-color:#ececec;stop-opacity:1;" />
    </linearGradient>
    <filter
       id="filter4696"
       style="color-interpolation-filters:sRGB">
      <feColorMatrix
         id="feColorMatrix4692"
         result="colormatrix"
         values="0 0 0 0 1 0 0 0 0 0 0 0 0 0 0 1 0 0 0 0 0 "
         in="SourceGraphic" />
      <feBlend
         id="feBlend4694"
         result="fbSourceGraphic"
         mode="multiply"
         in2="BackgroundImage" />
      <feColorMatrix
         id="feColorMatrix4762"
         values="0 0 0 -1 0 0 0 0 -1 0 0 0 0 -1 0 0 0 0 1 0"
         in="fbSourceGraphic"
         result="fbSourceGraphicAlpha" />
      <feColorMatrix
         in="fbSourceGraphic"
         result="colormatrix"
         values="1 0 0 0 0 0 1 0 0 0 0 0 1 0 0 0 0 0 5 -1 "
         id="feColorMatrix4764" />
      <feComposite
         k4="0"
         k3="0"
         k1="0"
         result="composite"
         k2="0.3"
         operator="arithmetic"
         id="feComposite4766"
         in2="colormatrix" />
    </filter>
  </defs>
  <metadata
     id="metadata12550">
    <rdf:RDF>
      <cc:Work
         rdf:about="">
        <dc:format>image/svg+xml</dc:format>
        <dc:type
           rdf:resource="http://purl.org/dc/dcmitype/StillImage" />
        <dc:title></dc:title>
      </cc:Work>
    </rdf:RDF>
  </metadata>
  <g
     id="layer1"
     transform="matrix(0.4319795,0,0,1.0012215,-11.51736,-161.56849)">
    <path
       id="path33453"
       d="M 26.616839,161.37987 H 145.85344 v 100.3961 H 26.616839 Z m 0,0"
       style="fill:#e6e6e6;fill-opacity:1;fill-rule:nonzero;stroke:none;stroke-width:0.32258889" />
  </g>
  <path
     id="path853"
     d="m -5.395653,-47.663391 c 10.90685,-1.263873 21.80571,-2.605849 32.72434,-3.762061 0.37546,1.079247 7.08646,-1.590308 9.56794,-1.216972 3.38703,-0.498719 5.82573,-0.995492 1.58082,1.917709 6.3857,-5.029929 -0.99228,3.057391 -4.11522,1.4655 -7.77356,1.3614 -15.91462,2.827023 -23.45894,4.204263 -3.06388,0.64915 -1.22634,1.746015 1.16787,0.762505 2.053,-0.01884 -3.16913,6.35367 2.18805,5.498669 4.26022,-1.101811 10.06936,-2.930952 6.10835,3.264317 -2.09134,3.358567 -6.56649,-2.281215 -5.28967,4.032037 0.48041,5.892299 -2.81125,-6.627795 -3.38464,-9.155112 -1.44172,-6.940279 -4.06701,3.035193 -2.75373,6.962075 -0.18292,12.900047 -0.37956,25.6953899 -0.0363,38.3835759 -0.16502,1.077673 -0.1823,3.640298 0.0595,5.3629421 -0.29503,1.567297 0.67166,5.25485 -1.25628,3.675768 -1.46764,2.458059 -5.8748,-2.295301 -3.643,1.732982 0.9731,0.919409 3.10987,-0.791031 4.64293,0.473602 0.58889,1.149922 -3.44603,-0.476686 -1.58798,1.935043 1.93717,2.030561 -3.35232,0.546649 -1.06152,0.0373 0.81296,-0.990176 -0.16497,-2.197596 -0.72544,-1.27324 1.17224,1.345193 -1.17702,1.903095 -0.45152,-0.193143 0.0699,-0.811615 -2.13993,0.895731 -1.95318,2.357068 0.69475,1.536698 1.07259,3.320853 1.80294,4.299749 -0.1513,1.027927 1.35,2.461272 1.41658,3.708484 0.48572,0.923153 0.51582,1.043669 1.32848,2.563441 0.71471,1.396409 0.64168,1.845009 1.55659,3.458918 1.83161,4.06728 3.85704,8.901144 5.92331,13.212256 8.09249,18.900904 17.44929,37.270922 25.54001,56.129575 -3.3982,-3.820413 -4.80161,-9.444271 -7.43596,-13.948009 -2.13587,-2.733386 -1.89612,-4.129846 -3.83406,-6.320193 -1.73214,-2.798054 -4.55215,-7.516444 -6.41937,-11.314281 -1.12681,-1.467727 -3.00505,-5.744129 -3.90625,-7.048931 -2.08482,-3.926482 -4.89924,-7.697455 -5.93806,-12.131757 0.0716,-1.701665 -2.70319,-3.586998 -3.17759,-4.95561 -1.11067,-1.637942 -1.89531,-4.563013 -2.81161,-5.34023 1.03707,-0.455273 -1.98527,-1.021108 -0.62669,-1.619554 -0.63355,-1.172938 -2.22707,-2.088576 -2.87263,-2.703067 1.49627,-0.518146 -0.0943,-1.198848 -0.55662,-1.638691 1.46305,-0.345426 -0.5781,-0.92051 -0.587,-1.887283 -0.0791,-1.136497 -0.11318,-1.396748 -1.61380998,-2.741644 1.03276998,-1.100973 -1.36197,-0.547281 -0.68117,-1.259524 -1.59094002,-0.117967 1.29338998,-0.793732 -0.5614,-1.669985 0.91267,-0.346641 -1.46952002,-1.561854 -1.58090002,-1.483592 -1.63215,-0.223764 -2.38961,0.05304 -2.45977,0.830607 0.0316,0.718445 0.12775,1.373999 -0.15803,1.761739 1.56468,0.903367 0.20377,0.501391 1.07983,1.110268 1.68504,-0.403646 -1.33841,1.299265 1.10357,0.572007 -0.79928,0.912081 5.15976,0.06023 2.37529002,0.600271 2.95488998,1.741329 -2.26107002,-0.08992 -2.41734002,1.525503 1.87052002,0.766321 4.03203,-0.764309 2.08035002,0.766051 0.32229,0.541897 -1.32584002,0.277373 -0.055,1.067043 -2.94804002,-0.654875 0.0135,1.197822 0.71774,1.603164 0.1961,1.598616 5.79953998,0.767912 0.96589998,2.193513 -0.64171998,0.775628 1.63063,1.10947 1.14628,2.061404 -0.21725,-0.130731 1.43315,1.233282 0.59517,1.337213 -2.69123998,0.240276 3.35839,1.103283 2.83427,1.841845 -4.00874,0.544638 -0.0159,0.624051 -0.33617,2.536195 0.59959,2.058284 2.35206,0.498026 3.52692,2.160408 -3.32738,-0.408784 -1.19792,1.390613 -0.20148,2.724266 0.88209,2.290148 4.66158,0.374894 0.38616,2.208998 1.95072,0.08661 1.92237,2.472343 3.87419,3.045026 -5.22824,0.575163 4.73991,3.725414 1.06622,3.806379 -2.67349,1.383957 5.79744,2.732065 1.02331,3.691096 1.26206,1.772309 4.42745,1.575281 1.75159,2.950516 1.43968,1.58175 3.52585,1.379786 1.73383,2.752956 2.89256,1.413096 0.96146,2.898954 3.13063,3.914186 -1.61133,1.856747 2.55147,1.238295 0.84868,3.292413 1.26899,0.372342 1.65166,2.608887 1.97559,2.592362 0.65566,2.064852 2.63583,3.286433 2.5615,4.800273 0.90679,1.712426 2.25938,2.528658 2.2743,4.43171 1.51059,0.737304 1.41223,1.961709 2.22629,3.975768 1.7342,1.562323 3.05926,4.995612 4.5248,7.414291 1.33382,2.9216 4.13115,5.8903 4.58252,8.73324 -1.55642,-1.07989 -3.60957,-1.84049 -2.72584,-3.34048 -4.45415,-7.922075 -10.05877,-15.231587 -14.51965,-23.123047 -2.05087,-2.553905 -4.44002,-5.964921 -5.61914,-8.417286 -1.18477,-2.793697 -1.94843,-3.026387 -3.20375,-5.556968 -1.62773,-1.756105 -3.43549,-4.258285 -4.28713,-6.74014 -1.41477,-1.613652 -2.31266,-2.548462 -2.8473,-4.57872 -0.53297,0.29319 -2.00429,-2.740623 -2.24045,-3.428999 -1.08477,-0.759271 -1.15372,-1.841363 -2.4588,-3.690327 -0.93371,-0.91855 -1.52562,-2.319089 -1.45284,-3.05504 -0.38304998,-1.260705 -2.13495998,-2.059971 -1.87875998,-3.355442 -0.29144,-0.729473 -0.97514002,-1.503367 -2.03091002,-2.310288 -0.18327,-1.307539 -1.93009,-2.071127 -1.15423,-3.071463 -1.98798,-1.229049 -0.89361,-1.370723 -2.20269,-3.111638 -1.04395,-1.222372 -0.49913,0.09925 -1.03761,-1.580239 0.49072,-0.0071 -0.052,-0.148022 -0.94958,-0.891096 -0.84694,-0.539699 0.27729,-0.850866 -0.83633,-2.097367 0.86775,-0.68789 -2.12496,-0.0918 -1.24265,-1.308577 -0.46793,-0.793463 -2.3822,-2.155786 -0.60895,-2.231569 -2.36959,-1.397446 -1.23801,-1.796216 -2.54765,-3.116247 -0.8471,-0.746256 -1.00891,-1.749569 -2.48294,-2.893194 -2.78412,0.469942 1.45997,5.071462 1.76384,6.170053 1.28917,1.385103 2.38189,4.194492 3.33137,5.065853 0.2944,1.090625 1.43914,2.076206 1.89307,3.218963 0.92427,1.0741 1.52571,2.806412 2.10476,3.544308 1.67783,1.675744 2.43931,4.222931 4.18678,5.817685 1.33121,1.664141 2.12927002,3.768542 3.32389002,5.09811 4.96045998,8.833651 10.38313998,17.41966 16.38074998,25.616998 4.78645,7.763951 10.25713,15.119141 15.13259,22.845556 1.76237,1.80431 6.50479,10.103681 1.82133,4.171191 -4.0574,-5.248446 -7.64714,-10.799029 -11.6996,-16.016223 -0.37747,-1.879664 -4.11243,-3.719584 -4.10058,-6.631681 -1.65328,-0.571217 -5.03906,-5.004094 -4.07082,-5.688058 -2.51511,-1.359368 -4.46013,-5.084619 -6.45787,-7.81537 -2.34091,-3.319299 -4.92287,-6.982175 -7.01619998,-10.081617 -1.07548,-1.118996 -3.04961002,-3.974012 -4.46469002,-5.993039 -1.15092,-1.475581 -2.66749,-3.459941 -2.66826,-4.522905 -0.53721,-1.539026 -1.32691,-1.131689 -1.19708,-2.058391 -1.45332,-0.589084 -0.36081,-1.47979 -2.02379,-2.118757 1.24516,0.05588 -2.69365,-2.187491 -0.12603,-2.342393 -0.2572,-2.177976 -0.35484,0.665221 -1.23344,-0.125568 -0.64499,-0.899281 -1.61278,-2.045327 -1.60429,-2.628159 -0.8802,-1.129153 -0.85822,-1.103327 -2.19066,-2.259558 0.66886,-0.594951 -1.07181,-1.952736 -1.73255,-2.60927 0.46989,-0.449144 -2.23276,-2.744592 -1.66724,-2.744698 -0.71627,-0.898903 -1.53321,-1.689985 -2.45729,-3.344995 -1.83674,-1.061233 -0.8115,-3.642633 -2.22992,-3.422706 -1.85743,1.131742 0.91405,3.794875 1.67592,5.340876 1.84642,2.71211 3.83807,4.938251 5.35416,7.765361 3.54567,4.61377 6.40824,9.505501 10.12621,14.059622 8.9341,12.967027 18.22455,25.731419 27.78185,38.209853 5.15182,7.235326 10.55466,14.325516 15.85999,21.399516 3.40987,3.25531 -2.43726,1.99879 -4.388,2.71028 -4.03382,0.50772 -8.57759,1.13888 -12.23059,0.91803 -0.72689,1.07996 -5.05984,0.93501 -7.37074,1.39377 -0.1788,-1.07157 -3.88806,0.0135 -1.03211,-0.9095 -1.34403,-2.4425 -2.4108,0.13427 -5.32089,0.0123 -1.65871,-0.74966 1.56757,2.17053 -0.57404,1.32048 -1.32982,-1.18083 -0.76187,1.3964 -4.05209,0.86094 -2.83332998,-0.38375 -9.5836,3.09398 -8.95444,-0.86152 0.52926,-4.3951 -2.17193,-3.55896 -0.86538,-0.29766 -2.08474,1.10037 -1.32753,2.38257 -3.49043,2.49162 -2.03691,0.55591 -5.09302,0.88839 -6.70318,0.76194 -0.76325,0.10185 -1.91757,0.80222 -2.36098,-0.082 -1.3605,-12.29734 -2.90074,-24.472105 -4.37111,-36.997729 -4.88134,-41.183707 -9.71384,-82.3731771 -14.56835,-123.560054 10.923,-1.286317 21.84601,-2.572634 32.76902,-3.858941 z m -13.94559,160.874601 c 0.28292,-0.50728 -0.25301,-0.12039 0,0 z m 0.65032,2.47918 c 0.10985,-0.71793 -0.64607,-0.12659 0,0 z m -0.0196,-0.7053 c 0.85393,-0.52239 -0.3556,-1.02095 0,0 z m -0.23295,-2.98796 c 0.31531,-0.28567 -0.37304,-0.20459 0,0 z m -0.28834,-4.92687 c 0.31532,-0.28566 -0.37304,-0.20458 0,0 z m 1.05209,6.7715 c 0.44356,-1.0404 -0.84571,0.63588 0,0 z m -0.55518,-4.20369 c 0.30054,-0.40931 -0.38431,-0.20409 0,0 z m 0.9178,7.37672 c 0.65513,-1.21939 -0.72632,-1.76212 0,0 z m 0.0117,-1.20696 c 0.71367,-0.17103 -0.46045,-0.51068 0,0 z m -0.30278,-3.32544 c 0.31531,-0.28565 -0.37304,-0.2046 0,0 z m -0.1924,-4.93816 c 0.68548,0.0715 -0.73962,-0.53514 0,0 z m 0.59362,4.586 c 0.53692,-0.0828 -0.82946,-0.38208 0,0 z m 0.38352,2.88607 c 0.61392,-0.29278 -0.74493,-0.3331 0,0 z m -0.079,-0.57433 c 0.39653,-0.93907 -0.45402,-0.5009 0,0 z m -0.90666,-10.70909 c -0.21745,-0.24968 -0.43072,-0.0648 0,0 z m 1.07862,10.00795 c 0.45387,-0.68822 -0.60133,-0.56395 0,0 z m 0.45062,1.92883 c 1.12184,-0.52533 -0.41597,-1.79366 0,0 z m -0.49338,-6.00918 c 0.31533,-0.28563 -0.37304,-0.20459 0,0 z m 0.048,-2.84474 c 0.31248,-0.35836 -0.57106,-0.23775 0,0 z m 1.39617,9.65876 c 0.71795,-1.41951 -1.04448,-0.0193 0,0 z m -0.30367,-2.18204 c 0.1262,-0.35244 -0.46655,-0.10558 0,0 z m -0.059,-1.17853 c 0.31247,-0.35836 -0.57107,-0.23775 0,0 z m 0.28455,-0.93934 c 0.3371,-0.15735 -0.36963,-0.19638 0,0 z m 0.45939,2.40402 c 0.41951,-0.24747 -0.56402,-0.24471 0,0 z m -0.57365,-5.94096 c 0.28831,-0.33026 -0.47827,-0.21567 0,0 z m 0.98273,7.82069 c -0.29324,-0.66258 -0.27771,0.0937 0,0 z m 0.0278,-0.35256 c 1.37436,-1.94254 -0.82034,-0.32785 0,0 z m -0.29086,-2.93349 c 0.3358,-0.47251 -0.41792,-0.64759 0,0 z m 0.78506,1.68817 c 0.9673,-0.59048 -1.01697,-0.65129 0,0 z m 0.45581,1.65479 c 0.29273,-1.08201 -0.85606,0.18579 0,0 z m -0.55722,-4.05474 c 0.42465,-0.63617 -0.59593,-0.14175 0,0 z m 0.31781,1.69292 c 0.70415,-0.51439 -0.81017,-0.61258 0,0 z m -0.26935,-2.18498 c 0.31531,-0.28566 -0.37305,-0.20458 0,0 z m 0.62117,3.62315 c 0.33712,-0.15732 -0.36962,-0.19637 0,0 z m 0.11047,-0.40209 c 0.14485,-0.43498 -0.53818,-0.29075 0,0 z m -0.22804,-2.66156 c 0.50945,-0.28145 -0.5671,-0.36521 0,0 z m 0.22473,2.3215 c 0.32639,-0.28776 -0.38739,-0.32831 0,0 z m 0.37829,1.56043 c 0.62284,-0.7018 -0.76883,-0.5379 0,0 z m -0.15269,-2.94879 c 0.55652,-0.36877 -0.62696,-0.22942 0,0 z m 0.33883,2.05143 c 0.30054,-0.40932 -0.38431,-0.20408 0,0 z m 0.12941,-0.4255 c 0.339,-0.44012 -0.58762,-0.42132 0,0 z m -0.25642,-2.58769 c 0.61897,0.26738 -0.46424,-0.73392 0,0 z m -0.16134,-1.91368 c 0.31533,-0.28564 -0.37305,-0.2046 0,0 z m 0.82072,5.64235 c 0.59215,-0.88709 -0.8245,-0.49885 0,0 z m -0.26441,-2.2061 c 0.31285,-0.33897 -0.50454,-0.12517 0,0 z m -0.009,-0.43671 c 0.33711,-0.15734 -0.36962,-0.19638 0,0 z m 0.0677,-0.25116 c 0.31531,-0.28565 -0.37305,-0.20457 0,0 z m -0.0182,-2.08844 c 1.35666,1.3989 -0.22983,-1.38951 0,0 z m 0.2456,1.17121 c 0.4708,-0.39385 -0.73491,-0.21155 0,0 z m 0.20451,2.51998 c 0.44146,-0.29033 -0.62538,-0.45937 0,0 z m 0.18884,1.31854 c 0.8462,0.1479 -0.4358,-0.82032 0,0 z m -0.0536,-2.59898 c 0.62633,-0.38432 -0.6586,-0.63299 0,0 z m 0.54109,0.94353 c 3.92113,-1.0621 -1.55844,-0.83303 0,0 z m -0.22473,-2.53712 c 0.14483,-0.435 -0.53817,-0.29073 0,0 z m 0.40007,3.803 c 1.27596,0.008 4.25997,-2.25154 1.90101,-1.54488 -10e-4,1.16657 -2.16058,0.18766 -1.90101,1.54488 z m -0.036,-2.89146 c 0.56475,-0.53828 -0.74791,-0.38203 0,0 z m -10.6027,-92.243828 c 1.09328,1.636786 0.0317,-1.211667 0,0 z m 10.04997,87.710838 c 0.52586,0.0348 -0.46515,-0.39816 0,0 z m 0.80105,3.3548 c -0.26656,-0.68846 -0.14302,-0.38507 0,0 z m 0.0779,0.86579 c 1.55597,0.0507 -0.86461,-0.95322 0,0 z m -0.25852,-2.40739 c 1.21626,-0.25274 -0.76169,-0.5343 0,0 z m -0.50342,-4.99227 c 0.12619,-0.35245 -0.46656,-0.10558 0,0 z m -9.70047,-83.776734 c 0.40302,-0.132037 -0.74252,-0.0984 0,0 z m 10.24649,86.377044 c 0.43282,-0.11733 -0.60949,-0.24034 0,0 z m 0.45653,3.06669 c 1.33035,0.49989 -0.9927,-0.9252 0,0 z m -10.12553,-87.273014 c 0.49881,-0.340479 -0.83955,-0.04869 0,0 z m 10.32571,87.786994 c 0.31532,-0.28566 -0.37305,-0.2046 0,0 z m -0.0481,-1.64794 c 0.47749,-0.29739 -0.53352,-0.17833 0,0 z m -10.29221,-89.032214 c 0.69058,-0.126226 -0.84389,-0.07214 0,0 z m 10.65796,88.770964 c -0.18979,-0.66102 -0.63254,0.0329 0,0 z m 0.51684,3.95089 c 0.60052,-0.33231 -0.87977,-0.33126 0,0 z m 0.18093,-1.3831 c 0.91136,-1.10806 -0.99132,-0.74428 0,0 z m -10.50596,-89.516647 c 0.33711,-0.157324 -0.36963,-0.196382 0,0 z m 10.82697,90.683657 c 1.23824,-0.0369 -0.58315,-1.18158 0,0 z m -10.15803,-89.48035 c 1.1623,-0.409696 -1.20721,-0.162065 0,0 z m 10.2497,89.86972 c 0.3642,-0.16369 -0.40579,-0.30125 0,0 z m -0.20914,-3.52576 c 0.12617,-0.35246 -0.46657,-0.10556 0,0 z m 0.58314,1.26948 c -0.19028,-0.66127 -0.63199,0.0331 0,0 z m 0.004,1.04011 c 2.06056,0.61818 -0.94801,-1.33969 0,0 z m -0.30447,-4.39864 c 0.5369,-0.0828 -0.82946,-0.38207 0,0 z m -9.66681,-81.58167 c 0.4684,-0.0907 -0.35519,-0.268232 0,0 z m 10.42243,86.73977 c 0.33541,-0.36799 -0.41173,-0.28 0,0 z m 0.0149,-2.80397 c 1.32503,0.97222 -0.84933,-0.93209 0,0 z m 0.26808,4.44291 c 0.32639,-0.28778 -0.3874,-0.32831 0,0 z m -0.67939,-7.95298 c 0.68011,0.0322 -0.62833,-0.35554 0,0 z m 0.72228,7.00976 c 2.58652,-1.45635 -0.30833,-2.05758 0,0 z m 0.0706,-2.03036 c -0.24028,-0.76216 -0.32117,0.0895 0,0 z m -9.87187,-83.615705 c 0.47659,-0.286994 -0.51655,-0.02335 0,0 z m 8.74222,73.480095 c 0.81912,0.41848 -0.3955,-0.76356 0,0 z m -8.77636,-76.296931 c 0.48371,-0.357681 -0.67123,-0.09379 0,0 z m 9.75214,82.680331 c 1.63115,0.88313 -0.6525,-0.9357 0,0 z m 0.63304,1.91576 c 1.85405,1.4981 -0.69797,-1.51971 0,0 z m 0.38233,2.18563 c 0.20299,-0.53248 -0.37698,-0.0106 0,0 z m -9.71766,-85.251738 c 0.49699,-0.142699 -0.5302,-0.16844 0,0 z m 0.67462,2.060526 c 0.60722,-0.571543 -0.4113,-0.104518 0,0 z m 0.46054,0.821207 c 0.12196,-0.480218 -0.61992,-0.07965 0,0 z m 9.11066,78.781815 c 2.4916,5.51773 1.70868,-1.63078 0,0 z m -8.80643,-79.401264 c 0.31283,-0.33898 -0.50454,-0.125165 0,0 z m 9.33894,78.856994 c 0.28832,-0.33025 -0.47826,-0.21567 0,0 z m -9.03758,-78.386629 c 0.7648,-0.358902 -1.00989,-0.158294 0,0 z m 0.0345,0.365525 c 0.31531,-0.285654 -0.37305,-0.204598 0,0 z m 0.56183,2.65743 c 0.30546,-0.334415 -0.47945,-8.36e-4 0,0 z m -0.0281,-2.461325 c -0.11566,-0.156619 -0.50999,0.217936 0,0 z m 8.98624,77.118569 c 1.19755,0.38027 -0.75932,-1.33037 0,0 z m -8.88954,-76.574575 c 0.89159,0.256996 -0.6166,-0.904206 0,0 z m 0.0978,1.314113 c 0.31532,-0.285665 -0.37305,-0.204587 0,0 z m 8.99528,76.033702 c 1.2423,0.0871 -0.94204,-0.89146 0,0 z m -10.06035,-87.969889 c 1.26089,1.164848 0.0236,-1.137695 0,0 z m 1.44068,10.789121 c -0.11566,-0.156629 -0.51,0.217937 0,0 z m 8.97466,75.820078 c 0.11606,-0.46514 -0.64653,-0.2471 0,0 z m -8.57274,-72.969209 c 0.46839,-0.0907 -0.3552,-0.268232 0,0 z m -0.14611,-2.185882 c 0.33542,-0.367991 -0.41172,-0.280013 0,0 z m 0.16721,0.449339 c 1.12079,-0.257639 -0.84497,-0.181048 0,0 z m 0.10761,0.965178 c -0.0634,-0.179784 -0.40436,0.186951 0,0 z m 0.46773,-0.416315 c -0.17003,-0.320848 -0.54512,-0.01505 0,0 z m -1.27911,-11.324369 c 0.32822,-0.392919 -0.49919,-0.316433 0,0 z m 1.75933,12.924409 c 0.60885,0.0693 0.28389,-0.0095 0,0 z m 0.0602,-0.763886 c 1.17718,-0.174663 -1.05174,-0.09827 0,0 z m 0.55111,2.073146 c -0.0979,-0.364209 -0.47076,0.321116 0,0 z m 0.16487,0.739302 c 0.3371,-0.157342 -0.36963,-0.196381 0,0 z m 0.41209,1.021447 c 0.33711,-0.157323 -0.36963,-0.196372 0,0 z m -1.31052,-13.658123 c 0.31284,-0.338972 -0.50454,-0.125166 0,0 z m 1.56014,12.265479 c 0.2363,-0.404448 -0.74466,-0.01395 0,0 z m -0.0714,0.270885 c -0.0634,-0.179784 -0.40436,0.18697 0,0 z m 0.16714,0.78931 c 1.90214,0.968398 0.47122,-1.166914 0,0 z m 0.0531,0.25474 c -0.0634,-0.179784 -0.40436,0.18695 0,0 z m -0.16413,-1.700726 c 0.31285,-0.338972 -0.50454,-0.125166 0,0 z m 0.46284,0.626401 c 0.31285,-0.338972 -0.50453,-0.125176 0,0 z m 1.68569,4.084301 c 0.6023,-0.795766 -0.8422,0.467339 0,0 z m -1.5655,-12.572154 c 0.14959,-0.497437 -0.44209,0.204172 0,0 z m 1.433,11.814856 c 2.122,0.901902 -0.3816,-1.704157 0,0 z m 0.84363,0.968951 c 0.63501,0.228466 0.021,1.374004 1.36441,1.950815 0.17524,-0.205242 -0.76086,-3.517608 -1.7469,-2.097018 l 0.15252,0.05172 0.22999,0.0945 z m -1.70361,-12.353808 c 0.63108,-0.247157 -0.55357,-0.235539 0,0 z m 1.26766,10.647794 c 0.38753,-0.385465 -0.55229,-0.279873 0,0 z m 0.40487,2.474532 c 0.82368,-0.196877 -0.18897,-0.32774 0,0 z m 1.30042,1.750504 c 1.19238,-0.07546 1.26374,2.631055 2.78226,3.345342 0.91905,2.221214 1.67022,0.68112 -0.0252,-0.842037 -1.1654,-1.297758 -1.12848,-1.812699 -2.14857,-2.88023 0.74665,-0.724699 -1.1739,0.133196 -0.60847,0.376924 z m 1.01365,0.512897 c 0.77812,0.678992 0.0339,0.756138 0,0 z m 0.98888,1.582776 c 0.5063,-0.142285 -0.16484,0.502858 0,0 z m -2.3843,-12.927259 c -0.0634,-0.179785 -0.40435,0.18696 0,0 z m -1.14106,-11.807044 c 0.92487,0.0976 0.005,1.355178 2.47629,2.443144 2.86678,-0.0098 2.02383,-0.240325 2.45095,0.642603 1.46767,-0.8078 0.6865,-1.722069 -1.10521,-1.643841 1.59258,-0.218442 0.62631,-1.823798 -0.21587,-2.442253 -0.54467,-0.350196 -3.38866,1.237709 -3.60616,1.000347 z m 3.32669,2.437043 c 0.36962,0.196381 -0.33712,0.157323 0,0 z m -1.92063,9.66144 c 0.0691,-0.03663 0.2812,0.127781 0,0 z m 1.61551,13.719502 c 0.31285,-0.338972 -0.50454,-0.125165 0,0 z m -1.13796,-13.908405 c -0.1257,-0.450059 -0.76746,-0.129851 0,0 z m 0.99297,2.193629 c 0.97942,-0.02753 -1.18536,-0.421943 0,0 z m -2.52562,-20.477873 c 0.33541,-0.367999 -0.41172,-0.280002 0,0 z m 1.19375,9.101559 c 0.3581,-0.445214 -0.65734,-0.195892 0,0 z m 0.20285,-3.66046 c 2.58721,-0.887389 -2.1652,0.220019 0,0 z m -0.96945,-5.570026 c 0.14484,-0.434984 -0.53819,-0.290747 0,0 z m 4.18224,34.379153 c 0.3642,-0.163684 -0.40579,-0.301261 0,0 z m -3.0129,-28.340145 c 0.61364,-0.344707 -0.72554,-0.196288 0,0 z m 0.25054,3.229077 c 0.31532,-0.285664 -0.37305,-0.204587 0,0 z m -0.61554,-7.370921 c 2.38322,2.793834 5.63809,-2.076102 1.04167,-0.702519 -0.0148,0.479174 -1.92185,0.14706 -1.04167,0.702519 z m 0.82309,0.103946 c 0.47665,-0.02058 -0.28317,0.343402 0,0 z m 1.93098,-0.661567 c 0.27182,0.108386 -0.40859,0.09151 0,0 z m -1.76107,9.959063 c 1.59855,2.269994 4.67575,-1.653893 0.29171,-0.73397 0.22502,0.372683 -0.73965,0.532432 -0.29171,0.73397 z m 0.98558,-0.731961 c 0.67124,0.0938 -0.48371,0.357682 0,0 z m 1.94403,23.991536 c 0.67057,-0.792347 -0.57292,-0.687165 0,0 z m -1.18928,-11.435193 c 0.31532,-0.285646 -0.37305,-0.204608 0,0 z m 1.58151,11.889763 c 0.62806,1.166797 2.85866002,4.060716 1.86934002,1.721109 C -1.403833,50.024431 -2.480903,47.945967 -2.854373,48.836312 Z m 0.16157,-0.341367 c 0.64807,-0.31935 -0.92935,-0.223722 0,0 z m -2.89297,-25.030924 c 0.81102,-0.31397 -0.81237,-9.04e-4 0,0 z m 0.4943,4.610801 c 0.31532,-0.285654 -0.37305,-0.204587 0,0 z m 10.70854,85.115608 c 0.35374,-0.66096 -1.26344,-0.14433 0,0 z m -9.97719,-83.189862 c -0.0633,-0.179785 -0.40435,0.18695 0,0 z m 1.59554,14.530854 c 0.33711,-0.157332 -0.36962,-0.196371 0,0 z m -0.39104,-5.887476 c 0.29237,-0.441309 -0.51518,-0.288362 0,0 z m -0.0695,0.786338 c 0.30317,-0.262697 -0.21537,-0.254802 0,0 z m -0.70576,-8.709778 c -0.0251,-0.417021 -0.44248,0.219543 0,0 z m 0.97102,8.386731 c 0.31285,-0.338973 -0.50454,-0.125166 0,0 z m -0.67812,-8.188172 c 0.4775,-0.297402 -0.53352,-0.178341 0,0 z m 9.69549,82.318715 c 0.16138,-0.36764 0.10274,-0.22595 0,0 z M -4.064573,26.057112 c 0.33711,-0.157332 -0.36963,-0.196371 0,0 z m 1.29242,-0.3407 c 2.22221002,-1.360964 -2.23546,-0.634547 2e-5,-10e-7 z m 2.15026002,26.590975 c 1.54453,0.771519 -0.53481002,-1.547828 0,0 z M -1.862273,41.022641 c 0.69437,0.248996 -0.63264,-0.553131 0,0 z m -4.74313,-43.6280581 c -0.18957,-0.660915 -0.63277,0.03283 0,0 z m 1.84635,17.3521021 c 0.3092,-0.03737 -0.33051,-0.263255 0,0 z m 1.4704,9.904424 c 1.56297,-0.908545 0.28039,0.118252 0,0 z m -0.0763,-0.913606 c 0.55836,-0.449422 -0.80992,0.255781 0,0 z m 3.59877002,29.730218 c 1.47249998,0.630313 -0.9664,-2.17242 0,0 z M -6.291113,-2.8133401 c 0.31284,-0.33897 -0.50454,-0.125165 0,0 z m 4.49121,36.7978381 c 1.02175002,0.09423 -0.95878,-0.715817 0,0 z m 0.1776,1.041557 c -0.11566,-0.156619 -0.50998,0.217926 0,0 z m -0.25297,-3.371701 c -0.14152,-0.144642 -0.61561,0.216438 0,0 z m -0.49337,-5.651028 c 0.63965,-0.310122 -0.69418,-0.153059 0,0 z m 1.00277,9.754916 c 0.3264,-0.287765 -0.3874,-0.328309 0,0 z m 8.96924,74.976318 c 2.65418,3.30933 0.84666,-1.51846 0,0 z m -8.81117,-74.459941 c 0.31532002,-0.285655 -0.37305,-0.204598 0,0 z m 2.12027002,18.080476 c 1.07865998,-0.15541 -0.41773,-1.041384 0,0 z M -1.989273,25.665351 c 0.40302,-0.132037 -0.74251,-0.0984 0,0 z m 3.49882,29.504036 c 1.71503,-0.225311 -1.14936998,-0.951577 0,0 z m 0.15734,0.512728 c 0.32821,-0.392919 -0.49919,-0.316433 0,0 z M -0.42475298,36.234107 c 1.20117,-0.430837 -1.00511002,-0.720884 0,0 z M -1.478443,25.921912 c 0.13648,0.813714 -0.0295,-0.629527 0,0 z m 0.58368002,5.421472 c -0.0634,-0.179784 -0.40435002,0.18696 0,0 z m 0.55055,5.656348 c 0.33711,-0.157343 -0.36964,-0.19637 0,0 z M 2.158217,56.207884 c 1.28334,0.958326 -0.54658,-1.597995 0,0 z m 6.58756,53.776616 c 0.95637,0.13343 -0.86384,-0.5519 0,0 z M 0.23469702,36.912563 c 0.5921,-0.140608 -0.75213,-0.207446 0,0 z M -1.231543,18.020734 c 1.63057002,1.769143 -1.25659,-2.024126 0,0 z m 4.2485,39.812588 c 0.95488,0.844012 3.51088,4.284741 1.21504,0.888574 -0.033,-0.494251 -1.79555,-2.966353 -1.21504,-0.888574 z M 0.30747702,31.588883 c -0.11566,-0.156628 -0.50999,0.217926 0,0 z M 1.982067,47.668781 c 0.31532,-0.285654 -0.37304,-0.204598 0,0 z m -2.25650998,-20.97017 c -0.0634,-0.179784 -0.40436,0.18695 0,0 z M -1.094623,19.530693 c 2.08429002,0.979786 0.0163,-1.398124 0,0 z m 3.72588,29.520706 c 0.32639,-0.287754 -0.38739,-0.328309 0,0 z M -0.61970298,20.252941 c 0.78196,-0.589975 -0.57996002,-0.05742 0,0 z M 1.569037,37.503968 c 0.48206,-0.334841 -0.63160998,0.03782 0,0 z M -0.20482298,20.836345 c -0.56637,2.129356 1.26389998,-2.240208 0,0 z m 0.45678,1.044892 c 2.80416998,0.362745 -1.23241,-1.42007 0,0 z M 2.503847,41.752307 c -0.21742,-0.249676 -0.43074,-0.06483 0,0 z m -7.61759,-65.131176 c 0.31285,-0.338962 -0.50453,-0.125166 0,0 z m 5.60209002,45.971553 c 1.40749998,1.248718 0.32243,-1.405349 0,0 z M 1.408647,30.752187 c 0.43282,-0.117322 -0.60949998,-0.240332 0,0 z M 0.86257702,21.020885 c -0.16085,-0.137514 -0.72553,0.236812 0,0 z M -4.594513,-23.05092 c 0.31532,-0.285645 -0.37304,-0.204608 0,0 z m 5.67256,46.763979 c 1.99108,0.424496 -0.0723,-1.345579 0,0 z m 4.93581,37.821106 c 0.32566,-0.789592 -1.04973,-0.721813 0,0 z M 1.837867,24.56832 c 1.71472,0.300605 -0.87386998,-0.835074 0,0 z m 1.39507,9.772922 c 1.02511,-0.282862 -1.19941,-0.02929 0,0 z m -0.71895,-7.486038 c -0.25353,-0.512407 -0.81568,-0.0224 0,0 z m 0.39376,6.565219 c 0.58051,-0.0076 -0.3451,-0.481103 0,0 z m 3.51683,28.89634 c 0.84655,-0.112976 -0.73582,-0.569236 0,0 z M 2.295247,26.310929 c 0.33542,-0.367981 -0.41172,-0.280002 0,0 z m 0.39789,1.375809 c 2.89123,-0.521201 -0.32194,-0.503616 0,0 z m -0.0526,-2.043032 c 1.20585,-0.213382 -1.32793,-0.06666 0,0 z m 0.0222,1.785521 c 0.79575,-0.534123 -0.7522,0.03511 0,0 z m -0.17793,-1.51106 c 0.47658,-0.287003 -0.51655,-0.02335 0,0 z m 2.15591,19.046446 c 0.58175,0.437026 -0.22865,-0.631967 0,-1.9e-5 z m 1.2558,9.052184 c -0.28012,-0.660505 0.0867,-0.06932 0,0 z m -2.93635,-27.57247 c 0.73482,-0.422322 -1.2302,-0.05222 0,0 z m 0.51593,7.479233 c 0.33711,-0.157343 -0.36963,-0.19637 0,0 z m -0.80447,-8.611017 c 0.67673,-0.302867 -0.78592,-0.492831 0,0 z m 4.50069,37.852587 c 0.84097,0.562292 -0.91806,-1.088486 0,0 z M 3.185987,26.868217 c -0.30475,-0.406813 -0.0168,-0.145935 0,0 z m -0.0911,1.184516 c -0.0634,-0.179785 -0.40436,0.18696 0,0 z m 1.40378,9.085566 c -0.12514,-0.733741 -1.06909,0.265375 0,0 z m -1.52113,-11.16629 c 0.41501,-0.312548 -0.47625,-0.20761 0,0 z m 0.93696,8.370029 c 0.0535,-1.023455 -0.2271,-0.181135 0,0 z m -0.60675,-5.940294 c 0.74988,2.046438 2.20022,-0.791163 0,0 z m 0.85708,7.240229 c 0.30639,-0.415734 -0.39458,-0.333212 0,0 z m 0.19141,0.463817 c 0.2771,-0.556282 -0.50896,-0.287884 0,0 z m -7.81017,-69.883714 c 0.41771,-0.41996 -0.87433,0.349074 0,0 z m 7.18683,61.689083 c 1.88954,0.129698 -1.10028,-0.449522 0,0 z m 0.86019,8.456601 c 0.3029,-0.603595 -0.42618,0.394688 0,0 z m 8.80805,75.32244 c 0.39927,-0.31904 -0.23355,-0.43634 0,0 z M 4.695467,36.844005 c 0.3139,-0.276859 -0.36443,-0.07471 0,0 z m -0.2613,-6.403833 c 1.87375,-1.096953 -1.05144,-0.400327 0,10e-6 z m 0.49272,6.717038 c 0.33712,-0.157333 -0.36963,-0.196381 0,0 z m 0.23136,-0.562233 c 0.44921,-0.313928 -0.83053,-0.342082 0,0 z m -0.10071,1.150108 c 0.52274,0.771361 0.84638,-0.262189 0,0 z m -0.75978,-9.415573 c 0.0671,-0.458871 -0.58551,-0.06148 0,0 z m 4.30971,37.47372 c 1.28687,0.77854 -0.53349,-1.043813 0,0 z M 4.451717,29.446854 c 1.40299,0.7758 -0.1017,-0.722173 0,0 z m 0.67748,1.374332 c 2.5809,-0.547027 -2.42119,0.08153 0,0 z m 0.0996,6.057297 c 0.30317,-0.262716 -0.21536,-0.254793 0,0 z m -0.28403,-5.158217 c 1.71473,0.630104 -0.49407,-1.367384 0,0 z m 0.17351,0.453591 c 0.33711,-0.157343 -0.36964,-0.19637 0,0 z m -0.0536,-3.08854 c -0.0634,-0.179785 -0.40436,0.18695 0,0 z m 0.42914,4.095566 c 0.21816,-0.513184 -0.48548,-0.278719 0,0 z m 3.87247,33.413242 c 2.28622,4.185045 0.78722,-0.625564 0,0 z M 5.776057,31.345492 c 0.18356,-0.486565 -0.91777,0.161638 0,0 z m 0.65239,8.650312 c 0.32639,-0.287755 -0.38739,-0.32832 0,0 z m 2.20862,18.756382 c 0.32639,-0.287755 -0.3874,-0.328319 0,0 z M 5.803627,32.930847 c 3.2115,1.205089 -0.97645,-1.377693 0,0 z m 0.0453,0.537791 c -0.0898,1.003425 0.97228,0.935304 1.04464,2.236571 0.73587,0.677059 1.01764,-0.261966 0.78422,-1.018751 -1.3483,0.46973 0.3124,-1.794285 -2.02386,-1.356911 l 0.19509,0.13906 z m 0.35625,0.08791 c 0.54512,0.01505 0.17002,0.320848 0,0 z m 0.34824,0.505664 c 0.64695,-0.06067 -0.46184,0.347324 0,0 z m -0.84323,-1.714874 c 1.51382,-0.26767 -0.10809,-1.001904 0,0 z m 0.0601,-1.399695 c -0.0634,-0.179784 -0.40435,0.18695 0,0 z m 0.72958,4.755671 c 0.4684,-0.0907 -0.35519,-0.268232 0,0 z m 2.77793,22.985835 c 0.52735,0.231831 -0.68331,-0.58736 0,0 z M 7.043277,36.859358 c 0.12618,-0.352434 -0.46655,-0.105563 0,0 z m 3.7548,31.955472 c 0.77474,0.547655 -0.39394,-0.759955 0,0 z M 7.622237,36.65367 c 1.05392,-0.704806 -1.1953,-0.134306 0,0 z m -0.025,1.247562 c 0.3092,-0.03742 -0.33051,-0.263255 0,0 z m 0.0641,-0.239203 c 0.71249,0.512615 0.40996,2.398948 1.28981,2.279887 0.36698,0.0686 0.80839,2.78761 1.09672,2.796533 0.52578,1.141404 1.74922,1.842852 1.03022,2.668139 1.11662,0.359886 0.99728,1.961412 2.27729,3.062909 0.45405,-1.973782 -1.12426,-2.675049 -1.71236,-5.537373 -1.55953,-2.16995 -1.29858,-1.924594 -2.00717,-3.459943 -1.00176,-0.764576 -1.33995,-0.604508 -0.36627,-1.539027 -1.10893,0.823696 -0.58393,-2.040826 -1.60824,-0.271125 z m 0.26734,-0.323292 c 1.09331,0.589246 -0.15138,0.433256 0,0 z m 1.14092,1.956973 c 0.36964,0.196371 -0.33712,0.157344 0,0 z m 2.8334,5.455935 c 0.4931,0.399666 -0.50967,-0.122185 0,0 z m 0.12449,0.761557 c 0.46656,0.105552 -0.12618,0.352454 0,0 z m 0.94472,2.177098 c 0.62403,-0.08053 0.11631,0.512967 0,0 z m -4.78672,-5.164111 c 0.41524,0.36881 -0.3826,-0.997744 0,0 z m 2.32129,18.417592 c 0.93453,0.47072 -0.77206,-1.210378 0,0 z M 5.376257,16.142419 c 0.4837,-0.35769 -0.67123,-0.0938 0,0 z m 3.2451,27.145544 c 0.30546,-0.334406 -0.47945,-8.36e-4 0,0 z M 4.350577,4.9797735 c 0.21228,-0.223217 -0.51032,-0.355329 0,0 z m 3.68038,31.2769385 c 0.65781,-0.492236 -0.64349,-0.127653 0,0 z m 0.28792,0.744256 c 0.75694,-0.957944 -0.71679,-0.19158 0,0 z m 0.98834,7.710212 c 1.42183,2.814396 -0.42668,-2.030111 0,0 z M 6.277347,18.266708 c 0.82368,-0.196877 -0.18898,-0.327739 0,0 z m 3.54955,27.459342 c 0.91291,2.373476 -0.26862,-1.612037 0,0 z M 4.386977,-0.47168945 c 0.31532,-0.285635 -0.37305,-0.204598 0,0 z m 0.19553,-3.07755205 c -0.31597,-0.833116 -0.26519,-0.01409 0,0 z m 5.80577,50.3254375 c 0.60353,0.142246 -0.61209,-0.608415 0,0 z M 10.038217,42.4094 c -0.0634,-0.179784 -0.40436,0.186971 0,0 z m 0.56226,4.872651 c 0.21238,-0.894716 -0.42794,0.167767 0,0 z M 4.534467,-5.2452315 c 0.15086,-0.511502 -0.50228,0.158628 0,0 z m -0.0259,0.96566 c 0.0878,-0.6525 -0.35724,-0.601339 0,0 z m 0.0297,-4.769774 c 0.46166,-0.238938 -0.38302,-0.257041 0,0 z m 0.0622,0.47903 c 0.3264,-0.287736 -0.3874,-0.328319 0,0 z m -0.068,-2.2292295 c 0.3139,-0.276858 -0.36443,-0.07471 0,0 z m 0.11007,0.9597525 c 0.12504,-0.4045775 -0.35693,-0.3377345 0,0 z m 10.9709,85.5918475 c 2.60192,4.368252 1.19377,0.401882 0,0 z m 4.46934,36.213055 c 2.8125,1.0793 -1.12227,-1.23899 0,0 z M 8.708807,13.773756 c -0.0634,-0.179795 -0.40436,0.18695 0,0 z m 4.76428,39.059069 c 0.50878,-1.019093 -0.36919,-0.01473 0,0 z m 0.31195,-3.373136 c 2.102,1.861635 -1.06618,-3.020965 0,0 z m 0.65697,1.392746 c 1.09562,-0.74527 -1.15808,-0.241766 0,0 z m 0.39378,0.652678 c 0.97653,1.741158 1.33494,3.914939 2.58079,5.8834 1.21911,2.254249 1.76237,5.184 3.90744,6.674755 -1.27104,-3.590657 -3.51368,-6.779029 -4.72727,-10.330081 -1.10245,-0.106686 -0.73273,-3.259517 -1.76096,-2.228074 z m 6.45505,13.712032 c 2.03837,1.651474 -1.24557,-3.0216 0,0 z m 0.5959,1.074928 c 0.71468,-0.174173 -0.42087,-0.403983 0,0 z m 2.57163,6.009476 c 1.76837,0.201984 -0.35891,-1.627566 0,0 z m 0.74873,0.837516 c 1.37343,1.779193 -0.34042,-1.831909 0,0 z m 2.00263,4.089251 c 1.23986,0.256514 -0.55988,-0.926129 0,0 z M 16.105017,-35.604523 c 0.6325,-0.637714 -0.64416,-0.158829 0,0 z M 38.186387,105.659 c 0.31532,-0.28566 -0.37305,-0.2046 0,0 z M 20.979117,-49.310037 c 0.94066,-0.371575 -1.20022,0.159455 0,0 z M -7.520013,115.09137 c 0.38559,-0.34561 0.17486,0.65095 0,0 z m -7.31299,-92.921593 c 0.36963,0.196371 -0.33711,0.157333 0,0 z m 4.90489,10.320926 c 0.47665,-0.02058 -0.28317,0.343402 0,0 z m 2.64361,0.915797 c 0.44233,0.0331 -0.42256,0.134942 0,0 z m 2.92936,4.69779 c 0.82525,0.209489 -0.61272,0.223358 0,0 z m 1.10516,1.822966 c 0.27181,0.108386 -0.4086,0.09151 0,0 z m -1.094,-11.338583 c 0.57106,0.237739 -0.31248,0.358361 0,0 z m 1.75401,12.420431 c 0.21536,0.254804 -0.30317,0.262697 0,0 z m -1.57939,-14.501925 c 0.42739,0.278389 0.31839,0.422445 0,0 z m 0.48302,0.283569 c 0.36963,0.196372 -0.33711,0.157333 0,0 z m 1.85276,15.734262 c 0.36443,0.07472 -0.3139,0.276859 0,0 z m 0.34044,0.412991 c 0.44233,0.033 -0.42256,0.134842 0,0 z m -0.0163,0.375645 c 0.53818002,0.290747 -0.14485,0.434973 0,0 z m -1.14379,-13.531881 c 0.36444,0.07473 -0.31391,0.276861 0,0 z m -0.22566,-3.224323 c 0.27182,0.108385 -0.4086,0.09151 0,0 z m 0.58125,3.81472 c 0.41644,-0.03766 -0.0528,0.302873 0,0 z m 0.44001,-2.094508 c 0.36962,0.196382 -0.33712,0.157324 0,0 z m 0.23995,0.749915 c 0.37478,0.254316 -0.46615,0.112183 0,0 z m 0.73510002,5.517623 c 0.39825,0.441687 -0.45856002,0.25264 0,0 z m 1.61839,11.967372 c 0.64392998,-0.251922 -0.24695,0.593925 0,0 z M 8.632807,113.49798 c 0.18694,0.40437 -0.17979,0.0634 0,0 z M -0.99956298,30.183585 c 1.64544,0.07727 1.15865,0.08501 0,0 z m 0.0619,-0.701103 c 0.36444,0.07471 -0.31390002,0.276869 0,0 z M -1.039923,27.845075 c 0.47665002,-0.02058 -0.28318,0.343392 0,0 z m 0.33981002,0.763551 c 1.41579,-0.159666 -1.31743002,0.383679 0,0 z m -0.0712,-0.556157 c 0.50454,0.125166 -0.31285002,0.338972 0,0 z m 0.66368,5.174481 c 0.36963,0.196372 -0.33711,0.157333 0,0 z M 9.252717,113.1514 c 1.54963,0.0532 1.06712,1.12963 0,0 z m 0.83734,-0.81491 c 3.35614,0.38731 -0.68203,1.02672 0,0 z M 0.68113702,31.871034 c 1.36257998,0.283237 -0.67394,0.262736 0,0 z m 0.0977,0.616995 c 1.36154998,0.350126 -0.8015,0.04816 0,0 z M 10.484937,113.55913 c 1.27423,-0.39788 0.50379,0.7188 0,0 z M 1.190747,32.206297 c 0.27182,0.108385 -0.40859998,0.09151 0,0 z m 0.17502,0.660282 c 0.27182,0.108396 -0.40859998,0.09151 0,0 z m 0.0492,0.279841 c 0.75035,0.11221 -0.52396998,0.130773 0,0 z m 0.10851,0.763901 c 0.41643,-0.03766 -0.0528,0.302883 0,0 z m 0.86975,5.685198 c 0.36962,0.196381 -0.33712,0.157323 0,0 z m -0.73572,-7.487035 c 0.53022,0.168439 -0.49699,0.142699 0,0 z m 0.0492,-0.359699 c 0.50453,0.125166 -0.31285,0.338972 0,0 z m 0.80923,7.018734 c 1.03197,-0.523707 0.78035,0.09607 0,0 z m -0.20219,-3.977547 c 0.36963,0.196381 -0.33712,0.157333 0,0 z m 0.60404,1.87429 c 0.50454,0.125176 -0.31285,0.338972 0,0 z m 0.26957,1.452714 c 1.1122,-0.09854 -0.8273,0.65163 0,0 z m 0.46497,3.855328 c 0.50337,-0.156037 -0.35991,0.495328 0,0 z m -0.36477,-4.281601 c 0.53352,0.178351 -0.4775,0.297382 0,0 z m 0.12112,-1.765136 c 0.46656,0.105563 -0.12617,0.352444 0,0 z m 0.56154,1.815991 c 0.7144,-0.331258 -0.29727,0.603707 0,0 z m 0.44323,0.10838 c 0.46656,0.105573 -0.12619,0.352436 0,0 z m 1.0279,6.979734 c 0.23853,-0.385932 -0.0512,0.62006 0,0 z m 0.30496,-0.801139 c 1.10499,-0.705122 -0.96961,1.028306 0,0 z m -0.29713,-5.327851 c 1.20579,0.393076 -0.75784,0.303508 0,0 z m 0.16131,0.475045 c 0.27183,0.108385 -0.4086,0.09151 0,0 z m 0.51395,3.538507 c 0.27182,0.108386 -0.40861,0.09151 0,0 z m -0.21242,-3.387151 c 0.53352,0.178331 -0.47749,0.297401 0,0 z m 2.56506,20.903018 c 0.95752,0.387875 0.28136,1.477575 0,0 z M 6.780667,42.089045 c 0.64502,-0.09881 -0.33372,0.422939 0,0 z m 0.17687,-0.431585 c 0.72589,0.115352 -0.79716,0.191537 0,0 z M 4.423157,17.478647 c 0.65606,-0.206851 -0.48414,0.570583 0,0 z m 0.92555,1.301009 c 0.27182,0.108386 -0.4086,0.09151 0,0 z m 0.93722,7.614998 c 0.36962,0.196372 -0.33711,0.157333 0,0 z M 5.161647,15.292253 c 0.82277,0.02091 -0.49504,0.405635 0,0 z m 0.59521,4.360905 c 1.58968,-2.479891 0.95426,1.862091 0,0 z m 0.26061,0.176494 c -0.0633,-0.179784 -0.40435,0.18696 0,0 z m 0.56201,7.405872 c 0.36963,0.196381 -0.33711,0.157323 0,0 z M 6.307997,21.62578 c 0.36444,0.07472 -0.3139,0.276859 0,0 z m 0.40145,-1.134138 c 1.43109,0.145408 -1.3203,0.580938 0,0 z m -0.17583,-0.302856 c 1.4741,-1.350415 -0.17242,0.585621 0,0 z m 0.13557,1.151286 c 0.21535,0.254813 -0.30317,0.262686 0,0 z m 0.11237,0.234094 c 0.47665,-0.02058 -0.28317,0.343402 0,0 z m 0.11847,-0.465811 c 1.19529,-1.909143 1.18463,-0.537413 1.48001,0.06349 0.79768,1.071387 1.12926,2.261758 1.37939,2.917688 0.71203,1.108859 0.0833,1.741839 -0.43121,0.468371 -1.53153,-0.353763 0.82813,2.303621 0.53962,1.488316 1.71871,-0.931324 0.50765,1.123996 1.75681,2.228069 0.69926,0.324481 0.62309,1.491929 1.0347,2.557374 -0.0563,0.984957 -2.17587,-2.425384 -1.2694,-0.417646 -0.13581,1.732491 2.24805,0.46754 2.06028,2.681994 1.09663,0.710188 0.78978,3.048406 0.0359,0.502748 -0.75632,-1.371947 -1.51943,-2.612678 -1.2083,-0.355434 0.89246,0.647684 1.21168,2.749748 0.29735,1.700132 -0.45792,-0.811094 -0.76132,-2.024288 -1.25336,-2.867814 -0.68972,-0.808247 -0.78905,-2.145879 -1.48016,-2.74383 -0.60427,-1.301514 2.74226,0.586804 1.09715,-0.280158 1.05617,-1.360086 -1.97594,-0.07109 -1.4133,-0.752596 0.11748,-0.478593 -0.86483,-1.485929 -0.80862,-2.725638 -0.42823,0.483064 -1.59039,-2.035841 0.0674,-1.362788 0.7786,-0.546211 -0.19018,-2.716085 -1.46092,-2.881131 -0.12072,0.321916 -0.47568,-0.03723 -0.42333,-0.221142 z m 2.74165,5.620686 c 0.75401,2.327774 1.82895,-0.306994 -0.26999,-0.393607 z m 0.62038,1.677822 c 0.30317,-0.262707 -0.21536,-0.254804 0,0 z m 2.14531,2.373694 c 0.41067,-0.395531 -0.97925,-0.222348 0,0 z m 0.85474,2.039314 c 0.46167,-0.238948 -0.38303,-0.257039 0,0 z m -5.96309,-9.962505 c 1.52765,0.146837 -0.57117,0.732109 0,0 z m 0.0791,-0.610514 c 0.96653,0.592978 -0.67376,0.328085 0,0 z m 0.11242,1.137912 c 0.59578,0.485105 -0.68489,-0.02847 0,0 z m 0.0929,-1.665997 c 1.23862,-0.681083 -0.71933,0.8564 0,0 z m -0.76118,-6.816606 c 0.58273,0.434323 -0.40343,0.482721 0,0 z m 1.03253,8.62466 c 1.85012,-1.217063 -0.51553,1.296283 0,0 z m 2.8868,24.531338 c 0.75316,-0.05576 -0.22328,0.790434 0,0 z m -3.3084,-28.753475 c 1.27153,0.334345 -0.69944,0.730398 0,0 z m 3.68464,29.403979 c 0.21793,0.509993 -0.15663,0.11561 0,0 z m 0.64208,1.407771 c 0.38303,0.25703 -0.46166,0.238939 0,0 z M 7.645187,14.326585 c 0.27182,0.108385 -0.40861,0.09151 0,0 z m 4.35018,36.151203 c 0.67227,0.317952 0.036,1.0027 0,0 z m 0.50103,-0.253543 c 0.41297,0.483019 -0.31824,0.399377 0,0 z m -3.95942,-34.93269 c 0.27183,0.108375 -0.4086,0.09151 0,0 z m 4.34333,36.54109 c 0.36963,0.19637 -0.33711,0.157353 0,0 z M 8.499287,14.315606 c 0.53819,0.290747 -0.14484,0.434973 0,0 z m 0.41014,0.834825 c 0.27181,0.108376 -0.40861,0.09151 0,0 z m 1.11788,8.32325 c 0.37304,0.204598 -0.31531,0.285654 0,0 z m -1.15806,-10.6607 c 0.36964,0.19636 -0.33711,0.157333 0,0 z m 0.18825,1.852144 c 0.21639,0.615749 -0.14482,0.141355 0,0 z m 0.5927,2.288157 c 0.23054,0.365215 -0.3077,0.256604 0,0 z m -0.27619,-3.089218 c 0.7403,-0.774177 -0.84193,-5.9438651 0.73599,-5.3225611 0.8274,0.724701 0.39332,1.5968091 1.27192,3.0272061 -0.43519,0.985847 1.1743,2.009057 0.89335,4.34495 0.22098,2.394519 0.84703,6.030303 0.87206,7.415802 1.26713,2.654388 -0.56073,0.38993 -1.70827,-3.093242 -0.7307,-2.11351 -1.97202,-4.080712 -2.06505,-6.372155 z m 1.0348,2.437571 c 0.15688,-0.403636 -0.22674,-0.06423 0,0 z m -1.04161,-3.954614 c 0.18694,0.404362 -0.1798,0.06336 0,0 z m 3.40137,23.25454 c 0.55957,0.306887 -0.47297,0.428491 0,0 z M 9.541667,6.8007719 c 1.37528,-0.314792 -0.54087,1.551648 0,0 z m 2.12247,18.1337741 c 0.21536,0.254814 -0.30317,0.262686 0,0 z M 9.544917,6.1671139 c 0.59297,0.361001 0.30136,1.010047 0,0 z m 3.69315,30.8058111 c 1.08139,-0.112736 2.35772,2.927836 1.21308,2.810431 -0.76068,-1.260995 -0.48615,-1.604678 -1.21308,-2.810431 z M 9.944127,5.1965479 c 0.64653,0.247087 -0.11605,0.465133 0,0 z m 3.0428,25.9063291 c 0.74249,0.09841 -0.40304,0.132039 0,0 z m 0.7924,5.546923 c 0.681,0.08084 -0.7672,0.364029 0,0 z m -1.09907,-8.819505 c 0.36964,0.19636 -0.33711,0.157333 0,0 z m 0.42339,1.117394 c 0.36963,0.19637 -0.33711,0.157332 0,0 z m 0.81897,6.1289 c 0.37305,0.204597 -0.31532,0.285655 0,0 z M 11.032727,8.0047299 c 0.57107,0.237738 -0.31247,0.358361 0,0 z m 0.43005,2.9465161 c 0.71403,0.244707 -0.54712,0.41932 0,0 z m 2.99959,24.952839 c 1.00028,0.289631 1.86505,3.362786 1.59897,3.292118 0.19515,1.581208 -1.47899,-1.468174 -1.32188,-2.067358 -0.26414,-0.186309 -0.68707,-1.062561 -0.27709,-1.22476 z m 0.48616,1.333415 c 0.4684,-0.0907 -0.35519,-0.268232 0,0 z m -0.0653,2.88282 c 1.03621,1.332031 2.91492,4.961308 2.23746,6.000897 -0.79034,-2.213381 -1.15511,-2.86295 -2.16377,-5.1113 0.29378,-0.118268 -0.50567,-0.786027 -0.0737,-0.889597 z m -3.28385,-28.170533 c 0.68191,0.10135 -0.32579,0.485824 0,0 z m 0.0521,-0.291221 c 0.36963,0.196371 -0.33711,0.157333 0,0 z m -0.27122,-3.1293751 c 0.37304,0.204598 -0.31532,0.285655 0,0 z m 0.10732,0.911443 c 0.36963,0.196371 -0.33711,0.157323 0,0 z m 1.92759,12.4930411 c 0.21644,0.615612 -0.14464,0.141525 0,0 z m 0.51748,2.595602 c 1.21406,0.256352 -0.10587,0.714031 0,0 z m -1.15309,-12.546892 c -0.43586,-3.5791681 2.5443,-2.9272601 2.0032,-0.165702 -0.26635,0.898846 -1.42813,2.546807 -0.66863,4.543931 -0.51634,2.881164 -1.02207,-3.901333 -1.33458,-4.378269 z m 1.1087,-0.98833 c 0.64403,-0.340421 -0.34261,-0.480249 0,0 z m -0.37175,6.816134 c 0.78144,-0.652472 0.80663,0.213303 0,0 z m 2.76456,22.685579 c 1.27105,0.143089 0.57521,2.609648 1.68946,2.535513 0.0391,1.250469 0.48925,1.489928 0.83264,2.758425 1.39357,3.211948 -1.34253,-0.856838 -1.42799,-2.363754 -0.1552,-1.013685 -1.17418,-2.02804 -1.09411,-2.930184 z m 1.25921,6.262049 c 1.30234,-0.879799 0.89464,3.215761 0,0 z m -3.30901,-28.885881 c 1.32537,0.760724 0.87897,2.518187 0,0 z m 0.34433,-1.347141 c 1.4255,0.06225 2.02927,1.104636 0.31308,0.734737 l -0.24442,0.118699 -0.0687,-0.853426 z m 3.73382,31.795073 c 0.99903,0.272649 0.43222,2.115157 0,0 z m -2.97152,-26.055145 c 0.21536,0.254803 -0.30318,0.262697 0,0 z m 0.0678,0.624278 c 0.36963,0.196371 -0.33711,0.157333 0,0 z m -0.79401,-8.395129 c 0.4727,0.01784 -0.46921,1.621085 0,0 z m -0.1859,-1.327237 c 0.36483,0.722191 -0.22553,0.18002 0,0 z m 0.71757,5.059933 c 2.81875,0.402664 -0.0456,-2.791362 0.79,-4.414719 -1.07346,-2.564249 -0.60555,-5.5983881 2.81618,-5.4808551 1.99031,-0.359735 2.44327,-2.737965 2.83408,-3.580953 2.21975,7.1739271 3.52594,14.6733221 6.12933,21.6708231 -1.28815,-8.698312 -4.01174,-17.2376561 -5.57674,-25.93258805 2.83888,-0.472737 1.89455,3.46983995 3.85165,4.17259895 0.51598,0.104788 2.57283,-1.306413 3.78636,-0.179446 2.5374,2.851762 8.91001,-1.966675 11.05806,1.03978 0.86259,4.6201461 0.90135,11.0370231 2.08588,14.7603771 2.90878,5.249431 -3.77243,5.988326 -7.44894,6.495837 -4.7462,0.913654 -8.12699,0.299789 -12.50469,1.186875 -2.58399,-1.667216 -2.57217,0.532456 -4.99175,-1.359035 -0.92546,-1.604764 -1.40746,-3.046318 -2.16632,-4.395712 1.44099,-0.392106 1.48649,-3.242465 0.63515,-2.965707 -0.14612,-2.206844 -0.87523,2.018061 -1.29825,-1.017276 z m 1.43204,-4.857892 c 1.29011,-0.210417 -0.74783,-0.822268 0,0 z m 0.26272,-0.618609 c 0.3139,-0.276869 -0.36444,-0.07472 0,0 z m 0.53662,4.557174 c 0.31824,-0.399367 -0.41298,-0.483008 0,0 z m 0.89136,-3.168995 c 0.23764,-1.055804 -0.47638,-0.971727 0,0 z m 0.0591,-1.563287 c 0.48086,-0.429321 -0.54651,-0.0301 0,0 z m 1.38905,6.839941 c 0.4564,-0.581856 -0.55125,-0.369027 0,0 z m 0.82173,-0.662595 c 3.90713,0.451751 1.25471,-2.008835 0,0 z m 5.1365,-13.1705791 c 0.47658,-0.287003 -0.51654,-0.02335 0,0 z m 1.94118,14.1515311 c 3.52039,-0.282298 -0.94708,-2.227688 0,0 z M 26.092917,5.4349409 c 0.3139,-0.276859 -0.36444,-0.07471 0,0 z m 2.52959,12.4177531 c 8.19417,1.194147 -0.55139,-4.565786 0,0 z m 11.0177,6.553795 c 3.01705,-1.636125 -2.10294,-4.506363 0,0 z m 1.99175,-3.539885 c 0.21247,-0.894677 -0.42826,0.167694 0,0 z m 0.0213,0.786099 c 0.0557,3.173623 0.3553,-2.005875 0,0 z m 1.62906,0.434148 c 0.31285,-0.338972 -0.50453,-0.125166 0,0 z m -28.65644,-8.298132 c 0.36963,0.196381 -0.33711,0.157333 0,0 z m 0.74562,6.332082 c 0.27245,-0.354293 -0.081,0.75447 0,0 z m 0.27114,2.302581 c 0.4022,0.462921 -0.28367,0.543685 0,0 z m 3.27613,26.995979 c 0.40462,0.437574 -0.34004,0.298081 0,0 z m -3.88976,-35.222596 c 1.56221,0.581709 -0.26301,0.577772 0,0 z m 4.31765,36.213012 c 0.65417,-0.495693 -0.3082,0.669114 0,0 z m -0.0723,-2.981707 c 1.22278,0.830723 0.24704,2.150375 0,0 z m 0.50393,4.078675 c 0.65387,0.19492 -0.3456,0.454081 0,0 z m 0.0793,-2.581487 c 1.66875,1.245534 -0.77322,1.192426 0,0 z m 0.30342,3.752313 c 0.21595,-1.350259 0.35233,1.402671 0,0 z m -1.14221,-13.090194 c 0.97253,2.380925 5.23674,0.04776 7.96382,-0.204925 1.91753,-0.832105 3.54874,-1.861077 3.94035,-0.616796 -1.04825,-4.452806 -0.97677,-6.035163 3.69856,-5.320737 2.56215,-2.197377 7.98549,-1.741341 5.14904,1.943532 -4.71627,-1.544233 -7.60965,4.368062 -1.26901,2.319379 3.0323,-1.669095 4.9798,0.789323 6.73749,-0.336686 1.15704,4.547775 -6.33481,1.172429 -2.56647,6.583186 3.10357,-2.817912 3.6849,4.191672 -0.15795,3.075897 0.74894,2.166763 4.36837,0.857073 0.65564,2.91363 -1.40742,4.704188 4.68286,5.065892 3.89296,0.585404 -0.29004,-2.459064 -1.29433,-10.662839 0.13496,-9.526319 -0.78119,-0.558849 -2.72035,-7.972925 2.55884,-5.09745 3.34597,-0.927851 2.10742,3.194538 0.79634,3.58055 -1.80379,0.107633 -3.21586,2.913409 -1.67057,5.948693 2.53833,3.237348 4.03826,8.19559 -0.079,10.926218 -1.89634,2.836077 -5.82578,2.242713 -6.16285,-0.476859 -2.95761,-0.419168 -4.63698,2.28775 -1.5397,2.663798 -2.59088,1.249696 -12.35794,2.511613 -8.93572,-1.867627 3.97457,1.67243 2.31012,-4.544983 3.86542,-0.23158 2.7917,-0.506431 0.42613,-7.180031 1.63172,-8.104551 -2.36513,1.153806 -2.65609,-4.973903 -0.65385,-4.893976 -0.70964,-4.15907 -1.7496,3.378246 -1.57585,-1.519801 0.69421,-4.494292 -4.16972,1.17641 -3.2525,1.351557 -0.35033,-2.282613 -1.46476,-5.368772 -1.76743,-1.246803 -1.3331,0.291621 -2.80903,2.688298 -3.60824,3.002589 -2.21292,-0.199883 -2.16058,1.863706 0.18323,0.490325 0.77909,0.829663 4.70506,-1.106827 5.19447,1.226862 2.60272,4.322656 -6.93162,-0.705835 -3.36954,3.639443 2.32054,2.884054 -6.75951,3.409294 -3.76681,-0.292427 0.69592,-0.227848 2.47937,3.420268 1.38973,-0.692192 -2.67515,0.0351 -2.80903,-3.032767 -4.38378,-5.090567 -1.12883,-1.354836 -0.90161,2.225076 -2.02807,-1.504683 -0.37501,-1.058014 -0.77571,-2.127382 -1.00525,-3.227084 z m 3.25447,0.992225 c -0.0634,-0.179784 -0.40436,0.186951 0,0 z m 1.57507,5.514612 c 1.12196,0.792611 -0.66589,-2.016716 0,0 z m 7.54082,0.300391 c 0.45555,-0.410733 -0.88511,-0.412935 0,0 z m 0.72222,-9.194409 c 3.39652,-0.821342 -0.96838,-1.219984 0,0 z m 4.3808,20.946917 c 2.47824,1.374897 -0.60273,-2.952493 0,0 z m 1.99938,-7.652345 c 1.83674,-1.573213 -0.0928,-2.611024 0,0 z m -18.00375,-0.141549 c 0.37305,0.204598 -0.31532,0.285655 0,0 z m -1.25185,-11.425005 c 0.41722,-0.460372 -0.29146,0.762153 0,0 z m 1.49162,12.369486 c 0.92816,0.425013 -0.085,0.72789 0,0 z m 0.36166,0.832851 c 0.74252,0.539498 -0.31629,0.369544 0,0 z m 0.4079,3.283498 c 0.50716,0.512688 -0.3742,0.61647 0,0 z m -10.63215,-92.687408 c 2.2034,-1.606016 -0.1222,4.685229 0,0 z m 11.25078,94.146575 c 0.87737,1.483163 -0.22183,0.435026 0,0 z m 0.45657,1.363481 c 0.95168,0.406002 0.085,1.246256 0,0 z m -1.24551,-12.870133 c 0.21793,0.509993 -0.15663,0.11561 0,0 z m 1.41518,10.773706 c 1.42688,1.944094 -0.37072,0.209824 0,0 z m 0.4144,3.333995 c 1.14128,0.70063 -0.69761,0.312386 0,0 z m 0.38857,0.829682 c 1.03408,1.024841 -0.50913,0.476087 0,0 z m -0.13314,-2.777357 c 0.89077,1.012425 -0.0422,1.263654 0,0 z m -0.20945,-7.249842 c 0.36963,0.196371 -0.33711,0.157343 0,0 z m 0.35373,0.516598 c 1.19636,1.298975 -0.94153,0.352134 0,0 z m -8.29693,-79.537944 c 0.37304,0.204599 -0.31531,0.285655 0,0 z m 9.52336,78.397565 c 0.26538,0.823897 -0.31949,-0.257444 0,0 z m 0.28782,-0.03389 c 0.26691,-0.371654 -0.0836,0.899544 0,0 z m 1.45933,7.901636 c 4.03598,-0.646221 2.13948,6.262027 0,0 z M 21.156327,4.8013306 c 0.23055,0.365214 -0.3077,0.256604 0,0 z m -0.25141,-10.274237 c 2.037,3.238101 0.7951,6.633191 0.029,0.704587 z m -4.41708,-39.3201646 c 2.8502,-1.15914 0.66432,1.883707 0,0 z m 1.73836,-0.496509 c 0.82876,0.204524 -0.62148,0.494663 0,0 z m 9.81175,81.629857 c 0.27183,0.108395 -0.4086,0.09151 0,0 z m -9.12622,-81.613303 c 1.15413,-0.577108 -0.42295,0.673181 0,-2e-5 z m 9.44183,81.471189 c 0.37305,0.204598 -0.31532,0.285645 0,0 z m -9.24328,-81.300034 c 0.80436,0.567731 -0.34014,0.727148 0,0 z m 9.49721,80.978321 c 0.24656,-3.558451 1.81846,3.26156 0,0 z m 1.81976,15.130206 c 1.79295,-0.414018 0.37932,2.109816 0,0 z m -8.82029,-82.723326 c 1.00474,-0.382777 -0.4402,1.221027 0,0 z m -1.44876,-13.565336 c 2.21407,-1.212241 -0.35821,0.740603 0,0 z m 0.46637,0.147735 c 0.4058,0.30125 -0.36421,0.163675 0,0 z m 1.86843,14.753801 c 1.56469,-2.414551 -1.11094,-3.702154 2.36532,-1.928898 2.44658,-0.909244 -2.91164,3.843042 -2.36532,1.928898 z m -0.70618,-7.599701 c 0.66233,-2.215911 5.41126,-5.096763 4.59105,0.514791 1.91252,3.330886 -4.26778,2.569547 -2.84231,1.478801 -0.74131,-0.838179 -1.35804,-1.0458 -1.74874,-1.993592 z m 2.23326,-0.659102 c 0.98209,-0.284845 -0.66796,-1.055246 0,0 z m 1.01297,1.205278 c 0.22309,-0.348037 -0.1177,-0.384383 0,0 z m 0.63482,0.60615 c 1.35611,-1.033088 -0.62517,-0.710746 0,0 z m -0.44897,21.129256 c -1.30271,-3.380903 3.07062,-1.42905 0.91863,-0.640313 2.16362,0.0348 2.55541,6.106922 -0.11557,2.968816 2.15423,-3.083735 -1.59154,0.729217 -0.80306,-2.328503 z m 10.42733,88.840444 c 4.21787,0.126419 1.30075,-4.104539 6.57132,-2.488186 -6.47721,3.012871 14.34394,-0.828385 4.99766,1.795509 -3.72986,0.292355 -8.66916,2.107536 -11.56898,0.692677 z M 21.677967,-45.825726 c 5.0213,-1.539489 10.42446,-2.981586 15.656,-2.881099 -0.5882,3.155277 -8.42234,2.315388 -11.69948,3.123981 -2.29656,0.411102 -2.24794,0.488377 -3.95652,-0.242882 z m 10.82348,90.195817 c 1.1786,1.922218 3.32885,2.39624 1.96665,4.344631 -0.0371,4.522309 -2.11348,-3.724324 -1.96665,-4.344631 z M 27.586757,1.2222959 c -0.48598,-5.991528 0.72112,-1.98672395 3.81474,-2.74644 2.77468,-1.867962 9.69224,-0.686589 7.16124,3.052907 1.05381,2.480996 -7.57856,4.106592 -2.31024,1.309154 -0.30959,-4.228187 -0.25625,-1.621207 -1.70613,-0.784409 -1.12151,0.217547 -4.12341,-0.833074 -6.73589,-0.136186 l -0.19922,-0.298429 z m 3.65951,-1.07299395 c 1.8008,-0.116393 -0.49491,-1.23182505 0,0 z m 4.47996,-0.287662 c 0.87656,-1.76136605 -1.32199,-0.01476 0,0 z m 1.28798,78.49567305 c 3.92538,-0.831731 -1.20623,1.319083 0,0 z m -9.65059,-83.0860051 c 2.68594,-0.67524 0.70912,-5.7763029 2.7898,-1.298 1.54709,1.391373 -3.80589,3.127399 -2.7898,1.298 z m 10.24068,84.2092451 c 1.85489,-1.008108 -0.21146,1.619753 0,0 z M 24.721117,-30.075525 c 0.89691,-0.853516 0.006,1.872618 0,0 z m 9.52213,80.462607 c 1.86168,1.175965 -0.35123,1.959469 0,0 z m 6.10157,52.093738 c 1.04954,0.52531 0.49102,2.2016 0,0 z m -3.14139,-39.845242 c 2.33426,-0.145831 -1.08731,1.706153 0,0 z m 5.24545,43.922172 c 1.20165,1.68144 -0.36976,0.64358 0,0 z m -4.23773,-39.955935 c -0.63641,-6.607975 2.56782,5.750243 0.13928,1.548024 l -0.1983,-0.89929 z m 1.732,10.761745 c 1.4207,-0.121175 12.49122,-0.954456 10.19972,-0.683073 -2.17778,-0.07806 -8.11561,2.149125 -2.37402,1.34812 3.42085,0.587339 6.52073,-1.71871 7.27317,-3.041752 2.44458,1.790484 -0.25238,-5.695828 4.16595,-3.85077 3.1495,-1.067452 8.35216,0.844129 2.15381,0.61462 -2.14406,3.108769 0.1097,11.252774 -5.94205,7.290186 -4.14103,-2.69211 -11.49784,2.679822 -15.5265,0.153911 0.0582,-0.546087 -0.61057,-1.369775 0.0499,-1.831242 z m 3.41683,0.935246 c 1.53444,-0.365947 -1.3722,-0.07418 0,0 z m 12.44156,-0.369242 c 0.0935,-0.546666 -0.17922,-0.07616 0,0 z m 0.12966,-1.377062 c 0.0935,-0.546666 -0.1792,-0.07606 0,0 z m -15.45452,-1.184167 c 2.93405,-0.898155 13.33206,-1.434157 4.94771,0.26225 -1.26506,0.168297 -4.33418,1.151078 -4.94771,-0.26225 z m -9.63501,-83.3402211 c 1.31898,-0.387144 -0.18958,1.510747 0,0 z m 10.77617,91.1463211 c 2.21422,-2.082532 0.55738,1.044665 0,0 z m 1.72055,14.995986 c 2.61613,-1.098721 -0.0534,2.886229 0,0 z m 0.26933,1.848589 c 1.32554,-0.652905 0.1399,1.0179 0,0 z m 0.25989,1.40994 c 4.39596,-1.462581 -0.0746,1.98231 0,0 z m 0.27272,1.89966 c 3.76206,-0.13016 4.9485,-1.53942 4.07022,-2.53789 2.00627,-1.170437 -2.14343,-0.72285 -0.13549,-2.452648 -6.41434,0.06407 1.99884,-1.895833 3.44398,-1.662886 -0.80391,-1.856969 2.32246,0.469592 2.40508,0.505718 -2.19012,0.0982 -1.74209,1.974225 -0.16435,0.528174 2.61887,0.364376 0.0617,2.151752 1.85803,3.398402 -1.62098,0.42656 0.90212,1.30186 -0.3305,3.38958 0.35095,2.72417 2.14832,-0.49164 0.80471,-3.03796 3.34003,0.0908 0.10779,1.91592 1.37007,4.247 0.92568,4.07184 -2.82088,1.20988 -3.18497,2.99396 -2.06291,0.76657 -10.86079,1.23902 -6.90738,-1.11786 1.52057,3.39948 0.16647,-2.78296 -2.19577,-0.8565 -0.32046,-1.13111 -1.04044,-2.18429 -1.03363,-3.39709 z m 7.98666,0.10688 c 0.92495,4.19664 0.2089,-2.73944 0,0 z m 1.44264,-3.13038 c 1.66194,0.28053 -0.88815,-1.80298 0,0 z m 0.50927,3.84351 c 1.21239,0.69971 -0.39837,-1.63689 0,0 z m 2.75113,0.87137 c 0.28291,-0.50729 -0.253,-0.1204 0,0 z M 31.493537,-6.3182831 c 2.69577,0.597192 -1.00488,3.880694 0,0 z m 11.90571,91.7593641 c 0.46739,-0.173872 -0.32863,0.355319 0,0 z m 0.7459,1.220031 c 1.15693,-4.484145 8.05713,1.827963 1.21047,1.872198 -0.80853,-0.07468 -2.18852,-1.024472 -1.21047,-1.872198 z m 0.63136,3.716085 c 3.66896,-2.900166 6.30191,2.19879 0,0 z m 0.79193,5.635164 c -2.46752,-5.775647 6.54355,-3.030812 1.9962,-0.864357 -1.29492,0.195174 0.13305,2.069974 -1.9962,0.864357 z m 1.07368,-1.976041 c 1.34832,0.186038 -0.30802,-1.800361 0,0 z m -4.32921,-32.63514 c 1.9117,-3.573503 1.82698,2.538382 0,0 z m 0.28916,-33.300702 c 0.51007,0.446746 -0.39234,0.553007 0,0 z m 1.6022,13.040178 c 0.70087,0.396648 -0.18515,0.504997 0,0 z m 6.65542,52.375552 c 0.22224,0.120175 -0.3442,0.290647 0,0 z M 39.885297,-0.51770605 c 0.38431,0.204067 -0.30054,0.409325 0,0 z M 50.195457,86.444322 c 3.68332,-2.056225 -0.37813,3.69293 0,0 z m -5.66534,-50.145939 c 0.16974,0.353304 -0.24792,0.245246 0,0 z m -0.92878,-12.692756 c 0.32381,0.376827 -0.0586,0.638234 0,0 z m 8.66466,71.418588 c 0.76822,-0.124897 -0.3565,2.141081 0,0 z m -7.47543,-71.798933 c 0.45266,-5.960544 -1.29751,-12.230775 -1.36905,-18.3747151 -0.57093,-2.299653 5.23062,-0.984259 1.35304,-3.70432 -3.8842,0.525343 0.28691,-4.703607 -1.7987,-4.425709 0.0353,0.09402 1.94292,-0.966083 -0.054,-1.512184 1.0402,-2.973962 1.68948,2.136726 2.39244,1.98115 0.68371,-3.043842 1.45275,6.698621 2.3008,8.23379 0.78847,6.1351391 4.82404,12.3554211 2.55538,18.5327551 -3.04911,1.550578 -5.29148,6.89147 -5.35247,0.271358 l -0.0275,-1.002124 z M 44.149317,0.23986695 c 1.10345,-0.45714 -0.67791,-1.30202705 0,0 z m 0.0586,-4.52515505 c 0.31532,-0.285645 -0.37304,-0.204588 0,0 z m 0.2242,-0.247285 c 0.15687,-0.403625 -0.22676,-0.06422 0,0 z m 8.71648,99.2323851 c 1.17673,0.736017 -0.0304,2.061198 0,0 z m -7.21255,-63.684708 c 3.76632,-0.287072 -0.83032,3.500944 0,0 z m 8.2591,65.622868 c 0.8532,-1.188825 0.48678,1.570802 0,0 z m -16.5818,-143.09028 c 2.52248,-1.590616 -0.44843,1.660364 0,0 z m 17.11619,143.952552 c 0.42537,0.129564 -0.29815,0.164274 0,0 z m 1.18378,7.051736 c 0.27183,0.1084 -0.40861,0.0915 0,0 z m -17.4534,-153.52114 c 0.9425,-2.982958 4.62856,-4.920841 7.86073,-4.783978 5.37145,-2.291588 3.18735,3.795076 3.59113,7.201348 -0.0902,5.481079 -0.15546,11.069152 0.11206,16.275833 -3.26548,-4.02846 -1.34518,-10.536394 -2.75424,-15.785952 -0.0771,-2.679965 0.93959,-9.867679 -3.22343,-5.033725 -1.602,0.200017 -6.02056,6.481065 -5.58625,2.126474 z m 9.46537,79.847294 c -0.7222,-3.566384 1.0167,-1.952949 -0.10323,0.328969 z m 5.37358,39.781038 c 1.45586,-2.694453 3.80291,-1.147727 2.91658,-4.183364 -1.36981,-1.825523 -0.14923,-9.959779 0.65423,-5.392207 2.98708,1.122075 5.86737,2.619272 10.28071,2.414016 2.50279,0.558413 6.38283,-4.60524 5.85978,1.582667 -2.73587,4.088209 -5.2323,-4.695688 -6.18259,1.839476 -2.75653,-0.384688 -7.03125,-1.132935 -6.54947,2.912582 -1.24991,-0.7535 -8.34038,2.883732 -6.97924,0.82686 z m 2.76777,-7.278508 c 0.3371,-0.157343 -0.36963,-0.196371 0,0 z m -0.21387,34.610846 c 0.60989,0.320425 0.0745,1.282104 0,0 z m 0.16362,-3.560808 c 0.61888,0.298786 -0.2232,1.862351 0,0 z m 0.51123,3.573988 c 1.62706,-2.32804 3.32168,1.60072 0.38428,1.242074 l -0.187,-0.159416 z m 0.66029,2.15825 c 0.3874,0.32832 -0.3264,0.28776 0,0 z m -0.46449,-6.255763 c 1.19505,0.543595 -0.25451,2.287268 0,0 z m 0.56702,2.377172 c 0.41039,-0.672106 0.0949,0.8209 0,0 z m 0.86789,5.613651 c 1.00289,-1.05331 0.37794,2.21803 0,0 z m 0.61573,0.99629 c 0.41275,0.46138 -0.29429,0.54463 0,0 z m 0.31633,2.68634 c 1.34016,0.50851 0.0241,2.98464 0,0 z m -1.27871,-11.862386 c 0.58677,-0.286989 -0.1429,1.71365 0,0 z m 0.21058,2.18256 c 1.30823,0.493213 -0.0625,-0.243778 0,0 z m -4.12015,-37.955606 c 5.12309,-1.666122 2.08933,1.065172 0,0 z m 5.79518,49.947102 c 0.67123,0.0938 -0.48371,0.35768 0,0 z m -0.54112,-5.88575 c 1.01687,-2.857985 0.69067,3.78345 0,0 z m -0.78299,-9.813486 c 0.58118,0.120673 -0.32309,0.690864 0,0 z m 0.161,1.504958 c 1.20088,-0.239177 0.26326,1.973887 0,0 z m 1.52404,12.011818 c 0.87551,2.75888 -0.079,0.863 0,0 z m -1.05864,-9.887034 c 0.69371,-1.274501 0.26605,2.191827 0,0 z m 1.42242,12.036944 c 0.47665,-0.0206 -0.28317,0.34341 0,0 z m -0.44511,-6.63911 c 2.41705,-0.86983 2.21511,4.4996 1.11872,1.74073 -0.52293,0.93474 -1.34111,-1.30246 -1.11872,-1.74073 z m -0.3399,-3.388781 c 0.39458,0.333212 -0.30639,0.415754 0,0 z m -17.6589,-150.956927 c 0.96516,-0.404536 -0.48671,0.496143 0,0 z m 0.86837,6.405712 c 0.72735,0.386049 -0.17787,1.827451 0,0 z m 16.80571,140.828818 c 0.81646,-0.593402 -0.0977,1.418705 0,0 z M 43.185777,-48.464623 c 0.20668,0.72138 -0.19545,0.584246 0,0 z m 17.19186,146.143437 c 2.64972,-1.2997 1.11346,1.87033 0,0 z m -17.2933,-147.573437 c 0.21793,0.509994 -0.15663,0.115611 0,0 z m 17.30946,141.970734 c 0.36174,-0.460152 0.16618,1.217902 0,0 z m 0.21198,1.658379 c 1.39424,0.52466 -0.0781,1.573968 0,0 z m 1.30498,11.29517 c 1.58975,-0.48051 -0.39629,2.88092 0,0 z m 0.38402,2.43519 c 1.29243,0.36132 -0.2592,0.35935 0,0 z m -1.09614,-11.601364 c 0.54983,0.205318 -0.40479,0.33705 0,0 z m -0.61203,-5.584667 c 1.41149,-1.820114 2.15438,1.898121 -0.005,0.280786 l 0.005,-0.280766 z m 1.5237,10.747871 c 3.67283,-0.0834 -1.12075,-3.190598 0.74154,-4.40108 -0.4355,-2.257299 -1.84493,-4.037588 0.33479,-2.836625 0.5128,-2.130468 0.89015,-3.456717 0.84545,-4.540618 2.34089,-0.08638 1.22194,-1.979984 3.85108,-2.679851 1.00455,-6.134298 3.86706,3.295479 4.43621,5.928859 0.24817,3.993368 4.90849,12.073155 1.56703,13.918645 -2.7727,0.01 -4.17226,0.7537 -3.37716,-1.15863 -2.37481,-0.42666 -2.65855,3.24128 -2.76517,1.15773 -1.6712,-1.33076 -2.87857,-0.21401 -1.09704,0.85052 -2.69176,0.43024 -1.29382,-5.77265 -3.79238,-5.23783 0.0379,4.90807 -0.40565,0.46067 -0.74435,-1.00112 z m 0.77064,0.7254 c 0.15687,-0.40365 -0.22676,-0.0642 0,0 z m 0.4095,-6.830847 c 0.88886,-0.432727 -1.04633,-0.206695 0,0 z m 0.28037,1.407752 c 0.56476,-0.538248 -0.74791,-0.382056 0,0 z m 1.64737,7.737035 c 1.00396,-0.0192 -0.64911,-0.93804 0,0 z m -1.03217,-9.404652 c 0.63021,0.214774 -0.32096,-0.807465 0,0 z m 1.29848,9.825882 c 0.31285,-0.33898 -0.50454,-0.12518 0,0 z m -0.48636,-5.347002 c 1.43625,0.494278 -0.70801,-1.923601 0,0 z m -0.33155,-6.948738 c 0.21246,-0.905871 -0.73446,0.381168 0,0 z m 0.77391,7.514156 c 0.29719,-0.648042 -0.42543,0.287936 0,0 z m 0.43476,2.789194 c 1.39685,-0.20154 -1.16163,-0.81513 0,0 z m -0.45377,-6.75458 c 0.33711,-0.157333 -0.36963,-0.196362 0,0 z m -0.35867,-5.146691 c 0.93735,-0.438427 -0.58564,-1.049292 0,0 z m 1.11954,8.785478 c 0.61881,-0.239198 -0.56185,-0.406835 0,0 z m 0.26982,0.888323 c 0.59469,-0.785567 -0.83586,-0.685294 0,0 z m 0.86847,3.49503 c 0.23976,-0.19255 -0.51206,-0.46644 0,0 z m -0.39896,-6.11427 c 0.28675,-0.53567 -0.7497,0.03612 0,0 z m 1.01277,8.5933 c 0.12658,-0.71226 -0.64437,-0.14632 0,0 z m 0.0118,-12.354799 c 0.36313,-0.414531 -0.63274,0.07048 0,0 z m 4.49599,12.052309 c 0.98423,-0.0444 -0.58469,-1.08481 0,0 z m -10.43143,-6.711552 c 0.64569,0.760437 -0.3919,0.608647 0,0 z m -0.85489,-7.508919 c 0.48088,-0.38812 0.50034,1.88901 0,0 z m 1.74405,13.243281 c 1.4686,0.62149 -0.66665,1.56835 0,0 z m -0.7993,-9.318001 c 1.12654,0.721286 -0.7938,0.397861 0,0 z m 1.40286,11.621231 c 1.21115,-0.52517 -0.2746,1.07996 0,0 z m -1.33077,-15.51373 c 0.99832,0.315084 -0.38547,1.264697 0,0 z m -3.81975,-35.594001 c 1.49953,0.31367 -0.0376,3.543249 0,0 z m 5.63048,48.822861 c 0.91418,-0.70628 0.0155,1.70943 0,0 z M 49.905437,-15.120992 c 0.01,-4.20668 -0.53997,-10.54502 0.58368,-13.59606 0.16271,5.515024 0.53275,11.337682 -0.12142,16.697833 -0.44821,-0.908024 -0.29792,-2.103714 -0.46227,-3.101773 z m 12.42387,103.036405 c 0.18695,0.404372 -0.17978,0.06336 0,0 z m 0.21048,1.768652 c 0.42426,-0.795726 -0.0848,0.986135 0,0 z m -4.40223,-41.186558 c 0.4203,-1.931153 0.95522,-4.625144 2.17044,0.133534 0.39228,4.65261 2.32017,9.334981 7.7144,6.074259 3.79962,-0.06721 10.29069,-3.85405 6.62414,2.536706 -2.84479,-0.114541 -1.13812,0.612571 -3.40062,-0.691116 -2.75619,0.803586 -7.32364,-0.176892 -10.78927,0.133738 0.78422,-2.534512 -2.81042,-4.079729 -2.12475,-6.994212 0.0104,2.790868 -0.65833,-1.792371 -0.19434,-1.192909 z m 0.41067,-0.388784 c 0.31391,-0.276859 -0.36443,-0.07472 0,0 z m 0.53637,2.076806 c 0.31532,-0.285656 -0.37305,-0.204598 0,0 z m 3.99333,37.676037 c 0.58077,-1.07143 -0.0346,1.606714 0,0 z m -7.70459,-70.019321 c 1.11169,0.390764 -0.91279,0.724477 0,0 z m 3.38901,27.128597 c 0.28637,0.261405 0.0115,0.649441 0,0 z m 5.56703,42.857536 c 2.46393,-1.403012 -0.3823,2.416983 0,0 z m -2.19256,-27.61864 c 2.97827,-0.349693 9.33866,-0.138127 2.44014,0.241627 -0.65711,-0.131628 -2.07711,0.22334 -2.44014,-0.241627 z m -8.09015,-73.581142 c -0.0147,-6.295069 -1.68798,-13.13561 -0.19399,-19.085934 -3.57537,-2.405836 -0.25636,-11.323789 -1.9386,-16.166911 -1.60037,-4.779872 0.28865,-6.757121 4.75067,-6.346937 4.10232,-1.098312 0.42382,5.539928 1.14943,7.852994 0.36675,2.394299 -1.12127,6.953952 -1.75506,2.592756 0.12157,3.116708 -0.67304,11.488488 -0.24364,10.927764 -0.29636,7.484423 -0.33227,15.276811 -1.18849,22.830291 -0.62693,0.515724 -0.39316,-2.294577 -0.58032,-2.604023 z m 15.06586,119.863214 c 0.72776,-1.15548 0.27288,1.39849 0,0 z m -3.84118,-43.41686 c 0.37306,0.204598 -0.31532,0.285656 0,0 z m 3.24682,-2.371541 c 3.74124,-1.019666 1.40615,1.397376 0,0 z m 3.39291,12.033304 c 4.4498,-0.336933 1.30527,4.670542 0,0 z M 60.161167,-29.624355 c 0.18695,0.404362 -0.17979,0.06336 0,0 z m 7.83273,65.629213 c 2.19494,-0.911199 3.64724,7.415617 1.197,1.706083 -0.0909,-0.863195 -1.01136,-1.160449 -1.197,-1.706083 z m -7.84442,-68.527725 c -1.16897,-3.118895 1.41729,-9.856173 4.3552,-6.735898 -0.57668,1.936005 -6.2112,0.677216 -4.02236,5.529456 0.0956,1.118684 -0.39207,4.231043 -0.33284,1.206442 z m 13.64503,107.677121 c 0.36962,0.196371 -0.33711,0.157333 0,0 z m 0.866,5.082721 c 2.35438,-3.339094 0.0994,2.959135 0,0 z M 66.801047,6.8292439 c 1.49485,-0.34179 -0.0321,2.110427 0,0 z m -0.70697,-11.573567 c 1.05918,-0.298936 -0.18935,1.029861 0,0 z m 12.18757,98.1459441 c 1.40912,-0.441377 -0.13412,1.607122 0,0 z M 76.774417,76.6877 c 2.4181,-2.422407 1.48801,3.560284 0,0 z m -3.88854,-35.680963 c 2.38635,-1.6406 0.44948,3.188282 0,0 z m 7.56362,62.853173 c 1.55034,-0.41349 -0.13109,1.52644 0,0 z m -1.03009,-14.433963 c 0.69915,-0.05927 -0.60737,0.339488 0,0 z m 0.008,0.798621 c 0.87774,-0.139506 0.14324,2.523815 0,0 z"
     style="opacity:0.09;fill:#000000;stroke-width:0.09660347" />
  <g
     id="text4860"
     style="font-style:normal;font-variant:normal;font-weight:normal;font-stretch:normal;font-size:2.82222223px;line-height:125%;font-family:Sudo;-inkscape-font-specification:'Sudo, Normal';font-variant-ligatures:normal;font-variant-caps:normal;font-variant-numeric:normal;font-feature-settings:normal;text-align:start;letter-spacing:0px;word-spacing:0px;writing-mode:lr-tb;text-anchor:start;fill:#000000;fill-opacity:1;stroke:none;stroke-width:0.26458332px;stroke-linecap:butt;stroke-linejoin:miter;stroke-opacity:1" />
  <g
     id="flowRoot1009"
     style="font-style:normal;font-variant:normal;font-weight:normal;font-stretch:normal;font-size:10.66666698px;line-height:125%;font-family:Sudo;-inkscape-font-specification:'Sudo, Normal';font-variant-ligatures:normal;font-variant-caps:normal;font-variant-numeric:normal;font-feature-settings:normal;text-align:start;letter-spacing:0px;word-spacing:0px;writing-mode:lr-tb;text-anchor:start;fill:#000000;fill-opacity:1;stroke:none;stroke-width:1px;stroke-linecap:butt;stroke-linejoin:miter;stroke-opacity:1" />
  <g
     id="text977"
     style="font-style:normal;font-variant:normal;font-weight:normal;font-stretch:normal;font-size:4.23333311px;line-height:125%;font-family:'DejaVu Sans Mono';-inkscape-font-specification:'DejaVu Sans Mono, Normal';font-variant-ligatures:normal;font-variant-caps:normal;font-variant-numeric:normal;font-feature-settings:normal;text-align:start;letter-spacing:0px;word-spacing:0px;writing-mode:lr-tb;text-anchor:start;fill:#000000;fill-opacity:1;stroke:none;stroke-width:0.26458332px;stroke-linecap:butt;stroke-linejoin:miter;stroke-opacity:1"
     aria-label="bId">
    <path
       id="path879"
       style="font-style:normal;font-variant:normal;font-weight:normal;font-stretch:normal;font-size:4.23333311px;font-family:'DejaVu Sans Mono';-inkscape-font-specification:'DejaVu Sans Mono, Normal';font-variant-ligatures:normal;font-variant-caps:normal;font-variant-numeric:normal;font-feature-settings:normal;text-align:start;writing-mode:lr-tb;text-anchor:start;stroke-width:0.26458332px"
       d="m 21.373995,97.809389 q 0,-0.44235 -0.14056,-0.667659 -0.14056,-0.225309 -0.415478,-0.225309 -0.276986,0 -0.419613,0.227376 -0.142627,0.225309 -0.142627,0.665592 0,0.438216 0.142627,0.665593 0.142627,0.227376 0.419613,0.227376 0.274918,0 0.415478,-0.225309 0.14056,-0.225309 0.14056,-0.66766 z m -1.118278,-0.86403 q 0.09095,-0.169498 0.250114,-0.260449 0.161231,-0.09095 0.37207,-0.09095 0.417546,0 0.657325,0.322461 0.239778,0.320393 0.239778,0.8847 0,0.572575 -0.241845,0.89917 -0.239779,0.324528 -0.659392,0.324528 -0.206705,0 -0.365869,-0.08888 -0.157096,-0.09095 -0.252181,-0.262516 v 0.291455 h -0.380338 v -3.216341 h 0.380338 z" />
    <path
       id="path881"
       style="font-style:normal;font-variant:normal;font-weight:normal;font-stretch:normal;font-size:4.23333311px;font-family:'DejaVu Sans Mono';-inkscape-font-specification:'DejaVu Sans Mono, Normal';font-variant-ligatures:normal;font-variant-caps:normal;font-variant-numeric:normal;font-feature-settings:normal;text-align:start;writing-mode:lr-tb;text-anchor:start;stroke-width:0.26458332px"
       d="m 22.43853,95.878758 h 1.71359 v 0.3514 h -0.646989 v 2.383317 h 0.646989 v 0.351399 h -1.71359 v -0.351399 h 0.646988 V 96.230158 H 22.43853 Z" />
    <path
       id="path883"
       style="font-style:normal;font-variant:normal;font-weight:normal;font-stretch:normal;font-size:4.23333311px;font-family:'DejaVu Sans Mono';-inkscape-font-specification:'DejaVu Sans Mono, Normal';font-variant-ligatures:normal;font-variant-caps:normal;font-variant-numeric:normal;font-feature-settings:normal;text-align:start;writing-mode:lr-tb;text-anchor:start;stroke-width:0.26458332px"
       d="m 26.3432,96.945359 v -1.196826 h 0.380339 v 3.216341 H 26.3432 v -0.291455 q -0.09508,0.171566 -0.254248,0.262516 -0.157096,0.08888 -0.363802,0.08888 -0.419612,0 -0.661458,-0.324528 -0.239779,-0.326595 -0.239779,-0.89917 0,-0.564307 0.241846,-0.8847 0.241846,-0.322461 0.659391,-0.322461 0.208773,0 0.367937,0.09095 0.159163,0.08888 0.250113,0.260449 z m -1.118277,0.86403 q 0,0.442351 0.140559,0.66766 0.14056,0.225309 0.415479,0.225309 0.274919,0 0.417545,-0.227376 0.144694,-0.227377 0.144694,-0.665593 0,-0.440283 -0.144694,-0.665592 -0.142626,-0.227376 -0.417545,-0.227376 -0.274919,0 -0.415479,0.225309 -0.140559,0.225309 -0.140559,0.667659 z" />
    <path
       id="path885"
       style="font-style:normal;font-variant:normal;font-weight:normal;font-stretch:normal;font-size:4.23333311px;font-family:'DejaVu Sans Mono';-inkscape-font-specification:'DejaVu Sans Mono, Normal';font-variant-ligatures:normal;font-variant-caps:normal;font-variant-numeric:normal;font-feature-settings:normal;text-align:start;writing-mode:lr-tb;text-anchor:start;stroke-width:0.26458332px"
       d="m 28.389587,95.822947 q 0.134359,0 0.254248,0.05168 0.121956,0.04961 0.212907,0.144694 0.09302,0.09302 0.14056,0.21084 0.04961,0.117822 0.04961,0.254248 0,0.272851 -0.192236,0.46302 -0.192237,0.188103 -0.469222,0.188103 -0.279053,0 -0.465088,-0.186035 -0.186035,-0.186036 -0.186035,-0.465088 0,-0.276986 0.190169,-0.469222 0.190169,-0.192237 0.465088,-0.192237 z m 0,0.266651 q -0.163298,0 -0.279053,0.115755 -0.113688,0.113688 -0.113688,0.279053 0,0.165364 0.111621,0.276985 0.113688,0.111621 0.276986,0.111621 0.165364,0 0.281119,-0.113688 0.117823,-0.113688 0.117823,-0.274918 0,-0.163298 -0.115755,-0.279053 -0.115756,-0.115755 -0.279053,-0.115755 z" />
    <path
       id="path887"
       style="font-style:normal;font-variant:normal;font-weight:normal;font-stretch:normal;font-size:4.23333311px;font-family:'DejaVu Sans Mono';-inkscape-font-specification:'DejaVu Sans Mono, Normal';font-variant-ligatures:normal;font-variant-caps:normal;font-variant-numeric:normal;font-feature-settings:normal;text-align:start;writing-mode:lr-tb;text-anchor:start;stroke-width:0.26458332px"
       d="m 30.936201,95.822947 q 0.134359,0 0.254249,0.05168 0.121956,0.04961 0.212906,0.144694 0.09302,0.09302 0.14056,0.21084 0.04961,0.117822 0.04961,0.254248 0,0.272851 -0.192237,0.46302 -0.192236,0.188103 -0.469222,0.188103 -0.279052,0 -0.465088,-0.186035 -0.186035,-0.186036 -0.186035,-0.465088 0,-0.276986 0.19017,-0.469222 0.190169,-0.192237 0.465087,-0.192237 z m 0,0.266651 q -0.163297,0 -0.279052,0.115755 -0.113688,0.113688 -0.113688,0.279053 0,0.165364 0.111621,0.276985 0.113688,0.111621 0.276985,0.111621 0.165365,0 0.28112,-0.113688 0.117822,-0.113688 0.117822,-0.274918 0,-0.163298 -0.115755,-0.279053 -0.115755,-0.115755 -0.279053,-0.115755 z" />
  </g>
  <g
     id="text977-5"
     style="font-style:normal;font-variant:normal;font-weight:normal;font-stretch:normal;font-size:4.23333311px;line-height:125%;font-family:'DejaVu Sans Mono';-inkscape-font-specification:'DejaVu Sans Mono, Normal';font-variant-ligatures:normal;font-variant-caps:normal;font-variant-numeric:normal;font-feature-settings:normal;text-align:start;letter-spacing:0px;word-spacing:0px;writing-mode:lr-tb;text-anchor:start;fill:#000000;fill-opacity:1;stroke:none;stroke-width:0.26458332px;stroke-linecap:butt;stroke-linejoin:miter;stroke-opacity:1"
     aria-label="ziNC">
    <path
       id="path890"
       style="font-style:normal;font-variant:normal;font-weight:normal;font-stretch:normal;font-size:4.23333311px;font-family:'DejaVu Sans Mono';-inkscape-font-specification:'DejaVu Sans Mono, Normal';font-variant-ligatures:normal;font-variant-caps:normal;font-variant-numeric:normal;font-feature-settings:normal;text-align:start;writing-mode:lr-tb;text-anchor:start;stroke-width:0.26458332px"
       d="m 21.064971,3.3482785 h 1.680517 v 0.3472657 l -1.329117,1.6619139 h 1.329117 V 5.6675167 H 21.015362 V 5.316117 l 1.329117,-1.663981 h -1.279508 z" />
    <path
       id="path892"
       style="font-style:normal;font-variant:normal;font-weight:normal;font-stretch:normal;font-size:4.23333311px;font-family:'DejaVu Sans Mono';-inkscape-font-specification:'DejaVu Sans Mono, Normal';font-variant-ligatures:normal;font-variant-caps:normal;font-variant-numeric:normal;font-feature-settings:normal;text-align:start;writing-mode:lr-tb;text-anchor:start;stroke-width:0.26458332px"
       d="m 23.67153,3.3524127 h 0.973584 V 5.3719275 H 25.39959 V 5.6675167 H 23.510299 V 5.3719275 h 0.754476 V 3.6480018 H 23.67153 Z m 0.593245,-0.901237 h 0.380339 v 0.4816244 h -0.380339 z" />
    <path
       id="path894"
       style="font-style:normal;font-variant:normal;font-weight:normal;font-stretch:normal;font-size:4.23333311px;font-family:'DejaVu Sans Mono';-inkscape-font-specification:'DejaVu Sans Mono, Normal';font-variant-ligatures:normal;font-variant-caps:normal;font-variant-numeric:normal;font-feature-settings:normal;text-align:start;writing-mode:lr-tb;text-anchor:start;stroke-width:0.26458332px"
       d="m 25.976299,2.5814003 h 0.529166 l 1.041797,2.5404133 V 2.5814003 h 0.403076 V 5.6675167 H 27.421172 L 26.379375,3.1271034 v 2.5404133 h -0.403076 z" />
    <path
       id="path896"
       style="font-style:normal;font-variant:normal;font-weight:normal;font-stretch:normal;font-size:4.23333311px;font-family:'DejaVu Sans Mono';-inkscape-font-specification:'DejaVu Sans Mono, Normal';font-variant-ligatures:normal;font-variant-caps:normal;font-variant-numeric:normal;font-feature-settings:normal;text-align:start;writing-mode:lr-tb;text-anchor:start;stroke-width:0.26458332px"
       d="m 30.453544,5.5579627 q -0.159163,0.084749 -0.326595,0.1260905 -0.167431,0.043408 -0.355534,0.043408 -0.593245,0 -0.921907,-0.4196126 -0.326595,-0.4196126 -0.326595,-1.1802897 0,-0.7565429 0.328662,-1.1782226 0.330729,-0.4237467 0.91984,-0.4237467 0.188103,0 0.355534,0.043408 0.167432,0.041341 0.326595,0.1260905 V 3.1229693 Q 30.300582,2.9968788 30.124882,2.930733 q -0.1757,-0.066146 -0.353467,-0.066146 -0.40721,0 -0.609781,0.3141927 -0.202572,0.3141927 -0.202572,0.9487792 0,0.6325195 0.202572,0.9467122 0.202571,0.3141927 0.609781,0.3141927 0.181901,0 0.355534,-0.066146 0.1757,-0.066146 0.326595,-0.1922364 z" />
  </g>
  <g
     transform="translate(9.9195622)"
     id="g875">
    <path
       id="rect998-1-8-9"
       d="M 3.5526849,81.263763 H 8.25568 c 0.6299043,0 1.1370114,0.507108 1.1370114,1.137012 v 8.103004 c 0,0.629904 -0.5071071,1.137011 -1.1370114,1.137011 H 3.5526849 c -0.6299043,0 -1.1370114,-0.507107 -1.1370114,-1.137011 v -8.103004 c 0,-0.629904 0.5071071,-1.137012 1.1370114,-1.137012 z"
       style="opacity:1;fill:#000000;fill-opacity:1;fill-rule:evenodd;stroke:#000000;stroke-width:0.72085714;stroke-linecap:butt;stroke-linejoin:round;stroke-miterlimit:4;stroke-dasharray:none;stroke-dashoffset:0;stroke-opacity:1" />
    <g
       id="text1002-0-9-9"
       style="font-style:normal;font-variant:normal;font-weight:normal;font-stretch:normal;font-size:2.82222223px;line-height:125%;font-family:'DejaVu Sans Mono';-inkscape-font-specification:'DejaVu Sans Mono, Normal';font-variant-ligatures:normal;font-variant-caps:normal;font-variant-numeric:normal;font-feature-settings:normal;text-align:start;letter-spacing:0px;word-spacing:0px;writing-mode:lr-tb;text-anchor:start;fill:#000000;fill-opacity:1;stroke:#ffffff;stroke-width:0.13229166;stroke-linecap:butt;stroke-linejoin:miter;stroke-miterlimit:4;stroke-dasharray:none;stroke-opacity:1"
       aria-label="MOD">
      <path
         id="path900"
         style="font-style:normal;font-variant:normal;font-weight:normal;font-stretch:normal;font-size:2.82222223px;font-family:'DejaVu Sans Mono';-inkscape-font-specification:'DejaVu Sans Mono, Normal';font-variant-ligatures:normal;font-variant-caps:normal;font-variant-numeric:normal;font-feature-settings:normal;text-align:start;writing-mode:lr-tb;text-anchor:start;fill:#ffffff;fill-opacity:1;stroke:#ffffff;stroke-width:0.13229166;stroke-miterlimit:4;stroke-dasharray:none;stroke-opacity:1"
         d="m 3.5036398,81.922424 h 0.3720703 l 0.3555339,1.04731 0.3582899,-1.04731 h 0.3734483 v 2.057412 H 4.7052891 V 82.162203 L 4.3387309,83.246719 H 4.1278911 L 3.7599549,82.162203 v 1.817633 H 3.5036398 Z" />
      <path
         id="path902"
         style="font-style:normal;font-variant:normal;font-weight:normal;font-stretch:normal;font-size:2.82222223px;font-family:'DejaVu Sans Mono';-inkscape-font-specification:'DejaVu Sans Mono, Normal';font-variant-ligatures:normal;font-variant-caps:normal;font-variant-numeric:normal;font-feature-settings:normal;text-align:start;writing-mode:lr-tb;text-anchor:start;fill:#ffffff;fill-opacity:1;stroke:#ffffff;stroke-width:0.13229166;stroke-miterlimit:4;stroke-dasharray:none;stroke-opacity:1"
         d="m 6.3299961,82.953197 q 0,-0.453375 -0.093707,-0.647678 -0.092328,-0.194303 -0.3045464,-0.194303 -0.2108399,0 -0.3045465,0.194303 -0.092329,0.194303 -0.092329,0.647678 0,0.451997 0.092329,0.6463 0.093707,0.194303 0.3045465,0.194303 0.2122179,0 0.3045464,-0.192925 0.093707,-0.194303 0.093707,-0.647678 z m 0.2907661,0 q 0,0.537435 -0.1708767,0.802018 -0.1694987,0.264584 -0.5181424,0.264584 -0.3486437,0 -0.5181424,-0.263206 -0.1694987,-0.263205 -0.1694987,-0.803396 0,-0.538813 0.1694987,-0.803396 0.1708768,-0.264584 0.5181424,-0.264584 0.3486437,0 0.5181424,0.264584 0.1708767,0.264583 0.1708767,0.803396 z" />
      <path
         id="path904"
         style="font-style:normal;font-variant:normal;font-weight:normal;font-stretch:normal;font-size:2.82222223px;font-family:'DejaVu Sans Mono';-inkscape-font-specification:'DejaVu Sans Mono, Normal';font-variant-ligatures:normal;font-variant-caps:normal;font-variant-numeric:normal;font-feature-settings:normal;text-align:start;writing-mode:lr-tb;text-anchor:start;fill:#ffffff;fill-opacity:1;stroke:#ffffff;stroke-width:0.13229166;stroke-miterlimit:4;stroke-dasharray:none;stroke-opacity:1"
         d="m 7.3814393,83.751081 q 0.3513997,0 0.4905816,-0.172255 0.1391818,-0.173632 0.1391818,-0.625629 0,-0.456131 -0.1391818,-0.628385 Q 7.734217,82.151179 7.3814393,82.151179 H 7.2491476 v 1.599902 z m 0.00551,-1.828657 q 0.4712891,0 0.6945313,0.250803 0.2232422,0.250803 0.2232422,0.77997 0,0.526411 -0.2232422,0.777214 -0.2232422,0.249425 -0.6945313,0.249425 H 6.9694058 v -2.057412 z" />
    </g>
    <path
       id="rect998-1-8-9-0"
       d="m 23.374101,81.263771 h 4.702995 c 0.629904,0 1.137011,0.507107 1.137011,1.137011 v 8.103004 c 0,0.629905 -0.507107,1.137012 -1.137011,1.137012 h -4.702995 c -0.629905,0 -1.137012,-0.507107 -1.137012,-1.137012 v -8.103004 c 0,-0.629904 0.507107,-1.137011 1.137012,-1.137011 z"
       style="opacity:1;fill:#cd1f00;fill-opacity:1;fill-rule:evenodd;stroke:#cd1f00;stroke-width:0.72085714;stroke-linecap:butt;stroke-linejoin:round;stroke-miterlimit:4;stroke-dasharray:none;stroke-dashoffset:0;stroke-opacity:1" />
    <g
       id="text1002-0-9-9-6"
       style="font-style:normal;font-variant:normal;font-weight:normal;font-stretch:normal;font-size:2.82222223px;line-height:125%;font-family:'DejaVu Sans Mono';-inkscape-font-specification:'DejaVu Sans Mono, Normal';font-variant-ligatures:normal;font-variant-caps:normal;font-variant-numeric:normal;font-feature-settings:normal;text-align:start;letter-spacing:0px;word-spacing:0px;writing-mode:lr-tb;text-anchor:start;fill:#000000;fill-opacity:1;stroke:#ffffff;stroke-width:0.13229166;stroke-linecap:butt;stroke-linejoin:miter;stroke-miterlimit:4;stroke-dasharray:none;stroke-opacity:1"
       aria-label="OUT">
      <path
         id="path908"
         style="font-style:normal;font-variant:normal;font-weight:normal;font-stretch:normal;font-size:2.82222223px;font-family:'DejaVu Sans Mono';-inkscape-font-specification:'DejaVu Sans Mono, Normal';font-variant-ligatures:normal;font-variant-caps:normal;font-variant-numeric:normal;font-feature-settings:normal;text-align:start;writing-mode:lr-tb;text-anchor:start;fill:#ffffff;fill-opacity:1;stroke:#ffffff;stroke-width:0.13229166;stroke-miterlimit:4;stroke-dasharray:none;stroke-opacity:1"
         d="m 24.377189,82.953212 q 0,-0.453374 -0.09371,-0.647678 -0.09233,-0.194303 -0.304546,-0.194303 -0.21084,0 -0.304547,0.194303 -0.09233,0.194304 -0.09233,0.647678 0,0.451997 0.09233,0.6463 0.09371,0.194304 0.304547,0.194304 0.212217,0 0.304546,-0.192926 0.09371,-0.194303 0.09371,-0.647678 z m 0.290766,0 q 0,0.537435 -0.170877,0.802019 -0.169499,0.264583 -0.518142,0.264583 -0.348644,0 -0.518143,-0.263205 -0.169499,-0.263206 -0.169499,-0.803397 0,-0.538813 0.169499,-0.803396 0.170877,-0.264583 0.518143,-0.264583 0.348643,0 0.518142,0.264583 0.170877,0.264583 0.170877,0.803396 z" />
      <path
         id="path910"
         style="font-style:normal;font-variant:normal;font-weight:normal;font-stretch:normal;font-size:2.82222223px;font-family:'DejaVu Sans Mono';-inkscape-font-specification:'DejaVu Sans Mono, Normal';font-variant-ligatures:normal;font-variant-caps:normal;font-variant-numeric:normal;font-feature-settings:normal;text-align:start;writing-mode:lr-tb;text-anchor:start;fill:#ffffff;fill-opacity:1;stroke:#ffffff;stroke-width:0.13229166;stroke-miterlimit:4;stroke-dasharray:none;stroke-opacity:1"
         d="M 25.030379,83.190235 V 81.92244 h 0.279741 v 1.394574 q 0,0.150207 0.0083,0.214974 0.0083,0.06339 0.02894,0.09784 0.0441,0.0813 0.12678,0.122645 0.08406,0.04134 0.202572,0.04134 0.119889,0 0.202571,-0.04134 0.08268,-0.04134 0.128158,-0.122645 0.02067,-0.03445 0.02894,-0.09784 0.0083,-0.06339 0.0083,-0.212218 v -1.39733 h 0.278364 v 1.267795 q 0,0.315571 -0.03996,0.44924 -0.03858,0.132292 -0.135047,0.219108 -0.09095,0.08131 -0.208084,0.121268 -0.117133,0.03996 -0.263205,0.03996 -0.144694,0 -0.261828,-0.03996 -0.117133,-0.03996 -0.209461,-0.121268 -0.09509,-0.08544 -0.135048,-0.220486 -0.03996,-0.136425 -0.03996,-0.447862 z" />
      <path
         id="path912"
         style="font-style:normal;font-variant:normal;font-weight:normal;font-stretch:normal;font-size:2.82222223px;font-family:'DejaVu Sans Mono';-inkscape-font-specification:'DejaVu Sans Mono, Normal';font-variant-ligatures:normal;font-variant-caps:normal;font-variant-numeric:normal;font-feature-settings:normal;text-align:start;writing-mode:lr-tb;text-anchor:start;fill:#ffffff;fill-opacity:1;stroke:#ffffff;stroke-width:0.13229166;stroke-miterlimit:4;stroke-dasharray:none;stroke-opacity:1"
         d="m 26.590318,81.92244 h 1.569585 v 0.234266 H 27.51636 v 1.823145 h -0.279742 v -1.823145 h -0.6463 z" />
    </g>
    <path
       id="rect998-1-8-9-5"
       d="m 13.621189,81.263763 h 4.702995 c 0.629904,0 1.137011,0.507108 1.137011,1.137012 v 8.103004 c 0,0.629904 -0.507107,1.137011 -1.137011,1.137011 h -4.702995 c -0.629904,0 -1.137011,-0.507107 -1.137011,-1.137011 v -8.103004 c 0,-0.629904 0.507107,-1.137012 1.137011,-1.137012 z"
       style="opacity:1;fill:#000000;fill-opacity:1;fill-rule:evenodd;stroke:#000000;stroke-width:0.72085714;stroke-linecap:butt;stroke-linejoin:round;stroke-miterlimit:4;stroke-dasharray:none;stroke-dashoffset:0;stroke-opacity:1" />
    <g
       id="text1002-0-9-9-9"
       style="font-style:normal;font-variant:normal;font-weight:normal;font-stretch:normal;font-size:2.82222223px;line-height:125%;font-family:'DejaVu Sans Mono';-inkscape-font-specification:'DejaVu Sans Mono, Normal';font-variant-ligatures:normal;font-variant-caps:normal;font-variant-numeric:normal;font-feature-settings:normal;text-align:start;letter-spacing:0px;word-spacing:0px;writing-mode:lr-tb;text-anchor:start;fill:#000000;fill-opacity:1;stroke:#ffffff;stroke-width:0.13229166;stroke-linecap:butt;stroke-linejoin:miter;stroke-miterlimit:4;stroke-dasharray:none;stroke-opacity:1"
       aria-label="CAR">
      <path
         id="path916"
         style="font-style:normal;font-variant:normal;font-weight:normal;font-stretch:normal;font-size:2.82222223px;font-family:'DejaVu Sans Mono';-inkscape-font-specification:'DejaVu Sans Mono, Normal';font-variant-ligatures:normal;font-variant-caps:normal;font-variant-numeric:normal;font-feature-settings:normal;text-align:start;writing-mode:lr-tb;text-anchor:start;fill:#ffffff;fill-opacity:1;stroke:#ffffff;stroke-width:0.13229166;stroke-miterlimit:4;stroke-dasharray:none;stroke-opacity:1"
         d="m 14.808244,83.906799 q -0.106109,0.0565 -0.21773,0.08406 -0.111621,0.02894 -0.237023,0.02894 -0.395497,0 -0.614605,-0.279742 -0.21773,-0.279742 -0.21773,-0.78686 0,-0.504362 0.219108,-0.785482 0.220486,-0.282498 0.613227,-0.282498 0.125402,0 0.237023,0.02894 0.111621,0.02756 0.21773,0.08406 v 0.285253 q -0.101975,-0.08406 -0.219108,-0.128157 -0.117133,-0.0441 -0.235645,-0.0441 -0.271473,0 -0.406521,0.209462 -0.135048,0.209461 -0.135048,0.632519 0,0.42168 0.135048,0.631142 0.135048,0.209461 0.406521,0.209461 0.121268,0 0.237023,-0.0441 0.117133,-0.0441 0.21773,-0.128157 z" />
      <path
         id="path918"
         style="font-style:normal;font-variant:normal;font-weight:normal;font-stretch:normal;font-size:2.82222223px;font-family:'DejaVu Sans Mono';-inkscape-font-specification:'DejaVu Sans Mono, Normal';font-variant-ligatures:normal;font-variant-caps:normal;font-variant-numeric:normal;font-feature-settings:normal;text-align:start;writing-mode:lr-tb;text-anchor:start;fill:#ffffff;fill-opacity:1;stroke:#ffffff;stroke-width:0.13229166;stroke-miterlimit:4;stroke-dasharray:none;stroke-opacity:1"
         d="m 15.876224,82.167715 -0.293523,1.052821 h 0.587045 z m -0.168121,-0.245291 h 0.337619 l 0.629764,2.057412 h -0.28801 l -0.151585,-0.536057 h -0.720714 l -0.148828,0.536057 h -0.28801 z" />
      <path
         id="path920"
         style="font-style:normal;font-variant:normal;font-weight:normal;font-stretch:normal;font-size:2.82222223px;font-family:'DejaVu Sans Mono';-inkscape-font-specification:'DejaVu Sans Mono, Normal';font-variant-ligatures:normal;font-variant-caps:normal;font-variant-numeric:normal;font-feature-settings:normal;text-align:start;writing-mode:lr-tb;text-anchor:start;fill:#ffffff;fill-opacity:1;stroke:#ffffff;stroke-width:0.13229166;stroke-miterlimit:4;stroke-dasharray:none;stroke-opacity:1"
         d="m 17.772404,83.008319 q 0.107487,0.02756 0.183279,0.10473 0.07579,0.07579 0.188791,0.304547 l 0.279742,0.56224 h -0.299034 l -0.245291,-0.519521 q -0.106109,-0.221864 -0.191547,-0.285254 -0.08406,-0.06477 -0.220486,-0.06477 h -0.265962 v 0.869543 h -0.279742 v -2.057412 h 0.573264 q 0.338998,0 0.519521,0.152963 0.180523,0.152962 0.180523,0.44235 0,0.20395 -0.111621,0.333485 -0.110243,0.128158 -0.311437,0.157097 z m -0.570508,-0.85714 v 0.73036 h 0.304547 q 0.199815,0 0.297656,-0.08957 0.09784,-0.08957 0.09784,-0.27423 0,-0.177767 -0.104731,-0.271474 -0.103353,-0.09508 -0.301791,-0.09508 z" />
    </g>
  </g>
  <g
     transform="translate(11.223285)"
     id="g856">
    <g
       id="text1002-0-9-9-3"
       style="font-style:normal;font-variant:normal;font-weight:normal;font-stretch:normal;font-size:2.82222223px;line-height:125%;font-family:'DejaVu Sans Mono';-inkscape-font-specification:'DejaVu Sans Mono, Normal';font-variant-ligatures:normal;font-variant-caps:normal;font-variant-numeric:normal;font-feature-settings:normal;text-align:start;letter-spacing:0px;word-spacing:0px;writing-mode:lr-tb;text-anchor:start;fill:#000000;fill-opacity:1;stroke:#000000;stroke-width:0.02645833;stroke-linecap:butt;stroke-linejoin:miter;stroke-miterlimit:4;stroke-dasharray:none;stroke-opacity:1"
       aria-label="A">
      <path
         id="path923"
         style="font-style:normal;font-variant:normal;font-weight:normal;font-stretch:normal;font-size:2.82222223px;font-family:'DejaVu Sans Mono';-inkscape-font-specification:'DejaVu Sans Mono, Normal';font-variant-ligatures:normal;font-variant-caps:normal;font-variant-numeric:normal;font-feature-settings:normal;text-align:start;writing-mode:lr-tb;text-anchor:start;fill:#000000;fill-opacity:1;stroke:#000000;stroke-width:0.02645833;stroke-miterlimit:4;stroke-dasharray:none;stroke-opacity:1"
         d="M 8.8242653,57.768416 8.5307432,58.821237 H 9.1177874 Z M 8.6561446,57.523125 H 8.993764 l 0.6297635,2.057411 h -0.28801 L 9.1839333,59.044479 h -0.720714 l -0.1488281,0.536057 h -0.28801 z" />
    </g>
    <g
       id="text1002-0-9-9-3-5"
       style="font-style:normal;font-variant:normal;font-weight:normal;font-stretch:normal;font-size:2.82222223px;line-height:125%;font-family:'DejaVu Sans Mono';-inkscape-font-specification:'DejaVu Sans Mono, Normal';font-variant-ligatures:normal;font-variant-caps:normal;font-variant-numeric:normal;font-feature-settings:normal;text-align:start;letter-spacing:0px;word-spacing:0px;writing-mode:lr-tb;text-anchor:start;fill:#000000;fill-opacity:1;stroke:#000000;stroke-width:0.02645833;stroke-linecap:butt;stroke-linejoin:miter;stroke-miterlimit:4;stroke-dasharray:none;stroke-opacity:1"
       aria-label="D">
      <path
         id="path926"
         style="font-style:normal;font-variant:normal;font-weight:normal;font-stretch:normal;font-size:2.82222223px;font-family:'DejaVu Sans Mono';-inkscape-font-specification:'DejaVu Sans Mono, Normal';font-variant-ligatures:normal;font-variant-caps:normal;font-variant-numeric:normal;font-feature-settings:normal;text-align:start;writing-mode:lr-tb;text-anchor:start;fill:#000000;fill-opacity:1;stroke:#000000;stroke-width:0.02645833;stroke-miterlimit:4;stroke-dasharray:none;stroke-opacity:1"
         d="m 20.072668,59.351782 q 0.3514,0 0.490582,-0.172255 0.139182,-0.173633 0.139182,-0.62563 0,-0.45613 -0.139182,-0.628385 -0.137804,-0.173633 -0.490582,-0.173633 h -0.132291 v 1.599903 z m 0.0055,-1.828657 q 0.471289,0 0.694531,0.250803 0.223242,0.250803 0.223242,0.779969 0,0.526411 -0.223242,0.777214 -0.223242,0.249425 -0.694531,0.249425 h -0.417546 v -2.057411 z" />
    </g>
  </g>
  <g
     transform="translate(5.3771064)"
     id="g864">
    <g
       id="text1002-0-9-9-3-1-2"
       style="font-style:normal;font-variant:normal;font-weight:normal;font-stretch:normal;font-size:2.82222223px;line-height:125%;font-family:'DejaVu Sans Mono';-inkscape-font-specification:'DejaVu Sans Mono, Normal';font-variant-ligatures:normal;font-variant-caps:normal;font-variant-numeric:normal;font-feature-settings:normal;text-align:start;letter-spacing:0px;word-spacing:0px;writing-mode:lr-tb;text-anchor:start;fill:#000000;fill-opacity:1;stroke:#000000;stroke-width:0.02645833;stroke-linecap:butt;stroke-linejoin:miter;stroke-miterlimit:4;stroke-dasharray:none;stroke-opacity:1"
       aria-label="MOD">
      <path
         id="path929"
         style="font-style:normal;font-variant:normal;font-weight:normal;font-stretch:normal;font-size:2.82222223px;font-family:'DejaVu Sans Mono';-inkscape-font-specification:'DejaVu Sans Mono, Normal';font-variant-ligatures:normal;font-variant-caps:normal;font-variant-numeric:normal;font-feature-settings:normal;text-align:start;writing-mode:lr-tb;text-anchor:start;fill:#000000;fill-opacity:1;stroke:#000000;stroke-width:0.02645833;stroke-miterlimit:4;stroke-dasharray:none;stroke-opacity:1"
         d="m 6.4783975,67.552567 h 0.3720703 l 0.3555338,1.047309 0.35829,-1.047309 h 0.3734483 v 2.057411 H 7.6800468 V 67.792345 L 7.3134886,68.876861 H 7.1026488 L 6.7347126,67.792345 v 1.817633 H 6.4783975 Z" />
      <path
         id="path931"
         style="font-style:normal;font-variant:normal;font-weight:normal;font-stretch:normal;font-size:2.82222223px;font-family:'DejaVu Sans Mono';-inkscape-font-specification:'DejaVu Sans Mono, Normal';font-variant-ligatures:normal;font-variant-caps:normal;font-variant-numeric:normal;font-feature-settings:normal;text-align:start;writing-mode:lr-tb;text-anchor:start;fill:#000000;fill-opacity:1;stroke:#000000;stroke-width:0.02645833;stroke-miterlimit:4;stroke-dasharray:none;stroke-opacity:1"
         d="m 9.3047538,68.583339 q 0,-0.453374 -0.093707,-0.647678 -0.092329,-0.194303 -0.3045464,-0.194303 -0.2108399,0 -0.3045465,0.194303 -0.092328,0.194304 -0.092328,0.647678 0,0.451997 0.092328,0.6463 0.093707,0.194304 0.3045465,0.194304 0.2122178,0 0.3045464,-0.192926 0.093707,-0.194303 0.093707,-0.647678 z m 0.2907661,0 q 0,0.537435 -0.1708768,0.802018 -0.1694987,0.264584 -0.5181423,0.264584 -0.3486437,0 -0.5181424,-0.263205 -0.1694987,-0.263206 -0.1694987,-0.803397 0,-0.538813 0.1694987,-0.803396 0.1708767,-0.264583 0.5181424,-0.264583 0.3486436,0 0.5181423,0.264583 0.1708768,0.264583 0.1708768,0.803396 z" />
      <path
         id="path933"
         style="font-style:normal;font-variant:normal;font-weight:normal;font-stretch:normal;font-size:2.82222223px;font-family:'DejaVu Sans Mono';-inkscape-font-specification:'DejaVu Sans Mono, Normal';font-variant-ligatures:normal;font-variant-caps:normal;font-variant-numeric:normal;font-feature-settings:normal;text-align:start;writing-mode:lr-tb;text-anchor:start;fill:#000000;fill-opacity:1;stroke:#000000;stroke-width:0.02645833;stroke-miterlimit:4;stroke-dasharray:none;stroke-opacity:1"
         d="m 10.356197,69.381223 q 0.3514,0 0.490582,-0.172254 0.139181,-0.173633 0.139181,-0.62563 0,-0.45613 -0.139181,-0.628385 -0.137804,-0.173633 -0.490582,-0.173633 h -0.132292 v 1.599902 z m 0.0055,-1.828656 q 0.471289,0 0.694531,0.250803 0.223243,0.250803 0.223243,0.779969 0,0.526411 -0.223243,0.777214 -0.223242,0.249425 -0.694531,0.249425 H 9.9441635 v -2.057411 z" />
    </g>
    <g
       id="text1002-0-9-9-3-1-2-6"
       style="font-style:normal;font-variant:normal;font-weight:normal;font-stretch:normal;font-size:2.82222223px;line-height:125%;font-family:'DejaVu Sans Mono';-inkscape-font-specification:'DejaVu Sans Mono, Normal';font-variant-ligatures:normal;font-variant-caps:normal;font-variant-numeric:normal;font-feature-settings:normal;text-align:start;letter-spacing:0px;word-spacing:0px;writing-mode:lr-tb;text-anchor:start;fill:#000000;fill-opacity:1;stroke:#000000;stroke-width:0.02645833;stroke-linecap:butt;stroke-linejoin:miter;stroke-miterlimit:4;stroke-dasharray:none;stroke-opacity:1"
       aria-label="CAR">
      <path
         id="path936"
         style="font-style:normal;font-variant:normal;font-weight:normal;font-stretch:normal;font-size:2.82222223px;font-family:'DejaVu Sans Mono';-inkscape-font-specification:'DejaVu Sans Mono, Normal';font-variant-ligatures:normal;font-variant-caps:normal;font-variant-numeric:normal;font-feature-settings:normal;text-align:start;writing-mode:lr-tb;text-anchor:start;fill:#000000;fill-opacity:1;stroke:#000000;stroke-width:0.02645833;stroke-miterlimit:4;stroke-dasharray:none;stroke-opacity:1"
         d="m 19.134191,69.536942 q -0.106109,0.0565 -0.21773,0.08406 -0.111621,0.02894 -0.237023,0.02894 -0.395497,0 -0.614605,-0.279742 -0.21773,-0.279742 -0.21773,-0.78686 0,-0.504362 0.219108,-0.785482 0.220486,-0.282497 0.613227,-0.282497 0.125402,0 0.237023,0.02894 0.111621,0.02756 0.21773,0.08406 v 0.285254 q -0.101975,-0.08406 -0.219108,-0.128158 -0.117134,-0.0441 -0.235645,-0.0441 -0.271473,0 -0.406521,0.209462 -0.135048,0.209462 -0.135048,0.632519 0,0.42168 0.135048,0.631142 0.135048,0.209462 0.406521,0.209462 0.121267,0 0.237023,-0.0441 0.117133,-0.0441 0.21773,-0.128157 z" />
      <path
         id="path938"
         style="font-style:normal;font-variant:normal;font-weight:normal;font-stretch:normal;font-size:2.82222223px;font-family:'DejaVu Sans Mono';-inkscape-font-specification:'DejaVu Sans Mono, Normal';font-variant-ligatures:normal;font-variant-caps:normal;font-variant-numeric:normal;font-feature-settings:normal;text-align:start;writing-mode:lr-tb;text-anchor:start;fill:#000000;fill-opacity:1;stroke:#000000;stroke-width:0.02645833;stroke-miterlimit:4;stroke-dasharray:none;stroke-opacity:1"
         d="m 20.20217,67.797857 -0.293522,1.052822 h 0.587044 z m -0.16812,-0.24529 h 0.337619 l 0.629763,2.057411 h -0.28801 l -0.151584,-0.536057 h -0.720714 l -0.148828,0.536057 h -0.28801 z" />
      <path
         id="path940"
         style="font-style:normal;font-variant:normal;font-weight:normal;font-stretch:normal;font-size:2.82222223px;font-family:'DejaVu Sans Mono';-inkscape-font-specification:'DejaVu Sans Mono, Normal';font-variant-ligatures:normal;font-variant-caps:normal;font-variant-numeric:normal;font-feature-settings:normal;text-align:start;writing-mode:lr-tb;text-anchor:start;fill:#000000;fill-opacity:1;stroke:#000000;stroke-width:0.02645833;stroke-miterlimit:4;stroke-dasharray:none;stroke-opacity:1"
         d="m 22.098351,68.638461 q 0.107487,0.02756 0.183279,0.104731 0.07579,0.07579 0.188791,0.304546 l 0.279742,0.56224 h -0.299034 l -0.245291,-0.519521 q -0.106109,-0.221864 -0.191547,-0.285254 -0.08406,-0.06477 -0.220487,-0.06477 h -0.265961 v 0.869542 h -0.279742 v -2.057411 h 0.573264 q 0.338998,0 0.519521,0.152962 0.180523,0.152962 0.180523,0.44235 0,0.20395 -0.111621,0.333485 -0.110244,0.128158 -0.311437,0.157097 z m -0.570508,-0.85714 v 0.73036 h 0.304547 q 0.199815,0 0.297656,-0.08957 0.09784,-0.08957 0.09784,-0.27423 0,-0.177767 -0.10473,-0.271473 -0.103353,-0.09508 -0.301791,-0.09508 z" />
    </g>
    <g
       id="text1002-0-9-9-3-1-2-6-8"
       style="font-style:normal;font-variant:normal;font-weight:normal;font-stretch:normal;font-size:2.82222223px;line-height:125%;font-family:'DejaVu Sans Mono';-inkscape-font-specification:'DejaVu Sans Mono, Normal';font-variant-ligatures:normal;font-variant-caps:normal;font-variant-numeric:normal;font-feature-settings:normal;text-align:start;letter-spacing:0px;word-spacing:0px;writing-mode:lr-tb;text-anchor:start;fill:#000000;fill-opacity:1;stroke:#000000;stroke-width:0.02645833;stroke-linecap:butt;stroke-linejoin:miter;stroke-miterlimit:4;stroke-dasharray:none;stroke-opacity:1"
       aria-label="OUT">
      <path
         id="path943"
         style="font-style:normal;font-variant:normal;font-weight:normal;font-stretch:normal;font-size:2.82222223px;font-family:'DejaVu Sans Mono';-inkscape-font-specification:'DejaVu Sans Mono, Normal';font-variant-ligatures:normal;font-variant-caps:normal;font-variant-numeric:normal;font-feature-settings:normal;text-align:start;writing-mode:lr-tb;text-anchor:start;fill:#000000;fill-opacity:1;stroke:#000000;stroke-width:0.02645833;stroke-miterlimit:4;stroke-dasharray:none;stroke-opacity:1"
         d="m 30.45358,68.583339 q 0,-0.453374 -0.09371,-0.647678 -0.09233,-0.194303 -0.304546,-0.194303 -0.21084,0 -0.304547,0.194303 -0.09233,0.194304 -0.09233,0.647678 0,0.451997 0.09233,0.6463 0.09371,0.194304 0.304547,0.194304 0.212218,0 0.304546,-0.192926 0.09371,-0.194303 0.09371,-0.647678 z m 0.290766,0 q 0,0.537435 -0.170877,0.802018 -0.169499,0.264584 -0.518142,0.264584 -0.348644,0 -0.518143,-0.263205 -0.169498,-0.263206 -0.169498,-0.803397 0,-0.538813 0.169498,-0.803396 0.170877,-0.264583 0.518143,-0.264583 0.348643,0 0.518142,0.264583 0.170877,0.264583 0.170877,0.803396 z" />
      <path
         id="path945"
         style="font-style:normal;font-variant:normal;font-weight:normal;font-stretch:normal;font-size:2.82222223px;font-family:'DejaVu Sans Mono';-inkscape-font-specification:'DejaVu Sans Mono, Normal';font-variant-ligatures:normal;font-variant-caps:normal;font-variant-numeric:normal;font-feature-settings:normal;text-align:start;writing-mode:lr-tb;text-anchor:start;fill:#000000;fill-opacity:1;stroke:#000000;stroke-width:0.02645833;stroke-miterlimit:4;stroke-dasharray:none;stroke-opacity:1"
         d="m 31.10677,68.820362 v -1.267795 h 0.279742 v 1.394574 q 0,0.150207 0.0083,0.214974 0.0083,0.06339 0.02894,0.09784 0.0441,0.0813 0.126779,0.122645 0.08406,0.04134 0.202572,0.04134 0.119889,0 0.202571,-0.04134 0.08268,-0.04134 0.128158,-0.122645 0.02067,-0.03445 0.02894,-0.09784 0.0083,-0.06339 0.0083,-0.212218 v -1.39733 h 0.278364 v 1.267795 q 0,0.315571 -0.03996,0.44924 -0.03858,0.132292 -0.135048,0.219108 -0.09095,0.08131 -0.208084,0.121268 -0.117133,0.03996 -0.263205,0.03996 -0.144694,0 -0.261827,-0.03996 -0.117134,-0.03996 -0.209462,-0.121268 -0.09508,-0.08544 -0.135048,-0.220486 -0.03996,-0.136426 -0.03996,-0.447862 z" />
      <path
         id="path947"
         style="font-style:normal;font-variant:normal;font-weight:normal;font-stretch:normal;font-size:2.82222223px;font-family:'DejaVu Sans Mono';-inkscape-font-specification:'DejaVu Sans Mono, Normal';font-variant-ligatures:normal;font-variant-caps:normal;font-variant-numeric:normal;font-feature-settings:normal;text-align:start;writing-mode:lr-tb;text-anchor:start;fill:#000000;fill-opacity:1;stroke:#000000;stroke-width:0.02645833;stroke-miterlimit:4;stroke-dasharray:none;stroke-opacity:1"
         d="m 32.666709,67.552567 h 1.569586 v 0.234266 h -0.643544 v 1.823145 h -0.279742 v -1.823145 h -0.6463 z" />
    </g>
  </g>
</svg>
