<?xml version="1.0" encoding="UTF-8"?>
<svg width="48px" height="14px" viewBox="0 0 48 14" version="1.1" xmlns="http://www.w3.org/2000/svg" xmlns:xlink="http://www.w3.org/1999/xlink">
    <title>moDllzMidiPanic</title>
    <g id="Page-1" stroke="none" stroke-width="1" fill="none" fill-rule="evenodd">
        <g id="moDllzMidiPanic">
            <rect id="gateMute" fill-opacity="0.1" fill="#333333" x="0" y="0" width="48" height="14" rx="3"></rect>
            <path d="M6.25714275,5.94285706 L4.94285706,5.94285706 L4.94285706,7.25714275 L2.31428569,7.25714275 L2.31428569,11.1999998 L1,11.1999998 L1,2 L4.94285706,2 L4.94285706,3.31428569 L6.25714275,3.31428569 L6.25714275,5.94285706 Z M6.25714275,11.1999998 L4.94285706,11.1999998 L4.94285706,7.25714275 L6.25714275,7.25714275 L6.25714275,11.1999998 Z M12.8285712,8.57142844 L8.88571412,8.57142844 L8.88571412,9.88571412 L11.5142855,9.88571412 L11.5142855,11.1999998 L8.88571412,11.1999998 L8.88571412,9.88571412 L7.57142844,9.88571412 L7.57142844,5.94285706 L8.88571412,5.94285706 L8.88571412,4.62857137 L11.5142855,4.62857137 L11.5142855,5.94285706 L12.8285712,5.94285706 L12.8285712,8.57142844 Z M11.5142855,7.25714275 L11.5142855,5.94285706 L8.88571412,5.94285706 L8.88571412,7.25714275 L11.5142855,7.25714275 Z M18.0857139,9.88571412 L16.7714282,9.88571412 L16.7714282,11.1999998 L14.1428569,11.1999998 L14.1428569,9.88571412 L16.7714282,9.88571412 L16.7714282,8.57142844 L15.4571426,8.57142844 L15.4571426,7.25714275 L14.1428569,7.25714275 L14.1428569,5.94285706 L15.4571426,5.94285706 L15.4571426,4.62857137 L18.0857139,4.62857137 L18.0857139,5.94285706 L15.4571426,5.94285706 L15.4571426,7.25714275 L16.7714282,7.25714275 L16.7714282,8.57142844 L18.0857139,8.57142844 L18.0857139,9.88571412 Z M24.6571424,8.57142844 L20.7142853,8.57142844 L20.7142853,9.88571412 L23.3428567,9.88571412 L23.3428567,11.1999998 L20.7142853,11.1999998 L20.7142853,9.88571412 L19.3999996,9.88571412 L19.3999996,5.94285706 L20.7142853,5.94285706 L20.7142853,4.62857137 L23.3428567,4.62857137 L23.3428567,5.94285706 L24.6571424,5.94285706 L24.6571424,8.57142844 Z M23.3428567,7.25714275 L23.3428567,5.94285706 L20.7142853,5.94285706 L20.7142853,7.25714275 L23.3428567,7.25714275 Z M29.9142851,11.1999998 L27.2857137,11.1999998 L27.2857137,9.88571412 L25.9714281,9.88571412 L25.9714281,2 L27.2857137,2 L27.2857137,4.62857137 L28.5999994,4.62857137 L28.5999994,5.94285706 L27.2857137,5.94285706 L27.2857137,9.88571412 L29.9142851,9.88571412 L29.9142851,11.1999998 Z" id="Reset" fill="#D0D0D0"></path>
            <polygon id="Path" fill="#333333" points="4.94285706 5.93856893 4.94285706 3.30999756 2.31428569 3.30999756 2.31428569 5.93856893"></polygon>
        </g>
    </g>
</svg>