<?xml version="1.0" encoding="UTF-8"?>
<svg width="36px" height="36px" viewBox="0 0 36 36" version="1.1" xmlns="http://www.w3.org/2000/svg" xmlns:xlink="http://www.w3.org/1999/xlink">
            
            <path d="M18,24.75 C24.2307692,24.75 24.5,20.9962955 24.5,16.5 C24.5,15.5 23.8739048,12.5978311 23,10.0409503 C21.6614802,6.12469381 19.7950787,1.79507873 19.125,1.125 C18.5627816,0.562781588 17.4373426,0.562657373 16.875,1.125 C16.1980925,1.80190745 14.3330988,6.14444448 13,10.0409503 C12.1175283,12.620321 11.5,15.5042388 11.5,16.5 C11.5,21 11.7692308,24.75 18,24.75 Z" id="Tear" fill="#363636"></path>
            <path d="M18.0542156,23 C22.6207278,23 22.996287,21.5387352 22.996287,17.3885654 C22.996287,17.0608344 23.1086048,15.8533616 22.0977444,14.9004764 C21.0868839,13.9475913 20.1031219,14.0005294 18.0542156,14.0005294 C16.0053094,14.0005294 15.021721,13.9475913 14.0108605,14.9004764 C13,15.8533616 13,16.8171576 13,17.2826893 C13,21.432859 13.4877035,23 18.0542156,23 Z" id="Paint" fill="#4E4E4E"></path>
            <rect id="mark" fill="#DDDDDD" x="17.2125034" y="1.38461538" width="1.57499997" height="6.05250013" rx="0.787499987"></rect>
</svg>