<?xml version="1.0" encoding="UTF-8" standalone="no"?>
<!DOCTYPE svg PUBLIC "-//W3C//DTD SVG 1.1//EN" "http://www.w3.org/Graphics/SVG/1.1/DTD/svg11.dtd">
<svg width="14px" height="14px" version="1.1" xmlns="http://www.w3.org/2000/svg" xmlns:xlink="http://www.w3.org/1999/xlink" xml:space="preserve" xmlns:serif="http://www.serif.com/" style="fill-rule:evenodd;clip-rule:evenodd;stroke-linejoin:round;stroke-miterlimit:1.41421;">
    <g id="Zoom">
        <path d="M6.374,0.186C6.56,0.065 6.778,0 7,0C7.222,0 7.44,0.065 7.626,0.186L8.271,0.609L9.03,0.466C9.248,0.424 9.474,0.448 9.679,0.533C9.884,0.618 10.06,0.761 10.185,0.944L10.62,1.582L11.376,1.74C11.593,1.785 11.793,1.893 11.95,2.05C12.107,2.207 12.215,2.407 12.26,2.624L12.418,3.38L13.056,3.815C13.239,3.94 13.382,4.116 13.467,4.321C13.552,4.526 13.576,4.752 13.534,4.97L13.391,5.729L13.814,6.374C13.935,6.56 14,6.778 14,7C14,7.222 13.935,7.44 13.814,7.626L13.391,8.271L13.534,9.03C13.576,9.248 13.552,9.474 13.467,9.679C13.382,9.884 13.239,10.06 13.056,10.185L12.418,10.62L12.26,11.376C12.215,11.593 12.107,11.793 11.95,11.95C11.793,12.107 11.593,12.215 11.376,12.26L10.62,12.418L10.185,13.056C10.06,13.239 9.884,13.382 9.679,13.467C9.474,13.552 9.248,13.576 9.03,13.534L8.271,13.391L7.626,13.814C7.44,13.935 7.222,14 7,14C6.778,14 6.56,13.935 6.374,13.814L5.729,13.391L4.97,13.534C4.752,13.576 4.526,13.552 4.321,13.467C4.116,13.382 3.94,13.239 3.815,13.056L3.38,12.418L2.624,12.26C2.407,12.215 2.207,12.107 2.05,11.95C1.893,11.793 1.785,11.593 1.74,11.376L1.582,10.62L0.944,10.185C0.761,10.06 0.618,9.884 0.533,9.679C0.448,9.474 0.424,9.248 0.466,9.03L0.609,8.271L0.186,7.626C0.065,7.44 0,7.222 0,7C0,6.778 0.065,6.56 0.186,6.374L0.609,5.729L0.466,4.97C0.424,4.752 0.448,4.526 0.533,4.321C0.618,4.116 0.761,3.94 0.944,3.815L1.582,3.38L1.74,2.624C1.785,2.407 1.893,2.207 2.05,2.05C2.207,1.893 2.407,1.785 2.624,1.74L3.38,1.582L3.815,0.944C3.94,0.761 4.116,0.618 4.321,0.533C4.526,0.448 4.752,0.424 4.97,0.466L5.729,0.609L6.374,0.186Z" style="fill:#888;"/>
        <circle cx="7" cy="7" r="6.125" style="fill:#222;"/>
        <rect x="6.344" y="0.5" width="1.313" height="3.8" style="fill:#888;"/>
        <path d="M4.436,9.491L7.605,4.566L4.601,4.566L4.601,3.667L9.436,3.667L9.436,4.425L6.202,9.434L9.436,9.434L9.436,10.333L4.436,10.333L4.436,9.491Z" style="fill:#888;fill-rule:nonzero;"/>
    </g>
</svg>
