<?xml version="1.0" encoding="UTF-8" standalone="no"?>
<svg
   xmlns:osb="http://www.openswatchbook.org/uri/2009/osb"
   xmlns:dc="http://purl.org/dc/elements/1.1/"
   xmlns:cc="http://creativecommons.org/ns#"
   xmlns:rdf="http://www.w3.org/1999/02/22-rdf-syntax-ns#"
   xmlns:svg="http://www.w3.org/2000/svg"
   xmlns="http://www.w3.org/2000/svg"
   xmlns:sodipodi="http://sodipodi.sourceforge.net/DTD/sodipodi-0.dtd"
   xmlns:inkscape="http://www.inkscape.org/namespaces/inkscape"
   width="45"
   height="380"
   viewBox="0 0 11.90625 100.54166"
   version="1.1"
   id="svg12553"
   sodipodi:docname="FFILTR.svg"
   inkscape:version="0.92.3 (2405546, 2018-03-11)">
  <sodipodi:namedview
     pagecolor="#ffffff"
     bordercolor="#666666"
     borderopacity="1"
     objecttolerance="10"
     gridtolerance="10"
     guidetolerance="10"
     inkscape:pageopacity="0"
     inkscape:pageshadow="2"
     inkscape:window-width="1920"
     inkscape:window-height="1017"
     id="namedview40"
     showgrid="false"
     inkscape:zoom="4.968421"
     inkscape:cx="7.900623"
     inkscape:cy="308.67131"
     inkscape:window-x="-8"
     inkscape:window-y="-8"
     inkscape:window-maximized="1"
     inkscape:current-layer="svg12553" />
  <defs
     id="defs12547">
    <linearGradient
       osb:paint="solid"
       id="linearGradient4708">
      <stop
         id="stop4706"
         offset="0"
         style="stop-color:#ececec;stop-opacity:1;" />
    </linearGradient>
    <filter
       id="filter4696"
       style="color-interpolation-filters:sRGB">
      <feColorMatrix
         id="feColorMatrix4692"
         result="colormatrix"
         values="0 0 0 0 1 0 0 0 0 0 0 0 0 0 0 1 0 0 0 0 0 "
         in="SourceGraphic" />
      <feBlend
         id="feBlend4694"
         result="fbSourceGraphic"
         mode="multiply"
         in2="BackgroundImage" />
      <feColorMatrix
         id="feColorMatrix4762"
         values="0 0 0 -1 0 0 0 0 -1 0 0 0 0 -1 0 0 0 0 1 0"
         in="fbSourceGraphic"
         result="fbSourceGraphicAlpha" />
      <feColorMatrix
         in="fbSourceGraphic"
         result="colormatrix"
         values="1 0 0 0 0 0 1 0 0 0 0 0 1 0 0 0 0 0 5 -1 "
         id="feColorMatrix4764" />
      <feComposite
         k4="0"
         k3="0"
         k1="0"
         result="composite"
         k2="0.3"
         operator="arithmetic"
         id="feComposite4766"
         in2="colormatrix" />
    </filter>
  </defs>
  <metadata
     id="metadata12550">
    <rdf:RDF>
      <cc:Work
         rdf:about="">
        <dc:format>image/svg+xml</dc:format>
        <dc:type
           rdf:resource="http://purl.org/dc/dcmitype/StillImage" />
        <dc:title />
      </cc:Work>
    </rdf:RDF>
  </metadata>
  <g
     id="layer1"
     transform="matrix(0.10017048,0,0,1.0012215,-2.6856528,-161.56849)">
    <path
       id="path33453"
       d="M 26.616839,161.37987 H 145.85344 v 100.3961 H 26.616839 Z m 0,0"
       style="fill:#e6e6e6;fill-opacity:1;fill-rule:nonzero;stroke:none;stroke-width:0.32258889"
       inkscape:connector-curvature="0" />
  </g>
  <path
     style="opacity:0.05;fill:#000000;stroke-width:0.26163691"
     d="m -0.3391888,106.95966 c -1.8957398,-0.83645 -3.8247901,-1.4401 -5.5590097,-3.97271 0.6976287,-1.98452 -1.6295265,-2.7788 -0.5410475,-6.656945 0.2927931,0.619674 1.2154161,1.411899 1.3968908,0.879375 -0.1693794,-5.306873 0.8972162,-13.37467 1.2007166,-19.774364 1.2953209,-17.860968 2.5204204,-35.747964 3.9410048,-53.584427 0.83288406,-2.671766 -0.1212784,6.582857 -0.2080606,8.905902 -1.4648539,21.712384 -3.1153767,43.430045 -4.5027767,65.138658 0.8782803,-8.958361 1.3540727,-18.085066 2.0504437,-27.119313 C -1.4475609,55.063665 -0.271998,39.334013 0.70011932,23.63196 2.2138882,20.707162 0.64221362,32.421234 0.5289943,36.49394 -0.9850402,57.384433 -2.4928683,78.282023 -3.8591831,99.172752 -3.0023895,90.945327 -2.587647,82.499433 -1.9322397,74.174138 -0.7394359,57.306351 0.3540092,40.374796 1.6657486,23.549667 c -0.3691429,-2.806935 -1.9434067,-3.144468 -2.0178711,2.994918 -1.6510258,21.427606 -3.1131383,42.881726 -4.6818063,64.321509 -0.2263669,1.805092 -0.2087864,6.381597 -0.6907427,5.374168 -0.3469138,-3.801304 0.8079761,-10.775933 1.0124572,-15.799692 0.5397153,-6.337774 0.8913375,-12.763144 1.334734,-19.048443 0.6997177,-7.499723 1.0178428,-15.090859 1.5770593,-22.635454 0.3600041,-5.511148 0.7212584,-11.040906 1.2039718,-16.53552 0.7265368,-0.560122 -0.4665305,-3.973981 0.5233926,-3.09961 0.4458409,-1.383374 1.8403669,-2.004685 2.5920197,-1.720501 2.3451177,-1.937617 4.5048168,-0.77807 6.7780585,-1.448366 2.5742904,-0.594104 5.2824534,-2.013849 8.0096894,-7.80007 0.765841,-3.6120347 1.637284,-3.6716882 0.714609,1.911741 -0.584351,5.594587 -2.10622,4.861695 -2.518312,9.702616 -1.459407,20.670899 -3.061364,41.365761 -4.519499,62.051004 1.768808,-21.314367 3.253876,-42.695671 4.839331,-64.048455 1.391213,-3.012449 -0.148266,7.593399 -0.168803,11.03324 -1.188393,16.498649 -2.474887,32.98934 -3.607408,49.491923 0.816805,-8.239541 1.245368,-16.656888 2.070642,-24.891375 -0.423764,9.153128 -1.323721,18.40002 -1.78014,27.563273 0.809376,-7.037736 0.570059,5.176305 -0.04639,7.323309 -1.322919,8.569194 -3.3569237,11.750428 -5.0832225,14.502868 -2.3130424,3.14499 -4.5903518,4.39152 -6.7630247,4.46831 -0.2609935,-0.10323 -0.5186802,-0.24736 -0.7836826,-0.3014 z m -1.6563636,-6.69975 c -0.05612,-2.231823 -0.387673,1.10439 0,0 z m -0.9396694,-1.020593 c -0.031937,-1.943267 -0.3241872,2.124323 0,0 z M 1.3418436,82.738709 C 2.6774558,63.308932 4.1453958,43.871556 5.360704,24.448084 4.6392544,30.416965 4.4073808,36.763798 3.8962805,42.887923 2.5950612,61.233327 1.2399831,79.583738 0.0599242,97.926992 0.5139728,96.921549 0.84257971,88.350006 1.1990797,84.755362 l 0.071525,-1.008323 z m 0.9554326,2.513717 C 3.659394,65.027058 5.2349803,44.797554 6.5148263,24.575919 5.718269,31.534224 5.4227267,38.82876 4.8407546,45.927933 3.6108108,63.149469 2.3035397,80.385862 1.2663178,97.598505 1.8286907,94.463533 1.9393747,89.072369 2.2972762,85.252426 Z M 1.6784985,62.66452 C 2.496829,50.800683 3.3459085,38.934348 4.1129284,27.073099 2.3900521,50.282174 0.65178073,73.525839 -0.869667,96.730346 -0.6218369,96.582653 -0.1132863,87.478057 0.1719998,84.071378 0.68233911,76.936023 1.17984,69.800185 1.6785015,62.664521 Z M 5.1241537,61.812702 C 5.9889649,49.310377 6.887457,36.805353 7.6951843,24.305703 6.8654192,30.210132 6.7239441,36.720533 6.1684888,42.879156 4.8719033,61.080189 3.5668557,79.289023 2.4151399,97.484317 2.7106612,98.707556 3.0596548,89.460367 3.3497072,86.910089 3.9492509,78.544628 4.5381155,70.17863 5.1241577,61.812703 Z M 5.830707,67.934224 C 6.8678565,53.083756 7.9803989,38.221582 8.8741921,23.381232 6.9967033,48.322623 5.1512246,73.384678 3.6178719,98.27524 4.4088834,88.195288 5.0967208,78.039579 5.8307099,67.934224 Z M -1.9540894,86.356845 C -0.5123269,65.48104 1.0751173,44.600288 2.3997937,23.728625 1.4579164,34.267874 0.81519325,44.937087 0.0133503,55.53113 c -0.9421249,13.370253 -1.9572674,26.800903 -2.7223602,40.132729 0.3283471,-2.75635 0.5248582,-6.296312 0.7549185,-9.307014 z M 0.1421061,70.274994 C 1.2164339,54.786809 2.385124,39.290765 3.3419165,23.809005 2.4618663,33.794229 1.8565789,43.896006 1.0932779,53.928607 0.0497753,68.392306 -0.9909236,82.859132 -1.9530209,97.323583 -1.2599531,92.835465 -1.1793732,86.943791 -0.6884574,81.920094 -0.4093421,78.038525 -0.1327858,74.156766 0.1421002,70.274993 Z M 7.5496246,60.417726 C 8.3978743,48.110669 9.3057859,35.794736 10.050035,23.496487 8.8443987,37.159977 8.0250139,50.926111 6.9993399,64.636459 6.2425659,75.215434 5.4847922,85.80801 4.8758524,96.372034 5.6720617,88.284523 6.0991416,80.006922 6.7410127,71.844709 7.012156,68.035778 7.2814007,64.226756 7.5496236,60.417726 Z M 8.7226491,58.515735 C 9.5367992,46.648831 10.39463,34.777229 11.140119,22.915197 9.3552447,46.444945 7.6976921,69.991911 6.0804485,93.532966 6.4398016,93.817232 6.7038325,85.595403 7.0103764,82.856366 7.5881502,74.743035 8.1567368,66.629333 8.7226491,58.515735 Z m 0.891057,-0.648914 C 10.471635,45.781998 11.371709,33.695702 12.163328,21.610855 10.318472,45.632953 8.598605,69.693592 6.965847,93.725015 7.4258295,88.378951 7.8730571,81.639165 8.3173471,75.769202 8.7522696,69.801989 9.1827111,63.834349 9.613746,57.866823 Z M 10.629652,55.648319 C 11.424917,44.143511 12.33261,32.624244 12.99145,21.131315 11.34952,41.401328 10.016365,61.731604 8.5752633,82.030387 8.407923,84.527493 7.7348052,94.704616 8.2775823,87.564016 9.1178029,76.934221 9.8520344,66.287237 10.629649,55.648318 Z M 9.5881852,87.916866 c -0.155546,-2.658362 -0.2503571,2.162934 0,0 z M 12.13579,52.54746 C 12.925371,41.450365 13.74806,30.352702 14.486372,19.255003 12.781112,41.238409 11.170394,63.271986 9.6794942,85.262124 10.594569,74.456999 11.328227,63.431373 12.13578,52.547459 Z m -0.768161,30.454972 c -0.332227,1.462733 0.044,1.99096 0,0 z m 0.291781,0.670443 c -0.228709,-0.423241 -0.02376,2.751636 0,0 z m 1.250872,-33.565462 c 0.765277,-10.691444 1.632764,-21.389669 2.269639,-32.078625 -1.689096,20.709584 -3.067686,41.483318 -4.560932,62.223 -0.329743,4.884457 0.406284,-4.984305 0.55784,-6.909128 0.587881,-7.743511 1.153902,-15.490454 1.733444,-23.235248 z m 0.356482,8.430018 c 0.873469,-12.226935 1.84862,-24.443564 2.691881,-36.672877 -1.579847,18.728397 -2.868886,37.540249 -4.242523,56.310814 -0.153922,3.511362 0.441604,-5.065567 0.566419,-6.440547 0.335872,-4.397879 0.658318,-8.797971 0.984225,-13.19739 z m -3.195269,12.796575 c -0.2287098,-0.423237 -0.02376,2.751632 0,0 z M 4.3286062,24.467278 c -0.2287082,-0.423273 -0.023764,2.75165 0,0 z M -6.5543046,94.241295 c 0.2139518,-5.447559 1.2093174,-10.226917 1.209927,-15.032008 0.7110082,-5.684586 0.7950344,-12.103723 1.3149276,-17.801196 0.5018701,-5.711579 0.581391,-8.799387 1.0951589,-14.935604 0.5591642,-8.49164 0.9939858,-16.999573 1.6254145,-25.512784 0.9973609,2.04203 -0.5009823,11.118715 -0.5840663,16.100002 -1.372679,19.22643 -2.7617058,38.451825 -4.1419993,57.677771 -0.1799609,-0.07326 -0.4074781,0.182397 -0.5193584,-0.496181 z m -0.5449113,-1.648953 c -0.122332,-2.903634 1.1251623,-10.642765 1.0816028,-9.457253 -0.209252,2.230598 -0.343026,11.495297 -1.0816028,9.457253 z m -0.4866679,-1.07166 c -0.3901796,-2.158329 1.1239354,-8.825735 0.4455735,-2.669459 -0.1322751,0.827273 -0.1807175,4.762432 -0.4455735,2.669459 z m -0.5185819,-3.35013 c 0.6239916,-5.785158 0.4702317,4.063225 -0.039081,0.708688 0.013007,-0.236232 0.026014,-0.472462 0.039081,-0.708688 z m -0.3596356,0.27971 c 0.089762,-5.425329 0.8893888,-4.15603 0,0 z m -0.345234,-5.44142 c -0.1063,-3.590172 0.6327846,-0.359821 -0.06469,0.496921 z m 0.217413,-3.700082 c 0.2916214,-3.194875 0.264201,0.118336 0.01764,0.999505 l -0.01795,-0.106907 z m 3.1258549,-5.887098 c 0.493988,-4.430514 -0.1238628,3.470318 0,0 z m 0.3462959,-4.215634 c 0.4044376,-4.540253 0.2449645,-0.28399 -0.051765,1.188596 z m 1.6969961,-23.789602 c 0.3832907,-4.482735 -0.2480496,4.416735 0,0 z M 14.58496,46.677412 c 0.37839,-1.277861 0.05928,2.193416 0,0 z m 0.479198,-6.652882 c 0.454974,-4.561839 -0.09625,3.282429 -0.04543,0.846911 z M -2.9054939,38.11899 c 0.3836955,-3.636087 -0.1969437,3.258592 0,0 z m 0.1133354,-2.152386 c 0.6693067,-4.885992 0.1582456,-13.536426 1.270377,-16.036409 -0.035242,4.022776 -0.7050096,12.209718 -1.2703754,16.0364 z M 15.395229,35.428131 c 0.459353,-2.073916 -0.05325,2.904442 0,0 z m 0.312605,-3.914371 c 0.398654,-4.718162 -0.25519,4.47064 0,0 z m 0.266676,-4.004688 c 0.272043,-2.21089 -0.1365,2.739854 0,0 z M -2.6190944,24.641739 c -0.265767,-2.097521 0.6793587,-8.41124 0.334833,-2.712867 -0.029927,0.345895 -0.5125937,5.806311 -0.334833,2.712867 z M 16.181011,24.518756 c 0.482421,-3.707745 -0.123916,2.963241 0,0 z m 0.296886,-3.340352 c 0.232683,-2.464311 0.15939,2.412487 0,0 z M -2.8622153,18.845279 c 0.075896,-3.275492 0.2964125,2.801892 0,0 z m 1.6218213,0.598485 c 0.8442563,-1.943419 0.503478,2.033646 0,0 z m 18.010971,-1.300403 c 0.3837,-3.636145 -0.196946,3.258614 0,0 z M 2.8968914,14.362433 C 1.3680742,12.915763 -0.3131912,12.32316 -1.4493313,7.7085032 -0.9784086,6.7381871 0.0209058,10.22454 0.76385471,10.522065 3.4295141,13.518288 6.4152842,12.964091 9.3236807,13.002909 10.646218,13.90225 10.113422,6.8359399 10.636395,2.4926363 10.903935,-2.443167 10.284064,7.2245293 10.086291,9.1351268 9.4454551,15.971843 9.3148757,7.4219718 9.8374724,4.3389057 10.039535,0.3142646 9.458088,9.275882 9.2844435,10.551051 8.0293504,15.975844 9.4497912,3.9222502 9.2358562,1.5204543 8.7583027,4.2358232 8.725236,13.365554 8.008728,11.536821 8.0137022,8.5618589 8.6241891,1.4033732 8.5736604,0.90600887 8.2214787,4.113694 8.0519557,11.830435 7.4139432,11.940564 7.1754556,10.004622 8.3669033,0.68967189 7.6899441,3.2099249 7.5849259,5.4212502 7.0314214,14.447309 6.7858308,10.91591 6.9717439,8.5292579 7.4537442,-0.91479353 6.9796155,5.4758043 6.9665194,7.6108584 6.1335287,15.323234 6.1954447,9.959684 6.3725461,6.9742069 6.9162082,-1.1264092 6.3869364,6.1969052 6.3559894,9.6544903 5.3296004,15.339226 5.6547118,9.1126988 5.8886473,6.5743502 6.244502,0.84228294 5.7910495,6.5481208 5.5920243,10.443329 5.1312117,13.695308 4.4185955,11.908838 2.6987906,11.191086 0.92505384,10.398732 -0.472658,6.7486445 -1.0763503,1.1603998 1.1825457,-1.965417 2.0210119,-2.5643061 5.2322252,-6.2195522 8.3092099,-6.2301978 11.2125,-4.7685928 c 0.90689,1.7831317 1.981797,2.4415889 2.748506,5.17185011 0.454821,1.85271889 1.7477,3.09082659 0.726329,7.32029979 0.378584,-4.7925184 -0.04943,-1.1221155 -0.385112,0.7823975 0.03712,-3.0219659 0.280606,-5.5636672 -0.287091,-0.6305637 -0.601759,3.0003741 0.442947,-9.2347763 -0.260897,-1.1762479 -0.892208,7.149268 0.201131,-8.2087628 -0.467011,-1.1812536 -0.109903,2.6357452 -0.797463,6.3847906 -0.434955,1.4520931 0.253358,-2.4744963 0.193273,-6.53173392 -0.12446,-1.6882632 -0.01821,3.267385 -0.820043,6.6285387 -0.439624,1.5512669 0.111777,-1.9549473 0.486585,-8.088792 0.08322,-2.5586783 -0.01157,2.439299 -0.917227,10.0258801 -0.803836,4.4015536 0.261623,-2.652697 0.628049,-10.1557008 0.08611,-3.4112741 -0.09531,2.3728942 -0.969104,9.0237196 -0.687036,3.0385553 0.133556,-2.517475 0.438358,-7.72558317 0.04504,-2.3476864 -0.268451,3.4717249 -0.811493,8.0994697 0.275132,5.9909497 1.840685,-1.032319 3.76458,-2.6112751 5.668005,-7.3490359 0.392984,-3.3537261 1.255227,-5.2202327 0.766822,-0.3621083 -1.095237,6.4176012 -2.674263,6.3194602 -3.968813,8.3218142 -3.666544,3.406043 -7.171231,3.219602 -10.5533222,2.002075 L 3.0478244,14.46502 Z M 5.2242475,7.3792942 c -0.3728737,2.3975984 -0.1851698,4.3690428 0,0 z M 15.127241,6.3271477 c 1.081081,-5.0415911 -0.02374,3.8077313 0,0 z M -2.4587181,3.5366555 c 0.3418905,-3.6092512 1.1648487,-3.77401068 0.2595295,-0.4384177 -0.044765,0.2902109 -0.3958808,1.8640096 -0.2595295,0.4384177 z m 1.0171618,-0.5487647 c 0.4453126,-7.3101984 2.24751152,-7.6256543 3.3226758,-9.2147321 3.0980891,-2.9444123 6.0050889,-2.1733091 8.9454175,-2.3577856 0.931464,0.6752252 -1.0224551,0.8653725 -1.3700537,1.0569832 -2.7051349,0.6495122 -5.4161696,0.8755411 -8.2657214,4.6595987 -0.8832218,0.7404485 -1.7733761,3.41392896 -2.6323182,5.8559358 z"
     id="path872"
     inkscape:connector-curvature="0" />
  <g
     id="text977"
     style="font-style:normal;font-variant:normal;font-weight:normal;font-stretch:normal;font-size:4.23333311px;line-height:125%;font-family:'DejaVu Sans Mono';-inkscape-font-specification:'DejaVu Sans Mono, Normal';font-variant-ligatures:normal;font-variant-caps:normal;font-variant-numeric:normal;font-feature-settings:normal;text-align:start;letter-spacing:0px;word-spacing:0px;writing-mode:lr-tb;text-anchor:start;fill:#000000;fill-opacity:1;stroke:none;stroke-width:0.26458332px;stroke-linecap:butt;stroke-linejoin:miter;stroke-opacity:1"
     aria-label="bId°°"
     transform="rotate(-33.559234,7.2444772,124.26948)">
    <path
       id="path877"
       style="font-style:normal;font-variant:normal;font-weight:normal;font-stretch:normal;font-size:4.23333311px;font-family:'DejaVu Sans Mono';-inkscape-font-specification:'DejaVu Sans Mono, Normal';font-variant-ligatures:normal;font-variant-caps:normal;font-variant-numeric:normal;font-feature-settings:normal;text-align:start;writing-mode:lr-tb;text-anchor:start;stroke-width:0.26458332px"
       d="m 19.719656,97.809389 q 0,-0.44235 -0.14056,-0.667659 -0.14056,-0.225309 -0.415478,-0.225309 -0.276986,0 -0.419613,0.227376 -0.142627,0.225309 -0.142627,0.665592 0,0.438216 0.142627,0.665593 0.142627,0.227376 0.419613,0.227376 0.274918,0 0.415478,-0.225309 0.14056,-0.225309 0.14056,-0.66766 z m -1.118278,-0.86403 q 0.09095,-0.169498 0.250114,-0.260449 0.161231,-0.09095 0.372071,-0.09095 0.417545,0 0.657324,0.322461 0.239778,0.320393 0.239778,0.8847 0,0.572575 -0.241845,0.89917 -0.239779,0.324528 -0.659392,0.324528 -0.206705,0 -0.365869,-0.08888 -0.157096,-0.09095 -0.252181,-0.262516 v 0.291455 H 18.22104 v -3.216341 h 0.380338 z"
       inkscape:connector-curvature="0" />
    <path
       id="path879"
       style="font-style:normal;font-variant:normal;font-weight:normal;font-stretch:normal;font-size:4.23333311px;font-family:'DejaVu Sans Mono';-inkscape-font-specification:'DejaVu Sans Mono, Normal';font-variant-ligatures:normal;font-variant-caps:normal;font-variant-numeric:normal;font-feature-settings:normal;text-align:start;writing-mode:lr-tb;text-anchor:start;stroke-width:0.26458332px"
       d="m 20.784191,95.878758 h 1.71359 v 0.3514 h -0.646989 v 2.383317 h 0.646989 v 0.351399 h -1.71359 v -0.351399 h 0.646989 v -2.383317 h -0.646989 z"
       inkscape:connector-curvature="0" />
    <path
       id="path881"
       style="font-style:normal;font-variant:normal;font-weight:normal;font-stretch:normal;font-size:4.23333311px;font-family:'DejaVu Sans Mono';-inkscape-font-specification:'DejaVu Sans Mono, Normal';font-variant-ligatures:normal;font-variant-caps:normal;font-variant-numeric:normal;font-feature-settings:normal;text-align:start;writing-mode:lr-tb;text-anchor:start;stroke-width:0.26458332px"
       d="M 24.688862,96.945359 V 95.748533 H 25.0692 v 3.216341 h -0.380338 v -0.291455 q -0.09509,0.171566 -0.254248,0.262516 -0.157097,0.08888 -0.363802,0.08888 -0.419613,0 -0.661459,-0.324528 -0.239778,-0.326595 -0.239778,-0.89917 0,-0.564307 0.241845,-0.8847 0.241846,-0.322461 0.659392,-0.322461 0.208772,0 0.367936,0.09095 0.159163,0.08888 0.250114,0.260449 z m -1.118278,0.86403 q 0,0.442351 0.14056,0.66766 0.140559,0.225309 0.415478,0.225309 0.274919,0 0.417546,-0.227376 0.144694,-0.227377 0.144694,-0.665593 0,-0.440283 -0.144694,-0.665592 -0.142627,-0.227376 -0.417546,-0.227376 -0.274919,0 -0.415478,0.225309 -0.14056,0.225309 -0.14056,0.667659 z"
       inkscape:connector-curvature="0" />
    <path
       id="path883"
       style="font-style:normal;font-variant:normal;font-weight:normal;font-stretch:normal;font-size:4.23333311px;font-family:'DejaVu Sans Mono';-inkscape-font-specification:'DejaVu Sans Mono, Normal';font-variant-ligatures:normal;font-variant-caps:normal;font-variant-numeric:normal;font-feature-settings:normal;text-align:start;writing-mode:lr-tb;text-anchor:start;stroke-width:0.26458332px"
       d="m 26.735248,95.822947 q 0.134359,0 0.254248,0.05168 0.121956,0.04961 0.212907,0.144694 0.09302,0.09302 0.14056,0.21084 0.04961,0.117822 0.04961,0.254248 0,0.272851 -0.192236,0.46302 -0.192236,0.188103 -0.469222,0.188103 -0.279053,0 -0.465088,-0.186035 -0.186035,-0.186036 -0.186035,-0.465088 0,-0.276986 0.190169,-0.469222 0.190169,-0.192237 0.465088,-0.192237 z m 0,0.266651 q -0.163298,0 -0.279053,0.115755 -0.113688,0.113688 -0.113688,0.279053 0,0.165364 0.111621,0.276985 0.113688,0.111621 0.276986,0.111621 0.165364,0 0.28112,-0.113688 0.117822,-0.113688 0.117822,-0.274918 0,-0.163298 -0.115755,-0.279053 -0.115755,-0.115755 -0.279053,-0.115755 z"
       inkscape:connector-curvature="0" />
    <path
       id="path885"
       style="font-style:normal;font-variant:normal;font-weight:normal;font-stretch:normal;font-size:4.23333311px;font-family:'DejaVu Sans Mono';-inkscape-font-specification:'DejaVu Sans Mono, Normal';font-variant-ligatures:normal;font-variant-caps:normal;font-variant-numeric:normal;font-feature-settings:normal;text-align:start;writing-mode:lr-tb;text-anchor:start;stroke-width:0.26458332px"
       d="m 29.281863,95.822947 q 0.134358,0 0.254248,0.05168 0.121956,0.04961 0.212907,0.144694 0.09302,0.09302 0.140559,0.21084 0.04961,0.117822 0.04961,0.254248 0,0.272851 -0.192236,0.46302 -0.192237,0.188103 -0.469222,0.188103 -0.279053,0 -0.465088,-0.186035 -0.186035,-0.186036 -0.186035,-0.465088 0,-0.276986 0.190169,-0.469222 0.190169,-0.192237 0.465088,-0.192237 z m 0,0.266651 q -0.163298,0 -0.279053,0.115755 -0.113688,0.113688 -0.113688,0.279053 0,0.165364 0.111621,0.276985 0.113688,0.111621 0.276986,0.111621 0.165364,0 0.281119,-0.113688 0.117823,-0.113688 0.117823,-0.274918 0,-0.163298 -0.115756,-0.279053 -0.115755,-0.115755 -0.279052,-0.115755 z"
       inkscape:connector-curvature="0" />
  </g>
  <g
     id="text4860"
     style="font-style:normal;font-variant:normal;font-weight:normal;font-stretch:normal;font-size:2.82222223px;line-height:125%;font-family:Sudo;-inkscape-font-specification:'Sudo, Normal';font-variant-ligatures:normal;font-variant-caps:normal;font-variant-numeric:normal;font-feature-settings:normal;text-align:start;letter-spacing:0px;word-spacing:0px;writing-mode:lr-tb;text-anchor:start;fill:#000000;fill-opacity:1;stroke:none;stroke-width:0.26458332px;stroke-linecap:butt;stroke-linejoin:miter;stroke-opacity:1" />
  <g
     id="flowRoot1009"
     style="font-style:normal;font-variant:normal;font-weight:normal;font-stretch:normal;font-size:10.66666698px;line-height:125%;font-family:Sudo;-inkscape-font-specification:'Sudo, Normal';font-variant-ligatures:normal;font-variant-caps:normal;font-variant-numeric:normal;font-feature-settings:normal;text-align:start;letter-spacing:0px;word-spacing:0px;writing-mode:lr-tb;text-anchor:start;fill:#000000;fill-opacity:1;stroke:none;stroke-width:1px;stroke-linecap:butt;stroke-linejoin:miter;stroke-opacity:1" />
  <path
     style="opacity:1;fill:#cd1f00;fill-opacity:1;fill-rule:evenodd;stroke:#cd1f00;stroke-width:0.72085714;stroke-linecap:butt;stroke-linejoin:round;stroke-miterlimit:4;stroke-dasharray:none;stroke-dashoffset:0;stroke-opacity:1"
     d="m 3.5257539,75.70208 h 4.702995 c 0.6299043,0 1.1370114,0.507107 1.1370114,1.137011 v 8.103004 c 0,0.629904 -0.5071071,1.137011 -1.1370114,1.137011 h -4.702995 c -0.6299044,0 -1.1370115,-0.507107 -1.1370115,-1.137011 v -8.103004 c 0,-0.629904 0.5071071,-1.137011 1.1370115,-1.137011 z"
     id="rect998" />
  <g
     aria-label="OUT"
     style="font-style:normal;font-variant:normal;font-weight:normal;font-stretch:normal;font-size:2.82222223px;line-height:125%;font-family:'DejaVu Sans Mono';-inkscape-font-specification:'DejaVu Sans Mono, Normal';font-variant-ligatures:normal;font-variant-caps:normal;font-variant-numeric:normal;font-feature-settings:normal;text-align:start;letter-spacing:0px;word-spacing:0px;writing-mode:lr-tb;text-anchor:start;fill:#000000;fill-opacity:1;stroke:#ffffff;stroke-width:0.13229166;stroke-linecap:butt;stroke-linejoin:miter;stroke-miterlimit:4;stroke-dasharray:none;stroke-opacity:1"
     id="text1002">
    <path
       d="m 4.5288409,77.391513 q 0,-0.453374 -0.093707,-0.647678 -0.092328,-0.194303 -0.3045464,-0.194303 -0.2108399,0 -0.3045465,0.194303 -0.092328,0.194304 -0.092328,0.647678 0,0.451997 0.092328,0.6463 0.093707,0.194304 0.3045465,0.194304 0.2122179,0 0.3045464,-0.192926 0.093707,-0.194303 0.093707,-0.647678 z m 0.2907661,0 q 0,0.537435 -0.1708768,0.802019 -0.1694987,0.264583 -0.5181423,0.264583 -0.3486437,0 -0.5181424,-0.263205 -0.1694987,-0.263206 -0.1694987,-0.803397 0,-0.538813 0.1694987,-0.803396 0.1708768,-0.264583 0.5181424,-0.264583 0.3486436,0 0.5181423,0.264583 0.1708768,0.264583 0.1708768,0.803396 z"
       style="font-style:normal;font-variant:normal;font-weight:normal;font-stretch:normal;font-size:2.82222223px;font-family:'DejaVu Sans Mono';-inkscape-font-specification:'DejaVu Sans Mono, Normal';font-variant-ligatures:normal;font-variant-caps:normal;font-variant-numeric:normal;font-feature-settings:normal;text-align:start;writing-mode:lr-tb;text-anchor:start;fill:#ffffff;fill-opacity:1;stroke:#ffffff;stroke-width:0.13229166;stroke-miterlimit:4;stroke-dasharray:none;stroke-opacity:1"
       id="path907"
       inkscape:connector-curvature="0" />
    <path
       d="m 5.182031,77.628536 v -1.267795 h 0.2797418 v 1.394574 q 0,0.150207 0.00827,0.214974 0.00827,0.06339 0.028939,0.09784 0.044097,0.0813 0.1267795,0.122646 0.08406,0.04134 0.2025716,0.04134 0.1198894,0 0.2025717,-0.04134 0.082682,-0.04134 0.1281575,-0.122646 0.020671,-0.03445 0.028939,-0.09784 0.00827,-0.06339 0.00827,-0.212217 v -1.397331 h 0.2783638 v 1.267795 q 0,0.315571 -0.039963,0.44924 -0.038585,0.132292 -0.1350477,0.219108 -0.09095,0.08131 -0.2080838,0.121268 -0.1171332,0.03996 -0.2632053,0.03996 -0.144694,0 -0.2618272,-0.03996 -0.1171375,-0.03996 -0.209466,-0.121268 -0.095085,-0.08544 -0.1350478,-0.220486 -0.039963,-0.136425 -0.039963,-0.447862 z"
       style="font-style:normal;font-variant:normal;font-weight:normal;font-stretch:normal;font-size:2.82222223px;font-family:'DejaVu Sans Mono';-inkscape-font-specification:'DejaVu Sans Mono, Normal';font-variant-ligatures:normal;font-variant-caps:normal;font-variant-numeric:normal;font-feature-settings:normal;text-align:start;writing-mode:lr-tb;text-anchor:start;fill:#ffffff;fill-opacity:1;stroke:#ffffff;stroke-width:0.13229166;stroke-miterlimit:4;stroke-dasharray:none;stroke-opacity:1"
       id="path909"
       inkscape:connector-curvature="0" />
    <path
       d="m 6.7419703,76.360741 h 1.5695855 v 0.234266 H 7.6680119 v 1.823145 H 7.3882702 V 76.595007 H 6.7419703 Z"
       style="font-style:normal;font-variant:normal;font-weight:normal;font-stretch:normal;font-size:2.82222223px;font-family:'DejaVu Sans Mono';-inkscape-font-specification:'DejaVu Sans Mono, Normal';font-variant-ligatures:normal;font-variant-caps:normal;font-variant-numeric:normal;font-feature-settings:normal;text-align:start;writing-mode:lr-tb;text-anchor:start;fill:#ffffff;fill-opacity:1;stroke:#ffffff;stroke-width:0.13229166;stroke-miterlimit:4;stroke-dasharray:none;stroke-opacity:1"
       id="path911"
       inkscape:connector-curvature="0" />
  </g>
  <path
     style="opacity:1;fill:#000000;fill-opacity:1;fill-rule:evenodd;stroke:#000500;stroke-width:0.72085714;stroke-linecap:butt;stroke-linejoin:round;stroke-miterlimit:4;stroke-dasharray:none;stroke-dashoffset:0;stroke-opacity:1"
     d="m 3.5257539,60.919752 h 4.702995 c 0.6299043,0 1.1370114,0.507107 1.1370114,1.137011 v 8.103004 c 0,0.629904 -0.5071071,1.137011 -1.1370114,1.137011 h -4.702995 c -0.6299044,0 -1.1370115,-0.507107 -1.1370115,-1.137011 v -8.103004 c 0,-0.629904 0.5071071,-1.137011 1.1370115,-1.137011 z"
     id="rect998-1" />
  <g
     transform="translate(0,-0.15062223)"
     aria-label="IN"
     style="font-style:normal;font-variant:normal;font-weight:normal;font-stretch:normal;font-size:2.82222223px;line-height:125%;font-family:'DejaVu Sans Mono';-inkscape-font-specification:'DejaVu Sans Mono, Normal';font-variant-ligatures:normal;font-variant-caps:normal;font-variant-numeric:normal;font-feature-settings:normal;text-align:start;letter-spacing:0px;word-spacing:0px;writing-mode:lr-tb;text-anchor:start;fill:#000000;fill-opacity:1;stroke:#ffffff;stroke-width:0.13229166;stroke-linecap:butt;stroke-linejoin:miter;stroke-miterlimit:4;stroke-dasharray:none;stroke-opacity:1"
     id="text1002-0">
    <path
       d="m 4.413086,61.729057 h 1.1423936 v 0.234267 H 5.1241537 v 1.588878 h 0.4313259 v 0.234267 H 4.413086 V 63.552202 H 4.8444119 V 61.963324 H 4.413086 Z"
       style="font-style:normal;font-variant:normal;font-weight:normal;font-stretch:normal;font-size:2.82222223px;font-family:'DejaVu Sans Mono';-inkscape-font-specification:'DejaVu Sans Mono, Normal';font-variant-ligatures:normal;font-variant-caps:normal;font-variant-numeric:normal;font-feature-settings:normal;text-align:start;writing-mode:lr-tb;text-anchor:start;fill:#ffffff;fill-opacity:1;stroke:#ffffff;stroke-width:0.13229166;stroke-miterlimit:4;stroke-dasharray:none;stroke-opacity:1"
       id="path915"
       inkscape:connector-curvature="0" />
    <path
       d="m 6.0253907,61.729057 h 0.3527777 l 0.6945313,1.693609 v -1.693609 h 0.2687174 v 2.057412 H 6.9886394 L 6.2941081,62.09286 v 1.693609 H 6.0253907 Z"
       style="font-style:normal;font-variant:normal;font-weight:normal;font-stretch:normal;font-size:2.82222223px;font-family:'DejaVu Sans Mono';-inkscape-font-specification:'DejaVu Sans Mono, Normal';font-variant-ligatures:normal;font-variant-caps:normal;font-variant-numeric:normal;font-feature-settings:normal;text-align:start;writing-mode:lr-tb;text-anchor:start;fill:#ffffff;fill-opacity:1;stroke:#ffffff;stroke-width:0.13229166;stroke-miterlimit:4;stroke-dasharray:none;stroke-opacity:1"
       id="path917"
       inkscape:connector-curvature="0" />
  </g>
  <path
     id="path860"
     d="m 5.9531248,43.401195 c 0,-12.780721 0,-12.780721 0,-12.780721"
     style="fill:none;fill-rule:evenodd;stroke:#000000;stroke-width:0.26458332px;stroke-linecap:butt;stroke-linejoin:miter;stroke-opacity:1" />
  <g
     aria-label="F
F
i
l
T
r"
     style="font-style:normal;font-variant:normal;font-weight:normal;font-stretch:normal;font-size:2.82222223px;line-height:125%;font-family:'DejaVu Sans Mono';-inkscape-font-specification:'DejaVu Sans Mono, Normal';font-variant-ligatures:normal;font-variant-caps:normal;font-variant-numeric:normal;font-feature-settings:normal;text-align:start;letter-spacing:0px;word-spacing:0px;writing-mode:lr-tb;text-anchor:start;fill:#000000;fill-opacity:1;stroke:none;stroke-width:0.26458332px;stroke-linecap:butt;stroke-linejoin:miter;stroke-opacity:1"
     id="text850">
    <path
       d="M 5.2925279,2.1111358 H 6.8066473 V 2.4039689 H 5.6422051 v 0.757921 H 6.6981268 V 3.454723 H 5.6422051 V 4.6828995 H 5.2925279 Z"
       style="font-style:normal;font-variant:normal;font-weight:normal;font-stretch:normal;font-size:3.52777767px;font-family:'DejaVu Sans Mono';-inkscape-font-specification:'DejaVu Sans Mono, Normal';font-variant-ligatures:normal;font-variant-caps:normal;font-variant-numeric:normal;font-feature-settings:normal;text-align:start;writing-mode:lr-tb;text-anchor:start;stroke-width:0.26458332px"
       id="path862"
       inkscape:connector-curvature="0" />
    <path
       d="M 5.2925279,5.8221926 H 6.8066473 V 6.1150257 H 5.6422051 V 6.8729466 H 6.6981268 V 7.1657798 H 5.6422051 V 8.3939563 H 5.2925279 Z"
       style="font-style:normal;font-variant:normal;font-weight:normal;font-stretch:normal;font-size:3.52777767px;font-family:'DejaVu Sans Mono';-inkscape-font-specification:'DejaVu Sans Mono, Normal';font-variant-ligatures:normal;font-variant-caps:normal;font-variant-numeric:normal;font-feature-settings:normal;text-align:start;writing-mode:lr-tb;text-anchor:start;stroke-width:0.26458332px"
       id="path864"
       inkscape:connector-curvature="0" />
    <path
       d="m 5.3321465,10.17576 h 0.81132 v 1.682929 h 0.6287299 v 0.246324 H 5.1977878 V 11.858689 H 5.8265177 V 10.422084 H 5.3321465 Z M 5.8265177,9.4247288 H 6.1434665 V 9.8260824 H 5.8265177 Z"
       style="font-style:normal;font-variant:normal;font-weight:normal;font-stretch:normal;font-size:3.52777767px;font-family:'DejaVu Sans Mono';-inkscape-font-specification:'DejaVu Sans Mono, Normal';font-variant-ligatures:normal;font-variant-caps:normal;font-variant-numeric:normal;font-feature-settings:normal;text-align:start;writing-mode:lr-tb;text-anchor:start;stroke-width:0.26458332px"
       id="path866"
       inkscape:connector-curvature="0" />
    <path
       d="m 5.9918823,15.116715 q 0,0.213596 0.077515,0.322117 0.079237,0.10852 0.232544,0.10852 H 6.6722886 V 15.81607 H 6.270935 q -0.2842204,0 -0.4409722,-0.18259 Q 5.6749335,15.45089 5.6749335,15.116715 V 13.364884 H 5.1667819 v -0.248046 h 0.8251004 z"
       style="font-style:normal;font-variant:normal;font-weight:normal;font-stretch:normal;font-size:3.52777767px;font-family:'DejaVu Sans Mono';-inkscape-font-specification:'DejaVu Sans Mono, Normal';font-variant-ligatures:normal;font-variant-caps:normal;font-variant-numeric:normal;font-feature-settings:normal;text-align:start;writing-mode:lr-tb;text-anchor:start;stroke-width:0.26458332px"
       id="path868"
       inkscape:connector-curvature="0" />
    <path
       d="m 4.9721341,16.955363 h 1.9619818 v 0.292833 H 6.1296861 v 2.278931 H 5.7800089 V 17.248196 H 4.9721341 Z"
       style="font-style:normal;font-variant:normal;font-weight:normal;font-stretch:normal;font-size:3.52777767px;font-family:'DejaVu Sans Mono';-inkscape-font-specification:'DejaVu Sans Mono, Normal';font-variant-ligatures:normal;font-variant-caps:normal;font-variant-numeric:normal;font-feature-settings:normal;text-align:start;writing-mode:lr-tb;text-anchor:start;stroke-width:0.26458332px"
       id="path870"
       inkscape:connector-curvature="0" />
    <path
       d="m 6.8807169,21.706838 q -0.1016303,-0.07924 -0.2067057,-0.11541 -0.1050754,-0.03617 -0.2308214,-0.03617 -0.2962782,0 -0.4530301,0.186035 -0.1567518,0.186036 -0.1567518,0.537435 v 0.959459 H 5.5147366 V 21.30893 h 0.3186713 v 0.377238 q 0.079237,-0.204983 0.2428792,-0.313504 0.1653646,-0.110243 0.3910184,-0.110243 0.1171332,0 0.2187635,0.02928 0.1016303,0.02928 0.1946479,0.0913 z"
       style="font-style:normal;font-variant:normal;font-weight:normal;font-stretch:normal;font-size:3.52777767px;font-family:'DejaVu Sans Mono';-inkscape-font-specification:'DejaVu Sans Mono, Normal';font-variant-ligatures:normal;font-variant-caps:normal;font-variant-numeric:normal;font-feature-settings:normal;text-align:start;writing-mode:lr-tb;text-anchor:start;stroke-width:0.26458332px"
       id="path873"
       inkscape:connector-curvature="0" />
  </g>
</svg>
