<?xml version="1.0" encoding="UTF-8" standalone="no"?>
<svg
   xmlns:osb="http://www.openswatchbook.org/uri/2009/osb"
   xmlns:dc="http://purl.org/dc/elements/1.1/"
   xmlns:cc="http://creativecommons.org/ns#"
   xmlns:rdf="http://www.w3.org/1999/02/22-rdf-syntax-ns#"
   xmlns:svg="http://www.w3.org/2000/svg"
   xmlns="http://www.w3.org/2000/svg"
   width="45"
   height="380"
   viewBox="0 0 11.90625 100.54166"
   version="1.1"
   id="svg12553">
  <defs
     id="defs12547">
    <linearGradient
       osb:paint="solid"
       id="linearGradient4708">
      <stop
         id="stop4706"
         offset="0"
         style="stop-color:#ececec;stop-opacity:1;" />
    </linearGradient>
    <filter
       id="filter4696"
       style="color-interpolation-filters:sRGB">
      <feColorMatrix
         id="feColorMatrix4692"
         result="colormatrix"
         values="0 0 0 0 1 0 0 0 0 0 0 0 0 0 0 1 0 0 0 0 0 "
         in="SourceGraphic" />
      <feBlend
         id="feBlend4694"
         result="fbSourceGraphic"
         mode="multiply"
         in2="BackgroundImage" />
      <feColorMatrix
         id="feColorMatrix4762"
         values="0 0 0 -1 0 0 0 0 -1 0 0 0 0 -1 0 0 0 0 1 0"
         in="fbSourceGraphic"
         result="fbSourceGraphicAlpha" />
      <feColorMatrix
         in="fbSourceGraphic"
         result="colormatrix"
         values="1 0 0 0 0 0 1 0 0 0 0 0 1 0 0 0 0 0 5 -1 "
         id="feColorMatrix4764" />
      <feComposite
         k4="0"
         k3="0"
         k1="0"
         result="composite"
         k2="0.3"
         operator="arithmetic"
         id="feComposite4766"
         in2="colormatrix" />
    </filter>
  </defs>
  <metadata
     id="metadata12550">
    <rdf:RDF>
      <cc:Work
         rdf:about="">
        <dc:format>image/svg+xml</dc:format>
        <dc:type
           rdf:resource="http://purl.org/dc/dcmitype/StillImage" />
        <dc:title></dc:title>
      </cc:Work>
    </rdf:RDF>
  </metadata>
  <g
     id="layer1"
     transform="matrix(0.10017048,0,0,1.0012215,-2.6856528,-161.56849)">
    <path
       id="path33453"
       d="M 26.616839,161.37987 H 145.85344 v 100.3961 H 26.616839 Z m 0,0"
       style="fill:#e6e6e6;fill-opacity:1;fill-rule:nonzero;stroke:none;stroke-width:0.32258889" />
  </g>
  <path
     style="opacity:0.08999999;fill:#000000;stroke-width:0.10269969"
     d="m 11.818592,1.3824694 c -0.427116,2.0338682 -0.112453,4.2242937 1.655048,3.1855345 2.250278,3.2910913 0.05664,8.0027501 0.606823,11.9059481 -0.202679,5.023576 -1.092185,9.977844 -2.438734,14.718778 -0.81769,3.571821 -1.467772,7.185575 -1.478854,10.908519 C 9.5539694,51.765954 8.5913152,61.397455 7.3041919,70.964695 7.007337,67.797789 8.2763476,60.837822 7.9086296,60.167138 7.5762921,61.99695 6.5220323,66.361533 7.0345532,61.931095 c 0.00299,-3.59173 0.6599662,-7.051514 1.3389574,-10.49525 -0.311831,-2.863828 -0.408867,2.975951 -0.8389084,3.775363 -1.3430574,3.020026 -0.3452356,-3.262682 -0.058978,-4.329396 0.45942,-4.44629 0.520612,-8.646758 1.0316746,-12.939384 C 7.3330301,40.380751 5.7559111,45.09958 6.2383058,48.736452 7.0575827,56.550568 5.3826394,64.292448 4.8666829,72.05922 4.3597187,75.212813 4.7631687,78.191581 5.2827936,81.211084 4.4316019,84.732221 2.890856,87.851483 2.7807766,91.743086 1.9683916,94.223077 2.1876108,98.681577 1.841026,100.15451 1.9033174,99.374613 1.9500165,94.472461 1.6513944,95.679184 2.0319955,97.406356 0.79068315,103.06552 1.5175665,98.457859 1.7567407,95.863547 0.68281165,93.166014 2.496991,92.25382 3.4860725,88.930869 3.0151012,85.213389 3.7654949,81.924035 5.764065,84.557319 4.8197807,78.249775 4.0757404,76.791596 3.4872822,73.206633 3.9416531,69.467644 4.0118644,65.837413 3.8947568,63.952095 4.0474921,58.078877 5.296252,59.204906 5.1773195,63.803972 4.5241615,68.365731 4.4673459,72.951231 4.2991646,74.48722 4.3926875,76.704275 4.6021733,73.793852 5.1909864,64.735725 6.8527802,55.717743 6.0439235,46.593874 4.8181423,41.965916 8.8367142,39.352253 8.6077672,34.670567 9.1364858,32.178374 8.2863596,27.818554 7.4201,30.207905 7.7339051,28.276117 6.0927069,24.615914 5.7255763,28.479749 5.7180593,30.173413 5.3803887,32.634148 5.5011904,29.500769 5.9698715,27.186789 4.3884878,26.742684 4.6177713,29.237612 4.5036375,31.989248 4.471273,37.229723 3.7849106,38.365213 3.6446353,36.377918 4.0042832,31.843167 3.7838226,31.424642 3.6781325,33.507125 3.6261629,38.217783 3.1021247,38.641832 2.9767175,36.722244 3.9424916,31.579002 2.8682901,31.918563 1.3628637,36.194272 3.2912113,40.81258 2.8242374,45.267187 2.7942332,47.412113 2.4123788,52.810848 2.6968541,52.885208 3.0416837,49.755946 2.8637693,46.54573 3.5230254,43.469215 3.38891,47.268247 2.952246,51.039862 2.7782624,54.835609 3.1566971,53.419756 3.6631707,48.419587 4.0357715,49.395118 3.2993428,52.583642 3.0806904,57.636516 2.1498619,59.741862 1.6324487,55.929315 1.0844506,62.782293 0.94451085,64.072357 0.75778495,66.070499 0.84502895,69.199574 1.615718,68.836775 0.48158645,72.464893 0.64367295,65.27114 0.78654985,63.94327 0.84144785,60.583195 2.148344,57.445791 2.1594183,54.116936 c 0.1908191,-4.383344 -1.8856599,0.895292 -0.7629165,0.472643 0.3052933,1.421165 -0.056851,4.862218 -0.083826,1.4763 -1.0476615,6.48939 -1.75045885,13.063194 -1.55352325,19.687882 0.00732,4.284538 -0.084661,8.570641 0.39826915,12.824845 -0.57721625,2.761085 -1.1382405,5.538719 -0.73596435,8.678959 1.2660649,2.927865 1.3783326,-3.328817 1.3416705,-4.521973 0.049316,-2.137666 -0.1475142,-1.54279 -0.38285125,0.08551 0.28666675,-1.414402 0.017372,-7.513231 0.44654015,-3.3437 0.21382025,3.690606 0.52823445,7.61633 -0.86336865,11.050188 -1.0330126,-3.584132 -1.1920892,-8.398537 -0.02839015,-11.538435 -0.56616225,-5.74147 -0.2637599,-11.5428 -0.3556832,-17.314117 0.0939998,-4.617334 0.38659625,-9.250276 1.2484221,-13.748145 C 1.1900027,54.243176 0.3334654,49.438701 2.0252883,46.497572 3.0974867,47.919659 2.2985352,42.779969 2.4891375,41.790395 2.0145412,34.241099 1.0946774,26.724813 1.2540752,19.13206 1.3273937,12.892586 1.5855076,6.6261697 2.0124766,0.42346911 2.1444508,5.2356576 1.0848279,10.196604 2.0529112,14.963849 4.6658731,11.047689 4.3170706,5.683047 4.7357496,0.96991638 6.5206057,-2.2653501 5.4736773,3.6503414 5.6971842,5.0957772 6.2051902,9.0180386 4.5631044,12.675434 4.252169,16.532278 3.3748135,22.311934 3.8015007,28.204479 3.3967944,34.033053 3.4943412,38.064938 3.6991614,29.552774 3.8118373,27.793755 3.9324718,25.22721 4.0963546,20.031023 4.2327574,19.127263 4.3193224,24.29422 3.8326868,29.450224 3.9729721,34.617411 4.4356655,29.192264 4.1630063,23.728019 4.454172,18.291937 6.4302941,15.361201 6.9517613,11.20387 6.8581018,7.3916556 7.537292,5.1636124 5.355546,-0.74539294 8.7064582,-0.03585544 9.7547914,0.01059357 10.803125,0.05704257 11.851459,0.10349158 11.840499,0.52981637 11.829549,0.95614956 11.818589,1.3824694 Z M 5.5104859,1.4984 c -0.1600565,2.4786286 0.4716883,-1.20270903 0,0 z m 6.4873811,4.6862152 c -0.835393,1.7611396 -0.404709,6.3712258 -0.473736,6.7167038 -0.04726,-1.801521 1.353557,-6.5602814 0.473736,-6.7167038 z M 12.96338,6.0105153 c -1.382061,4.3520467 -1.426896,9.1181907 -1.796588,13.6857077 0.395671,2.464679 0.492794,8.023762 0.825134,8.526002 2.173543,-6.582021 2.064745,-13.836682 2.127829,-20.8017236 0.0022,-0.6945696 -0.311263,-2.3673659 -1.156375,-1.4099861 z M 5.6608151,16.851483 c 0.1757685,1.255012 0.2461542,-1.92766 0,0 z m -0.5089306,0.600919 c -0.2590026,1.740528 0.1938649,3.142619 0.1841701,0.579874 0.136802,-0.196653 -0.200943,-1.724317 -0.1841701,-0.579874 z m 0.2598989,1.572325 c -0.1027267,2.19283 -0.036689,7.433233 0.2623932,7.836877 -0.00511,-2.612383 0.072966,-5.246668 -0.2623932,-7.836877 z m -0.7500997,1.121014 c 0.06646,1.837638 0.075538,-2.521829 0,0 z m 3.5128549,-0.622005 c 0.105985,1.263067 0.234957,-1.172522 0,0 z M 4.8487675,19.37638 c 0.078555,1.247053 0.179502,-1.164178 0,0 z m 3.5310721,0.646569 c 0.02365,2.399089 0.2927986,-1.526116 0,0 z m -0.4991239,-0.06032 c 0.1144609,1.584933 0.2155919,-1.898421 0,0 z m 0.06292,1.361893 c 0.8212925,1.511184 -0.4214465,5.209712 -0.3225989,5.406173 -0.3067906,-2.954591 0.051317,3.337604 0.4722019,-0.451667 -0.3114254,-1.460511 0.9132171,-4.159112 -0.149603,-4.954506 z m 0.206891,3.495641 c -0.08014,1.058648 0.04775,-1.456861 0,0 z m -0.21586,1.49469 c 0.257438,1.640409 -0.4208487,0.490753 0,0 z m -3.5665924,0.965495 c -0.069929,1.370328 -0.1928564,6.976395 0.00275,5.670115 0.058357,-3.945457 0.5235358,-7.877962 0.3621238,-11.828259 -0.3932889,2.018928 -0.2577892,4.105566 -0.3648777,6.158144 z m 4.0754199,-4.903053 c 0.470601,-0.369607 -0.2341045,-1.605033 0,0 z M 7.5707793,22.079949 c 0.1768927,1.386133 0.1409763,-1.855264 0,0 z m 3.3206197,0.791313 c -0.04077,2.676555 0.720689,8.46263 0.384832,9.074575 0.280547,-2.892591 0.16356,-5.808939 0.09084,-8.711303 -0.391863,2.60898 -0.157403,-2.735198 -0.475673,-0.363272 z M 7.7834925,22.570949 c -0.4972724,2.025785 0.3889141,2.892623 0,0 z m 0.018117,1.136393 c 0.00244,1.873584 -0.1454443,-0.558501 0,0 z m 0.5355341,0.831597 c 0.2602836,0.815677 0.0089,-2.037501 0,0 z M 7.4344651,23.849845 c -0.1407004,2.218107 0.3363532,-1.172357 0,0 z m -4.1249328,0.67728 C 2.430224,26.275671 3.6286569,28.048372 3.556862,25.24473 3.6928791,24.805102 3.529763,22.577349 3.3095323,24.527125 Z m 8.1897857,0.943552 c -0.119416,2.398105 0.278856,-0.976079 0,0 z M 7.2945483,25.96638 c 0.1608532,1.839598 0.1164659,-2.672835 0,0 z m 0.8831193,0.354062 c 0.198557,1.569121 0.02627,-2.562242 0,0 z m 1.8627164,2.872121 c -0.6864602,4.924453 -2.1793014,9.915666 -1.2758998,14.948352 1.4897998,0.559975 -0.108052,7.935644 0.8753842,3.528989 0.4666046,-5.011738 0.6052666,-10.056468 0.7128786,-15.094687 0.23278,4.369649 0.963463,-2.207322 0.815181,-3.583807 0.236746,-2.262312 -1.031926,-3.602962 -1.024537,-0.536188 l -0.103007,0.737339 z m 0.0061,3.046128 C 9.2825488,35.522753 9.5295254,38.976479 9.2280308,42.332199 9.3766978,39.014256 9.0163368,35.256969 10.046484,32.238691 Z M 8.0268246,27.820154 c 0.127162,0.961287 0.02248,-1.777825 0,0 z m -0.7510688,-6.76e-4 c -0.1189482,1.801956 0.19347,0.729047 0.080694,-0.386508 z m 0.5800448,1.274584 c 0.125663,1.271976 0.107225,-1.666126 0,0 z M 7.4167441,29.43238 c 0.064951,2.091777 0.1959372,-1.847306 0,0 z m 4.0472959,0.281967 c -0.225044,2.146968 0.219785,-0.373848 0,0 z m -3.8042742,0.01125 c 0.1175163,0.87975 0.095765,-1.472069 0,0 z M 8.1547856,43.386261 C 7.78651,45.353233 9.5436224,49.239416 8.7108252,45.002828 8.6510152,44.773761 8.4174882,41.601635 8.1547856,43.386261 Z M 2.6697199,43.256184 c -0.2020679,2.257624 0.1917732,2.072714 0,0 z m 0.6286697,2.26995 c 0.3183412,-1.897374 -0.054425,-1.485181 0,0 z m 4.760118,1.44992 c 0.174831,2.771914 -1.3401619,5.498886 -0.7190241,8.213772 0.5094766,-1.14169 0.4667309,-6.870328 1.1753357,-5.19449 0.5646256,4.185075 -0.1556156,-6.938385 -0.4563116,-3.019282 z m 1.0338922,0.833291 c 0.4308836,-1.115353 -0.2559936,-1.24699 0,0 z M 2.5970907,46.090477 c 0.078555,1.247055 0.1795027,-1.164177 0,0 z m 0.602629,0.930539 c 0.048855,0.920008 0.087889,-1.095163 0,0 z m -0.6218144,0.273728 c -0.013452,1.123094 0.1802467,-1.266421 0,0 z m -1.115539,1.253622 c -0.58454885,1.242714 -0.1715421,4.049285 0.055531,1.175693 1.546281,-0.323149 0.3598472,-3.334013 -0.055531,-1.175693 z m 1.6481516,-0.326184 c -0.013451,1.123091 0.1802462,-1.266425 0,0 z m 5.7385643,1.433127 c 0.3934666,1.368564 -0.108426,-2.557159 0,0 z M 3.9030675,49.171734 c -0.4920467,1.530503 0.2049101,0.772686 0.141321,-0.167735 z m -1.362491,0.286802 c 0.033052,-0.511947 0.040049,-0.620328 0,0 z m 0.4176729,0.883636 c 0.1114357,1.45596 0.054231,-2.249251 0,0 z m -0.6088966,0.42494 c 0.079691,2.254969 0.092772,-2.838761 0,0 z M 1.65115,50.457255 c 0.2683523,3.237493 1.3662682,-0.59831 0.031793,-0.330135 z m 7.2349322,0.405749 c -0.178544,1.438842 0.4509216,2.652595 0.09031,0.463649 z m -5.2465563,0.129689 c 0.1566269,0.613175 -0.014909,-2.118567 0,0 z m -1.1541851,-0.0867 c 0.046015,1.246731 0.1271835,-1.147722 0,0 z m 0.9968904,0.646731 c 0.029039,1.259052 0.1051747,-1.067217 0,0 z m 4.7843634,2.297536 c -1.0301405,1.209887 -0.515722,3.946313 0.2841576,1.245107 0.4206496,-0.755873 0.362924,-5.049101 -0.2841576,-1.245107 z M 2.4486511,52.109487 c 0.046013,1.246736 0.1271844,-1.147719 0,0 z m 6.6883327,1.387714 0.04468,-0.273161 z M 2.7895596,52.425875 c 0.046015,1.246731 0.1271834,-1.147726 0,0 z m 0.4712276,0.641219 c -0.5452658,1.950982 0.1777155,0.02354 0,0 z m -0.8846748,0.846859 c 0.3844558,-0.452909 -0.2776827,-1.415602 0,0 z M 2.7003579,53.62704 c 8.709e-4,1.151723 0.1873271,-1.058612 0,0 z m 0.312229,1.137356 c 0.2710438,-0.458321 -0.3054487,-1.359422 0,0 z m -0.5162925,0.209359 c 0.05155,1.545993 0.1452447,-1.519558 0,0 z m 5.8180052,4.372487 c -0.06782,1.811767 -0.9737931,6.691576 -0.5438749,6.613819 0.2381409,-2.311834 1.3057141,-8.775331 0.7760445,-8.708202 -0.09867,0.694332 -0.1807816,1.392485 -0.2321696,2.094383 z M 2.3161514,55.59348 c 0.3968538,-0.227711 -0.3489951,-1.700149 0,0 z m 0.5217167,-0.152671 c 0.029039,1.259053 0.1051761,-1.067212 0,0 z m -0.2176924,0.24142 c -0.068807,1.935012 0.313881,-1.021347 0,0 z m 5.3506169,1.23127 c -0.5061827,1.557191 -1.1044049,6.77445 -0.0669,2.43963 0.07322,-0.273359 1.0714252,-4.100528 0.0669,-2.43963 z M 2.1802047,56.315508 c 0.048855,0.920009 0.08789,-1.095156 0,0 z m 0.1486222,0.458504 c -0.1714736,2.624181 0.4713741,-1.343383 0,0 z m 0.273199,0.941091 c 0.3968531,-0.227716 -0.3489943,-1.700137 0,0 z m -0.511023,-0.19843 c 8.71e-4,1.151725 0.1873275,-1.058614 0,0 z m 0.4054982,1.072445 c 0.069539,1.785566 0.1651927,-1.450207 0,0 z m -0.3566708,0.655799 c 0.271044,-0.458321 -0.3054488,-1.359422 0,0 z m 0.1297132,0.109936 c 0.1425818,1.197456 0.097717,-1.366045 0,0 z m 2.6284706,1.459206 c 0.3107656,1.854564 0.099148,-1.326638 0,0 z m -0.4287233,0.396155 c 0.07786,1.832719 0.4363436,4.387573 0.4498942,1.054627 -9.456e-4,-0.282818 -0.00873,-2.106352 -0.4498942,-1.054627 z m -0.3982581,5.52526 c 0.214967,3.407547 0.7309018,0.07129 0,0 z m -0.09594,5.12269 C 3.5721669,73.707303 4.605155,74.635081 4.3468278,72.270115 4.1990471,70.84261 3.9440904,69.058842 3.9750927,71.858164 Z M 3.5851591,84.261751 c -0.2634448,2.152633 0.1737649,-0.493145 0,0 z M 0.58882325,96.961089 c -0.37837275,3.372101 0.57434405,-2.996693 0,0 z M 12.353729,29.048566 c -0.150974,0.93425 0.04103,-1.079731 0,0 z m -1.656332,7.1365 c 0.102574,1.721665 -0.177465,-0.476344 0,0 z M 2.4312111,46.404454 c 0.050321,1.79244 -0.1185022,-0.893715 0,0 z M 6.0204649,52.3528 c 0.4446284,1.179924 -0.4916988,5.726576 -0.08201,2.366633 0.024458,-0.284124 -0.912385,-4.165893 0.08201,-2.366633 z m 6.6830311,4.159498 c 0.16765,1.986554 -0.346726,3.861994 -0.253375,0.845211 -0.380962,1.94198 -0.761139,0.52674 -0.751907,0.918061 -0.6386,2.01048 -0.244329,-1.867434 -0.873165,0.979436 -0.359684,1.686296 -2.3325778,2.606932 -0.9707326,0.328688 0.6564406,-1.068069 1.5137896,-3.516664 2.8491796,-3.071396 z M 2.0769129,61.309229 c -0.3600642,1.30966 -0.6587953,7.567943 -0.9298664,3.034813 0.071159,-2.573818 0.3498699,2.736454 0.4075825,-0.132246 0.1905799,-0.548268 -0.3431536,-3.564004 0.5222839,-2.902567 z m 3.8836968,0.245326 c -0.032993,1.045049 -0.1113008,-0.709487 0,0 z m -2.0081019,1.354554 c 0.1039337,1.613286 -0.4937061,4.228716 0,0 z m 4.1827338,2.05586 c -0.03299,1.04505 -0.111301,-0.709487 0,0 z m -6.2637179,4.350609 c 0.7090759,4.004519 -0.6449313,0.455966 0,0 z m -0.2818269,1.195271 c 0.5167659,1.649149 -0.092566,3.760284 -0.121486,0.869698 0.082974,0.216679 -0.2691799,-1.795031 0.121486,-0.869698 z m 7.1614064,1.621138 c 2.0203628,2.162819 4.5430838,4.970294 3.2483308,8.58647 0.533164,-1.888262 -0.263753,-3.276179 -0.767719,-3.515225 -0.01886,-1.970917 -3.7573753,-3.341167 -2.4806118,-5.071245 z m -7.4957543,0.236415 c 0.5131664,1.218499 0.083208,5.117977 -0.021504,1.641436 0.032682,-0.145975 -0.50404135,-2.767405 0.021504,-1.641436 z m -0.37341475,2.109411 c 0.36032455,1.987551 0.069213,5.114545 -0.1277847,1.325616 0.032546,-0.07284 -0.077287,-2.468429 0.1277847,-1.325616 z M 0.4221348,76.348864 c 0.12557505,0.950955 1.0187349,7.297863 0.36313875,4.277545 C 0.68068065,79.927192 0.0706339,75.3669 0.4221348,76.348864 Z m 7.8916588,3.893673 c 1.0820512,4.104367 1.2276028,8.848368 2.5696094,12.566611 0.174363,1.684278 -0.285401,4.397489 -0.33156,1.11454 C 9.8160664,90.834863 9.3448908,87.659282 8.7556212,84.532564 8.6550682,83.237512 7.9406596,81.227342 8.3137936,80.242537 Z M 3.3392621,79.904619 c 0.565807,1.314142 -0.7462656,6.794978 -0.6869085,2.91949 0.365051,-0.516561 -0.2826257,-3.555208 0.6869085,-2.91949 z M 2.787959,83.532906 c 0.6252586,-1.308857 -0.062461,-2.872964 0,0 z M 0.2272736,80.129467 c 0.70251545,1.446515 0.60397475,8.275576 0.33855985,3.380509 C 0.4240155,82.392117 0.118128,81.272409 0.2272736,80.129467 Z m 6.0397789,3.688441 C 6.5184063,88.811189 7.1156595,93.82258 6.9879368,98.818059 6.6127883,95.834154 6.5912697,92.164253 6.3695205,88.926322 6.3565068,87.476489 5.8215191,82.763716 6.1995293,83.210521 Z m -4.1573247,2.835096 c -0.012736,1.900551 -0.1027299,7.328461 -0.2341987,2.385868 0.017696,-0.800233 0.038654,-1.613144 0.2341987,-2.385868 z M 1.736938,89.253728 c -0.182653,2.91552 -0.1432346,-1.788098 0,0 z m 4.5879871,1.289995 c 0.086694,1.140603 -0.1725015,-0.944203 0,0 z m -1.9432502,0.498678 c -0.032467,2.428241 0.1224074,7.802642 -0.2366133,8.4313 0.097344,-2.806854 -0.075158,-5.641836 0.2366133,-8.4313 z"
     id="path873" />
  <g
     id="text977"
     style="font-style:normal;font-variant:normal;font-weight:normal;font-stretch:normal;font-size:4.23333311px;line-height:125%;font-family:'DejaVu Sans Mono';-inkscape-font-specification:'DejaVu Sans Mono, Normal';font-variant-ligatures:normal;font-variant-caps:normal;font-variant-numeric:normal;font-feature-settings:normal;text-align:start;letter-spacing:0px;word-spacing:0px;writing-mode:lr-tb;text-anchor:start;fill:#000000;fill-opacity:1;stroke:none;stroke-width:0.26458332px;stroke-linecap:butt;stroke-linejoin:miter;stroke-opacity:1"
     aria-label="bId°°"
     transform="rotate(-33.559234,7.2444772,124.26948)">
    <path
       id="path877"
       style="font-style:normal;font-variant:normal;font-weight:normal;font-stretch:normal;font-size:4.23333311px;font-family:'DejaVu Sans Mono';-inkscape-font-specification:'DejaVu Sans Mono, Normal';font-variant-ligatures:normal;font-variant-caps:normal;font-variant-numeric:normal;font-feature-settings:normal;text-align:start;writing-mode:lr-tb;text-anchor:start;stroke-width:0.26458332px"
       d="m 19.719656,97.809389 q 0,-0.44235 -0.14056,-0.667659 -0.14056,-0.225309 -0.415478,-0.225309 -0.276986,0 -0.419613,0.227376 -0.142627,0.225309 -0.142627,0.665592 0,0.438216 0.142627,0.665593 0.142627,0.227376 0.419613,0.227376 0.274918,0 0.415478,-0.225309 0.14056,-0.225309 0.14056,-0.66766 z m -1.118278,-0.86403 q 0.09095,-0.169498 0.250114,-0.260449 0.161231,-0.09095 0.372071,-0.09095 0.417545,0 0.657324,0.322461 0.239778,0.320393 0.239778,0.8847 0,0.572575 -0.241845,0.89917 -0.239779,0.324528 -0.659392,0.324528 -0.206705,0 -0.365869,-0.08888 -0.157096,-0.09095 -0.252181,-0.262516 v 0.291455 H 18.22104 v -3.216341 h 0.380338 z" />
    <path
       id="path879"
       style="font-style:normal;font-variant:normal;font-weight:normal;font-stretch:normal;font-size:4.23333311px;font-family:'DejaVu Sans Mono';-inkscape-font-specification:'DejaVu Sans Mono, Normal';font-variant-ligatures:normal;font-variant-caps:normal;font-variant-numeric:normal;font-feature-settings:normal;text-align:start;writing-mode:lr-tb;text-anchor:start;stroke-width:0.26458332px"
       d="m 20.784191,95.878758 h 1.71359 v 0.3514 h -0.646989 v 2.383317 h 0.646989 v 0.351399 h -1.71359 v -0.351399 h 0.646989 v -2.383317 h -0.646989 z" />
    <path
       id="path881"
       style="font-style:normal;font-variant:normal;font-weight:normal;font-stretch:normal;font-size:4.23333311px;font-family:'DejaVu Sans Mono';-inkscape-font-specification:'DejaVu Sans Mono, Normal';font-variant-ligatures:normal;font-variant-caps:normal;font-variant-numeric:normal;font-feature-settings:normal;text-align:start;writing-mode:lr-tb;text-anchor:start;stroke-width:0.26458332px"
       d="M 24.688862,96.945359 V 95.748533 H 25.0692 v 3.216341 h -0.380338 v -0.291455 q -0.09509,0.171566 -0.254248,0.262516 -0.157097,0.08888 -0.363802,0.08888 -0.419613,0 -0.661459,-0.324528 -0.239778,-0.326595 -0.239778,-0.89917 0,-0.564307 0.241845,-0.8847 0.241846,-0.322461 0.659392,-0.322461 0.208772,0 0.367936,0.09095 0.159163,0.08888 0.250114,0.260449 z m -1.118278,0.86403 q 0,0.442351 0.14056,0.66766 0.140559,0.225309 0.415478,0.225309 0.274919,0 0.417546,-0.227376 0.144694,-0.227377 0.144694,-0.665593 0,-0.440283 -0.144694,-0.665592 -0.142627,-0.227376 -0.417546,-0.227376 -0.274919,0 -0.415478,0.225309 -0.14056,0.225309 -0.14056,0.667659 z" />
    <path
       id="path883"
       style="font-style:normal;font-variant:normal;font-weight:normal;font-stretch:normal;font-size:4.23333311px;font-family:'DejaVu Sans Mono';-inkscape-font-specification:'DejaVu Sans Mono, Normal';font-variant-ligatures:normal;font-variant-caps:normal;font-variant-numeric:normal;font-feature-settings:normal;text-align:start;writing-mode:lr-tb;text-anchor:start;stroke-width:0.26458332px"
       d="m 26.735248,95.822947 q 0.134359,0 0.254248,0.05168 0.121956,0.04961 0.212907,0.144694 0.09302,0.09302 0.14056,0.21084 0.04961,0.117822 0.04961,0.254248 0,0.272851 -0.192236,0.46302 -0.192236,0.188103 -0.469222,0.188103 -0.279053,0 -0.465088,-0.186035 -0.186035,-0.186036 -0.186035,-0.465088 0,-0.276986 0.190169,-0.469222 0.190169,-0.192237 0.465088,-0.192237 z m 0,0.266651 q -0.163298,0 -0.279053,0.115755 -0.113688,0.113688 -0.113688,0.279053 0,0.165364 0.111621,0.276985 0.113688,0.111621 0.276986,0.111621 0.165364,0 0.28112,-0.113688 0.117822,-0.113688 0.117822,-0.274918 0,-0.163298 -0.115755,-0.279053 -0.115755,-0.115755 -0.279053,-0.115755 z" />
    <path
       id="path885"
       style="font-style:normal;font-variant:normal;font-weight:normal;font-stretch:normal;font-size:4.23333311px;font-family:'DejaVu Sans Mono';-inkscape-font-specification:'DejaVu Sans Mono, Normal';font-variant-ligatures:normal;font-variant-caps:normal;font-variant-numeric:normal;font-feature-settings:normal;text-align:start;writing-mode:lr-tb;text-anchor:start;stroke-width:0.26458332px"
       d="m 29.281863,95.822947 q 0.134358,0 0.254248,0.05168 0.121956,0.04961 0.212907,0.144694 0.09302,0.09302 0.140559,0.21084 0.04961,0.117822 0.04961,0.254248 0,0.272851 -0.192236,0.46302 -0.192237,0.188103 -0.469222,0.188103 -0.279053,0 -0.465088,-0.186035 -0.186035,-0.186036 -0.186035,-0.465088 0,-0.276986 0.190169,-0.469222 0.190169,-0.192237 0.465088,-0.192237 z m 0,0.266651 q -0.163298,0 -0.279053,0.115755 -0.113688,0.113688 -0.113688,0.279053 0,0.165364 0.111621,0.276985 0.113688,0.111621 0.276986,0.111621 0.165364,0 0.281119,-0.113688 0.117823,-0.113688 0.117823,-0.274918 0,-0.163298 -0.115756,-0.279053 -0.115755,-0.115755 -0.279052,-0.115755 z" />
  </g>
  <g
     id="text4860"
     style="font-style:normal;font-variant:normal;font-weight:normal;font-stretch:normal;font-size:2.82222223px;line-height:125%;font-family:Sudo;-inkscape-font-specification:'Sudo, Normal';font-variant-ligatures:normal;font-variant-caps:normal;font-variant-numeric:normal;font-feature-settings:normal;text-align:start;letter-spacing:0px;word-spacing:0px;writing-mode:lr-tb;text-anchor:start;fill:#000000;fill-opacity:1;stroke:none;stroke-width:0.26458332px;stroke-linecap:butt;stroke-linejoin:miter;stroke-opacity:1" />
  <g
     id="flowRoot1009"
     style="font-style:normal;font-variant:normal;font-weight:normal;font-stretch:normal;font-size:10.66666698px;line-height:125%;font-family:Sudo;-inkscape-font-specification:'Sudo, Normal';font-variant-ligatures:normal;font-variant-caps:normal;font-variant-numeric:normal;font-feature-settings:normal;text-align:start;letter-spacing:0px;word-spacing:0px;writing-mode:lr-tb;text-anchor:start;fill:#000000;fill-opacity:1;stroke:none;stroke-width:1px;stroke-linecap:butt;stroke-linejoin:miter;stroke-opacity:1" />
  <path
     style="opacity:1;fill:#cd1f00;fill-opacity:1;fill-rule:evenodd;stroke:#cd1f00;stroke-width:0.72085714;stroke-linecap:butt;stroke-linejoin:round;stroke-miterlimit:4;stroke-dasharray:none;stroke-dashoffset:0;stroke-opacity:1"
     d="m 3.5257539,75.70208 h 4.702995 c 0.6299043,0 1.1370114,0.507107 1.1370114,1.137011 v 8.103004 c 0,0.629904 -0.5071071,1.137011 -1.1370114,1.137011 h -4.702995 c -0.6299044,0 -1.1370115,-0.507107 -1.1370115,-1.137011 v -8.103004 c 0,-0.629904 0.5071071,-1.137011 1.1370115,-1.137011 z"
     id="rect998" />
  <g
     aria-label="OUT"
     style="font-style:normal;font-variant:normal;font-weight:normal;font-stretch:normal;font-size:2.82222223px;line-height:125%;font-family:'DejaVu Sans Mono';-inkscape-font-specification:'DejaVu Sans Mono, Normal';font-variant-ligatures:normal;font-variant-caps:normal;font-variant-numeric:normal;font-feature-settings:normal;text-align:start;letter-spacing:0px;word-spacing:0px;writing-mode:lr-tb;text-anchor:start;fill:#000000;fill-opacity:1;stroke:#ffffff;stroke-width:0.13229166;stroke-linecap:butt;stroke-linejoin:miter;stroke-miterlimit:4;stroke-dasharray:none;stroke-opacity:1"
     id="text1002">
    <path
       d="m 4.5288409,77.391513 q 0,-0.453374 -0.093707,-0.647678 -0.092328,-0.194303 -0.3045464,-0.194303 -0.2108399,0 -0.3045465,0.194303 -0.092328,0.194304 -0.092328,0.647678 0,0.451997 0.092328,0.6463 0.093707,0.194304 0.3045465,0.194304 0.2122179,0 0.3045464,-0.192926 0.093707,-0.194303 0.093707,-0.647678 z m 0.2907661,0 q 0,0.537435 -0.1708768,0.802019 -0.1694987,0.264583 -0.5181423,0.264583 -0.3486437,0 -0.5181424,-0.263205 -0.1694987,-0.263206 -0.1694987,-0.803397 0,-0.538813 0.1694987,-0.803396 0.1708768,-0.264583 0.5181424,-0.264583 0.3486436,0 0.5181423,0.264583 0.1708768,0.264583 0.1708768,0.803396 z"
       style="font-style:normal;font-variant:normal;font-weight:normal;font-stretch:normal;font-size:2.82222223px;font-family:'DejaVu Sans Mono';-inkscape-font-specification:'DejaVu Sans Mono, Normal';font-variant-ligatures:normal;font-variant-caps:normal;font-variant-numeric:normal;font-feature-settings:normal;text-align:start;writing-mode:lr-tb;text-anchor:start;fill:#ffffff;fill-opacity:1;stroke:#ffffff;stroke-width:0.13229166;stroke-miterlimit:4;stroke-dasharray:none;stroke-opacity:1"
       id="path907" />
    <path
       d="m 5.182031,77.628536 v -1.267795 h 0.2797418 v 1.394574 q 0,0.150207 0.00827,0.214974 0.00827,0.06339 0.028939,0.09784 0.044097,0.0813 0.1267795,0.122646 0.08406,0.04134 0.2025716,0.04134 0.1198894,0 0.2025717,-0.04134 0.082682,-0.04134 0.1281575,-0.122646 0.020671,-0.03445 0.028939,-0.09784 0.00827,-0.06339 0.00827,-0.212217 v -1.397331 h 0.2783638 v 1.267795 q 0,0.315571 -0.039963,0.44924 -0.038585,0.132292 -0.1350477,0.219108 -0.09095,0.08131 -0.2080838,0.121268 -0.1171332,0.03996 -0.2632053,0.03996 -0.144694,0 -0.2618272,-0.03996 -0.1171375,-0.03996 -0.209466,-0.121268 -0.095085,-0.08544 -0.1350478,-0.220486 -0.039963,-0.136425 -0.039963,-0.447862 z"
       style="font-style:normal;font-variant:normal;font-weight:normal;font-stretch:normal;font-size:2.82222223px;font-family:'DejaVu Sans Mono';-inkscape-font-specification:'DejaVu Sans Mono, Normal';font-variant-ligatures:normal;font-variant-caps:normal;font-variant-numeric:normal;font-feature-settings:normal;text-align:start;writing-mode:lr-tb;text-anchor:start;fill:#ffffff;fill-opacity:1;stroke:#ffffff;stroke-width:0.13229166;stroke-miterlimit:4;stroke-dasharray:none;stroke-opacity:1"
       id="path909" />
    <path
       d="m 6.7419703,76.360741 h 1.5695855 v 0.234266 H 7.6680119 v 1.823145 H 7.3882702 V 76.595007 H 6.7419703 Z"
       style="font-style:normal;font-variant:normal;font-weight:normal;font-stretch:normal;font-size:2.82222223px;font-family:'DejaVu Sans Mono';-inkscape-font-specification:'DejaVu Sans Mono, Normal';font-variant-ligatures:normal;font-variant-caps:normal;font-variant-numeric:normal;font-feature-settings:normal;text-align:start;writing-mode:lr-tb;text-anchor:start;fill:#ffffff;fill-opacity:1;stroke:#ffffff;stroke-width:0.13229166;stroke-miterlimit:4;stroke-dasharray:none;stroke-opacity:1"
       id="path911" />
  </g>
  <path
     style="opacity:1;fill:#000000;fill-opacity:1;fill-rule:evenodd;stroke:#000500;stroke-width:0.72085714;stroke-linecap:butt;stroke-linejoin:round;stroke-miterlimit:4;stroke-dasharray:none;stroke-dashoffset:0;stroke-opacity:1"
     d="m 3.5257539,60.919752 h 4.702995 c 0.6299043,0 1.1370114,0.507107 1.1370114,1.137011 v 8.103004 c 0,0.629904 -0.5071071,1.137011 -1.1370114,1.137011 h -4.702995 c -0.6299044,0 -1.1370115,-0.507107 -1.1370115,-1.137011 v -8.103004 c 0,-0.629904 0.5071071,-1.137011 1.1370115,-1.137011 z"
     id="rect998-1" />
  <g
     transform="translate(0,-0.15062223)"
     aria-label="IN"
     style="font-style:normal;font-variant:normal;font-weight:normal;font-stretch:normal;font-size:2.82222223px;line-height:125%;font-family:'DejaVu Sans Mono';-inkscape-font-specification:'DejaVu Sans Mono, Normal';font-variant-ligatures:normal;font-variant-caps:normal;font-variant-numeric:normal;font-feature-settings:normal;text-align:start;letter-spacing:0px;word-spacing:0px;writing-mode:lr-tb;text-anchor:start;fill:#000000;fill-opacity:1;stroke:#ffffff;stroke-width:0.13229166;stroke-linecap:butt;stroke-linejoin:miter;stroke-miterlimit:4;stroke-dasharray:none;stroke-opacity:1"
     id="text1002-0">
    <path
       d="m 4.413086,61.729057 h 1.1423936 v 0.234267 H 5.1241537 v 1.588878 h 0.4313259 v 0.234267 H 4.413086 V 63.552202 H 4.8444119 V 61.963324 H 4.413086 Z"
       style="font-style:normal;font-variant:normal;font-weight:normal;font-stretch:normal;font-size:2.82222223px;font-family:'DejaVu Sans Mono';-inkscape-font-specification:'DejaVu Sans Mono, Normal';font-variant-ligatures:normal;font-variant-caps:normal;font-variant-numeric:normal;font-feature-settings:normal;text-align:start;writing-mode:lr-tb;text-anchor:start;fill:#ffffff;fill-opacity:1;stroke:#ffffff;stroke-width:0.13229166;stroke-miterlimit:4;stroke-dasharray:none;stroke-opacity:1"
       id="path915" />
    <path
       d="m 6.0253907,61.729057 h 0.3527777 l 0.6945313,1.693609 v -1.693609 h 0.2687174 v 2.057412 H 6.9886394 L 6.2941081,62.09286 v 1.693609 H 6.0253907 Z"
       style="font-style:normal;font-variant:normal;font-weight:normal;font-stretch:normal;font-size:2.82222223px;font-family:'DejaVu Sans Mono';-inkscape-font-specification:'DejaVu Sans Mono, Normal';font-variant-ligatures:normal;font-variant-caps:normal;font-variant-numeric:normal;font-feature-settings:normal;text-align:start;writing-mode:lr-tb;text-anchor:start;fill:#ffffff;fill-opacity:1;stroke:#ffffff;stroke-width:0.13229166;stroke-miterlimit:4;stroke-dasharray:none;stroke-opacity:1"
       id="path917" />
  </g>
  <g
     aria-label="H C T I P"
     style="font-style:normal;font-variant:normal;font-weight:normal;font-stretch:normal;font-size:2.82222223px;line-height:125%;font-family:'DejaVu Sans Mono';-inkscape-font-specification:'DejaVu Sans Mono, Normal';font-variant-ligatures:normal;font-variant-caps:normal;font-variant-numeric:normal;font-feature-settings:normal;text-align:start;letter-spacing:0px;word-spacing:0px;writing-mode:lr-tb;text-anchor:start;fill:#000000;fill-opacity:1;stroke:none;stroke-width:0.26458332px;stroke-linecap:butt;stroke-linejoin:miter;stroke-opacity:1"
     id="text847">
    <path
       d="M 5.1271634,6.1951783 H 5.4768405 V 7.2493775 H 6.4294094 V 6.1951783 H 6.7790866 V 8.766942 H 6.4294094 V 7.5422106 H 5.4768405 V 8.766942 H 5.1271634 Z"
       style="font-style:normal;font-variant:normal;font-weight:normal;font-stretch:normal;font-size:3.52777767px;font-family:'DejaVu Sans Mono';-inkscape-font-specification:'DejaVu Sans Mono, Normal';font-variant-ligatures:normal;font-variant-caps:normal;font-variant-numeric:normal;font-feature-settings:normal;text-align:start;writing-mode:lr-tb;text-anchor:start;stroke-width:0.26458332px"
       id="path857" />
    <path
       d="m 6.739468,12.386704 q -0.1326362,0.07062 -0.2721625,0.105075 -0.1395264,0.03617 -0.2962782,0.03617 -0.4943712,0 -0.7682563,-0.349677 -0.2721626,-0.349678 -0.2721626,-0.983575 0,-0.630453 0.2738851,-0.981852 0.2756077,-0.3531227 0.7665338,-0.3531227 0.1567518,0 0.2962782,0.036174 0.1395263,0.034451 0.2721625,0.1050757 v 0.356568 q -0.1274685,-0.105077 -0.2738851,-0.160197 -0.1464165,-0.05512 -0.2945556,-0.05512 -0.3393419,0 -0.5081516,0.261827 -0.1688097,0.261828 -0.1688097,0.79065 0,0.527099 0.1688097,0.788927 0.1688097,0.261827 0.5081516,0.261827 0.1515841,0 0.2962782,-0.05512 0.1464165,-0.05512 0.2721625,-0.160197 z"
       style="font-style:normal;font-variant:normal;font-weight:normal;font-stretch:normal;font-size:3.52777767px;font-family:'DejaVu Sans Mono';-inkscape-font-specification:'DejaVu Sans Mono, Normal';font-variant-ligatures:normal;font-variant-caps:normal;font-variant-numeric:normal;font-feature-settings:normal;text-align:start;writing-mode:lr-tb;text-anchor:start;stroke-width:0.26458332px"
       id="path859" />
    <path
       d="m 4.9721341,13.617292 h 1.9619818 v 0.292833 H 6.1296861 v 2.278931 H 5.7800089 V 13.910125 H 4.9721341 Z"
       style="font-style:normal;font-variant:normal;font-weight:normal;font-stretch:normal;font-size:3.52777767px;font-family:'DejaVu Sans Mono';-inkscape-font-specification:'DejaVu Sans Mono, Normal';font-variant-ligatures:normal;font-variant-caps:normal;font-variant-numeric:normal;font-feature-settings:normal;text-align:start;writing-mode:lr-tb;text-anchor:start;stroke-width:0.26458332px"
       id="path861" />
    <path
       d="m 5.2374064,17.328349 h 1.427992 v 0.292833 H 6.126241 v 1.986097 h 0.5391574 v 0.292833 H 5.2374064 V 19.607279 H 5.7765638 V 17.621182 H 5.2374064 Z"
       style="font-style:normal;font-variant:normal;font-weight:normal;font-stretch:normal;font-size:3.52777767px;font-family:'DejaVu Sans Mono';-inkscape-font-specification:'DejaVu Sans Mono, Normal';font-variant-ligatures:normal;font-variant-caps:normal;font-variant-numeric:normal;font-feature-settings:normal;text-align:start;writing-mode:lr-tb;text-anchor:start;stroke-width:0.26458332px"
       id="path863" />
    <path
       d="m 5.5784708,21.325348 v 0.96635 H 5.981547 q 0.2411567,0 0.3755154,-0.127469 0.1360813,-0.127468 0.1360813,-0.356567 0,-0.229099 -0.1343588,-0.354845 Q 6.2244262,21.325348 5.981547,21.325348 Z M 5.2305162,21.039405 H 5.981547 q 0.4306369,0 0.6528456,0.196371 0.2222086,0.194648 0.2222086,0.571886 0,0.380683 -0.2222086,0.575331 -0.2204861,0.194648 -0.6528456,0.194648 H 5.5784708 v 1.033528 H 5.2305162 Z"
       style="font-style:normal;font-variant:normal;font-weight:normal;font-stretch:normal;font-size:3.52777767px;font-family:'DejaVu Sans Mono';-inkscape-font-specification:'DejaVu Sans Mono, Normal';font-variant-ligatures:normal;font-variant-caps:normal;font-variant-numeric:normal;font-feature-settings:normal;text-align:start;writing-mode:lr-tb;text-anchor:start;stroke-width:0.26458332px"
       id="path865" />
  </g>
  <path
     id="path860"
     d="m 5.9531248,43.401195 c 0,-12.780721 0,-12.780721 0,-12.780721"
     style="fill:none;fill-rule:evenodd;stroke:#000000;stroke-width:0.26458332px;stroke-linecap:butt;stroke-linejoin:miter;stroke-opacity:1" />
</svg>
