<?xml version="1.0" encoding="UTF-8" standalone="no"?>
<!DOCTYPE svg PUBLIC "-//W3C//DTD SVG 1.1//EN" "http://www.w3.org/Graphics/SVG/1.1/DTD/svg11.dtd">
<svg xmlns:xlink="http://www.w3.org/1999/xlink"
     xmlns:serif="http://www.serif.com/"
     width="270px"
     height="380px"
     version="1.1"
     xmlns="http://www.w3.org/2000/svg"
     xml:space="preserve"
     style="fill-rule:evenodd;clip-rule:evenodd;stroke-linejoin:round;stroke-miterlimit:1.41421;">
    <rect x="0"
          y="0"
          width="270"
          height="380"
          style="fill:#fff;"/>
        <defs>
        <linearGradient id="_Linear1"
                        x1="0"
                        y1="0"
                        x2="1"
                        y2="0"
                        gradientUnits="userSpaceOnUse"
                        gradientTransform="matrix(206.856,0,0,206.856,26.4346,164.057)"><stop offset="0" style="stop-color:#1e61d4;stop-opacity:1"/><stop offset="1"
                                                                                                                                                          style="stop-color:#ff0046;stop-opacity:1"/></linearGradient>
    </defs>
    <g transform="matrix(0.687555,0,0,0.687561,39.6475,-1.94491)">
        <g id="Logo">
            <path d="M232.321,164.268c-0.551,-1.407 -1.25,-2.487 -1.733,-4.267l0.016,0c-0.034,0 -0.056,-0.074 -0.088,-0.149c-0.062,-0.193 -0.122,-0.353 -0.173,-0.548c-0.097,-0.365 -0.189,-0.759 -0.253,-1.179c-0.043,-2.08 1.872,-2.792 1.946,-5.183c0.081,-2.573 -1.476,-3.898 -1.946,-4.241c-0.02,-0.028 -0.037,-0.054 -0.056,-0.082c0.012,-0.037 0.02,-0.068 0.031,-0.104c2.993,-2.433 1.69,-5.738 1.69,-5.738c-0.636,-0.338 -1.313,-0.55 -1.797,-0.98c-4.337,-3.863 -4.606,-6.636 -1.196,-11.288c0.866,-1.185 1.746,-2.375 2.467,-3.649c1.761,-3.117 1.359,-4.599 -1.81,-6.367c-2.28,-1.271 -4.743,-2.218 -6.988,-3.545c-6.396,-3.778 -11.834,-8.521 -15.061,-15.174c2.171,-3.872 2.171,-3.872 1.304,-6.341c-0.791,0.865 -1.527,1.672 -2.688,2.944c0,-3.049 0.294,-5.379 -0.083,-7.595c-0.367,-2.156 -0.85,-4.792 -2.281,-6.178c-5.217,-5.045 -8.175,-11.292 -10.92,-17.796c-2.029,-4.806 -4.196,-9.66 -8.171,-13.236c-2,-1.8 -4.474,-3.072 -6.742,-4.587c0,-1.354 0.017,-2.653 -0.006,-3.951c-0.019,-1.297 0.038,-2.61 -0.136,-3.89c-0.702,-5.113 -4.34,-7.564 -9.404,-6.548c-3.181,0.638 -6.385,1.238 -9.605,1.563c-1.888,0.19 -3.584,0.128 -3.225,-3.432c1.62,0 3.162,0 5.368,0c-1.104,0 -1.515,-1.544 -2.067,-1.769c-2.208,-0.892 -4.045,-0.36 -5.099,1.396c-1.25,2.077 0.023,3.586 1.504,4.555c1.273,0.832 3.004,1.441 4.492,1.365c3.234,-0.167 6.436,-0.842 9.658,-1.296c2.8,-0.394 4.451,0.587 5.01,3.266c0.266,1.278 0.047,2.658 0.047,3.561c-3.72,-1.383 -6.953,-3.369 -10.347,-3.69c-7.432,-0.706 -14.956,-0.912 -22.413,-0.611c-3.084,0.124 -6.484,1.511 -9.049,3.309c-4.547,3.188 -9.441,5.039 -14.773,6.138c-2.549,0.526 -5.106,1.149 -7.55,2.03c-4.689,1.689 -8.626,4.342 -11.53,8.63c-1.595,2.354 -3.836,4.445 -6.188,6.076c-4.591,3.184 -9.001,6.424 -12.144,11.187c-1.712,2.596 -4.124,4.212 -7.839,3.113c-1.104,-4.244 -4.87,-4.911 -8.627,-5.423c-1.764,-0.242 -3.625,-0.32 -5.373,-0.04c-10.247,1.643 -19.554,5.56 -26.813,13.074c-6.565,6.797 -5.937,10.365 -2.739,16.202c2.063,3.766 2.131,7.435 -0.279,11.089c-1.874,2.842 -2.57,6.013 -2.071,9.354c1.284,8.609 4.072,16.22 13.409,19.251c0.615,0.198 1.156,0.607 1.748,0.881c2.125,0.984 3.145,2.592 3.365,4.971c0.144,1.54 0.491,3.357 1.429,4.479c6.245,7.454 20.432,8.503 25.041,-1.951c0.189,-0.432 0.624,-0.756 0.945,-1.129c0.305,0.134 0.609,0.266 0.914,0.399c-0.27,1.348 -0.539,2.694 -0.81,4.042c-0.351,1.75 -1.204,3.572 -0.961,5.235c0.915,6.264 1.484,12.716 3.503,18.648c2.452,7.204 8.53,14.587 18.762,13.197c3.549,-0.483 6.782,0.391 9.818,2.234c1.254,0.76 2.657,1.272 3.912,2.027c3.221,1.943 6.497,1.898 9.857,0.464c2.024,-0.863 4.052,-1.726 6.331,-2.698c-1.16,4.041 -2.278,7.594 -3.189,11.197c-1.336,5.287 -3.631,9.452 -9.941,9.48c-0.115,0 -0.228,0.204 -0.481,0.441c0.473,1.385 0.975,2.855 1.446,4.234c-3.43,5.076 -9.388,5.288 -13.951,7.881c8.949,0.082 15.39,-4.254 16.179,-10.562c4.91,-1.582 7.805,-5.034 9.233,-9.921c0.777,-2.659 1.611,-5.32 2.672,-7.879c1.746,-4.209 4.792,-6.719 9.406,-6.833c-0.302,3.22 -0.579,6.169 -0.855,9.113c-6.687,1.486 -6.819,1.649 -6.534,8.315c-1.583,1.269 -3.238,2.596 -5.685,4.557c6.226,-1.428 7.436,-2.953 8.025,-9.211c0.938,-0.325 1.962,-0.799 3.039,-1.035c4.009,-0.875 4.11,-0.859 3.682,-5.037c-0.251,-2.445 0.739,-3.996 3.163,-5.664c0.451,1.766 0.892,3.088 1.115,4.445c0.316,1.923 0.547,3.867 0.687,5.81c0.517,7.404 -0.06,14.643 -3.457,21.43c-4.159,8.313 -8.334,16.622 -12.413,24.973c-1.174,2.404 -2.482,4.234 -5.172,5.433c-4.265,1.907 -7.421,6.556 -7.757,10.832c15.258,2.949 26.312,6.953 41.04,18.833c9.647,7.785 19.862,11.309 29.399,12.456c0.003,-0.004 10.248,-13.711 19.753,-32.558c-0.241,-0.365 -0.484,-0.728 -0.723,-1.095c-6.25,-9.478 -11.533,-18.592 -13.049,-22.521c-2.853,-7.395 -3.838,-14.659 -2.132,-22.466c1.983,-9.083 3.633,-18.206 7.761,-26.672c2.412,-4.95 6.15,-7.711 11.519,-8.858c6.366,-1.36 12.689,-3.037 18.94,-4.868c6.706,-1.966 9.308,-7.753 6.747,-14.275Z"
                  style="fill:url(#_Linear1);fill-rule:nonzero;stroke:#322727;stroke-opacity:0.658824;stroke-width:1.16px;"/>
        </g>
    </g>
    <g transform="matrix(1.24831,0.000988603,-0.000940372,1.18741,-2.01707,-37.6817)">
        <path d="M45.866,225.99l-1.983,-2.842c1.15,-0.493 1.819,-1.466 1.819,-2.792c0,-1.983 -1.478,-3.209 -3.84,-3.209l-3.828,0l0,8.843l2.047,0l0,-2.463l1.882,0l1.705,2.463l2.198,0Zm-2.236,-5.634c0,0.96 -0.631,1.541 -1.882,1.541l-1.667,0l0,-3.082l1.667,0c1.251,0 1.882,0.568 1.882,1.541Z"
              style="fill-rule:nonzero;"/>
        <path d="M52.107,219.194l0,0.72c-0.493,-0.556 -1.2,-0.821 -2.034,-0.821c-1.92,0 -3.398,1.364 -3.398,3.499c0,2.135 1.478,3.499 3.398,3.499c0.91,0 1.63,-0.291 2.122,-0.884l0,0.783l1.883,0l0,-6.796l-1.971,0Zm-1.693,5.28c-0.985,0 -1.743,-0.707 -1.743,-1.882c0,-1.175 0.758,-1.882 1.743,-1.882c0.973,0 1.731,0.707 1.731,1.882c0,1.175 -0.758,1.882 -1.731,1.882Z"
              style="fill-rule:nonzero;"/>
        <path d="M59.181,226.091c1.428,0 2.552,-0.632 3.044,-1.718l-1.528,-0.834c-0.366,0.657 -0.91,0.935 -1.529,0.935c-0.998,0 -1.781,-0.695 -1.781,-1.882c0,-1.188 0.783,-1.882 1.781,-1.882c0.619,0 1.163,0.29 1.529,0.934l1.528,-0.821c-0.492,-1.111 -1.616,-1.73 -3.044,-1.73c-2.211,0 -3.79,1.452 -3.79,3.499c0,2.046 1.579,3.499 3.79,3.499Z"
              style="fill-rule:nonzero;"/>
        <path d="M68.386,225.99l2.387,0l-3.082,-3.916l2.83,-2.88l-2.35,0l-2.88,2.728l0,-5.305l-1.971,0l0,9.373l1.971,0l0,-1.731l0.947,-0.935l2.148,2.666Z"
              style="fill-rule:nonzero;"/>
        <path d="M79.351,216.996c-2.426,0 -4.055,1.465 -4.055,4.156l0,4.838l2.021,0l0,-2.122l4.042,0l0,2.122l2.047,0l0,-4.838c0,-2.691 -1.63,-4.156 -4.055,-4.156Zm-2.034,5.229l0,-1.263c0,-1.503 0.796,-2.223 2.021,-2.223c1.213,0 2.021,0.72 2.021,2.223l0,1.263l-4.042,0Z"
              style="fill-rule:nonzero;"/>
        <path d="M90.164,219.194l0,3.36c0,1.25 -0.657,1.832 -1.566,1.832c-0.872,0 -1.377,-0.506 -1.377,-1.643l0,-3.549l-1.971,0l0,3.84c0,2.097 1.2,3.057 2.906,3.057c0.833,0 1.591,-0.316 2.109,-0.91l0,0.809l1.87,0l0,-6.796l-1.971,0Z"
              style="fill-rule:nonzero;"/>
        <path d="M98.919,216.617l0,3.297c-0.493,-0.556 -1.201,-0.821 -2.034,-0.821c-1.92,0 -3.398,1.364 -3.398,3.499c0,2.135 1.478,3.499 3.398,3.499c0.909,0 1.629,-0.291 2.122,-0.884l0,0.783l1.882,0l0,-9.373l-1.97,0Zm-1.693,7.857c-0.986,0 -1.744,-0.707 -1.744,-1.882c0,-1.175 0.758,-1.882 1.744,-1.882c0.972,0 1.73,0.707 1.73,1.882c0,1.175 -0.758,1.882 -1.73,1.882Z"
              style="fill-rule:nonzero;"/>
        <path d="M103.694,218.246c0.732,0 1.225,-0.48 1.225,-1.137c0,-0.606 -0.493,-1.061 -1.225,-1.061c-0.733,0 -1.226,0.48 -1.226,1.099c0,0.619 0.493,1.099 1.226,1.099Zm-0.986,7.744l1.971,0l0,-6.796l-1.971,0l0,6.796Z"
              style="fill-rule:nonzero;"/>
        <path d="M109.745,226.091c2.16,0 3.726,-1.453 3.726,-3.499c0,-2.047 -1.566,-3.499 -3.726,-3.499c-2.161,0 -3.74,1.452 -3.74,3.499c0,2.046 1.579,3.499 3.74,3.499Zm0,-1.617c-0.986,0 -1.744,-0.707 -1.744,-1.882c0,-1.175 0.758,-1.882 1.744,-1.882c0.985,0 1.73,0.707 1.73,1.882c0,1.175 -0.745,1.882 -1.73,1.882Z"
              style="fill-rule:nonzero;"/>
        <path d="M128.592,216.996c-1.212,0 -2.248,0.454 -2.855,1.301c-0.492,-0.834 -1.414,-1.301 -2.64,-1.301c-1.175,0 -2.084,0.454 -2.615,1.238l0,-1.087l-1.983,0l0,8.843l2.046,0l0,-5.243c0,-1.402 0.809,-2.008 1.895,-2.008c1.011,0 1.693,0.594 1.693,1.882l0,5.369l2.047,0l0,-5.243c0,-1.402 0.795,-2.008 1.907,-2.008c1.011,0 1.769,0.594 1.769,1.882l0,5.369l2.046,0l0,-5.432c0,-2.337 -1.251,-3.562 -3.31,-3.562Z"
              style="fill-rule:nonzero;"/>
        <path d="M137.018,226.091c2.16,0 3.727,-1.453 3.727,-3.499c0,-2.047 -1.567,-3.499 -3.727,-3.499c-2.16,0 -3.739,1.452 -3.739,3.499c0,2.046 1.579,3.499 3.739,3.499Zm0,-1.617c-0.985,0 -1.743,-0.707 -1.743,-1.882c0,-1.175 0.758,-1.882 1.743,-1.882c0.986,0 1.731,0.707 1.731,1.882c0,1.175 -0.745,1.882 -1.731,1.882Z"
              style="fill-rule:nonzero;"/>
        <path d="M147.011,216.617l0,3.297c-0.493,-0.556 -1.201,-0.821 -2.034,-0.821c-1.92,0 -3.398,1.364 -3.398,3.499c0,2.135 1.478,3.499 3.398,3.499c0.909,0 1.629,-0.291 2.122,-0.884l0,0.783l1.882,0l0,-9.373l-1.97,0Zm-1.693,7.857c-0.986,0 -1.744,-0.707 -1.744,-1.882c0,-1.175 0.758,-1.882 1.744,-1.882c0.972,0 1.73,0.707 1.73,1.882c0,1.175 -0.758,1.882 -1.73,1.882Z"
              style="fill-rule:nonzero;"/>
        <path d="M155.676,219.194l0,3.36c0,1.25 -0.656,1.832 -1.566,1.832c-0.872,0 -1.377,-0.506 -1.377,-1.643l0,-3.549l-1.971,0l0,3.84c0,2.097 1.2,3.057 2.906,3.057c0.834,0 1.592,-0.316 2.11,-0.91l0,0.809l1.869,0l0,-6.796l-1.971,0Z"
              style="fill-rule:nonzero;"/>
        <path d="M161.917,226.091c0.341,0 0.682,-0.051 1.023,-0.164l-0.088,-1.529c-0.114,0.063 -0.341,0.127 -0.556,0.127c-0.543,0 -0.846,-0.316 -0.846,-0.897l0,-7.011l-1.971,0l0,7.124c0,1.516 0.909,2.35 2.438,2.35Z"
              style="fill-rule:nonzero;"/>
        <path d="M167.23,224.512c-0.884,0 -1.516,-0.341 -1.806,-1.011l5.028,-0.972c-0.013,-2.173 -1.592,-3.436 -3.512,-3.436c-2.097,0 -3.638,1.465 -3.638,3.499c0,2.021 1.528,3.499 3.878,3.499c1.225,0 2.173,-0.379 2.804,-1.099l-1.048,-1.137c-0.468,0.442 -0.986,0.657 -1.706,0.657Zm-0.29,-3.929c0.821,0 1.415,0.468 1.604,1.162l-3.31,0.645c0.038,-1.15 0.72,-1.807 1.706,-1.807Z"
              style="fill-rule:nonzero;"/>
        <path d="M174.065,226.091c2.033,0 3.208,-0.897 3.208,-2.16c0,-2.678 -4.105,-1.554 -4.105,-2.716c0,-0.354 0.379,-0.632 1.263,-0.632c0.619,0 1.288,0.127 1.958,0.506l0.657,-1.403c-0.644,-0.379 -1.68,-0.593 -2.615,-0.593c-1.983,0 -3.146,0.909 -3.146,2.198c0,2.716 4.106,1.579 4.106,2.69c0,0.379 -0.341,0.619 -1.251,0.619c-0.833,0 -1.756,-0.265 -2.362,-0.657l-0.657,1.415c0.632,0.417 1.794,0.733 2.944,0.733Z"
              style="fill-rule:nonzero;"/>
    </g>
    <g transform="matrix(7.14363,0,0,0.197353,-720.455,212.069)">
        <rect x="102.803"
              y="258.151"
              width="32.197"
              height="4.38"
              style="fill-opacity:0.427451;"/>
    </g>
    <g transform="matrix(7.14363,0,0,0.197353,-720.455,273.76)">
        <rect x="102.803"
              y="258.151"
              width="32.197"
              height="4.38"
              style="fill-opacity:0.427451;"/>
    </g>
    <g transform="matrix(1,0,0,1,10.4439,-6.22244)">
        <path d="M58.281,290.277c-1.752,0 -3.144,-1.2 -3.144,-3.384c0,-2.184 1.188,-3.612 3.108,-3.612c0.768,0 1.392,0.18 1.896,0.384l0.336,-0.876c-0.564,-0.24 -1.308,-0.432 -2.232,-0.432c-2.376,0 -4.164,1.596 -4.164,4.536c0,2.664 1.656,4.308 4.212,4.308c0.984,0 1.824,-0.252 2.364,-0.516l-0.3,-0.888c-0.468,0.228 -1.26,0.48 -2.076,0.48Z"
              style="fill-rule:nonzero;"/>
        <path d="M64.569,290.397c-1.14,0 -1.968,-0.744 -1.968,-2.256c0,-1.524 0.72,-2.256 1.98,-2.256c1.14,0 1.956,0.732 1.956,2.256c0,1.5 -0.708,2.256 -1.968,2.256Zm0.012,-5.316c-1.584,0 -2.964,1.008 -2.964,3.06c0,2.04 1.284,3.06 2.952,3.06c1.572,0 2.952,-1.02 2.952,-3.06c0,-2.052 -1.284,-3.06 -2.94,-3.06Z"
              style="fill-rule:nonzero;"/>
        <path d="M71.541,290.397c-0.66,0 -1.248,-0.24 -1.68,-0.768l0,-2.772c0.42,-0.612 1.08,-0.972 1.74,-0.972c1.188,0 1.74,0.696 1.74,2.052c0,1.548 -0.768,2.46 -1.8,2.46Zm0.06,-5.316c-0.78,0 -1.464,0.384 -1.836,0.9l-0.048,0l-0.108,-0.756l-0.708,0l0,9.036l0.96,0l0,-3.576l0.048,0c0.372,0.3 0.996,0.516 1.632,0.516c1.536,0 2.784,-1.224 2.784,-3.264c0,-1.944 -1.02,-2.856 -2.724,-2.856Z"
              style="fill-rule:nonzero;"/>
        <path d="M77.841,290.001l-0.048,0l-1.752,-4.776l-1.044,0l2.328,5.832c-0.348,0.768 -0.588,1.248 -0.924,1.644c-0.36,0.408 -0.84,0.744 -1.02,0.84l0.132,0.864c0.48,-0.216 1.152,-0.744 1.476,-1.116c0.48,-0.564 0.888,-1.176 1.284,-2.232l2.22,-5.832l-0.996,0l-1.656,4.776Z"
              style="fill-rule:nonzero;"/>
        <path d="M84.237,285.081c-0.588,0 -1.056,0.18 -1.752,1.224l-0.048,0l-0.156,-1.08l-0.708,0l0,5.832l0.96,0l0,-3.504c0.648,-1.14 1.02,-1.644 1.536,-1.644c0.276,0 0.528,0.18 0.66,0.264l0.444,-0.804c-0.204,-0.12 -0.468,-0.288 -0.936,-0.288Z"
              style="fill-rule:nonzero;"/>
        <path d="M86.673,284.265c0.36,0 0.648,-0.288 0.648,-0.648c0,-0.36 -0.288,-0.648 -0.648,-0.648c-0.36,0 -0.648,0.288 -0.648,0.648c0,0.36 0.288,0.648 0.648,0.648Zm0.48,6.792l0,-5.832l-0.96,0l0,5.832l0.96,0Z"
              style="fill-rule:nonzero;"/>
        <path d="M91.173,288.921c-0.6,0 -1.056,-0.24 -1.284,-0.588c-0.18,-0.264 -0.252,-0.6 -0.252,-0.96c0,-0.876 0.528,-1.512 1.536,-1.512c1.02,0 1.512,0.708 1.512,1.548c0,0.768 -0.576,1.512 -1.512,1.512Zm0.516,2.58c1.056,0.144 1.356,0.504 1.356,1.092c0,0.648 -0.528,1.032 -1.764,1.032c-1.344,0 -1.92,-0.552 -1.92,-1.116c0,-0.648 0.516,-1.02 1.008,-1.188l1.32,0.18Zm2.22,-5.868c0.156,0 0.288,0.012 0.384,0.036l0.156,-0.756c-0.132,-0.036 -0.3,-0.06 -0.504,-0.06c-0.492,0 -0.996,0.096 -1.5,0.528c-0.348,-0.192 -0.792,-0.3 -1.272,-0.3c-1.272,0 -2.46,0.78 -2.46,2.292c0,0.924 0.432,1.596 1.056,1.968c-0.06,0.396 -0.192,1.272 -0.252,1.584c-0.504,0.132 -1.092,0.768 -1.092,1.608c0,1.188 1.14,1.872 2.88,1.872c1.56,0 2.664,-0.624 2.664,-1.776c0,-1.104 -0.636,-1.68 -2.1,-1.872l-1.452,-0.192l0.144,-0.972c0.144,0.036 0.396,0.06 0.6,0.06c1.452,0 2.46,-0.924 2.46,-2.244c0,-0.576 -0.216,-1.116 -0.564,-1.524l0,-0.024c0.24,-0.168 0.66,-0.228 0.852,-0.228Z"
              style="fill-rule:nonzero;"/>
        <path d="M98.661,285.081c-1.032,0 -1.824,0.516 -2.292,1.152l-0.048,0l0,-4.368l-0.96,0l0,9.192l0.96,0l0,-3.624c0.54,-0.792 1.2,-1.548 2.232,-1.548c0.288,0 0.516,0.108 0.636,0.324c0.072,0.132 0.096,0.432 0.096,0.6l0,4.248l0.96,0l0,-4.272c0,-1.14 -0.456,-1.704 -1.584,-1.704Z"
              style="fill-rule:nonzero;"/>
        <path d="M105.585,290.601l-0.348,-0.72c-0.36,0.24 -0.864,0.492 -1.32,0.492c-0.336,0 -0.444,-0.336 -0.444,-0.768l0,-3.576l1.812,0l0,-0.804l-1.812,0l0,-1.896l-0.96,0l0,1.884l-1.188,0.18l0,0.636l1.188,0l0,3.54c0,1.116 0.372,1.632 1.284,1.632c0.744,0 1.404,-0.336 1.788,-0.6Z"
              style="fill-rule:nonzero;"/>
        <path d="M110.901,290.109c0,-0.984 1.02,-1.728 1.836,-2.268c1.164,-0.768 2.592,-1.524 2.592,-2.94c0,-1.608 -1.032,-2.544 -2.856,-2.544c-0.972,0 -1.728,0.276 -2.496,0.78l0.396,0.84c0.564,-0.396 1.344,-0.696 1.992,-0.696c1.344,0 1.944,0.576 1.944,1.608c0,0.96 -1.128,1.476 -2.268,2.256c-1.056,0.732 -2.196,1.62 -2.196,3.192l0,0.72l5.616,0l0,-0.948l-4.56,0Z"
              style="fill-rule:nonzero;"/>
        <path d="M119.949,290.301c-1.332,0 -2.304,-1.32 -2.304,-3.492c0,-2.184 0.888,-3.552 2.388,-3.552c1.332,0 2.28,1.32 2.28,3.492c0,2.172 -0.852,3.552 -2.364,3.552Zm0.084,-7.944c-1.932,0 -3.432,1.536 -3.432,4.452c0,2.568 1.296,4.392 3.336,4.392c1.992,0 3.42,-1.584 3.42,-4.452c0,-2.556 -1.248,-4.392 -3.324,-4.392Z"
              style="fill-rule:nonzero;"/>
        <path d="M126.945,282.501c-0.624,0.816 -1.428,1.176 -2.316,1.356l0.24,0.912c0.636,-0.144 1.344,-0.384 1.8,-0.732l0.048,0c0,2.448 0,4.572 0,7.02l1.02,0l0,-8.556l-0.792,0Z"
              style="fill-rule:nonzero;"/>
        <path d="M129.357,283.449l4.524,0l0,0.036c-2.316,2.796 -2.868,6.204 -2.868,7.572l1.044,0c0,-2.676 1.164,-5.364 3.036,-7.704l0,-0.852l-5.736,0l0,0.948Z"
              style="fill-rule:nonzero;"/>
        <rect x="139.305"
              y="287.109"
              width="3.024"
              height="0.732"
              style="fill-rule:nonzero;"/>
        <path d="M148.005,290.109c0,-0.984 1.02,-1.728 1.836,-2.268c1.164,-0.768 2.592,-1.524 2.592,-2.94c0,-1.608 -1.032,-2.544 -2.856,-2.544c-0.972,0 -1.728,0.276 -2.496,0.78l0.396,0.84c0.564,-0.396 1.344,-0.696 1.992,-0.696c1.344,0 1.944,0.576 1.944,1.608c0,0.96 -1.128,1.476 -2.268,2.256c-1.056,0.732 -2.196,1.62 -2.196,3.192l0,0.72l5.616,0l0,-0.948l-4.56,0Z"
              style="fill-rule:nonzero;"/>
        <path d="M157.053,290.301c-1.332,0 -2.304,-1.32 -2.304,-3.492c0,-2.184 0.888,-3.552 2.388,-3.552c1.332,0 2.28,1.32 2.28,3.492c0,2.172 -0.852,3.552 -2.364,3.552Zm0.084,-7.944c-1.932,0 -3.432,1.536 -3.432,4.452c0,2.568 1.296,4.392 3.336,4.392c1.992,0 3.42,-1.584 3.42,-4.452c0,-2.556 -1.248,-4.392 -3.324,-4.392Z"
              style="fill-rule:nonzero;"/>
        <path d="M164.049,282.501c-0.624,0.816 -1.428,1.176 -2.316,1.356l0.24,0.912c0.636,-0.144 1.344,-0.384 1.8,-0.732l0.048,0c0,2.448 0,4.572 0,7.02l1.02,0l0,-8.556l-0.792,0Z"
              style="fill-rule:nonzero;"/>
        <path d="M169.461,283.257c1.428,0 2.004,0.756 2.004,2.076c0,0.492 -0.204,0.852 -0.528,1.116c-0.42,0.348 -0.996,0.528 -1.596,0.528c-1.152,0 -1.764,-0.6 -1.764,-1.824c0,-1.356 0.828,-1.896 1.884,-1.896Zm-0.168,4.62c0.792,0 1.44,-0.18 2.1,-0.732l0.048,0c-0.036,0.408 -0.156,0.828 -0.3,1.128c-0.876,1.824 -2.232,2.028 -3.636,2.028l0,0.9c1.116,0 2.664,-0.18 3.684,-1.32c1.008,-1.104 1.284,-2.412 1.284,-4.14c0,-2.292 -1.008,-3.384 -3.012,-3.384c-1.692,0 -2.892,1.104 -2.892,2.856c0,1.476 0.96,2.664 2.724,2.664Z"
              style="fill-rule:nonzero;"/>
        <path d="M179.661,290.397c-0.348,0 -0.948,-0.132 -1.248,-0.288l0,-3.408c0.324,-0.552 1.056,-0.816 1.668,-0.816c1.176,0 1.764,0.756 1.764,2.136c0,1.5 -0.9,2.376 -2.184,2.376Zm0.42,-5.316c-0.552,0 -1.176,0.156 -1.62,0.552l-0.048,0l0,-3.768l-0.96,0l0,8.784c0.444,0.276 1.416,0.552 2.208,0.552c1.608,0 3.168,-1.092 3.168,-3.18c0,-2.004 -1.092,-2.94 -2.748,-2.94Z"
              style="fill-rule:nonzero;"/>
        <path d="M186.345,290.001l-0.048,0l-1.752,-4.776l-1.044,0l2.328,5.832c-0.348,0.768 -0.588,1.248 -0.924,1.644c-0.36,0.408 -0.84,0.744 -1.02,0.84l0.132,0.864c0.48,-0.216 1.152,-0.744 1.476,-1.116c0.48,-0.564 0.888,-1.176 1.284,-2.232l2.22,-5.832l-0.996,0l-1.656,4.776Z"
              style="fill-rule:nonzero;"/>
        <path d="M56.787,296.501l-1.02,0l0,8.556l4.848,0l0,-0.96l-3.828,0l0,-7.596Z"
              style="fill-rule:nonzero;"/>
        <path d="M62.235,298.265c0.36,0 0.648,-0.288 0.648,-0.648c0,-0.36 -0.288,-0.648 -0.648,-0.648c-0.36,0 -0.648,0.288 -0.648,0.648c0,0.36 0.288,0.648 0.648,0.648Zm0.48,6.792l0,-5.832l-0.96,0l0,5.832l0.96,0Z"
              style="fill-rule:nonzero;"/>
        <path d="M67.815,299.081c-1.092,0 -1.86,0.564 -2.388,1.236l-0.048,0l-0.156,-1.092l-0.708,0l0,5.832l0.96,0l0,-3.624c0.54,-0.828 1.224,-1.548 2.232,-1.548c0.288,0 0.516,0.108 0.636,0.324c0.072,0.132 0.096,0.432 0.096,0.6l0,4.248l0.96,0l0,-4.272c0,-1.14 -0.456,-1.704 -1.584,-1.704Z"
              style="fill-rule:nonzero;"/>
        <path d="M75.243,303.521c-0.384,0.516 -1.032,0.876 -1.692,0.876c-1.092,0 -1.788,-0.72 -1.788,-2.124c0,-1.548 0.792,-2.388 1.764,-2.388c0.756,0 1.344,0.24 1.716,0.768l0,2.868Zm0,-3.936l-0.048,0c-0.336,-0.3 -1.02,-0.504 -1.668,-0.504c-1.452,0 -2.748,1.14 -2.748,3.192c0,1.968 1.176,2.928 2.772,2.928c0.78,0 1.548,-0.444 1.8,-0.816l0.048,0l0.096,0.672l0.708,0l0,-9.192l-0.96,0l0,3.72Z"
              style="fill-rule:nonzero;"/>
        <path d="M78.579,301.433c0.204,-0.984 0.732,-1.572 1.776,-1.572c0.528,0 0.912,0.18 1.152,0.468c0.252,0.288 0.36,0.708 0.384,1.104l-3.312,0Zm4.272,0.468c0,-1.284 -0.564,-2.82 -2.46,-2.82c-0.792,0 -1.392,0.216 -1.872,0.672c-0.588,0.552 -0.936,1.44 -0.936,2.496c0,1.836 1.164,2.952 2.94,2.952c0.672,0 1.428,-0.156 2.004,-0.492l-0.36,-0.744c-0.468,0.276 -1.068,0.444 -1.644,0.444c-1.104,0 -1.992,-0.624 -1.992,-2.196l4.296,0c0.012,-0.096 0.024,-0.192 0.024,-0.312Z"
              style="fill-rule:nonzero;"/>
        <path d="M87.495,299.081c-1.092,0 -1.86,0.564 -2.388,1.236l-0.048,0l-0.156,-1.092l-0.708,0l0,5.832l0.96,0l0,-3.624c0.54,-0.828 1.224,-1.548 2.232,-1.548c0.288,0 0.516,0.108 0.636,0.324c0.072,0.132 0.096,0.432 0.096,0.6l0,4.248l0.96,0l0,-4.272c0,-1.14 -0.456,-1.704 -1.584,-1.704Z"
              style="fill-rule:nonzero;"/>
        <path d="M93.027,304.397c-0.348,0 -0.948,-0.132 -1.248,-0.288l0,-3.408c0.324,-0.552 1.056,-0.816 1.668,-0.816c1.176,0 1.764,0.756 1.764,2.136c0,1.5 -0.9,2.376 -2.184,2.376Zm0.42,-5.316c-0.552,0 -1.176,0.156 -1.62,0.552l-0.048,0l0,-3.768l-0.96,0l0,8.784c0.444,0.276 1.416,0.552 2.208,0.552c1.608,0 3.168,-1.092 3.168,-3.18c0,-2.004 -1.092,-2.94 -2.748,-2.94Z"
              style="fill-rule:nonzero;"/>
        <path d="M98.295,301.433c0.204,-0.984 0.732,-1.572 1.776,-1.572c0.528,0 0.912,0.18 1.152,0.468c0.252,0.288 0.36,0.708 0.384,1.104l-3.312,0Zm4.272,0.468c0,-1.284 -0.564,-2.82 -2.46,-2.82c-0.792,0 -1.392,0.216 -1.872,0.672c-0.588,0.552 -0.936,1.44 -0.936,2.496c0,1.836 1.164,2.952 2.94,2.952c0.672,0 1.428,-0.156 2.004,-0.492l-0.36,-0.744c-0.468,0.276 -1.068,0.444 -1.644,0.444c-1.104,0 -1.992,-0.624 -1.992,-2.196l4.296,0c0.012,-0.096 0.024,-0.192 0.024,-0.312Z"
              style="fill-rule:nonzero;"/>
        <path d="M106.575,299.081c-0.588,0 -1.056,0.18 -1.752,1.224l-0.048,0l-0.156,-1.08l-0.708,0l0,5.832l0.96,0l0,-3.504c0.648,-1.14 1.02,-1.644 1.536,-1.644c0.276,0 0.528,0.18 0.66,0.264l0.444,-0.804c-0.204,-0.12 -0.468,-0.288 -0.936,-0.288Z"
              style="fill-rule:nonzero;"/>
        <path d="M110.523,302.921c-0.6,0 -1.056,-0.24 -1.284,-0.588c-0.18,-0.264 -0.252,-0.6 -0.252,-0.96c0,-0.876 0.528,-1.512 1.536,-1.512c1.02,0 1.512,0.708 1.512,1.548c0,0.768 -0.576,1.512 -1.512,1.512Zm0.516,2.58c1.056,0.144 1.356,0.504 1.356,1.092c0,0.648 -0.528,1.032 -1.764,1.032c-1.344,0 -1.92,-0.552 -1.92,-1.116c0,-0.648 0.516,-1.02 1.008,-1.188l1.32,0.18Zm2.22,-5.868c0.156,0 0.288,0.012 0.384,0.036l0.156,-0.756c-0.132,-0.036 -0.3,-0.06 -0.504,-0.06c-0.492,0 -0.996,0.096 -1.5,0.528c-0.348,-0.192 -0.792,-0.3 -1.272,-0.3c-1.272,0 -2.46,0.78 -2.46,2.292c0,0.924 0.432,1.596 1.056,1.968c-0.06,0.396 -0.192,1.272 -0.252,1.584c-0.504,0.132 -1.092,0.768 -1.092,1.608c0,1.188 1.14,1.872 2.88,1.872c1.56,0 2.664,-0.624 2.664,-1.776c0,-1.104 -0.636,-1.68 -2.1,-1.872l-1.452,-0.192l0.144,-0.972c0.144,0.036 0.396,0.06 0.6,0.06c1.452,0 2.46,-0.924 2.46,-2.244c0,-0.576 -0.216,-1.116 -0.564,-1.524l0,-0.024c0.24,-0.168 0.66,-0.228 0.852,-0.228Z"
              style="fill-rule:nonzero;"/>
        <path d="M119.331,297.449l1.62,0c1.704,0 2.316,0.408 2.316,1.5c0,1.056 -0.588,1.584 -2.148,1.584l-1.788,0l0,-3.084Zm2.832,3.936c1.212,-0.24 2.124,-0.936 2.124,-2.388c0,-1.8 -1.092,-2.496 -3.384,-2.496l-2.592,0l0,8.556l1.02,0l0,-3.588l1.704,0l2.28,3.588l1.2,0l-2.352,-3.624l0,-0.048Z"
              style="fill-rule:nonzero;"/>
        <path d="M126.315,301.433c0.204,-0.984 0.732,-1.572 1.776,-1.572c0.528,0 0.912,0.18 1.152,0.468c0.252,0.288 0.36,0.708 0.384,1.104l-3.312,0Zm4.272,0.468c0,-1.284 -0.564,-2.82 -2.46,-2.82c-0.792,0 -1.392,0.216 -1.872,0.672c-0.588,0.552 -0.936,1.44 -0.936,2.496c0,1.836 1.164,2.952 2.94,2.952c0.672,0 1.428,-0.156 2.004,-0.492l-0.36,-0.744c-0.468,0.276 -1.068,0.444 -1.644,0.444c-1.104,0 -1.992,-0.624 -1.992,-2.196l4.296,0c0.012,-0.096 0.024,-0.192 0.024,-0.312Z"
              style="fill-rule:nonzero;"/>
        <path d="M134.175,301.589c-0.876,-0.3 -1.464,-0.408 -1.464,-0.912c0,-0.648 0.492,-0.792 1.212,-0.792c0.6,0 1.032,0.108 1.512,0.324l0.264,-0.756c-0.48,-0.24 -1.044,-0.372 -1.752,-0.372c-1.44,0 -2.196,0.672 -2.196,1.62c0,0.852 0.552,1.176 1.74,1.584c1.02,0.348 1.404,0.564 1.404,1.248c0,0.636 -0.444,0.864 -1.392,0.864c-0.636,0 -1.248,-0.264 -1.632,-0.468l-0.312,0.756c0.456,0.3 1.284,0.516 1.908,0.516c1.596,0 2.388,-0.612 2.388,-1.704c0,-0.912 -0.528,-1.5 -1.68,-1.908Z"
              style="fill-rule:nonzero;"/>
        <path d="M137.919,301.433c0.204,-0.984 0.732,-1.572 1.776,-1.572c0.528,0 0.912,0.18 1.152,0.468c0.252,0.288 0.36,0.708 0.384,1.104l-3.312,0Zm4.272,0.468c0,-1.284 -0.564,-2.82 -2.46,-2.82c-0.792,0 -1.392,0.216 -1.872,0.672c-0.588,0.552 -0.936,1.44 -0.936,2.496c0,1.836 1.164,2.952 2.94,2.952c0.672,0 1.428,-0.156 2.004,-0.492l-0.36,-0.744c-0.468,0.276 -1.068,0.444 -1.644,0.444c-1.104,0 -1.992,-0.624 -1.992,-2.196l4.296,0c0.012,-0.096 0.024,-0.192 0.024,-0.312Z"
              style="fill-rule:nonzero;"/>
        <path d="M147.543,303.929l0,-3.324c0,-0.888 -0.648,-1.524 -1.86,-1.524c-1.212,0 -2.088,0.444 -2.088,1.284c0,0.096 0.024,0.18 0.036,0.24l0.96,-0.144c-0.012,-0.048 -0.024,-0.108 -0.024,-0.156c0,-0.324 0.48,-0.432 0.984,-0.432c0.636,0 1.044,0.3 1.056,0.648l0,1.02l-2.148,0.324c-0.816,0.18 -1.344,0.816 -1.344,1.74c0,0.96 0.54,1.596 1.8,1.596c0.48,0 1.2,-0.156 1.788,-0.72l0.048,0c0.276,0.54 0.744,0.576 1.296,0.6l0,-0.852c-0.312,-0.024 -0.48,-0.156 -0.504,-0.3Zm-0.936,-0.276c-0.564,0.54 -1.236,0.756 -1.704,0.756c-0.54,0 -0.828,-0.384 -0.828,-0.888c0,-0.612 0.36,-0.828 0.672,-0.9l1.86,-0.276l0,1.308Z"
              style="fill-rule:nonzero;"/>
        <path d="M151.947,299.081c-0.588,0 -1.056,0.18 -1.752,1.224l-0.048,0l-0.156,-1.08l-0.708,0l0,5.832l0.96,0l0,-3.504c0.648,-1.14 1.02,-1.644 1.536,-1.644c0.276,0 0.528,0.18 0.66,0.264l0.444,-0.804c-0.204,-0.12 -0.468,-0.288 -0.936,-0.288Z"
              style="fill-rule:nonzero;"/>
        <path d="M157.791,303.941c-0.396,0.228 -0.888,0.456 -1.548,0.456c-1.176,0 -1.956,-0.744 -1.956,-2.244c0,-1.56 0.804,-2.268 2.112,-2.268c0.48,0 0.996,0.156 1.296,0.3l0.276,-0.78c-0.456,-0.192 -0.948,-0.324 -1.572,-0.324c-1.656,0 -3.096,1.008 -3.096,3.072c0,2.052 1.26,3.048 2.94,3.048c0.78,0 1.404,-0.204 1.908,-0.528l-0.36,-0.732Z"
              style="fill-rule:nonzero;"/>
        <path d="M162.711,299.081c-1.032,0 -1.824,0.516 -2.292,1.152l-0.048,0l0,-4.368l-0.96,0l0,9.192l0.96,0l0,-3.624c0.54,-0.792 1.2,-1.548 2.232,-1.548c0.288,0 0.516,0.108 0.636,0.324c0.072,0.132 0.096,0.432 0.096,0.6l0,4.248l0.96,0l0,-4.272c0,-1.14 -0.456,-1.704 -1.584,-1.704Z"
              style="fill-rule:nonzero;"/>
        <path d="M173.583,303.929l0,-3.324c0,-0.888 -0.648,-1.524 -1.86,-1.524c-1.212,0 -2.088,0.444 -2.088,1.284c0,0.096 0.024,0.18 0.036,0.24l0.96,-0.144c-0.012,-0.048 -0.024,-0.108 -0.024,-0.156c0,-0.324 0.48,-0.432 0.984,-0.432c0.636,0 1.044,0.3 1.056,0.648l0,1.02l-2.148,0.324c-0.816,0.18 -1.344,0.816 -1.344,1.74c0,0.96 0.54,1.596 1.8,1.596c0.48,0 1.2,-0.156 1.788,-0.72l0.048,0c0.276,0.54 0.744,0.576 1.296,0.6l0,-0.852c-0.312,-0.024 -0.48,-0.156 -0.504,-0.3Zm-0.936,-0.276c-0.564,0.54 -1.236,0.756 -1.704,0.756c-0.54,0 -0.828,-0.384 -0.828,-0.888c0,-0.612 0.36,-0.828 0.672,-0.9l1.86,-0.276l0,1.308Z"
              style="fill-rule:nonzero;"/>
        <path d="M178.623,299.081c-1.092,0 -1.86,0.564 -2.388,1.236l-0.048,0l-0.156,-1.092l-0.708,0l0,5.832l0.96,0l0,-3.624c0.54,-0.828 1.224,-1.548 2.232,-1.548c0.288,0 0.516,0.108 0.636,0.324c0.072,0.132 0.096,0.432 0.096,0.6l0,4.248l0.96,0l0,-4.272c0,-1.14 -0.456,-1.704 -1.584,-1.704Z"
              style="fill-rule:nonzero;"/>
        <path d="M186.051,303.521c-0.384,0.516 -1.032,0.876 -1.692,0.876c-1.092,0 -1.788,-0.72 -1.788,-2.124c0,-1.548 0.792,-2.388 1.764,-2.388c0.756,0 1.344,0.24 1.716,0.768l0,2.868Zm0,-3.936l-0.048,0c-0.336,-0.3 -1.02,-0.504 -1.668,-0.504c-1.452,0 -2.748,1.14 -2.748,3.192c0,1.968 1.176,2.928 2.772,2.928c0.78,0 1.548,-0.444 1.8,-0.816l0.048,0l0.096,0.672l0.708,0l0,-9.192l-0.96,0l0,3.72Z"
              style="fill-rule:nonzero;"/>
        <path d="M73.815,314.869l0,-3.42l1.584,0c1.704,0 2.256,0.576 2.256,1.668c0,1.068 -0.576,1.752 -2.34,1.752l-1.5,0Zm4.86,-1.704c0,-1.8 -1.032,-2.664 -3.324,-2.664l-2.556,0l0,8.556l1.02,0l0,-3.252l1.536,0c2.124,0 3.324,-0.84 3.324,-2.64Z"
              style="fill-rule:nonzero;"/>
        <path d="M83.991,317.929l0,-3.324c0,-0.888 -0.648,-1.524 -1.86,-1.524c-1.212,0 -2.088,0.444 -2.088,1.284c0,0.096 0.024,0.18 0.036,0.24l0.96,-0.144c-0.012,-0.048 -0.024,-0.108 -0.024,-0.156c0,-0.324 0.48,-0.432 0.984,-0.432c0.636,0 1.044,0.3 1.056,0.648l0,1.02l-2.148,0.324c-0.816,0.18 -1.344,0.816 -1.344,1.74c0,0.96 0.54,1.596 1.8,1.596c0.48,0 1.2,-0.156 1.788,-0.72l0.048,0c0.276,0.54 0.744,0.576 1.296,0.6l0,-0.852c-0.312,-0.024 -0.48,-0.156 -0.504,-0.3Zm-0.936,-0.276c-0.564,0.54 -1.236,0.756 -1.704,0.756c-0.54,0 -0.828,-0.384 -0.828,-0.888c0,-0.612 0.36,-0.828 0.672,-0.9l1.86,-0.276l0,1.308Z"
              style="fill-rule:nonzero;"/>
        <path d="M89.331,318.601l-0.348,-0.72c-0.36,0.24 -0.864,0.492 -1.32,0.492c-0.336,0 -0.444,-0.336 -0.444,-0.768l0,-3.576l1.812,0l0,-0.804l-1.812,0l0,-1.896l-0.96,0l0,1.884l-1.188,0.18l0,0.636l1.188,0l0,3.54c0,1.116 0.372,1.632 1.284,1.632c0.744,0 1.404,-0.336 1.788,-0.6Z"
              style="fill-rule:nonzero;"/>
        <path d="M93.015,313.081c-0.588,0 -1.056,0.18 -1.752,1.224l-0.048,0l-0.156,-1.08l-0.708,0l0,5.832l0.96,0l0,-3.504c0.648,-1.14 1.02,-1.644 1.536,-1.644c0.276,0 0.528,0.18 0.66,0.264l0.444,-0.804c-0.204,-0.12 -0.468,-0.288 -0.936,-0.288Z"
              style="fill-rule:nonzero;"/>
        <path d="M95.451,312.265c0.36,0 0.648,-0.288 0.648,-0.648c0,-0.36 -0.288,-0.648 -0.648,-0.648c-0.36,0 -0.648,0.288 -0.648,0.648c0,0.36 0.288,0.648 0.648,0.648Zm0.48,6.792l0,-5.832l-0.96,0l0,5.832l0.96,0Z"
              style="fill-rule:nonzero;"/>
        <path d="M101.859,317.941c-0.396,0.228 -0.888,0.456 -1.548,0.456c-1.176,0 -1.956,-0.744 -1.956,-2.244c0,-1.56 0.804,-2.268 2.112,-2.268c0.48,0 0.996,0.156 1.296,0.3l0.276,-0.78c-0.456,-0.192 -0.948,-0.324 -1.572,-0.324c-1.656,0 -3.096,1.008 -3.096,3.072c0,2.052 1.26,3.048 2.94,3.048c0.78,0 1.404,-0.204 1.908,-0.528l-0.36,-0.732Z"
              style="fill-rule:nonzero;"/>
        <path d="M107.967,313.225l-1.116,0l-2.376,2.52l-0.048,0l0,-5.88l-0.948,0l0,9.192l0.948,0l0,-2.244l0.672,-0.672l2.052,2.916l1.128,0l-2.556,-3.456l2.244,-2.376Z"
              style="fill-rule:nonzero;"/>
        <path d="M113.799,310.501l-1.02,0l0,8.556l4.848,0l0,-0.96l-3.828,0l0,-7.596Z"
              style="fill-rule:nonzero;"/>
        <path d="M119.247,312.265c0.36,0 0.648,-0.288 0.648,-0.648c0,-0.36 -0.288,-0.648 -0.648,-0.648c-0.36,0 -0.648,0.288 -0.648,0.648c0,0.36 0.288,0.648 0.648,0.648Zm0.48,6.792l0,-5.832l-0.96,0l0,5.832l0.96,0Z"
              style="fill-rule:nonzero;"/>
        <path d="M124.827,313.081c-1.092,0 -1.86,0.564 -2.388,1.236l-0.048,0l-0.156,-1.092l-0.708,0l0,5.832l0.96,0l0,-3.624c0.54,-0.828 1.224,-1.548 2.232,-1.548c0.288,0 0.516,0.108 0.636,0.324c0.072,0.132 0.096,0.432 0.096,0.6l0,4.248l0.96,0l0,-4.272c0,-1.14 -0.456,-1.704 -1.584,-1.704Z"
              style="fill-rule:nonzero;"/>
        <path d="M132.255,317.521c-0.384,0.516 -1.032,0.876 -1.692,0.876c-1.092,0 -1.788,-0.72 -1.788,-2.124c0,-1.548 0.792,-2.388 1.764,-2.388c0.756,0 1.344,0.24 1.716,0.768l0,2.868Zm0,-3.936l-0.048,0c-0.336,-0.3 -1.02,-0.504 -1.668,-0.504c-1.452,0 -2.748,1.14 -2.748,3.192c0,1.968 1.176,2.928 2.772,2.928c0.78,0 1.548,-0.444 1.8,-0.816l0.048,0l0.096,0.672l0.708,0l0,-9.192l-0.96,0l0,3.72Z"
              style="fill-rule:nonzero;"/>
        <path d="M135.591,315.433c0.204,-0.984 0.732,-1.572 1.776,-1.572c0.528,0 0.912,0.18 1.152,0.468c0.252,0.288 0.36,0.708 0.384,1.104l-3.312,0Zm4.272,0.468c0,-1.284 -0.564,-2.82 -2.46,-2.82c-0.792,0 -1.392,0.216 -1.872,0.672c-0.588,0.552 -0.936,1.44 -0.936,2.496c0,1.836 1.164,2.952 2.94,2.952c0.672,0 1.428,-0.156 2.004,-0.492l-0.36,-0.744c-0.468,0.276 -1.068,0.444 -1.644,0.444c-1.104,0 -1.992,-0.624 -1.992,-2.196l4.296,0c0.012,-0.096 0.024,-0.192 0.024,-0.312Z"
              style="fill-rule:nonzero;"/>
        <path d="M144.507,313.081c-1.092,0 -1.86,0.564 -2.388,1.236l-0.048,0l-0.156,-1.092l-0.708,0l0,5.832l0.96,0l0,-3.624c0.54,-0.828 1.224,-1.548 2.232,-1.548c0.288,0 0.516,0.108 0.636,0.324c0.072,0.132 0.096,0.432 0.096,0.6l0,4.248l0.96,0l0,-4.272c0,-1.14 -0.456,-1.704 -1.584,-1.704Z"
              style="fill-rule:nonzero;"/>
        <path d="M150.039,318.397c-0.348,0 -0.948,-0.132 -1.248,-0.288l0,-3.408c0.324,-0.552 1.056,-0.816 1.668,-0.816c1.176,0 1.764,0.756 1.764,2.136c0,1.5 -0.9,2.376 -2.184,2.376Zm0.42,-5.316c-0.552,0 -1.176,0.156 -1.62,0.552l-0.048,0l0,-3.768l-0.96,0l0,8.784c0.444,0.276 1.416,0.552 2.208,0.552c1.608,0 3.168,-1.092 3.168,-3.18c0,-2.004 -1.092,-2.94 -2.748,-2.94Z"
              style="fill-rule:nonzero;"/>
        <path d="M155.307,315.433c0.204,-0.984 0.732,-1.572 1.776,-1.572c0.528,0 0.912,0.18 1.152,0.468c0.252,0.288 0.36,0.708 0.384,1.104l-3.312,0Zm4.272,0.468c0,-1.284 -0.564,-2.82 -2.46,-2.82c-0.792,0 -1.392,0.216 -1.872,0.672c-0.588,0.552 -0.936,1.44 -0.936,2.496c0,1.836 1.164,2.952 2.94,2.952c0.672,0 1.428,-0.156 2.004,-0.492l-0.36,-0.744c-0.468,0.276 -1.068,0.444 -1.644,0.444c-1.104,0 -1.992,-0.624 -1.992,-2.196l4.296,0c0.012,-0.096 0.024,-0.192 0.024,-0.312Z"
              style="fill-rule:nonzero;"/>
        <path d="M163.587,313.081c-0.588,0 -1.056,0.18 -1.752,1.224l-0.048,0l-0.156,-1.08l-0.708,0l0,5.832l0.96,0l0,-3.504c0.648,-1.14 1.02,-1.644 1.536,-1.644c0.276,0 0.528,0.18 0.66,0.264l0.444,-0.804c-0.204,-0.12 -0.468,-0.288 -0.936,-0.288Z"
              style="fill-rule:nonzero;"/>
        <path d="M167.535,316.921c-0.6,0 -1.056,-0.24 -1.284,-0.588c-0.18,-0.264 -0.252,-0.6 -0.252,-0.96c0,-0.876 0.528,-1.512 1.536,-1.512c1.02,0 1.512,0.708 1.512,1.548c0,0.768 -0.576,1.512 -1.512,1.512Zm0.516,2.58c1.056,0.144 1.356,0.504 1.356,1.092c0,0.648 -0.528,1.032 -1.764,1.032c-1.344,0 -1.92,-0.552 -1.92,-1.116c0,-0.648 0.516,-1.02 1.008,-1.188l1.32,0.18Zm2.22,-5.868c0.156,0 0.288,0.012 0.384,0.036l0.156,-0.756c-0.132,-0.036 -0.3,-0.06 -0.504,-0.06c-0.492,0 -0.996,0.096 -1.5,0.528c-0.348,-0.192 -0.792,-0.3 -1.272,-0.3c-1.272,0 -2.46,0.78 -2.46,2.292c0,0.924 0.432,1.596 1.056,1.968c-0.06,0.396 -0.192,1.272 -0.252,1.584c-0.504,0.132 -1.092,0.768 -1.092,1.608c0,1.188 1.14,1.872 2.88,1.872c1.56,0 2.664,-0.624 2.664,-1.776c0,-1.104 -0.636,-1.68 -2.1,-1.872l-1.452,-0.192l0.144,-0.972c0.144,0.036 0.396,0.06 0.6,0.06c1.452,0 2.46,-0.924 2.46,-2.244c0,-0.576 -0.216,-1.116 -0.564,-1.524l0,-0.024c0.24,-0.168 0.66,-0.228 0.852,-0.228Z"
              style="fill-rule:nonzero;"/>
    </g>
    <g transform="matrix(1,0,0,1,-20.3025,36.4691)">
        <path d="M98.633,303.081c-1.032,0 -1.824,0.516 -2.292,1.152l-0.048,0l0,-4.368l-0.96,0l0,9.192l0.96,0l0,-3.624c0.54,-0.792 1.2,-1.548 2.232,-1.548c0.288,0 0.516,0.108 0.636,0.324c0.072,0.132 0.096,0.432 0.096,0.6l0,4.248l0.96,0l0,-4.272c0,-1.14 -0.456,-1.704 -1.584,-1.704Z"
              style="fill:#00030d;fill-rule:nonzero;"/>
        <path d="M102.533,305.433c0.204,-0.984 0.732,-1.572 1.776,-1.572c0.528,0 0.912,0.18 1.152,0.468c0.252,0.288 0.36,0.708 0.384,1.104l-3.312,0Zm4.272,0.468c0,-1.284 -0.564,-2.82 -2.46,-2.82c-0.792,0 -1.392,0.216 -1.872,0.672c-0.588,0.552 -0.936,1.44 -0.936,2.496c0,1.836 1.164,2.952 2.94,2.952c0.672,0 1.428,-0.156 2.004,-0.492l-0.36,-0.744c-0.468,0.276 -1.068,0.444 -1.644,0.444c-1.104,0 -1.992,-0.624 -1.992,-2.196l4.296,0c0.012,-0.096 0.024,-0.192 0.024,-0.312Z"
              style="fill:#00030d;fill-rule:nonzero;"/>
        <path d="M112.097,307.929l0,-3.324c0,-0.888 -0.648,-1.524 -1.86,-1.524c-1.212,0 -2.088,0.444 -2.088,1.284c0,0.096 0.024,0.18 0.036,0.24l0.96,-0.144c-0.012,-0.048 -0.024,-0.108 -0.024,-0.156c0,-0.324 0.48,-0.432 0.984,-0.432c0.636,0 1.044,0.3 1.056,0.648l0,1.02l-2.148,0.324c-0.816,0.18 -1.344,0.816 -1.344,1.74c0,0.96 0.54,1.596 1.8,1.596c0.48,0 1.2,-0.156 1.788,-0.72l0.048,0c0.276,0.54 0.744,0.576 1.296,0.6l0,-0.852c-0.312,-0.024 -0.48,-0.156 -0.504,-0.3Zm-0.936,-0.276c-0.564,0.54 -1.236,0.756 -1.704,0.756c-0.54,0 -0.828,-0.384 -0.828,-0.888c0,-0.612 0.36,-0.828 0.672,-0.9l1.86,-0.276l0,1.308Z"
              style="fill:#00030d;fill-rule:nonzero;"/>
        <path d="M116.417,308.397c-0.66,0 -1.248,-0.24 -1.68,-0.768l0,-2.772c0.42,-0.612 1.08,-0.972 1.74,-0.972c1.188,0 1.74,0.696 1.74,2.052c0,1.548 -0.768,2.46 -1.8,2.46Zm0.06,-5.316c-0.78,0 -1.464,0.384 -1.836,0.9l-0.048,0l-0.108,-0.756l-0.708,0l0,9.036l0.96,0l0,-3.576l0.048,0c0.372,0.3 0.996,0.516 1.632,0.516c1.536,0 2.784,-1.224 2.784,-3.264c0,-1.944 -1.02,-2.856 -2.724,-2.856Z"
              style="fill:#00030d;fill-rule:nonzero;"/>
        <path d="M124.709,307.521c-0.384,0.516 -1.032,0.876 -1.692,0.876c-1.092,0 -1.788,-0.72 -1.788,-2.124c0,-1.548 0.792,-2.388 1.764,-2.388c0.756,0 1.344,0.24 1.716,0.768l0,2.868Zm0,-3.936l-0.048,0c-0.336,-0.3 -1.02,-0.504 -1.668,-0.504c-1.452,0 -2.748,1.14 -2.748,3.192c0,1.968 1.176,2.928 2.772,2.928c0.78,0 1.548,-0.444 1.8,-0.816l0.048,0l0.096,0.672l0.708,0l0,-9.192l-0.96,0l0,3.72Z"
              style="fill:#00030d;fill-rule:nonzero;"/>
        <path d="M129.029,309.201c1.044,0 1.704,-0.6 2.208,-1.236l0.048,0l0.156,1.092l0.708,0l0,-5.832l-0.96,0l0,3.636c-0.336,0.648 -1.32,1.536 -2.052,1.536c-0.54,0 -0.828,-0.456 -0.828,-1.032l0,-4.14l-0.96,0l0,4.164c0,0.6 0.144,1.008 0.408,1.332c0.276,0.324 0.732,0.48 1.272,0.48Z"
              style="fill:#00030d;fill-rule:nonzero;"/>
        <path d="M140.429,303.081c-0.792,0 -1.512,0.42 -2.124,1.224l-0.048,0c-0.168,-0.804 -0.468,-1.224 -1.452,-1.224c-0.768,0 -1.452,0.444 -2.064,1.224l-0.048,0l-0.156,-1.08l-0.708,0l0,5.832l0.96,0l0,-3.624c0.552,-0.936 1.368,-1.548 1.86,-1.548c0.348,0 0.576,0.084 0.696,0.288c0.084,0.144 0.108,0.456 0.108,0.636l0,4.248l0.96,0l0,-3.624c0.564,-1.068 1.32,-1.548 1.86,-1.548c0.336,0 0.588,0.072 0.696,0.288c0.084,0.144 0.108,0.456 0.108,0.636l0,4.248l0.96,0l0,-4.272c0,-1.14 -0.444,-1.704 -1.608,-1.704Z"
              style="fill:#00030d;fill-rule:nonzero;"/>
        <path d="M146.357,308.397c-0.66,0 -1.248,-0.24 -1.68,-0.768l0,-2.772c0.42,-0.612 1.08,-0.972 1.74,-0.972c1.188,0 1.74,0.696 1.74,2.052c0,1.548 -0.768,2.46 -1.8,2.46Zm0.06,-5.316c-0.78,0 -1.464,0.384 -1.836,0.9l-0.048,0l-0.108,-0.756l-0.708,0l0,9.036l0.96,0l0,-3.576l0.048,0c0.372,0.3 0.996,0.516 1.632,0.516c1.536,0 2.784,-1.224 2.784,-3.264c0,-1.944 -1.02,-2.856 -2.724,-2.856Z"
              style="fill:#00030d;fill-rule:nonzero;"/>
        <path d="M155.729,307.653c-0.564,0.528 -1.236,0.756 -1.704,0.756c-0.54,0 -0.828,-0.384 -0.828,-0.888c0,-0.612 0.348,-0.852 0.66,-0.9l1.872,-0.288l0,1.32Zm-1.116,-6.6c-2.508,0 -4.452,1.944 -4.452,4.476c0,0.216 0.048,0.636 0.084,0.852l0.756,-0.108c-0.036,-0.18 -0.06,-0.564 -0.06,-0.744c0,-2.04 1.572,-3.72 3.672,-3.72c2.316,0 3.708,1.368 3.708,3.732c0,2.328 -0.708,3.108 -1.26,3.108c-0.168,0 -0.408,-0.204 -0.408,-0.528l0,-3.372c0,-0.888 -0.636,-1.536 -1.848,-1.536c-1.212,0 -2.088,0.456 -2.088,1.296c0,0.096 0.012,0.18 0.036,0.24l0.948,-0.144c-0.012,-0.048 -0.012,-0.108 -0.012,-0.156c0,-0.324 0.48,-0.444 0.984,-0.444c0.636,0 1.056,0.312 1.056,0.66l0,0.876l-2.148,0.324c-0.828,0.12 -1.332,0.816 -1.332,1.74c0,0.948 0.516,1.596 1.788,1.596c0.48,0 1.248,-0.144 1.812,-0.72l0.048,0c0.156,0.492 0.588,0.9 1.056,0.9c1.428,0 2.136,-1.5 2.136,-3.84c0,-2.832 -1.752,-4.488 -4.476,-4.488Z"
              style="fill:#00030d;fill-rule:nonzero;"/>
        <path d="M161.129,302.265c0.36,0 0.648,-0.288 0.648,-0.648c0,-0.36 -0.288,-0.648 -0.648,-0.648c-0.36,0 -0.648,0.288 -0.648,0.648c0,0.36 0.288,0.648 0.648,0.648Zm0.48,6.792l0,-5.832l-0.96,0l0,5.832l0.96,0Z"
              style="fill:#00030d;fill-rule:nonzero;"/>
        <path d="M167.477,307.941c-0.396,0.228 -0.888,0.456 -1.548,0.456c-1.176,0 -1.956,-0.744 -1.956,-2.244c0,-1.56 0.804,-2.268 2.112,-2.268c0.48,0 0.996,0.156 1.296,0.3l0.276,-0.78c-0.456,-0.192 -0.948,-0.324 -1.572,-0.324c-1.656,0 -3.096,1.008 -3.096,3.072c0,2.052 1.26,3.048 2.94,3.048c0.78,0 1.404,-0.204 1.908,-0.528l-0.36,-0.732Z"
              style="fill:#00030d;fill-rule:nonzero;"/>
        <rect x="169.097"
              y="299.865"
              width="0.96"
              height="9.192"
              style="fill:#00030d;fill-rule:nonzero;"/>
        <path d="M174.389,308.397c-1.14,0 -1.968,-0.744 -1.968,-2.256c0,-1.524 0.72,-2.256 1.98,-2.256c1.14,0 1.956,0.732 1.956,2.256c0,1.5 -0.708,2.256 -1.968,2.256Zm0.012,-5.316c-1.584,0 -2.964,1.008 -2.964,3.06c0,2.04 1.284,3.06 2.952,3.06c1.572,0 2.952,-1.02 2.952,-3.06c0,-2.052 -1.284,-3.06 -2.94,-3.06Z"
              style="fill:#00030d;fill-rule:nonzero;"/>
        <path d="M180.341,309.201c1.044,0 1.704,-0.6 2.208,-1.236l0.048,0l0.156,1.092l0.708,0l0,-5.832l-0.96,0l0,3.636c-0.336,0.648 -1.32,1.536 -2.052,1.536c-0.54,0 -0.828,-0.456 -0.828,-1.032l0,-4.14l-0.96,0l0,4.164c0,0.6 0.144,1.008 0.408,1.332c0.276,0.324 0.732,0.48 1.272,0.48Z"
              style="fill:#00030d;fill-rule:nonzero;"/>
        <path d="M189.245,307.521c-0.384,0.516 -1.032,0.876 -1.692,0.876c-1.092,0 -1.788,-0.72 -1.788,-2.124c0,-1.548 0.792,-2.388 1.764,-2.388c0.756,0 1.344,0.24 1.716,0.768l0,2.868Zm0,-3.936l-0.048,0c-0.336,-0.3 -1.02,-0.504 -1.668,-0.504c-1.452,0 -2.748,1.14 -2.748,3.192c0,1.968 1.176,2.928 2.772,2.928c0.78,0 1.548,-0.444 1.8,-0.816l0.048,0l0.096,0.672l0.708,0l0,-9.192l-0.96,0l0,3.72Z"
              style="fill:#00030d;fill-rule:nonzero;"/>
        <path d="M192.401,307.809c-0.384,0 -0.696,0.312 -0.696,0.696c0,0.384 0.312,0.696 0.696,0.696c0.384,0 0.696,-0.312 0.696,-0.696c0,-0.384 -0.312,-0.696 -0.696,-0.696Z"
              style="fill:#00030d;fill-rule:nonzero;"/>
        <path d="M198.725,307.941c-0.396,0.228 -0.888,0.456 -1.548,0.456c-1.176,0 -1.956,-0.744 -1.956,-2.244c0,-1.56 0.804,-2.268 2.112,-2.268c0.48,0 0.996,0.156 1.296,0.3l0.276,-0.78c-0.456,-0.192 -0.948,-0.324 -1.572,-0.324c-1.656,0 -3.096,1.008 -3.096,3.072c0,2.052 1.26,3.048 2.94,3.048c0.78,0 1.404,-0.204 1.908,-0.528l-0.36,-0.732Z"
              style="fill:#00030d;fill-rule:nonzero;"/>
        <path d="M202.805,308.397c-1.14,0 -1.968,-0.744 -1.968,-2.256c0,-1.524 0.72,-2.256 1.98,-2.256c1.14,0 1.956,0.732 1.956,2.256c0,1.5 -0.708,2.256 -1.968,2.256Zm0.012,-5.316c-1.584,0 -2.964,1.008 -2.964,3.06c0,2.04 1.284,3.06 2.952,3.06c1.572,0 2.952,-1.02 2.952,-3.06c0,-2.052 -1.284,-3.06 -2.94,-3.06Z"
              style="fill:#00030d;fill-rule:nonzero;"/>
        <path d="M213.677,303.081c-0.792,0 -1.512,0.42 -2.124,1.224l-0.048,0c-0.168,-0.804 -0.468,-1.224 -1.452,-1.224c-0.768,0 -1.452,0.444 -2.064,1.224l-0.048,0l-0.156,-1.08l-0.708,0l0,5.832l0.96,0l0,-3.624c0.552,-0.936 1.368,-1.548 1.86,-1.548c0.348,0 0.576,0.084 0.696,0.288c0.084,0.144 0.108,0.456 0.108,0.636l0,4.248l0.96,0l0,-3.624c0.564,-1.068 1.32,-1.548 1.86,-1.548c0.336,0 0.588,0.072 0.696,0.288c0.084,0.144 0.108,0.456 0.108,0.636l0,4.248l0.96,0l0,-4.272c0,-1.14 -0.444,-1.704 -1.608,-1.704Z"
              style="fill:#00030d;fill-rule:nonzero;"/>
        <path d="M77.477,320.921c-0.6,0 -1.056,-0.24 -1.284,-0.588c-0.18,-0.264 -0.252,-0.6 -0.252,-0.96c0,-0.876 0.528,-1.512 1.536,-1.512c1.02,0 1.512,0.708 1.512,1.548c0,0.768 -0.576,1.512 -1.512,1.512Zm0.516,2.58c1.056,0.144 1.356,0.504 1.356,1.092c0,0.648 -0.528,1.032 -1.764,1.032c-1.344,0 -1.92,-0.552 -1.92,-1.116c0,-0.648 0.516,-1.02 1.008,-1.188l1.32,0.18Zm2.22,-5.868c0.156,0 0.288,0.012 0.384,0.036l0.156,-0.756c-0.132,-0.036 -0.3,-0.06 -0.504,-0.06c-0.492,0 -0.996,0.096 -1.5,0.528c-0.348,-0.192 -0.792,-0.3 -1.272,-0.3c-1.272,0 -2.46,0.78 -2.46,2.292c0,0.924 0.432,1.596 1.056,1.968c-0.06,0.396 -0.192,1.272 -0.252,1.584c-0.504,0.132 -1.092,0.768 -1.092,1.608c0,1.188 1.14,1.872 2.88,1.872c1.56,0 2.664,-0.624 2.664,-1.776c0,-1.104 -0.636,-1.68 -2.1,-1.872l-1.452,-0.192l0.144,-0.972c0.144,0.036 0.396,0.06 0.6,0.06c1.452,0 2.46,-0.924 2.46,-2.244c0,-0.576 -0.216,-1.116 -0.564,-1.524l0,-0.024c0.24,-0.168 0.66,-0.228 0.852,-0.228Z"
              style="fill:#00030d;fill-rule:nonzero;"/>
        <path d="M82.145,316.265c0.36,0 0.648,-0.288 0.648,-0.648c0,-0.36 -0.288,-0.648 -0.648,-0.648c-0.36,0 -0.648,0.288 -0.648,0.648c0,0.36 0.288,0.648 0.648,0.648Zm0.48,6.792l0,-5.832l-0.96,0l0,5.832l0.96,0Z"
              style="fill:#00030d;fill-rule:nonzero;"/>
        <path d="M87.965,322.601l-0.348,-0.72c-0.36,0.24 -0.864,0.492 -1.32,0.492c-0.336,0 -0.444,-0.336 -0.444,-0.768l0,-3.576l1.812,0l0,-0.804l-1.812,0l0,-1.896l-0.96,0l0,1.884l-1.188,0.18l0,0.636l1.188,0l0,3.54c0,1.116 0.372,1.632 1.284,1.632c0.744,0 1.404,-0.336 1.788,-0.6Z"
              style="fill:#00030d;fill-rule:nonzero;"/>
        <path d="M92.225,317.081c-1.032,0 -1.824,0.516 -2.292,1.152l-0.048,0l0,-4.368l-0.96,0l0,9.192l0.96,0l0,-3.624c0.54,-0.792 1.2,-1.548 2.232,-1.548c0.288,0 0.516,0.108 0.636,0.324c0.072,0.132 0.096,0.432 0.096,0.6l0,4.248l0.96,0l0,-4.272c0,-1.14 -0.456,-1.704 -1.584,-1.704Z"
              style="fill:#00030d;fill-rule:nonzero;"/>
        <path d="M97.169,323.201c1.044,0 1.704,-0.6 2.208,-1.236l0.048,0l0.156,1.092l0.708,0l0,-5.832l-0.96,0l0,3.636c-0.336,0.648 -1.32,1.536 -2.052,1.536c-0.54,0 -0.828,-0.456 -0.828,-1.032l0,-4.14l-0.96,0l0,4.164c0,0.6 0.144,1.008 0.408,1.332c0.276,0.324 0.732,0.48 1.272,0.48Z"
              style="fill:#00030d;fill-rule:nonzero;"/>
        <path d="M104.177,322.397c-0.348,0 -0.948,-0.132 -1.248,-0.288l0,-3.408c0.324,-0.552 1.056,-0.816 1.668,-0.816c1.176,0 1.764,0.756 1.764,2.136c0,1.5 -0.9,2.376 -2.184,2.376Zm0.42,-5.316c-0.552,0 -1.176,0.156 -1.62,0.552l-0.048,0l0,-3.768l-0.96,0l0,8.784c0.444,0.276 1.416,0.552 2.208,0.552c1.608,0 3.168,-1.092 3.168,-3.18c0,-2.004 -1.092,-2.94 -2.748,-2.94Z"
              style="fill:#00030d;fill-rule:nonzero;"/>
        <path d="M109.073,321.809c-0.384,0 -0.696,0.312 -0.696,0.696c0,0.384 0.312,0.696 0.696,0.696c0.384,0 0.696,-0.312 0.696,-0.696c0,-0.384 -0.312,-0.696 -0.696,-0.696Z"
              style="fill:#00030d;fill-rule:nonzero;"/>
        <path d="M115.397,321.941c-0.396,0.228 -0.888,0.456 -1.548,0.456c-1.176,0 -1.956,-0.744 -1.956,-2.244c0,-1.56 0.804,-2.268 2.112,-2.268c0.48,0 0.996,0.156 1.296,0.3l0.276,-0.78c-0.456,-0.192 -0.948,-0.324 -1.572,-0.324c-1.656,0 -3.096,1.008 -3.096,3.072c0,2.052 1.26,3.048 2.94,3.048c0.78,0 1.404,-0.204 1.908,-0.528l-0.36,-0.732Z"
              style="fill:#00030d;fill-rule:nonzero;"/>
        <path d="M119.477,322.397c-1.14,0 -1.968,-0.744 -1.968,-2.256c0,-1.524 0.72,-2.256 1.98,-2.256c1.14,0 1.956,0.732 1.956,2.256c0,1.5 -0.708,2.256 -1.968,2.256Zm0.012,-5.316c-1.584,0 -2.964,1.008 -2.964,3.06c0,2.04 1.284,3.06 2.952,3.06c1.572,0 2.952,-1.02 2.952,-3.06c0,-2.052 -1.284,-3.06 -2.94,-3.06Z"
              style="fill:#00030d;fill-rule:nonzero;"/>
        <path d="M130.349,317.081c-0.792,0 -1.512,0.42 -2.124,1.224l-0.048,0c-0.168,-0.804 -0.468,-1.224 -1.452,-1.224c-0.768,0 -1.452,0.444 -2.064,1.224l-0.048,0l-0.156,-1.08l-0.708,0l0,5.832l0.96,0l0,-3.624c0.552,-0.936 1.368,-1.548 1.86,-1.548c0.348,0 0.576,0.084 0.696,0.288c0.084,0.144 0.108,0.456 0.108,0.636l0,4.248l0.96,0l0,-3.624c0.564,-1.068 1.32,-1.548 1.86,-1.548c0.336,0 0.588,0.072 0.696,0.288c0.084,0.144 0.108,0.456 0.108,0.636l0,4.248l0.96,0l0,-4.272c0,-1.14 -0.444,-1.704 -1.608,-1.704Z"
              style="fill:#00030d;fill-rule:nonzero;"/>
        <path d="M133.793,323.057l2.676,-8.556l-0.78,0l-2.676,8.556l0.78,0Z"
              style="fill:#00030d;fill-rule:nonzero;"/>
        <rect x="137.609"
              y="313.865"
              width="0.96"
              height="9.192"
              style="fill:#00030d;fill-rule:nonzero;"/>
        <path d="M140.849,316.265c0.36,0 0.648,-0.288 0.648,-0.648c0,-0.36 -0.288,-0.648 -0.648,-0.648c-0.36,0 -0.648,0.288 -0.648,0.648c0,0.36 0.288,0.648 0.648,0.648Zm0.48,6.792l0,-5.832l-0.96,0l0,5.832l0.96,0Z"
              style="fill:#00030d;fill-rule:nonzero;"/>
        <path d="M146.369,317.081c-1.092,0 -1.86,0.564 -2.388,1.236l-0.048,0l-0.156,-1.092l-0.708,0l0,5.832l0.96,0l0,-3.624c0.54,-0.828 1.224,-1.548 2.232,-1.548c0.288,0 0.516,0.108 0.636,0.324c0.072,0.132 0.096,0.432 0.096,0.6l0,4.248l0.96,0l0,-4.272c0,-1.14 -0.456,-1.704 -1.584,-1.704Z"
              style="fill:#00030d;fill-rule:nonzero;"/>
        <path d="M153.737,321.521c-0.384,0.516 -1.032,0.876 -1.692,0.876c-1.092,0 -1.788,-0.72 -1.788,-2.124c0,-1.548 0.792,-2.388 1.764,-2.388c0.756,0 1.344,0.24 1.716,0.768l0,2.868Zm0,-3.936l-0.048,0c-0.336,-0.3 -1.02,-0.504 -1.668,-0.504c-1.452,0 -2.748,1.14 -2.748,3.192c0,1.968 1.176,2.928 2.772,2.928c0.78,0 1.548,-0.444 1.8,-0.816l0.048,0l0.096,0.672l0.708,0l0,-9.192l-0.96,0l0,3.72Z"
              style="fill:#00030d;fill-rule:nonzero;"/>
        <path d="M157.013,319.433c0.204,-0.984 0.732,-1.572 1.776,-1.572c0.528,0 0.912,0.18 1.152,0.468c0.252,0.288 0.36,0.708 0.384,1.104l-3.312,0Zm4.272,0.468c0,-1.284 -0.564,-2.82 -2.46,-2.82c-0.792,0 -1.392,0.216 -1.872,0.672c-0.588,0.552 -0.936,1.44 -0.936,2.496c0,1.836 1.164,2.952 2.94,2.952c0.672,0 1.428,-0.156 2.004,-0.492l-0.36,-0.744c-0.468,0.276 -1.068,0.444 -1.644,0.444c-1.104,0 -1.992,-0.624 -1.992,-2.196l4.296,0c0.012,-0.096 0.024,-0.192 0.024,-0.312Z"
              style="fill:#00030d;fill-rule:nonzero;"/>
        <path d="M165.869,317.081c-1.092,0 -1.86,0.564 -2.388,1.236l-0.048,0l-0.156,-1.092l-0.708,0l0,5.832l0.96,0l0,-3.624c0.54,-0.828 1.224,-1.548 2.232,-1.548c0.288,0 0.516,0.108 0.636,0.324c0.072,0.132 0.096,0.432 0.096,0.6l0,4.248l0.96,0l0,-4.272c0,-1.14 -0.456,-1.704 -1.584,-1.704Z"
              style="fill:#00030d;fill-rule:nonzero;"/>
        <path d="M171.341,322.397c-0.348,0 -0.948,-0.132 -1.248,-0.288l0,-3.408c0.324,-0.552 1.056,-0.816 1.668,-0.816c1.176,0 1.764,0.756 1.764,2.136c0,1.5 -0.9,2.376 -2.184,2.376Zm0.42,-5.316c-0.552,0 -1.176,0.156 -1.62,0.552l-0.048,0l0,-3.768l-0.96,0l0,8.784c0.444,0.276 1.416,0.552 2.208,0.552c1.608,0 3.168,-1.092 3.168,-3.18c0,-2.004 -1.092,-2.94 -2.748,-2.94Z"
              style="fill:#00030d;fill-rule:nonzero;"/>
        <path d="M176.549,319.433c0.204,-0.984 0.732,-1.572 1.776,-1.572c0.528,0 0.912,0.18 1.152,0.468c0.252,0.288 0.36,0.708 0.384,1.104l-3.312,0Zm4.272,0.468c0,-1.284 -0.564,-2.82 -2.46,-2.82c-0.792,0 -1.392,0.216 -1.872,0.672c-0.588,0.552 -0.936,1.44 -0.936,2.496c0,1.836 1.164,2.952 2.94,2.952c0.672,0 1.428,-0.156 2.004,-0.492l-0.36,-0.744c-0.468,0.276 -1.068,0.444 -1.644,0.444c-1.104,0 -1.992,-0.624 -1.992,-2.196l4.296,0c0.012,-0.096 0.024,-0.192 0.024,-0.312Z"
              style="fill:#00030d;fill-rule:nonzero;"/>
        <path d="M184.769,317.081c-0.588,0 -1.056,0.18 -1.752,1.224l-0.048,0l-0.156,-1.08l-0.708,0l0,5.832l0.96,0l0,-3.504c0.648,-1.14 1.02,-1.644 1.536,-1.644c0.276,0 0.528,0.18 0.66,0.264l0.444,-0.804c-0.204,-0.12 -0.468,-0.288 -0.936,-0.288Z"
              style="fill:#00030d;fill-rule:nonzero;"/>
        <path d="M188.657,320.921c-0.6,0 -1.056,-0.24 -1.284,-0.588c-0.18,-0.264 -0.252,-0.6 -0.252,-0.96c0,-0.876 0.528,-1.512 1.536,-1.512c1.02,0 1.512,0.708 1.512,1.548c0,0.768 -0.576,1.512 -1.512,1.512Zm0.516,2.58c1.056,0.144 1.356,0.504 1.356,1.092c0,0.648 -0.528,1.032 -1.764,1.032c-1.344,0 -1.92,-0.552 -1.92,-1.116c0,-0.648 0.516,-1.02 1.008,-1.188l1.32,0.18Zm2.22,-5.868c0.156,0 0.288,0.012 0.384,0.036l0.156,-0.756c-0.132,-0.036 -0.3,-0.06 -0.504,-0.06c-0.492,0 -0.996,0.096 -1.5,0.528c-0.348,-0.192 -0.792,-0.3 -1.272,-0.3c-1.272,0 -2.46,0.78 -2.46,2.292c0,0.924 0.432,1.596 1.056,1.968c-0.06,0.396 -0.192,1.272 -0.252,1.584c-0.504,0.132 -1.092,0.768 -1.092,1.608c0,1.188 1.14,1.872 2.88,1.872c1.56,0 2.664,-0.624 2.664,-1.776c0,-1.104 -0.636,-1.68 -2.1,-1.872l-1.452,-0.192l0.144,-0.972c0.144,0.036 0.396,0.06 0.6,0.06c1.452,0 2.46,-0.924 2.46,-2.244c0,-0.576 -0.216,-1.116 -0.564,-1.524l0,-0.024c0.24,-0.168 0.66,-0.228 0.852,-0.228Z"
              style="fill:#00030d;fill-rule:nonzero;"/>
        <path d="M195.449,317.081c-0.588,0 -1.056,0.18 -1.752,1.224l-0.048,0l-0.156,-1.08l-0.708,0l0,5.832l0.96,0l0,-3.504c0.648,-1.14 1.02,-1.644 1.536,-1.644c0.276,0 0.528,0.18 0.66,0.264l0.444,-0.804c-0.204,-0.12 -0.468,-0.288 -0.936,-0.288Z"
              style="fill:#00030d;fill-rule:nonzero;"/>
        <path d="M197.741,319.433c0.204,-0.984 0.732,-1.572 1.776,-1.572c0.528,0 0.912,0.18 1.152,0.468c0.252,0.288 0.36,0.708 0.384,1.104l-3.312,0Zm4.272,0.468c0,-1.284 -0.564,-2.82 -2.46,-2.82c-0.792,0 -1.392,0.216 -1.872,0.672c-0.588,0.552 -0.936,1.44 -0.936,2.496c0,1.836 1.164,2.952 2.94,2.952c0.672,0 1.428,-0.156 2.004,-0.492l-0.36,-0.744c-0.468,0.276 -1.068,0.444 -1.644,0.444c-1.104,0 -1.992,-0.624 -1.992,-2.196l4.296,0c0.012,-0.096 0.024,-0.192 0.024,-0.312Z"
              style="fill:#00030d;fill-rule:nonzero;"/>
        <path d="M205.541,319.589c-0.876,-0.3 -1.464,-0.408 -1.464,-0.912c0,-0.648 0.492,-0.792 1.212,-0.792c0.6,0 1.032,0.108 1.512,0.324l0.264,-0.756c-0.48,-0.24 -1.044,-0.372 -1.752,-0.372c-1.44,0 -2.196,0.672 -2.196,1.62c0,0.852 0.552,1.176 1.74,1.584c1.02,0.348 1.404,0.564 1.404,1.248c0,0.636 -0.444,0.864 -1.392,0.864c-0.636,0 -1.248,-0.264 -1.632,-0.468l-0.312,0.756c0.456,0.3 1.284,0.516 1.908,0.516c1.596,0 2.388,-0.612 2.388,-1.704c0,-0.912 -0.528,-1.5 -1.68,-1.908Z"
              style="fill:#00030d;fill-rule:nonzero;"/>
        <path d="M209.225,319.433c0.204,-0.984 0.732,-1.572 1.776,-1.572c0.528,0 0.912,0.18 1.152,0.468c0.252,0.288 0.36,0.708 0.384,1.104l-3.312,0Zm4.272,0.468c0,-1.284 -0.564,-2.82 -2.46,-2.82c-0.792,0 -1.392,0.216 -1.872,0.672c-0.588,0.552 -0.936,1.44 -0.936,2.496c0,1.836 1.164,2.952 2.94,2.952c0.672,0 1.428,-0.156 2.004,-0.492l-0.36,-0.744c-0.468,0.276 -1.068,0.444 -1.644,0.444c-1.104,0 -1.992,-0.624 -1.992,-2.196l4.296,0c0.012,-0.096 0.024,-0.192 0.024,-0.312Z"
              style="fill:#00030d;fill-rule:nonzero;"/>
        <path d="M218.789,321.929l0,-3.324c0,-0.888 -0.648,-1.524 -1.86,-1.524c-1.212,0 -2.088,0.444 -2.088,1.284c0,0.096 0.024,0.18 0.036,0.24l0.96,-0.144c-0.012,-0.048 -0.024,-0.108 -0.024,-0.156c0,-0.324 0.48,-0.432 0.984,-0.432c0.636,0 1.044,0.3 1.056,0.648l0,1.02l-2.148,0.324c-0.816,0.18 -1.344,0.816 -1.344,1.74c0,0.96 0.54,1.596 1.8,1.596c0.48,0 1.2,-0.156 1.788,-0.72l0.048,0c0.276,0.54 0.744,0.576 1.296,0.6l0,-0.852c-0.312,-0.024 -0.48,-0.156 -0.504,-0.3Zm-0.936,-0.276c-0.564,0.54 -1.236,0.756 -1.704,0.756c-0.54,0 -0.828,-0.384 -0.828,-0.888c0,-0.612 0.36,-0.828 0.672,-0.9l1.86,-0.276l0,1.308Z"
              style="fill:#00030d;fill-rule:nonzero;"/>
        <path d="M223.133,317.081c-0.588,0 -1.056,0.18 -1.752,1.224l-0.048,0l-0.156,-1.08l-0.708,0l0,5.832l0.96,0l0,-3.504c0.648,-1.14 1.02,-1.644 1.536,-1.644c0.276,0 0.528,0.18 0.66,0.264l0.444,-0.804c-0.204,-0.12 -0.468,-0.288 -0.936,-0.288Z"
              style="fill:#00030d;fill-rule:nonzero;"/>
        <path d="M228.917,321.941c-0.396,0.228 -0.888,0.456 -1.548,0.456c-1.176,0 -1.956,-0.744 -1.956,-2.244c0,-1.56 0.804,-2.268 2.112,-2.268c0.48,0 0.996,0.156 1.296,0.3l0.276,-0.78c-0.456,-0.192 -0.948,-0.324 -1.572,-0.324c-1.656,0 -3.096,1.008 -3.096,3.072c0,2.052 1.26,3.048 2.94,3.048c0.78,0 1.404,-0.204 1.908,-0.528l-0.36,-0.732Z"
              style="fill:#00030d;fill-rule:nonzero;"/>
        <path d="M233.777,317.081c-1.032,0 -1.824,0.516 -2.292,1.152l-0.048,0l0,-4.368l-0.96,0l0,9.192l0.96,0l0,-3.624c0.54,-0.792 1.2,-1.548 2.232,-1.548c0.288,0 0.516,0.108 0.636,0.324c0.072,0.132 0.096,0.432 0.096,0.6l0,4.248l0.96,0l0,-4.272c0,-1.14 -0.456,-1.704 -1.584,-1.704Z"
              style="fill:#00030d;fill-rule:nonzero;"/>
    </g>
    <g transform="matrix(1.00969,0,0,1,129.063,250.691)">
        <path d="M-12.241,-6.323c-0.205,0.036 -0.4,0.11 -0.585,0.222c-0.184,0.112 -0.343,0.309 -0.475,0.591c-0.269,0.611 -0.547,1.248 -0.834,1.911c-0.287,0.663 -0.585,1.359 -0.895,2.088c-0.092,0.21 -0.188,0.458 -0.291,0.745c-0.102,0.287 -0.197,0.563 -0.284,0.828l-0.533,0c-0.433,-1.071 -0.832,-2.048 -1.196,-2.93c-0.365,-0.882 -0.743,-1.785 -1.135,-2.71c-0.091,-0.21 -0.238,-0.373 -0.441,-0.489c-0.203,-0.116 -0.407,-0.19 -0.612,-0.222l0,-0.451l3.118,0l0,0.478c-0.137,0.005 -0.308,0.033 -0.513,0.086c-0.205,0.052 -0.308,0.124 -0.308,0.215c0,0.014 0.012,0.049 0.034,0.106c0.023,0.057 0.046,0.122 0.069,0.195c0.187,0.465 0.451,1.114 0.793,1.948c0.342,0.834 0.62,1.506 0.834,2.017c0.164,-0.392 0.37,-0.88 0.618,-1.463c0.249,-0.584 0.517,-1.235 0.804,-1.955c0.045,-0.123 0.089,-0.238 0.13,-0.345c0.041,-0.108 0.061,-0.216 0.061,-0.325c0,-0.078 -0.038,-0.147 -0.113,-0.209c-0.075,-0.061 -0.165,-0.115 -0.27,-0.16c-0.105,-0.046 -0.207,-0.08 -0.307,-0.103c-0.101,-0.023 -0.183,-0.039 -0.246,-0.048l0,-0.437l2.577,0l0,0.417Z"
              style="fill-rule:nonzero;"/>
        <path d="M-5.419,-6.385c0.292,0.351 0.509,0.762 0.653,1.234c0.143,0.472 0.215,0.965 0.215,1.48c0,0.62 -0.089,1.175 -0.266,1.665c-0.178,0.49 -0.422,0.896 -0.732,1.22c-0.319,0.333 -0.697,0.583 -1.135,0.752c-0.437,0.168 -0.925,0.253 -1.463,0.253c-0.587,0 -1.112,-0.098 -1.572,-0.294c-0.46,-0.196 -0.834,-0.465 -1.121,-0.807c-0.301,-0.355 -0.525,-0.771 -0.673,-1.247c-0.148,-0.477 -0.222,-0.99 -0.222,-1.542c0,-0.542 0.071,-1.041 0.215,-1.497c0.143,-0.456 0.368,-0.868 0.673,-1.237c0.292,-0.356 0.668,-0.636 1.128,-0.841c0.46,-0.205 0.987,-0.308 1.579,-0.308c0.625,0 1.16,0.105 1.607,0.315c0.446,0.209 0.818,0.494 1.114,0.854Zm-0.643,2.714c0,-1.085 -0.185,-1.925 -0.557,-2.522c-0.371,-0.597 -0.876,-0.896 -1.514,-0.896c-0.647,0 -1.157,0.299 -1.531,0.896c-0.374,0.597 -0.561,1.437 -0.561,2.522c0,1.03 0.179,1.858 0.537,2.485c0.358,0.627 0.871,0.94 1.541,0.94c0.67,0 1.185,-0.313 1.545,-0.94c0.36,-0.627 0.54,-1.455 0.54,-2.485Z"
              style="fill-rule:nonzero;"/>
        <path d="M-1.01,-0.786c0,0.255 -0.092,0.473 -0.277,0.653c-0.184,0.18 -0.404,0.27 -0.659,0.27c-0.256,0 -0.475,-0.09 -0.66,-0.27c-0.185,-0.18 -0.277,-0.398 -0.277,-0.653c0,-0.255 0.092,-0.475 0.277,-0.66c0.185,-0.184 0.404,-0.277 0.66,-0.277c0.255,0 0.475,0.093 0.659,0.277c0.185,0.185 0.277,0.405 0.277,0.66Z"
              style="fill-rule:nonzero;"/>
        <path d="M7.275,-3.151c0,0.474 -0.085,0.918 -0.256,1.333c-0.171,0.414 -0.4,0.768 -0.687,1.059c-0.333,0.333 -0.701,0.579 -1.104,0.738c-0.403,0.16 -0.824,0.24 -1.261,0.24c-0.506,0 -0.964,-0.094 -1.374,-0.281c-0.41,-0.186 -0.759,-0.451 -1.046,-0.792c-0.292,-0.347 -0.517,-0.771 -0.677,-1.272c-0.159,-0.501 -0.239,-1.064 -0.239,-1.688c0,-1.627 0.484,-2.999 1.452,-4.116c0.969,-1.116 2.267,-1.786 3.893,-2.009l0.124,0.615l-0.616,0.109c-0.989,0.319 -1.753,0.816 -2.293,1.49c-0.54,0.675 -0.89,1.493 -1.049,2.454c0.391,-0.341 0.779,-0.583 1.162,-0.724c0.382,-0.141 0.786,-0.212 1.21,-0.212c0.761,0 1.411,0.292 1.951,0.875c0.54,0.583 0.81,1.31 0.81,2.181Zm-1.483,0.184c0,-0.738 -0.17,-1.331 -0.509,-1.777c-0.34,-0.447 -0.794,-0.67 -1.364,-0.67c-0.342,0 -0.66,0.064 -0.954,0.191c-0.294,0.128 -0.577,0.342 -0.851,0.643c-0.004,0.055 -0.011,0.181 -0.02,0.379c-0.009,0.199 -0.014,0.355 -0.014,0.469c0,1.066 0.174,1.901 0.523,2.505c0.349,0.604 0.808,0.906 1.377,0.906c0.543,0 0.98,-0.236 1.313,-0.708c0.333,-0.471 0.499,-1.117 0.499,-1.938Z"
              style="fill-rule:nonzero;"/>
        <path d="M10.686,-0.786c0,0.255 -0.092,0.473 -0.276,0.653c-0.185,0.18 -0.405,0.27 -0.66,0.27c-0.255,0 -0.475,-0.09 -0.66,-0.27c-0.184,-0.18 -0.277,-0.398 -0.277,-0.653c0,-0.255 0.093,-0.475 0.277,-0.66c0.185,-0.184 0.405,-0.277 0.66,-0.277c0.255,0 0.475,0.093 0.66,0.277c0.184,0.185 0.276,0.405 0.276,0.66Z"
              style="fill-rule:nonzero;"/>
        <path d="M17.386,-3.206c0.3,0.237 0.55,0.542 0.748,0.916c0.198,0.374 0.298,0.841 0.298,1.401c0,0.98 -0.335,1.789 -1.005,2.427c-0.67,0.638 -1.52,0.957 -2.55,0.957c-0.798,0 -1.472,-0.189 -2.024,-0.567c-0.551,-0.379 -0.827,-0.818 -0.827,-1.32c0,-0.232 0.057,-0.435 0.171,-0.608c0.114,-0.173 0.29,-0.26 0.527,-0.26c0.273,0 0.481,0.072 0.625,0.216c0.144,0.143 0.215,0.299 0.215,0.468c0,0.146 -0.025,0.328 -0.075,0.547c-0.05,0.218 -0.089,0.38 -0.116,0.485c0.036,0.032 0.096,0.075 0.178,0.13c0.082,0.055 0.18,0.107 0.294,0.157c0.118,0.05 0.263,0.095 0.434,0.133c0.171,0.039 0.37,0.059 0.598,0.059c0.292,0 0.567,-0.06 0.827,-0.178c0.26,-0.119 0.479,-0.294 0.656,-0.527c0.196,-0.255 0.343,-0.545 0.441,-0.871c0.098,-0.326 0.147,-0.74 0.147,-1.241c0,-0.642 -0.179,-1.174 -0.536,-1.596c-0.358,-0.422 -0.829,-0.632 -1.412,-0.632c-0.365,0 -0.705,0.068 -1.022,0.205c-0.317,0.136 -0.6,0.364 -0.851,0.683l-0.458,-0.177l0.581,-4.936l4.894,0l0,1.217l-4.34,0l-0.356,2.898c0.205,-0.146 0.475,-0.29 0.81,-0.434c0.335,-0.143 0.703,-0.215 1.104,-0.215c0.333,0 0.678,0.051 1.036,0.154c0.358,0.102 0.687,0.272 0.988,0.509Z"
              style="fill-rule:nonzero;"/>
    </g>

</svg>
