<?xml version="1.0" encoding="UTF-8" standalone="no"?>
<!DOCTYPE svg PUBLIC "-//W3C//DTD SVG 1.1//EN" "http://www.w3.org/Graphics/SVG/1.1/DTD/svg11.dtd">
<svg width="40px" height="40px" version="1.1" xmlns="http://www.w3.org/2000/svg" xmlns:xlink="http://www.w3.org/1999/xlink" xml:space="preserve" xmlns:serif="http://www.serif.com/" style="fill-rule:evenodd;clip-rule:evenodd;stroke-linejoin:round;stroke-miterlimit:1.41421;">
    <g id="Big-Cog"
       serif:id="Big Cog"
       transform="matrix(2.0938,0,0,2.0938,-349.795,-276.187)">
        <path d="M171.91,133.539l-0.096,-0.432l-0.528,0.24l-0.192,0.24l-0.24,0.048l-0.336,0.24l0.048,0.576l0.624,1.536l-0.048,0.384l-0.528,0.72l-0.48,0.144l-0.768,-0.096l-0.384,-0.192l-0.048,-0.096l-0.528,-0.096l-0.24,0.048l-0.24,0.192l-0.288,0.624l-0.192,0.816l-0.384,0.96l0.192,0.432l1.056,0.432l0.624,0.336l0.192,0.336l0.048,0.912l-0.192,0.432l-0.288,0.24l-1.44,0.672l-0.144,0.144l-0.048,0.144l0.096,0.48l0.576,1.44l0.048,0.336l0.288,0.384l0.528,0.048l1.056,-0.336l0.624,-0.096l0.336,0.192l0.24,0.336l0.432,0.432l-0.192,0.672l-0.672,1.536l0.336,0.432l0.48,0.336l1.584,0.768l0.288,0l0.288,-0.192l0.096,-0.144l0,-0.192l0.144,-0.048l0.24,-0.432l0.528,-0.624l0.144,-0.096l1.248,0l0.192,0.144l0.192,0.96l0.24,0.384l0.048,0.576l0.288,0.336l0.816,0l1.632,-0.384l0.384,-0.192l0.096,-0.144l0.048,-0.24l-0.192,-1.2l0,-0.48l0.144,-0.24l0.528,-0.336l0.288,-0.048l0.384,-0.24l1.008,0.528l0.528,0.528l0.192,0.096l0.192,0l0.24,-0.144l0.432,-0.528l0.192,-0.144l0.048,-0.384l0.144,0.048l0.816,-1.008l0,-0.24l-0.48,-0.624l-0.768,-0.72l-0.096,-0.192l0.048,-0.432l0.24,-0.768l0.24,-0.288l0.576,-0.096l0.384,-0.192l0.192,0.096l0.816,-0.096l0.288,-0.384l0.048,-0.288l-0.048,-0.192l0,-1.824l-0.336,0.048l0.144,-0.384l-0.336,-0.144l-0.72,-0.096l-0.816,0l-0.192,-0.048l-0.192,-0.288l-0.096,-0.432l-0.192,-0.384l-0.048,-0.24l0.048,-0.24l0.768,-1.008l0.336,-0.288l0.192,-0.336l-0.096,-0.384l-0.72,-0.816l-0.096,-0.24l-0.336,-0.24l-0.432,-0.48l-0.192,-0.096l-0.144,0.144l-0.96,0.432l-0.48,0.48l-0.624,-0.096l-0.48,-0.144l-0.48,-0.384l-0.096,-0.144l0.192,-1.392l-0.048,-0.624l-0.192,-0.24l-1.008,-0.336l-0.816,0.048l-0.672,-0.192l-0.336,0.144l-0.288,0.624l-0.288,1.296l-0.096,0.144l-1.008,0.288l-0.384,0.048l-0.24,-0.24l-0.768,-1.104l-0.576,-0.432l-0.624,0.144l-0.528,0.336l0.096,0.384l-0.048,0.096Zm2.352,7.296l0.144,-0.192l0.096,-0.432l0.336,-0.48l0.288,-0.24l1.344,-0.384l1.008,0.192l0.528,0.288l0.48,0.48l0.192,0.288l0.24,0.576l0,0.864l-0.336,0.96l-1.056,0.96l-0.672,0.096l-0.816,-0.048l-0.72,-0.336l-0.624,-0.576l-0.528,-0.816l0.048,-1.104l0.048,-0.096Zm-3.552,-0.432l0.864,-0.432l-0.048,-0.24l0.336,-0.192l0.048,-0.384l0.336,0.144l-0.048,0.336l-0.096,-0.048l-0.096,0.288l0.288,0.336l-0.384,0l-0.096,0.048l0.048,0.336l-0.048,0.288l0.048,0.096l-0.192,0.048l-0.24,-0.096l0.24,-0.672l-0.288,0.144l-0.144,0.336l-0.24,-0.192l-0.192,0.336l-0.096,0.048l0,-0.528Zm10.368,-2.976l-0.432,0.144l-0.096,0.144l0.048,0.096l0.144,0.048l-0.24,0.048l0.048,0.24l-0.144,0.048l-0.384,-0.048l-0.144,0.048l-0.192,-0.048l0,-0.048l0.288,-0.144l0.192,-0.192l-0.048,-0.192l-0.096,-0.048l-0.192,0.048l-0.096,0.096l0,0.096l-0.144,-0.096l0,-0.336l0.672,-0.144l0.144,0.144l0,0.144l0.144,-0.096l0.384,-0.048l0.048,0.048l0.096,0.048Zm-8.592,-0.096l0.048,-0.192l0.192,0.048l0.432,-0.24l0.192,0.096l-0.096,0.288l-0.192,0.144l0.048,0.288l-0.24,0.096l-0.096,-0.048l-0.096,0.288l-0.192,-0.096l-0.048,-0.096l-0.24,0.096l-0.096,-0.048l0,-0.144l0.096,-0.048l0.192,0.048l0.096,0.096l0.24,-0.144l-0.048,-0.24l-0.192,-0.192Zm4.8,0.096l0.048,-0.096l0.288,-0.096l0.336,-0.384l-0.144,-0.192l-0.144,0.144l-0.192,-0.096l-0.048,-0.432l0.336,-0.336l0.192,-0.048l-0.24,0.288l-0.048,0.144l0.48,0.24l0.048,0.192l-0.192,0.288l-0.528,0.432l-0.144,0l-0.048,-0.048Zm3.6,4.8l-0.192,-0.048l-0.192,-0.336l0.288,-0.048l-0.096,-0.048l0.048,-0.144l0.144,-0.144l-0.096,-0.192l0.048,-0.336l0.144,-0.096l0.192,0l0.192,0.096l-0.144,0.336l0.192,0.144l-0.096,0.096l-0.192,-0.048l-0.384,0.576l0.144,0.096l0,0.096Zm-9.696,2.16l0.192,-0.096l0.24,0l0.144,-0.192l-0.096,-0.192l0.096,-0.096l0,-0.288l-0.336,-0.432l0.192,-0.096l0.144,0l0.24,0.336l0,0.432l-0.048,0.096l0,0.384l-0.096,0.144l-0.192,0.048l-0.192,-0.048l-0.288,0Zm9.216,-5.904l0.576,0.048l0.432,-0.192l0.144,-0.384l0.288,0.048l-0.288,0.384l-0.624,0.336l-0.384,0.048l0.048,0.192l0.096,0.048l0,0.144l-0.24,-0.048l-0.144,-0.192l0.048,-0.384l0.048,-0.048Zm0.576,4.368l0,0.288l-0.144,0.288l-0.096,0.048l-0.096,-0.192l-0.048,0.096l-0.096,-0.096l0.144,-0.048l0,-0.096l-0.096,-0.048l0.192,-0.144l-0.048,-0.288l0.048,-0.192l0.24,0.144l0.144,-0.048l0.144,-0.24l0.144,0.48l-0.096,0.048l-0.192,-0.144l-0.096,0.048l-0.048,0.096Zm-5.712,-6.528l0.24,0.096l0.144,0.288l0.24,0.144l0.048,0.288l-0.192,0l-0.048,-0.336l-0.144,0.144l0,0.096l0.096,0.048l-0.048,0.048l-0.24,0l-0.096,-0.096l0,-0.288l-0.288,0l0.288,-0.336l0,-0.096Zm-1.824,2.256l-0.144,0.192l0.096,0.048l-0.048,0.096l-0.336,0.192l0,0.096l-0.192,-0.336l0,-0.384l0.096,-0.144l0.432,0.096l0.048,0.096l0.048,0.048Zm3.264,-1.968l0.144,-0.048l-0.288,0.432l-0.288,0.24l-0.048,-0.096l0.048,-0.096l0.144,-0.048l-0.048,-0.096l-0.336,-0.192l0.048,-0.144l0.24,-0.192l0.096,0l0.192,0.24l0.096,0Zm4.992,0.24l-0.336,0.288l0.096,0.192l0.096,0.048l0,0.096l0.288,-0.048l0.048,0.24l-0.096,0.192l-0.144,-0.096l-0.432,-0.096l0,-0.48l0.336,-0.336l0.144,0Zm-4.416,9.792l0.096,-0.288l0.24,-0.336l-0.336,-0.192l0,-0.096l0.288,0.048l0.144,0.096l0.144,0.24l-0.24,0.48l-0.144,0.144l-0.144,0l-0.048,-0.096Zm4.656,-8.64l0.096,0l0.192,-0.24l0,-0.096l0.096,0.048l0,0.096l-0.096,0.096l0.288,0.72l-0.192,-0.096l-0.24,0.048l-0.192,-0.048l-0.048,-0.096l0.144,-0.288l-0.048,-0.144Zm-5.184,10.128l0.144,-0.192l-0.24,-0.768l-0.432,0.096l0.144,-0.192l0.288,-0.048l0.336,0.144l-0.048,0.384l0.048,0.288l0.048,-0.048l0.144,0.192l-0.24,0.144l-0.192,0Zm1.536,-10.464l-0.24,0.048l-0.144,-0.144l0.288,-0.384l0.048,-0.336l0.192,0l0,0.144l-0.144,0.192l0,0.192l0.192,0.24l0,0.192l-0.24,0.192l-0.048,-0.048l0.096,-0.24l0,-0.048Zm2.544,1.68l0.336,-0.144l0.24,0l0.096,0.192l-0.336,0.144l-0.144,0.288l-0.096,0.048l-0.336,-0.096l0.048,-0.096l0.24,-0.096l0,-0.192l-0.048,-0.048Zm-2.016,-1.296l0.288,-0.192l0.144,0.096l-0.096,0.384l-0.144,-0.144l-0.528,0.336l-0.144,-0.432l0.096,-0.048l0.144,0.096l0.048,0.192l0.096,-0.144l-0.048,-0.24l0.192,0l-0.048,0.096Zm-3.792,0.48l-0.096,-0.048l-0.432,0l-0.144,-0.144l-0.048,-0.144l0.096,0l0.144,0.144l0.144,-0.096l0.048,-0.192l0.288,0.096l0.192,0.288l0,0.096l-0.192,0Zm-0.096,8.304l0.288,-0.144l-0.048,-0.144l0.048,-0.144l0.144,-0.096l0.432,0.24l-0.048,0.192l-0.192,0.096l0.048,-0.288l-0.288,0.336l-0.096,-0.048l-0.288,0Zm-4.032,-5.568l-0.192,-0.048l0,-0.288l0.288,0.24l0.24,0.048l0.144,0.144l0.048,0.144l-0.096,0.096l-0.288,-0.096l-0.144,0.096l-0.096,-0.048l0.192,-0.24l-0.096,-0.048Zm9.168,5.184l-0.432,-0.192l0.096,-0.144l0.24,-0.144l0.048,-0.096l0.192,0.192l0.192,0.096l0.048,0.096l-0.192,-0.048l-0.096,0.048l-0.096,0.192Zm3.024,-5.856l0.144,0.048l0.144,-0.144l0.24,0.336l0.096,0l-0.24,0.144l-0.288,0l-0.144,-0.192l0,-0.096l0.048,-0.096Zm-1.776,2.688l0.048,-0.192l0.24,0l-0.144,-0.336l0.192,0l0.144,0.144l-0.144,0.384l0.144,0.096l0.048,0.144l-0.144,0l-0.192,-0.24l-0.192,0Zm-4.848,-7.488l-0.384,-0.096l0,-0.144l0.144,-0.24l0.192,-0.048l0.144,0.192l-0.048,0.192l-0.048,0.144Zm5.904,6.816l-0.288,0.336l-0.096,0l0.048,-0.288l-0.096,-0.24l0.288,-0.048l0.24,0.144l0.048,0.096l0.144,0l-0.144,0.048l-0.144,-0.048Zm-3.408,2.112l0.336,0.144l0.24,0.288l0.24,-0.048l-0.096,0.192l-0.288,-0.096l-0.192,-0.144l-0.288,0.048l0.096,-0.288l-0.048,-0.096Zm-4.512,-7.296l-0.096,0.288l0.336,0.096l-0.096,0.192l-0.48,-0.096l0.096,-0.384l0.144,-0.096l0.096,0Zm2.304,-2.112l0.192,-0.048l0.384,0.192l0.24,0.048l0.048,0.24l-0.336,-0.192l-0.384,0l-0.144,-0.144l0,-0.096Zm0.192,0.432l0.24,0.048l0.192,-0.048l0,0.288l-0.096,0.144l-0.24,0l-0.096,-0.336l0,-0.096Zm-0.144,10.224l-0.048,-0.528l0.24,-0.048l0.048,-0.096l0,0.24l-0.144,0.144l0,0.144l0.24,0.144l-0.048,0.144l-0.192,-0.048l-0.096,-0.096Zm-3.504,-5.808l0,0.048l-0.096,-0.192l0.048,-0.096l-0.192,-0.048l-0.096,-0.192l0.288,-0.048l0,0.144l0.336,-0.048l-0.096,0.24l-0.144,0.096l-0.048,0.096Zm1.2,5.952l0.192,-0.432l0.144,-0.096l0.144,0.096l-0.048,0.192l-0.144,0.192l-0.192,0.096l-0.096,-0.048Zm3.888,-11.088l0.144,0.096l-0.048,0.144l-0.144,0l-0.048,0.384l-0.144,0.144l-0.192,0l0.144,-0.336l0.288,-0.336l0,-0.096Zm2.352,10.608l-0.192,0.048l-0.336,-0.144l0.144,-0.144l0.288,0.048l0.048,-0.048l-0.096,-0.24l0.144,0.096l0.096,0.288l-0.096,0.096Zm-9.984,-1.872l0.048,-0.096l0.192,-0.048l0.048,-0.096l0.288,0.384l-0.192,0.048l-0.336,-0.144l-0.048,-0.048Zm9.984,0l-0.288,0.192l0.048,-0.096l-0.192,-0.24l0.24,-0.096l0.192,0.192l0.192,0.096l0,0.096l-0.144,0.048l-0.048,-0.048l0,-0.144Zm0.192,2.496l0.048,-0.144l-0.048,-0.096l0.288,-0.048l0.144,0.096l-0.144,0.24l-0.192,0l-0.096,-0.048Zm-0.288,-1.2l-0.576,-0.096l0.048,-0.144l0.432,0l0.096,0.096l0,0.144Zm-7.056,-7.2l-0.096,-0.288l0.048,-0.096l0.096,0l0.192,0.144l0.096,0l-0.24,0.24l-0.096,0Zm-1.392,3.024l0.144,0l0.144,0.144l-0.048,0.192l-0.192,0.048l-0.096,-0.288l0.048,-0.096Zm1.2,6.336l-0.192,-0.048l-0.048,-0.288l-0.144,-0.144l0,-0.096l0.144,0.144l0,0.096l0.384,0.144l-0.048,0.096l-0.096,0.096Zm9.264,-4.944l-0.096,-0.144l-0.24,-0.144l-0.096,-0.144l0.144,0l0.288,0.288l0.144,-0.096l0.24,0.048l-0.336,0.144l-0.048,0.048Zm0.672,0.048l0.048,-0.192l0.144,-0.192l0.192,0.144l-0.144,0.24l-0.24,0Zm-8.688,2.832l-0.048,-0.096l-0.384,-0.192l0.48,-0.192l-0.048,0.096l0,0.384Zm6.384,-1.296l0.096,-0.24l-0.096,-0.096l0.336,-0.144l-0.096,0.384l-0.144,0.096l-0.096,0Zm-7.392,2.496l0.24,-0.576l0.192,0.192l-0.336,0.336l-0.096,0.048Zm4.08,1.392l0.144,-0.384l-0.048,-0.096l0.144,0.096l-0.048,0.336l0.192,-0.048l0.096,0.144l-0.384,-0.048l-0.096,0Zm4.08,-7.92l0.192,-0.24l0.288,-0.048l0.096,0.048l0.096,0.192l-0.096,0.144l-0.048,-0.288l-0.432,0.144l-0.096,0.048Zm-10.56,2.688l0.144,0.096l-0.048,0.288l-0.192,0.048l-0.048,-0.192l0.096,-0.192l0.048,-0.048Zm3.264,3.504l-0.096,0.384l0.048,0.096l-0.192,-0.048l-0.048,-0.24l0.192,-0.192l0.096,0Zm0.48,-8.4l0.24,0.048l-0.096,0.384l-0.288,-0.24l0.192,-0.096l-0.048,-0.096Zm6.24,2.256l0.144,-0.096l0.288,0.24l-0.144,0.144l-0.24,-0.192l-0.048,-0.096Zm0.528,1.44l-0.192,-0.048l-0.048,-0.144l0.384,0.096l0.144,0.144l-0.144,0.144l-0.096,-0.144l-0.048,-0.048Zm-0.432,-3.168l-0.288,0l-0.192,-0.096l0.192,-0.144l0.192,0.048l0.096,0.096l0,0.096Zm-4.272,-1.44l0.384,0.24l-0.048,0.096l-0.288,-0.048l-0.096,-0.192l0.048,-0.096Zm-4.704,2.304l-0.192,-0.048l-0.096,-0.144l0,-0.144l0.192,0l0.096,0.144l0,0.192Zm8.4,-2.112l-0.24,-0.24l-0.144,-0.384l0.24,0.144l0.096,0.384l0.048,0.096Zm0.624,9.024l0.048,-0.096l0.192,-0.096l0.192,0l-0.192,0.24l-0.192,0.048l-0.048,-0.096Zm-3.648,-7.824l0.192,-0.144l0,-0.096l0.144,0.144l-0.096,0.192l-0.192,0.096l0,-0.096l-0.048,-0.096Zm-2.064,8.016l-0.192,0.048l-0.288,-0.048l0.096,-0.144l0.288,0l0.048,0.048l0.048,0.096Zm-5.184,-3.072l-0.048,-0.144l0.24,-0.24l0,-0.096l0.144,0.048l-0.096,0.192l-0.24,0.24Zm9.072,2.784l-0.192,-0.048l-0.048,-0.192l0.096,-0.048l0.24,0.144l0,0.096l-0.096,0.048Zm-2.064,-10.896l-0.096,0.192l-0.24,0.048l-0.048,-0.096l0.096,-0.144l0.288,0Zm-1.344,11.904l0.048,-0.432l0.144,-0.048l0,0.288l-0.096,0.144l-0.096,0.048Zm4.512,-6.864l0.288,0.336l-0.288,-0.048l-0.144,-0.192l0.096,-0.048l0.048,-0.048Zm-1.872,4.896l-0.144,-0.144l0.048,-0.192l0.192,0.096l0.048,0.192l-0.096,0l-0.048,0.048Zm-0.768,-8.592l0,-0.192l0.384,-0.144l-0.192,0.288l-0.096,0l-0.096,0.048Zm-6.816,5.568l0.336,-0.048l0,0.144l-0.192,0.096l-0.144,-0.096l0,-0.096Zm4.464,5.952l0.048,-0.144l0.288,0.048l0,0.048l0.192,-0.048l0,0.144l-0.192,-0.048l-0.336,0Zm-3.168,-5.808l-0.24,0.288l-0.096,0l0.096,-0.288l0.144,-0.048l0.096,0.048Zm7.872,-5.328l-0.048,0.24l-0.096,0.096l-0.144,-0.048l0,-0.096l0.192,-0.144l0.096,-0.048Zm-7.488,11.136l0.048,-0.192l0.192,-0.048l0,0.24l-0.144,0.048l-0.096,-0.048Zm2.544,-11.568l-0.192,-0.144l-0.048,-0.192l0.192,0.048l0.096,0.144l-0.048,0.144Zm-1.488,0.384l-0.144,-0.096l-0.096,-0.192l-0.096,0l0.144,-0.096l0.192,0.192l0,0.192Zm9.072,4.608l-0.096,0.144l-0.24,0.048l-0.048,-0.096l0.144,-0.096l0.24,0Zm0.144,1.488l-0.144,-0.096l0,-0.096l0.24,-0.144l-0.048,0.24l-0.048,0.096Zm-6.96,-6.528l-0.048,0.192l-0.192,0.048l0.096,-0.288l0.096,0l0.048,0.048Zm-2.352,-0.288l-0.096,0.048l-0.144,-0.096l0.144,-0.144l0.096,0l0.048,0.096l-0.048,0.096Zm4.272,9.792l0.192,-0.144l0.048,0.192l-0.048,0.096l-0.144,-0.048l-0.048,-0.096Zm-5.952,-4.272l-0.192,0.048l-0.096,-0.144l0.192,-0.048l0.096,0.048l0,0.096Zm11.712,0.816l0.144,-0.24l0.096,0.048l0,0.144l-0.096,0.048l-0.144,0Zm-12.864,2.208l-0.144,-0.048l0,-0.192l0.192,0.048l0,0.096l-0.048,0.096Zm10.8,0.672l0.24,-0.192l0.048,0.096l-0.096,0.144l-0.096,0l-0.096,-0.048Zm-6.144,-7.296l-0.144,0.096l-0.144,-0.048l0.096,-0.192l0.096,0.048l0,0.096l0.096,0Zm-2.496,5.424l0.048,-0.096l0.144,0.192l0.048,0.192l-0.096,0.048l0,-0.192l-0.144,-0.144Zm9.024,-0.048l0,-0.096l0.096,-0.048l0.144,0.048l0,0.096l-0.096,0.048l-0.096,-0.048l-0.048,0Zm-4.08,-8.208l0,0.096l-0.24,0.048l-0.048,-0.048l0.048,-0.096l0.24,0Zm1.728,10.368l0.144,0l0.096,0.144l-0.192,0.048l-0.048,-0.096l0,-0.096Zm-6.336,-8.304l0.096,-0.144l0.096,0l0.048,0.096l-0.048,0.096l-0.096,0l-0.096,-0.048Zm5.712,6.48l0.24,-0.048l0.048,0.048l-0.144,0.144l-0.096,-0.048l-0.048,-0.096Zm-3.744,1.92l0.096,0.048l0.096,0.192l-0.192,-0.048l-0.048,-0.096l0.048,-0.096Zm-2.976,-1.344l-0.144,0l-0.048,-0.096l0.048,-0.096l0.096,0l0.048,0.096l0,0.096Zm3.984,1.008l-0.096,0l-0.048,-0.144l0.048,-0.048l0.24,0l-0.144,0.096l0,0.096Zm-4.512,-7.248l-0.096,0l-0.096,-0.096l-0.048,-0.192l0.144,0.096l0.096,0.192Zm8.496,2.592l0,0.24l-0.144,-0.048l0,-0.144l0.096,-0.048l0.048,0Zm-5.472,4.896l0.24,0.048l0,0.192l-0.192,-0.144l-0.048,-0.096Zm0.96,-10.224l0.192,-0.048l-0.048,0.24l-0.144,-0.096l0,-0.096Zm-4.8,5.856l0,-0.144l0.192,0.048l0.048,0.096l-0.096,0.048l-0.048,-0.048l-0.096,0Zm10.464,4.368l-0.192,0.048l-0.096,-0.144l0.24,0l0.048,0.096Zm-2.88,-7.968l-0.048,0.192l-0.144,-0.048l0,-0.096l0.096,-0.048l0.096,0Zm-4.224,-0.864l0.192,0.048l-0.048,0.144l-0.096,0l-0.048,-0.096l0,-0.096Zm4.224,9.936l0.192,0.048l-0.048,0.144l-0.096,0l-0.048,-0.096l0,-0.096Zm1.536,-6.864l-0.144,-0.096l0,-0.096l0.192,-0.048l-0.048,0.144l0,0.096Zm-9.12,2.832l-0.096,0l-0.096,-0.144l0.048,-0.096l0.144,0.144l0,0.096Zm5.616,4.32l0.048,-0.144l0.192,0.048l-0.144,0.144l-0.096,-0.048Zm6.48,-9.744l0.24,-0.048l-0.048,0.144l-0.192,0l0,-0.096Zm-5.136,8.256l-0.144,-0.192l0,-0.144l0.192,0.24l-0.048,0.096Zm-4.08,1.872l-0.096,0l-0.048,-0.192l0.192,0.048l0,0.048l-0.048,0.096Zm-1.824,0.48l0.192,-0.24l0.048,0.048l-0.144,0.24l-0.096,-0.048Zm0.144,-9.312l-0.096,0.144l-0.096,0l0,-0.144l0.096,-0.048l0.096,0.048Zm9.84,2.4l0.096,0.048l0,0.24l-0.144,-0.096l0.048,-0.096l0,-0.096Zm-11.568,1.056l0.144,0.048l-0.096,0.192l-0.096,-0.048l0.048,-0.096l0,-0.096Zm8.928,-4.416l-0.144,0.048l-0.096,-0.048l0.192,-0.144l0.048,0.144Zm-6.432,-0.624l-0.192,0.048l-0.192,-0.192l0.096,0l0.192,0.144l0.096,0Zm6.672,-0.432l-0.192,-0.048l-0.048,-0.096l0.096,-0.048l0.096,0.096l0.048,0.096Zm2.592,8.016l0,-0.24l0.192,0.24l-0.192,0Zm-3.6,-7.632l0,0.192l-0.096,0l-0.048,-0.144l0.048,-0.048l0.096,0Zm-3.216,-0.672l0.096,0l0.096,0.096l0,0.096l-0.144,0l0.048,-0.096l-0.096,-0.048l0,-0.048Zm-3.504,1.488l0.24,0.048l-0.048,0.096l-0.192,-0.048l0,-0.096Zm6.288,9.504l0.24,0.144l-0.144,0.048l-0.096,-0.096l0,-0.096Zm-5.952,-12.72l-0.096,-0.096l0,-0.096l0.144,0l0,0.096l-0.048,0.096Zm0.336,5.712l0.096,-0.048l0.096,0.048l0,0.096l-0.144,0l-0.048,-0.096Zm1.2,7.584l-0.24,-0.048l0.144,-0.096l0.096,0.048l0,0.096Zm-0.816,-6.672l0.048,-0.096l0.144,0.048l-0.048,0.144l-0.048,-0.048l-0.096,-0.048Zm5.328,5.328l0,-0.096l0.24,0l-0.192,0.144l-0.048,-0.048Zm-5.952,-3.888l-0.048,0.192l-0.144,0.048l0.096,-0.192l0.096,-0.048Zm2.928,5.088l0.096,-0.048l0,-0.096l0.144,0.096l0,0.096l-0.144,-0.048l-0.096,0Zm4.176,-3.888l0.096,0.048l-0.048,0.192l-0.096,-0.096l0.048,-0.144Zm-0.912,5.664l0.048,-0.192l0.096,0l-0.048,0.192l-0.096,0Zm0.528,-2.64l0.24,0.048l-0.048,0.096l-0.144,-0.048l-0.048,-0.096Zm-1.344,-8.64l-0.144,-0.144l0.192,-0.096l-0.048,0.144l0,0.096Zm-7.296,2.256l0,0.192l-0.144,-0.096l0.048,-0.096l0.096,0Zm2.064,1.776l-0.048,-0.096l0.144,-0.144l0.048,0.096l-0.096,0.048l-0.048,0.096Zm4.848,-4.032l-0.096,0.096l-0.144,-0.096l0.144,-0.048l0.096,0.048Zm2.352,0.864l0.24,-0.24l-0.096,0.24l-0.144,0Zm1.92,8.112l0,-0.192l0.192,0.048l-0.144,0.096l-0.048,0.048Zm-6.96,-11.808l0,0.096l-0.144,0.096l-0.048,-0.048l0.096,-0.096l0.096,-0.048Zm0.288,12.24l0.048,-0.144l0.144,-0.144l-0.096,0.24l-0.096,0.048Zm5.28,-3.024l0,-0.096l0.144,0.048l0.048,0.096l-0.048,0l-0.144,-0.048Zm0.672,0.624l0.048,-0.192l0.096,0.096l-0.048,0.096l-0.096,0Zm-10.32,-2.4l-0.096,0l-0.048,-0.192l0.144,0.096l0,0.096Zm10.8,-3.744l0.096,-0.144l0.096,0.048l-0.048,0.096l-0.144,0Zm-5.472,-0.816l-0.144,-0.048l-0.048,-0.096l0.192,0.048l0,0.096Zm-2.832,7.632l0.192,0.048l-0.048,0.096l-0.096,-0.048l-0.048,-0.096Zm5.52,-0.288l0.096,0.096l-0.048,0.096l-0.096,-0.096l0.048,-0.096Zm-10.224,-1.776l-0.096,-0.096l0.048,-0.096l0.096,0.096l-0.048,0.096Zm11.28,1.488l0.048,-0.192l0.096,0.048l-0.048,0.096l-0.096,0.048Zm-2.496,-0.816l-0.096,-0.048l0,-0.192l0.096,0.144l0,0.096Zm-4.608,-3.84l0.048,-0.144l0.096,0.048l-0.048,0.096l-0.096,0Zm2.496,-4.176l-0.048,0.144l-0.096,-0.048l0.048,-0.096l0.096,0Zm-4.128,3.36l0.192,0.048l-0.096,0.096l-0.048,-0.048l-0.048,-0.096Zm2.016,7.968l0.144,-0.096l0,0.144l-0.048,0l-0.096,-0.048Zm6,-8.736l0.048,0.144l-0.144,0.048l0.096,-0.192Zm-7.728,0.432l0.096,0.048l0,0.144l-0.096,-0.096l0,-0.096Zm1.824,4.848l-0.048,0.096l-0.096,-0.048l0.048,-0.096l0.096,0.048Zm-1.488,-5.28l0.096,0.048l-0.048,0.096l-0.096,-0.048l0.048,-0.096Zm1.68,0.576l0.144,0.048l0,0.096l-0.096,-0.048l-0.048,-0.096Zm-1.44,6.336l0.048,-0.144l0.096,0l-0.048,0.096l-0.096,0.048Zm1.44,-0.48l0,-0.096l0.096,0.048l0,0.096l-0.096,-0.048Zm-0.48,2.016l0.096,0.048l-0.144,0.096l0,-0.048l0.048,-0.096Zm-2.592,-6.624l0,-0.096l0.096,0l0,0.096l-0.096,0Zm10.128,5.376l0.048,-0.096l0.096,0l-0.048,0.096l-0.096,0Zm-8.208,-2.592l0.096,-0.048l0,0.096l-0.096,0.048l0,-0.096Zm9.168,-7.104l0.096,0.048l0,0.096l-0.096,-0.048l0,-0.096Zm-7.68,2.976l0,0.096l-0.096,-0.048l0.048,-0.096l0.048,0.048Zm2.688,5.376l0.048,-0.048l0,0.192l-0.048,0l0,-0.144Zm-1.488,3.648l-0.144,-0.144l0.144,0.048l0,0.096Zm-2.112,-3.024l0.144,0l-0.096,0.096l-0.048,-0.096Zm-1.344,-8.016l0.096,0.096l-0.096,0.048l0,-0.144Zm7.488,8.784l0.144,0.096l-0.144,0l0,-0.096Zm-3.6,-1.2l-0.096,-0.048l0.096,-0.096l0,0.144Zm-1.728,1.824l0.096,-0.096l0.048,0.096l-0.144,0Zm7.104,-3.552l0,0.144l0.096,-0.096l-0.096,-0.048Zm-1.536,-7.68l0.096,0.048l-0.144,0.048l0.048,-0.096Zm4.368,0l0.096,-0.048l0.048,0.096l-0.144,-0.048Zm-12.096,6.816l0.048,0.144l-0.096,-0.048l0.048,-0.096Zm1.584,-0.144l-0.144,0.048l-0.048,-0.096l0.096,0.048l0.096,0Zm1.968,-4.944l0.048,0.144l-0.096,-0.048l0.048,-0.096Zm6.768,2.208l0.096,-0.048l0,0.096l-0.096,-0.048Zm-7.92,-1.824l0,-0.048l0.144,0l-0.096,0.048l-0.048,0Zm3.36,-3.072l-0.096,0.048l0,-0.096l0.096,0.048Zm5.52,6.048l0.096,0.048l-0.096,0.048l0,-0.096Zm-9.216,2.304l0.096,0.096l-0.096,0l0,-0.096Zm-3.36,2.016l0.144,-0.048l-0.096,0.096l-0.048,-0.048Zm8.88,2.112l-0.048,-0.048l0.192,-0.048l-0.096,0.048l-0.048,0.048Zm-4.032,-0.48l-0.096,0.048l0,-0.096l0.096,0.048Zm4.848,-7.2l0.048,0.096l-0.096,0l0.048,-0.096Zm-6.048,-4.8l-0.096,0.048l0,-0.096l0.096,0.048Zm5.04,12.96l0.048,-0.096l0.048,0.048l-0.096,0.048Zm-6.384,-8.976l0.048,-0.096l0.048,0.048l-0.096,0.048Zm10.08,4.608l0.048,-0.096l0.048,0.048l-0.096,0.048Zm-13.008,1.152l0.048,-0.096l0.048,0.048l-0.096,0.048Zm8.832,-0.048l0.048,-0.048l0.048,0.096l-0.096,-0.048Zm1.296,-7.152l0.144,-0.144l-0.048,0.096l-0.096,0.048Zm-6.048,5.184l0.144,0.048l-0.144,0l0,-0.048Zm-3.456,-1.728l0.096,0.048l-0.048,0.048l-0.048,-0.096Zm2.688,6.576l0.048,-0.096l0.048,0.048l-0.096,0.048Zm7.824,-2.496l0.048,-0.096l0.048,0.048l-0.096,0.048Zm-6.96,-5.808l0.144,-0.144l-0.048,0.096l-0.096,0.048Zm3.456,-4.56l0.048,-0.096l0.048,0.048l-0.096,0.048Zm-5.328,-1.056l0.048,-0.048l-0.048,-0.24l0,0.288Zm1.344,0.624l-0.096,0.096l0.048,-0.096l0.048,0Zm-0.528,5.904l0.096,-0.048l-0.096,0.096l0,-0.048Zm12.912,0.48l-0.096,0l0.096,-0.048l0,0.048Zm-8.928,4.704l-0.096,0.048l0,-0.048l0.096,0Zm3.408,-8.64l0.048,0.096l-0.048,0l0,-0.096Zm-5.664,7.968l0.048,-0.048l0.048,0.048l-0.096,0Z"
              style="fill-rule:nonzero;"/>
    </g>
</svg>
