<?xml version="1.0" encoding="UTF-8" standalone="no"?>
<!DOCTYPE svg PUBLIC "-//W3C//DTD SVG 1.1//EN" "http://www.w3.org/Graphics/SVG/1.1/DTD/svg11.dtd">
<svg xmlns:xlink="http://www.w3.org/1999/xlink"
     xmlns:serif="http://www.serif.com/"
     width="20px"
     height="20px"
     version="1.1"
     xmlns="http://www.w3.org/2000/svg"
     xml:space="preserve"
     style="fill-rule:evenodd;clip-rule:evenodd;stroke-linejoin:round;stroke-miterlimit:1.41421;">
    <g id="Middle-Cog"
       serif:id="Middle Cog"
       transform="matrix(1.33452,0,0,1.33452,-245.026,-151.331)">
        <path d="M195.827,122.93l0.096,-0.288l0.528,-0.384l0.528,-0.144l0.48,0l0.24,-0.192l0.144,-0.672l0,-1.152l-0.24,0l0.048,-0.192l-0.048,-0.096l-0.24,-0.096l-0.384,0l-0.096,0.048l-0.48,0l-0.144,-0.096l-0.336,-0.864l0.096,-0.336l0.576,-0.576l0.144,-0.24l-0.048,-0.432l-0.24,-0.144l-0.096,-0.336l-0.384,-0.528l-0.288,-0.288l-0.384,0l-1.008,0.576l-0.624,-0.144l-0.24,-0.144l-0.144,-0.288l0,-0.384l-0.096,-0.192l0.144,-0.144l0.048,-0.144l-0.144,-0.48l-0.288,-0.192l-1.152,-0.288l-0.288,0l-0.336,0.24l-0.384,0.768l0.048,0.192l-0.048,0.192l-0.336,0.48l-0.048,-0.144l0.048,-0.048l-0.048,-0.048l-0.48,0.144l-0.288,-0.048l-0.96,-1.152l-0.48,0.096l-0.24,0.144l-0.048,0.096l-0.72,0.336l-0.336,0.336l0.144,0.672l0.336,0.768l-0.048,0.288l-0.288,0.24l-0.048,0.192l-0.816,0.24l0,-0.24l-0.432,-0.192l-0.288,-0.048l-0.432,0.192l0,0.288l-0.624,1.2l0.048,0.384l0.288,0.24l1.056,0.384l0.144,0.192l0.048,0.432l-0.096,0.48l-0.144,0.192l-1.152,0.48l0.048,0.912l0.144,0.432l0.288,0.528l0.24,0.288l1.44,-0.336l0.384,0.384l0.24,0.336l-0.24,0.864l-0.096,0.048l-0.144,0.24l-0.048,0.288l0.336,0.432l0.816,0.432l0.384,0.288l0.384,-0.048l0.192,-0.144l0.288,-0.528l0.096,-0.048l0.24,-0.336l0.336,-0.192l0.528,0.192l0.192,0.192l0.576,1.248l0.144,0.096l0.384,0.048l1.152,-0.192l0.384,-0.144l0.096,-0.144l-0.096,-0.864l0,-0.576l0.528,-0.432l0.384,-0.096l0.672,0.432l0.048,-0.096l-0.096,-0.144l0.048,-0.096l0.192,0.096l0.048,0.384l0.192,0.144l0.288,0l0.336,-0.24l0.48,-0.48l0.384,-0.528l0.096,-0.336l-0.048,-0.144l-0.816,-0.768l-0.144,-0.24l0,-0.288Zm-5.952,-0.816l-0.192,-0.24l-0.432,-1.248l0.288,-0.24l0.288,-0.48l0.528,-0.432l0.528,-0.192l0.576,0.048l0.672,0.336l0.336,0.24l0.24,0.384l0.096,0.48l-0.096,0.528l-0.288,0.624l-0.672,0.528l-0.816,0.144l-0.576,-0.144l-0.336,-0.192l-0.048,-0.096l-0.096,-0.048Zm4.752,-0.48l-0.384,0.384l0.24,0.096l-0.192,0.288l0,0.096l-0.24,-0.096l-0.24,0.192l-0.336,-0.528l0.432,-0.144l0,-0.096l0.24,-0.048l0.288,-0.384l-0.432,-0.192l0.048,-0.192l0.288,0.048l0.288,0.192l-0.144,0.048l0.048,0.096l0.192,-0.048l0.144,0.096l0.144,0.288l-0.048,0.384l-0.192,0l-0.096,-0.096l0.096,-0.24l-0.144,-0.144Zm-5.28,2.64l-0.048,-0.192l-0.144,-0.144l-0.048,0.096l-0.528,-0.528l-0.048,-0.288l0.048,-0.096l0.144,0.096l0.24,-0.144l0.048,-0.096l-0.144,-0.288l0.288,0l-0.288,-0.384l0.144,-0.096l0.192,0l0.192,0.096l-0.048,0.24l-0.144,0.192l0,0.096l0.096,0l-0.192,0.144l0.192,0.048l-0.048,0.048l0.096,0l0,0.24l-0.048,-0.048l-0.24,0.288l0.144,0.096l0.24,-0.192l-0.048,-0.24l0.192,0.144l-0.192,0.432l0.192,0.432l-0.048,0.048l-0.192,0Zm1.776,-6.816l0.192,-0.192l-0.048,-0.192l-0.192,-0.24l0,-0.192l0.48,-0.096l0.288,0.192l-0.432,0.144l0.048,0.144l0.144,0.096l0.288,-0.288l0.048,0.192l0.288,0.336l-0.048,0.144l-0.528,-0.336l-0.288,0.336l0.096,0.048l0.24,-0.048l-0.096,0.144l-0.24,0l0,0.096l-0.096,-0.048l-0.24,0.048l-0.096,-0.144l0.048,-0.144l0.144,0Zm3.744,5.52l-0.24,0.096l-0.048,0.096l0.048,0.096l-0.144,-0.096l0.096,-0.288l-0.048,-0.048l-0.336,0l0.048,-0.288l0.192,-0.048l0.048,0.192l0.288,-0.192l0.144,0.288l0.48,-0.048l-0.048,0.192l-0.432,0l-0.048,0.048Zm-1.008,0l-0.096,0.096l0.144,0.384l-0.24,0.096l0.048,-0.144l-0.048,-0.096l-0.24,0.048l-0.192,0.144l0,-0.24l0.096,-0.192l0.144,-0.096l0.24,-0.048l-0.048,-0.144l0.288,-0.048l0.048,0.144l-0.144,0.096Zm0.288,-3.984l0.096,-0.48l0.144,-0.048l0.096,0.048l-0.096,0.24l-0.048,-0.096l-0.048,0.192l0.24,0.192l-0.048,0.144l0.144,0.336l-0.192,-0.096l0,-0.048l-0.24,0.048l-0.144,-0.048l0,-0.096l0.192,-0.192l0,-0.096l-0.096,0Zm0.192,-0.816l-0.144,0.24l-0.192,0.048l-0.096,-0.048l-0.096,0.288l-0.144,0.096l0,0.192l-0.096,-0.096l0.048,-0.24l0.096,-0.144l0.048,-0.288l0.384,-0.048l0.192,0Zm-6.048,0.912l-0.24,0.144l-0.048,-0.144l-0.144,-0.048l0.096,-0.288l-0.048,-0.288l0.144,-0.048l0.096,0.528l0.096,0.048l0.048,0.096Zm-0.384,1.056l-0.096,0.576l-0.192,-0.096l0,0.096l-0.096,-0.192l0.048,-0.24l0.144,-0.144l0.192,0Zm5.568,-0.96l-0.048,-0.096l-0.096,0l0.048,-0.096l0.192,-0.048l-0.048,0.192l0.048,0.096l0.096,0l-0.096,0.144l-0.384,0.048l0.048,-0.048l-0.096,-0.048l0.192,-0.192l0,0.048l0.048,-0.048l0.096,0.048Zm-0.336,-1.2l-0.048,0.192l-0.528,-0.192l0.144,-0.192l0.384,0.192l0.048,0Zm0.72,1.536l0.096,0.048l-0.048,0.24l-0.144,0.144l-0.144,0l-0.048,-0.24l0.192,0l0.096,-0.192Zm-3.36,5.28l-0.048,-0.144l0.096,-0.192l0.096,0l0.192,0.192l-0.288,0.192l-0.048,-0.048Zm-2.784,-2.976l0.24,0.096l0.096,-0.096l0.048,0.192l-0.048,0.144l-0.192,-0.048l-0.144,-0.192l0,-0.096Zm2.208,2.688l0,0.192l-0.144,-0.048l-0.288,-0.24l0.096,-0.048l0.24,0.048l0.096,0.096Zm0.144,-0.336l-0.24,0.192l-0.048,-0.24l0.24,0.048l0.096,-0.048l-0.096,-0.144l0.096,-0.048l0.192,0.192l0,0.096l-0.144,0l-0.096,-0.048Zm3.552,-6.336l0.096,0.048l0.048,0.288l-0.288,0l-0.192,-0.096l0.096,-0.048l0.144,0.048l0.096,-0.048l0,-0.192Zm0.72,2.544l0.096,0.096l0.192,-0.048l-0.048,0.24l-0.384,-0.144l0.048,-0.096l0.096,-0.048Zm1.392,-3.552l0.24,0.144l0,0.192l-0.24,-0.048l-0.048,-0.192l0.048,-0.096Zm-1.584,7.728l0.192,0.096l0.048,0.192l-0.192,0.048l-0.096,-0.24l0.048,-0.096Zm-5.904,-3.936l0.24,-0.048l0.096,0.048l-0.096,0.096l0.048,0.096l0.096,0l-0.144,0.096l-0.144,-0.144l-0.096,-0.144Zm8.496,0l-0.048,0.192l-0.144,0.144l-0.096,0l-0.048,-0.096l0.144,-0.144l0.192,-0.096Zm-4.848,-4.464l-0.096,0.288l-0.192,-0.048l0.096,-0.24l0.192,0Zm3.072,3.936l0.288,0.096l0.048,0.096l-0.192,0.048l-0.144,-0.096l0,-0.144Zm-1.44,3.984l-0.096,-0.336l0.336,0.288l-0.048,0.048l-0.192,0Zm-2.928,-5.856l-0.24,0.048l-0.048,0.096l-0.048,-0.192l0.144,-0.096l0.144,0.048l0.048,0.096Zm-3.744,2.928l0.096,0.048l0.048,-0.144l0.144,0.096l0,0.096l-0.096,-0.048l-0.192,0.192l-0.048,-0.144l0.048,-0.096Zm4.416,-3.216l0.24,-0.048l0.096,0.048l-0.288,0.192l-0.048,-0.096l0,-0.096Zm-1.344,5.664l0.192,-0.048l0.048,0.144l-0.096,0.192l-0.144,-0.288Zm0.528,-6.24l-0.048,0.288l-0.192,-0.192l0.048,-0.096l0.192,0Zm4.464,1.248l-0.096,0.048l-0.144,-0.096l0.048,-0.192l0.192,0.144l0,0.096Zm-1.776,4.08l0.048,-0.096l0.192,-0.096l0.048,0.192l-0.192,0.048l-0.096,-0.048Zm0.624,-0.336l0.144,-0.096l0.048,-0.192l-0.048,-0.048l-0.192,0.192l0.048,0.096l0,0.048Zm2.448,-2.112l0.096,0.096l0.048,0.192l-0.192,-0.048l-0.048,-0.096l0.048,-0.096l0.048,-0.048Zm-8.016,0.384l-0.096,0.048l-0.144,-0.096l0,-0.096l0.096,-0.048l0.144,0.096l0,0.096Zm5.136,-1.968l-0.24,-0.048l0.048,-0.192l0.192,0.096l0,0.144Zm-6.432,3.456l0.096,-0.144l0.288,0l-0.144,0.144l-0.24,0Zm8.256,1.296l-0.192,0.048l-0.096,-0.144l0.144,-0.048l0.192,0.096l-0.048,0.048Zm-0.864,0l-0.192,-0.048l-0.048,-0.192l0.192,0.048l0.048,0.096l0,0.096Zm-2.064,1.68l-0.144,-0.096l-0.048,-0.192l0.192,0.048l0,0.24Zm-2.592,-8.304l-0.096,0.048l-0.096,-0.144l0.144,-0.096l0.096,0.096l-0.048,0.096Zm7.92,4.896l-0.048,0.192l-0.24,-0.048l0.192,-0.144l0.096,0Zm-7.632,-3.12l0.048,-0.24l0.144,0.096l-0.048,0.144l-0.144,0Zm3.168,6.048l-0.24,-0.144l0.144,-0.048l0.192,0.096l-0.096,0.096Zm0.192,-7.056l-0.096,0.144l-0.192,0.096l0.048,-0.192l0.096,0l0.144,-0.048Zm-5.184,2.448l0,-0.192l0.192,0.048l-0.096,0.144l-0.096,0Zm-0.96,0.384l0.048,-0.192l-0.096,-0.336l0.192,0.432l-0.048,0.048l-0.096,0.048Zm0.72,-4.416l0,-0.144l0.144,0l0.048,0.096l-0.048,0.048l-0.144,0Zm-0.048,6.96l-0.144,0.192l-0.096,-0.144l0.048,-0.048l0.192,0Zm6.48,-4.896l0.336,-0.096l-0.048,0.096l-0.288,0.096l0.096,-0.048l-0.096,-0.048Zm-5.376,6.528l-0.192,-0.048l0.048,-0.096l0.192,0l-0.048,0.096l0,0.048Zm-1.824,-5.04l0.192,0l0,0.144l-0.192,-0.048l0,-0.096Zm2.976,5.328l0.192,-0.048l0.048,0.048l-0.192,0.144l-0.048,-0.144Zm6.24,-6.96l-0.096,0l-0.096,-0.096l0,-0.096l0.096,0l0.096,0.192Zm-3.408,1.056l0,-0.144l0.24,0.096l-0.048,0.048l-0.192,0Zm-3.312,-0.672l0.048,0.192l-0.096,0.048l-0.048,-0.336l0.096,0.096Zm3.264,5.376l-0.192,-0.048l-0.096,-0.144l0.24,0.096l0.048,0.096Zm1.296,-2.112l-0.048,0.096l-0.192,0l0,-0.096l0.24,0Zm-3.36,-4.464l0.144,0.096l0,0.096l-0.192,-0.048l0.048,-0.048l0,-0.096Zm-3.648,2.112l-0.048,-0.24l0.144,0l0,0.048l-0.096,0.192Zm2.16,-1.824l0.144,0l-0.048,0.144l-0.096,0.048l0,-0.192Zm1.872,-1.824l0.144,0.096l-0.048,0.096l-0.096,0l0,-0.192Zm-4.08,4.992l-0.144,0l-0.048,-0.096l0.144,-0.048l0.048,0.144Zm-0.576,1.392l0,-0.096l0.096,-0.048l0.048,0.144l-0.048,0.048l-0.096,-0.048Zm4.656,-5.76l-0.144,-0.096l0,-0.096l0.096,0l0.048,0.096l0,0.096Zm1.92,5.856l0,0.192l-0.096,-0.048l0,-0.144l0.096,0Zm2.496,-2.112l-0.096,0l0,-0.192l0.144,0.144l-0.048,0.048Zm-6.576,3.216l-0.048,0.192l0.096,0l0.048,-0.096l-0.096,-0.096Zm0.528,0.048l0.144,-0.096l0.048,0.048l-0.048,0.096l-0.096,0l-0.048,-0.048Zm6.96,-3.168l0.096,0l0.048,0.096l-0.144,0.048l0,-0.144Zm-8.688,3.168l0.096,0.048l-0.048,0.192l-0.048,-0.048l0,-0.192Zm1.008,0.816l-0.096,-0.048l0.048,-0.192l0.048,0.048l0,0.192Zm5.952,-6.624l-0.048,0.192l-0.096,-0.048l0.048,-0.096l0.096,-0.048Zm-1.488,6.192l0.096,0.144l-0.096,0.048l-0.048,-0.24l0.048,0.048Zm-0.72,-8.88l0.144,0.096l-0.048,0.096l-0.096,-0.096l0,-0.096Zm-4.944,11.088l0.048,-0.144l0.096,0l-0.048,0.144l-0.096,0Zm0.24,-7.68l0.144,-0.144l0.096,0l-0.144,0.144l-0.096,0Zm2.88,7.008l0.192,0l-0.048,0.096l-0.096,0l-0.048,-0.096Zm-2.016,-6.528l0.048,-0.048l0.048,0.192l-0.144,0.096l0.096,-0.144l-0.048,-0.096Zm-1.056,4.896l-0.048,0.144l-0.096,-0.048l0.048,-0.096l0.096,0Zm-0.576,-5.28l0.096,0l0.048,0.096l-0.144,0l0,-0.096Zm1.056,4.32l0.048,-0.096l-0.048,-0.096l0.144,-0.048l-0.096,0.192l-0.048,0.048Zm-0.336,-4.368l-0.048,0.144l-0.096,0l0.048,-0.096l0.096,-0.048Zm2.736,-1.632l0.144,0.096l-0.144,0.048l0,-0.144Zm2.256,2.88l0,-0.144l0.144,0.096l-0.144,0.048Zm-0.336,4.176l-0.048,-0.24l0.096,0l-0.048,0.144l0,0.096Zm1.152,-5.712l-0.096,0.096l-0.048,-0.048l0.096,-0.096l0.048,0.048Zm-0.96,6.672l-0.096,-0.096l0.096,-0.096l0,0.192Zm-4.56,-1.584l0.144,0.048l0,0.048l-0.096,0l-0.048,-0.096Zm3.984,-7.056l0.096,0.048l-0.048,0.096l-0.048,-0.048l0,-0.096Zm-4.128,8.112l-0.048,-0.144l0.144,0.096l-0.096,0.048Zm5.952,-5.088l-0.096,0.144l-0.048,-0.048l0.048,-0.048l0.096,-0.048Zm0.768,-0.96l0.048,-0.096l0.048,0.096l-0.048,0.048l-0.048,-0.048Zm-3.744,7.728l-0.048,-0.192l0.096,0.096l-0.048,0.096Zm-4.032,-5.952l-0.048,0.144l-0.048,-0.144l0.096,0Zm0.528,1.728l-0.048,-0.048l0.048,-0.096l0.048,0.096l-0.048,0.048Zm1.104,-3.552l0.096,0.048l-0.096,0.048l0,-0.096Zm7.536,-0.48l0.096,0.048l-0.048,0.048l-0.048,-0.096Zm-8.688,-1.488l0.048,-0.096l0.048,0.048l-0.096,0.048Zm7.344,8.976l0.048,-0.096l0.048,0.048l-0.096,0.048Zm0.96,-3.36l0.192,-0.048l-0.048,0.048l-0.144,0Zm-7.968,-1.872l-0.192,0.048l0.048,-0.048l0.144,0Zm-0.816,2.016l0.048,-0.096l0.048,0.048l-0.096,0.048Zm0.336,-0.192l-0.192,0.048l0.048,-0.048l0.144,0Zm7.152,-1.296l0.048,0.048l-0.096,0.096l0.048,-0.096l0,-0.048Zm2.592,-0.096l-0.096,0.048l0,-0.048l0.096,0Zm-9.648,1.68l0.096,-0.096l0,0.048l-0.096,0.048Zm2.304,-3.024l-0.048,-0.096l0.048,0l0,0.096Zm-0.24,-0.912l-0.096,-0.144l0.048,0.048l0.048,0.096Zm-0.336,7.392l-0.048,0.096l0.048,-0.144l0,0.048Zm3.552,0.096l0,-0.048l0.048,0.048l-0.048,0Z"
              style="fill-rule:nonzero;"/>
    </g>
</svg>
